<?xml version="1.0" encoding="iso-8859-1"?>
<!-- Generator: Adobe Illustrator 25.4.1, SVG Export Plug-In . SVG Version: 6.00 Build 0)  -->
<svg version="1.1" id="Calque_1" xmlns="http://www.w3.org/2000/svg" xmlns:xlink="http://www.w3.org/1999/xlink" x="0px" y="0px"
	 viewBox="0 0 368.5 368.5" style="enable-background:new 0 0 368.5 368.5;" xml:space="preserve">
<g>
	<defs>
		<rect id="SVGID_1_" width="368.5" height="368.5"/>
	</defs>
	<clipPath id="SVGID_00000111164454227087918240000007715022413024859319_">
		<use xlink:href="#SVGID_1_"  style="overflow:visible;"/>
	</clipPath>
	<path style="clip-path:url(#SVGID_00000111164454227087918240000007715022413024859319_);fill:#FFFFFF;" d="M53.957,288.812
		c10.01,6.561,18.424,8.018,26.384,4.596c2.205,12.617,19.88,22.867,38.22,23.705c12.011,0.552,16.938-3.078,23.936-9.1
		c4.854,10.432,24.549,17.971,40.846,17.971c0.307,0,0.605-0.025,0.909-0.025c0.307,0,0.6,0.025,0.907,0.025
		c16.3,0,33.048-7.539,37.899-17.971c7,6.022,14.874,9.652,26.885,9.1c18.338-0.838,36.013-11.088,38.221-23.705
		c7.957,3.422,16.371,1.965,26.382-4.596c11.661-7.646,8.856-19.732,6.595-29.221c0.301-1.159-33.767-186.333-33.767-186.333
		c0-16.971-45.76-30.738-102.215-30.738c-56.45,0-102.21,13.767-102.21,30.738h-1.818c0,0-34.069,185.174-33.765,186.333
		C45.103,269.08,42.297,281.166,53.957,288.812 M115.432,59.996c18.503-5.569,43.264-8.629,69.727-8.629
		c26.465,0,51.226,3.06,69.732,8.629c19.437,5.845,23.642,12.039,23.642,13.262c0,1.221-4.205,7.424-23.642,13.269
		c-18.503,5.561-43.264,8.623-69.732,8.623c-26.463,0-51.224-3.062-69.727-8.623C95.998,80.682,91.79,74.479,91.79,73.258
		C91.79,72.035,95.998,65.841,115.432,59.996"/>
</g>
</svg>
