<?xml version="1.0" encoding="iso-8859-1"?>
<!-- Generator: Adobe Illustrator 25.4.1, SVG Export Plug-In . SVG Version: 6.00 Build 0)  -->
<svg version="1.1" id="Calque_1" xmlns="http://www.w3.org/2000/svg" xmlns:xlink="http://www.w3.org/1999/xlink" x="0px" y="0px"
	 viewBox="0 0 368.5 368.5" style="enable-background:new 0 0 368.5 368.5;" xml:space="preserve">
<g>
	<defs>
		<rect id="SVGID_1_" width="368.5" height="368.5"/>
	</defs>
	<clipPath id="SVGID_00000171694350574343334570000009313426875686321810_">
		<use xlink:href="#SVGID_1_"  style="overflow:visible;"/>
	</clipPath>
	<path style="clip-path:url(#SVGID_00000171694350574343334570000009313426875686321810_);fill:#FFFFFF;" d="M198.082,204.253
		c0.399-1.932,1.067-3.675,1.937-5.155h-7.494c-1.65,0-3.435,2.041-4.335,5.155H198.082z"/>
	<path style="clip-path:url(#SVGID_00000171694350574343334570000009313426875686321810_);fill:#FFFFFF;" d="M211.913,204.253
		c-0.899-3.114-2.685-5.155-4.335-5.155s-3.436,2.041-4.334,5.155H211.913z"/>
	<path style="clip-path:url(#SVGID_00000171694350574343334570000009313426875686321810_);fill:#FFFFFF;" d="M254.75,199.098h-7.494
		c-1.651,0-3.435,2.041-4.335,5.155h9.892C253.211,202.322,253.879,200.578,254.75,199.098"/>
	<path style="clip-path:url(#SVGID_00000171694350574343334570000009313426875686321810_);fill:#FFFFFF;" d="M262.309,199.098
		c-1.651,0-3.436,2.04-4.336,5.155h8.671C265.744,201.138,263.959,199.098,262.309,199.098"/>
	<path style="clip-path:url(#SVGID_00000171694350574343334570000009313426875686321810_);fill:#FFFFFF;" d="M168.764,193.675
		h13.286c-1.855-1.958-3.063-3.244-3.603-3.837c-2.705-2.975-3.546-7.181-2.093-10.467c1.367-3.091,4.542-4.863,8.711-4.863
		c8.167,0,12.927,5.947,16.403,10.289c0.455,0.569,0.893,1.117,1.321,1.628c2.021,2.415,4.052,5.126,5.602,7.25h28.771
		c-1.865-1.968-3.054-3.235-3.602-3.837c-2.706-2.974-3.547-7.18-2.093-10.467c1.366-3.091,4.542-4.863,8.712-4.863
		c8.167,0,12.927,5.948,16.402,10.291c0.455,0.568,0.893,1.116,1.321,1.626c2.021,2.415,4.051,5.126,5.602,7.25h19.558
		c1.421-1.658,4.284-6.542-1.625-14.715c-11.192-15.483-27.962-38.326-44.321-57.866c-3.068-3.664-6.173-7.545-9.461-11.653
		c-22.865-28.575-51.321-64.138-98.595-64.138c-21.077,0-36.137,7.809-42.406,21.987c-6.87,15.535-2.314,36.667,11.078,51.389
		C109.135,131.213,161.876,186.462,168.764,193.675"/>
	<path style="clip-path:url(#SVGID_00000171694350574343334570000009313426875686321810_);fill:#FFFFFF;" d="M268.295,209.231
		c-0.196,0.049-0.169,0.023-0.373,0.022H158.195c-6.022,5.194-48.767,42.094-60.09,52.628
		c-12.257,11.405-17.149,27.569-12.172,40.224c5.349,13.601,20.849,21.091,43.646,21.091c47.398,0,75.86-30.106,98.73-54.297
		c3.289-3.478,6.396-6.765,9.466-9.869c14.195-14.351,33.693-38.442,36.887-42.411c0.029-0.864-0.128-2.767-1.754-4.605
		C270.564,209.366,268.654,209.231,268.295,209.231 M230.536,232.713c-0.29,0.301-29.11,30.188-36.806,37.625
		c-17.174,16.595-34.858,31.491-62.257,31.491c-14.414,0-19.543-5.492-21.308-10.099c-3.255-8.5,2.785-19.125,9.775-25.4
		c5.999-5.385,42.611-36.987,42.98-37.305c0.453-0.392,1.034-0.608,1.633-0.608h0.003l64.183,0.061
		c1.002,0.001,1.907,0.6,2.299,1.523C231.429,230.924,231.232,231.991,230.536,232.713"/>
	<path style="clip-path:url(#SVGID_00000171694350574343334570000009313426875686321810_);fill:#FFFFFF;" d="M197.564,187.922
		c-3.156-3.944-6.734-8.414-12.498-8.414c-1.508,0-3.449,0.328-4.139,1.886c-0.634,1.435-0.11,3.619,1.218,5.079
		c0.79,0.868,3.1,3.313,6.868,7.273h13.201c-1.036-1.365-2.153-2.791-3.258-4.111C198.506,189.098,198.044,188.521,197.564,187.922"
		/>
	<path style="clip-path:url(#SVGID_00000171694350574343334570000009313426875686321810_);fill:#FFFFFF;" d="M252.678,187.923
		c-3.156-3.944-6.734-8.415-12.499-8.415c-1.508,0-3.45,0.328-4.139,1.886c-0.635,1.435-0.111,3.618,1.218,5.079
		c0.789,0.866,3.098,3.312,6.868,7.273h13.201c-1.036-1.365-2.153-2.791-3.259-4.112
		C253.618,189.098,253.157,188.521,252.678,187.923"/>
</g>
</svg>
