<?xml version="1.0" encoding="iso-8859-1"?>
<!-- Generator: Adobe Illustrator 25.4.1, SVG Export Plug-In . SVG Version: 6.00 Build 0)  -->
<svg version="1.1" id="Calque_1" xmlns="http://www.w3.org/2000/svg" xmlns:xlink="http://www.w3.org/1999/xlink" x="0px" y="0px"
	 viewBox="0 0 368.5 368.5" style="enable-background:new 0 0 368.5 368.5;" xml:space="preserve">
<g>
	<defs>
		<rect id="SVGID_1_" width="368.5" height="368.5"/>
	</defs>
	<clipPath id="SVGID_00000133502440025277677150000006942510870157594807_">
		<use xlink:href="#SVGID_1_"  style="overflow:visible;"/>
	</clipPath>
	<path style="clip-path:url(#SVGID_00000133502440025277677150000006942510870157594807_);fill:#FFFFFF;" d="M305.871,166.216
		h-78.089c9.618-4.727,17.499-10.709,17.968-11.067c1.021-0.782,1.432-2.129,1.019-3.349c-0.413-1.219-1.559-2.038-2.845-2.038
		h-36.31c5.352-1.947,10.989-4.239,15.537-6.655c12.682-6.739,19.871-16.314,20.17-16.719c0.675-0.912,0.781-2.126,0.27-3.138
		c-0.51-1.015-1.549-1.655-2.683-1.655h-18.547c1.252-1.14,2.687-2.464,4.305-3.984c6.647-6.246,10.491-14.342,10.652-14.683
		c0.438-0.931,0.367-2.02-0.182-2.887c-0.552-0.866-1.508-1.394-2.537-1.394h-11.072l7.678-13.536c0.527-0.93,0.52-2.07-0.018-2.993
		c-0.538-0.925-1.525-1.493-2.595-1.493h-10.097l5.472-9.858c0.516-0.931,0.502-2.064-0.037-2.981c-0.54-0.917-1.526-1.48-2.59-1.48
		h-7.935l2.129-9.443c0.202-0.891-0.013-1.824-0.582-2.536c-0.572-0.714-1.434-1.129-2.347-1.129H200.4l0.927-7.296
		c0.108-0.857-0.157-1.717-0.726-2.365c-0.571-0.648-1.392-1.017-2.254-1.017h-83.7c0.145,0.069,0.289,0.152,0.438,0.225
		c0.825,0.042,1.588,0.453,2.114,1.09c2.251,1.293,4.441,2.877,6.581,4.692h71.156l-0.594,4.671h-65.673
		c1.705,1.833,3.359,3.849,4.973,6.008h75.206l-1.602,7.1h-68.823c1.174,1.921,2.323,3.909,3.432,6.007h74.383l-4.615,8.312h-65.751
		c0.864,1.949,1.707,3.945,2.521,6.007h75.042l-6.598,11.633c-0.071,0.124-0.118,0.254-0.17,0.382h-64.044
		c0.62,1.965,1.218,3.968,1.793,6.008h75.044c-1.608,2.547-3.962,5.809-6.909,8.577c-4.76,4.473-7.981,7.291-9.225,8.363h-54.795
		c0.406,1.979,0.796,3.979,1.163,6.008h74.465c-3.099,3.04-7.789,6.989-13.828,10.197c-11.375,6.046-30.808,11.531-32.345,11.962
		H162.8c0.205,1.987,0.399,3.985,0.569,6.007h70.794c-5.669,3.532-13.538,7.793-20.749,9.473
		c-13.139,3.061-39.87,4.553-49.171,4.357c0.201,4.814,0.309,9.701,0.309,14.657c0,0.129-0.004,0.259-0.004,0.387h84.898
		c-6.766,2.934-16.959,6.804-27.233,8.66c-17.057,3.08-54.534,1.05-57.817,0.864c-0.124,4.375-0.317,8.701-0.601,12.952
		c3.356,1.037,9.101,2.429,18.823,3.923c3.299,0.508,7.419,1.085,11.954,1.692h-31.203c-0.17,2.02-0.364,4.018-0.567,6.007h23.115
		c0.107,0.109,0.215,0.219,0.34,0.313c2.304,1.738,4.091,3.113,5.597,4.273c5.648,4.349,7.551,5.814,18.056,11.894
		c3.663,2.121,7.951,4.038,12.131,5.675h-62.345c-0.367,2.03-0.759,4.029-1.161,6.008h43.77c0.109,0.111,0.223,0.223,0.354,0.318
		l22.741,16.625h-70.982c-0.577,2.04-1.173,4.043-1.793,6.008h57.412l11.515,12.015h-73.157c-0.814,2.061-1.657,4.06-2.521,6.007
		h61.085c0.057,0.077,0.078,0.167,0.143,0.237l7.408,8.074h-72.651c-1.109,2.097-2.259,4.086-3.432,6.007h65.382l4.175,7.1h-74.336
		c-1.612,2.159-3.268,4.173-4.973,6.008h60.058l3.555,4.674h-68.501c-2.941,2.492-5.99,4.507-9.132,6.007h83.692
		c1.142,0,2.184-0.647,2.69-1.67c0.507-1.023,0.391-2.245-0.299-3.153l-4.457-5.858h16.148c0.291,0.092,0.592,0.154,0.901,0.154
		c0.519,0,1.043-0.133,1.522-0.415c1.429-0.842,1.906-2.683,1.066-4.112l-5.138-8.735h10.56c1.191,0,2.271-0.703,2.75-1.795
		c0.479-1.09,0.27-2.361-0.536-3.239l-8.517-9.284h13.555c1.203,0,2.29-0.717,2.763-1.824c0.471-1.107,0.239-2.388-0.594-3.258
		l-12.401-12.94h16.239c1.301,0,2.453-0.836,2.856-2.071c0.402-1.236-0.034-2.592-1.084-3.358l-23.97-17.522h28.507
		c1.512,0,2.789-1.125,2.981-2.625c0.189-1.5-0.763-2.908-2.228-3.287c-0.178-0.045-17.845-4.659-28.741-10.969
		c-10.021-5.8-11.8-7.144-17.176-11.282h48.18c1.592,0,2.908-1.243,3-2.833c0.089-1.591-1.078-2.977-2.66-3.155
		c-0.426-0.049-42.836-4.895-60.733-7.648c-3.064-0.471-5.695-0.927-7.959-1.359h130.299c10.365,0,18.766-8.403,18.766-18.766
		C324.637,174.615,316.236,166.216,305.871,166.216"/>
	<path style="clip-path:url(#SVGID_00000133502440025277677150000006942510870157594807_);fill:#FFFFFF;" d="M129.772,226.873
		c-0.34,1.154-0.694,2.291-1.062,3.399c1.287,3.596,4.43,11.446,9.225,17.526c4.3,5.452,8.503,9.518,11.104,11.841
		c1.269-4.644,2.428-9.467,3.465-14.458c-2.214-1.191-9.328-5.2-15.731-10.781C133.832,231.836,131.536,229.216,129.772,226.873"/>
	<path style="clip-path:url(#SVGID_00000133502440025277677150000006942510870157594807_);fill:#FFFFFF;" d="M150.511,114.544
		c-1.441,4.286-3.78,9.171-7.609,13.824c-4.68,5.69-9.817,9.144-13.775,11.181c0.764,2.404,1.47,4.907,2.108,7.516
		c2.957-0.898,6.84-2.494,11.272-5.352c8.299-5.349,10.128-15.528,10.145-15.631c0.049-0.28,0.145-0.536,0.26-0.78
		C152.179,121.625,151.371,118.042,150.511,114.544"/>
	<path style="clip-path:url(#SVGID_00000133502440025277677150000006942510870157594807_);fill:#FFFFFF;" d="M101.205,323.143
		c3.16,0,6.268-0.69,9.305-1.951c-3.951-4.389-11.622-14.328-15.676-29.107c-3.44-12.53-3.681-27.96-3.601-34.599
		c-14.18-9.318-24.253-38.158-24.253-73.231c0-42.852,15.033-76.42,34.225-76.42c7.994,0,15.261,5.84,21.027,15.735
		c2.747-2.711,7.74-8.224,11.735-15.883c5.92-11.343,6.561-23.11,6.567-23.228c0.002-0.048,0.016-0.09,0.021-0.138
		c-0.794-1.836-1.607-3.623-2.44-5.351c-0.925,5.048-2.411,11.727-4.49,16.751c-3.7,8.945-7.107,13.934-7.25,14.142
		c-0.58,0.846-1.519,1.3-2.473,1.3c-0.587,0-1.18-0.172-1.7-0.529c-1.367-0.937-1.713-2.806-0.776-4.175
		c0.031-0.045,3.213-4.73,6.649-13.035c3.43-8.29,5.214-22.342,5.231-22.482c0.029-0.234,0.092-0.453,0.17-0.666
		c-1.212-2.048-2.46-3.974-3.735-5.796c-0.344,4.102-0.884,9.422-1.666,14.263c-1.565,9.7-3.806,14.261-3.9,14.45
		c-0.526,1.054-1.588,1.663-2.689,1.663c-0.451,0-0.909-0.103-1.339-0.318c-1.484-0.741-2.087-2.545-1.346-4.029
		c0.014-0.027,1.946-4.057,3.344-12.724c1.354-8.371,1.974-18.587,2.069-20.262c-2.014-2.207-4.075-4.172-6.195-5.806
		c0.039,3.971,0.016,9.236-0.254,13.814c-0.528,9.018-1.699,15.853-1.75,16.14c-0.253,1.46-1.522,2.49-2.955,2.49
		c-0.17,0-0.342-0.015-0.516-0.044c-1.635-0.284-2.731-1.838-2.447-3.473c0.01-0.067,1.164-6.805,1.672-15.465
		c0.356-6.062,0.26-13.606,0.184-17.218c-2.838-1.367-5.742-2.198-8.693-2.465c0.519,2.077,1.174,5.39,1.34,9.46
		c0.264,6.478,0.137,12.325,0.133,12.57c-0.037,1.636-1.375,2.937-3.002,2.937c-0.023,0-0.047,0-0.068-0.001
		c-1.659-0.038-2.975-1.412-2.938-3.071c0.002-0.057,0.129-5.91-0.129-12.189c-0.188-4.574-1.083-8.07-1.48-9.425
		c-3.219,0.581-6.373,1.825-9.44,3.7c1.164,1.613,2.848,4.083,3.751,6.076c2.147,4.723,2.599,8.645,2.619,8.808
		c0.181,1.65-1.008,3.134-2.656,3.316c-0.112,0.013-0.225,0.018-0.335,0.018c-1.511,0-2.812-1.136-2.982-2.673
		c-0.002-0.022-0.387-3.181-2.116-6.984c-0.653-1.438-2.051-3.51-3.131-5.01c-15.089,12.834-27.529,40.815-34.039,76.019
		l2.206-0.857c1.537-0.603,3.288,0.165,3.888,1.711c0.6,1.547-0.166,3.287-1.713,3.888l-5.57,2.165
		c-0.76,4.785-1.416,9.684-1.951,14.687l3.05-0.434c1.663-0.242,3.164,0.907,3.399,2.551c0.233,1.643-0.909,3.162-2.552,3.397
		l-4.498,0.639c-0.385,4.463-0.682,8.996-0.88,13.588l4.216,0.526c1.647,0.205,2.814,1.706,2.609,3.354
		c-0.189,1.517-1.484,2.63-2.976,2.63c-0.125,0-0.25-0.008-0.376-0.024l-3.668-0.457c-0.065,2.601-0.104,5.213-0.104,7.846
		c0,1.715,0.027,3.417,0.055,5.121h0.76c1.659,0,3.004,1.344,3.004,3.004c0,1.659-1.345,3.004-3.004,3.004h-0.604
		c0.133,3.862,0.331,7.687,0.599,11.466l0.154-0.032c1.629-0.326,3.209,0.729,3.536,2.355c0.326,1.627-0.73,3.211-2.355,3.536
		l-0.854,0.171c0.328,3.611,0.715,7.172,1.161,10.682l1.815-0.15c1.61-0.147,3.104,1.091,3.242,2.745
		c0.137,1.654-1.093,3.106-2.745,3.243l-1.492,0.123c0.496,3.369,1.046,6.682,1.648,9.934l1.32-0.397
		c1.588-0.478,3.264,0.423,3.741,2.015c0.477,1.587-0.424,3.261-2.012,3.739l-1.885,0.567c0.657,3.152,1.361,6.243,2.114,9.261
		l2.45-1.574c1.393-0.894,3.254-0.495,4.15,0.904c0.898,1.395,0.493,3.254-0.903,4.151l-4.09,2.627
		c1.109,3.978,2.3,7.822,3.567,11.507l3.313-4.481c0.986-1.335,2.865-1.617,4.201-0.63c1.333,0.985,1.615,2.868,0.629,4.201
		l-5.276,7.136c-0.121,0.166-0.266,0.303-0.41,0.436c2.675,6.864,5.624,13.087,8.804,18.559c0.027-4.232,0.211-9.312,0.803-13.729
		c1.276-9.584,3.519-15.102,3.614-15.333c0.632-1.531,2.394-2.265,3.921-1.631c1.535,0.631,2.265,2.387,1.633,3.922
		c-0.017,0.044-2.049,5.098-3.213,13.838c-1.195,8.926-0.606,21.368-0.6,21.493c0.011,0.226-0.008,0.445-0.045,0.658
		c4.281,5.59,8.866,9.878,13.662,12.678c-1.753-5.258-4.705-15.2-5.642-25.01c-1.168-12.269-0.206-26.604-0.163-27.208
		c0.112-1.658,1.549-2.914,3.202-2.79c1.656,0.113,2.904,1.547,2.79,3.203c-0.01,0.142-0.97,14.456,0.151,26.225
		c1.255,13.14,6.557,27.088,6.61,27.228c0.174,0.453,0.217,0.92,0.172,1.372C97.309,322.888,99.248,323.143,101.205,323.143"/>
	<path style="clip-path:url(#SVGID_00000133502440025277677150000006942510870157594807_);fill:#FFFFFF;" d="M125.116,129.127
		c0.692,1.495,1.353,3.056,1.985,4.681c3.27-1.784,7.398-4.681,11.163-9.256c8.487-10.319,8.534-22.316,8.534-22.438
		c0-0.231,0.029-0.454,0.078-0.671c-0.649-2.076-1.328-4.097-2.022-6.083c-1.06,4.428-2.775,9.769-5.56,15.106
		C134.17,120.283,127.684,126.776,125.116,129.127"/>
	<path style="clip-path:url(#SVGID_00000133502440025277677150000006942510870157594807_);fill:#FFFFFF;" d="M145.763,146.762
		c-5.169,3.334-9.729,5.169-13.238,6.189c0.824,4.202,1.485,8.611,1.968,13.195c2.949-0.358,6.657-1.056,10.11-2.437
		c6.569-2.63,11.049-9.436,12.311-11.54c-0.534-5.241-1.183-10.384-1.962-15.392C153.008,140.238,150.104,143.964,145.763,146.762"
		/>
	<path style="clip-path:url(#SVGID_00000133502440025277677150000006942510870157594807_);fill:#FFFFFF;" d="M156.423,218.769
		c-3.295,0-8.673-0.407-14.698-2.482c-3.297-1.137-6.149-2.816-8.503-4.554c-0.423,2.51-0.9,4.949-1.432,7.32
		c1.453,2.538,4.295,6.776,8.932,10.818c4.752,4.144,10.073,7.425,12.995,9.105c1.192-6.512,2.188-13.261,2.953-20.211
		C156.583,218.765,156.515,218.769,156.423,218.769"/>
	<path style="clip-path:url(#SVGID_00000133502440025277677150000006942510870157594807_);fill:#FFFFFF;" d="M101.205,133.867
		c-9.318,0-19.703,20.694-19.703,50.388s10.385,50.386,19.703,50.386s19.703-20.692,19.703-50.386S110.523,133.867,101.205,133.867"
		/>
	<path style="clip-path:url(#SVGID_00000133502440025277677150000006942510870157594807_);fill:#FFFFFF;" d="M158.488,189.38
		c-3.35,3.446-8.221,6.989-14.565,7.823c-1.528,0.201-2.969,0.289-4.32,0.289c-1.69,0-3.231-0.145-4.645-0.377
		c-0.19,2.61-0.438,5.169-0.739,7.675c2.265,2.062,5.511,4.455,9.463,5.818c5.879,2.024,11.008,2.216,13.584,2.145
		C157.952,205.15,158.363,197.337,158.488,189.38"/>
	<path style="clip-path:url(#SVGID_00000133502440025277677150000006942510870157594807_);fill:#FFFFFF;" d="M146.835,169.286
		c-4.113,1.645-8.432,2.452-11.818,2.853c0.27,3.939,0.413,7.982,0.413,12.115c0,2.31-0.053,4.586-0.139,6.839
		c2.122,0.406,4.731,0.565,7.85,0.154c9.05-1.189,14.567-10.349,15.353-11.735c-0.092-6.2-0.36-12.311-0.792-18.305
		C155.054,164.213,151.399,167.46,146.835,169.286"/>
	<path style="clip-path:url(#SVGID_00000133502440025277677150000006942510870157594807_);fill:#FFFFFF;" d="M147.204,265.988
		c-2.073-1.704-7.914-6.772-13.986-14.471c-3.315-4.203-5.869-9.029-7.678-13.048c-0.401,0.899-0.814,1.776-1.236,2.628
		c0.972,4.238,3.129,12.358,6.852,20.016c4.074,8.372,9.501,14.164,12.035,16.6C144.615,273.98,145.952,270.065,147.204,265.988"/>
	<path style="clip-path:url(#SVGID_00000133502440025277677150000006942510870157594807_);fill:#FFFFFF;" d="M140.79,283.644
		c-0.438-0.359-8.994-7.484-15.035-19.904c-2.612-5.37-4.48-10.852-5.757-15.283c-1.044,1.508-2.13,2.889-3.254,4.14
		c0.618,5.223,1.959,12.569,4.895,20.237c4.294,11.219,11.665,18.55,14.329,20.944C137.649,290.61,139.259,287.227,140.79,283.644"
		/>
	<path style="clip-path:url(#SVGID_00000133502440025277677150000006942510870157594807_);fill:#FFFFFF;" d="M132.962,299.12
		c-1.797-1.484-11.503-9.955-16.934-24.14c-2.456-6.413-3.868-12.547-4.689-17.595c-1.484,0.992-3.014,1.767-4.582,2.316
		c0.524,6.399,1.664,14.121,4.066,21.326c5.581,16.748,16.02,26.275,16.298,26.526C129.133,305.004,131.088,302.208,132.962,299.12"
		/>
	<path style="clip-path:url(#SVGID_00000133502440025277677150000006942510870157594807_);fill:#FFFFFF;" d="M123.209,312.095
		c-0.02-0.018-0.045-0.022-0.064-0.041c-0.484-0.428-11.892-10.734-18.021-29.128c-2.539-7.608-3.765-15.608-4.338-22.279
		c-1.199-0.029-2.38-0.191-3.543-0.479c0.039,7.238,0.557,20.033,3.383,30.328c4.106,14.964,12.418,24.667,15.345,27.74
		C118.449,316.573,120.868,314.533,123.209,312.095"/>
</g>
</svg>
