<?xml version="1.0" encoding="iso-8859-1"?>
<!-- Generator: Adobe Illustrator 25.4.1, SVG Export Plug-In . SVG Version: 6.00 Build 0)  -->
<svg version="1.1" id="Calque_1" xmlns="http://www.w3.org/2000/svg" xmlns:xlink="http://www.w3.org/1999/xlink" x="0px" y="0px"
	 viewBox="0 0 368.5 368.5" style="enable-background:new 0 0 368.5 368.5;" xml:space="preserve">
<polygon style="fill:#FFFFFF;" points="187.102,224.048 187.102,186.596 222.959,186.596 222.959,181.594 187.102,181.594 
	187.102,145.635 182.102,145.635 182.102,181.594 144.545,181.594 144.545,186.596 182.102,186.596 182.102,224.048 "/>
<rect x="235.576" y="256.606" style="fill:#FFFFFF;" width="45.767" height="19.678"/>
<rect x="235.576" y="165.897" style="fill:#FFFFFF;" width="45.767" height="19.677"/>
<g>
	<defs>
		<rect id="SVGID_1_" width="368.5" height="368.5"/>
	</defs>
	<clipPath id="SVGID_00000139267354610318764170000015687977947968124829_">
		<use xlink:href="#SVGID_1_"  style="overflow:visible;"/>
	</clipPath>
	<path style="clip-path:url(#SVGID_00000139267354610318764170000015687977947968124829_);fill:#FFFFFF;" d="M86.731,162.897h45.345
		v-17.47c0-0.774,0.055-1.504,0.139-2.208H88.06l-2.003,1.407v18.438C86.261,162.96,86.487,162.897,86.731,162.897"/>
	<path style="clip-path:url(#SVGID_00000139267354610318764170000015687977947968124829_);fill:#FFFFFF;" d="M86.057,165.731v20.01
		c0.204-0.103,0.43-0.167,0.674-0.167h45.345v-19.676H86.731C86.487,165.898,86.261,165.834,86.057,165.731"/>
	<path style="clip-path:url(#SVGID_00000139267354610318764170000015687977947968124829_);fill:#FFFFFF;" d="M132.076,208.252
		v-19.678H86.731c-0.244,0-0.47-0.064-0.674-0.167v20.011c0.204-0.102,0.43-0.166,0.674-0.166H132.076z"/>
	<path style="clip-path:url(#SVGID_00000139267354610318764170000015687977947968124829_);fill:#FFFFFF;" d="M235.411,143.219
		c0.102,0.708,0.165,1.44,0.165,2.208v17.47h45.768v-19.041l-0.907-0.637H235.411z"/>
	
		<rect x="235.576" y="279.283" style="clip-path:url(#SVGID_00000139267354610318764170000015687977947968124829_);fill:#FFFFFF;" width="45.767" height="19.677"/>
	
		<rect x="235.576" y="301.96" style="clip-path:url(#SVGID_00000139267354610318764170000015687977947968124829_);fill:#FFFFFF;" width="45.767" height="21.197"/>
	
		<rect x="235.576" y="188.574" style="clip-path:url(#SVGID_00000139267354610318764170000015687977947968124829_);fill:#FFFFFF;" width="45.767" height="19.678"/>
	
		<rect x="235.576" y="211.252" style="clip-path:url(#SVGID_00000139267354610318764170000015687977947968124829_);fill:#FFFFFF;" width="45.767" height="19.677"/>
	<path style="clip-path:url(#SVGID_00000139267354610318764170000015687977947968124829_);fill:#FFFFFF;" d="M132.891,140.219
		c1.577-4.418,5.412-6.792,11.185-6.792h79.5c5.357,0,9.312,2.55,11.037,6.792h41.553l-28.009-19.677H120.341L92.33,140.219H132.891
		z"/>
	
		<rect x="235.576" y="233.929" style="clip-path:url(#SVGID_00000139267354610318764170000015687977947968124829_);fill:#FFFFFF;" width="45.767" height="19.677"/>
	<path style="clip-path:url(#SVGID_00000139267354610318764170000015687977947968124829_);fill:#FFFFFF;" d="M86.731,301.96
		c-0.244,0-0.47-0.063-0.674-0.166v21.363h46.019V301.96H86.731z"/>
	<path style="clip-path:url(#SVGID_00000139267354610318764170000015687977947968124829_);fill:#FFFFFF;" d="M243.887,117.543
		l-28.01-19.677h-63.009c-0.073,0-0.144-0.011-0.215-0.021l-28.041,19.698H243.887z"/>
	<path style="clip-path:url(#SVGID_00000139267354610318764170000015687977947968124829_);fill:#FFFFFF;" d="M132.076,230.929
		v-19.677H86.731c-0.244,0-0.47-0.064-0.674-0.167v20.011c0.204-0.105,0.43-0.167,0.674-0.167H132.076z"/>
	<path style="clip-path:url(#SVGID_00000139267354610318764170000015687977947968124829_);fill:#FFFFFF;" d="M132.076,276.283
		v-19.678H86.731c-0.244,0-0.47-0.063-0.674-0.165v20.009c0.204-0.103,0.43-0.166,0.674-0.166H132.076z"/>
	<path style="clip-path:url(#SVGID_00000139267354610318764170000015687977947968124829_);fill:#FFFFFF;" d="M132.076,253.606
		v-19.677H86.731c-0.244,0-0.47-0.064-0.674-0.167v20.011c0.204-0.104,0.43-0.167,0.674-0.167H132.076z"/>
	<path style="clip-path:url(#SVGID_00000139267354610318764170000015687977947968124829_);fill:#FFFFFF;" d="M132.076,298.96
		v-19.677H86.731c-0.244,0-0.47-0.064-0.674-0.167v20.011c0.204-0.103,0.43-0.167,0.674-0.167H132.076z"/>
	<polygon style="clip-path:url(#SVGID_00000139267354610318764170000015687977947968124829_);fill:#FFFFFF;" points="
		156.892,94.866 211.605,94.866 184.249,75.648 	"/>
	<path style="clip-path:url(#SVGID_00000139267354610318764170000015687977947968124829_);fill:#FFFFFF;" d="M76.188,144.371
		c2.143,0,4.207-0.655,5.968-1.892L183.1,71.568c0.345-0.243,0.747-0.364,1.149-0.364c0.403,0,0.805,0.121,1.15,0.364
		l100.946,70.913c1.76,1.237,3.824,1.89,5.966,1.891h0.001c3.39,0,6.574-1.653,8.519-4.422c1.598-2.273,2.214-5.032,1.736-7.768
		c-0.478-2.736-1.994-5.123-4.267-6.719l-114.051-80.12l-114.05,80.12c-2.272,1.596-3.787,3.981-4.265,6.718
		c-0.479,2.736,0.138,5.495,1.734,7.767C69.613,142.717,72.798,144.371,76.188,144.371"/>
	
		<rect x="173.755" y="228.048" style="clip-path:url(#SVGID_00000139267354610318764170000015687977947968124829_);fill:#FFFFFF;" width="19.677" height="94.609"/>
	
		<rect x="196.433" y="228.048" style="clip-path:url(#SVGID_00000139267354610318764170000015687977947968124829_);fill:#FFFFFF;" width="19.677" height="94.609"/>
	<path style="clip-path:url(#SVGID_00000139267354610318764170000015687977947968124829_);fill:#FFFFFF;" d="M231.576,145.428
		c0-5.009-2.991-8-8-8h-4.467v4.213c4.338,0.06,7.85,3.603,7.85,7.955v70.491c0,4.352-3.512,7.895-7.85,7.955v94.615h12.467V145.428
		z"/>
	
		<rect x="151.078" y="228.048" style="clip-path:url(#SVGID_00000139267354610318764170000015687977947968124829_);fill:#FFFFFF;" width="19.677" height="94.609"/>
	
		<rect x="151.078" y="137.427" style="clip-path:url(#SVGID_00000139267354610318764170000015687977947968124829_);fill:#FFFFFF;" width="19.677" height="4.207"/>
	<path style="clip-path:url(#SVGID_00000139267354610318764170000015687977947968124829_);fill:#FFFFFF;" d="M148.078,228.027
		c-4.19-0.225-7.533-3.695-7.533-7.94v-70.491c0-4.245,3.343-7.715,7.533-7.94v-4.228h-4.002c-5.532,0-8,2.467-8,8v177.229h12.002
		V228.027z"/>
	
		<rect x="173.755" y="137.427" style="clip-path:url(#SVGID_00000139267354610318764170000015687977947968124829_);fill:#FFFFFF;" width="19.677" height="4.207"/>
	
		<rect x="196.433" y="137.428" style="clip-path:url(#SVGID_00000139267354610318764170000015687977947968124829_);fill:#FFFFFF;" width="19.677" height="4.207"/>
</g>
</svg>
