<?xml version="1.0" encoding="iso-8859-1"?>
<!-- Generator: Adobe Illustrator 25.4.1, SVG Export Plug-In . SVG Version: 6.00 Build 0)  -->
<svg version="1.1" id="Calque_1" xmlns="http://www.w3.org/2000/svg" xmlns:xlink="http://www.w3.org/1999/xlink" x="0px" y="0px"
	 viewBox="0 0 368.5 368.5" style="enable-background:new 0 0 368.5 368.5;" xml:space="preserve">
<g>
	<defs>
		<rect id="SVGID_1_" width="368.5" height="368.5"/>
	</defs>
	<clipPath id="SVGID_00000106830653698389641050000017836779088923513999_">
		<use xlink:href="#SVGID_1_"  style="overflow:visible;"/>
	</clipPath>
	<path style="clip-path:url(#SVGID_00000106830653698389641050000017836779088923513999_);fill:#FFFFFF;" d="M268.451,207.584
		c-1.021,19.771-3.293,40.332-5.323,56.032c-0.365,2.828-0.722,5.494-1.064,7.973c-2.034-2.311-7.897-5.776-21.261-8.916
		c-15.777-3.707-36.808-5.749-59.219-5.749c-22.41,0-43.441,2.042-59.219,5.749c-8.026,1.886-13.343,3.889-16.755,5.69
		c-0.268-2.313-0.547-4.75-0.829-7.283c-1.878-16.802-3.963-37.841-4.807-54.915c-0.097-1.958-0.181-3.941-0.255-5.937
		c-1.744-0.211-3.419-0.428-5.026-0.653c0.082,2.3,0.175,4.585,0.287,6.837c0.884,17.867,3.114,40.021,5.055,57.207
		c0.273,2.419,0.54,4.742,0.798,6.938c0.022,0.01,0.046,0.017,0.069,0.027c20.858,9.907,51.527,15.589,84.146,15.589
		c31.013,0,60.685-5.225,81.407-14.334c0.211-0.093,0.43-0.157,0.65-0.205c0.182-1.335,0.369-2.722,0.56-4.158
		c2.14-16.144,4.679-38.338,5.78-59.634c0.14-2.717,0.259-5.4,0.363-8.049c-1.608,0.214-3.29,0.421-5.027,0.621
		C268.686,202.776,268.576,205.168,268.451,207.584 M154.795,276.651c-0.232,0.59-0.798,0.951-1.396,0.951
		c-0.182,0-0.368-0.034-0.549-0.105c-4.429-1.744-6.675-3.88-6.675-6.347c0-7.001,18.94-10.665,37.649-10.665
		c0.828,0,1.5,0.672,1.5,1.5s-0.672,1.5-1.5,1.5c-21.152,0-34.649,4.54-34.649,7.665c0,0.811,1.254,2.169,4.774,3.556
		C154.72,275.009,155.099,275.88,154.795,276.651 M177.202,275.945c-0.043,0-0.087-0.002-0.13-0.006
		c-11.633-1.007-11.633-3.757-11.633-4.661c0-2.633,4.499-4.245,13.371-4.789c1.598-0.098,3.257-0.147,4.931-0.147
		c4.293,0,18.301,0.356,18.301,4.936c0,0.829-0.672,1.5-1.5,1.5c-0.725,0-1.33-0.515-1.47-1.198
		c-0.929-0.802-6.239-2.238-15.331-2.238c-1.613,0-3.21,0.047-4.747,0.141c-5.639,0.347-8.806,1.198-10.067,1.792
		c1.052,0.497,3.547,1.256,8.403,1.676c0.826,0.071,1.437,0.798,1.366,1.624C178.628,275.355,177.972,275.945,177.202,275.945
		 M215.531,277.196c-3.624,1.551-8.841,2.799-15.084,3.607c-0.065,0.009-0.13,0.013-0.195,0.013c-0.742,0-1.387-0.551-1.486-1.307
		c-0.106-0.822,0.474-1.574,1.295-1.68c5.974-0.775,10.915-1.947,14.29-3.391c0.76-0.325,1.643,0.027,1.969,0.789
		C216.646,275.989,216.293,276.87,215.531,277.196"/>
	<path style="clip-path:url(#SVGID_00000106830653698389641050000017836779088923513999_);fill:#FFFFFF;" d="M96.345,135.459
		c0,0.05-0.001,0.101-0.003,0.152c-0.007,0.141-0.39,9.082-0.603,21.836c20.9,2.916,53.899,4.643,89.308,4.643
		c33.99,0,66.201-1.62,87.174-4.357c-0.257-13.403-0.802-21.917-0.811-22.046c-0.005-0.076-0.007-0.152-0.007-0.228
		c0-48.263-39.265-87.529-87.529-87.529S96.345,87.196,96.345,135.459 M138.17,110.719c-0.564-1.848,0.478-3.804,2.327-4.369
		c1.849-0.564,3.805,0.479,4.368,2.327c0.206,0.619,2.332,6.368,10.249,6.368c7.392,0,12.124-5.144,12.171-5.195
		c1.29-1.429,3.499-1.556,4.934-0.274c1.437,1.281,1.576,3.473,0.304,4.918c-0.272,0.308-6.779,7.551-17.409,7.551
		C144.443,122.045,139.365,114.637,138.17,110.719 M144.857,133.58c-1.413-1.32-1.489-3.535-0.169-4.947
		c1.319-1.412,3.534-1.488,4.947-0.169c0.487,0.434,5.201,4.35,12.058,0.391c6.396-3.692,7.925-10.498,7.939-10.565
		c0.381-1.896,2.228-3.123,4.122-2.74c1.895,0.382,3.122,2.228,2.74,4.122c-0.081,0.403-2.094,9.93-11.301,15.245
		c-3.358,1.938-6.565,2.662-9.431,2.662C150.739,137.579,146.762,135.36,144.857,133.58 M174.994,110.097
		c0-4.995,4.065-9.06,9.061-9.06s9.061,4.065,9.061,9.06c0,4.997-4.065,9.063-9.061,9.063S174.994,115.094,174.994,110.097
		 M165,150.339c-1.128,0-2.125-0.12-2.924-0.305c-1.882-0.436-3.055-2.317-2.619-4.2c0.437-1.883,2.316-3.055,4.2-2.619
		c0.638,0.13,6.681,1.166,10.64-5.69c3.691-6.396,1.613-13.054,1.591-13.119c-0.617-1.833,0.368-3.818,2.2-4.434
		c1.832-0.618,3.817,0.368,4.434,2.2c0.131,0.39,3.151,9.647-2.163,18.852C176.091,148.417,169.506,150.339,165,150.339
		 M185.218,155.674c-0.339,0.105-0.683,0.154-1.022,0.154c-1.499,0-2.886-0.972-3.346-2.481c-0.564-1.848,0.478-3.805,2.327-4.368
		c0.62-0.205,6.368-2.331,6.368-10.248c0-7.392-5.144-12.124-5.196-12.171c-1.428-1.29-1.555-3.498-0.274-4.935
		c1.281-1.436,3.473-1.576,4.918-0.303c0.309,0.272,7.552,6.779,7.552,17.409C196.545,149.402,189.136,154.48,185.218,155.674
		 M208.079,148.988c-0.689,0.738-1.623,1.111-2.559,1.111c-0.855,0-1.713-0.311-2.388-0.942c-1.413-1.32-1.488-3.534-0.168-4.947
		c0.433-0.487,4.349-5.202,0.391-12.057c-3.693-6.397-10.497-7.926-10.565-7.94c-1.895-0.381-3.122-2.227-2.74-4.122
		s2.23-3.121,4.123-2.74c0.402,0.082,9.929,2.095,15.244,11.302C214.753,137.894,210.875,145.996,208.079,148.988 M224.534,131.767
		c-0.375,1.617-1.815,2.711-3.407,2.711c-0.262,0-0.527-0.03-0.793-0.091c-1.883-0.437-3.056-2.317-2.619-4.2
		c0.132-0.639,1.165-6.68-5.691-10.639c-6.402-3.696-13.072-1.608-13.138-1.585c-1.835,0.59-3.808-0.403-4.411-2.231
		c-0.603-1.827,0.372-3.796,2.197-4.41c0.39-0.131,9.646-3.151,18.852,2.164C224.765,118.822,225.458,127.778,224.534,131.767
		 M230.175,108.627c0.563,1.85-0.479,3.805-2.328,4.37c-0.34,0.103-0.684,0.152-1.022,0.152c-1.5,0-2.887-0.972-3.347-2.481
		c-0.204-0.619-2.33-6.368-10.247-6.368c-7.393,0-12.123,5.144-12.171,5.196c-1.289,1.429-3.498,1.554-4.934,0.274
		c-1.436-1.282-1.576-3.474-0.303-4.918c0.271-0.309,6.777-7.552,17.408-7.552C223.902,97.3,228.98,104.709,230.175,108.627
		 M223.489,85.766c1.413,1.319,1.488,3.534,0.169,4.946c-1.319,1.414-3.533,1.49-4.947,0.17c-0.488-0.433-5.202-4.352-12.059-0.392
		c-6.402,3.697-7.929,10.517-7.943,10.586c-0.352,1.643-1.807,2.777-3.426,2.777c-0.235,0-0.472-0.024-0.711-0.073
		c-1.885-0.392-3.101-2.221-2.721-4.108c0.081-0.402,2.094-9.927,11.301-15.244C212.392,79.093,220.496,82.971,223.489,85.766
		 M206.268,69.311c1.883,0.436,3.056,2.316,2.62,4.199c-0.436,1.883-2.314,3.057-4.199,2.62c-0.641-0.133-6.682-1.165-10.641,5.692
		c-3.692,6.394-1.614,13.052-1.592,13.117c0.617,1.832-0.368,3.817-2.2,4.434c-0.37,0.125-0.747,0.184-1.117,0.184
		c-1.462,0-2.824-0.922-3.316-2.384c-0.132-0.389-3.152-9.645,2.163-18.851C193.323,69.081,202.277,68.385,206.268,69.311
		 M183.127,63.67c1.846-0.565,3.804,0.478,4.368,2.327c0.564,1.849-0.478,3.805-2.327,4.369c-0.62,0.205-6.369,2.331-6.369,10.248
		c0,7.392,5.145,12.124,5.197,12.171c1.428,1.29,1.555,3.498,0.274,4.935c-0.693,0.777-1.653,1.174-2.616,1.174
		c-0.818,0-1.639-0.287-2.302-0.871c-0.308-0.272-7.553-6.778-7.553-17.409C171.799,69.943,179.209,64.865,183.127,63.67
		 M160.266,70.356c1.32-1.411,3.534-1.487,4.947-0.169c1.413,1.32,1.488,3.535,0.169,4.947c-0.434,0.487-4.35,5.203-0.392,12.059
		c3.696,6.402,10.517,7.929,10.586,7.943c1.882,0.404,3.096,2.252,2.704,4.137c-0.343,1.652-1.791,2.79-3.414,2.79
		c-0.229,0-0.46-0.022-0.693-0.068c-0.404-0.082-9.93-2.096-15.245-11.302C153.593,81.452,157.47,73.35,160.266,70.356
		 M148.01,84.957c1.883,0.437,3.056,2.316,2.62,4.2c-0.133,0.638-1.166,6.68,5.691,10.64c6.396,3.692,13.052,1.614,13.118,1.591
		c1.835-0.616,3.817,0.369,4.434,2.201c0.617,1.831-0.368,3.817-2.2,4.434c-0.209,0.07-2.972,0.973-6.908,0.973
		c-3.4,0-7.677-0.674-11.944-3.137c-9.242-5.336-9.935-14.293-9.011-18.282C144.246,85.693,146.127,84.522,148.01,84.957"/>
	<path style="clip-path:url(#SVGID_00000106830653698389641050000017836779088923513999_);fill:#FFFFFF;" d="M185.047,197.297
		c33.839,0,66-1.61,86.978-4.33c0.286-9.239,0.387-18.691,0.298-28.188c-21.286,2.71-53.445,4.31-87.276,4.31
		c-35.209,0-68.144-1.703-89.404-4.589c-0.098,10.09-0.035,19.536,0.187,28.168C116.738,195.577,149.723,197.297,185.047,197.297"/>
	<path style="clip-path:url(#SVGID_00000106830653698389641050000017836779088923513999_);fill:#FFFFFF;" d="M261.674,292.17
		c0.052-0.414,0.175-0.803,0.357-1.156c0.309-1.208,1.063-4.526,1.769-10.522c-21.135,8.094-49.418,12.681-78.752,12.681
		c-30.889,0-60.211-5.005-81.65-13.833c0.642,6.374,1.387,10.889,1.618,12.223c0.07,0.218,0.119,0.448,0.143,0.684
		c0.734,7.084,10.775,17.443,24.01,20.982c0.117,0.031,0.232,0.068,0.345,0.112c11.665,4.459,33.003,7.229,55.685,7.229
		c32.154,0,54.248-5.164,61.168-9.962c0.144-0.099,0.295-0.188,0.453-0.265C255.205,306.229,260.758,299.435,261.674,292.17"/>
	<path style="clip-path:url(#SVGID_00000106830653698389641050000017836779088923513999_);fill:#FFFFFF;" d="M178.057,206.438
		c-0.787,2.523-3.862,7.06-5.897,10.063c-0.525,0.775-1.01,1.49-1.422,2.116c-1.915,2.92-2.94,6.261-2.887,9.406
		c0.025,1.683,0.32,3.334,0.875,4.897c0.298,0.851,0.682,1.689,1.164,2.533c0.11,0.184,0.222,0.363,0.338,0.547
		c2.518,3.934,6.673,6.282,11.116,6.283l0.203-0.002c4.517-0.076,8.666-2.564,11.12-6.692l0.312-0.558
		c0.351-0.661,0.629-1.286,0.837-1.878c0.654-1.78,0.97-3.656,0.94-5.581c-0.052-3.146-1.191-6.45-3.205-9.306
		c-0.439-0.621-0.958-1.334-1.52-2.106c-2.126-2.921-5.338-7.335-6.198-9.792c-0.257-0.758-0.419-1.562-0.421-1.567
		c-0.036-0.178-0.094-0.346-0.164-0.506c-0.402-0.932-1.333-1.553-2.382-1.504c-0.997,0.007-1.865,0.609-2.257,1.486
		c-0.088,0.198-0.16,0.406-0.195,0.629C178.412,204.914,178.288,205.701,178.057,206.438"/>
</g>
</svg>
