<?xml version="1.0" encoding="iso-8859-1"?>
<!-- Generator: Adobe Illustrator 25.4.1, SVG Export Plug-In . SVG Version: 6.00 Build 0)  -->
<svg version="1.1" id="Calque_1" xmlns="http://www.w3.org/2000/svg" xmlns:xlink="http://www.w3.org/1999/xlink" x="0px" y="0px"
	 viewBox="0 0 368.5 368.5" style="enable-background:new 0 0 368.5 368.5;" xml:space="preserve">
<g>
	<defs>
		<rect id="SVGID_1_" width="368.5" height="368.5"/>
	</defs>
	<clipPath id="SVGID_00000110449389683999294620000009409453825659298993_">
		<use xlink:href="#SVGID_1_"  style="overflow:visible;"/>
	</clipPath>
	<path style="clip-path:url(#SVGID_00000110449389683999294620000009409453825659298993_);fill:#FFFFFF;" d="M210.041,77.791
		l0.929,7.265c2.909,1.72,4.874,4.879,4.881,8.49c-0.01,5.438-4.438,9.866-9.87,9.878c-5.44-0.012-9.868-4.441-9.878-9.872
		c0.005-2.55,0.989-4.869,2.584-6.623l-0.948-7.41c-4.809,2.837-8.054,8.057-8.056,14.031c0.002,7.491,5.087,13.987,12.365,15.793
		l1.139,0.283v4.219l-1.912-0.547c-1.334-0.379-2.754,0.392-3.168,1.695c-0.209,0.656-0.148,1.356,0.169,1.968
		c0.318,0.612,0.855,1.064,1.512,1.272l3.399,1.078v5.417l-1.912-0.544c-1.33-0.377-2.754,0.394-3.167,1.694
		c-0.209,0.658-0.148,1.357,0.169,1.969s0.854,1.064,1.511,1.272l3.399,1.078v5.42l-1.912-0.546c-0.234-0.067-0.474-0.1-0.714-0.1
		c-1.128,0-2.113,0.72-2.453,1.792c-0.209,0.658-0.149,1.358,0.169,1.971c0.317,0.612,0.854,1.064,1.511,1.272l3.399,1.077v8.718
		c0,1.424,1.158,2.583,2.582,2.583c1.423,0,2.582-1.159,2.582-2.583v-7.082l2.297,0.729c1.357,0.429,2.82-0.353,3.24-1.68
		c0.21-0.66,0.15-1.359-0.168-1.971c-0.318-0.611-0.854-1.063-1.511-1.271l-3.858-1.224v-5.47l2.298,0.73
		c0.252,0.082,0.514,0.122,0.779,0.122c1.131,0,2.119-0.724,2.46-1.802c0.209-0.659,0.15-1.358-0.168-1.97
		c-0.317-0.612-0.854-1.065-1.511-1.273l-3.858-1.223v-5.469l2.297,0.73c1.361,0.429,2.82-0.352,3.24-1.681
		c0.21-0.66,0.15-1.359-0.168-1.972c-0.318-0.611-0.854-1.063-1.511-1.27l-3.858-1.225v-5.826l1.174-0.261
		c7.384-1.642,12.744-8.326,12.746-15.894C222.269,85.974,217.06,79.606,210.041,77.791"/>
	<path style="clip-path:url(#SVGID_00000110449389683999294620000009409453825659298993_);fill:#FFFFFF;" d="M62.944,111.682
		l1.209,0.239v5.763l-1.913-0.547c-1.328-0.384-2.754,0.392-3.166,1.694c-0.209,0.657-0.149,1.356,0.168,1.969
		c0.318,0.612,0.856,1.064,1.514,1.272l3.397,1.076v5.421l-1.913-0.546c-1.331-0.381-2.754,0.392-3.166,1.694
		c-0.209,0.658-0.149,1.356,0.169,1.969c0.317,0.612,0.854,1.063,1.512,1.271l3.398,1.078v5.42l-1.912-0.546
		c-0.234-0.066-0.473-0.1-0.713-0.1c-1.128,0-2.115,0.72-2.454,1.793c-0.209,0.658-0.149,1.357,0.169,1.969
		c0.317,0.613,0.854,1.065,1.512,1.273l3.398,1.076v8.719c0,1.423,1.158,2.583,2.582,2.583c1.423,0,2.581-1.16,2.581-2.583v-7.08
		l2.298,0.728c1.341,0.426,2.82-0.351,3.242-1.683c0.209-0.656,0.149-1.355-0.169-1.967c-0.318-0.614-0.855-1.065-1.513-1.273
		l-3.858-1.223v-5.469l2.299,0.73c0.252,0.08,0.514,0.12,0.78,0.12c1.13,0,2.119-0.724,2.461-1.803
		c0.208-0.658,0.148-1.357-0.169-1.969c-0.318-0.612-0.855-1.064-1.513-1.272l-3.858-1.224v-5.459l2.293,0.717
		c1.393,0.445,2.825-0.349,3.247-1.679c0.209-0.658,0.148-1.357-0.17-1.97c-0.318-0.612-0.854-1.063-1.511-1.271l-3.859-1.225
		v-7.361l1.254-0.208c6.258-1.036,11.458-4.72,14.57-9.794c0.033-0.089,0.063-0.178,0.112-0.261
		c1.627-2.725,2.598-5.723,2.889-8.907c0.008-0.09,0.034-0.175,0.057-0.26c0.003-0.039,0.003-0.078,0.006-0.116
		c-0.721-0.031-1.447-0.048-2.171-0.048h-0.112c-0.976,0-1.944,0.031-2.895,0.082c-0.362,3.574-1.913,6.796-4.235,9.291
		c-0.063,0.068-0.122,0.137-0.186,0.204c-0.246,0.256-0.505,0.499-0.768,0.739c-0.076,0.068-0.144,0.143-0.221,0.21
		c-0.016,0.015-0.035,0.024-0.052,0.037c-2.813,2.446-6.472,3.942-10.477,3.949c-8.825-0.015-16.012-7.202-16.027-16.023
		c0.015-8.825,7.202-16.013,16.022-16.028h0.005c4.786,0.008,9.079,2.138,12.018,5.484c1.95-0.212,3.997-0.331,6.116-0.355
		c-3.712-6.153-10.442-10.291-18.137-10.292c-11.681,0.002-21.187,9.508-21.19,21.189C45.896,100.983,53.066,109.725,62.944,111.682
		"/>
	<path style="clip-path:url(#SVGID_00000110449389683999294620000009409453825659298993_);fill:#FFFFFF;" d="M85.908,82.991
		C80.544,83,75.647,83.638,71.759,84.838c-2.132,0.673-3.663,1.392-4.955,2.328c-0.805,0.598-1.384,1.191-1.864,1.913
		c-0.58,0.866-0.908,1.928-0.904,2.921c-0.004,1.005,0.324,2.07,0.901,2.932c0.941,1.381,2.107,2.18,3.568,2.951
		c2.027,1.006,4.604,1.793,7.644,2.328c1.686-1.647,2.891-3.712,3.494-5.97c-1.617-0.192-3.138-0.457-4.467-0.779
		c-0.673-0.163-1.147-0.766-1.146-1.459c0.001-0.693,0.476-1.296,1.149-1.457c0.25-0.06,0.507-0.117,0.772-0.172
		c2.843-0.618,6.378-0.961,9.937-0.961h0.146c3.833,0,7.608,0.404,10.629,1.138c0.673,0.163,1.146,0.767,1.146,1.459
		c-0.001,0.692-0.476,1.294-1.149,1.457c-0.254,0.061-0.515,0.119-0.782,0.172c-1.445,0.316-3.123,0.565-4.897,0.73
		c-0.327,2.289-0.97,4.486-1.922,6.568c4.148-0.205,7.918-0.805,11.019-1.761c2.133-0.675,3.663-1.394,4.953-2.33
		c0.364-0.27,0.689-0.545,0.978-0.833c0.281-0.28,0.661-0.437,1.058-0.437h68.335c1.61,0,2.979-1.206,3.185-2.804l4.187-32.73
		c0.301-2.256,1.131-4.019,2.466-5.249c1.392-1.237,3.061-1.815,5.271-1.836c2.167,0.024,3.816,0.63,5.218,1.907
		c1.332,1.247,2.204,3.02,2.538,5.141l4.192,32.768c0.222,1.734,1.812,3.004,3.596,2.778c1.753-0.226,2.999-1.837,2.775-3.593
		l-4.187-32.728c-0.535-3.67-2.092-6.775-4.513-9.041c-2.492-2.355-5.87-3.65-9.518-3.65h-0.173c-3.675,0-7.053,1.243-9.512,3.5
		c-2.452,2.225-4.055,5.484-4.521,9.182l-3.663,28.624c-0.095,0.749-0.732,1.31-1.487,1.31h-63.552
		c-0.455,0-0.886-0.207-1.171-0.563c-0.887-1.109-1.922-1.787-3.203-2.462C99.245,84.101,93.371,83.039,85.908,82.991"/>
	<path style="clip-path:url(#SVGID_00000110449389683999294620000009409453825659298993_);fill:#FFFFFF;" d="M259.526,297.72
		l-6.667,25h68.492l-6.667-25H259.526z M260.819,320.984c-1.452,0-2.922-0.548-2.922-1.595c0-2.093,5.844-2.093,5.844,0
		C263.741,320.436,262.272,320.984,260.819,320.984 M264.4,302.984c-1.453,0-2.923-0.548-2.923-1.595c0-2.093,5.844-2.093,5.844,0
		C267.321,302.436,265.852,302.984,264.4,302.984 M286.855,315.72c-5.94,0-10.25-2.523-10.25-6c0-3.476,4.31-6,10.25-6
		c5.939,0,10.25,2.524,10.25,6C297.105,313.197,292.794,315.72,286.855,315.72 M306.687,301.389c0-2.093,5.844-2.093,5.844,0
		c0,1.047-1.469,1.595-2.921,1.595C308.157,302.984,306.687,302.436,306.687,301.389 M315.964,319.389
		c0,1.047-1.47,1.595-2.922,1.595c-1.452,0-2.922-0.548-2.922-1.595C310.12,317.296,315.964,317.296,315.964,319.389"/>
	<path style="clip-path:url(#SVGID_00000110449389683999294620000009409453825659298993_);fill:#FFFFFF;" d="M318.696,154.131
		h-22.061v13.354h7.356c1.381,0,2.5,1.119,2.5,2.5v19.074c0,1.381-1.119,2.5-2.5,2.5h-7.356v14.717h7.356c1.381,0,2.5,1.12,2.5,2.5
		v19.074c0,1.381-1.119,2.5-2.5,2.5h-7.355v13.021h22.06c2.156,0,3.91-1.754,3.91-3.911v-81.419
		C322.606,155.885,320.852,154.131,318.696,154.131 M315.754,239.606c-1.688,0-3.061-1.374-3.061-3.062
		c0-1.688,1.373-3.062,3.061-3.062c1.688,0,3.061,1.374,3.061,3.062C318.815,238.232,317.442,239.606,315.754,239.606
		 M315.754,163.917c-1.688,0-3.061-1.374-3.061-3.064c0-1.687,1.373-3.06,3.061-3.06c1.688,0,3.061,1.373,3.061,3.06
		C318.815,162.543,317.442,163.917,315.754,163.917"/>
	<path style="clip-path:url(#SVGID_00000110449389683999294620000009409453825659298993_);fill:#FFFFFF;" d="M276.497,243.372
		V230.35h-7.854c-1.381,0-2.5-1.119-2.5-2.5v-19.073c0-1.381,1.119-2.5,2.5-2.5h0.555c-1.516-2.038-2.422-4.554-2.422-7.28
		c0-2.798,0.953-5.373,2.54-7.438h-0.673c-1.381,0-2.5-1.119-2.5-2.5v-19.073c0-1.381,1.119-2.5,2.5-2.5h7.854v-13.355h-22.296
		c-2.156,0-3.91,1.754-3.91,3.911v81.419c0,2.156,1.754,3.911,3.91,3.911H276.497z M256.86,157.794c1.688,0,3.062,1.373,3.062,3.06
		c0,1.69-1.374,3.064-3.062,3.064c-1.688,0-3.06-1.374-3.06-3.064C253.8,159.167,255.172,157.794,256.86,157.794 M256.86,233.483
		c1.688,0,3.062,1.374,3.062,3.062c0,1.688-1.374,3.062-3.062,3.062c-1.688,0-3.06-1.374-3.06-3.062
		C253.8,234.857,255.172,233.483,256.86,233.483"/>
	<path style="clip-path:url(#SVGID_00000110449389683999294620000009409453825659298993_);fill:#FFFFFF;" d="M291.636,230.35h-0.248
		c-1.381,0-2.5-1.119-2.5-2.5v-19.073c0-1.381,1.119-2.5,2.5-2.5h0.248v-14.718h-0.248c-1.381,0-2.5-1.119-2.5-2.5v-19.073
		c0-1.382,1.119-2.5,2.5-2.5h0.248l-0.001-97.334c-0.003-13.435-10.935-24.368-24.369-24.372h-3.088
		c-13.434,0.004-24.367,10.937-24.371,24.372v38.903c0.004,13.432,10.937,24.364,24.372,24.369h3.087
		c2.795,0,5.069-2.274,5.069-5.069s-2.274-5.069-5.069-5.069h-3.088c-7.835-0.013-14.218-6.394-14.232-14.226V70.152
		c0.014-7.837,6.397-14.22,14.227-14.234h3.093c7.836,0.014,14.217,6.397,14.23,14.229v97.364c1.262,0.127,2.25,1.179,2.25,2.475
		v19.073c0,1.381-1.119,2.5-2.5,2.5h-1.268c-0.3,0.129-0.63,0.201-0.978,0.201c-3.983,0.007-7.224,3.253-7.224,7.236
		c0,3.984,3.241,7.23,7.225,7.238c0.144,0,0.283,0.019,0.42,0.043h1.825c1.381,0,2.5,1.119,2.5,2.5v19.073
		c0,1.295-0.988,2.348-2.25,2.475v48.007c0,2.796,2.274,5.071,5.069,5.071c2.797,0,5.072-2.275,5.072-5.071L291.636,230.35z"/>
	
		<rect x="271.143" y="211.277" style="clip-path:url(#SVGID_00000110449389683999294620000009409453825659298993_);fill:#FFFFFF;" width="7.603" height="14.073"/>
	
		<rect x="293.888" y="211.277" style="clip-path:url(#SVGID_00000110449389683999294620000009409453825659298993_);fill:#FFFFFF;" width="7.603" height="14.073"/>
	
		<rect x="271.143" y="172.486" style="clip-path:url(#SVGID_00000110449389683999294620000009409453825659298993_);fill:#FFFFFF;" width="7.603" height="14.073"/>
	
		<rect x="293.888" y="172.486" style="clip-path:url(#SVGID_00000110449389683999294620000009409453825659298993_);fill:#FFFFFF;" width="7.603" height="14.073"/>
	<path style="clip-path:url(#SVGID_00000110449389683999294620000009409453825659298993_);fill:#FFFFFF;" d="M86.771,292.125h-7.647
		v3.256c0.03,0.272,0.046,0.545,0.046,0.821c0,5.243-5.172,9.351-11.776,9.351c-6.346,0-11.423-3.852-11.754-8.835
		c-0.023-0.136-0.036-0.276-0.036-0.418v-44.497c0-0.177,0.02-0.349,0.055-0.515c0.52-3.834,6.304-5.593,11.709-5.593
		c5.625,0,11.669,1.902,11.753,6.07c0,0.013,0.003,0.025,0.003,0.038v0.004c0,0.014,0.004,0.028,0.004,0.043
		c0,0.014-0.004,0.028-0.004,0.043v5.98h7.647v-16.884c0-10.685-8.691-19.377-19.376-19.377c-10.684,0-19.375,8.692-19.375,19.377
		v61.855c0,10.684,8.691,19.376,19.375,19.376c10.685,0,19.376-8.692,19.376-19.376V292.125z M79.041,234.173
		c1.688,0,3.062,1.374,3.062,3.062s-1.374,3.061-3.062,3.061c-1.688,0-3.061-1.373-3.061-3.061S77.353,234.173,79.041,234.173
		 M55.041,234.173c1.688,0,3.062,1.374,3.062,3.062s-1.374,3.061-3.062,3.061s-3.061-1.373-3.061-3.061
		S53.353,234.173,55.041,234.173 M55.041,311.296c-1.688,0-3.061-1.373-3.061-3.061s1.373-3.062,3.061-3.062
		s3.062,1.374,3.062,3.062S56.729,311.296,55.041,311.296 M79.041,311.296c-1.688,0-3.061-1.373-3.061-3.061
		s1.373-3.062,3.061-3.062c1.688,0,3.062,1.374,3.062,3.062S80.729,311.296,79.041,311.296"/>
	<path style="clip-path:url(#SVGID_00000110449389683999294620000009409453825659298993_);fill:#FFFFFF;" d="M67.368,263.176
		c3.206,0,5.526-0.674,6.756-1.311v-4.872c-2.023,0.681-4.423,1.013-6.756,1.013c-2.336,0-4.739-0.333-6.764-1.015v4.872
		C61.833,262.499,64.156,263.176,67.368,263.176"/>
	<path style="clip-path:url(#SVGID_00000110449389683999294620000009409453825659298993_);fill:#FFFFFF;" d="M74.124,289.922V265.11
		c-1.934,0.704-4.35,1.066-6.756,1.066c-2.411,0-4.828-0.363-6.764-1.068v24.808c1.282,1.202,3.711,2.154,6.764,2.154
		C70.416,292.07,72.84,291.121,74.124,289.922"/>
	<path style="clip-path:url(#SVGID_00000110449389683999294620000009409453825659298993_);fill:#FFFFFF;" d="M67.368,295.07
		c-2.586,0-4.927-0.572-6.764-1.533v2.455c0.011,0.085,0.017,0.172,0.019,0.261c0.044,2.33,3.144,4.299,6.77,4.299
		c3.674,0,6.777-1.992,6.777-4.35c0-0.119-0.01-0.236-0.025-0.353c-0.014-0.106-0.021-0.213-0.021-0.321v-1.987
		C72.289,294.5,69.95,295.07,67.368,295.07"/>
	<path style="clip-path:url(#SVGID_00000110449389683999294620000009409453825659298993_);fill:#FFFFFF;" d="M61.139,251.851
		c1.053,0.536,3.23,1.155,6.229,1.155s5.175-0.619,6.229-1.155c-1.054-0.537-3.231-1.156-6.229-1.156
		C64.369,250.695,62.193,251.314,61.139,251.851"/>
	<path style="clip-path:url(#SVGID_00000110449389683999294620000009409453825659298993_);fill:#FFFFFF;" d="M203.795,262.873
		H79.439v24.252h124.356c6.686,0,12.126-5.44,12.126-12.125C215.921,268.312,210.481,262.873,203.795,262.873 M114.12,279.33
		c-2.389,0-4.332-1.943-4.332-4.332c0-2.389,1.943-4.333,4.332-4.333s4.333,1.944,4.333,4.333
		C118.453,277.387,116.509,279.33,114.12,279.33 M159.8,279.33c-2.389,0-4.332-1.943-4.332-4.332c0-2.389,1.943-4.333,4.332-4.333
		c2.389,0,4.333,1.944,4.333,4.333C164.133,277.387,162.189,279.33,159.8,279.33 M202.932,279.33c-2.389,0-4.333-1.943-4.333-4.332
		c0-2.389,1.944-4.333,4.333-4.333c2.389,0,4.333,1.944,4.333,4.333C207.265,277.387,205.321,279.33,202.932,279.33"/>
	
		<rect x="134.905" y="152.281" style="clip-path:url(#SVGID_00000110449389683999294620000009409453825659298993_);fill:#FFFFFF;" width="50.49" height="1.47"/>
	<path style="clip-path:url(#SVGID_00000110449389683999294620000009409453825659298993_);fill:#FFFFFF;" d="M185.895,157.75h-51.49
		v12.282h23.539c3.909,0,7.089,3.176,7.095,7.083c0,0.004,0.001,0.007,0.001,0.01v36.627c0,3.911-3.184,7.093-7.096,7.093H145.05
		c0.276,0.57,0.444,1.201,0.444,1.875c0,2.39-1.944,4.333-4.333,4.333c-2.389,0-4.332-1.943-4.332-4.333
		c0-0.674,0.168-1.305,0.444-1.875h-2.868v8.606h51.49V157.75z M141.161,168.053c-2.389,0-4.332-1.943-4.332-4.333
		c0-2.389,1.943-4.333,4.332-4.333c2.389,0,4.333,1.944,4.333,4.333C145.494,166.11,143.55,168.053,141.161,168.053
		 M178.604,159.387c2.389,0,4.333,1.944,4.333,4.333c0,2.39-1.944,4.333-4.333,4.333c-2.389,0-4.332-1.943-4.332-4.333
		C174.272,161.331,176.215,159.387,178.604,159.387 M174.272,222.72c0-2.389,1.943-4.333,4.332-4.333
		c2.389,0,4.333,1.944,4.333,4.333c0,2.39-1.944,4.333-4.333,4.333C176.215,227.053,174.272,225.11,174.272,222.72"/>
	<path style="clip-path:url(#SVGID_00000110449389683999294620000009409453825659298993_);fill:#FFFFFF;" d="M122.242,215.845
		h35.702c1.155,0,2.095-0.939,2.095-2.093v-29.848c-0.009,0.003-0.02,0.004-0.03,0.006c-0.284,0.087-0.576,0.151-0.873,0.201
		c-0.079,0.013-0.157,0.025-0.237,0.036c-0.313,0.043-0.63,0.072-0.955,0.072h-33.811c-1.93,4.563-7.936,7.785-15.068,7.785
		c-0.537,0-1.067-0.019-1.59-0.054c-0.174-0.012-0.343-0.035-0.516-0.05c-0.344-0.032-0.689-0.061-1.025-0.107
		c-0.2-0.026-0.394-0.065-0.591-0.097c-0.3-0.049-0.601-0.096-0.894-0.157c-0.204-0.042-0.401-0.094-0.602-0.142
		c-0.275-0.066-0.551-0.13-0.819-0.205c-0.202-0.057-0.396-0.122-0.593-0.185c-0.255-0.081-0.511-0.161-0.759-0.251
		c-0.195-0.07-0.382-0.148-0.572-0.224c-0.237-0.096-0.474-0.191-0.703-0.295c-0.185-0.083-0.363-0.173-0.543-0.262
		c-0.22-0.11-0.438-0.219-0.649-0.336c-0.173-0.096-0.34-0.196-0.507-0.297c-0.12-0.072-0.249-0.139-0.366-0.214v28.55
		c0,2.815,4.407,5.951,10.729,5.951c5.988,0,10.365-2.889,10.696-5.588C119.914,216.787,120.979,215.845,122.242,215.845"/>
	<path style="clip-path:url(#SVGID_00000110449389683999294620000009409453825659298993_);fill:#FFFFFF;" d="M119.658,175.031v1.855
		c0,4.751-4.749,8.473-10.811,8.473c-4.784,0-8.738-2.321-10.2-5.632c-0.195,0.431-0.311,0.874-0.311,1.324
		c0,2.816,4.407,5.953,10.729,5.953c0.749,0,1.472-0.045,2.165-0.129c4.854-0.591,8.241-3.099,8.531-5.461
		c0.153-1.253,1.218-2.196,2.481-2.196h35.702c0.145,0,0.285-0.014,0.422-0.042c0.954-0.196,1.673-1.041,1.673-2.051
		c0-1.155-0.94-2.094-2.095-2.094H119.658z"/>
	<path style="clip-path:url(#SVGID_00000110449389683999294620000009409453825659298993_);fill:#FFFFFF;" d="M103.034,176.887
		c0,1.643,2.387,3.473,5.813,3.473c3.424,0,5.811-1.83,5.811-3.473v-26.815c-1.628,0.669-3.603,1.052-5.778,1.052
		c-2.204,0-4.206-0.393-5.846-1.079V176.887z"/>
	<path style="clip-path:url(#SVGID_00000110449389683999294620000009409453825659298993_);fill:#FFFFFF;" d="M108.88,147.124
		c3.62,0,5.94-1.375,6.267-2.274l-0.529-1.579c-1.491,0.801-3.49,1.274-5.787,1.274c-2.282,0-4.269-0.466-5.757-1.257l-0.467,1.542
		C102.906,145.728,105.234,147.124,108.88,147.124"/>
	<path style="clip-path:url(#SVGID_00000110449389683999294620000009409453825659298993_);fill:#FFFFFF;" d="M104.358,139.363
		c0.447,0.437,1.994,1.182,4.473,1.182c2.478,0,4.025-0.746,4.471-1.182c-0.447-0.437-1.994-1.183-4.471-1.183
		C106.353,138.18,104.805,138.926,104.358,139.363"/>
</g>
</svg>
