<?xml version="1.0" encoding="iso-8859-1"?>
<!-- Generator: Adobe Illustrator 25.4.1, SVG Export Plug-In . SVG Version: 6.00 Build 0)  -->
<svg version="1.1" id="Calque_1" xmlns="http://www.w3.org/2000/svg" xmlns:xlink="http://www.w3.org/1999/xlink" x="0px" y="0px"
	 viewBox="0 0 368.5 368.5" style="enable-background:new 0 0 368.5 368.5;" xml:space="preserve">
<polygon style="fill:#FFFFFF;" points="161.833,96.732 166.843,88.295 165.526,88.293 160.515,96.731 "/>
<polygon style="fill:#FFFFFF;" points="147.878,96.718 152.886,88.281 151.568,88.28 146.559,96.718 "/>
<polygon style="fill:#FFFFFF;" points="133.912,96.707 138.925,88.268 137.605,88.268 132.593,96.706 "/>
<polygon style="fill:#FFFFFF;" points="119.958,96.694 124.97,88.255 123.651,88.254 118.64,96.693 "/>
<polygon style="fill:#FFFFFF;" points="105.994,96.681 111.007,88.242 109.688,88.242 104.676,96.681 "/>
<g>
	<defs>
		<rect id="SVGID_1_" width="368.5" height="368.5"/>
	</defs>
	<clipPath id="SVGID_00000049203139595548546070000009577527590684970169_">
		<use xlink:href="#SVGID_1_"  style="overflow:visible;"/>
	</clipPath>
	<path style="clip-path:url(#SVGID_00000049203139595548546070000009577527590684970169_);fill:#FFFFFF;" d="M57.632,79.588
		c-0.401,0-0.772,0.211-0.977,0.555l-13.977,23.545c-0.208,0.351-0.212,0.786-0.01,1.14c0.201,0.356,0.577,0.575,0.985,0.575
		l58.872,0.053l-1.646-2.383l-0.065,0.11l-12.639-0.011l8.868-14.942l-1.318-0.001l-8.868,14.942l-12.642-0.011l12.352-20.792
		l-1.905-2.757l-27.029-0.023H57.632z M72.895,103.16l-12.643-0.01l12.637-21.278l12.646,0.013L72.895,103.16z M71.571,81.868
		l-12.638,21.278l-13.285-0.012l12.63-21.276L71.571,81.868z"/>
	<path style="clip-path:url(#SVGID_00000049203139595548546070000009577527590684970169_);fill:#FFFFFF;" d="M187.465,110.506
		c7.394,0,14.002-4.644,16.566-11.465l-12.274-0.011c-2.168,4.157-6.508,7.005-11.501,7.005h-0.02c-5.004,0-9.35-2.858-11.512-7.027
		l-67.937-0.06l7.937,11.485l78.732,0.073l0.009,1.135V110.506z"/>
	<path style="clip-path:url(#SVGID_00000049203139595548546070000009577527590684970169_);fill:#FFFFFF;" d="M91.804,85.953
		l77.549,0.074c2.316-3.575,6.324-5.949,10.877-5.949c3.494,0,6.755,1.352,9.206,3.807c0.662,0.663,1.227,1.394,1.724,2.162
		l12.663,0.011c-2.708-6.591-9.088-10.924-16.333-10.932l-103.229-0.09L91.804,85.953z"/>
	<path style="clip-path:url(#SVGID_00000049203139595548546070000009577527590684970169_);fill:#FFFFFF;" d="M186.223,87.094
		c-1.594-1.595-3.713-2.475-5.969-2.475c-4.659,0-8.44,3.782-8.453,8.43c0,4.653,3.786,8.445,8.44,8.445l0.015,2.271v-2.271
		c4.641,0,8.426-3.784,8.436-8.434C188.694,90.81,187.817,88.689,186.223,87.094"/>
	<path style="clip-path:url(#SVGID_00000049203139595548546070000009577527590684970169_);fill:#FFFFFF;" d="M322.655,176.64
		c1.88-0.043,3.37-1.602,3.328-3.482c-0.041-1.88-1.519-3.388-3.481-3.328l-53.435,1.194v6.813L322.655,176.64z"/>
	<path style="clip-path:url(#SVGID_00000049203139595548546070000009577527590684970169_);fill:#FFFFFF;" d="M322.713,157.18
		c1.879-0.074,3.342-1.657,3.269-3.537c-0.074-1.879-1.683-3.32-3.537-3.269l-53.378,2.099v6.817L322.713,157.18z"/>
	<path style="clip-path:url(#SVGID_00000049203139595548546070000009577527590684970169_);fill:#FFFFFF;" d="M322.737,139.099
		c1.879-0.088,3.331-1.679,3.243-3.561c-0.087-1.878-1.636-3.317-3.56-3.243l-53.354,2.484v6.82L322.737,139.099z"/>
	<path style="clip-path:url(#SVGID_00000049203139595548546070000009577527590684970169_);fill:#FFFFFF;" d="M322.741,121.454
		c1.878-0.087,3.328-1.685,3.238-3.564c-0.089-1.877-1.668-3.334-3.564-3.238l-53.349,2.548v6.818L322.741,121.454z"/>
	<path style="clip-path:url(#SVGID_00000049203139595548546070000009577527590684970169_);fill:#FFFFFF;" d="M322.822,102.125
		c1.875-0.134,3.287-1.764,3.152-3.64c-0.135-1.875-1.738-3.282-3.64-3.151l-53.268,3.817v6.828L322.822,102.125z"/>
	<path style="clip-path:url(#SVGID_00000049203139595548546070000009577527590684970169_);fill:#FFFFFF;" d="M322.89,83.138
		c1.873-0.172,3.251-1.83,3.079-3.703c-0.17-1.873-1.85-3.244-3.702-3.079l-53.201,4.891v6.839L322.89,83.138z"/>
	<path style="clip-path:url(#SVGID_00000049203139595548546070000009577527590684970169_);fill:#FFFFFF;" d="M322.89,65.744
		c1.873-0.172,3.251-1.83,3.079-3.703c-0.17-1.873-1.85-3.246-3.702-3.079l-53.201,4.891v6.841L322.89,65.744z"/>
	<path style="clip-path:url(#SVGID_00000049203139595548546070000009577527590684970169_);fill:#FFFFFF;" d="M322.502,197.974
		c0.027,0.001,0.052,0.001,0.077,0.001c1.846,0,3.363-1.475,3.404-3.328c0.042-1.881-1.448-3.439-3.328-3.48l-53.589-1.201v6.811
		L322.502,197.974z"/>
	<path style="clip-path:url(#SVGID_00000049203139595548546070000009577527590684970169_);fill:#FFFFFF;" d="M322.444,217.425
		c0.045,0,0.091,0.001,0.136,0.001c1.819,0,3.329-1.438,3.401-3.271c0.073-1.879-1.39-3.463-3.269-3.537l-53.646-2.112v6.817
		L322.444,217.425z"/>
	<path style="clip-path:url(#SVGID_00000049203139595548546070000009577527590684970169_);fill:#FFFFFF;" d="M322.42,235.503
		c0.054,0.002,0.108,0.003,0.161,0.003c1.808,0,3.314-1.422,3.4-3.245c0.087-1.88-1.365-3.474-3.244-3.561l-53.67-2.501v6.819
		L322.42,235.503z"/>
	<path style="clip-path:url(#SVGID_00000049203139595548546070000009577527590684970169_);fill:#FFFFFF;" d="M322.416,253.147
		c0.055,0.003,0.111,0.005,0.165,0.005c1.807,0,3.312-1.42,3.399-3.242c0.089-1.88-1.36-3.476-3.238-3.565l-53.675-2.563v6.818
		L322.416,253.147z"/>
	<path style="clip-path:url(#SVGID_00000049203139595548546070000009577527590684970169_);fill:#FFFFFF;" d="M322.335,272.464
		c0.083,0.006,0.165,0.008,0.247,0.008c1.771,0,3.265-1.368,3.393-3.16c0.134-1.877-1.277-3.507-3.152-3.641l-53.756-3.852v6.829
		L322.335,272.464z"/>
	<path style="clip-path:url(#SVGID_00000049203139595548546070000009577527590684970169_);fill:#FFFFFF;" d="M322.267,291.443
		c0.105,0.01,0.211,0.014,0.316,0.014c1.739,0,3.223-1.326,3.387-3.094c0.171-1.872-1.206-3.53-3.08-3.701l-53.823-4.952v6.84
		L322.267,291.443z"/>
	<path style="clip-path:url(#SVGID_00000049203139595548546070000009577527590684970169_);fill:#FFFFFF;" d="M322.267,308.841
		c0.105,0.011,0.211,0.016,0.316,0.016c1.739,0,3.223-1.327,3.387-3.094c0.171-1.872-1.206-3.531-3.08-3.703l-53.823-4.95v6.839
		L322.267,308.841z"/>
	<path style="clip-path:url(#SVGID_00000049203139595548546070000009577527590684970169_);fill:#FFFFFF;" d="M47.912,305.538
		l8.253,6.042c2.339,1.708,5.903,2.576,10.591,2.576h28.548c-0.027-0.252-0.054-0.502-0.054-0.756c0-5.043,5.331-9.146,11.882-9.146
		c6.547,0,11.873,4.103,11.873,9.146c0,0.254-0.026,0.504-0.054,0.756h54.056c-0.695-1.513-1.089-3.098-1.089-4.719
		c0-7.962,8.573-14.44,19.11-14.44c3.083,0,6.049,0.59,8.761,1.671v-26.044c-0.672,0.068-1.327,0.115-1.96,0.115
		c-9.399,0-17.047-5.796-17.047-12.922c0-7.129,7.648-12.929,17.047-12.929c0.632,0,1.288,0.046,1.96,0.115v-1.653
		c0-0.441-0.076-0.861-1.001-1.542l-10.357-7.578c-3.823-2.801-7.286-3.348-11.976-3.348h-50.898
		c5.301,0.771,10.699,2.379,10.699,5.78c0,0.458,0,1.755-2.938,3.646c0.096,0.564,0.143,1.12,0.143,1.667
		c0,7.427-7.973,13.469-17.774,13.469c-9.803,0-17.78-6.042-17.78-13.469c0-0.54,0.048-1.09,0.144-1.648
		c-3.045-1.893-3.045-3.204-3.045-3.665c0-3.401,5.394-5.009,10.69-5.78H53.895c-6.958,0-10.128,3.529-10.128,6.808v60.791
		C43.767,301.804,46.021,304.152,47.912,305.538 M75.873,307.036c-7.851,0-14.238-4.882-14.238-10.882
		c0-5.997,6.387-10.876,14.238-10.876c7.846,0,14.23,4.879,14.23,10.876C90.103,302.154,83.719,307.036,75.873,307.036
		 M91.645,278.509c-5.085,0-9.067-3.119-9.067-7.102c0-3.977,3.982-7.091,9.067-7.091c5.086,0,9.07,3.114,9.07,7.091
		C100.715,275.39,96.731,278.509,91.645,278.509 M105.881,300.963c-4.734,0-8.441-2.788-8.441-6.348
		c0-3.558,3.707-6.347,8.441-6.347c4.736,0,8.447,2.789,8.447,6.347C114.328,298.175,110.617,300.963,105.881,300.963
		 M141.344,313.301c-5.896,0-10.693-3.721-10.693-8.292c0-4.569,4.797-8.287,10.693-8.287s10.693,3.718,10.693,8.287
		C152.037,309.58,147.24,313.301,141.344,313.301 M150.561,277.205c0-3.231,3.185-5.764,7.251-5.764
		c4.067,0,7.253,2.533,7.253,5.764c0,3.233-3.186,5.765-7.253,5.765C153.746,282.97,150.561,280.438,150.561,277.205
		 M165.819,299.669c-5.085,0-9.222-3.233-9.222-7.207c0-4.043,4.05-7.209,9.222-7.209c5.171,0,9.221,3.166,9.221,7.209
		C175.04,296.503,170.99,299.669,165.819,299.669 M188.023,275.651c0,4.569-4.802,8.289-10.704,8.289
		c-5.898,0-10.697-3.72-10.697-8.289s4.799-8.285,10.697-8.285C183.221,267.366,188.023,271.082,188.023,275.651 M164.299,231.191
		c1.714,0,16.743,0.161,16.743,5.777c0,1.385-0.931,2.547-2.775,3.464c0.206,0.732,0.307,1.457,0.307,2.187
		c0,6.118-6.517,11.095-14.527,11.095c-8.012,0-14.531-4.977-14.531-11.095c0-0.719,0.274-1.558,0.595-2.296
		c-1.703-0.902-2.564-2.027-2.564-3.355C147.547,231.352,162.584,231.191,164.299,231.191 M154.049,253.448
		c4.622,0,8.242,2.788,8.242,6.347c0,3.557-3.62,6.344-8.242,6.344c-4.625,0-8.248-2.787-8.248-6.344
		C145.801,256.236,149.424,253.448,154.049,253.448 M125.863,258.514c11.019,0,19.983,6.768,19.983,15.088
		c0,8.318-8.964,15.083-19.983,15.083c-11.021,0-19.989-6.765-19.989-15.083C105.874,265.282,114.842,258.514,125.863,258.514
		 M92.605,246.773c4.763,0,8.639,3.108,8.639,6.928c0,3.818-3.876,6.927-8.639,6.927c-4.767,0-8.645-3.109-8.645-6.927
		C83.96,249.881,87.838,246.773,92.605,246.773 M52.547,235.591c3.799-2.781,8.831-4.377,13.808-4.377
		c4.216,0,8.109,1.15,10.96,3.239c2.162,1.581,3.643,3.654,4.293,6.003c0.917,1.669,1.382,3.412,1.382,5.18
		c0,7.429-7.971,13.476-17.768,13.476c-2.548,0-5.053-0.43-7.446-1.272c-2.59-0.496-4.932-1.477-6.791-2.84
		c-3.011-2.204-4.67-5.28-4.67-8.66C46.315,242.407,48.586,238.489,52.547,235.591 M48.325,269.401
		c1.87-1.368,4.594-1.912,7.539-1.514c1.807-0.783,3.825-1.196,5.857-1.196c6.541,0,11.862,4.104,11.862,9.146
		c0,5.047-5.321,9.155-11.862,9.155c-2.07,0-4.132-0.433-5.972-1.253c-2.134-0.438-4.133-1.311-5.8-2.532
		c-2.634-1.926-4.147-4.468-4.149-6.977C45.8,272.308,46.696,270.593,48.325,269.401 M45.98,292.444
		c1.826-1.342,5.639-0.489,8.782,1.813c2.316,1.697,3.646,3.648,3.648,5.357c0.001,0.96-0.414,1.793-1.167,2.348
		c-0.622,0.452-1.41,0.681-2.348,0.681h-0.001c-1.879,0-4.349-0.954-6.445-2.492c-2.318-1.695-3.647-3.645-3.646-5.356
		C44.803,293.833,45.222,292.997,45.98,292.444"/>
	<path style="clip-path:url(#SVGID_00000049203139595548546070000009577527590684970169_);fill:#FFFFFF;" d="M191.642,314.725
		c5.131,0,8.715-2.436,8.715-5.926v-8.148c-2.76-1.474-5.964-2.249-9.328-2.249c-8.66,0-15.705,4.951-15.705,11.035
		c0,1.831,0.676,3.645,1.962,5.288H191.642z"/>
	<path style="clip-path:url(#SVGID_00000049203139595548546070000009577527590684970169_);fill:#FFFFFF;" d="M125.864,261.919
		c-9.145,0-16.584,5.241-16.584,11.683c0,6.439,7.439,11.678,16.584,11.678c9.141,0,16.577-5.239,16.577-11.678
		C142.441,267.16,135.005,261.919,125.864,261.919"/>
	<path style="clip-path:url(#SVGID_00000049203139595548546070000009577527590684970169_);fill:#FFFFFF;" d="M75.873,288.684
		c-5.974,0-10.833,3.351-10.833,7.47c0,4.123,4.859,7.477,10.833,7.477c5.968,0,10.825-3.354,10.825-7.477
		C86.698,292.035,81.841,288.684,75.873,288.684"/>
	<path style="clip-path:url(#SVGID_00000049203139595548546070000009577527590684970169_);fill:#FFFFFF;" d="M177.32,270.771
		c-3.953,0-7.292,2.234-7.292,4.88s3.339,4.883,7.292,4.883c3.956,0,7.298-2.237,7.298-4.883S181.276,270.771,177.32,270.771"/>
	<path style="clip-path:url(#SVGID_00000049203139595548546070000009577527590684970169_);fill:#FFFFFF;" d="M141.344,300.127
		c-3.95,0-7.287,2.235-7.287,4.882c0,2.648,3.337,4.886,7.287,4.886c3.949,0,7.287-2.238,7.287-4.886
		C148.631,302.362,145.293,300.127,141.344,300.127"/>
	<path style="clip-path:url(#SVGID_00000049203139595548546070000009577527590684970169_);fill:#FFFFFF;" d="M184.188,257.816
		c0,5.248,6.119,9.517,13.641,9.517c0.808,0,1.632-0.066,2.528-0.202v-18.638c-0.898-0.135-1.722-0.2-2.528-0.2
		C190.307,248.294,184.188,252.565,184.188,257.816"/>
	<path style="clip-path:url(#SVGID_00000049203139595548546070000009577527590684970169_);fill:#FFFFFF;" d="M165.819,288.658
		c-3.153,0-5.817,1.741-5.817,3.803c0,2.061,2.664,3.802,5.817,3.802c3.152,0,5.816-1.741,5.816-3.802
		C171.635,290.399,168.971,288.658,165.819,288.658"/>
	<path style="clip-path:url(#SVGID_00000049203139595548546070000009577527590684970169_);fill:#FFFFFF;" d="M115.354,314.724
		c0.164-0.439,0.246-0.882,0.246-1.324c0-3.111-3.878-5.741-8.468-5.741c-4.595,0-8.477,2.63-8.477,5.741
		c0,0.439,0.083,0.883,0.249,1.324H115.354z"/>
	<path style="clip-path:url(#SVGID_00000049203139595548546070000009577527590684970169_);fill:#FFFFFF;" d="M97.31,271.407
		c0-1.998-2.594-3.686-5.664-3.686s-5.663,1.688-5.663,3.686c0,2.004,2.593,3.697,5.663,3.697S97.31,273.411,97.31,271.407"/>
	<path style="clip-path:url(#SVGID_00000049203139595548546070000009577527590684970169_);fill:#FFFFFF;" d="M51.96,278.459
		c1.331,0.974,2.952,1.663,4.69,1.986c0.212,0.04,0.408,0.118,0.582,0.226c1.382,0.598,2.93,0.915,4.489,0.915
		c4.584,0,8.457-2.633,8.457-5.749c0-3.112-3.873-5.741-8.457-5.741c-1.491,0-2.968,0.286-4.298,0.829c0,0.001,0,0.001-0.001,0.001
		c-0.391,0.324-0.908,0.526-1.404,0.437c-2.251-0.431-4.431-0.129-5.682,0.788c-0.749,0.547-1.13,1.247-1.13,2.079
		C49.208,275.618,50.236,277.199,51.96,278.459"/>
	<path style="clip-path:url(#SVGID_00000049203139595548546070000009577527590684970169_);fill:#FFFFFF;" d="M49.721,246.34
		c0,2.3,1.133,4.344,3.278,5.913c1.503,1.104,3.45,1.892,5.63,2.281c0.173,0.031,0.336,0.088,0.485,0.165
		c1.967,0.668,4.021,1.008,6.108,1.008c7.921,0,14.363-4.52,14.363-10.071c0-1.239-0.351-2.48-1.044-3.689
		c-0.077-0.135-0.136-0.28-0.175-0.431c-0.425-1.689-1.454-3.141-3.062-4.316c-2.272-1.664-5.449-2.58-8.948-2.58
		c-4.268,0-8.57,1.356-11.797,3.719C51.483,240.588,49.721,243.504,49.721,246.34"/>
	<path style="clip-path:url(#SVGID_00000049203139595548546070000009577527590684970169_);fill:#FFFFFF;" d="M151.121,236.953
		c0.285,0.22,0.867,0.56,1.907,0.919c0.489,0.167,0.874,0.55,1.048,1.036c0.175,0.487,0.118,1.027-0.154,1.469
		c-0.507,0.823-0.984,1.895-1.001,2.247c0,4.235,4.992,7.684,11.126,7.684c6.133,0,11.122-3.449,11.122-7.689
		c0-0.756-0.201-1.537-0.613-2.387c-0.213-0.44-0.227-0.95-0.039-1.4c0.189-0.451,0.561-0.799,1.023-0.955
		c1.054-0.359,1.642-0.702,1.929-0.924c-1.153-0.949-5.933-2.357-13.17-2.357C157.058,234.596,152.275,236.004,151.121,236.953"/>
	<path style="clip-path:url(#SVGID_00000049203139595548546070000009577527590684970169_);fill:#FFFFFF;" d="M130.554,237.994
		c0.827-0.461,1.719-1.09,2.156-1.499c-1.122-1.049-7.285-2.908-17.088-2.908c-9.541,0-15.63,1.763-16.996,2.947
		c0.48,0.415,1.372,1.015,2.176,1.448c0.713,0.382,1.058,1.215,0.826,1.99c-0.209,0.696-0.315,1.37-0.315,2.003
		c0,5.55,6.448,10.064,14.375,10.064c7.922,0,14.368-4.514,14.368-10.064c0-0.641-0.103-1.318-0.308-2.013
		C129.524,239.199,129.859,238.383,130.554,237.994"/>
	<path style="clip-path:url(#SVGID_00000049203139595548546070000009577527590684970169_);fill:#FFFFFF;" d="M105.881,291.673
		c-2.967,0-5.035,1.551-5.035,2.942c0,1.391,2.068,2.942,5.035,2.942c2.972,0,5.043-1.551,5.043-2.942
		C110.924,293.224,108.853,291.673,105.881,291.673"/>
	<path style="clip-path:url(#SVGID_00000049203139595548546070000009577527590684970169_);fill:#FFFFFF;" d="M157.812,279.564
		c2.268,0,3.848-1.24,3.848-2.359c0-1.116-1.58-2.359-3.848-2.359c-2.266,0-3.845,1.243-3.845,2.359
		C153.967,278.324,155.546,279.564,157.812,279.564"/>
	<path style="clip-path:url(#SVGID_00000049203139595548546070000009577527590684970169_);fill:#FFFFFF;" d="M154.049,262.734
		c2.851,0,4.837-1.549,4.837-2.939c0-1.391-1.986-2.942-4.837-2.942c-2.853,0-4.842,1.551-4.842,2.942
		C149.207,261.185,151.196,262.734,154.049,262.734"/>
	<path style="clip-path:url(#SVGID_00000049203139595548546070000009577527590684970169_);fill:#FFFFFF;" d="M92.605,257.222
		c2.837,0,5.233-1.613,5.233-3.522c0-1.908-2.396-3.521-5.233-3.521c-2.84,0-5.24,1.613-5.24,3.521
		C87.365,255.609,89.765,257.222,92.605,257.222"/>
	<path style="clip-path:url(#SVGID_00000049203139595548546070000009577527590684970169_);fill:#FFFFFF;" d="M50.46,297.402
		c1.716,1.258,3.446,1.826,4.413,1.833c-0.253-0.495-0.893-1.329-2.123-2.231c-1.712-1.254-3.443-1.82-4.411-1.83
		C48.591,295.672,49.231,296.503,50.46,297.402"/>
	<path style="clip-path:url(#SVGID_00000049203139595548546070000009577527590684970169_);fill:#FFFFFF;" d="M129.565,154.632
		H63.001c-10.397,0-18.844,8.442-18.84,18.855c-0.004,10.403,8.44,18.844,18.84,18.844h66.564c6.642,0,12.471-3.445,15.827-8.641
		h79.167h6.81v122.345c0,8.514,6.928,15.44,15.445,15.44h0.005c8.512,0,15.437-6.926,15.437-15.44V62.47
		c0-8.513-6.927-15.441-15.442-15.441c-8.517,0-15.445,6.928-15.445,15.441v99.637h-6.81h-79.996
		C141.121,157.574,135.691,154.632,129.565,154.632"/>
</g>
</svg>
