<?xml version="1.0" encoding="iso-8859-1"?>
<!-- Generator: Adobe Illustrator 25.4.1, SVG Export Plug-In . SVG Version: 6.00 Build 0)  -->
<svg version="1.1" id="Calque_1" xmlns="http://www.w3.org/2000/svg" xmlns:xlink="http://www.w3.org/1999/xlink" x="0px" y="0px"
	 viewBox="0 0 368.5 368.5" style="enable-background:new 0 0 368.5 368.5;" xml:space="preserve">
<g>
	<defs>
		<rect id="SVGID_1_" width="368.5" height="368.5"/>
	</defs>
	<clipPath id="SVGID_00000181784854319359463940000007044426518823780773_">
		<use xlink:href="#SVGID_1_"  style="overflow:visible;"/>
	</clipPath>
	<path style="clip-path:url(#SVGID_00000181784854319359463940000007044426518823780773_);fill:#FFFFFF;" d="M112.934,179.571
		L76.413,156.33c-0.433-0.276-0.695-0.753-0.695-1.266v-37.51l-3.911,0.854v35.317c0,0.682-0.459,1.278-1.118,1.451l-23.345,6.141
		v4.045l24.817-6.532c0.126-0.033,0.254-0.05,0.382-0.05c0.283,0,0.562,0.08,0.805,0.234l34.285,21.819L112.934,179.571z"/>
	<path style="clip-path:url(#SVGID_00000181784854319359463940000007044426518823780773_);fill:#FFFFFF;" d="M122.554,190.327
		c-0.082-0.446-0.154-0.882-0.222-1.312l-1.339,0.319L122.554,190.327z"/>
	<polygon style="clip-path:url(#SVGID_00000181784854319359463940000007044426518823780773_);fill:#FFFFFF;" points="
		143.764,263.385 158.988,276.116 160.522,259.568 145.298,246.836 	"/>
	<path style="clip-path:url(#SVGID_00000181784854319359463940000007044426518823780773_);fill:#FFFFFF;" d="M131.898,268.276
		l-9.304-7.78c-1.037-0.128-2.067-0.469-3.072-1.029l-1.613-0.898l-1.363,14.7l13.817,11.555L131.898,268.276z"/>
	<path style="clip-path:url(#SVGID_00000181784854319359463940000007044426518823780773_);fill:#FFFFFF;" d="M144.114,222.485
		c-0.466,0.465-1.18,0.572-1.762,0.264c-0.138-0.075-1.977-1.082-4.854-4.073l-2.182,0.63c0.255,1.082,0.596,2.093,1.049,3.04
		c0.37,0.774,0.829,1.53,1.378,2.296l13.555,7.261c-1.709-5.164-2.694-10.282-3.192-13.4L144.114,222.485z"/>
	<polygon style="clip-path:url(#SVGID_00000181784854319359463940000007044426518823780773_);fill:#FFFFFF;" points="
		107.059,252.523 95.356,246.003 94.535,254.865 105.955,264.414 	"/>
	<path style="clip-path:url(#SVGID_00000181784854319359463940000007044426518823780773_);fill:#FFFFFF;" d="M130.329,233.562
		l-9.623-5.155l-0.497,5.362l4.473,2.492c4.76,2.653,7.781,9.616,6.878,15.854c-0.045,0.315-0.101,0.624-0.166,0.926l1.779,1.488
		l1.539-16.597C133.257,236.64,131.749,235.205,130.329,233.562"/>
	<polygon style="clip-path:url(#SVGID_00000181784854319359463940000007044426518823780773_);fill:#FFFFFF;" points="
		109.446,226.776 108.268,227.116 109.358,227.723 	"/>
	<path style="clip-path:url(#SVGID_00000181784854319359463940000007044426518823780773_);fill:#FFFFFF;" d="M140.954,293.681
		l3.402,2.845c2.872,2.44,5.064,3.093,6.404,3.217c0.172,0.014,0.358,0.022,0.539,0.022c1.444,0,2.597-0.498,3.737-1.611
		c1.336-1.334,2.232-3.453,2.446-5.799l0.231-2.491l-15.224-12.731L140.954,293.681z"/>
	<path style="clip-path:url(#SVGID_00000181784854319359463940000007044426518823780773_);fill:#FFFFFF;" d="M186.617,264.354
		c-2.282-1.041-4.514-2.158-6.665-3.352l6.665,5.575V264.354z"/>
	<path style="clip-path:url(#SVGID_00000181784854319359463940000007044426518823780773_);fill:#FFFFFF;" d="M84.504,239.956
		l-7.067-3.938l-1.905,0.55c0.046,0.103,0.083,0.209,0.132,0.31c1.177,2.455,3.121,4.721,6.706,7.813l1.573,1.316L84.504,239.956z"
		/>
	<path style="clip-path:url(#SVGID_00000181784854319359463940000007044426518823780773_);fill:#FFFFFF;" d="M169.579,284.974
		l5.127,4.287c2.875,2.442,5.066,3.095,6.405,3.219c0.172,0.014,0.357,0.021,0.537,0.021c1.445,0,2.599-0.498,3.739-1.611
		c0.469-0.469,0.88-1.038,1.23-1.675v-7.824l-15.504-12.966L169.579,284.974z"/>
	<polygon style="clip-path:url(#SVGID_00000181784854319359463940000007044426518823780773_);fill:#FFFFFF;" points="
		167.507,44.019 46.674,44.019 46.674,98.765 167.505,72.371 	"/>
	<path style="clip-path:url(#SVGID_00000181784854319359463940000007044426518823780773_);fill:#FFFFFF;" d="M180.149,303.802
		c-0.008-0.002-0.102-0.01-0.109-0.012c-4.169-0.388-8.295-2.253-12.254-5.516c-0.98,3.032-2.573,5.75-4.699,7.899
		c-3.081,3.152-7.373,4.965-11.768,4.965c-0.504,0-1.016-0.024-1.521-0.07c-0.023-0.003-0.132-0.014-0.155-0.018
		c-4.262-0.393-8.527-2.359-12.607-5.832L75.061,253.39c-3.631-3.131-7.258-6.657-9.637-11.588
		c-0.324-0.668-0.611-1.358-0.877-2.063l-17.873,5.162v79.581h139.943v-21.389c-1.594,0.508-3.264,0.779-4.95,0.779
		C181.163,303.872,180.652,303.848,180.149,303.802"/>
	<path style="clip-path:url(#SVGID_00000181784854319359463940000007044426518823780773_);fill:#FFFFFF;" d="M169.192,94.651
		c0.354,0.284,0.559,0.714,0.559,1.168v47.206l12.283,6.812c1.412-1.506,2.94-3.116,4.583-4.83V44.018h-15.112v29.964
		c0,0.931-0.66,1.751-1.569,1.952L46.674,102.862v17.962l121.257-26.47C168.374,94.255,168.838,94.366,169.192,94.651"/>
	<path style="clip-path:url(#SVGID_00000181784854319359463940000007044426518823780773_);fill:#FFFFFF;" d="M270.441,204.585
		l-1.029,11.1l6.339-1.518c0.068-3.626-2.029-7.756-4.833-9.318L270.441,204.585z"/>
	<path style="clip-path:url(#SVGID_00000181784854319359463940000007044426518823780773_);fill:#FFFFFF;" d="M254.062,208.083
		l4.415,2.448l1.109-11.966l-9.88-5.48C251.339,199.011,252.712,203.818,254.062,208.083"/>
	<path style="clip-path:url(#SVGID_00000181784854319359463940000007044426518823780773_);fill:#FFFFFF;" d="M107.852,114.851
		c-1.563,0-2.305,1.73-2.479,3.351c-0.407,3.788,1.787,8.403,4.789,10.079l40.116,22.246c1.88-0.543,3.841-0.838,5.892-0.838
		c5.156,0,10.905,1.695,17.576,5.183c0.787,0.412,1.575,0.897,2.36,1.432c0.763-0.856,1.573-1.752,2.43-2.689l-68.95-38.239
		C108.968,115.033,108.369,114.851,107.852,114.851"/>
	<polygon style="clip-path:url(#SVGID_00000181784854319359463940000007044426518823780773_);fill:#FFFFFF;" points="
		288.285,200.789 287.302,211.402 292.81,210.084 293.416,203.556 	"/>
	<path style="clip-path:url(#SVGID_00000181784854319359463940000007044426518823780773_);fill:#FFFFFF;" d="M285.39,225.602
		l-2.279,24.567c0,0.004,0.001,0.007,0.001,0.011l-0.939,10.118c0,0.002-0.002,0.004-0.002,0.006l-0.302,3.265
		c-0.277,3.032-1.488,5.825-3.323,7.661c-1.909,1.865-4.03,2.656-6.642,2.443c-2.593-0.237-5.296-1.545-8.053-3.886l-3.559-2.977
		l-0.444,4.796c-0.052,0.553-0.13,1.098-0.22,1.638l0.765,0.638c0.019,0.017,0.037,0.033,0.055,0.05
		c3.578,3.028,7.259,4.737,10.942,5.08c0.506,0.047,0.92,0.066,1.331,0.066c3.592,0,7.101-1.482,9.628-4.066
		c2.345-2.372,3.94-5.571,4.602-9.145c0.025-0.133,0.049-0.266,0.071-0.399c0.076-0.464,0.143-0.931,0.187-1.406l3.69-39.779
		L285.39,225.602z"/>
	<path style="clip-path:url(#SVGID_00000181784854319359463940000007044426518823780773_);fill:#FFFFFF;" d="M249.122,264.182
		c-0.18-0.059-0.357-0.112-0.539-0.174l0.515,0.431L249.122,264.182z"/>
	<path style="clip-path:url(#SVGID_00000181784854319359463940000007044426518823780773_);fill:#FFFFFF;" d="M224.69,240.131
		l-2.279,24.579l-0.938,10.117v0.001l-0.303,3.27c-0.277,3.032-1.488,5.825-3.323,7.659c-1.911,1.867-4.029,2.653-6.644,2.445
		c-2.591-0.238-5.294-1.546-8.052-3.888l-3.559-2.977l-0.445,4.797c-0.003,0.033-0.01,0.064-0.013,0.098
		c-0.049,0.509-0.114,1.025-0.2,1.546l0.73,0.612h0.002l0.026,0.023c0.011,0.009,0.022,0.018,0.032,0.028
		c3.585,3.041,7.274,4.757,10.966,5.101c0.022,0.002,0.13,0.014,0.152,0.018c0.349,0.03,0.762,0.049,1.172,0.049
		c3.595,0,7.107-1.483,9.635-4.068c2.34-2.366,3.933-5.556,4.598-9.119c0.027-0.146,0.054-0.294,0.078-0.44
		c0.075-0.459,0.141-0.921,0.185-1.391l1.744-18.813v-0.004l0.168-1.818c0.001-0.004,0.002-0.008,0.002-0.011l1.774-19.132
		L224.69,240.131z"/>
	<path style="clip-path:url(#SVGID_00000181784854319359463940000007044426518823780773_);fill:#FFFFFF;" d="M128.231,205.95
		c-0.362-0.622-0.698-1.245-1.022-1.869l-0.579,6.242c-0.291,3.066-0.261,5.857,0.083,8.411l6.31,3.38
		c-1.064-2.895-1.412-6.198-1.118-10.372C130.737,210.059,129.507,208.143,128.231,205.95"/>
	<polygon style="clip-path:url(#SVGID_00000181784854319359463940000007044426518823780773_);fill:#FFFFFF;" points="
		161.391,250.202 145.762,241.83 145.634,243.206 160.858,255.938 	"/>
	<polygon style="clip-path:url(#SVGID_00000181784854319359463940000007044426518823780773_);fill:#FFFFFF;" points="
		171.45,264.796 188.4,278.971 189.002,272.482 172.052,258.308 	"/>
	<path style="clip-path:url(#SVGID_00000181784854319359463940000007044426518823780773_);fill:#FFFFFF;" d="M260.377,233.392
		C260.377,233.392,260.378,233.392,260.377,233.392l0.13-1.405l0.041-0.439l-5.507,1.319l-0.391,4.216l-2.428,26.181
		c0,0.005-0.002,0.009-0.003,0.013l-0.7,7.556c-0.274,3.03-1.486,5.823-3.323,7.661c-1.911,1.865-4.028,2.654-6.645,2.443
		c-2.593-0.238-5.295-1.546-8.05-3.887l-3.559-2.976l-0.444,4.796c-0.053,0.549-0.124,1.099-0.215,1.645l0.618,0.518
		c0.111,0.07,0.212,0.154,0.301,0.251c3.543,2.973,7.188,4.653,10.837,4.991c0.004,0.001,0.096,0.012,0.101,0.012
		c0.404,0.037,0.819,0.056,1.23,0.056c3.593,0,7.101-1.482,9.627-4.067c2.737-2.766,4.461-6.652,4.863-10.948l0.676-7.29v-0.003
		l2.624-28.302L260.377,233.392z"/>
	<path style="clip-path:url(#SVGID_00000181784854319359463940000007044426518823780773_);fill:#FFFFFF;" d="M194.341,247.395
		l-3.52,37.968c-0.277,3.034-1.489,5.827-3.326,7.661c-1.907,1.863-4.021,2.655-6.642,2.443c-2.591-0.238-5.294-1.547-8.051-3.888
		l-3.559-2.977l-0.445,4.797c-0.052,0.553-0.13,1.098-0.22,1.638l0.765,0.639c0.025,0.022,0.05,0.043,0.073,0.066
		c3.573,3.016,7.249,4.72,10.926,5.063c0.014,0.002,0.114,0.012,0.128,0.014c0.372,0.033,0.786,0.053,1.197,0.053
		c3.594,0,7.105-1.483,9.632-4.068c2.735-2.766,4.459-6.653,4.861-10.949l2.43-26.206l1.258-13.572L194.341,247.395z"/>
	<polygon style="clip-path:url(#SVGID_00000181784854319359463940000007044426518823780773_);fill:#FFFFFF;" points="
		102.749,205.897 103.908,193.399 98.4,194.709 97.618,203.148 	"/>
	<path style="clip-path:url(#SVGID_00000181784854319359463940000007044426518823780773_);fill:#FFFFFF;" d="M98.11,216.304
		l-0.392,4.225l-0.063,0.675l3.839,2.138c-0.086-1.573-0.048-3.277,0.119-5.162L98.11,216.304z"/>
	<path style="clip-path:url(#SVGID_00000181784854319359463940000007044426518823780773_);fill:#FFFFFF;" d="M132.836,258.159
		l-2.516-2.104c-0.912,1.753-2.222,3.078-3.79,3.821l5.704,4.77L132.836,258.159z"/>
	<polygon style="clip-path:url(#SVGID_00000181784854319359463940000007044426518823780773_);fill:#FFFFFF;" points="
		142.826,273.503 158.05,286.233 158.652,279.745 143.427,267.015 	"/>
	<path style="clip-path:url(#SVGID_00000181784854319359463940000007044426518823780773_);fill:#FFFFFF;" d="M320.448,208.311
		l0.511-0.916l-0.518,0.913c-0.019-0.012-0.048-0.029-0.074-0.045l-79.884-42.793c1.598,2.735,2.802,5.148,3.47,6.866l5.438,2.933
		c0.674,0.363,1.129,1.008,1.268,1.736l57.527,30.817c0.549,0.293,0.859,0.896,0.78,1.513c-0.081,0.618-0.533,1.122-1.139,1.268
		l-39.85,9.539h-0.001l-2.297,0.55l-7.857,1.881c-0.076,0.032-0.151,0.063-0.232,0.083l-43.055,10.33c0,0-0.001,0.001-0.002,0.001
		l-0.009,0.002l-7.146,1.714c-0.116,0.028-0.233,0.042-0.35,0.042c-0.013,0-0.026-0.004-0.038-0.004l-38.671,9.256
		c-0.115,0.027-0.232,0.041-0.349,0.041c-0.245,0-0.489-0.06-0.708-0.178l-85.211-45.648c-0.55-0.294-0.86-0.896-0.779-1.514
		c0.08-0.618,0.534-1.122,1.14-1.267l39.535-9.408c-0.221-2.221-0.268-4.088-0.253-5.453L71.987,192.4
		c-0.274,0.064-0.535,0.173-0.78,0.324c-0.141,0.086-0.296,0.149-0.457,0.186c-0.245,0.054-0.475,0.138-0.682,0.25
		c-0.789,0.423-1.313,1.214-1.395,2.11l-0.863,9.304l5.122,2.854l0.499-5.384c0.047-0.501,0.341-0.945,0.784-1.183
		c0.443-0.238,0.975-0.238,1.419,0l13.909,7.45c0.001,0.001,0.002,0.001,0.003,0.001l7.987,4.279h0.001l21.019,11.26l1.576,0.844
		v0.001l43.555,23.331c0.532,0.285,0.841,0.861,0.786,1.461l-4,43.141c-0.277,3.033-1.489,5.825-3.326,7.659
		c-1.708,1.67-3.616,2.477-5.845,2.477c-0.259,0-0.524-0.012-0.796-0.033c-2.594-0.238-5.297-1.547-8.051-3.887l-1.921-1.607
		c-0.514,1.854-1.951,3.276-3.779,3.832l2.219,1.855c3.61,3.074,7.314,4.803,11.019,5.147c0.006,0,0.098,0.01,0.104,0.01
		c0.399,0.037,0.814,0.056,1.225,0.056c3.593,0,7.103-1.482,9.629-4.068c2.735-2.766,4.46-6.653,4.862-10.948l3.664-39.519
		c-0.134-0.674-0.051-1.723,0.342-3.57c0.011-0.057,0.04-0.106,0.058-0.159c0.02-0.06,0.037-0.121,0.065-0.177
		c0.038-0.08,0.087-0.151,0.138-0.221c0.036-0.049,0.065-0.099,0.105-0.143c0.064-0.069,0.139-0.125,0.214-0.181
		c0.043-0.032,0.08-0.07,0.126-0.097c0.109-0.064,0.228-0.11,0.353-0.145c0.021-0.006,0.037-0.02,0.059-0.026l91.044-21.792
		c0.002-0.001,0.004-0.002,0.006-0.003l4.48-1.071c0.001,0,0.003,0,0.004-0.001l47.626-11.399c0.471-0.111,0.966,0.008,1.332,0.325
		c0.365,0.316,0.555,0.791,0.511,1.272l-3.717,40.088c-0.277,3.032-1.489,5.827-3.326,7.663c-1.908,1.863-4.025,2.656-6.641,2.443
		c-2.59-0.237-5.293-1.544-8.052-3.888l-3.56-2.977l-0.444,4.797c-0.051,0.541-0.122,1.091-0.214,1.644l0.759,0.634
		c0.02,0.016,0.04,0.034,0.059,0.051c3.576,3.027,7.256,4.735,10.939,5.077c0.006,0.002,0.097,0.01,0.103,0.01
		c0.399,0.037,0.815,0.057,1.226,0.057c3.593,0,7.102-1.483,9.628-4.067c2.736-2.766,4.461-6.652,4.864-10.95l4.251-45.844
		c0.001-0.026,0.002-0.05,0.004-0.068c0.025-0.3,0.005-0.585-0.061-0.854C321.579,209.292,321.115,208.683,320.448,208.311"/>
	<path style="clip-path:url(#SVGID_00000181784854319359463940000007044426518823780773_);fill:#FFFFFF;" d="M280.052,250.686
		l-12.402-10.369c1.398,3.547,2.358,6.673,2.905,9.42l8.895,7.438L280.052,250.686z"/>
	<path style="clip-path:url(#SVGID_00000181784854319359463940000007044426518823780773_);fill:#FFFFFF;" d="M105.619,268.044
		l-11.733-9.811c-0.815,1.763-2.511,2.991-4.529,3.202l16.066,13.435c-0.217-0.684-0.305-1.421-0.235-2.178L105.619,268.044z"/>
	<path style="clip-path:url(#SVGID_00000181784854319359463940000007044426518823780773_);fill:#FFFFFF;" d="M130.027,288.454
		l-14.478-12.106c-1.017,1.499-2.727,2.475-4.684,2.475c-0.178,0-0.358-0.008-0.538-0.024c-0.084-0.008-0.165-0.025-0.248-0.036
		l19.346,16.179L130.027,288.454z"/>
	<path style="clip-path:url(#SVGID_00000181784854319359463940000007044426518823780773_);fill:#FFFFFF;" d="M83.607,249.637
		l-3.179-2.659c-3.94-3.399-6.099-5.945-7.47-8.805c-0.81-1.698-1.343-3.514-1.625-5.555l-5.595-3.119
		c0.068,4.206,0.855,7.834,2.387,10.998c2.143,4.439,5.509,7.702,8.829,10.566l6.128,5.124c-0.016-0.275-0.032-0.549-0.006-0.828
		L83.607,249.637z"/>
	<path style="clip-path:url(#SVGID_00000181784854319359463940000007044426518823780773_);fill:#FFFFFF;" d="M92.491,244.406
		l-5.122-2.854l-1.306,14.083c-0.064,0.689,0.15,1.363,0.603,1.898c0.459,0.543,1.107,0.879,1.826,0.945
		c1.517,0.146,2.779-0.919,2.912-2.347L92.491,244.406z"/>
	<polygon style="clip-path:url(#SVGID_00000181784854319359463940000007044426518823780773_);fill:#FFFFFF;" points="
		90.108,212.017 89.669,216.753 94.79,219.607 95.239,214.766 	"/>
	<path style="clip-path:url(#SVGID_00000181784854319359463940000007044426518823780773_);fill:#FFFFFF;" d="M132.388,295.481
		c-0.133,1.432,0.957,2.708,2.43,2.845c1.477,0.139,2.778-0.92,2.911-2.35l5.163-55.684l-5.132-2.749L132.388,295.481z"/>
	<path style="clip-path:url(#SVGID_00000181784854319359463940000007044426518823780773_);fill:#FFFFFF;" d="M113.515,273.462
		l1.529-16.489l-5.121-2.853l-1.747,18.849c-0.133,1.43,0.957,2.706,2.428,2.843C112.1,275.947,113.382,274.892,113.515,273.462"/>
	<polygon style="clip-path:url(#SVGID_00000181784854319359463940000007044426518823780773_);fill:#FFFFFF;" points="
		112.704,224.122 112.222,229.319 117.343,232.173 117.835,226.87 	"/>
	<polygon style="clip-path:url(#SVGID_00000181784854319359463940000007044426518823780773_);fill:#FFFFFF;" points="
		268.757,190.257 263.627,187.491 260.724,218.792 266.233,217.474 	"/>
	<path style="clip-path:url(#SVGID_00000181784854319359463940000007044426518823780773_);fill:#FFFFFF;" d="M263.727,229.757
		l-0.139,1.494c0.399,0.811,0.78,1.604,1.147,2.383l0.39-4.211L263.727,229.757z"/>
	<path style="clip-path:url(#SVGID_00000181784854319359463940000007044426518823780773_);fill:#FFFFFF;" d="M260.695,262.462
		c1.69-0.305,3.222-0.887,4.646-1.76c4.309-2.648,3.534-10.57-2.297-23.578L260.695,262.462z"/>
	<path style="clip-path:url(#SVGID_00000181784854319359463940000007044426518823780773_);fill:#FFFFFF;" d="M197.929,185.548
		c0.167,0.61,0.332,1.207,0.497,1.801c1.002,2.451,1.416,4.452,1.459,4.67c0.035,0.177,0.032,0.354,0.005,0.524
		c5.317,18.504,9.394,28.547,15.007,37.271l40.286-9.666c-3.734-9.202-6.246-18.428-10.986-35.845
		c-0.571-2.096-1.176-4.319-1.818-6.667l0.016,0.017c-1.309-3.087-4.105-7.63-9.588-9.125c-0.846-0.231-1.616-0.339-2.324-0.342
		c-0.951,0.489-2.267,1.187-3.927,2.125c-0.126,0.071-0.239,0.155-0.352,0.238c-1.506,2.354-1.708,5.81-1.478,7.035
		c0.183,0.968-0.322,1.827-1.227,2.089c-3.135,0.903-15.305-9.719-18.938-18.867c-3.13-7.887-3.652-12.921-1.6-15.395
		c0.193-0.529,0.5-0.919,0.925-1.155c0.365-0.203,0.808-0.302,1.352-0.302c0.109,0,0.238,0.014,0.359,0.022
		c0.679-0.1,1.478-0.085,2.437,0.13c6.83,1.533,12.712,5.036,17.983,10.712c3.682,3.964,6.748,9.364,7.538,10.804
		c0.014,0.004,0.027,0.008,0.041,0.012c1.855,0.506,3.448,1.282,4.82,2.215c-4.267-7.523-12.129-18.339-19.599-22.246
		c-6.231-3.26-11.525-4.844-16.185-4.844c-5.237,0-9.684,1.982-13.596,6.059c-4.265,4.447-7.708,8.139-10.529,11.3
		C188.003,165.969,196.659,180.909,197.929,185.548"/>
	<path style="clip-path:url(#SVGID_00000181784854319359463940000007044426518823780773_);fill:#FFFFFF;" d="M252.033,232.811
		l-18.674,4.41l-1.337,14.419c6.664,4.645,12.378,7.766,17.385,9.492L252.033,232.811z"/>
	<path style="clip-path:url(#SVGID_00000181784854319359463940000007044426518823780773_);fill:#FFFFFF;" d="M168.32,239.794
		l43.463-9.287c-5.863-9.382-10.112-20.384-15.884-41.047l0.19,0.215c-1.27-3.579-4.092-9.166-9.333-9.166h-0.014
		c-3.092,0.007-5.392,0.893-6.834,2.636c-1.899,2.293-1.829,5.374-1.643,6.367c0.182,0.969-0.322,1.829-1.227,2.091
		c-3.137,0.91-15.306-9.72-18.938-18.868c-3.514-8.851-4.185-13.847-2.176-16.2c0.705-0.825,2.075-1.687,4.588-1.126
		c5.306,1.192,13.223,4.883,19.53,11.673c3.815,4.109,6.746,9.345,7.344,10.445c1.436,0.084,2.716,0.457,3.86,1.026
		c-4.39-7.427-11.816-17.322-18.89-21.023c-6.233-3.257-11.527-4.841-16.186-4.841c-5.237,0-9.684,1.981-13.595,6.058
		c-8.95,9.33-14.313,15.368-17.815,20.064c-0.14,2.314-0.5,14.354,6.063,25.631c5.608,9.635,10.179,13.678,12.037,15.055
		l5.254-5.242c0.409-0.406,1.016-0.544,1.558-0.352c0.544,0.192,0.93,0.678,0.993,1.25c0.01,0.091,1.013,8.987,3.966,17.219
		L168.32,239.794z"/>
	<path style="clip-path:url(#SVGID_00000181784854319359463940000007044426518823780773_);fill:#FFFFFF;" d="M191.35,247.143
		l-18.776,4.437c-0.067,0.401-0.12,0.775-0.146,1.052c5.11,3.785,11.113,7.187,17.494,9.917L191.35,247.143z"/>
	<path style="clip-path:url(#SVGID_00000181784854319359463940000007044426518823780773_);fill:#FFFFFF;" d="M216.554,269.029
		c0.877,0,1.698-0.038,2.454-0.112l2.361-25.471c-0.238-0.299-0.482-0.6-0.736-0.907c-0.54-0.656-1.066-1.301-1.578-1.94
		l-16.038,3.788l-2.047,22.091C206.758,268.127,212.253,269.029,216.554,269.029"/>
	<path style="clip-path:url(#SVGID_00000181784854319359463940000007044426518823780773_);fill:#FFFFFF;" d="M123.506,255.559
		c1.52,0,2.739-1.633,3.105-4.16c0.605-4.183-1.393-9.114-4.364-10.769l-73.904-41.179v14.632l73.612,41.017
		C122.501,255.405,123.023,255.559,123.506,255.559"/>
</g>
</svg>
