<?xml version="1.0" encoding="iso-8859-1"?>
<!-- Generator: Adobe Illustrator 25.4.1, SVG Export Plug-In . SVG Version: 6.00 Build 0)  -->
<svg version="1.1" id="Calque_1" xmlns="http://www.w3.org/2000/svg" xmlns:xlink="http://www.w3.org/1999/xlink" x="0px" y="0px"
	 viewBox="0 0 368.5 368.5" style="enable-background:new 0 0 368.5 368.5;" xml:space="preserve">
<g>
	<defs>
		<rect id="SVGID_1_" width="368.5" height="368.5"/>
	</defs>
	<clipPath id="SVGID_00000004535016465811969300000009663410975979593899_">
		<use xlink:href="#SVGID_1_"  style="overflow:visible;"/>
	</clipPath>
	<path style="clip-path:url(#SVGID_00000004535016465811969300000009663410975979593899_);fill:#FFFFFF;" d="M95.436,42.519
		c-5.577,0-10.097,4.525-10.097,10.097V230.54h20.194V52.616C105.533,47.044,101.015,42.519,95.436,42.519 M98.494,55.69
		c-0.811,0.806-1.933,1.265-3.058,1.265c-1.128,0-2.25-0.459-3.061-1.265c-0.806-0.809-1.266-1.933-1.266-3.062
		c0-1.15,0.46-2.246,1.266-3.082c1.619-1.587,4.503-1.587,6.119,0c0.807,0.836,1.269,1.957,1.269,3.082
		C99.763,53.757,99.301,54.853,98.494,55.69"/>
	<path style="clip-path:url(#SVGID_00000004535016465811969300000009663410975979593899_);fill:#FFFFFF;" d="M64.521,321.657v-45.78
		h-8.655v45.78c0,2.386,1.936,4.327,4.328,4.327C62.58,325.984,64.521,324.043,64.521,321.657"/>
	<path style="clip-path:url(#SVGID_00000004535016465811969300000009663410975979593899_);fill:#FFFFFF;" d="M78.618,321.657v-45.78
		h-8.655v45.78c0,2.386,1.936,4.327,4.328,4.327C76.678,325.984,78.618,324.043,78.618,321.657"/>
	<path style="clip-path:url(#SVGID_00000004535016465811969300000009663410975979593899_);fill:#FFFFFF;" d="M92.716,321.657v-45.78
		h-8.655v45.78c0,2.386,1.936,4.327,4.328,4.327C90.776,325.984,92.716,324.043,92.716,321.657"/>
	<path style="clip-path:url(#SVGID_00000004535016465811969300000009663410975979593899_);fill:#FFFFFF;" d="M106.814,321.657
		v-45.78h-8.655v45.78c0,2.386,1.936,4.327,4.328,4.327C104.874,325.984,106.814,324.043,106.814,321.657"/>
	<path style="clip-path:url(#SVGID_00000004535016465811969300000009663410975979593899_);fill:#FFFFFF;" d="M120.912,321.657
		v-45.78h-8.655v45.78c0,2.386,1.936,4.327,4.328,4.327C118.972,325.984,120.912,324.043,120.912,321.657"/>
	<path style="clip-path:url(#SVGID_00000004535016465811969300000009663410975979593899_);fill:#FFFFFF;" d="M135.01,321.657v-45.78
		h-8.655v45.78c0,2.386,1.936,4.327,4.328,4.327C133.07,325.984,135.01,324.043,135.01,321.657"/>
	<path style="clip-path:url(#SVGID_00000004535016465811969300000009663410975979593899_);fill:#FFFFFF;" d="M70.778,245.732H120.1
		c-1.14-5.984-6.39-10.514-12.708-10.514h-23.91C77.165,235.218,71.916,239.748,70.778,245.732"/>
	<path style="clip-path:url(#SVGID_00000004535016465811969300000009663410975979593899_);fill:#FFFFFF;" d="M144.033,260.804
		c0-4.936-4.019-8.953-8.955-8.953H55.796c-4.935,0-8.954,4.017-8.954,8.953c0,4.939,4.019,8.953,8.954,8.953h79.282
		C140.014,269.757,144.033,265.743,144.033,260.804"/>
	<path style="clip-path:url(#SVGID_00000004535016465811969300000009663410975979593899_);fill:#FFFFFF;" d="M251.419,42.52
		c-4.543,0-8.226,3.686-8.226,8.227v93.037h16.453V50.747C259.645,46.206,255.964,42.52,251.419,42.52 M253.911,53.251
		c-0.661,0.656-1.575,1.031-2.492,1.031c-0.919,0-1.832-0.375-2.494-1.031c-0.656-0.659-1.031-1.575-1.031-2.495
		c0-0.937,0.375-1.829,1.031-2.511c1.319-1.293,3.67-1.293,4.986,0c0.658,0.682,1.034,1.595,1.034,2.511
		C254.945,51.676,254.568,52.569,253.911,53.251"/>
	<path style="clip-path:url(#SVGID_00000004535016465811969300000009663410975979593899_);fill:#FFFFFF;" d="M251.419,260.261
		c1.937,0,3.507-1.57,3.507-3.507l4.72-107.633h-16.454l4.721,107.633C247.913,258.691,249.483,260.261,251.419,260.261"/>
	<path style="clip-path:url(#SVGID_00000004535016465811969300000009663410975979593899_);fill:#FFFFFF;" d="M316.019,276.254
		c0-32.259-0.058-70.036-0.063-73.79l-1.945-4.748H284.8l-22.769,0.338l-3.485,60.039c0.003,3.842-3.195,7.04-7.127,7.04
		c-3.93,0-7.129-3.198-7.129-7.13l-3.497-60.287h-51.64l-1.946,4.748c-0.005,3.754-0.063,41.531-0.063,73.79
		c0,14.671-2.554,25.884-4.419,34.07c-1.483,6.511-2.554,11.214-1.16,12.961c0.615,0.771,1.932,1.146,4.025,1.146h131.983
		c2.093,0,3.411-0.375,4.026-1.146c1.394-1.747,0.322-6.45-1.161-12.961C318.574,302.138,316.019,290.925,316.019,276.254"/>
</g>
</svg>
