<?xml version="1.0" encoding="iso-8859-1"?>
<!-- Generator: Adobe Illustrator 25.4.1, SVG Export Plug-In . SVG Version: 6.00 Build 0)  -->
<svg version="1.1" id="Calque_1" xmlns="http://www.w3.org/2000/svg" xmlns:xlink="http://www.w3.org/1999/xlink" x="0px" y="0px"
	 viewBox="0 0 368.5 368.5" style="enable-background:new 0 0 368.5 368.5;" xml:space="preserve">
<g>
	<defs>
		<rect id="SVGID_1_" width="368.5" height="368.5"/>
	</defs>
	<clipPath id="SVGID_00000165947058403920578220000017673101607961076901_">
		<use xlink:href="#SVGID_1_"  style="overflow:visible;"/>
	</clipPath>
	<path style="clip-path:url(#SVGID_00000165947058403920578220000017673101607961076901_);fill:#FFFFFF;" d="M74.5,69.22
		c0,4.707,3.811,8.522,8.522,8.522h96.335c10.612,0,19.243,8.634,19.243,19.241c0,4.705,3.811,8.521,8.521,8.521
		c4.701,0,8.522-3.816,8.522-8.521c0-20.006-16.28-36.285-36.286-36.285H83.022C78.311,60.698,74.5,64.513,74.5,69.22"/>
	<path style="clip-path:url(#SVGID_00000165947058403920578220000017673101607961076901_);fill:#FFFFFF;" d="M135.574,301.426
		l0.005-23.353c0-8.888,7.23-16.119,16.113-16.119h18.687c3.533-6.835,10.654-11.52,18.885-11.52h8.864v-80.423
		c0-18.827-15.255-34.089-34.086-34.089H77.671c-18.821,0-34.086,15.262-34.086,34.089v125h0.078
		c-0.019,0.281-0.078,0.545-0.078,0.83c0,6.607,5.352,11.962,11.962,11.962h81.345C136.036,305.818,135.574,303.659,135.574,301.426
		 M82.336,226.387c0,4.703-3.814,8.522-8.522,8.522c-4.707,0-8.521-3.819-8.521-8.522v-51.771c0-4.705,3.814-8.522,8.521-8.522
		c4.708,0,8.522,3.817,8.522,8.522V226.387z"/>
	<path style="clip-path:url(#SVGID_00000165947058403920578220000017673101607961076901_);fill:#FFFFFF;" d="M138.159,88.363
		h-31.906c-1.762,0-3.188,1.43-3.188,3.192v10.875h38.285V91.555C141.35,89.793,139.918,88.363,138.159,88.363"/>
	<path style="clip-path:url(#SVGID_00000165947058403920578220000017673101607961076901_);fill:#FFFFFF;" d="M92.439,117.43v1.064
		c0,4.047,3.298,7.338,7.345,7.338h44.835c4.047,0,7.345-3.291,7.345-7.338v-1.064c0-4.054-3.298-7.343-7.345-7.343H99.784
		C95.737,110.087,92.439,113.376,92.439,117.43"/>
	<path style="clip-path:url(#SVGID_00000165947058403920578220000017673101607961076901_);fill:#FFFFFF;" d="M327.05,301.421
		l-0.005-23.35c0-3.525-2.853-6.378-6.379-6.378H304.36c0,11.741-9.515,21.259-21.254,21.259h-93.841
		c-11.741,0-21.264-9.518-21.264-21.259h-16.308c-3.519,0-6.372,2.856-6.372,6.38l-0.005,23.355c0,1.693,0.668,3.315,1.864,4.508
		c1.203,1.196,2.82,1.869,4.511,1.869l162.601-0.005c1.697,0,9.696-0.672,10.889-1.869
		C326.377,304.735,327.05,303.111,327.05,301.421"/>
	<path style="clip-path:url(#SVGID_00000165947058403920578220000017673101607961076901_);fill:#FFFFFF;" d="M175.873,271.693
		c0,7.395,5.996,13.391,13.391,13.391h93.842c7.392,0,13.39-5.996,13.39-13.391c0-7.392-5.998-13.391-13.39-13.391h-93.842
		C181.869,258.302,175.873,264.301,175.873,271.693"/>
</g>
</svg>
