<?xml version="1.0" encoding="iso-8859-1"?>
<!-- Generator: Adobe Illustrator 25.4.1, SVG Export Plug-In . SVG Version: 6.00 Build 0)  -->
<svg version="1.1" id="Calque_1" xmlns="http://www.w3.org/2000/svg" xmlns:xlink="http://www.w3.org/1999/xlink" x="0px" y="0px"
	 viewBox="0 0 368.5 368.5" style="enable-background:new 0 0 368.5 368.5;" xml:space="preserve">
<g>
	<defs>
		<rect id="SVGID_1_" width="368.5" height="368.5"/>
	</defs>
	<clipPath id="SVGID_00000081633841475827664630000011458333293000082871_">
		<use xlink:href="#SVGID_1_"  style="overflow:visible;"/>
	</clipPath>
	<path style="clip-path:url(#SVGID_00000081633841475827664630000011458333293000082871_);fill:#FFFFFF;" d="M211.435,67.568
		l-7.801,12.584h21.959l7.173-11.57c-0.984-0.639-2.154-1.014-3.412-1.014H211.435z"/>
	<polygon style="clip-path:url(#SVGID_00000081633841475827664630000011458333293000082871_);fill:#FFFFFF;" points="
		128.958,82.959 122.949,92.652 134.133,92.652 	"/>
	<polygon style="clip-path:url(#SVGID_00000081633841475827664630000011458333293000082871_);fill:#FFFFFF;" points="71.971,92.652 
		92.563,59.435 70.152,59.435 49.56,92.652 	"/>
	<path style="clip-path:url(#SVGID_00000081633841475827664630000011458333293000082871_);fill:#FFFFFF;" d="M159.988,72.122
		c-0.16,0.554-0.25,1.136-0.25,1.739c0,3.469,2.823,6.291,6.292,6.291h10.938l7.802-12.584h-18.74c-1.642,0-3.133,0.637-4.255,1.671
		L159.988,72.122z"/>
	<polygon style="clip-path:url(#SVGID_00000081633841475827664630000011458333293000082871_);fill:#FFFFFF;" points="74.324,92.652 
		96.282,92.652 116.618,59.848 116.398,59.435 94.916,59.435 	"/>
	<path style="clip-path:url(#SVGID_00000081633841475827664630000011458333293000082871_);fill:#FFFFFF;" d="M229.355,80.152
		c3.469,0,6.292-2.822,6.292-6.291c0-1.48-0.517-2.838-1.374-3.914l-6.326,10.205H229.355z"/>
	<polygon style="clip-path:url(#SVGID_00000081633841475827664630000011458333293000082871_);fill:#FFFFFF;" points="
		179.322,80.152 201.28,80.152 209.082,67.568 187.123,67.568 	"/>
	<polygon style="clip-path:url(#SVGID_00000081633841475827664630000011458333293000082871_);fill:#FFFFFF;" points="
		117.707,61.889 98.635,92.653 120.594,92.653 127.868,80.919 	"/>
	<path style="clip-path:url(#SVGID_00000081633841475827664630000011458333293000082871_);fill:#FFFFFF;" d="M148.309,106.463
		h144.32c16.737,0,30.354-13.617,30.354-30.354s-13.617-30.353-30.354-30.353H115.896L148.309,106.463z M153.739,73.862
		c0-6.779,5.514-12.293,12.291-12.293h63.325c6.777,0,12.292,5.514,12.292,12.293c0,6.777-5.515,12.291-12.292,12.291H166.03
		C159.253,86.153,153.739,80.639,153.739,73.862 M283.902,60.602c7.27,0,13.184,5.914,13.184,13.185
		c0,7.27-5.914,13.184-13.184,13.184c-7.271,0-13.185-5.914-13.185-13.184C270.717,66.516,276.631,60.602,283.902,60.602"/>
	<path style="clip-path:url(#SVGID_00000081633841475827664630000011458333293000082871_);fill:#FFFFFF;" d="M283.902,82.971
		c5.064,0,9.184-4.119,9.184-9.184s-4.12-9.185-9.184-9.185c-5.064,0-9.185,4.12-9.185,9.185S278.838,82.971,283.902,82.971"/>
	<path style="clip-path:url(#SVGID_00000081633841475827664630000011458333293000082871_);fill:#FFFFFF;" d="M82.002,298.152
		c-0.186,0-0.37-0.018-0.553-0.051h0.001c-0.002,0-0.626-0.103-1.675-0.103c-3.168,0-9.436,0.893-15.82,6.873
		c-6.174,5.781-7.898,12.89-8.373,16.773h62.493c0.467-4.695,2.42-13.767,10.303-21.152c0.922-0.863,1.845-1.641,2.763-2.34H82.002z
		"/>
	<path style="clip-path:url(#SVGID_00000081633841475827664630000011458333293000082871_);fill:#FFFFFF;" d="M151.521,140.424
		c-18.499,0-34.127,34.546-34.127,75.438c0,40.89,15.628,75.435,34.127,75.435c18.497,0,34.125-34.545,34.125-75.435
		C185.646,174.97,170.018,140.424,151.521,140.424 M151.52,263.392c-13.206,0-23.552-20.878-23.552-47.53
		c0-26.655,10.346-47.533,23.552-47.533c13.206,0,23.551,20.878,23.551,47.533C175.071,242.514,164.726,263.392,151.52,263.392"/>
	<path style="clip-path:url(#SVGID_00000081633841475827664630000011458333293000082871_);fill:#FFFFFF;" d="M79.643,291.297h56.479
		c-14.646-12.023-24.727-40.9-24.727-75.436c0-34.537,10.081-63.414,24.727-75.437H79.643c-18.498,0-34.125,34.546-34.125,75.437
		S61.145,291.297,79.643,291.297"/>
	<path style="clip-path:url(#SVGID_00000081633841475827664630000011458333293000082871_);fill:#FFFFFF;" d="M151.519,172.329
		c-10.598,0-19.551,19.936-19.551,43.533c0,23.595,8.953,43.53,19.551,43.53s19.552-19.935,19.552-43.53
		C171.071,192.265,162.117,172.329,151.519,172.329 M151.52,251.508c-9.904,0-17.663-15.658-17.663-35.646
		c0-19.991,7.759-35.649,17.663-35.649c9.905,0,17.664,15.658,17.664,35.649C169.184,235.85,161.425,251.508,151.52,251.508"/>
	<path style="clip-path:url(#SVGID_00000081633841475827664630000011458333293000082871_);fill:#FFFFFF;" d="M301.129,267.625
		c0.104,0.538,0.164,1.096,0.164,1.668v51.782c0,0.573-0.06,1.13-0.164,1.668h20.381c0.194-0.072,0.675-0.67,0.675-1.668v-51.782
		c0-1.01-0.494-1.611-0.682-1.668H301.129z M311.467,316.371c-3.021,0-5.389-3.279-5.389-7.466c0-4.188,2.368-7.467,5.389-7.467
		c3.022,0,5.39,3.279,5.39,7.467C316.857,313.092,314.489,316.371,311.467,316.371 M311.467,290.642
		c-3.021,0-5.389-3.28-5.389-7.467c0-4.186,2.368-7.466,5.389-7.466c3.022,0,5.39,3.28,5.39,7.466
		C316.857,287.362,314.489,290.642,311.467,290.642"/>
	<path style="clip-path:url(#SVGID_00000081633841475827664630000011458333293000082871_);fill:#FFFFFF;" d="M235.062,267.627v1.129
		c-0.009,0.915,0.124,1.674,0.276,2.228h19.109c7.544,0,13.682,7.452,13.682,16.613c0,9.16-6.138,16.612-13.682,16.612h-21.231
		c-3.937,0-7.825-1.234-11.278-3.572c-2.368-1.598-4.507-3.67-6.389-6.168v26.605c0,1.012,0.494,1.614,0.682,1.67l78.387-0.002
		c0.193-0.071,0.675-0.67,0.675-1.668v-51.781c0-1.011-0.494-1.611-0.682-1.668L235.062,267.627z"/>
	<path style="clip-path:url(#SVGID_00000081633841475827664630000011458333293000082871_);fill:#FFFFFF;" d="M301.129,148.402
		c0.104,0.538,0.164,1.096,0.164,1.668v51.781c0,0.574-0.06,1.131-0.164,1.668h20.381c0.194-0.071,0.675-0.67,0.675-1.668V150.07
		c0-1.01-0.494-1.61-0.682-1.668H301.129z M311.467,196.759c-3.021,0-5.389-3.281-5.389-7.467c0-4.188,2.368-7.468,5.389-7.468
		c3.022,0,5.39,3.28,5.39,7.468C316.857,193.478,314.489,196.759,311.467,196.759 M311.467,171.031
		c-3.021,0-5.389-3.279-5.389-7.467c0-4.187,2.368-7.467,5.389-7.467c3.022,0,5.39,3.28,5.39,7.467
		C316.857,167.752,314.489,171.031,311.467,171.031"/>
	<path style="clip-path:url(#SVGID_00000081633841475827664630000011458333293000082871_);fill:#FFFFFF;" d="M216.211,148.404
		c-0.168,0.055-0.662,0.655-0.662,1.666v24.25c1.876-2.489,4.019-4.586,6.389-6.189c3.451-2.338,7.338-3.575,11.241-3.575h21.268
		c7.544,0,13.682,7.453,13.682,16.614c0,9.16-6.138,16.611-13.682,16.611h-19.104c-0.154,0.557-0.287,1.309-0.281,2.208v3.532
		l59.556-0.002c0.193-0.071,0.675-0.67,0.675-1.668V150.07c0-1.01-0.495-1.61-0.682-1.668L216.211,148.404z"/>
	<path style="clip-path:url(#SVGID_00000081633841475827664630000011458333293000082871_);fill:#FFFFFF;" d="M229.062,200.01
		c-0.02-2.918,0.822-5.256,1.617-6.464c0.181-0.29,0.408-0.586,0.641-0.829l0.886-0.928l1.29-0.008h20.951
		c4.164,0,7.682-4.859,7.682-10.611c0-5.753-3.518-10.613-7.682-10.613h-21.231c-2.735,0-5.459,0.879-7.914,2.543
		c-3.512,2.376-6.463,6.205-8.534,11.076c-2.004,4.727-3.065,10.205-3.069,15.836v68.744c0.015,7.653,1.866,14.654,5.354,20.242
		c1.777,2.826,3.88,5.073,6.244,6.668c2.46,1.664,5.185,2.543,7.884,2.543h21.266c4.164,0,7.682-4.859,7.682-10.612
		s-3.518-10.612-7.682-10.612h-22.24l-0.888-0.934c-0.087-0.092-0.197-0.216-0.324-0.381c-0.994-1.241-1.963-3.835-1.933-6.943
		V200.01z"/>
	<path style="clip-path:url(#SVGID_00000081633841475827664630000011458333293000082871_);fill:#FFFFFF;" d="M311.467,305.438
		c-0.357,0-1.389,1.191-1.389,3.467c0,2.275,1.032,3.467,1.389,3.467c0.357,0,1.39-1.192,1.39-3.467
		C312.857,306.629,311.824,305.438,311.467,305.438"/>
	<path style="clip-path:url(#SVGID_00000081633841475827664630000011458333293000082871_);fill:#FFFFFF;" d="M311.467,279.709
		c-0.357,0-1.389,1.191-1.389,3.466c0,2.274,1.032,3.467,1.389,3.467c0.357,0,1.39-1.193,1.39-3.467
		C312.857,280.9,311.824,279.709,311.467,279.709"/>
	<path style="clip-path:url(#SVGID_00000081633841475827664630000011458333293000082871_);fill:#FFFFFF;" d="M311.467,185.824
		c-0.357,0-1.389,1.192-1.389,3.468c0,2.274,1.032,3.467,1.389,3.467c0.357,0,1.39-1.193,1.39-3.467
		C312.857,187.016,311.824,185.824,311.467,185.824"/>
	<path style="clip-path:url(#SVGID_00000081633841475827664630000011458333293000082871_);fill:#FFFFFF;" d="M311.467,160.098
		c-0.357,0-1.389,1.191-1.389,3.467c0,2.275,1.032,3.467,1.389,3.467c0.357,0,1.39-1.192,1.39-3.467
		C312.857,161.289,311.824,160.098,311.467,160.098"/>
</g>
</svg>
