<?xml version="1.0" encoding="iso-8859-1"?>
<!-- Generator: Adobe Illustrator 25.4.1, SVG Export Plug-In . SVG Version: 6.00 Build 0)  -->
<svg version="1.1" id="Calque_1" xmlns="http://www.w3.org/2000/svg" xmlns:xlink="http://www.w3.org/1999/xlink" x="0px" y="0px"
	 viewBox="0 0 368.5 368.5" style="enable-background:new 0 0 368.5 368.5;" xml:space="preserve">
<g>
	<defs>
		<rect id="SVGID_1_" width="368.5" height="368.5"/>
	</defs>
	<clipPath id="SVGID_00000042711158393758527510000014360605346903563438_">
		<use xlink:href="#SVGID_1_"  style="overflow:visible;"/>
	</clipPath>
	<path style="clip-path:url(#SVGID_00000042711158393758527510000014360605346903563438_);fill:#FFFFFF;" d="M174.495,160.613
		c-0.636,0.256-1.301,0.498-1.993,0.729c-0.097,0.031-0.196,0.062-0.294,0.095c-0.726,0.237-1.472,0.465-2.257,0.682
		c-4.469,1.219-9.908,2.092-15.933,2.555c-3.112,0.238-6.372,0.375-9.755,0.379c-4.745-0.014-9.256-0.26-13.419-0.713
		c-0.103-0.01-0.209-0.02-0.312-0.032c-0.504-0.056-0.997-0.119-1.491-0.181c-0.205-0.028-0.415-0.049-0.619-0.076
		c-0.432-0.059-0.851-0.122-1.273-0.184c-0.254-0.037-0.513-0.072-0.764-0.111c-0.392-0.061-0.772-0.127-1.154-0.194
		c-0.27-0.045-0.545-0.088-0.81-0.136c-0.36-0.065-0.709-0.135-1.063-0.204c-0.275-0.054-0.557-0.105-0.828-0.162
		c-0.338-0.07-0.663-0.144-0.993-0.216c-0.272-0.061-0.55-0.122-0.817-0.182c-0.322-0.076-0.632-0.158-0.946-0.236
		c-0.261-0.067-0.527-0.131-0.783-0.198c-0.31-0.084-0.609-0.172-0.91-0.258c-0.244-0.07-0.494-0.136-0.732-0.209
		c-0.304-0.091-0.594-0.189-0.888-0.285c-0.221-0.07-0.448-0.14-0.664-0.213c-0.299-0.103-0.585-0.21-0.873-0.316
		c-0.195-0.072-0.396-0.141-0.586-0.215c-0.292-0.111-0.568-0.23-0.848-0.347c-0.15-0.063-0.308-0.124-0.455-0.186v59.318
		c0.003,0.926,0.392,2.004,1.704,3.386c1.048,1.096,2.677,2.255,4.767,3.318c0.075,0.038,0.151,0.077,0.227,0.115
		c0.408,0.202,0.826,0.401,1.266,0.595c0.017,0.008,0.031,0.015,0.047,0.022c0.104,0.046,0.216,0.089,0.322,0.135
		c0.265,0.113,0.531,0.228,0.807,0.337c0.103,0.041,0.212,0.08,0.317,0.12c0.295,0.114,0.591,0.229,0.898,0.339
		c0.08,0.028,0.163,0.055,0.244,0.084c0.342,0.12,0.689,0.238,1.045,0.353c0.051,0.017,0.105,0.034,0.157,0.049
		c0.391,0.125,0.789,0.247,1.196,0.366c0.026,0.007,0.053,0.014,0.08,0.021c5.115,1.474,11.392,2.379,18.15,2.374
		c5.499,0,10.665-0.599,15.159-1.616c0.289-0.065,0.575-0.13,0.858-0.198c0.258-0.063,0.516-0.125,0.769-0.191
		c0.577-0.148,1.144-0.301,1.693-0.464c0.04-0.011,0.076-0.026,0.116-0.038c0.68-0.2,1.334-0.414,1.969-0.636
		c0.19-0.067,0.369-0.137,0.555-0.206c0.493-0.181,0.974-0.367,1.436-0.559c0.158-0.067,0.311-0.133,0.466-0.2
		c0.497-0.216,0.973-0.436,1.43-0.662c0.089-0.043,0.179-0.087,0.267-0.131c2.103-1.067,3.754-2.217,4.801-3.327
		c1.312-1.382,1.701-2.46,1.706-3.386v-59.314c-0.218,0.096-0.449,0.187-0.675,0.279
		C174.706,160.525,174.602,160.572,174.495,160.613"/>
	<path style="clip-path:url(#SVGID_00000042711158393758527510000014360605346903563438_);fill:#FFFFFF;" d="M113.545,151.99
		c0.034,0.027,0.064,0.053,0.102,0.082c0.127,0.098,0.271,0.199,0.437,0.305c1.252,0.822,3.523,1.783,6.451,2.574
		c0.19,0.053,0.389,0.102,0.584,0.152c5.842,1.524,14.077,2.522,23.143,2.514c5.188,0.016,10.118-0.322,14.484-0.893
		c6.004-0.785,10.934-2.017,13.943-3.412c0.288-0.127,0.551-0.258,0.797-0.386c0.046-0.024,0.091-0.047,0.134-0.071
		c0.234-0.127,0.453-0.252,0.645-0.373c0.015-0.008,0.027-0.017,0.041-0.025c0.177-0.113,0.333-0.219,0.474-0.321
		c0.031-0.023,0.064-0.046,0.093-0.068c0.134-0.099,0.252-0.195,0.346-0.277c0.007-0.006,0.011-0.009,0.017-0.016
		c-0.182-0.166-0.446-0.377-0.795-0.599c-1.253-0.823-3.527-1.784-6.453-2.575c-4.253-1.17-9.883-2.047-16.224-2.439l0.017,2.359
		v0.006c0.005,1.005-0.412,1.902-0.916,2.514c-0.507,0.625-1.1,1.045-1.716,1.375c-1.238,0.642-2.636,0.943-4.186,0.967
		c-0.056,0-0.087-0.002-0.098-0.002v-0.002c-2.249-0.071-4.254-0.53-5.822-2.285c-0.504-0.608-0.924-1.496-0.925-2.493l-0.017-2.511
		c-9.715,0.492-17.957,2.15-22.265,4.148c-1.257,0.553-2.122,1.156-2.549,1.535c0.011,0.01,0.021,0.018,0.032,0.03
		C113.383,151.859,113.462,151.924,113.545,151.99"/>
	<path style="clip-path:url(#SVGID_00000042711158393758527510000014360605346903563438_);fill:#FFFFFF;" d="M137.104,110.116
		c1.377,1.763,3.118,2.832,6.032,2.868h0.039c0.009,0,0.019,0.001,0.031,0.001c0.015,0,0.03-0.001,0.045-0.001
		c0.067,0.017,3.228-0.056,6.009-1.536c2.34-1.322,4.508-3.22,5.165-7.537h0.001c0.001-0.005,0.002-0.013,0.003-0.019
		c0.051-0.345,0.094-0.706,0.127-1.083c0.004-0.05,0.01-0.098,0.014-0.149c0.03-0.39,0.051-0.795,0.058-1.221
		c0.001-0.022,0.003-0.041,0.003-0.063c0-0.07,0.003-0.132,0.003-0.132c0-0.018-0.002-0.037-0.002-0.055
		c-0.002-0.333-0.017-0.669-0.042-1.008c-0.009-0.12-0.023-0.241-0.034-0.361c-0.024-0.247-0.053-0.494-0.088-0.744
		c-0.019-0.13-0.038-0.261-0.06-0.392c-0.043-0.262-0.093-0.525-0.147-0.789c-0.023-0.107-0.042-0.214-0.066-0.321
		c-0.084-0.373-0.176-0.748-0.28-1.123c-0.002-0.005-0.002-0.01-0.004-0.015c-0.995-3.57-2.909-7.251-5.058-10.478
		c-1.357-2.054-2.789-3.928-4.087-5.506c-0.203,2.442-0.698,5.141-1.911,7.535c-1.458,2.769-3.543,5.206-5.161,7.68
		c-0.147,0.221-0.283,0.441-0.421,0.66c-0.001,0.002-0.002,0.004-0.003,0.006c-0.152,0.242-0.295,0.483-0.435,0.723
		c-0.032,0.056-0.064,0.111-0.096,0.166c-0.12,0.211-0.234,0.421-0.343,0.631c-0.045,0.085-0.09,0.171-0.133,0.257
		c-0.094,0.187-0.184,0.375-0.269,0.561c-0.05,0.109-0.097,0.217-0.143,0.325c-0.073,0.169-0.143,0.338-0.206,0.506
		c-0.049,0.129-0.093,0.257-0.137,0.385c-0.052,0.151-0.104,0.303-0.149,0.454c-0.044,0.149-0.08,0.297-0.117,0.446
		c-0.033,0.133-0.069,0.266-0.096,0.398c-0.036,0.177-0.06,0.352-0.085,0.529c-0.015,0.108-0.037,0.215-0.048,0.323
		c-0.026,0.252-0.037,0.504-0.039,0.756c0,0.033-0.005,0.065-0.005,0.098v0.021h-0.001l0.001,0.036
		C134.981,105.702,135.755,108.343,137.104,110.116"/>
	<path style="clip-path:url(#SVGID_00000042711158393758527510000014360605346903563438_);fill:#FFFFFF;" d="M108.799,238.5
		c0.18,0.384,0.38,0.753,0.609,1.085c1.367,1.975,3.271,3.258,5.519,4.394c6.725,3.291,17.443,5.14,29.803,5.173
		c9.398-0.005,17.899-1.132,24.346-3.069c3.231-0.982,5.955-2.143,8.14-3.691c1.089-0.781,2.061-1.672,2.834-2.807
		c0.151-0.22,0.287-0.462,0.419-0.707c1.912-1.355,4.095-3.03,6.367-5v-10.266c-2.521,2.673-5.131,4.975-7.52,6.862
		c-0.032-0.035-0.07-0.066-0.102-0.101c-0.293-0.325-0.596-0.633-0.922-0.92c-0.003-0.002-0.006-0.006-0.009-0.008
		c-0.108-0.094-0.229-0.176-0.341-0.268c-1.947,1.703-4.311,3.131-7.007,4.36c0.807,0.384,1.476,0.765,1.963,1.119
		c0.132,0.092,0.248,0.183,0.354,0.269c0.041,0.033,0.074,0.063,0.112,0.096c0.054,0.047,0.11,0.094,0.156,0.139
		c0.045,0.041,0.082,0.08,0.12,0.119c0.028,0.027,0.058,0.056,0.082,0.084c0.032,0.036,0.061,0.068,0.086,0.099
		c0.011,0.014,0.023,0.028,0.033,0.041c-0.265,0.344-1.123,1.092-2.554,1.791c-4.789,2.459-15.009,4.467-26.557,4.43
		c-8.779,0.005-16.735-1.096-22.2-2.752c-2.726-0.814-4.824-1.799-5.969-2.629c-0.493-0.347-0.799-0.66-0.944-0.842
		c0.008-0.009,0.013-0.018,0.021-0.027c0.058-0.072,0.144-0.164,0.25-0.266c0.026-0.025,0.056-0.05,0.084-0.078
		c0.123-0.109,0.268-0.231,0.441-0.361c0.033-0.025,0.07-0.051,0.105-0.076c0.195-0.145,0.413-0.294,0.665-0.447
		c0.019-0.013,0.041-0.024,0.061-0.036c0.251-0.152,0.535-0.304,0.84-0.457c-2.688-1.175-5.055-2.556-7.03-4.183
		c-0.211,0.187-0.415,0.385-0.612,0.59c-0.052,0.054-0.111,0.099-0.162,0.155c-3.714-2.954-7.938-6.892-11.517-11.669
		c-3.919-5.105-6.586-15.611-6.531-26.676c-0.023-10.797,2.405-22.162,7.236-29.928c7.142-11.699,8.298-27.285,8.343-38.029
		c0-0.517-0.003-1.025-0.008-1.519c0.071,0.033,0.15,0.064,0.222,0.099c0.428,0.199,0.865,0.397,1.32,0.586
		c0.108,0.047,0.221,0.09,0.33,0.135c0.453,0.186,0.916,0.371,1.395,0.549c0.119,0.045,0.245,0.088,0.367,0.131
		c0.481,0.173,0.967,0.345,1.47,0.511c0.128,0.043,0.263,0.082,0.393,0.125c0.507,0.162,1.02,0.323,1.549,0.477
		c0.137,0.039,0.279,0.076,0.419,0.117c0.534,0.151,1.072,0.301,1.626,0.442c0.14,0.037,0.287,0.07,0.43,0.105
		c0.563,0.143,1.131,0.281,1.714,0.412c0.136,0.031,0.277,0.059,0.414,0.088c0.601,0.133,1.206,0.264,1.826,0.385
		c0.121,0.023,0.248,0.045,0.37,0.068c0.644,0.125,1.294,0.244,1.959,0.359c0.094,0.016,0.191,0.03,0.285,0.045
		c0.701,0.118,1.409,0.231,2.13,0.336c0.047,0.006,0.095,0.014,0.142,0.02c3.868,0.558,8.04,0.926,12.409,1.117
		c0.676,0.03,1.37,0.042,2.057,0.061v0.002c0.886,0.025,1.754,0.066,2.655,0.078l0.135,19.096c0.33,0.121,0.876,0.242,1.486,0.236
		h0.035h0.021h0.042c0.609,0.002,1.144-0.146,1.464-0.27l-0.133-19.06c0.898-0.01,1.768-0.053,2.652-0.078
		c0.621-0.018,1.25-0.029,1.863-0.055c0.551-0.026,1.111-0.041,1.656-0.07c0.109-0.008,0.219-0.012,0.328-0.018
		c1.198-0.07,2.376-0.156,3.538-0.254c0.096-0.008,0.193-0.016,0.289-0.025c1.178-0.102,2.337-0.219,3.474-0.352
		c0.057-0.006,0.114-0.014,0.171-0.019c4.719-0.555,9.061-1.36,12.888-2.373c0.05-0.014,0.105-0.024,0.155-0.038
		c0.034-0.009,0.065-0.019,0.098-0.029c0.633-0.17,1.256-0.344,1.86-0.525c0.13-0.039,0.254-0.082,0.383-0.121
		c0.045-0.016,0.089-0.03,0.134-0.045c0.727-0.227,1.434-0.461,2.116-0.707c0.017-0.006,0.034-0.012,0.052-0.018
		c0.705-0.254,1.383-0.519,2.04-0.793c0.024-0.012,0.048-0.021,0.072-0.031c0.654-0.276,1.289-0.559,1.893-0.858
		c-0.007,0.545-0.011,1.104-0.011,1.676c0.046,10.746,1.202,26.334,8.344,38.031c1.087,1.747,2.045,3.684,2.888,5.748
		c1.92-1.124,4.203-2.13,6.787-3.015c-0.965-2.326-2.074-4.555-3.353-6.637c-5.839-9.322-7.282-24.015-7.234-34.127
		c-0.003-3.883,0.184-7.087,0.34-9.093c0.264-0.782,0.416-1.616,0.412-2.476h-0.001c0.008-1.715-0.602-3.332-1.488-4.623
		c-1.572-2.275-3.85-3.843-6.614-5.239c-5.516-2.705-13.37-4.65-22.597-5.661c0.282,1.42,0.45,2.864,0.471,4.325
		c0,0.053-0.003,0.096-0.003,0.132c0.013,1.077-0.06,2.09-0.195,3.052c5.128,0.618,9.703,1.535,13.416,2.66
		c3.523,1.058,6.265,2.326,7.856,3.473c0.799,0.566,1.294,1.091,1.517,1.426c0.224,0.349,0.202,0.43,0.207,0.455
		c-0.002,0.009-0.003,0.035-0.016,0.079c-0.012,0.03-0.031,0.054-0.044,0.084c-0.068,0.249-0.6,0.941-1.69,1.728
		c-0.007,0.005-0.014,0.01-0.02,0.015c-0.173,0.123-0.359,0.25-0.559,0.375c-0.014,0.009-0.027,0.017-0.041,0.027
		c-0.211,0.133-0.438,0.267-0.681,0.4c-0.325,0.188-0.682,0.372-1.053,0.557c-0.195,0.096-0.408,0.191-0.615,0.287
		c-0.246,0.112-0.489,0.227-0.752,0.338c-0.167,0.07-0.345,0.14-0.518,0.21c-0.332,0.134-0.668,0.267-1.024,0.397
		c-0.135,0.05-0.278,0.099-0.416,0.148c-0.415,0.146-0.839,0.292-1.282,0.434c-0.109,0.034-0.223,0.068-0.333,0.104
		c-0.487,0.151-0.986,0.3-1.504,0.445c-0.094,0.028-0.19,0.052-0.285,0.078c-0.54,0.148-1.097,0.293-1.67,0.434
		c-0.096,0.025-0.194,0.048-0.29,0.072c-0.571,0.137-1.156,0.271-1.755,0.398c-0.123,0.028-0.246,0.055-0.369,0.08
		c-0.573,0.121-1.161,0.237-1.758,0.35c-0.168,0.031-0.335,0.062-0.504,0.094c-0.553,0.099-1.119,0.197-1.692,0.291
		c-0.229,0.037-0.456,0.074-0.688,0.111c-0.511,0.078-1.033,0.154-1.557,0.229c-0.307,0.041-0.612,0.085-0.923,0.125
		c-0.455,0.06-0.918,0.115-1.382,0.169c-0.388,0.045-0.774,0.094-1.168,0.135c-0.392,0.043-0.792,0.08-1.19,0.117
		c-0.471,0.047-0.941,0.095-1.42,0.133c-0.329,0.03-0.664,0.051-0.997,0.076c-0.548,0.041-1.094,0.084-1.652,0.12
		c-0.289,0.017-0.584,0.031-0.875,0.046c-0.142,0.008-0.286,0.014-0.428,0.022h-0.004c-0.456,0.025-0.909,0.051-1.37,0.07
		c-0.369,0.014-0.745,0.022-1.117,0.033c-0.054,0.002-0.108,0.003-0.161,0.005v-0.026c-0.886,0.026-1.753,0.071-2.654,0.08v-0.002
		h-0.001l-0.023-3.321c-1.38,0.247-2.422,0.288-2.853,0.298c-0.052,0.004-0.105,0.006-0.154,0.004v-0.012l-0.039,0.004l0.021,3.031
		c-0.194-0.002-0.378-0.014-0.571-0.018c-0.022,0-0.043-0.001-0.065-0.001c-0.675-0.018-1.345-0.042-2.018-0.063v0.023
		c-0.782-0.024-1.557-0.056-2.326-0.093c-0.108-0.006-0.221-0.006-0.329-0.01v-0.004c-0.066-0.002-0.135-0.006-0.201-0.008
		c-0.157-0.008-0.315-0.017-0.473-0.025c-1.033-0.059-2.052-0.127-3.054-0.209c-0.158-0.012-0.315-0.028-0.473-0.041
		c-1.015-0.086-2.017-0.182-2.995-0.289c-0.069-0.01-0.136-0.018-0.205-0.026c-0.951-0.107-1.881-0.226-2.793-0.353
		c-0.121-0.018-0.243-0.033-0.362-0.051c-0.919-0.131-1.813-0.273-2.688-0.426c-0.14-0.023-0.281-0.047-0.42-0.072
		c-0.877-0.156-1.733-0.32-2.562-0.494c-0.09-0.02-0.178-0.039-0.268-0.056c-0.868-0.188-1.713-0.382-2.522-0.587
		c-2.116-0.532-4.019-1.13-5.657-1.758c-0.034-0.014-0.069-0.026-0.103-0.04c-0.283-0.109-0.557-0.221-0.823-0.331
		c-0.069-0.029-0.136-0.059-0.204-0.087c-0.247-0.106-0.489-0.211-0.721-0.317c-0.048-0.023-0.094-0.045-0.142-0.067
		c-0.248-0.116-0.491-0.232-0.72-0.349c-1.554-0.772-2.629-1.59-3.212-2.191c-0.015-0.017-0.031-0.033-0.046-0.049
		c-0.075-0.08-0.141-0.154-0.197-0.224c-0.018-0.023-0.032-0.043-0.049-0.064c-0.054-0.07-0.103-0.139-0.137-0.199
		c-0.007-0.01-0.016-0.02-0.023-0.03c-0.158-0.264-0.148-0.342-0.153-0.363c0.005-0.025-0.02-0.106,0.208-0.455
		c0.371-0.599,1.653-1.72,3.771-2.751c4.065-2.052,10.836-3.811,19.023-4.806c-0.034-0.449-0.054-0.898-0.06-1.347
		c-0.006-0.127-0.002-0.192-0.004-0.192c0.006-2.239,0.56-4.251,1.357-6.084c-6.347,0.646-12.08,1.729-16.863,3.171
		c-4.03,1.222-7.396,2.669-10.028,4.535c-1.313,0.941-2.46,1.999-3.349,3.306c-0.886,1.291-1.493,2.908-1.487,4.623
		c-0.005,1.235,0.317,2.412,0.823,3.458c0.134,2.005,0.266,4.818,0.266,8.113c0.047,10.117-1.393,24.803-7.232,34.125
		c-5.848,9.52-8.327,21.971-8.347,33.832c0.051,12.186,2.548,23.711,8.021,31.135C98.008,230.013,104.118,235.13,108.799,238.5"/>
	<path style="clip-path:url(#SVGID_00000042711158393758527510000014360605346903563438_);fill:#FFFFFF;" d="M238.77,288.048
		c26.479,0,44.931-9.352,44.931-17.744v-84.915c-0.544,0.299-1.124,0.586-1.721,0.867c-0.158,0.074-0.32,0.147-0.482,0.22
		c-0.481,0.218-0.978,0.431-1.49,0.638c-0.152,0.061-0.3,0.124-0.454,0.185c-0.656,0.257-1.331,0.506-2.031,0.746
		c-0.11,0.037-0.225,0.072-0.336,0.109c-0.604,0.203-1.223,0.398-1.855,0.587c-0.205,0.061-0.411,0.122-0.618,0.182
		c-0.639,0.185-1.29,0.363-1.955,0.535c-0.125,0.032-0.246,0.067-0.372,0.098c-0.791,0.201-1.6,0.391-2.424,0.575
		c-0.192,0.042-0.387,0.082-0.58,0.124c-0.661,0.142-1.331,0.279-2.012,0.411c-0.225,0.044-0.449,0.088-0.676,0.13
		c-1.727,0.323-3.509,0.612-5.334,0.868c-0.236,0.033-0.474,0.065-0.712,0.097c-0.736,0.099-1.477,0.192-2.225,0.281
		c-0.207,0.025-0.414,0.05-0.622,0.074c-0.94,0.107-1.887,0.206-2.842,0.296c-0.13,0.013-0.261,0.023-0.392,0.035
		c-0.832,0.077-1.668,0.146-2.508,0.21c-0.248,0.019-0.497,0.037-0.746,0.055c-0.844,0.061-1.69,0.115-2.54,0.163
		c-0.128,0.007-0.256,0.016-0.385,0.024c-0.981,0.052-1.964,0.096-2.949,0.133c-0.208,0.008-0.415,0.013-0.623,0.021
		c-0.796,0.026-1.591,0.048-2.386,0.064c-0.242,0.005-0.483,0.011-0.724,0.015c-0.981,0.016-1.96,0.026-2.937,0.026
		c-0.977,0-1.957-0.01-2.937-0.026c-0.241-0.004-0.482-0.01-0.724-0.015c-0.795-0.016-1.59-0.038-2.386-0.064
		c-0.208-0.008-0.415-0.013-0.623-0.021c-0.985-0.037-1.969-0.081-2.95-0.133c-0.128-0.008-0.256-0.017-0.384-0.024
		c-0.85-0.048-1.697-0.102-2.541-0.163c-0.249-0.018-0.497-0.036-0.746-0.055c-0.84-0.064-1.677-0.133-2.509-0.21
		c-0.13-0.012-0.261-0.022-0.39-0.035c-0.955-0.09-1.902-0.189-2.843-0.296c-0.208-0.024-0.414-0.049-0.622-0.074
		c-0.748-0.089-1.49-0.182-2.225-0.281c-0.238-0.032-0.475-0.064-0.712-0.097c-1.825-0.256-3.606-0.545-5.335-0.868
		c-0.227-0.042-0.451-0.086-0.676-0.13c-0.679-0.132-1.349-0.268-2.009-0.411c-0.195-0.042-0.391-0.082-0.583-0.125
		c-0.823-0.183-1.632-0.373-2.421-0.573c-0.129-0.032-0.252-0.068-0.38-0.101c-0.662-0.171-1.311-0.349-1.947-0.532
		c-0.209-0.061-0.416-0.122-0.622-0.184c-0.63-0.188-1.247-0.383-1.848-0.584c-0.113-0.038-0.231-0.074-0.343-0.112
		c-0.699-0.239-1.373-0.488-2.028-0.744c-0.156-0.062-0.306-0.126-0.461-0.188c-0.508-0.206-1.002-0.417-1.481-0.634
		c-0.164-0.075-0.329-0.148-0.489-0.224c-0.596-0.28-1.175-0.567-1.718-0.865v84.915
		C193.837,278.696,212.289,288.048,238.77,288.048"/>
	<path style="clip-path:url(#SVGID_00000042711158393758527510000014360605346903563438_);fill:#FFFFFF;" d="M238.77,186.158
		c29.186,0,44.931-6.92,44.931-9.75c0-2.618-13.491-8.735-38.627-9.635v7.957c0,2.501-2.517,4.316-5.987,4.316
		c-3.469,0-5.987-1.815-5.987-4.316v-7.98c-25.548,0.818-39.263,7.017-39.263,9.658C193.837,179.238,209.582,186.158,238.77,186.158
		"/>
	<path style="clip-path:url(#SVGID_00000042711158393758527510000014360605346903563438_);fill:#FFFFFF;" d="M239.087,174.047
		c0.424,0,0.755-0.061,0.987-0.127v-22.425c-0.633-0.033-1.293-0.098-1.974-0.199v22.624
		C238.331,173.986,238.663,174.047,239.087,174.047"/>
	<path style="clip-path:url(#SVGID_00000042711158393758527510000014360605346903563438_);fill:#FFFFFF;" d="M241.102,149.026
		l0.022-2.5c7.49-0.001,10.133-6.644,10.133-12.334c0-4.34-2.861-8.234-5.629-12c-1.405-1.913-2.734-3.719-3.738-5.617
		c-1.538-2.905-2.131-6.714-2.325-9.967c-4.947,5.889-12.377,16.306-12.377,25.753c0,13.767,12.49,14.165,13.914,14.165V149.026z"/>
</g>
</svg>
