<?xml version="1.0" encoding="iso-8859-1"?>
<!-- Generator: Adobe Illustrator 25.4.1, SVG Export Plug-In . SVG Version: 6.00 Build 0)  -->
<svg version="1.1" id="Calque_1" xmlns="http://www.w3.org/2000/svg" xmlns:xlink="http://www.w3.org/1999/xlink" x="0px" y="0px"
	 viewBox="0 0 368.5 368.5" style="enable-background:new 0 0 368.5 368.5;" xml:space="preserve">
<g>
	<defs>
		<rect id="SVGID_1_" width="368.5" height="368.5"/>
	</defs>
	<clipPath id="SVGID_00000080189152969003567480000000345591057584560543_">
		<use xlink:href="#SVGID_1_"  style="overflow:visible;"/>
	</clipPath>
	<path style="clip-path:url(#SVGID_00000080189152969003567480000000345591057584560543_);fill:#FFFFFF;" d="M97.088,270.322
		c0,13.247,10.78,24.024,24.027,24.024c5.139,0,9.303-4.168,9.303-9.308c0-5.135-4.164-9.303-9.303-9.303
		c-2.988,0-5.418-2.429-5.418-5.413V250.56l-3.05-1.046c-3.764-1.291-6.798-3.967-8.548-7.541c-1.745-3.57-1.997-7.607-0.708-11.373
		c1.873-5.444,6.697-9.246,12.306-9.919v-17.417l-3.05-1.046c-3.764-1.291-6.798-3.969-8.548-7.543
		c-1.745-3.568-1.997-7.605-0.708-11.374c1.873-5.446,6.697-9.243,12.306-9.916V155.97l-3.05-1.051
		c-3.764-1.288-6.798-3.966-8.548-7.538c-1.745-3.573-1.997-7.607-0.708-11.376c1.873-5.448,6.697-9.241,12.306-9.916V77.094
		c0-8.804,7.162-15.961,15.963-15.961c8.806,0,15.968,7.157,15.968,15.961v29.929c0,5.142,4.165,9.306,9.303,9.306
		c5.137,0,9.301-4.164,9.301-9.306V77.094c0-19.062-15.507-34.574-34.572-34.574c-19.063,0-34.572,15.512-34.572,34.574V270.322z"/>
	<path style="clip-path:url(#SVGID_00000080189152969003567480000000345591057584560543_);fill:#FFFFFF;" d="M117.471,131.529
		c-3.863,0.004-7.474,2.432-8.797,6.292c-1.667,4.863,0.922,10.154,5.779,11.817l82.243,28.208v-19.671l-76.203-26.135
		C119.487,131.694,118.473,131.529,117.471,131.529"/>
	<path style="clip-path:url(#SVGID_00000080189152969003567480000000345591057584560543_);fill:#FFFFFF;" d="M196.695,205.471
		l-76.203-26.136c-1.005-0.348-2.019-0.51-3.022-0.51c-3.863,0.002-7.473,2.432-8.797,6.29c-1.666,4.864,0.922,10.156,5.78,11.821
		l82.242,28.208V205.471z"/>
	<path style="clip-path:url(#SVGID_00000080189152969003567480000000345591057584560543_);fill:#FFFFFF;" d="M196.695,252.769
		l-76.203-26.14c-1.005-0.342-2.019-0.506-3.017-0.506c-3.868,0-7.478,2.428-8.802,6.29c-1.666,4.862,0.922,10.154,5.78,11.819
		l82.242,28.205V252.769z"/>
	<path style="clip-path:url(#SVGID_00000080189152969003567480000000345591057584560543_);fill:#FFFFFF;" d="M202.276,301.96
		c0,13.249,10.78,24.024,24.027,24.024c5.139,0,9.303-4.166,9.303-9.306c0-5.135-4.164-9.303-9.303-9.303
		c-2.986,0-5.416-2.428-5.416-5.415V108.736c0-8.807,7.162-15.967,15.966-15.967c8.799,0,15.963,7.16,15.963,15.967v29.929
		c0,5.139,4.166,9.304,9.305,9.304c5.14,0,9.307-4.165,9.307-9.304v-29.929c0-19.066-15.513-34.576-34.575-34.576
		c-19.065,0-34.577,15.51-34.577,34.576V301.96z"/>
</g>
</svg>
