<?xml version="1.0" encoding="utf-8"?>
<!-- Generator: Adobe Illustrator 25.4.0, SVG Export Plug-In . SVG Version: 6.00 Build 0)  -->
<svg version="1.1" id="Calque_1" xmlns="http://www.w3.org/2000/svg" xmlns:xlink="http://www.w3.org/1999/xlink" x="0px" y="0px"
	 viewBox="0 0 368.5 368.5" style="enable-background:new 0 0 368.5 368.5;" xml:space="preserve">
<style type="text/css">
	.st0{fill:#FFFFFF;}
</style>
<g>
	<path class="st0" d="M247.8,234.17c-6.43,0-12.72-0.53-18.76-1.52v9.75c0,2.56,7.48,6.44,18.76,6.44c11.28,0,18.76-3.88,18.76-6.44
		v-9.75C260.52,233.65,254.23,234.17,247.8,234.17"/>
	<path class="st0" d="M182.22,127.24c0.08,0.3,0.13,0.61,0.1,0.93l-0.01,0.13c-0.01,0.12-0.03,0.25-0.03,0.37v0.13
		c0,9.42,26.91,19.91,65.53,19.91c38.62,0,65.53-10.49,65.53-19.91v-0.13c0-0.12-0.02-0.24-0.03-0.36l-0.02-0.15
		c-0.03-0.32,0.02-0.63,0.1-0.92V94.01c0-17.31-20.26-31.93-47.81-36.41c-0.44,6.06-6.46,9.15-17.94,9.15
		c-11.45,0-17.46-3.06-17.93-9.09c-27.39,4.54-47.49,19.12-47.49,36.36V127.24z"/>
	<path class="st0" d="M313.39,191.34v-37.79c-3.26,1.78-7.15,3.42-11.69,4.92c-14.43,4.75-33.58,7.37-53.9,7.37
		c-20.32,0-39.47-2.62-53.9-7.37c-4.53-1.49-8.42-3.14-11.69-4.92v37.79c0,20.86,29.42,37.83,65.59,37.83
		S313.39,212.2,313.39,191.34"/>
	<path class="st0" d="M317.6,132.69c-5.3,13.69-38.45,21.03-69.8,21.03s-64.5-7.34-69.8-21.03c-1.59,1.65-2.82,3.62-2.82,5.76v0.15
		c0,10.52,29.82,22.24,72.62,22.24s72.62-11.72,72.62-22.24v-0.15C320.42,136.31,319.19,134.34,317.6,132.69"/>
	<path class="st0" d="M234.67,56.87c0,4.02,7.06,4.87,12.98,4.87c5.92,0,12.98-0.84,12.98-4.87c0-4.26-5.94-7.87-12.98-7.87
		C240.61,49.01,234.67,52.61,234.67,56.87"/>
	<path class="st0" d="M88.67,238.69c17.34,0,32.42,9.81,40.02,24.16c-2.15-20.18-19.28-35.95-40.02-35.95
		c-20.74,0-37.87,15.77-40.02,35.95C56.25,248.5,71.33,238.69,88.67,238.69"/>
	<path class="st0" d="M128.92,283.94c0-22.19-18.06-40.25-40.25-40.25s-40.25,18.06-40.25,40.25c0,22.19,18.06,40.25,40.25,40.25
		S128.92,306.13,128.92,283.94 M88.67,317.88c-18.72,0-33.95-15.23-33.95-33.95c0-18.72,15.23-33.95,33.95-33.95
		c18.72,0,33.94,15.23,33.94,33.95C122.62,302.66,107.39,317.88,88.67,317.88"/>
	<path class="st0" d="M117.62,283.94c0-8.62-3.79-16.36-9.78-21.67c0.33,0.39,0.32,0.97-0.05,1.34l-4.66,4.66
		c-0.2,0.2-0.45,0.29-0.71,0.29s-0.51-0.1-0.71-0.29c-0.39-0.39-0.39-1.02,0-1.41l4.66-4.66c0.35-0.35,0.88-0.37,1.26-0.1
		c-2.41-2.09-5.16-3.79-8.16-5.01c0.01,0.15,0,0.31-0.06,0.46l-2.52,6.09c-0.16,0.38-0.53,0.62-0.92,0.62
		c-0.13,0-0.26-0.03-0.38-0.08c-0.51-0.21-0.75-0.8-0.54-1.31l2.52-6.09c0.05-0.12,0.12-0.23,0.21-0.31
		c-2.67-0.89-5.51-1.39-8.45-1.46c0.01,0.05,0.03,0.09,0.03,0.14v6.6c0,0.55-0.45,1-1,1c-0.55,0-1-0.45-1-1v-6.6
		c0-0.04,0.02-0.08,0.03-0.12c-2.91,0.13-5.7,0.69-8.33,1.62c0.03,0.05,0.07,0.08,0.09,0.14l2.52,6.09c0.21,0.51-0.03,1.1-0.54,1.31
		c-0.12,0.05-0.25,0.08-0.38,0.08c-0.39,0-0.76-0.23-0.92-0.62l-2.52-6.09c-0.03-0.07-0.03-0.13-0.04-0.2
		c-2.7,1.16-5.18,2.72-7.38,4.61c0.17,0.04,0.33,0.11,0.46,0.24l4.66,4.66c0.39,0.39,0.39,1.02,0,1.41c-0.1,0.1-0.21,0.17-0.33,0.22
		l12.46,9.17c0.61-0.24,1.26-0.38,1.95-0.38c2.96,0,5.36,2.4,5.36,5.36s-2.4,5.36-5.36,5.36s-5.36-2.4-5.36-5.36
		c0-0.4,0.05-0.8,0.14-1.18L69.9,271.2c-1.11-0.82-1.35-2.38-0.53-3.5c0.65-0.88,1.75-1.2,2.74-0.9l-3.19-3.19
		c-0.15-0.15-0.23-0.35-0.26-0.55c-5.49,5.27-8.93,12.68-8.93,20.88c0,15.96,12.98,28.95,28.95,28.95S117.62,299.9,117.62,283.94
		 M106.34,273.09l6.09-2.52c0.51-0.21,1.1,0.03,1.31,0.54c0.21,0.51-0.03,1.1-0.54,1.31l-6.09,2.52c-0.12,0.05-0.25,0.08-0.38,0.08
		c-0.39,0-0.76-0.23-0.92-0.62C105.59,273.89,105.83,273.31,106.34,273.09 M108.24,280.63h6.59c0.55,0,1,0.45,1,1s-0.45,1-1,1h-6.59
		c-0.55,0-1-0.45-1-1S107.69,280.63,108.24,280.63 M62.96,271.11c0.21-0.51,0.79-0.75,1.31-0.54l6.09,2.52
		c0.51,0.21,0.75,0.8,0.54,1.31c-0.16,0.39-0.53,0.62-0.93,0.62c-0.13,0-0.26-0.02-0.38-0.08l-6.09-2.52
		C62.99,272.21,62.74,271.62,62.96,271.11 M61.86,280.63h6.59c0.55,0,1,0.45,1,1s-0.45,1-1,1h-6.59c-0.55,0-1-0.45-1-1
		S61.31,280.63,61.86,280.63 M64.26,292.69c-0.13,0.05-0.25,0.08-0.38,0.08c-0.39,0-0.76-0.23-0.92-0.62
		c-0.21-0.51,0.03-1.1,0.54-1.31l6.09-2.52c0.51-0.21,1.09,0.03,1.31,0.54c0.21,0.51-0.03,1.1-0.54,1.31L64.26,292.69z M74.99,296.4
		l-4.66,4.66c-0.19,0.2-0.45,0.29-0.71,0.29s-0.51-0.1-0.71-0.29c-0.39-0.39-0.39-1.02,0-1.41l4.66-4.66c0.39-0.39,1.02-0.39,1.41,0
		C75.38,295.38,75.38,296.01,74.99,296.4 M81.66,300.39l-2.52,6.09c-0.16,0.39-0.53,0.62-0.92,0.62c-0.13,0-0.26-0.02-0.38-0.08
		c-0.51-0.21-0.75-0.8-0.54-1.31l2.52-6.09c0.21-0.51,0.79-0.75,1.31-0.54S81.87,299.88,81.66,300.39 M89.35,308.12
		c0,0.55-0.45,1-1,1c-0.55,0-1-0.45-1-1v-6.6c0-0.55,0.45-1,1-1c0.55,0,1,0.45,1,1V308.12z M98.87,307.03
		c-0.12,0.05-0.25,0.08-0.38,0.08c-0.39,0-0.76-0.23-0.92-0.62l-2.52-6.09c-0.21-0.51,0.03-1.1,0.54-1.31
		c0.51-0.21,1.1,0.03,1.31,0.54l2.52,6.09C99.62,306.23,99.38,306.81,98.87,307.03 M107.79,301.07c-0.19,0.2-0.45,0.29-0.71,0.29
		c-0.26,0-0.51-0.1-0.71-0.29l-4.66-4.66c-0.39-0.39-0.39-1.02,0-1.41c0.39-0.39,1.02-0.39,1.41,0l4.66,4.66
		C108.18,300.04,108.18,300.68,107.79,301.07 M113.74,292.15c-0.16,0.38-0.53,0.62-0.92,0.62c-0.13,0-0.26-0.02-0.38-0.08
		l-6.09-2.52c-0.51-0.21-0.75-0.8-0.54-1.31c0.21-0.51,0.79-0.75,1.31-0.54l6.09,2.52C113.71,291.05,113.95,291.64,113.74,292.15"/>
	<path class="st0" d="M87.16,157.17c-4.14,0-8.07-0.34-11.67-0.95v7.56c0,1.14,4.09,3.94,11.67,3.94c7.58,0,11.67-2.8,11.67-3.94
		v-7.56C95.22,156.83,91.3,157.17,87.16,157.17"/>
	<path class="st0" d="M115.84,140.48v-39.63c-7.95,2.4-18.34,3.63-28.68,3.63s-20.73-1.23-28.68-3.63v39.63
		c0,5.53,11.78,11.69,28.68,11.69C104.06,152.17,115.84,146.01,115.84,140.48"/>
	<path class="st0" d="M91.38,59.44c-1.38-0.04-2.78-0.07-4.22-0.07c-23.04,0-37.74,5.95-37.74,10.05v20
		c0,4.1,14.7,10.05,37.74,10.05c23.04,0,37.74-5.95,37.74-10.05v-20c0-2.49-5.43-5.66-14.85-7.77v-5.12v-2.89
		c0-5.14-4.19-9.33-9.33-9.33c-5.14,0-9.33,4.18-9.33,9.33v0.8V59.44z M100.71,48.31c2.94,0,5.33,2.39,5.33,5.33v11.31
		c0,0.73,0,2.94-5.33,2.94c-3.54,0-5.33-0.99-5.33-2.94V53.64C95.38,50.7,97.77,48.31,100.71,48.31 M119.17,72.94
		c0.46,1.3-0.23,2.73-1.53,3.19c-7.89,2.77-19.15,4.35-30.9,4.35c-12.7,0-24.55-1.81-32.51-4.95c-1.28-0.51-1.91-1.96-1.41-3.24
		c0.51-1.28,1.96-1.91,3.24-1.41c7.4,2.93,18.59,4.6,30.68,4.6c11.21,0,21.86-1.48,29.24-4.07
		C117.29,70.95,118.72,71.63,119.17,72.94"/>
	<polygon class="st0" points="93.71,203.03 92.59,204.14 94.83,204.14 	"/>
	<polygon class="st0" points="101.75,202.99 100.59,204.14 102.9,204.14 	"/>
	<polygon class="st0" points="93.49,191.9 96.23,189.16 96.21,189.14 90.73,189.14 	"/>
	
		<rect x="111.87" y="191.77" transform="matrix(0.7071 -0.7071 0.7071 0.7071 -103.582 137.1212)" class="st0" width="3.71" height="3.66"/>
	
		<rect x="108.11" y="195.69" transform="matrix(0.7071 -0.7071 0.7071 0.7071 -107.505 135.4954)" class="st0" width="3.38" height="3.66"/>
	<polygon class="st0" points="107.59,189.14 107.12,189.61 109.71,192.2 112.33,189.58 111.9,189.14 	"/>
	<polygon class="st0" points="109.9,202.84 108.59,204.15 111.21,204.15 	"/>
	<polygon class="st0" points="117.71,203.03 116.59,204.14 118.82,204.14 	"/>
	
		<rect x="112.11" y="199.69" transform="matrix(0.7071 -0.7071 0.7071 0.7071 -109.1619 139.4954)" class="st0" width="3.38" height="3.66"/>
	<polygon class="st0" points="89.88,195.51 92.07,193.31 89.88,191.12 	"/>
	
		<rect x="99.89" y="195.67" transform="matrix(0.7071 -0.7071 0.7071 0.7071 -109.8285 129.8468)" class="st0" width="3.87" height="3.66"/>
	<polygon class="st0" points="105.77,204.14 108.49,201.42 105.9,198.84 103.16,201.58 105.73,204.14 	"/>
	<polygon class="st0" points="97.75,198.99 95.12,201.61 97.65,204.14 97.77,204.14 100.33,201.58 	"/>
	<polygon class="st0" points="104.29,189.61 103.82,189.14 99.07,189.14 99.06,189.16 101.9,192.01 	"/>
	<path class="st0" d="M171.74,303.01c3.55,4.9,8.5,8.85,14.33,11.4c6.26,2.77,13.8,4.17,22.43,4.17l24.45,0l-3.21-3.21
		c-0.39-0.39-0.39-1.02,0-1.41c0.39-0.39,1.02-0.39,1.41,0l4.62,4.62h10.08l2.5-2.5l-1.26-1.26c-0.39-0.39-0.39-1.02,0-1.41
		c0.39-0.39,1.02-0.39,1.41,0l1.26,1.26l2.59-2.59l-2.62-2.63l-7.39,7.39c-0.19,0.2-0.45,0.29-0.71,0.29c-0.26,0-0.51-0.1-0.71-0.29
		c-0.39-0.39-0.39-1.02,0-1.41l7.39-7.39l-1.5-1.5c-0.39-0.39-0.39-1.02,0-1.41c0.39-0.39,1.02-0.39,1.41,0l1.5,1.5l2.59-2.59
		l-0.46-0.46h-4.56l-7.7,7.7c-0.2,0.2-0.45,0.29-0.71,0.29s-0.51-0.1-0.71-0.29c-0.39-0.39-0.39-1.02,0-1.41l6.29-6.29h-5.4
		l-6.55,6.55c-0.2,0.2-0.45,0.29-0.71,0.29c-0.26,0-0.51-0.1-0.71-0.29c-0.39-0.39-0.39-1.02,0-1.41l5.14-5.14H208.5
		c-6.54,0-12.04-0.97-16.35-2.88c-5.24-2.4-8.34-5.54-10.72-10.83c-2.3-5.28-2.76-11.67-2.75-16.11v-32.39
		c0.05-15.62-5.08-29.22-14.45-38.33c-8.22-8.04-19.47-12.72-32.76-13.7l4.9,4.9c0.39,0.39,0.39,1.02,0,1.41
		c-0.2,0.2-0.45,0.29-0.71,0.29s-0.51-0.1-0.71-0.29l-6.47-6.47c-0.78-0.02-1.56-0.05-2.36-0.05h-3.09l6.25,6.26
		c0.39,0.39,0.39,1.02,0,1.41c-0.19,0.2-0.45,0.29-0.71,0.29s-0.51-0.1-0.71-0.29l-7.67-7.67h-4.62l-0.43,0.43l2.59,2.59l1.5-1.5
		c0.39-0.39,1.02-0.39,1.41,0c0.39,0.39,0.39,1.02,0,1.41l-1.5,1.5l7.39,7.39c0.39,0.39,0.39,1.02,0,1.41
		c-0.19,0.2-0.45,0.29-0.71,0.29c-0.26,0-0.51-0.1-0.71-0.29l-7.39-7.39l-2.62,2.62l2.59,2.59l1.26-1.26c0.39-0.39,1.02-0.39,1.41,0
		c0.39,0.39,0.39,1.02,0,1.41l-1.26,1.26l2.53,2.53h4.3c1.89,0.01,3.7,0.1,5.45,0.27l4.92-4.92c0.39-0.39,1.02-0.39,1.41,0
		c0.39,0.39,0.39,1.02,0,1.42l-3.8,3.8c8.18,1.18,14.82,4.21,19.81,9.06c6.54,6.44,9.88,15.72,9.93,27.59v32.41
		C163.72,281.56,164.6,293.08,171.74,303.01"/>
	
		<rect x="95.76" y="191.36" transform="matrix(0.707 -0.7072 0.7072 0.707 -108.13 125.7543)" class="st0" width="3.87" height="4.03"/>
	
		<rect x="104.11" y="191.69" transform="matrix(0.7071 -0.7071 0.7071 0.7071 -105.8484 131.4962)" class="st0" width="3.38" height="3.66"/>
	<polygon class="st0" points="92.3,201.61 89.88,199.2 89.88,204.03 	"/>
	
		<rect x="91.74" y="195.45" transform="matrix(0.7071 -0.7071 0.7071 0.7071 -112.2143 124.0202)" class="st0" width="3.71" height="4.03"/>
	<polygon class="st0" points="278.03,313.24 275.19,316.09 277.69,318.59 278.08,318.59 278.08,313.28 	"/>
	
		<rect x="251.85" y="314.3" transform="matrix(0.7071 -0.7071 0.7071 0.7071 -149.1389 271.9277)" class="st0" width="3.66" height="3.38"/>
	
		<rect x="267.77" y="305.9" transform="matrix(0.7071 -0.7071 0.7071 0.7071 -138.6572 280.932)" class="st0" width="4.03" height="3.87"/>
	
		<rect x="255.85" y="310.3" transform="matrix(0.7071 -0.7071 0.7071 0.7071 -145.1391 273.5851)" class="st0" width="3.66" height="3.38"/>
	<polygon class="st0" points="261.69,318.59 261.78,318.59 264.32,316.05 261.58,313.31 258.99,315.89 	"/>
	
		<rect x="251.93" y="306.21" transform="matrix(0.7071 -0.7071 0.7071 0.7071 -143.5138 269.6618)" class="st0" width="3.66" height="3.71"/>
	<polygon class="st0" points="269.73,313.46 267.15,316.05 269.69,318.59 269.86,318.59 272.36,316.09 	"/>
	
		<rect x="271.87" y="310.08" transform="matrix(0.707 -0.7072 0.7072 0.707 -140.3587 285.1034)" class="st0" width="4.03" height="3.71"/>
	
		<rect x="263.83" y="310.03" transform="matrix(0.7071 -0.7071 0.7071 0.7071 -142.7877 279.2198)" class="st0" width="3.66" height="3.87"/>
	<polygon class="st0" points="249.77,317.5 248.69,318.59 250.86,318.59 	"/>
	<polygon class="st0" points="271.25,303.63 273.99,306.37 276.78,303.59 271.3,303.59 	"/>
	<polygon class="st0" points="273.77,317.5 272.69,318.59 274.86,318.59 	"/>
	<polygon class="st0" points="265.73,317.46 264.61,318.59 266.86,318.59 	"/>
	<polygon class="st0" points="257.58,317.31 256.3,318.59 258.86,318.59 	"/>
	<polygon class="st0" points="260.36,304.09 259.86,303.59 255.61,303.59 255.15,304.05 257.77,306.67 	"/>
	
		<rect x="259.85" y="306.3" transform="matrix(0.7071 -0.7071 0.7071 0.7071 -141.1389 275.2395)" class="st0" width="3.66" height="3.38"/>
	<polygon class="st0" points="265.58,306.48 268.43,303.63 268.38,303.58 263.69,303.58 263.19,304.09 	"/>
	<polygon class="st0" points="278.03,310.41 278.08,310.37 278.08,305.12 275.41,307.79 	"/>
	<rect x="70.91" y="186.34" class="st0" width="13.97" height="21.51"/>
	<path class="st0" d="M63.87,209.65c0.43,0,0.78-0.35,0.78-0.78v-3.04H48.08v3.04c0,0.43,0.35,0.78,0.78,0.78H63.87z"/>
	<path class="st0" d="M48.85,184.46c-0.43,0-0.78,0.35-0.78,0.78v2.6h16.57v-2.6c0-0.43-0.35-0.78-0.78-0.78H48.85z"/>
	<rect x="48.08" y="192.84" class="st0" width="16.57" height="8"/>
	<rect x="283.08" y="300.34" class="st0" width="13.97" height="21.51"/>
	<path class="st0" d="M319.11,323.65c0.43,0,0.78-0.35,0.78-0.78v-3.04h-16.57v3.04c0,0.43,0.35,0.78,0.78,0.78H319.11z"/>
	<rect x="303.31" y="306.84" class="st0" width="16.57" height="8"/>
	<path class="st0" d="M319.11,298.46h-15.02c-0.43,0-0.78,0.35-0.78,0.78v2.6h16.57v-2.6C319.88,298.81,319.53,298.46,319.11,298.46
		"/>
</g>
</svg>
