<?xml version="1.0" encoding="iso-8859-1"?>
<!-- Generator: Adobe Illustrator 25.4.1, SVG Export Plug-In . SVG Version: 6.00 Build 0)  -->
<svg version="1.1" id="Calque_1" xmlns="http://www.w3.org/2000/svg" xmlns:xlink="http://www.w3.org/1999/xlink" x="0px" y="0px"
	 viewBox="0 0 368.5 368.5" style="enable-background:new 0 0 368.5 368.5;" xml:space="preserve">
<g>
	<defs>
		<rect id="SVGID_1_" width="368.5" height="368.5"/>
	</defs>
	<clipPath id="SVGID_00000090292750060826913540000012937014618961525163_">
		<use xlink:href="#SVGID_1_"  style="overflow:visible;"/>
	</clipPath>
	<path style="clip-path:url(#SVGID_00000090292750060826913540000012937014618961525163_);fill:#FFFFFF;" d="M320.503,99.543
		l-5.293-0.694v-0.018l-65.542-8.534v0.021l-5.848-0.763c-4.117-0.537-7.881,2.362-8.423,6.485c-0.53,4.111,2.371,7.875,6.484,8.414
		l76.688,9.984c0.328,0.042,0.656,0.058,0.976,0.058c3.721,0.009,6.946-2.756,7.44-6.54
		C327.526,103.844,324.617,100.077,320.503,99.543"/>
	<path style="clip-path:url(#SVGID_00000090292750060826913540000012937014618961525163_);fill:#FFFFFF;" d="M249.667,114.74v0.015
		l-5.848-0.759c-4.117-0.535-7.881,2.36-8.423,6.483c-0.53,4.115,2.371,7.875,6.484,8.416l76.688,9.982
		c0.328,0.045,0.656,0.062,0.976,0.062c3.721,0.004,6.946-2.756,7.441-6.54c0.54-4.115-2.369-7.881-6.483-8.418l-5.292-0.693v-0.013
		L249.667,114.74z"/>
	<path style="clip-path:url(#SVGID_00000090292750060826913540000012937014618961525163_);fill:#FFFFFF;" d="M238.363,79.366
		l84.684,11.025c0.143,0.02,0.303,0.027,0.455,0.027c0.849,0,1.682-0.306,2.326-0.878c0.769-0.668,1.2-1.631,1.2-2.652v-6.151
		c0-9.455-6.942-17.142-15.472-17.142h-61.605c-6.41,0-12.218,4.477-14.474,11.143c-0.335,1-0.21,2.098,0.345,2.996
		C236.382,78.634,237.317,79.226,238.363,79.366"/>
	<path style="clip-path:url(#SVGID_00000090292750060826913540000012937014618961525163_);fill:#FFFFFF;" d="M78.842,220.781
		v-47.308c0-24.469,19.912-44.374,44.381-44.374c24.468,0,44.372,19.905,44.372,44.374v61.009c0,32.883,26.758,59.641,59.646,59.641
		c32.887,0,59.647-26.758,59.647-59.641v-44.591c18.081-3.053,32.593-17.661,35.009-36.363c0.271-2.089-1.204-4.004-3.293-4.275
		l-76.894-10.341c-0.163-0.024-0.328-0.03-0.492-0.03c-0.842,0-1.654,0.276-2.33,0.794c-0.801,0.616-1.33,1.524-1.463,2.53
		c-0.257,1.996,0,4.164,0,5.85c0,20.579,14.727,37.778,34.189,41.624v44.802c0,24.469-19.9,44.374-44.373,44.374
		c-24.467,0-44.372-19.905-44.372-44.374v-61.009c0-32.885-26.755-59.643-59.646-59.643c-32.888,0-59.641,26.758-59.641,59.643
		v47.59c2.69-0.588,5.479-0.911,8.346-0.911C74.291,220.152,76.601,220.369,78.842,220.781"/>
	<path style="clip-path:url(#SVGID_00000090292750060826913540000012937014618961525163_);fill:#FFFFFF;" d="M45.685,286.275h8.528
		v10.5v3.541c0,2.535,2.057,4.593,4.596,4.593c2.531,0,4.594-2.058,4.594-4.593v-3.541v-10.5h17.059v10.5v3.541
		c0,2.535,2.049,4.593,4.59,4.593c2.532,0,4.59-2.058,4.59-4.593v-3.541v-10.5h8.529c1.163,0,2.103-0.941,2.103-2.098v-25.19
		c0-15.625-12.72-28.339-28.349-28.339c-15.627,0-28.34,12.714-28.34,28.339v25.19C43.585,285.334,44.524,286.275,45.685,286.275"/>
</g>
</svg>
