<?xml version="1.0" encoding="iso-8859-1"?>
<!-- Generator: Adobe Illustrator 25.4.1, SVG Export Plug-In . SVG Version: 6.00 Build 0)  -->
<svg version="1.1" id="Calque_1" xmlns="http://www.w3.org/2000/svg" xmlns:xlink="http://www.w3.org/1999/xlink" x="0px" y="0px"
	 viewBox="0 0 368.5 368.5" style="enable-background:new 0 0 368.5 368.5;" xml:space="preserve">
<g>
	<defs>
		<rect id="SVGID_1_" width="368.5" height="368.5"/>
	</defs>
	<clipPath id="SVGID_00000092439534462157438610000012373502160510619566_">
		<use xlink:href="#SVGID_1_"  style="overflow:visible;"/>
	</clipPath>
	<path style="clip-path:url(#SVGID_00000092439534462157438610000012373502160510619566_);fill:#FFFFFF;" d="M156.809,133.883
		H51.349v28.693h105.46V133.883z M108.386,140.224h33.666c4.246,0,7.688,3.441,7.688,7.686c0,4.246-3.442,7.689-7.688,7.689h-33.666
		c-4.247,0-7.689-3.443-7.689-7.689C100.697,143.665,104.139,140.224,108.386,140.224 M94.166,147.91
		c0,4.361-3.547,7.908-7.908,7.908c-4.36,0-7.907-3.547-7.907-7.908c0-4.36,3.547-7.908,7.907-7.908
		C90.619,140.002,94.166,143.55,94.166,147.91 M64.882,140.002c4.361,0,7.908,3.548,7.908,7.908c0,4.361-3.547,7.908-7.908,7.908
		c-4.36,0-7.907-3.547-7.907-7.908C56.975,143.55,60.522,140.002,64.882,140.002"/>
	<polygon style="clip-path:url(#SVGID_00000092439534462157438610000012373502160510619566_);fill:#FFFFFF;" points="
		203.046,78.807 203.046,57.949 163.81,131.262 163.81,152.12 	"/>
	<polygon style="clip-path:url(#SVGID_00000092439534462157438610000012373502160510619566_);fill:#FFFFFF;" points="
		158.214,126.883 200.704,47.491 96.183,47.491 53.693,126.883 	"/>
	<path style="clip-path:url(#SVGID_00000092439534462157438610000012373502160510619566_);fill:#FFFFFF;" d="M90.167,147.91
		c0-2.154-1.753-3.908-3.908-3.908c-2.154,0-3.907,1.754-3.907,3.908c0,2.155,1.753,3.908,3.907,3.908
		C88.414,151.818,90.167,150.065,90.167,147.91"/>
	<path style="clip-path:url(#SVGID_00000092439534462157438610000012373502160510619566_);fill:#FFFFFF;" d="M64.882,151.819
		c2.155,0,3.908-1.753,3.908-3.908c0-2.154-1.753-3.908-3.908-3.908c-2.154,0-3.907,1.754-3.907,3.908
		C60.975,150.066,62.728,151.819,64.882,151.819"/>
	<path style="clip-path:url(#SVGID_00000092439534462157438610000012373502160510619566_);fill:#FFFFFF;" d="M87.995,192.807
		c5.397,4.939,8.788,12.036,8.788,19.911v88.297c0,7.875-3.391,14.972-8.789,19.911c10.265-0.832,18.367-9.436,18.367-19.911
		v-88.297C106.361,202.243,98.259,193.64,87.995,192.807"/>
	<path style="clip-path:url(#SVGID_00000092439534462157438610000012373502160510619566_);fill:#FFFFFF;" d="M60.679,223.575h3.356
		c1.104,0,2,0.895,2,2v5.407c0,1.879,1.528,3.407,3.406,3.407c1.879,0,3.408-1.528,3.408-3.407v-5.407c0-1.105,0.895-2,2-2h3.625
		c1.327,0,2.45-1.561,2.45-3.407c0-1.847-1.123-3.407-2.45-3.407h-3.625c-1.105,0-2-0.896-2-2v-5.406
		c0-1.879-1.529-3.407-3.408-3.407c-1.878,0-3.406,1.528-3.406,3.407v5.406c0,1.104-0.896,2-2,2h-3.356
		c-1.328,0-2.45,1.56-2.45,3.407C58.229,222.014,59.351,223.575,60.679,223.575"/>
	<path style="clip-path:url(#SVGID_00000092439534462157438610000012373502160510619566_);fill:#FFFFFF;" d="M69.789,321.009
		c11.025,0,19.994-8.969,19.994-19.994v-88.297c0-11.024-8.969-19.993-19.994-19.993c-11.024,0-19.993,8.969-19.993,19.993v88.297
		C49.796,312.04,58.765,321.009,69.789,321.009 M60.908,302.599c-2.564,0-4.649-2.564-4.649-5.715c0-3.15,2.085-5.713,4.649-5.713
		c2.564,0,4.65,2.563,4.65,5.713C65.558,300.035,63.472,302.599,60.908,302.599 M60.908,286.118c-2.564,0-4.649-2.563-4.649-5.714
		c0-3.15,2.085-5.713,4.649-5.713c2.564,0,4.65,2.563,4.65,5.713C65.558,283.555,63.472,286.118,60.908,286.118 M60.908,269.638
		c-2.564,0-4.649-2.563-4.649-5.713c0-3.151,2.085-5.715,4.649-5.715c2.564,0,4.65,2.564,4.65,5.715
		C65.558,267.075,63.472,269.638,60.908,269.638 M60.908,253.158c-2.564,0-4.649-2.563-4.649-5.713c0-3.151,2.085-5.714,4.649-5.714
		c2.564,0,4.65,2.563,4.65,5.714C65.558,250.595,63.472,253.158,60.908,253.158 M77.635,302.599c-2.563,0-4.649-2.564-4.649-5.715
		c0-3.15,2.086-5.713,4.649-5.713c2.565,0,4.65,2.563,4.65,5.713C82.285,300.035,80.2,302.599,77.635,302.599 M77.635,286.118
		c-2.563,0-4.649-2.563-4.649-5.714c0-3.15,2.086-5.713,4.649-5.713c2.565,0,4.65,2.563,4.65,5.713
		C82.285,283.555,80.2,286.118,77.635,286.118 M77.635,269.638c-2.563,0-4.649-2.563-4.649-5.713c0-3.151,2.086-5.715,4.649-5.715
		c2.565,0,4.65,2.564,4.65,5.715C82.285,267.075,80.2,269.638,77.635,269.638 M77.635,253.158c-2.563,0-4.649-2.563-4.649-5.713
		c0-3.151,2.086-5.714,4.649-5.714c2.565,0,4.65,2.563,4.65,5.714C82.285,250.595,80.2,253.158,77.635,253.158 M60.679,212.761
		h1.356v-3.406c0-4.084,3.322-7.407,7.406-7.407c4.085,0,7.408,3.323,7.408,7.407v3.406h1.625c3.556,0,6.45,3.323,6.45,7.407
		c0,4.085-2.894,7.407-6.45,7.407h-1.625v3.407c0,4.085-3.323,7.408-7.408,7.408c-4.084,0-7.406-3.323-7.406-7.408v-3.407h-1.356
		c-3.557,0-6.45-3.322-6.45-7.407C54.229,216.084,57.122,212.761,60.679,212.761"/>
	<path style="clip-path:url(#SVGID_00000092439534462157438610000012373502160510619566_);fill:#FFFFFF;" d="M175.481,280.661
		c-6.312,0-12.098-3.204-15.874-8.793l-0.218-0.323c-6.429-9.514-4.792-23.204,3.647-30.519l21.688-18.799V204.54
		c0-4.688-4.909-8.5-10.941-8.5h-27.852c-6.033,0-10.941,3.812-10.941,8.5v106.338c0,4.687,4.908,8.5,10.941,8.5h27.852
		c6.032,0,10.941-3.813,10.941-8.5V278.12C181.893,279.786,178.755,280.661,175.481,280.661 M174.33,204.432
		c1.849,0,3.243,2.415,3.243,5.616s-1.394,5.615-3.243,5.615c-1.849,0-3.243-2.414-3.243-5.615S172.481,204.432,174.33,204.432
		 M145.917,311.452c-1.85,0-3.244-2.414-3.244-5.615s1.394-5.615,3.244-5.615c1.849,0,3.243,2.414,3.243,5.615
		S147.766,311.452,145.917,311.452 M145.917,215.663c-1.85,0-3.244-2.414-3.244-5.615s1.394-5.616,3.244-5.616
		c1.849,0,3.243,2.415,3.243,5.616S147.766,215.663,145.917,215.663 M174.33,311.452c-1.849,0-3.243-2.414-3.243-5.615
		s1.394-5.615,3.243-5.615c1.849,0,3.243,2.414,3.243,5.615S176.179,311.452,174.33,311.452"/>
	<path style="clip-path:url(#SVGID_00000092439534462157438610000012373502160510619566_);fill:#FFFFFF;" d="M219.702,238.98
		l21.083-44.606l-3.74-7.914c-0.698,0.4-1.373,0.87-2.011,1.423l-67.413,58.433c-5.853,5.074-6.944,14.633-2.433,21.309l0.219,0.324
		c2.453,3.631,6.125,5.713,10.074,5.713c2.754,0,5.386-1.02,7.612-2.949L219.702,238.98z"/>
	<path style="clip-path:url(#SVGID_00000092439534462157438610000012373502160510619566_);fill:#FFFFFF;" d="M301.561,298.981
		c-0.297-0.521-0.59-1.067-0.874-1.667l-29.571-62.566l-1.754,3.713l26.401,55.861c1.612,3.409,3.337,4.642,4.413,4.66
		L301.561,298.981z"/>
	<path style="clip-path:url(#SVGID_00000092439534462157438610000012373502160510619566_);fill:#FFFFFF;" d="M215.086,123.611
		l32.735,69.266c0.447,0.947,0.447,2.044,0,2.991l-32.734,69.258c-3.741,7.913-3.741,21.282-0.001,29.193
		c1.626,3.437,3.361,4.662,4.443,4.662h1.357c-0.297-0.522-0.591-1.069-0.875-1.67c-4.663-9.861-4.663-25.312,0-35.176
		l32.028-67.763l-32.029-67.769c-4.662-9.861-4.662-25.312,0.001-35.175c0.284-0.6,0.576-1.145,0.872-1.667h-1.166
		c-0.043,0-0.086-0.001-0.128-0.002h-0.002c-1.142,0-2.876,1.225-4.501,4.662C211.346,102.333,211.346,115.701,215.086,123.611"/>
	<path style="clip-path:url(#SVGID_00000092439534462157438610000012373502160510619566_);fill:#FFFFFF;" d="M271.116,153.993
		l29.571-62.566c0.284-0.601,0.577-1.147,0.874-1.669h-1.338c-1.101,0-2.835,1.224-4.46,4.66l-26.402,55.862L271.116,153.993z"/>
	<path style="clip-path:url(#SVGID_00000092439534462157438610000012373502160510619566_);fill:#FFFFFF;" d="M235.22,94.418
		c-1.624-3.435-3.358-4.659-4.44-4.659s-2.817,1.225-4.442,4.662c-3.74,7.913-3.74,21.281,0,29.192l32.736,69.264
		c0.447,0.947,0.447,2.045,0,2.992l-32.735,69.258c-3.741,7.913-3.741,21.282-0.001,29.193c1.625,3.437,3.36,4.661,4.442,4.661
		s2.816-1.224,4.44-4.659l32.73-69.261c0.579-1.223,1.811-2.004,3.165-2.004c1.353,0,2.586,0.78,3.164,2.004l32.737,69.261
		c1.623,3.436,3.358,4.66,4.44,4.66s2.817-1.224,4.442-4.661c3.741-7.912,3.741-21.281,0-29.193l-32.732-69.259
		c-0.448-0.947-0.448-2.045,0-2.992l32.731-69.264c3.741-7.912,3.741-21.281,0.001-29.195c-1.625-3.435-3.36-4.66-4.442-4.66
		s-2.817,1.224-4.44,4.66l-32.737,69.262c-0.578,1.224-1.811,2.005-3.164,2.005c-1.354,0-2.586-0.781-3.165-2.005L235.22,94.418z
		 M232.297,118.699c-2.352,0-3.995-2.624-3.995-6.383c0-3.758,1.643-6.383,3.995-6.383s3.995,2.625,3.995,6.383
		C236.292,116.075,234.649,118.699,232.297,118.699 M231.335,287.326c-2.351,0-3.995-2.625-3.995-6.383
		c0-3.758,1.644-6.383,3.995-6.383c2.352,0,3.995,2.625,3.995,6.383C235.33,284.701,233.687,287.326,231.335,287.326
		 M314.684,280.021c0,3.758-1.642,6.383-3.994,6.383c-2.352,0-3.995-2.625-3.995-6.383c0-3.758,1.643-6.383,3.995-6.383
		C313.042,273.638,314.684,276.263,314.684,280.021 M310.69,101.089c2.352,0,3.994,2.625,3.994,6.383
		c0,3.758-1.642,6.383-3.994,6.383c-2.352,0-3.995-2.625-3.995-6.383C306.695,103.714,308.338,101.089,310.69,101.089"/>
</g>
</svg>
