<?xml version="1.0" encoding="iso-8859-1"?>
<!-- Generator: Adobe Illustrator 25.4.1, SVG Export Plug-In . SVG Version: 6.00 Build 0)  -->
<svg version="1.1" id="Calque_1" xmlns="http://www.w3.org/2000/svg" xmlns:xlink="http://www.w3.org/1999/xlink" x="0px" y="0px"
	 viewBox="0 0 368.5 368.5" style="enable-background:new 0 0 368.5 368.5;" xml:space="preserve">
<g>
	<defs>
		<rect id="SVGID_1_" width="368.5" height="368.5"/>
	</defs>
	<clipPath id="SVGID_00000181053598999249229840000010881744543908693891_">
		<use xlink:href="#SVGID_1_"  style="overflow:visible;"/>
	</clipPath>
	<path style="clip-path:url(#SVGID_00000181053598999249229840000010881744543908693891_);fill:#FFFFFF;" d="M244.755,322.359
		c0.004,0,0.008-0.001,0.013-0.001l0.205,0.008c0.036,0,0.073,0.002,0.109,0.004c0.157,0,0.314-0.012,0.471-0.017h0.007
		c10.749-0.321,20.781-11.269,28.736-29.061c-1.378-0.864-1.989-2.926-1.489-5.444c0.545-2.745,2.086-4.52,3.927-4.52
		c0.177,0,0.353,0.017,0.527,0.052c0.322,0.064,0.607,0.195,0.874,0.355c5.516-15.288,9.682-34.209,11.888-55.082
		c-1.418-0.705-2.273-2.619-2.147-5.114c0.136-2.685,1.36-4.627,3.046-4.993c0.493-6.735,0.786-13.633,0.853-20.647
		c0.01-1.065,0.016-2.132,0.016-3.202c0-1.071-0.006-2.138-0.016-3.203c-0.647-67.057-21.547-123.714-46.215-124.451
		c-0.006-0.001-0.011-0.002-0.017-0.002c-0.155-0.004-0.309-0.016-0.464-0.016c-0.091,0-0.182,0.008-0.273,0.01h-0.017h-0.002
		c-25.193,0.449-46.42,58.723-46.42,127.662c0,42.238,7.969,80.474,19.935,103.861h31.743c3.887,0,7.049,3.162,7.049,7.049
		c0,3.886-3.162,7.049-7.049,7.049h-22.506C232.889,318.787,238.707,322.24,244.755,322.359 M254.937,285.584
		c-0.546,2.746-2.088,4.519-3.927,4.519c-0.178,0-0.355-0.017-0.53-0.052c-0.73-0.144-1.381-0.593-1.829-1.263
		c-0.729-1.089-0.94-2.754-0.579-4.568c0.543-2.744,2.084-4.519,3.925-4.519c0.179,0,0.356,0.018,0.532,0.053
		C254.549,280.156,255.539,282.554,254.937,285.584 M262.634,218.473c0.746,0.037,1.456,0.387,1.996,0.984
		c0.88,0.973,1.331,2.589,1.237,4.434c-0.151,2.987-1.641,5.072-3.623,5.072c-0.033,0-0.101-0.002-0.135-0.003
		c-2.061-0.107-3.389-2.336-3.233-5.421C259.03,220.504,260.599,218.359,262.634,218.473"/>
	<path style="clip-path:url(#SVGID_00000181053598999249229840000010881744543908693891_);fill:#FFFFFF;" d="M268.529,73.019
		c5.781,6.865,11.031,16.347,15.519,28.195c9.507,25.101,14.742,58.3,14.742,93.483s-5.235,68.382-14.742,93.483
		c-4.488,11.848-9.738,21.331-15.519,28.196c31.877-16.462,55.113-64.977,55.113-121.679S300.406,89.479,268.529,73.019"/>
	<path style="clip-path:url(#SVGID_00000181053598999249229840000010881744543908693891_);fill:#FFFFFF;" d="M250.044,307.655
		c1.13,0,2.049-0.919,2.049-2.049c0-1.13-0.919-2.049-2.049-2.049h-98.172c-1.13,0-2.049,0.919-2.049,2.049
		c0,1.13,0.919,2.049,2.049,2.049H250.044z"/>
	<path style="clip-path:url(#SVGID_00000181053598999249229840000010881744543908693891_);fill:#FFFFFF;" d="M168.052,281.056
		c1.214,4.2,1.372,8.456,0.443,11.985c-0.249,0.946-0.569,1.814-0.953,2.598l4.87-1.408c4.002-1.157,5.62-8.236,3.534-15.457
		c-1.067-3.686-2.908-6.887-5.186-9.012c-2.071-1.932-4.22-2.705-6.049-2.175l-4.904,1.417
		C163.338,271.175,166.472,275.588,168.052,281.056"/>
	<path style="clip-path:url(#SVGID_00000181053598999249229840000010881744543908693891_);fill:#FFFFFF;" d="M150.707,273.788h8.559
		c0.015,0,0.029,0.007,0.044,0.008c0.148,0.004,0.293,0.026,0.434,0.073c0.011,0.004,0.023,0.008,0.034,0.012
		c0.02,0.007,0.037,0.019,0.057,0.028c0.055,0.023,0.111,0.041,0.164,0.07c0.053,0.03,0.099,0.069,0.147,0.104
		c0.022,0.016,0.045,0.029,0.067,0.047c0.004,0.004,0.01,0.007,0.015,0.01c0.004,0.004,0.01,0.007,0.015,0.011
		c0.099,0.085,0.182,0.185,0.256,0.292c0.016,0.024,0.03,0.048,0.045,0.073c0.013,0.022,0.026,0.042,0.037,0.064
		c0.061,0.112,0.113,0.229,0.143,0.355l4.481,18.537c0.143-0.378,0.276-0.771,0.388-1.195c0.793-3.012,0.643-6.701-0.423-10.389
		c-1.871-6.471-6.203-11.35-10.076-11.35c-0.397,0-0.786,0.054-1.158,0.162C152.554,271.099,151.466,272.215,150.707,273.788"/>
	<polygon style="clip-path:url(#SVGID_00000181053598999249229840000010881744543908693891_);fill:#FFFFFF;" points="
		146.309,299.673 142.262,282.929 142.034,281.987 132.348,281.987 136.623,299.673 	"/>
	<polygon style="clip-path:url(#SVGID_00000181053598999249229840000010881744543908693891_);fill:#FFFFFF;" points="
		162.481,294.974 158.188,277.214 144.999,281.486 149.292,299.248 	"/>
	<polygon style="clip-path:url(#SVGID_00000181053598999249229840000010881744543908693891_);fill:#FFFFFF;" points="
		146.73,276.788 139.94,278.987 142.977,278.987 149.766,276.788 148.399,276.788 	"/>
	<path style="clip-path:url(#SVGID_00000181053598999249229840000010881744543908693891_);fill:#FFFFFF;" d="M151.871,132.522
		H46.411v28.693h105.46V132.522z M59.945,154.457c-4.361,0-7.908-3.547-7.908-7.909c0-4.359,3.547-7.907,7.908-7.907
		c4.359,0,7.907,3.548,7.907,7.907C67.852,150.91,64.304,154.457,59.945,154.457 M81.32,154.457c-4.36,0-7.907-3.547-7.907-7.909
		c0-4.359,3.547-7.907,7.907-7.907s7.908,3.548,7.908,7.907C89.228,150.91,85.68,154.457,81.32,154.457 M137.114,154.237h-33.667
		c-4.247,0-7.688-3.442-7.688-7.689c0-4.245,3.441-7.687,7.688-7.687h33.667c4.245,0,7.688,3.442,7.688,7.687
		C144.802,150.795,141.359,154.237,137.114,154.237"/>
	<polygon style="clip-path:url(#SVGID_00000181053598999249229840000010881744543908693891_);fill:#FFFFFF;" points="158.872,129.9 
		158.872,150.757 198.108,77.445 198.108,74.822 198.108,56.587 	"/>
	<polygon style="clip-path:url(#SVGID_00000181053598999249229840000010881744543908693891_);fill:#FFFFFF;" points="
		153.275,125.523 195.765,46.13 92.647,46.13 91.244,46.13 48.756,125.523 	"/>
	<path style="clip-path:url(#SVGID_00000181053598999249229840000010881744543908693891_);fill:#FFFFFF;" d="M85.228,146.549
		c0-2.154-1.753-3.907-3.908-3.907c-2.154,0-3.907,1.753-3.907,3.907c0,2.155,1.753,3.908,3.907,3.908
		C83.475,150.457,85.228,148.704,85.228,146.549"/>
	<path style="clip-path:url(#SVGID_00000181053598999249229840000010881744543908693891_);fill:#FFFFFF;" d="M59.945,142.642
		c-2.155,0-3.908,1.753-3.908,3.907c0,2.155,1.753,3.908,3.908,3.908c2.154,0,3.907-1.753,3.907-3.908
		C63.852,144.395,62.099,142.642,59.945,142.642"/>
	<path style="clip-path:url(#SVGID_00000181053598999249229840000010881744543908693891_);fill:#FFFFFF;" d="M83.056,191.446
		c5.397,4.939,8.788,12.036,8.788,19.911v88.297c0,7.875-3.391,14.972-8.789,19.911c10.265-0.832,18.367-9.436,18.367-19.911
		v-88.297C101.422,200.882,93.32,192.279,83.056,191.446"/>
	<path style="clip-path:url(#SVGID_00000181053598999249229840000010881744543908693891_);fill:#FFFFFF;" d="M55.74,222.214h3.357
		c1.104,0,2,0.896,2,2v5.407c0,1.879,1.528,3.407,3.406,3.407c1.879,0,3.407-1.528,3.407-3.407v-5.407c0-1.104,0.895-2,2-2h3.626
		c1.328,0,2.45-1.561,2.45-3.407c0-1.847-1.122-3.407-2.45-3.407H69.91c-1.105,0-2-0.896-2-2v-5.406
		c0-1.879-1.528-3.407-3.407-3.407c-1.878,0-3.406,1.528-3.406,3.407v5.406c0,1.104-0.896,2-2,2H55.74
		c-1.328,0-2.449,1.56-2.449,3.407C53.291,220.653,54.412,222.214,55.74,222.214"/>
	<path style="clip-path:url(#SVGID_00000181053598999249229840000010881744543908693891_);fill:#FFFFFF;" d="M64.851,319.647
		c11.025,0,19.994-8.969,19.994-19.994v-88.297c0-11.024-8.969-19.993-19.994-19.993c-11.024,0-19.993,8.969-19.993,19.993v88.297
		C44.858,310.678,53.827,319.647,64.851,319.647 M55.971,301.237c-2.564,0-4.651-2.564-4.651-5.715c0-3.15,2.087-5.713,4.651-5.713
		c2.563,0,4.649,2.563,4.649,5.713C60.62,298.673,58.534,301.237,55.971,301.237 M55.971,284.756c-2.564,0-4.651-2.563-4.651-5.712
		c0-3.152,2.087-5.715,4.651-5.715c2.563,0,4.649,2.563,4.649,5.715C60.62,282.193,58.534,284.756,55.971,284.756 M55.971,268.276
		c-2.564,0-4.651-2.563-4.651-5.713c0-3.151,2.087-5.715,4.651-5.715c2.563,0,4.649,2.564,4.649,5.715
		C60.62,265.713,58.534,268.276,55.971,268.276 M55.971,251.796c-2.564,0-4.651-2.562-4.651-5.713s2.087-5.714,4.651-5.714
		c2.563,0,4.649,2.563,4.649,5.714S58.534,251.796,55.971,251.796 M72.698,301.237c-2.564,0-4.649-2.564-4.649-5.715
		c0-3.15,2.085-5.713,4.649-5.713c2.564,0,4.649,2.563,4.649,5.713C77.347,298.673,75.262,301.237,72.698,301.237 M72.698,284.756
		c-2.564,0-4.649-2.563-4.649-5.712c0-3.152,2.085-5.715,4.649-5.715c2.564,0,4.649,2.563,4.649,5.715
		C77.347,282.193,75.262,284.756,72.698,284.756 M72.698,268.276c-2.564,0-4.649-2.563-4.649-5.713c0-3.151,2.085-5.715,4.649-5.715
		c2.564,0,4.649,2.564,4.649,5.715C77.347,265.713,75.262,268.276,72.698,268.276 M72.698,251.796c-2.564,0-4.649-2.562-4.649-5.713
		s2.085-5.714,4.649-5.714c2.564,0,4.649,2.563,4.649,5.714S75.262,251.796,72.698,251.796 M55.74,211.399h1.357v-3.405
		c0-4.085,3.322-7.408,7.406-7.408c4.084,0,7.407,3.323,7.407,7.408v3.405h1.626c3.557,0,6.45,3.323,6.45,7.407
		c0,4.085-2.893,7.407-6.45,7.407H71.91v3.407c0,4.085-3.323,7.408-7.407,7.408c-4.084,0-7.406-3.323-7.406-7.408v-3.407H55.74
		c-3.556,0-6.449-3.322-6.449-7.407C49.291,214.722,52.184,211.399,55.74,211.399"/>
</g>
</svg>
