<?xml version="1.0" encoding="iso-8859-1"?>
<!-- Generator: Adobe Illustrator 25.4.1, SVG Export Plug-In . SVG Version: 6.00 Build 0)  -->
<svg version="1.1" id="Calque_1" xmlns="http://www.w3.org/2000/svg" xmlns:xlink="http://www.w3.org/1999/xlink" x="0px" y="0px"
	 viewBox="0 0 368.5 368.5" style="enable-background:new 0 0 368.5 368.5;" xml:space="preserve">
<g>
	<defs>
		<rect id="SVGID_1_" width="368.5" height="368.5"/>
	</defs>
	<clipPath id="SVGID_00000138575356503411082870000011000861817842501298_">
		<use xlink:href="#SVGID_1_"  style="overflow:visible;"/>
	</clipPath>
	<path style="clip-path:url(#SVGID_00000138575356503411082870000011000861817842501298_);fill:#FFFFFF;" d="M221.633,52.463
		l25.704-5.768c0.819-0.165,1.822-0.249,2.98-0.249c3.174,0,6.962,0.646,9.309,1.286c0.035,0.01,0.069,0.019,0.105,0.027
		l35.843,8.599c6.604,2.285,10.541,7.761,10.541,14.678v132.05c0,8.05-4.882,15.325-14.477,21.604l-26.224,16.735v8.304
		l30.023-19.16c11.73-7.675,17.678-16.921,17.678-27.483V71.036c0-9.964-5.919-18.148-15.447-21.36
		c-0.099-0.033-0.2-0.062-0.302-0.086l-35.951-8.626c-2.6-0.703-7.043-1.518-11.098-1.518c-1.622,0-3.089,0.13-4.438,0.403
		l-38.21,8.574c-0.808,0.018-1.599,0.109-2.38,0.234L221.633,52.463z"/>
	<path style="clip-path:url(#SVGID_00000138575356503411082870000011000861817842501298_);fill:#FFFFFF;" d="M265.414,78.276
		l28.75-10.938c1.806-0.687,2.713-2.709,2.026-4.515c-0.687-1.807-2.709-2.715-4.516-2.027l-26.26,9.991V78.276z"/>
	<path style="clip-path:url(#SVGID_00000138575356503411082870000011000861817842501298_);fill:#FFFFFF;" d="M237.11,90.024V71.921
		c0-3.009,1.008-5.784,2.691-8.04l-53.414-12.438l-11.395-2.793c-3.44,0.178-5.809,2.757-5.809,6.393v17.71L237.11,90.024z"/>
	<path style="clip-path:url(#SVGID_00000138575356503411082870000011000861817842501298_);fill:#FFFFFF;" d="M179.766,238.015
		c0.109,0.106,0.194,0.226,0.286,0.343c5.869,2,11.251,5.284,15.777,9.72l4.308,4.224l38.02,10.882
		c-0.672-1.6-1.047-3.35-1.047-5.186v-50.501l-5.784,1.414c-0.54,0.329-1.164,0.521-1.815,0.521c-0.15,0-0.301-0.011-0.452-0.03
		c-0.797,0.069-1.586-0.135-2.252-0.586l-57.624-15.931v34.755L179.766,238.015z M214.426,214.905
		c5.644,0,10.219,6.884,10.219,15.379c0,8.494-4.575,15.379-10.219,15.379c-5.644,0-10.218-6.885-10.218-15.379
		C204.208,221.789,208.782,214.905,214.426,214.905 M186.937,205.845c5.643,0,10.218,6.886,10.218,15.381
		c0,8.493-4.575,15.379-10.218,15.379c-5.644,0-10.219-6.886-10.219-15.379C176.718,212.731,181.293,205.845,186.937,205.845"/>
	<polygon style="clip-path:url(#SVGID_00000138575356503411082870000011000861817842501298_);fill:#FFFFFF;" points="
		225.26,101.805 157.333,84.895 157.333,96.189 225.26,113.168 	"/>
	<polygon style="clip-path:url(#SVGID_00000138575356503411082870000011000861817842501298_);fill:#FFFFFF;" points="
		228.799,95.472 229.398,95.286 166.399,79.267 165.296,79.664 	"/>
	<path style="clip-path:url(#SVGID_00000138575356503411082870000011000861817842501298_);fill:#FFFFFF;" d="M157.896,173.207
		l0.248,9.204l8.214,2.46c0.094,0.018,0.187,0.022,0.281,0.049l58.621,16.206v-26.95l-6.567-1.875
		c-0.94,1.546-2.437,3.643-4.74,6.054c-5.864,6.138-12.599,6.57-14.378,6.57c-0.248,0-0.399-0.008-0.439-0.011
		c-0.251-0.016-0.499-0.059-0.741-0.127L157.896,173.207z"/>
	<path style="clip-path:url(#SVGID_00000138575356503411082870000011000861817842501298_);fill:#FFFFFF;" d="M199.867,177.927
		c1.115-0.036,5.242-0.448,9.025-4.408c3.572-3.739,4.623-6.365,4.633-6.391c0.106-0.271,0.25-0.514,0.411-0.741
		c-0.076-0.126-0.144-0.256-0.244-0.369c-0.378-0.424-1.032-1.269-1.733-2.65c0.436-0.047,0.887-0.017,1.333,0.111l5.569,1.59
		c-1.982-5.146-3.043-12.057-3.043-20.378c0-3.667,0.294-17.896,4.614-25.513l-67.305-16.825c-0.003,0-0.005-0.003-0.008-0.003
		c-0.116-0.012-0.232-0.024-0.367-0.051c-2.25,1.535-6.148,12.897-6.148,26.296c0,1.671,0.074,3.224,0.2,4.676
		c-1.732,1.909-2.311,5-2.906,8.28c-0.314,1.73-0.641,3.514-1.126,4.998c-0.009,0.027-0.016,0.057-0.025,0.084
		c-0.509,1.529-2.925,9.392-0.519,14.13c0.152,0.3,0.337,0.568,0.522,0.833L199.867,177.927z M147.491,148.214
		c0.612-1.836,0.975-3.836,1.326-5.771c0.293-1.61,0.636-3.5,1.088-4.734l13.674,4.15c0.822,0.249,1.715,0.059,2.365-0.504
		c0.649-0.563,0.963-1.421,0.832-2.27c-0.007-0.048-0.736-4.818-0.736-9.782c0-2.892,0.56-6.183,1.01-8.363l22.089,5.788
		c-0.523,2.667-1.262,7.076-1.262,10.67c0,4.076,0.472,7.601,0.716,9.155c-0.069,0.335-0.07,0.686,0.006,1.033
		c0.195,0.899,0.869,1.618,1.754,1.872l12.125,3.48c-1.513,2.152-2.862,4.801-3.886,7.706c-0.637,1.177-1.279,3.304-1.879,7.144
		c-0.359,2.299-0.395,4.179-0.213,5.73l-43.354-12.58l-5.788-1.791c-0.213-0.068-0.442-0.194-0.672-0.647
		C145.658,156.475,146.334,151.689,147.491,148.214 M202.857,175.412l-0.078-0.01c-0.293-0.094-0.631-0.272-0.916-0.885
		c-1.273-2.733,0.28-8.933,1.059-11.23c0.084-0.144,0.154-0.298,0.208-0.461c0.002-0.003,0.001-0.004,0.002-0.006
		c0.529-1.587,1.174-3.103,1.89-4.47c0.002,0.009,0.004,0.018,0.006,0.026c1.017,4.788,2.643,7.867,3.918,9.68
		C206.628,173.175,203.854,175.412,202.857,175.412"/>
	<path style="clip-path:url(#SVGID_00000138575356503411082870000011000861817842501298_);fill:#FFFFFF;" d="M229.05,167.925
		c0.736,0.061,1.441,0.355,2.008,0.849c0.763,0.664,1.202,1.627,1.202,2.639v30.063l7.519-1.836c0.275-0.067,0.554-0.1,0.831-0.1
		c0.775,0,1.538,0.259,2.161,0.747c0.845,0.664,1.339,1.679,1.339,2.753v54.958c0,3.542,2.883,6.443,6.492,6.61l7.812-1.643V67.994
		l-7.997-2.672c-3.522,0.256-6.307,3.118-6.307,6.599v23.547c0,1.534-0.998,2.888-2.462,3.342l-9.388,2.916v16.243
		c0,1.008-0.435,1.967-1.193,2.632c-0.701,0.614-1.618,0.928-2.539,0.861c-0.289-0.003-0.648-0.025-1.061-0.133
		c-1.728,1.132-4.649,9.593-4.649,23.362C222.818,158.431,225.869,166.108,229.05,167.925"/>
	<path style="clip-path:url(#SVGID_00000138575356503411082870000011000861817842501298_);fill:#FFFFFF;" d="M65.539,226.423
		l1.952,1.914c-0.518-2.598-0.785-5.264-0.785-7.97c0-10.965,4.352-21.27,12.254-29.016c7.884-7.727,18.361-11.983,29.5-11.983
		c2.733,0,5.426,0.259,8.05,0.76l-1.772-1.737c-6.567-6.438-15.303-9.984-24.6-9.984c-9.296,0-18.033,3.546-24.599,9.984
		c-6.548,6.418-10.154,14.947-10.154,24.015C55.385,211.475,58.991,220.004,65.539,226.423"/>
	<path style="clip-path:url(#SVGID_00000138575356503411082870000011000861817842501298_);fill:#FFFFFF;" d="M127.198,191.73
		c-5.542-3.485-11.99-5.361-18.737-5.361c-9.297,0-18.033,3.545-24.6,9.982c-6.549,6.419-10.155,14.947-10.155,24.016
		c0,6.707,1.977,13.115,5.653,18.597c-1.394-3.898-2.125-8.04-2.125-12.294c0-9.892,3.925-19.188,11.053-26.175
		C98.792,190.198,114.014,187.279,127.198,191.73"/>
	<path style="clip-path:url(#SVGID_00000138575356503411082870000011000861817842501298_);fill:#FFFFFF;" d="M125.19,270.095
		L97.244,242.7c-4.522-4.433-7.013-10.322-7.014-16.581c0-6.261,2.491-12.15,7.014-16.585c4.541-4.452,10.584-6.903,17.016-6.903
		c6.431,0,12.474,2.451,17.015,6.903l27.744,27.195c2.39-0.412,4.832-0.634,7.309-0.634c0.507,0,1.012,0.018,1.517,0.036
		l-31.254-30.638c-11.966-11.729-31.438-11.729-43.403,0c-5.775,5.661-8.955,13.181-8.955,21.177
		c0.001,7.996,3.181,15.515,8.955,21.175l16.213,15.895c0.458,0.448,0.752,0.996,0.911,1.573l14.33,14.048
		c-0.041-0.752-0.067-1.508-0.067-2.268C124.575,274.722,124.791,272.385,125.19,270.095"/>
	<path style="clip-path:url(#SVGID_00000138575356503411082870000011000861817842501298_);fill:#FFFFFF;" d="M143.683,303.026
		c-0.519-2.598-0.786-5.264-0.786-7.971c-0.001-10.965,4.351-21.27,12.254-29.017c7.883-7.727,18.36-11.983,29.5-11.983
		c2.733,0,5.426,0.26,8.051,0.761l-1.773-1.739c-6.567-6.438-15.304-9.983-24.601-9.983c-9.296,0-18.032,3.545-24.598,9.983
		c-6.548,6.418-10.154,14.948-10.154,24.016c-0.001,9.069,3.605,17.598,10.153,24.018L143.683,303.026z"/>
	<path style="clip-path:url(#SVGID_00000138575356503411082870000011000861817842501298_);fill:#FFFFFF;" d="M184.65,261.055
		c-9.296,0-18.033,3.545-24.6,9.983c-6.548,6.42-10.154,14.949-10.154,24.017c0,9.069,3.606,17.598,10.154,24.016
		c6.567,6.438,15.304,9.983,24.599,9.983c9.297,0,18.033-3.545,24.6-9.983c6.548-6.418,10.154-14.947,10.154-24.016
		c0.001-9.068-3.606-17.597-10.154-24.017C202.683,264.6,193.946,261.055,184.65,261.055 M185.128,278.534
		c9.229,0,16.737,7.391,16.737,16.476s-7.508,16.475-16.737,16.475c-9.229,0-16.737-7.39-16.737-16.475
		S175.899,278.534,185.128,278.534"/>
	<path style="clip-path:url(#SVGID_00000138575356503411082870000011000861817842501298_);fill:#FFFFFF;" d="M185.128,304.484
		c5.369,0,9.737-4.25,9.737-9.475s-4.368-9.476-9.737-9.476c-5.369,0-9.737,4.251-9.737,9.476S179.759,304.484,185.128,304.484"/>
</g>
</svg>
