<?xml version="1.0" encoding="iso-8859-1"?>
<!-- Generator: Adobe Illustrator 25.4.1, SVG Export Plug-In . SVG Version: 6.00 Build 0)  -->
<svg version="1.1" id="Calque_1" xmlns="http://www.w3.org/2000/svg" xmlns:xlink="http://www.w3.org/1999/xlink" x="0px" y="0px"
	 viewBox="0 0 368.5 368.5" style="enable-background:new 0 0 368.5 368.5;" xml:space="preserve">
<g>
	<defs>
		<rect id="SVGID_1_" width="368.5" height="368.5"/>
	</defs>
	<clipPath id="SVGID_00000147940569987729356650000006932765544632979862_">
		<use xlink:href="#SVGID_1_"  style="overflow:visible;"/>
	</clipPath>
	<path style="clip-path:url(#SVGID_00000147940569987729356650000006932765544632979862_);fill:#FFFFFF;" d="M272.338,247.967
		c7.114-0.025,12.886-5.833,12.867-12.949l-0.189-60.072c-2.111,0.985-4.278,1.867-6.496,2.642l0.182,57.452
		c0.004,3.527-2.86,6.406-6.383,6.423c-3.532,0-6.408-2.862-6.426-6.38l-0.171-54.353c-2.139,0.312-4.306,0.537-6.503,0.649
		l0.169,53.721c0.025,7.095,5.818,12.867,12.915,12.867v1.499L272.338,247.967z"/>
	<path style="clip-path:url(#SVGID_00000147940569987729356650000006932765544632979862_);fill:#FFFFFF;" d="M160.455,248.32
		c7.114-0.026,12.886-5.834,12.867-12.949l-0.169-53.701c-2.197-0.074-4.366-0.25-6.508-0.525l0.171,54.247
		c0.005,3.528-2.857,6.407-6.38,6.424c-3.533,0-6.41-2.862-6.427-6.381l-0.181-57.184c-2.222-0.731-4.394-1.571-6.512-2.513
		l0.189,59.715c0.025,7.095,5.818,12.867,12.913,12.867v1.498L160.455,248.32z"/>
	<path style="clip-path:url(#SVGID_00000147940569987729356650000006932765544632979862_);fill:#FFFFFF;" d="M108.824,112.263
		c0.119,36.649,30.032,66.467,66.68,66.467l0.209-0.001l80.118-0.253c36.761-0.119,66.578-30.125,66.466-66.888
		c-0.119-36.65-30.031-66.467-66.678-66.467l-0.209,0.001l-80.118,0.252C138.529,45.493,108.712,75.499,108.824,112.263
		 M298.302,154.212c-11.335,11.4-26.425,17.708-42.492,17.761l-80.303,0.253c-15.999-0.001-31.065-6.213-42.421-17.492
		c-11.177-11.116-17.443-25.845-17.732-41.561l3-0.009l3.236-0.01l0.057,18.16c0.848,2.375,1.864,4.685,3.022,6.928l-0.079-25.099
		l8.404-0.026l0.118,37.296c0.676,0.746,1.37,1.479,2.089,2.193c0.301,0.3,0.614,0.58,0.92,0.871l-0.127-40.369l8.405-0.028
		l0.148,47.044c0.985,0.637,1.988,1.238,3.006,1.81l-0.154-48.862l8.406-0.027l0.166,52.762c0.992,0.359,1.992,0.697,3.004,1.001
		l-0.17-53.772l8.404-0.026l0.175,55.639c0.994,0.14,1.995,0.252,3.001,0.341L170.209,113l8.405-0.027l0.177,56.242l3-0.01
		l-0.177-56.241l8.404-0.027l0.178,56.242l3-0.009l-0.178-56.241l8.406-0.028l0.177,56.242l3-0.008l-0.177-56.243l8.405-0.026
		l0.177,56.242l3-0.009l-0.177-56.243l8.404-0.026l0.177,56.242l3-0.01l-0.177-56.242l8.406-0.027l0.176,56.244l3-0.011
		l-0.176-56.241l8.405-0.027L247.222,169l3-0.009l-0.178-56.243l8.404-0.026l0.177,56.173c1.005-0.052,2.005-0.133,2.999-0.236
		l-0.176-55.947l8.405-0.027l0.172,54.459c1.009-0.261,2.006-0.555,2.997-0.87l-0.169-53.597l8.405-0.027l0.158,50.18
		c1.014-0.512,2.013-1.054,2.995-1.628l-0.153-48.561l8.405-0.027l0.135,42.6c1.023-0.878,2.022-1.79,2.991-2.747l-0.126-39.862
		l8.405-0.027l0.093,29.431c1.093-1.748,2.091-3.548,2.983-5.395l-0.076-24.046l5.706-0.017l3-0.01
		C315.583,128.262,309.41,143.03,298.302,154.212 M255.62,51.626c15.992,0,31.054,6.211,42.414,17.491
		c10.908,10.847,17.138,25.135,17.703,40.424l-3,0.01l-5.678,0.017l-0.073-22.908c-0.903-1.842-1.913-3.635-3.016-5.377
		l0.089,28.295l-8.405,0.027l-0.122-38.728c-0.975-0.95-1.98-1.856-3.009-2.728l0.131,41.465l-8.405,0.027L284.1,62.218
		c-0.987-0.569-1.989-1.104-3.006-1.612l0.155,49.044l-8.405,0.027l-0.165-52.462c-0.993-0.309-1.993-0.597-3.003-0.852
		l0.168,53.322l-8.405,0.027L261.266,54.9c-0.995-0.097-1.996-0.164-3-0.21l0.173,55.032l-8.405,0.026l-0.174-55.105l-3,0.011
		l0.174,55.104l-8.405,0.027l-0.174-55.104l-3,0.008l0.174,55.104l-8.405,0.027l-0.174-55.104l-3,0.009l0.174,55.105l-8.405,0.026
		l-0.174-55.104l-3,0.009l0.174,55.105l-8.405,0.026l-0.174-55.104l-3,0.009l0.174,55.104l-8.405,0.028l-0.174-55.104l-3,0.008
		l0.174,55.104l-8.405,0.027l-0.173-55.104l-3,0.009l0.173,55.104L170.199,110l-0.173-54.855c-1.005,0.096-2.005,0.212-2.998,0.359
		l0.171,54.506l-8.404,0.026L158.628,57.4c-1.009,0.312-2.007,0.657-2.996,1.023l0.163,51.622l-8.405,0.027l-0.151-47.725
		c-1.014,0.579-2.014,1.186-2.994,1.828l0.145,45.905l-8.405,0.028l-0.124-39.234c-0.304,0.294-0.616,0.577-0.916,0.878
		c-0.714,0.719-1.403,1.456-2.074,2.205l0.114,36.16l-8.405,0.026l-0.075-23.96c-1.145,2.25-2.146,4.566-2.979,6.947l0.054,17.024
		l-3.207,0.01l-3.001,0.009c0.469-15.292,6.607-29.62,17.445-40.536c11.34-11.4,26.431-17.706,42.496-17.757L255.62,51.626z"/>
	<path style="clip-path:url(#SVGID_00000147940569987729356650000006932765544632979862_);fill:#FFFFFF;" d="M75.943,125.015
		c-2.186,0.603-4.484,0.931-6.859,0.931c-2.705,0-5.313-0.419-7.767-1.193v191.312c0,4.034,3.281,7.315,7.313,7.315
		c4.033,0,7.313-3.281,7.313-7.315V125.015z M68.875,318.822c-1.94,0-3.518-1.578-3.518-3.519c0-1.939,1.578-3.518,3.518-3.518
		c1.94,0,3.518,1.579,3.518,3.518C72.393,317.244,70.815,318.822,68.875,318.822"/>
	<path style="clip-path:url(#SVGID_00000147940569987729356650000006932765544632979862_);fill:#FFFFFF;" d="M69.084,122.946
		c12.617,0,22.882-10.265,22.882-22.882V45.369H46.202v54.695C46.202,112.681,56.467,122.946,69.084,122.946"/>
	<path style="clip-path:url(#SVGID_00000147940569987729356650000006932765544632979862_);fill:#FFFFFF;" d="M103.408,283.121
		c-2.295,2.284-3.601,5.53-3.587,8.914c-0.005,3.371,1.383,6.651,3.809,9.009c2.375,2.321,5.536,3.679,8.903,3.825l150.064,6.508
		l0.321,0.992c1.456,4.511,5.604,7.708,10.323,7.959l36.586,1.897c6.436,0.336,11.764-4.559,12.099-10.872
		c0.269-5.039-2.725-9.612-7.448-11.38l-0.72-0.27l-0.561-2.062c-0.522-1.747-0.991-1.911-1.594-1.948h-0.004
		c-1.145,0-1.694,1.395-1.793,1.674l-0.726,1.79l-7.117-0.37l-0.508-1.861c-0.523-1.75-0.991-1.913-1.594-1.951h-0.004
		c-1.146,0-1.693,1.394-1.792,1.674l-0.774,1.897l-7.042-0.367l-0.537-1.975c-0.522-1.747-0.99-1.91-1.594-1.947h-0.004
		c-1.145,0-1.694,1.393-1.793,1.673l-0.817,2.004l-6.968-0.361l-0.567-2.087c-0.314-1.052-0.645-1.625-1.06-1.823l-0.568-0.271
		l-0.564,0.27c-0.482,0.23-0.941,0.824-1.198,1.55l-0.86,2.105l-0.908,0.083c-4.309,0.385-8.107,3.246-9.674,7.286l-0.389,1.003
		l-149.942-6.502c-1.983-0.082-3.829-0.866-5.196-2.208c-1.388-1.379-2.091-3.037-2.098-4.932c0.018-2,0.644-3.595,1.913-4.897
		c1.321-1.316,3.173-2.091,5.37-2.255l150.108-6.51l0.41,0.945c1.614,3.72,5.107,6.339,9.116,6.835l0.872,0.108l1.252,3.065
		c0.284,0.794,0.742,1.387,1.224,1.617l0.565,0.27l0.566-0.27c0.416-0.199,0.746-0.772,1.071-1.86l0.839-3.077l6.281-0.326
		l1.197,2.928c0.125,0.346,0.674,1.743,1.735,1.743c0.69-0.038,1.16-0.203,1.691-1.986l0.808-2.966l6.357-0.33l1.152,2.821
		c0.125,0.347,0.673,1.742,1.734,1.742c0.691-0.039,1.159-0.203,1.691-1.986l0.778-2.853l6.43-0.334l1.109,2.712
		c0.124,0.347,0.674,1.743,1.737,1.743c0.689-0.039,1.157-0.203,1.689-1.986l0.857-3.147l0.689-0.279
		c4.55-1.84,7.433-6.367,7.173-11.262c-0.235-4.432-2.961-8.155-6.771-9.87l-1.319,4.836c-0.329,1.108-1.179,3.964-4.306,4.153
		c-2.51,0.17-4.154-1.823-4.806-3.665l-1.541-3.763l-1.088,3.993c-0.362,1.211-1.185,3.964-4.307,4.156
		c-0.092,0.005-0.179,0.008-0.267,0.008c-2.389,0-3.911-1.899-4.539-3.676l-1.542-3.764l-1.089,3.994
		c-0.36,1.211-1.181,3.964-4.306,4.155c-0.091,0.007-0.181,0.009-0.27,0.009c-2.385,0-3.907-1.898-4.536-3.676l-1.541-3.762
		l-1.089,3.993c-0.361,1.21-1.182,3.963-4.307,4.155c-0.091,0.006-0.181,0.008-0.27,0.008c-2.384,0-3.906-1.898-4.536-3.674
		l-1.933-4.72c-2.274,1.49-4.007,3.771-4.776,6.52l-0.293,1.047l-150.017,6.504C108.895,279.45,105.68,280.836,103.408,283.121"/>
	<path style="clip-path:url(#SVGID_00000147940569987729356650000006932765544632979862_);fill:#FFFFFF;" d="M273.24,263.277
		c-0.664,0.036-1.352,0.138-2.045,0.305c-0.446,0.321-0.648,0.592-0.726,0.74l1.83,4.471c0.125,0.347,0.673,1.744,1.734,1.744
		l0.085-0.003c0.605-0.037,1.074-0.201,1.606-1.984l1.262-4.629c-0.12-0.172-0.447-0.481-1.081-0.782L273.24,263.277z"/>
	<path style="clip-path:url(#SVGID_00000147940569987729356650000006932765544632979862_);fill:#FFFFFF;" d="M293.955,262.886
		l1.83,4.47c0.125,0.348,0.672,1.744,1.736,1.744l0.085-0.003c0.603-0.036,1.071-0.2,1.604-1.985l1.261-4.626
		c-0.088-0.126-0.293-0.344-0.702-0.585l-5.116,0.265C294.228,262.479,294.032,262.741,293.955,262.886"/>
	<path style="clip-path:url(#SVGID_00000147940569987729356650000006932765544632979862_);fill:#FFFFFF;" d="M305.698,262.168
		l1.829,4.47c0.125,0.347,0.672,1.742,1.734,1.742l0.087-0.002c0.605-0.038,1.074-0.201,1.604-1.982l1.261-4.628
		c-0.052-0.075-0.146-0.18-0.304-0.308c-0.691-0.089-1.383-0.115-2.081-0.08l-3.586,0.185
		C305.922,261.827,305.765,262.042,305.698,262.168"/>
	<path style="clip-path:url(#SVGID_00000147940569987729356650000006932765544632979862_);fill:#FFFFFF;" d="M283.075,262.767
		c-0.516,0.347-0.772,0.661-0.863,0.834l1.829,4.473c0.125,0.348,0.673,1.744,1.734,1.744l0.086-0.003
		c0.605-0.037,1.074-0.201,1.606-1.985l1.26-4.627c-0.1-0.144-0.354-0.404-0.885-0.684L283.075,262.767z"/>
</g>
</svg>
