<?xml version="1.0" encoding="iso-8859-1"?>
<!-- Generator: Adobe Illustrator 25.4.1, SVG Export Plug-In . SVG Version: 6.00 Build 0)  -->
<svg version="1.1" id="Calque_1" xmlns="http://www.w3.org/2000/svg" xmlns:xlink="http://www.w3.org/1999/xlink" x="0px" y="0px"
	 viewBox="0 0 368.5 368.5" style="enable-background:new 0 0 368.5 368.5;" xml:space="preserve">
<g>
	<defs>
		<rect id="SVGID_1_" width="368.5" height="368.5"/>
	</defs>
	<clipPath id="SVGID_00000178921141413672946790000007179722785130583709_">
		<use xlink:href="#SVGID_1_"  style="overflow:visible;"/>
	</clipPath>
	<path style="clip-path:url(#SVGID_00000178921141413672946790000007179722785130583709_);fill:#FFFFFF;" d="M53.836,110.385
		l7.813,7.814c4.859-24.892,25.197-44.401,50.7-48.304l-9.009-9.01c-6.613-6.611-15.404-10.252-24.756-10.252
		c-9.35,0-18.139,3.641-24.746,10.252c-6.613,6.611-10.253,15.402-10.253,24.751S47.225,103.776,53.836,110.385"/>
	<path style="clip-path:url(#SVGID_00000178921141413672946790000007179722785130583709_);fill:#FFFFFF;" d="M103.732,175.853
		l-9.92-9.917c-17.935-17.937-17.937-47.129-0.002-65.073c8.694-8.688,20.248-13.471,32.537-13.471
		c9.084,0,17.756,2.629,25.176,7.501c0.054,0.035,0.111,0.064,0.165,0.1c0.994,0.657,1.944,1.382,2.89,2.121
		c0.284,0.22,0.582,0.413,0.864,0.643c0.761,0.623,1.477,1.313,2.204,1.989c0.41,0.382,0.845,0.724,1.243,1.123l6.262,6.268
		l2.516,2.514c-7.82-17.337-25.449-29.464-45.91-29.464c-27.691,0-50.22,22.201-50.22,49.488
		C71.537,150.703,84.922,168.698,103.732,175.853"/>
	<path style="clip-path:url(#SVGID_00000178921141413672946790000007179722785130583709_);fill:#FFFFFF;" d="M182.009,189.058
		c13.641-13.648,13.641-35.855,0-49.5l-3.188-3.188c-4.605-2.959-9.954-4.711-15.583-4.995c-9.582-0.483-18.984,3.219-25.902,10.139
		c-3.335,3.337-5.909,7.194-7.644,11.462c-2.042,4.973-2.872,10.398-2.405,15.694c0.161,1.818-1.183,3.421-2.999,3.58
		c-0.099,0.009-0.198,0.014-0.295,0.014c-1.692,0-3.135-1.296-3.285-3.011c-0.559-6.346,0.432-12.839,2.87-18.778
		c2.066-5.078,5.126-9.667,9.088-13.632c8.236-8.236,19.498-12.657,30.901-12.064c1.387,0.071,2.754,0.232,4.108,0.447
		l-16.576-16.573c-6.611-6.613-15.402-10.253-24.752-10.253s-18.141,3.639-24.752,10.247c-13.643,13.65-13.643,35.859,0,49.506
		l30.914,30.905c6.611,6.613,15.4,10.252,24.748,10.252C166.607,199.31,175.398,195.669,182.009,189.058"/>
	<path style="clip-path:url(#SVGID_00000178921141413672946790000007179722785130583709_);fill:#FFFFFF;" d="M315.702,166.714
		c-7.323-7.28-17.066-11.288-27.431-11.288c-10.367,0-20.111,4.008-27.435,11.288l-10.52,10.451
		c28.435,3.908,51.145,25.554,56.141,53.155l9.245-9.188c7.318-7.27,11.347-16.932,11.347-27.209
		C327.051,183.647,323.02,173.984,315.702,166.714"/>
	<path style="clip-path:url(#SVGID_00000178921141413672946790000007179722785130583709_);fill:#FFFFFF;" d="M296.493,241.761
		c0-29.904-24.862-54.234-55.421-54.234c-23.492,0-43.603,14.385-51.652,34.622l0.516-0.512l-0.002-0.002l10.906-10.842
		c0.46-0.455,0.957-0.847,1.43-1.282c0.759-0.7,1.507-1.418,2.302-2.066c0.31-0.25,0.639-0.461,0.953-0.704
		c1.017-0.787,2.038-1.563,3.104-2.264c0.071-0.047,0.149-0.084,0.22-0.131c8.021-5.222,17.39-8.044,27.199-8.044
		c13.293,0,25.79,5.146,35.194,14.484c9.412,9.352,14.596,21.787,14.596,35.016c0,13.232-5.184,25.667-14.596,35.02l-7.305,7.259
		l-2.819,2.802h-0.002l-2.232,2.218C280.727,285.824,296.493,265.567,296.493,241.761"/>
	<path style="clip-path:url(#SVGID_00000178921141413672946790000007179722785130583709_);fill:#FFFFFF;" d="M263.485,273.013
		c7.316-7.271,11.345-16.934,11.345-27.21s-4.029-19.939-11.345-27.208c-7.327-7.277-17.07-11.286-27.437-11.286
		c-10.365,0-20.109,4.009-27.438,11.287l-18.967,18.845c1.884-0.352,3.789-0.621,5.73-0.718c12.394-0.604,24.61,4.132,33.543,13.012
		c4.294,4.268,7.62,9.222,9.881,14.721c2.649,6.424,3.724,13.433,3.113,20.267c-0.154,1.715-1.595,3.007-3.285,3.007
		c-0.099,0-0.197-0.004-0.298-0.013c-1.817-0.163-3.157-1.767-2.995-3.583c0.518-5.779-0.396-11.715-2.64-17.163
		c-1.929-4.684-4.765-8.906-8.433-12.553c-7.619-7.573-18.033-11.634-28.559-11.099c-6.512,0.324-12.7,2.393-17.941,5.934
		l-2.933,2.913c-7.318,7.271-11.35,16.933-11.35,27.208c0,10.275,4.032,19.938,11.35,27.207c7.327,7.28,17.068,11.289,27.433,11.289
		c10.365,0,20.108-4.009,27.438-11.287L263.485,273.013z"/>
</g>
</svg>
