<?xml version="1.0" encoding="iso-8859-1"?>
<!-- Generator: Adobe Illustrator 25.4.1, SVG Export Plug-In . SVG Version: 6.00 Build 0)  -->
<svg version="1.1" id="Calque_1" xmlns="http://www.w3.org/2000/svg" xmlns:xlink="http://www.w3.org/1999/xlink" x="0px" y="0px"
	 viewBox="0 0 368.5 368.5" style="enable-background:new 0 0 368.5 368.5;" xml:space="preserve">
<g>
	<path style="fill:#FFFFFF;" d="M142.103,226.455c-8.06,7.125-25.142,11.82-45.872,11.82c-20.732,0-37.813-4.695-45.873-11.821
		v76.559c0,7.741,18.839,16.365,45.873,16.365c27.033,0,45.872-8.624,45.872-16.365V226.455z"/>
	<path style="fill:#FFFFFF;" d="M318.142,86.213l-15.125,20.921v16.442c0.634-0.153,1.284-0.257,1.953-0.257
		c1.01,0,2.005,0.181,2.957,0.537c4.357,1.629,6.577,6.502,4.95,10.86c-0.164,0.433-4.711,12.606-9.644,25.963
		c-0.072,0.193-0.145,0.389-0.216,0.583v2.11c0,4.169,3.393,7.561,7.564,7.561c4.169,0,7.561-3.392,7.561-7.561V86.213z"/>
	<path style="fill:#FFFFFF;" d="M259.003,168.743l-0.423-0.124c-0.07,0.099-0.15,0.209-0.244,0.334
		C258.557,168.882,258.779,168.81,259.003,168.743"/>
	<path style="fill:#FFFFFF;" d="M242.642,178.877c-1.337,0.209-2.718,0.327-4.145,0.327c-4.886,0-8.756-1.237-9.441-1.469
		l-68.505-18.851c-5.175,7.776-8.342,18.143-8.342,29.514c0,21.592,11.573,38.602,30.2,44.394l59.83,19.772
		c-8.507-8.924-13.897-22.033-13.897-36.633C228.342,201.1,233.903,187.807,242.642,178.877"/>
	<path style="fill:#FFFFFF;" d="M294.189,185.427c-1.614,4.49-2.967,8.324-3.788,10.792c-1.209,3.612-2.622,6.708-4.249,9.366
		c1.325,3.113,2.077,6.626,2.077,10.346c0,12.692-8.699,23.017-19.393,23.017s-19.394-10.325-19.394-23.017
		c0-12.692,8.7-23.018,19.394-23.018c1.567,0,3.088,0.228,4.548,0.646c0.332-0.789,0.668-1.676,0.999-2.674
		c1.172-3.512,3.287-9.447,5.777-16.309c-3.559-1.477-7.365-2.291-11.324-2.291c-19.572,0-35.494,19.579-35.494,43.646
		c0,24.065,15.922,43.644,35.494,43.644c19.571,0,35.494-19.579,35.494-43.644C304.33,204.069,300.456,193.302,294.189,185.427"/>
	<path style="fill:#FFFFFF;" d="M308.223,132.893c0.633-1.703-0.272-3.689-2.048-4.355c-0.39-0.145-0.796-0.219-1.205-0.219
		c-1.427,0-2.723,0.899-3.224,2.238l-0.1,0.27c-3.051,8.166-18.476,49.516-22.519,61.636c-1.948,5.87-4.187,8.828-5.722,10.276
		c-2.085,1.907-3.666,2.334-5.409,2.398c-0.751-0.004-1.486-0.091-2.203-0.272c-2.799-0.698-4.894-1.241-6.353-1.628
		c-1.127,1.84-2.004,4.045-2.561,6.441c1.509,0.403,3.877,1.024,7.252,1.869c1.266,0.316,2.536,0.476,3.776,0.476h0.156
		c3.607,0,7.286-1.569,10.092-4.305c3.103-2.984,5.553-7.259,7.502-13.082c2.218-6.66,8.232-23.084,12.884-35.689
		C303.501,145.52,308.18,132.997,308.223,132.893"/>
	<path style="fill:#FFFFFF;" d="M230.46,172.935c0.06,0.017,0.12,0.036,0.18,0.057c0.028,0.01,3.486,1.212,7.857,1.212h0.001
		c2.022,0,3.929-0.256,5.667-0.76c6.568-1.906,10.484-7.927,10.524-7.988c0.025-0.039,0.051-0.078,0.08-0.116l60.08-83.107
		L194.51,49.121l-61.311,84.809c-0.278,0.524-1.926,3.927-0.461,8.45c1.474,4.554,5.778,5.277,5.821,5.284
		c0.093,0.015,0.186,0.034,0.277,0.059L230.46,172.935z"/>
	<path style="fill:#FFFFFF;" d="M106.47,200.978v14.664c0,3.803-4.506,6.67-10.481,6.67s-10.482-2.867-10.482-6.67v-14.62
		c-21.159,1.9-35.149,9.22-35.149,15.888c0,7.741,18.839,16.366,45.873,16.366c27.033,0,45.872-8.625,45.872-16.366
		C142.103,210.191,127.901,202.809,106.47,200.978"/>
	<path style="fill:#FFFFFF;" d="M90.507,215.642c0.177,0.424,2.085,1.67,5.482,1.67c3.396,0,5.304-1.246,5.491-1.741L101.47,50.81
		c-0.177-0.425-2.084-1.671-5.481-1.671c-3.397,0-5.305,1.246-5.492,1.742L90.507,215.642z"/>
</g>
</svg>
