<?xml version="1.0" encoding="iso-8859-1"?>
<!-- Generator: Adobe Illustrator 25.4.1, SVG Export Plug-In . SVG Version: 6.00 Build 0)  -->
<svg version="1.1" id="Calque_1" xmlns="http://www.w3.org/2000/svg" xmlns:xlink="http://www.w3.org/1999/xlink" x="0px" y="0px"
	 viewBox="0 0 368.5 368.5" style="enable-background:new 0 0 368.5 368.5;" xml:space="preserve">
<g>
	<defs>
		<rect id="SVGID_1_" width="368.5" height="368.5"/>
	</defs>
	<clipPath id="SVGID_00000138564436316531706280000016559683147695777158_">
		<use xlink:href="#SVGID_1_"  style="overflow:visible;"/>
	</clipPath>
	<path style="clip-path:url(#SVGID_00000138564436316531706280000016559683147695777158_);fill:#FFFFFF;" d="M265.798,127.968
		l-10.264-10.263c-3.884-3.884-6.022-9.048-6.022-14.541c0-5.493,2.138-10.656,6.022-14.54c3.884-3.883,9.048-6.023,14.541-6.023
		c5.492,0,10.656,2.14,14.541,6.023l10.266,10.265c12.642,12.651,18.763,29.382,18.4,45.996
		c10.991-11.931,10.703-30.516-0.874-42.094L265.71,56.095c-11.879-11.878-31.135-11.877-43.011,0
		c-11.878,11.878-11.878,31.133,0,43.013l46.696,46.696c0.764,0.765,1.56,1.478,2.382,2.144c0.292-1.445,0.448-2.936,0.452-4.468
		C272.21,137.54,269.986,132.168,265.798,127.968 M243.304,75.996c-2.674,2.675-7.012,2.675-9.687,0
		c-2.674-2.675-2.674-7.012,0-9.687c2.675-2.674,7.013-2.674,9.687,0C245.979,68.984,245.979,73.321,243.304,75.996"/>
	<path style="clip-path:url(#SVGID_00000138564436316531706280000016559683147695777158_);fill:#FFFFFF;" d="M102.792,312.407
		c11.608,11.608,30.257,11.866,42.185,0.787c-0.454,0.01-0.905,0.033-1.36,0.033c-16.841,0-32.681-6.56-44.599-18.471
		l-10.267-10.269c-3.884-3.883-6.023-9.048-6.023-14.54c0-5.492,2.139-10.656,6.023-14.54c3.885-3.884,9.049-6.024,14.541-6.024
		c5.492,0,10.656,2.14,14.54,6.025l10.267,10.266c4.198,4.187,9.57,6.411,15.529,6.428c1.455-0.003,2.875-0.144,4.253-0.41
		c-0.646-0.792-1.338-1.558-2.076-2.297l-46.698-46.697c-11.878-11.879-31.134-11.877-43.011,0
		c-11.879,11.879-11.879,31.134-0.001,43.012L102.792,312.407z M67.014,232.913c2.675-2.674,7.012-2.674,9.687,0
		c2.675,2.676,2.675,7.012,0,9.686c-2.675,2.675-7.012,2.675-9.687,0C64.339,239.925,64.339,235.589,67.014,232.913"/>
	<path style="clip-path:url(#SVGID_00000138564436316531706280000016559683147695777158_);fill:#FFFFFF;" d="M270.753,163.957
		L164.087,270.622c-5.459,5.447-12.724,8.458-20.459,8.48c-7.753-0.022-15.018-3.032-20.476-8.474l-10.271-10.271
		c-2.562-2.562-5.967-3.974-9.589-3.974c-3.623,0-7.029,1.412-9.591,3.974c-2.562,2.562-3.973,5.968-3.973,9.59
		c0,3.623,1.411,7.028,3.972,9.59l10.267,10.269c10.596,10.589,24.677,16.421,39.65,16.421s29.056-5.832,39.655-16.422
		l106.663-106.664c21.847-21.862,21.846-57.438-0.003-79.303l-10.266-10.264c-2.562-2.562-5.968-3.974-9.591-3.974
		c-3.623,0-7.029,1.412-9.591,3.974c-2.562,2.561-3.972,5.967-3.972,9.59c0,3.623,1.41,7.029,3.972,9.591l10.267,10.266
		c5.444,5.46,8.454,12.724,8.479,20.458C279.206,151.237,276.196,158.501,270.753,163.957"/>
</g>
</svg>
