<?xml version="1.0" encoding="iso-8859-1"?>
<!-- Generator: Adobe Illustrator 25.4.1, SVG Export Plug-In . SVG Version: 6.00 Build 0)  -->
<svg version="1.1" id="Calque_1" xmlns="http://www.w3.org/2000/svg" xmlns:xlink="http://www.w3.org/1999/xlink" x="0px" y="0px"
	 viewBox="0 0 368.5 368.5" style="enable-background:new 0 0 368.5 368.5;" xml:space="preserve">
<g>
	<defs>
		<rect id="SVGID_1_" width="368.5" height="368.5"/>
	</defs>
	<clipPath id="SVGID_00000125590285700939974390000005432851727716771220_">
		<use xlink:href="#SVGID_1_"  style="overflow:visible;"/>
	</clipPath>
	<path style="clip-path:url(#SVGID_00000125590285700939974390000005432851727716771220_);fill:#FFFFFF;" d="M288.706,259.931
		c6.58,0,11.933-5.354,11.933-11.935v-72.687c0-6.583-5.353-11.939-11.933-11.939h-27.88c-6.58,0-11.933,5.356-11.933,11.939v72.687
		c0,6.581,5.353,11.935,11.933,11.935H288.706z M254.773,247.996v-72.687c0-3.341,2.715-6.059,6.053-6.059h27.88
		c3.337,0,6.053,2.718,6.053,6.059v72.687c0,3.338-2.716,6.054-6.053,6.054h-27.88C257.488,254.05,254.773,251.334,254.773,247.996"
		/>
	<path style="clip-path:url(#SVGID_00000125590285700939974390000005432851727716771220_);fill:#FFFFFF;" d="M215.15,245.668
		v-86.041c0-7.934-6.454-14.39-14.388-14.39h-27.385c-7.933,0-14.388,6.456-14.388,14.39v86.041c0,7.419,5.647,13.544,12.867,14.308
		h-53.147c8.628-0.821,15.4-8.103,15.4-16.942V137.19c0-9.389-7.637-17.027-17.025-17.027H83.4c-9.388,0-17.025,7.638-17.025,17.027
		v105.844c0,8.839,6.773,16.121,15.4,16.942H59.514c-9.371,0-16.994,6.001-16.994,13.374c0,7.369,7.623,13.365,16.994,13.365
		h249.484c9.363,0,16.986-5.996,16.986-13.365c0-7.373-7.623-13.374-16.986-13.374H202.282
		C209.504,259.212,215.15,253.087,215.15,245.668 M164.87,245.668v-3.153c-0.002-0.082-0.013-0.161-0.013-0.243v-64.093
		c0-0.082,0.011-0.161,0.013-0.243v-18.309c0-4.693,3.816-8.51,8.507-8.51h27.385c4.691,0,8.508,3.817,8.508,8.51v86.041
		c0,4.693-3.817,8.51-8.508,8.51h-27.385C168.686,254.178,164.87,250.361,164.87,245.668 M72.255,243.034V137.19
		c0-6.147,5-11.146,11.145-11.146h33.684c6.145,0,11.145,4.999,11.145,11.146v105.844c0,6.144-5,11.144-11.145,11.144H83.4
		C77.255,254.178,72.255,249.178,72.255,243.034"/>
	<path style="clip-path:url(#SVGID_00000125590285700939974390000005432851727716771220_);fill:#FFFFFF;" d="M129.055,97.877
		l-1.656-9.613c-0.257-3.663-3.86-6.475-8.411-6.475h-37.33c-4.553,0-8.155,2.812-8.412,6.475l-1.656,9.613H129.055z"/>
	<path style="clip-path:url(#SVGID_00000125590285700939974390000005432851727716771220_);fill:#FFFFFF;" d="M70.577,103.758
		l-0.306,1.776c-0.038,0.221-0.057,0.443-0.057,0.666c0,3.869,3.702,6.899,8.427,6.899h43.363c4.725,0,8.426-3.03,8.426-6.899
		c0-0.223-0.019-0.445-0.056-0.666l-0.307-1.776H70.577z"/>
	<path style="clip-path:url(#SVGID_00000125590285700939974390000005432851727716771220_);fill:#FFFFFF;" d="M90.613,240.487
		c-0.987,0.871-1.621,2.13-1.621,3.547c0,2.62,2.132,4.753,4.753,4.753s4.753-2.133,4.753-4.753c0-2.621-2.132-4.753-4.753-4.753
		c-0.607,0-1.184,0.124-1.719,0.335c1.521-1.2,2.518-3.038,2.518-5.12v-22.505c0.666,0.356,1.414,0.576,2.22,0.576
		c2.622,0,4.755-2.132,4.755-4.753c0-2.62-2.133-4.752-4.755-4.752c-0.806,0-1.554,0.22-2.22,0.576v-37.78
		c0-3.606-2.937-6.54-6.547-6.54c-3.608,0-6.543,2.934-6.543,6.54v68.638c0,3.608,2.935,6.544,6.543,6.544
		C88.928,241.04,89.81,240.839,90.613,240.487"/>
	<path style="clip-path:url(#SVGID_00000125590285700939974390000005432851727716771220_);fill:#FFFFFF;" d="M113.088,217.255
		c2.621,0,4.755-2.132,4.755-4.753c0-2.62-2.134-4.753-4.755-4.753c-2.621,0-4.754,2.133-4.754,4.753
		C108.334,215.123,110.467,217.255,113.088,217.255"/>
	<path style="clip-path:url(#SVGID_00000125590285700939974390000005432851727716771220_);fill:#FFFFFF;" d="M114.447,234.763
		c-2.622,0-4.756,2.132-4.756,4.753c0,2.62,2.134,4.753,4.756,4.753c2.62,0,4.753-2.133,4.753-4.753
		C119.2,236.895,117.067,234.763,114.447,234.763"/>
	<path style="clip-path:url(#SVGID_00000125590285700939974390000005432851727716771220_);fill:#FFFFFF;" d="M103.104,229.924
		c-2.622,0-4.756,2.132-4.756,4.753c0,2.62,2.134,4.753,4.756,4.753c2.62,0,4.753-2.133,4.753-4.753
		C107.857,232.056,105.724,229.924,103.104,229.924"/>
	<path style="clip-path:url(#SVGID_00000125590285700939974390000005432851727716771220_);fill:#FFFFFF;" d="M113.364,221.173
		c-2.62,0-4.752,2.132-4.752,4.753c0,2.62,2.132,4.753,4.752,4.753c2.621,0,4.755-2.133,4.755-4.753
		C118.119,223.305,115.985,221.173,113.364,221.173"/>
	<path style="clip-path:url(#SVGID_00000125590285700939974390000005432851727716771220_);fill:#FFFFFF;" d="M97.143,220.493
		c0,2.622,2.131,4.755,4.752,4.755c2.621,0,4.754-2.133,4.754-4.755c0-2.62-2.133-4.751-4.754-4.751
		C99.274,215.742,97.143,217.873,97.143,220.493"/>
	<path style="clip-path:url(#SVGID_00000125590285700939974390000005432851727716771220_);fill:#FFFFFF;" d="M255.867,139.288
		l-0.878,5.092h38.534l-0.876-5.09c-0.256-3.028-3.115-5.339-6.718-5.339h-23.343C258.982,133.951,256.123,136.262,255.867,139.288"
		/>
	<path style="clip-path:url(#SVGID_00000125590285700939974390000005432851727716771220_);fill:#FFFFFF;" d="M253.998,150.26
		c-0.015,0.142-0.036,0.283-0.036,0.425c0,3.241,2.959,5.781,6.736,5.781h27.114c3.778,0,6.737-2.54,6.737-5.781
		c0-0.142-0.021-0.283-0.036-0.425H253.998z"/>
	<path style="clip-path:url(#SVGID_00000125590285700939974390000005432851727716771220_);fill:#FFFFFF;" d="M206.311,126.775
		l-0.941-5.457c-0.255-3.082-3.176-5.436-6.858-5.436h-24.499c-3.682,0-6.602,2.354-6.858,5.436l-0.941,5.457H206.311z"/>
	<path style="clip-path:url(#SVGID_00000125590285700939974390000005432851727716771220_);fill:#FFFFFF;" d="M165.206,132.656
		c-0.029,0.197-0.05,0.394-0.05,0.593c0,3.295,3.023,5.875,6.881,5.875h28.452c3.857,0,6.878-2.58,6.878-5.875
		c0-0.199-0.021-0.396-0.05-0.593H165.206z"/>
	<path style="clip-path:url(#SVGID_00000125590285700939974390000005432851727716771220_);fill:#FFFFFF;" d="M170.737,242.272
		c0,3.082,2.572,5.589,5.732,5.589h20.744c3.161,0,5.732-2.507,5.732-5.589v-35.31h-32.208V242.272z"/>
	<path style="clip-path:url(#SVGID_00000125590285700939974390000005432851727716771220_);fill:#FFFFFF;" d="M265.798,241.156
		c2.323,0,4.211-1.889,4.211-4.213v-4.395c0.563,0.356,1.224,0.571,1.938,0.571c2.007,0,3.64-1.633,3.64-3.641
		c0-2.006-1.633-3.639-3.64-3.639c-0.714,0-1.375,0.214-1.938,0.57v-5.22c0.568,0.368,1.242,0.588,1.969,0.588
		c2.007,0,3.639-1.634,3.639-3.644c0-2.006-1.632-3.639-3.639-3.639c-0.727,0-1.401,0.218-1.969,0.587v-14.545
		c0.502,0.26,1.064,0.423,1.668,0.423c2.007,0,3.64-1.633,3.64-3.639s-1.633-3.637-3.64-3.637c-0.604,0-1.166,0.161-1.668,0.424
		v-5.55c0-2.322-1.888-4.211-4.211-4.211c-2.322,0-4.211,1.889-4.211,4.211v48.386C261.587,239.268,263.476,241.156,265.798,241.156
		"/>
	<path style="clip-path:url(#SVGID_00000125590285700939974390000005432851727716771220_);fill:#FFFFFF;" d="M283.486,217.798
		c-2.008,0-3.642,1.633-3.642,3.641c0,2.006,1.634,3.638,3.642,3.638c2.007,0,3.64-1.632,3.64-3.638
		C287.126,219.431,285.493,217.798,283.486,217.798"/>
	<path style="clip-path:url(#SVGID_00000125590285700939974390000005432851727716771220_);fill:#FFFFFF;" d="M284.443,240.626
		c-2.007,0-3.64,1.633-3.64,3.639c0,2.006,1.633,3.639,3.64,3.639c2.007,0,3.64-1.633,3.64-3.639
		C288.083,242.259,286.45,240.626,284.443,240.626"/>
	<path style="clip-path:url(#SVGID_00000125590285700939974390000005432851727716771220_);fill:#FFFFFF;" d="M276.813,235.569
		c-2.008,0-3.642,1.633-3.642,3.639s1.634,3.639,3.642,3.639c2.006,0,3.638-1.633,3.638-3.639S278.819,235.569,276.813,235.569"/>
	<path style="clip-path:url(#SVGID_00000125590285700939974390000005432851727716771220_);fill:#FFFFFF;" d="M280.039,230.902
		c0,2.008,1.634,3.641,3.642,3.641c2.007,0,3.639-1.633,3.639-3.641c0-2.006-1.632-3.637-3.639-3.637
		C281.673,227.265,280.039,228.896,280.039,230.902"/>
	<path style="clip-path:url(#SVGID_00000125590285700939974390000005432851727716771220_);fill:#FFFFFF;" d="M270.661,243
		c-2.007,0-3.64,1.633-3.64,3.641c0,2.006,1.633,3.639,3.64,3.639c2.007,0,3.64-1.633,3.64-3.639
		C274.301,244.633,272.668,243,270.661,243"/>
	<path style="clip-path:url(#SVGID_00000125590285700939974390000005432851727716771220_);fill:#FFFFFF;" d="M271.82,208.941
		c0,2.006,1.633,3.639,3.64,3.639s3.64-1.633,3.64-3.639c0-2.006-1.633-3.639-3.64-3.639S271.82,206.936,271.82,208.941"/>
	<path style="clip-path:url(#SVGID_00000125590285700939974390000005432851727716771220_);fill:#FFFFFF;" d="M281.548,211.102
		c0,2.008,1.634,3.641,3.642,3.641c2.007,0,3.639-1.633,3.639-3.641c0-2.006-1.632-3.637-3.639-3.637
		C283.182,207.465,281.548,209.096,281.548,211.102"/>
	<path style="clip-path:url(#SVGID_00000125590285700939974390000005432851727716771220_);fill:#FFFFFF;" d="M282.487,203.662
		c2.007,0,3.64-1.633,3.64-3.639s-1.633-3.637-3.64-3.637c-2.008,0-3.642,1.631-3.642,3.637S280.478,203.662,282.487,203.662"/>
</g>
</svg>
