<?xml version="1.0" encoding="iso-8859-1"?>
<!-- Generator: Adobe Illustrator 25.4.1, SVG Export Plug-In . SVG Version: 6.00 Build 0)  -->
<svg version="1.1" id="Calque_1" xmlns="http://www.w3.org/2000/svg" xmlns:xlink="http://www.w3.org/1999/xlink" x="0px" y="0px"
	 viewBox="0 0 368.5 368.5" style="enable-background:new 0 0 368.5 368.5;" xml:space="preserve">
<g>
	<defs>
		<rect id="SVGID_1_" width="368.5" height="368.5"/>
	</defs>
	<clipPath id="SVGID_00000126325482750782665410000017398538513741231776_">
		<use xlink:href="#SVGID_1_"  style="overflow:visible;"/>
	</clipPath>
	<path style="clip-path:url(#SVGID_00000126325482750782665410000017398538513741231776_);fill:#FFFFFF;" d="M56.951,135.888
		l55.807,55.808c0.586,0.585,0.586,1.536,0,2.121c-0.293,0.293-0.677,0.439-1.061,0.439c-0.383,0-0.767-0.146-1.06-0.439
		l-53.684-53.685l0.036,76.564l2.296-4.141c0.432-0.777,1.186-1.324,2.061-1.492c0.187-0.035,0.375-0.053,0.563-0.053
		c0.687,0,1.361,0.236,1.902,0.68l7.208,5.908l7.203-5.918c1.105-0.908,2.699-0.91,3.807-0.002l6.896,5.652l6.887-5.661
		c0.029-0.023,0.061-0.038,0.091-0.059l-24.875-24.875c-0.586-0.586-0.586-1.536,0-2.121c0.586-0.586,1.535-0.586,2.121,0
		l26.967,26.966c0.042,0.032,0.089,0.053,0.13,0.086l6.896,5.651l6.887-5.661c1.105-0.908,2.699-0.91,3.806-0.001l7.211,5.908
		l7.201-5.918c0.69-0.567,1.595-0.797,2.473-0.627c0.877,0.169,1.633,0.719,2.062,1.502l2.108,3.842l-0.006-14.821l-56.995-56.994
		c-0.586-0.586-0.586-1.535,0-2.121s1.536-0.586,2.121,0l54.872,54.871l-0.036-75.677l-81.902,0.052L56.951,135.888z"/>
	<path style="clip-path:url(#SVGID_00000126325482750782665410000017398538513741231776_);fill:#FFFFFF;" d="M49.695,50.969
		c-2.685,2.938-4.162,6.859-4.159,11.043l0.03,53.668l4.932-0.003l-0.029-51.518c-0.001-1.657,1.341-3,2.999-3.001h0.001
		c1.656,0,2.999,1.342,3,2.999l0.029,51.516l93.349-0.059l-0.03-53.668c-0.006-8.53-6.248-15.469-13.914-15.469l-76.465,0.049
		C55.772,46.528,52.312,48.106,49.695,50.969 M133.34,67.434c4.583,0,7.912,5.656,7.917,13.449c0.005,7.797-3.317,13.457-7.9,13.461
		h-0.003c-4.581,0-7.909-5.656-7.913-13.449C125.436,73.098,128.757,67.438,133.34,67.434 M70.489,72.262
		c1.953-4.168,4.712-4.791,6.183-4.792c4.583,0,7.912,5.657,7.917,13.45c0.005,7.797-3.317,13.457-7.9,13.461h-0.003
		c-4.581,0-7.909-5.657-7.913-13.451C68.771,77.705,69.38,74.627,70.489,72.262"/>
	<path style="clip-path:url(#SVGID_00000126325482750782665410000017398538513741231776_);fill:#FFFFFF;" d="M135.257,80.887
		c-0.003-4.089-1.213-6.615-1.913-7.323c-0.698,0.708-1.906,3.235-1.903,7.327c0.002,4.089,1.212,6.615,1.912,7.323
		C134.052,87.506,135.26,84.979,135.257,80.887"/>
	<path style="clip-path:url(#SVGID_00000126325482750782665410000017398538513741231776_);fill:#FFFFFF;" d="M78.589,80.924
		c-0.003-4.09-1.213-6.616-1.914-7.324c-0.698,0.71-1.905,3.238-1.902,7.326c0.002,4.09,1.212,6.617,1.912,7.324
		C77.384,87.543,78.592,85.015,78.589,80.924"/>
	<path style="clip-path:url(#SVGID_00000126325482750782665410000017398538513741231776_);fill:#FFFFFF;" d="M241.632,111.606
		h-20.449l7.419,11.451c0.297,0.348,0.476,0.801,0.476,1.295c0,0.067-0.013,0.129-0.019,0.193v9.813h12.573V111.606z"/>
	<polygon style="clip-path:url(#SVGID_00000126325482750782665410000017398538513741231776_);fill:#FFFFFF;" points="
		198.151,100.303 194.276,94.321 194.276,100.303 	"/>
	
		<rect x="182.927" y="111.606" style="clip-path:url(#SVGID_00000126325482750782665410000017398538513741231776_);fill:#FFFFFF;" width="21.941" height="22.752"/>
	<path style="clip-path:url(#SVGID_00000126325482750782665410000017398538513741231776_);fill:#FFFFFF;" d="M214.608,124.944
		l-5.74-8.859v19.187c0,0.062-0.012,0.119-0.018,0.179l5.758,8.889V124.944z"/>
	<path style="clip-path:url(#SVGID_00000126325482750782665410000017398538513741231776_);fill:#FFFFFF;" d="M179.592,104.303
		l1.056,1.477l1.307,1.826h25.099c0.679,0,1.31,0.344,1.679,0.912l8.962,13.834h5.685l-7.554-11.658
		c-0.399-0.616-0.428-1.4-0.079-2.043c0.35-0.645,1.025-1.045,1.758-1.045h22.236l-2.363-3.303H212.28
		c-0.679,0-1.311-0.344-1.679-0.912l-8.963-13.836h-5.684l7.554,11.66c0.398,0.615,0.428,1.399,0.079,2.043
		c-0.35,0.645-1.025,1.045-1.758,1.045H179.592z"/>
	<polygon style="clip-path:url(#SVGID_00000126325482750782665410000017398538513741231776_);fill:#FFFFFF;" points="
		178.927,110.247 177.702,108.535 177.702,128.502 178.927,130.215 	"/>
	
		<rect x="218.608" y="126.352" style="clip-path:url(#SVGID_00000126325482750782665410000017398538513741231776_);fill:#FFFFFF;" width="6.451" height="22.843"/>
	<polygon style="clip-path:url(#SVGID_00000126325482750782665410000017398538513741231776_);fill:#FFFFFF;" points="
		276.742,103.471 268.052,103.471 268.052,120.532 276.742,129.222 	"/>
	<polygon style="clip-path:url(#SVGID_00000126325482750782665410000017398538513741231776_);fill:#FFFFFF;" points="247.599,86.44 
		274.523,86.44 265.761,77.678 238.838,77.678 	"/>
	<polygon style="clip-path:url(#SVGID_00000126325482750782665410000017398538513741231776_);fill:#FFFFFF;" points="
		271.419,45.098 280.182,53.86 287.556,53.86 278.794,45.098 	"/>
	<polygon style="clip-path:url(#SVGID_00000126325482750782665410000017398538513741231776_);fill:#FFFFFF;" points="
		294.383,77.678 294.383,86.44 320.135,86.44 311.374,77.678 	"/>
	<path style="clip-path:url(#SVGID_00000126325482750782665410000017398538513741231776_);fill:#FFFFFF;" d="M290.383,57.86h-9.031
		v30.58c0,0.186-0.034,0.361-0.08,0.532c-0.011,0.036-0.021,0.072-0.034,0.107c-0.114,0.338-0.313,0.631-0.576,0.861
		c-0.028,0.024-0.055,0.047-0.084,0.07c-0.242,0.189-0.524,0.329-0.837,0.391c-0.073,0.015-0.146,0.016-0.22,0.022
		c-0.057,0.005-0.111,0.017-0.169,0.017h-30.58v9.031h30.58c1.105,0,2,0.896,2,2v30.58h9.031v-30.58c0-1.104,0.896-2,2-2h30.581
		V90.44h-30.581c-1.104,0-2-0.895-2-2V57.86z"/>
	<polygon style="clip-path:url(#SVGID_00000126325482750782665410000017398538513741231776_);fill:#FFFFFF;" points="268.661,74.92 
		277.351,83.61 277.351,56.688 268.661,47.996 	"/>
	<polygon style="clip-path:url(#SVGID_00000126325482750782665410000017398538513741231776_);fill:#FFFFFF;" points="
		244.771,89.268 236.081,80.577 236.081,87.953 244.771,96.643 	"/>
	<path style="clip-path:url(#SVGID_00000126325482750782665410000017398538513741231776_);fill:#FFFFFF;" d="M191.908,300.754
		l-0.883,12.145l123.612,8.244c3.367,0.226,6.257-2.346,6.479-5.67c0.223-3.35-2.321-6.258-5.669-6.481v-0.005
		C311.535,308.734,239.477,303.928,191.908,300.754"/>
	<path style="clip-path:url(#SVGID_00000126325482750782665410000017398538513741231776_);fill:#FFFFFF;" d="M109.456,269.949
		c-5.145-7.527-10.241-13.346-15.532-17.695c-6.53-5.366-13.297-8.319-20.113-8.778c-3.822-0.251-7.618,0.52-11.36,2.266
		c-3.27,1.527-6.339,3.723-9.119,6.521c-3.841,3.952-5.746,9.04-5.804,15.535c-0.027,2.95,0.508,5.511,1.114,7.335
		c0.564-1.631,1.266-3.94,2.055-6.991c1.166-4.511,3.212-8.08,6.438-11.231c3.782-3.689,7.813-5.263,13.479-5.263l0.467,0.004
		c7.495,0.111,12.343,4.391,16.667,8.766c3.806,3.851,6.464,8.083,9.541,12.982c1.017,1.62,2.084,3.32,3.258,5.106
		c0.096,0.144,0.202,0.284,0.299,0.428C103.484,275.729,106.373,272.723,109.456,269.949"/>
	<path style="clip-path:url(#SVGID_00000126325482750782665410000017398538513741231776_);fill:#FFFFFF;" d="M128.49,289.802
		c-1.483-0.997-2.932-2.091-4.351-3.241c-3.019,2.734-5.797,5.795-8.187,9.043c1.851,1.525,3.763,2.966,5.734,4.297
		c9.137,6.152,18.566,9.597,28.022,10.242l36.327,2.423l0.883-12.144c-20.845-1.391-35.91-2.396-36.405-2.43
		C143.355,297.532,135.737,294.699,128.49,289.802"/>
	<path style="clip-path:url(#SVGID_00000126325482750782665410000017398538513741231776_);fill:#FFFFFF;" d="M87.178,306.458
		c-4.338,4.362-9.2,8.628-16.69,8.718l-0.368,0.002c-5.797,0-9.726-1.536-13.563-5.299c-3.219-3.163-5.255-6.738-6.408-11.252
		c-0.804-3.149-1.49-5.421-2.032-7.001c-0.612,1.821-1.155,4.384-1.138,7.338c0.04,6.495,1.93,11.587,5.778,15.565
		c2.752,2.789,5.814,4.992,9.084,6.533c3.735,1.756,7.509,2.539,11.354,2.296c6.815-0.438,13.59-3.372,20.136-8.717
		c5.739-4.692,11.25-11.073,16.848-19.506c4.613-6.97,10.946-13.344,17.831-17.946c7.258-4.873,14.884-7.683,22.049-8.124
		c0.497-0.032,15.774-1.007,36.85-2.351l-0.883-12.145c-18.042,1.151-32.083,2.046-36.748,2.345
		c-9.452,0.615-18.891,4.035-28.051,10.162c-8.301,5.571-15.632,12.95-21.198,21.336c-1.179,1.782-2.253,3.48-3.277,5.1
		C93.663,298.398,90.994,302.619,87.178,306.458 M112.438,278.662c1.961,0,3.557,1.596,3.557,3.556c0,1.961-1.596,3.555-3.557,3.555
		c-1.961,0-3.556-1.594-3.556-3.555C108.882,280.258,110.477,278.662,112.438,278.662"/>
	<path style="clip-path:url(#SVGID_00000126325482750782665410000017398538513741231776_);fill:#FFFFFF;" d="M191.9,266.396
		c47.605-3.037,119.296-7.61,123.117-7.847l-0.001-0.005c3.351-0.213,5.904-3.114,5.69-6.463c-0.213-3.329-3.082-5.909-6.464-5.689
		c0,0-73.854,4.71-123.225,7.859L191.9,266.396z"/>
	<path style="clip-path:url(#SVGID_00000126325482750782665410000017398538513741231776_);fill:#FFFFFF;" d="M159.831,172.209
		c1.841,2.009,2.735,5.542,2.393,9.449c-0.469,5.37-3.028,9.589-6.214,10.599c0.349,2.978,0.918,3.711,0.925,3.718l3.339,3.66
		c0.778-4.032,2.412-9.14,5.702-9.14c0.61,0,1.511,0.187,2.332,1.084c2.059,2.246,2.352,8.085,1.94,12.8
		c-0.162,1.844-0.437,3.646-0.806,5.303l10.442,11.443c3.158,3.461,8.83,6.497,12.138,6.497h8.52
		c0.135-0.217,0.29-0.426,0.455-0.631c2.107-7.682,9.076-13.275,16.898-13.275c4.239,0,8.121,1.666,10.931,4.689
		c2.338,2.517,3.698,5.726,3.984,9.217h87.028c0.185-0.325,0.483-0.958,0.826-2.102c-2.613-0.342-4.952-1.533-6.7-3.441
		c-2.028-2.213-2.997-5.119-2.729-8.183c0.496-5.649,5.191-10.343,10.835-11.163c-0.317-1.598-0.662-2.035-0.667-2.041
		l-12.087-13.244c-0.967,0.225-1.964,0.339-2.978,0.339c-0.628,0-1.24-0.058-1.84-0.144c-1.874,0.16-3.826,0.244-5.818,0.244
		c-7.107,0-16.493-1.185-19.555-4.527c-1.019-1.111-1.157-2.219-1.093-2.951c0.424-4.847,10.343-6.632,18.059-7.035
		c-3.148-2.469-7.187-4.33-9.777-4.33h-6.104c-0.693,4.481-7.938,6.832-14.914,6.832c-5.647,0-10.516-1.487-12.708-3.877
		c-0.972-1.061-1.282-2.116-1.335-2.955h-46.365c2.884,0.595,5.165,1.631,6.405,2.984c1.073,1.172,1.216,2.346,1.148,3.125
		c-0.379,4.348-7.677,6.328-14.297,6.328c-5.617,0-10.353-1.362-12.361-3.554c-1.073-1.172-1.217-2.346-1.149-3.125
		c0.264-3.016,3.859-4.891,8.246-5.758H158.5c-0.165,0.289-0.42,0.832-0.716,1.753C158.53,171.08,159.229,171.551,159.831,172.209
		 M303.072,214.688c-0.428,4.871-4.47,8.834-9.012,8.834c-2.167,0-4.166-0.879-5.628-2.474c-1.592-1.738-2.379-4.183-2.158-6.707
		c0.426-4.87,4.468-8.832,9.012-8.832c2.167,0,4.165,0.878,5.627,2.473C302.505,209.719,303.293,212.165,303.072,214.688
		 M289.72,189.798c4.832,0,10.7,0.769,12.678,2.927c0.606,0.662,0.9,1.476,0.828,2.293c-0.392,4.522-10.845,4.873-14.039,4.873
		c-4.833,0-10.701-0.769-12.68-2.927c-0.605-0.661-0.899-1.475-0.827-2.293C276.075,190.149,286.526,189.798,289.72,189.798
		 M266.251,202.542c0.016,0.017,0.03,0.035,0.046,0.052h20.882c1.104,0,2,0.896,2,2c0,1.105-0.896,2-2,2h-19.566
		c0.075,0.77,0.083,1.55,0.014,2.338c-0.596,6.796-6.366,12.323-12.862,12.323c-3.12,0-5.982-1.248-8.057-3.514
		c-2.187-2.387-3.269-5.725-2.969-9.154c0.072-0.814,0.225-1.614,0.444-2.399h-27.857c-1.105,0-2-0.895-2-2c0-1.104,0.895-2,2-2
		h27.468c-0.275-1.152-0.186-2.281,0.3-3.297c0.577-1.206,2.204-3.228,6.62-3.228C256.561,195.663,262.079,198.105,266.251,202.542
		 M233.355,185.401c0.39-4.478,8.004-6.517,14.914-6.517c5.886,0,10.837,1.413,12.921,3.687c1.094,1.193,1.241,2.388,1.172,3.179
		c-0.392,4.477-8.006,6.516-14.914,6.516c-5.887,0-10.839-1.413-12.923-3.687C233.432,187.386,233.285,186.192,233.355,185.401
		 M202.852,193.118c0.338-3.887,6.991-5.627,13.434-5.627c4.261,0,9.589,0.846,11.76,3.217c0.945,1.029,1.07,2.07,1.01,2.761
		c-0.341,3.889-6.993,5.629-13.435,5.629c-4.262,0-9.588-0.844-11.76-3.216C202.916,194.85,202.791,193.809,202.852,193.118
		 M202.148,201.505c1.828,0,3.512,0.738,4.741,2.08c1.313,1.432,1.963,3.437,1.783,5.498c-0.355,4.056-3.636,7.232-7.47,7.232
		c-1.829,0-3.513-0.738-4.742-2.08c-1.313-1.432-1.963-3.437-1.783-5.5C195.026,204.749,198.377,201.505,202.148,201.505
		 M164.624,174.742c0.739-0.822,2.004-0.889,2.824-0.15l9.343,8.397c0.159-0.02,0.286-0.044,0.314-0.05
		c0.136-0.03,0.285-0.049,0.424-0.051l0.272-0.001c6.402,0,14.126,0.963,16.604,3.666c0.857,0.936,0.972,1.883,0.917,2.512
		c-0.191,2.157-2.524,3.742-6.944,4.735l5.591,5.242c0.805,0.756,0.846,2.021,0.091,2.828c-0.394,0.42-0.926,0.631-1.46,0.631
		c-0.49,0-0.982-0.179-1.368-0.541l-5.063-4.749c-1.049,6.268-3.673,12.096-7.675,12.096c-0.804,0-1.995-0.254-3.106-1.465
		c-2.171-2.371-3.181-7.705-2.636-13.921c0.243-2.786,0.789-5.473,1.562-7.78l-9.54-8.575
		C163.953,176.828,163.886,175.563,164.624,174.742"/>
	<path style="clip-path:url(#SVGID_00000126325482750782665410000017398538513741231776_);fill:#FFFFFF;" d="M280.854,194.901
		c1.597,0.495,4.438,0.99,8.332,0.99c4.13,0,7.186-0.56,8.865-1.102c-1.596-0.496-4.438-0.992-8.332-0.992
		C285.589,193.797,282.533,194.358,280.854,194.901"/>
	<path style="clip-path:url(#SVGID_00000126325482750782665410000017398538513741231776_);fill:#FFFFFF;" d="M297.964,210.684
		c-0.492-0.536-1.355-1.176-2.678-1.176c-2.48,0-4.782,2.372-5.027,5.18c-0.124,1.412,0.286,2.744,1.122,3.658
		c0.492,0.536,1.356,1.176,2.679,1.176c2.478,0,4.78-2.373,5.028-5.183C299.21,212.93,298.801,211.598,297.964,210.684"/>
	<path style="clip-path:url(#SVGID_00000126325482750782665410000017398538513741231776_);fill:#FFFFFF;" d="M201.201,212.315
		c1.72,0,3.316-1.64,3.486-3.58c0.082-0.947-0.19-1.84-0.748-2.448c-0.326-0.357-0.903-0.783-1.792-0.783
		c-1.72,0-3.316,1.639-3.486,3.58c-0.083,0.948,0.19,1.84,0.748,2.45C199.735,211.889,200.312,212.315,201.201,212.315"/>
	<path style="clip-path:url(#SVGID_00000126325482750782665410000017398538513741231776_);fill:#FFFFFF;" d="M217.894,217.715
		c-4.413,0-8.58,2.463-11.097,6.154c3.002-1.05,6.616-1.545,9.944-1.545c4.471,0,8.512,0.836,11.33,2.269
		c-0.504-1.28-1.234-2.452-2.177-3.466C223.85,218.927,221.009,217.715,217.894,217.715"/>
	<path style="clip-path:url(#SVGID_00000126325482750782665410000017398538513741231776_);fill:#FFFFFF;" d="M263.267,205.207
		c-3.399-3.576-7.853-5.545-12.553-5.545c-1.765,0-2.784,0.48-3.012,0.955c-0.205,0.428,0.086,1.228,0.739,2.039
		c0.05,0.061,0.106,0.11,0.159,0.162l0.18,0.18c0.559,0.577,0.718,1.433,0.405,2.172c-0.156,0.37-0.416,0.676-0.737,0.889
		c-0.395,0.927-0.638,1.892-0.724,2.877c-0.206,2.349,0.48,4.517,1.933,6.102c1.309,1.429,3.123,2.216,5.107,2.216
		c4.477,0,8.459-3.889,8.879-8.669C263.743,207.421,263.617,206.285,263.267,205.207"/>
	<path style="clip-path:url(#SVGID_00000126325482750782665410000017398538513741231776_);fill:#FFFFFF;" d="M198.143,177.481
		c6.313,0,9.859-1.859,10.29-2.648c-0.435-0.729-3.651-2.36-9.502-2.36c-6.313,0-9.859,1.86-10.29,2.649
		C189.076,175.85,192.292,177.481,198.143,177.481"/>
	<path style="clip-path:url(#SVGID_00000126325482750782665410000017398538513741231776_);fill:#FFFFFF;" d="M298.411,183.887
		c-1.088-1.363-1.603-3.007-1.456-4.681c0.057-0.647,0.209-1.282,0.451-1.892c-8.718,0.284-14.32,2.205-15.306,3.389
		C283.045,181.749,288.445,183.85,298.411,183.887"/>
	<path style="clip-path:url(#SVGID_00000126325482750782665410000017398538513741231776_);fill:#FFFFFF;" d="M178.285,186.888
		c-0.77,2.104-1.312,4.677-1.549,7.381c-0.604,6.893,1.001,10.63,1.777,11.032c0.942-0.249,3.324-4.141,4.005-10.926l-0.443-0.503
		c-0.493-0.559-0.634-1.347-0.365-2.044c0.269-0.696,0.903-1.184,1.645-1.267c4.154-0.461,6.406-1.231,7.432-1.756
		C189.14,187.996,184.828,186.938,178.285,186.888"/>
	<path style="clip-path:url(#SVGID_00000126325482750782665410000017398538513741231776_);fill:#FFFFFF;" d="M237.335,185.772
		c0.253,0.645,3.637,2.494,10.112,2.494c6.966,0,10.693-2.093,10.934-2.889c-0.253-0.643-3.635-2.494-10.113-2.494
		C241.3,182.883,237.575,184.976,237.335,185.772"/>
	<path style="clip-path:url(#SVGID_00000126325482750782665410000017398538513741231776_);fill:#FFFFFF;" d="M207.046,193.401
		c0.94,0.691,3.922,1.697,8.575,1.697c5.126,0,8.291-1.189,9.24-1.91c-0.942-0.691-3.925-1.697-8.575-1.697
		C211.16,191.491,207.994,192.68,207.046,193.401"/>
	<path style="clip-path:url(#SVGID_00000126325482750782665410000017398538513741231776_);fill:#FFFFFF;" d="M265.885,171.461
		c-1.982,0-4.573-0.084-6.992-0.424c1.669,0.498,3.84,0.838,6.404,0.838c2.34,0,4.327-0.269,5.941-0.666
		C268.823,171.438,266.662,171.461,265.885,171.461"/>
	<path style="clip-path:url(#SVGID_00000126325482750782665410000017398538513741231776_);fill:#FFFFFF;" d="M166.263,204.03
		c0.372-4.261-0.009-7.283-0.46-8.777c-0.744,1.429-1.724,4.468-2.137,8.839l2.288,2.508
		C166.082,205.765,166.186,204.904,166.263,204.03"/>
</g>
</svg>
