<?xml version="1.0" encoding="iso-8859-1"?>
<!-- Generator: Adobe Illustrator 25.4.1, SVG Export Plug-In . SVG Version: 6.00 Build 0)  -->
<svg version="1.1" id="Calque_1" xmlns="http://www.w3.org/2000/svg" xmlns:xlink="http://www.w3.org/1999/xlink" x="0px" y="0px"
	 viewBox="0 0 368.5 368.5" style="enable-background:new 0 0 368.5 368.5;" xml:space="preserve">
<g>
	<defs>
		<rect id="SVGID_1_" width="368.5" height="368.5"/>
	</defs>
	<clipPath id="SVGID_00000065041478603104276510000001217081807597370288_">
		<use xlink:href="#SVGID_1_"  style="overflow:visible;"/>
	</clipPath>
	<path style="clip-path:url(#SVGID_00000065041478603104276510000001217081807597370288_);fill:#FFFFFF;" d="M247.804,234.171
		c-6.428,0-12.722-0.526-18.76-1.522v9.748c0,2.564,7.482,6.44,18.76,6.44c11.277,0,18.76-3.876,18.76-6.44v-9.748
		C260.525,233.645,254.232,234.171,247.804,234.171"/>
	<path style="clip-path:url(#SVGID_00000065041478603104276510000001217081807597370288_);fill:#FFFFFF;" d="M182.218,127.241
		c0.084,0.299,0.134,0.608,0.101,0.928l-0.015,0.132c-0.013,0.124-0.031,0.249-0.031,0.374v0.134
		c0,9.417,26.912,19.909,65.53,19.909c38.62,0,65.533-10.492,65.533-19.909v-0.134c0-0.121-0.018-0.241-0.031-0.362l-0.016-0.149
		c-0.032-0.318,0.017-0.626,0.101-0.923V94.005c0-17.308-20.258-31.927-47.808-36.41c-0.441,6.064-6.458,9.146-17.936,9.146
		c-11.447,0-17.464-3.064-17.934-9.094c-27.39,4.543-47.494,19.117-47.494,36.358V127.241z"/>
	<path style="clip-path:url(#SVGID_00000065041478603104276510000001217081807597370288_);fill:#FFFFFF;" d="M313.39,191.338
		v-37.789c-3.263,1.775-7.153,3.423-11.687,4.917c-14.434,4.754-33.576,7.372-53.899,7.372c-20.324,0-39.465-2.618-53.898-7.372
		c-4.535-1.494-8.425-3.142-11.688-4.918v37.79c0,20.861,29.422,37.833,65.586,37.833S313.39,212.199,313.39,191.338"/>
	<path style="clip-path:url(#SVGID_00000065041478603104276510000001217081807597370288_);fill:#FFFFFF;" d="M317.603,132.692
		c-5.299,13.689-38.452,21.026-69.799,21.026s-64.499-7.337-69.798-21.026c-1.59,1.649-2.82,3.616-2.82,5.755v0.148
		c0,10.52,29.823,22.243,72.618,22.243s72.619-11.723,72.619-22.243v-0.148C320.423,136.308,319.192,134.341,317.603,132.692"/>
	<path style="clip-path:url(#SVGID_00000065041478603104276510000001217081807597370288_);fill:#FFFFFF;" d="M234.666,56.875
		c0,4.023,7.059,4.867,12.98,4.867c5.921,0,12.979-0.844,12.979-4.867c0-4.265-5.944-7.867-12.979-7.867
		C240.61,49.008,234.666,52.61,234.666,56.875"/>
	<path style="clip-path:url(#SVGID_00000065041478603104276510000001217081807597370288_);fill:#FFFFFF;" d="M88.673,238.687
		c17.338,0,32.421,9.806,40.017,24.159c-2.155-20.178-19.277-35.948-40.017-35.948c-20.742,0-37.866,15.771-40.019,35.951
		C56.249,248.495,71.334,238.687,88.673,238.687"/>
	<path style="clip-path:url(#SVGID_00000065041478603104276510000001217081807597370288_);fill:#FFFFFF;" d="M128.923,283.937
		c0-22.194-18.056-40.25-40.25-40.25s-40.251,18.056-40.251,40.25c0,22.194,18.057,40.251,40.251,40.251
		S128.923,306.131,128.923,283.937 M88.673,317.883c-18.718,0-33.946-15.228-33.946-33.946c0-18.718,15.228-33.946,33.946-33.946
		c18.717,0,33.945,15.228,33.945,33.946C122.618,302.655,107.39,317.883,88.673,317.883"/>
	<path style="clip-path:url(#SVGID_00000065041478603104276510000001217081807597370288_);fill:#FFFFFF;" d="M117.617,283.937
		c0-8.617-3.789-16.363-9.785-21.67c0.33,0.393,0.323,0.973-0.047,1.343l-4.662,4.663c-0.196,0.195-0.451,0.293-0.707,0.293
		s-0.512-0.098-0.707-0.293c-0.391-0.39-0.391-1.023,0-1.414l4.662-4.663c0.347-0.347,0.875-0.368,1.265-0.099
		c-2.407-2.093-5.161-3.795-8.164-5.008c0.012,0.152-0.001,0.306-0.063,0.456l-2.523,6.092c-0.16,0.385-0.532,0.618-0.924,0.618
		c-0.128,0-0.257-0.025-0.383-0.077c-0.51-0.212-0.752-0.796-0.541-1.307l2.523-6.092c0.051-0.121,0.125-0.225,0.211-0.313
		c-2.667-0.887-5.505-1.393-8.45-1.458c0.006,0.047,0.027,0.089,0.027,0.138v6.595c0,0.552-0.447,1-1,1c-0.552,0-1-0.448-1-1v-6.595
		c0-0.043,0.02-0.08,0.025-0.122c-2.907,0.13-5.703,0.691-8.328,1.619c0.029,0.047,0.069,0.084,0.092,0.137l2.522,6.093
		c0.212,0.51-0.03,1.095-0.541,1.306c-0.125,0.052-0.254,0.077-0.382,0.077c-0.392,0-0.765-0.233-0.924-0.618l-2.523-6.093
		c-0.027-0.066-0.027-0.133-0.039-0.201c-2.696,1.163-5.177,2.725-7.378,4.609c0.166,0.044,0.325,0.114,0.455,0.244l4.663,4.663
		c0.391,0.391,0.391,1.023,0,1.414c-0.098,0.098-0.21,0.171-0.331,0.22l12.463,9.172c0.608-0.24,1.263-0.382,1.954-0.382
		c2.956,0,5.361,2.405,5.361,5.361s-2.405,5.36-5.361,5.36s-5.361-2.404-5.361-5.36c0-0.405,0.053-0.797,0.139-1.177l-13.956-10.269
		c-1.112-0.819-1.35-2.383-0.532-3.496c0.646-0.876,1.753-1.199,2.739-0.9l-3.192-3.192c-0.154-0.154-0.23-0.35-0.262-0.55
		c-5.495,5.272-8.926,12.678-8.926,20.876c0,15.961,12.985,28.946,28.946,28.946S117.617,299.898,117.617,283.937 M106.344,273.095
		l6.092-2.523c0.512-0.212,1.096,0.032,1.307,0.541c0.211,0.511-0.031,1.096-0.541,1.307l-6.093,2.523
		c-0.125,0.052-0.255,0.077-0.382,0.077c-0.393,0-0.765-0.233-0.925-0.618C105.591,273.892,105.833,273.307,106.344,273.095
		 M108.242,280.632h6.594c0.552,0,1,0.448,1,1s-0.448,1-1,1h-6.594c-0.552,0-1-0.448-1-1S107.69,280.632,108.242,280.632
		 M62.955,271.113c0.212-0.509,0.795-0.753,1.307-0.541l6.092,2.523c0.51,0.212,0.752,0.797,0.541,1.307
		c-0.16,0.385-0.532,0.618-0.925,0.618c-0.127,0-0.256-0.025-0.382-0.077l-6.092-2.523
		C62.986,272.209,62.744,271.624,62.955,271.113 M61.863,280.632h6.595c0.552,0,1,0.448,1,1s-0.448,1-1,1h-6.595
		c-0.552,0-1-0.448-1-1S61.311,280.632,61.863,280.632 M64.262,292.691c-0.126,0.053-0.255,0.077-0.382,0.077
		c-0.393,0-0.765-0.233-0.925-0.618c-0.211-0.51,0.031-1.095,0.541-1.307l6.092-2.522c0.511-0.212,1.095,0.031,1.307,0.541
		c0.211,0.511-0.031,1.095-0.541,1.307L64.262,292.691z M74.991,296.404l-4.663,4.664c-0.195,0.195-0.451,0.293-0.707,0.293
		s-0.512-0.098-0.707-0.293c-0.391-0.391-0.391-1.023,0-1.414l4.663-4.664c0.391-0.391,1.023-0.391,1.414,0
		C75.382,295.38,75.382,296.013,74.991,296.404 M81.66,300.393l-2.522,6.092c-0.16,0.385-0.532,0.618-0.925,0.618
		c-0.127,0-0.257-0.025-0.382-0.077c-0.51-0.212-0.753-0.796-0.541-1.307l2.523-6.091c0.211-0.51,0.795-0.752,1.306-0.541
		S81.872,299.882,81.66,300.393 M89.349,308.119c0,0.552-0.447,1-1,1c-0.552,0-1-0.448-1-1v-6.595c0-0.552,0.448-1,1-1
		c0.553,0,1,0.448,1,1V308.119z M98.867,307.026c-0.125,0.052-0.254,0.077-0.382,0.077c-0.392,0-0.765-0.233-0.924-0.618
		l-2.523-6.092c-0.212-0.511,0.031-1.095,0.541-1.306c0.512-0.211,1.095,0.031,1.307,0.541l2.522,6.091
		C99.62,306.23,99.378,306.814,98.867,307.026 M107.785,301.068c-0.195,0.195-0.451,0.293-0.707,0.293
		c-0.256,0-0.512-0.098-0.707-0.293l-4.662-4.663c-0.391-0.391-0.391-1.025,0-1.414c0.39-0.391,1.023-0.391,1.414,0l4.662,4.663
		C108.176,300.045,108.176,300.677,107.785,301.068 M113.743,292.15c-0.16,0.385-0.532,0.618-0.924,0.618
		c-0.128,0-0.257-0.024-0.383-0.077l-6.091-2.522c-0.511-0.212-0.753-0.796-0.541-1.307c0.211-0.51,0.794-0.753,1.306-0.541
		l6.092,2.522C113.712,291.055,113.954,291.64,113.743,292.15"/>
	<path style="clip-path:url(#SVGID_00000065041478603104276510000001217081807597370288_);fill:#FFFFFF;" d="M87.156,157.171
		c-4.144,0-8.066-0.336-11.671-0.955v7.558c0,1.144,4.09,3.943,11.672,3.943c7.583,0,11.674-2.799,11.674-3.943v-7.559
		C95.224,156.835,91.301,157.171,87.156,157.171"/>
	<path style="clip-path:url(#SVGID_00000065041478603104276510000001217081807597370288_);fill:#FFFFFF;" d="M115.838,140.484
		V100.85c-7.952,2.397-18.344,3.626-28.681,3.626s-20.729-1.229-28.681-3.626v39.634c0,5.527,11.779,11.686,28.68,11.686
		C104.059,152.17,115.838,146.011,115.838,140.484"/>
	<path style="clip-path:url(#SVGID_00000065041478603104276510000001217081807597370288_);fill:#FFFFFF;" d="M91.382,59.436
		c-1.375-0.045-2.783-0.068-4.225-0.068c-23.037,0-37.737,5.954-37.737,10.054v20c0,4.1,14.7,10.054,37.737,10.054
		c23.036,0,37.737-5.954,37.737-10.054v-20c0-2.49-5.431-5.663-14.852-7.771v-5.119v-2.891c0-5.144-4.186-9.329-9.33-9.329
		c-5.144,0-9.33,4.185-9.33,9.329v0.796V59.436z M100.712,48.312c2.939,0,5.33,2.391,5.33,5.329V64.95c0,0.727,0,2.938-5.33,2.938
		c-3.537,0-5.33-0.988-5.33-2.938V53.641C95.382,50.703,97.773,48.312,100.712,48.312 M119.174,72.936
		c0.457,1.303-0.23,2.73-1.532,3.187c-7.89,2.766-19.152,4.352-30.899,4.352c-12.697,0-24.548-1.806-32.515-4.954
		c-1.284-0.508-1.914-1.96-1.407-3.245c0.509-1.284,1.962-1.914,3.245-1.406c7.404,2.927,18.586,4.605,30.677,4.605
		c11.206,0,21.865-1.484,29.244-4.071C117.29,70.949,118.717,71.633,119.174,72.936"/>
	<polygon style="clip-path:url(#SVGID_00000065041478603104276510000001217081807597370288_);fill:#FFFFFF;" points="
		93.709,203.029 92.593,204.145 94.825,204.145 	"/>
	<polygon style="clip-path:url(#SVGID_00000065041478603104276510000001217081807597370288_);fill:#FFFFFF;" points="
		101.749,202.99 100.594,204.145 102.904,204.145 	"/>
	<polygon style="clip-path:url(#SVGID_00000065041478603104276510000001217081807597370288_);fill:#FFFFFF;" points="
		93.488,191.901 96.227,189.161 96.211,189.145 90.732,189.145 	"/>
	
		<rect x="111.873" y="191.767" transform="matrix(0.7071 -0.7071 0.7071 0.7071 -103.582 137.1212)" style="clip-path:url(#SVGID_00000065041478603104276510000001217081807597370288_);fill:#FFFFFF;" width="3.713" height="3.657"/>
	
		<rect x="108.113" y="195.69" transform="matrix(0.7071 -0.7071 0.7071 0.7071 -107.505 135.4954)" style="clip-path:url(#SVGID_00000065041478603104276510000001217081807597370288_);fill:#FFFFFF;" width="3.384" height="3.657"/>
	<polygon style="clip-path:url(#SVGID_00000065041478603104276510000001217081807597370288_);fill:#FFFFFF;" points="
		107.593,189.145 107.123,189.615 109.709,192.201 112.334,189.576 111.903,189.145 	"/>
	<polygon style="clip-path:url(#SVGID_00000065041478603104276510000001217081807597370288_);fill:#FFFFFF;" points="
		109.902,202.836 108.593,204.145 111.21,204.145 	"/>
	<polygon style="clip-path:url(#SVGID_00000065041478603104276510000001217081807597370288_);fill:#FFFFFF;" points="
		117.71,203.029 116.594,204.144 118.825,204.144 	"/>
	
		<rect x="112.113" y="199.69" transform="matrix(0.7071 -0.7071 0.7071 0.7071 -109.1619 139.4954)" style="clip-path:url(#SVGID_00000065041478603104276510000001217081807597370288_);fill:#FFFFFF;" width="3.384" height="3.657"/>
	<polygon style="clip-path:url(#SVGID_00000065041478603104276510000001217081807597370288_);fill:#FFFFFF;" points="
		89.882,195.506 92.073,193.315 89.882,191.124 	"/>
	
		<rect x="99.888" y="195.67" transform="matrix(0.7071 -0.7071 0.7071 0.7071 -109.8285 129.8468)" style="clip-path:url(#SVGID_00000065041478603104276510000001217081807597370288_);fill:#FFFFFF;" width="3.874" height="3.657"/>
	<polygon style="clip-path:url(#SVGID_00000065041478603104276510000001217081807597370288_);fill:#FFFFFF;" points="
		105.765,204.145 108.488,201.422 105.902,198.836 103.162,201.576 105.731,204.145 	"/>
	<polygon style="clip-path:url(#SVGID_00000065041478603104276510000001217081807597370288_);fill:#FFFFFF;" points="97.749,198.99 
		95.124,201.615 97.653,204.145 97.766,204.145 100.335,201.576 	"/>
	<polygon style="clip-path:url(#SVGID_00000065041478603104276510000001217081807597370288_);fill:#FFFFFF;" points="
		104.295,189.615 103.825,189.145 99.072,189.145 99.056,189.161 101.903,192.008 	"/>
	<path style="clip-path:url(#SVGID_00000065041478603104276510000001217081807597370288_);fill:#FFFFFF;" d="M171.74,303.011
		c3.549,4.899,8.505,8.845,14.327,11.404c6.255,2.77,13.8,4.172,22.432,4.172l24.454-0.001l-3.208-3.207
		c-0.391-0.389-0.391-1.023,0-1.414c0.39-0.39,1.023-0.39,1.414,0l4.623,4.621h10.078l2.499-2.499l-1.258-1.258
		c-0.39-0.39-0.39-1.023,0-1.414c0.391-0.39,1.024-0.39,1.414,0l1.258,1.258l2.587-2.586l-2.625-2.626l-7.391,7.39
		c-0.195,0.195-0.451,0.293-0.707,0.293c-0.255,0-0.511-0.098-0.707-0.293c-0.39-0.391-0.39-1.024,0-1.414l7.39-7.39l-1.497-1.497
		c-0.39-0.391-0.39-1.023,0-1.414c0.391-0.391,1.024-0.391,1.414,0l1.498,1.497l2.585-2.586l-0.461-0.462h-4.556l-7.701,7.701
		c-0.195,0.196-0.451,0.293-0.707,0.293s-0.512-0.097-0.707-0.293c-0.391-0.39-0.391-1.023,0-1.414l6.287-6.287h-5.401l-6.549,6.551
		c-0.196,0.195-0.452,0.293-0.707,0.293c-0.256,0-0.512-0.098-0.707-0.293c-0.391-0.391-0.391-1.023,0-1.414l5.135-5.137h-27.747
		c-6.541,0-12.043-0.969-16.35-2.882c-5.242-2.405-8.34-5.54-10.722-10.835c-2.299-5.279-2.761-11.671-2.745-16.106v-32.388
		c0.049-15.616-5.082-29.224-14.448-38.328c-8.217-8.04-19.468-12.721-32.765-13.701l4.904,4.904c0.391,0.391,0.391,1.024,0,1.414
		c-0.195,0.196-0.451,0.293-0.707,0.293s-0.511-0.097-0.707-0.293l-6.473-6.473c-0.782-0.025-1.565-0.046-2.359-0.046h-3.087
		l6.255,6.256c0.391,0.391,0.391,1.024,0,1.414c-0.195,0.196-0.451,0.293-0.707,0.293s-0.512-0.097-0.707-0.293l-7.669-7.67h-4.618
		l-0.431,0.431l2.586,2.586l1.497-1.497c0.39-0.39,1.023-0.39,1.414,0c0.391,0.391,0.391,1.024,0,1.414l-1.497,1.497l7.39,7.39
		c0.391,0.391,0.391,1.024,0,1.414c-0.195,0.196-0.451,0.293-0.707,0.293c-0.256,0-0.512-0.097-0.707-0.293l-7.39-7.389
		l-2.625,2.625l2.586,2.586l1.258-1.257c0.391-0.391,1.023-0.391,1.414,0c0.391,0.39,0.391,1.023,0,1.414l-1.258,1.257l2.529,2.529
		h4.298c1.885,0.006,3.699,0.101,5.454,0.266l4.919-4.918c0.391-0.39,1.024-0.39,1.415,0c0.39,0.391,0.39,1.024,0,1.415
		l-3.803,3.801c8.176,1.177,14.82,4.206,19.811,9.062c6.543,6.441,9.882,15.721,9.934,27.593v32.407
		C163.719,281.561,164.597,293.083,171.74,303.011"/>
	
		<rect x="95.758" y="191.355" transform="matrix(0.707 -0.7072 0.7072 0.707 -108.13 125.7543)" style="clip-path:url(#SVGID_00000065041478603104276510000001217081807597370288_);fill:#FFFFFF;" width="3.875" height="4.026"/>
	
		<rect x="104.114" y="191.69" transform="matrix(0.7071 -0.7071 0.7071 0.7071 -105.8484 131.4962)" style="clip-path:url(#SVGID_00000065041478603104276510000001217081807597370288_);fill:#FFFFFF;" width="3.384" height="3.657"/>
	<polygon style="clip-path:url(#SVGID_00000065041478603104276510000001217081807597370288_);fill:#FFFFFF;" points="
		92.295,201.615 89.882,199.202 89.882,204.028 	"/>
	
		<rect x="91.742" y="195.452" transform="matrix(0.7071 -0.7071 0.7071 0.7071 -112.2143 124.0202)" style="clip-path:url(#SVGID_00000065041478603104276510000001217081807597370288_);fill:#FFFFFF;" width="3.713" height="4.026"/>
	<polygon style="clip-path:url(#SVGID_00000065041478603104276510000001217081807597370288_);fill:#FFFFFF;" points="
		278.034,313.24 275.187,316.088 277.687,318.588 278.076,318.588 278.076,313.283 	"/>
	
		<rect x="251.848" y="314.298" transform="matrix(0.7071 -0.7071 0.7071 0.7071 -149.1389 271.9277)" style="clip-path:url(#SVGID_00000065041478603104276510000001217081807597370288_);fill:#FFFFFF;" width="3.657" height="3.384"/>
	
		<rect x="267.774" y="305.903" transform="matrix(0.7071 -0.7071 0.7071 0.7071 -138.6572 280.932)" style="clip-path:url(#SVGID_00000065041478603104276510000001217081807597370288_);fill:#FFFFFF;" width="4.026" height="3.875"/>
	
		<rect x="255.848" y="310.298" transform="matrix(0.7071 -0.7071 0.7071 0.7071 -145.1391 273.5851)" style="clip-path:url(#SVGID_00000065041478603104276510000001217081807597370288_);fill:#FFFFFF;" width="3.657" height="3.384"/>
	<polygon style="clip-path:url(#SVGID_00000065041478603104276510000001217081807597370288_);fill:#FFFFFF;" points="
		261.686,318.586 261.781,318.586 264.32,316.048 261.58,313.308 258.994,315.894 	"/>
	
		<rect x="251.925" y="306.211" transform="matrix(0.7071 -0.7071 0.7071 0.7071 -143.5138 269.6618)" style="clip-path:url(#SVGID_00000065041478603104276510000001217081807597370288_);fill:#FFFFFF;" width="3.657" height="3.713"/>
	<polygon style="clip-path:url(#SVGID_00000065041478603104276510000001217081807597370288_);fill:#FFFFFF;" points="
		269.734,313.462 267.148,316.048 269.687,318.586 269.859,318.586 272.359,316.087 	"/>
	
		<rect x="271.871" y="310.081" transform="matrix(0.707 -0.7072 0.7072 0.707 -140.3587 285.1034)" style="clip-path:url(#SVGID_00000065041478603104276510000001217081807597370288_);fill:#FFFFFF;" width="4.027" height="3.712"/>
	
		<rect x="263.828" y="310.034" transform="matrix(0.7071 -0.7071 0.7071 0.7071 -142.7877 279.2198)" style="clip-path:url(#SVGID_00000065041478603104276510000001217081807597370288_);fill:#FFFFFF;" width="3.657" height="3.875"/>
	<polygon style="clip-path:url(#SVGID_00000065041478603104276510000001217081807597370288_);fill:#FFFFFF;" points="
		249.773,317.501 248.688,318.586 250.858,318.585 	"/>
	<polygon style="clip-path:url(#SVGID_00000065041478603104276510000001217081807597370288_);fill:#FFFFFF;" points="
		271.255,303.633 273.995,306.372 276.781,303.586 271.302,303.586 	"/>
	<polygon style="clip-path:url(#SVGID_00000065041478603104276510000001217081807597370288_);fill:#FFFFFF;" points="
		273.773,317.501 272.687,318.586 274.859,318.586 	"/>
	<polygon style="clip-path:url(#SVGID_00000065041478603104276510000001217081807597370288_);fill:#FFFFFF;" points="
		265.734,317.462 264.609,318.586 266.859,318.586 	"/>
	<polygon style="clip-path:url(#SVGID_00000065041478603104276510000001217081807597370288_);fill:#FFFFFF;" points="
		257.58,317.308 256.302,318.585 258.858,318.586 	"/>
	<polygon style="clip-path:url(#SVGID_00000065041478603104276510000001217081807597370288_);fill:#FFFFFF;" points="
		260.359,304.087 259.858,303.585 255.61,303.585 255.148,304.047 257.773,306.673 	"/>
	
		<rect x="259.848" y="306.299" transform="matrix(0.7071 -0.7071 0.7071 0.7071 -141.1389 275.2395)" style="clip-path:url(#SVGID_00000065041478603104276510000001217081807597370288_);fill:#FFFFFF;" width="3.657" height="3.384"/>
	<polygon style="clip-path:url(#SVGID_00000065041478603104276510000001217081807597370288_);fill:#FFFFFF;" points="265.58,306.48 
		268.427,303.633 268.38,303.585 263.689,303.585 263.187,304.087 	"/>
	<polygon style="clip-path:url(#SVGID_00000065041478603104276510000001217081807597370288_);fill:#FFFFFF;" points="
		278.034,310.412 278.076,310.37 278.076,305.119 275.409,307.787 	"/>
	
		<rect x="70.91" y="186.338" style="clip-path:url(#SVGID_00000065041478603104276510000001217081807597370288_);fill:#FFFFFF;" width="13.973" height="21.51"/>
	<path style="clip-path:url(#SVGID_00000065041478603104276510000001217081807597370288_);fill:#FFFFFF;" d="M63.873,209.653
		c0.428,0,0.776-0.348,0.776-0.776v-3.04H48.077v3.04c0,0.428,0.349,0.776,0.777,0.776H63.873z"/>
	<path style="clip-path:url(#SVGID_00000065041478603104276510000001217081807597370288_);fill:#FFFFFF;" d="M48.854,184.46
		c-0.428,0-0.777,0.348-0.777,0.776v2.601h16.572v-2.601c0-0.428-0.348-0.776-0.776-0.776H48.854z"/>
	
		<rect x="48.077" y="192.838" style="clip-path:url(#SVGID_00000065041478603104276510000001217081807597370288_);fill:#FFFFFF;" width="16.572" height="8"/>
	
		<rect x="283.076" y="300.337" style="clip-path:url(#SVGID_00000065041478603104276510000001217081807597370288_);fill:#FFFFFF;" width="13.973" height="21.511"/>
	<path style="clip-path:url(#SVGID_00000065041478603104276510000001217081807597370288_);fill:#FFFFFF;" d="M319.105,323.654
		c0.428,0,0.777-0.349,0.777-0.776v-3.041H303.31v3.041c0,0.427,0.348,0.776,0.776,0.776H319.105z"/>
	
		<rect x="303.31" y="306.837" style="clip-path:url(#SVGID_00000065041478603104276510000001217081807597370288_);fill:#FFFFFF;" width="16.572" height="8"/>
	<path style="clip-path:url(#SVGID_00000065041478603104276510000001217081807597370288_);fill:#FFFFFF;" d="M319.105,298.46
		h-15.019c-0.428,0-0.776,0.348-0.776,0.775v2.602h16.572v-2.602C319.882,298.808,319.533,298.46,319.105,298.46"/>
</g>
</svg>
