<?xml version="1.0" encoding="iso-8859-1"?>
<!-- Generator: Adobe Illustrator 25.4.1, SVG Export Plug-In . SVG Version: 6.00 Build 0)  -->
<svg version="1.1" id="Calque_1" xmlns="http://www.w3.org/2000/svg" xmlns:xlink="http://www.w3.org/1999/xlink" x="0px" y="0px"
	 viewBox="0 0 368.5 368.5" style="enable-background:new 0 0 368.5 368.5;" xml:space="preserve">
<rect x="227.46" y="47.981" style="fill:#FFFFFF;" width="28.924" height="41.331"/>
<g>
	<defs>
		<rect id="SVGID_1_" width="368.5" height="368.5"/>
	</defs>
	<clipPath id="SVGID_00000183945454867558822650000012883370667132984204_">
		<use xlink:href="#SVGID_1_"  style="overflow:visible;"/>
	</clipPath>
	<path style="clip-path:url(#SVGID_00000183945454867558822650000012883370667132984204_);fill:#FFFFFF;" d="M295.97,276.825v43.698
		h22.996c4.459,0,8.084-3.797,8.084-8.464v-35.234H295.97z"/>
	<path style="clip-path:url(#SVGID_00000183945454867558822650000012883370667132984204_);fill:#FFFFFF;" d="M199.87,320.523h22.257
		v-43.698h-6.428c-7.628,0-13.834-6.206-13.834-13.831c0-7.628,6.206-13.835,13.834-13.835h6.428V116.977h-6.428
		c-7.628,0-13.834-6.206-13.834-13.831c0-7.628,6.206-13.834,13.834-13.834h6.428V47.981H199.87
		c-4.456,0.003-8.084,3.802-8.084,8.467v255.611C191.786,316.726,195.412,320.523,199.87,320.523"/>
	<path style="clip-path:url(#SVGID_00000183945454867558822650000012883370667132984204_);fill:#FFFFFF;" d="M295.97,47.981v41.331
		h31.08V56.448c0-4.665-3.628-8.464-8.086-8.467H295.97z"/>
	
		<rect x="295.97" y="116.977" style="clip-path:url(#SVGID_00000183945454867558822650000012883370667132984204_);fill:#FFFFFF;" width="31.08" height="132.182"/>
	
		<rect x="261.718" y="47.981" style="clip-path:url(#SVGID_00000183945454867558822650000012883370667132984204_);fill:#FFFFFF;" width="28.918" height="41.331"/>
	
		<rect x="227.46" y="276.825" style="clip-path:url(#SVGID_00000183945454867558822650000012883370667132984204_);fill:#FFFFFF;" width="28.924" height="43.698"/>
	
		<rect x="227.46" y="116.977" style="clip-path:url(#SVGID_00000183945454867558822650000012883370667132984204_);fill:#FFFFFF;" width="28.924" height="132.182"/>
	
		<rect x="261.718" y="116.977" style="clip-path:url(#SVGID_00000183945454867558822650000012883370667132984204_);fill:#FFFFFF;" width="28.918" height="132.182"/>
	
		<rect x="261.718" y="276.825" style="clip-path:url(#SVGID_00000183945454867558822650000012883370667132984204_);fill:#FFFFFF;" width="28.918" height="43.698"/>
	<path style="clip-path:url(#SVGID_00000183945454867558822650000012883370667132984204_);fill:#FFFFFF;" d="M300.686,267.616
		c2.68,0,4.854-2.175,4.854-4.857c0-2.677-2.174-4.852-4.854-4.852c-2.682,0-4.857,2.175-4.857,4.852
		C295.829,265.441,298.004,267.616,300.686,267.616"/>
	<path style="clip-path:url(#SVGID_00000183945454867558822650000012883370667132984204_);fill:#FFFFFF;" d="M219.481,257.907
		c-2.68,0-4.854,2.175-4.854,4.852c0,2.682,2.174,4.857,4.854,4.857c2.685,0,4.852-2.175,4.852-4.857
		C224.333,260.082,222.166,257.907,219.481,257.907"/>
	<path style="clip-path:url(#SVGID_00000183945454867558822650000012883370667132984204_);fill:#FFFFFF;" d="M300.686,107.768
		c2.68,0,4.854-2.175,4.854-4.855c0-2.682-2.174-4.857-4.854-4.857c-2.682,0-4.857,2.175-4.857,4.857
		C295.829,105.593,298.004,107.768,300.686,107.768"/>
	<path style="clip-path:url(#SVGID_00000183945454867558822650000012883370667132984204_);fill:#FFFFFF;" d="M219.481,98.057
		c-2.68,0-4.854,2.175-4.854,4.857c0,2.68,2.174,4.855,4.854,4.855c2.685,0,4.852-2.175,4.852-4.855
		C224.333,100.232,222.166,98.057,219.481,98.057"/>
	
		<rect x="79.993" y="276.825" style="clip-path:url(#SVGID_00000183945454867558822650000012883370667132984204_);fill:#FFFFFF;" width="28.924" height="43.698"/>
	
		<rect x="43.585" y="116.977" style="clip-path:url(#SVGID_00000183945454867558822650000012883370667132984204_);fill:#FFFFFF;" width="31.075" height="132.182"/>
	
		<rect x="114.251" y="276.825" style="clip-path:url(#SVGID_00000183945454867558822650000012883370667132984204_);fill:#FFFFFF;" width="28.913" height="43.698"/>
	
		<rect x="114.251" y="47.981" style="clip-path:url(#SVGID_00000183945454867558822650000012883370667132984204_);fill:#FFFFFF;" width="28.913" height="41.331"/>
	
		<rect x="79.994" y="47.981" style="clip-path:url(#SVGID_00000183945454867558822650000012883370667132984204_);fill:#FFFFFF;" width="28.924" height="41.331"/>
	<path style="clip-path:url(#SVGID_00000183945454867558822650000012883370667132984204_);fill:#FFFFFF;" d="M148.498,47.981v41.331
		h6.435c7.626,0,13.832,6.206,13.832,13.834c0,7.625-6.206,13.831-13.832,13.831h-6.435v132.182h6.435
		c7.626,0,13.832,6.207,13.832,13.835c0,7.625-6.206,13.831-13.832,13.831h-6.435v43.698h22.262c4.458,0,8.084-3.797,8.084-8.464
		V56.448c0-4.665-3.628-8.464-8.087-8.467H148.498z"/>
	<path style="clip-path:url(#SVGID_00000183945454867558822650000012883370667132984204_);fill:#FFFFFF;" d="M74.66,320.523v-43.698
		H43.585v35.234c0,4.667,3.625,8.464,8.079,8.464H74.66z"/>
	<path style="clip-path:url(#SVGID_00000183945454867558822650000012883370667132984204_);fill:#FFFFFF;" d="M74.66,89.312V47.981
		H51.664c-4.454,0.003-8.079,3.803-8.079,8.467v32.864H74.66z"/>
	
		<rect x="114.251" y="116.977" style="clip-path:url(#SVGID_00000183945454867558822650000012883370667132984204_);fill:#FFFFFF;" width="28.913" height="132.182"/>
	
		<rect x="79.993" y="116.977" style="clip-path:url(#SVGID_00000183945454867558822650000012883370667132984204_);fill:#FFFFFF;" width="28.924" height="132.182"/>
	<path style="clip-path:url(#SVGID_00000183945454867558822650000012883370667132984204_);fill:#FFFFFF;" d="M74.8,262.759
		c0-2.677-2.175-4.852-4.852-4.852c-2.685,0-4.86,2.175-4.86,4.852c0,2.683,2.175,4.857,4.86,4.857
		C72.625,267.616,74.8,265.442,74.8,262.759"/>
	<path style="clip-path:url(#SVGID_00000183945454867558822650000012883370667132984204_);fill:#FFFFFF;" d="M151.143,267.616
		c2.685,0,4.855-2.175,4.855-4.857c0-2.677-2.17-4.852-4.855-4.852c-2.682,0-4.857,2.175-4.857,4.852
		C146.286,265.441,148.461,267.616,151.143,267.616"/>
	<path style="clip-path:url(#SVGID_00000183945454867558822650000012883370667132984204_);fill:#FFFFFF;" d="M69.949,98.057
		c-2.685,0-4.86,2.175-4.86,4.857c0,2.68,2.175,4.855,4.86,4.855c2.677,0,4.852-2.175,4.852-4.855
		C74.801,100.232,72.626,98.057,69.949,98.057"/>
	<path style="clip-path:url(#SVGID_00000183945454867558822650000012883370667132984204_);fill:#FFFFFF;" d="M151.143,107.768
		c2.685,0,4.855-2.175,4.855-4.855c0-2.682-2.17-4.857-4.855-4.857c-2.682,0-4.857,2.175-4.857,4.857
		C146.286,105.593,148.461,107.768,151.143,107.768"/>
</g>
</svg>
