<?xml version="1.0" encoding="iso-8859-1"?>
<!-- Generator: Adobe Illustrator 25.4.1, SVG Export Plug-In . SVG Version: 6.00 Build 0)  -->
<svg version="1.1" id="Calque_1" xmlns="http://www.w3.org/2000/svg" xmlns:xlink="http://www.w3.org/1999/xlink" x="0px" y="0px"
	 viewBox="0 0 368.5 368.5" style="enable-background:new 0 0 368.5 368.5;" xml:space="preserve">
<g>
	<path style="fill:#FFFFFF;" d="M306.163,228.795h16.319v-16.114c-0.06,0.003-0.117,0.022-0.177,0.022
		c-1.18,0-2.28-0.594-2.927-1.581l-16.683-25.437c-0.764-1.166-0.764-2.674,0-3.839l16.683-25.438
		c0.647-0.987,1.747-1.581,2.927-1.581c0.06,0,0.117,0.019,0.177,0.022v-20.965c-0.06,0.004-0.117,0.023-0.177,0.023
		c-1.18,0-2.28-0.595-2.927-1.581l-16.683-25.438c-0.764-1.166-0.764-2.674,0-3.839l16.683-25.439
		c0.647-0.986,1.747-1.58,2.927-1.58c0.06,0,0.117,0.019,0.177,0.022V51.785h-23.354l8.74,13.325c0.764,1.165,0.764,2.673,0,3.839
		l-16.684,25.438c-0.647,0.986-1.747,1.58-2.927,1.58c-1.18,0-2.28-0.594-2.927-1.58l-16.683-25.438
		c-0.764-1.166-0.764-2.674,0-3.839l8.739-13.325h-48.299l8.739,13.325c0.764,1.165,0.764,2.673,0,3.839l-16.683,25.438
		c-0.647,0.986-1.747,1.58-2.927,1.58c-1.18,0-2.28-0.594-2.927-1.58l-16.683-25.438c-0.764-1.166-0.764-2.674,0-3.839l8.739-13.325
		h-29.109c10.097,4.935,20.248,13.519,25.833,28.434c1.618,4.321,2.48,8.658,2.647,12.975c0.042,0.217,0.067,0.44,0.067,0.669
		v37.229l8.506-12.969c0.647-0.986,1.747-1.58,2.927-1.58c1.18,0,2.28,0.594,2.927,1.58l16.683,25.437
		c0.415,0.633,0.605,1.367,0.569,2.093c0.035,0.725-0.154,1.459-0.569,2.091l-16.683,25.44c-0.647,0.986-1.747,1.58-2.927,1.58
		c-1.18,0-2.28-0.594-2.927-1.58l-8.506-12.971v49.676l8.506-12.969c0.647-0.986,1.747-1.581,2.927-1.581
		c1.18,0,2.28,0.595,2.927,1.581l16.683,25.438c0.764,1.165,0.764,2.673,0,3.838l-1.705,2.599h34.231l-1.705-2.599
		c-0.764-1.165-0.764-2.673,0-3.838l16.683-25.438c0.647-0.986,1.747-1.581,2.927-1.581c1.18,0,2.28,0.595,2.927,1.581
		l16.684,25.438c0.764,1.165,0.764,2.673,0,3.838L306.163,228.795z M232.653,106.888c-0.764-1.166-0.764-2.674,0-3.839
		l16.684-25.439c0.647-0.986,1.747-1.58,2.927-1.58c1.18,0,2.28,0.594,2.927,1.58l16.683,25.439c0.764,1.165,0.764,2.673,0,3.839
		l-16.683,25.438c-0.647,0.986-1.747,1.581-2.927,1.581c-1.18,0-2.28-0.595-2.927-1.581L232.653,106.888z M271.874,185.685
		l-16.683,25.437c-0.647,0.987-1.747,1.581-2.927,1.581c-1.18,0-2.28-0.594-2.927-1.581l-16.684-25.437
		c-0.764-1.166-0.764-2.674,0-3.839l16.684-25.438c0.647-0.987,1.747-1.581,2.927-1.581c1.18,0,2.28,0.594,2.927,1.581
		l16.683,25.438C272.638,183.011,272.638,184.519,271.874,185.685 M288.257,174.764c-1.18,0-2.28-0.594-2.927-1.58l-16.683-25.44
		c-0.415-0.632-0.604-1.367-0.569-2.092c-0.036-0.725,0.154-1.459,0.569-2.092l16.683-25.437c0.647-0.986,1.747-1.58,2.927-1.58
		c1.18,0,2.28,0.594,2.927,1.58l16.684,25.437c0.415,0.633,0.604,1.367,0.569,2.092c0.036,0.726-0.154,1.46-0.569,2.092
		l-16.684,25.44C290.537,174.17,289.437,174.764,288.257,174.764"/>
	<path style="fill:#FFFFFF;" d="M148.908,228.796v0.541c1.239-0.031,9.487-0.109,19.477,2.831v-93.233v-0.973
		c0-1.28,0.7-2.459,1.824-3.072c0.29-0.159,29.156-16.268,29.558-40.631c-0.06-3.837-0.8-7.701-2.254-11.584
		c-11.937-31.88-48.078-30.546-48.44-30.526c-0.598,0.025-1.164-0.117-1.672-0.364H116.31c7.283,3.795,11.627,8.944,11.627,14.779
		c0,0.007-0.001,0.014-0.001,0.021c0,0.004,0.001,0.007,0.001,0.011v162.2H148.908z"/>
	<polygon style="fill:#FFFFFF;" points="321.901,165.325 309.807,183.765 321.901,202.206 	"/>
	<polygon style="fill:#FFFFFF;" points="230.827,145.653 218.216,126.425 206.784,143.857 206.784,147.45 218.216,164.883 	"/>
	<polygon style="fill:#FFFFFF;" points="300.869,145.653 288.257,126.425 275.646,145.653 288.257,164.883 	"/>
	<polygon style="fill:#FFFFFF;" points="321.901,86.528 309.807,104.968 321.901,123.409 	"/>
	<polygon style="fill:#FFFFFF;" points="300.756,224.277 288.257,205.221 275.76,224.277 278.819,228.94 297.697,228.94 	"/>
	<polygon style="fill:#FFFFFF;" points="239.765,183.765 252.264,202.821 264.761,183.765 252.264,164.709 	"/>
	<polygon style="fill:#FFFFFF;" points="288.257,86.086 300.756,67.029 290.952,52.083 285.562,52.083 275.76,67.029 	"/>
	<polygon style="fill:#FFFFFF;" points="218.216,86.085 230.714,67.029 220.911,52.082 215.521,52.082 205.719,67.029 	"/>
	<polygon style="fill:#FFFFFF;" points="264.761,104.968 252.264,85.911 239.765,104.968 252.264,124.025 	"/>
	<polygon style="fill:#FFFFFF;" points="230.714,224.277 218.216,205.221 206.784,222.653 206.784,225.901 208.778,228.94 
		227.655,228.94 	"/>
	<path style="fill:#FFFFFF;" d="M120.938,78.45c-7.767,5.866-21.35,9.602-37.461,9.602c-16.11,0-29.692-3.736-37.459-9.601v176.6
		c0,6.839,16.02,14.488,37.459,14.488c21.441,0,37.461-7.649,37.461-14.488V78.45z"/>
	<path style="fill:#FFFFFF;" d="M46.018,66.563c0,6.839,16.02,14.488,37.459,14.488c21.44,0,37.461-7.649,37.461-14.488
		c0-6.838-16.021-14.486-37.461-14.486C62.038,52.077,46.018,59.725,46.018,66.563"/>
	<path style="fill:#FFFFFF;" d="M199.783,116.663c-7.765,12.363-19.804,20.497-24.398,23.305v0.967v93.733v7.658v74.389
		c8.485-5.986,24.411-19.645,24.398-37.829V116.663z"/>
</g>
</svg>
