<?xml version="1.0" encoding="iso-8859-1"?>
<!-- Generator: Adobe Illustrator 25.4.1, SVG Export Plug-In . SVG Version: 6.00 Build 0)  -->
<svg version="1.1" id="Calque_1" xmlns="http://www.w3.org/2000/svg" xmlns:xlink="http://www.w3.org/1999/xlink" x="0px" y="0px"
	 viewBox="0 0 368.5 368.5" style="enable-background:new 0 0 368.5 368.5;" xml:space="preserve">
<g>
	<path style="fill:#FFFFFF;" d="M227.169,63.354c0,1.702-0.177,3.361-0.476,4.977h74.292V55.994h-74.857
		C226.791,58.338,227.169,60.801,227.169,63.354"/>
	<path style="fill:#FFFFFF;" d="M117.556,63.665c0-2.713,0.538-5.296,1.489-7.671H67.519v12.337h50.585
		C117.757,66.828,117.556,65.271,117.556,63.665"/>
	<path style="fill:#FFFFFF;" d="M174.057,88.729v-4.332h-21.034v4.487c3.631-0.425,7.394-0.652,11.26-0.652
		C167.628,88.232,170.888,88.409,174.057,88.729"/>
	<path style="fill:#FFFFFF;" d="M177.256,78.086c-2.759-4.248-4.378-9.301-4.378-14.732c0-5.168,1.479-9.987,3.998-14.104h-38.589
		c-7.952,0-14.42,6.467-14.42,14.415c0,7.953,6.468,14.421,14.42,14.421H177.256z M130.904,63.734c0-4.11,3.328-7.436,7.436-7.436
		h21.071c4.105,0,7.436,3.326,7.436,7.436c0,4.106-3.331,7.438-7.436,7.438H138.34C134.232,71.172,130.904,67.84,130.904,63.734"/>
	<path style="fill:#FFFFFF;" d="M188.323,46.128l13.882,14.716c1.195,1.267,1.138,3.264-0.129,4.462
		c-0.61,0.572-1.389,0.858-2.166,0.858c-0.838,0-1.674-0.331-2.294-0.99l-13.904-14.741c-2.823,3.556-4.524,8.04-4.524,12.921
		c0,11.49,9.349,20.837,20.84,20.837c11.486,0,20.831-9.347,20.831-20.837c0-11.487-9.345-20.834-20.831-20.834
		C195.691,42.52,191.661,43.854,188.323,46.128"/>
	<path style="fill:#FFFFFF;" d="M164.284,94.542c-27.372,0-50.495,12.858-50.495,28.078l0.018,0.409l-0.034,144.553h17.593
		c7.075,0.003,12.828,5.758,12.828,12.829c0,7.08-5.753,12.841-12.828,12.841h-17.6l-0.006,22.342c0,5.632,3.081,10.39,6.729,10.39
		h87.534c3.648,0,6.729-4.758,6.729-10.392l0.021-192.918C214.777,107.4,191.653,94.542,164.284,94.542 M186.481,212.756
		c-9.307,15.846-22.721,14.227-22.961,14.198c-0.251,0.029-13.664,1.648-22.974-14.198c-6.156-10.489-6.6-27.183,5.341-41.401
		c10.408-12.402,17.481-32.004,17.481-32.004s7.37,19.602,17.776,32.004C193.087,185.573,192.639,202.267,186.481,212.756"/>
	<path style="fill:#FFFFFF;" d="M85.824,309.448c0.019-12.388,10.115-22.483,22.505-22.507h23.037c3.595,0,6.518-2.931,6.518-6.53
		c0-3.595-2.923-6.517-6.518-6.517l-23.031-0.002c-19.596,0.005-35.546,15.957-35.559,35.558v11.559h13.048V309.448z"/>
	<path style="fill:#FFFFFF;" d="M169.008,209.938c-0.066,0.019-6.807,1.908-11.7-1.583c-5.489-3.914-5.984-8.513-6.011-8.817
		c-0.135-2.29-2.128-4.058-4.387-3.952c-2.322,0.105-4.119,2.07-4.014,4.392c0.016,0.355,0.495,8.785,9.527,15.228
		c4.079,2.91,8.638,3.663,12.267,3.663c3.743,0,6.498-0.801,6.717-0.866c2.217-0.668,3.468-2.995,2.814-5.214
		C173.57,210.569,171.239,209.289,169.008,209.938"/>
</g>
</svg>
