<?xml version="1.0" encoding="iso-8859-1"?>
<!-- Generator: Adobe Illustrator 25.4.1, SVG Export Plug-In . SVG Version: 6.00 Build 0)  -->
<svg version="1.1" id="Calque_1" xmlns="http://www.w3.org/2000/svg" xmlns:xlink="http://www.w3.org/1999/xlink" x="0px" y="0px"
	 viewBox="0 0 368.5 368.5" style="enable-background:new 0 0 368.5 368.5;" xml:space="preserve">
<g>
	<path style="fill:#FFFFFF;" d="M55.476,161.569c-0.014,0.042-0.028,0.083-0.042,0.126c-0.434,1.315-0.833,2.634-1.199,3.956
		c-0.001,0.003-0.003,0.007-0.004,0.011c-11.241,40.54,9.028,83.396,49.881,101.413l12.906,5.692v-5.465L106.13,262.5
		c-0.862-0.38-1.698-0.79-2.54-1.193c-32.203-23.414-43.648-64.745-27.824-100.625c7.799-17.684,23.188-32.302,41.252-40.689
		v-13.794c-17.669,4.306-34.251,14.487-46.136,28.201c-5.089,5.872-9.323,12.385-12.403,19.367c-0.558,1.266-1.08,2.538-1.573,3.814
		c-0.019,0.05-0.04,0.099-0.059,0.149C56.356,159.006,55.902,160.286,55.476,161.569"/>
	<path style="fill:#FFFFFF;" d="M196.418,138.738c-1.595,1.456-3.116,3.082-4.552,4.862l39.856-8.381
		c-1.328-0.877-2.692-1.648-4.093-2.297l-1.547-0.565L196.418,138.738z"/>
	<path style="fill:#FFFFFF;" d="M95.711,211.247l21.306,8.69v-32.45l-9.959-4.062c-1.762-0.718-3.61-1.083-5.494-1.083
		c-5.95,0-11.247,3.56-13.495,9.07l-0.345,0.846c-1.469,3.604-1.448,7.563,0.06,11.149
		C89.293,206.993,92.108,209.779,95.711,211.247"/>
	<path style="fill:#FFFFFF;" d="M186.12,156.981l29.994-6.291c-3.385-1.736-7.062-2.7-10.909-2.7
		C197.965,147.99,191.314,151.367,186.12,156.981"/>
	<path style="fill:#FFFFFF;" d="M228.517,162.567l-49.41,10.363c-0.969,5.133-1.5,10.545-1.5,16.144
		c0,0.732,0.019,1.459,0.037,2.185l57.01-11.755C233.666,173.177,231.517,167.4,228.517,162.567"/>
	<path style="fill:#FFFFFF;" d="M190.562,221.865l36.725-7.703c3.885-5.522,6.582-12.499,7.563-20.23l-55.705,11.485
		c0.196,1.022,0.408,2.033,0.639,3.031C182.464,214.012,186.174,218.639,190.562,221.865"/>
	<path style="fill:#FFFFFF;" d="M124.017,104.06v199.656c0,11.178,4.695,17.334,13.221,17.334c1.018,0,2.091-0.088,3.192-0.262
		l159.146-30.753c10.173-2.493,17.765-14.673,17.765-23.936V68.153c0-12.577-5.492-20.703-13.99-20.703
		c-0.793,0-1.614,0.072-2.439,0.213L141.773,78.415C131.305,80.927,124.017,93.93,124.017,104.06 M252.785,112.281
		c3.299,0,6.207,2.341,6.916,5.568c0.836,3.815-1.586,7.601-5.402,8.439l-17.812,3.831c4.833,3.43,9.181,8.055,12.867,13.6
		l13.09-2.746c0.483-0.106,0.995-0.161,1.505-0.161c3.299,0,6.208,2.341,6.916,5.567c0.837,3.816-1.586,7.602-5.402,8.44
		l-9.351,1.961c2.112,5.356,3.714,11.176,4.714,17.329l10.308-2.126c0.477-0.104,0.989-0.16,1.499-0.16
		c3.299,0,6.207,2.341,6.916,5.567c0.837,3.816-1.586,7.602-5.402,8.44l-12.123,2.499c0.002,0.249,0.013,0.495,0.013,0.745
		c0,6.306-0.634,12.399-1.793,18.176l4.682-0.982c0.483-0.106,0.996-0.162,1.505-0.162c3.299,0,6.208,2.342,6.916,5.568
		c0.837,3.815-1.586,7.601-5.402,8.439l-12.369,2.594c-2.113,5.077-4.693,9.704-7.647,13.776l14.356-3.088
		c0.493-0.109,1.004-0.164,1.514-0.164c3.299,0,6.208,2.342,6.916,5.568c0.837,3.816-1.586,7.602-5.402,8.44l-76.152,16.379
		c-0.493,0.108-1.005,0.164-1.515,0.164c-3.299,0-6.207-2.341-6.915-5.567c-0.838-3.816,1.586-7.602,5.402-8.44l9.594-2.064
		c-3.769-2.746-7.242-6.211-10.323-10.286l-7.416,1.556c-0.484,0.106-0.996,0.161-1.506,0.161c-3.299,0-6.208-2.341-6.916-5.567
		c-0.837-3.816,1.586-7.602,5.402-8.44l2.895-0.606c-2.476-5.531-4.391-11.623-5.629-18.117c-2.889-0.403-5.321-2.575-5.959-5.484
		c-0.406-1.849-0.067-3.745,0.954-5.338c0.831-1.3,2.038-2.264,3.456-2.798c-0.048-1.231-0.078-2.469-0.078-3.718
		c0-5.363,0.46-10.572,1.307-15.566c-2.375-0.746-4.276-2.708-4.829-5.227c-0.406-1.849-0.067-3.745,0.953-5.339
		c1.02-1.594,2.601-2.695,4.449-3.1l3.145-0.66c2.414-6.763,5.617-12.848,9.439-18.003l-6.925,1.489
		c-0.492,0.109-1.005,0.164-1.513,0.164c-3.3,0-6.209-2.342-6.917-5.568c-0.837-3.816,1.586-7.602,5.402-8.44l76.151-16.379
		C251.763,112.337,252.275,112.281,252.785,112.281"/>
	<path style="fill:#FFFFFF;" d="M186.982,253.684c-1.653,0.363-2.708,2.012-2.344,3.673c0.356,1.623,2.03,2.711,3.675,2.352
		l76.151-16.379c1.653-0.363,2.708-2.012,2.344-3.674c-0.308-1.405-1.574-2.425-3.009-2.425c-0.222,0-0.445,0.024-0.665,0.073
		L186.982,253.684z"/>
	<path style="fill:#FFFFFF;" d="M175.808,229.046c-1.644,0.361-2.699,2.009-2.334,3.671c0.356,1.623,2.03,2.71,3.675,2.352
		l89.957-18.868c1.643-0.361,2.699-2.009,2.334-3.671c-0.308-1.405-1.573-2.425-3.008-2.425c-0.222,0-0.446,0.025-0.666,0.073
		L175.808,229.046z"/>
	<path style="fill:#FFFFFF;" d="M255.794,118.706c-0.308-1.405-1.574-2.425-3.008-2.425c-0.222,0-0.447,0.025-0.667,0.073
		l-76.151,16.379c-1.654,0.364-2.709,2.012-2.344,3.674c0.357,1.622,2.033,2.712,3.674,2.353l76.152-16.381
		C255.104,122.016,256.159,120.368,255.794,118.706"/>
	<path style="fill:#FFFFFF;" d="M173.327,163.752c-0.787,0.172-1.475,0.652-1.919,1.346s-0.592,1.52-0.415,2.324
		c0.356,1.623,2.028,2.716,3.674,2.353l89.958-18.868c1.643-0.361,2.698-2.009,2.334-3.671c-0.309-1.405-1.574-2.425-3.009-2.425
		c-0.222,0-0.446,0.025-0.666,0.073L173.327,163.752z"/>
	<path style="fill:#FFFFFF;" d="M172.51,196.402c-0.78,0.171-1.468,0.65-1.913,1.344c-0.444,0.694-0.591,1.52-0.415,2.325
		c0.357,1.623,2.037,2.716,3.675,2.353l99.457-20.507c1.637-0.359,2.692-2.008,2.327-3.669c-0.308-1.405-1.573-2.425-3.008-2.425
		c-0.222,0-0.446,0.024-0.666,0.073L172.51,196.402z"/>
</g>
</svg>
