<?xml version="1.0" encoding="utf-8"?>
<!-- Generator: Adobe Illustrator 25.4.0, SVG Export Plug-In . SVG Version: 6.00 Build 0)  -->
<svg version="1.1" id="Calque_1" xmlns="http://www.w3.org/2000/svg" xmlns:xlink="http://www.w3.org/1999/xlink" x="0px" y="0px"
	 viewBox="0 0 368.5 368.5" style="enable-background:new 0 0 368.5 368.5;" xml:space="preserve">
<style type="text/css">
	.st0{fill:#FFFFFF;}
</style>
<g>
	<path class="st0" d="M55.48,161.57c-0.01,0.04-0.03,0.08-0.04,0.13c-0.43,1.32-0.83,2.63-1.2,3.96c0,0,0,0.01,0,0.01
		c-11.24,40.54,9.03,83.4,49.88,101.41l12.91,5.69v-5.46l-10.89-4.8c-0.86-0.38-1.7-0.79-2.54-1.19
		c-32.2-23.41-43.65-64.74-27.82-100.62c7.8-17.68,23.19-32.3,41.25-40.69V106.2c-17.67,4.31-34.25,14.49-46.14,28.2
		c-5.09,5.87-9.32,12.38-12.4,19.37c-0.56,1.27-1.08,2.54-1.57,3.81c-0.02,0.05-0.04,0.1-0.06,0.15
		C56.36,159.01,55.9,160.29,55.48,161.57"/>
	<path class="st0" d="M196.42,138.74c-1.6,1.46-3.12,3.08-4.55,4.86l39.86-8.38c-1.33-0.88-2.69-1.65-4.09-2.3l-1.55-0.57
		L196.42,138.74z"/>
	<path class="st0" d="M95.71,211.25l21.31,8.69v-32.45l-9.96-4.06c-1.76-0.72-3.61-1.08-5.49-1.08c-5.95,0-11.25,3.56-13.5,9.07
		l-0.35,0.85c-1.47,3.6-1.45,7.56,0.06,11.15C89.29,206.99,92.11,209.78,95.71,211.25"/>
	<path class="st0" d="M186.12,156.98l29.99-6.29c-3.38-1.74-7.06-2.7-10.91-2.7C197.97,147.99,191.31,151.37,186.12,156.98"/>
	<path class="st0" d="M228.52,162.57l-49.41,10.36c-0.97,5.13-1.5,10.54-1.5,16.14c0,0.73,0.02,1.46,0.04,2.18l57.01-11.75
		C233.67,173.18,231.52,167.4,228.52,162.57"/>
	<path class="st0" d="M190.56,221.86l36.72-7.7c3.89-5.52,6.58-12.5,7.56-20.23l-55.71,11.49c0.2,1.02,0.41,2.03,0.64,3.03
		C182.46,214.01,186.17,218.64,190.56,221.86"/>
	<path class="st0" d="M124.02,104.06v199.66c0,11.18,4.7,17.33,13.22,17.33c1.02,0,2.09-0.09,3.19-0.26l159.15-30.75
		c10.17-2.49,17.77-14.67,17.77-23.94V68.15c0-12.58-5.49-20.7-13.99-20.7c-0.79,0-1.61,0.07-2.44,0.21L141.77,78.41
		C131.31,80.93,124.02,93.93,124.02,104.06 M252.79,112.28c3.3,0,6.21,2.34,6.92,5.57c0.84,3.82-1.59,7.6-5.4,8.44l-17.81,3.83
		c4.83,3.43,9.18,8.05,12.87,13.6l13.09-2.75c0.48-0.11,0.99-0.16,1.5-0.16c3.3,0,6.21,2.34,6.92,5.57c0.84,3.82-1.59,7.6-5.4,8.44
		l-9.35,1.96c2.11,5.36,3.71,11.18,4.71,17.33l10.31-2.13c0.48-0.1,0.99-0.16,1.5-0.16c3.3,0,6.21,2.34,6.92,5.57
		c0.84,3.82-1.59,7.6-5.4,8.44l-12.12,2.5c0,0.25,0.01,0.49,0.01,0.74c0,6.31-0.63,12.4-1.79,18.18l4.68-0.98
		c0.48-0.11,1-0.16,1.51-0.16c3.3,0,6.21,2.34,6.92,5.57c0.84,3.82-1.59,7.6-5.4,8.44l-12.37,2.59c-2.11,5.08-4.69,9.7-7.65,13.78
		l14.36-3.09c0.49-0.11,1-0.16,1.51-0.16c3.3,0,6.21,2.34,6.92,5.57c0.84,3.82-1.59,7.6-5.4,8.44l-76.15,16.38
		c-0.49,0.11-1,0.16-1.51,0.16c-3.3,0-6.21-2.34-6.91-5.57c-0.84-3.82,1.59-7.6,5.4-8.44l9.59-2.06
		c-3.77-2.75-7.24-6.21-10.32-10.29l-7.42,1.56c-0.48,0.11-1,0.16-1.51,0.16c-3.3,0-6.21-2.34-6.92-5.57
		c-0.84-3.82,1.59-7.6,5.4-8.44l2.9-0.61c-2.48-5.53-4.39-11.62-5.63-18.12c-2.89-0.4-5.32-2.57-5.96-5.48
		c-0.41-1.85-0.07-3.74,0.95-5.34c0.83-1.3,2.04-2.26,3.46-2.8c-0.05-1.23-0.08-2.47-0.08-3.72c0-5.36,0.46-10.57,1.31-15.57
		c-2.38-0.75-4.28-2.71-4.83-5.23c-0.41-1.85-0.07-3.74,0.95-5.34c1.02-1.59,2.6-2.7,4.45-3.1l3.15-0.66
		c2.41-6.76,5.62-12.85,9.44-18l-6.93,1.49c-0.49,0.11-1,0.16-1.51,0.16c-3.3,0-6.21-2.34-6.92-5.57c-0.84-3.82,1.59-7.6,5.4-8.44
		l76.15-16.38C251.76,112.34,252.28,112.28,252.79,112.28"/>
	<path class="st0" d="M186.98,253.68c-1.65,0.36-2.71,2.01-2.34,3.67c0.36,1.62,2.03,2.71,3.68,2.35l76.15-16.38
		c1.65-0.36,2.71-2.01,2.34-3.67c-0.31-1.4-1.57-2.42-3.01-2.42c-0.22,0-0.45,0.02-0.67,0.07L186.98,253.68z"/>
	<path class="st0" d="M175.81,229.05c-1.64,0.36-2.7,2.01-2.33,3.67c0.36,1.62,2.03,2.71,3.68,2.35l89.96-18.87
		c1.64-0.36,2.7-2.01,2.33-3.67c-0.31-1.4-1.57-2.43-3.01-2.43c-0.22,0-0.45,0.02-0.67,0.07L175.81,229.05z"/>
	<path class="st0" d="M255.79,118.71c-0.31-1.4-1.57-2.42-3.01-2.42c-0.22,0-0.45,0.02-0.67,0.07l-76.15,16.38
		c-1.65,0.36-2.71,2.01-2.34,3.67c0.36,1.62,2.03,2.71,3.67,2.35l76.15-16.38C255.1,122.02,256.16,120.37,255.79,118.71"/>
	<path class="st0" d="M173.33,163.75c-0.79,0.17-1.48,0.65-1.92,1.35s-0.59,1.52-0.42,2.32c0.36,1.62,2.03,2.72,3.67,2.35
		l89.96-18.87c1.64-0.36,2.7-2.01,2.33-3.67c-0.31-1.4-1.57-2.43-3.01-2.43c-0.22,0-0.45,0.02-0.67,0.07L173.33,163.75z"/>
	<path class="st0" d="M172.51,196.4c-0.78,0.17-1.47,0.65-1.91,1.34c-0.44,0.69-0.59,1.52-0.41,2.32c0.36,1.62,2.04,2.72,3.67,2.35
		l99.46-20.51c1.64-0.36,2.69-2.01,2.33-3.67c-0.31-1.4-1.57-2.43-3.01-2.43c-0.22,0-0.45,0.02-0.67,0.07L172.51,196.4z"/>
</g>
</svg>
