<?xml version="1.0" encoding="iso-8859-1"?>
<!-- Generator: Adobe Illustrator 25.4.1, SVG Export Plug-In . SVG Version: 6.00 Build 0)  -->
<svg version="1.1" id="Calque_1" xmlns="http://www.w3.org/2000/svg" xmlns:xlink="http://www.w3.org/1999/xlink" x="0px" y="0px"
	 viewBox="0 0 368.5 368.5" style="enable-background:new 0 0 368.5 368.5;" xml:space="preserve">
<g>
	<path style="fill:#FFFFFF;" d="M259.53,68.388c-2.16,0.633-3.41,2.906-2.784,5.072c0.503,1.738,2.121,2.954,3.928,2.954
		c0.388,0,0.774-0.056,1.147-0.165c2.166-0.633,3.416-2.911,2.784-5.077C263.993,69.07,261.703,67.77,259.53,68.388"/>
	<path style="fill:#FFFFFF;" d="M232.014,75.473c0.386,0,0.771-0.055,1.138-0.162c1.051-0.303,1.922-1,2.449-1.96
		c0.524-0.957,0.646-2.061,0.34-3.124c-0.622-2.102-2.919-3.397-5.077-2.776c-2.167,0.638-3.413,2.915-2.78,5.069
		C228.587,74.258,230.204,75.473,232.014,75.473"/>
	<path style="fill:#FFFFFF;" d="M177.292,68.853c-0.526,0.957-0.647,2.064-0.341,3.109c0.505,1.739,2.121,2.954,3.929,2.954
		c0.387,0,0.772-0.055,1.147-0.164c2.165-0.634,3.415-2.909,2.785-5.075c-0.618-2.111-2.995-3.393-5.071-2.787
		C178.688,67.195,177.819,67.89,177.292,68.853"/>
	<path style="fill:#FFFFFF;" d="M205.939,66.89c-1.053,0.305-1.924,1-2.45,1.963c-0.527,0.959-0.645,2.066-0.34,3.107
		c0.504,1.74,2.118,2.956,3.928,2.956c0.388,0,0.772-0.055,1.149-0.164c2.164-0.635,3.412-2.909,2.784-5.076
		C210.39,67.564,208.016,66.289,205.939,66.89"/>
	<path style="fill:#FFFFFF;" d="M248.491,42.52c-2.256,0-4.092,1.835-4.092,4.092c0,2.257,1.836,4.091,4.092,4.091
		c2.256,0,4.092-1.834,4.092-4.091C252.583,44.355,250.747,42.52,248.491,42.52"/>
	<path style="fill:#FFFFFF;" d="M218.573,59.195c2.256,0,4.09-1.835,4.09-4.089c0-2.258-1.834-4.094-4.09-4.094
		c-2.258,0-4.094,1.836-4.094,4.094C214.479,57.36,216.315,59.195,218.573,59.195"/>
	<path style="fill:#FFFFFF;" d="M194.57,58.701c-2.256,0-4.09,1.835-4.09,4.09c0,2.259,1.834,4.096,4.09,4.096
		c2.257,0,4.094-1.837,4.094-4.096C198.664,60.536,196.827,58.701,194.57,58.701"/>
	<path style="fill:#FFFFFF;" d="M248.491,89.655c-2.256,0-4.092,1.836-4.092,4.093c0,2.26,1.836,4.095,4.092,4.095
		c2.256,0,4.092-1.835,4.092-4.095C252.583,91.491,250.747,89.655,248.491,89.655"/>
	<path style="fill:#FFFFFF;" d="M218.573,89.348c2.256,0,4.09-1.838,4.09-4.094c0-2.256-1.834-4.09-4.09-4.09
		c-2.258,0-4.094,1.834-4.094,4.09C214.479,87.51,216.315,89.348,218.573,89.348"/>
	<path style="fill:#FFFFFF;" d="M194.57,73.479c-2.256,0-4.09,1.834-4.09,4.09c0,2.256,1.834,4.092,4.09,4.092
		c2.257,0,4.094-1.836,4.094-4.092C198.664,75.313,196.827,73.479,194.57,73.479"/>
	<path style="fill:#FFFFFF;" d="M131.452,108.917h45.421c2.249,0,4.08-1.828,4.08-4.075c0-2.251-1.831-4.082-4.08-4.082h-45.421
		c-2.249,0-4.079,1.831-4.079,4.082C127.373,107.089,129.202,108.917,131.452,108.917"/>
	<path style="fill:#FFFFFF;" d="M169.213,95.185v-0.793V67.368c0-5.025-4.073-9.098-9.101-9.098h-14.705
		c-5.024,0-9.098,4.073-9.098,9.098v27.024v0.793H169.213z M158.428,62.19c4.562,0,8.255,3.695,8.255,8.255
		c0,4.563-3.693,8.258-8.255,8.258c-4.561,0-8.254-3.695-8.254-8.258C150.174,65.885,153.867,62.19,158.428,62.19"/>
	<path style="fill:#FFFFFF;" d="M203.202,307.88h0.243v-53.256h0.522v-58.033c0-4.384-0.141-8.602-0.522-12.565v-44.995
		c0-12.854-10.457-23.312-23.312-23.312h-52.266c-12.857,0-23.315,10.458-23.315,23.312v49.474
		c-0.522,2.617-0.805,5.317-0.805,8.086v58.033h0.004v0.014v50.779c0,3.166,0.74,6.152,2.023,8.831
		c3.322,6.934,10.407,11.736,18.637,11.736h58.293c8.228,0,15.313-4.802,18.637-11.736
		C202.286,312.276,202.932,310.139,203.202,307.88 M123.257,162.469c4.104,0,7.43,3.326,7.43,7.43v122.944
		c0,4.103-3.326,7.43-7.43,7.43c-4.104,0-7.43-3.327-7.43-7.43V169.899C115.827,165.795,119.153,162.469,123.257,162.469"/>
	<path style="fill:#FFFFFF;" d="M158.253,76.298c3.274,0,5.938-2.664,5.938-5.937c0-3.277-2.664-5.941-5.938-5.941
		c-3.276,0-5.939,2.664-5.939,5.941C152.314,73.634,154.977,76.298,158.253,76.298 M158.253,66.543c2.104,0,3.815,1.713,3.815,3.818
		c0,2.104-1.711,3.814-3.815,3.814c-2.104,0-3.817-1.71-3.817-3.814C154.436,68.256,156.149,66.543,158.253,66.543"/>
</g>
</svg>
