<?xml version="1.0" encoding="iso-8859-1"?>
<!-- Generator: Adobe Illustrator 25.4.1, SVG Export Plug-In . SVG Version: 6.00 Build 0)  -->
<svg version="1.1" id="Calque_1" xmlns="http://www.w3.org/2000/svg" xmlns:xlink="http://www.w3.org/1999/xlink" x="0px" y="0px"
	 viewBox="0 0 368.5 368.5" style="enable-background:new 0 0 368.5 368.5;" xml:space="preserve">
<g>
	<path style="fill:#FFFFFF;" d="M184.266,154.947c62.912,0,127.731,18.002,141.732,48.776v-47.345
		c0-31.578-63.456-57.165-141.732-57.165c-78.277,0-141.733,25.587-141.733,57.165v47.345
		C56.535,172.949,121.354,154.947,184.266,154.947"/>
	<path style="fill:#FFFFFF;" d="M184.266,163.255c-83.118,0-138.951,27.417-138.951,53.011c0,25.613,55.833,53.026,138.951,53.026
		s138.951-27.413,138.951-53.026C323.216,190.672,267.383,163.255,184.266,163.255 M184.266,254.532
		c-54.761,0-99.135-11.278-99.135-25.177c0-13.912,44.374-25.174,99.135-25.174c54.75,0,99.14,11.262,99.14,25.174
		C283.405,243.254,239.016,254.532,184.266,254.532"/>
	<path style="fill:#FFFFFF;" d="M270.519,229.395c0,10.69-38.501,19.357-85.994,19.357s-85.994-8.667-85.994-19.357
		c0-10.69,38.501-19.357,85.994-19.357S270.519,218.706,270.519,229.395"/>
</g>
</svg>
