<?xml version="1.0" encoding="iso-8859-1"?>
<!-- Generator: Adobe Illustrator 25.4.1, SVG Export Plug-In . SVG Version: 6.00 Build 0)  -->
<svg version="1.1" id="Calque_1" xmlns="http://www.w3.org/2000/svg" xmlns:xlink="http://www.w3.org/1999/xlink" x="0px" y="0px"
	 viewBox="0 0 368.5 368.5" style="enable-background:new 0 0 368.5 368.5;" xml:space="preserve">
<g>
	<path style="fill:#FFFFFF;" d="M73.649,322.663h34.575c-6.37-6.101-10.481-15.625-10.481-26.317v-5.86
		c-5.836-0.446-10.45-5.324-10.45-11.271c0-5.948,4.614-10.827,10.45-11.274v-9.503c-5.836-0.445-10.45-5.325-10.45-11.271
		c0-5.947,4.614-10.826,10.45-11.273v-9.502c-5.836-0.446-10.45-5.326-10.45-11.272c0-5.948,4.614-10.828,10.45-11.274V72.154
		c0-10.691,4.111-20.217,10.481-26.317H73.649c-11.04,0-20.023,11.805-20.023,26.317v224.192
		C53.626,310.857,62.609,322.663,73.649,322.663"/>
	<path style="fill:#FFFFFF;" d="M247.095,290.53H104.743v5.815c0,14.512,8.982,26.318,20.023,26.318h56.188h46.118
		c11.041,0,20.023-11.806,20.023-26.318V290.53z"/>
	<rect x="104.743" y="258.482" style="fill:#FFFFFF;" width="142.352" height="9.415"/>
	<rect x="104.743" y="226.436" style="fill:#FFFFFF;" width="142.352" height="9.415"/>
	<path style="fill:#FFFFFF;" d="M98.61,210.802c-2.38,0-4.317,1.937-4.317,4.318c0,2.38,1.937,4.315,4.317,4.315h140.585
		c-0.551-1.33-0.855-2.788-0.855-4.315c0-1.528,0.305-2.987,0.856-4.318H98.61z"/>
	<path style="fill:#FFFFFF;" d="M94.293,279.215c0,2.379,1.936,4.315,4.317,4.315h140.585c-0.551-1.33-0.855-2.788-0.855-4.315
		c0-1.528,0.304-2.987,0.856-4.318H98.61C96.229,274.897,94.293,276.834,94.293,279.215"/>
	<path style="fill:#FFFFFF;" d="M94.293,247.167c0,2.38,1.936,4.316,4.317,4.316h140.585c-0.551-1.331-0.855-2.789-0.855-4.316
		c0-1.527,0.304-2.985,0.855-4.316H98.61C96.229,242.851,94.293,244.787,94.293,247.167"/>
	<path style="fill:#FFFFFF;" d="M314.735,153.453c0.632-2.583-0.95-5.187-3.533-5.82l-23.693-5.796
		c-2.583-0.633-5.189,0.949-5.821,3.533c-0.632,2.582,0.95,5.188,3.533,5.819l23.694,5.797
		C311.497,157.618,314.103,156.036,314.735,153.453"/>
	<path style="fill:#FFFFFF;" d="M287.511,198.32c2.073,1.665,5.103,1.333,6.768-0.74c1.665-2.075,1.333-5.104-0.74-6.769
		l-19.021-15.27c-2.072-1.665-5.103-1.334-6.767,0.741c-1.665,2.073-1.334,5.103,0.739,6.767L287.511,198.32z"/>
	<path style="fill:#FFFFFF;" d="M281.687,109.182c0.632,2.583,3.238,4.165,5.821,3.533l23.693-5.797
		c2.583-0.631,4.165-3.237,3.533-5.82c-0.632-2.583-3.237-4.165-5.819-3.533l-23.695,5.797
		C282.637,103.995,281.055,106.599,281.687,109.182"/>
	<path style="fill:#FFFFFF;" d="M274.518,79.011l19.021-15.271c2.073-1.665,2.405-4.695,0.74-6.768
		c-1.665-2.074-4.695-2.405-6.768-0.741L268.49,71.502c-2.073,1.665-2.404,4.696-0.739,6.768
		C269.415,80.344,272.446,80.675,274.518,79.011"/>
	<path style="fill:#FFFFFF;" d="M247.095,76.046v-3.891c0-14.512-8.983-26.318-20.023-26.318h-46.118h-56.188
		c-11.041,0-20.023,11.806-20.023,26.318v131.648h142.352v-20.509c2.44-1.113,4.781-2.51,7-4.168
		c12.993-9.712,21.798-28.235,21.798-49.457c0-21.22-8.805-39.744-21.798-49.455C251.876,78.556,249.535,77.159,247.095,76.046
		 M233.35,179.347c-19.598,0-35.542-22.285-35.542-49.678c0-13.464,3.82-26.082,10.756-35.53c1.144-1.558,0.809-3.749-0.75-4.893
		c-1.558-1.143-3.749-0.807-4.892,0.75c-7.812,10.641-12.114,24.73-12.114,39.673c0,23.679,10.96,44.001,26.472,52.466
		l-32.358,2.881c-22.072-0.067-40.016-24.869-40.016-55.347c0-9.542,1.759-18.527,4.853-26.371h30.085c4.301,0,7.8-3.555,7.8-7.925
		s-3.499-7.925-7.8-7.925h-20.723c6.972-8.156,15.978-13.098,25.807-13.124l32.681,2.698c-1.437,0.98-1.964,2.887-1.148,4.475
		c0.883,1.719,2.991,2.397,4.712,1.514c3.899-2.003,7.996-3.018,12.177-3.018c19.599,0,35.543,22.285,35.543,49.676
		C268.893,157.062,252.949,179.347,233.35,179.347"/>
	<path style="fill:#FFFFFF;" d="M227.137,109.622c0.27-0.344,0.478-0.579,0.594-0.703l0.081-0.085
		c2.707-2.588,2.835-6.926,0.285-9.669c-1.298-1.399-3.139-2.202-5.049-2.202c-1.744,0-3.408,0.654-4.687,1.841
		c-0.504,0.467-3.147,3.053-5.704,8.054c-2.29,4.464-5.018,11.975-5.01,22.403c-0.008,20.493,8.329,31.353,8.409,31.456
		c1.314,1.729,3.316,2.721,5.492,2.721c1.515,0,2.956-0.485,4.166-1.404c2.948-2.241,3.584-6.445,1.458-9.465
		c-0.032-0.093-0.09-0.174-0.165-0.234c-1.052-1.582-5.57-9.19-5.578-23.073c0.006-6.149,1.185-11.576,3.501-16.133
		C225.773,111.477,226.596,110.31,227.137,109.622"/>
</g>
</svg>
