<?xml version="1.0" encoding="iso-8859-1"?>
<!-- Generator: Adobe Illustrator 25.4.1, SVG Export Plug-In . SVG Version: 6.00 Build 0)  -->
<svg version="1.1" id="Calque_1" xmlns="http://www.w3.org/2000/svg" xmlns:xlink="http://www.w3.org/1999/xlink" x="0px" y="0px"
	 viewBox="0 0 368.5 368.5" style="enable-background:new 0 0 368.5 368.5;" xml:space="preserve">
<g>
	<path style="fill:#FFFFFF;" d="M71.205,249.974c0.128,0,0.251,0.019,0.373,0.038l10.977-9.199H71.129l-10.932,9.161H71.205z"/>
	<rect x="54.939" y="254.974" style="fill:#FFFFFF;" width="14.211" height="25.368"/>
	<polygon style="fill:#FFFFFF;" points="82.557,295.428 70.524,285.342 59.097,285.342 71.129,295.428 	"/>
	<path style="fill:#FFFFFF;" d="M93.504,291.25c-8.225-1.975-14.494-11.734-14.494-23.449v-1.947
		c0-10.641,5.171-19.671,12.284-22.719l-1.863-1.56L74.15,254.38v27.388c0.023,0.048,0.048,0.095,0.068,0.144l15.213,12.754
		L93.504,291.25z"/>
	<path style="fill:#FFFFFF;" d="M95.825,263.777c0-5.837,0.738-11.461,2.091-16.744h-1.342c-6.928,0-12.564,8.443-12.564,18.82
		v1.947c0,10.379,5.636,18.823,12.564,18.823h3.242C97.261,279.66,95.825,271.925,95.825,263.777"/>
	<path style="fill:#FFFFFF;" d="M189.379,267.801v-1.947c0-13.134,7.879-23.82,17.565-23.82h1.401
		c-4.589-12.13-12.893-21.524-22.998-25.747c-0.448,0.415-1.044,0.668-1.694,0.668h-13.739c-0.357,0-0.71-0.077-1.036-0.225
		c-0.628-0.286-1.292-0.563-1.972-0.822c-2.82-1.076-5.719-1.73-8.648-1.964c13.727,7.967,23.504,24.517,25.108,44.125
		c0.009,0.108,0.015,0.217,0.023,0.324c0.056,0.728,0.101,1.459,0.134,2.194c0.01,0.211,0.02,0.42,0.028,0.631
		c0.031,0.849,0.052,1.701,0.052,2.56c0,0.847-0.021,1.689-0.052,2.529c-0.008,0.242-0.021,0.482-0.032,0.724
		c-0.03,0.641-0.069,1.282-0.117,1.916c-0.016,0.217-0.03,0.434-0.048,0.651c-0.069,0.82-0.151,1.637-0.249,2.447
		c-0.017,0.137-0.038,0.272-0.055,0.408c-0.087,0.686-0.185,1.366-0.292,2.041c-0.037,0.235-0.076,0.469-0.116,0.703
		c-0.11,0.649-0.229,1.293-0.357,1.934c-0.032,0.158-0.06,0.318-0.093,0.477c-0.163,0.785-0.34,1.56-0.53,2.33
		c-0.044,0.181-0.093,0.357-0.138,0.537c-0.155,0.607-0.318,1.209-0.49,1.806c-0.062,0.217-0.124,0.434-0.188,0.649
		c-0.207,0.695-0.423,1.385-0.652,2.066c-0.02,0.057-0.037,0.116-0.056,0.174c-0.251,0.738-0.517,1.467-0.792,2.19
		c-0.073,0.191-0.15,0.38-0.224,0.572c-0.22,0.556-0.446,1.109-0.68,1.658c-0.078,0.182-0.154,0.365-0.234,0.547
		c-0.307,0.699-0.623,1.393-0.953,2.072c-0.03,0.063-0.061,0.121-0.091,0.182c-0.303,0.619-0.618,1.228-0.939,1.832
		c-0.098,0.183-0.198,0.365-0.298,0.547c-0.287,0.525-0.582,1.045-0.884,1.556c-0.082,0.139-0.161,0.278-0.243,0.414
		c-0.38,0.635-0.772,1.258-1.173,1.87c-0.079,0.119-0.16,0.234-0.239,0.353c-0.331,0.496-0.67,0.986-1.016,1.467
		c-0.119,0.168-0.239,0.334-0.36,0.498c-0.371,0.506-0.749,1.002-1.135,1.49c-0.061,0.078-0.121,0.156-0.182,0.235
		c-0.447,0.558-0.905,1.101-1.37,1.634c-0.118,0.135-0.239,0.268-0.357,0.401c-0.366,0.41-0.738,0.814-1.115,1.209
		c-0.133,0.14-0.266,0.279-0.399,0.418c-0.491,0.5-0.987,0.994-1.494,1.468c-0.007,0.008-0.015,0.014-0.023,0.022
		c-0.497,0.465-1.005,0.914-1.518,1.353c-0.15,0.127-0.301,0.252-0.452,0.377c-0.406,0.34-0.817,0.67-1.233,0.991
		c-0.138,0.107-0.274,0.216-0.413,0.32c-0.538,0.408-1.083,0.803-1.636,1.18c-0.103,0.07-0.209,0.136-0.313,0.207
		c-0.459,0.308-0.924,0.605-1.394,0.894c-0.173,0.106-0.347,0.211-0.521,0.315c-0.152,0.089-0.301,0.185-0.454,0.273h15.339
		c13.445,0,25.315-8.809,32.302-22.164C196.564,290.645,189.379,280.342,189.379,267.801"/>
	<path style="fill:#FFFFFF;" d="M134.704,248.731h42.092c-1.009-4.093-2.424-7.953-4.175-11.518h-37.917V248.731z"/>
	<path style="fill:#FFFFFF;" d="M147.193,268.871c-5.202,0-9.434,5.615-9.434,12.516c0,6.9,4.232,12.515,9.434,12.515
		c5.2,0,9.431-5.615,9.431-12.515C156.624,274.486,152.393,268.871,147.193,268.871"/>
	<path style="fill:#FFFFFF;" d="M139.715,313.715c0.3,0,0.596-0.02,0.894-0.029c-15.301-8.85-25.525-28.33-25.525-49.91
		c0-21.537,10.237-41.054,25.531-49.906c-0.3-0.008-0.598-0.029-0.9-0.029c-21.444,0-38.89,22.402-38.89,49.936
		C100.825,291.313,118.271,313.715,139.715,313.715"/>
	<path style="fill:#FFFFFF;" d="M178.154,271.371c0.295-2.477,0.449-5.014,0.449-7.594c0-4.154-0.404-8.186-1.151-12.046h-44.249
		c-0.828,0-1.5-0.671-1.5-1.5v-14.518c0-0.828,0.672-1.5,1.5-1.5h37.827c-5.312-9.255-13.048-16.076-21.996-18.913
		c-0.222,0.193-0.477,0.355-0.77,0.464c-16.592,6.108-28.18,25.851-28.18,48.011c0,22.318,11.692,42.102,28.432,48.109
		c0.23,0.082,0.432,0.204,0.62,0.34C164.173,307.4,175.774,291.314,178.154,271.371 M147.193,296.902
		c-6.856,0-12.434-6.961-12.434-15.516c0-8.554,5.578-15.515,12.434-15.515c6.854,0,12.431,6.961,12.431,15.515
		C159.624,289.941,154.047,296.902,147.193,296.902"/>
	<path style="fill:#FFFFFF;" d="M211.104,284.939c-0.567-0.475-0.894-1.178-0.894-1.916v-29.81c0-0.739,0.328-1.441,0.895-1.916
		l5.087-4.264h-9.248c-6.928,0-12.565,8.443-12.565,18.82v1.947c0,10.379,5.637,18.823,12.565,18.823h6.169L211.104,284.939z"/>
	<path style="fill:#FFFFFF;" d="M154.036,208.007c0,0.003,0,0.005,0,0.007c-0.001,0.292-0.03,0.569-0.095,0.834
		c0.677-0.004,1.328-0.008,1.9-0.008c3.183,0,6.346,0.43,9.443,1.28v-8.448v-0.001c0-0.452,0.038-0.895,0.093-1.333
		c0.016-0.123,0.036-0.244,0.056-0.365c0.056-0.344,0.128-0.682,0.217-1.014c0.025-0.095,0.045-0.191,0.073-0.285
		c0.121-0.41,0.266-0.809,0.435-1.197c0.036-0.082,0.078-0.16,0.116-0.242c0.146-0.313,0.306-0.616,0.48-0.911
		c0.033-0.055,0.056-0.116,0.09-0.171h-12.808V208.007z"/>
	<path style="fill:#FFFFFF;" d="M175.757,196.154c-3.019,0-5.474,2.476-5.474,5.518v0.001v10.21
		c0.054,0.024,0.109,0.047,0.163,0.072h10.787v-10.283C181.233,198.63,178.776,196.154,175.757,196.154"/>
	<polygon style="fill:#FFFFFF;" points="231.401,295.428 242.827,295.428 230.795,285.342 219.368,285.342 	"/>
	<path style="fill:#FFFFFF;" d="M220.469,249.974h11.007c0.128,0,0.251,0.019,0.374,0.038l10.976-9.199h-11.424L220.469,249.974z"/>
	<rect x="215.21" y="254.974" style="fill:#FFFFFF;" width="14.211" height="25.368"/>
	<path style="fill:#FFFFFF;" d="M249.701,241.574l-15.28,12.806v27.387c0.023,0.049,0.048,0.096,0.069,0.146l15.211,12.752
		l15.281-12.81V254.38L249.701,241.574z M259.8,268.263c0,8.56-4.211,15.525-9.388,15.525c-5.178,0-9.391-6.965-9.391-15.525
		s4.213-15.525,9.391-15.525C255.589,252.738,259.8,259.703,259.8,268.263"/>
	<path style="fill:#FFFFFF;" d="M66.43,203.852c0.286-0.061,0.589-0.119,0.903-0.178c0.072-0.013,0.146-0.026,0.219-0.039
		c0.269-0.049,0.548-0.097,0.838-0.144c0.064-0.011,0.125-0.022,0.19-0.032c0.347-0.056,0.708-0.111,1.083-0.165
		c0.076-0.01,0.156-0.021,0.233-0.032c0.318-0.045,0.647-0.09,0.986-0.133c0.096-0.012,0.19-0.025,0.287-0.037
		c0.412-0.052,0.837-0.103,1.281-0.155c0.066-0.007,0.137-0.015,0.205-0.022c0.387-0.044,0.789-0.088,1.202-0.131
		c0.126-0.013,0.253-0.026,0.381-0.039c0.486-0.049,0.982-0.099,1.502-0.147c1.582-0.148,3.26-0.283,5.023-0.406
		c1.174-0.081,2.387-0.156,3.632-0.227c0.622-0.035,1.253-0.068,1.892-0.099c6.386-0.321,13.548-0.49,20.984-0.49h0.001
		c11.897,0,23.096,0.434,31.532,1.222c0.011,0,0.021,0.002,0.032,0.003c0.504,0.047,0.987,0.095,1.46,0.143
		c0.135,0.014,0.268,0.028,0.401,0.042c0.401,0.041,0.792,0.084,1.169,0.127c0.078,0.007,0.158,0.016,0.234,0.025
		c0.438,0.051,0.858,0.102,1.265,0.152c0.105,0.014,0.207,0.028,0.31,0.041c0.327,0.042,0.645,0.084,0.953,0.128
		c0.086,0.013,0.176,0.025,0.261,0.036c0.368,0.054,0.723,0.108,1.064,0.162c0.076,0.012,0.148,0.025,0.223,0.038
		c0.275,0.045,0.541,0.09,0.798,0.136c0.083,0.016,0.167,0.031,0.248,0.045c0.306,0.058,0.602,0.115,0.882,0.174
		c0.041,0.008,0.078,0.018,0.119,0.025c0.239,0.051,0.468,0.104,0.689,0.156c0.039,0.009,0.085,0.018,0.124,0.028v-11.053
		c-3.807-1.275-19.137-2.839-41.764-2.839c-22.628,0-37.958,1.564-41.764,2.839v11.053c0.034-0.009,0.074-0.017,0.109-0.025
		c0.236-0.056,0.48-0.112,0.737-0.166C66.38,203.863,66.404,203.857,66.43,203.852"/>
	<path style="fill:#FFFFFF;" d="M142.358,208.008c-7.27-0.884-19.432-1.632-35.087-1.632c-15.656,0-27.818,0.748-35.088,1.632
		c7.27,0.884,19.433,1.633,35.088,1.633C122.925,209.641,135.088,208.892,142.358,208.008"/>
	<rect x="154.037" y="58.395" style="fill:#FFFFFF;" width="6.4" height="7.819"/>
	<path style="fill:#FFFFFF;" d="M144.854,66.197c0.094,0.006,0.18,0.019,0.278,0.019l0.109-0.001h5.796v-7.82h-6.183V66.197z"/>
	<rect x="163.437" y="58.395" style="fill:#FFFFFF;" width="5.242" height="7.819"/>
	<rect x="150.577" y="84.062" style="fill:#FFFFFF;" width="14.75" height="24.612"/>
	<path style="fill:#FFFFFF;" d="M116.669,146.903h9.974c-1.328-3.43-2.083-7.329-2.083-11.466v-2.03
		c0-4.666,0.958-9.034,2.618-12.763h-10.506c-19.757,0.011-35.839,16.181-35.848,36.045v18.498h26.099v-18.499
		C106.932,151.298,111.304,146.909,116.669,146.903"/>
	<path style="fill:#FFFFFF;" d="M165.641,113.674h-22.87c-7.284,0-13.21,8.852-13.21,19.732v2.031
		c0,10.88,5.926,19.731,13.21,19.731h22.87c1.208,0,2.373-0.264,3.485-0.721c-7.303-1.029-13.014-9.35-13.014-19.434v-1.558
		c0-9.789,5.387-17.895,12.383-19.304C167.575,113.846,166.621,113.674,165.641,113.674"/>
	<path style="fill:#FFFFFF;" d="M161.111,133.455v1.558c0,7.883,4.37,14.544,9.542,14.544h7.755
		c-0.477-0.466-0.763-1.098-0.763-1.775v-28.104c0-0.266,0.056-0.521,0.136-0.768h-7.128
		C165.481,118.91,161.111,125.571,161.111,133.455"/>
	<path style="fill:#FFFFFF;" d="M208.647,159.333l-12.983-9.536c-0.1-0.072-0.181-0.164-0.268-0.249h-8.624l13.323,9.785H208.647z"
		/>
	<rect x="182.645" y="121.681" style="fill:#FFFFFF;" width="11.999" height="23.867"/>
	<path style="fill:#FFFFFF;" d="M187.088,117.681h8.557c0.007-0.005,0.012-0.013,0.019-0.018l12.984-9.535h-8.553L187.088,117.681z"
		/>
	<path style="fill:#FFFFFF;" d="M216.276,108.731l-16.632,12.213v25.573l16.632,12.215l5.683-4.174h-1.576
		c-8.019,0-14.543-8.768-14.543-19.545v-1.557c0-10.778,6.524-19.545,14.543-19.545h2.947L216.276,108.731z"/>
	<path style="fill:#FFFFFF;" d="M220.383,118.91c-5.173,0-9.543,6.661-9.543,14.545v1.558c0,7.884,4.37,14.545,9.543,14.545h17.535
		c5.173,0,9.543-6.661,9.543-14.545v-1.558c0-7.884-4.37-14.545-9.543-14.545H220.383z M237.892,124.253
		c2.72,0,4.925,4.368,4.925,9.76c0,5.391-2.205,9.76-4.925,9.76c-2.721,0-4.926-4.369-4.926-9.76
		C232.966,128.621,235.171,124.253,237.892,124.253"/>
	<path style="fill:#FFFFFF;" d="M59.151,59.951h64.936c2.123,0,3.354,0.384,4.012,0.706l0.098,0.051
		c0.402,0.22,0.793,0.459,1.156,0.966l-0.003,0.002c1.004,1.349,1.053,4.094,1.022,5.278c0.008,3.339,1.724,6.585,4.709,8.838
		c2.807,2.13,6.321,3.259,10.167,3.269h24.896c2.146,0,3.892-1.759,3.892-3.922c0-2.165-1.746-3.925-3.892-3.925l-25.012,0.001
		c-2.899,0-5.34-1.305-6.315-2.625c-0.206-0.264-0.361-0.525-0.472-0.793l-0.185-0.449l-0.005-0.484
		c-0.017-1.812-0.038-4.06-0.894-6.639c-0.676-2.165-2.593-5.17-5.813-6.653c-2.086-0.993-4.484-1.469-7.361-1.469H59.151
		c-2.145,0-3.89,1.761-3.89,3.926C55.261,58.191,57.006,59.951,59.151,59.951"/>
	<path style="fill:#FFFFFF;" d="M242.924,60.767h-7.309c0.449,0.463,0.718,1.077,0.718,1.733v21.781c0,0.03-0.01,0.057-0.011,0.087
		h6.602c12.592,0.009,24.44,4.941,33.365,13.889c8.904,8.976,13.809,20.879,13.816,33.523v184.616h23.456V131.781
		C313.552,92.631,281.864,60.774,242.924,60.767"/>
	<path style="fill:#FFFFFF;" d="M218.186,54.11h-7.574l7.318,5.374c0.085-0.009,0.167-0.025,0.255-0.025h7.284L218.186,54.11z"/>
	<rect x="220.312" y="64.458" style="fill:#FFFFFF;" width="11.021" height="17.189"/>
	<polygon style="fill:#FFFFFF;" points="226.388,86.647 218.814,86.647 210.612,92.67 218.186,92.67 	"/>
	<path style="fill:#FFFFFF;" d="M202.984,92.068l12.328-9.053v-19.25l-12.328-9.054l-12.328,9.054v19.25L202.984,92.068z
		 M194.479,73.494c0-6.33,3.55-11.479,7.913-11.479c4.363,0,7.913,5.149,7.913,11.479c0,6.33-3.55,11.479-7.913,11.479
		C198.029,84.973,194.479,79.824,194.479,73.494"/>
</g>
</svg>
