<?xml version="1.0" encoding="iso-8859-1"?>
<!-- Generator: Adobe Illustrator 25.4.1, SVG Export Plug-In . SVG Version: 6.00 Build 0)  -->
<svg version="1.1" id="Calque_1" xmlns="http://www.w3.org/2000/svg" xmlns:xlink="http://www.w3.org/1999/xlink" x="0px" y="0px"
	 viewBox="0 0 368.5 368.5" style="enable-background:new 0 0 368.5 368.5;" xml:space="preserve">
<g>
	<path style="fill:#FFFFFF;" d="M122.275,194.866c1.648,1.866,3.072,3.476,4.487,5.315c2.941,3.817,4.809,7.082,9.21,20.461
		c2.676,8.134,9.256,24.581,20.437,31.675c-0.487,0.719-0.888,1.52-1.178,2.382l58.628,7.634v-4.265
		c0-2.173-0.671-4.148-1.755-5.744c11.191-7.086,17.771-23.546,20.444-31.68c4.403-13.381,6.271-16.645,9.213-20.468
		c1.414-1.838,2.84-3.452,4.492-5.321c2.206-2.495,4.705-5.321,8.096-9.665c12.018-15.411,18.37-34.096,18.37-54.037
		c0-46.235-35.744-84.436-81.054-88.304V42.52h-7.226l-0.131,0.001l-0.037-0.001l-7.411,0.008v0.321
		c-45.314,3.868-81.061,42.069-81.061,88.304c0,19.943,6.354,38.629,18.376,54.037C117.567,189.538,120.069,192.367,122.275,194.866
		 M184.117,56.979h0.129h0.162c40.727,0.177,73.86,33.452,73.86,74.174c0,16.69-5.295,32.303-15.312,45.146
		c-3.118,3.995-5.463,6.645-7.531,8.987c-1.75,1.98-3.403,3.851-5.117,6.077c-4.112,5.343-6.617,9.964-11.489,24.767
		c-4.782,14.556-12.29,25.121-17.854,25.121c-1.648,0-3.347,0.006-5.052,0.013v-48.702c-2.513,1.479-5.292,2.547-8.258,3.096v45.651
		l-1.941,0.009l-0.002,0.044c-0.488-0.004-0.994-0.009-1.517-0.014c-0.475,0.005-0.937,0.009-1.383,0.013l-4.087-0.048v-45.604
		c-2.957-0.505-5.74-1.508-8.258-2.941v48.489c-0.977-0.002-1.958-0.006-2.909-0.006c-5.56,0-13.07-10.565-17.858-25.124
		c-4.869-14.803-7.375-19.425-11.488-24.762c-1.712-2.227-3.362-4.092-5.108-6.068c-2.07-2.343-4.417-4.998-7.536-8.995
		c-10.021-12.845-15.318-28.458-15.318-45.149C110.25,90.431,143.386,57.156,184.117,56.979"/>
	<path style="fill:#FFFFFF;" d="M202.317,118.978c0-10.638-8.657-19.293-19.299-19.293c-10.638,0-19.293,8.655-19.293,19.293v51.637
		c0,10.637,8.655,19.291,19.293,19.291c10.642,0,19.299-8.654,19.299-19.291V118.978z"/>
	<path style="fill:#FFFFFF;" d="M212.606,308.375l4.285,0.558c0.3,0.039,0.595,0.06,0.884,0.06c3.359,0,6.276-2.494,6.722-5.914
		c0.483-3.713-2.137-7.12-5.853-7.601l-4.785-0.626v-0.012l-59.199-7.701v0.01l-5.278-0.687c-3.719-0.484-7.121,2.138-7.604,5.85
		c-0.484,3.72,2.139,7.122,5.851,7.602l7.031,0.92v2.607c0,5.109,3.587,9.259,8.048,9.398h43.219
		C208.755,312.705,211.2,310.954,212.606,308.375"/>
	<path style="fill:#FFFFFF;" d="M201.893,316.862h-36.232c2.691,5.321,9.776,9.122,18.117,9.122
		C192.117,325.984,199.198,322.184,201.893,316.862"/>
	<path style="fill:#FFFFFF;" d="M154.66,258.533v0.015l-5.28-0.69c-3.717-0.48-7.119,2.137-7.606,5.857
		c-0.481,3.718,2.138,7.118,5.855,7.601l7.031,0.915v10.994l59.199,7.705v-10.992l3.037,0.396c0.294,0.041,0.59,0.055,0.879,0.055
		c3.359,0.004,6.276-2.49,6.726-5.907c0.482-3.714-2.141-7.12-5.857-7.6l-4.785-0.627v-0.016L154.66,258.533z"/>
</g>
</svg>
