<?xml version="1.0" encoding="iso-8859-1"?>
<!-- Generator: Adobe Illustrator 25.4.1, SVG Export Plug-In . SVG Version: 6.00 Build 0)  -->
<svg version="1.1" id="Calque_1" xmlns="http://www.w3.org/2000/svg" xmlns:xlink="http://www.w3.org/1999/xlink" x="0px" y="0px"
	 viewBox="0 0 368.5 368.5" style="enable-background:new 0 0 368.5 368.5;" xml:space="preserve">
<g>
	<path style="fill:#FFFFFF;" d="M141.951,86.202c1.271,0,2.561-0.197,3.83-0.614l58.385-19.317
		c6.388-2.112,9.855-9.003,7.742-15.391c-2.114-6.387-9.007-9.855-15.393-7.74l-58.388,19.31c-6.384,2.116-9.853,9.005-7.74,15.394
		C132.081,82.963,136.844,86.202,141.951,86.202"/>
	<path style="fill:#FFFFFF;" d="M115.784,136.15c1.267,0,2.561-0.202,3.826-0.625l139.084-46.012
		c6.388-2.113,9.849-9.005,7.739-15.393c-2.115-6.386-9.008-9.852-15.393-7.74l-139.082,46.013
		c-6.39,2.114-9.855,9.007-7.742,15.395C105.914,132.903,110.67,136.15,115.784,136.15"/>
	<path style="fill:#FFFFFF;" d="M251.04,107.664l-139.082,46.008c-6.389,2.11-9.855,9.004-7.74,15.394
		c1.693,5.118,6.45,8.361,11.564,8.361c1.266,0,2.561-0.201,3.827-0.622l139.082-46.011c6.389-2.111,9.853-9.003,7.74-15.389
		C264.318,109.013,257.422,105.547,251.04,107.664"/>
	<path style="fill:#FFFFFF;" d="M266.433,156.678c-2.115-6.386-9.009-9.853-15.391-7.739l-68.901,22.795
		c-4.928,1.629-8.283,6.205-8.357,11.394l-0.435,31.164h24.369l0.312-22.153l60.663-20.069
		C265.082,169.956,268.542,163.069,266.433,156.678"/>
	<path style="fill:#FFFFFF;" d="M200.999,312.06c-4.964,0.268-10.202,0.349-15.676,0.349c-5.475,0-10.702-0.081-15.664-0.349
		c0.927,7.835,7.584,13.924,15.668,13.924S200.07,319.896,200.999,312.06"/>
	<path style="fill:#FFFFFF;" d="M185.325,305.101c41.928,0,56.814-6.309,56.814-41.75v-38.758c0-1.648-1.338-2.991-2.985-2.991
		H131.5c-1.651,0-2.989,1.343-2.989,2.991v38.758C128.511,298.792,143.397,305.101,185.325,305.101"/>
</g>
</svg>
