<?xml version="1.0" encoding="iso-8859-1"?>
<!-- Generator: Adobe Illustrator 25.4.1, SVG Export Plug-In . SVG Version: 6.00 Build 0)  -->
<svg version="1.1" id="Calque_1" xmlns="http://www.w3.org/2000/svg" xmlns:xlink="http://www.w3.org/1999/xlink" x="0px" y="0px"
	 viewBox="0 0 368.5 368.5" style="enable-background:new 0 0 368.5 368.5;" xml:space="preserve">
<g>
	<path style="fill:#FFFFFF;" d="M269.596,202.729c1.978,0,3.877-0.721,5.355-2.03l11.823-10.463
		c0.468-0.415,0.877-0.881,1.232-1.382h-24.029c-1.568,1.519-2.466,3.605-2.464,5.795c-0.002,1.973,0.719,3.873,2.03,5.354
		c1.532,1.734,3.736,2.726,6.048,2.726v2.5L269.596,202.729z"/>
	<path style="fill:#FFFFFF;" d="M146.985,188.854c2.111,0.91,4.172,2.016,6.141,3.35c0.653,0.445,1.279,0.917,1.897,1.397
		l3.802-3.364c0.468-0.414,0.876-0.882,1.23-1.383H146.985z"/>
	<path style="fill:#FFFFFF;" d="M226.626,202.727c1.984,0,3.877-0.72,5.353-2.027l11.828-10.463
		c0.467-0.414,0.877-0.882,1.231-1.383h-24.03c-1.568,1.518-2.466,3.603-2.463,5.792c-0.002,1.976,0.72,3.876,2.03,5.353
		c1.531,1.736,3.731,2.728,6.04,2.728v2.499L226.626,202.727z"/>
	<path style="fill:#FFFFFF;" d="M178.995,188.854c-1.568,1.519-2.467,3.604-2.463,5.791c-0.004,1.976,0.717,3.875,2.029,5.356
		c1.532,1.734,3.732,2.726,6.04,2.726h0.023c1.971,0,3.868-0.72,5.343-2.027l11.827-10.463c0.468-0.414,0.877-0.882,1.232-1.383
		H178.995z"/>
	<polygon style="fill:#FFFFFF;" points="76.224,241.254 76.224,239.845 75.733,239.845 	"/>
	<path style="fill:#FFFFFF;" d="M76.224,314.407v-18.499c-5.478-3.949-9.809-9.818-12.33-16.792
		c-0.004-0.008-0.04-0.105-0.043-0.113l-2.967-8.502v43.906H76.224z"/>
	<path style="fill:#FFFFFF;" d="M69.176,221.059h7.048v-9.192l-0.622-1.714h-5.219c-2.561,0.118-3.452,0.629-3.699,0.821
		c-0.04,0.088-0.151,0.394-0.16,1.096l-0.002,0.12c0.004,0.717,0.169,1.659,0.466,2.598L69.176,221.059z"/>
	<path style="fill:#FFFFFF;" d="M145.535,268.038c-0.278-0.766-0.166-1.62,0.302-2.288c0.469-0.668,1.233-1.065,2.048-1.065h12.533
		l-3.064-8.786h-14.473c-1.052,0-1.99-0.658-2.349-1.646l-5.833-16.055c-0.278-0.766-0.166-1.62,0.302-2.288
		c0.469-0.668,1.233-1.065,2.048-1.065h12.96l-3.064-8.785h-14.9c-1.052,0-1.991-0.659-2.349-1.647l-5.178-14.26h-9.348
		l4.559,12.553c0.278,0.767,0.166,1.621-0.303,2.288c-0.468,0.668-1.231,1.066-2.047,1.066H97.793c-1.051,0-1.991-0.659-2.349-1.647
		l-5.178-14.26H80.92l4.558,12.554c0.278,0.766,0.166,1.62-0.303,2.287c-0.468,0.668-1.231,1.066-2.047,1.066H70.921l3.066,8.785
		h14.148c1.052,0,1.991,0.658,2.35,1.646l5.831,16.055c0.278,0.767,0.166,1.62-0.302,2.288c-0.469,0.668-1.232,1.065-2.048,1.065
		H81.335l3.067,8.786h14.569c1.052,0,1.991,0.658,2.35,1.646l4.333,11.93h9.343l-3.711-10.223c-0.278-0.766-0.166-1.621,0.303-2.289
		c0.468-0.667,1.232-1.064,2.047-1.064h19.586c1.052,0,1.991,0.658,2.349,1.646l4.333,11.928h9.344L145.535,268.038z
		 M130.262,254.834c-0.468,0.668-1.232,1.065-2.047,1.065h-19.588c-1.052,0-1.991-0.658-2.349-1.646l-5.829-16.055
		c-0.279-0.766-0.166-1.62,0.302-2.288s1.232-1.065,2.047-1.065h19.588c1.052,0,1.991,0.658,2.35,1.647l5.829,16.055
		C130.843,253.313,130.731,254.166,130.262,254.834"/>
	<path style="fill:#FFFFFF;" d="M150.317,196.341c-5.1-3.455-10.832-5.291-16.575-5.308H70.168c-0.019,0-0.037,0.001-0.046,0.001
		l-0.251,0.006c-6.928,0.182-12.711,2.397-16.704,6.403c-4.973,4.964-5.747,11.154-5.765,14.403c0,0.044-0.002,0.087-0.004,0.131
		l0.002,0.031c0.002,0.047,0.004,0.093,0.004,0.138c0.009,2.856,0.498,5.787,1.452,8.711l0.015,0.048
		c0.004,0.011,0.008,0.021,0.011,0.031l19.69,56.419c2.493,6.889,6.921,12.461,12.492,15.753c4.745,2.835,10.292,4.27,16.498,4.27
		h64.219c3.403,0,6.504-0.532,9.216-1.58c2.766-1.066,5.222-2.733,7.106-4.821c4.136-4.594,5.007-10.191,5.009-14.077
		c0-0.04,0.001-0.08,0.003-0.12l-0.003-0.594c-0.006-0.055-0.009-0.108-0.011-0.162c-0.093-3.146-0.707-6.373-1.825-9.589
		l-19.382-55.557C159.669,205.008,155.665,199.979,150.317,196.341 M168.267,280.563l-0.126,0.234
		c-0.003,0.007-0.011,0.02-0.02,0.036c-0.52,0.966-1.601,1.567-2.196,1.787c-1.122,0.429-2.478,0.638-4.144,0.638l-64.191,0.003
		c-3.631,0-6.813-0.778-9.247-2.25c-3.019-1.887-4.945-4.396-6.468-8.406c-0.007-0.021-0.06-0.16-0.068-0.181l-19.563-56.059
		c-0.474-1.495-0.715-2.925-0.722-4.205l0.002-0.168c0.028-1.998,0.552-3.486,1.6-4.538c1.481-1.416,3.787-2.154,7.093-2.299
		c0.036-0.001,0.073-0.002,0.11-0.002h63.392c0.042,0,0.101,0.001,0.142,0.003h0.005c2.712,0,5.914,1.075,8.532,2.875
		c2.844,1.93,5.069,4.686,6.256,7.752l19.294,55.308c0.649,1.841,1.03,3.88,1.044,5.587l0.002,0.124
		C168.983,278.744,168.592,279.91,168.267,280.563"/>
	<path style="fill:#FFFFFF;" d="M101.32,85.137c-0.358,0.989-1.298,1.647-2.349,1.647h-14.57l-3.066,8.786h12.631
		c0.815,0,1.579,0.397,2.048,1.065c0.467,0.668,0.58,1.522,0.301,2.289l-5.831,16.056c-0.358,0.988-1.297,1.647-2.349,1.647H73.988
		l-3.065,8.782h12.206c0.815,0,1.579,0.397,2.047,1.065c0.469,0.668,0.581,1.522,0.303,2.288l-4.558,12.554h9.346l5.177-14.26
		c0.359-0.989,1.298-1.647,2.35-1.647h19.586c0.815,0,1.579,0.397,2.047,1.065c0.469,0.668,0.581,1.522,0.303,2.288l-4.559,12.554
		h9.348l5.177-14.26c0.359-0.989,1.298-1.647,2.35-1.647h14.901l3.064-8.782h-12.961c-0.816,0-1.579-0.398-2.048-1.066
		c-0.468-0.668-0.58-1.521-0.302-2.288l5.832-16.056c0.359-0.989,1.298-1.647,2.35-1.647h14.473l3.064-8.786h-12.533
		c-0.816,0-1.579-0.398-2.048-1.066c-0.468-0.667-0.58-1.521-0.302-2.288l3.712-10.219h-9.345l-4.331,11.926
		c-0.358,0.989-1.298,1.647-2.349,1.647h-19.586c-0.816,0-1.579-0.398-2.047-1.066c-0.469-0.667-0.581-1.521-0.303-2.287l3.71-10.22
		l-9.344-0.001L101.32,85.137z M108.628,95.57h19.588c0.815,0,1.579,0.397,2.047,1.065c0.469,0.668,0.581,1.522,0.302,2.288
		l-5.829,16.056c-0.358,0.989-1.297,1.648-2.349,1.648h-19.588c-0.816,0-1.579-0.398-2.047-1.066
		c-0.469-0.668-0.581-1.521-0.303-2.288l5.829-16.056C106.636,96.228,107.576,95.57,108.628,95.57"/>
	<path style="fill:#FFFFFF;" d="M51.551,168.286c-4.282,0.002-7.768,3.494-7.77,7.785c0.002,4.29,3.488,7.782,7.771,7.783H316.95
		c4.282-0.001,7.766-3.493,7.768-7.785c-0.002-3.646-2.522-6.707-5.907-7.548c-0.145,0.142-0.28,0.291-0.431,0.426l-11.823,10.463
		c-2.396,2.118-5.472,3.284-8.664,3.284h-0.005c-3.752,0-7.317-1.607-9.797-4.411c-2.123-2.399-3.29-5.478-3.285-8.671
		c-0.001-0.445,0.025-0.888,0.069-1.326h-8.793c-0.219,0.224-0.433,0.451-0.669,0.66l-11.827,10.464
		c-2.387,2.116-5.46,3.282-8.648,3.282h-0.032c-3.738,0-7.304-1.607-9.784-4.409c-2.123-2.4-3.291-5.478-3.288-8.669
		c0-0.445,0.026-0.889,0.071-1.328h-7.838c-0.219,0.224-0.433,0.45-0.668,0.659l-11.827,10.464
		c-2.387,2.117-5.459,3.283-8.649,3.283h-0.032c-3.738,0-7.304-1.607-9.783-4.409c-2.121-2.394-3.29-5.474-3.287-8.669
		c0-0.445,0.025-0.889,0.07-1.328h-8.793c-0.218,0.224-0.433,0.451-0.668,0.66l-11.827,10.464c-2.389,2.116-5.46,3.282-8.648,3.282
		h-0.031c-3.739,0-7.306-1.608-9.784-4.411c-2.124-2.396-3.291-5.476-3.285-8.67c-0.001-0.445,0.024-0.887,0.069-1.325H51.551z"/>
	<path style="fill:#FFFFFF;" d="M69.888,160.432l0.225,0.004c0.01,0,0.032,0.001,0.053,0.001h63.581
		c5.744-0.02,11.474-1.856,16.573-5.311c5.346-3.637,9.35-8.666,11.576-14.541l0.073-0.199l19.308-55.353
		c1.117-3.211,1.731-6.437,1.824-9.588c0.002-0.055,0.005-0.112,0.011-0.168l0.002-0.621c-0.001-0.032-0.002-0.065-0.002-0.087
		c-0.002-3.886-0.873-9.482-5.011-14.079c-1.885-2.088-4.342-3.755-7.101-4.817c-2.71-1.049-5.81-1.58-9.219-1.58h-64.22
		c-6.209,0-11.755,1.434-16.486,4.262c-5.582,3.297-10.01,8.87-12.48,15.699c-0.004,0.013-0.042,0.113-0.047,0.126l-19.641,56.286
		c-0.007,0.018-0.038,0.102-0.045,0.121l-0.002,0.015c-0.958,2.935-1.447,5.866-1.456,8.722c0,0.046-0.002,0.092-0.004,0.139
		l-0.002,0.031c0.002,0.043,0.004,0.086,0.004,0.13c0.018,3.249,0.792,9.441,5.76,14.397
		C57.159,158.031,62.941,160.246,69.888,160.432 M81.807,79.045c0.018-0.051,0.037-0.101,0.058-0.15
		c1.534-4.04,3.459-6.548,6.447-8.416c2.465-1.491,5.647-2.269,9.237-2.269l64.232,0.002c1.659,0,3.012,0.208,4.137,0.636
		c0.627,0.229,1.788,0.877,2.278,1.923l0.029,0.055c0.366,0.73,0.758,1.896,0.768,3.742l-0.001,0.24
		c-0.014,1.691-0.395,3.731-1.047,5.58l-19.262,55.22c-1.216,3.145-3.442,5.901-6.298,7.84c-2.603,1.791-5.804,2.865-8.548,2.865
		c-0.04,0.002-0.08,0.003-0.118,0.003H70.327c-0.038,0-0.074-0.001-0.111-0.003c-3.305-0.144-5.609-0.881-7.047-2.253
		c-1.094-1.102-1.617-2.588-1.645-4.59l-0.002-0.103c0.007-1.339,0.248-2.769,0.698-4.192L81.807,79.045z"/>
	<path style="fill:#FFFFFF;" d="M246.835,169.615c-0.002,1.97,0.721,3.871,2.033,5.355c1.53,1.73,3.732,2.722,6.039,2.722v2.5
		l0.011-2.5c1.986,0,3.88-0.72,5.354-2.026l11.828-10.464c1.733-1.536,2.726-3.743,2.723-6.051c0.002-1.946-0.697-3.818-1.968-5.286
		l-0.121-0.137c-1.529-1.691-3.703-2.659-5.978-2.659c-1.993,0-3.891,0.721-5.367,2.029l-11.823,10.464
		C247.826,165.094,246.832,167.299,246.835,169.615"/>
	<path style="fill:#FFFFFF;" d="M161.855,169.612c-0.004,1.976,0.717,3.875,2.029,5.355c1.533,1.733,3.733,2.726,6.04,2.726v2.5
		l0.011-2.5c1.986,0,3.88-0.719,5.354-2.027l11.826-10.463c1.732-1.537,2.727-3.745,2.725-6.056c0.002-1.972-0.718-3.87-2.029-5.35
		c-1.532-1.734-3.733-2.727-6.04-2.727c-1.995,0-3.891,0.72-5.366,2.028l-11.825,10.463
		C162.843,165.094,161.851,167.299,161.855,169.612"/>
	<path style="fill:#FFFFFF;" d="M289.806,169.613c-0.003,1.974,0.718,3.874,2.03,5.357c1.531,1.732,3.732,2.724,6.037,2.724h0.02
		c1.971,0,3.871-0.721,5.351-2.029l11.822-10.462c1.735-1.536,2.728-3.742,2.725-6.05c0.003-1.976-0.717-3.876-2.028-5.358
		c-1.532-1.732-3.737-2.726-6.049-2.726c-1.985,0-3.883,0.721-5.356,2.028l-11.825,10.465
		C290.795,165.095,289.803,167.299,289.806,169.613"/>
	<path style="fill:#FFFFFF;" d="M204.821,169.615c-0.002,1.974,0.72,3.874,2.031,5.353c1.532,1.732,3.733,2.724,6.039,2.724v2.5
		l0.011-2.5c1.987,0,3.882-0.72,5.357-2.026l11.826-10.464c1.732-1.536,2.726-3.743,2.724-6.053
		c0.002-1.975-0.718-3.875-2.028-5.354c-1.533-1.732-3.734-2.725-6.04-2.725c-1.999,0-3.892,0.72-5.365,2.027l-11.825,10.465
		C205.813,165.094,204.819,167.299,204.821,169.615"/>
</g>
</svg>
