<?xml version="1.0" encoding="iso-8859-1"?>
<!-- Generator: Adobe Illustrator 25.4.1, SVG Export Plug-In . SVG Version: 6.00 Build 0)  -->
<svg version="1.1" id="Calque_1" xmlns="http://www.w3.org/2000/svg" xmlns:xlink="http://www.w3.org/1999/xlink" x="0px" y="0px"
	 viewBox="0 0 368.5 368.5" style="enable-background:new 0 0 368.5 368.5;" xml:space="preserve">
<g>
	<path style="fill:#FFFFFF;" d="M287.458,298.898v-21.494v-26.197V125.561c0-3.089-2.01-5.82-4.958-6.742l-71.348-22.298V69.605
		c0-14.935-12.151-27.085-27.084-27.085H99.199c-14.938,0-27.087,12.15-27.087,27.085v181.602v26.197v21.494
		c0,14.935,12.149,27.086,27.087,27.086h161.174C275.305,325.984,287.458,313.833,287.458,298.898 M90.587,71.627
		c0-5.873,4.758-10.632,10.63-10.632h80.833c5.872,0,10.63,4.759,10.63,10.632c0,5.869-4.758,10.63-10.63,10.63h-80.833
		C95.345,82.257,90.587,77.496,90.587,71.627 M238.17,278.62c-15.724,15.726-36.634,24.387-58.873,24.387
		s-43.146-8.661-58.873-24.389c-15.726-15.722-24.384-36.632-24.384-58.873c0-22.239,8.658-43.145,24.384-58.871
		c15.727-15.724,36.632-24.383,58.873-24.383s43.149,8.659,58.873,24.383c15.727,15.726,24.386,36.632,24.386,58.871
		C262.556,241.986,253.897,262.896,238.17,278.62"/>
	<path style="fill:#FFFFFF;" d="M292.353,106.309c0.969-3.107-0.763-6.406-3.865-7.371l-60.684-18.942
		c-3.096-0.973-6.401,0.759-7.372,3.862c-0.969,3.103,0.762,6.404,3.864,7.373l60.681,18.942c0.587,0.181,1.18,0.267,1.759,0.267
		C289.242,110.44,291.568,108.829,292.353,106.309"/>
	<path style="fill:#FFFFFF;" d="M132.07,233.497c-4.291-7.94-2.838-18.972,3.307-25.121c2.697-2.692,6.113-4.215,9.631-4.606
		c-0.019-0.396-0.053-0.803-0.053-1.191c0-5.046,1.462-9.373,4.533-12.45c3.753-3.753,9.377-5.082,15.9-4.297
		c-0.012-0.235-0.052-0.462-0.052-0.701c0-4.331,1.687-8.397,4.748-11.46c6.149-6.148,17.181-7.604,25.119-3.311l14.166,7.661
		l10.953-10.948c-11.679-9.136-25.968-14.103-41.024-14.103c-17.834,0-34.606,6.946-47.222,19.561
		c-12.609,12.61-19.555,29.379-19.555,47.215c0,15.059,4.968,29.346,14.098,41.025l13.113-13.108L132.07,233.497z"/>
	<path style="fill:#FFFFFF;" d="M224.497,186.204l7.999,4.326c0.919,0.5,1.44,1.443,1.44,2.414c0,0.445-0.104,0.893-0.333,1.308
		c-0.72,1.331-2.384,1.828-3.718,1.106l-9.439-5.104l-17.697,17.7c10.678,11.732,16.682,24.919,16.682,35.138
		c0,5.049-1.456,9.375-4.534,12.447c-9.304,9.307-30.065,3.796-47.581-12.153l-15.358,15.356l5.109,9.438
		c0.716,1.331,0.22,2.999-1.111,3.721c-1.334,0.715-2.998,0.221-3.72-1.112l-4.325-7.999l-9.635,9.634
		c11.674,9.136,25.965,14.101,41.022,14.101c17.834,0,34.605-6.944,47.22-19.559c12.611-12.615,19.556-29.383,19.556-47.221
		c0-15.057-4.967-29.342-14.097-41.021L224.497,186.204z"/>
	<path style="fill:#FFFFFF;" d="M178.385,189.683c4.002,1.826,8.088,4.26,12.111,7.212l14.822-14.818l-12.723-6.887
		c-5.726-3.099-14.257-2.016-18.632,2.359c-2.568,2.569-3.529,6.118-2.941,9.452c0.359,0.102,0.707,0.172,1.072,0.28
		c-2.742,5.064-6.478,10.076-10.931,14.53c-4.523,4.516-9.52,8.198-14.531,10.906c-0.362-1.194-0.649-2.361-0.898-3.514
		c-2.368,0.241-4.666,1.243-6.477,3.054c-4.374,4.375-5.457,12.907-2.361,18.627l6.881,12.727l12.473-12.472
		c-2.959-4.023-5.398-8.117-7.224-12.128c5.826-3.038,11.593-7.242,16.844-12.494C171.075,201.314,175.318,195.583,178.385,189.683"
		/>
	<path style="fill:#FFFFFF;" d="M298.232,73.512c1.097-3.521-0.862-7.264-4.381-8.363l-47.942-14.964
		c-3.521-1.1-7.265,0.865-8.363,4.383l-5.607,17.977l60.683,18.943L298.232,73.512z M287.617,86.807
		c-0.346,0-0.703-0.055-1.051-0.163c-1.863-0.579-2.899-2.562-2.317-4.422l3.634-11.646c0.58-1.862,2.564-2.909,4.423-2.32
		c1.861,0.581,2.899,2.561,2.319,4.424l-3.633,11.645C290.519,85.836,289.122,86.807,287.617,86.807"/>
</g>
</svg>
