<?xml version="1.0" encoding="iso-8859-1"?>
<!-- Generator: Adobe Illustrator 25.4.1, SVG Export Plug-In . SVG Version: 6.00 Build 0)  -->
<svg version="1.1" id="Calque_1" xmlns="http://www.w3.org/2000/svg" xmlns:xlink="http://www.w3.org/1999/xlink" x="0px" y="0px"
	 viewBox="0 0 368.5 368.5" style="enable-background:new 0 0 368.5 368.5;" xml:space="preserve">
<g>
	<path style="fill:#FFFFFF;" d="M231.455,241.241l-13.003-5.254c-1.178-0.476-2.1-1.382-2.597-2.551
		c-0.496-1.17-0.507-2.462-0.031-3.639c0.732-1.808,2.462-2.977,4.411-2.977c0.609,0,1.207,0.117,1.78,0.348l9.44,3.814v-3.235
		l-8.316-3.36c-0.931-0.376-1.908-0.567-2.904-0.567c-3.178,0-6.001,1.904-7.192,4.853c-0.777,1.92-0.759,4.028,0.051,5.935
		s2.314,3.385,4.235,4.16l14.126,5.709V241.241z"/>
	<path style="fill:#FFFFFF;" d="M201.496,186.979c-0.126,0.042-0.246,0.094-0.361,0.154c-0.053,0.028-0.1,0.062-0.151,0.093
		c-0.059,0.037-0.122,0.071-0.177,0.112c-0.051,0.037-0.094,0.081-0.141,0.121c-0.051,0.043-0.103,0.083-0.149,0.129
		c-0.044,0.044-0.08,0.094-0.12,0.14c-0.043,0.05-0.088,0.098-0.128,0.151c-0.035,0.049-0.063,0.102-0.094,0.154
		c-0.036,0.056-0.074,0.111-0.105,0.17c-0.028,0.055-0.049,0.114-0.073,0.171c-0.026,0.06-0.055,0.119-0.075,0.181
		c-0.021,0.062-0.033,0.127-0.049,0.191c-0.016,0.061-0.034,0.121-0.045,0.183c-0.012,0.069-0.015,0.138-0.021,0.208
		c-0.004,0.055-0.014,0.107-0.015,0.162c0,0.008,0.001,0.015,0.001,0.022c0,0.01-0.002,0.018-0.002,0.028v70.945
		c0,0.944,0.53,1.807,1.372,2.232l30.292,15.318v-5.602l-26.664-13.484v-65.782l26.664,10.148v-5.351l-21.745-8.275l23.087-7.744
		l3.81,1.45l12.188-4.171l0.003-0.386l0.533,0.203l7.401-2.533l-2.989-1.138l23.087-7.744l2.774,1.056l7.402-2.533l-9.235-3.514
		c-0.154-0.06-0.314-0.098-0.475-0.125c-0.042-0.007-0.083-0.009-0.126-0.014c-0.139-0.015-0.276-0.02-0.416-0.013
		c-0.047,0.002-0.094,0.004-0.141,0.009c-0.178,0.019-0.354,0.051-0.525,0.109l-30.559,10.251c-0.015,0.005-0.03,0.014-0.047,0.019
		c-0.033,0.012-0.063,0.028-0.096,0.042c-0.074,0.029-0.15,0.057-0.219,0.093c-0.044,0.023-0.084,0.054-0.127,0.079
		c-0.024,0.015-0.047,0.028-0.069,0.043c-0.019,0.012-0.039,0.018-0.058,0.03c-0.009,0.006-0.015,0.015-0.023,0.021
		c-0.017,0.011-0.035,0.02-0.051,0.032c-0.046,0.034-0.086,0.075-0.129,0.111c-0.054,0.046-0.11,0.09-0.16,0.14
		c-0.021,0.02-0.038,0.045-0.058,0.066c-0.026,0.029-0.049,0.058-0.074,0.087c-0.038,0.046-0.08,0.089-0.115,0.137
		c-0.036,0.049-0.065,0.104-0.097,0.155c-0.024,0.038-0.05,0.075-0.071,0.115c-0.006,0.011-0.015,0.021-0.021,0.034
		c-0.004,0.006-0.007,0.012-0.011,0.019c-0.029,0.057-0.049,0.116-0.074,0.175c-0.025,0.06-0.054,0.116-0.074,0.178
		c-0.014,0.04-0.021,0.082-0.033,0.123c-0.01,0.038-0.02,0.076-0.029,0.114c-0.01,0.046-0.024,0.09-0.032,0.137
		c-0.011,0.068-0.014,0.138-0.02,0.208c-0.005,0.055-0.015,0.107-0.016,0.162c0,0.006,0.001,0.012,0.001,0.017
		c0,0.004-0.002,0.009-0.002,0.015l-0.04,5.572l-10.046-3.822c-0.154-0.059-0.312-0.098-0.472-0.124
		c-0.045-0.008-0.09-0.01-0.134-0.015c-0.137-0.015-0.273-0.02-0.409-0.013c-0.049,0.003-0.096,0.004-0.143,0.01
		c-0.178,0.019-0.355,0.05-0.525,0.108L201.496,186.979z"/>
	<polygon style="fill:#FFFFFF;" points="236.455,188.54 236.455,299.617 242.717,302.849 242.717,190.246 324.299,162.331 
		318.977,160.302 	"/>
	<path style="fill:#FFFFFF;" d="M327.786,275.524V166.423l-80.07,27.397v109.103L327.786,275.524z M271.979,207.715
		c0-1.065,0.676-2.014,1.683-2.362l27.822-9.631c0.238-0.084,0.486-0.115,0.734-0.123c0.535-0.049,1.08,0.071,1.546,0.36
		c0.64,0.396,1.067,1.059,1.163,1.805l7.333,56.913c0.142,0.194,0.26,0.407,0.342,0.641c0.361,1.028,0.015,2.173-0.856,2.827
		l-7.943,5.967c-0.003,0.002-0.006,0.003-0.009,0.005c-0.201,0.15-0.428,0.273-0.675,0.358l-27.823,9.631
		c-0.268,0.093-0.545,0.138-0.817,0.138c-0.003,0-0.006-0.001-0.009-0.001c-0.199,0-0.395-0.031-0.589-0.079
		c-0.032-0.008-0.063-0.014-0.094-0.023c-0.183-0.052-0.358-0.128-0.526-0.221c-0.034-0.02-0.066-0.039-0.099-0.06
		c-0.044-0.027-0.09-0.049-0.133-0.079c-0.073-0.053-0.131-0.121-0.198-0.18c-0.063-0.056-0.128-0.108-0.187-0.171
		c-0.107-0.118-0.197-0.249-0.281-0.384c-0.026-0.041-0.061-0.072-0.084-0.115c-0.005-0.008-0.007-0.017-0.012-0.027
		c-0.014-0.026-0.022-0.056-0.035-0.083c-0.067-0.137-0.119-0.277-0.158-0.42c-0.013-0.049-0.024-0.098-0.034-0.147
		c-0.029-0.142-0.046-0.284-0.051-0.427c-0.001-0.028-0.01-0.055-0.01-0.083V207.715z"/>
	<polygon style="fill:#FFFFFF;" points="276.979,266.66 279.454,264.753 276.979,245.544 	"/>
	<polygon style="fill:#FFFFFF;" points="300.361,201.451 277.365,209.411 284.204,262.489 297.874,257.758 307.2,254.53 	"/>
	<path style="fill:#FFFFFF;" d="M122.168,227.32l6.537,2.765c0.127,0.054,0.26,0.079,0.39,0.079c0.39,0,0.76-0.229,0.921-0.61
		c0.215-0.51-0.023-1.096-0.531-1.311l-4.458-1.885l40.939-13.786c1.018-0.343,1.702-1.296,1.702-2.37V123.68l10.296,4.026
		c0.12,0.046,0.243,0.069,0.364,0.069c0.4,0,0.778-0.242,0.932-0.636c0.201-0.515-0.053-1.095-0.567-1.295l-11.025-4.311V74.585
		c0-0.804-0.388-1.56-1.041-2.03c-0.333-0.239-0.716-0.387-1.11-0.442l-11.255-6.223c-0.613-0.339-1.343-0.406-2.008-0.182
		L42.416,102.695c-1.017,0.342-1.702,1.295-1.702,2.369v135.617c0,0.936,0.523,1.794,1.355,2.223l11.296,5.814
		c0.146,0.187,0.309,0.36,0.505,0.501c0.431,0.31,0.943,0.47,1.459,0.47c0.268,0,0.537-0.043,0.798-0.131L122.168,227.32z
		 M57.829,243.709V113.367l104.839-35.301v130.34L57.829,243.709z M55.521,108.869l-6.047-3.275l103.332-34.796l5.971,3.302
		L55.521,108.869z M45.714,109.243l7.115,3.855v129.721l-7.115-3.663V109.243z"/>
	<path style="fill:#FFFFFF;" d="M76.387,212.945c1.057,0,2.136-0.196,3.19-0.577l3.988-1.375l0.933,0.394
		c0.127,0.054,0.259,0.08,0.389,0.08c0.39,0,0.76-0.23,0.921-0.611c0.09-0.214,0.085-0.438,0.029-0.646l55.04-18.98
		c8.251-3.164,12.263-7.927,12.263-14.564v-53.207c0-1.965-0.299-3.974-0.909-5.816l3.382,1.324c0.12,0.046,0.243,0.069,0.364,0.069
		c0.4,0,0.777-0.242,0.932-0.637c0.201-0.514-0.053-1.093-0.568-1.295l-5.269-2.061c-1.621-2.824-4.215-4.815-7.897-4.815
		c-1.033,0-2.128,0.164-3.325,0.512l-61.308,21.142c-8.017,3.13-12.255,8.164-12.255,14.559v54.139
		C66.287,206.552,70.345,212.945,76.387,212.945 M69.287,146.441c0-6.385,5.626-9.922,10.29-11.744l61.179-21.098
		c0.218-0.063,0.424-0.095,0.636-0.142c0.565,1.557,0.887,3.352,0.887,5.164v53.209c0,5.32-3.285,9.057-10.29,11.745l-61.275,21.127
		c-0.192,0.069-0.386,0.13-0.58,0.183c-0.547-1.353-0.847-2.845-0.847-4.305V146.441z M150.14,123.459v53.207
		c0,5.321-3.285,9.06-10.29,11.746l-57.59,19.857l-5.7-2.41l56.455-19.466c8.252-3.165,12.264-7.928,12.264-14.563v-53.209
		c0-1.791-0.266-3.587-0.744-5.227c0.439,0.102,0.852,0.241,1.23,0.432c-0.038,0.057-0.086,0.106-0.111,0.172
		c-0.201,0.514,0.053,1.095,0.567,1.296l1.941,0.759C149.644,118.306,150.14,121.408,150.14,123.459 M71.69,207.538
		c0.009-0.003,0.017-0.005,0.025-0.008l3.005-1.036c-0.037,0.42,0.183,0.836,0.593,1.009l4.119,1.742l-0.854,0.295
		c-0.746,0.269-1.483,0.405-2.191,0.405C74.504,209.945,72.898,208.991,71.69,207.538"/>
	<path style="fill:#FFFFFF;" d="M127.788,207.533c-0.269-3.813-3.06-6.476-6.786-6.476c-0.815,0-1.642,0.133-2.455,0.393
		l-15.5,4.951c-3.55,1.134-6.111,4.338-6.616,7.862l-0.103-0.043c-0.507-0.215-1.095,0.022-1.31,0.531
		c-0.215,0.509,0.022,1.096,0.531,1.31l0.842,0.356c0.016,0.161,0.028,0.323,0.053,0.484c0.523,3.812,3.259,6.373,6.81,6.373
		c0.797,0,1.611-0.131,2.42-0.39l15.501-4.95C125.42,216.578,128.321,211.977,127.788,207.533 M103.959,209.258l14.446-4.614
		c-0.035,2.826-1.937,5.612-4.559,6.45l-14.193,4.532l-0.307-0.13C99.374,212.785,101.283,210.114,103.959,209.258 M100.97,218.354
		l3.885,1.643l-0.094,0.03c-0.513,0.164-1.021,0.247-1.507,0.247c-1.318,0-2.392-0.607-3.079-1.666L100.97,218.354z
		 M107.676,219.096c-0.085-0.081-0.181-0.154-0.296-0.202l-3.484-1.474l10.863-3.469c4.052-1.294,6.871-5.546,6.649-9.858
		c1.922,0.175,3.241,1.564,3.395,3.723c0.369,3.086-1.668,6.343-4.54,7.26L107.676,219.096z"/>
	<path style="fill:#FFFFFF;" d="M102.234,119.099c0.796,0,1.612-0.131,2.42-0.39l15.5-4.949c4.245-1.356,7.147-5.957,6.613-10.404
		c-0.27-3.811-3.06-6.472-6.785-6.472c-0.816,0-1.643,0.131-2.456,0.392l-15.5,4.951c-4.425,1.411-7.323,6.038-6.603,10.499
		C95.945,116.538,98.682,119.099,102.234,119.099 M119.241,110.902l-15.499,4.95c-0.514,0.164-1.021,0.247-1.508,0.247
		c-1.319,0-2.392-0.606-3.08-1.665l14.584-4.658c4.049-1.294,6.87-5.545,6.649-9.858c1.922,0.175,3.24,1.564,3.394,3.723
		C124.151,106.727,122.114,109.985,119.241,110.902 M117.384,100.47c-0.037,2.825-1.939,5.61-4.56,6.448l-14.498,4.631
		c-0.081-2.787,1.86-5.587,4.612-6.465L117.384,100.47z"/>
	<path style="fill:#FFFFFF;" d="M256.196,158.299l11.176,4.371c0.12,0.046,0.243,0.069,0.364,0.069c0.399,0,0.777-0.242,0.932-0.637
		c0.201-0.514-0.053-1.093-0.568-1.295l-11.176-4.37c-0.515-0.202-1.094,0.053-1.295,0.567
		C255.427,157.518,255.681,158.098,256.196,158.299"/>
	<path style="fill:#FFFFFF;" d="M233.844,149.558l11.176,4.37c0.12,0.047,0.243,0.069,0.364,0.069c0.399,0,0.777-0.241,0.932-0.636
		c0.201-0.514-0.053-1.094-0.568-1.295l-11.175-4.37c-0.517-0.201-1.095,0.052-1.296,0.567
		C233.075,148.777,233.329,149.357,233.844,149.558"/>
	<path style="fill:#FFFFFF;" d="M189.14,132.077l11.176,4.37c0.12,0.047,0.243,0.069,0.364,0.069c0.399,0,0.777-0.241,0.932-0.635
		c0.201-0.515-0.053-1.095-0.568-1.296l-11.175-4.37c-0.516-0.203-1.095,0.053-1.296,0.567
		C188.371,131.296,188.625,131.876,189.14,132.077"/>
	<path style="fill:#FFFFFF;" d="M211.493,140.817l11.176,4.371c0.12,0.047,0.243,0.069,0.364,0.069c0.399,0,0.777-0.242,0.932-0.636
		c0.201-0.515-0.053-1.094-0.568-1.296l-11.175-4.369c-0.516-0.202-1.096,0.052-1.296,0.566
		C210.724,140.037,210.978,140.617,211.493,140.817"/>
	<path style="fill:#FFFFFF;" d="M183.966,253.458l11.052,4.674c0.127,0.054,0.259,0.08,0.389,0.08c0.39,0,0.76-0.23,0.921-0.611
		c0.215-0.509-0.022-1.096-0.531-1.31l-11.052-4.674c-0.508-0.215-1.095,0.022-1.31,0.531
		C183.22,252.657,183.457,253.243,183.966,253.458"/>
	<path style="fill:#FFFFFF;" d="M162.641,242.267c-0.507-0.215-1.096,0.023-1.311,0.531c-0.214,0.509,0.023,1.096,0.532,1.311
		l11.052,4.674c0.126,0.053,0.259,0.08,0.389,0.08c0.39,0,0.76-0.23,0.921-0.611c0.215-0.509-0.022-1.095-0.531-1.31
		L162.641,242.267z"/>
	<path style="fill:#FFFFFF;" d="M140.537,232.918c-0.508-0.215-1.096,0.023-1.311,0.531c-0.214,0.509,0.023,1.095,0.532,1.311
		l11.052,4.674c0.127,0.054,0.26,0.08,0.39,0.08c0.39,0,0.76-0.229,0.921-0.611c0.215-0.509-0.023-1.096-0.531-1.311
		L140.537,232.918z"/>
</g>
</svg>
