<?xml version="1.0" encoding="iso-8859-1"?>
<!-- Generator: Adobe Illustrator 25.4.1, SVG Export Plug-In . SVG Version: 6.00 Build 0)  -->
<svg version="1.1" id="Calque_1" xmlns="http://www.w3.org/2000/svg" xmlns:xlink="http://www.w3.org/1999/xlink" x="0px" y="0px"
	 viewBox="0 0 368.5 368.5" style="enable-background:new 0 0 368.5 368.5;" xml:space="preserve">
<g>
	<path style="fill:#FFFFFF;" d="M159.635,195.575h161.273c1.498,0,2.92-0.66,3.885-1.8c0.965-1.139,1.383-2.644,1.134-4.12
		L305.245,64.67c-0.405-2.46-2.527-4.261-5.017-4.261H180.309c-2.49,0-4.615,1.801-5.019,4.261l-20.677,124.985
		c-0.244,1.476,0.169,2.981,1.136,4.12C156.714,194.915,158.136,195.575,159.635,195.575"/>
	<path style="fill:#FFFFFF;" d="M229.595,231.827h-35.823v15.744h43.695c4.346,0,7.867-3.524,7.867-7.872V204.26h-15.739V231.827z"
		/>
	<path style="fill:#FFFFFF;" d="M157.306,267.813v-15.744H83.704c0.267,2.605,0.429,5.231,0.429,7.873
		c0,2.64-0.162,5.262-0.429,7.871H157.306z"/>
	<path style="fill:#FFFFFF;" d="M184.511,227.098h-17.945c-0.981,0-1.786,0.8-1.786,1.786v33.752
		c0,5.928,4.825,10.756,10.753,10.756c5.933,0,10.765-4.828,10.765-10.756v-33.752C186.298,227.898,185.491,227.098,184.511,227.098
		"/>
	<path style="fill:#FFFFFF;" d="M45.507,307.519c0.762,0.384,1.587,0.576,2.411,0.576c1.141,0,2.274-0.364,3.224-1.074
		c14.796-11.041,23.636-28.643,23.636-47.078c0-18.441-8.84-36.042-23.636-47.086c-0.95-0.707-2.083-1.07-3.224-1.07
		c-0.824,0-1.649,0.186-2.411,0.571c-1.826,0.913-2.974,2.778-2.974,4.816v85.532C42.533,304.744,43.681,306.604,45.507,307.519"/>
</g>
</svg>
