<?xml version="1.0" encoding="iso-8859-1"?>
<!-- Generator: Adobe Illustrator 25.4.1, SVG Export Plug-In . SVG Version: 6.00 Build 0)  -->
<svg version="1.1" id="Calque_1" xmlns="http://www.w3.org/2000/svg" xmlns:xlink="http://www.w3.org/1999/xlink" x="0px" y="0px"
	 viewBox="0 0 368.5 368.5" style="enable-background:new 0 0 368.5 368.5;" xml:space="preserve">
<g>
	<path style="fill:#FFFFFF;" d="M47.822,263.922h76.895c2.92,0,5.289-2.37,5.289-5.292V109.871c0-2.92-2.369-5.289-5.289-5.289
		H47.822c-2.921,0-5.289,2.369-5.289,5.289V258.63C42.533,261.552,44.901,263.922,47.822,263.922 M113.763,182.1
		c2.951,0,5.346,2.395,5.346,5.348c0,2.952-2.395,5.344-5.346,5.344c-2.953,0-5.346-2.392-5.346-5.344
		C108.417,184.495,110.81,182.1,113.763,182.1 M67.439,159.953l29.894-36.934c1.18-1.454,3.318-1.683,4.771-0.505
		c1.455,1.181,1.681,3.318,0.504,4.772l-29.896,36.935c-0.673,0.827-1.652,1.256-2.641,1.256c-0.748,0-1.502-0.247-2.132-0.754
		C66.484,163.544,66.259,161.407,67.439,159.953 M52.493,205.289l29.899-36.929c1.179-1.456,3.314-1.679,4.771-0.503
		c1.459,1.179,1.68,3.316,0.502,4.772l-29.897,36.928c-0.667,0.829-1.649,1.259-2.637,1.259c-0.752,0-1.505-0.246-2.133-0.755
		C51.54,208.883,51.317,206.745,52.493,205.289"/>
	<path style="fill:#FFFFFF;" d="M228.003,109.871c0-2.921-2.371-5.289-5.289-5.289h-76.893c-2.922,0-5.29,2.368-5.29,5.289V258.63
		c0,2.923,2.368,5.292,5.29,5.292h76.893c2.918,0,5.289-2.369,5.289-5.292V109.871z M156.324,192.791
		c-2.952,0-5.347-2.391-5.347-5.343c0-2.953,2.395-5.349,5.347-5.349c2.952,0,5.347,2.396,5.347,5.349
		C161.671,190.4,159.276,192.791,156.324,192.791 M201.847,208.53l-29.884,36.93c-0.672,0.828-1.651,1.259-2.637,1.259
		c-0.75,0-1.506-0.248-2.136-0.755c-1.453-1.181-1.68-3.316-0.502-4.774l29.886-36.928c1.177-1.455,3.312-1.683,4.771-0.502
		C202.799,204.937,203.022,207.073,201.847,208.53"/>
	<path style="fill:#FFFFFF;" d="M251.402,219.893c-1.289,0-2.335,1.044-2.335,2.332v14.165c0,1.292,1.046,2.333,2.335,2.333
		c1.285,0,2.33-1.041,2.33-2.333v-14.165C253.732,220.937,252.687,219.893,251.402,219.893"/>
	<path style="fill:#FFFFFF;" d="M320.709,104.584h-76.892c-2.921,0-5.289,2.367-5.289,5.287v148.757
		c0,2.922,2.368,5.293,5.289,5.293h76.892c2.921,0,5.289-2.371,5.289-5.293V109.871C325.998,106.951,323.63,104.584,320.709,104.584
		 M312.338,248.793c0,2.021-1.642,3.662-3.664,3.662h-25.679c-2.025,0-3.665-1.641-3.665-3.662c0-2.027,1.64-3.669,3.665-3.669
		h25.679C310.696,245.124,312.338,246.766,312.338,248.793 M253.92,191.051h26.364c5.474,0,9.928,4.452,9.928,9.926
		c0,1.29-1.043,2.336-2.33,2.336c-1.29,0-2.333-1.046-2.333-2.336c0-2.899-2.361-5.264-5.265-5.264H253.92
		c-1.289,0-2.332-1.045-2.332-2.332S252.631,191.051,253.92,191.051 M270.778,204.565c1.107,0,2.011,0.903,2.011,2.009v0.292
		c0,1.108-0.904,2.007-2.011,2.007h-12.272c-1.107,0-2.007-0.899-2.007-2.007v-0.292c0-1.106,0.9-2.009,2.007-2.009H270.778z
		 M259.404,202.471v-2.978c0-0.482,0.391-0.873,0.873-0.873h8.73c0.483,0,0.875,0.391,0.875,0.873v2.978H259.404z M268.673,258.671
		h-22.272c-1.81,0-3.273-1.464-3.273-3.273c0-0.079,0.017-0.152,0.024-0.228h-0.024v-34.209c0-5.149,4.177-9.325,9.328-9.325h23.636
		c5.151,0,9.327,4.176,9.327,9.325v22.016h-2.424c-2.247,0-4.176,1.284-5.144,3.149h-5.137c-2.431,0-4.409,1.976-4.409,4.41
		l-0.003,6.39C268.302,257.53,268.433,258.123,268.673,258.671 M320.189,258.158c-0.324,0.33-2.514,0.513-2.978,0.513h-44.498
		c-0.465,0-0.905-0.183-1.235-0.513c-0.325-0.325-0.51-0.767-0.51-1.232l0.001-6.39c0-0.963,0.781-1.743,1.745-1.743h4.463
		c0,3.21,2.605,5.814,5.818,5.814h25.679c3.211,0,5.818-2.604,5.818-5.814h4.462c0.963,0,1.745,0.777,1.745,1.743l0.003,6.39
		C320.702,257.388,320.516,257.832,320.189,258.158"/>
</g>
</svg>
