<?xml version="1.0" encoding="iso-8859-1"?>
<!-- Generator: Adobe Illustrator 25.4.1, SVG Export Plug-In . SVG Version: 6.00 Build 0)  -->
<svg version="1.1" id="Calque_1" xmlns="http://www.w3.org/2000/svg" xmlns:xlink="http://www.w3.org/1999/xlink" x="0px" y="0px"
	 viewBox="0 0 368.5 368.5" style="enable-background:new 0 0 368.5 368.5;" xml:space="preserve">
<g>
	<path style="fill:#FFFFFF;" d="M57.198,129.241c0.345-0.591,0.604-1.247,0.763-1.908c0.463-1.887,0.162-3.839-0.846-5.501
		c-1.012-1.669-2.612-2.838-4.493-3.303c-0.567-0.136-1.141-0.206-1.717-0.206c-2.609,0-5.034,1.399-6.329,3.651
		c-0.345,0.591-0.597,1.23-0.767,1.908c-0.464,1.889-0.158,3.853,0.862,5.52c1.018,1.663,2.606,2.827,4.474,3.274
		C52.31,133.451,55.622,131.985,57.198,129.241"/>
	<path style="fill:#FFFFFF;" d="M76.971,140.605c-0.342,0.589-0.593,1.218-0.765,1.922c-0.46,1.896-0.151,3.853,0.873,5.522
		c1.017,1.655,2.597,2.811,4.46,3.252c3.931,0.97,7.926-1.603,8.833-5.359c0.939-3.897-1.453-7.838-5.332-8.776
		c-0.578-0.144-1.162-0.216-1.744-0.216C80.692,136.95,78.265,138.349,76.971,140.605"/>
	<path style="fill:#FFFFFF;" d="M122.004,166.494c0.334-0.589,0.595-1.247,0.766-1.931c0.938-3.881-1.46-7.827-5.35-8.773
		c-0.571-0.14-1.149-0.212-1.728-0.212c-2.603,0-5.025,1.399-6.322,3.651c-0.344,0.583-0.596,1.218-0.762,1.9
		c-0.468,1.897-0.166,3.861,0.853,5.53c1.018,1.665,2.607,2.825,4.476,3.266C117.136,170.71,120.423,169.239,122.004,166.494"/>
	<path style="fill:#FFFFFF;" d="M122.629,94.71c-0.591,0.34-1.137,0.771-1.625,1.281c-1.34,1.41-2.049,3.269-1.995,5.23
		c0.053,1.935,0.849,3.723,2.246,5.04c2.745,2.617,7.725,2.505,10.326-0.245c2.762-2.914,2.652-7.521-0.245-10.266
		c-1.36-1.312-3.148-2.025-5.044-2.025C124.998,93.725,123.735,94.063,122.629,94.71"/>
	<path style="fill:#FFFFFF;" d="M150.395,138.303c2.741-2.895,2.626-7.51-0.273-10.269c-1.356-1.302-3.141-2.011-5.036-2.011
		c-1.287,0-2.55,0.336-3.658,0.983c-0.588,0.333-1.122,0.758-1.616,1.265c-1.346,1.417-2.06,3.264-2.006,5.217
		c0.051,1.951,0.847,3.746,2.253,5.065c2.293,2.198,5.978,2.631,8.698,1.05C149.343,139.257,149.896,138.822,150.395,138.303"/>
	<path style="fill:#FFFFFF;" d="M185.119,77.675c-0.716,0.004-1.408,0.107-2.083,0.307c-1.858,0.556-3.404,1.813-4.333,3.536
		c-0.922,1.71-1.121,3.661-0.567,5.491c0.895,3.033,3.874,5.227,7.088,5.227c0.675,0,1.344-0.097,1.988-0.288
		c3.842-1.15,6.045-5.203,4.902-9.029C191.219,79.824,188.345,77.675,185.119,77.675"/>
	<path style="fill:#FFFFFF;" d="M185.365,129.625c0.677-0.014,1.382-0.117,2.063-0.313c3.818-1.148,6.016-5.203,4.874-9.037
		c-0.892-3.083-3.758-5.224-6.973-5.224h-0.003c-0.741,0-1.401,0.097-2.071,0.291c-1.871,0.552-3.412,1.803-4.338,3.519
		c-0.927,1.719-1.13,3.678-0.571,5.516c0.905,3.099,3.779,5.248,6.987,5.248v2.369L185.365,129.625z"/>
	<path style="fill:#FFFFFF;" d="M247.72,94.041c-0.601-0.334-1.256-0.593-1.926-0.752c-0.548-0.132-1.118-0.198-1.685-0.198
		c-1.345,0-2.671,0.387-3.834,1.103c-1.654,1.024-2.798,2.616-3.233,4.477c-0.437,1.84-0.094,3.847,0.936,5.522
		c1.034,1.681,2.626,2.847,4.472,3.282c3.822,0.898,7.859-1.613,8.754-5.382C251.969,98.951,250.535,95.646,247.72,94.041"/>
	<path style="fill:#FFFFFF;" d="M222.065,139.218c0.603,0.334,1.263,0.595,1.944,0.762c0.521,0.118,1.08,0.184,1.639,0.184
		c3.395,0,6.314-2.298,7.099-5.59c0.765-3.138-0.667-6.433-3.48-8.03c-0.582-0.336-1.221-0.589-1.92-0.762
		c-0.547-0.132-1.126-0.198-1.697-0.198c-1.34,0-2.659,0.377-3.813,1.09c-1.659,1.03-2.809,2.627-3.243,4.498
		C217.835,134.325,219.266,137.623,222.065,139.218"/>
	<path style="fill:#FFFFFF;" d="M326.06,120.484c-0.339-0.575-0.772-1.115-1.281-1.601c-1.349-1.277-3.114-1.982-4.969-1.982
		l-0.254,0.004c-1.96,0.064-3.753,0.869-5.062,2.273c-2.224,2.357-2.629,5.93-0.995,8.688c0.344,0.592,0.788,1.148,1.295,1.626
		c1.35,1.274,3.119,1.976,4.982,1.976c2.032,0,3.915-0.812,5.303-2.285C327.298,126.847,327.7,123.274,326.06,120.484"/>
	<path style="fill:#FFFFFF;" d="M293.863,139.455c-0.352-0.583-0.793-1.137-1.304-1.621c-1.339-1.263-3.11-1.96-4.967-1.96
		l-0.258,0.004c-1.945,0.064-3.732,0.867-5.036,2.267c-1.299,1.378-1.999,3.288-1.943,5.252c0.061,1.974,0.858,3.779,2.241,5.077
		c2.828,2.643,7.631,2.499,10.271-0.305C295.099,145.826,295.504,142.245,293.863,139.455"/>
	<path style="fill:#FFFFFF;" d="M260.392,156.824c-1.358-1.277-3.129-1.984-4.986-1.984l-0.247,0.006
		c-1.945,0.06-3.739,0.87-5.055,2.283c-2.23,2.357-2.635,5.922-0.999,8.695c0.348,0.591,0.789,1.139,1.304,1.634
		c1.335,1.247,3.109,1.947,4.972,1.947c2.036,0,3.915-0.81,5.296-2.277c2.225-2.336,2.625-5.909,0.988-8.695
		C261.313,157.832,260.886,157.294,260.392,156.824"/>
	<path style="fill:#FFFFFF;" d="M155.349,164.129v13.935c0,3.321,2.69,6.016,6.01,6.016h46.391c3.324,0,6.017-2.695,6.017-6.016
		v-13.935c0-1.858-1.505-3.363-3.359-3.363h-51.696C156.853,160.766,155.349,162.271,155.349,164.129"/>
	<path style="fill:#FFFFFF;" d="M112.343,290.331c2.743,0,4.974-2.231,4.974-4.974v-23.25c0-2.743-2.231-4.974-4.974-4.974
		c-2.743,0-4.974,2.231-4.974,4.974v23.25C107.369,288.1,109.6,290.331,112.343,290.331"/>
	<path style="fill:#FFFFFF;" d="M89.757,290.331c2.743,0,4.974-2.231,4.974-4.974v-19.271c0-2.743-2.231-4.974-4.974-4.974
		c-2.743,0-4.974,2.231-4.974,4.974v19.271C84.783,288.1,87.014,290.331,89.757,290.331"/>
	<path style="fill:#FFFFFF;" d="M223.22,290.828c2.744,0,4.978-2.231,4.978-4.974v-23.25c0-2.743-2.234-4.974-4.978-4.974
		c-2.741,0-4.97,2.231-4.97,4.974v23.25C218.25,288.597,220.479,290.828,223.22,290.828"/>
	<path style="fill:#FFFFFF;" d="M245.805,261.61c-2.741,0-4.97,2.231-4.97,4.974v19.271c0,2.743,2.229,4.974,4.97,4.974
		c2.745,0,4.978-2.231,4.978-4.974v-19.271C250.783,263.841,248.55,261.61,245.805,261.61"/>
	<path style="fill:#FFFFFF;" d="M136.638,255.143c-2.743,0-4.974,2.231-4.974,4.974v25.24c0,2.743,2.231,4.974,4.974,4.974
		c2.743,0,4.974-2.231,4.974-4.974v-25.24C141.612,257.374,139.381,255.143,136.638,255.143"/>
	<path style="fill:#FFFFFF;" d="M159.223,255.143c-2.743,0-4.974,2.231-4.974,4.974v25.24c0,2.743,2.231,4.974,4.974,4.974
		c2.743,0,4.974-2.231,4.974-4.974v-25.24C164.197,257.374,161.966,255.143,159.223,255.143"/>
	<path style="fill:#FFFFFF;" d="M270.552,263.584c-2.741,0-4.97,2.231-4.97,4.974v17.281c0,2.744,2.229,4.974,4.97,4.974
		c2.745,0,4.978-2.23,4.978-4.974v-17.281C275.53,265.815,273.297,263.584,270.552,263.584"/>
	<path style="fill:#FFFFFF;" d="M191.094,285.854v-25.239c0-4.938,4.014-8.954,8.949-8.954c0.22,0,0.427,0.049,0.643,0.064v-8.714
		v-9.21v-36.023c0-3.319-2.695-6.008-6.014-6.008H174.44c-3.318,0-6.009,2.689-6.009,6.008v40.607v9.209v36.024
		c0,3.318,2.695,6.007,6.013,6.007h17.512C191.418,288.475,191.094,287.206,191.094,285.854"/>
	<path style="fill:#FFFFFF;" d="M200.044,255.641c-2.741,0-4.97,2.231-4.97,4.974v25.24c0,2.743,2.229,4.974,4.97,4.974
		c2.744,0,4.978-2.231,4.978-4.974v-25.24C205.022,257.872,202.788,255.641,200.044,255.641"/>
</g>
</svg>
