<?xml version="1.0" encoding="iso-8859-1"?>
<!-- Generator: Adobe Illustrator 25.4.1, SVG Export Plug-In . SVG Version: 6.00 Build 0)  -->
<svg version="1.1" id="Calque_1" xmlns="http://www.w3.org/2000/svg" xmlns:xlink="http://www.w3.org/1999/xlink" x="0px" y="0px"
	 viewBox="0 0 368.5 368.5" style="enable-background:new 0 0 368.5 368.5;" xml:space="preserve">
<polygon style="fill:#FFFFFF;" points="118.193,198.235 156.234,198.233 156.234,192.023 111.981,192.023 "/>
<g>
	<path style="fill:#FFFFFF;" d="M156.234,245.134l-66.462-66.455c-0.826,6.403-2.794,12.45-5.704,17.93l72.166,72.161V245.134z"/>
	<rect x="166.679" y="170.614" style="fill:#FFFFFF;" width="159.318" height="127.248"/>
	<path style="fill:#FFFFFF;" d="M166.68,166.436h159.317V146.14c0-41.63-33.869-75.497-75.499-75.497h-8.323
		c-41.628,0-75.495,33.867-75.495,75.497V166.436z M181.77,147.07c0-37.005,26.854-64.909,62.465-64.909h5.67
		c36.776,0,62.461,26.692,62.461,64.909v5.477c0,2.885-2.338,5.223-5.223,5.223h-120.15c-2.885,0-5.223-2.338-5.223-5.223V147.07z"
		/>
	<path style="fill:#FFFFFF;" d="M79.781,171.873v-0.806c0-21.649-16.284-39.569-37.248-42.15v85.104
		C63.497,211.44,79.781,193.522,79.781,171.873"/>
</g>
</svg>
