<?xml version="1.0" encoding="iso-8859-1"?>
<!-- Generator: Adobe Illustrator 25.4.1, SVG Export Plug-In . SVG Version: 6.00 Build 0)  -->
<svg version="1.1" id="Calque_1" xmlns="http://www.w3.org/2000/svg" xmlns:xlink="http://www.w3.org/1999/xlink" x="0px" y="0px"
	 viewBox="0 0 368.5 368.5" style="enable-background:new 0 0 368.5 368.5;" xml:space="preserve">
<g>
	<path style="fill:#FFFFFF;" d="M279.015,244.627c1.056,0,2.098,0.094,3.114,0.272l-26.021-110.855
		c-13.874-45.495-46.901-89.492-101.793-89.496c0,0-34.719-0.17-35.514,0.134c-25.547,0.96-45.958,22.314-45.964,48.083
		c0.006,26.39,21.391,47.779,47.777,47.789l31.257,0.036c24.671,0.048,44.628,20.005,44.668,44.673l0.006,32.896
		c5.121,3.711,9.918,7.839,14.332,12.349v-45.245c-0.004-32.595-26.412-58.997-58.996-59.015l-31.261-0.038
		c-18.469-0.033-33.41-14.98-33.439-33.445c0.029-18.458,14.97-33.833,33.433-33.863l33.701-0.018
		c20.775,0.004,41.574,8.408,55.194,22.018c13.618,13.624,25.268,33.038,32.261,53.149l26.733,113.885
		c1.945-1.365,4.159-2.343,6.547-2.873C276.354,244.774,277.689,244.627,279.015,244.627"/>
	<path style="fill:#FFFFFF;" d="M236.465,306.168c-1.07-56.946-47.721-102.948-104.913-102.948H70.206v37.465
		c3.349-0.755,6.826-1.167,10.4-1.167c26.059,0,47.261,21.201,47.261,47.261c0,6.907-1.502,13.467-4.176,19.389H236.465z"/>
	<path style="fill:#FFFFFF;" d="M117.624,286.78c0-20.413-16.606-37.02-37.019-37.02s-37.02,16.607-37.02,37.02
		c0,20.414,16.607,37.023,37.02,37.023S117.624,307.194,117.624,286.78 M80.605,267.839c10.443,0,18.939,8.497,18.939,18.941
		c0,10.447-8.496,18.944-18.939,18.944s-18.941-8.497-18.941-18.944C61.664,276.336,70.162,267.839,80.605,267.839"/>
	<path style="fill:#FFFFFF;" d="M297.669,291.133l-6.831-30.851c-1.22-5.51-6.193-9.51-11.824-9.51c-0.88,0-1.766,0.098-2.636,0.29
		c-3.165,0.7-5.865,2.593-7.609,5.325c-1.742,2.732-2.315,5.977-1.612,9.139l5.671,25.607H297.669z"/>
	<path style="fill:#FFFFFF;" d="M313.688,297.278h-50.373c-7.369,0-13.366,5.995-13.366,13.363c0,7.368,5.997,13.362,13.366,13.362
		h50.373c7.367,0,13.362-5.994,13.362-13.362C327.05,303.273,321.055,297.278,313.688,297.278"/>
</g>
</svg>
