<?xml version="1.0" encoding="iso-8859-1"?>
<!-- Generator: Adobe Illustrator 25.4.1, SVG Export Plug-In . SVG Version: 6.00 Build 0)  -->
<svg version="1.1" id="Calque_1" xmlns="http://www.w3.org/2000/svg" xmlns:xlink="http://www.w3.org/1999/xlink" x="0px" y="0px"
	 viewBox="0 0 368.5 368.5" style="enable-background:new 0 0 368.5 368.5;" xml:space="preserve">
<g>
	<path style="fill:#FFFFFF;" d="M151.885,183.373l11.771-2.552c0.027-0.354,0.054-0.709,0.054-1.066v-5.421
		C160.635,177.723,156.631,180.769,151.885,183.373"/>
	<path style="fill:#FFFFFF;" d="M72.717,200.536l34.665-7.516c-23.101-0.385-42.617-7.767-52.527-18.685v5.42
		C54.855,187.868,61.811,195.313,72.717,200.536"/>
	<path style="fill:#FFFFFF;" d="M61.463,147.379c-3.762,3.577-6.084,7.592-6.527,11.818c1.545,14.703,25.8,26.851,54.345,26.851
		s52.803-12.148,54.348-26.851c-0.48-4.565-3.159-8.88-7.469-12.667l0.808,7.167c0.015,0.13,0.022,0.261,0.022,0.392
		c0,14.842-25.41,25.932-48.129,25.932c-22.72,0-48.132-11.09-48.132-25.932c0-0.131,0.007-0.262,0.022-0.392L61.463,147.379z"/>
	<path style="fill:#FFFFFF;" d="M67.731,154.265c0.257,9.32,20.884,18.756,41.131,18.756c20.245,0,40.87-9.436,41.127-18.756
		l-6.518-57.876c-1.113-11.201-19.435-13.543-34.609-13.543c-15.032,0-33.239,2.356-34.616,13.578L67.731,154.265z M116.806,113.708
		c2.267-2.717,5.456-4.39,8.98-4.71c7.405-0.669,13.733,4.73,14.393,12.002l2.12,23.402c0.659,7.276-4.725,13.733-12.001,14.392
		c-0.405,0.037-0.808,0.055-1.208,0.055c-6.892,0-12.56-5.183-13.184-12.056l-2.12-23.404
		C113.467,119.865,114.539,116.426,116.806,113.708"/>
	<path style="fill:#FFFFFF;" d="M117.771,123.027l2.12,23.404c0.46,5.079,4.881,8.84,10.046,8.379
		c5.08-0.461,8.839-4.968,8.378-10.048l-2.12-23.403c-0.435-4.798-4.391-8.416-9.2-8.416c-0.281,0-0.563,0.012-0.847,0.038
		c-2.461,0.223-4.688,1.391-6.27,3.288C118.294,118.167,117.546,120.567,117.771,123.027"/>
	<path style="fill:#FFFFFF;" d="M150.677,78.978c0,1.202,0.468,2.333,1.318,3.183c0.851,0.85,1.981,1.318,3.182,1.318
		c1.202,0,2.332-0.468,3.183-1.318l11.666-11.668c0.85-0.85,1.318-1.98,1.318-3.182s-0.468-2.332-1.318-3.182
		c-0.85-0.85-1.98-1.318-3.182-1.318c-1.201,0-2.331,0.468-3.182,1.318l-11.667,11.666
		C151.145,76.645,150.677,77.776,150.677,78.978"/>
	<path style="fill:#FFFFFF;" d="M126.068,68.27c0.453,0.147,0.923,0.223,1.395,0.223c1.953,0,3.672-1.25,4.277-3.111l5.1-15.692
		c0.371-1.143,0.276-2.362-0.27-3.433c-0.546-1.071-1.476-1.866-2.619-2.236c-0.453-0.148-0.922-0.223-1.393-0.223
		c-1.953,0-3.672,1.25-4.277,3.111L123.18,62.6C122.414,64.959,123.709,67.503,126.068,68.27"/>
	<path style="fill:#FFFFFF;" d="M47.276,70.493l11.667,11.668c0.851,0.85,1.98,1.318,3.183,1.318c1.201,0,2.331-0.468,3.181-1.318
		c0.851-0.85,1.319-1.98,1.319-3.183c0-1.202-0.468-2.333-1.319-3.182L53.64,64.13c-0.85-0.85-1.98-1.319-3.182-1.319
		s-2.331,0.469-3.182,1.319c-0.851,0.849-1.318,1.98-1.318,3.181C45.958,68.513,46.425,69.643,47.276,70.493"/>
	<path style="fill:#FFFFFF;" d="M80.731,46.256c-0.545,1.071-0.642,2.29-0.27,3.434l5.1,15.692c0.606,1.86,2.325,3.11,4.278,3.11
		c0.472,0,0.941-0.075,1.395-0.223c2.359-0.766,3.654-3.31,2.888-5.671l-5.102-15.69c-0.604-1.86-2.323-3.11-4.276-3.11
		c-0.472,0-0.941,0.075-1.394,0.222C82.207,44.391,81.277,45.185,80.731,46.256"/>
	<path style="fill:#FFFFFF;" d="M73.479,239.107l134.5,29.159v-3.123c0-4.223,3.435-7.658,7.657-7.658
		c0.242,0,0.485,0.025,0.722,0.075l25.744,5.427c3.871-4.077,10.739-6.907,19.106-7.595l-131.424-28.491L73.479,239.107z"/>
	<path style="fill:#FFFFFF;" d="M55.554,211.42c-6.426,1.395-10.522,7.758-9.128,14.186c1.181,5.448,6.076,9.404,11.64,9.404
		c0.848,0,1.705-0.093,2.544-0.274l161.261-34.959c-4.966-6.607-8.297-14.955-9.313-22.395L55.554,211.42z M64.222,227.22
		c-4.395,0-9.124-1.548-9.124-4.947c0-3.401,4.729-4.949,9.124-4.949s9.124,1.548,9.124,4.949
		C73.346,225.672,68.617,227.22,64.222,227.22"/>
	<path style="fill:#FFFFFF;" d="M219.229,172.771c0,8.842,5.051,20.974,12.433,27.456c-0.5-1.794-0.787-3.675-0.787-5.626v-70.1
		c0-11.592,9.432-21.023,21.025-21.023h37.971c11.593,0,21.025,9.431,21.025,21.023v70.1c0,1.951-0.289,3.832-0.788,5.626
		c7.382-6.482,12.434-18.614,12.434-27.456v-105.9c0-12.669-10.307-22.975-22.976-22.975h-57.362
		c-12.669,0-22.975,10.306-22.975,22.975V172.771z M297.859,96.238l9.776-36.754c0.498-1.868,2.42-2.978,4.282-2.483
		c1.868,0.497,2.98,2.415,2.483,4.282l-9.775,36.754c-0.417,1.567-1.833,2.602-3.381,2.602c-0.298,0-0.6-0.038-0.901-0.118
		C298.475,100.023,297.363,98.106,297.859,96.238 M227.834,57.001c1.864-0.497,3.785,0.614,4.282,2.482l9.775,36.755
		c0.496,1.868-0.616,3.785-2.484,4.283c-0.301,0.08-0.603,0.118-0.901,0.118c-1.548,0-2.964-1.035-3.381-2.602l-9.774-36.755
		C224.855,59.414,225.966,57.497,227.834,57.001"/>
	<path style="fill:#FFFFFF;" d="M289.871,208.626c7.733,0,14.024-6.292,14.024-14.025v-70.1c0-7.732-6.291-14.023-14.024-14.023
		H251.9c-7.733,0-14.025,6.291-14.025,14.023v70.1c0,7.733,6.292,14.025,14.025,14.025H289.871z"/>
	<path style="fill:#FFFFFF;" d="M265.211,262.228c-5.495,0-10.3,1.112-13.771,2.728l33.113,6.98c0.109-0.34,0.185-0.68,0.185-1.017
		C284.738,266.817,276.388,262.228,265.211,262.228"/>
	<path style="fill:#FFFFFF;" d="M287.449,324.078v-43.935c0-0.363-0.295-0.658-0.657-0.658c-0.242,0-0.484-0.025-0.722-0.075
		l-70.641-14.892c-0.261,0.087-0.45,0.335-0.45,0.625v43.935c0,0.362,0.294,0.657,0.657,0.657c0.242,0,0.484,0.025,0.721,0.075
		l70.642,14.892C287.26,324.615,287.449,324.368,287.449,324.078 M234.024,300.463c-4.034,0-7.193-4.746-7.193-10.805
		s3.159-10.805,7.193-10.805c4.033,0,7.192,4.746,7.192,10.805S238.057,300.463,234.024,300.463 M265.211,307.01
		c-4.033,0-7.192-4.746-7.192-10.804c0-6.059,3.159-10.806,7.192-10.806c4.033,0,7.192,4.747,7.192,10.806
		C272.403,302.264,269.244,307.01,265.211,307.01"/>
</g>
</svg>
