<?xml version="1.0" encoding="iso-8859-1"?>
<!-- Generator: Adobe Illustrator 25.4.1, SVG Export Plug-In . SVG Version: 6.00 Build 0)  -->
<svg version="1.1" id="Calque_1" xmlns="http://www.w3.org/2000/svg" xmlns:xlink="http://www.w3.org/1999/xlink" x="0px" y="0px"
	 viewBox="0 0 368.5 368.5" style="enable-background:new 0 0 368.5 368.5;" xml:space="preserve">
<polygon style="fill:#FFFFFF;" points="208.451,171.836 209.166,171.581 208.451,170.838 "/>
<polygon style="fill:#FFFFFF;" points="208.451,120.239 218.132,130.298 218.132,96.346 208.451,86.288 "/>
<polygon style="fill:#FFFFFF;" points="218.133,202.784 208.451,206.242 208.451,266.085 218.133,269.11 "/>
<polygon style="fill:#FFFFFF;" points="223.219,135.582 231.49,144.175 231.49,110.223 223.219,101.63 "/>
<polygon style="fill:#FFFFFF;" points="223.219,245.461 231.49,235.278 231.49,198.014 223.219,200.968 "/>
<polygon style="fill:#FFFFFF;" points="301.098,182.539 299.602,180.985 228.453,267.022 232.54,265.542 "/>
<polygon style="fill:#FFFFFF;" points="223.219,253.39 223.219,265.496 296.061,177.306 294.374,175.554 283.201,179.544 "/>
<g>
	<path style="fill:#FFFFFF;" d="M66.32,136.418l-2.433,0.871c-0.011,0.003-0.022,0.004-0.033,0.007
		c-0.088,0.031-0.179,0.052-0.27,0.072c-0.044,0.01-0.087,0.024-0.131,0.031c-0.134,0.022-0.271,0.035-0.408,0.035
		c-0.127,0-0.255-0.01-0.382-0.03c-0.045-0.007-0.088-0.021-0.132-0.03c-0.077-0.017-0.155-0.03-0.232-0.054l-5.66-1.769v184.391
		l9.681,3.024V136.418z"/>
	<polygon style="fill:#FFFFFF;" points="71.406,134.599 71.406,299.311 79.677,289.128 79.677,131.641 	"/>
	<polygon style="fill:#FFFFFF;" points="159.847,223.601 156.042,224.96 155.913,225.008 76.693,320.808 80.781,319.328 	"/>
	<path style="fill:#FFFFFF;" d="M143.388,229.325c-0.651,0-1.29-0.254-1.767-0.73c-0.015-0.016-0.023-0.036-0.038-0.051
		c-0.019-0.019-0.043-0.033-0.062-0.053l-3.333-3.464L71.46,307.175v12.105l75.113-90.938l-2.345,0.837
		C143.954,229.277,143.67,229.325,143.388,229.325"/>
	<polygon style="fill:#FFFFFF;" points="142.323,222.113 146.816,209.5 141.084,203.544 136.591,216.155 	"/>
	<path style="fill:#FFFFFF;" d="M230.008,193.233l-7.526-7.818l-29.146,10.422l5.117,5.315c0.096,0.101,0.168,0.218,0.246,0.33
		c0.035,0.051,0.079,0.095,0.11,0.148c0.111,0.19,0.197,0.391,0.255,0.601c0.005,0.02,0.003,0.04,0.008,0.06
		c0.047,0.19,0.074,0.385,0.075,0.584c0,0.072-0.017,0.142-0.023,0.213c-0.01,0.124-0.01,0.247-0.038,0.369
		c-0.007,0.025-0.021,0.047-0.028,0.073c-0.006,0.021-0.003,0.044-0.01,0.064l-0.229,0.779L230.008,193.233z"/>
	<path style="fill:#FFFFFF;" d="M290.572,171.603l-7.544-7.837l-11.222,4.012l-13.091,4.681l5.45,5.662
		c0.095,0.098,0.164,0.212,0.24,0.322c0.038,0.054,0.084,0.101,0.117,0.157c0.11,0.189,0.196,0.389,0.253,0.598
		c0.008,0.029,0.006,0.058,0.013,0.086c0.043,0.183,0.07,0.368,0.071,0.557c0,0.076-0.017,0.151-0.024,0.227
		c-0.01,0.12-0.01,0.239-0.037,0.356c-0.006,0.026-0.02,0.047-0.027,0.072c-0.006,0.022-0.004,0.045-0.01,0.067l-0.086,0.289
		L290.572,171.603z"/>
	<polygon style="fill:#FFFFFF;" points="157.103,208.793 151.764,210.702 147.504,222.7 164.609,216.591 	"/>
	<polygon style="fill:#FFFFFF;" points="273.576,153.946 249.239,162.615 254.911,168.508 279.225,159.815 	"/>
	<polygon style="fill:#FFFFFF;" points="144.613,199.882 150.456,205.854 153.297,204.838 147.527,198.844 	"/>
	<polygon style="fill:#FFFFFF;" points="212.971,175.533 183.796,185.925 189.531,191.883 218.678,181.462 	"/>
	<polygon style="fill:#FFFFFF;" points="179.836,90.511 206.227,81.073 206.227,62.678 166.633,76.795 	"/>
	<polygon style="fill:#FFFFFF;" points="227.222,55.192 237.536,65.908 237.536,51.515 	"/>
	<polygon style="fill:#FFFFFF;" points="101.207,100.123 114.46,113.892 145.71,102.716 145.71,84.256 	"/>
	<polygon style="fill:#FFFFFF;" points="79.999,126.215 79.999,107.685 66.247,112.588 65.659,131.345 	"/>
	<polygon style="fill:#FFFFFF;" points="192.858,206.904 184.16,210.026 180.699,221.743 189.398,218.621 	"/>
	<polygon style="fill:#FFFFFF;" points="96.04,101.966 86.652,105.313 182.799,205.202 192.172,201.838 	"/>
	<polygon style="fill:#FFFFFF;" points="60.545,131.534 60.545,112.827 49.413,109.349 49.413,128.055 	"/>
	<polygon style="fill:#FFFFFF;" points="63.737,108.174 232.123,48.136 223.535,45.533 55.15,105.572 	"/>
	<polygon style="fill:#FFFFFF;" points="175.726,220.93 179.311,208.788 84.998,110.805 84.998,126.672 	"/>
	<polygon style="fill:#FFFFFF;" points="315.627,173.911 319.087,162.194 310.388,165.316 306.928,177.033 	"/>
	<polygon style="fill:#FFFFFF;" points="222.133,57.114 212.76,60.477 221.681,69.745 309.029,160.49 318.4,157.127 	"/>
	<polygon style="fill:#FFFFFF;" points="301.955,176.218 305.54,164.077 211.227,66.094 211.227,81.961 	"/>
	<polygon style="fill:#FFFFFF;" points="246.41,198.711 255.109,195.589 258.57,183.872 249.87,186.994 	"/>
	<polygon style="fill:#FFFFFF;" points="215.905,148.295 248.511,182.169 257.884,178.807 161.616,78.793 152.244,82.156 	"/>
	<polygon style="fill:#FFFFFF;" points="241.437,197.897 245.022,185.755 150.709,87.772 150.709,103.639 	"/>
</g>
</svg>
