<?xml version="1.0" encoding="utf-8"?>
<!-- Generator: Adobe Illustrator 25.4.0, SVG Export Plug-In . SVG Version: 6.00 Build 0)  -->
<svg version="1.1" id="Calque_1" xmlns="http://www.w3.org/2000/svg" xmlns:xlink="http://www.w3.org/1999/xlink" x="0px" y="0px"
	 viewBox="0 0 368.5 368.5" style="enable-background:new 0 0 368.5 368.5;" xml:space="preserve">
<style type="text/css">
	.st0{fill:#FFFFFF;}
</style>
<g>
	<polygon class="st0" points="208.44,171.84 209.16,171.58 208.44,170.84 	"/>
	<polygon class="st0" points="208.44,120.24 218.13,130.3 218.13,96.35 208.44,86.29 	"/>
	<polygon class="st0" points="218.13,202.78 208.44,206.24 208.44,266.09 218.13,269.11 	"/>
	<polygon class="st0" points="223.21,135.58 231.48,144.17 231.48,110.22 223.21,101.63 	"/>
	<polygon class="st0" points="223.21,245.46 231.48,235.28 231.48,198.01 223.21,200.97 	"/>
	<polygon class="st0" points="301.09,182.54 299.6,180.98 228.45,267.02 232.53,265.54 	"/>
	<polygon class="st0" points="223.21,253.39 223.21,265.5 296.06,177.31 294.37,175.55 283.19,179.54 	"/>
	<path class="st0" d="M66.31,136.42l-2.43,0.87c-0.01,0-0.02,0-0.03,0.01c-0.09,0.03-0.18,0.05-0.27,0.07
		c-0.04,0.01-0.09,0.02-0.13,0.03c-0.13,0.02-0.27,0.03-0.41,0.03c-0.13,0-0.26-0.01-0.38-0.03c-0.04-0.01-0.09-0.02-0.13-0.03
		c-0.08-0.02-0.16-0.03-0.23-0.05l-5.66-1.77v184.39l9.68,3.02V136.42z"/>
	<polygon class="st0" points="71.4,134.6 71.4,299.31 79.67,289.13 79.67,131.64 	"/>
	<polygon class="st0" points="159.84,223.6 156.04,224.96 155.91,225.01 76.69,320.81 80.77,319.33 	"/>
	<path class="st0" d="M143.38,229.32c-0.65,0-1.29-0.25-1.77-0.73c-0.02-0.02-0.02-0.04-0.04-0.05c-0.02-0.02-0.04-0.03-0.06-0.05
		l-3.33-3.46l-66.73,82.15v12.11l75.11-90.94l-2.34,0.84C143.95,229.28,143.66,229.32,143.38,229.32z"/>
	<polygon class="st0" points="142.32,222.11 146.81,209.5 141.08,203.54 136.58,216.16 	"/>
	<path class="st0" d="M230,193.23l-7.53-7.82l-29.15,10.42l5.12,5.32c0.1,0.1,0.17,0.22,0.25,0.33c0.03,0.05,0.08,0.09,0.11,0.15
		c0.11,0.19,0.2,0.39,0.25,0.6c0,0.02,0,0.04,0.01,0.06c0.05,0.19,0.07,0.39,0.07,0.58c0,0.07-0.02,0.14-0.02,0.21
		c-0.01,0.12-0.01,0.25-0.04,0.37c-0.01,0.03-0.02,0.05-0.03,0.07c-0.01,0.02,0,0.04-0.01,0.06l-0.23,0.78L230,193.23z"/>
	<path class="st0" d="M290.56,171.6l-7.54-7.84l-11.22,4.01l-13.09,4.68l5.45,5.66c0.09,0.1,0.16,0.21,0.24,0.32
		c0.04,0.05,0.08,0.1,0.12,0.16c0.11,0.19,0.2,0.39,0.25,0.6c0.01,0.03,0.01,0.06,0.01,0.09c0.04,0.18,0.07,0.37,0.07,0.56
		c0,0.08-0.02,0.15-0.02,0.23c-0.01,0.12-0.01,0.24-0.04,0.36c-0.01,0.03-0.02,0.05-0.03,0.07c-0.01,0.02,0,0.04-0.01,0.07
		l-0.09,0.29L290.56,171.6z"/>
	<polygon class="st0" points="157.1,208.79 151.76,210.7 147.5,222.7 164.6,216.59 	"/>
	<polygon class="st0" points="273.57,153.95 249.23,162.61 254.9,168.51 279.22,159.82 	"/>
	<polygon class="st0" points="144.61,199.88 150.45,205.85 153.29,204.84 147.52,198.84 	"/>
	<polygon class="st0" points="212.96,175.53 183.79,185.92 189.52,191.88 218.67,181.46 	"/>
	<polygon class="st0" points="179.83,90.51 206.22,81.07 206.22,62.68 166.63,76.79 	"/>
	<polygon class="st0" points="227.22,55.19 237.53,65.91 237.53,51.51 	"/>
	<polygon class="st0" points="101.2,100.12 114.45,113.89 145.7,102.72 145.7,84.26 	"/>
	<polygon class="st0" points="79.99,126.22 79.99,107.68 66.24,112.59 65.65,131.34 	"/>
	<polygon class="st0" points="192.85,206.9 184.15,210.03 180.69,221.74 189.39,218.62 	"/>
	<polygon class="st0" points="96.03,101.97 86.64,105.31 182.79,205.2 192.17,201.84 	"/>
	<polygon class="st0" points="60.54,131.53 60.54,112.83 49.41,109.35 49.41,128.06 	"/>
	<polygon class="st0" points="63.73,108.17 232.12,48.14 223.53,45.53 55.14,105.57 	"/>
	<polygon class="st0" points="175.72,220.93 179.3,208.79 84.99,110.8 84.99,126.67 	"/>
	<polygon class="st0" points="315.62,173.91 319.08,162.19 310.38,165.32 306.92,177.03 	"/>
	<polygon class="st0" points="222.13,57.11 212.75,60.48 221.67,69.75 309.02,160.49 318.39,157.13 	"/>
	<polygon class="st0" points="301.95,176.22 305.53,164.08 211.22,66.09 211.22,81.96 	"/>
	<polygon class="st0" points="246.4,198.71 255.1,195.59 258.56,183.87 249.86,186.99 	"/>
	<polygon class="st0" points="215.9,148.29 248.5,182.17 257.88,178.81 161.61,78.79 152.24,82.16 	"/>
	<polygon class="st0" points="241.43,197.9 245.02,185.76 150.7,87.77 150.7,103.64 	"/>
</g>
</svg>
