<?xml version="1.0" encoding="iso-8859-1"?>
<!-- Generator: Adobe Illustrator 25.4.1, SVG Export Plug-In . SVG Version: 6.00 Build 0)  -->
<svg version="1.1" id="Calque_1" xmlns="http://www.w3.org/2000/svg" xmlns:xlink="http://www.w3.org/1999/xlink" x="0px" y="0px"
	 viewBox="0 0 368.5 368.5" style="enable-background:new 0 0 368.5 368.5;" xml:space="preserve">
<g>
	<path style="fill:#FFFFFF;" d="M234.551,139.687h69.256c-0.021-0.209-0.031-0.414-0.031-0.617l18.033-0.23l-87.258-64.294V139.687z
		"/>
	<path style="fill:#FFFFFF;" d="M227.5,139.687V71.772H45.03l84.853,63.531l5.816,3.882l23.573-0.115
		C159.272,139.275,227.5,139.687,227.5,139.687"/>
	<path style="fill:#FFFFFF;" d="M314.913,266.105h-13.845c-0.342,0-0.618,0.28-0.618,0.617v22.468c0,4.159,3.381,7.542,7.54,7.542
		s7.542-3.383,7.542-7.542v-22.468C315.532,266.385,315.254,266.105,314.913,266.105"/>
	<path style="fill:#FFFFFF;" d="M159.14,286.593v-22.47c0-0.339-0.278-0.617-0.617-0.617h-13.85c-0.341,0-0.619,0.278-0.619,0.617
		v22.47c0,4.159,3.385,7.542,7.544,7.542S159.14,290.752,159.14,286.593"/>
	<path style="fill:#FFFFFF;" d="M63.735,215.51l-13.85-11.79c-0.341,0-0.617,0.278-0.617,0.617v22.47c0,4.159,3.383,7.54,7.542,7.54
		s7.542-3.381,7.542-7.54v-10.68C64.352,215.788,64.076,215.51,63.735,215.51"/>
	<rect x="137.036" y="147.47" style="fill:#FFFFFF;" width="188.975" height="22.005"/>
	<rect x="137.036" y="176.853" style="fill:#FFFFFF;" width="188.975" height="22.007"/>
	<rect x="137.036" y="206.237" style="fill:#FFFFFF;" width="188.975" height="22.007"/>
	<polygon style="fill:#FFFFFF;" points="42.605,100.874 129.875,166.318 129.875,144.311 42.605,78.867 	"/>
	<polygon style="fill:#FFFFFF;" points="42.605,131.239 129.875,196.683 129.875,174.678 42.605,109.234 	"/>
	<polygon style="fill:#FFFFFF;" points="42.605,161.606 129.875,227.05 129.875,205.045 42.605,139.601 	"/>
	<path style="fill:#FFFFFF;" d="M137.036,246.627c0,6.076,4.926,11.002,11.002,11.002h166.971c6.075,0,11.002-4.926,11.002-11.002
		V235.62H137.036V246.627z"/>
	<path style="fill:#FFFFFF;" d="M42.605,180.754c-0.04,0.345-0.059,0.705-0.059,1.086c0,6.074,4.927,14.644,11.007,19.138
		l65.316,48.307c6.081,4.49,11.006,3.206,11.006-2.87v-11.006l-87.27-65.44V180.754z"/>
</g>
</svg>
