<?xml version="1.0" encoding="iso-8859-1"?>
<!-- Generator: Adobe Illustrator 25.4.1, SVG Export Plug-In . SVG Version: 6.00 Build 0)  -->
<svg version="1.1" id="Calque_1" xmlns="http://www.w3.org/2000/svg" xmlns:xlink="http://www.w3.org/1999/xlink" x="0px" y="0px"
	 viewBox="0 0 368.5 368.5" style="enable-background:new 0 0 368.5 368.5;" xml:space="preserve">
<g>
	<path style="fill:#FFFFFF;" d="M324.493,152.235c-1.3-2.841-4.002-5.349-7.073-6.587c-2.699-1.122-5.62-1.652-9.409-1.721
		c-2.453,0.034-5.12,0.261-8.139,0.709c-1.441,0.217-3.231,0.525-5.348,0.917l16.761,11.702c0.888,0.619,1.241,1.707,0.976,2.694
		c0.081,0.54,0.04,1.096-0.139,1.627c-0.465,1.384-1.115,2.869-1.88,4.294c-1.595,3.078-12.208,23.445-53.577,102.741l-1.955,3.749
		c-0.704,1.35-2.196,2.091-3.701,1.829l-200.701-34.74c-0.371-0.064-0.748-0.096-1.121-0.096c-3.163,0-5.852,2.268-6.393,5.394
		c-0.296,1.711,0.091,3.433,1.092,4.852s2.494,2.363,4.205,2.66l212.478,36.645c8.006-15.286,53.998-103.123,61.241-117.099
		c2.34-4.632,3.924-8.716,3.993-13.493C325.805,156.135,325.364,154.075,324.493,152.235"/>
	<path style="fill:#FFFFFF;" d="M108.064,201.559c13.856-3.303,92.111-21.946,121.411-28.714
		c17.736-4.094,32.578-7.442,44.115-9.952c12.999-2.833,22.583-4.75,26.985-5.399c0.664-0.099,1.312-0.185,1.947-0.259
		l-14.826-10.351c-7.161,1.449-16.745,3.518-29.133,6.283c-41.557,9.294-101.348,23.568-130.664,30.613
		c0.433,0.755,0.665,1.571,0.665,2.437c0,4.876-6.968,7.427-13.852,7.427c-6.883,0-13.853-2.551-13.853-7.427
		c0-2.738,2.352-4.992,6.157-6.273l-24.151-28.946c-1.612,0.316-3.353,0.487-5.145,0.487c-6.884,0-13.853-2.551-13.853-7.428
		c0-3.36,3.311-5.614,7.622-6.692l-18.405-22.059c-1.395-1.636-3.301-2.73-5.096-2.957c-0.169,0.021-0.333,0.053-0.488,0.095
		c-0.494,0.134-0.995,0.143-1.477,0.064c-0.997,0.366-1.302,1.119-1.421,1.418c-1.769,4.677,0.356,11.335,6.171,19.199
		L108.064,201.559z"/>
	<path style="fill:#FFFFFF;" d="M230.223,264.502l20.011,3.464l1.173-2.249c8.223-15.763,15.226-29.186,21.187-40.613
		l-48.799-44.781c-13.105,3.055-31.697,7.445-50.194,11.826l41.772,53.279l29.111-8.683c0.798-0.235,1.631,0.216,1.867,1.009
		c0.237,0.794-0.215,1.63-1.009,1.866l-27.98,8.346l12.637,16.118C230.101,264.213,230.17,264.355,230.223,264.502"/>
	<polygon style="fill:#FFFFFF;" points="160.678,250.763 156.801,251.793 162.38,252.759 	"/>
	<path style="fill:#FFFFFF;" d="M107.351,207.897c-0.931,0.22-1.902-0.106-2.51-0.842l-15.794-19.172l-38.988,45.5
		c0.426,0.03,0.851,0.081,1.271,0.154l51.315,8.882l42.529-9.84l-23.877-28.004C112.893,206.576,107.569,207.845,107.351,207.897"/>
	<path style="fill:#FFFFFF;" d="M195.82,241.421l-31.927,8.488l3.113,3.651l13.354,2.311l31.922-9.521l-41.896-53.438
		c-17.127,4.059-33.883,8.043-45.812,10.883l23.893,28.022l25.169-5.824c0.806-0.189,1.613,0.315,1.799,1.122
		c0.188,0.808-0.316,1.613-1.122,1.801l-23.654,5.472l11.075,12.991l33.316-8.857c0.801-0.214,1.623,0.264,1.834,1.065
		C197.098,240.386,196.621,241.208,195.82,241.421"/>
	<polygon style="fill:#FFFFFF;" points="158.521,248.232 147.367,235.151 110.258,243.737 149.729,250.569 	"/>
	<path style="fill:#FFFFFF;" d="M278.338,214.092c19.406-37.205,25.418-48.746,26.6-51.028c0.008-0.015,0.016-0.03,0.024-0.044
		c-1.088,0.086-2.267,0.223-3.506,0.409c-4.281,0.631-13.722,2.522-26.588,5.326c-10.762,2.342-24.426,5.419-40.649,9.153
		l43.836,35.866C278.169,213.866,278.259,213.977,278.338,214.092"/>
	<polygon style="fill:#FFFFFF;" points="214.273,248.887 187.002,257.021 225.932,263.759 	"/>
	<path style="fill:#FFFFFF;" d="M277.117,216.433c-0.005,0-0.009,0.002-0.013,0.002c-0.334,0-0.671-0.111-0.949-0.339
		l-45.631-37.335c-1.009,0.233-2.073,0.48-3.189,0.739l46.695,42.851C275.093,220.313,276.123,218.339,277.117,216.433"/>
	<path style="fill:#FFFFFF;" d="M212.405,101.168l-10.271-0.363l-0.422,58.252c3.965-0.929,7.938-1.857,11.89-2.777L212.405,101.168
		z"/>
	<path style="fill:#FFFFFF;" d="M199.277,81.051c-0.2,0.036-0.393,0.069-0.595,0.107c-4.914,0.901-18.733,3.691-36.14,7.252
		l-1.573,7.937l38.188,1.35L199.277,81.051z"/>
	<path style="fill:#FFFFFF;" d="M131.489,98.307l-14.199-0.502c-0.08-0.003-0.155-0.018-0.232-0.032
		c-9.718,2.009-19.284,3.99-28.077,5.813l39.676,2.018L131.489,98.307z"/>
	<path style="fill:#FFFFFF;" d="M211.935,79.596c-3.013,0.013-6.137,0.367-9.654,0.937l-0.125,17.271l10.183,0.36L211.935,79.596z"
		/>
	<path style="fill:#FFFFFF;" d="M116.78,179.256c14.784-3.563,47.81-11.495,81.927-19.496l0.428-59.061l-38.755-1.371l-1.548,7.81
		l27.142,1.381c0.828,0.042,1.464,0.747,1.422,1.574c-0.04,0.801-0.703,1.424-1.497,1.424c-0.025,0-0.051-0.001-0.077-0.002
		l-27.579-1.403l-2.495,12.593l11.17,0.717c0.827,0.054,1.454,0.767,1.401,1.594c-0.051,0.794-0.711,1.404-1.496,1.404
		c-0.031,0-0.064-0.002-0.098-0.003l-11.566-0.743l-4.75,23.979c-0.141,0.714-0.768,1.208-1.47,1.208
		c-0.096,0-0.194-0.009-0.293-0.029c-0.812-0.161-1.34-0.95-1.179-1.763l4.673-23.589l-27.297-1.753l-2.525,6.504
		c-0.23,0.594-0.798,0.958-1.4,0.958c-0.179,0-0.362-0.033-0.54-0.103c-0.774-0.299-1.157-1.168-0.857-1.94l2.181-5.621
		l-19.953-1.281c-0.132-0.009-0.256-0.039-0.374-0.078c-0.683,4.381-7.267,6.673-13.785,6.673c-6.884,0-13.853-2.552-13.853-7.427
		s6.969-7.426,13.853-7.426c5.913,0,11.876,1.888,13.444,5.508c0.262-0.169,0.574-0.264,0.906-0.244l20.901,1.342l4.673-12.042
		l-47.207-2.4c-0.434-0.022-0.814-0.232-1.072-0.541c-8.012,1.662-15.035,3.122-20.443,4.246c0.298,0.3,0.586,0.613,0.864,0.938
		L116.78,179.256z M124.282,154.193c6.884,0,13.853,2.551,13.853,7.426s-6.969,7.426-13.853,7.426
		c-6.884,0-13.852-2.551-13.852-7.426S117.398,154.193,124.282,154.193"/>
	<path style="fill:#FFFFFF;" d="M235.43,98.98c0.827,0.029,1.474,0.724,1.445,1.553c-0.029,0.809-0.694,1.446-1.498,1.446
		c-0.017,0-0.035-0.001-0.054-0.001l-19.916-0.704l1.181,54.311c14.237-3.308,28.141-6.497,40.447-9.249
		c22.163-4.949,35.054-7.608,41.801-8.623c2.994-0.445,5.705-0.7,8.24-0.776c-7.75-5.48-17.429-12.225-26.922-18.838
		c-11.803-8.223-24.005-16.726-32.25-22.626c-16.538-11.836-25.183-15.185-32.967-15.775l0.405,18.572L235.43,98.98z"/>
	<polygon style="fill:#FFFFFF;" points="155.805,106.985 157.342,99.221 134.663,98.419 131.813,105.765 	"/>
	<path style="fill:#FFFFFF;" d="M132.971,94.488c-1.197,0.247-2.398,0.494-3.599,0.742l3.266,0.115L132.971,94.488z"/>
	<polygon style="fill:#FFFFFF;" points="125.98,120.793 152.727,122.511 155.214,109.958 130.669,108.71 	"/>
	<path style="fill:#FFFFFF;" d="M159.355,89.063c-7.21,1.477-14.956,3.069-22.886,4.704l-0.656,1.691l22.12,0.782L159.355,89.063z"
		/>
	<path style="fill:#FFFFFF;" d="M78.765,121.412c0.448,0.759,3.458,2.427,8.824,2.427c5.366,0,8.376-1.668,8.825-2.427
		c-0.45-0.759-3.459-2.426-8.825-2.426C82.224,118.986,79.214,120.654,78.765,121.412"/>
	<path style="fill:#FFFFFF;" d="M124.282,164.045c5.366,0,8.376-1.668,8.824-2.427c-0.449-0.758-3.459-2.425-8.824-2.425
		c-5.365,0-8.375,1.667-8.824,2.425C115.907,162.378,118.917,164.045,124.282,164.045"/>
	<path style="fill:#FFFFFF;" d="M116.073,185.6c-0.925,0.221-1.896-0.098-2.507-0.829l-0.749-0.898
		c-4.182,0.336-6.538,1.707-6.93,2.347c0.454,0.758,3.463,2.424,8.825,2.424c5.357,0,8.365-1.662,8.822-2.422
		c-0.228-0.35-1.19-1.09-3.124-1.668L116.073,185.6z"/>
	<path style="fill:#FFFFFF;" d="M68.895,144.058c0.448,0.759,3.457,2.427,8.825,2.427c1.264,0,2.507-0.101,3.657-0.293l-3.804-4.559
		C72.3,141.662,69.34,143.306,68.895,144.058"/>
</g>
</svg>
