<?xml version="1.0" encoding="utf-8"?>
<!-- Generator: Adobe Illustrator 25.4.0, SVG Export Plug-In . SVG Version: 6.00 Build 0)  -->
<svg version="1.1" id="Calque_1" xmlns="http://www.w3.org/2000/svg" xmlns:xlink="http://www.w3.org/1999/xlink" x="0px" y="0px"
	 viewBox="0 0 368.5 368.5" style="enable-background:new 0 0 368.5 368.5;" xml:space="preserve">
<style type="text/css">
	.st0{fill:#FFFFFF;}
</style>
<g>
	<path class="st0" d="M324.49,152.23c-1.3-2.84-4-5.35-7.07-6.59c-2.7-1.12-5.62-1.65-9.41-1.72c-2.45,0.03-5.12,0.26-8.14,0.71
		c-1.44,0.22-3.23,0.53-5.35,0.92l16.76,11.7c0.89,0.62,1.24,1.71,0.98,2.69c0.08,0.54,0.04,1.1-0.14,1.63
		c-0.47,1.38-1.12,2.87-1.88,4.29c-1.6,3.08-12.21,23.44-53.58,102.74l-1.96,3.75c-0.7,1.35-2.2,2.09-3.7,1.83l-200.7-34.74
		c-0.37-0.06-0.75-0.1-1.12-0.1c-3.16,0-5.85,2.27-6.39,5.39c-0.3,1.71,0.09,3.43,1.09,4.85s2.49,2.36,4.2,2.66l212.48,36.65
		c8.01-15.29,54-103.12,61.24-117.1c2.34-4.63,3.92-8.72,3.99-13.49C325.8,156.13,325.36,154.07,324.49,152.23"/>
	<path class="st0" d="M108.06,201.56c13.86-3.3,92.11-21.95,121.41-28.71c17.74-4.09,32.58-7.44,44.11-9.95
		c13-2.83,22.58-4.75,26.99-5.4c0.66-0.1,1.31-0.19,1.95-0.26l-14.83-10.35c-7.16,1.45-16.75,3.52-29.13,6.28
		c-41.56,9.29-101.35,23.57-130.66,30.61c0.43,0.76,0.67,1.57,0.67,2.44c0,4.88-6.97,7.43-13.85,7.43c-6.88,0-13.85-2.55-13.85-7.43
		c0-2.74,2.35-4.99,6.16-6.27L82.87,151c-1.61,0.32-3.35,0.49-5.14,0.49c-6.88,0-13.85-2.55-13.85-7.43c0-3.36,3.31-5.61,7.62-6.69
		l-18.4-22.06c-1.4-1.64-3.3-2.73-5.1-2.96c-0.17,0.02-0.33,0.05-0.49,0.1c-0.49,0.13-0.99,0.14-1.48,0.06
		c-1,0.37-1.3,1.12-1.42,1.42c-1.77,4.68,0.36,11.34,6.17,19.2L108.06,201.56z"/>
	<path class="st0" d="M230.22,264.5l20.01,3.46l1.17-2.25c8.22-15.76,15.23-29.19,21.19-40.61l-48.8-44.78
		c-13.1,3.05-31.7,7.44-50.19,11.83l41.77,53.28l29.11-8.68c0.8-0.24,1.63,0.22,1.87,1.01c0.24,0.79-0.21,1.63-1.01,1.87
		l-27.98,8.35L230,264.08C230.1,264.21,230.17,264.36,230.22,264.5"/>
	<polygon class="st0" points="160.68,250.76 156.8,251.79 162.38,252.76 	"/>
	<path class="st0" d="M107.35,207.9c-0.93,0.22-1.9-0.11-2.51-0.84l-15.79-19.17l-38.99,45.5c0.43,0.03,0.85,0.08,1.27,0.15
		l51.31,8.88l42.53-9.84l-23.88-28C112.89,206.58,107.57,207.85,107.35,207.9"/>
	<path class="st0" d="M195.82,241.42l-31.93,8.49l3.11,3.65l13.35,2.31l31.92-9.52l-41.9-53.44c-17.13,4.06-33.88,8.04-45.81,10.88
		l23.89,28.02l25.17-5.82c0.81-0.19,1.61,0.31,1.8,1.12c0.19,0.81-0.32,1.61-1.12,1.8l-23.65,5.47l11.08,12.99l33.32-8.86
		c0.8-0.21,1.62,0.26,1.83,1.07C197.1,240.39,196.62,241.21,195.82,241.42"/>
	<polygon class="st0" points="158.52,248.23 147.37,235.15 110.26,243.74 149.73,250.57 	"/>
	<path class="st0" d="M278.34,214.09c19.41-37.21,25.42-48.75,26.6-51.03c0.01-0.01,0.02-0.03,0.02-0.04
		c-1.09,0.09-2.27,0.22-3.51,0.41c-4.28,0.63-13.72,2.52-26.59,5.33c-10.76,2.34-24.43,5.42-40.65,9.15l43.84,35.87
		C278.17,213.87,278.26,213.98,278.34,214.09"/>
	<polygon class="st0" points="214.27,248.89 187,257.02 225.93,263.76 	"/>
	<path class="st0" d="M277.12,216.43c-0.01,0-0.01,0-0.01,0c-0.33,0-0.67-0.11-0.95-0.34l-45.63-37.34
		c-1.01,0.23-2.07,0.48-3.19,0.74l46.7,42.85C275.09,220.31,276.12,218.34,277.12,216.43"/>
	<path class="st0" d="M212.4,101.17l-10.27-0.36l-0.42,58.25c3.96-0.93,7.94-1.86,11.89-2.78L212.4,101.17z"/>
	<path class="st0" d="M199.28,81.05c-0.2,0.04-0.39,0.07-0.6,0.11c-4.91,0.9-18.73,3.69-36.14,7.25l-1.57,7.94l38.19,1.35
		L199.28,81.05z"/>
	<path class="st0" d="M131.49,98.31l-14.2-0.5c-0.08,0-0.15-0.02-0.23-0.03c-9.72,2.01-19.28,3.99-28.08,5.81l39.68,2.02
		L131.49,98.31z"/>
	<path class="st0" d="M211.94,79.6c-3.01,0.01-6.14,0.37-9.65,0.94l-0.12,17.27l10.18,0.36L211.94,79.6z"/>
	<path class="st0" d="M116.78,179.26c14.78-3.56,47.81-11.49,81.93-19.5l0.43-59.06l-38.75-1.37l-1.55,7.81l27.14,1.38
		c0.83,0.04,1.46,0.75,1.42,1.57c-0.04,0.8-0.7,1.42-1.5,1.42c-0.03,0-0.05,0-0.08,0l-27.58-1.4l-2.49,12.59l11.17,0.72
		c0.83,0.05,1.45,0.77,1.4,1.59c-0.05,0.79-0.71,1.4-1.5,1.4c-0.03,0-0.06,0-0.1,0l-11.57-0.74l-4.75,23.98
		c-0.14,0.71-0.77,1.21-1.47,1.21c-0.1,0-0.19-0.01-0.29-0.03c-0.81-0.16-1.34-0.95-1.18-1.76l4.67-23.59l-27.3-1.75l-2.53,6.5
		c-0.23,0.59-0.8,0.96-1.4,0.96c-0.18,0-0.36-0.03-0.54-0.1c-0.77-0.3-1.16-1.17-0.86-1.94l2.18-5.62l-19.95-1.28
		c-0.13-0.01-0.26-0.04-0.37-0.08c-0.68,4.38-7.27,6.67-13.78,6.67c-6.88,0-13.85-2.55-13.85-7.43s6.97-7.43,13.85-7.43
		c5.91,0,11.88,1.89,13.44,5.51c0.26-0.17,0.57-0.26,0.91-0.24l20.9,1.34l4.67-12.04l-47.21-2.4c-0.43-0.02-0.81-0.23-1.07-0.54
		c-8.01,1.66-15.03,3.12-20.44,4.25c0.3,0.3,0.59,0.61,0.86,0.94L116.78,179.26z M124.28,154.19c6.88,0,13.85,2.55,13.85,7.43
		s-6.97,7.43-13.85,7.43c-6.88,0-13.85-2.55-13.85-7.43S117.4,154.19,124.28,154.19"/>
	<path class="st0" d="M235.43,98.98c0.83,0.03,1.47,0.72,1.44,1.55c-0.03,0.81-0.69,1.45-1.5,1.45c-0.02,0-0.04,0-0.05,0l-19.92-0.7
		l1.18,54.31c14.24-3.31,28.14-6.5,40.45-9.25c22.16-4.95,35.05-7.61,41.8-8.62c2.99-0.44,5.71-0.7,8.24-0.78
		c-7.75-5.48-17.43-12.22-26.92-18.84c-11.8-8.22-24.01-16.73-32.25-22.63c-16.54-11.84-25.18-15.18-32.97-15.77l0.4,18.57
		L235.43,98.98z"/>
	<polygon class="st0" points="155.8,106.98 157.34,99.22 134.66,98.42 131.81,105.76 	"/>
	<path class="st0" d="M132.97,94.49c-1.2,0.25-2.4,0.49-3.6,0.74l3.27,0.12L132.97,94.49z"/>
	<polygon class="st0" points="125.98,120.79 152.73,122.51 155.21,109.96 130.67,108.71 	"/>
	<path class="st0" d="M159.36,89.06c-7.21,1.48-14.96,3.07-22.89,4.7l-0.66,1.69l22.12,0.78L159.36,89.06z"/>
	<path class="st0" d="M78.77,121.41c0.45,0.76,3.46,2.43,8.82,2.43c5.37,0,8.38-1.67,8.82-2.43c-0.45-0.76-3.46-2.43-8.82-2.43
		C82.22,118.99,79.21,120.65,78.77,121.41"/>
	<path class="st0" d="M124.28,164.05c5.37,0,8.38-1.67,8.82-2.43c-0.45-0.76-3.46-2.43-8.82-2.43c-5.37,0-8.38,1.67-8.82,2.43
		C115.91,162.38,118.92,164.05,124.28,164.05"/>
	<path class="st0" d="M116.07,185.6c-0.93,0.22-1.9-0.1-2.51-0.83l-0.75-0.9c-4.18,0.34-6.54,1.71-6.93,2.35
		c0.45,0.76,3.46,2.42,8.83,2.42c5.36,0,8.36-1.66,8.82-2.42c-0.23-0.35-1.19-1.09-3.12-1.67L116.07,185.6z"/>
	<path class="st0" d="M68.9,144.06c0.45,0.76,3.46,2.43,8.82,2.43c1.26,0,2.51-0.1,3.66-0.29l-3.8-4.56
		C72.3,141.66,69.34,143.31,68.9,144.06"/>
</g>
</svg>
