<?xml version="1.0" encoding="iso-8859-1"?>
<!-- Generator: Adobe Illustrator 25.4.1, SVG Export Plug-In . SVG Version: 6.00 Build 0)  -->
<svg version="1.1" id="Calque_1" xmlns="http://www.w3.org/2000/svg" xmlns:xlink="http://www.w3.org/1999/xlink" x="0px" y="0px"
	 viewBox="0 0 368.5 368.5" style="enable-background:new 0 0 368.5 368.5;" xml:space="preserve">
<g>
	<path style="fill:#FFFFFF;" d="M71.247,145.584c3.309,1.324,10.193,4.081,10.194,12.773v25.794c0,0.438-0.027,0.863-0.066,1.282
		L289.571,72.809V46.327L88.574,151.162c-0.295,0.154-0.612,0.227-0.923,0.227c-0.721,0-1.418-0.392-1.775-1.076
		c-0.511-0.979-0.131-2.187,0.848-2.698L282.882,45.304h-43.077L51.974,138.018C57.295,140.088,67.935,144.258,71.247,145.584"/>
	<path style="fill:#FFFFFF;" d="M142.299,322.458v-0.003c0-0.095,0-0.211-0.001-0.327c0-0.124,0-0.256,0-0.398v-0.006
		c-0.001-0.411-0.004-0.875-0.006-1.313l-33.094-14.851c-0.013,0.433-0.021,0.831-0.021,1.144c-0.001,1.234,0.581,3.587,4.498,5.546
		c4.799,2.398,10.771,5.383,20.299,9.275c2.64,1.078,5.036,1.672,6.744,1.672c1.051,0,1.419-0.229,1.482-0.275
		C142.291,322.856,142.299,322.55,142.299,322.458"/>
	<polygon style="fill:#FFFFFF;" points="323.578,160.899 112.027,301.348 144.508,315.923 323.578,189.514 	"/>
	<path style="fill:#FFFFFF;" d="M147.294,320.654l175.823-124.436v-0.213L147.291,320.08
		C147.291,320.264,147.293,320.458,147.294,320.654"/>
	<path style="fill:#FFFFFF;" d="M155.866,200.394c3.116,0.967,10.413,3.229,10.415,12.05v24.424l153.92-100.444
		c0.051-0.034,0.103-0.065,0.156-0.095c1.212-0.67,3.247-2.109,3.247-4.205v-21.188c0-5.177-2.017-5.837-5.68-7.032
		c-3.242-1.061-9.542-2.887-13.825-4.066c-1.288-0.355-3.62,0.822-5.664,1.871l-160.587,93.225
		C143.669,196.68,152.929,199.482,155.866,200.394 M169.354,201.906l146.095-92.453c0.934-0.589,2.17-0.313,2.759,0.621
		c0.592,0.934,0.314,2.169-0.62,2.759l-146.095,92.452c-0.332,0.21-0.702,0.312-1.068,0.312c-0.663,0-1.311-0.331-1.692-0.932
		C168.143,203.732,168.42,202.496,169.354,201.906"/>
	<path style="fill:#FFFFFF;" d="M158.191,241.468c1.525-0.657,3.09-1.718,3.09-3.305v-25.719c0-4.749-3.123-6.104-6.896-7.274
		c-3.634-1.129-16.977-5.158-21.432-6.48c-0.166-0.05-0.317-0.074-0.449-0.074c-0.924,0-1.816,1.491-2.409,3.037l26.13,7.639
		c1.061,0.309,1.792,1.28,1.799,2.385L158.191,241.468z"/>
	<path style="fill:#FFFFFF;" d="M59.21,167.424l9.042-3.716l-0.029-5.1l-15.214-5.814l0.104,18.813l15.216,5.813l-0.053-9.398
		l-7.545,3.101c-0.249,0.103-0.507,0.151-0.76,0.151c-0.787,0-1.533-0.467-1.85-1.24C57.701,169.012,58.189,167.843,59.21,167.424"
		/>
	<path style="fill:#FFFFFF;" d="M51.947,179.988c3.224,1.292,14.271,5.624,19.857,7.795c0.013,0.005,0.027,0.01,0.04,0.016
		c0.018,0.006,0.035,0.013,0.053,0.02l1.399,0.542c1.009,0.39,1.8-0.191,2.191-0.705c0.615-0.812,0.954-2.057,0.954-3.505v-25.794
		c-0.001-4.902-3.336-6.644-7.052-8.132c-3.434-1.374-14.806-5.83-19.859-7.794l-1.5-0.582c-0.444-0.171-0.871-0.263-1.227-0.263
		c-0.49,0-0.804,0.16-1.086,0.554c-0.307,0.43-0.823,1.511-0.822,3.921v25.795C44.895,176.76,48.231,178.501,51.947,179.988
		 M49.065,147.1c0.679-0.471,1.545-0.575,2.316-0.28l20.225,7.728c0.962,0.368,1.601,1.29,1.607,2.321l0.136,24.176
		c0.005,0.826-0.398,1.6-1.076,2.069c-0.424,0.294-0.922,0.445-1.424,0.445c-0.301,0-0.603-0.054-0.892-0.164l-20.227-7.729
		c-0.964-0.368-1.602-1.29-1.608-2.321l-0.134-24.176C47.984,148.344,48.387,147.57,49.065,147.1"/>
</g>
</svg>
