<?xml version="1.0" encoding="utf-8"?>
<!-- Generator: Adobe Illustrator 25.4.0, SVG Export Plug-In . SVG Version: 6.00 Build 0)  -->
<svg version="1.1" id="Calque_1" xmlns="http://www.w3.org/2000/svg" xmlns:xlink="http://www.w3.org/1999/xlink" x="0px" y="0px"
	 viewBox="0 0 368.5 368.5" style="enable-background:new 0 0 368.5 368.5;" xml:space="preserve">
<style type="text/css">
	.st0{fill:#FFFFFF;}
</style>
<g>
	<path class="st0" d="M71.25,145.58c3.31,1.32,10.19,4.08,10.19,12.77v25.79c0,0.44-0.03,0.86-0.07,1.28l208.2-112.62V46.33
		l-201,104.84c-0.29,0.15-0.61,0.23-0.92,0.23c-0.72,0-1.42-0.39-1.78-1.08c-0.51-0.98-0.13-2.19,0.85-2.7L282.88,45.3H239.8
		L51.97,138.02C57.29,140.09,67.93,144.26,71.25,145.58"/>
	<path class="st0" d="M142.3,322.46L142.3,322.46c0-0.1,0-0.21,0-0.33c0-0.12,0-0.26,0-0.4v-0.01c0-0.41,0-0.88-0.01-1.31
		l-33.09-14.85c-0.01,0.43-0.02,0.83-0.02,1.14c0,1.23,0.58,3.59,4.5,5.55c4.8,2.4,10.77,5.38,20.3,9.27
		c2.64,1.08,5.04,1.67,6.74,1.67c1.05,0,1.42-0.23,1.48-0.27C142.29,322.86,142.3,322.55,142.3,322.46"/>
	<polygon class="st0" points="323.58,160.9 112.03,301.35 144.51,315.92 323.58,189.51 	"/>
	<path class="st0" d="M147.29,320.65l175.82-124.44V196L147.29,320.08C147.29,320.26,147.29,320.46,147.29,320.65"/>
	<path class="st0" d="M155.87,200.39c3.12,0.97,10.41,3.23,10.41,12.05v24.42L320.2,136.42c0.05-0.03,0.1-0.07,0.16-0.1
		c1.21-0.67,3.25-2.11,3.25-4.21v-21.19c0-5.18-2.02-5.84-5.68-7.03c-3.24-1.06-9.54-2.89-13.83-4.07
		c-1.29-0.35-3.62,0.82-5.66,1.87l-160.59,93.22C143.67,196.68,152.93,199.48,155.87,200.39 M169.35,201.91l146.09-92.45
		c0.93-0.59,2.17-0.31,2.76,0.62c0.59,0.93,0.31,2.17-0.62,2.76l-146.1,92.45c-0.33,0.21-0.7,0.31-1.07,0.31
		c-0.66,0-1.31-0.33-1.69-0.93C168.14,203.73,168.42,202.5,169.35,201.91"/>
	<path class="st0" d="M158.19,241.47c1.52-0.66,3.09-1.72,3.09-3.3v-25.72c0-4.75-3.12-6.1-6.9-7.27
		c-3.63-1.13-16.98-5.16-21.43-6.48c-0.17-0.05-0.32-0.07-0.45-0.07c-0.92,0-1.82,1.49-2.41,3.04l26.13,7.64
		c1.06,0.31,1.79,1.28,1.8,2.38L158.19,241.47z"/>
	<path class="st0" d="M59.21,167.42l9.04-3.72l-0.03-5.1l-15.21-5.81l0.1,18.81l15.22,5.81l-0.05-9.4l-7.54,3.1
		c-0.25,0.1-0.51,0.15-0.76,0.15c-0.79,0-1.53-0.47-1.85-1.24C57.7,169.01,58.19,167.84,59.21,167.42"/>
	<path class="st0" d="M51.95,179.99c3.22,1.29,14.27,5.62,19.86,7.79c0.01,0.01,0.03,0.01,0.04,0.02c0.02,0.01,0.03,0.01,0.05,0.02
		l1.4,0.54c1.01,0.39,1.8-0.19,2.19-0.71c0.61-0.81,0.95-2.06,0.95-3.5v-25.79c0-4.9-3.34-6.64-7.05-8.13
		c-3.43-1.37-14.81-5.83-19.86-7.79l-1.5-0.58c-0.44-0.17-0.87-0.26-1.23-0.26c-0.49,0-0.8,0.16-1.09,0.55
		c-0.31,0.43-0.82,1.51-0.82,3.92v25.79C44.9,176.76,48.23,178.5,51.95,179.99 M49.07,147.1c0.68-0.47,1.54-0.57,2.32-0.28
		l20.23,7.73c0.96,0.37,1.6,1.29,1.61,2.32l0.14,24.18c0,0.83-0.4,1.6-1.08,2.07c-0.42,0.29-0.92,0.44-1.42,0.44
		c-0.3,0-0.6-0.05-0.89-0.16l-20.23-7.73c-0.96-0.37-1.6-1.29-1.61-2.32l-0.13-24.18C47.98,148.34,48.39,147.57,49.07,147.1"/>
</g>
</svg>
