<?xml version="1.0" encoding="utf-8"?>
<!-- Generator: Adobe Illustrator 25.4.0, SVG Export Plug-In . SVG Version: 6.00 Build 0)  -->
<svg version="1.1" id="Calque_1" xmlns="http://www.w3.org/2000/svg" xmlns:xlink="http://www.w3.org/1999/xlink" x="0px" y="0px"
	 viewBox="0 0 368.5 368.5" style="enable-background:new 0 0 368.5 368.5;" xml:space="preserve">
<style type="text/css">
	.st0{fill:#FFFFFF;}
</style>
<g>
	<path class="st0" d="M109.13,91.88c-0.93-0.92-2.43-0.91-3.34,0.02l-22.14,22.39v6.72l25.5-25.79
		C110.07,94.3,110.06,92.8,109.13,91.88"/>
	<path class="st0" d="M142.93,104.96c-0.93-0.92-2.43-0.91-3.34,0.02l-55.94,56.57v6.73l59.3-59.97
		C143.87,107.37,143.86,105.88,142.93,104.96"/>
	<path class="st0" d="M179.7,165.47c0.46,0.46,1.06,0.68,1.66,0.68c0.61,0,1.22-0.23,1.68-0.7l14.14-14.3v-6.72l-17.5,17.7
		C178.76,163.06,178.77,164.55,179.7,165.47"/>
	<path class="st0" d="M121.18,244.93c-0.93-0.92-2.43-0.91-3.34,0.02l-34.19,34.57v6.73l37.55-37.98
		C122.12,247.34,122.11,245.84,121.18,244.93"/>
	<path class="st0" d="M67.46,309.53c0,7.61,7.19,16.45,16.45,16.45h73.53c-2.19-2.21-3.95-4.78-5.19-7.51H87.91
		c-7.53,0-11.35-4.3-11.35-12.79V62.83c0-8.48,3.82-12.79,11.35-12.8h0h64c1.13-2.83,2.79-5.37,4.86-7.51H83.91
		c-9.23,0-16.45,7.23-16.45,16.46V309.53z"/>
	<path class="st0" d="M257.75,235.5c0.46,0.46,1.06,0.68,1.66,0.68c0.61,0,1.22-0.23,1.68-0.7l25.92-26.22v-6.72l-29.28,29.62
		C256.81,233.09,256.82,234.58,257.75,235.5"/>
	<path class="st0" d="M230.11,242.18c0.46,0.46,1.06,0.68,1.66,0.68c0.61,0,1.22-0.23,1.68-0.7l53.56-54.17v-6.72l-56.92,57.57
		C229.17,239.76,229.18,241.26,230.11,242.18"/>
	<path class="st0" d="M233.5,136.35c-0.93-0.92-2.43-0.91-3.34,0.02l-9.69,9.8l-7.09,7.17V58.98c0-0.63-0.05-1.24-0.12-1.85h-9.74
		c0.5,1.63,0.77,3.52,0.77,5.71v99.71l-7.09,7.17l-23.7,23.97v6.72l23.7-23.96l7.09-7.17v136.42c0,2.18-0.26,4.07-0.76,5.7h9.69
		c0.1-0.62,0.18-1.25,0.18-1.85V160.06l7.09-7.17l13.05-13.2C234.43,138.76,234.43,137.27,233.5,136.35"/>
	<path class="st0" d="M239.43,95.68c0.46,0.46,1.06,0.68,1.66,0.68c0.61,0,1.22-0.23,1.68-0.7l38.1-38.53h-6.65l-34.81,35.21
		C238.5,93.26,238.51,94.76,239.43,95.68"/>
	<path class="st0" d="M196.92,42.52h-23.18c-9.23,0-16.45,7.23-16.45,16.46v250.55c0,7.61,7.19,16.45,16.45,16.45h23.18h89.83
		c8.71,0,16.45-9.2,16.45-16.45V58.98c0-8.77-7.69-16.46-16.45-16.46H196.92z M301.16,178.27v27.3c0,1.31-1.06,2.36-2.36,2.36
		c-1.3,0-2.36-1.06-2.36-2.36v-27.3c0-1.31,1.06-2.36,2.36-2.36C300.1,175.9,301.16,176.96,301.16,178.27 M282.75,50.03
		c7.54,0.01,11.36,4.32,11.36,12.8v242.85c0,8.49-3.82,12.79-11.36,12.79h-89.83h-15.17c-7.53,0-11.35-4.3-11.35-12.79V62.83
		c0-8.48,3.82-12.79,11.35-12.8h0h15.17H282.75z"/>
</g>
</svg>
