<?xml version="1.0" encoding="iso-8859-1"?>
<!-- Generator: Adobe Illustrator 25.4.1, SVG Export Plug-In . SVG Version: 6.00 Build 0)  -->
<svg version="1.1" id="Calque_1" xmlns="http://www.w3.org/2000/svg" xmlns:xlink="http://www.w3.org/1999/xlink" x="0px" y="0px"
	 viewBox="0 0 368.5 368.5" style="enable-background:new 0 0 368.5 368.5;" xml:space="preserve">
<g>
	<path style="fill:#FFFFFF;" d="M109.133,91.88c-0.928-0.921-2.426-0.912-3.343,0.018L83.65,114.29v6.722l25.501-25.789
		C110.07,94.296,110.061,92.798,109.133,91.88"/>
	<path style="fill:#FFFFFF;" d="M142.93,104.956c-0.929-0.921-2.427-0.912-3.343,0.018L83.65,161.543v6.725l59.299-59.969
		C143.867,107.371,143.858,105.875,142.93,104.956"/>
	<path style="fill:#FFFFFF;" d="M179.699,165.47c0.461,0.457,1.062,0.683,1.662,0.683c0.61,0,1.219-0.233,1.681-0.701l14.138-14.298
		v-6.722l-17.5,17.695C178.762,163.055,178.771,164.551,179.699,165.47"/>
	<path style="fill:#FFFFFF;" d="M121.179,244.926c-0.928-0.921-2.426-0.912-3.343,0.018L83.65,279.518v6.726l37.547-37.975
		C122.116,247.341,122.107,245.843,121.179,244.926"/>
	<path style="fill:#FFFFFF;" d="M67.456,309.533c0,7.607,7.187,16.451,16.453,16.451h73.53c-2.185-2.209-3.946-4.781-5.185-7.512
		H87.912c-7.535,0-11.354-4.303-11.354-12.79V62.831c0-8.484,3.818-12.79,11.349-12.799h0.003h64
		c1.132-2.833,2.791-5.372,4.864-7.512H83.909c-9.226,0-16.453,7.228-16.453,16.458V309.533z"/>
	<path style="fill:#FFFFFF;" d="M257.747,235.502c0.461,0.455,1.062,0.683,1.662,0.683c0.61,0,1.219-0.233,1.681-0.701
		l25.923-26.217v-6.723l-29.284,29.615C256.81,233.087,256.819,234.583,257.747,235.502"/>
	<path style="fill:#FFFFFF;" d="M230.109,242.176c0.461,0.457,1.062,0.683,1.662,0.683c0.61,0,1.219-0.233,1.681-0.701
		l53.561-54.168v-6.722l-56.922,57.565C229.172,239.761,229.181,241.257,230.109,242.176"/>
	<path style="fill:#FFFFFF;" d="M233.497,136.349c-0.929-0.917-2.426-0.912-3.343,0.018l-9.69,9.801l-7.092,7.172V58.978
		c0-0.626-0.05-1.242-0.125-1.854h-9.742c0.504,1.628,0.767,3.523,0.767,5.707v99.712l-7.092,7.17l-23.697,23.966v6.723
		l23.697-23.964l7.092-7.173v136.417c0,2.179-0.261,4.073-0.763,5.698h9.687c0.103-0.624,0.176-1.245,0.176-1.847v-149.47
		l7.092-7.173l13.051-13.198C234.434,138.764,234.425,137.268,233.497,136.349"/>
	<path style="fill:#FFFFFF;" d="M239.434,95.676c0.461,0.457,1.062,0.683,1.662,0.683c0.61,0,1.219-0.233,1.681-0.701l38.099-38.534
		h-6.649l-34.811,35.209C238.497,93.261,238.506,94.759,239.434,95.676"/>
	<path style="fill:#FFFFFF;" d="M196.918,42.52h-23.175c-9.226,0-16.453,7.228-16.453,16.458v250.555
		c0,7.607,7.186,16.451,16.453,16.451h23.175h89.833c8.708,0,16.454-9.199,16.454-16.451V58.978c0-8.768-7.689-16.458-16.454-16.458
		H196.918z M301.158,178.269v27.297c0,1.307-1.058,2.364-2.364,2.364c-1.305,0-2.364-1.057-2.364-2.364v-27.297
		c0-1.306,1.059-2.364,2.364-2.364C300.1,175.905,301.158,176.963,301.158,178.269 M282.746,50.032
		c7.539,0.009,11.36,4.315,11.36,12.799v242.851c0,8.487-3.822,12.79-11.36,12.79h-89.833h-15.168
		c-7.534,0-11.354-4.303-11.354-12.79V62.831c0-8.484,3.819-12.79,11.349-12.799h0.005h15.168H282.746z"/>
</g>
</svg>
