<?xml version="1.0" encoding="iso-8859-1"?>
<!-- Generator: Adobe Illustrator 25.4.1, SVG Export Plug-In . SVG Version: 6.00 Build 0)  -->
<svg version="1.1" id="Calque_1" xmlns="http://www.w3.org/2000/svg" xmlns:xlink="http://www.w3.org/1999/xlink" x="0px" y="0px"
	 viewBox="0 0 368.5 368.5" style="enable-background:new 0 0 368.5 368.5;" xml:space="preserve">
<g>
	<path style="fill:#FFFFFF;" d="M313.553,186.237H54.987c-2.738,0-4.961,2.217-4.961,4.959v48.324
		c0,16.752,13.581,30.329,30.333,30.329h21.497h164.829h21.498c16.75,0,30.331-13.577,30.331-30.329v-48.324
		C318.514,188.454,316.295,186.237,313.553,186.237 M304.597,239.52c0,9.049-7.361,16.414-16.414,16.414H80.359
		c-9.05,0-16.414-7.365-16.414-16.414v-22.263c0-1.939,1.305-3.635,3.175-4.135c0.369-0.101,0.737-0.146,1.105-0.146
		c1.504,0,2.935,0.799,3.711,2.15c2.254,3.925,6.443,6.359,10.946,6.359c4.459,0,8.504-2.294,10.808-6.144
		c0.776-1.286,2.17-2.079,3.674-2.079h0.002c1.498,0,2.893,0.789,3.668,2.079c2.309,3.848,6.354,6.144,10.817,6.144
		c4.461,0,8.502-2.296,10.813-6.148c0.772-1.286,2.164-2.075,3.667-2.075h0.002c1.502,0,2.896,0.787,3.667,2.075
		c2.314,3.852,6.36,6.148,10.819,6.148s8.5-2.296,10.816-6.148c0.775-1.288,2.165-2.075,3.669-2.075
		c1.503,0,2.893,0.787,3.666,2.075c2.318,3.852,6.357,6.148,10.818,6.148c4.462,0,8.502-2.296,10.813-6.148
		c0.771-1.286,2.168-2.075,3.669-2.075c1.505,0,2.897,0.787,3.673,2.075c2.31,3.852,6.351,6.148,10.811,6.148
		c4.458,0,8.504-2.296,10.818-6.148c0.776-1.29,2.167-2.079,3.673-2.079c1.496,0,2.893,0.791,3.666,2.079
		c2.309,3.852,6.353,6.148,10.813,6.148c4.458,0,8.508-2.296,10.817-6.148c0.773-1.288,2.17-2.075,3.672-2.075
		c1.5,0,2.893,0.787,3.667,2.075c2.312,3.852,6.352,6.148,10.81,6.148c4.466,0,8.511-2.296,10.817-6.148
		c0.772-1.29,2.171-2.081,3.672-2.081h0.001c1.502,0,2.896,0.789,3.671,2.077c2.312,3.854,6.354,6.152,10.811,6.152
		c4.501,0,8.692-2.434,10.94-6.354c0.778-1.356,2.206-2.151,3.715-2.151c0.366,0,0.736,0.049,1.1,0.146
		c1.874,0.499,3.18,2.196,3.18,4.135V239.52z"/>
	<path style="fill:#FFFFFF;" d="M95.741,98.655c-12.191,0-22.11,9.918-22.11,22.109v30.345c0,2.955,2.395,5.353,5.35,5.353
		s5.351-2.398,5.351-5.353v-30.345c0-6.288,5.117-11.408,11.409-11.408s11.407,5.12,11.407,11.408c0,2.958,2.396,5.35,5.349,5.35
		s5.35-2.392,5.35-5.35C117.846,108.573,107.929,98.655,95.741,98.655"/>
	<path style="fill:#FFFFFF;" d="M50.028,178.252h268.485c4.139,0,7.492-3.356,7.492-7.491c0-4.137-3.353-7.489-7.492-7.489H50.028
		c-4.137,0-7.488,3.352-7.488,7.489C42.54,174.896,45.891,178.252,50.028,178.252"/>
	<path style="fill:#FFFFFF;" d="M113.861,146.917c-2.529-0.737-5.309,0.82-6.025,3.29c-0.378,1.245-0.239,2.561,0.384,3.707
		c0.623,1.151,1.659,1.982,2.931,2.355c0.433,0.125,0.891,0.191,1.347,0.191c2.155,0,4.079-1.446,4.674-3.508
		C117.918,150.387,116.441,147.684,113.861,146.917"/>
	<path style="fill:#FFFFFF;" d="M113.861,132.203c-2.511-0.734-5.309,0.816-6.025,3.286c-0.378,1.249-0.237,2.571,0.386,3.715
		c0.624,1.151,1.667,1.986,2.931,2.349c0.439,0.127,0.889,0.191,1.343,0.191c2.155,0,4.076-1.444,4.678-3.513
		C117.916,135.66,116.432,132.957,113.861,132.203"/>
</g>
</svg>
