<?xml version="1.0" encoding="iso-8859-1"?>
<!-- Generator: Adobe Illustrator 25.4.1, SVG Export Plug-In . SVG Version: 6.00 Build 0)  -->
<svg version="1.1" id="Calque_1" xmlns="http://www.w3.org/2000/svg" xmlns:xlink="http://www.w3.org/1999/xlink" x="0px" y="0px"
	 viewBox="0 0 368.5 368.5" style="enable-background:new 0 0 368.5 368.5;" xml:space="preserve">
<g>
	<path style="fill:#FFFFFF;" d="M104.686,62.543c-19.511,0-35.378,15.869-35.378,35.381v52.709c0,3.741,3.029,6.772,6.771,6.772
		c3.741,0,6.772-3.031,6.772-6.772V97.924c0-12.039,9.793-21.836,21.835-21.836c12.035,0,21.832,9.797,21.832,21.836
		c0,3.739,3.033,6.772,6.772,6.772c3.742,0,6.771-3.033,6.771-6.772C140.061,78.412,124.194,62.543,104.686,62.543"/>
	<path style="fill:#FFFFFF;" d="M89.096,282.153l-7.288,7.289c-3.778,3.777-3.778,9.904,0,13.68c1.887,1.891,4.366,2.835,6.84,2.835
		c2.475,0,4.953-0.944,6.84-2.835l16.198-16.195C103.724,286.659,96.117,284.994,89.096,282.153"/>
	<path style="fill:#FFFFFF;" d="M282.013,305.961c2.473,0,4.953-0.945,6.838-2.837c3.78-3.778,3.78-9.905,0-13.676l-7.291-7.293
		c-7.017,2.839-14.623,4.502-22.587,4.772l16.198,16.197C277.06,305.016,279.533,305.961,282.013,305.961"/>
	<path style="fill:#FFFFFF;" d="M53.276,182.407h264.112c5.344,0,9.675-4.333,9.675-9.674c0-5.346-4.331-9.676-9.675-9.676H53.276
		c-5.342,0-9.677,4.33-9.677,9.676C43.599,178.074,47.934,182.407,53.276,182.407"/>
	<path style="fill:#FFFFFF;" d="M317.388,220.524v-26.383c0-3.209-2.601-5.808-5.807-5.808H59.078c-3.207,0-5.802,2.599-5.802,5.808
		v26.383c0,33.446,27.206,60.656,60.653,60.656h142.802C290.178,281.18,317.388,253.97,317.388,220.524"/>
</g>
</svg>
