<?xml version="1.0" encoding="utf-8"?>
<!-- Generator: Adobe Illustrator 25.4.0, SVG Export Plug-In . SVG Version: 6.00 Build 0)  -->
<svg version="1.1" id="Calque_1" xmlns="http://www.w3.org/2000/svg" xmlns:xlink="http://www.w3.org/1999/xlink" x="0px" y="0px"
	 viewBox="0 0 368.5 368.5" style="enable-background:new 0 0 368.5 368.5;" xml:space="preserve">
<style type="text/css">
	.st0{fill:#FFFFFF;}
</style>
<rect x="57.36" y="123.83" class="st0" width="14.4" height="137.35"/>
<g>
	<path class="st0" d="M67.48,121.61v-8.2c0-1.62-1.32-2.94-2.94-2.94s-2.94,1.32-2.94,2.94v8.2H67.48z"/>
	<rect x="180.65" y="123.83" class="st0" width="7.33" height="137.35"/>
	<path class="st0" d="M185.55,121.61v-9.86c0-0.71-0.57-1.28-1.28-1.28s-1.28,0.57-1.28,1.28v9.86H185.55z"/>
	<path class="st0" d="M177.07,143.29v0.14c0-0.86-0.73-1.56-1.63-1.56h-99.1c-0.9,0-1.62,0.7-1.62,1.56v-0.14
		c0,0.86,0.73,1.56,1.62,1.56h99.1C176.35,144.84,177.07,144.14,177.07,143.29"/>
	<path class="st0" d="M193.5,265.27v0.14c0-0.86-0.73-1.56-1.63-1.56h-15.21c-0.9,0-1.63,0.7-1.63,1.56v-0.14
		c0,0.86,0.73,1.55,1.63,1.55h15.21C192.78,266.83,193.5,266.13,193.5,265.27"/>
	<path class="st0" d="M318.96,265.27v0.14c0-0.86-0.73-1.56-1.63-1.56h-25.32c-0.9,0-1.63,0.7-1.63,1.56v-0.14
		c0,0.86,0.73,1.55,1.63,1.55h25.32C318.23,266.83,318.96,266.13,318.96,265.27"/>
	<path class="st0" d="M78.83,265.27v0.14c0-0.86-0.73-1.56-1.63-1.56H51.88c-0.9,0-1.63,0.7-1.63,1.56v-0.14
		c0,0.86,0.73,1.55,1.63,1.55H77.2C78.1,266.83,78.83,266.13,78.83,265.27"/>
	<rect x="297.5" y="123.83" class="st0" width="14.4" height="137.35"/>
	<path class="st0" d="M307.62,121.61v-8.2c0-1.62-1.32-2.94-2.94-2.94c-1.62,0-2.94,1.32-2.94,2.94v8.2H307.62z"/>
	<path class="st0" d="M293.92,143.29v0.14c0-0.86-0.73-1.56-1.63-1.56h-99.1c-0.9,0-1.62,0.7-1.62,1.56v-0.14
		c0,0.86,0.73,1.56,1.62,1.56h99.1C293.19,144.84,293.92,144.14,293.92,143.29"/>
	<path class="st0" d="M177.07,165.52v0.14c0-0.86-0.73-1.56-1.63-1.56h-99.1c-0.9,0-1.62,0.7-1.62,1.56v-0.14
		c0,0.86,0.73,1.56,1.62,1.56h99.1C176.35,167.08,177.07,166.38,177.07,165.52"/>
	<path class="st0" d="M293.92,165.52v0.14c0-0.86-0.73-1.56-1.63-1.56h-99.1c-0.9,0-1.62,0.7-1.62,1.56v-0.14
		c0,0.86,0.73,1.56,1.62,1.56h99.1C293.19,167.08,293.92,166.38,293.92,165.52"/>
	<path class="st0" d="M177.07,187.76v0.14c0-0.86-0.73-1.56-1.63-1.56h-99.1c-0.9,0-1.62,0.7-1.62,1.56v-0.14
		c0,0.86,0.73,1.56,1.62,1.56h99.1C176.35,189.31,177.07,188.61,177.07,187.76"/>
	<path class="st0" d="M293.92,187.76v0.14c0-0.86-0.73-1.56-1.63-1.56h-99.1c-0.9,0-1.62,0.7-1.62,1.56v-0.14
		c0,0.86,0.73,1.56,1.62,1.56h99.1C293.19,189.31,293.92,188.61,293.92,187.76"/>
	<path class="st0" d="M177.07,209.99v0.14c0-0.86-0.73-1.56-1.63-1.56h-99.1c-0.9,0-1.62,0.7-1.62,1.56v-0.14
		c0,0.86,0.73,1.56,1.62,1.56h99.1C176.35,211.54,177.07,210.85,177.07,209.99"/>
	<path class="st0" d="M293.92,209.99v0.14c0-0.86-0.73-1.56-1.63-1.56h-99.1c-0.9,0-1.62,0.7-1.62,1.56v-0.14
		c0,0.86,0.73,1.56,1.62,1.56h99.1C293.19,211.54,293.92,210.85,293.92,209.99"/>
	<path class="st0" d="M177.07,232.22v0.14c0-0.86-0.73-1.56-1.63-1.56h-99.1c-0.9,0-1.62,0.7-1.62,1.56v-0.14
		c0,0.86,0.73,1.56,1.62,1.56h99.1C176.35,233.78,177.07,233.08,177.07,232.22"/>
	<path class="st0" d="M293.92,232.22v0.14c0-0.86-0.73-1.56-1.63-1.56h-99.1c-0.9,0-1.62,0.7-1.62,1.56v-0.14
		c0,0.86,0.73,1.56,1.62,1.56h99.1C293.19,233.78,293.92,233.08,293.92,232.22"/>
	<path class="st0" d="M323.28,101.69L323.28,101.69l-0.05,0c-0.03,0-0.06-0.01-0.09-0.01v0.01h-0.17v-0.01H45.26v0.01
		c-1.51,0.07-2.72,1.3-2.72,2.82c0,1.52,1.21,2.75,2.72,2.82v0h0.05c0.03,0,0.06,0.01,0.09,0.01v-0.01h0.17v0.01h277.71v-0.01
		c1.51-0.07,2.72-1.3,2.72-2.82C326,102.99,324.8,101.76,323.28,101.69"/>
</g>
</svg>
