<?xml version="1.0" encoding="iso-8859-1"?>
<!-- Generator: Adobe Illustrator 25.4.1, SVG Export Plug-In . SVG Version: 6.00 Build 0)  -->
<svg version="1.1" id="Calque_1" xmlns="http://www.w3.org/2000/svg" xmlns:xlink="http://www.w3.org/1999/xlink" x="0px" y="0px"
	 viewBox="0 0 368.5 368.5" style="enable-background:new 0 0 368.5 368.5;" xml:space="preserve">
<rect x="57.363" y="123.831" style="fill:#FFFFFF;" width="14.405" height="137.353"/>
<g>
	<path style="fill:#FFFFFF;" d="M67.48,121.613v-8.196c0-1.625-1.316-2.941-2.94-2.941s-2.94,1.316-2.94,2.941v8.196H67.48z"/>
	<rect x="180.651" y="123.831" style="fill:#FFFFFF;" width="7.33" height="137.353"/>
	<path style="fill:#FFFFFF;" d="M185.549,121.613v-9.86c0-0.705-0.572-1.277-1.277-1.277s-1.277,0.572-1.277,1.277v9.86H185.549z"/>
	<path style="fill:#FFFFFF;" d="M177.075,143.287v0.136c0-0.858-0.727-1.557-1.626-1.557H76.353c-0.898,0-1.625,0.699-1.625,1.557
		v-0.136c0,0.857,0.727,1.555,1.625,1.555h99.096C176.348,144.842,177.075,144.144,177.075,143.287"/>
	<path style="fill:#FFFFFF;" d="M193.504,265.275v0.136c0-0.858-0.727-1.557-1.626-1.557h-15.213c-0.899,0-1.626,0.699-1.626,1.557
		v-0.136c0,0.857,0.727,1.555,1.626,1.555h15.213C192.777,266.83,193.504,266.132,193.504,265.275"/>
	<path style="fill:#FFFFFF;" d="M318.961,265.275v0.136c0-0.858-0.727-1.557-1.626-1.557h-25.319c-0.899,0-1.626,0.699-1.626,1.557
		v-0.136c0,0.857,0.727,1.555,1.626,1.555h25.319C318.233,266.83,318.961,266.132,318.961,265.275"/>
	<path style="fill:#FFFFFF;" d="M78.826,265.275v0.136c0-0.858-0.727-1.557-1.626-1.557H51.881c-0.899,0-1.626,0.699-1.626,1.557
		v-0.136c0,0.857,0.727,1.555,1.626,1.555H77.2C78.099,266.83,78.826,266.132,78.826,265.275"/>
	<rect x="297.497" y="123.831" style="fill:#FFFFFF;" width="14.405" height="137.353"/>
	<path style="fill:#FFFFFF;" d="M307.615,121.613v-8.196c0-1.625-1.316-2.941-2.94-2.941c-1.624,0-2.94,1.316-2.94,2.941v8.196
		H307.615z"/>
	<path style="fill:#FFFFFF;" d="M293.921,143.287v0.136c0-0.858-0.727-1.557-1.626-1.557h-99.096c-0.898,0-1.625,0.699-1.625,1.557
		v-0.136c0,0.857,0.727,1.555,1.625,1.555h99.096C293.194,144.842,293.921,144.144,293.921,143.287"/>
	<path style="fill:#FFFFFF;" d="M177.075,165.521v0.136c0-0.858-0.727-1.557-1.626-1.557H76.353c-0.898,0-1.625,0.699-1.625,1.557
		v-0.136c0,0.857,0.727,1.555,1.625,1.555h99.096C176.348,167.076,177.075,166.378,177.075,165.521"/>
	<path style="fill:#FFFFFF;" d="M293.921,165.521v0.136c0-0.858-0.727-1.557-1.626-1.557h-99.096c-0.898,0-1.625,0.699-1.625,1.557
		v-0.136c0,0.857,0.727,1.555,1.625,1.555h99.096C293.194,167.076,293.921,166.378,293.921,165.521"/>
	<path style="fill:#FFFFFF;" d="M177.075,187.755v0.136c0-0.858-0.727-1.557-1.626-1.557H76.353c-0.898,0-1.625,0.699-1.625,1.557
		v-0.136c0,0.857,0.727,1.555,1.625,1.555h99.096C176.348,189.31,177.075,188.612,177.075,187.755"/>
	<path style="fill:#FFFFFF;" d="M293.921,187.755v0.136c0-0.858-0.727-1.557-1.626-1.557h-99.096c-0.898,0-1.625,0.699-1.625,1.557
		v-0.136c0,0.857,0.727,1.555,1.625,1.555h99.096C293.194,189.31,293.921,188.612,293.921,187.755"/>
	<path style="fill:#FFFFFF;" d="M177.075,209.989v0.136c0-0.858-0.727-1.557-1.626-1.557H76.353c-0.898,0-1.625,0.699-1.625,1.557
		v-0.136c0,0.857,0.727,1.555,1.625,1.555h99.096C176.348,211.544,177.075,210.846,177.075,209.989"/>
	<path style="fill:#FFFFFF;" d="M293.921,209.989v0.136c0-0.858-0.727-1.557-1.626-1.557h-99.096c-0.898,0-1.625,0.699-1.625,1.557
		v-0.136c0,0.857,0.727,1.555,1.625,1.555h99.096C293.194,211.544,293.921,210.846,293.921,209.989"/>
	<path style="fill:#FFFFFF;" d="M177.075,232.223v0.136c0-0.858-0.727-1.557-1.626-1.557H76.353c-0.898,0-1.625,0.699-1.625,1.557
		v-0.136c0,0.857,0.727,1.555,1.625,1.555h99.096C176.348,233.778,177.075,233.08,177.075,232.223"/>
	<path style="fill:#FFFFFF;" d="M293.921,232.223v0.136c0-0.858-0.727-1.557-1.626-1.557h-99.096c-0.898,0-1.625,0.699-1.625,1.557
		v-0.136c0,0.857,0.727,1.555,1.625,1.555h99.096C293.194,233.778,293.921,233.08,293.921,232.223"/>
	<path style="fill:#FFFFFF;" d="M323.281,101.688v-0.005h-0.048c-0.031-0.001-0.06-0.009-0.092-0.009v0.009h-0.169v-0.009H45.263
		v0.014c-1.515,0.074-2.723,1.302-2.723,2.819c0,1.518,1.208,2.746,2.723,2.82v0.004h0.047c0.032,0.001,0.061,0.009,0.092,0.009
		v-0.009h0.169v0.009h277.71v-0.013c1.515-0.074,2.723-1.302,2.723-2.82C326.004,102.99,324.796,101.762,323.281,101.688"/>
</g>
</svg>
