<?xml version="1.0" encoding="iso-8859-1"?>
<!-- Generator: Adobe Illustrator 25.4.1, SVG Export Plug-In . SVG Version: 6.00 Build 0)  -->
<svg version="1.1" id="Calque_1" xmlns="http://www.w3.org/2000/svg" xmlns:xlink="http://www.w3.org/1999/xlink" x="0px" y="0px"
	 viewBox="0 0 368.5 368.5" style="enable-background:new 0 0 368.5 368.5;" xml:space="preserve">
<g>
	<path style="fill:#FFFFFF;" d="M110.097,125.013h-8.523c-2.735,0-4.954,2.219-4.954,4.955c0,2.738,2.219,4.953,4.954,4.953h161.953
		c2.734,0,4.953-2.215,4.953-4.953c0-2.736-2.219-4.955-4.953-4.955h-8.521c-0.515-14.109-8.245-27.192-21.943-36.975
		c-13.568-9.688-31.502-15.02-50.505-15.02c-19.001,0-36.942,5.332-50.51,15.02C118.342,97.821,110.609,110.904,110.097,125.013"/>
	<path style="fill:#FFFFFF;" d="M217.524,205.076c-3.698,1.4-7.542,2.561-11.501,3.494l27.698,70.15
		c3.22-2.346,6.894-4.089,10.872-5.075L217.524,205.076z"/>
	<path style="fill:#FFFFFF;" d="M147.57,205.078L105.647,311.27c-1.212,3.076,0.293,6.556,3.373,7.768
		c0.721,0.285,1.463,0.422,2.197,0.422c2.384,0,4.64-1.437,5.571-3.791l42.281-107.095
		C155.114,207.639,151.268,206.476,147.57,205.078"/>
	<path style="fill:#FFFFFF;" d="M101.573,156.195h8.644c1.153,13.325,8.786,25.623,21.818,34.929
		c13.565,9.688,31.504,15.022,50.503,15.022c19.011,0,36.947-5.334,50.519-15.022c13.036-9.306,20.673-21.604,21.825-34.929h8.644
		c2.734,0,4.953-2.219,4.953-4.953c0-2.734-2.219-4.951-4.953-4.951H101.573c-2.734,0-4.953,2.217-4.953,4.951
		C96.62,153.976,98.839,156.195,101.573,156.195"/>
	<path style="fill:#FFFFFF;" d="M192.255,42.52h-19.416c-13.052,0-23.675,10.62-23.675,23.676c0,2.286,1.795,4.136,4.055,4.256
		c0.072,0.004,0.141,0.022,0.222,0.022c0.925,0,1.767-0.296,2.462-0.789c1.099-0.777,1.816-2.046,1.816-3.489
		c0-8.335,6.783-15.124,15.12-15.124h19.416c8.337,0,15.122,6.789,15.122,15.124c0,1.441,0.714,2.705,1.805,3.483
		c0.699,0.495,1.552,0.795,2.473,0.795c0.08,0,0.159-0.018,0.238-0.024c2.25-0.125,4.039-1.97,4.039-4.254
		C215.932,53.14,205.312,42.52,192.255,42.52"/>
	<path style="fill:#FFFFFF;" d="M216.759,255.621c0-3.308-2.683-5.989-5.987-5.989h-56.446c-3.308,0-5.988,2.681-5.988,5.989
		s2.68,5.991,5.988,5.991h56.446C214.076,261.612,216.759,258.929,216.759,255.621"/>
	<path style="fill:#FFFFFF;" d="M252.131,282.111c-12.094,0-21.932,9.842-21.932,21.938c0,12.096,9.838,21.936,21.932,21.936
		c12.096,0,21.936-9.84,21.936-21.936C274.067,291.953,264.227,282.111,252.131,282.111 M252.133,291.185
		c7.091,0,12.861,5.77,12.861,12.863c0,7.091-5.77,12.861-12.861,12.861c-7.091,0-12.859-5.77-12.859-12.861
		C239.274,296.956,245.042,291.185,252.133,291.185"/>
</g>
</svg>
