<?xml version="1.0" encoding="iso-8859-1"?>
<!-- Generator: Adobe Illustrator 25.4.1, SVG Export Plug-In . SVG Version: 6.00 Build 0)  -->
<svg version="1.1" id="Calque_1" xmlns="http://www.w3.org/2000/svg" xmlns:xlink="http://www.w3.org/1999/xlink" x="0px" y="0px"
	 viewBox="0 0 368.5 368.5" style="enable-background:new 0 0 368.5 368.5;" xml:space="preserve">
<g>
	<path style="fill:#FFFFFF;" d="M188.916,76.22h9.219c-0.346,1.597-0.528,3.247-0.528,4.936c0,0.777,0.623,1.404,1.395,1.404h44.031
		c0.776,0,1.399-0.627,1.399-1.404c0-12.909-10.5-23.415-23.416-23.415c-6.801,0-12.916,2.937-17.204,7.59
		c-0.359-0.077-0.742-0.116-1.121-0.116h-13.775c-3.039,0-5.506,2.463-5.506,5.502S185.877,76.22,188.916,76.22"/>
	<path style="fill:#FFFFFF;" d="M129.006,258.883c0.654-0.092,1.322-0.158,2.002-0.158h15.279V106.913h-15.279
		c-0.68,0-1.348-0.062-2.002-0.156V258.883z"/>
	<path style="fill:#FFFFFF;" d="M129.006,321.282h17.279V287.42h-15.277c-0.682,0-1.35-0.066-2.002-0.159V321.282z"/>
	<path style="fill:#FFFFFF;" d="M163.762,80.141c3.857-2.959,8.787-4.71,13.676-4.71v-7.405c-8.418,0-16.989,3.911-22.41,10.196
		h1.593C159.221,78.222,161.657,78.928,163.762,80.141"/>
	<path style="fill:#FFFFFF;" d="M156.623,106.915h-5.473c11.053,69.38,16.786,103.199,19.6,119.842
		c2.982,17.604,2.982,17.604,2.982,22.045c0,5.822-2.439,11.078-6.339,14.82c1.687,1.924,2.873,4.295,3.341,6.92
		c6.338-5.135,10.407-12.969,10.407-21.74c0-5.061,0-5.061-3.086-23.283c-2.805-16.546-8.489-50.096-19.432-118.761
		C157.965,106.852,157.307,106.915,156.623,106.915"/>
	<path style="fill:#FFFFFF;" d="M131.006,99.508h25.617c3.826,0,6.944-3.111,6.944-6.939s-3.118-6.942-6.944-6.942h-25.617
		c-3.822,0-6.937,3.114-6.937,6.942S127.184,99.508,131.006,99.508"/>
	<path style="fill:#FFFFFF;" d="M131.006,280.016h25.617c3.826,0,6.944-3.115,6.944-6.945c0-3.826-3.118-6.939-6.944-6.939h-25.617
		c-3.822,0-6.937,3.113-6.937,6.939C124.069,276.901,127.184,280.016,131.006,280.016"/>
	<path style="fill:#FFFFFF;" d="M220.152,138.602c-3.125,0.91-4.936,4.197-4.029,7.325c0.722,2.517,3.064,4.277,5.675,4.277
		c0.567,0,1.118-0.081,1.649-0.234c1.529-0.442,2.797-1.451,3.555-2.843c0.759-1.397,0.927-3,0.492-4.491
		C226.611,139.582,223.193,137.706,220.152,138.602"/>
	<path style="fill:#FFFFFF;" d="M227.488,117.258c-0.883-3.052-4.24-4.936-7.346-4.031c-3.125,0.92-4.925,4.208-4.021,7.319
		c0.721,2.522,3.054,4.281,5.68,4.281c0.562,0,1.113-0.078,1.667-0.236c1.526-0.445,2.78-1.462,3.541-2.857
		C227.765,120.349,227.933,118.747,227.488,117.258"/>
	<path style="fill:#FFFFFF;" d="M221.801,104.39c0.562,0,1.111-0.075,1.648-0.234c1.528-0.44,2.795-1.452,3.551-2.845
		c0.766-1.392,0.932-2.994,0.49-4.488c-0.886-3.055-4.304-4.923-7.335-4.035c-3.129,0.913-4.938,4.199-4.036,7.327
		C216.848,102.633,219.186,104.39,221.801,104.39"/>
	<path style="fill:#FFFFFF;" d="M146.285,78.221V47.218h-17.279v31.161c0.652-0.093,1.32-0.158,2.002-0.158H146.285z"/>
</g>
</svg>
