<?xml version="1.0" encoding="iso-8859-1"?>
<!-- Generator: Adobe Illustrator 25.4.1, SVG Export Plug-In . SVG Version: 6.00 Build 0)  -->
<svg version="1.1" id="Calque_1" xmlns="http://www.w3.org/2000/svg" xmlns:xlink="http://www.w3.org/1999/xlink" x="0px" y="0px"
	 viewBox="0 0 368.5 368.5" style="enable-background:new 0 0 368.5 368.5;" xml:space="preserve">
<g>
	<path style="fill:#FFFFFF;" d="M183.456,149.667c-0.817,2.688-1.427,6.15-1.427,10.318c0,2.053,0.154,3.923,0.399,5.627h37.534
		c-0.174-1.819-0.284-3.686-0.284-5.627c0-3.656,0.327-7.109,0.931-10.318H183.456z"/>
	<path style="fill:#FFFFFF;" d="M237.046,149.668c-0.812,2.687-1.424,6.149-1.424,10.318c0,2.052,0.155,3.923,0.4,5.627h49.017
		c-0.12-0.684-0.192-1.387-0.192-2.107v-13.838H237.046z"/>
	<path style="fill:#FFFFFF;" d="M309.783,149.667v13.839c0,0.719-0.075,1.422-0.191,2.106h8.427c4.404,0,7.972-3.567,7.972-7.973
		c0-4.401-3.568-7.972-7.972-7.972H309.783z"/>
	<path style="fill:#FFFFFF;" d="M50.499,165.612h10.86c-0.117-0.684-0.192-1.387-0.192-2.106v-13.839H50.499
		c-4.404,0-7.972,3.571-7.972,7.973C42.527,162.045,46.095,165.612,50.499,165.612"/>
	<path style="fill:#FFFFFF;" d="M86.103,163.506c0,0.719-0.073,1.422-0.189,2.107h26.869c-0.175-1.82-0.288-3.687-0.288-5.628
		c0-3.656,0.331-7.109,0.935-10.317H86.103V163.506z"/>
	<path style="fill:#FFFFFF;" d="M128.439,159.985c0,2.052,0.153,3.922,0.402,5.627h37.531c-0.176-1.819-0.287-3.686-0.287-5.627
		c0-3.656,0.328-7.109,0.933-10.318h-37.154C129.051,152.355,128.439,155.816,128.439,159.985"/>
	<path style="fill:#FFFFFF;" d="M65.951,131.253v32.253c0,4.24,3.448,7.686,7.685,7.686s7.685-3.446,7.685-7.686v-32.253
		c0-4.238-3.448-7.688-7.685-7.688S65.951,127.015,65.951,131.253"/>
	<path style="fill:#FFFFFF;" d="M297.316,171.192c4.237,0,7.684-3.446,7.684-7.686v-32.253c0-4.237-3.447-7.687-7.684-7.687
		c-4.237,0-7.684,3.45-7.684,7.687v32.253C289.632,167.746,293.079,171.192,297.316,171.192"/>
	<path style="fill:#FFFFFF;" d="M96.005,241.4c4.927,1.923,9.785,3.538,15.585,3.538c6.738,0,12.217-2.193,18.02-4.509
		c5.618-2.251,11.415-4.573,18.315-4.573c6.904,0,12.702,2.322,18.308,4.565c5.82,2.329,11.295,4.517,18.025,4.517
		c6.714,0,12.179-2.181,17.966-4.487c5.673-2.273,11.469-4.595,18.365-4.595c6.901,0,12.701,2.322,18.31,4.565
		c5.826,2.329,11.301,4.517,18.029,4.517c5.788,0,10.65-1.62,15.587-3.544v-62.32h-26.728c1.371,1.434,2.213,3.372,2.213,5.506
		c0,4.399-3.574,7.972-7.973,7.972c-7.224,0-13.223-5.156-16.794-13.478h-31.04c1.371,1.434,2.216,3.372,2.216,5.506
		c0,4.399-3.577,7.972-7.972,7.972c-7.226,0-13.226-5.156-16.796-13.478h-31.039c1.369,1.434,2.215,3.372,2.215,5.506
		c0,4.399-3.578,7.972-7.973,7.972c-7.223,0-13.221-5.156-16.795-13.478H96.005V241.4z"/>
	<path style="fill:#FFFFFF;" d="M117.279,159.985c0,15.842,6.69,27.784,15.566,27.784c1.761,0,3.189-1.426,3.189-3.189
		c0-1.757-1.428-3.189-3.189-3.189c-4.339,0-9.188-9.151-9.188-21.406c0-12.251,4.849-21.406,9.188-21.406
		c1.739,0,3.665,1.564,5.274,4.297c0.596,1.008,1.66,1.567,2.751,1.567c0.55,0,1.109-0.143,1.62-0.439
		c1.516-0.898,2.019-2.855,1.121-4.371c-2.826-4.793-6.65-7.432-10.766-7.432C123.968,132.201,117.279,144.147,117.279,159.985"/>
	<path style="fill:#FFFFFF;" d="M186.438,187.77c1.758,0,3.189-1.427,3.189-3.189c0-1.758-1.431-3.189-3.189-3.189
		c-4.341,0-9.191-9.151-9.191-21.407c0-12.251,4.85-21.405,9.191-21.405c1.741,0,3.662,1.564,5.274,4.296
		c0.593,1.007,1.655,1.568,2.749,1.568c0.547,0,1.108-0.143,1.619-0.439c1.516-0.899,2.019-2.855,1.127-4.372
		c-2.834-4.794-6.657-7.431-10.769-7.431c-8.877,0-15.569,11.944-15.569,27.783C170.869,175.828,177.561,187.77,186.438,187.77"/>
	<path style="fill:#FFFFFF;" d="M240.028,187.77c1.76,0,3.189-1.427,3.189-3.189c0-1.758-1.429-3.189-3.189-3.189
		c-4.339,0-9.189-9.151-9.189-21.407c0-12.251,4.85-21.405,9.189-21.405c1.742,0,3.661,1.564,5.276,4.296
		c0.594,1.007,1.656,1.568,2.747,1.568c0.552,0,1.112-0.143,1.62-0.439c1.517-0.899,2.022-2.855,1.128-4.372
		c-2.832-4.794-6.659-7.431-10.771-7.431c-8.876,0-15.567,11.944-15.567,27.783C224.461,175.828,231.152,187.77,240.028,187.77"/>
</g>
</svg>
