<?xml version="1.0" encoding="iso-8859-1"?>
<!-- Generator: Adobe Illustrator 25.4.1, SVG Export Plug-In . SVG Version: 6.00 Build 0)  -->
<svg version="1.1" id="Calque_1" xmlns="http://www.w3.org/2000/svg" xmlns:xlink="http://www.w3.org/1999/xlink" x="0px" y="0px"
	 viewBox="0 0 368.5 368.5" style="enable-background:new 0 0 368.5 368.5;" xml:space="preserve">
<g>
	<path style="fill:#FFFFFF;" d="M221.867,301.052c-0.391,0.542-1.004,0.831-1.624,0.831c-0.405,0-0.815-0.123-1.168-0.378
		c-0.896-0.645-1.099-1.895-0.453-2.792l85.328-118.36V54.277h-63.329l-47.314,68.186c1.362,2.183,1.811,4.385,1.237,6.479
		c-0.768,2.803-3.215,4.851-6.983,5.985c5.54,3.869,8.068,8.208,6.983,12.163c-0.909,3.317-4.166,5.579-9.186,6.516v9.687
		c0,7.906-11.244,27.757-12.526,29.994c-0.445,0.778-1.273,1.258-2.169,1.258h-0.007c-1.496-0.004-2.056-0.006-8.365-12.99
		c-1.612-3.318-2.909-6.236-3.9-8.774L64.623,307.914c16.172-7.98,43.395-12.908,74.389-12.908c37.288,0,69.548,7.259,83.087,18.363
		l81.851-116.574v-9.602L221.867,301.052z M167.301,202.235c0-1.932,1.567-3.5,3.5-3.5s3.5,1.568,3.5,3.5v5
		c0,1.933-1.567,3.5-3.5,3.5s-3.5-1.567-3.5-3.5V202.235z M171.901,261.883c-16.636,0-34.316-5.758-34.316-16.428
		c0-10.008,15.55-15.693,31.205-16.361c-0.898-0.635-1.489-1.676-1.489-2.859v-5c0-1.932,1.567-3.5,3.5-3.5s3.5,1.568,3.5,3.5v5
		c0,1.152-0.564,2.164-1.421,2.802c16.343,0.221,33.337,5.956,33.337,16.418C206.217,256.125,188.537,261.883,171.901,261.883"/>
	<path style="fill:#FFFFFF;" d="M64.55,315.896h148.87c-12.973-7.493-39.65-13.89-74.408-13.89
		C103.956,302.006,77.459,308.36,64.55,315.896"/>
	<path style="fill:#FFFFFF;" d="M171.901,236.027c-16.675,0-27.316,5.585-27.316,9.429c0,1.953,2.75,4.353,7.637,6.244
		c0.832-4.593,7.605-7.42,15.079-8.244v-3.22c0-1.933,1.567-3.5,3.5-3.5s3.5,1.567,3.5,3.5v3.038
		c8.296,0.473,16.365,3.386,17.278,8.426c4.888-1.891,7.638-4.291,7.638-6.244C199.217,241.612,188.576,236.027,171.901,236.027"/>
	<path style="fill:#FFFFFF;" d="M169.991,120.672c2.281,0.654,4.561,1.001,6.596,1c1.765,0,2.982-0.252,3.77-0.549v-3.342
		c-0.242,0.004-0.479,0.014-0.727,0.014h-0.002c-4.193,0-8.864-0.673-13.509-1.946c-1.739-0.477-3.468-1.046-5.151-1.689v1.393
		C162.125,117.024,165.021,119.246,169.991,120.672"/>
	<path style="fill:#FFFFFF;" d="M159.374,84.719c0.962,0.374,1.595,1.3,1.595,2.331v10.356c1.157,1.469,4.053,3.692,9.023,5.12
		c2.28,0.653,4.561,1,6.595,0.999c1.766,0,2.983-0.253,3.771-0.549V87.355c0-1.053,0.66-1.993,1.65-2.351
		c7.169-2.593,12.758-7.271,15.814-11.383c-6.192,3.516-15.701,5.688-26.745,5.688c-11.077,0-20.608-2.185-26.797-5.719
		C147.193,77.549,152.477,82.041,159.374,84.719"/>
	<path style="fill:#FFFFFF;" d="M160.968,163.294c0,4.724,6.179,17.156,9.676,23.641c4.494-8.311,9.713-19.364,9.713-23.641v-9.215
		c-0.244,0.004-0.481,0.014-0.73,0.014h-0.002c-4.192,0-8.863-0.672-13.506-1.945c-1.738-0.477-3.467-1.045-5.151-1.689V163.294z"/>
	<path style="fill:#FFFFFF;" d="M180.357,135.929c-0.244,0.005-0.481,0.015-0.73,0.015c-4.192,0-8.863-0.673-13.509-1.947
		c-1.738-0.476-3.467-1.045-5.15-1.688v1.393c1.157,1.47,4.053,3.693,9.023,5.119c2.281,0.654,4.561,1.001,6.595,1
		c1.766,0,2.983-0.252,3.771-0.549V135.929z"/>
	<path style="fill:#FFFFFF;" d="M171.077,74.309c16.784,0,29.326-5.731,29.326-10.853c0-5.122-12.542-10.852-29.326-10.852
		c-16.785,0-29.327,5.73-29.327,10.852C141.75,68.578,154.292,74.309,171.077,74.309 M178.411,55.301
		c0.986,0.967,1.003,2.549,0.036,3.535l-2.489,2.541l10.604,1.327c1.37,0.171,2.341,1.421,2.17,2.791
		c-0.158,1.265-1.235,2.191-2.478,2.191c-0.103,0-0.208-0.008-0.313-0.021l-14.38-1.8l-4.246,4.334
		c-0.489,0.5-1.137,0.751-1.785,0.751c-0.632,0-1.264-0.237-1.75-0.713c-0.986-0.967-1.002-2.549-0.036-3.536l1.583-1.615
		l-10.635-1.331c-1.37-0.171-2.342-1.421-2.17-2.791s1.42-2.343,2.791-2.17l14.41,1.804l5.153-5.26
		C175.841,54.352,177.425,54.334,178.411,55.301"/>
	<path style="fill:#FFFFFF;" d="M167.441,111.027c4.221,1.157,8.435,1.768,12.188,1.768h0.001c6.308,0,9.653-1.722,10.092-3.323
		c0.33-1.205-0.699-3.272-3.487-5.579c-1.053,2.949-4.541,4.632-9.648,4.632c-2.494,0.001-5.252-0.413-7.975-1.194
		c-7.409-2.127-14.15-6.92-13.15-12.106c-3.934,0.512-6.045,1.838-6.393,3.102C148.274,101.233,155.034,107.626,167.441,111.027"/>
	<path style="fill:#FFFFFF;" d="M167.441,129.175c4.221,1.157,8.435,1.769,12.186,1.769c6.31,0,9.656-1.723,10.095-3.325
		c0.33-1.205-0.698-3.272-3.487-5.578c-1.053,2.949-4.541,4.631-9.648,4.631c-2.495,0.001-5.252-0.412-7.975-1.193
		c-7.409-2.127-14.15-6.92-13.15-12.106c-3.934,0.512-6.045,1.838-6.393,3.102C148.274,119.381,155.034,125.774,167.441,129.175"/>
	<path style="fill:#FFFFFF;" d="M167.441,147.325c4.219,1.156,8.432,1.768,12.184,1.768h0.002c6.31,0,9.656-1.723,10.095-3.325
		c0.33-1.205-0.698-3.273-3.487-5.578c-1.052,2.95-4.541,4.631-9.648,4.631c-2.495,0.001-5.252-0.412-7.975-1.193
		c-7.409-2.127-14.15-6.921-13.15-12.106c-3.934,0.512-6.045,1.838-6.393,3.102C148.274,137.53,155.034,143.923,167.441,147.325"/>
</g>
</svg>
