<?xml version="1.0" encoding="iso-8859-1"?>
<!-- Generator: Adobe Illustrator 25.4.1, SVG Export Plug-In . SVG Version: 6.00 Build 0)  -->
<svg version="1.1" id="Calque_1" xmlns="http://www.w3.org/2000/svg" xmlns:xlink="http://www.w3.org/1999/xlink" x="0px" y="0px"
	 viewBox="0 0 368.5 368.5" style="enable-background:new 0 0 368.5 368.5;" xml:space="preserve">
<g>
	<path style="fill:#FFFFFF;" d="M85.64,278.328v-178.02c0-5.599-4.536-10.133-10.133-10.133s-10.133,4.534-10.133,10.133v178.02"/>
	<path style="fill:#FFFFFF;" d="M129.575,278.328v-178.02c0-5.599-4.536-10.133-10.133-10.133s-10.133,4.534-10.133,10.133v178.02"
		/>
	<path style="fill:#FFFFFF;" d="M173.509,278.328v-178.02c0-5.599-4.536-10.133-10.133-10.133s-10.133,4.534-10.133,10.133v178.02"
		/>
	<path style="fill:#FFFFFF;" d="M217.444,278.328v-178.02c0-5.599-4.536-10.133-10.133-10.133s-10.133,4.534-10.133,10.133v178.02"
		/>
	<path style="fill:#FFFFFF;" d="M261.378,278.328v-178.02c0-5.599-4.536-10.133-10.133-10.133s-10.133,4.534-10.133,10.133v178.02"
		/>
	<path style="fill:#FFFFFF;" d="M305.313,278.328v-178.02c0-5.599-4.536-10.133-10.133-10.133c-5.597,0-10.133,4.534-10.133,10.133
		v178.02"/>
	<path style="fill:#FFFFFF;" d="M107.32,252.177v-15.876c0-0.849-0.72-1.541-1.609-1.541H89.18c-0.89,0-1.61,0.692-1.61,1.541
		v15.876c0,0.849,0.72,1.54,1.61,1.54h16.531C106.6,253.717,107.32,253.026,107.32,252.177"/>
	<path style="fill:#FFFFFF;" d="M63.355,252.177v-15.876c0-0.849-0.72-1.541-1.609-1.541H45.215c-0.89,0-1.61,0.692-1.61,1.541
		v15.876c0,0.849,0.72,1.54,1.61,1.54h16.531C62.635,253.717,63.355,253.026,63.355,252.177"/>
	<path style="fill:#FFFFFF;" d="M151.285,252.177v-15.876c0-0.849-0.72-1.541-1.609-1.541h-16.531c-0.89,0-1.61,0.692-1.61,1.541
		v15.876c0,0.849,0.72,1.54,1.61,1.54h16.531C150.565,253.717,151.285,253.026,151.285,252.177"/>
	<path style="fill:#FFFFFF;" d="M195.174,252.177v-15.876c0-0.849-0.72-1.541-1.609-1.541h-16.531c-0.89,0-1.61,0.692-1.61,1.541
		v15.876c0,0.849,0.72,1.54,1.61,1.54h16.531C194.454,253.717,195.174,253.026,195.174,252.177"/>
	<path style="fill:#FFFFFF;" d="M239.139,252.177v-15.876c0-0.849-0.72-1.541-1.609-1.541h-16.531c-0.89,0-1.61,0.692-1.61,1.541
		v15.876c0,0.849,0.72,1.54,1.61,1.54h16.531C238.419,253.717,239.139,253.026,239.139,252.177"/>
	<path style="fill:#FFFFFF;" d="M283.104,252.177v-15.876c0-0.849-0.72-1.541-1.609-1.541h-16.531c-0.89,0-1.61,0.692-1.61,1.541
		v15.876c0,0.849,0.72,1.54,1.61,1.54h16.531C282.384,253.717,283.104,253.026,283.104,252.177"/>
	<path style="fill:#FFFFFF;" d="M327.069,252.177v-15.876c0-0.849-0.72-1.541-1.609-1.541h-16.531c-0.89,0-1.61,0.692-1.61,1.541
		v15.876c0,0.849,0.72,1.54,1.61,1.54h16.531C326.349,253.717,327.069,253.026,327.069,252.177"/>
	<path style="fill:#FFFFFF;" d="M107.32,147.59v-15.876c0-0.849-0.72-1.541-1.609-1.541H89.18c-0.89,0-1.61,0.692-1.61,1.541v15.876
		c0,0.849,0.72,1.54,1.61,1.54h16.531C106.6,149.13,107.32,148.439,107.32,147.59"/>
	<path style="fill:#FFFFFF;" d="M63.355,147.59v-15.876c0-0.849-0.72-1.541-1.609-1.541H45.215c-0.89,0-1.61,0.692-1.61,1.541
		v15.876c0,0.849,0.72,1.54,1.61,1.54h16.531C62.635,149.13,63.355,148.439,63.355,147.59"/>
	<path style="fill:#FFFFFF;" d="M151.285,147.59v-15.876c0-0.849-0.72-1.541-1.609-1.541h-16.531c-0.89,0-1.61,0.692-1.61,1.541
		v15.876c0,0.849,0.72,1.54,1.61,1.54h16.531C150.565,149.13,151.285,148.439,151.285,147.59"/>
	<path style="fill:#FFFFFF;" d="M195.174,147.59v-15.876c0-0.849-0.72-1.541-1.609-1.541h-16.531c-0.89,0-1.61,0.692-1.61,1.541
		v15.876c0,0.849,0.72,1.54,1.61,1.54h16.531C194.454,149.13,195.174,148.439,195.174,147.59"/>
	<path style="fill:#FFFFFF;" d="M239.139,147.59v-15.876c0-0.849-0.72-1.541-1.609-1.541h-16.531c-0.89,0-1.61,0.692-1.61,1.541
		v15.876c0,0.849,0.72,1.54,1.61,1.54h16.531C238.419,149.13,239.139,148.439,239.139,147.59"/>
	<path style="fill:#FFFFFF;" d="M283.104,147.59v-15.876c0-0.849-0.72-1.541-1.609-1.541h-16.531c-0.89,0-1.61,0.692-1.61,1.541
		v15.876c0,0.849,0.72,1.54,1.61,1.54h16.531C282.384,149.13,283.104,148.439,283.104,147.59"/>
	<path style="fill:#FFFFFF;" d="M327.069,147.59v-15.876c0-0.849-0.72-1.541-1.609-1.541h-16.531c-0.89,0-1.61,0.692-1.61,1.541
		v15.876c0,0.849,0.72,1.54,1.61,1.54h16.531C326.349,149.13,327.069,148.439,327.069,147.59"/>
</g>
</svg>
