<?xml version="1.0" encoding="iso-8859-1"?>
<!-- Generator: Adobe Illustrator 25.4.1, SVG Export Plug-In . SVG Version: 6.00 Build 0)  -->
<svg version="1.1" id="Calque_1" xmlns="http://www.w3.org/2000/svg" xmlns:xlink="http://www.w3.org/1999/xlink" x="0px" y="0px"
	 viewBox="0 0 368.5 368.5" style="enable-background:new 0 0 368.5 368.5;" xml:space="preserve">
<g>
	<path style="fill:#FFFFFF;" d="M64.362,52.598c0.055-0.205,0.102-0.357,0.13-0.445c0.01-0.051,0.014-0.051,0.014-0.051
		c1.274-3.813-0.788-7.935-4.599-9.204c-3.814-1.276-7.936,0.785-9.203,4.595c-0.14,0.451-2.002,5.968-2.027,13.494
		c0.008,4.131,0.583,8.933,2.62,13.76c3.161,7.474,9.361,11.68,14.966,14.358c5.688,2.715,11.363,4.407,15.496,6.373
		c2.812,1.273,6.073,4.179,8.612,7.079l10.295-10.296c-3.222-3.569-7.359-7.393-12.724-9.956
		c-5.539-2.573-11.126-4.238-15.356-6.314c-4.313-2.101-6.705-4.124-7.887-6.914c-1.046-2.459-1.47-5.344-1.466-8.09
		c0-2.494,0.341-4.835,0.676-6.488C64.076,53.672,64.242,53.022,64.362,52.598"/>
	<path style="fill:#FFFFFF;" d="M112.307,89.694l-28.722,28.717c-9.358,9.361-9.358,24.538,0,33.899l166.657,166.655
		c9.361,9.36,24.54,9.36,33.898,0l28.719-28.715c9.362-9.362,9.362-24.539,0-33.9L146.198,89.694
		C136.841,80.333,121.664,80.333,112.307,89.694 M236.575,241.957c10.812-10.815,28.34-10.815,39.152,0
		c10.815,10.812,10.815,28.338,0,39.156c-10.812,10.811-28.34,10.811-39.152,0C225.76,270.296,225.76,252.766,236.575,241.957
		 M179.708,185.092c10.816-10.811,28.345-10.811,39.156,0c10.811,10.816,10.811,28.342,0,39.157
		c-10.811,10.812-28.34,10.812-39.156,0C168.897,213.435,168.897,195.906,179.708,185.092 M162.001,167.385
		c-10.815,10.811-28.344,10.811-39.155,0c-10.812-10.815-10.812-28.343,0-39.155c10.811-10.812,28.34-10.812,39.155,0
		C172.812,139.044,172.812,156.571,162.001,167.385"/>
	<path style="fill:#FFFFFF;" d="M151.628,160.977c1.208,0,2.339-0.465,3.182-1.306c0.845-0.84,1.31-1.969,1.312-3.181
		c0.002-1.249-0.51-2.478-1.409-3.38c-1.779-1.775-4.829-1.824-6.557-0.099c-0.878,0.877-1.343,2.055-1.308,3.316
		c0.034,1.214,0.534,2.366,1.409,3.241C149.167,160.476,150.363,160.977,151.628,160.977"/>
	<path style="fill:#FFFFFF;" d="M130.351,135.201c-1.781,1.779-1.738,4.723,0.1,6.563c0.907,0.906,2.101,1.405,3.364,1.405
		c1.211,0,2.342-0.465,3.186-1.306c0.845-0.842,1.312-1.973,1.314-3.183c0.002-1.268-0.497-2.467-1.409-3.38
		C135.125,133.524,132.083,133.475,130.351,135.201"/>
	<path style="fill:#FFFFFF;" d="M208.487,217.841c1.21,0,2.341-0.465,3.192-1.312c0.877-0.877,1.342-2.055,1.306-3.316
		c-0.035-1.215-0.534-2.366-1.405-3.237c-1.779-1.781-4.825-1.835-6.561-0.101c-1.781,1.781-1.735,4.721,0.101,6.557
		C206.028,217.342,207.224,217.841,208.487,217.841"/>
	<path style="fill:#FFFFFF;" d="M190.682,200.032c1.212,0,2.345-0.465,3.19-1.311c1.777-1.782,1.73-4.722-0.105-6.557
		c-1.779-1.775-4.827-1.828-6.556-0.098c-1.772,1.778-1.73,4.718,0.102,6.561C188.221,199.534,189.417,200.032,190.682,200.032"/>
	<path style="fill:#FFFFFF;" d="M265.35,274.702c1.208,0,2.341-0.463,3.192-1.31c0.877-0.877,1.342-2.055,1.306-3.318
		c-0.035-1.215-0.534-2.366-1.409-3.241c-1.777-1.774-4.827-1.82-6.553-0.098c-0.88,0.878-1.345,2.058-1.31,3.317
		c0.032,1.216,0.532,2.369,1.409,3.245C262.893,274.203,264.089,274.702,265.35,274.702"/>
	<path style="fill:#FFFFFF;" d="M247.549,256.897c1.21,0,2.341-0.465,3.186-1.311c1.773-1.778,1.73-4.716-0.101-6.56
		c-1.779-1.775-4.833-1.823-6.557-0.093c-1.779,1.779-1.733,4.718,0.101,6.553C245.088,256.395,246.284,256.897,247.549,256.897"/>
</g>
</svg>
