<?xml version="1.0" encoding="iso-8859-1"?>
<!-- Generator: Adobe Illustrator 25.4.1, SVG Export Plug-In . SVG Version: 6.00 Build 0)  -->
<svg version="1.1" id="Calque_1" xmlns="http://www.w3.org/2000/svg" xmlns:xlink="http://www.w3.org/1999/xlink" x="0px" y="0px"
	 viewBox="0 0 368.5 368.5" style="enable-background:new 0 0 368.5 368.5;" xml:space="preserve">
<g>
	<path style="fill:#FFFFFF;" d="M123.579,117.858h17.743v-0.138c0.014-10.951,8.933-19.871,19.881-19.887h47.122
		c10.951,0.016,19.871,8.936,19.889,19.882v0.143h17.741v-0.138c-0.01-20.735-16.891-37.615-37.631-37.624h-47.116
		c-20.737,0.009-37.618,16.889-37.629,37.626V117.858z"/>
	<path style="fill:#FFFFFF;" d="M269.399,195.022c0,11.559-9.403,20.962-20.961,20.962c-11.562,0-20.967-9.403-20.967-20.962v-9.695
		h-85.663v10.129c0,11.559-9.41,20.965-20.974,20.965c-11.56,0-20.965-9.406-20.965-20.965v-10.129H52.28l9.825,77.05
		c0,14.376,11.657,26.03,26.031,26.03h191.725c14.374,0,26.029-11.654,26.029-26.03l9.825-77.05h-46.316V195.022z"/>
	<path style="fill:#FFFFFF;" d="M42.526,179.202h57.343v-10.809c0-11.561,9.405-20.966,20.965-20.966
		c11.564,0,20.974,9.405,20.974,20.966v10.809h85.663v-11.248c0-11.558,9.405-20.964,20.967-20.964
		c11.558,0,20.961,9.406,20.961,20.964v11.248h56.592V146.95c0-12.663-10.132-22.967-22.585-22.967H65.11
		c-12.453,0-22.584,10.304-22.584,22.967V179.202z"/>
	<path style="fill:#FFFFFF;" d="M129.557,168.393c0-4.806-3.913-8.716-8.723-8.716c-4.805,0-8.714,3.91-8.714,8.716v27.063
		c0,4.806,3.909,8.714,8.714,8.714c4.81,0,8.723-3.908,8.723-8.714V168.393z"/>
	<path style="fill:#FFFFFF;" d="M257.149,167.955c0-4.806-3.907-8.714-8.711-8.714c-4.806,0-8.716,3.908-8.716,8.714v27.067
		c0,4.804,3.91,8.712,8.716,8.712c4.804,0,8.711-3.908,8.711-8.712V167.955z"/>
</g>
</svg>
