<?xml version="1.0" encoding="iso-8859-1"?>
<!-- Generator: Adobe Illustrator 25.4.1, SVG Export Plug-In . SVG Version: 6.00 Build 0)  -->
<svg version="1.1" id="Calque_1" xmlns="http://www.w3.org/2000/svg" xmlns:xlink="http://www.w3.org/1999/xlink" x="0px" y="0px"
	 viewBox="0 0 368.5 368.5" style="enable-background:new 0 0 368.5 368.5;" xml:space="preserve">
<g>
	<path style="fill:#FFFFFF;" d="M169.698,105.707c9.177,0,16.719-7.084,17.477-16.068c-0.97-1.899-2.399-3.526-4.152-4.718
		c0.143,0.793,0.227,1.606,0.227,2.428v0.804c0,7.474-6.079,13.554-13.552,13.554h-57.75c-1.137,0-2.268-0.142-3.36-0.42
		c-0.061-0.016-0.121-0.017-0.182-0.027c0.016,0.038,0.034,0.075,0.051,0.112c0.124,0.27,0.243,0.544,0.387,0.806
		c0.108,0.197,0.237,0.382,0.357,0.574c0.155,0.249,0.306,0.501,0.479,0.738c0.134,0.186,0.286,0.358,0.431,0.535
		c0.185,0.227,0.367,0.456,0.569,0.671c0.158,0.169,0.333,0.325,0.501,0.486c0.185,0.176,0.371,0.352,0.567,0.518
		c0.067,0.001,0.133,0.007,0.2,0.007H169.698z"/>
	<path style="fill:#FFFFFF;" d="M79.224,111.027c-0.097,19.77-0.229,46.845,0.967,57.381c0.465,4.084,1.388,10.137,2.458,17.145
		c3.439,22.531,8.636,56.577,6.535,76.992c-2.038,19.783-4.098,32.341-5.011,37.429L97.02,317.24V120.488L79.268,96.699
		C79.276,99.873,79.256,104.429,79.224,111.027"/>
	<path style="fill:#FFFFFF;" d="M61.492,167.863c-2.296-25.032-4.671-50.916-3.884-65.534c0.848-15.728,4.065-24.786,5.24-27.63
		l-7.674-10.283c-0.015,16.569,0.158,75.136,3.132,111.467c2.828,34.554-0.937,72.515-2.507,85.957l12.476,16.767
		c-0.725-17.545-2.552-59.44-4.359-82.943C63.257,187.093,62.399,177.754,61.492,167.863"/>
	<path style="fill:#FFFFFF;" d="M79.684,186.006c-1.074-7.039-2.003-13.117-2.473-17.26c-1.217-10.711-1.084-37.889-0.987-57.734
		c0.038-7.585,0.072-14.834-0.001-18.391l-11.24-15.062c-1.353,3.857-3.689,12.146-4.378,24.931
		c-0.776,14.401,1.588,40.174,3.875,65.1c0.909,9.9,1.766,19.252,2.428,27.844c1.987,25.841,3.995,73.826,4.545,87.444
		l10.251,13.778c1.036-6.164,2.772-17.675,4.496-34.42C88.262,242.204,83.099,208.385,79.684,186.006"/>
	<path style="fill:#FFFFFF;" d="M55.316,176.127c-3.333-40.719-3.159-109.199-3.134-115.72l-6.5-8.709v196.546l7.496,10.074
		C54.872,242.863,57.925,208.017,55.316,176.127"/>
	<path style="fill:#FFFFFF;" d="M247.925,45.87H47.572l52.703,70.621c0.083-0.006,0.162-0.026,0.246-0.026h218.62L247.925,45.87z
		 M293.011,111.602H183.649c-0.001,0-0.002,0.001-0.003,0.001h-71.439c-0.002,0-0.003-0.001-0.004-0.001h-5.808
		c-0.803,0-1.558-0.386-2.028-1.037L64.982,55.961c-0.55-0.76-0.626-1.765-0.199-2.6c0.428-0.835,1.288-1.362,2.226-1.362h173.729
		c0.682,0,1.334,0.279,1.805,0.771l52.274,54.603c0.692,0.724,0.886,1.79,0.493,2.711
		C294.917,111.005,294.012,111.602,293.011,111.602"/>
	<path style="fill:#FFFFFF;" d="M127.076,195.286c-7.746-39.787-1.196-66.1,0.481-71.821h-23.536v199.166h27.681
		c0.913-3.578,3.796-15.942,4.767-32.755C137.836,266.148,134.676,234.324,127.076,195.286"/>
	<path style="fill:#FFFFFF;" d="M208.829,301.293c-2.242-19.623-5.077-20.017-5.105-20.018c-0.082,0.036-2.734,1.221-3.617,21.381
		c-0.375,8.558-0.272,17.039-0.218,19.975h10.588c-0.034-0.118-0.059-0.24-0.064-0.37
		C210.409,322.156,210.015,311.674,208.829,301.293"/>
	<path style="fill:#FFFFFF;" d="M203.925,240.367c-0.439-0.081-1.132-0.1-2.1,0.652c-9.475,7.372-15.069,60.606-16.517,81.612
		h11.577c-0.185-8.536-0.46-38.471,4.635-43.403c0.876-0.847,1.783-0.978,2.38-0.949c2.649,0.157,5.661,2.975,7.912,22.688
		c1.197,10.494,1.595,21.078,1.599,21.183c0.007,0.168-0.022,0.328-0.067,0.481h14.817
		C223.67,290.577,213.532,242.137,203.925,240.367"/>
	<path style="fill:#FFFFFF;" d="M221.719,181.509h-34.875c0.072,10.081-0.538,43.458-11.551,49.876
		c-1.319,0.77-2.722,1.153-4.202,1.153c-1.953,0-4.04-0.669-6.241-2.005c-20.464-12.423-16.474-92.052-15.53-107.068h-18.625
		c-0.752,2.404-8.774,29.645-0.675,71.248c7.649,39.283,10.826,71.36,9.444,95.336c-0.926,16.033-3.572,28.116-4.67,32.582h47.508
		c0.536-7.697,5.53-74.525,17.682-83.979c1.421-1.105,2.932-1.521,4.485-1.234c2.509,0.462,10.143,1.869,19.612,45.368
		c3.672,16.869,6.216,33.687,7.1,39.845h10.327c0.065-13.186-7.927-61.998-14.704-88.724
		C220.834,210.357,221.33,188.72,221.719,181.509"/>
	<path style="fill:#FFFFFF;" d="M299.511,204.105c1.655-31.411,14.718-70.213,18.41-80.641h-33.01
		c-1.103,19.025-5.538,99.616-2.855,121.417c2.578,20.941,16.47,64.73,20.697,77.749h13.734
		C313.684,310.169,297.753,237.514,299.511,204.105"/>
	<path style="fill:#FFFFFF;" d="M281.904,123.465h-16.317c-1.568,14.215-9.249,86.838-5.142,109.764
		c4.049,22.607-1.697,75.022-3.404,89.402H299.6c-4.571-14.131-17.972-56.67-20.521-77.383
		C276.336,222.96,280.758,143.053,281.904,123.465"/>
	<path style="fill:#FFFFFF;" d="M257.492,233.758c-2.271-12.68-1.101-39.402,0.722-63.699c-2.502,6.677-8.93,11.45-16.469,11.45
		h-17.022c-0.38,6.821-0.941,28.27,4.989,51.659c6.774,26.715,14.722,75.516,14.774,89.463h9.529
		C255.623,308.977,261.449,255.845,257.492,233.758"/>
	<path style="fill:#FFFFFF;" d="M152.331,123.465c-0.846,13.939-4.77,93.063,14.075,104.504c2.897,1.758,5.31,2.029,7.376,0.824
		c8.681-5.058,10.202-33.775,10.067-47.381c-8.845-0.92-15.764-8.418-15.764-17.502v-0.78c0-8.503,6.061-15.614,14.089-17.246
		l-2.037-22.419H152.331z"/>
	<path style="fill:#FFFFFF;" d="M223.194,145.531l0.621-22.066h-40.666l2.007,22.092c0.176-0.005,0.349-0.026,0.526-0.026H223.194z"
		/>
	<path style="fill:#FFFFFF;" d="M262.565,123.465h-35.749l-0.621,22.066h15.549c8.582,0,15.737,6.177,17.281,14.317
		C260.408,143.369,261.917,129.298,262.565,123.465"/>
	<path style="fill:#FFFFFF;" d="M302.507,204.264c-1.772,33.677,14.749,108.172,17.055,118.367h3.256V123.465h-1.712
		C318.055,131.967,304.201,172.108,302.507,204.264"/>
	<polygon style="fill:#FFFFFF;" points="242.759,106.602 287.156,106.602 242.759,60.226 	"/>
	<path style="fill:#FFFFFF;" d="M102.658,99.648c-0.239-1.15-0.363-2.33-0.363-3.524v-0.781c0-9.703,7.896-17.597,17.6-17.597
		h56.062c9.704,0,17.598,7.894,17.598,17.597v0.001v0.78c0,3.813-1.263,7.483-3.486,10.477h47.69V56.999H71.894L102.658,99.648z"/>
	<path style="fill:#FFFFFF;" d="M173.085,163.13v0.78c0,0.908,0.101,1.793,0.285,2.648c0.873,0.188,1.764,0.303,2.666,0.303h56.061
		c2.037,0,3.957-0.497,5.662-1.359v-14.971h-52.076C178.736,150.531,173.085,156.183,173.085,163.13"/>
	<path style="fill:#FFFFFF;" d="M241.745,176.509c6.947,0,12.599-5.651,12.599-12.599v-0.78c0-3.936-1.816-7.454-4.653-9.766
		c0,0.04,0.006,0.079,0.006,0.119v0.779c0,9.705-7.895,17.6-17.6,17.6h-56.061c-0.039,0-0.078-0.004-0.117-0.004
		c2.312,2.836,5.829,4.651,9.764,4.651H241.745z"/>
	<path style="fill:#FFFFFF;" d="M244.697,153.482c0-0.857-0.087-1.712-0.256-2.541c-0.008-0.039-0.006-0.077-0.012-0.116
		c-0.545-0.118-1.102-0.197-1.67-0.243v10.363c1.221-1.94,1.938-4.227,1.938-6.684V153.482z"/>
</g>
</svg>
