<?xml version="1.0" encoding="iso-8859-1"?>
<!-- Generator: Adobe Illustrator 25.4.1, SVG Export Plug-In . SVG Version: 6.00 Build 0)  -->
<svg version="1.1" id="Calque_1" xmlns="http://www.w3.org/2000/svg" xmlns:xlink="http://www.w3.org/1999/xlink" x="0px" y="0px"
	 viewBox="0 0 368.5 368.5" style="enable-background:new 0 0 368.5 368.5;" xml:space="preserve">
<g>
	<path style="fill:#FFFFFF;" d="M46.408,184.25c0,49.984,26.943,91.998,63.08,103.171c-0.101-0.87-0.16-1.754-0.16-2.651v-36.502
		c-7.528-20.001-11.346-41.536-11.346-64.017c0-22.482,3.818-44.017,11.346-64.019V83.926c0-0.968,0.068-1.919,0.185-2.855
		C73.363,92.232,46.408,134.254,46.408,184.25"/>
	<path style="fill:#FFFFFF;" d="M210.145,183.993c0-36.443-13.957-70.438-36.622-89.723c-1.632,1.629-3.22,3.341-4.759,5.133
		c21.27,17.933,34.381,50.026,34.381,84.59c0,34.648-13.236,66.919-34.65,84.803c1.535,1.801,3.117,3.523,4.743,5.161
		C196.055,254.725,210.145,220.529,210.145,183.993"/>
	<path style="fill:#FFFFFF;" d="M120.928,284.77v-33.655h-4.6v33.655c0,6.607,4.116,12.26,9.912,14.563
		C122.928,295.391,120.928,290.31,120.928,284.77"/>
	<path style="fill:#FFFFFF;" d="M253.141,84.385c16.023,13.611,28.628,34.288,35.319,58.634h4.326
		C285.336,117.325,270.995,96.245,253.141,84.385"/>
	<path style="fill:#FFFFFF;" d="M198.41,275.789c-4.457,2.266-8.18,5.93-10.662,9.738c0.951,0.583,1.91,1.148,2.881,1.678
		C192.202,283.34,194.894,279.281,198.41,275.789"/>
	<path style="fill:#FFFFFF;" d="M285.255,150.019c-8.442,3.761-14.644,17.878-14.644,33.881c0,16.61,6.636,31.118,15.539,34.244
		c-6.683-7.618-10.939-20.208-10.939-34.244c0-13.784,4.128-26.22,10.634-33.881H285.255z"/>
	<path style="fill:#FFFFFF;" d="M292.859,225.224h-4.328c-6.675,24.475-19.297,45.233-35.382,58.888
		C271.077,272.21,285.429,251.052,292.859,225.224"/>
	<path style="fill:#FFFFFF;" d="M187.484,83.137c2.242,3.335,5.561,6.388,9.47,8.472c-2.974-3.069-5.249-6.592-6.587-10.168
		C189.396,81.977,188.436,82.548,187.484,83.137"/>
	<path style="fill:#FFFFFF;" d="M104.982,184.251c0,21.006,3.465,41.13,10.283,59.864h4.164
		c-6.535-18.817-9.849-38.928-9.849-59.864c0-21.003,3.334-41.178,9.909-60.047h-4.156
		C108.47,142.99,104.982,163.177,104.982,184.251"/>
	<path style="fill:#FFFFFF;" d="M116.328,83.926v33.277h4.6V83.926c0-5.54,2-10.621,5.311-14.564
		C120.443,71.666,116.328,77.319,116.328,83.926"/>
	<path style="fill:#FFFFFF;" d="M219.336,46.911c-19.123,0-37.801,7.1-54.011,20.534c-0.628,0.522-1.418,0.806-2.233,0.806h-11.598
		h-7.891c-8.643,0-15.675,7.032-15.675,15.675v36.947c0,0.425-0.078,0.847-0.23,1.246c-7.378,19.371-11.118,40.275-11.118,62.132
		c0,21.856,3.74,42.759,11.118,62.131c0.152,0.398,0.23,0.82,0.23,1.246v37.142c0,8.644,7.032,15.675,15.675,15.675h8.127h11.598
		c0.812,0,1.599,0.283,2.224,0.799c16.157,13.31,34.754,20.346,53.784,20.346c19.029,0,37.627-7.036,53.782-20.346
		c0.627-0.516,1.413-0.799,2.226-0.799h7.556h11.598c8.645,0,15.678-7.031,15.678-15.675V249.1c0-0.436,0.082-0.87,0.241-1.277
		c7.638-19.477,11.675-41.46,11.675-63.572c0-22.113-4.037-44.096-11.675-63.574c-0.159-0.407-0.241-0.84-0.241-1.277V83.926
		c0-8.643-7.033-15.675-15.678-15.675H282.9h-7.32c-0.815,0-1.605-0.284-2.233-0.806C257.136,54.011,238.46,46.911,219.336,46.911
		 M219.164,52.149c8.246,0,14.705,8.655,14.705,19.704s-6.459,19.705-14.705,19.705c-8.014,0-14.32-8.181-14.672-18.783
		c-0.094-0.317-0.16-0.646-0.16-0.994c0-0.355,0.068-0.689,0.166-1.012C204.908,60.247,211.191,52.149,219.164,52.149
		 M137.202,164.265c8.246,0,14.705,8.655,14.705,19.704s-6.459,19.704-14.705,19.704c-8.011,0-14.317-8.178-14.671-18.777
		c-0.095-0.319-0.161-0.648-0.161-0.998c0-0.356,0.069-0.692,0.167-1.015C122.947,172.361,129.23,164.265,137.202,164.265
		 M204.332,297.56c0-0.354,0.068-0.69,0.166-1.013c0.41-10.522,6.693-18.621,14.666-18.621c8.246,0,14.705,8.656,14.705,19.705
		c0,11.048-6.459,19.704-14.705,19.704c-8.014,0-14.32-8.181-14.672-18.782C204.398,298.236,204.332,297.907,204.332,297.56
		 M302.67,203.673c-8.012,0-14.318-8.178-14.67-18.777c-0.096-0.319-0.162-0.648-0.162-0.998c0-0.356,0.067-0.692,0.169-1.015
		c0.409-10.522,6.692-18.618,14.663-18.618c8.246,0,14.705,8.655,14.705,19.704S310.916,203.673,302.67,203.673 M300.661,145.257
		c0.469,1.822-0.586,3.688-2.389,4.227c-9.156,2.731-16.061,17.528-16.061,34.417c0,17.011,6.959,31.825,16.186,34.457
		c1.82,0.518,2.897,2.388,2.434,4.222c-8.611,34.104-28.701,61.37-53.742,72.936c-0.467,0.215-0.968,0.323-1.468,0.323
		c-0.558,0-1.114-0.133-1.623-0.399c-0.963-0.504-1.637-1.426-1.824-2.496c-1.394-7.933-11.043-19.457-22.994-19.457
		c-11.839,0-21.517,11.465-22.979,19.357c-0.197,1.065-0.877,1.979-1.84,2.475c-0.964,0.496-2.104,0.518-3.084,0.059
		c-24.781-11.59-44.721-38.663-53.341-72.424c-0.243-0.954-0.073-1.968,0.469-2.792c0.543-0.822,1.407-1.379,2.381-1.531
		c9.766-1.53,17.419-16.785,17.419-34.73c0-17.822-7.594-33.07-17.288-34.715c-0.968-0.164-1.821-0.726-2.355-1.55
		c-0.532-0.824-0.695-1.833-0.447-2.783c8.686-33.352,28.515-60.145,53.043-71.671c1.007-0.474,2.18-0.44,3.157,0.091
		c0.978,0.53,1.646,1.494,1.798,2.596c1.186,8.567,11.52,18.526,23.067,18.526c11.646,0,21.967-10.016,23.075-18.633
		c0.142-1.106,0.803-2.079,1.78-2.618c0.978-0.539,2.152-0.58,3.164-0.11C271.994,84.539,291.979,111.538,300.661,145.257"/>
	<path style="fill:#FFFFFF;" d="M215.52,294.06v-7.569c-1.77,1.613-3.139,4.345-3.734,7.569H215.52z"/>
	<path style="fill:#FFFFFF;" d="M215.52,308.77v-7.71h-3.757C212.345,304.345,213.724,307.134,215.52,308.77"/>
	<path style="fill:#FFFFFF;" d="M222.52,301.06v7.942c1.934-1.594,3.433-4.487,4.044-7.942H222.52z"/>
	<path style="fill:#FFFFFF;" d="M222.52,286.259v7.8h4.021C225.915,290.666,224.428,287.831,222.52,286.259"/>
	<path style="fill:#FFFFFF;" d="M215.52,68.281v-7.568c-1.77,1.613-3.138,4.344-3.734,7.568H215.52z"/>
	<path style="fill:#FFFFFF;" d="M222.52,60.482v7.799h4.021C225.914,64.888,224.427,62.054,222.52,60.482"/>
	<path style="fill:#FFFFFF;" d="M226.564,75.281h-4.044v7.944C224.454,81.63,225.953,78.737,226.564,75.281"/>
	<path style="fill:#FFFFFF;" d="M215.52,82.993v-7.712h-3.757C212.344,78.568,213.724,81.357,215.52,82.993"/>
	<path style="fill:#FFFFFF;" d="M299.029,180.398v-7.57c-1.771,1.612-3.142,4.345-3.736,7.57H299.029z"/>
	<path style="fill:#FFFFFF;" d="M306.029,172.599v7.799h4.018C309.42,177.006,307.935,174.172,306.029,172.599"/>
	<path style="fill:#FFFFFF;" d="M306.029,187.398v7.94c1.932-1.594,3.43-4.486,4.04-7.94H306.029z"/>
	<path style="fill:#FFFFFF;" d="M299.029,187.398h-3.758c0.58,3.286,1.961,6.076,3.758,7.712V187.398z"/>
	<path style="fill:#FFFFFF;" d="M133.561,180.398v-7.569c-1.771,1.613-3.141,4.344-3.734,7.569H133.561z"/>
	<path style="fill:#FFFFFF;" d="M140.561,187.398v7.941c1.933-1.594,3.431-4.487,4.041-7.941H140.561z"/>
	<path style="fill:#FFFFFF;" d="M133.561,195.108v-7.71h-3.758C130.384,190.683,131.763,193.472,133.561,195.108"/>
	<path style="fill:#FFFFFF;" d="M140.561,172.598v7.8h4.02C143.953,177.005,142.466,174.171,140.561,172.598"/>
</g>
</svg>
