<?xml version="1.0" encoding="iso-8859-1"?>
<!-- Generator: Adobe Illustrator 25.4.1, SVG Export Plug-In . SVG Version: 6.00 Build 0)  -->
<svg version="1.1" id="Calque_1" xmlns="http://www.w3.org/2000/svg" xmlns:xlink="http://www.w3.org/1999/xlink" x="0px" y="0px"
	 viewBox="0 0 368.5 368.5" style="enable-background:new 0 0 368.5 368.5;" xml:space="preserve">
<g>
	<path style="fill:#FFFFFF;" d="M82.76,279.74h202.009V88.79H82.76V279.74z M108.417,110.277h148.932
		c6.326,0,11.458,5.668,11.458,12.663c0,6.991-5.132,12.66-11.458,12.66H108.417c-6.329,0-11.458-5.669-11.458-12.66
		C96.959,115.945,102.088,110.277,108.417,110.277 M108.954,182.288c10.148,0,18.403,8.256,18.403,18.403
		c0,10.147-8.255,18.402-18.403,18.402c-10.146,0-18.4-8.255-18.4-18.402C90.554,190.544,98.808,182.288,108.954,182.288"/>
	<path style="fill:#FFFFFF;" d="M278.529,57.918L86.942,58.403c-13.628,0.133-24.325,4.066-31.768,11.688
		C43.485,82.066,43.596,99.417,43.598,99.59c0.127,26.707,0.298,51.394,0.455,74.197c0.258,37.753,0.484,70.36,0.417,98.21
		c-0.028,10.916,3.211,19.709,9.627,26.141c12.051,12.081,31.235,12.218,32.045,12.218c1.121,0.004,108.999,0.229,169.851,0.229
		c10.718,0,20.01-0.009,27.077-0.023c14.8-0.029,26.106-4.042,33.608-11.929c10.79-11.34,10.16-27.178,10.153-27.336l0.109-161.199
		c0.02-0.226,2.101-23.28-11.689-38.488C307.01,62.525,294.657,57.918,278.529,57.918 M291.855,283.282
		c0,1.957-1.587,3.543-3.543,3.543H79.218c-1.956,0-3.543-1.586-3.543-3.543V85.247c0-1.958,1.587-3.543,3.543-3.543h209.094
		c1.956,0,3.543,1.585,3.543,3.543V283.282z"/>
	<path style="fill:#FFFFFF;" d="M108.954,212.008c6.241,0,11.317-5.077,11.317-11.317c0-6.239-5.076-11.318-11.317-11.318
		c-6.239,0-11.315,5.079-11.315,11.318C97.639,206.931,102.715,212.008,108.954,212.008"/>
</g>
</svg>
