<?xml version="1.0" encoding="iso-8859-1"?>
<!-- Generator: Adobe Illustrator 25.4.1, SVG Export Plug-In . SVG Version: 6.00 Build 0)  -->
<svg version="1.1" id="Calque_1" xmlns="http://www.w3.org/2000/svg" xmlns:xlink="http://www.w3.org/1999/xlink" x="0px" y="0px"
	 viewBox="0 0 368.5 368.5" style="enable-background:new 0 0 368.5 368.5;" xml:space="preserve">
<g>
	<path style="fill:#FFFFFF;" d="M60.649,281.039c0,15.012,12.544,27.226,27.963,27.226h189.836
		c15.421,0,27.968-12.214,27.968-27.226V127.73H60.649V281.039z M169.714,153.604h29.114c8.828,0,15.971,7.158,15.971,15.974
		c0,8.821-7.143,15.969-15.971,15.969h-29.114c-8.814,0-15.969-7.148-15.969-15.969C153.745,160.762,160.9,153.604,169.714,153.604"
		/>
	<path style="fill:#FFFFFF;" d="M61.723,111.195c-0.033,0.113-0.059,0.227-0.09,0.337H65.5h237.549h2.382
		c-0.011-0.039-0.021-0.079-0.032-0.118c2.77-0.282,5.382-1.081,7.772-2.257c7.594-3.746,12.833-11.542,12.833-20.582v-5.378
		c0-12.679-10.281-22.958-22.955-22.958H65.5c-12.678,0-22.961,10.279-22.961,22.958v5.378c0,8.513,4.65,15.929,11.535,19.894
		C56.399,109.806,58.977,110.739,61.723,111.195"/>
</g>
</svg>
