<?xml version="1.0" encoding="iso-8859-1"?>
<!-- Generator: Adobe Illustrator 25.4.1, SVG Export Plug-In . SVG Version: 6.00 Build 0)  -->
<svg version="1.1" id="Calque_1" xmlns="http://www.w3.org/2000/svg" xmlns:xlink="http://www.w3.org/1999/xlink" x="0px" y="0px"
	 viewBox="0 0 368.5 368.5" style="enable-background:new 0 0 368.5 368.5;" xml:space="preserve">
<g>
	<path style="fill:#FFFFFF;" d="M224.806,221.89c0.739,0.739,1.707,1.108,2.675,1.108s1.935-0.369,2.674-1.108l45.357-45.359
		h-10.698l-40.008,40.01C223.328,218.019,223.328,220.412,224.806,221.89"/>
	<path style="fill:#FFFFFF;" d="M301.063,217.551l-67.495,67.497c-1.477,1.478-1.477,3.871,0,5.349
		c0.739,0.739,1.707,1.108,2.675,1.108s1.936-0.369,2.675-1.108l61.012-61.015l-5.741,59.924l-0.029,0.601
		c0,9.765-8.199,17.707-18.274,17.707h-79.678l44.704-44.699c1.478-1.477,1.478-3.871,0-5.349c-1.477-1.478-3.871-1.478-5.349,0
		l-50.053,50.048h-35.902c-3.404,0-6.935-0.724-10.334-1.975c0.005-0.172,0.035-0.34,0.027-0.514l-2.426-50.854
		c0.003,0.968,0.372,1.933,1.109,2.669c0.738,0.739,1.706,1.109,2.674,1.109s1.936-0.37,2.675-1.109l25.09-25.095
		c1.478-1.478,1.478-3.872,0-5.349c-1.477-1.478-3.871-1.478-5.349,0l-25.09,25.095c-0.739,0.739-1.106,1.705-1.109,2.67
		l-3.704-77.73h-9.363c-1.108,0-2.202-0.108-3.276-0.285l5.763,120.877L66.283,232.34c-2.84-3.199-4.404-7.292-4.404-11.528
		l-5.965-103.84l-13.387-13.388l6.743,117.42c0.047,7.255,2.736,14.249,7.674,19.808l61.062,65.911
		c8.449,8.452,20.263,13.501,31.602,13.501h126.278c16.922,0,30.708-13.427,30.881-29.999l10.895-113.694h-12.668L301.063,217.551z"
		/>
	<path style="fill:#FFFFFF;" d="M230.492,48.28H57.618c-8.329,0-14.609,5.8-14.609,13.488v21.355c0,2.007,0.781,3.894,2.199,5.313
		l73.364,73.358c1.381,1.362,3.25,2.128,5.235,2.128h69.034c0.387-11.955,9.031-21.554,19.626-21.554h28.94
		c10.597,0,19.242,9.599,19.628,21.554h57.442c4.142,0,7.514-3.372,7.514-7.517V131.47c0-4.268-0.791-6.293-3.522-9.026
		l-61.966-61.961C251.726,51.701,243.311,48.28,230.492,48.28"/>
	<path style="fill:#FFFFFF;" d="M250.803,164.05c2.088,0,3.783-1.694,3.783-3.783c0-2.088-1.695-3.783-3.783-3.783h-47.187
		c-2.088,0-3.782,1.695-3.782,3.783c0,2.089,1.694,3.783,3.782,3.783H250.803z"/>
</g>
</svg>
