<?xml version="1.0" encoding="iso-8859-1"?>
<!-- Generator: Adobe Illustrator 25.4.1, SVG Export Plug-In . SVG Version: 6.00 Build 0)  -->
<svg version="1.1" id="Calque_1" xmlns="http://www.w3.org/2000/svg" xmlns:xlink="http://www.w3.org/1999/xlink" x="0px" y="0px"
	 viewBox="0 0 368.5 368.5" style="enable-background:new 0 0 368.5 368.5;" xml:space="preserve">
<g>
	<path style="fill:#FFFFFF;" d="M291.453,153.461c-1.834-0.689-3.697-1.052-5.537-1.077h-3.755c0.291,0.199,0.575,0.411,0.861,0.621
		c0.134,0.097,0.271,0.19,0.404,0.29c0.467,0.353,0.928,0.719,1.381,1.097c0.114,0.096,0.224,0.197,0.337,0.295
		c0.34,0.292,0.678,0.586,1.01,0.893c0.164,0.152,0.325,0.311,0.488,0.467c0.274,0.263,0.547,0.528,0.816,0.802
		c0.173,0.176,0.344,0.357,0.516,0.539c0.252,0.267,0.503,0.539,0.751,0.815c0.17,0.191,0.339,0.383,0.507,0.578
		c0.245,0.285,0.486,0.575,0.725,0.868c0.16,0.197,0.32,0.391,0.477,0.592c0.251,0.319,0.498,0.647,0.742,0.978
		c0.137,0.183,0.276,0.364,0.411,0.552c0.313,0.436,0.62,0.883,0.923,1.337c0.06,0.089,0.122,0.174,0.181,0.266
		c0.358,0.543,0.706,1.1,1.049,1.668c0.113,0.189,0.222,0.383,0.335,0.575c0.228,0.388,0.454,0.78,0.675,1.18
		c0.13,0.236,0.257,0.478,0.385,0.719c0.196,0.367,0.391,0.737,0.582,1.115c0.13,0.257,0.258,0.518,0.385,0.779
		c0.183,0.376,0.363,0.756,0.54,1.141c0.122,0.265,0.245,0.532,0.365,0.801c0.178,0.401,0.352,0.809,0.524,1.218
		c0.109,0.262,0.221,0.521,0.329,0.787c0.186,0.459,0.365,0.927,0.544,1.398c0.086,0.224,0.174,0.444,0.257,0.67
		c0.257,0.695,0.506,1.401,0.747,2.119c0.044,0.131,0.084,0.267,0.128,0.399c0.196,0.596,0.388,1.197,0.573,1.808
		c0.08,0.266,0.157,0.539,0.235,0.808c0.142,0.486,0.282,0.974,0.418,1.469c0.083,0.306,0.162,0.615,0.243,0.923
		c0.123,0.474,0.245,0.952,0.363,1.435c0.078,0.32,0.154,0.643,0.229,0.967c0.113,0.486,0.222,0.977,0.329,1.47
		c0.07,0.326,0.14,0.649,0.207,0.977c0.108,0.525,0.21,1.057,0.311,1.59c0.057,0.302,0.116,0.6,0.171,0.905
		c0.117,0.656,0.228,1.32,0.335,1.987c0.031,0.192,0.064,0.377,0.094,0.567c0.134,0.861,0.259,1.733,0.375,2.614
		c0.032,0.239,0.059,0.484,0.089,0.726c0.082,0.648,0.161,1.299,0.234,1.96c0.036,0.33,0.068,0.664,0.102,0.996
		c0.059,0.582,0.116,1.165,0.169,1.755c0.031,0.364,0.061,0.729,0.09,1.096c0.046,0.573,0.089,1.151,0.128,1.73
		c0.025,0.375,0.049,0.75,0.072,1.129c0.035,0.593,0.065,1.192,0.093,1.792c0.018,0.367,0.036,0.734,0.051,1.105
		c0.026,0.657,0.045,1.32,0.062,1.985c0.009,0.319,0.02,0.636,0.027,0.957c0.02,0.988,0.032,1.984,0.034,2.99
		c0.012,0.097,0.018,0.195,0.018,0.295v106.973h12.963V214.271c-0.012-0.096-0.017-0.194-0.017-0.292
		C317.534,181.748,308.028,159.69,291.453,153.461"/>
	<path style="fill:#FFFFFF;" d="M236.443,118.166c-1.832-0.688-3.695-1.051-5.538-1.077h-3.754c0.306,0.211,0.606,0.433,0.908,0.654
		c0.115,0.085,0.233,0.164,0.347,0.251c0.474,0.357,0.941,0.727,1.401,1.112c0.085,0.07,0.166,0.147,0.25,0.218
		c0.371,0.317,0.739,0.64,1.099,0.973c0.146,0.135,0.288,0.276,0.433,0.413c0.295,0.283,0.589,0.569,0.878,0.863
		c0.156,0.159,0.31,0.323,0.465,0.486c0.272,0.288,0.542,0.58,0.809,0.878c0.153,0.171,0.304,0.344,0.455,0.519
		c0.267,0.31,0.53,0.626,0.79,0.946c0.139,0.171,0.279,0.341,0.416,0.516c0.28,0.356,0.555,0.72,0.827,1.089
		c0.11,0.148,0.221,0.293,0.33,0.444c0.373,0.518,0.739,1.047,1.097,1.589c0.003,0.005,0.006,0.009,0.009,0.014
		c0.37,0.561,0.73,1.136,1.083,1.722c0.077,0.129,0.151,0.262,0.228,0.392c0.266,0.451,0.529,0.906,0.785,1.372
		c0.107,0.193,0.21,0.391,0.315,0.588c0.222,0.414,0.442,0.832,0.656,1.259c0.11,0.218,0.219,0.439,0.328,0.661
		c0.204,0.419,0.405,0.843,0.603,1.272c0.104,0.228,0.208,0.455,0.311,0.685c0.2,0.45,0.396,0.907,0.589,1.369
		c0.089,0.213,0.18,0.426,0.268,0.642c0.217,0.532,0.426,1.075,0.633,1.621c0.057,0.152,0.117,0.301,0.173,0.454
		c0.525,1.42,1.016,2.889,1.473,4.402c0.063,0.209,0.123,0.422,0.185,0.633c0.16,0.546,0.317,1.095,0.469,1.653
		c0.071,0.261,0.14,0.527,0.209,0.793c0.136,0.519,0.269,1.043,0.398,1.572c0.069,0.283,0.136,0.568,0.203,0.855
		c0.123,0.529,0.241,1.062,0.357,1.6c0.061,0.286,0.123,0.571,0.183,0.86c0.117,0.573,0.23,1.154,0.339,1.738
		c0.049,0.256,0.099,0.509,0.145,0.767c0.132,0.73,0.256,1.469,0.374,2.215c0.018,0.116,0.039,0.229,0.057,0.345
		c0.129,0.825,0.25,1.658,0.362,2.5c2.765-5.209,6.633-8.754,10.864-10.732C255.156,133.164,247.322,122.255,236.443,118.166"/>
	<path style="fill:#FFFFFF;" d="M180.307,82.871c-1.831-0.689-3.693-1.05-5.536-1.075h-3.754c0.296,0.203,0.585,0.418,0.876,0.632
		c0.128,0.094,0.258,0.18,0.384,0.276c0.47,0.354,0.933,0.721,1.389,1.103c0.103,0.086,0.203,0.178,0.305,0.266
		c0.351,0.301,0.7,0.606,1.043,0.924c0.157,0.144,0.31,0.297,0.465,0.444c0.284,0.271,0.565,0.546,0.843,0.828
		c0.166,0.169,0.33,0.343,0.493,0.516c0.262,0.276,0.521,0.556,0.777,0.842c0.162,0.183,0.324,0.366,0.484,0.552
		c0.255,0.296,0.506,0.598,0.754,0.904c0.151,0.185,0.302,0.369,0.451,0.558c0.264,0.335,0.522,0.68,0.779,1.027
		c0.125,0.168,0.251,0.332,0.374,0.504c0.339,0.471,0.672,0.954,0.999,1.446c0.035,0.053,0.072,0.103,0.107,0.157
		c0.363,0.552,0.717,1.117,1.064,1.693c0.096,0.159,0.188,0.324,0.283,0.485c0.247,0.421,0.492,0.844,0.731,1.277
		c0.117,0.213,0.231,0.431,0.346,0.646c0.211,0.395,0.42,0.792,0.624,1.197c0.118,0.235,0.235,0.473,0.351,0.712
		c0.196,0.401,0.388,0.806,0.577,1.217c0.112,0.243,0.224,0.489,0.334,0.735c0.19,0.428,0.376,0.863,0.56,1.3
		c0.099,0.237,0.199,0.471,0.296,0.709c0.203,0.501,0.4,1.01,0.594,1.524c0.069,0.183,0.141,0.362,0.21,0.546
		c0.262,0.71,0.516,1.431,0.761,2.163c0.016,0.047,0.03,0.094,0.045,0.14c0.226,0.681,0.445,1.372,0.657,2.072
		c0.068,0.227,0.133,0.458,0.2,0.687c0.155,0.529,0.307,1.058,0.454,1.597c0.075,0.275,0.146,0.553,0.219,0.831
		c0.132,0.508,0.263,1.019,0.388,1.537c0.071,0.29,0.14,0.584,0.208,0.876c0.122,0.524,0.239,1.051,0.354,1.582
		c0.062,0.291,0.125,0.58,0.185,0.874c0.118,0.569,0.228,1.146,0.337,1.726c0.049,0.259,0.1,0.515,0.147,0.776
		c0.131,0.728,0.255,1.465,0.373,2.208c0.018,0.118,0.039,0.234,0.058,0.352c0.137,0.881,0.265,1.772,0.384,2.674
		c0.021,0.158,0.038,0.321,0.058,0.48c0.05,0.39,0.098,0.781,0.145,1.175c2.588-5.78,6.447-9.763,10.758-12.066
		C199.177,98.099,191.298,87.002,180.307,82.871"/>
	<path style="fill:#FFFFFF;" d="M125.297,47.578c-1.832-0.689-3.695-1.049-5.538-1.076h-3.754c0.303,0.208,0.599,0.428,0.896,0.645
		c0.121,0.088,0.243,0.171,0.362,0.261c0.472,0.355,0.937,0.725,1.395,1.107c0.096,0.081,0.189,0.167,0.285,0.249
		c0.358,0.306,0.713,0.618,1.062,0.94c0.154,0.143,0.305,0.291,0.457,0.437c0.287,0.275,0.572,0.552,0.852,0.837
		c0.163,0.166,0.324,0.337,0.485,0.508c0.265,0.278,0.526,0.563,0.785,0.851c0.16,0.18,0.32,0.362,0.478,0.545
		c0.257,0.299,0.511,0.604,0.763,0.913c0.147,0.181,0.296,0.362,0.441,0.548c0.268,0.34,0.531,0.691,0.792,1.044
		c0.121,0.162,0.243,0.321,0.363,0.486c0.35,0.488,0.693,0.985,1.03,1.494c0.025,0.037,0.05,0.072,0.075,0.109
		c0.365,0.555,0.721,1.123,1.07,1.702c0.09,0.15,0.176,0.305,0.264,0.455c0.254,0.431,0.506,0.866,0.751,1.312
		c0.112,0.202,0.222,0.411,0.332,0.618c0.216,0.404,0.43,0.811,0.639,1.225c0.114,0.228,0.227,0.457,0.339,0.688
		c0.201,0.411,0.397,0.827,0.591,1.247c0.108,0.234,0.215,0.468,0.321,0.705c0.197,0.442,0.389,0.893,0.579,1.346
		c0.093,0.221,0.186,0.439,0.277,0.662c0.213,0.526,0.42,1.062,0.625,1.603c0.059,0.157,0.121,0.31,0.18,0.469
		c0.525,1.422,1.015,2.89,1.473,4.404c0.061,0.203,0.118,0.409,0.179,0.614c0.162,0.553,0.322,1.11,0.476,1.676
		c0.068,0.254,0.135,0.513,0.203,0.77c0.139,0.53,0.274,1.063,0.405,1.602c0.066,0.272,0.13,0.546,0.194,0.82
		c0.127,0.546,0.25,1.098,0.37,1.655c0.057,0.266,0.115,0.533,0.17,0.803c0.124,0.6,0.242,1.207,0.356,1.818
		c0.043,0.231,0.088,0.459,0.13,0.691c0.141,0.781,0.275,1.571,0.401,2.372c0.009,0.064,0.021,0.125,0.031,0.189
		c0.129,0.829,0.251,1.665,0.364,2.513c2.764-5.209,6.632-8.753,10.863-10.731C144.01,62.575,136.176,51.667,125.297,47.578"/>
	<path style="fill:#FFFFFF;" d="M249.477,173.755c0.047,1.523,0.08,3.06,0.083,4.628c0.012,0.098,0.018,0.199,0.018,0.301V246.1
		c1.254,1.951,2.484,3.905,3.665,5.833c4.112,6.718,7.396,15.146,9.983,23.637c8.066,4.796,16.473,11.262,23.095,19.196
		c5.39,6.451,8.46,14.79,10.21,22.183l3.057,1.948V214.27c-0.011-0.095-0.017-0.193-0.017-0.291c0-1.007-0.009-2.005-0.028-2.993
		c-0.573-30.602-9.996-51.491-26.052-57.525c-1.903-0.716-3.838-1.078-5.751-1.078C259.746,152.383,251.213,159.119,249.477,173.755
		"/>
	<path style="fill:#FFFFFF;" d="M194.159,230.774v5.147c1.595,0.924,3.206,1.917,4.819,2.972c-1.129-1.88-2.356-3.912-3.7-6.131
		C194.85,232.056,194.477,231.398,194.159,230.774"/>
	<path style="fill:#FFFFFF;" d="M194.141,144.059c0,0.146,0.005,0.29,0.01,0.435l0.007,0.252l0.001,80.137
		c0.542-0.453,1.231-0.726,1.998-0.726c6.132,0,30.978,25.103,37.392,33.806c0.706,0.958,1.399,1.956,2.08,2.98
		c-2.948-12.973-7.491-26.268-12.036-36.132c-2.13-4.628-2.511-6.587-1.564-8.063c0.522-0.815,1.417-1.301,2.395-1.301
		c1.225,0,3.076,0,12.119,11.904c2.583,3.399,5.317,7.221,8.035,11.203v-59.57c-0.012-0.097-0.018-0.198-0.018-0.301
		c0-32.229-9.506-54.288-26.081-60.517c-1.902-0.715-3.837-1.078-5.749-1.078C203.777,117.088,194.141,125.528,194.141,144.059"/>
	<path style="fill:#FFFFFF;" d="M138.332,103.16c0.047,1.527,0.08,3.069,0.083,4.641c0.012,0.097,0.018,0.194,0.018,0.294v95.62
		c1.134,1.204,2.245,2.46,3.328,3.757c0.607-0.527,1.389-0.823,2.25-0.823c2.565,0,6.39,2.422,18.347,14.798
		c0.812,0.841,1.563,1.689,2.269,2.542c-2.768-13.743-8.042-28.655-13.317-39.279c-2.147-4.329-2.542-6.195-1.624-7.676
		c0.519-0.836,1.425-1.335,2.424-1.335c1.203,0,3.021,0,12.064,11.045c5.423,6.624,11.513,14.944,16.711,22.827
		c2.921,4.428,5.424,9.655,7.559,15.133v-81.023c-0.011-0.095-0.017-0.193-0.017-0.291c0-32.231-9.507-54.289-26.082-60.519
		c-1.902-0.715-3.837-1.077-5.749-1.077C148.602,81.794,140.07,88.529,138.332,103.16"/>
	<path style="fill:#FFFFFF;" d="M88.402,149.331l-0.275-0.612c-1.54-3.432-1.762-5.68-0.718-7.292
		c0.675-1.043,1.827-1.641,3.163-1.641c6.069,0,20.586,14.41,27.688,29.716c2.874,6.195,4.443,13.606,5.206,21.131
		c3.711,2.912,7.146,5.757,9.967,8.271v-90.517c-0.011-0.096-0.017-0.193-0.017-0.292c0-32.23-9.507-54.288-26.082-60.517
		c-1.903-0.715-3.837-1.078-5.749-1.078c-8.953,0-18.589,8.44-18.589,26.97c0,0.156,0.006,0.31,0.011,0.462l0.007,0.216v73.469
		c5.059,6.812,9.36,14.202,13.357,23.793C94.88,163.75,91.915,157.145,88.402,149.331"/>
	<path style="fill:#FFFFFF;" d="M79.51,208.032h13.78c1.433-4.77,2.68-9.987,3.39-15.337c0.204-1.539,0.348-3.002,0.465-4.431
		c-2.222-2.86-4.784-6.11-7.794-9.901c-2.341-2.948-3.601-5.169-2.656-7.125c0.526-1.089,1.634-1.74,2.965-1.74
		c0.135,0,0.297,0.025,0.452,0.044c-7.887-17.399-17.043-26.868-32.246-42.576l-2.47-2.554c-2.054-2.126-3.482-3.396-4.447-4.155
		c0.933,4.281,5.084,14.893,17.366,39.63C76.883,177.154,79.044,196.607,79.51,208.032"/>
	<path style="fill:#FFFFFF;" d="M94.228,220.493h21.128c-0.659-3.322-1.525-6.468-2.702-8.852
		c-2.903-5.868-5.694-10.37-11.114-17.623C100.138,203.984,97.034,213.44,94.228,220.493"/>
	<path style="fill:#FFFFFF;" d="M92.172,145.41c0.127,0.352,0.295,0.769,0.516,1.26l0.274,0.611
		c4.252,9.459,7.894,17.606,9.048,28.093c4.843,3.03,10.438,6.929,15.849,10.97c-0.816-5.304-2.12-10.396-4.134-14.737
		C107.438,158.058,96.704,147.957,92.172,145.41"/>
	<path style="fill:#FFFFFF;" d="M143.158,219.719c-0.753-1.813-1.318-3.327-1.732-4.612c-2.236-2.998-4.651-5.925-7.217-8.582
		c-8.668-8.981-30.051-24.493-39.943-30.011c13.97,17.621,18.229,23.529,22.87,32.913c3.345,6.771,4.381,17.587,5.066,24.746
		c0.181,1.885,0.383,3.993,0.544,4.812c0.208,0.314,0.349,0.664,0.443,1.029h21.466
		C145.501,233.138,145.555,225.494,143.158,219.719"/>
	<path style="fill:#FFFFFF;" d="M166.539,244.118c0.131-2.353,0.08-4.9-0.119-7.577c-1.536-3.826-3.954-7.786-7.658-11.62
		c-6.983-7.227-10.763-10.552-12.802-12.065c0.326,1.106,0.879,2.692,1.815,4.944c3.994,9.622,2.193,23.149,0.268,31.973h18.198
		C166.333,247.932,166.431,246.04,166.539,244.118"/>
	<path style="fill:#FFFFFF;" d="M173.968,239.403c-0.935-0.893-1.757-1.702-2.495-2.453c0.158,2.572,0.191,5.07,0.058,7.448
		c-0.408,7.29-0.696,14.185-0.884,19.309h18.722C187.329,255.737,183.385,248.39,173.968,239.403"/>
	<path style="fill:#FFFFFF;" d="M185.619,231.505c-2.376-6.953-5.315-13.733-8.908-19.182c-6.648-10.082-13.718-19.319-18.75-25.21
		c4.604,10.318,9.812,25.215,12.252,39.35c0.03,0,0.053-0.005,0.083-0.005c1.807,0,4.596,0.796,10.289,2.939
		C182.175,229.996,183.867,230.706,185.619,231.505"/>
	<path style="fill:#FFFFFF;" d="M216.1,282.958c-0.532-5.834-1.394-12.568-3.021-16.882c-2.065-5.471-4.051-9.749-7.647-16.156
		c-8.865-7.533-18.914-12.946-26.609-15.843c-0.945-0.355-2.949-1.11-4.824-1.72c0.825,0.885,1.933,2.008,3.421,3.429
		c12.457,11.889,16.203,21.588,17.994,32.491c0.854,5.181,1.252,10.527,1.435,14.681H216.1z"/>
	<path style="fill:#FFFFFF;" d="M238.852,289.007c0.211-4.062-0.035-8.646-0.629-13.508c-0.337-0.672-0.682-1.345-1.034-2.02
		c-1.644-1.936-2.4-3.335-2.484-4.532c-1.616-2.8-3.347-5.527-5.182-8.017c-6.529-8.861-20.833-22.463-28.667-28.609
		c10.228,16.922,13.427,22.784,16.902,31.99c2.525,6.696,3.312,17.455,3.833,24.573c0.143,1.964,0.305,4.167,0.436,4.962
		c0.134,0.253,0.23,0.529,0.297,0.827h16.25C238.66,292.824,238.752,290.93,238.852,289.007"/>
	<path style="fill:#FFFFFF;" d="M258.521,308.132c-1.587-9.665-4.69-17.831-14.802-28.003c0.22,3.166,0.276,6.233,0.126,9.137
		c-0.415,7.981-0.705,15.493-0.892,21.022h15.894C258.747,309.569,258.639,308.848,258.521,308.132"/>
	<path style="fill:#FFFFFF;" d="M230.105,227.22c4.253,10.183,9.069,24.687,11.747,38.897c1.658,0.465,3.824,1.211,6.774,2.322
		c2.538,0.956,5.327,2.183,8.238,3.644c-2.184-6.377-4.794-12.487-7.886-17.541C242.286,243.606,235.151,233.574,230.105,227.22"/>
	<path style="fill:#FFFFFF;" d="M282.483,297.969c-10.269-12.3-25.132-20.901-35.619-24.851c-0.945-0.355-2.948-1.11-4.824-1.718
		c0.824,0.883,1.932,2.007,3.421,3.427c12.458,11.894,16.204,21.591,17.994,32.494c0.853,5.18,1.251,10.524,1.434,14.679h27.593
		C291.21,315.184,288.42,305.078,282.483,297.969"/>
</g>
</svg>
