<?xml version="1.0" encoding="iso-8859-1"?>
<!-- Generator: Adobe Illustrator 25.4.1, SVG Export Plug-In . SVG Version: 6.00 Build 0)  -->
<svg version="1.1" id="Calque_1" xmlns="http://www.w3.org/2000/svg" xmlns:xlink="http://www.w3.org/1999/xlink" x="0px" y="0px"
	 viewBox="0 0 368.5 368.5" style="enable-background:new 0 0 368.5 368.5;" xml:space="preserve">
<g>
	<path style="fill:#FFFFFF;" d="M107.717,203.078c-35.958,1.752-64.132,31.347-64.132,67.381c0,1.706,0.897,3.205,2.243,4.063
		c0.829-0.232,1.683-0.395,2.585-0.395h33.313h33.312h33.311h33.315h33.314h33.316h33.311h32.856
		c1.045-0.888,1.724-2.194,1.724-3.668V93.422c0-1.447-0.655-2.735-1.668-3.62H197.256c-1.015,0.885-1.672,2.173-1.672,3.62v72.719
		v6.758c0,16.594-13.499,30.098-30.091,30.098h-54.446C109.969,202.997,108.849,203.022,107.717,203.078 M278.301,120.561
		c0-3.036,2.46-5.496,5.496-5.496c3.035,0,5.495,2.46,5.495,5.496v93.066c0,3.036-2.46,5.496-5.495,5.496
		c-3.036,0-5.496-2.46-5.496-5.496V120.561z"/>
	<path style="fill:#FFFFFF;" d="M182.384,74.109c0,4.667,3.78,8.452,8.45,8.452H318.6c4.667,0,8.45-3.785,8.45-8.452
		c0-4.663-3.783-8.445-8.45-8.445H190.834C186.164,65.664,182.384,69.446,182.384,74.109"/>
	<path style="fill:#FFFFFF;" d="M248.294,293.042c3.261,5.841,9.499,9.804,16.654,9.804c7.154,0,13.396-3.963,16.657-9.804
		c3.259,5.841,9.502,9.804,16.657,9.804c10.513,0,19.069-8.553,19.069-19.067c0-1.336-1.079-2.413-2.417-2.413h-33.309h-33.311
		h-33.316h-33.313h-33.316h-33.311H81.727H48.413c-1.337,0-2.413,1.077-2.413,2.413c0,10.514,8.553,19.067,19.068,19.067
		c7.155,0,13.396-3.963,16.659-9.804c3.261,5.841,9.499,9.804,16.652,9.804c7.16,0,13.398-3.963,16.659-9.804
		c3.261,5.841,9.504,9.804,16.659,9.804s13.391-3.963,16.652-9.804c3.263,5.841,9.506,9.804,16.659,9.804
		c7.155,0,13.394-3.963,16.657-9.804c3.263,5.841,9.502,9.804,16.659,9.804c7.151,0,13.391-3.963,16.654-9.804
		c3.261,5.841,9.502,9.804,16.657,9.804S245.029,298.883,248.294,293.042"/>
</g>
</svg>
