<?xml version="1.0" encoding="iso-8859-1"?>
<!-- Generator: Adobe Illustrator 25.4.1, SVG Export Plug-In . SVG Version: 6.00 Build 0)  -->
<svg version="1.1" id="Calque_1" xmlns="http://www.w3.org/2000/svg" xmlns:xlink="http://www.w3.org/1999/xlink" x="0px" y="0px"
	 viewBox="0 0 368.5 368.5" style="enable-background:new 0 0 368.5 368.5;" xml:space="preserve">
<g>
	<path style="fill:#FFFFFF;" d="M43.62,264.723c-0.002,0.007-0.305,3.589,1.93,7.102c2.008,3.155,5.058,4.81,5.088,4.827
		l53.868,30.743c0.017,0.012,3.828,2.522,9.773,2.592l0.32,0.003c5.548,0,8.808-1.782,8.837-1.8l57.177-32.829
		c1.14-0.675,3.308-2.27,4.13-3.589c0.698-1.121,0.954-3.901,0.906-5.428l-0.002-70.665c0.005-1.127-0.259-3.31-0.989-4.485
		c-1.246-2.001-3.442-3.266-3.466-3.279l-57.457-33.172c-0.182-0.112-4.258-2.693-8.962-2.693c-4.914,0-8.537,2.289-8.571,2.311
		l-56.553,32.083c0,0-2.71,1.634-4.38,4.56c-1.673,2.929-1.632,7.006-1.63,7.047L43.62,264.723z M114.464,178.548
		c29.292,0,53.122,23.829,53.122,53.119s-23.83,53.12-53.122,53.12c-29.29,0-53.12-23.83-53.12-53.12
		S85.174,178.548,114.464,178.548"/>
	<polygon style="fill:#FFFFFF;" points="215.773,133.837 215.773,143.428 298.385,151.61 298.385,142.017 	"/>
	<polygon style="fill:#FFFFFF;" points="215.773,123.744 215.773,127.209 298.385,135.39 298.385,123.744 	"/>
	<path style="fill:#FFFFFF;" d="M215.773,296.036v5.293c0,1.523,0.243,2.99,0.685,4.369l75.641,7.49
		c3.038-2.071,5.243-5.274,5.998-9L215.773,296.036z"/>
	<polygon style="fill:#FFFFFF;" points="215.773,150.056 215.773,159.649 298.385,167.828 298.385,158.238 	"/>
	<path style="fill:#FFFFFF;" d="M250.289,315.675l-28.704-2.843c2.388,1.778,5.335,2.843,8.535,2.843H250.289z"/>
	<polygon style="fill:#FFFFFF;" points="215.773,247.376 215.773,256.969 298.385,265.148 298.385,255.557 	"/>
	<polygon style="fill:#FFFFFF;" points="215.773,166.277 215.773,175.87 298.385,184.049 298.385,174.455 	"/>
	<polygon style="fill:#FFFFFF;" points="215.773,214.937 215.773,224.529 298.385,232.709 298.385,223.118 	"/>
	<polygon style="fill:#FFFFFF;" points="215.773,231.156 215.773,240.75 298.385,248.93 298.385,239.337 	"/>
	<polygon style="fill:#FFFFFF;" points="215.773,263.596 215.773,273.189 298.385,281.372 298.385,271.776 	"/>
	<polygon style="fill:#FFFFFF;" points="215.773,279.815 215.773,289.408 298.385,297.588 298.385,288 	"/>
	<polygon style="fill:#FFFFFF;" points="215.773,198.715 215.773,208.309 298.385,216.491 298.385,206.895 	"/>
	<polygon style="fill:#FFFFFF;" points="215.773,182.498 215.773,192.087 298.385,200.267 298.385,190.676 	"/>
	<path style="fill:#FFFFFF;" d="M290.791,52.829v59.922h31.645c2.556,0,4.634-2.077,4.634-4.63v-50.66
		c0-2.554-2.078-4.632-4.634-4.632H290.791z"/>
	<path style="fill:#FFFFFF;" d="M221.34,112.751V52.829h-27.796c-2.555,0-4.635,2.078-4.635,4.632v50.66
		c0,2.553,2.08,4.63,4.635,4.63H221.34z"/>
	<rect x="227.936" y="52.829" style="fill:#FFFFFF;" width="56.259" height="59.922"/>
</g>
</svg>
