<?xml version="1.0" encoding="iso-8859-1"?>
<!-- Generator: Adobe Illustrator 25.4.1, SVG Export Plug-In . SVG Version: 6.00 Build 0)  -->
<svg version="1.1" id="Calque_1" xmlns="http://www.w3.org/2000/svg" xmlns:xlink="http://www.w3.org/1999/xlink" x="0px" y="0px"
	 viewBox="0 0 368.5 368.5" style="enable-background:new 0 0 368.5 368.5;" xml:space="preserve">
<g>
	<path style="fill:#FFFFFF;" d="M223.328,169.268v-29.113H65.324v51.264H198.35C204.863,182.092,213.425,174.463,223.328,169.268
		 M87.09,177.533c-6.638,0-12.039-5.401-12.039-12.039c0-6.638,5.401-12.039,12.039-12.039s12.04,5.401,12.04,12.039
		C99.13,172.132,93.728,177.533,87.09,177.533 M188.183,165.494c0-6.638,5.401-12.039,12.039-12.039
		c6.639,0,12.04,5.401,12.04,12.039c0,6.638-5.401,12.039-12.04,12.039C193.584,177.533,188.183,172.132,188.183,165.494"/>
	<path style="fill:#FFFFFF;" d="M223.327,83.287H65.323v51.869h158.004V83.287z M87.09,120.43c-6.639,0-12.039-5.401-12.039-12.04
		c0-6.638,5.4-12.039,12.039-12.039c6.638,0,12.04,5.401,12.04,12.039C99.13,115.029,93.728,120.43,87.09,120.43 M200.222,120.43
		c-6.638,0-12.039-5.401-12.039-12.04c0-6.638,5.401-12.039,12.039-12.039c6.639,0,12.04,5.401,12.04,12.039
		C212.262,115.029,206.861,120.43,200.222,120.43"/>
	<path style="fill:#FFFFFF;" d="M87.09,158.455c-3.881,0-7.039,3.158-7.039,7.039c0,3.881,3.158,7.039,7.039,7.039
		c3.882,0,7.04-3.158,7.04-7.039C94.13,161.613,90.972,158.455,87.09,158.455"/>
	<path style="fill:#FFFFFF;" d="M207.262,165.494c0-3.881-3.158-7.039-7.04-7.039c-3.881,0-7.039,3.158-7.039,7.039
		c0,3.881,3.158,7.039,7.039,7.039C204.104,172.533,207.262,169.375,207.262,165.494"/>
	<path style="fill:#FFFFFF;" d="M87.09,101.351c-3.881,0-7.039,3.158-7.039,7.039c0,3.882,3.158,7.04,7.039,7.04
		c3.882,0,7.04-3.158,7.04-7.04C94.13,104.509,90.972,101.351,87.09,101.351"/>
	<path style="fill:#FFFFFF;" d="M200.222,101.351c-3.881,0-7.039,3.158-7.039,7.039c0,3.882,3.158,7.04,7.039,7.04
		c3.882,0,7.04-3.158,7.04-7.04C207.262,104.509,204.104,101.351,200.222,101.351"/>
	<path style="fill:#FFFFFF;" d="M132.33,263.455c1.933,0,3.5-1.567,3.5-3.5c0-1.934-1.567-3.5-3.5-3.5h-10
		c-1.933,0-3.5,1.566-3.5,3.5c0,1.933,1.567,3.5,3.5,3.5H132.33z"/>
	<path style="fill:#FFFFFF;" d="M157.33,263.455c1.933,0,3.5-1.567,3.5-3.5c0-1.934-1.567-3.5-3.5-3.5h-10
		c-1.933,0-3.5,1.566-3.5,3.5c0,1.933,1.567,3.5,3.5,3.5H157.33z"/>
	<path style="fill:#FFFFFF;" d="M96.6,263.375c0.236,0.05,0.479,0.079,0.73,0.079h10c1.933,0,3.5-1.567,3.5-3.5
		c0-1.934-1.567-3.5-3.5-3.5h-4.064C101.418,259.627,99.148,262.023,96.6,263.375"/>
	<path style="fill:#FFFFFF;" d="M168.841,260.067c0.057,1.731,1.365,3.131,3.053,3.343
		C170.808,262.434,169.788,261.314,168.841,260.067"/>
	<path style="fill:#FFFFFF;" d="M159.828,207.486h10.619c-0.745,0.61-1.23,1.516-1.277,2.547c3.683-4.649,8.441-7.413,13.698-7.413
		h9.041c0.988-2.127,2.07-4.195,3.243-6.2H62.824c-1.381,0-2.5-1.12-2.5-2.5V80.787c0-1.381,1.119-2.5,2.5-2.5h163.004
		c1.381,0,2.5,1.119,2.5,2.5v86.123c3.137-1.328,6.385-2.417,9.727-3.25V73.291c0-2.977-2.422-5.4-5.4-5.4H58.007
		c-2.979,0-5.403,2.423-5.403,5.4v156.955h8.054v-20.26c0-1.381,1.12-2.5,2.5-2.5h22.603c1.843-1.232,3.85-1.911,5.964-1.911
		c4.513,0,8.547,3.069,11.506,8.118h4.402c1.051,0,1.983-0.473,2.625-1.207c0.538-0.615,0.875-1.411,0.875-2.293
		c0-1.098-0.515-2.064-1.305-2.707h10.61c-0.79,0.643-1.305,1.609-1.305,2.707c0,0.882,0.338,1.678,0.876,2.293
		c0.641,0.734,1.573,1.207,2.624,1.207h10c1.051,0,1.983-0.473,2.625-1.207c0.538-0.615,0.875-1.411,0.875-2.293
		c0-1.098-0.515-2.064-1.305-2.707h10.61c-0.79,0.643-1.305,1.609-1.305,2.707c0,0.882,0.338,1.678,0.876,2.293
		c0.641,0.734,1.573,1.207,2.624,1.207h10c1.051,0,1.983-0.473,2.625-1.207c0.538-0.615,0.875-1.411,0.875-2.293
		C161.133,209.095,160.618,208.129,159.828,207.486"/>
	<path style="fill:#FFFFFF;" d="M189.07,209.62h-6.202c-7.784,0-14.36,11.745-14.36,25.648c0,13.901,6.576,25.646,14.36,25.646
		h6.658c-2.986-8.154-4.642-17.004-4.642-26.26C184.884,225.863,186.363,217.432,189.07,209.62"/>
	<path style="fill:#FFFFFF;" d="M253.889,168.699c-34.19,0-62.005,29.587-62.005,65.955s27.815,65.955,62.005,65.955
		c34.191,0,62.007-29.587,62.007-65.955S288.08,168.699,253.889,168.699"/>
	<path style="fill:#FFFFFF;" d="M91.725,259.631c3.422,0,7.088-3.945,9.354-10.439h-4.831c-6.551,0-10.785-5.533-10.785-14.095
		c0-8.563,4.234-14.095,10.785-14.095h4.827c-2.265-6.487-5.929-10.428-9.35-10.428c-5.468,0-11.56,10.074-11.56,24.529
		S86.257,259.631,91.725,259.631"/>
	<path style="fill:#FFFFFF;" d="M118.056,244.192h1.378c0.395,0,0.828-0.028,1.287-0.077c-0.986-1.291-1.841-2.719-2.512-4.258
		c-2.07-4.748-2.234-9.812-0.614-13.854h-4.252c-2.169,2.834-2.395,7.533-0.511,11.856
		C114.007,240.556,115.862,242.802,118.056,244.192"/>
	<path style="fill:#FFFFFF;" d="M126.276,242.838c5.631-1.819,11.686-5.127,11.686-7.741c0-3.139-8.731-7.278-14.975-8.638
		c-1.865,2.867-1.982,7.3-0.195,11.4C123.641,239.806,124.847,241.513,126.276,242.838"/>
	<path style="fill:#FFFFFF;" d="M96.248,226.002c-5.368,0-5.785,6.962-5.785,9.095c0,2.134,0.417,9.094,5.785,9.094h4.613
		c-1.011-1.31-1.887-2.764-2.572-4.334c-2.069-4.75-2.232-9.815-0.613-13.855H96.248z"/>
	<path style="fill:#FFFFFF;" d="M108.097,244.192h2.724c-1.012-1.31-1.888-2.765-2.573-4.335c-2.069-4.748-2.233-9.813-0.613-13.854
		h-4.252c-2.168,2.833-2.394,7.533-0.511,11.856C104.047,240.555,105.902,242.802,108.097,244.192"/>
</g>
</svg>
