<?xml version="1.0" encoding="iso-8859-1"?>
<!-- Generator: Adobe Illustrator 25.4.1, SVG Export Plug-In . SVG Version: 6.00 Build 0)  -->
<svg version="1.1" id="Calque_1" xmlns="http://www.w3.org/2000/svg" xmlns:xlink="http://www.w3.org/1999/xlink" x="0px" y="0px"
	 viewBox="0 0 368.5 368.5" style="enable-background:new 0 0 368.5 368.5;" xml:space="preserve">
<g>
	<path style="fill:#FFFFFF;" d="M150.494,245.533v18.934h80.376c0.127-0.014,0.252-0.039,0.383-0.039h12.33v-18.895H150.494z"/>
	<path style="fill:#FFFFFF;" d="M217.466,47.181h-86.229c2.142,2.879,3.426,6.431,3.426,10.287v61.446h12.331
		c0.013,0,0.026,0.004,0.039,0.004h80.72V57.467C227.753,51.796,223.138,47.181,217.466,47.181 M160.322,96.985
		c-6.636,0-12.016-6.594-12.016-14.729c0-8.136,5.38-14.73,12.016-14.73c6.637,0,12.017,6.594,12.017,14.73
		C172.339,90.391,166.959,96.985,160.322,96.985 M200.65,96.985c-6.636,0-12.016-6.594-12.016-14.729
		c0-8.136,5.38-14.73,12.016-14.73c6.638,0,12.017,6.594,12.017,14.73C212.667,90.391,207.288,96.985,200.65,96.985"/>
	<path style="fill:#FFFFFF;" d="M232.737,125.918h-82.243v40.264h10.112c0.874-2.529,2.767-6.254,6.864-11.14
		c7.833-9.338,15.654-9.95,16.52-9.989c0.052-0.002,0.105-0.003,0.157-0.003h59.436v-19.136H232.78
		C232.766,125.914,232.752,125.918,232.737,125.918"/>
	<path style="fill:#FFFFFF;" d="M227.753,271.467h-81.029c-0.133,0-0.259-0.024-0.388-0.039h-11.673v39.604
		c0,3.856-1.284,7.409-3.427,10.287h86.23c5.672,0,10.287-4.615,10.287-10.287V271.467z"/>
	<path style="fill:#FFFFFF;" d="M184.267,152.049c-0.517,0.054-5.777,0.748-11.433,7.491c-3.826,4.563-5.198,7.614-5.69,9.139
		c0.03,0.547,0.217,1.082,0.59,1.51c0.445,0.51,1.167,1.451,1.968,2.904c-0.246,0.055-0.499,0.088-0.762,0.088h-11.933
		c4.145,7.732,6.099,20.501,6.099,32.688c0,12.175-1.95,24.93-6.086,32.664h91.344c2.887-1.852,7.831-12.911,7.831-32.665
		c0-7.017-0.626-12.93-1.557-17.731c1.837-2.653,3.485-5.89,4.79-9.45c0.203-0.555,0.407-1.109,0.593-1.677
		c3.451-10.57,3.432-22.417-3.283-24.611c-0.216-0.071-0.441-0.111-0.669-0.121l-5.315-0.229H184.267z M255.268,175.457
		c-1.624,4.971-4.06,9.46-6.61,12.221l-5.019,0.469h-11.135c-1.042,0-1.974,0.646-2.34,1.621c-0.276,0.734-0.187,1.539,0.208,2.184
		c0.361,1.986,1.41,8.229,1.41,13.867c0,4.71-1.331,9.902-2.096,12.5H199.36c0.84-3.099,1.897-7.913,1.897-12.5
		c0-5.909-1.032-12.227-1.454-14.563c0.121-0.48,0.1-0.996-0.081-1.482c-0.365-0.978-1.299-1.627-2.343-1.627h-15.992
		c2.125-3.067,4.009-6.914,5.39-11.137c2.369-7.255,3.102-15.111,1.157-20.034h61l6.471,0.278
		C257.172,158.319,258.62,165.193,255.268,175.457 M181.941,157.152c1.859,0.607,3.573,7.619,0.083,18.305
		c-0.989,3.027-2.279,5.875-3.713,8.263c-0.131-0.773-0.276-1.539-0.434-2.299c-1.414-6.788-3.709-10.965-5.392-13.28
		C175.928,160.105,180.278,156.608,181.941,157.152"/>
	<path style="fill:#FFFFFF;" d="M147.558,172.912c-1.005,0.143-2.056-0.15-2.823-0.815c-0.767-0.664-1.241-1.625-1.241-2.64v-43.543
		h-12.331c-1.933,0-3.5-1.567-3.5-3.5V57.468c0-5.672-4.614-10.286-10.286-10.286h-11.171v274.136h11.171
		c5.672,0,10.286-4.614,10.286-10.285v-43.105c0-1.933,1.567-3.5,3.5-3.5h12.331v-22.146c0-1.012,0.438-1.974,1.201-2.639
		c0.763-0.665,1.774-0.969,2.779-0.828h0.004c2.642,0,8.628-11.212,8.628-32.946C156.106,184.125,150.114,172.912,147.558,172.912"
		/>
</g>
</svg>
