<?xml version="1.0" encoding="iso-8859-1"?>
<!-- Generator: Adobe Illustrator 25.4.1, SVG Export Plug-In . SVG Version: 6.00 Build 0)  -->
<svg version="1.1" id="Calque_1" xmlns="http://www.w3.org/2000/svg" xmlns:xlink="http://www.w3.org/1999/xlink" x="0px" y="0px"
	 viewBox="0 0 368.5 368.5" style="enable-background:new 0 0 368.5 368.5;" xml:space="preserve">
<g>
	<path style="fill:#FFFFFF;" d="M69.028,270.163l-8.351,31.811c-0.406,1.554,0.522,3.144,2.078,3.552
		c0.246,0.067,0.496,0.097,0.74,0.097c1.289,0,2.468-0.866,2.811-2.173l7.633-29.081C72.155,273.143,70.51,271.731,69.028,270.163"
		/>
	<path style="fill:#FFFFFF;" d="M87.372,279.465l-1.443,34.651c-0.067,1.606,1.182,2.96,2.787,3.028
		c0.04,0.002,0.081,0.002,0.121,0.002c1.552,0,2.842-1.223,2.906-2.789l1.443-34.653h-2.064
		C89.852,279.704,88.602,279.617,87.372,279.465"/>
	<path style="fill:#FFFFFF;" d="M73.02,311.396c-0.203,1.594,0.925,3.052,2.518,3.255c0.125,0.016,0.25,0.022,0.374,0.022
		c1.442,0,2.694-1.072,2.882-2.54l4.279-33.517c-1.949-0.536-3.82-1.26-5.592-2.154L73.02,311.396z"/>
	<path style="fill:#FFFFFF;" d="M51.19,290.306c-0.544,1.512,0.241,3.178,1.754,3.723c0.324,0.115,0.656,0.172,0.983,0.172
		c1.193,0,2.313-0.738,2.739-1.926l9.309-25.893c-1.502-2.202-2.717-4.612-3.604-7.174L51.19,290.306z"/>
	<path style="fill:#FFFFFF;" d="M242.823,274.41l7.624,29.04c0.343,1.308,1.522,2.172,2.813,2.172c0.245,0,0.492-0.028,0.74-0.096
		c1.553-0.408,2.483-1.998,2.075-3.553l-8.336-31.757C246.254,271.779,244.608,273.188,242.823,274.41"/>
	<path style="fill:#FFFFFF;" d="M223.567,279.704l1.443,34.652c0.065,1.565,1.354,2.789,2.904,2.789
		c0.041,0,0.082-0.002,0.124-0.002c1.605-0.067,2.853-1.423,2.786-3.027l-1.443-34.643c-1.209,0.146-2.436,0.231-3.684,0.231
		H223.567z"/>
	<path style="fill:#FFFFFF;" d="M237.96,312.133c0.187,1.468,1.44,2.54,2.884,2.54c0.122,0,0.247-0.007,0.371-0.021
		c1.594-0.205,2.722-1.662,2.517-3.256l-4.456-34.903c-1.773,0.889-3.644,1.61-5.593,2.14L237.96,312.133z"/>
	<path style="fill:#FFFFFF;" d="M260.087,292.274c0.428,1.187,1.546,1.926,2.739,1.926c0.326,0,0.658-0.057,0.984-0.172
		c1.511-0.545,2.298-2.212,1.754-3.725l-11.148-31.004c-0.892,2.552-2.113,4.951-3.616,7.143L260.087,292.274z"/>
	<path style="fill:#FFFFFF;" d="M212.466,313.919c0,1.607,1.303,2.911,2.91,2.911c1.607,0,2.909-1.304,2.909-2.911v-34.215h-5.819
		V313.919z"/>
	<path style="fill:#FFFFFF;" d="M201.079,313.921c0,1.605,1.304,2.909,2.91,2.909c1.607,0,2.91-1.304,2.91-2.909v-34.217h-5.82
		V313.921z"/>
	<path style="fill:#FFFFFF;" d="M189.692,313.919c0,1.607,1.302,2.911,2.91,2.911c1.607,0,2.908-1.304,2.908-2.911v-34.215h-5.818
		V313.919z"/>
	<path style="fill:#FFFFFF;" d="M178.306,313.921c0,1.605,1.303,2.909,2.91,2.909c1.607,0,2.908-1.304,2.908-2.909v-34.217h-5.818
		V313.921z"/>
	<path style="fill:#FFFFFF;" d="M166.919,313.919c0,1.607,1.303,2.911,2.91,2.911c1.607,0,2.909-1.304,2.909-2.911v-34.215h-5.819
		V313.919z"/>
	<path style="fill:#FFFFFF;" d="M155.532,313.921c0,1.605,1.304,2.909,2.91,2.909c1.608,0,2.911-1.304,2.911-2.909v-34.217h-5.821
		V313.921z"/>
	<path style="fill:#FFFFFF;" d="M144.146,313.921c0,1.605,1.304,2.909,2.91,2.909c1.607,0,2.909-1.304,2.909-2.909v-34.217h-5.819
		V313.921z"/>
	<path style="fill:#FFFFFF;" d="M132.761,313.919c0,1.607,1.303,2.911,2.909,2.911c1.607,0,2.91-1.304,2.91-2.911v-34.215h-5.819
		V313.919z"/>
	<path style="fill:#FFFFFF;" d="M121.374,313.921c0,1.605,1.303,2.909,2.91,2.909s2.909-1.304,2.909-2.909v-34.217h-5.819V313.921z"
		/>
	<path style="fill:#FFFFFF;" d="M109.987,313.921c0,1.605,1.303,2.909,2.91,2.909s2.909-1.304,2.909-2.909v-34.217h-5.819V313.921z"
		/>
	<path style="fill:#FFFFFF;" d="M98.603,313.921c0,1.605,1.302,2.909,2.908,2.909c1.608,0,2.909-1.304,2.909-2.909v-34.217h-5.817
		V313.921z"/>
	<path style="fill:#FFFFFF;" d="M91.122,272.704h134.575c11.894,0,21.739-8.914,23.221-20.411c-5.585,6.599-13.92,10.8-23.221,10.8
		H91.122c-9.302,0-17.637-4.201-23.222-10.8C69.383,263.79,79.227,272.704,91.122,272.704"/>
	<path style="fill:#FFFFFF;" d="M225.697,208.503h-46.365v18.847c0,8.081-8.351,14.655-18.615,14.655
		c-10.265,0-18.615-6.574-18.615-14.655v-18.847h-50.98c-12.915,0-23.422,10.507-23.422,23.42v0.748
		c0,12.915,10.507,23.422,23.422,23.422h134.575c12.915,0,23.421-10.507,23.421-23.422v-0.748
		C249.118,219.01,238.612,208.503,225.697,208.503"/>
	<path style="fill:#FFFFFF;" d="M172.184,199.204c-0.029-0.121-0.049-0.243-0.087-0.362c-1.971,3.481-6.267,5.848-11.38,5.848
		c-5.113,0-9.408-2.367-11.38-5.848c-0.037,0.119-0.057,0.241-0.086,0.362c0.863,3.634,5.755,6.521,11.466,6.521
		S171.32,202.838,172.184,199.204"/>
	<path style="fill:#FFFFFF;" d="M160.717,212.726c-4.393,0-8.428-1.211-11.615-3.222v17.846c0,4.149,5.319,7.655,11.615,7.655
		c6.296,0,11.615-3.506,11.615-7.655v-17.846C169.145,211.515,165.11,212.726,160.717,212.726"/>
	<path style="fill:#FFFFFF;" d="M166.26,51.354h-11.086v143.162c0,1.498,2.371,3.174,5.543,3.174c3.172,0,5.543-1.676,5.543-3.174
		V51.354z"/>
	<path style="fill:#FFFFFF;" d="M311.294,172.256v10.897c0,1.345,1.091,2.434,2.436,2.434c1.343,0,2.435-1.089,2.435-2.434v-15.192
		C314.716,169.568,313.079,171.006,311.294,172.256"/>
	<path style="fill:#FFFFFF;" d="M302.576,189.8c0,1.342,1.089,2.434,2.435,2.434c1.343,0,2.434-1.092,2.434-2.434v-15.247
		c-1.557,0.78-3.187,1.432-4.869,1.948V189.8z"/>
	<path style="fill:#FFFFFF;" d="M291.967,177.871v16.202c0,1.344,1.091,2.432,2.436,2.432c1.343,0,2.434-1.088,2.434-2.432v-16.366
		c-1.184,0.135-2.38,0.208-3.582,0.208C292.823,177.915,292.396,177.889,291.967,177.871"/>
	<path style="fill:#FFFFFF;" d="M281.151,193.558c0,1.344,1.09,2.435,2.436,2.435c1.343,0,2.434-1.091,2.434-2.435v-16.513
		c-1.679-0.406-3.309-0.947-4.87-1.634V193.558z"/>
	<path style="fill:#FFFFFF;" d="M271.366,187.12c0,1.344,1.09,2.434,2.435,2.434c1.343,0,2.434-1.09,2.434-2.434v-14.453
		l-4.869-3.157V187.12z"/>
	<path style="fill:#FFFFFF;" d="M261.721,180.436c0,1.345,1.09,2.434,2.436,2.434c1.342,0,2.434-1.089,2.434-2.434v-14.023
		l-4.87-3.158V180.436z"/>
	<path style="fill:#FFFFFF;" d="M251.911,174.452c0,1.344,1.09,2.434,2.436,2.434c1.342,0,2.434-1.09,2.434-2.434v-14.399
		l-4.87-3.158V174.452z"/>
	<path style="fill:#FFFFFF;" d="M242.266,167.769c0,1.345,1.09,2.434,2.436,2.434c1.342,0,2.433-1.089,2.433-2.434V153.8
		l-4.869-3.157V167.769z"/>
	<path style="fill:#FFFFFF;" d="M232.846,162.105c0,1.346,1.09,2.434,2.435,2.434c1.343,0,2.435-1.088,2.435-2.434v-14.413
		l-4.87-3.157V162.105z"/>
	<path style="fill:#FFFFFF;" d="M223.201,155.423c0,1.344,1.09,2.434,2.435,2.434c1.343,0,2.434-1.09,2.434-2.434v-13.985
		l-4.869-3.157V155.423z"/>
	<path style="fill:#FFFFFF;" d="M213.391,149.436c0,1.345,1.09,2.434,2.436,2.434c1.342,0,2.433-1.089,2.433-2.434v-14.359
		l-4.869-3.157V149.436z"/>
	<path style="fill:#FFFFFF;" d="M203.746,142.755c0,1.344,1.091,2.434,2.436,2.434c1.342,0,2.434-1.09,2.434-2.434v-13.931
		l-4.87-3.157V142.755z"/>
	<path style="fill:#FFFFFF;" d="M194.179,137.933c0,1.343,1.09,2.434,2.436,2.434c1.343,0,2.435-1.091,2.435-2.434v-15.311
		l-4.871-3.158V137.933z"/>
	<path style="fill:#FFFFFF;" d="M184.534,131.25c0,1.343,1.09,2.435,2.436,2.435c1.343,0,2.434-1.092,2.434-2.435v-14.882
		l-4.87-3.158V131.25z"/>
	<path style="fill:#FFFFFF;" d="M174.725,106.392v18.873c0,1.342,1.09,2.433,2.435,2.433c1.344,0,2.435-1.091,2.435-2.433v-15.257
		l-1.361-0.883C176.962,108.301,175.798,107.379,174.725,106.392"/>
	<path style="fill:#FFFFFF;" d="M294.457,161.838c-5.838,0-11.395-1.602-16.068-4.633l-98.954-64.158
		c-2.109-1.367-3.951-2.975-5.51-4.769c-0.228,5.889,2.749,11.492,8.117,14.974l98.954,64.158c3.536,2.293,7.775,3.505,12.259,3.505
		c7.102,0,13.91-3.066,18.212-8.201l0.425-0.505c2.257-2.695,3.682-5.773,4.181-8.98
		C310.476,158.659,302.602,161.838,294.457,161.838"/>
	<path style="fill:#FFFFFF;" d="M175.287,75.262c0.725,4.825,3.55,9.056,7.957,11.913l98.954,64.157
		c3.537,2.294,7.775,3.507,12.259,3.507c7.102,0,13.91-3.067,18.214-8.203l0.42-0.502c3.449-4.116,4.943-9.072,4.209-13.959
		c-0.724-4.824-3.55-9.055-7.957-11.913l-98.954-64.158c-3.537-2.293-7.776-3.505-12.26-3.505c-7.101,0-13.91,3.065-18.212,8.201
		l-0.423,0.506C176.047,65.418,174.553,70.374,175.287,75.262"/>
</g>
</svg>
