<?xml version="1.0" encoding="iso-8859-1"?>
<!-- Generator: Adobe Illustrator 25.4.1, SVG Export Plug-In . SVG Version: 6.00 Build 0)  -->
<svg version="1.1" id="Calque_1" xmlns="http://www.w3.org/2000/svg" xmlns:xlink="http://www.w3.org/1999/xlink" x="0px" y="0px"
	 viewBox="0 0 368.5 368.5" style="enable-background:new 0 0 368.5 368.5;" xml:space="preserve">
<g>
	<path style="fill:#FFFFFF;" d="M270.923,125.558c0-1.75,0.436-3.401,1.201-4.854c-0.501,0.122-0.981,0.306-1.429,0.562
		l-35.801,20.808l14.978,1.905c0.681,0.095,1.313,0.317,1.919,0.588l20.884-12.135c-1.105-1.664-1.752-3.654-1.752-5.796V125.558z"
		/>
	<path style="fill:#FFFFFF;" d="M212.331,226.303c0,3.622-2.944,6.565-6.563,6.565c-2.434,0-4.254-1.345-6.901-8.427l-8.18-21.918
		l-10.923,1.179l9.133,24.466c1.86,4.979,5.728,15.346,16.871,15.346c9.491,0,17.209-7.72,17.209-17.211v-31.971
		c-3.454,1.91-7.029,3.502-10.646,4.693V226.303z"/>
	<path style="fill:#FFFFFF;" d="M249.224,148.492L46.483,122.694c-0.16-0.018-0.318-0.029-0.476-0.029
		c-1.077,0-2.1,0.498-2.765,1.369c-0.764,0.996-0.927,2.324-0.438,3.478l18.699,43.929c1.424,3.343,3.277,6.641,5.466,9.803
		c6.283-4.044,13.746-6.399,21.756-6.399c18.629,0,34.339,12.697,38.95,29.891l73.675-7.953
		c20.716-2.163,42.465-20.252,48.488-40.316l1.36-4.523C251.724,150.203,250.88,148.732,249.224,148.492"/>
	<path style="fill:#FFFFFF;" d="M88.725,181.448C70.13,181.448,55,196.576,55,215.169c0,18.597,15.13,33.725,33.725,33.725
		c18.593,0,33.723-15.128,33.723-33.725C122.448,196.576,107.317,181.448,88.725,181.448 M88.725,238.067
		c-12.646,0-22.896-10.249-22.896-22.898c0-12.642,10.25-22.894,22.896-22.894c12.649,0,22.896,10.252,22.896,22.894
		C111.62,227.818,101.373,238.067,88.725,238.067"/>
	<path style="fill:#FFFFFF;" d="M320.048,119.616h-38.619c-3.275,0-5.942,2.666-5.942,5.941v1.079c0,3.275,2.667,5.941,5.942,5.941
		h38.619c3.279,0,5.943-2.666,5.943-5.941v-1.079C325.991,122.282,323.327,119.616,320.048,119.616"/>
</g>
</svg>
