<?xml version="1.0" encoding="iso-8859-1"?>
<!-- Generator: Adobe Illustrator 25.4.1, SVG Export Plug-In . SVG Version: 6.00 Build 0)  -->
<svg version="1.1" id="Calque_1" xmlns="http://www.w3.org/2000/svg" xmlns:xlink="http://www.w3.org/1999/xlink" x="0px" y="0px"
	 viewBox="0 0 368.5 368.5" style="enable-background:new 0 0 368.5 368.5;" xml:space="preserve">
<g>
	<path style="fill:#FFFFFF;" d="M206.787,268.6v14.719c1.271,1.228,2.309,2.692,3.05,4.321h13.243
		C221.132,278.936,214.935,271.826,206.787,268.6"/>
	<path style="fill:#FFFFFF;" d="M170.864,287.641h13.243c0.86-1.89,2.12-3.558,3.678-4.892v-14.396
		C179.326,271.453,172.862,278.713,170.864,287.641"/>
	<path style="fill:#FFFFFF;" d="M205.238,304.943c-2.327,1.682-5.176,2.684-8.266,2.684s-5.94-1.002-8.266-2.684h-15.911
		c4.301,9.038,13.52,15.301,24.177,15.301s19.876-6.263,24.177-15.301H205.238z"/>
	<path style="fill:#FFFFFF;" d="M198.826,243.815l-7.041-14.994v58.82h11.002v-41.908c-0.263,0.062-0.527,0.095-0.791,0.095
		C200.681,245.828,199.422,245.085,198.826,243.815"/>
	<polygon style="fill:#FFFFFF;" points="191.622,46.908 191.622,106.746 242.835,106.746 262.901,46.908 	"/>
	<polygon style="fill:#FFFFFF;" points="179.947,106.746 187.622,106.746 187.622,46.908 56.379,46.908 152.526,106.746 	"/>
	<path style="fill:#FFFFFF;" d="M242.232,304.943v12.609c0,2.227,1.813,4.04,4.041,4.04c2.228,0,4.04-1.813,4.04-4.04v-12.609
		H242.232z"/>
	<path style="fill:#FFFFFF;" d="M293.653,304.943v12.609c0,2.227,1.813,4.04,4.041,4.04s4.04-1.813,4.04-4.04v-12.609H293.653z"/>
	<path style="fill:#FFFFFF;" d="M140.676,291.641c0.034,0.61,0.055,1.226,0.055,1.845c0,2.566-0.306,5.059-0.867,7.457H307.47
		c2.565,0,4.651-2.087,4.651-4.652c0-2.564-2.086-4.65-4.651-4.65H140.676z"/>
	<path style="fill:#FFFFFF;" d="M237.78,135.925c0,2.805,2.281,5.086,5.085,5.086s5.086-2.281,5.086-5.086
		c0-2.804-2.282-5.085-5.086-5.085S237.78,133.121,237.78,135.925"/>
	<path style="fill:#FFFFFF;" d="M183.447,113.746v70.288c0,13.765-6.961,25.931-17.546,33.174h22.166
		c1.472-5.628,9.472-11.648,18.283-15.785c6.762-3.174,13.496-4.994,18.478-4.994c5.46,0,7.652,2.226,8.529,4.092l6.893,14.679
		c12.709-4.651,21.805-16.865,21.805-31.166v-70.288H183.447z M198.385,177.427c0,1.934-1.567,3.5-3.5,3.5
		c-1.934,0-3.5-1.566-3.5-3.5v-21.46c0-1.933,1.566-3.5,3.5-3.5c1.933,0,3.5,1.567,3.5,3.5V177.427z M211.385,177.427
		c0,1.934-1.567,3.5-3.5,3.5c-1.934,0-3.5-1.566-3.5-3.5v-21.46c0-1.933,1.566-3.5,3.5-3.5c1.933,0,3.5,1.567,3.5,3.5V177.427z
		 M224.385,177.427c0,1.934-1.567,3.5-3.5,3.5c-1.934,0-3.5-1.566-3.5-3.5v-21.46c0-1.933,1.566-3.5,3.5-3.5
		c1.933,0,3.5,1.567,3.5,3.5V177.427z M230.385,177.427v-21.46c0-1.933,1.566-3.5,3.5-3.5c1.933,0,3.5,1.567,3.5,3.5v21.46
		c0,1.934-1.567,3.5-3.5,3.5C231.951,180.927,230.385,179.361,230.385,177.427 M250.385,177.427c0,1.934-1.567,3.5-3.5,3.5
		c-1.934,0-3.5-1.566-3.5-3.5v-21.46c0-1.933,1.566-3.5,3.5-3.5c1.933,0,3.5,1.567,3.5,3.5V177.427z M251.951,135.925
		c0,5.011-4.076,9.086-9.086,9.086c-5.009,0-9.085-4.075-9.085-9.086c0-5.009,4.076-9.085,9.085-9.085
		C247.874,126.84,251.951,130.916,251.951,135.925"/>
	<path style="fill:#FFFFFF;" d="M131.585,192.837v-42.549c0-5.238,4.261-9.499,9.499-9.499c5.239,0,9.501,4.261,9.501,9.499v46.485
		c0,2.503-1.014,4.952-2.783,6.719l-12.697,12.697c2.614,0.664,5.349,1.02,8.166,1.02c18.293,0,33.175-14.882,33.175-33.174v-70.289
		H150.45h-40.353v70.289c0,8.414,3.155,16.101,8.336,21.956L131.585,192.837z"/>
	<path style="fill:#FFFFFF;" d="M103.595,228.762v32.266c1.433-0.193,2.892-0.301,4.376-0.301c2.27,0,4.485,0.232,6.626,0.674
		V231.04l30.377-30.376c1.023-1.024,1.611-2.443,1.611-3.891v-46.485c0-3.032-2.468-5.499-5.501-5.499
		c-3.033,0-5.499,2.467-5.499,5.499v44.206l-30.379,30.38C104.181,225.896,103.595,227.313,103.595,228.762"/>
	<path style="fill:#FFFFFF;" d="M134.731,293.486c0-14.755-12.004-26.759-26.759-26.759s-26.759,12.004-26.759,26.759
		c0,14.755,12.004,26.759,26.759,26.759S134.731,308.241,134.731,293.486 M93.831,293.486c0-7.81,6.332-14.14,14.141-14.14
		s14.141,6.33,14.141,14.14c0,7.811-6.332,14.141-14.141,14.141S93.831,301.297,93.831,293.486"/>
	<path style="fill:#FFFFFF;" d="M237.572,225.941c-0.097-0.044-0.275-0.097-0.493-0.148c0.004,0.009,0.005,0.018,0.009,0.026
		c0.237,1.212-3.795,6.589-14.282,11.514c-7.607,3.57-13.213,4.372-16.019,4.19c-0.637-0.042-1.132-0.131-1.469-0.254
		c0.526,1.65-0.227,3.471-1.836,4.227c-0.164,0.077-0.335,0.122-0.504,0.173c0.955,0.443,2.198,0.757,3.809,0.843
		c0.289,0.015,0.589,0.024,0.903,0.024c0.789,0,1.657-0.049,2.612-0.159c4.283-0.496,9.478-2.1,14.629-4.518
		c7.921-3.721,15.529-9.339,16.93-14.402c-0.344,0.129-0.708,0.221-1.094,0.236C239.489,227.746,238.237,227.101,237.572,225.941"/>
	<path style="fill:#FFFFFF;" d="M216.768,223.611c6.27-2.944,12.517-4.724,17.365-4.967l-6.995-14.898
		c-0.286-0.124-1.01-0.317-2.311-0.317c-3.93,0-9.726,1.618-15.502,4.33c-9.726,4.567-14.102,9.584-14.468,11.134l7,14.907
		c0.371-0.405,0.778-0.818,1.22-1.242C206.415,229.366,211.277,226.189,216.768,223.611"/>
</g>
</svg>
