<?xml version="1.0" encoding="iso-8859-1"?>
<!-- Generator: Adobe Illustrator 25.4.1, SVG Export Plug-In . SVG Version: 6.00 Build 0)  -->
<svg version="1.1" id="Calque_1" xmlns="http://www.w3.org/2000/svg" xmlns:xlink="http://www.w3.org/1999/xlink" x="0px" y="0px"
	 viewBox="0 0 368.5 368.5" style="enable-background:new 0 0 368.5 368.5;" xml:space="preserve">
<g>
	<path style="fill:#FFFFFF;" d="M320.332,188.47h-23.351v-0.001c-6.696,0-12.143,5.448-12.143,12.144v82.976
		c0,6.695,5.447,12.142,12.143,12.142c0.002,0,0.002,0.001,0.004,0.001h23.347c6.696,0,12.143-5.447,12.143-12.142v-82.977
		C332.475,193.917,327.028,188.47,320.332,188.47 M308.555,229.139c-6.383,0-11.574-5.795-11.574-12.919
		c0-7.124,5.191-12.919,11.574-12.919c6.383,0,11.574,5.795,11.574,12.919C320.129,223.344,314.938,229.139,308.555,229.139"/>
	<path style="fill:#FFFFFF;" d="M43.475,193.355v2.825c0,20.002,8.9,38.733,24.387,51.366l1.216,1.022
		c5.092,4.275,8.77,7.364,16.717,15.588c9.274,9.597,10.838,23.607,11.08,29.185c0.059,1.337,1.16,2.391,2.498,2.391h68.93
		c0.666,0,1.305-0.265,1.774-0.736c0.468-0.472,0.73-1.112,0.726-1.777c-0.019-3.683-0.053-11.864-0.053-21.347
		c0-4.108,1.252-7.663,2.862-10.535h22.197h5v22.253c0,6.695,5.447,12.142,12.143,12.142h71.943
		c-3.121-3.107-5.057-7.402-5.057-12.143v-82.976c0-4.741,1.936-9.036,5.055-12.143h-66.596c0.858-1.482,1.367-3.183,1.434-5
		c0.004-0.132,0.019-0.261,0.019-0.394c0-1.949-0.523-3.774-1.429-5.355h27.158c4.01,0,7.271-3.262,7.271-7.271V80.04
		c0-4.01-3.261-7.272-7.271-7.272h-31.082h-50.203c-4.01,0-7.272,3.262-7.272,7.272v90.41c0,0.622,0.088,1.223,0.235,1.799H46.854
		c-5.971,0-10.828,4.857-10.828,10.827C36.026,187.866,39.157,191.932,43.475,193.355 M46.854,177.249h162.07
		c3.213,0,5.826,2.614,5.826,5.827c0,3.212-2.613,5.826-5.826,5.826H46.854c-3.213,0-5.828-2.614-5.828-5.826
		C41.026,179.863,43.641,177.249,46.854,177.249 M161.922,170.45V80.04c0-1.253,1.02-2.272,2.272-2.272h43.295
		c-0.237,0.715-0.364,1.479-0.364,2.272v90.41c0,0.624,0.1,1.221,0.248,1.799h-44.548
		C162.28,171.834,161.922,171.185,161.922,170.45 M247.75,80.04v90.41c0,1.252-1.017,2.271-2.271,2.271h-31.082
		c-1.252,0-2.272-1.019-2.272-2.271V80.04c0-1.253,1.02-2.272,2.272-2.272h31.082C246.733,77.768,247.75,78.787,247.75,80.04
		 M165.791,290.732h-64.074c-0.613-7.156-3.033-20.434-12.326-30.051c-8.127-8.411-11.891-11.57-17.098-15.942l-1.242-1.043
		c-14.348-11.704-22.576-29.023-22.576-47.516v-2.278h159.572v2.278c0,21.614-11.582,41.865-30.228,52.851
		c-0.065,0.037-0.127,0.078-0.188,0.121c-0.484,0.347-11.881,8.672-11.881,22.72C165.75,279.596,165.772,286.456,165.791,290.732
		 M237.643,198.399c12.039,0,21.834,16.074,21.834,35.832c0,19.759-9.795,35.833-21.834,35.833c-5.445,0-10.428-3.296-14.256-8.727
		h6.008c11.625,0,21.082-12.269,21.082-27.348c0-15.079-9.457-27.348-21.082-27.348h-5.666
		C227.508,201.497,232.36,198.399,237.643,198.399 M180.473,253.27c15.563-9.213,26.553-24.406,30.721-41.629h18.201
		c8.867,0,16.082,10.025,16.082,22.348c0,12.322-7.215,22.348-16.082,22.348h-52.17C178.813,254.58,180.157,253.511,180.473,253.27"
		/>
</g>
</svg>
