<?xml version="1.0" encoding="iso-8859-1"?>
<!-- Generator: Adobe Illustrator 25.4.1, SVG Export Plug-In . SVG Version: 6.00 Build 0)  -->
<svg version="1.1" id="Calque_1" xmlns="http://www.w3.org/2000/svg" xmlns:xlink="http://www.w3.org/1999/xlink" x="0px" y="0px"
	 viewBox="0 0 368.5 368.5" style="enable-background:new 0 0 368.5 368.5;" xml:space="preserve">
<g>
	<path style="fill:#FFFFFF;" d="M77.794,100.394c-2.666-0.164-5.433-0.255-8.306-0.255c-0.843,0-1.681,0.008-2.515,0.023
		c-0.204,0.006-0.396-0.021-0.585-0.075h-2.594v214.29c0,3.861,3.14,7,7,7c3.86,0,7-3.139,7-7V100.394z"/>
	<path style="fill:#FFFFFF;" d="M63.794,57.184h2.924c0.084-0.01,0.165-0.018,0.253-0.012c0.834,0.015,1.674,0.023,2.517,0.023
		c2.873,0,5.64-0.092,8.306-0.255v-4.232c0-3.861-3.14-7.002-7-7.002s-7,3.141-7,7.002V57.184z"/>
	<path style="fill:#FFFFFF;" d="M47.343,96.087h19.593c0.178,0,0.351,0.023,0.515,0.067c0.677-0.01,1.356-0.015,2.038-0.015
		c22.197,0,41.303,5.173,48.528,12.853c2.575-4.244,7.664-14.64,7.664-30.495c0-15.826-5.071-26.025-7.642-30.178
		c-7.21,7.692-26.332,12.875-48.55,12.875c-0.793,0-1.582-0.006-2.367-0.019c-0.061,0.006-0.123,0.009-0.186,0.009H47.343
		c-0.094,0-0.169,0.076-0.169,0.17v34.564C47.174,96.011,47.249,96.087,47.343,96.087"/>
	<path style="fill:#FFFFFF;" d="M302.179,60.385v243.589c4.635,0.544,9.137,0.823,13.268,0.824c0.199,0,0.393,0.017,0.588,0.029
		l3.165-3.164l-8.367-8.366l8.367-8.367l-8.367-8.365l8.367-8.368l-8.367-8.365l8.367-8.367l-8.367-8.365l8.367-8.367l-8.367-8.366
		L319.2,218l-8.367-8.366l8.366-8.367l-8.366-8.364l8.366-8.368l-8.366-8.365l8.367-8.366l-8.367-8.367l8.366-8.366l-8.366-8.365
		l8.367-8.367l-8.367-8.367l8.367-8.366l-8.367-8.365l8.367-8.367l-8.367-8.367l8.366-8.367l-8.366-8.364l8.367-8.368l-7.629-7.627
		C308.543,59.874,305.388,60.078,302.179,60.385"/>
	<path style="fill:#FFFFFF;" d="M249.027,299.768c4.045,3.566,9.086,6.619,14.695,9.189c-0.353-1.712-0.349-3.522,0.106-5.326
		c0.045-0.174,0.097-0.339,0.151-0.502l0.472-1.498l54.721,13.824l-0.293,1.535c-0.032,0.175-0.065,0.351-0.111,0.528
		c-0.108,0.432-0.248,0.848-0.4,1.257c1.764-1.017,2.958-2.918,2.958-5.097c0-3.242-2.637-5.88-5.879-5.88
		c-19.67-0.002-46.127-5.788-58.635-16.843c-13.998-12.444-21.123-28.961-21.182-49.096V118.281
		c0.094-20.613,6.625-35.895,19.965-46.727c12.087-9.741,39.231-14.836,59.799-14.836c3.295,0,5.932-2.637,5.932-5.879
		s-2.637-5.881-5.879-5.881c-21.897,0.01-52.269,5.465-67.209,17.421c-15.806,12.575-24.46,32.425-24.37,55.896v123.58
		C223.813,264.916,232.748,285.481,249.027,299.768"/>
	<path style="fill:#FFFFFF;" d="M307.185,323.542c3.798,0,7.137-2.383,8.411-5.896l-49.037-12.389
		c-0.663,4.486,2.177,8.853,6.669,9.988l31.757,8.023C305.707,323.45,306.447,323.542,307.185,323.542"/>
	<path style="fill:#FFFFFF;" d="M158.849,99.799c-1.852-5.966-3.511-14.735-2.454-25.477c0.955-9.703,6.076-17.72,10.966-23.322
		c-5.631,3.592-14.873,11.159-16.874,23.069c-1.846,10.986,0.675,21.773,2.881,28.434C155.02,101.35,156.853,100.419,158.849,99.799
		"/>
	<path style="fill:#FFFFFF;" d="M146.855,127.926l-13.586,100.769l14.046,2.137l12.442-92.29
		C154.12,137.05,149.402,133.139,146.855,127.926"/>
	<path style="fill:#FFFFFF;" d="M135.766,316.5l11.148-82.696l-14.046-2.138l-11.181,82.936c-0.254,1.88,0.24,3.747,1.39,5.256
		c1.151,1.509,2.819,2.479,4.699,2.733C131.727,323.125,135.248,320.322,135.766,316.5"/>
	<path style="fill:#FFFFFF;" d="M148.919,121.011l0.035,0.262c1.052,7.95,7.877,13.941,15.878,13.941
		c0.705,0,1.421-0.048,2.126-0.141l9.532-1.263c0.089-0.011,0.178-0.017,0.265-0.017c0.986,0,1.844,0.729,1.98,1.733l12.846,95.283
		l14.045-2.138l-12.808-94.999c-0.022-0.162-0.023-0.324-0.006-0.484l-3.94-29.776c-0.01-0.097-0.205-1.903-1.416-2.821
		c-0.853-0.647-1.461-0.673-1.685-0.657c-0.478,0.21-0.928,0.182-1.425-0.011c-0.513-0.2-0.812-0.65-1.018-1.162l-0.427-1.064
		c-0.715-1.348-7.2-13.839-8.834-26.59c-1.052-8.212-0.069-16.696,0.865-22.092c-5.187,4.763-13.407,14.024-14.557,25.699
		c-1.115,11.337,0.98,20.306,2.935,25.833c0.194,0.55,0.139,1.157-0.152,1.662c-0.29,0.506-0.786,0.86-1.358,0.969
		C153.463,104.771,147.804,112.604,148.919,121.011 M162.992,126.659c-4.032,0-7.312-3.28-7.312-7.312s3.28-7.311,7.312-7.311
		c4.032,0,7.312,3.279,7.312,7.311S167.024,126.659,162.992,126.659"/>
	<path style="fill:#FFFFFF;" d="M217.212,314.603l-11.185-82.959l-14.045,2.138l11.152,82.72c0.475,3.507,3.498,6.154,7.032,6.155
		c0.311,0,0.634-0.022,0.962-0.066C215.005,322.068,217.736,318.484,217.212,314.603"/>
	<path style="fill:#FFFFFF;" d="M162.992,115.036c-2.378,0-4.312,1.934-4.312,4.311c0,2.378,1.934,4.312,4.312,4.312
		c2.377,0,4.312-1.934,4.312-4.312C167.304,116.97,165.369,115.036,162.992,115.036"/>
</g>
</svg>
