<?xml version="1.0" encoding="iso-8859-1"?>
<!-- Generator: Adobe Illustrator 25.4.1, SVG Export Plug-In . SVG Version: 6.00 Build 0)  -->
<svg version="1.1" id="Calque_1" xmlns="http://www.w3.org/2000/svg" xmlns:xlink="http://www.w3.org/1999/xlink" x="0px" y="0px"
	 viewBox="0 0 368.5 368.5" style="enable-background:new 0 0 368.5 368.5;" xml:space="preserve">
<g>
	<path style="fill:#FFFFFF;" d="M188.319,32.527c0.26,0.403,0.498,0.815,0.732,1.229c3.553-2.247,7.446-3.837,11.497-4.681
		l-2.407-0.951c-1.256-0.43-2.605-0.661-3.937-0.661c-2.75,0.002-5.438,1.007-7.637,2.782
		C187.178,30.949,187.77,31.695,188.319,32.527"/>
	<path style="fill:#FFFFFF;" d="M277.442,67.007c0.049,0.022,0.096,0.046,0.146,0.068c1.354-0.391,2.723-0.612,4.071-0.612
		c2.967,0,5.951,0.946,8.457,2.666c0.765,0.524,1.472,1.124,2.154,1.765c-0.592-1.117-1.293-2.189-2.127-3.182
		c-2.463-2.963-5.818-5.366-9.978-7.151l-0.149-0.064l-44.513-17.6c2.214,2.943,4.007,6.187,5.347,9.639L277.442,67.007z"/>
	<path style="fill:#FFFFFF;" d="M84.571,78.261c0.738-0.088,1.482-0.137,2.221-0.137c2.138,0,4.3,0.358,6.299,1.033l0.365,0.133
		l1.595,0.62l78.227-43.076c0.078-0.044,0.16-0.083,0.244-0.118c0.262-0.109,0.504-0.18,0.746-0.217
		c0.44-0.074,0.899-0.028,1.326,0.141l-0.002,0.001c1.784,0.68,3.09,3.122,3.153,3.242c0.39,0.684,0.724,1.493,0.984,2.334
		c0.512-0.65,1.035-1.29,1.588-1.908c1.148-1.287,2.381-2.473,3.672-3.569c-0.268-0.502-0.549-1-0.859-1.483
		c-1.108-1.682-2.37-2.996-3.838-3.999c-1.684-1.159-3.662-1.793-5.58-1.793c-1.516,0-3.02,0.356-4.42,1.029l-0.25,0.129
		L88.231,75.68C86.925,76.45,85.71,77.321,84.571,78.261"/>
	<path style="fill:#FFFFFF;" d="M174.921,252.094v-9.247c-1.484,1.646-3.176,3.064-4.91,4.085l-3.147,1.732
		c1.358,1.344,2.202,3.206,2.202,5.263c0,0.554-0.067,1.092-0.182,1.612l4.707-2.593
		C174.042,252.678,174.484,252.392,174.921,252.094"/>
	<path style="fill:#FFFFFF;" d="M180.29,111.352l0.002,2.271c2.289,1.392,4.279,2.98,5.934,4.729
		c0.345-0.343,0.701-0.681,1.064-1.009v-6.394C185.03,111.193,182.688,111.327,180.29,111.352"/>
	<path style="fill:#FFFFFF;" d="M179.491,106.363c18.158,0,33.5-7.327,33.5-16c0-7.275-10.799-13.602-25-15.452v10.452
		c0,4.688-3.813,8.502-8.502,8.502c-4.687,0-8.502-3.814-8.502-8.502V74.911c-14.199,1.851-24.996,8.177-24.996,15.452
		C145.991,99.036,161.331,106.363,179.491,106.363"/>
	<path style="fill:#FFFFFF;" d="M207.38,32.363c-8.672,0-17.066,3.867-23.08,10.61c-6,6.706-9.307,15.587-9.313,25.01v17.38
		c0,2.483,2.02,4.502,4.502,4.502c2.483,0,4.502-2.019,4.502-4.502V67.982c-0.006-7.199,2.485-13.947,7.01-19.002
		c4.42-4.905,10.225-7.609,16.35-7.617c6.129,0.008,11.933,2.712,16.349,7.612c4.528,5.053,7.018,11.802,7.016,19.008v24.444
		l9-4.956V67.982c-0.002-9.422-3.307-18.303-9.309-25.006C224.394,36.23,216.001,32.363,207.38,32.363"/>
	<path style="fill:#FFFFFF;" d="M247.138,215.322c0.324,0,0.602-0.065,0.85-0.199l13.168-7.115c1.447-0.783,1.748-4.097-0.014-7.361
		c-1.504-2.785-3.805-4.242-5.301-4.242c-0.322,0-0.599,0.065-0.846,0.198l-13.169,7.117c-0.909,0.49-1.124,1.812-1.174,2.359
		c-0.141,1.521,0.291,3.344,1.185,5C243.343,213.865,245.644,215.322,247.138,215.322"/>
	<path style="fill:#FFFFFF;" d="M222.142,185.647c-1.504-2.785-3.805-4.242-5.301-4.242c-0.322,0-0.599,0.066-0.845,0.199
		l-13.17,7.117c-0.909,0.489-1.123,1.812-1.174,2.358c-0.141,1.521,0.291,3.344,1.185,5.001c1.506,2.785,3.807,4.242,5.301,4.242
		c0.324,0,0.602-0.065,0.85-0.198l13.168-7.116C223.603,192.225,223.904,188.911,222.142,185.647"/>
	<path style="fill:#FFFFFF;" d="M166.421,159.084c0.344-0.001,0.68-0.049,1.01-0.145c0.935-0.266,1.707-0.886,2.174-1.733
		c0.47-0.853,0.576-1.835,0.308-2.746c-0.541-1.874-2.627-3.025-4.488-2.48c-1.912,0.551-3.025,2.562-2.477,4.477
		C163.388,157.999,164.819,159.082,166.421,159.084"/>
	<path style="fill:#FFFFFF;" d="M166.368,182.254c0.346,0.001,0.687-0.046,1.02-0.139c0.941-0.276,1.707-0.898,2.173-1.75
		c0.469-0.843,0.567-1.827,0.299-2.73c-0.527-1.867-2.56-3.038-4.492-2.484c-1.916,0.561-3.021,2.571-2.465,4.478
		C163.337,181.175,164.764,182.254,166.368,182.254"/>
	<path style="fill:#FFFFFF;" d="M166.466,139.462c0.336-0.003,0.678-0.047,1.014-0.145c0.937-0.268,1.707-0.89,2.175-1.739
		c0.463-0.845,0.567-1.832,0.297-2.741c-0.537-1.869-2.586-3.024-4.488-2.474c-1.916,0.556-3.021,2.565-2.477,4.472
		C163.429,138.376,164.859,139.456,166.466,139.462"/>
	<path style="fill:#FFFFFF;" d="M193.577,161.69l33.139-33.139l4-4v21.172l-4,4l-33.139,33.139v2.828l33.139-33.139l4-4v56.672l-4,4
		l-27.944,27.944l-3.631,3.631c-0.543-0.354-1.066-0.729-1.564-1.123v8.311c0.695,0.368,1.402,0.717,2.133,1.029l0.123,0.051
		l42.312,16.729l-3.857,3.855l-40.524-16.029c-0.064-0.027-0.123-0.059-0.187-0.086v71.411c-0.008,0.658,0.232,1.789,0.707,2.737
		c0.156,0.328,0.324,0.607,0.48,0.834l78.733-43.359l-37.182-14.706l3.856-3.856l37.633,14.879c0.109,0.035,0.224,0.061,0.334,0.093
		c0.755-0.831,1.455-1.738,2.041-2.682c0.869-1.369,1.445-2.734,1.773-3.879c-0.158,0.018-0.318,0.03-0.477,0.03
		c-0.486-0.001-0.927-0.063-1.384-0.189c-0.086-0.024-0.172-0.052-0.256-0.085l-34.274-13.556l3.852-3.853l32.875-32.875
		l0.002-0.002v-2.828l-0.002,0.002l-34.9,34.901l-3.854,3.853l-45.131-17.85c-0.502-0.216-0.992-0.459-1.478-0.713l3.761-3.76
		l26.289-26.29l3.741-3.741v1.694c0,2.482,2.019,4.501,4.502,4.501c0.843,0,1.623-0.248,2.298-0.654
		c-0.025-0.046-0.052-0.089-0.078-0.136c-1.371-2.54-1.998-5.325-1.765-7.841c0.127-1.358,0.511-2.583,1.105-3.626l2.664-2.663
		c0.002-0.002,0.004-0.004,0.008-0.005l0.266-0.144v-0.126l4-4l38.572-38.572l0.002-0.002v-2.828l-0.002,0.002l-38.572,38.572l-4,4
		v-56.672l4-4l38.572-38.572l0.002-0.002v-2.828l-0.002,0.002l-38.572,38.572l-4,4v-21.172l4-4l15.306-15.306l-6.295,3.467
		l-9.011,9.011l-4,4v-5.846l-9,4.956v9.89l-4,4l-33.139,33.139V161.69z"/>
	<path style="fill:#FFFFFF;" d="M290.358,285.244c2.553-4.117,3.877-8.221,3.936-12.185c-0.002-0.038-0.004-0.076-0.004-0.113
		V87.654c-0.03-3.631-1.121-7.234-3.162-10.399c-1.106-1.678-2.368-2.995-3.84-4.002c-1.684-1.155-3.662-1.791-5.576-1.791
		c-1.506,0-3.016,0.357-4.424,1.031l-0.246,0.129l-81.819,45.061c-2.23,1.313-4.22,2.898-5.953,4.692
		c1.463,2.486,2.354,5.171,2.586,7.978c1.707-2.624,4.049-4.882,6.977-6.668c0.033-0.019,0.064-0.037,0.095-0.055l81.342-44.794
		c0.076-0.042,0.154-0.08,0.235-0.113c0.265-0.113,0.513-0.186,0.761-0.225c0.442-0.072,0.901-0.028,1.328,0.141l-0.002,0.002
		c1.78,0.68,3.09,3.115,3.153,3.235c0.941,1.659,1.576,4.023,1.545,5.822v185.248c0.047,2.422-1.057,5.736-2.879,8.6
		c-1.869,3.011-4.557,5.701-7.36,7.362l-81.347,44.8c-0.141,0.078-0.289,0.141-0.442,0.19c-0.045,0.014-0.095,0.029-0.15,0.043
		c-0.225,0.064-0.455,0.096-0.686,0.096c-0.095,0-0.193-0.005-0.289-0.017c-0.578-0.062-1.045-0.313-1.433-0.559
		c-0.807-0.482-1.713-1.496-2.426-2.684c-0.719,1.354-1.658,2.655-2.828,3.874c-0.58,0.59-1.207,1.123-1.854,1.625
		c0.969,1.222,2.036,2.227,3.243,3.022c1.203,0.795,3.138,1.739,5.564,1.739h0.035c1.36,0,2.764-0.31,4.065-0.896l0.302-0.151
		l81.83-45.066C284.415,292.668,287.798,289.308,290.358,285.244"/>
	<path style="fill:#FFFFFF;" d="M86.577,211.747c-0.051,0.031-0.105,0.049-0.15,0.091c-0.096,0.087-0.166,0.19-0.221,0.3v0.856
		c0.041,0.089,0.084,0.18,0.154,0.256l0.217,0.24l44.672,49.08l3.459,3.802l-43.125,23.75c0.683,0.417,1.39,0.788,2.101,1.085
		l6.12,2.378l39.748-21.892l3.463,3.804l-37.133,20.45l67.986,26.424c0.17-0.156,0.355-0.354,0.508-0.58
		c0.418-0.59,0.543-1.147,0.545-1.289v-62.577l-6.471,3.563l-1.863-2.048c-0.502,0.449-1.065,0.829-1.676,1.13l1.738,1.91
		l-21.834,12.025l-3.463-3.803l17.137-9.438c-3.277-0.243-6.32-1.339-8.891-3.091l-13.087,7.207l-3.461-3.801l-45.213-49.675
		C87.509,211.541,86.979,211.496,86.577,211.747"/>
	<path style="fill:#FFFFFF;" d="M86.577,110.587c-0.051,0.031-0.105,0.05-0.15,0.09c-0.096,0.088-0.168,0.191-0.223,0.301v0.855
		c0.043,0.09,0.086,0.18,0.156,0.257l0.217,0.24l88.344,97.064v-2.972l-87.084-95.678C87.509,110.381,86.979,110.336,86.577,110.587
		"/>
	<path style="fill:#FFFFFF;" d="M86.628,98.458c-0.068,0.038-0.143,0.065-0.201,0.121c-0.096,0.087-0.168,0.19-0.223,0.3v0.855
		c0.043,0.09,0.086,0.18,0.156,0.257l0.217,0.239l88.344,97.065v-2.972L87.837,98.645C87.523,98.296,87.023,98.243,86.628,98.458"/>
	<path style="fill:#FFFFFF;" d="M86.577,172.762c-0.051,0.031-0.105,0.05-0.15,0.09c-0.096,0.088-0.168,0.191-0.221,0.301v0.855
		c0.041,0.09,0.084,0.18,0.154,0.257l0.217,0.24l55.031,60.463v-2.972l-53.771-59.077C87.509,172.556,86.979,172.511,86.577,172.762
		"/>
	<path style="fill:#FFFFFF;" d="M165.065,253.926c0-1.879-1.529-3.407-3.406-3.407l-1.828-0.001
		c-4.075-0.007-7.397-3.327-7.407-7.402v-22.302c0.01-4.082,3.332-7.403,7.405-7.408h1.83c1.877,0,3.406-1.529,3.406-3.409
		c0-1.878-1.529-3.406-3.406-3.406h-1.826c-7.84,0.002-14.221,6.384-14.225,14.224v22.296c0.004,7.838,6.385,14.218,14.225,14.221
		h1.826C163.536,257.332,165.065,255.804,165.065,253.926"/>
	<path style="fill:#FFFFFF;" d="M174.054,337.682L174.054,337.682l0.014-2.499c2.049,0,4.136-0.456,5.91-1.283
		c1.492-0.694,2.762-1.588,3.887-2.733c1.966-2.045,3.029-4.345,3.056-6.635V131.93c0.031-6.62-4.972-12.652-13.385-16.151
		l-0.13-0.05L91.433,83.874c-3.365-1.137-7.481-0.912-10.545,0.572c-1.467,0.708-2.705,1.617-3.791,2.781
		c-1.857,2.035-2.863,4.331-2.889,6.618v194.016c0,0.027,0,0.054-0.002,0.08c0.059,2.51,1.303,5.164,3.698,7.89
		c2.507,2.813,5.871,5.162,9.711,6.778l0.113,0.045l81.705,31.756l0.369,0.129c1.301,0.412,2.799,0.644,4.252,0.644V337.682z
		 M83.013,92.07c0.635-0.845,2.051-2.142,3.4-2.369c0.055-0.01,0.112-0.017,0.166-0.023c0.133-0.013,0.262-0.015,0.393-0.006
		c0.025,0.002,0.047,0.004,0.072,0.006c0.217,0.018,0.438,0.061,0.686,0.134c0.066,0.02,0.133,0.042,0.197,0.067l81.342,31.617
		c6.855,2.948,10.607,7.726,10.652,13.486v185.485c0.022,1.279-0.527,2.89-1.429,4.164c-0.76,1.132-1.975,2.194-3.057,2.656
		c-0.338,0.149-0.731,0.296-1.192,0.325c-0.056,0.004-0.113,0.006-0.171,0.006c-0.159,0-0.319-0.015-0.475-0.046
		c-0.064-0.011-0.129-0.024-0.184-0.037c-0.107-0.027-0.214-0.06-0.316-0.1l-81.281-31.592c-2.871-1.201-5.582-3.125-7.496-5.304
		c-1.993-2.208-3.164-4.773-3.112-6.836L81.206,96.889C81.169,95.394,81.88,93.479,83.013,92.07"/>
</g>
</svg>
