<?xml version="1.0" encoding="iso-8859-1"?>
<!-- Generator: Adobe Illustrator 25.4.1, SVG Export Plug-In . SVG Version: 6.00 Build 0)  -->
<svg version="1.1" id="Calque_1" xmlns="http://www.w3.org/2000/svg" xmlns:xlink="http://www.w3.org/1999/xlink" x="0px" y="0px"
	 viewBox="0 0 368.5 368.5" style="enable-background:new 0 0 368.5 368.5;" xml:space="preserve">
<g>
	<path style="fill:#FFFFFF;" d="M248.085,325.636h39.674c1.937,0,3.729-0.558,5.297-1.462c-1.956-0.107-3.305-0.132-3.749-0.134
		l-0.123-0.003l-0.019,0.001l-0.248-0.002c-0.295-0.009-0.58-0.045-0.85-0.107l-0.162-0.036c-0.754-0.179-1.473-0.522-2.087-0.996
		l-0.159-0.127c-0.021-0.018-0.043-0.035-0.063-0.052l-0.196-0.057l-0.402-0.532c-2.81-1.118-4.81-3.85-4.81-7.055
		c0-4.192,3.412-7.6,7.604-7.6c0.139,0,0.266,0.033,0.402,0.041c0.052-0.017,0.099-0.041,0.151-0.055l0.057-0.072l0.957-0.113
		c1.952-0.229,3.701-0.5,4.986-0.718c-1.822-1.438-4.091-2.331-6.586-2.331h-39.674c-22.335-0.008-43.345-8.712-59.165-24.508
		c-10.139-10.155-17.338-22.454-21.212-35.861c-1.901-0.328-3.781-0.863-5.62-1.596c-3.26,1.301-6.645,2.016-10.045,2.016
		l-0.045-3.042v3.042c-2.165,0-4.324-0.305-6.451-0.842C156.034,290.394,198.014,325.62,248.085,325.636"/>
	<path style="fill:#FFFFFF;" d="M276.603,158.475c0-59.163-19.356-109.631-43.149-115.087
		c21.052,16.266,35.814,61.02,35.814,115.087c0,54.065-14.762,98.819-35.814,115.084
		C257.247,268.102,276.603,217.634,276.603,158.475"/>
	<path style="fill:#FFFFFF;" d="M183.749,74.088c2.786-0.935,5.656-1.424,8.532-1.424c3.414,0,6.808,0.715,10.074,2.02
		c3.264-1.305,6.652-2.02,10.059-2.02c7.628,0,15.183,3.39,21.301,9.544c4.935,4.939,9.068,11.395,12.631,19.731
		c6.587,15.56,10.08,35.103,10.106,56.531c-0.006,15.781-2.008,31.086-5.793,44.265c-4.147,14.218-9.688,24.678-16.94,31.996
		c-6.122,6.157-13.675,9.546-21.274,9.546l-0.043-3.042v3.042c-3.403,0-6.787-0.715-10.045-2.018
		c-3.26,1.303-6.646,2.018-10.047,2.018l-0.041-3.042v3.042c-2.874,0-5.739-0.487-8.524-1.422
		c8.51,19.257,19.812,31.217,32.021,31.217c25.702,0,47.417-52.936,47.417-115.597c0-62.662-21.715-115.6-47.417-115.6
		C203.559,42.875,192.257,54.833,183.749,74.088"/>
	<path style="fill:#FFFFFF;" d="M212.422,238.193c5.991,0,12.011-2.751,16.98-7.748c6.518-6.576,11.56-16.193,15.414-29.4
		c3.626-12.631,5.547-27.355,5.553-42.571c-0.026-20.618-3.351-39.346-9.619-54.153c-3.25-7.603-6.961-13.433-11.344-17.819
		c-4.971-5.002-10.995-7.754-16.968-7.754c-0.877,0-1.755,0.076-2.63,0.192c1.303,0.993,2.574,2.06,3.774,3.268
		c4.93,4.933,9.063,11.387,12.63,19.731c5.495,12.983,8.802,28.757,9.773,46.054c0.008,0.099,0.014,0.2,0.02,0.301
		c0.067,1.232,0.13,2.468,0.174,3.716c0.083,2.134,0.139,4.283,0.139,6.452v0.01v0.002v0.001c0.002,1.698-0.032,3.389-0.084,5.076
		c-0.011,0.492-0.027,0.985-0.043,1.474c-0.02,0.491-0.048,0.978-0.071,1.468c-0.565,12.912-2.456,25.311-5.593,36.243
		c-4.147,14.213-9.688,24.676-16.941,31.994c-1.204,1.211-2.475,2.283-3.78,3.275c0.865,0.113,1.731,0.188,2.596,0.188v3.042
		L212.422,238.193z"/>
	<path style="fill:#FFFFFF;" d="M192.289,238.193c5.987,0,12.011-2.751,16.98-7.748c6.518-6.578,11.562-16.197,15.414-29.4
		c3.624-12.632,5.545-27.358,5.551-42.571c-0.024-20.61-3.349-39.337-9.621-54.155c-3.252-7.605-6.963-13.437-11.34-17.817
		c-4.973-5.002-10.997-7.754-16.968-7.754c-0.877,0-1.755,0.076-2.63,0.192c1.301,0.993,2.571,2.06,3.773,3.269
		c4.931,4.936,9.066,11.391,12.631,19.73c5.499,12.991,8.807,28.787,9.777,46.114c0.004,0.063,0.008,0.124,0.012,0.188
		c0.067,1.256,0.132,2.513,0.178,3.784c0.081,2.131,0.139,4.274,0.139,6.437v0.009v0.001v0.002c0.002,1.701-0.032,3.394-0.084,5.081
		c-0.013,0.491-0.027,0.983-0.043,1.474c-0.02,0.486-0.048,0.97-0.071,1.455c-0.567,12.922-2.46,25.326-5.597,36.252
		c-4.147,14.217-9.688,24.678-16.94,31.995c-1.204,1.21-2.476,2.282-3.779,3.274c0.863,0.113,1.731,0.188,2.598,0.188v3.042
		L192.289,238.193z"/>
	<path style="fill:#FFFFFF;" d="M169.542,78.94c1.301,0.99,2.571,2.06,3.773,3.268c4.929,4.933,9.06,11.387,12.625,19.73
		c5.482,12.95,8.785,28.682,9.767,45.934c0.012,0.178,0.022,0.356,0.032,0.535c0.063,1.17,0.125,2.34,0.166,3.524
		c0.085,2.167,0.143,4.346,0.143,6.544c0.002,1.731-0.032,3.454-0.085,5.169c-0.012,0.438-0.026,0.873-0.04,1.309
		c-0.026,0.626-0.057,1.248-0.089,1.872c-0.582,12.785-2.468,25.067-5.579,35.91c-4.141,14.212-9.68,24.673-16.936,31.995
		c-1.204,1.211-2.478,2.282-3.781,3.275c0.864,0.113,1.731,0.188,2.597,0.188v3.04l0.019-3.04c5.989,0,12.009-2.751,16.978-7.749
		c6.518-6.576,11.56-16.193,15.414-29.4c3.626-12.621,5.547-27.345,5.555-42.572c-0.028-20.617-3.353-39.344-9.621-54.153
		c-3.25-7.601-6.961-13.433-11.344-17.817c-4.968-5.002-10.993-7.754-16.966-7.754C171.293,78.748,170.415,78.824,169.542,78.94"/>
	<path style="fill:#FFFFFF;" d="M152.017,238.193c5.991,0,12.015-2.751,16.984-7.748c6.52-6.58,11.562-16.199,15.41-29.4
		c3.626-12.64,5.547-27.364,5.551-42.571c-0.024-20.615-3.349-39.341-9.619-54.153c-3.252-7.608-6.961-13.44-11.338-17.819
		c-4.973-5.002-10.999-7.754-16.972-7.754c-0.877,0-1.753,0.076-2.628,0.192c1.301,0.99,2.57,2.06,3.773,3.268
		c4.931,4.935,9.064,11.391,12.631,19.731c5.507,13.015,8.819,28.835,9.781,46.182c0.002,0.019,0.004,0.037,0.004,0.054
		c0.071,1.3,0.139,2.598,0.182,3.912c0.079,2.005,0.129,4.022,0.131,6.056c0,0.111,0.008,0.218,0.008,0.329
		c0,0.093-0.004,0.186-0.004,0.279c-0.002,1.562-0.032,3.119-0.077,4.673c-0.016,0.571-0.032,1.141-0.052,1.712
		c-0.012,0.293-0.03,0.584-0.042,0.877c-0.54,13.09-2.443,25.664-5.62,36.723c-4.145,14.215-9.684,24.677-16.938,31.995
		c-1.205,1.21-2.478,2.282-3.781,3.274c0.865,0.113,1.731,0.188,2.596,0.188v3.042L152.017,238.193z"/>
	<path style="fill:#FFFFFF;" d="M156.863,158.475c0,28.32-4.058,54.075-10.94,74.537c1.01-0.782,2-1.621,2.941-2.568
		c6.518-6.577,11.562-16.195,15.412-29.4c3.626-12.621,5.547-27.345,5.555-42.572c-0.024-20.608-3.349-39.336-9.621-54.153
		c-3.252-7.603-6.963-13.434-11.342-17.817c-0.945-0.95-1.935-1.791-2.947-2.573C152.803,104.391,156.863,130.151,156.863,158.475"
		/>
	<path style="fill:#FFFFFF;" d="M150.78,158.475c0-59.163-19.359-109.634-43.153-115.087c21.052,16.265,35.814,61.02,35.814,115.087
		c0,54.065-14.762,98.819-35.814,115.084C131.421,268.105,150.78,217.636,150.78,158.475"/>
	<path style="fill:#FFFFFF;" d="M137.356,158.475c0-62.662-21.713-115.6-47.415-115.6s-47.415,52.938-47.415,115.6
		c0,62.66,21.713,115.597,47.415,115.597S137.356,221.135,137.356,158.475 M115.06,144.891c4.542,0,6.916,6.803,6.916,13.525
		c0,6.719-2.374,13.522-6.916,13.522c-4.54,0-6.917-6.803-6.917-13.522C108.143,151.694,110.52,144.891,115.06,144.891
		 M104.479,158.475c0,14.579-5.095,30.073-14.538,30.073s-14.538-15.494-14.538-30.073c0-14.581,5.095-30.076,14.538-30.076
		S104.479,143.894,104.479,158.475 M57.629,158.416c0-6.722,2.374-13.525,6.915-13.525c4.543,0,6.92,6.803,6.92,13.525
		c0,6.719-2.377,13.522-6.92,13.522C60.003,171.938,57.629,165.135,57.629,158.416 M89.941,226.633
		c-4.541,0-6.918-6.805-6.918-13.524c0-6.721,2.377-13.525,6.918-13.525c4.541,0,6.918,6.804,6.918,13.525
		C96.859,219.828,94.482,226.633,89.941,226.633 M89.941,117.243c-4.541,0-6.918-6.805-6.918-13.524
		c0-6.72,2.377-13.524,6.918-13.524c4.541,0,6.918,6.804,6.918,13.524C96.859,110.438,94.482,117.243,89.941,117.243"/>
	<path style="fill:#FFFFFF;" d="M112.199,158.416c0,6.212,2.127,9.466,2.862,9.466c0.734,0,2.859-3.254,2.859-9.466
		c0-6.213-2.125-9.469-2.859-9.469C114.326,148.947,112.199,152.203,112.199,158.416"/>
	<path style="fill:#FFFFFF;" d="M64.545,167.882c0.737,0,2.864-3.255,2.864-9.466c0-6.214-2.127-9.47-2.864-9.47
		c-0.735,0-2.86,3.256-2.86,9.47C61.685,164.627,63.81,167.882,64.545,167.882"/>
	<path style="fill:#FFFFFF;" d="M89.941,94.25c-0.735,0-2.862,3.256-2.862,9.468c0,6.213,2.127,9.469,2.862,9.469
		c0.735,0,2.862-3.256,2.862-9.469C92.803,97.507,90.676,94.25,89.941,94.25"/>
	<path style="fill:#FFFFFF;" d="M89.941,203.641c-0.735,0-2.862,3.256-2.862,9.468c0,6.213,2.127,9.469,2.862,9.469
		c0.735,0,2.862-3.256,2.862-9.469C92.803,206.897,90.676,203.641,89.941,203.641"/>
	<path style="fill:#FFFFFF;" d="M320.366,298.657l-0.608,0.539c-0.776,0.677-2.06,1.75-3.691,2.96
		c-1.916,1.429-5.686,4.043-9.376,5.452c-1.677,0.646-3.57,1.193-5.383,1.644c3.185-0.127,6.362-0.283,8.732-0.467
		c0.317-0.024,0.636-0.05,0.955-0.077c4.687-2.45,8.82-5.804,11.096-7.825c0.067-0.061,0.129-0.114,0.182-0.159
		c0.571-0.528,0.608-1.421,0.083-1.992C321.853,298.189,320.922,298.142,320.366,298.657"/>
	<path style="fill:#FFFFFF;" d="M324.363,311.211l-0.002-0.006c-1.374,0.233-7.92,1.157-14.009,1.624
		c-3.63,0.281-9.083,0.498-13.626,0.647c2.125,0.167,4.587,0.408,7.286,0.771c1.256,0.169,2.337,0.768,3.157,1.61
		c1.218-0.068,2.375-0.141,3.402-0.22c5.967-0.461,11.853-1.289,14.107-1.625l0.263-0.034c0.622-0.101,1.151-0.824,1.034-1.595
		C325.86,311.638,325.149,311.09,324.363,311.211"/>
	<path style="fill:#FFFFFF;" d="M303.471,318.267c-7.399-0.992-13.051-1.087-14.108-1.097c-0.571,0-0.931,0.148-1.189,0.406
		c-0.269,0.268-0.42,0.629-0.42,0.998l0.016,0.174l-0.002,0.087l0.044,0.141c0.034,0.115,0.085,0.228,0.153,0.339l0.093,0.125
		l-0.03,0.045l0.008,0.005l0.039-0.026l-0.023,0.033l0.398,0.293c0.107,0.063,0.221,0.111,0.342,0.144v-0.003
		c0.121,0.033,0.246,0.05,0.373,0.05l0.009,0.67l0.149,1.361l0.016-2.028c1.024,0.008,6.496,0.098,13.758,1.071l0.192,0.014
		c0.701,0,1.297-0.523,1.39-1.216C304.784,319.081,304.241,318.37,303.471,318.267"/>
</g>
</svg>
