<?xml version="1.0" encoding="iso-8859-1"?>
<!-- Generator: Adobe Illustrator 25.4.1, SVG Export Plug-In . SVG Version: 6.00 Build 0)  -->
<svg version="1.1" id="Calque_1" xmlns="http://www.w3.org/2000/svg" xmlns:xlink="http://www.w3.org/1999/xlink" x="0px" y="0px"
	 viewBox="0 0 368.5 368.5" style="enable-background:new 0 0 368.5 368.5;" xml:space="preserve">
<g>
	<path style="fill:#FFFFFF;" d="M87.719,249.867l1.906-1.683c-1.134-0.225-2.222-0.568-3.258-1.011v4.036
		C86.79,250.744,87.236,250.294,87.719,249.867"/>
	<path style="fill:#FFFFFF;" d="M89.952,275.455c-1.37-0.974-2.577-2.153-3.585-3.493v6.66L89.952,275.455z"/>
	<path style="fill:#FFFFFF;" d="M188.989,257.086c-0.425-1.159-0.208-2.456,0.571-3.413c2.214-2.721,4.508-8.237,6.403-16.179
		l-60.544,53.48v10.26h7.312h0.001c0.331,0,0.645,0.062,0.948,0.147l46.573-41.14C189.821,259.248,189.398,258.202,188.989,257.086"
		/>
	<polygon style="fill:#FFFFFF;" points="86.367,215.112 111.503,192.908 86.367,192.908 	"/>
	<path style="fill:#FFFFFF;" d="M131.919,286.953c0.153,0,0.3,0.026,0.448,0.045l65.235-57.622c0.209-1.229,0.409-2.491,0.598-3.797
		l-69.481,61.374h3.199H131.919z"/>
	<path style="fill:#FFFFFF;" d="M192.594,264.844l-46.363,40.954v11.207l52.163-45.972
		C196.308,269.851,194.371,267.789,192.594,264.844"/>
	<path style="fill:#FFFFFF;" d="M139.231,308.234h-7.312h-0.001c-1.933,0-3.5-1.566-3.5-3.5v-10.781h-7.623l-2.011,1.776v9.005
		c0,1.934-1.567,3.5-3.5,3.5H99.311c-0.749,0.084-1.505,0.143-2.271,0.143c-0.476,0-0.946-0.03-1.415-0.062
		c-0.224,0.009-0.444,0.034-0.669,0.034c-0.618,0-1.224-0.045-1.823-0.115H82.867c-1.933,0-3.5-1.566-3.5-3.5v-9.035
		c-0.297-1.18-0.465-2.394-0.465-3.635s0.168-2.455,0.465-3.635v-46.942c-1.387-1.988-2.319-4.3-2.684-6.791
		c-0.314-1.214-0.494-2.465-0.494-3.746c0-3.351,1.114-6.537,3.178-9.23v-32.311c0-1.933,1.567-3.5,3.5-3.5h32.417
		c1.933,0,3.5,1.567,3.5,3.5v11.575h9.634v-11.575c0-1.933,1.567-3.5,3.5-3.5h0.001h7.252l-0.197-11.437l-73.696-0.288v147.363
		h73.18h0.773V308.234z"/>
	<polygon style="fill:#FFFFFF;" points="139.551,167.474 274.898,47.113 208.448,46.954 71.323,167.207 	"/>
	<path style="fill:#FFFFFF;" d="M145.947,172.846l0.152,8.829l46.188-41.525c-0.789-1.701-1.592-3.055-2.387-4.043
		c-0.464-0.577-0.721-1.275-0.763-1.99L145.947,172.846z"/>
	<path style="fill:#FFFFFF;" d="M199.115,218.098c0.671-6.559,1.086-13.885,1.147-21.902l-87.117,76.953
		c-1.995,1.762-4.376,3.047-6.963,3.821c-1.122,0.516-2.304,0.923-3.546,1.175c4.879,2.752,8.191,8.034,8.191,14.09
		c0,1.525-0.224,2.996-0.615,4.395L199.115,218.098z"/>
	<path style="fill:#FFFFFF;" d="M198.076,162.177l-91.036,80.415c-1.464,1.292-3.139,2.318-4.943,3.089
		c-0.342,0.23-0.698,0.44-1.058,0.645c8.18,0.828,14.584,7.701,14.584,16.031c0,0.7-0.061,1.385-0.149,2.062l84.758-74.868
		C200.05,179.095,199.251,169.908,198.076,162.177"/>
	<path style="fill:#FFFFFF;" d="M134.418,204.484c0,1.381-1.119,2.5-2.5,2.5h-16.634c-1.381,0-2.5-1.119-2.5-2.5v-6.035
		l-20.198,17.842c0.093-0.002,0.183-0.015,0.276-0.015c9.024,0,16.366,7.229,16.366,16.114c0,0.567-0.031,1.126-0.09,1.677
		l87.938-77.677c-0.704-3.613-1.492-6.815-2.331-9.591l-50.358,44.483c-0.457,0.404-1.045,0.627-1.655,0.627h-8.314V204.484z"/>
	<path style="fill:#FFFFFF;" d="M288.303,49.427c-0.067-0.001-0.134-0.005-0.2-0.01c-0.067,0.023-0.135,0.044-0.204,0.063
		c-0.458,0.125-1.707,0.698-3.414,3.298c-0.173,0.264-0.381,0.503-0.618,0.71l-75.262,66.033c4.458,3.268,8.17,10.744,11.076,22.391
		c3.549,14.22,5.472,33.064,5.415,53.061c-0.059,19.989-2.089,38.819-5.718,53.022c-0.38,1.485-0.776,2.879-1.18,4.228
		l68.916-60.628c0.3-0.777,0.872-1.432,1.624-1.831c6.878-3.65,14.371-31.453,14.483-70.004
		C303.352,73.78,293.579,49.532,288.303,49.427"/>
	<path style="fill:#FFFFFF;" d="M203.156,124.611c-0.236,0-0.488,0.067-0.769,0.205c-0.896,0.437-3.151,2.132-5.81,8.606
		c6.617,10.235,10.774,33.878,10.696,61.511c-0.08,27.635-4.373,51.259-11.051,61.462c2.802,6.918,5.38,8.832,6.523,8.834
		l0.005,3.499l0.001-3.499c5.138,0.002,15.212-24.802,15.344-70.276c0.056-19.435-1.793-37.671-5.206-51.346
		C209.142,128.591,204.884,124.615,203.156,124.611"/>
	<path style="fill:#FFFFFF;" d="M103.827,292.235c0-5.025-3.98-9.113-8.871-9.113s-8.87,4.088-8.87,9.113
		c0,5.025,3.979,9.114,8.87,9.114S103.827,297.26,103.827,292.235"/>
	<path style="fill:#FFFFFF;" d="M99.38,253.243c-5.097,0-9.244,4.088-9.244,9.114c0,5.025,4.147,9.114,9.244,9.114
		s9.243-4.089,9.243-9.114C108.623,257.331,104.477,253.243,99.38,253.243"/>
	<path style="fill:#FFFFFF;" d="M92.862,241.503c5.164,0,9.366-4.088,9.366-9.113c0-5.026-4.202-9.114-9.366-9.114
		c-5.164,0-9.366,4.088-9.366,9.114C83.496,237.415,87.698,241.503,92.862,241.503"/>
</g>
</svg>
