<?xml version="1.0" encoding="iso-8859-1"?>
<!-- Generator: Adobe Illustrator 25.4.1, SVG Export Plug-In . SVG Version: 6.00 Build 0)  -->
<svg version="1.1" id="Calque_1" xmlns="http://www.w3.org/2000/svg" xmlns:xlink="http://www.w3.org/1999/xlink" x="0px" y="0px"
	 viewBox="0 0 368.5 368.5" style="enable-background:new 0 0 368.5 368.5;" xml:space="preserve">
<g>
	<path style="fill:#FFFFFF;" d="M122.369,149.387l0.044-39.21c0.011-12.336,6.185-23.809,17.308-32.731
		c11.082-8.853,26.958-14.641,44.696-14.627c17.736-0.014,33.609,5.774,44.692,14.627c11.118,8.922,17.303,20.395,17.312,32.72
		l0.033,39.221h15.344c1.681,0,3.327,0.139,4.952,0.343l-0.03-39.573c0.011-19.423-9.965-36.695-24.958-48.587
		c-15.036-11.954-35.233-19.038-57.345-19.051c-22.11,0.013-42.316,7.097-57.345,19.051c-14.996,11.892-24.967,29.164-24.958,48.596
		l-0.044,39.523c1.54-0.182,3.099-0.302,4.688-0.302H122.369z"/>
	<path style="fill:#FFFFFF;" d="M261.799,156.164H106.758c-18.157,0-32.93,14.772-32.93,32.932v103.958
		c0,18.159,14.773,32.93,32.93,32.93h155.041c18.157,0,32.93-14.771,32.93-32.93V189.096
		C294.729,170.936,279.956,156.164,261.799,156.164 M191.492,260.638c0,4.489-3.633,8.123-8.116,8.123
		c-4.486,0-8.118-3.634-8.118-8.123v-40.822c0-4.481,3.632-8.118,8.118-8.118c4.483,0,8.116,3.637,8.116,8.118V260.638z"/>
</g>
</svg>
