<?xml version="1.0" encoding="iso-8859-1"?>
<!-- Generator: Adobe Illustrator 25.4.1, SVG Export Plug-In . SVG Version: 6.00 Build 0)  -->
<svg version="1.1" id="Calque_1" xmlns="http://www.w3.org/2000/svg" xmlns:xlink="http://www.w3.org/1999/xlink" x="0px" y="0px"
	 viewBox="0 0 368.5 368.5" style="enable-background:new 0 0 368.5 368.5;" xml:space="preserve">
<g>
	<path style="fill:#FFFFFF;" d="M255.861,296.412h-142.4l-33.879,28.966c-0.059,0.051-0.132,0.068-0.193,0.113
		c0.814,0.304,1.687,0.493,2.607,0.493h206.668c0.601,0,1.175-0.088,1.734-0.222c-0.226-0.114-0.458-0.212-0.659-0.384
		L255.861,296.412z"/>
	<polygon style="fill:#FFFFFF;" points="120.184,85.708 110.715,77.615 110.715,290 111.095,290 120.107,282.295 120.107,85.708 	
		"/>
	<path style="fill:#FFFFFF;" d="M296.145,50c0-1.525-0.46-2.937-1.243-4.119c-0.167,0.584-0.499,1.13-0.997,1.556L264.96,72.182
		c0.187,0.407,0.298,0.855,0.298,1.332v219.692c0,0.813-0.312,1.548-0.811,2.111l29.458,25.187c0.614,0.525,0.968,1.232,1.076,1.973
		c0.727-1.154,1.164-2.51,1.164-3.974V50z"/>
	<path style="fill:#FFFFFF;" d="M105.015,295.199c-0.438-0.55-0.712-1.236-0.712-1.993V73.514c0-0.42,0.086-0.817,0.232-1.185
		L75.417,47.437c-0.119-0.104-0.217-0.219-0.319-0.331c-0.373,0.888-0.582,1.866-0.582,2.894v268.503
		c0,0.87,0.178,1.695,0.451,2.471c0.131-0.169,0.281-0.326,0.45-0.47L105.015,295.199z"/>
	<polygon style="fill:#FFFFFF;" points="120.961,290 248.363,290 239.94,282.8 129.384,282.8 	"/>
	<path style="fill:#FFFFFF;" d="M239.643,85.393l10.144-8.673H119.537l10.144,8.673c0.113,0.096,0.206,0.207,0.302,0.315H239.34
		C239.436,85.6,239.529,85.489,239.643,85.393"/>
	<polygon style="fill:#FFFFFF;" points="258.846,77.412 249.14,85.708 250.553,85.708 250.553,282.8 249.806,282.8 258.228,290 
		258.846,290 	"/>
	<path style="fill:#FFFFFF;" d="M112.037,70.308h145.249l32.386-27.688c-0.332-0.044-0.662-0.101-1.007-0.101H81.996
		c-0.726,0-1.415,0.135-2.08,0.331L112.037,70.308z"/>
</g>
</svg>
