<?xml version="1.0" encoding="iso-8859-1"?>
<!-- Generator: Adobe Illustrator 25.4.1, SVG Export Plug-In . SVG Version: 6.00 Build 0)  -->
<svg version="1.1" id="Calque_1" xmlns="http://www.w3.org/2000/svg" xmlns:xlink="http://www.w3.org/1999/xlink" x="0px" y="0px"
	 viewBox="0 0 368.5 368.5" style="enable-background:new 0 0 368.5 368.5;" xml:space="preserve">
<g>
	<path style="fill:#FFFFFF;" d="M127.421,100.656L54.625,210.941c0.035,0,0.069-0.007,0.104-0.007c0.33,0,0.663,0.025,0.99,0.074
		l8.97,1.351c4.219,0.635,7.237,5.149,7.62,10.834l3.185-4.832c-1.875-1.539-2.956-4.213-2.584-6.996
		c0.474-3.549,3.079-6.125,6.195-6.125c0.349,0,0.701,0.033,1.046,0.1l3.484,0.669l49.335-74.843
		c-1.254-1.569-1.908-3.751-1.607-6.006c0.473-3.549,3.08-6.125,6.197-6.125c0.347,0,0.698,0.033,1.043,0.099l2.04,0.392l3.72-5.644
		c0.64-1.332,1.068-2.892,1.236-4.514c0.532-5.083-1.578-9.762-4.607-10.218l-8.968-1.349
		C130.377,97.549,128.699,98.626,127.421,100.656"/>
	<path style="fill:#FFFFFF;" d="M68.278,225.986c0.55-5.246-1.764-9.308-4.184-9.671l-8.97-1.35c-0.132-0.02-0.263-0.03-0.395-0.03
		c-2.22,0-4.935,3.062-5.452,8.01c-0.549,5.245,1.764,9.306,4.184,9.669l8.969,1.351c0.132,0.019,0.265,0.03,0.396,0.03
		C65.045,233.995,67.76,230.932,68.278,225.986"/>
	<path style="fill:#FFFFFF;" d="M85.325,217.938l5.008-7.586l-10.749-2.064c-0.159-0.032-0.32-0.047-0.479-0.047
		c-1.569,0-2.953,1.514-3.221,3.522c-0.309,2.306,0.953,4.545,2.755,4.891L85.325,217.938z"/>
	<path style="fill:#FFFFFF;" d="M138.036,122.08c-0.158-0.03-0.319-0.045-0.477-0.045c-1.569,0-2.955,1.515-3.223,3.523
		c-0.308,2.304,0.954,4.543,2.756,4.889l5.31,1.021l5.008-7.586L138.036,122.08z"/>
	<path style="fill:#FFFFFF;" d="M109.639,218.041c0.474-3.548,3.08-6.123,6.196-6.123c0.348,0,0.699,0.033,1.044,0.099l1.512,0.291
		l50.256-76.242c-0.534-1.273-0.755-2.736-0.555-4.23c0.473-3.549,3.079-6.125,6.196-6.125c0.348,0,0.699,0.033,1.043,0.099
		l0.069,0.013l2.672-4.053c0.64-1.335,1.067-2.892,1.236-4.513c0.532-5.083-1.579-9.763-4.608-10.218l-8.968-1.351
		c-1.642-0.25-3.323,0.824-4.603,2.857L88.331,218.83c0.036-0.001,0.07-0.008,0.105-0.008c0.33,0,0.663,0.026,0.991,0.075
		l8.97,1.351c4.218,0.633,7.237,5.147,7.62,10.832l4.916-7.457C109.887,222.097,109.364,220.1,109.639,218.041"/>
	<path style="fill:#FFFFFF;" d="M174.766,128.756c-0.158-0.03-0.319-0.045-0.477-0.045c-1.569,0-2.955,1.514-3.223,3.522
		c-0.308,2.306,0.954,4.546,2.756,4.892l3.434,0.659l5.008-7.587L174.766,128.756z"/>
	<path style="fill:#FFFFFF;" d="M115.368,223.33l4.81,0.924l5.007-7.586l-8.873-1.705c-0.158-0.03-0.319-0.045-0.477-0.045
		c-1.569,0-2.955,1.514-3.223,3.52C112.305,220.744,113.566,222.984,115.368,223.33"/>
	<path style="fill:#FFFFFF;" d="M143.028,224.719c0.474-3.549,3.08-6.125,6.196-6.125c0.348,0,0.699,0.033,1.044,0.1l2.6,0.499
		l49.704-75.404c-0.911-1.482-1.348-3.354-1.091-5.277c0.473-3.549,3.079-6.125,6.196-6.125c0.348,0,0.699,0.034,1.044,0.1
		l1.155,0.222l2.889-4.383c0.64-1.33,1.067-2.888,1.237-4.513c0.531-5.082-1.579-9.762-4.608-10.217l-8.968-1.35
		c-1.635-0.248-3.325,0.824-4.603,2.855l-72.798,110.286c0.036-0.001,0.07-0.008,0.106-0.008c0.33,0,0.664,0.026,0.991,0.075
		l8.968,1.349c4.219,0.636,7.236,5.148,7.621,10.832l4.281-6.494C143.505,229.558,142.699,227.179,143.028,224.719"/>
	<path style="fill:#FFFFFF;" d="M208.155,135.434c-0.159-0.031-0.319-0.047-0.477-0.047c-1.57,0-2.956,1.515-3.224,3.523
		c-0.307,2.305,0.955,4.545,2.756,4.891l4.428,0.851l5.008-7.588L208.155,135.434z"/>
	<path style="fill:#FFFFFF;" d="M159.555,223.556v-0.023l-9.853-1.894c-0.159-0.03-0.319-0.045-0.477-0.045
		c-1.57,0-2.955,1.514-3.223,3.522c-0.308,2.304,0.954,4.545,2.756,4.891l5.803,1.115L159.555,223.556z"/>
	<path style="fill:#FFFFFF;" d="M177.16,230.95c0.474-3.55,3.08-6.126,6.197-6.126c0.348,0,0.699,0.033,1.043,0.1l3.195,0.613
		l49.448-75.017c-1.138-1.547-1.717-3.631-1.43-5.777c0.473-3.548,3.079-6.124,6.196-6.124c0.348,0,0.699,0.033,1.044,0.1
		l1.748,0.336l1.873-2.842c0.64-1.33,1.067-2.889,1.236-4.512c0.532-5.084-1.578-9.762-4.607-10.218l-8.968-1.35
		c-1.636-0.244-3.325,0.824-4.603,2.855l-72.798,110.287c0.035-0.001,0.07-0.008,0.105-0.008c0.33,0,0.664,0.026,0.992,0.076
		l8.968,1.348c4.219,0.634,7.237,5.148,7.621,10.833l5.11-7.752C177.786,236.21,176.803,233.627,177.16,230.95"/>
	<path style="fill:#FFFFFF;" d="M242.286,141.665c-0.158-0.03-0.319-0.046-0.477-0.046c-1.569,0-2.955,1.514-3.223,3.522
		c-0.308,2.304,0.954,4.544,2.756,4.89l5.02,0.965l5.007-7.586L242.286,141.665z"/>
	<path style="fill:#FFFFFF;" d="M189.284,237.467l5.008-7.588l-10.458-2.009c-0.158-0.03-0.319-0.046-0.477-0.046
		c-1.57,0-2.955,1.515-3.223,3.524c-0.308,2.305,0.954,4.545,2.755,4.89L189.284,237.467z"/>
	<path style="fill:#FFFFFF;" d="M211.663,237.625c0.474-3.549,3.08-6.125,6.196-6.125c0.347,0,0.699,0.033,1.043,0.1l3.198,0.614
		l49.447-75.015c-1.139-1.549-1.718-3.633-1.432-5.781c0.474-3.548,3.08-6.123,6.197-6.123c0.348,0,0.699,0.033,1.043,0.1
		l1.752,0.335l1.976-2.998c0.641-1.332,1.068-2.889,1.236-4.51c0.531-5.084-1.578-9.763-4.607-10.219l-8.969-1.351
		c-1.63-0.245-3.324,0.826-4.604,2.858l-72.797,110.285c0.035-0.001,0.07-0.008,0.106-0.008c0.33,0,0.664,0.026,0.991,0.075
		l8.97,1.351c4.217,0.633,7.235,5.146,7.619,10.832l5.006-7.595C212.289,242.888,211.305,240.304,211.663,237.625"/>
	<path style="fill:#FFFFFF;" d="M276.789,148.34c-0.158-0.03-0.319-0.045-0.477-0.045c-1.569,0-2.955,1.514-3.223,3.522
		c-0.308,2.304,0.954,4.544,2.756,4.89l5.025,0.966l5.008-7.587L276.789,148.34z"/>
	<path style="fill:#FFFFFF;" d="M223.792,244.144l5.008-7.587l-10.465-2.012c-0.158-0.03-0.318-0.045-0.477-0.045
		c-1.568,0-2.953,1.514-3.222,3.524c-0.308,2.305,0.954,4.545,2.757,4.89L223.792,244.144z"/>
	<path style="fill:#FFFFFF;" d="M304.629,157.507c0.511-3.488,3.111-6.02,6.182-6.02c0.38,0,0.765,0.041,1.142,0.12l1.942,0.373
		l0.896-1.359c0.641-1.33,1.067-2.886,1.235-4.51c0.533-5.085-1.577-9.765-4.607-10.22l-8.967-1.35
		c-1.626-0.244-3.325,0.824-4.604,2.856l-72.797,110.285c0.036,0,0.071-0.007,0.107-0.007c0.329,0,0.662,0.024,0.99,0.073
		l8.968,1.352c4.22,0.634,7.238,5.148,7.62,10.835l6.013-9.122c-1.907-1.565-2.985-4.289-2.573-7.099
		c0.512-3.488,3.11-6.02,6.18-6.02c0.381,0,0.766,0.041,1.144,0.121l3.388,0.65l49.338-74.85
		C304.946,162.02,304.293,159.791,304.629,157.507"/>
	<path style="fill:#FFFFFF;" d="M316.037,163.947c1.542,0,2.923-1.484,3.213-3.453c0.337-2.303-0.9-4.57-2.702-4.95l-5.188-0.997
		c-0.201-0.041-0.376-0.061-0.549-0.061c-1.544,0-2.925,1.486-3.214,3.456c-0.338,2.302,0.9,4.569,2.701,4.949l5.188,0.995
		c0.192,0.041,0.344,0.059,0.5,0.061l0.05,1.493h0.001V163.947z"/>
	<path style="fill:#FFFFFF;" d="M257.581,250.154c1.569,0,2.922-1.452,3.215-3.453c0.338-2.305-0.898-4.57-2.7-4.95l-5.19-0.997
		c-0.2-0.042-0.376-0.061-0.55-0.061c-1.542,0-2.922,1.486-3.211,3.455c-0.338,2.303,0.898,4.569,2.7,4.949l5.188,0.996
		c0.185,0.04,0.342,0.057,0.512,0.061l0.036,1.494V250.154z"/>
	<path style="fill:#FFFFFF;" d="M101.987,233.873c0.549-5.246-1.765-9.307-4.185-9.67l-8.97-1.35
		c-0.133-0.021-0.264-0.031-0.396-0.031c-2.219,0-4.934,3.063-5.45,8.008c-0.549,5.247,1.764,9.309,4.184,9.672l8.969,1.351
		c0.131,0.019,0.263,0.029,0.394,0.029C98.753,241.882,101.47,238.82,101.987,233.873"/>
	<path style="fill:#FFFFFF;" d="M136.68,240.43c0.549-5.245-1.766-9.307-4.186-9.672l-8.967-1.349
		c-0.133-0.019-0.265-0.03-0.396-0.03c-2.22,0-4.936,3.063-5.452,8.009c-0.549,5.246,1.764,9.308,4.184,9.671l8.969,1.35
		c0.133,0.02,0.265,0.031,0.396,0.031C133.448,248.44,136.163,245.377,136.68,240.43"/>
	<path style="fill:#FFFFFF;" d="M170.389,248.318c0.549-5.246-1.765-9.307-4.184-9.67l-8.969-1.35
		c-0.133-0.02-0.265-0.03-0.397-0.03c-2.22,0-4.935,3.063-5.451,8.008c-0.549,5.247,1.764,9.309,4.184,9.672l8.968,1.349
		c0.132,0.02,0.264,0.03,0.395,0.03C167.155,256.327,169.871,253.264,170.389,248.318"/>
	<path style="fill:#FFFFFF;" d="M204.997,254.839c0.549-5.247-1.765-9.308-4.184-9.671l-8.969-1.35
		c-0.133-0.021-0.265-0.031-0.397-0.031c-2.22,0-4.935,3.063-5.451,8.01c-0.549,5.245,1.765,9.307,4.185,9.67l8.968,1.351
		c0.133,0.019,0.265,0.03,0.396,0.03C201.764,262.848,204.479,259.785,204.997,254.839"/>
	<path style="fill:#FFFFFF;" d="M238.705,262.727c0.55-5.247-1.764-9.309-4.184-9.672l-8.968-1.35
		c-0.132-0.02-0.264-0.03-0.395-0.03c-2.221,0-4.937,3.062-5.454,8.01c-0.549,5.245,1.765,9.307,4.185,9.671l8.968,1.349
		c0.134,0.02,0.266,0.03,0.397,0.03C235.474,270.735,238.188,267.672,238.705,262.727"/>
</g>
</svg>
