<?xml version="1.0" encoding="iso-8859-1"?>
<!-- Generator: Adobe Illustrator 25.4.1, SVG Export Plug-In . SVG Version: 6.00 Build 0)  -->
<svg version="1.1" id="Calque_1" xmlns="http://www.w3.org/2000/svg" xmlns:xlink="http://www.w3.org/1999/xlink" x="0px" y="0px"
	 viewBox="0 0 368.5 368.5" style="enable-background:new 0 0 368.5 368.5;" xml:space="preserve">
<polygon style="fill:#FFFFFF;" points="257.609,79.685 257.609,73.54 254.371,73.982 254.371,80.127 "/>
<polygon style="fill:#FFFFFF;" points="232.654,83.098 232.654,76.953 228.437,77.53 228.437,83.675 "/>
<polygon style="fill:#FFFFFF;" points="309.48,72.591 309.48,66.446 307.215,66.755 307.215,72.9 "/>
<polygon style="fill:#FFFFFF;" points="283.544,76.138 283.544,69.993 281.283,70.302 281.283,76.447 "/>
<polygon style="fill:#FFFFFF;" points="164.588,92.407 164.588,86.262 161.65,86.664 161.65,92.807 "/>
<polygon style="fill:#FFFFFF;" points="184.355,89.702 184.355,83.559 182.393,83.827 182.393,89.971 "/>
<polygon style="fill:#FFFFFF;" points="206.719,86.645 206.719,80.5 204.119,80.855 204.119,87 "/>
<polygon style="fill:#FFFFFF;" points="161.65,273.731 161.65,279.87 164.588,280.263 164.588,274.123 "/>
<polygon style="fill:#FFFFFF;" points="254.371,286.108 254.371,292.247 257.609,292.682 257.609,286.54 "/>
<g>
	<path style="fill:#FFFFFF;" d="M135.042,270.18v-53.704l8.799,0.549v-6.099l-8.799-0.547v-56.266l8.799-0.422v-6.094l-8.799,0.422
		V96.448l8.799-1.203V89.1l-8.799,1.203V76.614c0-1.681-1.362-3.044-3.044-3.044c-0.536,0-1.032,0.151-1.469,0.394v0.002v224.753
		c0,0.224-0.05,0.434-0.066,0.654c0.452,0.268,0.973,0.43,1.535,0.43c1.682,0,3.044-1.363,3.044-3.043v-20.441l8.799,1.173v-6.139
		L135.042,270.18z"/>
	<polygon style="fill:#FFFFFF;" points="182.394,276.501 182.394,282.641 184.355,282.902 184.355,276.763 	"/>
	<polygon style="fill:#FFFFFF;" points="307.215,293.163 307.215,299.302 309.48,299.605 309.48,293.466 	"/>
	<polygon style="fill:#FFFFFF;" points="281.283,289.701 281.283,295.842 283.544,296.143 283.544,290.004 	"/>
	<polygon style="fill:#FFFFFF;" points="228.438,282.646 228.438,288.788 232.655,289.35 232.655,283.21 	"/>
	<polygon style="fill:#FFFFFF;" points="204.119,279.401 204.119,285.54 206.719,285.887 206.719,279.748 	"/>
	<polygon style="fill:#FFFFFF;" points="254.371,223.907 257.609,224.109 257.609,218.01 254.371,217.81 	"/>
	<polygon style="fill:#FFFFFF;" points="307.215,227.199 309.48,227.34 309.48,221.24 307.215,221.099 	"/>
	<polygon style="fill:#FFFFFF;" points="281.283,225.584 283.544,225.725 283.544,219.625 281.283,219.484 	"/>
	<polygon style="fill:#FFFFFF;" points="182.394,219.427 184.355,219.548 184.355,213.448 182.394,213.328 	"/>
	<polygon style="fill:#FFFFFF;" points="204.119,220.778 206.719,220.941 206.719,214.841 204.119,214.679 	"/>
	<polygon style="fill:#FFFFFF;" points="161.65,218.135 164.588,218.317 164.588,212.218 161.65,212.035 	"/>
	<polygon style="fill:#FFFFFF;" points="228.438,222.292 232.655,222.556 232.655,216.456 228.438,216.195 	"/>
	<polygon style="fill:#FFFFFF;" points="161.65,152.839 164.588,152.698 164.588,146.605 161.65,146.746 	"/>
	<polygon style="fill:#FFFFFF;" points="254.371,148.396 257.609,148.242 257.609,142.148 254.371,142.303 	"/>
	<polygon style="fill:#FFFFFF;" points="307.215,145.865 309.48,145.756 309.48,139.662 307.215,139.771 	"/>
	<polygon style="fill:#FFFFFF;" points="182.394,151.844 184.355,151.751 184.355,145.657 182.394,145.75 	"/>
	<polygon style="fill:#FFFFFF;" points="204.119,150.803 206.719,150.678 206.719,144.586 204.119,144.71 	"/>
	<polygon style="fill:#FFFFFF;" points="281.283,147.108 283.544,146.999 283.544,140.905 281.283,141.014 	"/>
	<polygon style="fill:#FFFFFF;" points="228.438,149.638 232.655,149.436 232.655,143.342 228.438,143.545 	"/>
	<path style="fill:#FFFFFF;" d="M155.562,73.289c0-1.544-1.263-2.798-2.816-2.798c-1.554,0-2.819,1.254-2.819,2.798v225.788
		c0,1.543,1.265,2.798,2.819,2.798c1.553,0,2.816-1.255,2.816-2.798V73.289z"/>
	<path style="fill:#FFFFFF;" d="M176.306,70.471c0-1.542-1.263-2.796-2.816-2.796c-1.553,0-2.815,1.254-2.815,2.796v231.306
		c0,1.544,1.262,2.798,2.815,2.798c1.553,0,2.816-1.254,2.816-2.798V70.471z"/>
	<path style="fill:#FFFFFF;" d="M198.032,66.801c0-2.079-1.702-3.769-3.795-3.769c-2.092,0-3.795,1.69-3.795,3.769v238.405
		c0,2.078,1.703,3.771,3.795,3.771c2.093,0,3.795-1.693,3.795-3.771V66.801z"/>
	<path style="fill:#FFFFFF;" d="M222.35,63.204c0-2.616-2.14-4.744-4.771-4.744s-4.772,2.128-4.772,4.744V307.71
		c0,2.616,2.141,4.744,4.772,4.744s4.771-2.128,4.771-4.744V63.204z"/>
	<path style="fill:#FFFFFF;" d="M248.283,60.152c0-2.618-2.139-4.746-4.769-4.746c-2.631,0-4.773,2.128-4.773,4.746v250.485
		c0,2.615,2.142,4.742,4.773,4.742c2.63,0,4.769-2.127,4.769-4.742V60.152z"/>
	<path style="fill:#FFFFFF;" d="M275.196,55.981c0-3.153-2.579-5.717-5.749-5.717c-3.17,0-5.75,2.564-5.75,5.717v257.864
		c0,3.155,2.58,5.721,5.75,5.721c3.17,0,5.749-2.566,5.749-5.721V55.981z"/>
	<path style="fill:#FFFFFF;" d="M301.127,52.091c0-3.155-2.579-5.723-5.749-5.723c-3.168,0-5.747,2.568-5.747,5.723v264.471
		c0,3.153,2.579,5.717,5.747,5.717c3.17,0,5.749-2.564,5.749-5.717V52.091z"/>
	<path style="fill:#FFFFFF;" d="M321.312,43.069c-3.168,0-5.745,2.566-5.745,5.719v270.935c0,3.153,2.577,5.719,5.745,5.719
		c3.171,0,5.751-2.566,5.751-5.719V48.788C327.063,45.635,324.483,43.069,321.312,43.069"/>
	<path style="fill:#FFFFFF;" d="M124.441,298.719V73.966c0-1.544-1.264-2.798-2.819-2.798c-0.54,0-1.04,0.158-1.469,0.422v229.505
		c0.429,0.264,0.929,0.422,1.469,0.422C123.177,301.517,124.441,300.263,124.441,298.719"/>
	<path style="fill:#FFFFFF;" d="M47.884,300.368V71.219c-0.429-0.243-0.929-0.39-1.469-0.39c-1.554,0-2.817,1.163-2.817,2.592
		v224.744c0,1.43,1.263,2.593,2.817,2.593C46.955,300.758,47.455,300.612,47.884,300.368"/>
	<path style="fill:#FFFFFF;" d="M59.606,307.664V64.401c0-1.544-1.263-2.801-2.816-2.801c-1.554,0-2.819,1.257-2.819,2.801v243.263
		c0,1.542,1.265,2.796,2.819,2.796C58.343,310.46,59.606,309.206,59.606,307.664"/>
	<path style="fill:#FFFFFF;" d="M72.57,310.524V61.894c0-1.541-1.261-2.796-2.812-2.796c-1.555,0-2.819,1.255-2.819,2.796v248.63
		c0,1.544,1.264,2.798,2.819,2.798C71.309,313.322,72.57,312.068,72.57,310.524"/>
	<path style="fill:#FFFFFF;" d="M85.538,60.464c0-1.542-1.263-2.796-2.817-2.796c-1.551,0-2.814,1.254-2.814,2.796v251.85
		c0,1.544,1.263,2.798,2.814,2.798c1.554,0,2.817-1.254,2.817-2.798V60.464z"/>
	<path style="fill:#FFFFFF;" d="M101.102,310.883V62.255c0-1.543-1.263-2.798-2.816-2.798c-1.555,0-2.819,1.255-2.819,2.798v248.628
		c0,1.542,1.264,2.796,2.819,2.796C99.839,313.678,101.102,312.424,101.102,310.883"/>
	<path style="fill:#FFFFFF;" d="M114.065,306.943V65.832c0-1.544-1.262-2.8-2.814-2.8c-1.555,0-2.821,1.256-2.821,2.8v241.111
		c0,1.544,1.266,2.798,2.821,2.798C112.803,309.741,114.065,308.487,114.065,306.943"/>
</g>
</svg>
