<?xml version="1.0" encoding="iso-8859-1"?>
<!-- Generator: Adobe Illustrator 25.4.1, SVG Export Plug-In . SVG Version: 6.00 Build 0)  -->
<svg version="1.1" id="Calque_1" xmlns="http://www.w3.org/2000/svg" xmlns:xlink="http://www.w3.org/1999/xlink" x="0px" y="0px"
	 viewBox="0 0 368.5 368.5" style="enable-background:new 0 0 368.5 368.5;" xml:space="preserve">
<polygon style="fill:#FFFFFF;" points="256.55,79.685 256.55,73.54 253.312,73.982 253.312,80.127 "/>
<polygon style="fill:#FFFFFF;" points="231.596,83.098 231.596,76.953 227.379,77.53 227.379,83.674 "/>
<polygon style="fill:#FFFFFF;" points="308.421,72.591 308.421,66.446 306.156,66.755 306.156,72.9 "/>
<polygon style="fill:#FFFFFF;" points="282.486,76.138 282.486,69.993 280.225,70.302 280.225,76.447 "/>
<polygon style="fill:#FFFFFF;" points="163.529,92.407 163.529,86.262 160.591,86.664 160.591,92.807 "/>
<polygon style="fill:#FFFFFF;" points="183.296,89.702 183.296,83.559 181.335,83.827 181.335,89.971 "/>
<polygon style="fill:#FFFFFF;" points="205.66,86.645 205.66,80.5 203.06,80.855 203.06,87 "/>
<polygon style="fill:#FFFFFF;" points="160.591,273.731 160.591,279.87 163.529,280.263 163.529,274.123 "/>
<polygon style="fill:#FFFFFF;" points="253.312,286.108 253.312,292.247 256.55,292.682 256.55,286.54 "/>
<g>
	<path style="fill:#FFFFFF;" d="M133.983,270.18v-53.704l8.799,0.549v-6.099l-8.799-0.547v-56.266l8.799-0.422v-6.094l-8.799,0.422
		V96.448l8.799-1.203V89.1l-8.799,1.203V76.614c0-1.681-1.362-3.044-3.044-3.044c-0.536,0-1.032,0.15-1.469,0.394v0.002v224.753
		c0,0.224-0.05,0.434-0.066,0.654c0.452,0.268,0.973,0.43,1.535,0.43c1.682,0,3.044-1.363,3.044-3.043v-20.441l8.799,1.173v-6.139
		L133.983,270.18z"/>
	<polygon style="fill:#FFFFFF;" points="181.335,276.501 181.335,282.641 183.296,282.902 183.296,276.763 	"/>
	<polygon style="fill:#FFFFFF;" points="306.156,293.163 306.156,299.302 308.421,299.605 308.421,293.466 	"/>
	<polygon style="fill:#FFFFFF;" points="280.225,289.701 280.225,295.842 282.486,296.143 282.486,290.004 	"/>
	<polygon style="fill:#FFFFFF;" points="227.379,282.646 227.379,288.788 231.596,289.35 231.596,283.21 	"/>
	<polygon style="fill:#FFFFFF;" points="203.06,279.401 203.06,285.54 205.66,285.887 205.66,279.748 	"/>
	<polygon style="fill:#FFFFFF;" points="253.312,223.907 256.55,224.109 256.55,218.01 253.312,217.81 	"/>
	<polygon style="fill:#FFFFFF;" points="306.156,227.199 308.421,227.34 308.421,221.24 306.156,221.099 	"/>
	<polygon style="fill:#FFFFFF;" points="280.225,225.584 282.486,225.725 282.486,219.625 280.225,219.484 	"/>
	<polygon style="fill:#FFFFFF;" points="181.335,219.427 183.296,219.548 183.296,213.448 181.335,213.328 	"/>
	<polygon style="fill:#FFFFFF;" points="203.06,220.778 205.66,220.941 205.66,214.841 203.06,214.679 	"/>
	<polygon style="fill:#FFFFFF;" points="160.591,218.135 163.529,218.317 163.529,212.218 160.591,212.035 	"/>
	<polygon style="fill:#FFFFFF;" points="227.379,222.292 231.596,222.556 231.596,216.456 227.379,216.195 	"/>
	<polygon style="fill:#FFFFFF;" points="160.591,152.839 163.529,152.698 163.529,146.605 160.591,146.746 	"/>
	<polygon style="fill:#FFFFFF;" points="253.312,148.396 256.55,148.242 256.55,142.148 253.312,142.303 	"/>
	<polygon style="fill:#FFFFFF;" points="306.156,145.865 308.421,145.756 308.421,139.662 306.156,139.771 	"/>
	<polygon style="fill:#FFFFFF;" points="181.335,151.844 183.296,151.751 183.296,145.657 181.335,145.75 	"/>
	<polygon style="fill:#FFFFFF;" points="203.06,150.803 205.66,150.678 205.66,144.586 203.06,144.71 	"/>
	<polygon style="fill:#FFFFFF;" points="280.225,147.108 282.486,146.999 282.486,140.905 280.225,141.014 	"/>
	<polygon style="fill:#FFFFFF;" points="227.379,149.638 231.596,149.436 231.596,143.342 227.379,143.545 	"/>
	<path style="fill:#FFFFFF;" d="M154.504,73.289c0-1.544-1.263-2.798-2.816-2.798c-1.554,0-2.819,1.254-2.819,2.798v225.788
		c0,1.543,1.265,2.798,2.819,2.798c1.553,0,2.816-1.255,2.816-2.798V73.289z"/>
	<path style="fill:#FFFFFF;" d="M175.247,70.471c0-1.542-1.263-2.796-2.816-2.796c-1.553,0-2.815,1.254-2.815,2.796v231.306
		c0,1.544,1.262,2.798,2.815,2.798c1.553,0,2.816-1.254,2.816-2.798V70.471z"/>
	<path style="fill:#FFFFFF;" d="M196.973,66.801c0-2.079-1.702-3.769-3.795-3.769c-2.092,0-3.795,1.69-3.795,3.769v238.405
		c0,2.078,1.703,3.771,3.795,3.771c2.093,0,3.795-1.693,3.795-3.771V66.801z"/>
	<path style="fill:#FFFFFF;" d="M221.291,63.204c0-2.616-2.14-4.744-4.771-4.744s-4.772,2.128-4.772,4.744V307.71
		c0,2.616,2.141,4.744,4.772,4.744s4.771-2.128,4.771-4.744V63.204z"/>
	<path style="fill:#FFFFFF;" d="M247.225,60.152c0-2.618-2.139-4.746-4.769-4.746c-2.631,0-4.773,2.128-4.773,4.746v250.485
		c0,2.615,2.142,4.742,4.773,4.742c2.63,0,4.769-2.127,4.769-4.742V60.152z"/>
	<path style="fill:#FFFFFF;" d="M274.137,55.981c0-3.153-2.579-5.717-5.749-5.717c-3.17,0-5.75,2.564-5.75,5.717v257.864
		c0,3.155,2.58,5.721,5.75,5.721c3.17,0,5.749-2.566,5.749-5.721V55.981z"/>
	<path style="fill:#FFFFFF;" d="M300.069,52.091c0-3.155-2.579-5.723-5.749-5.723c-3.168,0-5.746,2.568-5.746,5.723v264.471
		c0,3.153,2.578,5.717,5.746,5.717c3.17,0,5.749-2.564,5.749-5.717V52.091z"/>
	<path style="fill:#FFFFFF;" d="M320.253,43.069c-3.168,0-5.745,2.566-5.745,5.719v270.935c0,3.153,2.577,5.719,5.745,5.719
		c3.171,0,5.751-2.566,5.751-5.719V48.788C326.004,45.635,323.424,43.069,320.253,43.069"/>
	<path style="fill:#FFFFFF;" d="M123.382,298.719V73.966c0-1.544-1.264-2.798-2.819-2.798c-0.54,0-1.04,0.158-1.469,0.422v229.505
		c0.429,0.264,0.929,0.422,1.469,0.422C122.118,301.517,123.382,300.263,123.382,298.719"/>
	<path style="fill:#FFFFFF;" d="M46.826,300.368V71.219c-0.429-0.243-0.929-0.39-1.469-0.39c-1.554,0-2.817,1.163-2.817,2.592
		v224.744c0,1.43,1.263,2.593,2.817,2.593C45.897,300.758,46.397,300.612,46.826,300.368"/>
	<path style="fill:#FFFFFF;" d="M58.548,307.664V64.4c0-1.543-1.263-2.8-2.816-2.8c-1.554,0-2.819,1.257-2.819,2.8v243.264
		c0,1.542,1.265,2.796,2.819,2.796C57.285,310.46,58.548,309.206,58.548,307.664"/>
	<path style="fill:#FFFFFF;" d="M71.512,310.524V61.894c0-1.541-1.261-2.796-2.812-2.796c-1.555,0-2.819,1.255-2.819,2.796v248.63
		c0,1.544,1.264,2.798,2.819,2.798C70.251,313.322,71.512,312.068,71.512,310.524"/>
	<path style="fill:#FFFFFF;" d="M84.479,60.464c0-1.542-1.263-2.796-2.817-2.796c-1.551,0-2.814,1.254-2.814,2.796v251.85
		c0,1.544,1.263,2.798,2.814,2.798c1.554,0,2.817-1.254,2.817-2.798V60.464z"/>
	<path style="fill:#FFFFFF;" d="M100.043,310.883V62.255c0-1.543-1.263-2.798-2.816-2.798c-1.555,0-2.819,1.255-2.819,2.798v248.628
		c0,1.542,1.264,2.796,2.819,2.796C98.78,313.678,100.043,312.424,100.043,310.883"/>
	<path style="fill:#FFFFFF;" d="M113.007,306.943V65.832c0-1.544-1.262-2.8-2.814-2.8c-1.555,0-2.821,1.256-2.821,2.8v241.111
		c0,1.544,1.266,2.798,2.821,2.798C111.745,309.741,113.007,308.487,113.007,306.943"/>
</g>
</svg>
