<?xml version="1.0" encoding="iso-8859-1"?>
<!-- Generator: Adobe Illustrator 25.4.1, SVG Export Plug-In . SVG Version: 6.00 Build 0)  -->
<svg version="1.1" id="Calque_1" xmlns="http://www.w3.org/2000/svg" xmlns:xlink="http://www.w3.org/1999/xlink" x="0px" y="0px"
	 viewBox="0 0 368.5 368.5" style="enable-background:new 0 0 368.5 368.5;" xml:space="preserve">
<g>
	<path style="fill:#FFFFFF;" d="M178.427,129.466h9.594l36.166-38.588c0.313-0.335,0.54-0.717,0.695-1.119h-9.241L178.427,129.466z"
		/>
	<path style="fill:#FFFFFF;" d="M194.337,306.784c2.664,10.036,8.352,17.154,14.758,17.154c6.406,0,12.092-7.118,14.757-17.154
		H194.337z"/>
	<path style="fill:#FFFFFF;" d="M121.347,93.917v-33c0.004-2.5,1.086-4.767,2.977-6.509c1.887-1.727,4.553-2.846,7.56-2.846h0.006
		h31.018c3.009-0.001,5.678,1.117,7.568,2.846c1.891,1.742,2.974,4.009,2.976,6.509v11.042h6.999V60.917
		c0.004-4.602-2.057-8.761-5.249-11.672c-3.193-2.923-7.544-4.683-12.294-4.683H131.89c-4.748,0-9.099,1.76-12.293,4.683
		c-3.192,2.911-5.254,7.07-5.252,11.672l0.002,40.511c0.702-0.754,1.417-1.521,2.139-2.295
		C118.085,97.416,119.725,95.656,121.347,93.917"/>
	<path style="fill:#FFFFFF;" d="M265.726,264.769v4.877c0,4.896-3.867,8.878-8.621,8.878c-4.755,0-8.623-3.982-8.623-8.878v-4.877
		h-27.823v4.877c0,4.896-3.869,8.878-8.622,8.878c-4.754,0-8.622-3.982-8.622-8.878v-4.877h-15.314v30.626
		c0,1.585-0.398,3.078-1.095,4.389h90.4c2.42,0,4.388-1.969,4.388-4.389v-30.626H265.726z"/>
	<path style="fill:#FFFFFF;" d="M183.342,299.784c1.087-1.146,1.759-2.689,1.759-4.389v-30.626h-59.905
		c4.124,6.944,6.604,16.184,6.604,26.462c0,2.948-0.21,5.806-0.598,8.553H183.342z"/>
	<path style="fill:#FFFFFF;" d="M187.006,242.684c0.696,1.311,1.095,2.804,1.095,4.389v14.696h15.313v-4.877
		c0-4.895,3.868-8.877,8.622-8.877c4.754,0,8.622,3.982,8.622,8.877v4.877h27.824v-4.877c0-4.895,3.868-8.877,8.623-8.877
		c4.754,0,8.621,3.982,8.621,8.877v4.877h16.068v-14.697c0-2.419-1.969-4.388-4.389-4.388H187.006z"/>
	<path style="fill:#FFFFFF;" d="M185.101,247.072c0-1.7-0.672-3.243-1.758-4.389h-73.541v9.62c5.146,1.166,9.751,4.534,13.404,9.466
		h61.895V247.072z"/>
	<path style="fill:#FFFFFF;" d="M169.724,178.502c0.696,1.311,1.095,2.804,1.095,4.389v14.495h15.25v-5.287
		c0-4.894,3.868-8.877,8.622-8.877s8.622,3.983,8.622,8.877v5.287h29.663v-5.287c0-4.894,3.867-8.877,8.622-8.877
		c4.755,0,8.622,3.983,8.622,8.877v5.287h15.019V182.89c0-2.419-1.969-4.388-4.389-4.388H169.724z"/>
	<path style="fill:#FFFFFF;" d="M109.802,200.386v35.216h56.258c1.087-1.146,1.759-2.689,1.759-4.389v-30.827H109.802z"/>
	<path style="fill:#FFFFFF;" d="M109.802,197.386h58.017V182.89c0-1.699-0.672-3.242-1.758-4.388h-56.259V197.386z"/>
	<path style="fill:#FFFFFF;" d="M250.22,200.386v4.468c0,4.894-3.867,8.877-8.622,8.877s-8.622-3.983-8.622-8.877v-4.468h-29.663
		v4.468c0,4.894-3.868,8.877-8.622,8.877s-8.622-3.983-8.622-8.877v-4.468h-15.25v30.827c0,1.585-0.399,3.078-1.095,4.389h91.126
		c2.42,0,4.388-1.969,4.388-4.389v-30.827H250.22z"/>
	<path style="fill:#FFFFFF;" d="M109.802,170.911h39.388c1.086-1.146,1.757-2.689,1.757-4.389v-30.056h-41.145V170.911z"/>
	<path style="fill:#FFFFFF;" d="M153.948,136.466v30.056c0,1.585-0.398,3.078-1.095,4.389h87.763c2.421,0,4.39-1.969,4.39-4.389
		v-30.056h-12.261v4.086c0,4.895-3.868,8.877-8.622,8.877c-4.754,0-8.622-3.982-8.622-8.877v-4.086h-29.663v4.086
		c0,4.895-3.868,8.877-8.622,8.877c-4.755,0-8.623-3.982-8.623-8.877v-4.086H153.948z"/>
	<path style="fill:#FFFFFF;" d="M177.215,144.429c1.997,0,3.622-1.739,3.622-3.877v-4.086h-7.244v4.086
		C173.593,142.69,175.218,144.429,177.215,144.429"/>
	<path style="fill:#FFFFFF;" d="M224.122,144.429c1.997,0,3.622-1.739,3.622-3.877v-4.086H220.5v4.086
		C220.5,142.69,222.125,144.429,224.122,144.429"/>
	<path style="fill:#FFFFFF;" d="M241.598,188.222c-1.997,0-3.622,1.739-3.622,3.877v12.755c0,2.138,1.625,3.877,3.622,3.877
		c1.997,0,3.622-1.739,3.622-3.877v-12.755C245.22,189.961,243.595,188.222,241.598,188.222"/>
	<path style="fill:#FFFFFF;" d="M194.691,188.222c-1.997,0-3.622,1.739-3.622,3.877v12.755c0,2.138,1.625,3.877,3.622,3.877
		c1.997,0,3.622-1.739,3.622-3.877v-12.755C198.313,189.961,196.688,188.222,194.691,188.222"/>
	<path style="fill:#FFFFFF;" d="M257.105,273.524c1.996,0,3.621-1.739,3.621-3.878v-12.754c0-2.138-1.625-3.877-3.621-3.877
		c-1.998,0-3.623,1.739-3.623,3.877v12.754C253.482,271.785,255.107,273.524,257.105,273.524"/>
	<path style="fill:#FFFFFF;" d="M215.659,256.892c0-2.138-1.625-3.877-3.622-3.877c-1.997,0-3.622,1.739-3.622,3.877v12.755
		c0,2.138,1.625,3.877,3.622,3.877c1.997,0,3.622-1.739,3.622-3.877V256.892z"/>
	<path style="fill:#FFFFFF;" d="M107.964,130.193c0.068-0.096,0.145-0.187,0.227-0.274l42.308-44.385
		c0.471-0.495,1.125-0.775,1.809-0.775h76.527c-0.328-6.345-5.519-7.799-7.375-7.799h-71.291c-3.684,0-7.473,1.763-10.673,4.964
		c-2.063,2.064-11.249,11.921-19.352,20.618c-5.335,5.725-9.942,10.669-11.93,12.761
		C103.573,120.188,106.051,126.709,107.964,130.193"/>
	<path style="fill:#FFFFFF;" d="M124.8,291.231c0-17.553-8.723-32.382-19.048-32.382s-19.047,14.829-19.047,32.382
		c0,17.556,8.722,32.388,19.047,32.388S124.8,308.787,124.8,291.231 M95.166,291.232c0-9.7,4.551-17.015,10.586-17.015
		c6.036,0,10.587,7.315,10.587,17.015c0,9.699-4.551,17.013-10.587,17.013C99.717,308.245,95.166,300.931,95.166,291.232"/>
</g>
</svg>
