<?xml version="1.0" encoding="iso-8859-1"?>
<!-- Generator: Adobe Illustrator 25.4.1, SVG Export Plug-In . SVG Version: 6.00 Build 0)  -->
<svg version="1.1" id="Calque_1" xmlns="http://www.w3.org/2000/svg" xmlns:xlink="http://www.w3.org/1999/xlink" x="0px" y="0px"
	 viewBox="0 0 368.5 368.5" style="enable-background:new 0 0 368.5 368.5;" xml:space="preserve">
<g>
	<path style="fill:#FFFFFF;" d="M64.826,322.584h9.046c-6.37-6.1-10.481-15.624-10.481-26.316V72.076
		c0-10.692,4.111-20.217,10.48-26.317h-9.045c-11.041,0-20.023,11.805-20.023,26.317v224.192
		C44.803,310.779,53.785,322.584,64.826,322.584"/>
	<path style="fill:#FFFFFF;" d="M222.72,45.758H90.414c-11.04,0-20.023,11.806-20.023,26.318v224.192
		c0,14.511,8.983,26.316,20.023,26.316h31.521v-52.107c0-17.973,15.08-32.596,33.617-32.596c18.536,0,33.617,14.623,33.617,32.596
		v52.107h33.551c11.04,0,20.022-11.805,20.022-26.316V72.076C242.742,57.564,233.76,45.758,222.72,45.758 M134.892,190.18
		c-1.112,1.922-3.127,2.997-5.198,2.997c-1.021,0-2.054-0.261-3-0.808c-18.461-10.681-29.929-30.542-29.929-51.831
		c0-21.29,11.468-41.151,29.929-51.833c2.869-1.659,6.539-0.678,8.198,2.189c1.66,2.868,0.679,6.539-2.188,8.198
		c-14.766,8.544-23.939,24.424-23.939,41.446c0,17.02,9.173,32.901,23.939,41.444C135.571,183.642,136.552,187.312,134.892,190.18
		 M148.318,168.305c-1.09,1.995-3.147,3.125-5.271,3.125c-0.972,0-1.958-0.237-2.871-0.736c-11.041-6.033-17.9-17.588-17.9-30.156
		c0-12.569,6.859-24.126,17.9-30.158c2.908-1.59,6.553-0.52,8.142,2.388c1.588,2.909,0.52,6.554-2.388,8.143
		c-7.189,3.927-11.654,11.448-11.654,19.627c0,8.177,4.465,15.697,11.654,19.625C148.838,161.752,149.906,165.398,148.318,168.305
		 M168.905,172.095c-2.234,0-4.378-1.252-5.411-3.399c-1.438-2.986-0.182-6.572,2.803-8.009
		c7.699-3.705,12.673-11.614,12.673-20.149c0-8.537-4.974-16.446-12.672-20.15c-2.985-1.437-4.241-5.023-2.805-8.008
		c1.438-2.986,5.023-4.24,8.009-2.806c11.826,5.691,19.468,17.845,19.468,30.964c0,13.116-7.642,25.269-19.467,30.962
		C170.663,171.904,169.777,172.095,168.905,172.095 M186.551,192.369c-0.946,0.547-1.98,0.808-3,0.808
		c-2.071,0-4.086-1.075-5.198-2.997c-1.66-2.868-0.68-6.539,2.188-8.198c14.767-8.543,23.941-24.424,23.941-41.444
		c0-17.021-9.174-32.902-23.941-41.446c-2.868-1.659-3.848-5.33-2.188-8.198c1.659-2.868,5.33-3.848,8.198-2.189
		c18.462,10.682,29.931,30.543,29.931,51.833C216.482,161.827,205.013,181.687,186.551,192.369"/>
	<path style="fill:#FFFFFF;" d="M276.386,65.523v50.497c-3.478-0.873-7.889-0.073-11.828,2.478
		c-6.311,4.083-9.022,11.105-6.061,15.686c2.967,4.58,10.487,4.985,16.795,0.899c4.496-2.907,7.151-7.31,7.241-11.258
		c0.006-0.082,0.025-0.165,0.025-0.251V65.523c0-1.702-1.381-3.084-3.086-3.084C277.768,62.439,276.386,63.821,276.386,65.523"/>
	<path style="fill:#FFFFFF;" d="M320.611,46.62c-1.705,0-3.087,1.382-3.087,3.084v50.497c-3.477-0.874-7.888-0.073-11.827,2.478
		c-6.311,4.082-9.022,11.105-6.061,15.685c2.967,4.58,10.487,4.986,16.794,0.9c4.497-2.908,7.152-7.31,7.242-11.258
		c0.006-0.083,0.025-0.165,0.025-0.252v-58.05C323.697,48.002,322.316,46.62,320.611,46.62"/>
	<path style="fill:#FFFFFF;" d="M182.169,270.477c0-14.114-11.94-25.597-26.617-25.597s-26.617,11.483-26.617,25.597v52.265h53.234
		V270.477z"/>
</g>
</svg>
