<?xml version="1.0" encoding="iso-8859-1"?>
<!-- Generator: Adobe Illustrator 25.4.1, SVG Export Plug-In . SVG Version: 6.00 Build 0)  -->
<svg version="1.1" id="Calque_1" xmlns="http://www.w3.org/2000/svg" xmlns:xlink="http://www.w3.org/1999/xlink" x="0px" y="0px"
	 viewBox="0 0 368.5 368.5" style="enable-background:new 0 0 368.5 368.5;" xml:space="preserve">
<g>
	<path style="fill:#FFFFFF;" d="M59.942,182.793h71.136l-12.26-42.133c-1.58-5.426-0.952-11.144,1.767-16.099
		c1.768-3.216,4.29-5.848,7.32-7.739c-3.55-9.514,0.175-20.505,9.265-25.726l43.849-25.178v-4.276c0-7.483-6.091-13.57-13.576-13.57
		H60.315c-7.484,0-13.573,6.087-13.573,13.57v108.464c0,6.179,4.177,11.346,9.838,12.981
		C57.678,182.909,58.795,182.793,59.942,182.793"/>
	<path style="fill:#FFFFFF;" d="M180.306,312.406v-54.652l-4.962,1.445c-1.931,0.562-3.923,0.846-5.92,0.846
		c-9.343,0-17.691-6.27-20.303-15.249l-15.836-54.42H59.943c-7.485,0-13.576,6.088-13.576,13.573v108.457
		c0,7.488,6.091,13.578,13.576,13.578h107.128c6.732,0,12.29-4.938,13.351-11.376C180.348,313.882,180.306,313.149,180.306,312.406"
		/>
	<path style="fill:#FFFFFF;" d="M308.591,190.377h-19.666l3.686,12.669c3.256,11.198-3.204,22.964-14.402,26.228l-90.319,26.274
		v56.859c0,7.487,6.087,13.577,13.572,13.577h107.129c7.485,0,13.573-6.09,13.573-13.577V203.95
		C322.164,196.465,316.076,190.377,308.591,190.377"/>
	<path style="fill:#FFFFFF;" d="M212.255,221.845c-3.204,1.842-6.841,2.814-10.516,2.814c-7.562,0-14.6-4.073-18.367-10.63
		l-51.919-90.408c-1.719,1.182-3.185,2.71-4.22,4.592c-1.745,3.177-2.147,6.845-1.133,10.329l30.304,104.136
		c1.675,5.762,7.028,9.784,13.019,9.784c1.279,0,2.558-0.183,3.802-0.546l102.863-29.925c7.184-2.094,11.331-9.643,9.24-16.827
		l-6.302-21.663L212.255,221.845z"/>
	<path style="fill:#FFFFFF;" d="M140.947,97.673c-6.489,3.728-8.735,12.04-5.009,18.528l54.01,94.052
		c2.417,4.209,6.935,6.823,11.791,6.823c2.352,0,4.683-0.625,6.739-1.807l92.902-53.348c6.487-3.726,8.736-12.038,5.009-18.528
		l-54.01-94.057c-2.415-4.204-6.93-6.816-11.786-6.816c-2.355,0-4.685,0.625-6.744,1.807L140.947,97.673z"/>
</g>
</svg>
