<?xml version="1.0" encoding="iso-8859-1"?>
<!-- Generator: Adobe Illustrator 25.4.1, SVG Export Plug-In . SVG Version: 6.00 Build 0)  -->
<svg version="1.1" id="Calque_1" xmlns="http://www.w3.org/2000/svg" xmlns:xlink="http://www.w3.org/1999/xlink" x="0px" y="0px"
	 viewBox="0 0 368.5 368.5" style="enable-background:new 0 0 368.5 368.5;" xml:space="preserve">
<g>
	<path style="fill:#FFFFFF;" d="M89.179,193.258c-0.137,0.427,0.014,0.888,0.375,1.149l44.519,32.272
		c0.18,0.126,0.387,0.194,0.605,0.194h44.443v-34.327H90.155C89.71,192.546,89.317,192.833,89.179,193.258"/>
	<path style="fill:#FFFFFF;" d="M186.199,226.873h41.122c0.445,0,0.838-0.285,0.976-0.712c0.14-0.425-0.012-0.885-0.377-1.153
		l-41.721-30.234V226.873z"/>
	<path style="fill:#FFFFFF;" d="M335.08,232.526H136.412c-0.266,0-0.484,0.219-0.484,0.486v22.174c0,0.27,0.218,0.484,0.484,0.484
		H335.08c0.266,0,0.484-0.214,0.484-0.484v-22.174C335.564,232.745,335.346,232.526,335.08,232.526"/>
	<path style="fill:#FFFFFF;" d="M37.431,153.792c-0.138,0.422,0.012,0.885,0.375,1.147L82.33,187.21
		c0.176,0.126,0.384,0.193,0.602,0.193h45.223v-34.326H38.409C37.963,153.077,37.569,153.365,37.431,153.792"/>
	<path style="fill:#FFFFFF;" d="M135.234,187.404h40.337c0.446,0,0.84-0.283,0.98-0.71c0.136-0.424-0.012-0.888-0.375-1.153
		l-40.942-29.669V187.404z"/>
	<path style="fill:#FFFFFF;" d="M240.46,226.873h44.833v-34.327h-89.357c-0.444,0-0.837,0.287-0.975,0.712s0.012,0.89,0.373,1.151
		l44.521,32.272C240.03,226.804,240.246,226.873,240.46,226.873"/>
	<path style="fill:#FFFFFF;" d="M334.081,226.161c0.135-0.42-0.014-0.888-0.377-1.149l-41.332-29.956v31.817h40.727
		C333.545,226.873,333.939,226.588,334.081,226.161"/>
	<path style="fill:#FFFFFF;" d="M237.436,153.276c-0.18-0.13-0.385-0.199-0.601-0.199l-0.159,34.327h44.677
		c0.45,0,0.844-0.283,0.98-0.707c0.14-0.427-0.01-0.888-0.373-1.152L237.436,153.276z"/>
	<path style="fill:#FFFFFF;" d="M143.214,153.792c-0.135,0.422,0.016,0.885,0.373,1.147l44.523,32.271
		c0.181,0.126,0.387,0.193,0.605,0.193h30.922h0.003l-0.003-34.012c-0.014-0.091-0.04-0.171-0.066-0.249l-75.377-0.065
		C143.746,153.077,143.352,153.365,143.214,153.792"/>
	<path style="fill:#FFFFFF;" d="M129.431,254.242c0.168-0.083,0.27-0.251,0.27-0.435v-22.175c0-0.149-0.073-0.298-0.192-0.386
		l-93.623-70.322c-0.084-0.064-0.186-0.097-0.29-0.097c-0.074,0-0.152,0.017-0.225,0.054c-0.16,0.081-0.261,0.243-0.261,0.428
		v22.177c0,0.152,0.071,0.295,0.192,0.385l93.623,70.324C129.061,254.302,129.279,254.316,129.431,254.242"/>
	<path style="fill:#FFFFFF;" d="M192.485,132.589c0,8.934,5.52,14.267,14.765,14.267h9.829c5.672,0,7.395,4.087,7.51,6.247
		l0.004,34.301h7.13v-42.642c0.32-4.291,2.219-6.619,5.35-6.619h3.978c9.51,0,19.617-6.199,19.617-17.689v-7.614h-17.35
		c-8.967,0-16.937,8.067-17.768,17.979c-0.029,0.348-0.261,0.647-0.591,0.764c-0.333,0.111-0.698,0.023-0.935-0.231
		c-3.891-4.139-10.292-6.024-14.593-6.024h-16.946V132.589z"/>
</g>
</svg>
