<?xml version="1.0" encoding="iso-8859-1"?>
<!-- Generator: Adobe Illustrator 25.4.1, SVG Export Plug-In . SVG Version: 6.00 Build 0)  -->
<svg version="1.1" id="Calque_1" xmlns="http://www.w3.org/2000/svg" xmlns:xlink="http://www.w3.org/1999/xlink" x="0px" y="0px"
	 viewBox="0 0 368.5 368.5" style="enable-background:new 0 0 368.5 368.5;" xml:space="preserve">
<g>
	<path style="fill:#FFFFFF;" d="M60.226,283.934h80.385c0-0.037,0-0.073,0-0.11v-0.14c0-0.379,0.091-0.733,0.241-1.055
		c0.072-0.189,0.155-0.377,0.261-0.56l16.925-29.313c1.346-2.335,5.217-3.51,8.858-4.027v-71.467
		c0-5.668-4.596-10.266-10.266-10.266H60.226c-5.67,0-10.267,4.598-10.267,10.266v96.404
		C49.959,279.336,54.556,283.934,60.226,283.934"/>
	<path style="fill:#FFFFFF;" d="M279.868,252.758l9.147,15.842v-91.338c0-5.668-4.597-10.267-10.267-10.267h-96.403
		c-5.671,0-10.268,4.599-10.268,10.267v71.121h94.167C270.367,248.383,277.876,249.305,279.868,252.758"/>
	<path style="fill:#FFFFFF;" d="M60.226,160.706h96.404c5.67,0,10.266-4.598,10.266-10.268V54.034
		c0-5.67-4.596-10.267-10.266-10.267H60.226c-5.67,0-10.267,4.597-10.267,10.267v96.404
		C49.959,156.108,54.556,160.706,60.226,160.706"/>
	<path style="fill:#FFFFFF;" d="M315.303,308.977l-131.98,4.215c-0.33,0.012-0.658,0.017-0.983,0.017
		c-1.722,0-10.395-0.216-12.057-4.475l-1.974-5.06h-1.078l7.638,19.583c0.659,0.537,3.708,1.613,8.294,1.462l131.98-4.216
		c1.707-0.054,2.779-0.26,3.363-0.434V309.02c0-0.122,0.019-0.238,0.035-0.356C317.599,308.834,316.522,308.939,315.303,308.977"/>
	<path style="fill:#FFFFFF;" d="M297.292,298.696c0,0.059-0.002,0.117-0.006,0.176c-0.216,3.053-4.048,4.803-10.514,4.803H173.676
		l1.194,3.06c0.644,0.533,3.392,1.474,7.469,1.474c0.273,0,0.548-0.005,0.824-0.013l131.98-4.215
		c0.494-0.016,0.933-0.045,1.325-0.082l-19.176-12.356V298.696z"/>
	<path style="fill:#FFFFFF;" d="M266.244,253.383H171.66c-4.89,0-8.628,1.248-9.332,1.941l-16.176,28.016
		c0.055,0.018,0.101,0.034,0.16,0.051c0.015,0.004,0.03,0.009,0.044,0.013c0.145,0.041,0.304,0.081,0.476,0.12
		c0.019,0.005,0.037,0.009,0.057,0.013c0.377,0.084,0.818,0.162,1.322,0.228c0.055,0.007,0.116,0.014,0.174,0.02
		c0.19,0.023,0.389,0.043,0.597,0.062c0.087,0.008,0.176,0.015,0.266,0.022c0.201,0.015,0.411,0.028,0.627,0.037
		c0.094,0.005,0.184,0.011,0.28,0.014c0.312,0.012,0.635,0.02,0.977,0.02h135.64c0.355,0,0.689-0.009,1.012-0.022
		c0.099-0.003,0.193-0.009,0.29-0.014c0.227-0.011,0.446-0.025,0.657-0.041c0.088-0.007,0.177-0.014,0.262-0.022
		c0.252-0.022,0.493-0.049,0.719-0.078c0.024-0.003,0.051-0.006,0.075-0.009c0.246-0.033,0.473-0.07,0.688-0.108
		c0.068-0.013,0.13-0.025,0.195-0.037c0.147-0.029,0.287-0.058,0.418-0.089c0.06-0.014,0.121-0.028,0.177-0.041
		c0.141-0.035,0.271-0.071,0.391-0.106c0.028-0.009,0.06-0.016,0.087-0.025c0.004-0.001,0.007-0.002,0.011-0.004l-16.178-28.02
		C274.872,254.632,271.134,253.383,266.244,253.383"/>
	<path style="fill:#FFFFFF;" d="M286.772,298.674c2.915,0,4.747-0.451,5.52-0.791v-9.502c-1.527,0.367-3.379,0.559-5.52,0.559
		h-135.64c-1.484,0-3.586-0.103-5.521-0.565v9.508c0.773,0.34,2.605,0.791,5.521,0.791H286.772z"/>
</g>
</svg>
