<?xml version="1.0" encoding="iso-8859-1"?>
<!-- Generator: Adobe Illustrator 25.4.1, SVG Export Plug-In . SVG Version: 6.00 Build 0)  -->
<svg version="1.1" id="Calque_1" xmlns="http://www.w3.org/2000/svg" xmlns:xlink="http://www.w3.org/1999/xlink" x="0px" y="0px"
	 viewBox="0 0 368.5 368.5" style="enable-background:new 0 0 368.5 368.5;" xml:space="preserve">
<polygon style="fill:#FFFFFF;" points="84.231,151.555 46.906,94.013 45.455,96.925 82.709,154.358 "/>
<g>
	<path style="fill:#FFFFFF;" d="M154.077,154.003l-0.664-0.777h-64.4l-1.735,3.195h68.178l0.329-0.729
		C155.182,155.171,154.602,154.619,154.077,154.003"/>
	<path style="fill:#FFFFFF;" d="M132.442,111.571l-13.089-20.18H51.166l36.866,56.834h61.112l-15.287-17.906
		c-2.764-3.235-4.101-7.354-3.766-11.596C130.295,116.142,131.11,113.708,132.442,111.571"/>
	<path style="fill:#FFFFFF;" d="M220.012,206.559h2.761l-44.68-52.334c-0.482,0.542-0.99,1.067-1.558,1.552
		c-0.631,0.539-1.306,1.014-2.006,1.445l42.119,49.337H220.012z"/>
	<path style="fill:#FFFFFF;" d="M166.198,153.591c2.357,0,4.645-0.844,6.441-2.377c4.163-3.555,4.659-9.835,1.104-14l-20.22-23.684
		c-1.89-2.212-4.645-3.482-7.558-3.482c-2.358,0-4.644,0.844-6.44,2.377c-2.017,1.723-3.244,4.127-3.452,6.771
		c-0.209,2.644,0.625,5.211,2.347,7.229l20.22,23.684C160.53,152.322,163.285,153.591,166.198,153.591"/>
	<path style="fill:#FFFFFF;" d="M191.733,250.859c-0.259,0.495-0.771,0.806-1.33,0.806h-19.472c-1.707,0-3.095,1.389-3.095,3.097
		c0,1.706,1.388,3.094,3.095,3.094h48.897c1.707,0,3.095-1.388,3.095-3.094c0-1.708-1.388-3.097-3.095-3.097h-19.06
		c-0.524,0-1.011-0.274-1.283-0.723c-0.272-0.447-0.289-1.006-0.047-1.471l3.731-7.148h-6.982L191.733,250.859z"/>
	<rect x="72.971" y="221.206" style="fill:#FFFFFF;" width="12.076" height="6.631"/>
	<path style="fill:#FFFFFF;" d="M270.36,209.722c-0.266,0-0.527,0.023-0.784,0.056c2.051,1.431,3.778,3.285,5.079,5.428h1.849
		C276.153,212.125,273.533,209.722,270.36,209.722"/>
	<path style="fill:#FFFFFF;" d="M274.559,233.837c-2.337,3.764-6.022,6.593-10.385,7.812v24.657h12.373v-32.469H274.559z"/>
	<path style="fill:#FFFFFF;" d="M309.523,224.52c0,4.997-3.957,9.075-8.9,9.295v32.49h12.373v-50.395
		c0-3.412-2.776-6.189-6.187-6.189c-3.181,0-5.807,2.415-6.146,5.508C305.587,215.469,309.523,219.538,309.523,224.52"/>
	<path style="fill:#FFFFFF;" d="M66.97,266.306V215.91c0-3.412-2.775-6.188-6.186-6.188s-6.187,2.776-6.187,6.188v50.396H66.97z
		 M59.074,219.804c1.923,0,3.215,2.052,3.215,5.105c0,3.055-1.292,5.108-3.215,5.108c-1.924,0-3.216-2.053-3.216-5.108
		C55.858,221.856,57.15,219.804,59.074,219.804"/>
	<path style="fill:#FFFFFF;" d="M276.945,221.206c0.193,1.052,0.309,2.131,0.309,3.236c0,1.162-0.121,2.295-0.333,3.395h23.286
		c1.829,0,3.316-1.487,3.316-3.317c0-1.827-1.487-3.314-3.316-3.314H276.945z"/>
	<path style="fill:#FFFFFF;" d="M241.362,224.442c0,4.562-1.732,8.718-4.555,11.881h22.566c6.55,0,11.881-5.33,11.881-11.881
		c0-6.552-5.331-11.883-11.881-11.883h-22.567C239.63,215.723,241.362,219.88,241.362,224.442"/>
	<path style="fill:#FFFFFF;" d="M176.662,215.206h38.571c5.137,0,9.316,4.179,9.316,9.314c0,5.137-4.179,9.317-9.316,9.317h-38.358
		c2.009,1.552,4.517,2.486,7.246,2.486h35.891h3.469c6.551,0,11.881-5.33,11.881-11.881s-5.33-11.882-11.881-11.882h-3.469h-35.891
		C181.297,212.56,178.703,213.555,176.662,215.206"/>
	<path style="fill:#FFFFFF;" d="M109.421,221.206v6.631h9.353h96.46c1.828,0,3.315-1.487,3.315-3.317
		c0-1.827-1.487-3.314-3.315-3.314h-96.46H109.421z"/>
	<path style="fill:#FFFFFF;" d="M91.047,266.305h12.374V215.91c0-3.412-2.776-6.189-6.188-6.189c-3.411,0-6.186,2.777-6.186,6.189
		V266.305z M92.319,224.909c0-3.054,1.292-5.105,3.216-5.105c1.924,0,3.216,2.051,3.216,5.105c0,3.055-1.292,5.107-3.216,5.107
		C93.611,230.016,92.319,227.964,92.319,224.909"/>
	<rect x="47.134" y="272.306" style="fill:#FFFFFF;" width="275.911" height="16.393"/>
	<polygon style="fill:#FFFFFF;" points="244.981,99.214 242.596,94.897 203.609,149.253 206.178,153.312 	"/>
	<polygon style="fill:#FFFFFF;" points="247.167,92.829 249.569,97.179 321.684,97.179 319.511,92.829 	"/>
	<polygon style="fill:#FFFFFF;" points="320.869,102.179 249.007,102.179 210.392,156.015 282.254,156.015 	"/>
	<path style="fill:#FFFFFF;" d="M158.509,104.208c2.524,0.254,4.776-1.586,5.03-4.112l1.529-15.241
		c0.252-2.526-1.59-4.778-4.115-5.03c-2.524-0.254-4.776,1.588-5.03,4.113l-1.527,15.241
		C154.142,101.702,155.983,103.956,158.509,104.208"/>
	<path style="fill:#FFFFFF;" d="M196.591,124.15c1.17,0.117,2.385-0.213,3.367-1.016l11.858-9.695
		c1.963-1.608,2.254-4.502,0.648-6.465c-1.606-1.968-4.501-2.259-6.466-0.649l-11.858,9.694c-1.963,1.607-2.254,4.503-0.648,6.466
		C194.295,123.468,195.42,124.031,196.591,124.15"/>
	<path style="fill:#FFFFFF;" d="M178.275,110.419c0.511,0.254,1.045,0.402,1.581,0.455c1.849,0.188,3.703-0.767,4.578-2.53
		l6.8-13.726c1.125-2.272,0.196-5.03-2.077-6.156c-2.273-1.129-5.03-0.198-6.155,2.076l-6.802,13.724
		C175.074,106.534,176.002,109.292,178.275,110.419"/>
</g>
</svg>
