<?xml version="1.0" encoding="iso-8859-1"?>
<!-- Generator: Adobe Illustrator 25.4.1, SVG Export Plug-In . SVG Version: 6.00 Build 0)  -->
<svg version="1.1" id="Calque_1" xmlns="http://www.w3.org/2000/svg" xmlns:xlink="http://www.w3.org/1999/xlink" x="0px" y="0px"
	 viewBox="0 0 368.5 368.5" style="enable-background:new 0 0 368.5 368.5;" xml:space="preserve">
<g>
	<path style="fill:#FFFFFF;" d="M174.911,244.651c-1.014-1.013-1.963-2.051-2.861-3.103l-15.35,15.35
		c-1.568,1.56-3.644,2.418-5.851,2.418c-2.208,0-4.284-0.858-5.846-2.416l-8.742-8.742c-0.795-0.794-1.852-1.232-2.977-1.232
		c-1.123,0-2.18,0.438-2.973,1.232c-0.795,0.794-1.232,1.85-1.232,2.973c0,1.123,0.439,2.18,1.234,2.975l8.739,8.74
		c3.152,3.151,7.343,4.886,11.798,4.886c4.454,0,8.643-1.735,11.797-4.886l15.346-15.347
		C176.941,246.602,175.911,245.652,174.911,244.651"/>
	<path style="fill:#FFFFFF;" d="M177.789,206.902c-3.543,0-6.484,1.067-8.504,3.087c-6.336,6.337-2.465,20.916,8.453,31.834
		c1.446,1.445,2.969,2.773,4.535,3.981l8.311-8.311c-0.115,0.005-0.229,0.016-0.344,0.016c-2.191,0-4.25-0.853-5.801-2.403
		c-1.55-1.549-2.404-3.609-2.404-5.802c0-2.191,0.854-4.252,2.402-5.802l2.549-2.547c-2.974-4.564-4.328-9.334-3.853-13.338
		C181.291,207.154,179.492,206.902,177.789,206.902"/>
	<path style="fill:#FFFFFF;" d="M195.602,229.89c-1.492-1.054-2.939-2.267-4.301-3.628c-0.676-0.676-1.297-1.371-1.892-2.073
		l-2.143,2.141c-0.793,0.795-1.23,1.851-1.23,2.974s0.437,2.179,1.232,2.973c0.795,0.795,1.85,1.232,2.973,1.232
		s2.179-0.437,2.974-1.232L195.602,229.89z"/>
	<path style="fill:#FFFFFF;" d="M189.127,276.896c4.355,4.355,9.334,8.407,14.801,12.043c14.095,9.375,26.556,14.624,28.91,15.582
		c0.01,0.003,0.096,0.039,0.105,0.043c0.551,0.217,1.176,0.337,1.809,0.337c1.326,0,2.625-0.539,3.564-1.477
		c0.487-0.485,0.862-1.058,1.118-1.703c1.013-2.559-0.229-5.467-2.768-6.513c-0.037-0.012-0.09-0.033-0.164-0.063
		c-0.523-0.209-12.996-5.257-27-14.585c-4.914-3.269-9.375-6.896-13.258-10.781c-0.119-0.12-0.23-0.234-0.346-0.352l-7.117,7.117
		C188.897,276.663,189.008,276.777,189.127,276.896"/>
	<path style="fill:#FFFFFF;" d="M194.129,223.433c1.844,1.844,3.881,3.389,5.951,4.563l12.371-12.37
		c-1.176-2.072-2.713-4.095-4.564-5.949c-4.373-4.372-9.83-7.088-14.244-7.088c-1.424,0-3.424,0.302-4.862,1.739
		C185.053,208.056,187.502,216.805,194.129,223.433"/>
	<path style="fill:#FFFFFF;" d="M202.358,257.312c-0.424,0.026-0.848,0.052-1.285,0.052c-3.928,0-8.19-1.045-12.457-3.006
		l-21.358,21.357c-1.043,1.044-1.652,2.438-1.714,3.926c-0.006,0.15-0.03,0.299-0.069,0.443c-0.242,0.882-0.238,1.807,0.006,2.676
		c0.006,0.023,0.014,0.046,0.018,0.069c0.494,1.658,4.218,13.237,15.58,26.937c3.463,4.174,7.238,8.31,11.22,12.295
		c6.549,6.549,11.506,10.528,12.049,10.961c1.971,1.555,4.932,1.367,6.68-0.381c0.148-0.146,0.275-0.289,0.396-0.442
		c0.836-1.059,1.207-2.376,1.051-3.71c-0.158-1.33-0.822-2.52-1.869-3.353c-0.012-0.009-0.078-0.06-0.211-0.169
		c-0.814-0.659-5.256-4.3-10.978-10.024c-3.754-3.752-7.319-7.656-10.594-11.604c-5.578-6.723-9.027-12.806-10.94-16.727
		c-0.365-0.747-0.673-1.422-0.955-2.059c-0.336-0.756-0.172-1.639,0.414-2.224L202.358,257.312z"/>
	<path style="fill:#FFFFFF;" d="M286.6,173.069c-0.424,0.026-0.85,0.053-1.287,0.053c-5.826-0.001-12.303-2.281-18.379-6.321
		l-81.348,81.347c5.248,3.335,10.791,5.216,15.487,5.216c3.543,0,6.482-1.067,8.502-3.087c0.32-0.32,0.627-0.678,0.91-1.061
		c0.06-0.08,0.125-0.156,0.195-0.226L286.6,173.069z"/>
	<path style="fill:#FFFFFF;" d="M285.313,169.122c3.543,0,6.484-1.068,8.506-3.089c6.334-6.336,2.463-20.914-8.455-31.833
		c-6.893-6.892-15.492-11.256-22.631-11.523l18.215,18.215c3.117,3.118,3.117,8.191,0,11.31c-1.512,1.511-3.522,2.342-5.657,2.342
		c-2.136,0-4.144-0.832-5.654-2.342l-19.154-19.153c-0.539,7.304,3.828,16.859,11.5,24.531
		C269.104,164.698,278.043,169.121,285.313,169.122"/>
	<path style="fill:#FFFFFF;" d="M103.545,205.464c1.629,0,2.855-0.406,3.648-1.204l92.813-93.652
		c-0.063-0.009-0.129-0.024-0.192-0.034c-0.175-0.027-0.355-0.061-0.533-0.092c-0.267-0.049-0.535-0.1-0.806-0.159
		c-0.186-0.041-0.375-0.087-0.563-0.133c-0.269-0.067-0.541-0.138-0.814-0.215c-0.194-0.055-0.385-0.111-0.58-0.171
		c-0.278-0.086-0.559-0.179-0.84-0.276c-0.192-0.065-0.381-0.13-0.572-0.201c-0.299-0.109-0.6-0.227-0.901-0.348
		c-0.178-0.073-0.357-0.141-0.537-0.217c-0.344-0.146-0.687-0.302-1.035-0.462c-0.139-0.065-0.279-0.124-0.42-0.191
		c-0.49-0.234-0.982-0.48-1.477-0.743c-0.045-0.023-0.089-0.05-0.132-0.073c-0.45-0.239-0.899-0.49-1.35-0.752
		c-0.162-0.094-0.322-0.195-0.484-0.292c-0.336-0.2-0.67-0.402-1.006-0.615c-0.19-0.12-0.377-0.245-0.567-0.369
		c-0.31-0.201-0.619-0.407-0.929-0.618c-0.2-0.137-0.397-0.277-0.596-0.417c-0.301-0.212-0.6-0.428-0.9-0.65
		c-0.202-0.148-0.403-0.299-0.604-0.451c-0.299-0.227-0.596-0.459-0.893-0.694c-0.197-0.157-0.396-0.314-0.593-0.475
		c-0.305-0.248-0.608-0.502-0.909-0.759c-0.187-0.158-0.373-0.314-0.558-0.475c-0.33-0.286-0.656-0.582-0.983-0.879
		c-0.156-0.141-0.312-0.279-0.466-0.422c-0.479-0.444-0.953-0.898-1.424-1.364c-5.32-5.273-9.389-11.227-11.457-16.765
		c-0.151-0.403-0.289-0.802-0.416-1.196c-0.045-0.135-0.08-0.266-0.121-0.4c-0.078-0.257-0.157-0.513-0.227-0.765
		c-0.043-0.16-0.078-0.316-0.117-0.474c-0.057-0.221-0.111-0.442-0.158-0.66c-0.037-0.168-0.069-0.334-0.1-0.5
		c-0.039-0.2-0.078-0.4-0.109-0.598c-0.01-0.063-0.026-0.128-0.035-0.19l-92.813,93.65c-3.265,3.297,0.438,14.276,10.283,24.031
		C89.979,201.04,98.016,205.464,103.545,205.464"/>
	<path style="fill:#FFFFFF;" d="M171.582,70.479c-1.547,1.56-1.553,4.95-0.014,9.068c1.821,4.874,5.477,10.188,10.293,14.963
		c6.045,5.99,12.953,10.125,18.291,11.066c0.762,0.134,1.492,0.204,2.184,0.204c1.629,0,2.857-0.406,3.65-1.205
		c1.545-1.561,1.551-4.951,0.012-9.069c-0.703-1.884-1.689-3.837-2.902-5.797l-2.233,2.436c-1.238,1.251-2.91,1.874-4.902,1.874
		c-3.02,0-6.727-1.5-8.815-3.568c-1.482-1.47-2.755-3.861-3.322-6.237c-0.736-3.092-0.226-5.719,1.436-7.396l2.773-2.586
		c-4.658-3.123-9.248-4.958-12.801-4.958C173.602,69.274,172.375,69.68,171.582,70.479"/>
	<path style="fill:#FFFFFF;" d="M188.741,80.407c-0.229,0.233-0.395,1.212-0.051,2.648c0.35,1.475,1.147,3.02,1.977,3.845
		c1.033,1.024,3.408,2.12,5.295,2.12c0.601,0,1.084-0.121,1.283-0.325l44.406-48.459c2.141-2.921,0.736-4.311,0.135-4.909
		c-1.315-1.303-3.08-1.165-4.912,0.183L188.741,80.407z"/>
	<path style="fill:#FFFFFF;" d="M199.247,176.232c-0.258,2.765,1.775,5.217,4.541,5.474l17.869,1.67
		c0.152,0.013,0.307,0.022,0.459,0.022c1.166,0,2.318-0.41,3.219-1.157c1.021-0.847,1.676-2.087,1.799-3.406l1.658-17.763
		c0.258-2.768-1.775-5.22-4.541-5.478c-2.764-0.259-5.217,1.774-5.475,4.542l-0.416,4.448c-1.154-1.464-2.506-2.957-4.119-4.404
		c-7.064-6.229-14.758-8.512-15.121-8.649c-2.656-0.812-5.467,0.683-6.279,3.341c-0.813,2.659,0.685,5.47,3.342,6.282l0.011,0.002
		c0.449,0.12,6.569,2.242,11.36,6.543c1.685,1.497,3.004,3.115,4.019,4.629l-6.847-0.639
		C201.96,171.432,199.507,173.464,199.247,176.232"/>
</g>
</svg>
