<?xml version="1.0" encoding="utf-8"?>
<!-- Generator: Adobe Illustrator 25.4.0, SVG Export Plug-In . SVG Version: 6.00 Build 0)  -->
<svg version="1.1" id="Calque_1" xmlns="http://www.w3.org/2000/svg" xmlns:xlink="http://www.w3.org/1999/xlink" x="0px" y="0px"
	 viewBox="0 0 368.5 368.5" style="enable-background:new 0 0 368.5 368.5;" xml:space="preserve">
<style type="text/css">
	.st0{fill:#5B5A5E;}
	.st1{clip-path:url(#SVGID_00000164473741200961447910000009310105196517265328_);fill:#FFFFFF;}
	.st2{clip-path:url(#SVGID_00000164473741200961447910000009310105196517265328_);fill:#5B5A5E;}
</style>
<rect class="st0" width="368.5" height="368.5"/>
<rect x="1.07" class="st0" width="367.43" height="368.5"/>
<g>
	<defs>
		<rect id="SVGID_1_" width="368.5" height="368.5"/>
	</defs>
	<clipPath id="SVGID_00000040569179045064406290000000786732017291796100_">
		<use xlink:href="#SVGID_1_"  style="overflow:visible;"/>
	</clipPath>
	<path style="clip-path:url(#SVGID_00000040569179045064406290000000786732017291796100_);fill:#FFFFFF;" d="M219.35,248.26V53.12
		c0-5.19,4.21-9.39,9.4-9.39c5.19,0,9.39,4.21,9.39,9.39v195.14c0,5.19-4.21,9.4-9.39,9.4
		C223.55,257.66,219.35,253.45,219.35,248.26"/>
	<path style="clip-path:url(#SVGID_00000040569179045064406290000000786732017291796100_);fill:#5B5A5E;" d="M228.74,260.16
		c-6.56,0-11.9-5.34-11.9-11.9V53.12c0-6.56,5.34-11.9,11.9-11.9c6.56,0,11.89,5.34,11.89,11.9v195.14
		C240.63,254.82,235.3,260.16,228.74,260.16z M228.74,46.23c-3.8,0-6.9,3.09-6.9,6.9v195.14c0,3.8,3.09,6.9,6.9,6.9
		c3.8,0,6.89-3.09,6.89-6.9V53.12C235.63,49.32,232.54,46.23,228.74,46.23z"/>
	<path style="clip-path:url(#SVGID_00000040569179045064406290000000786732017291796100_);fill:#FFFFFF;" d="M313.33,99.17
		L236.76,68.9c-3.78-1.49-5.63-5.76-4.14-9.54c1.49-3.78,5.76-5.62,9.54-4.13l76.57,30.27c3.77,1.49,5.63,5.76,4.13,9.54
		c-1.14,2.89-3.91,4.65-6.84,4.65C315.14,99.69,314.22,99.52,313.33,99.17"/>
	<path style="clip-path:url(#SVGID_00000040569179045064406290000000786732017291796100_);fill:#5B5A5E;" d="M316.03,102.19
		c-1.24,0-2.46-0.23-3.62-0.69l-76.57-30.27c-5.05-2-7.54-7.73-5.54-12.78c0.97-2.45,2.83-4.37,5.25-5.42
		c2.41-1.05,5.09-1.09,7.54-0.12l76.57,30.27c2.45,0.97,4.37,2.83,5.42,5.24c1.05,2.41,1.09,5.09,0.12,7.54
		C323.7,99.74,320.1,102.19,316.03,102.19z M239.46,57.21c-0.66,0-1.31,0.13-1.93,0.4c-1.19,0.52-2.11,1.46-2.58,2.67
		c-0.98,2.49,0.24,5.31,2.73,6.29l76.57,30.27c0,0,0,0,0,0c0.57,0.23,1.17,0.34,1.78,0.34c2,0,3.78-1.21,4.51-3.07
		c0.48-1.2,0.46-2.52-0.06-3.71c-0.51-1.19-1.46-2.11-2.67-2.58l-76.57-30.27C240.67,57.32,240.06,57.21,239.46,57.21z"/>
	<path style="clip-path:url(#SVGID_00000040569179045064406290000000786732017291796100_);fill:#FFFFFF;" d="M71.5,274.08
		L71.5,274.08l-3.14-1.74l-0.5-0.3c-0.64-0.43-1.96-0.9-3.62-0.89c-0.79,0-1.65,0.1-2.53,0.32c-5.03,1.26-10.14-1.79-11.4-6.82
		c-1.27-5.03,1.79-10.14,6.82-11.4c2.38-0.6,4.76-0.89,7.11-0.89c4.78,0.01,9.42,1.18,13.46,3.67l2.93,1.63l0.16,0.09
		c0.68,0.41,1.94,0.81,3.48,0.8c0.79,0,1.65-0.1,2.54-0.32c2.76-0.66,4.64-2.38,5.16-3.41l0.47-0.75l2.04-2.96
		c3.63-5.63,9.42-9.58,16.3-11.33c2.38-0.6,4.77-0.89,7.11-0.89c4.77,0.01,9.4,1.18,13.43,3.65l2.95,1.64l0.17,0.09
		c0.67,0.41,1.93,0.81,3.48,0.8c0.79,0,1.65-0.1,2.54-0.32c2.76-0.66,4.64-2.38,5.16-3.41l0.18-0.3l1.84-3.03
		c3.61-5.8,9.49-9.85,16.5-11.64c2.38-0.6,4.76-0.89,7.11-0.89c4.78,0.01,9.42,1.18,13.46,3.67l2.93,1.63l0.16,0.09
		c0.68,0.4,1.94,0.81,3.48,0.8c0.78,0,1.65-0.1,2.54-0.32c2.76-0.66,4.64-2.38,5.15-3.4l0.09-0.16l1.73-2.97l0.11-0.18
		c3.61-5.8,9.49-9.85,16.5-11.64c5.03-1.26,10.13,1.79,11.4,6.82c1.26,5.03-1.79,10.13-6.82,11.4c-2.55,0.61-4.35,2.12-5.01,3.16
		l-1.69,2.89c-3.56,6.16-9.62,10.45-16.9,12.31c-2.37,0.59-4.75,0.89-7.1,0.89c-4.52-0.01-8.9-1.06-12.78-3.27l-3.13-1.74l-0.5-0.3
		c-0.65-0.43-1.96-0.9-3.62-0.89c-0.79,0-1.64,0.1-2.53,0.32c-2.64,0.63-4.48,2.22-5.05,3.23l-1.74,2.86
		c-3.56,6.15-9.62,10.43-16.89,12.29c-2.37,0.59-4.76,0.88-7.11,0.89c-4.53-0.01-8.92-1.07-12.81-3.28l-3.1-1.72l-0.5-0.3
		c-0.65-0.43-1.97-0.9-3.62-0.89c-0.79,0-1.64,0.1-2.54,0.32c-2.64,0.64-4.47,2.22-5.08,3.27l-0.27,0.41l-1.93,2.79
		c-3.58,5.99-9.56,10.15-16.71,11.98c-2.37,0.59-4.76,0.88-7.11,0.89C79.75,277.33,75.37,276.28,71.5,274.08"/>
	<path style="clip-path:url(#SVGID_00000040569179045064406290000000786732017291796100_);fill:#5B5A5E;" d="M84.26,279.84
		c-5.08-0.01-9.76-1.2-13.91-3.53c-0.03-0.01-0.05-0.03-0.08-0.04l-3.71-2.09c-0.03-0.02-0.07-0.04-0.1-0.06
		c-0.15-0.1-0.96-0.47-2.19-0.47c-0.64,0.01-1.3,0.08-1.96,0.25c-3.09,0.77-6.28,0.3-9.01-1.33c-2.73-1.63-4.65-4.23-5.43-7.31
		c-0.77-3.08-0.3-6.28,1.33-9s4.23-4.65,7.31-5.43c2.55-0.64,5.14-0.96,7.72-0.96c5.36,0.01,10.45,1.4,14.72,4.01l3.05,1.7
		c0.27,0.16,1.11,0.48,2.24,0.48c0.63,0,1.28-0.08,1.95-0.25c2.07-0.49,3.33-1.74,3.53-2.12c0.02-0.04,0.08-0.15,0.11-0.19
		l0.47-0.75c0.02-0.03,0.04-0.07,0.06-0.1l2.04-2.96c3.87-6,10.18-10.41,17.74-12.33c2.55-0.64,5.15-0.97,7.73-0.97
		c5.35,0.01,10.43,1.39,14.69,3.99l3.07,1.71c0.28,0.17,1.07,0.49,2.22,0.49c0.59,0,1.32-0.08,1.97-0.25
		c2.07-0.49,3.33-1.74,3.53-2.11c0.01-0.02,0.06-0.11,0.07-0.13l0.18-0.3l1.86-3.06c3.91-6.27,10.3-10.79,18.01-12.76
		c2.56-0.64,5.15-0.97,7.73-0.97c5.37,0.01,10.45,1.4,14.72,4.01l3.08,1.71c0.29,0.17,1.14,0.46,2.22,0.47
		c0.68,0.01,1.28-0.08,1.94-0.25c2.07-0.5,3.33-1.74,3.54-2.11c0.01-0.02,0.06-0.11,0.08-0.14l1.96-3.35
		c3.9-6.26,10.3-10.79,18.01-12.75c3.09-0.78,6.29-0.3,9.01,1.33c2.73,1.63,4.65,4.23,5.42,7.31c0.77,3.08,0.3,6.28-1.33,9
		c-1.63,2.73-4.23,4.65-7.31,5.43c-1.96,0.47-3.21,1.6-3.51,2.07l-1.64,2.82c-3.82,6.62-10.37,11.41-18.44,13.47
		c-2.56,0.64-5.16,0.96-7.72,0.96c-5.05-0.01-9.89-1.25-14.01-3.59l-3.67-2.06c-0.04-0.02-0.07-0.04-0.1-0.06
		c-0.19-0.12-0.97-0.5-2.23-0.47c-0.64,0-1.28,0.08-1.93,0.25c-2.03,0.49-3.29,1.69-3.5,2.05l-1.77,2.92
		c-3.8,6.57-10.34,11.35-18.4,13.41c-2.55,0.64-5.14,0.96-7.72,0.96c-5.15-0.01-9.87-1.23-14.05-3.62l-3.63-2.04
		c-0.04-0.02-0.07-0.04-0.11-0.07c-0.15-0.1-0.99-0.47-2.22-0.47c-0.01,0-0.01,0-0.02,0c-0.64,0-1.27,0.08-1.92,0.25
		c-2.06,0.5-3.3,1.7-3.52,2.09c-0.02,0.04-0.05,0.08-0.07,0.12l-0.27,0.41l-1.92,2.78c-3.86,6.4-10.31,11.04-18.19,13.05
		C89.43,279.51,86.84,279.83,84.26,279.84z M72.62,271.84c0.04,0.02,0.08,0.04,0.11,0.06c3.41,1.94,7.29,2.93,11.53,2.93
		c2.16,0,4.35-0.28,6.49-0.81c6.61-1.69,12-5.54,15.17-10.84c0.03-0.05,0.06-0.09,0.09-0.14l2.13-3.1c0.97-1.63,3.38-3.6,6.62-4.38
		c1.03-0.26,2.08-0.4,3.13-0.39c1.87-0.03,3.69,0.46,4.93,1.26l0.46,0.27l3.04,1.68c3.44,1.97,7.34,2.96,11.6,2.97
		c2.16,0,4.35-0.27,6.49-0.81c6.73-1.72,12.18-5.67,15.33-11.12l1.77-2.91c0.9-1.57,3.32-3.57,6.6-4.36
		c1.04-0.26,2.09-0.39,3.17-0.39c1.84,0,3.66,0.47,4.9,1.27l0.45,0.27l3.06,1.7c3.44,1.96,7.32,2.95,11.57,2.95
		c2.15,0,4.34-0.27,6.49-0.81c6.74-1.72,12.19-5.68,15.34-11.13l1.7-2.9c0.96-1.53,3.23-3.52,6.58-4.33
		c1.76-0.44,3.27-1.56,4.21-3.14c0.95-1.58,1.22-3.43,0.77-5.22c-0.45-1.79-1.56-3.29-3.14-4.24c-1.58-0.95-3.43-1.22-5.22-0.77
		c-6.45,1.64-11.78,5.39-14.99,10.54l-0.1,0.17l-1.77,3.03c-0.89,1.68-3.36,3.81-6.76,4.62c-1.03,0.26-2.07,0.39-3.12,0.39
		c-0.02,0-0.03,0-0.05,0c-1.75,0-3.46-0.42-4.7-1.15l-0.13-0.08l-2.89-1.61c-0.03-0.02-0.06-0.04-0.1-0.06
		c-3.49-2.15-7.69-3.29-12.15-3.3c-2.16,0-4.34,0.27-6.49,0.81c-6.45,1.65-11.78,5.39-14.99,10.54l-1.96,3.22
		c-0.89,1.68-3.36,3.82-6.76,4.63c-1.04,0.26-2.11,0.39-3.17,0.39c-1.74,0-3.51-0.43-4.72-1.16l-3.04-1.69
		c-0.03-0.02-0.06-0.04-0.1-0.06c-3.48-2.14-7.67-3.28-12.12-3.28c-2.17,0-4.35,0.27-6.5,0.81c-6.32,1.61-11.58,5.25-14.81,10.26
		l-2.45,3.61c-0.91,1.67-3.37,3.79-6.74,4.59c-1.05,0.26-2.15,0.39-3.16,0.39c-1.74,0-3.5-0.43-4.72-1.16l-3.02-1.68
		c-0.03-0.02-0.06-0.04-0.1-0.06c-3.49-2.15-7.7-3.29-12.15-3.3c-2.16,0-4.35,0.27-6.5,0.81c-1.79,0.45-3.29,1.57-4.24,3.15
		c-0.95,1.58-1.22,3.43-0.77,5.22c0.45,1.79,1.56,3.29,3.15,4.24c1.58,0.95,3.43,1.22,5.22,0.77c1.06-0.27,2.13-0.4,3.19-0.4
		c1.84,0,3.66,0.47,4.9,1.27l0.46,0.28L72.62,271.84z"/>
	<path style="clip-path:url(#SVGID_00000040569179045064406290000000786732017291796100_);fill:#FFFFFF;" d="M71.5,196.75
		L71.5,196.75L68.36,195l-0.5-0.3c-0.64-0.43-1.96-0.9-3.62-0.89c-0.79,0-1.65,0.1-2.53,0.32c-5.03,1.26-10.14-1.79-11.4-6.82
		c-1.27-5.03,1.79-10.14,6.82-11.4c2.38-0.6,4.76-0.89,7.11-0.89c4.78,0.01,9.42,1.18,13.46,3.67l2.93,1.63l0.16,0.09
		c0.68,0.4,1.94,0.81,3.48,0.8c0.79,0,1.65-0.1,2.54-0.32c2.76-0.66,4.64-2.38,5.16-3.41l0.47-0.75l2.04-2.96
		c3.63-5.63,9.42-9.58,16.3-11.33c2.38-0.6,4.77-0.89,7.11-0.89c4.77,0.01,9.4,1.18,13.43,3.65l2.95,1.64l0.17,0.1
		c0.67,0.41,1.93,0.81,3.48,0.8c0.79,0,1.65-0.1,2.54-0.32c2.76-0.66,4.64-2.38,5.16-3.41l0.18-0.3l1.84-3.03
		c3.61-5.8,9.49-9.85,16.5-11.64c2.38-0.6,4.76-0.89,7.11-0.89c4.78,0.01,9.42,1.18,13.46,3.67l2.93,1.63l0.16,0.09
		c0.68,0.41,1.94,0.81,3.48,0.8c0.78,0,1.65-0.1,2.54-0.32c2.76-0.66,4.64-2.38,5.15-3.4l0.09-0.16l1.73-2.97l0.11-0.18
		c3.61-5.8,9.49-9.85,16.5-11.64c5.03-1.26,10.13,1.79,11.4,6.82c1.26,5.03-1.79,10.14-6.82,11.4c-2.55,0.62-4.35,2.12-5.01,3.16
		l-1.69,2.89c-3.56,6.16-9.62,10.45-16.9,12.31c-2.37,0.59-4.75,0.88-7.1,0.88c-4.52-0.01-8.9-1.06-12.78-3.26l-3.13-1.74l-0.5-0.3
		c-0.65-0.43-1.96-0.9-3.62-0.89c-0.79,0-1.64,0.1-2.53,0.32c-2.64,0.64-4.48,2.23-5.05,3.23l-1.74,2.86
		c-3.56,6.15-9.62,10.43-16.89,12.29c-2.37,0.6-4.76,0.88-7.11,0.89c-4.53-0.01-8.92-1.06-12.81-3.28l-3.1-1.72l-0.5-0.3
		c-0.65-0.43-1.97-0.9-3.62-0.89c-0.79,0-1.64,0.1-2.54,0.32c-2.64,0.63-4.47,2.22-5.08,3.27l-0.27,0.41l-1.93,2.79
		c-3.58,5.99-9.56,10.15-16.71,11.98c-2.37,0.59-4.76,0.89-7.11,0.89C79.75,200,75.37,198.95,71.5,196.75"/>
	<path style="clip-path:url(#SVGID_00000040569179045064406290000000786732017291796100_);fill:#5B5A5E;" d="M84.26,202.51
		c-5.12-0.01-9.82-1.21-13.99-3.58l-3.71-2.08c-0.03-0.02-0.06-0.04-0.09-0.06c-0.23-0.16-1.07-0.47-2.2-0.47
		c-0.62,0-1.3,0.08-1.96,0.25c-3.09,0.78-6.29,0.3-9.01-1.33c-2.73-1.63-4.65-4.23-5.43-7.31c-0.77-3.08-0.3-6.28,1.33-9
		s4.23-4.65,7.31-5.43c2.55-0.64,5.15-0.96,7.72-0.96c5.36,0.01,10.45,1.4,14.72,4.01l3.05,1.7c0.26,0.16,1.06,0.48,2.22,0.48
		c0.59,0.02,1.3-0.08,1.97-0.25c2.07-0.49,3.33-1.74,3.53-2.12c0.02-0.04,0.08-0.15,0.11-0.19l0.47-0.75
		c0.02-0.03,0.04-0.06,0.06-0.1l2.04-2.96c3.86-6,10.18-10.4,17.74-12.33c2.55-0.64,5.15-0.97,7.73-0.97
		c5.35,0.01,10.43,1.39,14.69,3.99l3.08,1.71c0.28,0.17,1.05,0.5,2.24,0.48c0.63,0,1.3-0.08,1.94-0.25
		c2.07-0.49,3.33-1.74,3.53-2.11c0.01-0.02,0.06-0.11,0.07-0.13l0.18-0.3l1.87-3.07c3.91-6.27,10.3-10.79,18.02-12.76
		c2.55-0.64,5.15-0.97,7.73-0.97c5.37,0.01,10.45,1.4,14.72,4.01l3.07,1.7c0.3,0.18,1.09,0.48,2.2,0.48c0.01,0,0.03,0,0.05,0
		c0.63,0,1.27-0.08,1.92-0.25c2.07-0.5,3.33-1.74,3.54-2.11c0.01-0.02,0.06-0.11,0.08-0.14l1.96-3.34
		c3.91-6.27,10.3-10.79,18.01-12.76c3.09-0.78,6.29-0.3,9.01,1.33c2.73,1.63,4.65,4.23,5.42,7.31c0.77,3.08,0.3,6.28-1.33,9
		s-4.23,4.65-7.31,5.43c-1.96,0.47-3.21,1.6-3.51,2.07l-1.64,2.82c-3.82,6.62-10.37,11.41-18.44,13.47
		c-2.56,0.64-5.15,0.96-7.72,0.96c-5.05-0.01-9.9-1.25-14.01-3.59l-3.67-2.06c-0.04-0.02-0.07-0.04-0.11-0.07
		c-0.15-0.1-0.96-0.46-2.22-0.47c-0.64,0-1.28,0.08-1.93,0.25c-2.03,0.49-3.29,1.69-3.5,2.05l-1.77,2.91
		c-3.8,6.57-10.35,11.35-18.4,13.41c-2.55,0.64-5.14,0.96-7.72,0.96c-5.15-0.01-9.87-1.22-14.05-3.61l-3.64-2.04
		c-0.04-0.02-0.07-0.04-0.1-0.06c-0.19-0.12-0.99-0.47-2.22-0.47c-0.67-0.02-1.29,0.08-1.94,0.25c-2.06,0.5-3.3,1.7-3.52,2.09
		c-0.02,0.04-0.05,0.08-0.07,0.12l-0.27,0.41l-1.92,2.78c-3.86,6.4-10.31,11.04-18.19,13.05C89.43,202.18,86.84,202.51,84.26,202.51
		z M69.18,192.58l0.46,0.28l3.06,1.7c0.01,0,0.02,0.01,0.02,0.01c3.41,1.94,7.29,2.93,11.53,2.93c2.16,0,4.35-0.28,6.49-0.81
		c6.61-1.69,12-5.54,15.17-10.84c0.03-0.05,0.06-0.09,0.09-0.14l2.13-3.1c0.97-1.63,3.38-3.61,6.62-4.38
		c1.03-0.26,2.08-0.38,3.13-0.39c1.84,0,3.68,0.46,4.93,1.27l0.46,0.27l3.03,1.68c3.44,1.97,7.34,2.96,11.6,2.97
		c2.17,0,4.36-0.27,6.49-0.81c6.73-1.72,12.18-5.67,15.33-11.12l1.77-2.91c0.9-1.57,3.32-3.57,6.6-4.36
		c1.04-0.26,2.12-0.4,3.17-0.39c1.84,0,3.66,0.47,4.9,1.27l0.45,0.27l3.07,1.7c3.44,1.96,7.32,2.94,11.57,2.95
		c2.16,0,4.34-0.27,6.49-0.81c6.74-1.73,12.19-5.68,15.34-11.13l1.7-2.9c0.96-1.53,3.23-3.52,6.58-4.33
		c1.76-0.44,3.27-1.56,4.21-3.14c0.95-1.58,1.22-3.43,0.77-5.22c-0.45-1.79-1.56-3.29-3.14-4.24s-3.43-1.22-5.22-0.77
		c-6.45,1.64-11.78,5.39-14.99,10.54l-0.1,0.16l-1.77,3.04c-0.89,1.68-3.36,3.81-6.76,4.62c-1.03,0.26-2.06,0.38-3.12,0.39
		c-1.78-0.03-3.51-0.41-4.76-1.16l-3.02-1.68c-0.03-0.02-0.07-0.04-0.1-0.06c-3.49-2.15-7.69-3.29-12.15-3.3
		c-2.16,0-4.35,0.27-6.49,0.81c-6.45,1.65-11.78,5.39-14.99,10.54l-1.95,3.22c-0.89,1.68-3.36,3.82-6.77,4.63
		c-1.04,0.26-2.14,0.38-3.17,0.39c-1.77,0-3.49-0.42-4.72-1.16l-3.04-1.69c-0.03-0.02-0.06-0.04-0.1-0.06
		c-3.48-2.14-7.68-3.28-12.12-3.28c-2.16,0-4.35,0.27-6.5,0.81c-6.32,1.61-11.58,5.25-14.81,10.26l-2.45,3.61
		c-0.91,1.67-3.37,3.78-6.74,4.59c-1.05,0.26-2.12,0.39-3.16,0.39c-1.74,0-3.5-0.43-4.72-1.16l-3.02-1.68
		c-0.03-0.02-0.06-0.04-0.1-0.06c-3.49-2.15-7.7-3.29-12.15-3.3c-2.16,0-4.35,0.27-6.5,0.81c-1.79,0.45-3.29,1.57-4.24,3.15
		c-0.95,1.58-1.22,3.43-0.77,5.22c0.45,1.79,1.56,3.29,3.15,4.24c1.58,0.94,3.43,1.22,5.22,0.77c1.06-0.27,2.13-0.41,3.19-0.4
		C66.13,191.31,67.95,191.79,69.18,192.58z"/>
	<path style="clip-path:url(#SVGID_00000040569179045064406290000000786732017291796100_);fill:#FFFFFF;" d="M71.5,124.73
		L71.5,124.73l-3.14-1.74l-0.5-0.3c-0.64-0.43-1.96-0.9-3.62-0.89c-0.79,0-1.65,0.1-2.53,0.32c-5.03,1.26-10.14-1.79-11.4-6.82
		c-1.27-5.03,1.79-10.14,6.82-11.4c2.38-0.6,4.76-0.89,7.11-0.89c4.78,0.01,9.42,1.18,13.46,3.67l2.93,1.63l0.16,0.09
		c0.68,0.4,1.94,0.81,3.48,0.8c0.79,0,1.65-0.1,2.54-0.32c2.76-0.66,4.64-2.38,5.16-3.41l0.47-0.75l2.04-2.96
		c3.63-5.63,9.42-9.58,16.3-11.33c2.38-0.6,4.77-0.89,7.11-0.89c4.77,0.01,9.4,1.18,13.43,3.65l2.95,1.64l0.17,0.1
		c0.67,0.41,1.93,0.81,3.48,0.8c0.79,0,1.65-0.1,2.54-0.32c2.76-0.66,4.64-2.38,5.16-3.41l0.18-0.3l1.84-3.03
		c3.61-5.8,9.49-9.85,16.5-11.64c2.38-0.6,4.76-0.89,7.11-0.89c4.78,0.01,9.42,1.18,13.46,3.67l2.93,1.63l0.16,0.09
		c0.68,0.41,1.94,0.81,3.48,0.8c0.78,0,1.65-0.1,2.54-0.32c2.76-0.66,4.64-2.38,5.15-3.4l0.09-0.16l1.73-2.97l0.11-0.18
		c3.61-5.8,9.49-9.85,16.5-11.64c5.03-1.26,10.13,1.79,11.4,6.82c1.26,5.03-1.79,10.14-6.82,11.4c-2.55,0.62-4.35,2.12-5.01,3.16
		l-1.69,2.89c-3.56,6.16-9.62,10.45-16.9,12.31c-2.37,0.59-4.75,0.88-7.1,0.88c-4.52-0.01-8.9-1.06-12.78-3.27l-3.13-1.74l-0.5-0.3
		c-0.65-0.43-1.96-0.9-3.62-0.89c-0.79,0-1.64,0.1-2.53,0.32c-2.64,0.64-4.48,2.23-5.05,3.23l-1.74,2.86
		c-3.56,6.15-9.62,10.43-16.89,12.29c-2.37,0.6-4.76,0.88-7.11,0.89c-4.53-0.01-8.92-1.06-12.81-3.28l-3.1-1.72l-0.5-0.3
		c-0.65-0.43-1.97-0.9-3.62-0.89c-0.79,0-1.64,0.1-2.54,0.32c-2.64,0.63-4.47,2.22-5.08,3.27l-0.27,0.41l-1.93,2.79
		c-3.58,5.99-9.56,10.15-16.71,11.98c-2.37,0.59-4.76,0.88-7.11,0.89C79.75,127.98,75.37,126.93,71.5,124.73"/>
	<path style="clip-path:url(#SVGID_00000040569179045064406290000000786732017291796100_);fill:#5B5A5E;" d="M84.26,130.49
		c-5.12-0.01-9.82-1.21-13.99-3.58l-3.71-2.08c-0.03-0.02-0.06-0.04-0.1-0.06c-0.15-0.1-1.02-0.51-2.22-0.47
		c-0.64,0-1.28,0.08-1.93,0.25c-3.09,0.78-6.28,0.3-9.01-1.33c-2.73-1.63-4.65-4.23-5.43-7.31c-0.77-3.08-0.3-6.28,1.33-9
		s4.23-4.65,7.31-5.43c2.55-0.64,5.15-0.96,7.72-0.96c5.36,0.01,10.45,1.4,14.72,4.01l3.07,1.71c0.25,0.15,1.06,0.48,2.23,0.47
		c0.63,0,1.28-0.08,1.94-0.25c2.07-0.49,3.33-1.74,3.53-2.12c0.02-0.04,0.08-0.15,0.11-0.19l0.47-0.75c0.02-0.03,0.04-0.06,0.06-0.1
		l2.04-2.96c3.87-6,10.18-10.41,17.74-12.33c2.55-0.64,5.15-0.97,7.73-0.97c5.35,0.01,10.43,1.39,14.69,3.99l3.08,1.71
		c0.28,0.17,1.05,0.5,2.24,0.48c0.63,0,1.3-0.08,1.94-0.25c2.07-0.49,3.33-1.74,3.53-2.11c0.01-0.02,0.06-0.11,0.07-0.13l0.18-0.3
		l1.87-3.07c3.91-6.27,10.3-10.79,18.01-12.76c2.56-0.64,5.15-0.97,7.73-0.97c5.37,0.01,10.45,1.4,14.72,4.01l3.05,1.7
		c0.32,0.19,1.08,0.49,2.24,0.48c0,0,0.01,0,0.02,0c0.63,0,1.27-0.08,1.92-0.25c2.08-0.5,3.33-1.74,3.54-2.11
		c0.01-0.02,0.06-0.12,0.08-0.14l1.95-3.34c3.91-6.27,10.3-10.8,18.02-12.76c3.09-0.78,6.29-0.3,9.01,1.33
		c2.73,1.63,4.65,4.23,5.42,7.31c0.77,3.08,0.3,6.28-1.33,9s-4.23,4.65-7.31,5.43c-1.96,0.47-3.21,1.6-3.51,2.07l-1.64,2.82
		c-3.82,6.62-10.37,11.41-18.44,13.47c-2.56,0.64-5.16,0.96-7.72,0.96c-5.05-0.01-9.9-1.25-14.01-3.59l-3.67-2.06
		c-0.04-0.02-0.07-0.04-0.1-0.07c-0.15-0.1-0.96-0.44-2.22-0.47c-0.64,0-1.28,0.08-1.93,0.25c-2.03,0.49-3.29,1.69-3.5,2.05
		l-1.77,2.91c-3.8,6.57-10.35,11.35-18.4,13.41c-2.54,0.64-5.14,0.96-7.72,0.96c-5.15-0.01-9.87-1.23-14.05-3.61l-3.64-2.04
		c-0.04-0.02-0.07-0.04-0.1-0.06c-0.19-0.12-1.01-0.5-2.22-0.47c-0.67-0.02-1.29,0.08-1.94,0.25c-2.06,0.5-3.3,1.7-3.52,2.09
		c-0.02,0.04-0.05,0.08-0.07,0.12l-0.27,0.41l-1.92,2.78c-3.86,6.4-10.31,11.04-18.19,13.05C89.43,130.16,86.84,130.49,84.26,130.49
		z M69.18,120.57l0.46,0.28l3.07,1.7c0.01,0,0.02,0.01,0.02,0.01c3.41,1.94,7.29,2.93,11.53,2.93c2.16,0,4.35-0.27,6.5-0.81
		c6.61-1.69,12-5.54,15.17-10.84c0.03-0.05,0.06-0.09,0.09-0.14l2.13-3.1c0.97-1.63,3.38-3.61,6.62-4.38
		c1.01-0.26,2.07-0.39,3.1-0.39c0.03,0,0.07,0,0.1,0c1.81,0,3.63,0.47,4.86,1.26l0.46,0.27l3.03,1.68c3.44,1.97,7.34,2.96,11.6,2.97
		c2.17,0,4.36-0.27,6.49-0.81c6.73-1.72,12.18-5.67,15.33-11.12l1.77-2.91c0.9-1.57,3.32-3.57,6.6-4.36
		c1.04-0.26,2.12-0.4,3.17-0.39c1.84,0,3.67,0.47,4.9,1.27l0.45,0.27l3.06,1.7c3.44,1.96,7.32,2.94,11.57,2.95
		c2.15,0,4.34-0.27,6.49-0.81c6.74-1.72,12.19-5.68,15.34-11.13l1.7-2.9c0.96-1.53,3.23-3.52,6.58-4.33
		c1.76-0.44,3.27-1.56,4.21-3.14c0.95-1.58,1.22-3.43,0.77-5.22c-0.45-1.79-1.56-3.29-3.14-4.24c-1.58-0.95-3.43-1.22-5.22-0.77
		c-6.45,1.65-11.78,5.39-14.99,10.54l-1.87,3.2c-0.89,1.68-3.36,3.81-6.76,4.62c-1.02,0.26-2.07,0.39-3.09,0.39
		c-0.03,0-0.05,0-0.08,0c-1.75,0-3.47-0.42-4.71-1.16L183.47,82c-0.03-0.02-0.06-0.04-0.1-0.06c-3.49-2.15-7.69-3.29-12.15-3.3
		c-2.16,0-4.35,0.27-6.5,0.81c-6.45,1.65-11.78,5.39-14.99,10.54l-1.95,3.22c-0.89,1.68-3.36,3.82-6.77,4.63
		c-1.04,0.26-2.13,0.38-3.17,0.39c-1.77,0-3.49-0.42-4.72-1.16l-3.04-1.69c-0.03-0.02-0.06-0.04-0.1-0.06
		c-3.49-2.14-7.68-3.28-12.12-3.28c-2.17,0-4.35,0.27-6.5,0.81c-6.32,1.61-11.58,5.25-14.81,10.26l-2.45,3.61
		c-0.91,1.67-3.37,3.78-6.74,4.59c-1.05,0.26-2.12,0.38-3.16,0.39c-1.74,0-3.5-0.43-4.72-1.16l-3.02-1.68
		c-0.03-0.02-0.06-0.04-0.1-0.06c-3.49-2.15-7.7-3.29-12.15-3.3c-2.16,0-4.35,0.27-6.5,0.81c-1.79,0.45-3.29,1.57-4.24,3.15
		s-1.22,3.43-0.77,5.22c0.45,1.79,1.56,3.29,3.15,4.24c1.58,0.95,3.43,1.22,5.22,0.77c1.06-0.27,2.13-0.38,3.19-0.4
		C66.13,119.3,67.95,119.77,69.18,120.57z"/>
	<path style="clip-path:url(#SVGID_00000040569179045064406290000000786732017291796100_);fill:#FFFFFF;" d="M308.5,274.7V79.56
		c0-5.19,4.2-9.4,9.39-9.4c5.19,0,9.39,4.21,9.39,9.4V274.7c0,5.19-4.2,9.4-9.39,9.4C312.71,284.1,308.5,279.89,308.5,274.7"/>
	<path style="clip-path:url(#SVGID_00000040569179045064406290000000786732017291796100_);fill:#5B5A5E;" d="M317.9,286.6
		c-6.56,0-11.9-5.34-11.9-11.9V79.56c0-6.56,5.34-11.9,11.9-11.9c6.56,0,11.89,5.34,11.89,11.9v195.14
		C329.79,281.26,324.46,286.6,317.9,286.6z M317.9,72.67c-3.8,0-6.9,3.09-6.9,6.9v195.14c0,3.8,3.09,6.9,6.9,6.9
		c3.8,0,6.89-3.09,6.89-6.9V79.56C324.79,75.76,321.7,72.67,317.9,72.67z"/>
	<path style="clip-path:url(#SVGID_00000040569179045064406290000000786732017291796100_);fill:#FFFFFF;" d="M163,299.47L163,299.47
		l-3.14-1.74l-0.5-0.3c-0.65-0.43-1.96-0.9-3.62-0.89c-0.79,0-1.65,0.1-2.53,0.32c-5.03,1.26-10.14-1.79-11.4-6.82
		c-1.27-5.03,1.79-10.14,6.82-11.4c2.38-0.6,4.76-0.89,7.11-0.89c4.78,0.01,9.42,1.18,13.46,3.67l2.93,1.62l0.16,0.09
		c0.68,0.41,1.94,0.81,3.48,0.8c0.79,0,1.65-0.1,2.54-0.32c2.76-0.66,4.63-2.38,5.16-3.41l0.47-0.75l2.04-2.96
		c3.63-5.63,9.42-9.58,16.3-11.33c2.38-0.6,4.77-0.89,7.11-0.89c4.77,0.01,9.4,1.18,13.43,3.65l2.95,1.64l0.17,0.09
		c0.68,0.41,1.93,0.81,3.48,0.8c0.79,0,1.65-0.1,2.54-0.32c2.76-0.66,4.64-2.38,5.15-3.41l0.18-0.3l1.85-3.03
		c3.61-5.8,9.49-9.85,16.5-11.64c2.38-0.6,4.76-0.89,7.11-0.89c4.78,0.01,9.42,1.18,13.46,3.67l2.93,1.63l0.16,0.09
		c0.68,0.4,1.94,0.81,3.48,0.8c0.78,0,1.65-0.1,2.54-0.32c2.76-0.66,4.64-2.38,5.15-3.4l0.09-0.16l1.73-2.97l0.11-0.18
		c3.61-5.8,9.49-9.85,16.5-11.64c5.03-1.26,10.13,1.79,11.4,6.82c1.26,5.03-1.79,10.13-6.82,11.4c-2.55,0.61-4.35,2.12-5.01,3.16
		l-1.69,2.89h0c-3.56,6.16-9.62,10.45-16.9,12.31c-2.37,0.59-4.75,0.89-7.1,0.89c-4.52-0.01-8.9-1.06-12.78-3.27l-3.13-1.74
		l-0.5-0.3c-0.65-0.43-1.96-0.9-3.62-0.89c-0.79,0-1.64,0.1-2.53,0.32c-2.63,0.63-4.48,2.22-5.05,3.23l-1.74,2.86
		c-3.56,6.15-9.62,10.43-16.89,12.29c-2.37,0.59-4.76,0.88-7.11,0.89c-4.53-0.01-8.92-1.07-12.81-3.28l-3.1-1.72l-0.51-0.3
		c-0.65-0.43-1.97-0.9-3.62-0.89c-0.79,0-1.64,0.1-2.54,0.32c-2.64,0.63-4.47,2.22-5.08,3.27l-0.27,0.41l-1.93,2.79
		c-3.58,5.99-9.56,10.15-16.71,11.98c-2.37,0.59-4.76,0.88-7.1,0.89C171.25,302.73,166.88,301.68,163,299.47"/>
	<path style="clip-path:url(#SVGID_00000040569179045064406290000000786732017291796100_);fill:#5B5A5E;" d="M175.77,305.23
		c-5.12-0.01-9.82-1.21-13.99-3.58l-3.7-2.08c-0.03-0.02-0.07-0.04-0.1-0.06c-0.15-0.1-0.98-0.46-2.23-0.47
		c-0.63,0-1.28,0.08-1.93,0.25c-3.09,0.77-6.28,0.3-9.01-1.33s-4.65-4.23-5.43-7.31c-0.77-3.08-0.3-6.28,1.33-9
		c1.63-2.73,4.23-4.65,7.31-5.43c2.55-0.64,5.14-0.96,7.72-0.96c5.36,0.01,10.45,1.4,14.72,4.01l3.07,1.71
		c0.3,0.18,1.07,0.49,2.22,0.47c0.63,0,1.28-0.08,1.95-0.25c2.07-0.49,3.33-1.74,3.53-2.12c0.02-0.04,0.08-0.15,0.11-0.19l0.47-0.75
		c0.02-0.03,0.04-0.06,0.06-0.09l2.04-2.96c3.87-6,10.18-10.41,17.74-12.33c2.55-0.64,5.15-0.97,7.73-0.97
		c5.35,0.01,10.43,1.39,14.69,3.99l3.07,1.71c0.28,0.17,1.07,0.49,2.22,0.49c0.62,0.01,1.31-0.08,1.97-0.25
		c2.07-0.49,3.33-1.74,3.53-2.11c0.01-0.02,0.06-0.11,0.07-0.13l0.18-0.3l1.87-3.06c3.91-6.27,10.3-10.79,18.01-12.76
		c2.56-0.64,5.15-0.97,7.73-0.97c5.37,0.01,10.45,1.4,14.72,4.01l3.08,1.71c0.29,0.17,1.09,0.47,2.2,0.47c0.01,0,0.03,0,0.04,0
		c0.62,0,1.28-0.08,1.92-0.25c2.08-0.5,3.33-1.74,3.54-2.11c0.01-0.02,0.05-0.1,0.06-0.12l1.97-3.37
		c3.9-6.27,10.3-10.79,18.01-12.76c3.09-0.78,6.29-0.3,9.01,1.33s4.65,4.23,5.43,7.31c0.77,3.08,0.3,6.28-1.33,9
		c-1.63,2.73-4.23,4.65-7.31,5.43c-1.96,0.47-3.21,1.6-3.5,2.07l-1.64,2.82c-3.82,6.62-10.37,11.41-18.44,13.47
		c-2.56,0.64-5.16,0.96-7.72,0.96c-5.05-0.01-9.89-1.25-14.01-3.59l-3.68-2.06c-0.03-0.02-0.07-0.04-0.1-0.06
		c-0.19-0.12-0.98-0.44-2.23-0.47c-0.64,0-1.28,0.08-1.93,0.25c-2.03,0.49-3.29,1.69-3.49,2.05l-1.78,2.92
		c-3.8,6.57-10.34,11.35-18.4,13.41c-2.55,0.64-5.14,0.96-7.72,0.96c-5.07-0.01-9.93-1.26-14.05-3.61l-3.63-2.04
		c-0.04-0.02-0.08-0.05-0.12-0.07c-0.15-0.1-0.99-0.44-2.21-0.47c-0.65-0.03-1.29,0.08-1.94,0.25c-2.06,0.5-3.3,1.7-3.52,2.09
		c-0.02,0.04-0.04,0.08-0.07,0.11l-0.27,0.41l-1.92,2.79c-3.86,6.4-10.31,11.04-18.19,13.05
		C180.94,304.91,178.35,305.23,175.77,305.23z M160.69,295.31l0.46,0.28l3.07,1.7c0.01,0,0.01,0.01,0.02,0.01
		c3.41,1.94,7.29,2.93,11.53,2.93c2.16,0,4.35-0.28,6.49-0.81c6.61-1.69,12-5.54,15.17-10.84c0.03-0.05,0.06-0.09,0.09-0.14
		l2.12-3.09c0.97-1.63,3.38-3.61,6.62-4.39c1.03-0.26,2.08-0.42,3.12-0.39c1.85,0.01,3.68,0.46,4.93,1.26l0.46,0.27l3.04,1.69
		c3.44,1.97,7.33,2.96,11.6,2.97c2.17,0,4.35-0.27,6.49-0.81c6.73-1.72,12.18-5.67,15.33-11.12l1.77-2.91
		c0.9-1.57,3.31-3.57,6.6-4.36c1.04-0.26,2.11-0.37,3.17-0.39c1.84,0,3.66,0.47,4.9,1.27l0.46,0.27l3.06,1.7
		c3.44,1.96,7.32,2.95,11.57,2.95c2.15,0,4.34-0.27,6.5-0.81c6.74-1.72,12.19-5.68,15.34-11.13l1.7-2.9
		c0.96-1.53,3.23-3.52,6.58-4.33c1.76-0.44,3.27-1.56,4.21-3.14c0.95-1.58,1.22-3.43,0.77-5.22c-0.45-1.79-1.57-3.29-3.14-4.24
		c-1.58-0.95-3.43-1.22-5.22-0.77c-6.45,1.65-11.78,5.39-14.98,10.54l-0.1,0.17l-1.77,3.03c-0.89,1.68-3.36,3.82-6.77,4.63
		c-1.02,0.26-2.07,0.39-3.09,0.39c-0.03,0-0.05,0-0.08,0c-1.75,0-3.47-0.42-4.7-1.15l-3.03-1.68c-0.03-0.02-0.06-0.04-0.1-0.06
		c-3.49-2.15-7.69-3.29-12.15-3.3c-2.16,0-4.35,0.27-6.5,0.81c-6.45,1.65-11.78,5.39-14.98,10.54l-1.96,3.22
		c-0.89,1.68-3.36,3.82-6.76,4.63c-1.03,0.26-2.09,0.39-3.12,0.39c-0.02,0-0.03,0-0.05,0c-1.77,0-3.49-0.42-4.72-1.16l-3.04-1.69
		c-0.03-0.02-0.06-0.04-0.09-0.06c-3.49-2.14-7.68-3.28-12.12-3.28c-2.17,0-4.35,0.27-6.5,0.81c-6.32,1.61-11.58,5.25-14.81,10.26
		l-2.45,3.61c-0.91,1.67-3.37,3.79-6.74,4.59c-1.05,0.26-2.11,0.38-3.17,0.39c-1.76,0-3.48-0.42-4.71-1.15l-3.02-1.68
		c-0.03-0.02-0.06-0.04-0.1-0.06c-3.49-2.15-7.7-3.29-12.15-3.3c-2.16,0-4.35,0.27-6.5,0.81c-1.79,0.45-3.29,1.57-4.24,3.15
		c-0.95,1.58-1.22,3.43-0.77,5.22c0.45,1.79,1.57,3.29,3.15,4.24c1.58,0.95,3.43,1.22,5.22,0.77c1.06-0.27,2.12-0.41,3.19-0.4
		C157.63,294.04,159.46,294.51,160.69,295.31z"/>
	<path style="clip-path:url(#SVGID_00000040569179045064406290000000786732017291796100_);fill:#FFFFFF;" d="M163,222.15L163,222.15
		l-3.14-1.74l-0.5-0.3c-0.65-0.43-1.96-0.9-3.62-0.89c-0.79,0-1.65,0.1-2.53,0.32c-5.03,1.26-10.14-1.79-11.4-6.82
		c-1.27-5.03,1.79-10.14,6.82-11.4c2.38-0.6,4.76-0.89,7.11-0.89c4.78,0.01,9.42,1.18,13.46,3.67l2.93,1.63l0.16,0.09
		c0.68,0.4,1.94,0.81,3.48,0.8c0.79,0,1.65-0.1,2.54-0.32c2.76-0.66,4.63-2.38,5.16-3.41l0.47-0.75l2.04-2.96
		c3.63-5.63,9.42-9.58,16.3-11.33c2.38-0.6,4.77-0.89,7.11-0.89c4.77,0.01,9.4,1.18,13.43,3.65l2.95,1.64l0.17,0.1
		c0.68,0.41,1.93,0.81,3.48,0.8c0.79,0,1.65-0.1,2.54-0.32c2.76-0.66,4.64-2.38,5.15-3.41l0.18-0.3l1.85-3.03
		c3.61-5.8,9.49-9.85,16.5-11.64c2.38-0.6,4.76-0.89,7.11-0.89c4.78,0.01,9.42,1.18,13.46,3.67l2.93,1.63l0.16,0.09
		c0.68,0.41,1.94,0.81,3.48,0.8c0.78,0,1.65-0.1,2.54-0.32c2.76-0.66,4.64-2.38,5.15-3.4l0.09-0.16l1.73-2.97l0.11-0.19
		c3.61-5.8,9.49-9.85,16.5-11.64c5.03-1.26,10.13,1.79,11.4,6.82c1.26,5.03-1.79,10.13-6.82,11.4c-2.55,0.62-4.35,2.12-5.01,3.16
		l-1.69,2.89h0c-3.56,6.16-9.62,10.45-16.9,12.31c-2.37,0.59-4.75,0.88-7.1,0.88c-4.52-0.01-8.9-1.06-12.78-3.26l-3.13-1.74
		l-0.5-0.3c-0.65-0.43-1.96-0.9-3.62-0.89c-0.79,0-1.64,0.1-2.53,0.32c-2.63,0.64-4.48,2.23-5.05,3.23l-1.74,2.86
		c-3.56,6.15-9.62,10.43-16.89,12.29c-2.37,0.6-4.76,0.88-7.11,0.89c-4.53-0.01-8.92-1.06-12.81-3.28l-3.1-1.72l-0.51-0.3
		c-0.65-0.43-1.97-0.9-3.62-0.89c-0.79,0-1.64,0.1-2.54,0.32c-2.64,0.63-4.47,2.22-5.08,3.27l-0.27,0.41l-1.93,2.79
		c-3.58,5.99-9.56,10.15-16.71,11.98c-2.37,0.59-4.76,0.89-7.1,0.89C171.25,225.4,166.88,224.35,163,222.15"/>
	<path style="clip-path:url(#SVGID_00000040569179045064406290000000786732017291796100_);fill:#5B5A5E;" d="M175.77,227.91
		c-5.12-0.01-9.82-1.21-13.99-3.58l-3.71-2.08c-0.03-0.02-0.06-0.04-0.09-0.06c-0.23-0.16-1.08-0.45-2.23-0.47
		c-0.63,0-1.28,0.08-1.93,0.25c-3.09,0.78-6.29,0.3-9.01-1.33c-2.73-1.63-4.65-4.23-5.43-7.31c-0.77-3.08-0.3-6.28,1.33-9
		c1.63-2.73,4.23-4.65,7.31-5.43c2.55-0.64,5.15-0.96,7.72-0.96c5.36,0.01,10.45,1.4,14.72,4.01l3.06,1.71
		c0.3,0.18,1.1,0.48,2.21,0.48c0.63-0.01,1.3-0.08,1.97-0.25c2.07-0.49,3.33-1.74,3.53-2.12c0.02-0.04,0.08-0.15,0.11-0.19
		l0.47-0.75c0.02-0.03,0.04-0.06,0.06-0.09l2.04-2.96c3.86-6,10.18-10.41,17.74-12.33c2.56-0.64,5.15-0.97,7.73-0.97
		c5.35,0.01,10.43,1.39,14.69,3.99l3.08,1.71c0.28,0.16,1.1,0.48,2.24,0.48c0.63,0,1.3-0.08,1.95-0.25
		c2.07-0.49,3.32-1.74,3.53-2.11c0.01-0.02,0.06-0.11,0.07-0.13l0.18-0.3l1.87-3.07c3.91-6.27,10.3-10.79,18.01-12.76
		c2.55-0.64,5.15-0.97,7.73-0.97c5.36,0.01,10.45,1.4,14.72,4.01l3.07,1.71c0.3,0.18,1.09,0.48,2.2,0.48c0.01,0,0.03,0,0.05,0
		c0.63,0,1.27-0.08,1.92-0.25c2.07-0.5,3.33-1.74,3.54-2.11c0.01-0.02,0.05-0.1,0.06-0.12l1.96-3.35
		c3.91-6.28,10.31-10.8,18.02-12.77c3.09-0.78,6.29-0.3,9.01,1.33c2.73,1.63,4.65,4.23,5.43,7.31c0.77,3.08,0.3,6.28-1.33,9
		c-1.63,2.73-4.23,4.65-7.31,5.43c-1.96,0.47-3.21,1.6-3.51,2.07l-1.64,2.82c-3.82,6.62-10.37,11.41-18.44,13.47
		c-2.56,0.64-5.16,0.96-7.72,0.96c-5.05-0.01-9.89-1.25-14.01-3.59l-3.67-2.06c-0.04-0.02-0.07-0.04-0.1-0.07
		c-0.18-0.12-0.98-0.47-2.2-0.47c-0.01,0-0.02,0-0.03,0c-0.64,0-1.28,0.08-1.94,0.25c-2.03,0.49-3.28,1.69-3.49,2.05l-1.78,2.92
		c-3.8,6.57-10.35,11.35-18.4,13.41c-2.54,0.64-5.14,0.96-7.72,0.96c-5.07-0.01-9.93-1.26-14.05-3.61l-3.63-2.04
		c-0.04-0.02-0.07-0.04-0.11-0.07c-0.24-0.16-1.09-0.48-2.22-0.47c-0.65,0.03-1.29,0.08-1.94,0.25c-2.06,0.5-3.3,1.7-3.52,2.09
		c-0.02,0.04-0.05,0.08-0.07,0.11l-0.27,0.41l-1.92,2.79c-3.86,6.4-10.32,11.04-18.19,13.05
		C180.94,227.58,178.34,227.9,175.77,227.91z M160.69,217.98l0.46,0.28l3.07,1.7c0.01,0,0.01,0.01,0.02,0.01
		c3.41,1.94,7.29,2.93,11.53,2.93c2.16,0,4.35-0.28,6.49-0.81c6.61-1.69,12-5.54,15.17-10.84c0.03-0.05,0.06-0.09,0.09-0.14
		l2.12-3.09c0.97-1.64,3.38-3.61,6.62-4.39c1.02-0.26,2.09-0.38,3.12-0.39c1.85,0,3.68,0.46,4.93,1.26l0.46,0.27l3.04,1.68
		c3.44,1.97,7.34,2.96,11.6,2.97c2.17,0,4.36-0.27,6.49-0.81c6.73-1.72,12.18-5.67,15.33-11.12l1.77-2.91
		c0.9-1.57,3.31-3.57,6.6-4.36c1.04-0.26,2.1-0.39,3.17-0.39c1.84,0,3.66,0.47,4.9,1.27l0.45,0.27l3.07,1.7
		c3.44,1.96,7.32,2.94,11.56,2.95c2.16,0,4.34-0.27,6.5-0.81c6.74-1.72,12.19-5.68,15.34-11.13l1.7-2.9
		c0.96-1.53,3.23-3.52,6.58-4.33c1.76-0.44,3.27-1.56,4.21-3.14c0.95-1.58,1.22-3.43,0.77-5.22c-0.45-1.79-1.57-3.29-3.14-4.24
		c-1.58-0.95-3.43-1.22-5.22-0.77c-6.45,1.64-11.78,5.39-14.98,10.54l-1.87,3.19c-0.89,1.68-3.36,3.82-6.77,4.63
		c-1.03,0.26-2.1,0.39-3.12,0.39c-1.74-0.02-3.51-0.41-4.76-1.16l-3.02-1.68c-0.03-0.02-0.06-0.04-0.1-0.06
		c-3.49-2.15-7.69-3.29-12.15-3.3c-2.16,0-4.35,0.27-6.5,0.81c-6.45,1.65-11.78,5.39-14.99,10.54l-1.95,3.22
		c-0.89,1.68-3.36,3.82-6.76,4.63c-1.05,0.26-2.11,0.39-3.17,0.39c-1.77,0-3.49-0.42-4.72-1.16l-3.04-1.69
		c-0.03-0.02-0.06-0.04-0.09-0.05c-3.49-2.14-7.68-3.28-12.12-3.28c-2.16,0-4.35,0.27-6.5,0.81c-6.32,1.61-11.58,5.25-14.81,10.26
		l-2.45,3.61c-0.91,1.67-3.37,3.78-6.74,4.59c-1.04,0.26-2.09,0.39-3.12,0.39c-0.01,0-0.03,0-0.04,0c-1.76,0-3.48-0.42-4.72-1.16
		l-3.02-1.68c-0.03-0.02-0.06-0.04-0.1-0.06c-3.49-2.15-7.7-3.29-12.15-3.3c-2.16,0-4.34,0.27-6.5,0.81
		c-1.79,0.45-3.29,1.57-4.24,3.15c-0.95,1.58-1.22,3.43-0.77,5.22c0.45,1.79,1.57,3.29,3.15,4.24c1.58,0.95,3.43,1.22,5.22,0.77
		c1.06-0.27,2.15-0.38,3.19-0.4C157.63,216.71,159.45,217.18,160.69,217.98z"/>
	<path style="clip-path:url(#SVGID_00000040569179045064406290000000786732017291796100_);fill:#5B5A5E;" d="M242.37,253.46
		l-24.61-8.92c-0.85-6.37-5.13-12.04-11.61-14.32l-55.56-20.04c-9.18-3.24-19.26,1.58-22.49,10.77
		c-3.24,9.19,1.58,19.26,10.77,22.49l55.57,20.05c6.1,2.15,12.57,0.73,17.2-3.14l25.11,9.1c4.41,1.55,9.25-0.76,10.8-5.17
		C249.1,259.85,246.78,255.02,242.37,253.46"/>
	<path style="clip-path:url(#SVGID_00000040569179045064406290000000786732017291796100_);fill:#FFFFFF;" d="M239.55,272.42
		c-1.21,0-2.43-0.2-3.64-0.62l-23.84-8.64c-5.32,3.83-12.26,4.87-18.47,2.68l-55.58-20.05c-5.06-1.78-9.13-5.44-11.45-10.29
		c-2.32-4.85-2.62-10.32-0.83-15.39c1.79-5.07,5.44-9.14,10.29-11.46c4.85-2.32,10.31-2.62,15.39-0.83L207,227.87
		c6.67,2.35,11.53,7.95,12.98,14.82l23.23,8.42c5.7,2.02,8.7,8.29,6.69,13.99C248.32,269.6,244.07,272.42,239.55,272.42z
		 M211.63,257.83c0.29,0,0.57,0.05,0.85,0.15l25.11,9.1c3.08,1.09,6.5-0.55,7.59-3.65c1.09-3.1-0.54-6.52-3.65-7.62
		c-0.01,0-0.01,0-0.02-0.01l-24.61-8.92c-0.88-0.32-1.5-1.1-1.63-2.02c-0.75-5.69-4.57-10.4-9.96-12.29l-55.58-20.05
		c-3.8-1.34-7.9-1.12-11.55,0.63c-3.65,1.75-6.39,4.81-7.74,8.62c-1.35,3.81-1.12,7.92,0.62,11.57c1.75,3.65,4.81,6.39,8.62,7.74
		l55.58,20.05c4.99,1.76,10.65,0.72,14.74-2.71C210.48,258.03,211.05,257.83,211.63,257.83z"/>
	<path style="clip-path:url(#SVGID_00000040569179045064406290000000786732017291796100_);fill:#FFFFFF;" d="M247.54,264.26
		c1.56-4.41-0.76-9.25-5.17-10.8l-14.32-5.19c-3.85-0.46-7.64,1.78-8.98,5.59c-1.55,4.41,0.76,9.25,5.17,10.8
		c0,0-0.01,0.08-0.04,0.23l12.53,4.54C241.15,270.99,245.99,268.68,247.54,264.26"/>
	<path style="clip-path:url(#SVGID_00000040569179045064406290000000786732017291796100_);fill:#FFFFFF;" d="M239.56,270.42
		c-1,0-2.01-0.17-2.99-0.51l-12.54-4.54c-0.17-0.06-0.28-0.2-0.32-0.36c-2.09-0.84-3.77-2.41-4.75-4.45
		c-1.03-2.16-1.17-4.59-0.37-6.85c1.4-3.99,5.31-6.43,9.51-5.92c0.04,0,0.08,0.01,0.11,0.03l14.32,5.19
		c2.26,0.79,4.07,2.42,5.11,4.58c1.03,2.16,1.17,4.6,0.37,6.85l0,0c-0.8,2.26-2.42,4.08-4.59,5.11
		C242.2,270.13,240.88,270.42,239.56,270.42z M224.73,264.55l12.18,4.41c2,0.71,4.17,0.59,6.09-0.33c1.92-0.92,3.37-2.53,4.08-4.54
		l0,0c0.71-2.01,0.59-4.17-0.33-6.09c-0.92-1.92-2.53-3.37-4.54-4.08l-14.26-5.17c-3.71-0.41-7.15,1.74-8.4,5.27
		c-0.71,2.01-0.59,4.17,0.33,6.09c0.92,1.92,2.53,3.37,4.54,4.07C224.58,264.25,224.7,264.39,224.73,264.55z"/>
	<path style="clip-path:url(#SVGID_00000040569179045064406290000000786732017291796100_);fill:#FFFFFF;" d="M206.16,230.22
		L177.7,219.9c-8.52-1.79-17.27,2.94-20.24,11.38c-1.22,3.44-1.3,7.01-0.44,10.3l26.2,9.76c-0.86-3.29-0.78-6.85,0.44-10.3
		c3.24-9.18,13.31-14,22.49-10.77l0.03-0.05C206.18,230.23,206.17,230.22,206.16,230.22"/>
	<path style="clip-path:url(#SVGID_00000040569179045064406290000000786732017291796100_);fill:#FFFFFF;" d="M183.22,251.84
		c-0.06,0-0.12-0.01-0.17-0.03l-26.2-9.76c-0.15-0.06-0.27-0.18-0.31-0.34c-0.91-3.5-0.76-7.17,0.45-10.59
		c3.01-8.54,11.96-13.57,20.82-11.7l28.52,10.33c0.03,0.01,0.06,0.03,0.09,0.04c0.13,0.07,0.23,0.19,0.26,0.33
		c0.03,0.14,0,0.3-0.09,0.41c-0.13,0.17-0.4,0.28-0.6,0.21c-8.91-3.14-18.71,1.55-21.86,10.46c-1.14,3.24-1.29,6.7-0.43,10.01
		c0.05,0.18-0.01,0.37-0.15,0.5C183.46,251.8,183.34,251.84,183.22,251.84z M157.44,241.21l25.08,9.34
		c-0.66-3.22-0.44-6.54,0.66-9.67c2.67-7.58,9.89-12.29,17.52-12.1l-23.18-8.4c-8.31-1.74-16.76,3.01-19.6,11.07
		C156.82,234.6,156.65,237.97,157.44,241.21z M205.97,230.68c0.01,0,0.02,0.01,0.02,0.01c0,0,0,0,0,0L205.97,230.68z"/>
	<path style="clip-path:url(#SVGID_00000040569179045064406290000000786732017291796100_);fill:#FFFFFF;" d="M247.89,264.33
		c-1.6,4.49-5.81,7.1-9.41,5.82c-3.6-1.28-5.22-5.96-3.62-10.46c1.6-4.49,5.81-7.1,9.41-5.82
		C247.87,255.15,249.49,259.84,247.89,264.33"/>
	<path style="clip-path:url(#SVGID_00000040569179045064406290000000786732017291796100_);fill:#5B5A5E;" d="M240.37,272.97
		c-0.93,0-1.85-0.15-2.73-0.47c-2.43-0.87-4.36-2.89-5.29-5.56c-0.87-2.51-0.82-5.38,0.15-8.09c0.96-2.71,2.74-4.97,5-6.36
		c2.4-1.48,5.17-1.84,7.61-0.97c2.43,0.87,4.36,2.89,5.29,5.56c0.87,2.51,0.82,5.38-0.15,8.09c-0.96,2.71-2.74,4.97-5,6.36
		C243.71,272.48,242.02,272.97,240.37,272.97z M242.37,256.05c-0.73,0-1.5,0.24-2.24,0.69c-1.28,0.79-2.34,2.17-2.91,3.78
		c-0.58,1.62-0.62,3.36-0.13,4.78c0.43,1.24,1.23,2.13,2.24,2.49c1.02,0.36,2.19,0.18,3.3-0.51c1.28-0.79,2.34-2.17,2.92-3.79
		c0.58-1.62,0.62-3.36,0.13-4.78c-0.43-1.24-1.22-2.13-2.23-2.49C243.09,256.11,242.73,256.05,242.37,256.05z"/>
	<path style="clip-path:url(#SVGID_00000040569179045064406290000000786732017291796100_);fill:#FFFFFF;" d="M283.28,198.54
		L283.28,198.54c-4.52-0.01-8.9-1.06-12.78-3.26l-3.13-1.74l-0.5-0.3c-0.65-0.43-1.96-0.9-3.62-0.89c-0.79,0-1.65,0.1-2.53,0.32
		c-2.63,0.64-4.47,2.23-5.05,3.23l-1.74,2.86c-3.56,6.15-9.62,10.43-16.89,12.29c-2.37,0.6-4.76,0.88-7.11,0.89
		c-4.53-0.01-8.92-1.07-12.81-3.29l-3.1-1.72l-0.51-0.3c-0.65-0.43-1.96-0.9-3.62-0.89c-0.79,0-1.64,0.1-2.54,0.32
		c-2.64,0.63-4.48,2.22-5.07,3.27l-0.27,0.41l-1.93,2.79c-3.58,5.98-9.56,10.15-16.71,11.98c-2.37,0.59-4.76,0.89-7.11,0.89
		c-4.51-0.01-8.89-1.06-12.76-3.26h0l-3.14-1.74l-0.5-0.3c-0.65-0.43-1.96-0.9-3.62-0.89c-0.79,0-1.65,0.1-2.53,0.32
		c-5.03,1.26-10.14-1.79-11.4-6.82c-1.27-5.03,1.79-10.14,6.82-11.4c2.38-0.6,4.76-0.89,7.11-0.89c4.78,0.01,9.42,1.18,13.46,3.67
		l2.93,1.63l0.16,0.09c0.68,0.41,1.94,0.81,3.48,0.8c0.79,0,1.65-0.1,2.54-0.32c2.76-0.66,4.63-2.38,5.16-3.41l0.47-0.75l2.04-2.96
		c3.63-5.63,9.42-9.58,16.3-11.33c2.38-0.6,4.77-0.89,7.11-0.89c4.77,0.01,9.4,1.18,13.43,3.65l2.95,1.64l0.17,0.1
		c0.68,0.41,1.93,0.81,3.48,0.8c0.79,0,1.65-0.1,2.54-0.32c2.76-0.66,4.64-2.38,5.16-3.41l0.18-0.3l1.84-3.03
		c3.61-5.8,9.49-9.85,16.5-11.64c2.38-0.6,4.76-0.89,7.11-0.89c4.78,0.01,9.42,1.18,13.46,3.67l2.93,1.63l0.16,0.09
		c0.68,0.41,1.94,0.81,3.48,0.8c0.78,0,1.65-0.1,2.54-0.32"/>
	<path style="clip-path:url(#SVGID_00000040569179045064406290000000786732017291796100_);fill:#5B5A5E;" d="M176.29,227.91
		c-5.12-0.01-9.83-1.22-14-3.59l-3.69-2.08c-0.03-0.02-0.06-0.04-0.09-0.06c-0.19-0.12-0.99-0.47-2.23-0.47
		c-0.64,0-1.28,0.08-1.93,0.25c-3.08,0.78-6.28,0.3-9.01-1.33c-2.73-1.63-4.65-4.23-5.43-7.31c-0.77-3.08-0.3-6.28,1.33-9
		c1.63-2.73,4.23-4.66,7.31-5.43c2.55-0.64,5.15-0.96,7.72-0.96c5.36,0.01,10.45,1.4,14.72,4.01l3.04,1.69
		c0.33,0.2,1.1,0.48,2.25,0.49c0.64,0,1.29-0.08,1.95-0.25c2.07-0.49,3.33-1.74,3.53-2.12c0.02-0.04,0.08-0.14,0.11-0.19l0.47-0.75
		c0.02-0.03,0.04-0.07,0.06-0.1l2.04-2.96c3.86-6,10.18-10.41,17.74-12.33c2.56-0.64,5.16-0.97,7.73-0.97
		c5.35,0.01,10.43,1.39,14.69,3.99l3.1,1.72c0.26,0.15,1.05,0.47,2.21,0.47c0.6-0.03,1.31-0.08,1.96-0.25
		c2.07-0.49,3.33-1.74,3.53-2.11c0.01-0.02,0.05-0.1,0.07-0.12l0.18-0.31l1.87-3.07c3.91-6.27,10.3-10.79,18.02-12.76
		c2.55-0.64,5.15-0.97,7.73-0.97c5.36,0.01,10.45,1.4,14.72,4.01l3.06,1.7c0.31,0.19,1.09,0.48,2.2,0.48c0.02,0,0.04,0,0.05,0
		c0.63,0,1.28-0.08,1.92-0.25c1.33-0.34,2.7,0.48,3.03,1.82c0.34,1.34-0.48,2.7-1.82,3.03c-1.06,0.27-2.1,0.41-3.15,0.4
		c-0.02,0-0.04,0-0.06,0c-1.75,0-3.46-0.42-4.7-1.16l-3.02-1.68c-0.03-0.02-0.06-0.04-0.1-0.06c-3.49-2.15-7.69-3.29-12.15-3.3
		c-2.16,0-4.35,0.27-6.5,0.81c-6.45,1.65-11.78,5.39-14.99,10.54l-1.95,3.22c-0.89,1.68-3.36,3.82-6.77,4.63
		c-1.02,0.26-2.08,0.39-3.12,0.39c-0.01,0-0.03,0-0.04,0c-1.77,0-3.49-0.42-4.72-1.16l-3.05-1.69c-0.03-0.02-0.06-0.04-0.09-0.05
		c-3.49-2.14-7.68-3.28-12.12-3.28c-2.16,0-4.35,0.27-6.5,0.82c-6.32,1.61-11.58,5.25-14.81,10.26l-2.45,3.61
		c-0.91,1.67-3.37,3.78-6.74,4.59c-1.05,0.26-2.11,0.4-3.17,0.39c-1.76,0-3.48-0.42-4.71-1.16l-3.02-1.68
		c-0.03-0.02-0.06-0.04-0.1-0.06c-3.49-2.15-7.69-3.29-12.15-3.3c-2.16,0-4.35,0.27-6.5,0.81c-1.78,0.45-3.29,1.57-4.23,3.15
		c-0.95,1.58-1.22,3.43-0.77,5.22c0.45,1.79,1.57,3.29,3.15,4.24c1.58,0.95,3.43,1.22,5.22,0.77c1.06-0.27,2.13-0.38,3.19-0.4
		c1.83,0,3.66,0.47,4.9,1.27l0.46,0.28l3.07,1.7c3.43,1.95,7.31,2.94,11.55,2.95c2.16,0,4.35-0.28,6.5-0.81
		c6.6-1.69,12-5.54,15.17-10.84c0.03-0.05,0.06-0.09,0.09-0.14l2.13-3.1c0.97-1.63,3.38-3.6,6.62-4.38c1.03-0.26,2.1-0.37,3.12-0.39
		c1.85,0.01,3.68,0.46,4.93,1.27l0.46,0.27l3.03,1.68c3.45,1.97,7.34,2.96,11.6,2.97c2.17,0,4.36-0.27,6.49-0.81
		c6.73-1.72,12.18-5.67,15.33-11.12l1.77-2.91c0.9-1.57,3.31-3.56,6.6-4.36c1.04-0.26,2.12-0.4,3.17-0.39
		c1.84,0,3.66,0.47,4.89,1.27l0.46,0.27l3.07,1.7c3.44,1.96,7.32,2.94,11.56,2.95c1.38,0,2.5,1.12,2.5,2.5c0,1.38-1.12,2.5-2.5,2.5
		c0,0,0,0,0,0c-5.05-0.01-9.89-1.25-14.01-3.59l-3.67-2.06c-0.04-0.02-0.07-0.04-0.1-0.06c-0.19-0.12-0.98-0.47-2.2-0.47
		c-0.69,0.01-1.31,0.08-1.96,0.24c-2.03,0.49-3.29,1.69-3.49,2.05l-1.78,2.92c-3.8,6.57-10.34,11.35-18.4,13.41
		c-2.55,0.64-5.14,0.96-7.72,0.96c-5.14-0.01-9.87-1.23-14.05-3.62l-3.64-2.04c-0.04-0.02-0.07-0.04-0.11-0.07
		c-0.15-0.1-0.96-0.47-2.17-0.47c-0.02,0-0.04,0-0.06,0c-0.63,0-1.27,0.08-1.93,0.25c-2.06,0.5-3.29,1.7-3.51,2.09
		c-0.03,0.04-0.05,0.09-0.08,0.13l-0.27,0.41l-1.91,2.77c-3.86,6.4-10.31,11.04-18.19,13.05
		C181.46,227.58,178.86,227.9,176.29,227.91z"/>
	<path style="clip-path:url(#SVGID_00000040569179045064406290000000786732017291796100_);fill:#FFFFFF;" d="M41.21,284.7V89.55
		c0-5.19,4.2-9.39,9.39-9.39c5.19,0,9.39,4.21,9.39,9.39V284.7c0,5.19-4.21,9.39-9.39,9.39C45.41,294.09,41.21,289.88,41.21,284.7"
		/>
	<path style="clip-path:url(#SVGID_00000040569179045064406290000000786732017291796100_);fill:#5B5A5E;" d="M50.6,296.59
		c-6.56,0-11.89-5.34-11.89-11.89V89.55c0-6.56,5.34-11.89,11.89-11.89S62.5,83,62.5,89.55V284.7
		C62.5,291.25,57.16,296.59,50.6,296.59z M50.6,82.66c-3.8,0-6.89,3.09-6.89,6.89V284.7c0,3.8,3.09,6.89,6.89,6.89
		s6.89-3.09,6.89-6.89V89.55C57.5,85.75,54.4,82.66,50.6,82.66z"/>
	<path style="clip-path:url(#SVGID_00000040569179045064406290000000786732017291796100_);fill:#FFFFFF;" d="M136.75,141.38
		l-82.69-32.69c-4.08-1.61-6.08-6.22-4.46-10.3c1.61-4.08,6.22-6.07,10.3-4.46l82.69,32.69c4.08,1.61,6.07,6.22,4.46,10.3
		c-1.23,3.12-4.22,5.02-7.38,5.02C138.69,141.94,137.71,141.76,136.75,141.38"/>
	<path style="clip-path:url(#SVGID_00000040569179045064406290000000786732017291796100_);fill:#5B5A5E;" d="M139.67,144.44
		C139.67,144.44,139.67,144.44,139.67,144.44c-1.32,0-2.61-0.25-3.84-0.73l-82.69-32.69c-5.35-2.12-7.99-8.19-5.87-13.54
		c2.11-5.35,8.19-7.98,13.54-5.87l82.69,32.69c5.35,2.12,7.98,8.19,5.87,13.54C147.79,141.85,143.98,144.44,139.67,144.44z
		 M56.98,95.87c-2.17,0-4.22,1.3-5.06,3.44c-1.1,2.79,0.27,5.95,3.06,7.06l82.69,32.69c0,0,0,0,0,0c0.64,0.25,1.31,0.38,1.99,0.38
		c0,0,0,0,0,0c2.25,0,4.23-1.35,5.06-3.44c1.1-2.79-0.27-5.95-3.06-7.06L58.97,96.25C58.32,96,57.64,95.87,56.98,95.87z"/>
	<path style="clip-path:url(#SVGID_00000040569179045064406290000000786732017291796100_);fill:#FFFFFF;" d="M136.75,294.64
		l-82.69-32.69c-4.08-1.61-6.08-6.22-4.46-10.3c1.61-4.08,6.22-6.07,10.3-4.46l82.69,32.69c4.08,1.61,6.07,6.22,4.46,10.3
		c-1.23,3.12-4.22,5.02-7.38,5.02C138.69,295.2,137.71,295.02,136.75,294.64"/>
	<path style="clip-path:url(#SVGID_00000040569179045064406290000000786732017291796100_);fill:#5B5A5E;" d="M139.66,297.7
		c-1.31,0-2.6-0.25-3.83-0.73l-82.69-32.69c-5.35-2.12-7.99-8.19-5.87-13.54c1.02-2.59,3-4.63,5.56-5.74
		c2.56-1.11,5.4-1.15,7.99-0.13l82.69,32.69c5.35,2.12,7.98,8.19,5.87,13.54C147.79,295.11,143.98,297.7,139.66,297.7z
		 M56.97,249.13c-0.73,0-1.47,0.15-2.16,0.45c-1.33,0.58-2.36,1.64-2.89,2.99c-1.1,2.79,0.27,5.95,3.06,7.05l82.69,32.69
		c0,0,0,0,0,0c0.64,0.25,1.31,0.38,1.99,0.38c2.25,0,4.23-1.35,5.06-3.44c1.1-2.79-0.27-5.95-3.06-7.05l-82.69-32.69
		C58.33,249.26,57.65,249.13,56.97,249.13z"/>
	<path style="clip-path:url(#SVGID_00000040569179045064406290000000786732017291796100_);fill:#FFFFFF;" d="M163,150.13L163,150.13
		l-3.14-1.74l-0.5-0.3c-0.65-0.43-1.96-0.9-3.62-0.89c-0.79,0-1.65,0.1-2.53,0.32c-5.03,1.26-10.14-1.79-11.4-6.82
		c-1.27-5.03,1.79-10.14,6.82-11.4c2.38-0.6,4.76-0.89,7.11-0.89c4.78,0.01,9.42,1.18,13.46,3.67l2.93,1.63l0.16,0.09
		c0.68,0.4,1.94,0.81,3.48,0.8c0.79,0,1.65-0.1,2.54-0.32c2.76-0.66,4.63-2.38,5.16-3.41l0.47-0.75l2.04-2.96
		c3.63-5.63,9.42-9.58,16.3-11.33c2.38-0.6,4.77-0.89,7.11-0.89c4.77,0.01,9.4,1.18,13.43,3.65l2.95,1.64l0.17,0.1
		c0.68,0.41,1.93,0.81,3.48,0.8c0.79,0,1.65-0.1,2.54-0.32c2.76-0.66,4.64-2.38,5.15-3.41l0.18-0.3l1.85-3.03
		c3.61-5.8,9.49-9.85,16.5-11.64c2.38-0.6,4.76-0.89,7.11-0.89c4.78,0.01,9.42,1.18,13.46,3.67l2.93,1.63l0.16,0.09
		c0.68,0.41,1.94,0.81,3.48,0.8c0.78,0,1.65-0.1,2.54-0.32c2.76-0.66,4.64-2.38,5.15-3.4l0.09-0.16l1.73-2.97l0.11-0.18
		c3.61-5.8,9.49-9.85,16.5-11.64c5.03-1.26,10.13,1.79,11.4,6.82c1.26,5.03-1.79,10.14-6.82,11.4c-2.55,0.62-4.35,2.12-5.01,3.16
		l-1.69,2.89h0c-3.56,6.16-9.62,10.45-16.9,12.31c-2.37,0.59-4.75,0.88-7.1,0.88c-4.52,0-8.9-1.06-12.78-3.26l-3.13-1.74l-0.5-0.3
		c-0.65-0.43-1.96-0.9-3.62-0.89c-0.79,0-1.64,0.1-2.53,0.32c-2.63,0.64-4.48,2.23-5.05,3.23l-1.74,2.86
		c-3.56,6.15-9.62,10.43-16.89,12.29c-2.37,0.6-4.76,0.88-7.11,0.89c-4.53-0.01-8.92-1.06-12.81-3.28l-3.1-1.72l-0.51-0.3
		c-0.65-0.43-1.97-0.9-3.62-0.89c-0.79,0-1.64,0.1-2.54,0.32c-2.64,0.63-4.47,2.22-5.08,3.27l-0.27,0.41l-1.93,2.79
		c-3.58,5.99-9.56,10.15-16.71,11.98c-2.37,0.59-4.76,0.88-7.1,0.89C171.25,153.38,166.88,152.33,163,150.13"/>
	<path style="clip-path:url(#SVGID_00000040569179045064406290000000786732017291796100_);fill:#5B5A5E;" d="M175.77,155.89
		c-5.12-0.01-9.82-1.21-13.99-3.58l-3.7-2.08c-0.03-0.02-0.07-0.04-0.1-0.06c-0.15-0.1-0.94-0.48-2.22-0.47
		c-0.64,0-1.29,0.08-1.93,0.25c-3.09,0.77-6.29,0.3-9.01-1.33c-2.73-1.63-4.65-4.23-5.43-7.31c-0.77-3.08-0.3-6.28,1.33-9
		c1.63-2.73,4.23-4.65,7.31-5.43c2.55-0.64,5.15-0.96,7.72-0.96c5.36,0.01,10.45,1.4,14.72,4.01l3.06,1.7
		c0.3,0.18,1.1,0.48,2.21,0.48c0.6,0.02,1.3-0.08,1.97-0.25c2.07-0.49,3.33-1.74,3.53-2.12c0.02-0.04,0.08-0.15,0.11-0.19l0.47-0.75
		c0.02-0.03,0.04-0.06,0.06-0.1l2.04-2.96c3.86-6,10.18-10.4,17.74-12.33c2.56-0.64,5.15-0.97,7.73-0.97
		c5.35,0.01,10.43,1.39,14.69,3.99l3.08,1.71c0.28,0.17,1.03,0.46,2.24,0.48c0.63,0,1.3-0.08,1.94-0.25
		c2.07-0.49,3.33-1.74,3.53-2.11c0.01-0.02,0.06-0.11,0.07-0.13l0.18-0.3l1.87-3.07c3.91-6.27,10.3-10.79,18.01-12.76
		c2.56-0.64,5.15-0.97,7.73-0.97c5.37,0.01,10.45,1.4,14.72,4.01l3.05,1.7c0.31,0.19,1.1,0.48,2.21,0.48c0.02,0,0.04,0,0.06,0
		c0.62,0,1.27-0.08,1.91-0.25c2.07-0.5,3.33-1.74,3.54-2.11c0.01-0.02,0.05-0.1,0.06-0.12l1.97-3.36
		c3.91-6.27,10.3-10.8,18.02-12.76c3.09-0.78,6.29-0.3,9.01,1.33s4.65,4.23,5.43,7.31c0.77,3.08,0.3,6.28-1.33,9
		s-4.23,4.65-7.31,5.43c-1.96,0.48-3.21,1.6-3.5,2.07l-1.64,2.82c-3.82,6.62-10.37,11.41-18.44,13.47
		c-2.56,0.64-5.15,0.96-7.72,0.96c-5.05-0.01-9.89-1.25-14.01-3.59l-3.67-2.06c-0.03-0.02-0.07-0.04-0.1-0.06
		c-0.19-0.12-0.98-0.47-2.23-0.47c-0.64,0-1.29,0.08-1.94,0.25c-2.03,0.49-3.29,1.69-3.49,2.05l-1.78,2.92
		c-3.8,6.57-10.34,11.35-18.4,13.41c-2.54,0.64-5.14,0.96-7.72,0.96c-5.07-0.01-9.93-1.26-14.05-3.62l-3.64-2.04
		c-0.04-0.02-0.07-0.04-0.11-0.07c-0.15-0.1-0.99-0.48-2.22-0.47c-0.6-0.01-1.29,0.08-1.94,0.25c-2.06,0.5-3.3,1.7-3.52,2.09
		c-0.02,0.04-0.05,0.08-0.07,0.11l-0.27,0.41l-1.92,2.79c-3.86,6.4-10.31,11.03-18.19,13.05
		C180.93,155.56,178.34,155.89,175.77,155.89z M160.69,145.96l0.46,0.28l3.07,1.71c0.01,0,0.01,0.01,0.02,0.01
		c3.41,1.94,7.29,2.93,11.53,2.93c2.16,0,4.34-0.27,6.5-0.81c6.6-1.69,12-5.54,15.17-10.84c0.03-0.05,0.06-0.09,0.09-0.14l2.12-3.09
		c0.97-1.63,3.38-3.61,6.62-4.39c1.03-0.26,2.09-0.38,3.13-0.39c1.83,0.01,3.68,0.46,4.93,1.26l0.46,0.27l3.03,1.68
		c3.44,1.97,7.34,2.96,11.6,2.97c2.17,0,4.36-0.27,6.49-0.81c6.73-1.72,12.18-5.67,15.33-11.12l1.77-2.91
		c0.9-1.57,3.31-3.57,6.6-4.36c1.04-0.26,2.11-0.41,3.17-0.39c1.84,0,3.66,0.47,4.89,1.27l0.45,0.27l3.07,1.7
		c3.44,1.96,7.32,2.95,11.56,2.95c2.16,0,4.34-0.27,6.5-0.81c6.74-1.72,12.19-5.68,15.34-11.13l1.7-2.9
		c0.96-1.53,3.23-3.52,6.58-4.33c1.76-0.44,3.27-1.56,4.21-3.14c0.95-1.58,1.22-3.43,0.77-5.22c-0.45-1.79-1.57-3.29-3.14-4.24
		c-1.58-0.94-3.43-1.22-5.22-0.77c-6.45,1.64-11.78,5.39-14.98,10.54l-0.1,0.16l-1.77,3.03c-0.89,1.68-3.36,3.82-6.77,4.63
		c-1.03,0.26-2.1,0.39-3.13,0.39c-1.79,0.03-3.5-0.41-4.75-1.16l-3.02-1.68c-0.03-0.02-0.07-0.04-0.1-0.06
		c-3.49-2.15-7.69-3.29-12.15-3.3c-2.16,0-4.35,0.27-6.5,0.81c-6.45,1.65-11.78,5.39-14.98,10.54l-1.96,3.22
		c-0.89,1.68-3.36,3.82-6.76,4.63c-1.04,0.26-2.13,0.37-3.17,0.39c-1.77,0-3.49-0.42-4.72-1.16l-3.04-1.69
		c-0.03-0.02-0.06-0.04-0.09-0.06c-3.49-2.14-7.68-3.28-12.12-3.28c-2.16,0-4.35,0.27-6.5,0.81c-6.32,1.61-11.58,5.26-14.81,10.26
		l-2.45,3.61c-0.91,1.67-3.37,3.78-6.74,4.59c-1.05,0.26-2.15,0.39-3.16,0.39c-1.76,0-3.48-0.42-4.72-1.15l-3.02-1.68
		c-0.03-0.02-0.06-0.04-0.1-0.06c-3.49-2.15-7.69-3.29-12.15-3.3c-2.16,0-4.35,0.27-6.5,0.81c-1.79,0.45-3.29,1.57-4.24,3.15
		c-0.95,1.58-1.22,3.43-0.77,5.22c0.45,1.79,1.57,3.29,3.15,4.24c1.58,0.95,3.43,1.22,5.22,0.77c1.06-0.27,2.14-0.39,3.2-0.4
		C157.63,144.7,159.45,145.17,160.69,145.96z"/>
	<path style="clip-path:url(#SVGID_00000040569179045064406290000000786732017291796100_);fill:#5B5A5E;" d="M240.76,103.74
		l-24.61-8.92c-0.85-6.37-5.14-12.04-11.61-14.32l-55.56-20.05c-9.18-3.24-19.25,1.58-22.49,10.77
		c-3.24,9.19,1.58,19.26,10.77,22.49l55.57,20.05c6.1,2.15,12.57,0.73,17.19-3.14l25.11,9.1c4.41,1.55,9.25-0.76,10.8-5.17
		C247.49,110.13,245.17,105.29,240.76,103.74"/>
	<path style="clip-path:url(#SVGID_00000040569179045064406290000000786732017291796100_);fill:#FFFFFF;" d="M237.93,122.69
		c-1.21,0-2.43-0.2-3.63-0.62l-23.84-8.64c-5.32,3.83-12.26,4.87-18.47,2.68L136.4,96.06c-10.45-3.69-15.97-15.21-12.28-25.68
		c3.69-10.47,15.21-15.98,25.68-12.29l55.58,20.05c6.67,2.35,11.53,7.95,12.98,14.82l23.23,8.42c5.7,2.02,8.7,8.29,6.69,13.99
		C246.7,119.87,242.45,122.69,237.93,122.69z M210.01,108.11c0.29,0,0.57,0.05,0.85,0.15l25.11,9.1c3.09,1.09,6.5-0.55,7.6-3.65
		c1.09-3.1-0.54-6.52-3.65-7.62c-0.01,0-0.01,0-0.02-0.01l-24.61-8.92c-0.88-0.32-1.5-1.1-1.63-2.02c-0.75-5.69-4.57-10.4-9.96-12.3
		L148.13,62.8c-7.85-2.77-16.51,1.38-19.29,9.25c-2.77,7.87,1.37,16.53,9.24,19.31l55.58,20.05c4.99,1.76,10.65,0.72,14.74-2.71
		C208.86,108.31,209.43,108.11,210.01,108.11z"/>
	<path style="clip-path:url(#SVGID_00000040569179045064406290000000786732017291796100_);fill:#FFFFFF;" d="M245.93,114.54
		c1.56-4.41-0.76-9.25-5.17-10.8l-14.32-5.19c-3.85-0.46-7.64,1.78-8.98,5.59c-1.55,4.41,0.76,9.25,5.17,10.8
		c0,0-0.01,0.08-0.04,0.23l12.53,4.54C239.54,121.27,244.37,118.95,245.93,114.54"/>
	<path style="clip-path:url(#SVGID_00000040569179045064406290000000786732017291796100_);fill:#FFFFFF;" d="M237.95,120.7
		c-1,0-2.01-0.17-2.99-0.52l-12.54-4.54c-0.17-0.06-0.28-0.2-0.32-0.36c-2.09-0.84-3.77-2.41-4.75-4.45
		c-1.03-2.16-1.17-4.59-0.37-6.85c1.4-3.99,5.32-6.42,9.51-5.92c0.04,0,0.08,0.01,0.11,0.03l14.32,5.19c2.26,0.8,4.07,2.42,5.1,4.59
		c1.04,2.16,1.17,4.6,0.37,6.85c-0.8,2.26-2.43,4.07-4.59,5.11C240.59,120.4,239.27,120.7,237.95,120.7z M223.12,114.83l12.18,4.41
		c2,0.71,4.17,0.59,6.09-0.33c1.92-0.92,3.37-2.53,4.08-4.54c0,0,0,0,0,0c0.71-2.01,0.59-4.17-0.33-6.09
		c-0.92-1.92-2.53-3.37-4.54-4.08l-14.26-5.17c-3.66-0.42-7.17,1.8-8.4,5.27c-0.71,2.01-0.59,4.17,0.33,6.09
		c0.92,1.92,2.53,3.37,4.54,4.07C222.96,114.53,223.08,114.67,223.12,114.83z"/>
	<path style="clip-path:url(#SVGID_00000040569179045064406290000000786732017291796100_);fill:#FFFFFF;" d="M204.54,80.49
		l-28.46-10.31c-8.52-1.79-17.27,2.94-20.24,11.38c-1.22,3.45-1.3,7.01-0.44,10.3l26.2,9.76c-0.86-3.29-0.77-6.85,0.44-10.3
		c3.24-9.18,13.31-14,22.49-10.76l0.03-0.05C204.56,80.5,204.55,80.5,204.54,80.49"/>
	<path style="clip-path:url(#SVGID_00000040569179045064406290000000786732017291796100_);fill:#FFFFFF;" d="M181.61,102.12
		c-0.06,0-0.12-0.01-0.17-0.03l-26.2-9.76c-0.15-0.06-0.27-0.19-0.31-0.34c-0.91-3.5-0.76-7.17,0.45-10.59
		c3.01-8.53,11.96-13.56,20.81-11.7l28.52,10.33c0.03,0.01,0.07,0.03,0.08,0.04c0.13,0.07,0.23,0.18,0.26,0.33
		c0.04,0.14,0.01,0.29-0.08,0.41c-0.13,0.18-0.4,0.3-0.61,0.23c-4.31-1.52-8.97-1.27-13.09,0.7c-4.13,1.98-7.24,5.44-8.76,9.76
		c-1.14,3.24-1.29,6.7-0.43,10.01c0.05,0.18-0.01,0.37-0.15,0.5C181.85,102.07,181.73,102.12,181.61,102.12z M155.83,91.48
		l25.08,9.34c-0.66-3.22-0.44-6.54,0.67-9.67c1.61-4.57,4.9-8.24,9.27-10.33c2.61-1.25,5.44-1.84,8.23-1.78l-23.16-8.39
		c-8.31-1.74-16.76,3.01-19.6,11.07C155.2,84.88,155.04,88.25,155.83,91.48z"/>
	<path style="clip-path:url(#SVGID_00000040569179045064406290000000786732017291796100_);fill:#FFFFFF;" d="M246.28,114.61
		c-1.6,4.49-5.81,7.1-9.41,5.82c-3.6-1.28-5.22-5.96-3.62-10.46c1.6-4.49,5.81-7.1,9.41-5.82
		C246.25,105.43,247.88,110.11,246.28,114.61"/>
	<path style="clip-path:url(#SVGID_00000040569179045064406290000000786732017291796100_);fill:#5B5A5E;" d="M238.75,123.24
		c-0.93,0-1.85-0.15-2.73-0.47c-2.43-0.87-4.36-2.89-5.29-5.56c-0.87-2.51-0.82-5.38,0.15-8.09c0.96-2.71,2.74-4.97,5-6.36
		c2.4-1.48,5.17-1.84,7.61-0.97c2.43,0.87,4.36,2.89,5.29,5.56c0.87,2.51,0.82,5.38-0.14,8.09c0,0,0,0,0,0
		c-0.96,2.71-2.74,4.97-5,6.36C242.1,122.76,240.41,123.24,238.75,123.24z M240.75,106.32c-0.73,0-1.5,0.23-2.24,0.69
		c-1.28,0.79-2.34,2.17-2.91,3.79c-0.58,1.62-0.62,3.36-0.13,4.78c0.43,1.24,1.22,2.13,2.24,2.49c1.01,0.36,2.19,0.18,3.31-0.51
		c1.28-0.79,2.34-2.17,2.92-3.78l0,0c0.58-1.62,0.62-3.36,0.13-4.78c-0.43-1.24-1.22-2.13-2.24-2.49
		C241.48,106.38,241.12,106.32,240.75,106.32z M246.28,114.61L246.28,114.61L246.28,114.61z"/>
	<path style="clip-path:url(#SVGID_00000040569179045064406290000000786732017291796100_);fill:#5B5A5E;" d="M175.59,155.89
		c-5.12-0.01-9.83-1.22-14-3.59l-3.7-2.08c-0.03-0.02-0.06-0.04-0.09-0.06c-0.19-0.12-1.01-0.44-2.22-0.47
		c-0.64,0-1.29,0.08-1.94,0.25c-3.08,0.78-6.28,0.3-9.01-1.33s-4.65-4.23-5.43-7.31c-0.77-3.08-0.3-6.28,1.33-9.01
		c1.63-2.73,4.23-4.65,7.31-5.43c2.55-0.64,5.14-0.96,7.72-0.96c5.36,0.01,10.45,1.4,14.72,4.01l3.07,1.71
		c0.3,0.18,1.1,0.5,2.23,0.47c0.63,0,1.28-0.08,1.95-0.25c2.07-0.49,3.33-1.74,3.53-2.12c0.02-0.04,0.08-0.14,0.1-0.19l0.47-0.75
		c0.02-0.03,0.04-0.07,0.07-0.1l2.04-2.96c3.87-6,10.18-10.41,17.74-12.33c2.55-0.64,5.15-0.97,7.73-0.97
		c5.35,0.01,10.43,1.39,14.69,3.99l3.09,1.72c0.26,0.16,1.05,0.45,2.24,0.48c0.34,0,1.38-0.15,2.1-0.28c0.01,0,0.29-0.07,0.7-0.32
		c1.05-0.62,1.68-0.83,1.97-0.9l1.22,4.85c0,0,0.04-0.01,0.12-0.03c0,0-0.26,0.09-0.77,0.4c-1.22,0.72-2.15,0.9-2.41,0.94
		c-0.39,0.07-2,0.36-2.96,0.35c-1.76,0-3.48-0.42-4.71-1.16l-3.05-1.69c-0.03-0.02-0.06-0.04-0.09-0.06
		c-3.48-2.14-7.67-3.27-12.12-3.28c-2.16,0-4.35,0.27-6.5,0.81c-6.32,1.61-11.58,5.25-14.81,10.26l-2.45,3.61
		c-0.91,1.67-3.37,3.79-6.74,4.59c-1.05,0.26-2.16,0.39-3.16,0.39c-1.76,0-3.48-0.42-4.72-1.15l-3.02-1.68
		c-0.03-0.02-0.06-0.04-0.1-0.06c-3.49-2.15-7.69-3.29-12.15-3.3c-2.16,0-4.35,0.27-6.5,0.81c-1.79,0.45-3.29,1.57-4.24,3.15
		c-0.95,1.58-1.22,3.43-0.77,5.22c0.45,1.79,1.57,3.29,3.15,4.24c1.58,0.95,3.43,1.22,5.22,0.77c1.06-0.27,2.14-0.41,3.2-0.4
		c1.83,0,3.65,0.47,4.89,1.27l0.46,0.28l3.07,1.7c3.43,1.95,7.31,2.94,11.55,2.94c2.16,0,4.34-0.27,6.5-0.81
		c6.6-1.69,12-5.54,15.17-10.84c0.03-0.05,0.06-0.09,0.09-0.14l2.13-3.1c0.97-1.63,3.38-3.6,6.62-4.38
		c1.03-0.26,2.09-0.41,3.13-0.39c0.02,0,0.04,0,0.07,0c1.81,0,3.63,0.47,4.86,1.26l0.46,0.27l3.03,1.68
		c3.45,1.97,7.34,2.96,11.6,2.97c2.17,0,4.35-0.27,6.49-0.81c6.73-1.72,12.18-5.67,15.33-11.12l1.77-2.91
		c0.9-1.57,3.31-3.57,6.6-4.36c1.04-0.26,2.1-0.4,3.16-0.39c1.84,0,3.67,0.47,4.9,1.27l0.45,0.27l3.07,1.7
		c3.44,1.96,7.32,2.95,11.57,2.95c2.16,0,4.34-0.27,6.49-0.81c1.34-0.33,2.7,0.48,3.03,1.82c0.33,1.34-0.48,2.7-1.82,3.03
		c-2.54,0.64-5.14,0.96-7.71,0.96c-5.05-0.01-9.89-1.25-14.01-3.59l-3.67-2.06c-0.04-0.02-0.07-0.04-0.11-0.07
		c-0.15-0.1-0.96-0.47-2.2-0.47c-0.01,0-0.02,0-0.03,0c-0.64,0-1.28,0.08-1.93,0.25c-2.03,0.49-3.29,1.69-3.49,2.05l-1.78,2.92
		c-3.8,6.57-10.35,11.35-18.4,13.41c-2.55,0.64-5.14,0.96-7.72,0.96c-5.14-0.01-9.87-1.22-14.05-3.61l-3.64-2.04
		c-0.04-0.02-0.07-0.04-0.1-0.07c-0.19-0.12-0.98-0.47-2.18-0.47c-0.02,0-0.04,0-0.07,0c-0.63,0-1.27,0.08-1.91,0.25
		c-2.06,0.5-3.3,1.71-3.52,2.09c-0.02,0.04-0.05,0.08-0.07,0.12l-0.27,0.41l-1.92,2.78c-3.86,6.4-10.32,11.03-18.19,13.05
		C180.76,155.56,178.16,155.89,175.59,155.89z"/>
	<path style="clip-path:url(#SVGID_00000040569179045064406290000000786732017291796100_);fill:#5B5A5E;" d="M176.1,305.23
		c-5.12-0.01-9.83-1.21-14-3.59l-3.69-2.07c-0.03-0.02-0.07-0.04-0.1-0.06c-0.19-0.12-0.98-0.47-2.19-0.47
		c-0.6,0.01-1.3,0.08-1.97,0.25c-3.08,0.78-6.28,0.3-9-1.33c-2.73-1.63-4.65-4.23-5.43-7.31c-0.77-3.08-0.3-6.28,1.33-9
		c1.63-2.73,4.23-4.65,7.31-5.43c2.55-0.64,5.15-0.96,7.72-0.96c5.37,0.01,10.45,1.4,14.72,4.01l3.05,1.7
		c0.27,0.16,1.09,0.47,2.24,0.48c0.64,0,1.29-0.08,1.94-0.25c2.07-0.49,3.33-1.74,3.53-2.12c0.02-0.04,0.08-0.15,0.11-0.19
		l0.47-0.75c0.02-0.03,0.04-0.07,0.06-0.1l2.04-2.96c3.86-6,10.18-10.41,17.74-12.33c2.55-0.64,5.15-0.97,7.73-0.97
		c5.35,0.01,10.43,1.39,14.69,3.99l3.09,1.71c0.27,0.16,1.06,0.48,2.22,0.48c0.35,0.01,1.27-0.13,2.01-0.26l3.19-0.88
		c1.33-0.37,2.71,0.42,3.07,1.75c0.37,1.33-0.42,2.71-1.75,3.07l-3.29,0.91c-0.07,0.02-0.14,0.04-0.21,0.05
		c-0.47,0.09-2.09,0.33-3.03,0.36c-1.77,0-3.49-0.42-4.72-1.16l-3.05-1.69c-0.03-0.02-0.06-0.04-0.1-0.06
		c-3.49-2.14-7.68-3.28-12.12-3.28c-2.17,0-4.35,0.27-6.5,0.82c-6.33,1.61-11.59,5.25-14.81,10.26l-2.45,3.61
		c-0.91,1.67-3.37,3.79-6.74,4.59c-1.03,0.26-2.08,0.39-3.12,0.39c-1.75,0.02-3.52-0.41-4.76-1.16l-3.02-1.68
		c-0.03-0.02-0.06-0.04-0.1-0.06c-3.49-2.15-7.69-3.29-12.15-3.3c-2.16,0-4.35,0.27-6.5,0.81c-1.79,0.45-3.29,1.56-4.24,3.14
		c-0.95,1.58-1.22,3.43-0.77,5.22c0.45,1.79,1.57,3.29,3.15,4.24c1.58,0.94,3.43,1.22,5.22,0.77c1.07-0.27,2.14-0.38,3.2-0.4
		c1.84,0,3.66,0.47,4.89,1.27l0.46,0.27l3.07,1.71c3.43,1.95,7.31,2.94,11.55,2.94c2.16,0,4.35-0.27,6.5-0.81
		c6.6-1.69,12-5.54,15.17-10.84c0.03-0.05,0.06-0.09,0.09-0.14l2.13-3.1c0.97-1.63,3.38-3.6,6.62-4.38c1.02-0.26,2.07-0.39,3.1-0.39
		c0.03,0,0.06,0,0.09,0c1.82,0,3.64,0.47,4.87,1.27l0.46,0.27l3.03,1.68c3.45,1.97,7.34,2.96,11.6,2.97c2.16,0,4.35-0.28,6.49-0.81
		c1.34-0.34,2.7,0.48,3.03,1.82c0.34,1.34-0.48,2.7-1.82,3.03c-2.54,0.64-5.13,0.96-7.71,0.96c-5.14-0.01-9.87-1.23-14.05-3.61
		l-3.64-2.04c-0.04-0.02-0.07-0.04-0.11-0.07c-0.15-0.1-1-0.45-2.22-0.47c-0.01,0-0.01,0-0.02,0c-0.63,0-1.27,0.08-1.92,0.25
		c-2.06,0.5-3.3,1.7-3.52,2.09c-0.02,0.04-0.05,0.08-0.08,0.12l-0.27,0.41l-1.92,2.78c-3.86,6.4-10.31,11.04-18.19,13.05
		C181.27,304.91,178.67,305.23,176.1,305.23z"/>
	<path style="clip-path:url(#SVGID_00000040569179045064406290000000786732017291796100_);fill:#5B5A5E;" d="M174.85,115.46
		c-0.28,0-0.57-0.05-0.86-0.15l-40.9-14.9c-6.09-2.15-11.54-8.04-13.86-15.02c-0.44-1.31,0.27-2.73,1.58-3.16
		c1.31-0.44,2.73,0.27,3.16,1.58c1.85,5.56,6.1,10.23,10.81,11.89l40.92,14.91c1.3,0.47,1.97,1.91,1.49,3.21
		C176.83,114.83,175.87,115.46,174.85,115.46z"/>
	<path style="clip-path:url(#SVGID_00000040569179045064406290000000786732017291796100_);fill:#5B5A5E;" d="M176.4,265.23
		c-0.28,0-0.57-0.05-0.86-0.15l-40.9-14.9c-6.09-2.15-11.54-8.04-13.86-15.02c-0.44-1.31,0.27-2.73,1.58-3.16
		c1.31-0.44,2.73,0.27,3.16,1.58c1.85,5.56,6.09,10.23,10.81,11.89l40.92,14.91c1.3,0.47,1.97,1.91,1.49,3.2
		C178.38,264.6,177.42,265.23,176.4,265.23z"/>
	<path style="clip-path:url(#SVGID_00000040569179045064406290000000786732017291796100_);fill:#FFFFFF;" d="M134.65,315.38V120.24
		c0-5.19,4.21-9.39,9.39-9.39c5.19,0,9.39,4.21,9.39,9.39v195.14c0,5.19-4.21,9.39-9.39,9.39
		C138.86,324.78,134.65,320.57,134.65,315.38"/>
	<path style="clip-path:url(#SVGID_00000040569179045064406290000000786732017291796100_);fill:#5B5A5E;" d="M144.05,327.28
		c-6.56,0-11.9-5.34-11.9-11.9V120.24c0-6.56,5.34-11.89,11.9-11.89c6.56,0,11.89,5.34,11.89,11.89v195.14
		C155.94,321.94,150.61,327.28,144.05,327.28z M144.05,113.35c-3.8,0-6.9,3.09-6.9,6.89v195.14c0,3.8,3.09,6.9,6.9,6.9
		c3.8,0,6.89-3.09,6.89-6.9V120.24C150.94,116.44,147.85,113.35,144.05,113.35z"/>
	<path style="clip-path:url(#SVGID_00000040569179045064406290000000786732017291796100_);fill:#5B5A5E;" d="M217.07,86.08
		c-0.79,0-1.56-0.37-2.04-1.06c-2.59-3.68-6.65-5.87-7.52-6.21c-1.45-0.58-8.93-3.44-9-3.47c-1.29-0.49-1.93-1.94-1.44-3.23
		s1.94-1.93,3.23-1.44c0.31,0.12,7.59,2.9,9.07,3.5c1.49,0.59,6.48,3.34,9.75,7.98c0.8,1.13,0.53,2.69-0.6,3.48
		C218.07,85.93,217.57,86.08,217.07,86.08z"/>
	<path style="clip-path:url(#SVGID_00000040569179045064406290000000786732017291796100_);fill:#5B5A5E;" d="M217.82,234.68
		c-0.71,0-1.42-0.3-1.92-0.89c-2.36-2.82-5.62-4.75-6.74-5.2c-1.44-0.58-8.92-3.44-9-3.47c-1.29-0.49-1.93-1.94-1.44-3.23
		c0.49-1.29,1.94-1.93,3.23-1.44c0.31,0.12,7.59,2.91,9.07,3.5c1.91,0.77,5.8,3.16,8.71,6.63c0.89,1.06,0.75,2.63-0.31,3.52
		C218.96,234.49,218.39,234.68,217.82,234.68z"/>
	<path style="clip-path:url(#SVGID_00000040569179045064406290000000786732017291796100_);fill:#5B5A5E;" d="M236.89,99.3
		c-0.28,0-0.57-0.05-0.85-0.15l-16.13-5.82c-0.68-0.25-1.22-0.78-1.49-1.45c-0.37-0.97-1.45-3.69-1.94-4.65
		c-0.63-1.23-0.16-2.73,1.07-3.37c1.23-0.64,2.74-0.16,3.37,1.07c0.49,0.95,1.27,2.87,1.75,4.08l15.06,5.43
		c1.3,0.47,1.97,1.9,1.5,3.2C238.87,98.67,237.91,99.3,236.89,99.3z"/>
	<path style="clip-path:url(#SVGID_00000040569179045064406290000000786732017291796100_);fill:#5B5A5E;" d="M237.18,248.52
		c-0.27,0-0.54-0.04-0.81-0.14l-14.89-5.12c-0.81-0.28-1.43-0.96-1.62-1.8c-0.01-0.02-0.83-3.35-3.66-7.28
		c-0.81-1.12-0.55-2.68,0.57-3.49c1.12-0.81,2.68-0.55,3.49,0.57c2.28,3.18,3.48,6.05,4.05,7.68l13.68,4.71
		c1.31,0.45,2,1.87,1.55,3.18C239.19,247.87,238.22,248.52,237.18,248.52z"/>
</g>
</svg>
