<?xml version="1.0" encoding="iso-8859-1"?>
<!-- Generator: Adobe Illustrator 25.4.1, SVG Export Plug-In . SVG Version: 6.00 Build 0)  -->
<svg version="1.1" id="Calque_1" xmlns="http://www.w3.org/2000/svg" xmlns:xlink="http://www.w3.org/1999/xlink" x="0px" y="0px"
	 viewBox="0 0 368.5 368.5" style="enable-background:new 0 0 368.5 368.5;" xml:space="preserve">
<g>
	<path style="fill:#FFFFFF;" d="M264.206,292.133c-1.832-1.836-3.222-3.946-4.212-6.192l-20.112-20.113
		c-4.198,13.881-0.835,29.582,10.105,40.533l19.634,19.626l14.216-14.218L264.206,292.133z"/>
	<path style="fill:#FFFFFF;" d="M278.689,237.048c-4.165,0-8.23,0.635-12.099,1.84l19.76,19.756c2.525,1.016,4.848,2.532,6.832,4.51
		l19.639,19.635l14.217-14.218l-19.633-19.63C299.73,241.272,289.532,237.048,278.689,237.048"/>
	<path style="fill:#FFFFFF;" d="M196.936,222.884c-2.29-1.006-4.406-2.425-6.23-4.243l-23.765-23.767
		c-1.83-1.838-3.22-3.947-4.207-6.192l-20.116-20.115c-4.197,13.879-0.837,29.577,10.102,40.528l23.767,23.756
		c7.671,7.668,17.867,11.892,28.706,11.892c4.074,0,8.058-0.598,11.852-1.749L196.936,222.884z"/>
	<path style="fill:#FFFFFF;" d="M210.142,151.676c-7.673-7.668-17.867-11.89-28.708-11.89c-4.167,0-8.235,0.637-12.104,1.84
		l19.757,19.757c2.523,1.017,4.843,2.532,6.828,4.511l23.765,23.757c2.004,2.013,3.502,4.342,4.499,6.828l19.744,19.742
		c4.317-13.942,0.993-29.766-10.02-40.786L210.142,151.676z"/>
	<path style="fill:#FFFFFF;" d="M217.783,201.823c-2.017-2.016-4.694-3.127-7.541-3.127c-2.848,0-5.527,1.111-7.544,3.127
		c-2.014,2.016-3.125,4.695-3.125,7.543c0,2.849,1.111,5.528,3.125,7.541l66.097,66.097c2.015,2.016,4.692,3.124,7.543,3.124
		c2.85,0,5.529-1.11,7.546-3.124c4.159-4.159,4.159-10.927,0-15.087L217.783,201.823z"/>
	<path style="fill:#FFFFFF;" d="M99.669,125.62c-2.288-1.007-4.4-2.426-6.224-4.244L69.68,97.611
		c-7.969-7.985-7.971-20.985-0.006-28.977c3.885-3.871,9.029-5.998,14.495-5.998c5.468,0,10.614,2.129,14.487,5.993l23.767,23.759
		c2,2.01,3.496,4.337,4.491,6.82l19.744,19.746c4.315-13.942,0.989-29.763-10.018-40.782l-23.759-23.758
		c-7.675-7.667-17.873-11.891-28.714-11.891c-10.839,0-21.035,4.223-28.707,11.891c-15.816,15.83-15.818,41.588-0.002,57.418
		l23.762,23.757c7.671,7.666,17.865,11.889,28.704,11.889c4.075,0,8.06-0.598,11.854-1.749L99.669,125.62z"/>
	<path style="fill:#FFFFFF;" d="M118.373,102.408c-2.017-2.014-4.698-3.123-7.549-3.123c-2.848,0-5.527,1.109-7.542,3.123
		c-2.014,2.015-3.125,4.696-3.125,7.544c0,2.851,1.111,5.528,3.125,7.541l66.099,66.098c2.014,2.016,4.692,3.126,7.541,3.126
		c2.85,0,5.529-1.111,7.546-3.126c4.158-4.158,4.158-10.927,0-15.088L118.373,102.408z"/>
</g>
</svg>
