<?xml version="1.0" encoding="iso-8859-1"?>
<!-- Generator: Adobe Illustrator 25.4.1, SVG Export Plug-In . SVG Version: 6.00 Build 0)  -->
<svg version="1.1" id="Calque_1" xmlns="http://www.w3.org/2000/svg" xmlns:xlink="http://www.w3.org/1999/xlink" x="0px" y="0px"
	 viewBox="0 0 368.5 368.5" style="enable-background:new 0 0 368.5 368.5;" xml:space="preserve">
<g>
	<path style="fill:#FFFFFF;" d="M155.68,151.795v71.603c3.064,2.43,12.828,6.16,28.794,6.16c15.344,0,24.935-3.442,28.379-5.867
		v-71.697c-7.353,3.27-18.083,4.825-28.379,4.825C173.976,156.819,163.04,155.198,155.68,151.795"/>
	<path style="fill:#FFFFFF;" d="M154.2,69.624c0.934,0.735,1.48,1.858,1.48,3.047v70.232c3.063,2.43,12.828,6.16,28.793,6.16
		c15.345,0,24.935-3.442,28.379-5.867V72.671c0-1.189,0.545-2.312,1.479-3.047c0.936-0.735,2.155-0.997,3.31-0.722l6.502,1.573
		V63.74c-8.971,5.303-24.487,8.052-39.923,8.052c-15.439,0-30.957-2.749-39.929-8.052v6.759l6.599-1.597
		C152.039,68.62,153.265,68.888,154.2,69.624"/>
	<path style="fill:#FFFFFF;" d="M184.22,42.523c-24.894,0-38.846,6.718-39.832,10.538h-0.096c0,3.726,14.093,10.974,39.928,10.974
		c25.831,0,39.923-7.248,39.923-10.974h-0.096C223.061,49.241,209.11,42.523,184.22,42.523 M210.022,53.103
		c0,2.827-11.44,5.112-25.561,5.112c-14.106,0-25.55-2.285-25.55-5.112c0-2.823,11.444-5.106,25.55-5.106
		C198.582,47.997,210.022,50.28,210.022,53.103"/>
	<path style="fill:#FFFFFF;" d="M222.117,313.29l-6.298-1.522c-1.741-0.422-2.967-1.98-2.967-3.77V232.49
		c-7.352,3.269-18.082,4.824-28.378,4.824c-10.498,0-21.434-1.62-28.794-5.024v75.708c0,1.79-1.226,3.348-2.967,3.77l-6.372,1.542
		c4.737,3.709,17.711,8.122,37.879,8.122C204.417,321.432,217.398,317.004,222.117,313.29"/>
	<path style="fill:#FFFFFF;" d="M303.305,97.601l-82.696-20.002v227.347l84.756,20.5c1.529,0.356,3.045,0.541,4.473,0.541
		c9.593,0,13.887-8.067,13.887-16.061V120.907C323.725,110.28,316.092,101.567,303.305,97.601 M271.561,111.669
		c12.84,0,23.286,14.807,23.286,33.009c0,18.206-10.446,33.019-23.286,33.019c-12.842,0-23.291-14.813-23.291-33.019
		C248.27,126.476,258.719,111.669,271.561,111.669 M248.27,263.605c0-18.204,10.449-33.014,23.291-33.014
		c12.84,0,23.286,14.81,23.286,33.014c0,18.205-10.446,33.017-23.286,33.017C258.719,296.622,248.27,281.81,248.27,263.605"/>
	<path style="fill:#FFFFFF;" d="M64.989,97.667c-12.55,3.9-20.183,12.614-20.183,23.24v189.019c0,7.995,4.294,16.062,13.887,16.062
		c1.429,0,2.944-0.186,4.503-0.55l84.728-20.492V77.6L64.989,97.667z M94.579,296.622c-12.839,0-23.284-14.812-23.284-33.017
		c0-18.204,10.445-33.014,23.284-33.014c12.84,0,23.286,14.81,23.286,33.014C117.865,281.81,107.419,296.622,94.579,296.622
		 M94.579,177.697c-12.839,0-23.284-14.813-23.284-33.019c0-18.201,10.445-33.009,23.284-33.009
		c12.84,0,23.286,14.808,23.286,33.009C117.865,162.884,107.419,177.697,94.579,177.697"/>
	<path style="fill:#FFFFFF;" d="M271.561,291.451c4.848,0,9.246-2.959,12.5-7.742c-1.835,1.273-3.837,1.988-5.922,1.988
		c-8.421,0-15.535-11.569-15.535-25.26c0-11.466,4.996-21.413,11.563-24.355c-0.854-0.189-1.72-0.32-2.606-0.32
		c-9.992,0-18.12,12.49-18.12,27.843S261.569,291.451,271.561,291.451"/>
	<path style="fill:#FFFFFF;" d="M271.561,172.526c4.85,0,9.249-2.959,12.504-7.747c-1.837,1.276-3.84,1.991-5.926,1.991
		c-8.421,0-15.535-11.569-15.535-25.261c0-11.46,4.991-21.405,11.555-24.349c-0.851-0.189-1.714-0.32-2.598-0.32
		c-9.992,0-18.12,12.487-18.12,27.838C253.441,160.033,261.569,172.526,271.561,172.526"/>
	<path style="fill:#FFFFFF;" d="M112.694,263.605c0-15.353-8.126-27.843-18.115-27.843c-0.888,0-1.754,0.131-2.607,0.32
		c6.566,2.943,11.558,12.891,11.558,24.354c0,13.692-7.112,25.261-15.531,25.261c-2.081,0-4.082-0.714-5.917-1.985
		c3.254,4.78,7.652,7.739,12.497,7.739C104.568,291.451,112.694,278.958,112.694,263.605"/>
	<path style="fill:#FFFFFF;" d="M112.694,144.678c0-15.351-8.126-27.838-18.115-27.838c-0.885,0-1.749,0.131-2.6,0.32
		c6.562,2.947,11.551,12.889,11.551,24.349c0,13.692-7.112,25.261-15.531,25.261c-2.083,0-4.085-0.715-5.92-1.987
		c3.254,4.784,7.652,7.743,12.5,7.743C104.568,172.526,112.694,160.034,112.694,144.678"/>
</g>
</svg>
