<?xml version="1.0" encoding="iso-8859-1"?>
<!-- Generator: Adobe Illustrator 25.4.1, SVG Export Plug-In . SVG Version: 6.00 Build 0)  -->
<svg version="1.1" id="Calque_1" xmlns="http://www.w3.org/2000/svg" xmlns:xlink="http://www.w3.org/1999/xlink" x="0px" y="0px"
	 viewBox="0 0 368.5 368.5" style="enable-background:new 0 0 368.5 368.5;" xml:space="preserve">
<g>
	<path style="fill:#FFFFFF;" d="M215.887,285.611c-4.586,3.233-7.733,9.811-7.733,17.418c0,10.801,6.33,19.557,14.139,19.557
		c7.808,0,14.138-8.756,14.138-19.557c0-4.597-1.154-8.815-3.074-12.154c-4.002-0.238-7.775-1.076-11.239-2.519L215.887,285.611z
		 M229.639,302.799c0,5.506-3.226,9.969-7.207,9.969c-3.98,0-7.207-4.463-7.207-9.969s3.227-9.97,7.207-9.97
		C226.413,292.829,229.639,297.293,229.639,302.799"/>
	<path style="fill:#FFFFFF;" d="M304.389,258.299c0,5.506-3.226,9.969-7.207,9.969c-2.45,0-4.611-1.695-5.914-4.28l-6.572,4.057
		c2.416,5.987,7.037,10.041,12.347,10.041c7.808,0,14.139-8.755,14.139-19.557c0-2.226-0.282-4.357-0.778-6.35l-6.213,3.835
		C304.316,256.748,304.389,257.511,304.389,258.299"/>
	<path style="fill:#FFFFFF;" d="M79.776,246.57c0,10.801,6.33,19.557,14.138,19.557s14.138-8.756,14.138-19.557
		c0-3.326-0.604-6.454-1.662-9.196l-18.796-8.28C82.962,232.306,79.776,238.916,79.776,246.57 M101.26,246.34
		c0,5.504-3.226,9.968-7.207,9.968c-3.98,0-7.207-4.464-7.207-9.968c0-5.506,3.227-9.97,7.207-9.97
		C98.034,236.37,101.26,240.834,101.26,246.34"/>
	<path style="fill:#FFFFFF;" d="M134.782,123.046c0.001-7.293,0.001-14.482,0.001-20.684l-54.644,29.536v20.685L134.782,123.046z"/>
	<path style="fill:#FFFFFF;" d="M58.8,96.541c3.433,5.088,7.384,11.899,7.323,19.273v83.836c0.865-0.793,1.849-1.541,2.958-2.23
		l6.058-3.826v-77.801c-0.052-10.91-5.563-19.276-8.855-24.275c-0.934-1.366-1.914-3.408-1.793-4.938l2.501,0.078L64.5,86.466
		c0.068-0.878,0.304-1.455,0.975-2.374c0.63-0.812,2.406-3.098,5.803-4.646c1.656-0.824,3.786-1.887,6.182-3.083
		c13.731-6.851,36.711-18.319,43.378-20.854c1.049-0.395,2.008-0.579,3.028-0.582c2.142,0,4.316,0.87,6.482,2.588
		c2.073,1.637,4.078,4.131,5.498,6.841c3.516,6.594,3.952,14.026,3.939,19.762c-0.003,4.696-0.003,49.288-0.003,71.144
		c3.144-0.912,6.138-1.381,9.016-1.417V84.112c-0.016-7.206-0.621-15.697-4.99-23.986c-2.071-3.894-4.708-7.145-7.831-9.652
		c-2.59-2.079-6.794-4.558-12.105-4.56c-2.115,0-4.208,0.394-6.242,1.171c-8.008,3.057-49.002,24.09-50.801,25.013
		c-3.833,2.231-6.294,3.737-8.346,6.297c-1.924,2.364-3.047,5.482-3.016,8.353C55.503,91.042,57.387,94.394,58.8,96.541"/>
	<path style="fill:#FFFFFF;" d="M149.162,160.836c-5.771,0-12.374,2.304-20.187,7.042l-56.178,35.474
		c-1.533,0.953-4.056,2.888-3.951,5.282c0.112,2.562,3.124,5.588,8.062,8.103l147.968,65.185c3.213,1.338,6.881,2.031,10.837,2.031
		c6.686,0,13.766-2.09,18.94-5.589c0.04-0.027,0.081-0.053,0.122-0.079l53.334-32.916c2.415-1.908,5.163-4.853,4.907-8.24
		c-0.21-2.799-2.479-5.619-6.23-7.755l-148.151-66.282c-0.035-0.016-0.07-0.033-0.105-0.05
		C155.487,161.558,152.422,160.836,149.162,160.836"/>
</g>
</svg>
