<?xml version="1.0" encoding="utf-8"?>
<!-- Generator: Adobe Illustrator 25.4.0, SVG Export Plug-In . SVG Version: 6.00 Build 0)  -->
<svg version="1.1" id="Calque_1" xmlns="http://www.w3.org/2000/svg" xmlns:xlink="http://www.w3.org/1999/xlink" x="0px" y="0px"
	 viewBox="0 0 368.5 368.5" style="enable-background:new 0 0 368.5 368.5;" xml:space="preserve">
<style type="text/css">
	.st0{fill:#FFFFFF;}
</style>
<g>
	<path class="st0" d="M181.64,265.47c0.24,0.25,0.49,0.47,0.76,0.69c0.07,0.06,0.16,0.09,0.24,0.09c0.06,0,0.13-0.02,0.19-0.05
		c0.14-0.08,0.21-0.23,0.19-0.39c-0.45-2.87,0.51-5.81,2.56-7.86l3.85-3.85l1.32-1.32c4.27-4.27,4.55-11.22,0.64-15.82
		c-0.18-0.21-0.41-0.48-0.64-0.71c-0.25-0.25-0.51-0.49-0.78-0.71c-0.07-0.06-0.15-0.09-0.24-0.09c-0.06,0-0.13,0.02-0.19,0.05
		c-0.14,0.08-0.21,0.23-0.19,0.39c0.46,2.88-0.49,5.83-2.54,7.88l-3.85,3.85l-1.32,1.32c-4.54,4.54-4.55,11.94-0.03,16.49
		L181.64,265.47z"/>
	<path class="st0" d="M193.15,257.17l-0.63,0.63c-2.16,2.17-2.17,5.69-0.01,7.87c0.13,0.13,0.25,0.24,0.38,0.35
		c0.03,0.03,0.07,0.04,0.12,0.04c0.03,0,0.06-0.01,0.09-0.02c0.07-0.04,0.1-0.11,0.09-0.19c-0.21-1.37,0.24-2.77,1.22-3.75
		l1.84-1.84l0.63-0.63c2.04-2.04,2.17-5.35,0.3-7.55c-0.1-0.11-0.2-0.23-0.3-0.34c-0.12-0.12-0.24-0.23-0.37-0.34
		c-0.03-0.03-0.07-0.04-0.12-0.04c-0.03,0-0.06,0.01-0.09,0.02c-0.07,0.04-0.1,0.11-0.09,0.19c0.22,1.37-0.24,2.78-1.21,3.76
		L193.15,257.17z"/>
	<path class="st0" d="M168.68,266.01c0.03,0.03,0.07,0.04,0.12,0.04c0.03,0,0.06-0.01,0.09-0.02c0.07-0.04,0.1-0.11,0.09-0.18
		c-0.21-1.37,0.24-2.77,1.22-3.75l1.84-1.84l0.63-0.63c2.04-2.04,2.17-5.35,0.31-7.54c-0.1-0.11-0.2-0.23-0.31-0.34
		c-0.12-0.12-0.24-0.23-0.37-0.34c-0.03-0.03-0.07-0.04-0.11-0.04c-0.03,0-0.06,0.01-0.09,0.03c-0.07,0.04-0.1,0.11-0.09,0.18
		c0.22,1.38-0.24,2.78-1.21,3.76l-1.84,1.84l-0.63,0.63c-2.16,2.16-2.17,5.69-0.01,7.86C168.44,265.8,168.55,265.9,168.68,266.01"/>
</g>
<path class="st0" d="M277.8,54.39c0-6.54-6.1-11.87-13.6-11.87H104.36c-7.5,0-13.6,5.33-13.6,11.87l-0.05,238.49
	c0,15.62,38.41,33.1,93.52,33.1c55.11,0,93.52-17.49,93.52-33.18l-0.03-0.4L277.8,54.39z M161.31,230.55h45.9
	c-0.09,7.41-0.15,14.88-0.15,22.45c0,6.81,0.05,13.53,0.13,20.2h-45.88V230.55z M200.52,311.03H167.9
	c-6.36,0-11.51-5.15-11.51-11.51c0-6.36,5.15-11.52,11.51-11.52h32.62c6.36,0,11.51,5.16,11.51,11.52
	C212.03,305.88,206.88,311.03,200.52,311.03z"/>
</svg>
