<?xml version="1.0" encoding="utf-8"?>
<!-- Generator: Adobe Illustrator 25.4.0, SVG Export Plug-In . SVG Version: 6.00 Build 0)  -->
<svg version="1.1" id="Calque_1" xmlns="http://www.w3.org/2000/svg" xmlns:xlink="http://www.w3.org/1999/xlink" x="0px" y="0px"
	 viewBox="0 0 368.5 368.5" style="enable-background:new 0 0 368.5 368.5;" xml:space="preserve">
<style type="text/css">
	.st0{fill:#FFFFFF;}
</style>
<g>
	<path class="st0" d="M157.9,305.65h52.74c6.98,0,12.64-5.66,12.64-12.64v-5.5h-78.01v5.5C145.26,299.99,150.92,305.65,157.9,305.65
		"/>
	<path class="st0" d="M107.67,267.59c0,7.3,5.94,13.24,13.23,13.24h126.72c7.3,0,13.24-5.94,13.24-13.24V90.91H107.67V267.59z
		 M133.01,125.47c0-6.98,5.66-12.64,12.64-12.64h77.24c6.98,0,12.64,5.66,12.64,12.64v119.41c0,6.98-5.66,12.64-12.64,12.64h-77.24
		c-6.98,0-12.64-5.66-12.64-12.64V125.47z"/>
	<path class="st0" d="M107.67,55.76v28.47h153.18V55.76c0-7.3-5.94-13.24-13.24-13.24H120.91
		C113.61,42.52,107.67,48.46,107.67,55.76 M216.93,50.64h29.13c1.52,0,2.75,1.23,2.75,2.75c0,1.52-1.23,2.76-2.75,2.76h-29.13
		c-1.52,0-2.76-1.24-2.76-2.76C214.17,51.87,215.4,50.64,216.93,50.64 M216.93,61.04h29.13c1.52,0,2.75,1.23,2.75,2.75
		c0,1.52-1.23,2.76-2.75,2.76h-29.13c-1.52,0-2.76-1.24-2.76-2.76C214.17,62.27,215.4,61.04,216.93,61.04 M216.93,71.44h29.13
		c1.52,0,2.75,1.23,2.75,2.75c0,1.52-1.23,2.76-2.75,2.76h-29.13c-1.52,0-2.76-1.24-2.76-2.76
		C214.17,72.67,215.4,71.44,216.93,71.44 M168.71,50.64h29.13c1.52,0,2.75,1.23,2.75,2.75c0,1.52-1.23,2.76-2.75,2.76h-29.13
		c-1.52,0-2.75-1.24-2.75-2.76C165.96,51.87,167.19,50.64,168.71,50.64 M168.71,61.04h29.13c1.52,0,2.75,1.23,2.75,2.75
		c0,1.52-1.23,2.76-2.75,2.76h-29.13c-1.52,0-2.75-1.24-2.75-2.76C165.96,62.27,167.19,61.04,168.71,61.04 M168.71,71.44h29.13
		c1.52,0,2.75,1.23,2.75,2.75c0,1.52-1.23,2.76-2.75,2.76h-29.13c-1.52,0-2.75-1.24-2.75-2.76
		C165.96,72.67,167.19,71.44,168.71,71.44 M120.5,50.64h29.13c1.52,0,2.76,1.23,2.76,2.75c0,1.52-1.23,2.76-2.76,2.76H120.5
		c-1.52,0-2.75-1.24-2.75-2.76C117.74,51.87,118.97,50.64,120.5,50.64 M120.5,61.04h29.13c1.52,0,2.76,1.23,2.76,2.75
		c0,1.52-1.23,2.76-2.76,2.76H120.5c-1.52,0-2.75-1.24-2.75-2.76C117.74,62.27,118.97,61.04,120.5,61.04 M120.5,71.44h29.13
		c1.52,0,2.76,1.23,2.76,2.75c0,1.52-1.23,2.76-2.76,2.76H120.5c-1.52,0-2.75-1.24-2.75-2.76C117.74,72.67,118.97,71.44,120.5,71.44
		"/>
	<path class="st0" d="M137.81,325.98h92.91c3.55,0,6.43-2.88,6.43-6.43c0-3.55-2.88-6.43-6.43-6.43h-92.91
		c-3.55,0-6.43,2.88-6.43,6.43C131.38,323.11,134.26,325.98,137.81,325.98"/>
	<path class="st0" d="M181.38,208.19c0.59,0.59,1.16,1.12,1.82,1.65c0.16,0.14,0.37,0.21,0.58,0.21c0.15,0,0.31-0.04,0.45-0.12
		c0.33-0.19,0.51-0.56,0.45-0.93c-1.08-6.88,1.21-13.92,6.13-18.83l9.23-9.22l3.15-3.16c10.23-10.23,10.9-26.87,1.53-37.88
		c-0.44-0.51-0.98-1.14-1.53-1.7c-0.61-0.61-1.23-1.18-1.86-1.7c-0.17-0.14-0.37-0.21-0.58-0.21c-0.15,0-0.31,0.04-0.45,0.12
		c-0.33,0.18-0.51,0.56-0.45,0.93c1.09,6.9-1.18,13.95-6.1,18.87l-9.22,9.22l-3.15,3.15c-10.87,10.86-10.9,28.58-0.08,39.5
		L181.38,208.19z"/>
	<path class="st0" d="M208.95,188.31l-1.51,1.51c-5.18,5.18-5.2,13.63-0.03,18.84c0.32,0.32,0.6,0.57,0.91,0.83
		c0.08,0.07,0.18,0.1,0.28,0.1c0.07,0,0.15-0.02,0.22-0.05c0.16-0.09,0.24-0.27,0.21-0.45c-0.51-3.28,0.58-6.63,2.92-8.98l4.4-4.4
		l1.5-1.5c4.88-4.88,5.2-12.82,0.73-18.07c-0.23-0.27-0.47-0.56-0.73-0.81c-0.28-0.28-0.58-0.55-0.89-0.81
		c-0.08-0.07-0.18-0.1-0.28-0.1c-0.07,0-0.15,0.02-0.21,0.06c-0.16,0.09-0.24,0.27-0.21,0.45c0.52,3.29-0.56,6.65-2.91,9
		L208.95,188.31z"/>
	<path class="st0" d="M150.34,209.48c0.08,0.06,0.18,0.1,0.28,0.1c0.07,0,0.15-0.02,0.21-0.06c0.16-0.09,0.24-0.26,0.21-0.44
		c-0.51-3.28,0.58-6.64,2.92-8.98l4.4-4.4l1.5-1.51c4.88-4.88,5.2-12.81,0.73-18.07c-0.23-0.27-0.47-0.56-0.73-0.81
		c-0.29-0.28-0.58-0.56-0.89-0.81c-0.08-0.07-0.18-0.1-0.27-0.1c-0.07,0-0.15,0.02-0.22,0.06c-0.15,0.09-0.24,0.26-0.21,0.44
		c0.52,3.29-0.57,6.66-2.91,9l-4.4,4.4l-1.51,1.5c-5.18,5.18-5.2,13.63-0.03,18.84C149.76,208.97,150.03,209.23,150.34,209.48"/>
	<path class="st0" d="M147.4,245.24h31.79c2.54,0,4.59-2.05,4.59-4.59s-2.05-4.59-4.59-4.59H147.4c-2.54,0-4.59,2.05-4.59,4.59
		S144.86,245.24,147.4,245.24"/>
	<path class="st0" d="M180.68,224.47c-0.91,2.37,0.28,5.02,2.65,5.93l38.02,14.54c0.54,0.21,1.09,0.3,1.64,0.3
		c1.85,0,3.59-1.12,4.29-2.95c0.91-2.36-0.28-5.02-2.65-5.93l-38.02-14.54C184.23,220.92,181.59,222.11,180.68,224.47"/>
</g>
</svg>
