<?xml version="1.0" encoding="iso-8859-1"?>
<!-- Generator: Adobe Illustrator 25.4.1, SVG Export Plug-In . SVG Version: 6.00 Build 0)  -->
<svg version="1.1" id="Calque_1" xmlns="http://www.w3.org/2000/svg" xmlns:xlink="http://www.w3.org/1999/xlink" x="0px" y="0px"
	 viewBox="0 0 368.5 368.5" style="enable-background:new 0 0 368.5 368.5;" xml:space="preserve">
<g>
	<path style="fill:#FFFFFF;" d="M277.801,54.387c0-6.541-6.1-11.867-13.6-11.867H104.358c-7.496,0-13.596,5.326-13.596,11.87
		l-0.047,238.489c0,15.618,38.406,33.105,93.519,33.105c55.109,0,93.515-17.487,93.515-33.181l-0.029-0.397L277.801,54.387z
		 M161.307,230.554h45.904c-0.091,7.414-0.154,14.879-0.154,22.453c0,6.807,0.052,13.53,0.126,20.204h-45.876V230.554z
		 M200.517,311.028h-32.622c-6.364,0-11.513-5.152-11.513-11.51c0-6.361,5.149-11.518,11.513-11.518h32.622
		c6.358,0,11.513,5.157,11.513,11.518C212.03,305.876,206.875,311.028,200.517,311.028z"/>
	<path style="fill:#FFFFFF;" d="M181.642,265.471c0.245,0.248,0.486,0.466,0.758,0.691c0.069,0.059,0.156,0.088,0.242,0.088
		c0.065,0,0.129-0.016,0.188-0.05c0.138-0.078,0.212-0.233,0.187-0.388c-0.45-2.872,0.507-5.81,2.559-7.863l3.852-3.849l1.316-1.318
		c4.27-4.271,4.551-11.219,0.64-15.817c-0.183-0.214-0.408-0.476-0.64-0.709c-0.254-0.253-0.515-0.491-0.776-0.709
		c-0.07-0.059-0.155-0.088-0.243-0.088c-0.064,0-0.129,0.016-0.188,0.051c-0.138,0.077-0.212,0.233-0.187,0.388
		c0.457,2.881-0.494,5.827-2.545,7.878l-3.851,3.851l-1.317,1.317c-4.539,4.536-4.552,11.935-0.031,16.492L181.642,265.471z"/>
	<path style="fill:#FFFFFF;" d="M193.153,257.168l-0.629,0.628c-2.163,2.165-2.171,5.693-0.014,7.867
		c0.134,0.134,0.25,0.24,0.379,0.346c0.033,0.028,0.074,0.041,0.115,0.041c0.031,0,0.062-0.007,0.09-0.022
		c0.065-0.038,0.101-0.112,0.089-0.186c-0.214-1.368,0.242-2.77,1.22-3.75l1.837-1.837l0.628-0.627
		c2.037-2.039,2.17-5.352,0.305-7.545c-0.096-0.112-0.198-0.232-0.305-0.339c-0.119-0.118-0.242-0.231-0.371-0.337
		c-0.033-0.028-0.073-0.042-0.115-0.042c-0.031,0-0.062,0.009-0.09,0.024c-0.066,0.037-0.102,0.112-0.089,0.186
		c0.219,1.374-0.235,2.778-1.215,3.758L193.153,257.168z"/>
	<path style="fill:#FFFFFF;" d="M168.684,266.01c0.033,0.026,0.074,0.041,0.116,0.041c0.03,0,0.061-0.007,0.089-0.024
		c0.066-0.037,0.101-0.111,0.089-0.184c-0.215-1.369,0.242-2.771,1.221-3.752l1.837-1.836l0.627-0.628
		c2.038-2.037,2.171-5.35,0.305-7.544c-0.096-0.113-0.198-0.232-0.305-0.339c-0.119-0.118-0.241-0.232-0.371-0.338
		c-0.033-0.028-0.073-0.042-0.115-0.042c-0.03,0-0.062,0.009-0.089,0.025c-0.065,0.037-0.101,0.111-0.089,0.185
		c0.218,1.375-0.236,2.779-1.215,3.758l-1.836,1.837l-0.629,0.628c-2.164,2.164-2.169,5.692-0.014,7.865
		C168.439,265.797,168.554,265.902,168.684,266.01"/>
</g>
</svg>
