<?xml version="1.0" encoding="iso-8859-1"?>
<!-- Generator: Adobe Illustrator 25.4.1, SVG Export Plug-In . SVG Version: 6.00 Build 0)  -->
<svg version="1.1" id="Calque_1" xmlns="http://www.w3.org/2000/svg" xmlns:xlink="http://www.w3.org/1999/xlink" x="0px" y="0px"
	 viewBox="0 0 368.5 368.5" style="enable-background:new 0 0 368.5 368.5;" xml:space="preserve">
<g>
	<path style="fill:#FFFFFF;" d="M254.523,219.753V110.152c7.29,0.7,13.015,6.859,13.015,14.334v30.907
		c0,8.82,6.612,16.111,15.137,17.215c1.544,7.342,8.053,12.853,15.85,12.853h14.974v-7.268h10.957c1.447,0,2.614-1.167,2.614-2.61
		c0-1.445-1.167-2.614-2.614-2.614h-10.957v-7.162h10.957c1.447,0,2.614-1.172,2.614-2.612c0-1.447-1.167-2.617-2.614-2.617h-10.957
		v-7.521h-14.974c-7.7,0-14.136,5.383-15.781,12.586c-4.743-1.003-8.313-5.215-8.313-10.25v-30.907
		c0-11.276-8.814-20.507-19.908-21.227V81.302c0-7.595-6.155-13.75-13.746-13.75c-7.598,0-13.753,6.155-13.753,13.75v147.275
		c7.636-5.536,16.991-8.841,27.122-8.841C254.274,219.736,254.395,219.753,254.523,219.753"/>
	<path style="fill:#FFFFFF;" d="M189.455,67.551c-7.6,0-13.755,6.155-13.755,13.751v163.892c0,7.594,6.155,13.753,13.755,13.753
		c7.593,0,13.744-6.159,13.744-13.753V81.302C203.199,73.706,197.048,67.551,189.455,67.551"/>
	<path style="fill:#FFFFFF;" d="M73.058,81.302v138.777c1.777-0.208,3.577-0.343,5.41-0.343c7.995,0,15.523,2.037,22.095,5.616
		V81.302c0-7.595-6.159-13.751-13.755-13.751C79.211,67.551,73.058,73.707,73.058,81.302"/>
	<path style="fill:#FFFFFF;" d="M151.881,245.194V81.301c0-7.595-6.155-13.75-13.748-13.75c-7.596,0-13.757,6.155-13.757,13.75
		v163.893c0,7.593,6.161,13.753,13.757,13.753C145.726,258.947,151.881,252.787,151.881,245.194"/>
	<path style="fill:#FFFFFF;" d="M219.278,266.088c0,19.225,15.642,34.865,34.868,34.865s34.868-15.64,34.868-34.865
		c0-19.224-15.642-34.863-34.868-34.863S219.278,246.864,219.278,266.088 M254.146,247.349c10.333,0,18.738,8.406,18.738,18.739
		c0,10.333-8.405,18.738-18.738,18.738c-10.335,0-18.743-8.405-18.743-18.738C235.403,255.755,243.811,247.349,254.146,247.349"/>
	<path style="fill:#FFFFFF;" d="M78.468,231.224c-19.223,0-34.863,15.64-34.863,34.863c0,19.226,15.64,34.866,34.863,34.866
		c19.219,0,34.857-15.64,34.857-34.866C113.325,246.864,97.687,231.224,78.468,231.224 M78.468,284.826
		c-10.335,0-18.743-8.406-18.743-18.739c0-10.333,8.408-18.738,18.743-18.738c10.331,0,18.734,8.405,18.734,18.738
		C97.202,276.42,88.799,284.826,78.468,284.826"/>
</g>
</svg>
