<?xml version="1.0" encoding="iso-8859-1"?>
<!-- Generator: Adobe Illustrator 25.4.1, SVG Export Plug-In . SVG Version: 6.00 Build 0)  -->
<svg version="1.1" id="Calque_1" xmlns="http://www.w3.org/2000/svg" xmlns:xlink="http://www.w3.org/1999/xlink" x="0px" y="0px"
	 viewBox="0 0 368.5 368.5" style="enable-background:new 0 0 368.5 368.5;" xml:space="preserve">
<g>
	<path style="fill:#FFFFFF;" d="M158.961,305.653h52.735c6.978,0,12.638-5.658,12.638-12.638v-5.503h-78.009v5.503
		C146.325,299.995,151.983,305.653,158.961,305.653"/>
	<path style="fill:#FFFFFF;" d="M108.738,267.585c0,7.299,5.937,13.239,13.233,13.239h126.715c7.3,0,13.237-5.94,13.237-13.239
		V90.911H108.738V267.585z M134.072,125.468c0-6.978,5.656-12.638,12.636-12.638h77.242c6.98,0,12.637,5.66,12.637,12.638v119.406
		c0,6.976-5.657,12.635-12.637,12.635h-77.242c-6.98,0-12.636-5.659-12.636-12.635V125.468z"/>
	<path style="fill:#FFFFFF;" d="M108.739,55.76v28.465h153.184V55.76c0-7.302-5.936-13.24-13.236-13.24H121.972
		C114.675,42.52,108.739,48.458,108.739,55.76 M217.991,50.637h29.13c1.52,0,2.754,1.232,2.754,2.753
		c0,1.52-1.234,2.756-2.754,2.756h-29.13c-1.522,0-2.755-1.236-2.755-2.756C215.236,51.869,216.469,50.637,217.991,50.637
		 M217.991,61.039h29.13c1.52,0,2.754,1.234,2.754,2.754c0,1.519-1.234,2.755-2.754,2.755h-29.13c-1.522,0-2.755-1.236-2.755-2.755
		C215.236,62.273,216.469,61.039,217.991,61.039 M217.991,71.441h29.13c1.52,0,2.754,1.23,2.754,2.752
		c0,1.521-1.234,2.757-2.754,2.757h-29.13c-1.522,0-2.755-1.236-2.755-2.757C215.236,72.671,216.469,71.441,217.991,71.441
		 M169.776,50.637h29.129c1.52,0,2.753,1.232,2.753,2.753c0,1.52-1.233,2.756-2.753,2.756h-29.129c-1.518,0-2.752-1.236-2.752-2.756
		C167.024,51.869,168.258,50.637,169.776,50.637 M169.776,61.039h29.129c1.52,0,2.753,1.234,2.753,2.754
		c0,1.519-1.233,2.755-2.753,2.755h-29.129c-1.518,0-2.752-1.236-2.752-2.755C167.024,62.273,168.258,61.039,169.776,61.039
		 M169.776,71.441h29.129c1.52,0,2.753,1.23,2.753,2.752c0,1.521-1.233,2.757-2.753,2.757h-29.129c-1.518,0-2.752-1.236-2.752-2.757
		C167.024,72.671,168.258,71.441,169.776,71.441 M121.561,50.637h29.131c1.521,0,2.755,1.232,2.755,2.753
		c0,1.52-1.234,2.756-2.755,2.756h-29.131c-1.522,0-2.753-1.236-2.753-2.756C118.808,51.869,120.039,50.637,121.561,50.637
		 M121.561,61.039h29.131c1.521,0,2.755,1.234,2.755,2.754c0,1.519-1.234,2.755-2.755,2.755h-29.131
		c-1.522,0-2.753-1.236-2.753-2.755C118.808,62.273,120.039,61.039,121.561,61.039 M121.561,71.441h29.131
		c1.521,0,2.755,1.23,2.755,2.752c0,1.521-1.234,2.757-2.755,2.757h-29.131c-1.522,0-2.753-1.236-2.753-2.757
		C118.808,72.671,120.039,71.441,121.561,71.441"/>
	<path style="fill:#FFFFFF;" d="M138.875,325.984h92.91c3.548,0,6.426-2.876,6.426-6.426c0-3.547-2.878-6.426-6.426-6.426h-92.91
		c-3.55,0-6.426,2.879-6.426,6.426C132.449,323.108,135.325,325.984,138.875,325.984"/>
	<path style="fill:#FFFFFF;" d="M182.443,208.193c0.588,0.593,1.164,1.115,1.816,1.654c0.165,0.143,0.373,0.213,0.58,0.213
		c0.154,0,0.309-0.04,0.448-0.121c0.331-0.187,0.508-0.557,0.45-0.928c-1.079-6.879,1.213-13.915,6.129-18.833l9.225-9.219
		l3.151-3.156c10.226-10.229,10.901-26.869,1.533-37.883c-0.437-0.51-0.978-1.14-1.533-1.697c-0.607-0.607-1.232-1.177-1.857-1.699
		c-0.17-0.139-0.373-0.211-0.583-0.211c-0.154,0-0.31,0.04-0.45,0.123c-0.331,0.184-0.508,0.557-0.448,0.93
		c1.094,6.899-1.183,13.954-6.096,18.868l-9.222,9.223l-3.154,3.155c-10.871,10.863-10.903,28.582-0.076,39.498L182.443,208.193z"/>
	<path style="fill:#FFFFFF;" d="M210.013,188.308l-1.507,1.505c-5.181,5.185-5.198,13.634-0.034,18.841
		c0.322,0.32,0.599,0.575,0.908,0.829c0.079,0.066,0.177,0.098,0.275,0.098c0.075,0,0.149-0.017,0.217-0.053
		c0.156-0.092,0.241-0.269,0.213-0.446c-0.513-3.277,0.58-6.634,2.923-8.982l4.399-4.398l1.503-1.503
		c4.88-4.882,5.198-12.816,0.731-18.069c-0.23-0.269-0.475-0.556-0.731-0.812c-0.284-0.284-0.58-0.554-0.889-0.808
		c-0.079-0.066-0.175-0.1-0.275-0.1c-0.073,0-0.149,0.021-0.215,0.057c-0.158,0.088-0.244,0.267-0.212,0.446
		c0.523,3.29-0.563,6.652-2.91,8.999L210.013,188.308z"/>
	<path style="fill:#FFFFFF;" d="M151.409,209.485c0.079,0.062,0.177,0.098,0.277,0.098c0.073,0,0.147-0.017,0.215-0.057
		c0.156-0.088,0.241-0.265,0.213-0.442c-0.515-3.277,0.58-6.635,2.923-8.984l4.399-4.398l1.503-1.505
		c4.88-4.878,5.198-12.812,0.731-18.067c-0.23-0.271-0.475-0.556-0.731-0.812c-0.286-0.282-0.578-0.555-0.889-0.81
		c-0.079-0.066-0.175-0.099-0.275-0.099c-0.073,0-0.149,0.02-0.215,0.058c-0.154,0.088-0.241,0.265-0.212,0.444
		c0.521,3.293-0.565,6.656-2.91,8.999l-4.396,4.4l-1.507,1.505c-5.183,5.183-5.196,13.632-0.034,18.837
		C150.822,208.975,151.098,209.227,151.409,209.485"/>
	<path style="fill:#FFFFFF;" d="M148.461,245.237h31.79c2.535,0,4.59-2.055,4.59-4.59s-2.055-4.588-4.59-4.588h-31.79
		c-2.537,0-4.59,2.053-4.59,4.588S145.924,245.237,148.461,245.237"/>
	<path style="fill:#FFFFFF;" d="M181.747,224.473c-0.906,2.369,0.279,5.023,2.648,5.925l38.02,14.538
		c0.541,0.205,1.094,0.303,1.637,0.303c1.849,0,3.592-1.122,4.29-2.953c0.906-2.365-0.28-5.021-2.648-5.925l-38.022-14.538
		C185.294,220.919,182.652,222.108,181.747,224.473"/>
</g>
</svg>
