<?xml version="1.0" encoding="iso-8859-1"?>
<!-- Generator: Adobe Illustrator 25.4.1, SVG Export Plug-In . SVG Version: 6.00 Build 0)  -->
<svg version="1.1" id="Calque_1" xmlns="http://www.w3.org/2000/svg" xmlns:xlink="http://www.w3.org/1999/xlink" x="0px" y="0px"
	 viewBox="0 0 368.5 368.5" style="enable-background:new 0 0 368.5 368.5;" xml:space="preserve">
<g>
	<path style="fill:#FFFFFF;" d="M120.565,257.594h-16.566c-2.925,0-5.299,2.372-5.299,5.299c0,2.928,2.374,5.298,5.299,5.298h16.566
		c9.804,0.017,17.727,7.942,17.748,17.746c0,0.029,0.01,0.058,0.01,0.085c0,0.037-0.01,0.07-0.01,0.107
		c0,11.995,9.721,21.706,21.72,21.716h26.155V297.25h-26.155c-6.143-0.017-11.108-4.992-11.127-11.121
		c0-0.012-0.004-0.029-0.004-0.041c0-0.052,0.016-0.099,0.016-0.151C148.906,270.281,136.223,257.598,120.565,257.594"/>
	<path style="fill:#FFFFFF;" d="M210.139,251.258c-1.658,0.044-3.328,0.075-5.019,0.075c-1.882,0-3.736-0.038-5.578-0.092v27.11
		h10.597V251.258z"/>
	<path style="fill:#FFFFFF;" d="M192.546,284.71v29.061c0,6.735,5.481,12.214,12.216,12.214c6.734,0,12.213-5.479,12.213-12.214
		V284.71H192.546z"/>
	<path style="fill:#FFFFFF;" d="M205.12,244.975c39.36,0,66.791-12.49,66.791-23.698l-0.021-0.284l0.058-169.998
		c0-4.671-4.357-8.475-9.714-8.475H148.072c-5.354,0-9.711,3.804-9.711,8.478l-0.033,170.333
		C138.328,232.485,165.758,244.975,205.12,244.975 M193.451,217.846h23.299c4.541,0,8.223,3.683,8.223,8.226
		c0,4.541-3.682,8.221-8.223,8.221h-23.299c-4.545,0-8.223-3.68-8.223-8.221C185.228,221.529,188.906,217.846,193.451,217.846"/>
</g>
</svg>
