<?xml version="1.0" encoding="iso-8859-1"?>
<!-- Generator: Adobe Illustrator 25.4.1, SVG Export Plug-In . SVG Version: 6.00 Build 0)  -->
<svg version="1.1" id="Calque_1" xmlns="http://www.w3.org/2000/svg" xmlns:xlink="http://www.w3.org/1999/xlink" x="0px" y="0px"
	 viewBox="0 0 368.5 368.5" style="enable-background:new 0 0 368.5 368.5;" xml:space="preserve">
<g>
	<path style="fill:#FFFFFF;" d="M294.721,100.32c0-7.489-6.092-13.585-13.579-13.585H89.496c-7.491,0-13.583,6.096-13.583,13.585
		v181.303h218.808V100.32z M268.724,246.161c0,7.161-5.804,12.969-12.967,12.969H114.881c-7.163,0-12.969-5.808-12.969-12.969
		V123.627c0-7.159,5.806-12.967,12.969-12.967h140.876c7.163,0,12.967,5.808,12.967,12.967V246.161z"/>
	<path style="fill:#FFFFFF;" d="M180.231,206.754c0.708,0.715,1.403,1.344,2.189,1.994c0.2,0.172,0.449,0.256,0.699,0.256
		c0.186,0,0.373-0.048,0.541-0.145c0.399-0.225,0.613-0.672,0.542-1.119c-1.301-8.292,1.463-16.775,7.388-22.703l11.121-11.114
		l3.799-3.806c12.329-12.331,13.141-32.391,1.848-45.669c-0.527-0.615-1.178-1.373-1.848-2.045
		c-0.731-0.731-1.485-1.419-2.239-2.048c-0.204-0.168-0.45-0.255-0.702-0.255c-0.186,0-0.374,0.048-0.542,0.148
		c-0.4,0.223-0.613,0.672-0.541,1.122c1.32,8.317-1.425,16.822-7.349,22.746l-11.116,11.118l-3.803,3.803
		c-13.106,13.097-13.144,34.457-0.091,47.617L180.231,206.754z"/>
	<path style="fill:#FFFFFF;" d="M213.467,182.783l-1.817,1.814c-6.246,6.251-6.266,16.436-0.04,22.714
		c0.388,0.386,0.722,0.693,1.094,0.999c0.096,0.08,0.213,0.118,0.331,0.118c0.091,0,0.18-0.02,0.262-0.063
		c0.188-0.112,0.29-0.325,0.256-0.538c-0.617-3.951,0.7-7.997,3.524-10.828l5.304-5.302l1.812-1.812
		c5.883-5.885,6.266-15.451,0.881-21.783c-0.277-0.325-0.572-0.67-0.881-0.979c-0.343-0.342-0.699-0.667-1.072-0.974
		c-0.095-0.079-0.211-0.12-0.331-0.12c-0.089,0-0.18,0.025-0.259,0.068c-0.191,0.107-0.295,0.322-0.257,0.538
		c0.631,3.967-0.679,8.02-3.508,10.849L213.467,182.783z"/>
	<path style="fill:#FFFFFF;" d="M142.818,208.312c0.096,0.075,0.213,0.118,0.334,0.118c0.088,0,0.177-0.02,0.259-0.068
		c0.188-0.107,0.29-0.32,0.256-0.534c-0.62-3.95,0.7-7.999,3.524-10.83l5.304-5.302l1.812-1.814
		c5.883-5.88,6.266-15.446,0.881-21.781c-0.277-0.327-0.572-0.669-0.881-0.978c-0.345-0.341-0.697-0.67-1.072-0.977
		c-0.095-0.079-0.211-0.12-0.331-0.12c-0.089,0-0.18,0.025-0.259,0.07c-0.186,0.107-0.291,0.321-0.257,0.536
		c0.629,3.969-0.681,8.024-3.508,10.849l-5.299,5.304l-1.816,1.814c-6.249,6.248-6.265,16.434-0.041,22.709
		C142.11,207.697,142.443,208.001,142.818,208.312"/>
	<path style="fill:#FFFFFF;" d="M152.595,245.104h32.623c2.601,0,4.71-2.109,4.71-4.71c0-2.601-2.109-4.708-4.71-4.708h-32.623
		c-2.603,0-4.71,2.107-4.71,4.708C147.885,242.995,149.992,245.104,152.595,245.104"/>
	<path style="fill:#FFFFFF;" d="M217.344,230.029l29.296,14.352c2.336,1.145,5.157,0.179,6.302-2.157
		c1.144-2.336,0.178-5.156-2.159-6.3l-29.296-14.353c-2.337-1.145-5.156-0.18-6.301,2.156
		C214.042,226.063,215.006,228.884,217.344,230.029"/>
	<path style="fill:#FFFFFF;" d="M176.484,223.796c-0.93,2.432,0.286,5.155,2.718,6.08l39.016,14.919
		c0.554,0.211,1.123,0.311,1.679,0.311c1.898,0,3.686-1.151,4.403-3.03c0.93-2.428-0.288-5.153-2.717-6.08l-39.019-14.919
		C180.124,220.149,177.413,221.369,176.484,223.796"/>
	<path style="fill:#FFFFFF;" d="M160.64,219.741c-1.44-2.168-4.363-2.759-6.529-1.317l-34.795,23.111
		c-0.494,0.33-0.905,0.734-1.228,1.188c-1.102,1.545-1.202,3.669-0.088,5.344c1.437,2.166,4.363,2.756,6.528,1.316l34.797-23.112
		C161.496,224.823,162.077,221.907,160.64,219.741"/>
	<path style="fill:#FFFFFF;" d="M320.034,301.328H50.601c-3.859,0-7.016-3.157-7.016-7.016v-0.368c0-3.858,3.157-7.015,7.016-7.015
		h269.433c3.859,0,7.016,3.157,7.016,7.015v0.368C327.05,298.171,323.893,301.328,320.034,301.328"/>
	<path style="fill:#FFFFFF;" d="M320.034,81.582H50.601c-3.859,0-7.016-3.157-7.016-7.016v-0.368c0-3.858,3.157-7.015,7.016-7.015
		h269.433c3.859,0,7.016,3.157,7.016,7.015v0.368C327.05,78.425,323.893,81.582,320.034,81.582"/>
	<path style="fill:#FFFFFF;" d="M52.338,281.873h14.399V86.487H52.338V281.873z M57.536,273.594c0,0.553-0.447,1-1,1s-1-0.447-1-1
		V94.765c0-0.553,0.447-1,1-1s1,0.447,1,1V273.594z M63.54,273.594c0,0.553-0.447,1-1,1c-0.553,0-1-0.447-1-1V94.765
		c0-0.553,0.447-1,1-1c0.553,0,1,0.447,1,1V273.594z"/>
	<path style="fill:#FFFFFF;" d="M303.02,281.873h14.399V86.487H303.02V281.873z M308.218,273.594c0,0.553-0.447,1-1,1
		c-0.553,0-1-0.447-1-1V94.765c0-0.553,0.447-1,1-1c0.553,0,1,0.447,1,1V273.594z M314.222,273.594c0,0.553-0.447,1-1,1
		c-0.553,0-1-0.447-1-1V94.765c0-0.553,0.447-1,1-1c0.553,0,1,0.447,1,1V273.594z"/>
</g>
</svg>
