<?xml version="1.0" encoding="iso-8859-1"?>
<!-- Generator: Adobe Illustrator 25.4.1, SVG Export Plug-In . SVG Version: 6.00 Build 0)  -->
<svg version="1.1" id="Calque_1" xmlns="http://www.w3.org/2000/svg" xmlns:xlink="http://www.w3.org/1999/xlink" x="0px" y="0px"
	 viewBox="0 0 368.5 368.5" style="enable-background:new 0 0 368.5 368.5;" xml:space="preserve">
<g>
	<path style="fill:#FFFFFF;" d="M99.496,234.83h11.305l-0.003-4.85l3.977-28.308c0.173-1.244-0.53-2.57-1.938-2.57l-2.039-0.002
		v-0.031h-11.3L99.496,234.83z"/>
	<path style="fill:#FFFFFF;" d="M88.944,199.069H77.728v0.031l-2.036,0.002c-1.412,0-2.111,1.332-1.939,2.569l3.975,28.315v4.844
		h11.214L88.944,199.069z"/>
	<path style="fill:#FFFFFF;" d="M88.942,238.344H75.366c-1.184,0.188-1.771,1.383-1.613,2.529l3.975,28.313v4.811l11.214-0.001
		V238.344z"/>
	<path style="fill:#FFFFFF;" d="M75.692,277.506c-1.408,0-2.111,1.319-1.939,2.568l4.423,31.515
		c0.008,0.045,0.036,0.076,0.042,0.122c0.502,2.718,2.881,4.79,5.746,4.79h4.978v-38.995H75.692z"/>
	<path style="fill:#FFFFFF;" d="M99.496,273.996h11.302v-4.809l3.975-28.317c0.162-1.149-0.433-2.348-1.629-2.525H99.496V273.996z"
		/>
	<path style="fill:#FFFFFF;" d="M99.496,277.506l-0.001,38.995h5.066c2.87,0,5.247-2.072,5.75-4.791
		c0.008-0.043,0.034-0.076,0.04-0.121l4.422-31.515c0.175-1.242-0.528-2.568-1.936-2.568h-2.039H99.496z"/>
	<path style="fill:#FFFFFF;" d="M88.945,114.887c0-2.915,2.363-5.277,5.277-5.277c2.915,0,5.277,2.362,5.277,5.277v10.457h14.653
		l0.159-2.115V52.283h-11.51H85.728h-11.51l-0.002,70.946l0.158,2.115h14.571V114.887z"/>
	<path style="fill:#FFFFFF;" d="M46.872,123.483c-3.236,1.991-4.242,6.229-2.252,9.468l33.108,53.77v8.835h11.216l0.002-66.699
		l-14.307-0.001l2.279,30.299l-20.576-33.419C54.346,122.498,50.11,121.49,46.872,123.483"/>
	<path style="fill:#FFFFFF;" d="M99.499,195.556h11.3v-8.834l33.111-53.771c1.99-3.24,0.983-7.476-2.254-9.468
		c-3.238-1.993-7.474-0.985-9.468,2.253l-20.576,33.421l2.277-30.298L99.5,128.857L99.499,195.556z"/>
	<path style="fill:#FFFFFF;" d="M198.397,102.768c0-2.331,1.89-4.222,4.222-4.222c2.331,0,4.221,1.891,4.221,4.222v8.472h11.94
		l0.128-1.709v-57.52h-9.33h-13.844h-9.332l-0.002,57.52l0.128,1.709h11.869V102.768z"/>
	<path style="fill:#FFFFFF;" d="M206.839,200.005h9.222l-0.001-3.926l3.223-22.955c0.142-1.007-0.429-2.081-1.569-2.081h-1.654
		v-0.029h-9.221V200.005z"/>
	<path style="fill:#FFFFFF;" d="M206.838,231.761h9.222v-3.9l3.221-22.958c0.137-0.964-0.397-1.97-1.449-2.047h-10.993
		L206.838,231.761z"/>
	<path style="fill:#FFFFFF;" d="M162.406,117.41l26.841,43.594v7.161h9.149l0.002-54.074h-11.655l1.845,24.565l-16.679-27.095
		c-1.617-2.623-5.051-3.443-7.677-1.825C161.609,111.347,160.792,114.784,162.406,117.41"/>
	<path style="fill:#FFFFFF;" d="M206.839,168.165h9.221v-7.161l26.841-43.594c1.616-2.626,0.796-6.063-1.827-7.674
		c-2.624-1.618-6.058-0.798-7.673,1.825l-16.684,27.096l1.848-24.565l-11.725-0.001L206.839,168.165z"/>
	<path style="fill:#FFFFFF;" d="M198.396,171.014h-9.149v0.029h-1.65c-1.145,0-1.713,1.074-1.573,2.081l3.223,22.957v3.924h9.149
		V171.014z"/>
	<path style="fill:#FFFFFF;" d="M198.396,202.856h-10.934c-1.042,0.09-1.571,1.087-1.438,2.051l3.223,22.953v3.902l9.148-0.001
		L198.396,202.856z"/>
	<path style="fill:#FFFFFF;" d="M187.592,234.608c-1.139,0.003-1.708,1.075-1.569,2.079l3.588,25.55
		c0.007,0.038,0.028,0.064,0.032,0.099c0.409,2.208,2.337,3.882,4.659,3.882h4.093v-31.61H187.592z"/>
	<path style="fill:#FFFFFF;" d="M206.838,266.218h4.163c2.328,0,4.254-1.674,4.661-3.886c0.008-0.03,0.03-0.057,0.034-0.095
		l3.585-25.55c0.144-1.004-0.426-2.076-1.563-2.079h-10.88V266.218z"/>
	<path style="fill:#FFFFFF;" d="M293.52,97.881h-8.564l1.364,18.147l-12.325-20.017c-1.193-1.937-3.73-2.543-5.67-1.35
		c-1.938,1.192-2.544,3.733-1.35,5.671l19.83,32.211v5.294h6.714L293.52,97.881z"/>
	<path style="fill:#FFFFFF;" d="M299.85,210.281h3.029c1.72,0,3.143-1.239,3.443-2.871c0.008-0.021,0.023-0.042,0.026-0.066
		l2.65-18.883c0.107-0.742-0.315-1.529-1.154-1.532h-7.993L299.85,210.281z"/>
	<path style="fill:#FFFFFF;" d="M285.581,186.929c-0.838,0.003-1.257,0.79-1.157,1.533l2.651,18.882
		c0.005,0.024,0.022,0.043,0.024,0.069c0.302,1.629,1.727,2.868,3.443,2.868h2.976l0.001-23.352H285.581z"/>
	<path style="fill:#FFFFFF;" d="M293.519,163.465h-8.035c-0.765,0.068-1.157,0.802-1.06,1.515l2.381,16.961v2.883l6.714-0.001
		V163.465z"/>
	<path style="fill:#FFFFFF;" d="M293.52,89.516c0-1.749,1.418-3.166,3.166-3.166c1.749,0,3.167,1.417,3.167,3.166v6.262h8.774
		l0.096-1.265V52.009h-6.895h-10.229h-6.896v42.504l0.094,1.265h8.723V89.516z"/>
	<path style="fill:#FFFFFF;" d="M326.451,100.332c1.192-1.938,0.589-4.479-1.351-5.671c-1.938-1.193-4.475-0.587-5.672,1.35
		l-12.325,20.019l1.366-18.148l-8.617-0.001l-0.001,39.956h6.767v-5.294L326.451,100.332z"/>
	<path style="fill:#FFFFFF;" d="M299.851,184.823h6.767v-2.882l2.38-16.963c0.103-0.715-0.292-1.452-1.064-1.513h-8.083V184.823z"/>
	<path style="fill:#FFFFFF;" d="M299.851,161.363h6.768l-0.001-2.902L309,141.497c0.105-0.742-0.318-1.537-1.16-1.537h-1.222v-0.02
		h-6.767V161.363z"/>
	<path style="fill:#FFFFFF;" d="M293.519,139.94h-6.714v0.02h-1.22c-0.843,0-1.262,0.795-1.161,1.537l2.381,16.964v2.902h6.714
		V139.94z"/>
</g>
</svg>
