<?xml version="1.0" encoding="iso-8859-1"?>
<!-- Generator: Adobe Illustrator 25.4.1, SVG Export Plug-In . SVG Version: 6.00 Build 0)  -->
<svg version="1.1" id="Calque_1" xmlns="http://www.w3.org/2000/svg" xmlns:xlink="http://www.w3.org/1999/xlink" x="0px" y="0px"
	 viewBox="0 0 368.5 368.5" style="enable-background:new 0 0 368.5 368.5;" xml:space="preserve">
<g>
	<path style="fill:#FFFFFF;" d="M188.578,137.771l-6.175-6.134l-10.538,13.777c2.048,1.925,4.208,3.835,6.49,5.722L188.578,137.771z
		"/>
	<path style="fill:#FFFFFF;" d="M133.137,63.943c0.568,0.383,0.901,1.031,0.882,1.716c-0.002,0.08-0.103,4.612,1.034,11.892
		l93.007,92.397l14.754-2.192L136.981,62.618c-1.497-1.529-3.451-2.392-5.383-2.392c-1.059,0-2.587,0.26-3.855,1.5
		c-1.135,1.113-1.647,2.652-1.574,4.26l5.046-2.215C131.845,63.495,132.568,63.56,133.137,63.943"/>
	<path style="fill:#FFFFFF;" d="M299.372,223.944c-0.568,4.057-3.647,7.581-7.932,8.963c1.49,1.491,3.412,2.333,5.319,2.333
		c1.058,0,2.587-0.26,3.854-1.5c1.101-1.077,1.66-2.599,1.576-4.285c-0.088-1.799-0.885-3.554-2.244-4.942L299.372,223.944z"/>
	<path style="fill:#FFFFFF;" d="M309.967,162.926c-0.388,0-0.781,0.029-1.17,0.086l-78.017,11.586
		c6.584,0.934,13.54,1.413,20.872,1.413c31.512-0.001,58.729-8.861,59-8.952c0.765-0.252,1.609-0.02,2.138,0.592
		c0.529,0.609,0.639,1.477,0.279,2.199l-2.204,4.424c3.491-0.695,5.924-3.572,5.479-6.584
		C315.937,164.93,313.255,162.926,309.967,162.926"/>
	<path style="fill:#FFFFFF;" d="M307.442,172.176c-9.139,2.535-31.2,7.834-55.79,7.835c-25.466,0-46.729-5.526-63.196-16.424
		c-31.062-20.556-45.294-46.066-51.764-63.847c-5.199-14.287-6.366-25.821-6.615-31.101L73.032,93.696l128.443,131.253
		l84.797-12.585c0.402-0.059,0.808-0.092,1.212-0.113L307.442,172.176z"/>
	<path style="fill:#FFFFFF;" d="M70.764,126.495c7.937,18.69,21.296,43.266,42.409,64.185l8.935-11.718L70.764,126.495z"/>
	<path style="fill:#FFFFFF;" d="M129.993,205.159c1.432,1.063,2.888,2.108,4.375,3.13c8.999,6.183,19.258,11.041,30.701,14.575
		l-27.302-27.9L129.993,205.159z"/>
	<path style="fill:#FFFFFF;" d="M54.049,91.856c-2.868,2.808-2.526,7.828,0.764,11.19l70.359,71.898l3.213-4.214
		c2.046-2.712,5.019-4.487,8.177-4.966L65.221,92.861c-1.77-1.808-4.123-2.845-6.455-2.845
		C56.938,90.016,55.262,90.669,54.049,91.856"/>
	<path style="fill:#FFFFFF;" d="M213.733,244.623l-17.79,2.641l56.919,58.163c1.769,1.811,4.122,2.847,6.454,2.847
		c1.828,0,3.504-0.654,4.718-1.842c1.348-1.318,2.035-3.178,1.933-5.236c-0.106-2.171-1.065-4.285-2.698-5.953L213.733,244.623z"/>
	<path style="fill:#FFFFFF;" d="M148.573,178.037c-0.289,2.098-1.109,4.19-2.508,6.045l-5.234,6.864l36.746,37.549l17.79-2.64
		L148.573,178.037z"/>
	<path style="fill:#FFFFFF;" d="M288.649,228.45c3.64-0.537,6.233-3.474,5.781-6.546c-0.401-2.71-3.041-4.679-6.274-4.679
		c-0.382,0-0.77,0.029-1.153,0.085L99.508,245.136l-9.79,12.838L288.649,228.45z M198.304,237.509
		c-0.323,1.202-1.412,2.037-2.648,2.037c-0.242,0-0.484-0.032-0.718-0.096c-0.701-0.186-1.294-0.641-1.661-1.275
		c-0.368-0.634-0.465-1.376-0.276-2.084c0.385-1.432,1.93-2.325,3.363-1.941C197.822,234.541,198.694,236.048,198.304,237.509"/>
	<path style="fill:#FFFFFF;" d="M75.111,258.918c0.924,0.698,2.057,1.067,3.278,1.067c2.212,0,4.416-1.17,5.894-3.131l57.797-75.794
		c2.374-3.145,2.136-7.358-0.538-9.378c-0.922-0.694-2.055-1.063-3.275-1.063c-2.213,0-4.418,1.171-5.899,3.132l-57.792,75.791
		C72.201,252.691,72.437,256.902,75.111,258.918 M134.558,175.983c0.381-1.428,1.929-2.325,3.361-1.939
		c0.707,0.189,1.299,0.644,1.666,1.28c0.367,0.634,0.465,1.375,0.273,2.084c-0.32,1.197-1.409,2.033-2.648,2.033
		c-0.24,0-0.48-0.031-0.712-0.093c-0.708-0.19-1.301-0.645-1.667-1.281C134.464,177.432,134.367,176.691,134.558,175.983
		 M79.372,251.668c1.459,0.391,2.331,1.898,1.941,3.36c-0.326,1.203-1.416,2.037-2.652,2.037c-0.239,0-0.478-0.031-0.712-0.093
		c-0.708-0.19-1.3-0.646-1.667-1.282c-0.366-0.635-0.463-1.375-0.272-2.083C76.39,252.182,77.926,251.282,79.372,251.668"/>
</g>
</svg>
