<?xml version="1.0" encoding="iso-8859-1"?>
<!-- Generator: Adobe Illustrator 25.4.1, SVG Export Plug-In . SVG Version: 6.00 Build 0)  -->
<svg version="1.1" id="Calque_1" xmlns="http://www.w3.org/2000/svg" xmlns:xlink="http://www.w3.org/1999/xlink" x="0px" y="0px"
	 viewBox="0 0 368.5 368.5" style="enable-background:new 0 0 368.5 368.5;" xml:space="preserve">
<g>
	<path style="fill:#FFFFFF;" d="M60.944,223.794c-5.562,0-10.324-2.443-12.43-6.376c-1.595-2.98-1.346-6.331,0.699-9.45
		l22.632-27.407c4.891-5.338,9.16-7.879,14.245-9.077l-3.678-3.165c-4.546,1.57-8.864,4.414-13.61,9.594l-22.769,27.569
		l-0.123,0.165c-2.915,4.375-3.263,9.358-0.953,13.674c2.571,4.804,7.924,7.934,14.222,8.43c0.582,0.046,1.169,0.077,1.765,0.077
		h2.337l4.251,21.005c2.246,6.598,7.836,13.217,15.324,13.217h46.113v-38.256H60.944z"/>
	<path style="fill:#FFFFFF;" d="M60.052,119.623c2.049,2.905,5.398,4.64,8.956,4.64c0.084,0,0.164-0.018,0.246-0.02l4.329,6.138
		l2.326,3.296l-4.54,3.202c-2.335,1.646-3.941,4.739-4.194,8.069c-0.211,2.798,0.582,5.281,2.176,6.811l30.438,26.193
		c1.704-0.259,3.44-0.399,5.2-0.399c2.139,0,4.325,0.215,6.519,0.641c2.773-4.965,6.538-9.124,10.954-12.311l-16.368-40.01
		c-1.617-3.032-4.973-4.913-8.784-4.913c-2.177,0-4.279,0.638-5.919,1.797l-4.508,3.179l-2.325-3.297l-4.891-6.932
		c0.653-2.914,0.134-6.081-1.719-8.709L62.41,84.976c-2.047-2.905-5.395-4.639-8.955-4.639c-2.266,0-4.446,0.691-6.304,2.002
		c-4.931,3.478-6.115,10.324-2.636,15.263L60.052,119.623z M77.716,119.938l11.22,15.909c0.413,0.585,0.573,1.294,0.452,2.001
		c-0.122,0.704-0.511,1.32-1.097,1.733c-1.17,0.826-2.916,0.517-3.735-0.644L73.505,123.27c0.626-0.285,1.236-0.608,1.808-1.011
		C76.253,121.596,77.055,120.81,77.716,119.938 M49.476,85.636c1.174-0.827,2.55-1.265,3.979-1.265c2.25,0,4.364,1.095,5.658,2.931
		l15.538,22.021c2.199,3.118,1.452,7.443-1.664,9.64c-1.173,0.827-2.549,1.266-3.979,1.266c-2.249,0-4.365-1.096-5.659-2.93
		L47.812,95.277C45.615,92.158,46.362,87.832,49.476,85.636"/>
	<path style="fill:#FFFFFF;" d="M127.578,200.103c-2.623,0-4.756-2.134-4.756-4.758c0-2.622,2.133-4.756,4.756-4.756
		c0.487,0,0.948,0.095,1.391,0.231v-24.225c-6.149,3.188-11.293,8.289-14.598,14.806c-0.422,0.832-1.363,1.266-2.268,1.049
		c-2.399-0.572-4.792-0.863-7.114-0.863c-15.719,0-29.47,12.077-30.029,26.371l-0.04,0.881c-0.044,0.942-0.132,2.829-0.038,4.02
		h-7.766c-1.349,0-3.736-0.254-4.575-1.96c-0.848-1.727-0.038-4.533,2.109-7.317l16.775-21.538c0.684-0.879,0.526-2.146-0.352-2.831
		c-0.88-0.686-2.147-0.527-2.832,0.352l-16.779,21.546c-3.147,4.079-4.097,8.403-2.541,11.568c0.774,1.574,2.868,4.215,8.195,4.215
		h61.853v-17.022C128.526,200.008,128.065,200.103,127.578,200.103 M97.433,198.362c-2.349,0-4.26-1.911-4.26-4.26
		s1.911-4.259,4.26-4.259c2.348,0,4.259,1.91,4.259,4.259S99.781,198.362,97.433,198.362"/>
	<path style="fill:#FFFFFF;" d="M322.028,283.495l-16.994-41.721l-15.055,6.137c-1.139,0.464-2.338,0.7-3.564,0.7
		c-1.383,0-2.514-0.308-3.45-0.815c-0.375-0.203-0.718-0.437-1.033-0.697c-0.316-0.26-0.604-0.544-0.867-0.847
		c-0.265-0.302-0.504-0.622-0.724-0.954c-0.548-0.829-0.968-1.726-1.317-2.585c-0.58-1.418-0.899-2.863-0.962-4.245
		c-0.001-0.027-0.006-0.056-0.007-0.083c-0.013-0.352-0.009-0.699,0.012-1.041c0.062-1.025,0.276-1.997,0.646-2.877
		c0.586-1.396,1.538-2.532,2.789-3.343c0.417-0.27,0.868-0.504,1.349-0.7l15.058-6.139l-22.611-55.507
		c-0.366-1.038-1.362-3.887-6.131-3.887h-30.931h-3.45h-12.322c-1.016,0-1.975,0.435-2.443,1.107
		c-0.474,0.68-0.482,1.653-0.023,2.891l25.816,63.722c11.769,6.167,20.176,17.999,21.675,32.078c2.187-0.505,4.409-0.76,6.634-0.76
		c13.236,0,24.619,8.828,27.468,20.676c0.273,1.135,0.47,2.297,0.58,3.483c0.003,0.025,0.007,0.05,0.009,0.075h17.398
		c0.615,0,1.443-0.365,2.06-1.033c0.124-0.133,0.253-0.26,0.355-0.419c0.271-0.424,0.405-0.887,0.431-1.379
		c0.002-0.04,0.017-0.076,0.018-0.116C322.447,284.678,322.31,284.104,322.028,283.495"/>
	<path style="fill:#FFFFFF;" d="M321.019,180.631c-0.089-0.526-0.216-1.052-0.383-1.572c-0.084-0.26-0.178-0.519-0.283-0.777
		l-2.8-6.916l-8.404-20.751c-0.954-2.359-2.627-4.256-4.706-5.494c-0.427-0.254-0.871-0.477-1.33-0.674
		c-0.501-0.214-1.02-0.392-1.552-0.533c-0.939-0.249-1.918-0.386-2.923-0.386c-1.457,0-2.889,0.28-4.253,0.832l-0.313,0.127
		l-0.209,0.085c-1.754,0.71-3.27,1.821-4.448,3.235c-0.708,0.849-1.293,1.807-1.736,2.853c-1.182,2.79-1.206,5.87-0.067,8.677
		l11.203,27.667c1.011,2.498,2.839,4.458,5.09,5.685l-0.566-1.439c-0.95-2.424-0.826-5.007,0.142-7.223
		c0.604-1.385,1.539-2.625,2.746-3.593c0.33-0.265,0.688-0.5,1.058-0.722c0.441-0.264,0.903-0.504,1.398-0.698
		c0.206-0.081,0.416-0.146,0.626-0.212c0.493-0.155,0.994-0.266,1.502-0.338c0.434-0.061,0.871-0.102,1.313-0.102
		c2.936,0,5.611,1.326,7.368,3.527c0.585,0.733,1.068,1.564,1.425,2.476l0.071,0.181C321.22,183.27,321.24,181.947,321.019,180.631"
		/>
	<path style="fill:#FFFFFF;" d="M324.501,205.395c-0.025-0.067-0.043-0.136-0.069-0.203l-7.57-19.235
		c-0.096-0.246-0.21-0.481-0.338-0.704c-0.515-0.893-1.276-1.593-2.177-2.029c-0.677-0.327-1.432-0.505-2.222-0.505
		c-0.633,0-1.256,0.119-1.852,0.352c-0.978,0.384-1.771,1.039-2.326,1.846c-0.925,1.345-1.191,3.111-0.551,4.741l7.564,19.237
		c0.566,1.446,0.853,2.957,0.853,4.495c-0.002,1.264-0.2,2.501-0.57,3.674c-0.093,0.293-0.196,0.582-0.309,0.867
		c-1.25,3.131-3.749,5.709-6.975,6.964l-23.464,9.564c-0.16,0.065-0.3,0.145-0.441,0.225c-0.611,0.346-1.053,0.826-1.324,1.472
		c-0.533,1.268-0.41,3.103,0.329,4.912c0.421,1.033,0.805,1.738,1.198,2.219c0.637,0.78,1.295,0.966,2.158,0.966
		c0.658,0,1.304-0.127,1.918-0.377l11.703-4.77l11.703-4.77c4.267-1.679,7.829-4.622,10.324-8.292
		c0.624-0.917,1.181-1.88,1.666-2.88c0.242-0.5,0.466-1.009,0.671-1.527c0.617-1.552,1.063-3.178,1.322-4.85
		c0.173-1.115,0.261-2.249,0.26-3.396C325.982,210.65,325.479,207.962,324.501,205.395"/>
	<path style="fill:#FFFFFF;" d="M297.081,284.605c-2.779-9.414-12.131-16.318-22.958-16.318c-2.668,0-5.336,0.431-7.928,1.283
		c-0.649,0.214-1.358,0.111-1.92-0.278c-0.562-0.388-0.908-1.018-0.937-1.7c-0.833-19.744-16.732-35.211-36.196-35.211
		c-3.089,0-6.106,0.413-9.007,1.165c-9.909,2.568-18.408,9.3-23.25,18.848c-0.456,0.899-1.465,1.371-2.448,1.134
		c-2.602-0.619-5.188-0.934-7.685-0.934c-9.024,0-17.447,3.685-23.449,9.456c-5.292,5.087-8.702,11.794-8.984,19.028
		c-0.065,1.634,0.003,2.754,0.117,3.527c0.201,1.37,0.549,3.542,0.572,3.557l144.497,0.002
		C297.389,287.604,297.241,285.148,297.081,284.605 M209.15,262.318c2.833,0,5.138,2.305,5.138,5.137
		c0,2.834-2.305,5.139-5.138,5.139c-2.833,0-5.138-2.305-5.138-5.139C204.012,264.623,206.317,262.318,209.15,262.318
		 M246.821,249.807c2.018,0,3.66,1.641,3.66,3.658c0,2.019-1.642,3.658-3.66,3.658c-2.017,0-3.657-1.639-3.657-3.658
		C243.164,251.448,244.804,249.807,246.821,249.807 M242.518,267.162c3.426,0,6.215,2.788,6.215,6.214
		c0,3.428-2.789,6.217-6.215,6.217c-3.429,0-6.218-2.789-6.218-6.217C236.3,269.95,239.089,267.162,242.518,267.162
		 M230.272,238.908c2.019,0,3.661,1.64,3.661,3.657c0,2.018-1.642,3.658-3.661,3.658c-2.017,0-3.658-1.64-3.658-3.658
		C226.614,240.548,228.255,238.908,230.272,238.908 M215.309,247.519c0.659-1.122,1.866-1.884,3.258-1.884
		c2.091,0,3.793,1.7,3.793,3.79c0,2.093-1.702,3.795-3.793,3.795c-2.013,0-3.648-1.582-3.768-3.567
		c-0.005-0.076-0.023-0.149-0.023-0.228C214.776,248.727,214.979,248.081,215.309,247.519 M176.589,261.512
		c0.765,0,1.476,0.206,2.112,0.538c1.471,0.768,2.488,2.291,2.488,4.062c0,2.537-2.064,4.601-4.6,4.601
		c-2.537,0-4.601-2.064-4.601-4.601c0-1.771,1.018-3.294,2.489-4.062C175.112,261.718,175.824,261.512,176.589,261.512"/>
	<path style="fill:#FFFFFF;" d="M232.319,151.6c-1.037-1.121-2.164-2.34-3.325-3.689c-0.58-0.675-1.169-1.382-1.76-2.126
		c-0.591-0.745-1.184-1.526-1.772-2.349c-0.588-0.822-1.17-1.686-1.741-2.595c-1.713-2.729-3.319-5.866-4.635-9.529h-3.417H155.93
		c-3.864,0-7.058-3.463-8.229-8.401c-0.311-1.308-0.487-2.713-0.487-4.192c0-1.203,0.975-2.179,2.179-2.179
		c0.736,0,1.383,0.368,1.778,0.926c0.25,0.355,0.4,0.786,0.4,1.253c0,4.853,2.298,8.236,4.359,8.236h59.583h3.403
		c0.128-0.128,0.256-0.257,0.417-0.351c0.193-0.113,0.387-0.257,0.58-0.43c0.772-0.691,1.518-1.848,2.015-3.386
		c0.249-0.769,0.435-1.633,0.532-2.583c0.048-0.474,0.074-0.97,0.074-1.486c0-1.213-0.143-2.334-0.39-3.334
		c-0.743-2.998-2.421-4.9-3.967-4.9h-65.209c-0.162,0-0.325,0.022-0.488,0.064c-0.328,0.084-0.654,0.25-0.972,0.488
		c-0.477,0.357-0.933,0.876-1.335,1.524c-0.268,0.432-0.512,0.921-0.722,1.457c-0.023,0.059-0.056,0.113-0.084,0.169
		c-0.084,0.17-0.182,0.331-0.307,0.473c-1.944,2.214-3.958,5.657-5.886,9.694c-0.723,1.514-1.434,3.111-2.124,4.758
		c-0.46,1.098-0.912,2.218-1.351,3.351c-0.44,1.133-0.868,2.277-1.282,3.425c-0.362,1.001-0.71,2.003-1.049,3
		c-0.243,0.718-0.483,1.434-0.713,2.144c-0.367,1.132-0.716,2.252-1.045,3.348c-0.494,1.646-0.942,3.241-1.337,4.751
		c-0.297,1.133-0.563,2.219-0.795,3.243c-0.233,1.024-0.432,1.987-0.595,2.874c-0.323,1.775-0.5,3.247-0.5,4.304v5.516v51.825v6.9
		v38.257v11.734c0,3.925,1.597,7.484,4.175,10.062c0.644,0.644,1.35,1.227,2.108,1.739c0.757,0.513,1.567,0.954,2.418,1.314
		c1.277,0.541,2.648,0.901,4.082,1.047c0.478,0.049,0.963,0.074,1.454,0.074h2.376c-0.522-0.999-0.802-2.186-0.941-3.415
		c-0.14-1.242-0.137-2.525-0.09-3.697c0.271-6.961,3.05-13.489,7.479-18.858c3.631-4.402,8.367-8.027,13.77-10.453v-27.804v-6.9
		v-42.727v-5.726v-2.019v-6.869c0-2.396-2.606-5.075-5.906-8.468c-3.629-3.73-8.145-8.373-11.448-14.983
		c-0.538-1.075-0.102-2.385,0.975-2.922c1.076-0.536,2.385-0.102,2.923,0.975c3.001,6.005,7.077,10.195,10.674,13.892
		c3.989,4.101,7.139,7.34,7.139,11.506v6.869v4.034v9.921v36.517v6.9v26.16c3.558-1.105,7.319-1.716,11.181-1.716
		c2.303,0,4.665,0.234,7.041,0.695c5.88-10.532,15.848-17.768,27.295-20.097c2.617-0.533,5.312-0.811,8.054-0.811
		c3.619,0,7.126,0.487,10.468,1.385v-5.443l-2.439-6.02l-7.935-19.585l-11.301-27.898c-0.979-2.641-0.789-5.09,0.51-6.954
		c1.277-1.835,3.583-2.976,6.019-2.976h11.73h3.416v-0.981c0-1.701-1.362-3.576-3.318-5.786
		C233.683,153.077,233.021,152.359,232.319,151.6"/>
	<path style="fill:#FFFFFF;" d="M218.567,248.863c-0.311,0-0.564,0.253-0.564,0.563c0,0.313,0.253,0.567,0.564,0.567
		c0.312,0,0.566-0.254,0.566-0.567C219.133,249.116,218.879,248.863,218.567,248.863"/>
	<path style="fill:#FFFFFF;" d="M230.272,241.866c-0.384,0-0.696,0.314-0.696,0.699s0.312,0.7,0.696,0.7
		c0.386,0,0.699-0.315,0.699-0.7S230.658,241.866,230.272,241.866"/>
	<path style="fill:#FFFFFF;" d="M246.821,252.766c-0.384,0-0.698,0.314-0.698,0.699c0,0.386,0.314,0.7,0.698,0.7
		c0.386,0,0.701-0.314,0.701-0.7C247.522,253.08,247.207,252.766,246.821,252.766"/>
</g>
</svg>
