<?xml version="1.0" encoding="iso-8859-1"?>
<!-- Generator: Adobe Illustrator 25.4.1, SVG Export Plug-In . SVG Version: 6.00 Build 0)  -->
<svg version="1.1" id="Calque_1" xmlns="http://www.w3.org/2000/svg" xmlns:xlink="http://www.w3.org/1999/xlink" x="0px" y="0px"
	 viewBox="0 0 368.5 368.5" style="enable-background:new 0 0 368.5 368.5;" xml:space="preserve">
<g>
	<path style="fill:#FFFFFF;" d="M242.297,177.268h-17.8c2.35,1.785,4.547,3.768,6.584,5.907h11.216
		c18.772,0,30.103,4.267,39.157,14.779l34.926,38.619c3.843,4.612,4.743,9.752,2.532,14.472c-2.91,6.213-10.57,10.227-19.514,10.227
		H69.519c-8.144,0-15.117-3.577-18.2-9.336c-2.335-4.363-1.97-9.27,1.023-13.837L85.48,197.97
		c7.162-7.815,13.412-11.535,20.857-13.289l-5.385-4.634c-6.655,2.297-12.979,6.462-19.927,14.046l-33.339,40.366l-0.179,0.242
		c-4.269,6.405-4.778,13.703-1.396,20.021c3.765,7.034,11.603,11.616,20.824,12.343c0.851,0.068,1.711,0.114,2.584,0.114h3.423
		l6.223,30.754c3.288,9.661,11.473,19.353,22.436,19.353h171.105c10.393,0,19.411-7.769,22.439-19.333l6.234-30.83
		c2.157-0.117,4.235-0.423,6.208-0.906c7.649-1.869,13.728-6.376,16.675-12.667c3.191-6.813,1.972-14.378-3.422-20.849
		l-34.957-38.655C273.152,179.261,256.705,177.268,242.297,177.268"/>
	<path style="fill:#FFFFFF;" d="M91.43,129.325l-6.647,4.689c-3.419,2.41-5.771,6.938-6.14,11.814
		c-0.31,4.097,0.852,7.732,3.186,9.973l44.566,38.35c2.495-0.378,5.037-0.584,7.614-0.584c3.132,0,6.333,0.315,9.545,0.939
		c4.06-7.269,9.572-13.359,16.039-18.026l-23.967-58.581c-2.367-4.44-7.281-7.194-12.86-7.194c-3.188,0-6.265,0.934-8.668,2.631
		l-6.6,4.655l-3.405-4.828l-7.16-10.149c0.956-4.267,0.197-8.904-2.518-12.752L71.666,58.018c-2.998-4.254-7.9-6.793-13.112-6.793
		c-3.318,0-6.51,1.013-9.231,2.932c-7.22,5.093-8.953,15.116-3.859,22.348l22.749,32.243c3.001,4.253,7.903,6.793,13.113,6.793
		c0.122,0,0.24-0.026,0.361-0.028l6.338,8.985L91.43,129.325z M52.728,58.984c1.718-1.211,3.733-1.852,5.826-1.852
		c3.294,0,6.39,1.603,8.284,4.291l22.751,32.244c3.219,4.564,2.126,10.897-2.436,14.113c-1.718,1.212-3.733,1.854-5.827,1.854
		c-3.293,0-6.391-1.603-8.287-4.29L50.292,73.101C47.075,68.533,48.168,62.2,52.728,58.984 M90.558,112.607
		c1.376-0.971,2.55-2.122,3.518-3.398l16.429,23.293c0.604,0.857,0.839,1.895,0.661,2.93c-0.179,1.031-0.748,1.932-1.606,2.537
		c-1.713,1.21-4.269,0.757-5.469-0.943L87.91,114.088C88.826,113.67,89.721,113.197,90.558,112.607"/>
	<path style="fill:#FFFFFF;" d="M179.852,195.945c0.421,0,0.763-0.344,0.763-0.769c0-0.421-0.342-0.764-0.763-0.764
		c-0.422,0-0.766,0.343-0.766,0.764C179.086,195.601,179.43,195.945,179.852,195.945"/>
	<path style="fill:#FFFFFF;" d="M195.718,184.929c-0.521,0-0.945,0.425-0.945,0.948c0,0.523,0.424,0.946,0.945,0.946
		c0.522,0,0.947-0.423,0.947-0.946C196.665,185.354,196.24,184.929,195.718,184.929"/>
	<path style="fill:#FFFFFF;" d="M218.153,199.704c-0.522,0-0.947,0.425-0.947,0.95c0,0.521,0.425,0.946,0.947,0.946
		c0.523,0,0.949-0.425,0.949-0.946C219.102,200.129,218.676,199.704,218.153,199.704"/>
	<path style="fill:#FFFFFF;" d="M293.651,232.993c3.079,3.694,4.424,7.461,3.425,9.594c-0.808,1.725-3.375,2.674-7.229,2.674h-2.965
		c-2.802-13.971-16.138-24.516-31.721-24.516c-3.614,0-7.23,0.585-10.746,1.739c-0.878,0.288-1.843,0.149-2.603-0.379
		c-0.76-0.526-1.23-1.38-1.269-2.303c-1.129-26.765-22.683-47.732-49.069-47.732c-18.486,0-35.242,10.395-43.729,27.131
		c-0.618,1.219-1.996,1.853-3.32,1.536c-3.513-0.838-7.017-1.264-10.417-1.264c-23.015,0-43.149,17.683-43.967,38.612l-0.059,1.29
		c-0.065,1.379-0.193,4.141-0.056,5.886h-11.37c-1.975,0-5.471-0.372-6.699-2.87c-1.242-2.528-0.056-6.637,3.088-10.713
		l24.561-31.535c1.001-1.288,0.771-3.143-0.516-4.146c-1.288-1.004-3.144-0.771-4.145,0.515l-24.568,31.547
		c-4.608,5.973-5.999,12.305-3.721,16.939c1.133,2.304,4.199,6.171,12,6.171h211.291c8.044,0,11.28-3.306,12.578-6.079
		c2.058-4.391,0.514-10.179-4.259-15.906l-15.567-18.234c-1.057-1.239-2.923-1.385-4.164-0.328c-1.24,1.059-1.387,2.923-0.328,4.165
		L293.651,232.993z M218.152,205.611c-2.734,0-4.958-2.224-4.958-4.957c0-2.736,2.224-4.961,4.958-4.961
		c2.736,0,4.96,2.225,4.96,4.961C223.113,203.387,220.888,205.611,218.152,205.611 M200.68,185.877c0,2.734-2.226,4.959-4.962,4.959
		c-2.736,0-4.96-2.225-4.96-4.959c0-2.735,2.224-4.961,4.96-4.961C198.454,180.916,200.68,183.142,200.68,185.877 M174.05,219.618
		c0,3.842-3.126,6.966-6.967,6.966c-3.84,0-6.965-3.124-6.965-6.966c0-3.84,3.125-6.965,6.965-6.965
		C170.924,212.653,174.05,215.778,174.05,219.618 M174.708,195.176c0-2.833,2.308-5.138,5.144-5.138
		c2.834,0,5.141,2.305,5.141,5.138c0,2.836-2.307,5.144-5.141,5.144C177.016,200.32,174.708,198.012,174.708,195.176
		 M122.946,211.561c3.438,0,6.236,2.798,6.236,6.236c0,3.439-2.798,6.238-6.236,6.238c-3.439,0-6.238-2.799-6.238-6.238
		C116.708,214.359,119.507,211.561,122.946,211.561 M203.891,227.644c0-4.645,3.781-8.422,8.428-8.422
		c4.646,0,8.425,3.777,8.425,8.422c0,4.648-3.779,8.428-8.425,8.428C207.671,236.072,203.891,232.292,203.891,227.644"/>
</g>
</svg>
