<?xml version="1.0" encoding="iso-8859-1"?>
<!-- Generator: Adobe Illustrator 25.4.1, SVG Export Plug-In . SVG Version: 6.00 Build 0)  -->
<svg version="1.1" id="Calque_1" xmlns="http://www.w3.org/2000/svg" xmlns:xlink="http://www.w3.org/1999/xlink" x="0px" y="0px"
	 viewBox="0 0 368.5 368.5" style="enable-background:new 0 0 368.5 368.5;" xml:space="preserve">
<g>
	<path style="fill:#FFFFFF;" d="M189.326,169.248l0.05-20.64c0-1.358-0.523-2.64-1.484-3.602c-0.956-0.966-2.244-1.499-3.605-1.499
		c-10.697-0.018-19.307-8.613-19.327-19.173c0.02-10.565,8.63-19.175,19.327-19.175c10.7,0.02,19.318,8.61,19.334,19.175
		c0,2.813,2.28,5.089,5.089,5.089c2.808,0,5.089-2.276,5.089-5.089h-0.004c-0.004-16.237-13.236-29.351-29.508-29.351
		c-16.268,0.028-29.501,13.114-29.505,29.351c0.004,14.502,10.559,26.514,24.406,28.916l-0.039,15.998
		c1.71-0.129,3.426-0.203,5.152-0.203C185.979,169.047,187.654,169.123,189.326,169.248"/>
	<polygon style="fill:#FFFFFF;" points="95.762,255.738 80.316,265.916 288.229,265.916 272.795,255.738 	"/>
	<path style="fill:#FFFFFF;" d="M320.767,252.132l-97.543-64.319c-12.579-8.397-25.67-12.655-38.923-12.661
		c-13.182,0.006-25.911,4.147-38.913,12.657l-97.619,64.325c-5.364,3.534-6.852,10.778-3.316,16.146
		c2.162,3.282,5.807,5.241,9.747,5.241c2.279,0,4.492-0.665,6.399-1.924l97.581-64.301c9.114-5.944,17.642-8.83,26.083-8.83
		c8.692,0,17.197,2.87,26.081,8.776l97.587,64.351c1.913,1.263,4.126,1.928,6.404,1.928c3.937,0,7.58-1.958,9.744-5.238
		C327.612,262.918,326.127,255.672,320.767,252.132"/>
</g>
</svg>
