<?xml version="1.0" encoding="iso-8859-1"?>
<!-- Generator: Adobe Illustrator 25.4.1, SVG Export Plug-In . SVG Version: 6.00 Build 0)  -->
<svg version="1.1" id="Calque_1" xmlns="http://www.w3.org/2000/svg" xmlns:xlink="http://www.w3.org/1999/xlink" x="0px" y="0px"
	 viewBox="0 0 368.5 368.5" style="enable-background:new 0 0 368.5 368.5;" xml:space="preserve">
<polygon style="fill:#FFFFFF;" points="245.99,244.425 263.413,239.969 260.074,236.63 242.65,241.085 "/>
<polygon style="fill:#FFFFFF;" points="224.253,222.687 241.676,218.231 238.337,214.892 220.913,219.347 "/>
<polygon style="fill:#FFFFFF;" points="202.514,200.948 219.938,196.492 216.598,193.153 199.175,197.609 "/>
<polygon style="fill:#FFFFFF;" points="180.775,179.211 198.198,174.753 194.858,171.414 177.435,175.87 "/>
<polygon style="fill:#FFFFFF;" points="159.038,157.471 176.46,153.015 173.121,149.676 155.698,154.132 "/>
<g>
	<path style="fill:#FFFFFF;" d="M135.898,166.08l1.766-9.726l-16.492-16.491l33.551-8.585l-3.339-3.339l-33.552,8.584L99.43,118.121
		l47.384-12.118l2.131-11.728l-39.981-39.983c-1.013-1.015-2.49-1.42-3.88-1.063L46.667,68.174
		c-1.414,0.364-2.525,1.455-2.911,2.862c-0.386,1.409,0.013,2.915,1.045,3.947L135.898,166.08z M96.091,114.781L77.694,96.384
		l49.267-12.6l18.398,18.398L96.091,114.781z M104.855,61.676l18.767,18.768L74.355,93.045L55.59,74.28L104.855,61.676z"/>
	<path style="fill:#FFFFFF;" d="M284.166,294.094c-1.999,0.452-4.055,0.71-6.156,0.71c-7.384,0-14.327-2.875-19.549-8.099
		c-5.222-5.221-8.098-12.164-8.097-19.551c0-2.099,0.257-4.154,0.71-6.153L146.002,155.929l-4.814,26.511l122.018,122.021
		c7.058,7.057,16.441,10.942,26.422,10.942c4.587,0,9.132-0.844,13.382-2.466L284.166,294.094z"/>
	<path style="fill:#FFFFFF;" d="M152.9,117.962l121.766,121.767c1.104-0.133,2.217-0.222,3.346-0.222
		c7.385,0,14.328,2.876,19.551,8.1c5.222,5.22,8.099,12.162,8.099,19.548c0,1.13-0.089,2.243-0.222,3.347l19.605,19.606
		c4.598-13.363,1.294-28.271-8.962-38.528L157.446,92.945L152.9,117.962z"/>
	<path style="fill:#FFFFFF;" d="M291.816,280.958c3.688-3.686,5.719-8.589,5.719-13.803c0-5.215-2.031-10.116-5.718-13.801
		c-3.689-3.69-8.592-5.721-13.805-5.721c-5.214,0-10.116,2.031-13.803,5.72c-3.689,3.686-5.719,8.588-5.719,13.802
		c-0.001,5.215,2.029,10.117,5.718,13.803c3.687,3.69,8.588,5.719,13.802,5.719C283.224,286.677,288.128,284.648,291.816,280.958"/>
</g>
</svg>
