<?xml version="1.0" encoding="iso-8859-1"?>
<!-- Generator: Adobe Illustrator 25.4.1, SVG Export Plug-In . SVG Version: 6.00 Build 0)  -->
<svg version="1.1" id="Calque_1" xmlns="http://www.w3.org/2000/svg" xmlns:xlink="http://www.w3.org/1999/xlink" x="0px" y="0px"
	 viewBox="0 0 368.5 368.5" style="enable-background:new 0 0 368.5 368.5;" xml:space="preserve">
<rect x="182.813" y="172.019" transform="matrix(0.7071 -0.7071 0.7071 0.7071 -76.6691 192.4099)" style="fill:#FFFFFF;" width="22.237" height="33.472"/>
<polygon style="fill:#FFFFFF;" points="99.386,112.761 119.392,92.755 130.335,81.812 80.509,54.275 50.62,84.165 "/>
<polygon style="fill:#FFFFFF;" points="163.514,185.605 97.936,120.025 64.649,100.506 156.629,192.487 "/>
<rect x="130.241" y="88.374" transform="matrix(0.7071 -0.7071 0.7071 0.7071 -49.6558 146.724)" style="fill:#FFFFFF;" width="44.082" height="89.854"/>
<g>
	<path style="fill:#FFFFFF;" d="M197.149,219.105c-1.297,9.327,1.844,18.768,8.518,25.443l60.865,60.864
		c5.683,5.684,13.238,8.813,21.275,8.813c8.035,0,15.592-3.129,21.276-8.813c11.728-11.732,11.73-30.822,0-42.552l-60.866-60.863
		c-5.677-5.679-13.228-8.806-21.259-8.806c-1.397,0-2.799,0.098-4.184,0.291L197.149,219.105z"/>
</g>
</svg>
