<?xml version="1.0" encoding="iso-8859-1"?>
<!-- Generator: Adobe Illustrator 25.4.1, SVG Export Plug-In . SVG Version: 6.00 Build 0)  -->
<svg version="1.1" id="Calque_1" xmlns="http://www.w3.org/2000/svg" xmlns:xlink="http://www.w3.org/1999/xlink" x="0px" y="0px"
	 viewBox="0 0 368.5 368.5" style="enable-background:new 0 0 368.5 368.5;" xml:space="preserve">
<g>
	<path style="fill:#FFFFFF;" d="M307.334,123.479c1.071,0.309,1.808,1.289,1.808,2.401v196.652l12.508-5.151v-196.83L62.004,45.56
		l-10.081,4.15L307.334,123.479z"/>
	<polygon style="fill:#FFFFFF;" points="149.567,120.989 157.539,114.077 152.79,99.439 141.52,96.184 	"/>
	<path style="fill:#FFFFFF;" d="M223.865,173.065l-6.694-20.637c-0.187-0.573-0.011-1.201,0.444-1.596l11.443-9.923l-1.826-5.627
		l-20.166,17.487l8.825,27.209L223.865,173.065z"/>
	<path style="fill:#FFFFFF;" d="M171.991,158.629l-6.104-18.818c-0.186-0.573-0.01-1.202,0.445-1.596l12.887-11.174l-1.828-5.626
		l-21.608,18.737l8.234,25.39L171.991,158.629z"/>
	<polygon style="fill:#FFFFFF;" points="67.229,74.728 60.583,72.808 60.583,82.195 67.229,76.432 	"/>
	<path style="fill:#FFFFFF;" d="M123.187,143.863l-6.387-19.693c-0.186-0.574-0.01-1.202,0.445-1.597l10.408-9.024l-1.825-5.626
		l-19.132,16.587l8.518,26.266L123.187,143.863z"/>
	<path style="fill:#FFFFFF;" d="M137.064,188.915l4.141-3.591l-4.271-1.222c-0.479-0.137-0.859-0.505-1.014-0.979l-4.384-13.523
		c-0.186-0.573-0.012-1.202,0.444-1.596l10.406-9.024l-1.825-5.628l-19.13,16.589l5.173,15.953L137.064,188.915z"/>
	<path style="fill:#FFFFFF;" d="M277.268,229.407l8.025,2.318l4.085-3.542v-0.438l-1.914-0.547
		c-0.479-0.137-0.859-0.504-1.014-0.979l-4.817-14.855c-0.185-0.574-0.011-1.201,0.445-1.597l7.3-6.33v-7.21l-17.849,15.478
		L277.268,229.407z"/>
	<polygon style="fill:#FFFFFF;" points="200.854,133.605 208.824,126.693 204.86,114.478 193.59,111.222 	"/>
	<polygon style="fill:#FFFFFF;" points="100.479,105.348 108.451,98.435 104.227,85.412 92.957,82.157 	"/>
	<polygon style="fill:#FFFFFF;" points="251.281,149.292 259.254,142.379 254.89,128.927 243.62,125.672 	"/>
	<path style="fill:#FFFFFF;" d="M273.283,185.628l-5.681-17.513c-0.185-0.572-0.011-1.2,0.445-1.596l12.136-10.524l-1.825-5.627
		l-20.86,18.088l7.813,24.086L273.283,185.628z"/>
	<path style="fill:#FFFFFF;" d="M87.681,174.651l4.032-3.496l-4.255-1.217c-0.479-0.139-0.859-0.506-1.013-0.98l-4.677-14.414
		c-0.186-0.573-0.01-1.201,0.445-1.596l11.084-9.611l-1.825-5.627l-19.808,17.175l5.42,16.706L87.681,174.651z"/>
	<path style="fill:#FFFFFF;" d="M65.449,135.724l7.973-6.913l-6.121-18.869c-0.048-0.149-0.073-0.306-0.073-0.463v-0.597
		c0-0.435,0.189-0.849,0.518-1.134l10.933-9.48l-1.825-5.627l-16.272,14.11v13.966L65.449,135.724z"/>
	<path style="fill:#FFFFFF;" d="M188.465,203.761l4.254-3.688l-7.263-2.078c-0.48-0.138-0.859-0.504-1.014-0.979l-4.102-12.65
		c-0.186-0.574-0.011-1.203,0.444-1.596l12.886-11.176l-1.825-5.627l-21.61,18.739l4.935,15.214L188.465,203.761z"/>
	<path style="fill:#FFFFFF;" d="M236.404,217.605l4.357-3.778l-3.281-0.94c-0.479-0.137-0.859-0.504-1.014-0.978l-4.251-13.107
		c-0.186-0.573-0.011-1.202,0.444-1.596l11.44-9.923l-1.825-5.628l-20.164,17.487l5.13,15.816L236.404,217.605z"/>
	<path style="fill:#FFFFFF;" d="M304.141,127.76L46.849,53.448v195.181l257.292,74.312V127.76z M56.579,67.484
		c0.629-0.473,1.442-0.622,2.197-0.404l15.323,4.427c0.794,0.23,1.425,0.838,1.682,1.626l0.121,0.371
		c0.312,0.957,0.021,2.006-0.739,2.665l-15.444,13.39c-0.463,0.403-1.047,0.613-1.637,0.613c-0.352,0-0.706-0.075-1.038-0.226
		c-0.891-0.407-1.462-1.296-1.462-2.274v-18.19C55.582,68.696,55.951,67.956,56.579,67.484 M90.03,76.107l32.634,9.425
		c0.798,0.231,1.429,0.841,1.683,1.631l0.531,1.63c0.309,0.955,0.018,2.003-0.74,2.662l-23.235,20.142
		c-0.46,0.4-1.044,0.612-1.638,0.612c-0.223,0-0.449-0.03-0.669-0.092c-0.809-0.225-1.45-0.839-1.708-1.636L86.809,79.409
		c-0.311-0.957-0.016-2.007,0.745-2.665l0.15-0.129C88.345,76.063,89.22,75.873,90.03,76.107 M174.734,100.572
		c0.798,0.23,1.429,0.84,1.685,1.628c0.311,0.956,0.046,2.085-0.713,2.744l-25.715,22.294c-0.46,0.399-1.044,0.611-1.638,0.611
		c-0.223,0-0.449-0.03-0.67-0.091c-0.807-0.225-1.449-0.84-1.708-1.637L135.78,94.692c-0.309-0.956-0.018-2.005,0.741-2.662
		l1.134-0.982c0.639-0.553,1.516-0.745,2.329-0.512L174.734,100.572z M224.208,114.861c0.881,0.254,1.551,0.97,1.748,1.864
		c0.197,0.895-0.112,1.826-0.804,2.427l-23.876,20.703c-0.46,0.399-1.042,0.612-1.637,0.612c-0.223,0-0.449-0.03-0.67-0.092
		c-0.807-0.225-1.449-0.839-1.708-1.637l-9.879-30.454c-0.286-0.88-0.062-1.846,0.582-2.51c0.643-0.665,1.602-0.92,2.489-0.663
		L224.208,114.861z M294.378,229.323c0,0.726-0.315,1.415-0.863,1.889l-5.973,5.18c-0.46,0.4-1.044,0.612-1.638,0.612
		c-0.231,0-0.465-0.034-0.694-0.099l-10.604-3.062c-0.799-0.231-1.428-0.841-1.684-1.631l-6.661-20.54
		c-0.31-0.955-0.018-2.002,0.741-2.661l23.238-20.15c0.74-0.642,1.786-0.792,2.676-0.386c0.89,0.407,1.462,1.296,1.462,2.275
		V229.323z M116.165,169.907c-0.31-0.954-0.019-2.001,0.74-2.659l23.232-20.146c0.633-0.549,1.5-0.745,2.308-0.52
		c0.808,0.225,1.449,0.84,1.708,1.637l9.91,30.555c0.31,0.955,0.019,2.002-0.74,2.66l-14.009,12.148
		c-0.46,0.399-1.044,0.611-1.637,0.611c-0.233,0-0.465-0.033-0.694-0.099l-13.041-3.766c-0.799-0.231-1.429-0.841-1.684-1.631
		L116.165,169.907z M101.429,124.477c-0.31-0.954-0.019-2.002,0.74-2.659l23.234-20.145c0.633-0.55,1.501-0.743,2.307-0.52
		c0.809,0.225,1.45,0.84,1.709,1.637l10.193,31.429c0.31,0.955,0.019,2.002-0.74,2.661l-23.234,20.146
		c-0.46,0.4-1.044,0.611-1.638,0.611c-0.224,0-0.449-0.03-0.67-0.091c-0.809-0.225-1.449-0.84-1.708-1.637L101.429,124.477z
		 M176.969,115.166c0.632-0.55,1.5-0.745,2.306-0.52c0.807,0.225,1.448,0.84,1.708,1.637l9.913,30.554
		c0.31,0.954,0.018,2.003-0.74,2.659l-25.714,22.296c-0.46,0.399-1.044,0.611-1.637,0.611c-0.224,0-0.45-0.031-0.67-0.092
		c-0.808-0.225-1.45-0.84-1.708-1.636l-9.912-30.555c-0.308-0.955-0.017-2.002,0.742-2.66L176.969,115.166z M226.807,129.032
		c0.633-0.548,1.5-0.745,2.308-0.52c0.808,0.226,1.449,0.839,1.708,1.637l10.504,32.373c0.31,0.955,0.019,2.003-0.74,2.66
		l-24.271,21.046c-0.46,0.4-1.044,0.612-1.638,0.612c-0.223,0-0.449-0.031-0.669-0.092c-0.808-0.225-1.45-0.839-1.708-1.637
		L201.8,152.736c-0.31-0.955-0.019-2.002,0.74-2.66L226.807,129.032z M292.571,134.605c1.069,0.308,1.807,1.288,1.807,2.402v3.014
		c0,1.229-0.895,2.277-2.111,2.469c-0.131,0.02-0.261,0.031-0.391,0.031c-1.069,0-2.038-0.686-2.376-1.73l-1.078-3.324
		c-0.286-0.88-0.062-1.846,0.581-2.51c0.644-0.665,1.603-0.918,2.49-0.663L292.571,134.605z M277.934,144.118
		c0.633-0.55,1.501-0.745,2.308-0.52c0.808,0.225,1.449,0.84,1.707,1.638l9.488,29.248c0.31,0.955,0.019,2.002-0.74,2.66
		l-24.961,21.648c-0.46,0.398-1.044,0.611-1.638,0.611c-0.224,0-0.45-0.03-0.669-0.092c-0.808-0.225-1.45-0.84-1.708-1.636
		l-9.49-29.25c-0.309-0.956-0.018-2.003,0.74-2.662L277.934,144.118z M151.555,194.285l3.036-2.631
		c0.632-0.55,1.5-0.743,2.308-0.519c0.808,0.225,1.448,0.84,1.707,1.638l1.254,3.87c0.285,0.88,0.062,1.845-0.582,2.51
		c-0.477,0.493-1.13,0.761-1.796,0.761c-0.232,0-0.465-0.033-0.694-0.098l-4.29-1.239c-0.879-0.255-1.55-0.971-1.746-1.865
		C150.555,195.817,150.863,194.885,151.555,194.285 M164.969,184.673c-0.31-0.954-0.02-2.001,0.74-2.661l25.712-22.295
		c0.632-0.551,1.499-0.748,2.306-0.521c0.809,0.225,1.451,0.84,1.709,1.638l10.502,32.374c0.31,0.956,0.019,2.004-0.741,2.661
		l-14.483,12.558c-0.46,0.4-1.044,0.612-1.638,0.612c-0.233,0-0.466-0.032-0.693-0.098l-15.876-4.587
		c-0.797-0.23-1.428-0.842-1.684-1.63L164.969,184.673z M202.958,209.132l3.508-3.041c0.632-0.549,1.501-0.746,2.308-0.519
		c0.808,0.224,1.449,0.839,1.706,1.638l1.45,4.47c0.286,0.881,0.062,1.846-0.583,2.51c-0.476,0.494-1.128,0.762-1.794,0.762
		c-0.232,0-0.465-0.032-0.694-0.099l-4.957-1.43c-0.881-0.255-1.552-0.971-1.748-1.866
		C201.957,210.663,202.265,209.731,202.958,209.132 M216.843,199.11c-0.31-0.955-0.018-2.002,0.741-2.661l24.266-21.043
		c0.633-0.549,1.499-0.747,2.308-0.521c0.808,0.226,1.449,0.84,1.707,1.638l9.489,29.25c0.31,0.955,0.019,2.003-0.741,2.66
		l-15.96,13.84c-0.461,0.4-1.045,0.612-1.638,0.612c-0.232,0-0.465-0.033-0.693-0.098l-11.745-3.394
		c-0.797-0.23-1.429-0.84-1.684-1.631L216.843,199.11z M250.091,225.402c-0.197-0.895,0.112-1.825,0.804-2.427l4.985-4.321
		c0.632-0.549,1.501-0.745,2.307-0.519c0.808,0.225,1.449,0.84,1.708,1.637l2.063,6.357c0.285,0.88,0.061,1.846-0.582,2.511
		c-0.478,0.493-1.129,0.761-1.796,0.761c-0.233,0-0.465-0.032-0.694-0.098l-7.047-2.036
		C250.958,227.012,250.288,226.297,250.091,225.402 M240.482,119.56l35.125,10.145c0.881,0.254,1.552,0.97,1.748,1.865
		c0.198,0.894-0.11,1.825-0.804,2.426l-24.845,21.546c-0.46,0.399-1.043,0.611-1.638,0.611c-0.224,0-0.449-0.03-0.67-0.092
		c-0.807-0.224-1.449-0.84-1.708-1.636l-10.279-31.692c-0.285-0.88-0.062-1.845,0.582-2.51
		C238.636,119.559,239.596,119.305,240.482,119.56 M56.444,103.721l19.987-17.33c0.633-0.549,1.5-0.745,2.307-0.52
		c0.808,0.225,1.449,0.84,1.708,1.637l10.078,31.072c0.31,0.955,0.018,2.002-0.74,2.66l-23.91,20.733
		c-0.46,0.4-1.044,0.612-1.638,0.612c-0.223,0-0.449-0.03-0.67-0.092c-0.807-0.225-1.449-0.839-1.708-1.636l-6.154-18.973
		c-0.081-0.249-0.122-0.509-0.122-0.771V105.61C55.582,104.885,55.896,104.196,56.444,103.721 M55.582,165.042
		c0-1.231,0.893-2.279,2.109-2.47c1.215-0.192,2.389,0.528,2.769,1.698l1.311,4.042c0.286,0.88,0.062,1.847-0.582,2.511
		c-0.477,0.493-1.13,0.761-1.796,0.761c-0.232,0-0.466-0.033-0.696-0.099l-1.31-0.38c-1.071-0.309-1.805-1.288-1.805-2.402V165.042z
		 M88.292,179.928c-0.233,0-0.465-0.031-0.693-0.096l-13.177-3.806c-0.798-0.23-1.429-0.841-1.685-1.63l-6.341-19.543
		c-0.308-0.955-0.017-2.003,0.742-2.66l23.91-20.733c0.633-0.55,1.502-0.743,2.307-0.52c0.808,0.225,1.45,0.84,1.708,1.637
		l10.196,31.43c0.31,0.955,0.019,2.003-0.74,2.661l-14.59,12.65C89.47,179.719,88.886,179.928,88.292,179.928 M101.367,182.449
		c-0.197-0.896,0.11-1.826,0.804-2.426l3.614-3.135c0.634-0.548,1.499-0.746,2.309-0.519c0.806,0.225,1.448,0.841,1.707,1.638
		l1.493,4.608c0.286,0.88,0.062,1.846-0.581,2.511c-0.479,0.493-1.129,0.761-1.796,0.761c-0.232,0-0.466-0.033-0.693-0.099
		l-5.109-1.475C102.234,184.059,101.563,183.344,101.367,182.449"/>
</g>
</svg>
