<?xml version="1.0" encoding="iso-8859-1"?>
<!-- Generator: Adobe Illustrator 25.4.1, SVG Export Plug-In . SVG Version: 6.00 Build 0)  -->
<svg version="1.1" id="Calque_1" xmlns="http://www.w3.org/2000/svg" xmlns:xlink="http://www.w3.org/1999/xlink" x="0px" y="0px"
	 viewBox="0 0 368.5 368.5" style="enable-background:new 0 0 368.5 368.5;" xml:space="preserve">
<g>
	<path style="fill:#FFFFFF;" d="M130.565,81.828c3.584,0.34,7.215,0.786,10.779,1.356c5.321-7.096,11.483-13.095,18.145-17.687
		C149.047,66.558,138.784,72.542,130.565,81.828"/>
	<path style="fill:#FFFFFF;" d="M233.77,215.965c-0.057-0.071-0.109-0.146-0.166-0.217c-0.117-0.15-0.23-0.305-0.346-0.456
		c-0.416-0.542-0.822-1.095-1.218-1.657c-0.137-0.196-0.276-0.392-0.413-0.591c-0.466-0.682-0.921-1.373-1.361-2.082
		c-0.019-0.034-0.043-0.066-0.062-0.099c-0.455-0.74-0.891-1.499-1.317-2.268c-0.121-0.217-0.236-0.439-0.355-0.659
		c-0.321-0.6-0.633-1.208-0.936-1.824c-0.103-0.208-0.209-0.414-0.308-0.625c-0.381-0.796-0.747-1.603-1.096-2.424
		c-0.068-0.161-0.131-0.326-0.199-0.487c-0.282-0.681-0.555-1.369-0.815-2.066c-0.099-0.261-0.195-0.524-0.291-0.788
		c-0.252-0.702-0.496-1.411-0.726-2.128c-0.055-0.171-0.116-0.34-0.17-0.512c-0.274-0.87-0.528-1.751-0.77-2.641
		c-0.068-0.252-0.131-0.508-0.197-0.762c-0.176-0.682-0.344-1.37-0.502-2.064c-0.065-0.278-0.129-0.556-0.19-0.836
		c-0.197-0.916-0.382-1.838-0.548-2.772c-0.018-0.103-0.032-0.209-0.051-0.312c-0.145-0.847-0.276-1.701-0.395-2.562
		c-0.041-0.301-0.08-0.604-0.117-0.908c-0.094-0.734-0.176-1.473-0.248-2.218c-0.025-0.255-0.055-0.511-0.076-0.768
		c-0.086-0.965-0.154-1.936-0.205-2.914c-0.014-0.248-0.02-0.498-0.031-0.746c-0.034-0.77-0.057-1.542-0.069-2.32
		c-0.006-0.315-0.01-0.631-0.011-0.949c-0.004-0.878,0.003-1.759,0.027-2.644c0.004-0.142,0.002-0.283,0.006-0.425
		c0.031-1.01,0.086-2.027,0.152-3.047c0.02-0.304,0.043-0.607,0.066-0.911c0.059-0.779,0.129-1.562,0.208-2.346
		c0.031-0.297,0.058-0.594,0.091-0.891c0.116-1.033,0.246-2.068,0.397-3.106c0.025-0.174,0.058-0.349,0.084-0.522
		c0.135-0.889,0.285-1.779,0.447-2.67c0.057-0.319,0.117-0.636,0.178-0.954c0.166-0.855,0.342-1.711,0.531-2.568
		c0.049-0.219,0.092-0.438,0.143-0.657c0.24-1.054,0.502-2.109,0.781-3.165c0.07-0.265,0.146-0.53,0.221-0.796
		c0.226-0.831,0.464-1.662,0.716-2.493c0.092-0.303,0.182-0.605,0.278-0.908c0.334-1.068,0.681-2.136,1.056-3.203
		c0.323-0.922,0.662-1.835,1.01-2.742c0.11-0.28,0.223-0.556,0.334-0.835c0.244-0.622,0.494-1.241,0.75-1.855
		c0.139-0.329,0.281-0.655,0.422-0.983c0.242-0.559,0.486-1.116,0.738-1.668c0.153-0.335,0.309-0.67,0.465-1.003
		c0.254-0.543,0.512-1.081,0.775-1.617c0.159-0.323,0.319-0.647,0.481-0.967c0.281-0.558,0.57-1.109,0.861-1.658
		c0.151-0.284,0.297-0.57,0.451-0.851c0.368-0.679,0.747-1.349,1.129-2.013c0.08-0.142,0.159-0.287,0.241-0.428
		c0.468-0.803,0.949-1.596,1.437-2.379c0.137-0.22,0.279-0.435,0.418-0.654c0.354-0.557,0.711-1.112,1.074-1.659
		c0.19-0.284,0.383-0.563,0.575-0.845c0.324-0.475,0.65-0.947,0.982-1.414c0.209-0.294,0.42-0.586,0.633-0.877
		c0.324-0.445,0.652-0.886,0.984-1.323c0.219-0.289,0.438-0.577,0.66-0.862c0.342-0.441,0.69-0.874,1.037-1.305
		c0.215-0.264,0.428-0.53,0.643-0.791c0.396-0.477,0.797-0.945,1.201-1.41c0.176-0.203,0.348-0.41,0.526-0.611
		c0.576-0.652,1.158-1.291,1.748-1.919c0.154-0.165,0.314-0.323,0.47-0.486c0.444-0.464,0.889-0.925,1.34-1.375
		c0.238-0.237,0.481-0.467,0.721-0.7c0.377-0.367,0.756-0.732,1.139-1.09c0.263-0.245,0.527-0.486,0.792-0.726
		c0.37-0.335,0.741-0.666,1.114-0.991c0.273-0.239,0.547-0.476,0.822-0.71c0.377-0.319,0.758-0.632,1.139-0.943
		c0.273-0.222,0.545-0.444,0.818-0.661c0.41-0.324,0.824-0.638,1.236-0.95c0.25-0.189,0.498-0.382,0.748-0.566
		c0.59-0.433,1.186-0.854,1.784-1.265c0.181-0.126,0.365-0.248,0.548-0.371c0.559-0.375,1.12-0.745,1.684-1.1
		c0.266-0.168,0.533-0.326,0.801-0.489c0.424-0.258,0.847-0.516,1.275-0.763c0.295-0.171,0.592-0.336,0.889-0.501
		c0.404-0.226,0.81-0.448,1.217-0.664c0.308-0.162,0.615-0.32,0.924-0.477c0.406-0.206,0.814-0.406,1.224-0.602
		c0.305-0.147,0.611-0.293,0.918-0.434c0.43-0.196,0.861-0.383,1.295-0.569c0.287-0.123,0.572-0.25,0.859-0.367
		c0.53-0.217,1.063-0.42,1.596-0.619c0.192-0.072,0.381-0.15,0.572-0.219c0.713-0.258,1.43-0.498,2.149-0.724
		c0.25-0.079,0.5-0.146,0.752-0.221c0.482-0.144,0.967-0.286,1.453-0.415c0.297-0.08,0.594-0.15,0.892-0.224
		c0.288-0.071,0.575-0.15,0.864-0.216L201.684,64.26c-3.764-1.32-7.73-1.99-11.789-1.99c-14.73,0-29.549,8.512-40.861,22.375
		c11.25,2.516,20.828,6.521,24.537,12.624c1.314,1.101,2.15,2.753,2.15,4.6v55.663l19.602,35.506
		c1.015,1.699,1.531,3.48,1.531,5.297v4.673L233.77,215.965z"/>
	<path style="fill:#FFFFFF;" d="M300.274,97.277c-3.922-1.377-8.057-2.076-12.285-2.076c-23.209,0-46.582,20.407-56.836,49.625
		c-12.373,35.253-1.5,71.284,24.238,80.318c3.924,1.377,8.057,2.075,12.287,2.075c23.209,0.001,46.58-20.405,56.834-49.625
		c6.031-17.181,6.772-35.039,2.088-50.285C321.981,112.28,312.633,101.614,300.274,97.277 M321.02,159.485l-0.045,0.342
		c-0.06,0.475-0.291,0.913-0.646,1.234l-11.413,10.275l2.532,15.428c0.09,0.545-0.051,1.104-0.389,1.542
		c-0.336,0.439-0.84,0.718-1.391,0.772l-11.527,1.132l-5.008,14.936c-0.338,1.004-1.396,1.572-2.418,1.295l-9.441-2.548
		l-9.147,10.477c-0.38,0.437-0.931,0.684-1.505,0.684c-0.065,0-0.129-0.003-0.194-0.008c-0.642-0.063-1.215-0.431-1.537-0.99
		l-6.045-10.439l-11.242,4.373c-0.6,0.234-1.277,0.164-1.818-0.189s-0.877-0.944-0.905-1.589l-0.593-13.898l-8.959-3.91
		c-0.969-0.422-1.442-1.528-1.079-2.521l5.424-14.791l-8.24-8.04c-0.478-0.467-0.693-1.145-0.568-1.803
		c0,0.003-0.002,0.005-0.002,0.005c-0.002,0,0.006-0.055,0.015-0.107c0.08-0.434,0.301-0.829,0.629-1.124l11.551-10.399
		l-2.439-14.859c-0.079-0.474,0.017-0.96,0.267-1.369l0.383-0.629c0.33-0.528,0.885-0.872,1.502-0.932l11.062-1.086l5.01-14.938
		c0.336-1.003,1.393-1.572,2.418-1.294l9.44,2.548l8.586-9.831c0.367-0.42,0.892-0.668,1.449-0.684l0.306-0.011
		c0.225-0.01,0.448-0.019,0.672-0.019c0.713,0,1.373,0.38,1.731,0.998l5.683,9.822l10.645-4.139c0.66-0.257,1.41-0.145,1.965,0.295
		c0.154,0.121,0.302,0.247,0.451,0.373l0.217,0.184c0.435,0.361,0.697,0.889,0.72,1.454l0.563,13.137l8.959,3.909
		c0.969,0.423,1.441,1.529,1.078,2.522l-5.426,14.791l8.131,7.932C320.883,158.237,321.1,158.862,321.02,159.485"/>
	<path style="fill:#FFFFFF;" d="M296.461,186.355l2.045-0.201c-0.221-0.25-0.498-0.456-0.836-0.574l-2.525-0.886
		c0.054-0.01,0.103-0.035,0.16-0.04l9.902-0.972l-1.885-11.485l1.784,0.626l-0.28-1.706c-0.066-0.405-0.006-0.81,0.16-1.167
		c0.094-0.379,0.299-0.73,0.602-1.001l0.156-0.141l-1.763-0.619l9.744-8.774l-7.121-6.948c-0.561-0.546-0.748-1.367-0.487-2.102
		l1.998,0.701c-0.156-0.434-0.179-0.911-0.015-1.361l0.937-2.555l-1.545-0.542l3.489-9.511l-7.754-3.385
		c-0.701-0.305-1.166-0.983-1.2-1.747l-0.021-0.51l3.535,1.24c0.219,0.077,0.442,0.114,0.662,0.114c0.244,0,0.479-0.057,0.701-0.143
		l-1.961-0.856c-0.699-0.306-1.166-0.983-1.197-1.747l-0.098-2.271l-1.826-0.641l-0.281-6.605l-8.793,3.42l-3.457-1.213
		l-4.725-8.164l-4.347,4.979l-1.832-0.643l-1.494,1.712c-0.504,0.576-1.291,0.816-2.03,0.615l-2.709-0.731
		c0.233,0.362,0.577,0.657,1.014,0.812l4.217,1.48l-0.336,0.385c-0.502,0.576-1.289,0.814-2.027,0.615l-8.17-2.205l-3.223,9.604
		l-1.549-0.543l-0.865,2.58c-0.154,0.454-0.471,0.812-0.863,1.052l2.004,0.703c-0.256,0.739-0.916,1.262-1.694,1.338l-9.902,0.974
		l2.125,12.939l-1.772-0.621l0.036,0.205c0.064,0.402,0.005,0.803-0.157,1.158c-0.093,0.383-0.299,0.738-0.605,1.013l-1.285,1.157
		l1.789,0.629l-8.647,7.785l7.121,6.949c0.041,0.039,0.065,0.089,0.1,0.13l-1.303-0.457c-0.547-0.192-1.119-0.126-1.594,0.124
		l0.827,0.806c0.564,0.55,0.752,1.38,0.48,2.121l-0.353,0.963l1.55,0.544l-4.084,11.139l7.754,3.383
		c0.701,0.306,1.166,0.984,1.198,1.748l0.003,0.095l-4.705-1.651c-0.572-0.202-1.171-0.118-1.66,0.165l3.455,1.508
		c0.702,0.305,1.166,0.983,1.198,1.748l0.082,1.896l1.814,0.637l0.301,7.022l9.348-3.636l2.605,0.915l5.021,8.678l4.624-5.294
		l1.81,0.636l1.246-1.429c0.504-0.576,1.289-0.817,2.029-0.615l1.141,0.308c-0.158-0.63-0.617-1.17-1.275-1.401l-2.119-0.743
		l0.062-0.071c0.504-0.576,1.289-0.816,2.027-0.615l8.17,2.205l3.772-11.248l1.545,0.542l0.326-0.973
		C295.012,186.962,295.678,186.432,296.461,186.355"/>
	<path style="fill:#FFFFFF;" d="M111.854,166.939c27.82,0,45.629-5.416,51.867-9.883v-40.379c-13.582,6.439-36.291,8.48-51.867,8.48
		s-38.285-2.041-51.867-8.481v40.38C66.223,161.523,84.032,166.939,111.854,166.939"/>
	<path style="fill:#FFFFFF;" d="M174.37,216.107c-10.891,5.915-30.578,12.967-62.516,12.967c-31.906,0-51.593-7.052-62.49-12.966
		c-4.021-2.183-7.558-4.621-10.508-7.165v71.111c0,1.654,3.565,8.133,15.039,14.361c9.93,5.39,28.047,11.815,57.959,11.815
		c29.942,0,48.057-6.424,57.981-11.814c11.459-6.224,15.019-12.705,15.019-14.362v-71.098
		C181.909,211.495,178.38,213.929,174.37,216.107"/>
	<path style="fill:#FFFFFF;" d="M165.612,164.051c-11.027,6.52-32.479,9.888-53.758,9.888c-21.451,0-43.072-3.423-54.019-10.045
		l-18.418,34.231c-0.145,0.268-0.317,0.52-0.498,0.762c6.787,8.909,27.931,23.186,72.935,23.186
		c45.074,0,66.215-14.321,72.969-23.227L165.612,164.051z"/>
	<path style="fill:#FFFFFF;" d="M111.854,91.937c-33.748,0-50.858,7.821-52.33,11.11c1.472,3.288,18.582,11.11,52.33,11.11
		c33.75,0,50.857-7.822,52.33-11.11C162.711,99.758,145.602,91.937,111.854,91.937 M148.465,103.047
		c0,1.717-1.375,3.679-11.563,5.207c-6.703,1.005-15.599,1.559-25.048,1.559c-9.451,0-18.346-0.554-25.049-1.559
		c-10.188-1.528-11.563-3.49-11.563-5.207c0-1.718,1.375-3.68,11.563-5.208c6.701-1.005,15.598-1.559,25.049-1.559
		s18.347,0.554,25.048,1.559C147.09,99.367,148.465,101.329,148.465,103.047"/>
</g>
</svg>
