<?xml version="1.0" encoding="iso-8859-1"?>
<!-- Generator: Adobe Illustrator 25.4.1, SVG Export Plug-In . SVG Version: 6.00 Build 0)  -->
<svg version="1.1" id="Calque_1" xmlns="http://www.w3.org/2000/svg" xmlns:xlink="http://www.w3.org/1999/xlink" x="0px" y="0px"
	 viewBox="0 0 368.5 368.5" style="enable-background:new 0 0 368.5 368.5;" xml:space="preserve">
<g>
	<path style="fill:#FFFFFF;" d="M70.927,312.679h126.685c15.662,0,28.359-12.313,28.359-27.5v-70.721
		c0-15.185-12.697-27.502-28.359-27.502H70.927c-15.666,0-28.362,12.317-28.362,27.502v70.721
		C42.565,300.366,55.261,312.679,70.927,312.679 M166.308,223.52h42.345c1.67,0,3.025,1.355,3.025,3.025
		c0,1.671-1.355,3.026-3.025,3.026h-42.345c-1.67,0-3.025-1.355-3.025-3.026C163.283,224.875,164.638,223.52,166.308,223.52
		 M166.308,245.01h42.345c1.67,0,3.025,1.355,3.025,3.025c0,1.67-1.355,3.025-3.025,3.025h-42.345c-1.67,0-3.025-1.355-3.025-3.025
		C163.283,246.365,164.638,245.01,166.308,245.01 M166.308,266.5h42.345c1.67,0,3.025,1.355,3.025,3.025s-1.355,3.025-3.025,3.025
		h-42.345c-1.67,0-3.025-1.355-3.025-3.025S164.638,266.5,166.308,266.5 M103.121,199.025c28.017,0,50.726,22.715,50.726,50.731
		c0,28.017-22.709,50.73-50.726,50.73c-28.025,0-50.731-22.713-50.731-50.73C52.39,221.74,75.096,199.025,103.121,199.025"/>
	<path style="fill:#FFFFFF;" d="M103.535,239.452c-5.605,0-10.153,4.544-10.153,10.153c0,5.609,4.548,10.155,10.153,10.155
		c5.607,0,10.155-4.546,10.155-10.155C113.69,243.996,109.142,239.452,103.535,239.452"/>
	<path style="fill:#FFFFFF;" d="M103.295,235.934c6.72,0,9.775-4.528,15.882-17.763c3.559-7.705-7.109-12.984-15.882-12.984
		c-8.77,0-19.908,5.511-15.882,12.984C94.539,231.406,97.186,235.934,103.295,235.934"/>
	<path style="fill:#FFFFFF;" d="M116.621,256.124c-3.262,5.875-0.79,10.742,7.815,22.508c5.009,6.852,14.803,0.093,19.065-7.581
		c4.256-7.667,4.847-20.079-3.641-20.188C124.832,250.67,119.589,250.779,116.621,256.124"/>
	<path style="fill:#FFFFFF;" d="M82.41,278.632c8.603-11.766,11.079-16.633,7.815-22.508c-2.968-5.345-8.209-5.454-23.239-5.261
		c-8.488,0.109-7.897,12.521-3.637,20.188C67.607,278.725,77.401,285.484,82.41,278.632"/>
	<path style="fill:#FFFFFF;" d="M68.922,155.947h230.673c14.573,0,26.396-12.191,26.396-27.225V83.049
		c0-15.028-11.823-27.218-26.396-27.218H68.922c-14.577,0-26.396,12.19-26.396,27.218v45.673
		C42.526,143.756,54.345,155.947,68.922,155.947 M303.869,138.377c0,4.877-3.967,8.843-8.842,8.843h-22.476
		c-4.877,0-8.843-3.966-8.843-8.843v-5.511c0-4.876,3.966-8.843,8.843-8.843h22.476c4.875,0,8.842,3.967,8.842,8.843V138.377z
		 M65.948,67.308h236.771c4.819,0,8.727,6.555,8.727,6.555H57.219C57.219,73.863,61.125,67.308,65.948,67.308 M65.948,81.426
		h236.771c4.819,0,8.727,6.554,8.727,6.554H57.219C57.219,87.98,61.125,81.426,65.948,81.426 M65.948,95.543h236.771
		c4.819,0,8.727,6.555,8.727,6.555H57.219C57.219,102.098,61.125,95.543,65.948,95.543 M65.948,109.661h236.771
		c4.819,0,8.727,6.555,8.727,6.555H57.219C57.219,116.216,61.125,109.661,65.948,109.661"/>
	<path style="fill:#FFFFFF;" d="M288.404,233.99h-18.85c-4.558,0-8.255,3.585-8.255,8.007v57.185
		c0.073,0.297,0.124,0.603,0.124,0.924c0,0.321-0.051,0.626-0.124,0.924v1.745c0,4.419,3.697,8.004,8.255,8.004h18.85
		c4.557,0,8.254-3.585,8.254-8.004v-60.778C296.658,237.575,292.961,233.99,288.404,233.99 M276.031,299.722
		c0,2.332-1.896,4.23-4.226,4.23c-2.332,0-4.229-1.898-4.229-4.23V289.2c0-2.331,1.897-4.228,4.229-4.228
		c2.33,0,4.226,1.897,4.226,4.228V299.722z M286.151,292.813c-2.129,0-3.86-1.734-3.86-3.863s1.731-3.86,3.86-3.86
		c2.129,0,3.86,1.731,3.86,3.86S288.28,292.813,286.151,292.813 M286.677,280.842h-15.063c-2.031,0-3.683-1.653-3.683-3.683
		c0-2.031,1.652-3.681,3.683-3.681h15.063c2.03,0,3.683,1.65,3.683,3.681C290.36,279.189,288.707,280.842,286.677,280.842
		 M294.224,263.888c0,3.441-2.801,6.241-6.243,6.241h-17.555c-3.443,0-6.245-2.8-6.245-6.241v-20.277
		c0-3.444,2.802-6.245,6.245-6.245h17.555c3.442,0,6.243,2.801,6.243,6.245V263.888z"/>
	<path style="fill:#FFFFFF;" d="M287.981,241.4h-17.555c-1.219,0-2.211,0.992-2.211,2.212v20.276c0,1.217,0.992,2.208,2.211,2.208
		h17.555c1.219,0,2.21-0.991,2.21-2.208v-20.276C290.191,242.392,289.2,241.4,287.981,241.4"/>
</g>
</svg>
