<?xml version="1.0" encoding="iso-8859-1"?>
<!-- Generator: Adobe Illustrator 25.4.1, SVG Export Plug-In . SVG Version: 6.00 Build 0)  -->
<svg version="1.1" id="Calque_1" xmlns="http://www.w3.org/2000/svg" xmlns:xlink="http://www.w3.org/1999/xlink" x="0px" y="0px"
	 viewBox="0 0 368.5 368.5" style="enable-background:new 0 0 368.5 368.5;" xml:space="preserve">
<g>
	<path style="fill:#FFFFFF;" d="M76.86,227.553V88.922c0-0.784,0.37-1.525,0.998-1.997c0.628-0.473,1.441-0.622,2.196-0.404
		l11.406,3.295v-5.867c-4.676,1.603-11.212,1.727-13.09,1.727c-1.879,0-8.415-0.124-13.091-1.727v143.325
		c1.182,0.794,5.586,2.054,12.413,2.134C77.177,228.946,76.86,228.28,76.86,227.553"/>
	<polygon style="fill:#FFFFFF;" points="272.04,238.516 81.86,182.8 81.86,225.673 272.04,280.603 	"/>
	<polygon style="fill:#FFFFFF;" points="81.86,92.247 81.86,134.345 272.04,190.061 272.04,147.177 	"/>
	<polygon style="fill:#FFFFFF;" points="272.04,235.39 272.04,193.186 81.86,137.471 81.86,179.674 	"/>
	<path style="fill:#FFFFFF;" d="M290.131,147.279c-1.878,0-8.415-0.124-13.091-1.727v143.325c1.221,0.82,5.874,2.142,13.091,2.142
		c7.216,0,11.869-1.322,13.091-2.142V145.552C298.546,147.155,292.009,147.279,290.131,147.279"/>
	<path style="fill:#FFFFFF;" d="M302.066,140.682c-2.054-0.756-6.179-1.597-11.935-1.597c-5.756,0-9.881,0.841-11.935,1.597
		c2.054,0.755,6.179,1.597,11.935,1.597C295.888,142.279,300.012,141.437,302.066,140.682"/>
	<path style="fill:#FFFFFF;" d="M90.304,79.078c-2.053-0.756-6.178-1.598-11.935-1.598c-5.757,0-9.882,0.842-11.936,1.598
		c2.053,0.757,6.178,1.598,11.936,1.598C84.126,80.676,88.251,79.835,90.304,79.078"/>
</g>
</svg>
