<?xml version="1.0" encoding="iso-8859-1"?>
<!-- Generator: Adobe Illustrator 25.4.1, SVG Export Plug-In . SVG Version: 6.00 Build 0)  -->
<svg version="1.1" id="Calque_1" xmlns="http://www.w3.org/2000/svg" xmlns:xlink="http://www.w3.org/1999/xlink" x="0px" y="0px"
	 viewBox="0 0 368.5 368.5" style="enable-background:new 0 0 368.5 368.5;" xml:space="preserve">
<g>
	<path style="fill:#FFFFFF;" d="M66.704,234.283c0.227,0.304,0.342,0.448,0.34,0.446l32.889,41.303v-27.727
		c-3.051-1.171-5.217-4.117-5.219-7.58v-9.937c0.002-3.463,2.17-6.409,5.219-7.58v-82.321c-3.049-1.171-5.217-4.119-5.219-7.58
		v-9.939c0.002-3.464,2.17-6.41,5.219-7.581V90.402L66.716,49.035c-0.041-0.03-0.098-0.065-0.164-0.102
		c-0.229-0.125-0.541-0.25-0.973-0.25c-0.258,0-0.566,0.04-0.992,0.195c-0.578,0.228-0.791,0.508-1.047,1.015
		c-0.232,0.484-0.311,1.114-0.315,1.256h-0.001l-0.217,171.89l-0.002,0.076c0.002,0.017,0.002,0.051-0.002,0.097
		c-0.008,0.746,0.15,4.317,0.931,6.302C64.534,231.168,66.028,233.387,66.704,234.283"/>
	<path style="fill:#FFFFFF;" d="M183.075,119.835c1.164-0.002,2.119-0.955,2.121-2.128v-9.94c-0.002-1.172-0.957-2.125-2.121-2.127
		c-1.176,0.002-2.127,0.955-2.129,2.127v9.94C180.948,118.88,181.899,119.833,183.075,119.835"/>
	<path style="fill:#FFFFFF;" d="M180.608,232.87c-3.285-1.046-5.66-4.117-5.662-7.743v-9.937c0-3.631,2.379-6.699,5.662-7.743
		v-81.996c-3.285-1.047-5.66-4.118-5.662-7.744v-9.941c0.002-3.626,2.379-6.696,5.662-7.742V76.856l-74.676,15.95v23.048
		c2.953,1.217,5.03,4.12,5.033,7.514v9.939h-0.002c-0.001,3.392-2.078,6.293-5.031,7.511v82.459c2.953,1.216,5.03,4.116,5.033,7.511
		v9.937h-0.002c-0.001,3.394-2.078,6.295-5.031,7.514v33.709l74.676-15.951V232.87z"/>
	<path style="fill:#FFFFFF;" d="M183.075,227.253c1.164-0.004,2.119-0.958,2.121-2.127v-9.936c-0.002-1.178-0.953-2.125-2.121-2.127
		c-1.178,0.002-2.127,0.949-2.129,2.127v9.936C180.948,226.295,181.899,227.249,183.075,227.253"/>
	<path style="fill:#FFFFFF;" d="M224.522,287.169c-3.17-1.108-5.447-4.114-5.451-7.663v-9.939c0.004-3.551,2.281-6.557,5.451-7.665
		v-82.155c-3.17-1.108-5.447-4.113-5.451-7.661v-9.942c0.002-3.55,2.281-6.556,5.451-7.663v-25.875L186.61,80.957v19.502
		c2.711,1.317,4.584,4.088,4.588,7.307v9.94c-0.004,3.216-1.875,5.99-4.588,7.308v82.867c2.713,1.317,4.586,4.088,4.588,7.309v9.936
		c-0.004,3.218-1.875,5.991-4.588,7.308v34.162l37.912,47.648V287.169z"/>
	<path style="fill:#FFFFFF;" d="M102.841,135.432c1.168-0.002,2.121-0.957,2.123-2.125v-9.939c-0.002-1.175-0.955-2.126-2.123-2.128
		c-1.172,0.002-2.123,0.955-2.125,2.128l-0.002,9.939C100.718,134.475,101.669,135.43,102.841,135.432"/>
	<path style="fill:#FFFFFF;" d="M301.505,304.665v-0.003c0,0,0.014-0.003,0.059-0.014c0.091-0.023,0.275-0.074,0.525-0.189
		c0.504-0.224,1.275-0.67,2.156-1.63c1.071-1.09,1.278-3.106,1.25-3.545v-0.1l-0.004-0.113V118.724
		c-0.002-0.047-0.009-0.131-0.021-0.241c-0.026-0.222-0.08-0.55-0.174-0.894c-0.184-0.709-0.553-1.378-0.9-1.634
		c-0.481-0.414-1.264-0.576-1.897-0.569c-0.31-0.003-0.543,0.033-0.576,0.04l-71.4,15.255v24.055c2.828,1.271,4.8,4.105,4.802,7.409
		v9.942c-0.002,3.301-1.974,6.135-4.802,7.406v82.664c2.828,1.27,4.8,4.108,4.802,7.411v9.939c-0.002,3.305-1.974,6.138-4.802,7.409
		v32.902l70.757-15.117L301.505,304.665z"/>
	<path style="fill:#FFFFFF;" d="M102.841,242.852c1.166-0.002,2.121-0.957,2.123-2.127v-9.937c-0.002-1.173-0.953-2.124-2.123-2.127
		c-1.174,0.003-2.123,0.954-2.125,2.127l-0.002,9.937C100.718,241.895,101.669,242.85,102.841,242.852"/>
	<path style="fill:#FFFFFF;" d="M227.204,281.631c1.166-0.004,2.117-0.953,2.119-2.125v-9.939c-0.002-1.172-0.953-2.125-2.119-2.127
		c-1.178,0.002-2.129,0.957-2.131,2.127v9.939C225.075,280.676,226.026,281.627,227.204,281.631"/>
	<path style="fill:#FFFFFF;" d="M227.204,174.21c1.168-0.003,2.117-0.955,2.119-2.123v-9.942c-0.002-1.173-0.951-2.123-2.119-2.125
		c-1.18,0.002-2.129,0.954-2.131,2.125v9.942C225.075,173.253,226.024,174.207,227.204,174.21"/>
</g>
</svg>
