<?xml version="1.0" encoding="iso-8859-1"?>
<!-- Generator: Adobe Illustrator 25.4.1, SVG Export Plug-In . SVG Version: 6.00 Build 0)  -->
<svg version="1.1" id="Calque_1" xmlns="http://www.w3.org/2000/svg" xmlns:xlink="http://www.w3.org/1999/xlink" x="0px" y="0px"
	 viewBox="0 0 368.5 368.5" style="enable-background:new 0 0 368.5 368.5;" xml:space="preserve">
<g>
	<path style="fill:#FFFFFF;" d="M78.369,126.008c-1.879,0-8.415-0.124-13.091-1.727v143.325c1.182,0.792,5.586,2.053,12.412,2.134
		c-0.514-0.464-0.831-1.128-0.831-1.854v-92.108c0-0.786,0.37-1.526,0.998-1.999c0.627-0.472,1.442-0.621,2.196-0.403l11.405,3.294
		l0.001-52.389C86.783,125.884,80.247,126.008,78.369,126.008"/>
	<polygon style="fill:#FFFFFF;" points="272.04,278.846 81.86,223.131 81.86,266.005 272.04,320.932 	"/>
	<polygon style="fill:#FFFFFF;" points="81.86,179.101 81.86,220.005 272.04,275.721 272.04,234.03 	"/>
	<path style="fill:#FFFFFF;" d="M277.04,329.209c1.222,0.818,5.874,2.142,13.091,2.142c7.217,0,11.869-1.324,13.091-2.142V185.884
		c-4.676,1.603-11.212,1.727-13.091,1.727s-8.415-0.124-13.091-1.727V329.209z"/>
	<path style="fill:#FFFFFF;" d="M302.067,181.013c-2.054-0.755-6.178-1.598-11.935-1.598c-5.758,0-9.883,0.843-11.937,1.598
		c2.054,0.756,6.179,1.598,11.937,1.598C295.889,182.611,300.014,181.769,302.067,181.013"/>
	<path style="fill:#FFFFFF;" d="M90.304,119.409c-2.053-0.755-6.178-1.598-11.935-1.598c-5.756,0-9.881,0.843-11.935,1.598
		c2.054,0.756,6.179,1.598,11.935,1.598C84.126,121.007,88.251,120.165,90.304,119.409"/>
	<path style="fill:#FFFFFF;" d="M78.443,100.833l209.921,60.629c0.301,0.086,0.608,0.129,0.915,0.129
		c0.707,0,1.405-0.227,1.984-0.66c0.83-0.624,1.317-1.604,1.317-2.64v-57.21c0-1.475-0.967-2.762-2.384-3.171L80.274,37.279
		c-0.996-0.287-2.07-0.09-2.9,0.534c-0.828,0.622-1.316,1.602-1.316,2.639v57.21C76.058,99.129,77.035,100.426,78.443,100.833
		 M108.284,102.58l2.714-2.714l4.92,4.919L108.284,102.58z M98.689,78.218l11.365-11.364l12.309,12.309l-11.364,11.365
		L98.689,78.218z M115.667,95.197l11.365-11.364l12.309,12.308l-11.365,11.365L115.667,95.197z M153.73,115.705l-19.101-5.516
		l9.38-9.38l12.308,12.309L153.73,115.705z M148.678,96.141l11.366-11.366l12.308,12.308l-11.366,11.366L148.678,96.141z
		 M160.973,117.798l0.013-0.012l0.022,0.021L160.973,117.798z M174.137,121.599l-8.482-8.481l11.366-11.365l12.309,12.306
		l-9.255,9.256L174.137,121.599z M187.32,125.407l6.678-6.679l12.102,12.103L187.32,125.407z M198.667,114.059l11.365-11.364
		l12.309,12.309l-11.366,11.365L198.667,114.059z M232.766,138.532l-13.536-3.909l-3.586-3.586l11.365-11.365l12.309,12.309
		L232.766,138.532z M231.677,115.006l11.367-11.367l12.309,12.308l-11.367,11.366L231.677,115.006z M240.011,140.625l3.975-3.976
		l7.205,7.205L240.011,140.625z M248.654,131.982l11.367-11.366l12.309,12.308l-11.367,11.367L248.654,131.982z M285.979,153.9
		l-19.622-5.666l10.642-10.64l8.98,8.978V153.9z M285.979,137.237l-4.312-4.311l4.312-4.314V137.237z M285.979,103.563v1.606
		l-2.258-2.258L285.979,103.563z M285.979,114.506v4.768l-8.981,8.982l-12.309-12.309l11.365-11.364L285.979,114.506z
		 M252.723,93.958l17.868,5.161l0.795,0.796l-11.365,11.364l-12.31-12.309L252.723,93.958z M245.479,91.866l-2.435,2.436
		l-4.415-4.415L245.479,91.866z M238.375,98.97l-11.366,11.367L214.7,98.027l11.365-11.366L238.375,98.97z M200.033,78.74
		l19.1,5.516l-9.102,9.102L197.723,81.05L200.033,78.74z M205.363,98.026l-11.365,11.365L181.69,97.083l11.365-11.365
		L205.363,98.026z M180.549,73.112c0.118,0.179,0.25,0.35,0.408,0.508l7.429,7.43l-11.365,11.365l-12.308-12.309l8.975-8.974
		L180.549,73.112z M166.443,69.038l-6.399,6.399L148.448,63.84L166.443,69.038z M155.376,80.106l-11.367,11.367l-12.308-12.31
		l11.365-11.365L155.376,80.106z M120.996,55.912l14.32,4.136l3.081,3.081l-11.365,11.365l-12.309-12.309L120.996,55.912z
		 M113.752,53.819l-3.698,3.698l-6.7-6.701L113.752,53.819z M82.66,44.84l4.747,1.371l-4.747,4.748V44.84z M82.66,60.295
		l10.417-10.418l12.309,12.308L94.021,73.55L82.66,62.19V60.295z M82.66,71.527l6.692,6.692l-6.692,6.693V71.527z M82.66,94.249
		l11.36-11.362l12.31,12.31l-5.291,5.29L82.66,95.179V94.249z"/>
	<polygon style="fill:#FFFFFF;" points="168.214,143.449 168.214,164.077 154.347,159.893 179.304,190.032 204.056,174.893 
		191.185,171.01 191.185,150.449 	"/>
</g>
</svg>
