<?xml version="1.0" encoding="iso-8859-1"?>
<!-- Generator: Adobe Illustrator 25.4.1, SVG Export Plug-In . SVG Version: 6.00 Build 0)  -->
<svg version="1.1" id="Calque_1" xmlns="http://www.w3.org/2000/svg" xmlns:xlink="http://www.w3.org/1999/xlink" x="0px" y="0px"
	 viewBox="0 0 368.5 368.5" style="enable-background:new 0 0 368.5 368.5;" xml:space="preserve">
<g>
	<path style="fill:#FFFFFF;" d="M62.561,244.819h32.244c1.169,0,2.119-0.947,2.119-2.114v-67.223H60.442v67.223
		C60.442,243.872,61.392,244.819,62.561,244.819"/>
	<path style="fill:#FFFFFF;" d="M109.236,244.819h32.24c1.169,0,2.118-0.947,2.118-2.114v-67.223h-36.477v67.223
		C107.117,243.872,108.067,244.819,109.236,244.819"/>
	<path style="fill:#FFFFFF;" d="M174.101,240.191c0.834,0.006,1.576,0.054,2.286,0.116l13.883-7.701v-57.124h-36.48v67.224
		c0,1.166,0.951,2.113,2.12,2.113h7.606C166.162,241.98,169.922,240.191,174.101,240.191"/>
	<path style="fill:#FFFFFF;" d="M236.945,197.286l-10.994-18.978c-0.593-0.897-1.08-1.842-1.469-2.826h-24.02v51.47l36.483-20.239
		V197.286z"/>
	<path style="fill:#FFFFFF;" d="M272.191,197.234c0.071,0.098,0.138,0.2,0.199,0.307l10.259,17.742
		c0.076,0.129,0.146,0.268,0.215,0.409l0.755,1.309v-0.258c-1.218-2.913-1.894-6.107-1.894-9.455c0-3.349,0.675-6.542,1.894-9.454
		v-20.486l-20.787,3.727L272.191,197.234z"/>
	<path style="fill:#FFFFFF;" d="M283.618,93.156c0-0.468-0.157-0.926-0.448-1.302l-16.125-20.706
		c-0.401-0.518-1.019-0.817-1.67-0.817c-0.653,0-1.27,0.299-1.669,0.817l-16.122,20.706c-0.291,0.376-0.447,0.834-0.447,1.302
		v59.724l36.481-6.544V93.156z M265.374,102.3c-2.761,0-4.998-2.241-4.998-4.999c0-2.761,2.237-4.998,4.998-4.998
		c2.76,0,4.999,2.237,4.999,4.998C270.372,100.059,268.133,102.3,265.374,102.3"/>
	<path style="fill:#FFFFFF;" d="M51.878,169.269h171.577c0.28-6.18,4.335-11.806,10.389-13.829c0.006-0.002,0.097-0.032,0.104-0.033
		c0.391-0.129,0.788-0.239,1.193-0.334c0.09-0.024,0.249-0.062,0.405-0.095c0.165-0.041,0.308-0.074,0.453-0.1l0.944-0.17V93.157
		c0-0.469-0.156-0.927-0.448-1.303l-16.119-20.706c-0.4-0.517-1.021-0.816-1.672-0.816c-0.654,0-1.269,0.299-1.669,0.816
		L200.91,91.854c-0.291,0.376-0.448,0.834-0.448,1.303v61.619h-10.195V93.157c0-0.469-0.154-0.927-0.445-1.303l-16.121-20.706
		c-0.4-0.517-1.02-0.816-1.672-0.816c-0.654,0-1.268,0.299-1.668,0.816l-16.12,20.706c-0.291,0.376-0.45,0.834-0.45,1.303v61.619
		h-10.195V93.157c0-0.469-0.159-0.927-0.45-1.303l-16.121-20.706c-0.4-0.517-1.018-0.816-1.67-0.816
		c-0.654,0-1.269,0.299-1.668,0.816l-16.121,20.706c-0.291,0.376-0.449,0.834-0.449,1.303v61.619H96.924V93.157
		c0-0.469-0.157-0.927-0.449-1.303L80.351,71.148c-0.399-0.517-1.019-0.816-1.67-0.816c-0.654,0-1.27,0.299-1.669,0.816
		L60.891,91.854c-0.291,0.376-0.45,0.834-0.45,1.303v61.619h-8.563c-4.003,0-7.247,3.242-7.247,7.246
		C44.631,166.022,47.875,169.269,51.878,169.269 M218.701,92.304c2.76,0,4.999,2.236,4.999,4.998c0,2.758-2.239,4.999-4.999,4.999
		c-2.762,0-5-2.241-5-4.999C213.701,94.54,215.939,92.304,218.701,92.304 M172.029,92.304c2.759,0,4.998,2.236,4.998,4.998
		c0,2.758-2.239,4.999-4.998,4.999c-2.76,0-5-2.241-5-4.999C167.029,94.54,169.269,92.304,172.029,92.304 M125.355,92.304
		c2.762,0,4.998,2.236,4.998,4.998c0,2.758-2.236,4.999-4.998,4.999c-2.759,0-4.998-2.241-4.998-4.999
		C120.357,94.54,122.596,92.304,125.355,92.304 M78.681,92.304c2.762,0,5,2.236,5,4.998c0,2.758-2.238,4.999-5,4.999
		c-2.758,0-4.996-2.241-4.996-4.999C73.685,94.54,75.923,92.304,78.681,92.304"/>
	<path style="fill:#FFFFFF;" d="M306.295,224.858c9.689,0,17.573-7.881,17.573-17.571c0-9.689-7.884-17.572-17.573-17.572
		c-9.688,0-17.57,7.883-17.57,17.572C288.725,216.977,296.607,224.858,306.295,224.858"/>
	<path style="fill:#FFFFFF;" d="M236.023,162.092c-3.817,1.275-6.186,5.264-5.473,9.266c0.203,1.126,0.632,2.185,1.279,3.146
		c0.044,0.065,0.085,0.131,0.124,0.199l16.968,29.292c0.471,0.814,0.596,1.781,0.345,2.687c-0.25,0.906-0.853,1.674-1.675,2.128
		l-60.4,33.509c1.94,0.428,3.861,0.839,5.481,1.107c1.694,0.29,2.838,0.366,3.209,0.366c0.017,0,0.084,0.001,0.101,0.001h0.001
		c1.29,0,3.693-0.643,5.648-1.203l0.842-0.232c3.109-0.858,7.366-2.035,12.689-2.053c5.417,0.005,9.756,1.269,12.628,2.105
		l0.568,0.164c2.769,0.829,4.022,1.105,5.006,1.105c0.835,0,1.882-0.269,4.359-1.108l0.397-0.131
		c2.974-0.985,7.469-2.475,13.275-2.475c2.783,0,5.541,0.354,8.452,1.082c2.135,0.534,3.937,1.149,5.384,1.643l0.402,0.137
		c2.69,0.94,4.073,1.303,4.958,1.303c0.539-0.001,1.266-0.077,2.98-0.639c0.62-0.195,1.267-0.429,1.989-0.688
		c1.466-0.528,3.289-1.183,5.494-1.786c2.682-0.717,5.199-1.079,7.687-1.138l-11.995-20.784c-0.025-0.042-0.047-0.082-0.07-0.126
		l-0.115-0.231l0.035,0.061l-10.091-17.454c-0.07-0.094-0.134-0.194-0.194-0.297l-12.038-20.782
		c-0.572-0.988-0.627-2.192-0.146-3.227c0.479-1.035,1.433-1.77,2.556-1.973l43.773-7.85c2.174-0.389,4.065-1.601,5.327-3.411
		c1.261-1.811,1.741-4.005,1.352-6.177c-0.706-3.946-4.121-6.809-8.12-6.809c-0.487,0-0.981,0.043-1.467,0.13l-60.317,10.82
		c-0.054,0.017-0.15,0.04-0.248,0.06l-0.168,0.04c-0.278,0.067-0.485,0.122-0.688,0.189
		C236.121,162.061,236.029,162.09,236.023,162.092"/>
	<path style="fill:#FFFFFF;" d="M270.648,294.669c4.935-0.012,8.875-1.399,11.752-2.413l0.476-0.167
		c1.494-0.536,2.836-1.007,3.881-1.284c1.043-0.279,1.901-0.412,2.686-0.412h0.003c1.532,0,3.399,0.47,5.943,1.476
		c0.286,0.109,0.627,0.242,0.986,0.385c0.85,0.335,1.814,0.715,2.918,1.084c1.646,0.527,3.229,0.976,5.482,0.994
		c4.1,0,7.458-3.359,7.458-7.489c0-3.992-3.119-7.277-7.102-7.476c-0.274-0.014-0.545-0.06-0.809-0.137
		c-0.441-0.129-1.004-0.347-2.136-0.787c-0.821-0.319-1.854-0.72-3.031-1.153c-2.424-0.862-5.754-1.867-9.717-1.872
		c-2.095,0-4.241,0.302-6.556,0.922c-1.929,0.527-3.542,1.107-4.964,1.617c-0.812,0.291-1.541,0.554-2.202,0.763
		c-2.083,0.679-3.606,0.972-5.066,0.972h-0.002c-2.094,0-4.173-0.591-7.297-1.684l-0.398-0.135
		c-1.388-0.474-2.961-1.012-4.803-1.471c-2.349-0.587-4.552-0.873-6.734-0.873c-4.696,0-8.392,1.225-11.091,2.119l-0.382,0.126
		c-2.99,1.014-4.651,1.469-6.522,1.469c-2.034,0-3.959-0.468-7.036-1.387l-0.546-0.159c-2.641-0.771-6.259-1.824-10.668-1.829
		c-4.372,0.017-7.957,1.008-10.838,1.803l-0.819,0.224c-3.655,1.048-5.768,1.463-7.491,1.463c-0.018,0-0.138-0.003-0.145-0.002
		c-1.043,0-2.675-0.173-4.37-0.463c-2.192-0.362-4.78-0.94-7.283-1.499l-1.465-0.325c-1.61-0.355-2.966-0.638-4.329-0.874
		c-1.449-0.239-2.704-0.428-4.354-0.439c-4.105,0-7.464,3.359-7.464,7.488c0,4.126,3.358,7.486,7.485,7.488
		c0.075,0,0.151,0.002,0.225,0.007c0.637,0.042,2.107,0.29,3.577,0.602c0.949,0.197,2.044,0.442,3.226,0.705
		c1.606,0.359,3.377,0.754,5.209,1.122c3.11,0.601,6.202,1.147,9.614,1.164c4.348-0.017,7.929-1.004,10.806-1.799l0.835-0.228
		c3.661-1.049,5.774-1.463,7.491-1.463c0.017,0,0.127,0.004,0.145,0.001c1.962,0,3.887,0.468,6.966,1.388l0.549,0.159
		c2.64,0.769,6.257,1.824,10.666,1.827c4.523-0.001,8.111-1.19,10.73-2.058l0.568-0.186c2.998-1.009,4.684-1.463,6.692-1.468
		c0.994,0.003,1.954,0.137,3.135,0.428c1.03,0.245,2.223,0.651,3.734,1.165c0.812,0.275,1.719,0.584,2.729,0.909
		c2.433,0.772,5.744,1.662,9.635,1.662v3.5L270.648,294.669z"/>
	<path style="fill:#FFFFFF;" d="M289.439,246.854c-2.095,0-4.241,0.302-6.559,0.921c-1.921,0.525-3.532,1.103-4.952,1.614
		c-0.816,0.294-1.551,0.557-2.214,0.767c-2.071,0.677-3.594,0.972-5.061,0.974c-2.095,0-4.175-0.593-7.302-1.686l-0.383-0.13
		c-1.391-0.476-2.969-1.015-4.818-1.476c-2.349-0.587-4.552-0.873-6.734-0.873c-4.699,0-8.395,1.225-11.095,2.119l-0.378,0.125
		c-2.992,1.014-4.655,1.47-6.527,1.47c-2.031,0-3.956-0.467-7.032-1.388l-0.551-0.161c-2.64-0.768-6.256-1.821-10.663-1.825
		c-4.37,0.015-7.954,1.005-10.834,1.801l-0.822,0.225c-3.657,1.049-5.769,1.462-7.487,1.462c-0.019,0-0.132,0.001-0.151-0.001
		c-1.044,0-2.676-0.173-4.368-0.463c-2.199-0.365-4.794-0.944-7.302-1.503l-1.446-0.322c-1.61-0.354-2.966-0.638-4.329-0.873
		c-1.449-0.24-2.705-0.428-4.355-0.441c-4.104,0-7.463,3.36-7.463,7.489c0,4.128,3.357,7.487,7.484,7.488
		c0.158,0,0.314,0.011,0.466,0.031c0.814,0.084,2.246,0.348,3.335,0.578c0.941,0.195,2.022,0.436,3.189,0.697
		c1.617,0.362,3.401,0.76,5.248,1.129c3.11,0.603,6.202,1.148,9.615,1.167c4.347-0.018,7.928-1.006,10.805-1.8l0.835-0.229
		c3.657-1.048,5.768-1.462,7.487-1.462c0.017,0,0.136,0.005,0.152,0.002c1.962,0,3.886,0.467,6.964,1.388l0.539,0.156
		c2.643,0.771,6.261,1.825,10.676,1.83c4.525-0.002,8.114-1.192,10.734-2.061l0.562-0.185c3-1.01,4.687-1.463,6.695-1.467
		c0.984,0.003,1.945,0.135,3.133,0.429c1.03,0.244,2.223,0.65,3.734,1.164c0.812,0.276,1.719,0.584,2.729,0.909
		c2.433,0.771,5.745,1.663,9.642,1.663v3.5l0.011-3.5c4.93-0.013,8.868-1.399,11.743-2.41l0.486-0.171
		c1.489-0.535,2.83-1.008,3.884-1.286c1.039-0.278,1.897-0.41,2.682-0.41h0.003c1.534,0,3.401,0.469,5.943,1.476
		c0.284,0.108,0.619,0.239,0.972,0.38c0.854,0.337,1.822,0.718,2.932,1.089c1.645,0.526,3.226,0.976,5.483,0.995
		c4.099,0,7.457-3.36,7.457-7.489c0-3.993-3.119-7.278-7.101-7.477c-0.274-0.014-0.547-0.06-0.81-0.137
		c-0.442-0.13-1.008-0.348-2.146-0.791c-0.819-0.318-1.849-0.719-3.022-1.15C296.731,247.863,293.401,246.859,289.439,246.854"/>
</g>
</svg>
