<?xml version="1.0" encoding="iso-8859-1"?>
<!-- Generator: Adobe Illustrator 25.4.1, SVG Export Plug-In . SVG Version: 6.00 Build 0)  -->
<svg version="1.1" id="Calque_1" xmlns="http://www.w3.org/2000/svg" xmlns:xlink="http://www.w3.org/1999/xlink" x="0px" y="0px"
	 viewBox="0 0 368.5 368.5" style="enable-background:new 0 0 368.5 368.5;" xml:space="preserve">
<g>
	<path style="fill:#FFFFFF;" d="M101.762,278.966v-74.787H61.174v74.787c0,1.298,1.058,2.353,2.358,2.353h35.872
		C100.705,281.319,101.762,280.264,101.762,278.966"/>
	<path style="fill:#FFFFFF;" d="M153.684,278.966v-74.787h-40.583v74.787c0,1.298,1.057,2.353,2.357,2.353h35.868
		C152.627,281.319,153.684,280.264,153.684,278.966"/>
	<path style="fill:#FFFFFF;" d="M205.61,278.966v-74.787h-40.583v74.787c0,1.298,1.057,2.353,2.357,2.353h35.868
		C204.553,281.319,205.61,280.264,205.61,278.966"/>
	<path style="fill:#FFFFFF;" d="M257.536,278.966v-74.787h-40.588v74.787c0,1.298,1.058,2.353,2.358,2.353h35.872
		C256.479,281.319,257.536,280.264,257.536,278.966"/>
	<path style="fill:#FFFFFF;" d="M271.232,281.319h35.873c1.3,0,2.357-1.055,2.357-2.353v-74.787h-40.588v74.787
		C268.874,280.264,269.932,281.319,271.232,281.319"/>
	<path style="fill:#FFFFFF;" d="M327.049,189.206c0-4.455-3.608-8.063-8.063-8.063h-9.525v-68.551c0-0.522-0.175-1.032-0.499-1.449
		l-17.939-23.036c-0.445-0.576-1.133-0.909-1.858-0.909c-0.726,0-1.412,0.333-1.858,0.909l-17.934,23.036
		c-0.324,0.417-0.499,0.927-0.499,1.449v68.551h-11.339v-68.551c0-0.522-0.175-1.032-0.499-1.449l-17.934-23.036
		c-0.445-0.576-1.134-0.909-1.858-0.909c-0.729,0-1.413,0.333-1.858,0.909l-17.939,23.036c-0.324,0.417-0.499,0.927-0.499,1.449
		v68.551h-11.341v-68.551c0-0.522-0.173-1.032-0.497-1.449l-17.934-23.036c-0.445-0.576-1.134-0.909-1.858-0.909
		c-0.729,0-1.413,0.333-1.858,0.909l-17.934,23.036c-0.324,0.417-0.5,0.927-0.5,1.449v68.551h-11.342v-68.551
		c0-0.522-0.176-1.032-0.5-1.449l-17.934-23.036c-0.445-0.576-1.134-0.909-1.858-0.909c-0.729,0-1.413,0.333-1.858,0.909
		l-17.934,23.036c-0.324,0.417-0.5,0.927-0.5,1.449v68.551h-11.338v-68.551c0-0.522-0.175-1.032-0.499-1.449L83.325,88.107
		c-0.445-0.576-1.134-0.909-1.858-0.909c-0.729,0-1.413,0.333-1.858,0.909l-17.934,23.036c-0.324,0.417-0.5,0.927-0.5,1.449v68.551
		h-9.527c-4.452,0-8.063,3.608-8.063,8.063c0,4.45,3.611,8.062,8.063,8.062h267.339
		C323.441,197.268,327.049,193.656,327.049,189.206 M81.467,122.765c-3.068,0-5.559-2.493-5.559-5.561
		c0-3.073,2.491-5.561,5.559-5.561c3.073,0,5.563,2.488,5.563,5.561C87.03,120.272,84.54,122.765,81.467,122.765 M133.393,122.765
		c-3.071,0-5.561-2.493-5.561-5.561c0-3.073,2.49-5.561,5.561-5.561s5.561,2.488,5.561,5.561
		C138.954,120.272,136.464,122.765,133.393,122.765 M185.317,122.765c-3.071,0-5.561-2.493-5.561-5.561
		c0-3.073,2.49-5.561,5.561-5.561c3.07,0,5.561,2.488,5.561,5.561C190.878,120.272,188.387,122.765,185.317,122.765 M237.24,122.765
		c-3.073,0-5.561-2.493-5.561-5.561c0-3.073,2.488-5.561,5.561-5.561c3.071,0,5.561,2.488,5.561,5.561
		C242.801,120.272,240.311,122.765,237.24,122.765 M289.164,122.765c-3.071,0-5.561-2.493-5.561-5.561
		c0-3.073,2.49-5.561,5.561-5.561c3.071,0,5.561,2.488,5.561,5.561C294.724,120.272,292.234,122.765,289.164,122.765"/>
</g>
</svg>
