<?xml version="1.0" encoding="iso-8859-1"?>
<!-- Generator: Adobe Illustrator 25.4.1, SVG Export Plug-In . SVG Version: 6.00 Build 0)  -->
<svg version="1.1" id="Calque_1" xmlns="http://www.w3.org/2000/svg" xmlns:xlink="http://www.w3.org/1999/xlink" x="0px" y="0px"
	 viewBox="0 0 368.5 368.5" style="enable-background:new 0 0 368.5 368.5;" xml:space="preserve">
<g>
	<path style="fill:#FFFFFF;" d="M271.744,187.977c0,0-0.006,0.538,0.064,1.105c0.056,0.466,0.103,0.745,0.277,1.201
		c0.748,2.489,3.735,8.347,4.203,9.471c0.237,0.561,0.404,0.912,0.747,0.912c0.346,0,0.573-0.447,0.802-0.925
		c0.407-0.844,3.248-6.718,3.987-9.327c0.221-0.774,0.225-0.81,0.301-1.314c0.077-0.502,0.06-1.242,0.06-1.242V61.9h-10.441V187.977
		z"/>
	<path style="fill:#FFFFFF;" d="M256.256,55.783h43.637c2.533,0,4.592-2.06,4.592-4.592c0-2.531-2.059-4.592-4.592-4.592h-43.637
		c-2.529,0-4.588,2.061-4.588,4.592C251.668,53.723,253.727,55.783,256.256,55.783"/>
	<path style="fill:#FFFFFF;" d="M186.602,236.09c0,0-0.008,0.72,0.086,1.486c0.075,0.634,0.139,1.002,0.374,1.615
		c1.008,3.355,5.042,11.246,5.665,12.761c0.289,0.709,0.498,1.283,0.96,1.283c0.466,0,0.733-0.51,1.125-1.299
		c0.566-1.127,4.375-9.05,5.373-12.563c0.294-1.042,0.298-1.098,0.402-1.774c0.105-0.677,0.079-1.673,0.079-1.673V62.739h-14.064
		V236.09z"/>
	<path style="fill:#FFFFFF;" d="M167.974,56.621h51.843c3.326,0,6.03-2.706,6.03-6.032c0-3.323-2.704-6.029-6.03-6.029h-51.843
		c-3.324,0-6.026,2.706-6.026,6.029C161.948,53.915,164.65,56.621,167.974,56.621"/>
	<path style="fill:#FFFFFF;" d="M92.478,301.728c0,0-0.012,0.986,0.115,2.039c0.106,0.864,0.19,1.37,0.512,2.212
		c1.382,4.596,4.612,15.337,5.269,17.487c0.671,2.191,0.838,2.522,1.474,2.522c0.635,0,0.804-0.386,1.386-2.545
		c0.448-1.667,3.491-12.402,4.859-17.22c0.404-1.427,0.408-1.498,0.549-2.426c0.145-0.928,0.114-2.29,0.114-2.29V62.656H92.478
		V301.728z"/>
	<path style="fill:#FFFFFF;" d="M71.077,42.523c-3.863,0-7.005,3.143-7.005,7.007c0,3.864,3.142,7.009,7.005,7.009h57.433
		c3.865,0,7.011-3.145,7.011-7.009c0-3.864-3.146-7.007-7.011-7.007H71.077z"/>
</g>
</svg>
