<?xml version="1.0" encoding="iso-8859-1"?>
<!-- Generator: Adobe Illustrator 25.4.1, SVG Export Plug-In . SVG Version: 6.00 Build 0)  -->
<svg version="1.1" id="Calque_1" xmlns="http://www.w3.org/2000/svg" xmlns:xlink="http://www.w3.org/1999/xlink" x="0px" y="0px"
	 viewBox="0 0 368.5 368.5" style="enable-background:new 0 0 368.5 368.5;" xml:space="preserve">
<g>
	<path style="fill:#FFFFFF;" d="M161.353,165.202c1.178-1.182,2.57-2.111,4.131-2.76c1.57-0.652,3.224-0.984,4.916-0.984
		c3.373,0,6.672,1.367,9.051,3.75c0.211,0.211,0.414,0.428,0.609,0.652l2.34-2.329l-79.983-79.982l-18.14,18.14l73.353,73.355
		C157.4,171.445,158.695,167.854,161.353,165.202"/>
	<path style="fill:#FFFFFF;" d="M214.892,196.022c-0.473,0.054-0.949,0.088-1.43,0.088c-3.375,0-6.674-1.367-9.049-3.75
		c-0.205-0.207-0.404-0.419-0.593-0.637l-8.694,8.652l0.59,1.418c0.031,0.062,0.063,0.126,0.094,0.192
		c0.018,0.039,0.035,0.078,0.051,0.117l1.638,3.937c1.247,2.985,1.297,6.233,0.274,9.147l94.662,94.662l27.775,10.006l-9.648-28.161
		L214.892,196.022z"/>
	<path style="fill:#FFFFFF;" d="M113.864,65.03c4.271-4.273,4.271-11.225,0-15.498c-2.068-2.069-4.82-3.209-7.746-3.209
		c-2.93,0-5.682,1.141-7.752,3.211L49.981,97.919c-2.07,2.07-3.211,4.822-3.211,7.748c0,2.926,1.141,5.677,3.211,7.748
		c2.07,2.07,4.822,3.211,7.748,3.211c2.928,0,5.68-1.14,7.75-3.209L113.864,65.03z"/>
	<path style="fill:#FFFFFF;" d="M67.591,318.815l23.555-23.443c0.711-0.708,1.728-1.015,2.713-0.814
		c0.984,0.2,1.802,0.878,2.181,1.808l0.053,0.129c0.336,0.798,0.816,1.526,1.416,2.137c0.014,0.012,0.025,0.024,0.035,0.035
		c1.901,1.901,4.912,2.516,7.436,1.476c0.82-0.345,1.56-0.839,2.185-1.463c1.953-1.955,2.531-4.873,1.473-7.431l-1.654-3.967
		c-0.039-0.075-0.077-0.151-0.106-0.224l-13.535-32.516c-0.346-0.821-0.838-1.559-1.463-2.184c-1.893-1.898-4.906-2.511-7.422-1.465
		c-0.828,0.346-1.562,0.836-2.181,1.458c-1.965,1.961-2.54,4.874-1.469,7.431l3.14,7.545c0.467,1.125,0.209,2.421-0.654,3.279
		l-31.922,31.766c-0.019,0.019-0.062,0.06-0.082,0.079c-4.496,4.493-4.508,11.815-0.031,16.325c0.002,0.002,0.004,0.005,0.008,0.008
		c0.004,0.004,0.01,0.01,0.013,0.013c2.18,2.18,5.079,3.379,8.161,3.379C62.515,322.176,65.409,320.983,67.591,318.815"/>
	<path style="fill:#FFFFFF;" d="M183.927,170.476l9.594,23.033l8.726-8.686c0.715-0.712,1.739-1.016,2.727-0.812
		c0.988,0.206,1.807,0.894,2.178,1.83l0.056,0.141c0.328,0.771,0.823,1.509,1.438,2.126c1.912,1.917,4.916,2.52,7.427,1.477
		c0.834-0.345,1.569-0.837,2.19-1.461c1.961-1.955,2.537-4.865,1.48-7.425l-1.673-4.017c-0.036-0.067-0.067-0.134-0.094-0.198
		l-13.535-32.5c-0.01-0.023-0.02-0.045-0.028-0.069c-0.34-0.787-0.822-1.495-1.431-2.105c-1.899-1.902-4.905-2.516-7.418-1.471
		c-0.824,0.347-1.563,0.841-2.186,1.464c-1.959,1.956-2.535,4.87-1.471,7.428l3.141,7.548c0.467,1.124,0.209,2.42-0.654,3.278
		L183.927,170.476z"/>
	<path style="fill:#FFFFFF;" d="M261.646,125.72c0.75-0.744,1.836-1.042,2.855-0.78c15.104,3.843,46.805,9.357,50.372,9.973
		c0.007,0.002,0.029,0.006,0.054,0.01c0.36,0.055,0.723,0.082,1.078,0.082c1.68,0,3.211-0.601,4.311-1.695
		c0.969-0.959,1.492-2.33,1.404-3.668c-0.103-1.598-0.957-3.237-2.469-4.751L246.345,51.62c-0.023-0.023-0.047-0.044-0.07-0.068
		c-1.336-1.348-2.889-2.135-4.371-2.215c-0.108-0.007-0.195-0.01-0.285-0.01c-1.235,0-2.45,0.515-3.334,1.411
		c-1.498,1.501-2.125,3.814-1.733,6.357l0.03,0.169c0.955,5.743,5.904,35.112,9.464,49.335c0.258,1.025-0.045,2.11-0.793,2.855
		l-33.554,33.384l9.593,23.04L261.646,125.72z"/>
	<path style="fill:#FFFFFF;" d="M165.743,221.151l8.732-8.688c0.709-0.705,1.727-1.007,2.702-0.815
		c0.98,0.195,1.798,0.866,2.183,1.789l0.055,0.129c0.334,0.805,0.816,1.53,1.433,2.159c1.313,1.305,3.061,2.024,4.85,2.024
		c0.895,0,1.77-0.174,2.606-0.519c0.816-0.341,1.556-0.837,2.187-1.468c1.959-1.953,2.535-4.863,1.469-7.414l-1.625-3.906
		c-0.053-0.096-0.063-0.115-0.106-0.216l-13.593-32.665c-0.004-0.009-0.01-0.023-0.016-0.039c-0.342-0.779-0.818-1.476-1.414-2.072
		c-1.897-1.901-4.908-2.51-7.42-1.467c-0.832,0.345-1.568,0.836-2.191,1.461c-1.959,1.954-2.532,4.863-1.467,7.414l3.148,7.554
		c0.469,1.125,0.211,2.421-0.652,3.28l-10.473,10.42L165.743,221.151z"/>
	<path style="fill:#FFFFFF;" d="M146.694,240.102c0.703-0.698,1.707-1.006,2.678-0.821c0.972,0.185,1.791,0.838,2.187,1.746
		l0.059,0.132c0.351,0.846,0.818,1.558,1.41,2.165c0.021,0.021,0.043,0.043,0.064,0.064c1.901,1.9,4.915,2.517,7.442,1.473
		c0.818-0.344,1.556-0.838,2.185-1.468c1.954-1.952,2.53-4.863,1.469-7.419l-3.139-7.529c-0.015-0.038-0.031-0.076-0.044-0.115
		l-12.123-29.088c-0.344-0.815-0.833-1.543-1.446-2.155c-1.9-1.906-4.908-2.515-7.422-1.468c-0.83,0.345-1.564,0.836-2.179,1.457
		c-1.967,1.957-2.541,4.871-1.479,7.435l3.141,7.543c0.468,1.125,0.209,2.422-0.655,3.281l-10.47,10.415l9.593,23.04
		L146.694,240.102z"/>
	<path style="fill:#FFFFFF;" d="M118.927,267.735c0.717-0.713,1.744-1.019,2.736-0.808c0.991,0.209,1.807,0.904,2.174,1.846
		l0.053,0.133c0.31,0.737,0.783,1.455,1.381,2.069c0.021,0.02,0.041,0.039,0.06,0.059c1.895,1.894,4.907,2.508,7.42,1.465
		c0.822-0.344,1.561-0.838,2.184-1.462c1.957-1.954,2.535-4.866,1.478-7.425l-1.615-3.875c-0.025-0.052-0.051-0.105-0.066-0.143
		l-13.651-32.767c-0.343-0.79-0.826-1.499-1.433-2.106c-1.897-1.9-4.905-2.513-7.412-1.47c-0.823,0.341-1.557,0.832-2.184,1.46
		c-1.955,1.952-2.529,4.868-1.467,7.429l3.141,7.551c0.469,1.125,0.211,2.421-0.654,3.28l-10.479,10.42l9.596,23.035
		L118.927,267.735z"/>
</g>
</svg>
