<?xml version="1.0" encoding="iso-8859-1"?>
<!-- Generator: Adobe Illustrator 25.4.1, SVG Export Plug-In . SVG Version: 6.00 Build 0)  -->
<svg version="1.1" id="Calque_1" xmlns="http://www.w3.org/2000/svg" xmlns:xlink="http://www.w3.org/1999/xlink" x="0px" y="0px"
	 viewBox="0 0 368.5 368.5" style="enable-background:new 0 0 368.5 368.5;" xml:space="preserve">
<g>
	<path style="fill:#FFFFFF;" d="M44.596,82.029c0.103,21.937,0.238,44.555,0.368,66.584c0.273,46.092,0.53,89.629,0.463,118.514
		c-0.027,10.346,3.039,18.677,9.109,24.764c11.427,11.456,29.634,11.586,30.403,11.586c0.135,0,1.843,0.004,4.817,0.01
		c0.381-0.133,0.785-0.22,1.209-0.22h58.057c0.532,0,1.038,0.118,1.496,0.322c22.071,0.032,46.839,0.066,69.517,0.085
		c0.501-0.25,1.058-0.407,1.655-0.407h58.057c0.597,0,1.154,0.154,1.652,0.407c0.258,0,0.532-0.002,0.78-0.002
		c14.05-0.029,24.781-3.83,31.889-11.299c10.215-10.733,9.625-25.747,9.618-25.897l0.087-174.057c0-0.122,0.007-0.246,0.019-0.368
		c0.019-0.214,1.989-22.12-11.094-36.544c-7.814-8.614-19.542-12.981-34.861-12.981L85.705,42.989
		c-12.964,0.125-23.126,3.868-30.179,11.122C44.425,65.527,44.593,81.865,44.596,82.029 M66.498,214.713
		c0-7.714,4.976-14.271,11.88-16.677c-0.073-14.008-0.159-28.923-0.251-44.175c-0.01-1.799-0.022-3.621-0.034-5.429
		c-6.754-2.484-11.595-8.965-11.595-16.572v-20.976c0-7.596,4.824-14.068,11.564-16.561c0.345-2.5,1.168-6.198,3.167-9.671
		c3.765-6.547,10.558-9.779,20.766-9.878l163.964-0.393c9.968,0,17.02,2.446,21.565,7.477c7.665,8.474,6.658,22.507,6.646,22.647
		l-0.072,0.712l-0.077,149.809c0.007,0.106,0.009,0.212,0.009,0.301c-0.041,2.028-0.547,9.018-5.345,13.898
		c-3.914,3.989-10.333,6.025-19.074,6.046c-5.673,0.01-13.255,0.015-22.083,0.015c-51.825,0-145.54-0.183-146.268-0.186
		c-2.464-0.031-8.365-0.749-13.344-3.242c-4.386-2.199-9.42-6.084-9.396-16.716c0.002-0.883,0.002-1.814,0.004-2.727
		c-6.982-2.361-12.026-8.96-12.026-16.727V214.713z"/>
	<path style="fill:#FFFFFF;" d="M101.841,110.884v20.976c0,9.293-7.219,16.917-16.341,17.603c0.01,1.448,0.017,2.91,0.027,4.353
		c0.089,14.936,0.176,29.552,0.245,43.308c8.995,0.816,16.069,8.388,16.069,17.589v20.975c0,9.15-6.995,16.695-15.919,17.579
		c0,0.626,0,1.28-0.003,1.892c-0.014,6.848,2.503,8.677,5.312,10.083c3.897,1.951,8.707,2.442,10.085,2.459
		c0.691,0.002,94.394,0.186,146.212,0.186c8.823,0,16.401-0.005,22.066-0.015c6.593-0.017,11.369-1.342,13.814-3.832
		c2.828-2.877,3.177-7.62,3.218-8.694c-0.002-0.061-0.005-0.117-0.005-0.169l0.077-150.145c0-0.122,0.008-0.243,0.02-0.366
		l0.089-0.895c0.192-2.956-0.273-11.977-4.769-16.95c-3.067-3.39-8.322-5.04-16.069-5.04l-163.928,0.393
		c-10.912,0.106-13.354,4.354-14.397,6.169c-0.956,1.662-1.525,3.427-1.879,4.952C94.762,94.107,101.841,101.682,101.841,110.884
		 M182.679,133.202c0-5.123,4.169-9.293,9.295-9.293h66.918c5.124,0,9.291,4.17,9.291,9.293v82.951c0,5.124-4.167,9.294-9.291,9.294
		h-66.918c-5.126,0-9.295-4.17-9.295-9.294V133.202z"/>
	<rect x="94.665" y="310.667" style="fill:#FFFFFF;" width="50.657" height="15.324"/>
	<rect x="225.39" y="310.667" style="fill:#FFFFFF;" width="50.657" height="15.324"/>
	<path style="fill:#FFFFFF;" d="M195.922,158.392h10.579c1.375,0,2.491-1.122,2.491-2.495v-13.8c0-1.375-1.116-2.492-2.491-2.492
		h-10.579c-1.378,0-2.49,1.117-2.49,2.492v13.8C193.432,157.27,194.544,158.392,195.922,158.392"/>
	<path style="fill:#FFFFFF;" d="M219.416,158.392h10.577c1.377,0,2.49-1.122,2.49-2.495v-13.8c0-1.375-1.113-2.492-2.49-2.492
		h-10.577c-1.378,0-2.49,1.117-2.49,2.492v13.8C216.926,157.27,218.038,158.392,219.416,158.392"/>
	<path style="fill:#FFFFFF;" d="M243.079,158.392h10.581c1.378,0,2.489-1.122,2.489-2.495v-13.8c0-1.375-1.111-2.492-2.489-2.492
		h-10.581c-1.375,0-2.491,1.117-2.491,2.492v13.8C240.588,157.27,241.704,158.392,243.079,158.392"/>
	<path style="fill:#FFFFFF;" d="M193.432,182.134c0,1.377,1.113,2.491,2.49,2.491h10.58c1.375,0,2.49-1.114,2.49-2.491v-13.797
		c0-1.377-1.115-2.491-2.49-2.491h-10.58c-1.377,0-2.49,1.114-2.49,2.491V182.134z"/>
	<path style="fill:#FFFFFF;" d="M216.926,182.134c0,1.377,1.113,2.491,2.49,2.491h10.577c1.378,0,2.491-1.114,2.491-2.491v-13.797
		c0-1.377-1.113-2.491-2.491-2.491h-10.577c-1.377,0-2.49,1.114-2.49,2.491V182.134z"/>
	<path style="fill:#FFFFFF;" d="M240.589,182.134c0,1.377,1.115,2.491,2.491,2.491h10.581c1.378,0,2.488-1.114,2.488-2.491v-13.797
		c0-1.377-1.11-2.491-2.488-2.491H243.08c-1.376,0-2.491,1.114-2.491,2.491V182.134z"/>
	<path style="fill:#FFFFFF;" d="M193.432,208.714c0,1.38,1.113,2.49,2.49,2.49h10.58c1.375,0,2.49-1.11,2.49-2.49v-13.797
		c0-1.377-1.115-2.491-2.49-2.491h-10.58c-1.377,0-2.49,1.114-2.49,2.491V208.714z"/>
	<path style="fill:#FFFFFF;" d="M216.926,208.714c0,1.38,1.113,2.49,2.49,2.49h10.577c1.378,0,2.491-1.11,2.491-2.49v-13.797
		c0-1.377-1.113-2.491-2.491-2.491h-10.577c-1.377,0-2.49,1.114-2.49,2.491V208.714z"/>
	<path style="fill:#FFFFFF;" d="M240.589,208.714c0,1.38,1.115,2.49,2.491,2.49h10.581c1.378,0,2.488-1.11,2.488-2.49v-13.797
		c0-1.377-1.11-2.491-2.488-2.491H243.08c-1.376,0-2.491,1.114-2.491,2.491V208.714z"/>
	<path style="fill:#FFFFFF;" d="M78.831,214.713v20.975c0,2.942,2.394,5.336,5.335,5.336c2.946,0,5.343-2.394,5.343-5.336v-20.975
		c0-2.942-2.397-5.338-5.343-5.338C81.225,209.375,78.831,211.771,78.831,214.713"/>
	<path style="fill:#FFFFFF;" d="M84.166,137.197c2.946,0,5.342-2.394,5.342-5.337v-20.976c0-2.944-2.396-5.336-5.342-5.336
		c-2.941,0-5.335,2.392-5.335,5.336v20.976C78.831,134.803,81.225,137.197,84.166,137.197"/>
</g>
</svg>
