<?xml version="1.0" encoding="iso-8859-1"?>
<!-- Generator: Adobe Illustrator 25.4.1, SVG Export Plug-In . SVG Version: 6.00 Build 0)  -->
<svg version="1.1" id="Calque_1" xmlns="http://www.w3.org/2000/svg" xmlns:xlink="http://www.w3.org/1999/xlink" x="0px" y="0px"
	 viewBox="0 0 368.5 368.5" style="enable-background:new 0 0 368.5 368.5;" xml:space="preserve">
<polygon style="fill:#FFFFFF;" points="46.018,202.488 96.42,270.228 96.42,180.218 46.018,119.295 "/>
<polygon style="fill:#FFFFFF;" points="247.258,91.205 49.719,91.205 100.524,146.891 316.006,146.891 "/>
<polygon style="fill:#FFFFFF;" points="46.018,113.02 96.42,173.942 96.42,152.78 46.018,97.535 "/>
<g>
	<path style="fill:#FFFFFF;" d="M103.42,277.296h219.062v-94.958H103.42V277.296z M163.059,198.41h7.41
		c1.303,0,2.428,0.721,3.029,1.779c0.282,0.292,0.518,0.636,0.686,1.026c2.932,6.74,23.047,14.249,47.227,14.249
		c20.763,0,32.412-5.525,33.25-9.702l-0.477-2.496c-0.33-1.728,0.678-3.424,2.344-3.973c0.57-0.404,1.263-0.647,2.015-0.647h7.243
		c9.125,0,16.548,7.424,16.548,16.551c0,9.126-7.423,16.551-16.548,16.551h-4.112v0.307c0,0.123-0.008,0.247-0.019,0.369
		c-1.037,9.681-17.211,16.185-40.244,16.185c-20.875,0-45.487-5.766-52.565-16.496h-5.787c-9.291,0-16.85-7.558-16.85-16.851
		S153.768,198.41,163.059,198.41"/>
	<rect x="103.42" y="153.89" style="fill:#FFFFFF;" width="219.062" height="24.447"/>
	<path style="fill:#FFFFFF;" d="M221.41,241.609c20.783,0,32.566-5.637,33.264-9.787l0.015-16.233
		c-6.978,4.312-18.728,6.874-33.279,6.874c-16.99,0-36.461-3.818-46.936-11.024v16.496
		C178.258,234.519,197.914,241.609,221.41,241.609"/>
	<path style="fill:#FFFFFF;" d="M275.334,215.197c0-5.267-4.283-9.551-9.549-9.551h-3.742v19.102h3.742
		C271.051,224.748,275.334,220.463,275.334,215.197"/>
	<path style="fill:#FFFFFF;" d="M163.059,225.113h3.91V205.41h-3.91c-5.432,0-9.85,4.419-9.85,9.851
		C153.208,220.694,157.626,225.113,163.059,225.113"/>
</g>
</svg>
