<?xml version="1.0" encoding="iso-8859-1"?>
<!-- Generator: Adobe Illustrator 25.4.1, SVG Export Plug-In . SVG Version: 6.00 Build 0)  -->
<svg version="1.1" id="Calque_1" xmlns="http://www.w3.org/2000/svg" xmlns:xlink="http://www.w3.org/1999/xlink" x="0px" y="0px"
	 viewBox="0 0 368.5 368.5" style="enable-background:new 0 0 368.5 368.5;" xml:space="preserve">
<g>
	<path style="fill:#FFFFFF;" d="M151.652,125.335c-0.985-2.371-0.449-5.1,1.361-6.918c6.735-6.773,10.597-16.522,10.597-26.75
		c0-19.631-13.948-35.602-31.094-35.602c-17.144,0-31.092,15.971-31.092,35.602l-0.287,226.226l174.216,0.006v-82.398h-27.225
		v32.201c0,18.542-15.088,33.626-33.633,33.626c-12.116,0-22.724-6.46-28.645-16.096l-29.472,15.084
		c-0.618,0.316-1.277,0.467-1.927,0.467c-1.539,0-3.022-0.842-3.772-2.307c-1.066-2.081-0.242-4.632,1.84-5.697l29.815-15.262
		c-0.625-2.041-1.066-4.162-1.29-6.346l-24.666,12.623c-0.618,0.315-1.277,0.465-1.927,0.465c-1.539,0-3.022-0.843-3.772-2.306
		c-1.066-2.083-0.242-4.632,1.84-5.699l28.345-14.504v-7.012l-24.486,12.531c-0.618,0.316-1.277,0.467-1.927,0.467
		c-1.539,0-3.022-0.842-3.772-2.307c-1.066-2.081-0.242-4.634,1.84-5.698l28.345-14.506v-7.011l-24.486,12.532
		c-0.618,0.316-1.277,0.466-1.927,0.466c-1.539,0-3.022-0.841-3.772-2.306c-1.066-2.082-0.242-4.633,1.84-5.699l28.345-14.504
		v-7.012l-24.486,12.532c-0.618,0.317-1.277,0.467-1.927,0.467c-1.539,0-3.022-0.842-3.772-2.306
		c-1.066-2.083-0.242-4.634,1.84-5.699l28.345-14.507v-7.011l-24.486,12.532c-0.618,0.316-1.277,0.466-1.927,0.466
		c-1.539,0-3.022-0.843-3.772-2.307c-1.066-2.082-0.242-4.632,1.84-5.698l28.345-14.505v-7.009l-24.486,12.532
		c-0.618,0.318-1.277,0.466-1.927,0.466c-1.539,0-3.022-0.841-3.772-2.306c-1.066-2.082-0.242-4.634,1.84-5.699l28.345-14.506v-7.01
		l-24.486,12.533c-0.618,0.315-1.277,0.464-1.927,0.464c-1.539,0-3.022-0.842-3.772-2.307c-1.066-2.081-0.242-4.633,1.84-5.698
		l29.887-15.294c4.29-13.643,17.05-23.566,32.089-23.566c18.545,0,33.633,15.088,33.633,33.633v26.376h27.225v-69.017H157.517
		C154.951,129.247,152.637,127.703,151.652,125.335"/>
	<path style="fill:#FFFFFF;" d="M318.195,116.543c5.663-6.634,8.868-15.557,8.868-24.876c0-19.632-13.946-35.602-31.088-35.602
		l-133.894-0.007c8.742,8.838,14.233,21.53,14.233,35.609c0,8.83-2.209,17.429-6.26,24.876H318.195z"/>
	<path style="fill:#FFFFFF;" d="M239.659,235.501h-6.149c-10.268,0-18.622-8.353-18.622-18.62c0-10.265,8.354-18.618,18.622-18.618
		h6.149v-26.375c0-13.876-11.289-25.164-25.164-25.164s-25.162,11.288-25.162,25.164v95.814c0,13.872,11.287,25.157,25.162,25.157
		s25.164-11.285,25.164-25.157V235.501z"/>
	<path style="fill:#FFFFFF;" d="M233.509,206.732c-5.598,0-10.152,4.553-10.152,10.148c0,5.597,4.554,10.151,10.152,10.151h78.147
		c5.598,0,10.151-4.554,10.151-10.151c0-5.595-4.553-10.148-10.151-10.148H233.509z"/>
	<path style="fill:#FFFFFF;" d="M63.326,290.827c-2.674,0.794-4.216,3.616-3.439,6.288c0.624,2.156,2.627,3.661,4.872,3.661
		c0.481,0,0.96-0.067,1.416-0.202c1.305-0.376,2.383-1.238,3.036-2.428c0.655-1.19,0.805-2.565,0.427-3.85
		C68.888,291.676,66.115,290.024,63.326,290.827 M65.106,296.924c-0.651,0.182-1.386-0.223-1.568-0.861
		c-0.096-0.324-0.056-0.681,0.106-0.975c0.163-0.298,0.444-0.522,0.761-0.613c0.114-0.033,0.233-0.051,0.354-0.051
		c0.566,0,1.073,0.381,1.229,0.921C66.182,296.015,65.799,296.719,65.106,296.924"/>
	<path style="fill:#FFFFFF;" d="M69.639,259.825c-0.621-2.16-2.624-3.668-4.872-3.668c-0.484,0-0.964,0.07-1.423,0.204
		c-2.683,0.777-4.233,3.599-3.455,6.29c0.626,2.154,2.631,3.657,4.873,3.657c0.481,0,0.96-0.068,1.413-0.201
		c1.305-0.377,2.383-1.239,3.037-2.428C69.866,262.488,70.016,261.113,69.639,259.825 M65.123,262.458
		c-0.65,0.187-1.399-0.217-1.585-0.863c-0.095-0.324-0.056-0.679,0.106-0.974c0.164-0.299,0.444-0.523,0.761-0.614
		c0.115-0.034,0.235-0.051,0.357-0.051c0.573,0,1.066,0.37,1.227,0.927C66.184,261.556,65.792,262.265,65.123,262.458"/>
	<path style="fill:#FFFFFF;" d="M69.638,225.357c-0.752-2.617-3.553-4.258-6.306-3.465c-2.679,0.786-4.223,3.61-3.445,6.285
		c0.624,2.157,2.628,3.663,4.873,3.663c0.481,0,0.96-0.068,1.415-0.201c1.305-0.377,2.383-1.239,3.036-2.429
		C69.866,228.02,70.016,226.645,69.638,225.357 M65.106,227.99c-0.647,0.183-1.384-0.222-1.568-0.862
		c-0.096-0.323-0.056-0.679,0.106-0.976c0.163-0.298,0.444-0.522,0.761-0.613c0.115-0.032,0.234-0.051,0.355-0.051
		c0.566,0,1.072,0.381,1.228,0.919C66.183,227.078,65.796,227.785,65.106,227.99"/>
	<path style="fill:#FFFFFF;" d="M64.763,197.372c0.477,0,0.954-0.067,1.412-0.199c1.303-0.378,2.381-1.239,3.034-2.427
		c0.656-1.19,0.807-2.566,0.428-3.862c-0.752-2.616-3.609-4.24-6.299-3.459c-2.682,0.782-4.229,3.603-3.451,6.286
		C60.513,195.867,62.517,197.372,64.763,197.372 M63.644,191.685c0.163-0.298,0.444-0.522,0.766-0.615
		c0.114-0.033,0.233-0.05,0.353-0.05c0.564,0,1.068,0.38,1.225,0.922c0.195,0.672-0.193,1.381-0.877,1.58
		c-0.65,0.189-1.388-0.221-1.574-0.87C63.442,192.331,63.482,191.978,63.644,191.685"/>
	<path style="fill:#FFFFFF;" d="M64.762,162.904c0.478,0,0.955-0.067,1.419-0.202c1.303-0.379,2.38-1.242,3.031-2.43
		c0.654-1.19,0.803-2.563,0.426-3.852c-0.752-2.619-3.615-4.247-6.3-3.464c-2.686,0.784-4.232,3.607-3.452,6.278
		C60.509,161.396,62.513,162.904,64.762,162.904 M63.644,157.217c0.162-0.297,0.44-0.52,0.766-0.615
		c0.114-0.032,0.232-0.05,0.352-0.05c0.566,0,1.071,0.383,1.225,0.913c0.197,0.678-0.191,1.39-0.876,1.589
		c-0.65,0.188-1.389-0.221-1.574-0.864C63.442,157.865,63.482,157.512,63.644,157.217"/>
	<path style="fill:#FFFFFF;" d="M59.887,124.776c0.626,2.156,2.629,3.661,4.874,3.661c0.48,0,0.959-0.067,1.419-0.203
		c1.304-0.378,2.38-1.241,3.032-2.43c0.654-1.19,0.803-2.563,0.426-3.85c-0.619-2.161-2.623-3.67-4.871-3.67
		c-0.482,0-0.962,0.069-1.418,0.201c-1.3,0.376-2.377,1.237-3.032,2.425C59.662,122.102,59.509,123.475,59.887,124.776
		 M63.644,122.749c0.162-0.297,0.44-0.52,0.761-0.613c0.115-0.033,0.235-0.051,0.356-0.051c0.565,0,1.07,0.38,1.227,0.919
		c0.094,0.324,0.054,0.677-0.107,0.972c-0.163,0.295-0.444,0.52-0.764,0.611c-0.661,0.183-1.396-0.222-1.58-0.867
		C63.442,123.397,63.482,123.044,63.644,122.749"/>
	<path style="fill:#FFFFFF;" d="M102.261,56.864c0.024-0.041,0.035-0.091,0.058-0.136c0.593-1.161,0.728-2.477,0.366-3.706
		c-0.62-2.163-2.623-3.675-4.873-3.675c-0.484,0-0.965,0.069-1.418,0.202c-2.684,0.777-4.238,3.597-3.461,6.291
		c0.624,2.155,2.628,3.661,4.871,3.661c0.481,0,0.959-0.069,1.416-0.201c0.502-0.145,0.955-0.38,1.378-0.66
		C101.279,58.191,101.858,57.6,102.261,56.864 M98.173,55.647c-0.653,0.197-1.407-0.219-1.588-0.851
		c-0.096-0.326-0.058-0.685,0.105-0.984c0.163-0.297,0.443-0.522,0.761-0.614c0.114-0.033,0.233-0.049,0.353-0.049
		c0.567,0,1.072,0.38,1.231,0.928C99.229,54.75,98.836,55.456,98.173,55.647"/>
	<path style="fill:#FFFFFF;" d="M64.762,93.968c0.478,0,0.954-0.068,1.419-0.203c1.303-0.379,2.38-1.242,3.031-2.429
		c0.654-1.19,0.803-2.565,0.426-3.851c-0.752-2.624-3.68-4.233-6.295-3.467c-1.301,0.378-2.377,1.242-3.03,2.432
		c-0.652,1.19-0.803,2.559-0.426,3.855C60.511,92.462,62.515,93.968,64.762,93.968 M63.644,88.282
		c0.162-0.299,0.44-0.522,0.766-0.617c0.114-0.032,0.232-0.049,0.352-0.049c0.565,0,1.07,0.38,1.226,0.919
		c0.094,0.323,0.054,0.676-0.106,0.97c-0.162,0.296-0.441,0.519-0.765,0.613c-0.661,0.184-1.396-0.223-1.58-0.866
		C63.442,88.928,63.482,88.574,63.644,88.282"/>
	<path style="fill:#FFFFFF;" d="M64.76,59.501c0.481,0,0.96-0.069,1.415-0.201c1.305-0.378,2.383-1.241,3.037-2.431
		c0.654-1.191,0.804-2.563,0.427-3.847c-0.619-2.163-2.623-3.675-4.872-3.675c-0.484,0-0.965,0.069-1.424,0.206
		c-2.686,0.777-4.235,3.599-3.456,6.287C60.513,57.998,62.515,59.501,64.76,59.501 M63.644,53.812
		c0.163-0.297,0.444-0.522,0.761-0.613c0.114-0.033,0.234-0.05,0.355-0.05c0.565,0,1.071,0.38,1.228,0.923
		c0.195,0.675-0.196,1.383-0.865,1.576c-0.653,0.189-1.402-0.22-1.585-0.858C63.442,54.466,63.482,54.11,63.644,53.812"/>
	<path style="fill:#FFFFFF;" d="M48.672,319.157c0.481,0,0.961-0.068,1.413-0.2c1.31-0.378,2.391-1.242,3.045-2.435
		c0.654-1.19,0.801-2.565,0.423-3.848c-0.754-2.62-3.62-4.243-6.301-3.464c-2.679,0.782-4.227,3.604-3.451,6.29
		C44.426,317.653,46.428,319.157,48.672,319.157 M47.561,313.466c0.163-0.296,0.443-0.52,0.754-0.61
		c0.115-0.033,0.234-0.051,0.357-0.051c0.566,0,1.073,0.382,1.231,0.929c0.194,0.67-0.196,1.375-0.878,1.575
		c-0.645,0.182-1.386-0.223-1.569-0.857C47.358,314.125,47.398,313.766,47.561,313.466"/>
	<path style="fill:#FFFFFF;" d="M48.672,284.692c0.482,0,0.961-0.069,1.419-0.203c1.307-0.38,2.388-1.246,3.04-2.438
		c0.653-1.192,0.8-2.565,0.421-3.849c-0.756-2.62-3.652-4.232-6.3-3.46c-2.682,0.783-4.23,3.605-3.451,6.286
		C44.424,283.185,46.428,284.692,48.672,284.692 M47.56,279.001c0.161-0.295,0.439-0.519,0.755-0.611
		c0.115-0.033,0.235-0.05,0.357-0.05c0.568,0,1.073,0.38,1.23,0.921c0.195,0.672-0.194,1.38-0.871,1.578
		c-0.646,0.184-1.391-0.219-1.576-0.858C47.359,279.657,47.397,279.298,47.56,279.001"/>
	<path style="fill:#FFFFFF;" d="M47.252,240.277c-2.679,0.782-4.226,3.602-3.45,6.291c0.626,2.152,2.631,3.655,4.873,3.655
		c0.479,0,0.956-0.067,1.409-0.2c1.309-0.377,2.391-1.241,3.045-2.434c0.654-1.192,0.802-2.566,0.423-3.853
		C52.796,241.116,49.9,239.504,47.252,240.277 M49.031,246.374c-0.646,0.185-1.391-0.219-1.576-0.858
		c-0.097-0.327-0.057-0.685,0.106-0.982c0.162-0.297,0.441-0.521,0.76-0.612c0.114-0.033,0.233-0.051,0.354-0.051
		c0.573,0,1.065,0.37,1.227,0.927C50.097,245.469,49.707,246.175,49.031,246.374"/>
	<path style="fill:#FFFFFF;" d="M47.24,205.807c-2.675,0.793-4.217,3.616-3.439,6.286c0.624,2.157,2.628,3.663,4.874,3.663
		c0.478,0,0.955-0.068,1.421-0.204c1.308-0.382,2.387-1.25,3.039-2.443c0.649-1.189,0.796-2.558,0.417-3.84
		C52.799,206.652,50.033,205.005,47.24,205.807 M49.02,211.904c-0.645,0.184-1.382-0.22-1.564-0.857
		c-0.097-0.324-0.059-0.685,0.104-0.983c0.161-0.295,0.437-0.517,0.761-0.61c0.114-0.034,0.233-0.051,0.354-0.051
		c0.565,0,1.071,0.379,1.226,0.917C50.096,210.992,49.714,211.699,49.02,211.904"/>
	<path style="fill:#FFFFFF;" d="M47.252,171.339c-2.68,0.784-4.229,3.604-3.451,6.288c0.625,2.158,2.629,3.661,4.874,3.661
		c0.478,0,0.955-0.065,1.409-0.2c1.309-0.376,2.391-1.241,3.045-2.434c0.654-1.192,0.802-2.565,0.424-3.849
		C52.798,172.182,49.905,170.567,47.252,171.339 M49.031,177.438c-0.651,0.179-1.395-0.222-1.576-0.857
		c-0.097-0.327-0.057-0.685,0.106-0.983c0.162-0.296,0.441-0.52,0.76-0.611c0.113-0.032,0.233-0.051,0.354-0.051
		c0.565,0,1.069,0.379,1.227,0.923C50.097,176.531,49.707,177.238,49.031,177.438"/>
	<path style="fill:#FFFFFF;" d="M48.675,146.818c0.478,0,0.955-0.066,1.421-0.201c1.307-0.382,2.385-1.248,3.037-2.44
		c0.651-1.188,0.797-2.561,0.419-3.851c-0.758-2.612-3.556-4.244-6.306-3.456c-2.677,0.789-4.223,3.61-3.445,6.288
		C44.426,145.314,46.43,146.818,48.675,146.818 M47.56,141.129c0.161-0.295,0.436-0.515,0.761-0.611
		c0.113-0.033,0.233-0.052,0.354-0.052c0.565,0,1.069,0.381,1.227,0.926c0.194,0.668-0.192,1.374-0.882,1.578
		c-0.647,0.189-1.378-0.22-1.566-0.865C47.359,141.781,47.398,141.426,47.56,141.129"/>
	<path style="fill:#FFFFFF;" d="M47.252,102.403c-2.679,0.784-4.226,3.604-3.45,6.29c0.626,2.155,2.63,3.659,4.875,3.659
		c0.477,0,0.954-0.067,1.408-0.2c1.309-0.377,2.389-1.24,3.044-2.433c0.654-1.192,0.803-2.567,0.423-3.857
		C52.797,103.248,49.938,101.627,47.252,102.403 M49.025,108.502c-0.652,0.188-1.385-0.218-1.57-0.86
		c-0.097-0.326-0.057-0.682,0.106-0.979c0.163-0.297,0.442-0.52,0.76-0.612c0.115-0.035,0.234-0.051,0.356-0.051
		c0.572,0,1.064,0.37,1.226,0.925C50.097,107.596,49.707,108.302,49.025,108.502"/>
	<path style="fill:#FFFFFF;" d="M48.672,77.883c0.482,0,0.961-0.067,1.424-0.202c1.308-0.384,2.387-1.25,3.039-2.441
		c0.649-1.189,0.795-2.56,0.417-3.844c-0.753-2.615-3.549-4.249-6.306-3.463c-2.68,0.792-4.224,3.612-3.446,6.283
		C44.423,76.374,46.427,77.883,48.672,77.883 M47.561,72.192c0.16-0.295,0.435-0.517,0.754-0.61
		c0.116-0.033,0.235-0.051,0.357-0.051c0.568,0,1.075,0.38,1.229,0.916c0.196,0.673-0.189,1.382-0.881,1.585
		c-0.645,0.184-1.382-0.222-1.565-0.859C47.358,72.849,47.398,72.491,47.561,72.192"/>
	<path style="fill:#FFFFFF;" d="M80.843,319.157c0.482,0,0.962-0.068,1.417-0.201c1.309-0.379,2.39-1.246,3.043-2.441
		c0.652-1.192,0.799-2.564,0.421-3.836c-0.75-2.62-3.663-4.238-6.291-3.471c-2.68,0.777-4.234,3.595-3.459,6.298
		C76.602,317.656,78.604,319.157,80.843,319.157 M79.73,313.468c0.162-0.295,0.44-0.52,0.754-0.611
		c0.116-0.034,0.236-0.052,0.359-0.052c0.565,0,1.071,0.379,1.233,0.935c0.192,0.67-0.2,1.372-0.871,1.569
		c-0.65,0.185-1.4-0.223-1.579-0.852C79.528,314.129,79.566,313.768,79.73,313.468"/>
	<path style="fill:#FFFFFF;" d="M80.845,284.692c0.481,0,0.961-0.069,1.42-0.204c1.308-0.381,2.388-1.249,3.041-2.446
		c0.65-1.192,0.795-2.563,0.417-3.834c-0.619-2.162-2.623-3.671-4.871-3.671c-0.482,0-0.962,0.068-1.419,0.201
		c-2.683,0.78-4.236,3.599-3.459,6.297C76.601,283.188,78.604,284.692,80.845,284.692 M79.729,279.001
		c0.16-0.295,0.437-0.518,0.755-0.61c0.116-0.034,0.238-0.051,0.361-0.051c0.565,0,1.069,0.377,1.23,0.926
		c0.193,0.672-0.198,1.378-0.863,1.571c-0.656,0.192-1.406-0.22-1.586-0.85C79.528,279.659,79.566,279.301,79.729,279.001"/>
	<path style="fill:#FFFFFF;" d="M80.851,240.071c-0.482,0-0.961,0.068-1.418,0.202c-2.681,0.778-4.235,3.596-3.458,6.3
		c0.629,2.149,2.633,3.649,4.872,3.649c0.479,0,0.955-0.067,1.412-0.201c1.309-0.378,2.389-1.245,3.044-2.441
		c0.651-1.192,0.798-2.566,0.42-3.837C85.103,241.58,83.1,240.071,80.851,240.071 M81.211,246.371
		c-0.656,0.193-1.405-0.22-1.586-0.849c-0.097-0.33-0.06-0.69,0.105-0.989c0.161-0.294,0.44-0.519,0.759-0.612
		c0.116-0.033,0.236-0.051,0.358-0.051c0.571,0,1.063,0.369,1.228,0.933C82.268,245.473,81.876,246.179,81.211,246.371"/>
	<path style="fill:#FFFFFF;" d="M79.422,205.805c-2.678,0.788-4.225,3.607-3.448,6.293c0.627,2.154,2.63,3.658,4.872,3.658
		c0.479,0,0.956-0.068,1.425-0.205c1.308-0.383,2.386-1.253,3.038-2.448c0.647-1.191,0.792-2.561,0.414-3.828
		C84.972,206.654,82.14,205.017,79.422,205.805 M81.199,211.904c-0.655,0.188-1.394-0.225-1.573-0.851
		c-0.098-0.329-0.06-0.688,0.103-0.988c0.16-0.293,0.434-0.516,0.761-0.611c0.115-0.034,0.235-0.051,0.356-0.051
		c0.564,0,1.068,0.377,1.228,0.923C82.268,210.997,81.882,211.702,81.199,211.904"/>
	<path style="fill:#FFFFFF;" d="M85.724,174.81c-0.618-2.165-2.621-3.677-4.872-3.677c-0.483,0-0.962,0.069-1.419,0.204
		c-2.682,0.778-4.236,3.596-3.459,6.296c0.628,2.151,2.632,3.654,4.872,3.654c0.48,0,0.956-0.065,1.413-0.2
		c1.309-0.379,2.389-1.246,3.044-2.441C85.954,177.453,86.101,176.079,85.724,174.81 M81.211,177.434
		c-0.66,0.198-1.407-0.221-1.586-0.848c-0.097-0.329-0.06-0.688,0.105-0.988c0.161-0.296,0.44-0.519,0.759-0.612
		c0.116-0.032,0.236-0.051,0.357-0.051c0.573,0,1.065,0.369,1.228,0.93C82.268,176.536,81.877,177.241,81.211,177.434"/>
	<path style="fill:#FFFFFF;" d="M75.974,143.165c0.629,2.152,2.632,3.653,4.874,3.653c0.478,0,0.955-0.066,1.423-0.202
		c1.307-0.384,2.384-1.252,3.036-2.446c0.648-1.19,0.794-2.561,0.415-3.837c-0.754-2.617-3.616-4.235-6.294-3.465
		C76.748,137.65,75.198,140.471,75.974,143.165 M79.729,141.129c0.16-0.293,0.435-0.515,0.761-0.611
		c0.116-0.033,0.236-0.052,0.358-0.052c0.571,0,1.063,0.37,1.227,0.928c0.193,0.671-0.196,1.375-0.876,1.573
		c-0.653,0.186-1.393-0.221-1.574-0.857C79.528,141.786,79.567,141.428,79.729,141.129"/>
	<path style="fill:#FFFFFF;" d="M80.848,112.351c0.478,0,0.955-0.068,1.412-0.2c1.308-0.379,2.388-1.245,3.042-2.439
		c0.653-1.194,0.8-2.567,0.421-3.845c-0.754-2.62-3.673-4.231-6.29-3.466c-2.68,0.777-4.234,3.596-3.458,6.297
		C76.604,110.85,78.608,112.351,80.848,112.351 M79.73,106.662c0.161-0.295,0.44-0.519,0.76-0.612
		c0.116-0.034,0.236-0.051,0.358-0.051c0.571,0,1.063,0.368,1.228,0.931c0.192,0.671-0.2,1.375-0.871,1.57
		c-0.652,0.189-1.4-0.221-1.579-0.854C79.528,107.32,79.567,106.962,79.73,106.662"/>
	<path style="fill:#FFFFFF;" d="M80.844,77.884c0.108,0,0.213-0.038,0.32-0.046c0.184,0.021,0.366,0.046,0.555,0.046
		c0.479,0,0.958-0.067,1.428-0.205c1.308-0.382,2.386-1.253,3.037-2.448c0.647-1.189,0.792-2.559,0.414-3.835
		c-0.673-2.329-2.999-3.864-5.411-3.624c-0.58-0.045-1.172-0.009-1.76,0.159c-2.682,0.785-4.232,3.604-3.455,6.291
		C76.599,76.378,78.603,77.884,80.844,77.884 M82.073,72.453c0.183,0.633-0.16,1.28-0.768,1.522
		c-0.374-0.135-0.694-0.414-0.803-0.795c-0.098-0.327-0.059-0.687,0.103-0.987c0.147-0.268,0.397-0.466,0.687-0.573
		C81.661,71.76,81.958,72.06,82.073,72.453"/>
</g>
</svg>
