<?xml version="1.0" encoding="iso-8859-1"?>
<!-- Generator: Adobe Illustrator 25.4.1, SVG Export Plug-In . SVG Version: 6.00 Build 0)  -->
<svg version="1.1" id="Calque_1" xmlns="http://www.w3.org/2000/svg" xmlns:xlink="http://www.w3.org/1999/xlink" x="0px" y="0px"
	 viewBox="0 0 368.5 368.5" style="enable-background:new 0 0 368.5 368.5;" xml:space="preserve">
<g>
	<path style="fill:#FFFFFF;" d="M229.978,97.32h-12.105c-1.613,0-2.926,1.312-2.926,2.924c0,1.613,1.313,2.926,2.926,2.926h62.383
		c8.271,0.015,15.013,6.757,15.034,15.028c-0.021,8.286-6.762,15.027-15.028,15.043h-62.389c-1.613,0-2.926,1.313-2.926,2.926
		c0,1.615,1.313,2.928,2.926,2.928h62.382c11.514-0.005,20.881-9.376,20.881-20.889c0-11.513-9.367-20.882-20.881-20.886h-17.577
		l-0.576-6.182l-3.376-36.22c0-6.844-5.552-12.395-12.396-12.395c-6.846,0-12.397,5.551-12.397,12.395l-3.378,36.22L229.978,97.32z"
		/>
	<rect x="248.639" y="109.46" style="fill:#FFFFFF;" width="3.898" height="17.002"/>
	<rect x="240.616" y="109.46" style="fill:#FFFFFF;" width="3.9" height="17.002"/>
	<rect x="256.659" y="109.46" style="fill:#FFFFFF;" width="3.901" height="17.002"/>
	<rect x="232.595" y="109.46" style="fill:#FFFFFF;" width="3.9" height="17.002"/>
	<rect x="226.015" y="109.46" style="fill:#FFFFFF;" width="2.458" height="17.002"/>
	<rect x="264.681" y="109.46" style="fill:#FFFFFF;" width="3.024" height="17.002"/>
	<path style="fill:#FFFFFF;" d="M306.544,276.964v-42.97v-0.004h0.509v-49.11c0-19.225-15.584-34.812-34.812-34.812h-48.064
		c-17.1,0-31.289,12.337-34.227,28.586l32.899,30.647c1.834,1.642,4.399,4.569,4.462,10.084l-0.02,74.983h61.771
		C298.713,294.368,306.544,286.576,306.544,276.964 M289.712,265.712c0,3.983-3.229,7.213-7.213,7.213s-7.213-3.23-7.213-7.213
		v-83.663c0-3.984,3.229-7.213,7.213-7.213s7.213,3.229,7.213,7.213V265.712z"/>
	<path style="fill:#FFFFFF;" d="M169.654,184.527c13.342,9.904,22.638,19.363,22.731,19.457c0.795,0.813,0.781,2.118-0.033,2.914
		c-0.4,0.393-0.92,0.588-1.441,0.588c-0.535,0-1.069-0.207-1.473-0.62c-0.089-0.09-9.174-9.33-22.241-19.03
		c-6.903-5.126-13.1-11.18-17.569-15.942H90.681l40.176,39.132h4.621l-36.622-33.263c-0.842-0.765-0.904-2.069-0.14-2.911
		c0.764-0.842,2.069-0.905,2.911-0.14l39.981,36.314h25.454l-29.711-31.533c-0.78-0.828-0.742-2.133,0.088-2.913
		c0.826-0.779,2.131-0.743,2.913,0.087l32.373,34.359h33.836l-40.381-37.613c-0.115-0.108-0.227-0.221-0.334-0.335
		c-0.584-0.636-1.089-1.184-3.372-1.184h-7.104C159.38,175.968,164.328,180.571,169.654,184.527"/>
	<path style="fill:#FFFFFF;" d="M200.126,301.113c-10.954-14.46-8.143-36.924-4.47-54.876c2.142-10.479,1.131-18.31,0.013-22.846
		h-18.104c1.324,9.183,1.016,28.28-17.669,48.798c-19.044,20.918-39.76,26.042-49.359,27.29v8.028
		c12.329-3.609,40.86-10.846,62.063-7.628c17.976,2.723,27.915,16.34,32.832,26.107h9.379c0.036,0,0.07-0.002,0.103-0.002
		c0.001-0.052,0.002-0.107,0.002-0.163l0.004-13.039C210.119,310.673,204.683,307.129,200.126,301.113"/>
	<path style="fill:#FFFFFF;" d="M78.698,249.594c1.335-1.238,0.937-8.106-4.557-16.279c-3.385-5.036-8.2-11.614-12.689-17.608
		v22.049c3.075,2.719,6.793,5.879,11.016,9.2C76.348,250.009,78.237,250.017,78.698,249.594"/>
	<path style="fill:#FFFFFF;" d="M64.244,256.948c3.365,2.942,5.58,5.581,8.383,8.922c2.75,3.276,6.173,7.353,11.983,13.264
		c5.28,5.368,9.988,9.709,13.562,12.856v-70.164c0.088-6.05,4.906-10.753,10.968-10.8h15.809L85.704,172.8
		c-0.265-0.258-0.414-0.575-0.51-0.906H61.451v36.963c5.311,7.011,11.83,15.792,16.11,22.16c5.068,7.539,8.172,17.672,3.939,21.598
		c-0.785,0.729-1.895,1.316-3.436,1.316c-1.953,0-4.598-0.943-8.146-3.735c-3.102-2.441-5.946-4.802-8.467-6.969v13.83
		C62.21,256.302,63.426,256.23,64.244,256.948"/>
	<path style="fill:#FFFFFF;" d="M214.921,308.187l0.023-84.796h-15.033c1.132,5.122,1.924,13.196-0.218,23.672
		c-3.225,15.77-6.35,38.27,3.718,51.563C206.92,303.258,211.073,306.249,214.921,308.187"/>
	<path style="fill:#FFFFFF;" d="M98.173,316.75v-19.296c-3.748-3.192-9.61-8.421-16.502-15.43
		c-5.924-6.028-9.403-10.173-12.2-13.504c-2.795-3.331-4.815-5.736-7.939-8.469c-0.034-0.03-0.048-0.074-0.081-0.105v10.757
		c0.044,2.097,0.829,3.323,2.111,5.062L98.173,316.75z"/>
	<path style="fill:#FFFFFF;" d="M171.982,303.952c-20.847-3.153-50.133,4.528-61.444,7.869v14.166l90.144-0.002
		C195.827,317.233,186.888,306.21,171.982,303.952"/>
	<path style="fill:#FFFFFF;" d="M128.201,241.979c5.215-5.667,5.577-13.402,5.063-18.588h-22.727v23.859
		C114.877,248.031,122.465,248.212,128.201,241.979"/>
	<path style="fill:#FFFFFF;" d="M131.234,244.768c-5.12,5.567-11.359,6.987-16.395,6.987c-1.584,0-3.027-0.146-4.302-0.344v12.804
		c6.463-0.934,19.505-3.735,27.113-11.63c7.753-8.04,8.15-22.545,7.877-29.194h-8.111
		C137.955,229.362,137.384,238.084,131.234,244.768"/>
	<path style="fill:#FFFFFF;" d="M140.617,255.446c-8.784,9.115-23.329,12.049-30.08,12.947l0.001,26.853
		c9.184-1.359,28.668-6.452,46.311-25.831c17.888-19.644,17.744-37.976,16.515-46.025h-23.697
		C149.975,230.716,149.457,246.279,140.617,255.446"/>
</g>
</svg>
