<?xml version="1.0" encoding="iso-8859-1"?>
<!-- Generator: Adobe Illustrator 25.4.1, SVG Export Plug-In . SVG Version: 6.00 Build 0)  -->
<svg version="1.1" id="Calque_1" xmlns="http://www.w3.org/2000/svg" xmlns:xlink="http://www.w3.org/1999/xlink" x="0px" y="0px"
	 viewBox="0 0 368.5 368.5" style="enable-background:new 0 0 368.5 368.5;" xml:space="preserve">
<g>
	<path style="fill:#FFFFFF;" d="M169.063,260.621l-1.468-24.636l-14.623,11.463c-4.312,3.379-9.481,5.165-14.949,5.165
		c-7.513,0-14.475-3.388-19.106-9.294l-71.215-90.828c-1.369,1.41-2.452,3.093-3.163,4.987c-1.354,3.607-1.222,7.525,0.375,11.033
		l50.01,109.974c2.337,5.138,7.497,8.459,13.142,8.459c2.061,0,4.068-0.438,5.966-1.301L169.063,260.621z"/>
	<path style="fill:#FFFFFF;" d="M52.112,142.177l74.545,95.074c2.752,3.513,6.895,5.528,11.365,5.528
		c3.248,0,6.319-1.062,8.884-3.071l19.976-15.66l-0.357-5.986c-5.296-4.016-9.026-8.467-11.093-13.199l-6.903,6.957
		c-4.864,4.896-11.342,7.593-18.246,7.593c-6.828,0-13.257-2.649-18.103-7.457c-10.058-9.984-10.119-26.288-0.137-36.347
		l38.983-39.277c4.31-4.341,9.888-6.944,15.904-7.484c0.288-2.769,1.479-5.464,3.588-7.589c2.382-2.401,5.553-3.724,8.934-3.734
		c1.548-6.811,5.985-17.126,15.607-33.187l-26.331-33.59c-2.751-3.507-6.892-5.52-11.361-5.52c-3.25,0-6.324,1.064-8.89,3.075
		l-93.912,73.623c-3.033,2.376-4.958,5.793-5.421,9.617C48.682,135.37,49.736,139.146,52.112,142.177"/>
	<path style="fill:#FFFFFF;" d="M187.001,120.012c0.488,0.363,0.96,0.747,1.398,1.183l10.211,10.133
		c8.089-2.182,17.057-3.785,26.696-4.693c19.173-10.643,42.421-27.189,52.069-35.508l-45.899-45.556
		c-6.051,7.209-17.539,23.01-27.656,39.492C191.63,104.922,187.965,115.054,187.001,120.012"/>
	<path style="fill:#FFFFFF;" d="M173.266,141.799l-2.68-2.659c-0.772-0.766-1.408-1.615-1.942-2.508
		c-4.552,0.157-8.807,1.992-12.032,5.244l-38.983,39.276c-6.928,6.978-6.886,18.292,0.094,25.218
		c3.362,3.337,7.822,5.175,12.561,5.175c4.79,0,9.287-1.871,12.662-5.269l10.631-10.712l1.883-28.263
		C155.521,157.522,162.065,148.742,173.266,141.799 M138.864,195.779c-0.465,4.038-3.88,7.086-7.945,7.086
		c-0.303,0-0.61-0.017-0.921-0.052c-4.382-0.503-7.542-4.481-7.04-8.866c0.501-4.347,4.441-7.545,8.866-7.042
		c2.13,0.246,4.032,1.304,5.361,2.981C138.514,191.563,139.11,193.655,138.864,195.779"/>
	<path style="fill:#FFFFFF;" d="M190.084,133.952l-7.228-7.172c-0.901-0.895-2.098-1.389-3.367-1.389
		c-1.281,0-2.484,0.501-3.385,1.408c-1.855,1.871-1.844,4.902,0.025,6.757l4.359,4.324
		C183.467,136.462,186.673,135.149,190.084,133.952"/>
	<path style="fill:#FFFFFF;" d="M133.002,195.101c0.065-0.561-0.09-1.11-0.44-1.55c-0.349-0.442-0.851-0.72-1.408-0.784
		c-0.077-0.009-0.159-0.013-0.24-0.013c-1.07,0-1.971,0.803-2.094,1.867c-0.132,1.15,0.7,2.197,1.852,2.33
		C131.875,197.097,132.871,196.244,133.002,195.101"/>
	<path style="fill:#FFFFFF;" d="M316.083,205.99c-0.148-2.662-1.212-3.75-3.669-3.75c-1.556,0-2.929,0.513-3.632,0.955
		c-4.449,2.778-15.86,6.877-25.055,9.785c-5.449,1.719-8.098,5.169-8.098,10.543c0,1.669,0.073,4.456,0.219,8.286
		c0.075,2.008-1.374,3.75-3.362,4.04c-9.11,1.337-18.61,2.015-28.239,2.015c-5.234,0-10.511-0.231-15.72-0.636
		c17.756,18.008,51.418,44.57,81.719,25.777c0.958-0.593,1.867-1.208,2.75-1.828l3.116-52.26
		C316.133,207.83,316.129,206.829,316.083,205.99"/>
	<path style="fill:#FFFFFF;" d="M311.045,293.87l1.516-25.393c-8.302,4.958-16.715,7.044-24.954,7.044
		c-31.084,0-59.737-29.256-71.173-42.579c-1.414,1.062-3.108,1.688-4.929,1.688c-4.927,0-8.936-4.529-8.936-10.097
		c0-5.567,4.009-10.094,8.936-10.094s8.933,4.527,8.933,10.094c0,1.168-0.211,2.27-0.534,3.313c1.068,1.251,2.336,2.697,3.788,4.289
		c0.037-0.126,0.052-0.255,0.102-0.378c0.832-2.078,1.253-4.272,1.253-6.517c0-8.64-6.13-15.668-13.665-15.668
		c-7.535,0-13.665,7.028-13.665,15.668c0,0.278,0.012,0.555,0.027,0.828c0.06,0.268,0.089,0.547,0.089,0.833
		c0,2.173-1.76,3.934-3.934,3.934h-0.039c-0.392,0-0.785-0.058-1.168-0.177c-6.826-2.122-12.819-4.619-17.973-7.404l4.215,70.71
		c0.046,0.202,0.076,0.407,0.09,0.619c0.924,14.258,23.878,28.693,65.958,28.693c42.078,0,65.028-14.435,65.951-28.693
		C310.951,294.34,310.987,294.102,311.045,293.87"/>
	<path style="fill:#FFFFFF;" d="M211.505,220.34c-1.644,0-3.035,1.921-3.035,4.193c0,2.274,1.391,4.197,3.035,4.197
		c1.644,0,3.033-1.923,3.033-4.197C214.538,222.261,213.149,220.34,211.505,220.34"/>
	<path style="fill:#FFFFFF;" d="M244.247,133.626c-44.619,0-80.92,15.168-80.92,33.814c0,0.086-0.004,0.174-0.01,0.261
		l-1.907,28.605c0.094,9.312,10.946,18.737,28.712,25.189c1.646-11.204,10.553-19.79,21.259-19.79
		c11.873,0,21.533,10.559,21.533,23.536c0,1.486-0.127,2.956-0.381,4.402c11.925,0.717,23.943,0.33,35.328-1.102
		c-0.067-2.158-0.1-3.836-0.1-5.018c0-8.87,4.829-15.278,13.596-18.046c10.806-3.417,20.153-7.016,23.255-8.954
		c2.186-1.366,5.028-2.15,7.802-2.15c6.467,0,10.935,4.188,11.492,10.713c1.839-2.574,3.137-5.534,3.17-8.78l-1.908-28.605
		c-0.005-0.087-0.009-0.175-0.009-0.261C325.159,148.794,288.861,133.626,244.247,133.626 M243.945,197.702
		c-40.542,0-72.301-13.522-72.301-30.785c0-17.262,31.759-30.783,72.301-30.783c40.541,0,72.297,13.521,72.297,30.783
		C316.242,184.18,284.486,197.702,243.945,197.702"/>
	<path style="fill:#FFFFFF;" d="M310.342,166.917c0-12.017-26.68-24.882-66.396-24.882c-39.719,0-66.401,12.865-66.401,24.882
		c0,12.017,26.682,24.884,66.401,24.884C283.662,191.801,310.342,178.934,310.342,166.917"/>
</g>
</svg>
