<?xml version="1.0" encoding="iso-8859-1"?>
<!-- Generator: Adobe Illustrator 25.4.1, SVG Export Plug-In . SVG Version: 6.00 Build 0)  -->
<svg version="1.1" id="Calque_1" xmlns="http://www.w3.org/2000/svg" xmlns:xlink="http://www.w3.org/1999/xlink" x="0px" y="0px"
	 viewBox="0 0 368.5 368.5" style="enable-background:new 0 0 368.5 368.5;" xml:space="preserve">
<g>
	<path style="fill:#FFFFFF;" d="M61.099,321.899c0-2.258-1.835-4.093-4.092-4.093c-2.256,0-4.091,1.835-4.091,4.093
		c0,2.256,1.835,4.092,4.091,4.092C59.264,325.991,61.099,324.155,61.099,321.899"/>
	<path style="fill:#FFFFFF;" d="M144.931,266.109l-50.445-50.442l7.965,28.766l-43.329,50.325c-1.007,1.017-1.504,2.218-1.504,3.495
		c0,2.638,2.145,4.784,4.782,4.784c1.306,0,2.526-0.519,3.437-1.461l50.349-43.411L144.931,266.109z"/>
	<path style="fill:#FFFFFF;" d="M286.991,142.902c-3.782,1.141-7.825,1.75-12.069,1.75c-1.888,0-3.81-0.115-5.765-0.348
		c-12.711-1.515-25.22-7.857-35.223-17.858c-10.003-10.003-16.347-22.513-17.861-35.223c-0.717-6.014-0.306-11.734,1.138-16.963
		L102.058,208.198l50.389,50.386L286.991,142.902z"/>
	<path style="fill:#FFFFFF;" d="M238.445,121.934c8.995,8.993,20.169,14.688,31.466,16.034c10.63,1.265,20.1-1.527,26.835-7.813
		l-66.529-66.521c-6.283,6.736-9.076,16.203-7.809,26.833C223.754,101.762,229.45,112.938,238.445,121.934"/>
	<polygon style="fill:#FFFFFF;" points="311.406,111.44 308.426,108.46 297.955,119.077 300.935,122.056 	"/>
	<polygon style="fill:#FFFFFF;" points="317.718,117.753 314.413,114.448 303.943,125.065 307.175,128.297 	"/>
	<polygon style="fill:#FFFFFF;" points="305.418,105.452 302.436,102.471 291.967,113.09 294.947,116.07 	"/>
	<polygon style="fill:#FFFFFF;" points="299.429,99.463 296.45,96.484 285.98,107.103 288.96,110.082 	"/>
	<polygon style="fill:#FFFFFF;" points="275.288,75.322 272.31,72.343 261.837,82.96 264.816,85.94 	"/>
	<polygon style="fill:#FFFFFF;" points="293.442,93.477 290.269,90.305 279.799,100.924 282.972,104.096 	"/>
	<polygon style="fill:#FFFFFF;" points="281.274,81.308 278.295,78.329 267.824,88.946 270.802,91.926 	"/>
	<polygon style="fill:#FFFFFF;" points="245.255,45.289 242.492,42.526 231.947,53.072 234.784,55.909 	"/>
	<polygon style="fill:#FFFFFF;" points="269.302,69.336 266.224,66.258 255.753,76.877 258.829,79.953 	"/>
	<polygon style="fill:#FFFFFF;" points="263.216,63.251 260.238,60.272 249.766,70.89 252.745,73.869 	"/>
	<polygon style="fill:#FFFFFF;" points="257.23,57.265 254.25,54.284 243.778,64.903 246.759,67.883 	"/>
	<polygon style="fill:#FFFFFF;" points="237.791,58.916 240.77,61.895 251.242,51.276 248.262,48.297 	"/>
	<polygon style="fill:#FFFFFF;" points="287.262,87.296 284.281,84.316 273.81,94.934 276.792,97.915 	"/>
</g>
</svg>
