<?xml version="1.0" encoding="iso-8859-1"?>
<!-- Generator: Adobe Illustrator 25.4.1, SVG Export Plug-In . SVG Version: 6.00 Build 0)  -->
<svg version="1.1" id="Calque_1" xmlns="http://www.w3.org/2000/svg" xmlns:xlink="http://www.w3.org/1999/xlink" x="0px" y="0px"
	 viewBox="0 0 368.5 368.5" style="enable-background:new 0 0 368.5 368.5;" xml:space="preserve">
<g>
	<path style="fill:#FFFFFF;" d="M50.327,290.971l-3.657,6.761c-0.494,0.916-0.47,2.024,0.065,2.917
		c0.532,0.886,1.491,1.428,2.525,1.428h0.017l81.971-0.477c16.407,0,30.338-10.837,35.24-25.8l0.034,0.059l32.742-18.959
		c-2.059-0.799-3.926-2.034-5.511-3.613l-25.599,14.824c0.011-0.1,0.032-0.195,0.042-0.295c0.165-0.367,0.261-0.771,0.261-1.2
		v-32.293c0-0.242-0.039-0.475-0.093-0.7c0.006-0.289,0.024-0.576,0.024-0.866c0-4.997-1.088-9.909-3.18-14.699
		c-2.462-0.352-4.886-0.823-7.269-1.401c3.028,5.245,4.56,10.64,4.56,16.1c0,3.157-0.495,6.215-1.375,9.169
		c-0.651-0.955-1.339-1.905-2.076-2.846c-0.847-1.08-10.526-15.172-20.793-30.174c-5.03-2.83-9.72-6.206-13.999-10.044
		c9.328,13.656,28.746,42.053,30.159,43.852c5.364,6.848,8.083,14.012,8.083,21.292c0,17.483-14.019,31.705-31.267,31.705
		l-77.016,0.449l2.173-4.018c0.539-0.995,0.458-2.214-0.207-3.131l-4.214-5.801l4.395-5.838c0.729-0.968,0.791-2.283,0.155-3.315
		l-2.006-3.26l54.054-0.313c2.825,9.876,11.915,17.134,22.684,17.134c13.02,0,23.613-10.593,23.613-23.613
		c0-13.019-10.593-23.61-23.613-23.61c-13.019,0-23.61,10.591-23.61,23.61c0,0.201,0.025,0.396,0.03,0.596l-58.426,0.338
		c-1.063,0.005-2.042,0.586-2.558,1.516s-0.49,2.066,0.068,2.971l3.697,6.008l-4.496,5.974c-0.778,1.033-0.791,2.454-0.031,3.5
		L50.327,290.971z M113.528,264.005c0-9.772,7.95-17.721,17.721-17.721c9.773,0,17.724,7.949,17.724,17.721
		c0,9.773-7.951,17.724-17.724,17.724C121.478,281.729,113.528,273.778,113.528,264.005"/>
	<path style="fill:#FFFFFF;" d="M180.416,123.242v-8.441c0-2.436-1.948-4.41-4.35-4.41c-2.403,0-4.352,1.974-4.352,4.41v8.55
		c1.374-0.607,2.886-0.951,4.479-0.951C177.687,122.4,179.111,122.704,180.416,123.242"/>
	<path style="fill:#FFFFFF;" d="M182.618,142.972l6.273,4.564c1.951,1.419,4.672,0.968,6.073-1.012
		c1.399-1.979,0.955-4.731-0.999-6.152l-6.719-4.887C186.763,138.571,185.048,141.246,182.618,142.972"/>
	<path style="fill:#FFFFFF;" d="M163.718,147.536l6.161-4.482c-2.452-1.696-4.194-4.351-4.715-7.424l-6.518,4.741
		c-1.956,1.422-2.4,4.174-1.001,6.153C159.048,148.504,161.767,148.955,163.718,147.536"/>
	<path style="fill:#FFFFFF;" d="M170.879,133.717c0,2.992,2.384,5.426,5.314,5.426c2.93,0,5.313-2.434,5.313-5.426
		c0-2.992-2.383-5.427-5.313-5.427C173.263,128.29,170.879,130.725,170.879,133.717"/>
	<path style="fill:#FFFFFF;" d="M176.211,59.867c32.324,0.008,60.144,19.92,72.154,48.265
		c-3.954-36.829-34.802-65.598-72.154-65.606C138.86,42.534,108.015,71.3,104.06,108.13
		C116.07,79.786,143.889,59.875,176.211,59.867"/>
	<path style="fill:#FFFFFF;" d="M176.351,166.093c-14.519,0-27.609-6.196-36.764-16.069c4.633,15.888,19.346,27.543,36.764,27.543
		s32.131-11.655,36.764-27.543C203.96,159.897,190.87,166.093,176.351,166.093"/>
	<path style="fill:#FFFFFF;" d="M248.714,135.829c-1.834-38.943-33.652-70.064-72.503-70.074
		c-40.017,0.01-72.581,33.03-72.588,73.61c0.007,40.582,32.57,73.6,72.589,73.603c35.624-0.003,65.32-26.177,71.423-60.555
		l3.37,11.005l8.854,28.91c2.817,0.696,5.379,2.157,7.45,4.214l-13.63-44.5L248.714,135.829z M176.351,183.455
		c-24.369,0-44.194-19.763-44.194-44.057c0-24.293,19.825-44.058,44.194-44.058s44.194,19.765,44.194,44.058
		C220.545,163.692,200.72,183.455,176.351,183.455"/>
	<path style="fill:#FFFFFF;" d="M264.572,202.424c-1.902-2.932-5.106-4.682-8.567-4.682c-1.992,0-3.931,0.59-5.608,1.708
		l-50.978,33.505c-4.726,3.153-6.044,9.646-2.921,14.461c1.903,2.93,5.105,4.682,8.565,4.682c1.992,0,3.931-0.591,5.607-1.709
		l11.691-7.684c1.938-1.144,6.654-3.627,11.245-3.627c4.216,0,7.361,2.11,8.874,5.949l0.642,1.278
		c1.778,4.378,3.9,6.062,6.584,8.193c2.112,1.677,4.506,3.577,6.703,6.923c2.632,4.006,2.151,7.023,1.8,9.226
		c-0.319,2.009-0.513,3.22,1.281,5.73c1.907,2.664,3.547,3.005,5.816,3.473c2.342,0.484,5.257,1.087,7.659,4.441l0.221,0.321
		c2.83,3.954,2.301,7.049,1.915,9.31c-0.334,1.95-0.554,3.237,1.204,5.697c1.903,2.664,3.543,3.002,5.812,3.47
		c2.343,0.485,5.259,1.088,7.661,4.448c2.443,3.411,1.726,5.957,1.251,7.641c-0.448,1.593-0.803,2.851,1.868,6.578
		c1.953,2.732,5.164,4.234,9.044,4.234c4.236,0,8.888-1.772,13.451-5.124c8.401-6.164,10.277-18.107,4.185-26.622l-40.18-56.187
		c-1.378-1.925-3.067-3.55-5.022-4.828c-1.34-0.851-2.675-1.609-3.906-2.309c-4.545-2.588-8.837-5.028-8.109-9.947
		c0.213-1.445,0.883-3.038,1.658-4.884c0.721-1.714,1.533-3.648,1.969-5.509v-0.278l0.123-0.299c0.222-1.163,0.247-2.168,0.079-3.07
		C265.954,205.195,265.417,203.729,264.572,202.424"/>
</g>
</svg>
