<?xml version="1.0" encoding="iso-8859-1"?>
<!-- Generator: Adobe Illustrator 25.4.1, SVG Export Plug-In . SVG Version: 6.00 Build 0)  -->
<svg version="1.1" id="Calque_1" xmlns="http://www.w3.org/2000/svg" xmlns:xlink="http://www.w3.org/1999/xlink" x="0px" y="0px"
	 viewBox="0 0 368.5 368.5" style="enable-background:new 0 0 368.5 368.5;" xml:space="preserve">
<g>
	<path style="fill:#FFFFFF;" d="M278.359,159.885h-48.217c-7.067,0-12.816-5.788-12.816-12.902v-46.252
		c-1.234-0.326-2.5-0.514-3.686-0.514c-4.928,0-5.549,2.732-5.753,3.63c-0.919,4.042,0.463,8.236,1.925,12.677
		c1.367,4.149,2.781,8.44,2.234,12.805c-0.664,5.331-3.26,8.475-5.155,10.771c-2.039,2.47-2.802,3.394-1.98,6.131
		c1.203,4.011,4.087,6.322,7.427,8.998c2.382,1.909,5.083,4.072,7.315,7.049c2.598,3.462,2.374,7.66,2.194,11.033
		c-0.29,5.438-0.398,7.474,6.416,8.371c1.085,0.142,2.113,0.215,3.052,0.215c5.208,0,7.399-2.178,10.173-4.936
		c2.718-2.703,5.799-5.766,11.536-6.586c0.826-0.119,1.665-0.177,2.494-0.177c3.434,0,6.286,1,8.804,1.881
		c2.066,0.724,3.852,1.351,5.647,1.351c1.046,0,2.075-0.219,3.144-0.67c1.458-0.613,2.156-2.859,3.132-6.484
		C276.763,164.349,277.373,162.109,278.359,159.885"/>
	<path style="fill:#FFFFFF;" d="M316.666,53.773h-86.523c-3.207,0-5.817,2.649-5.817,5.903v87.307c0,3.254,2.61,5.902,5.817,5.902
		h86.523c3.207,0,5.816-2.648,5.816-5.902V59.676C322.482,56.422,319.873,53.773,316.666,53.773"/>
	<path style="fill:#FFFFFF;" d="M286.527,190.415h-82.342c-3.786,0-6.867,3.117-6.867,6.947v83.088c0,3.832,3.081,6.95,6.867,6.95
		h82.342c3.788,0,6.869-3.118,6.869-6.95v-83.088C293.396,193.532,290.315,190.415,286.527,190.415"/>
	<path style="fill:#FFFFFF;" d="M97.096,142.842c3.082-0.126,6.187-0.19,9.289-0.19c33.478,0,67.367,7.398,67.367,21.539v0.001
		v22.028h12.553c3.788,0,6.869-3.118,6.869-6.95V96.182c0-3.832-3.081-6.949-6.869-6.949h-82.34c-3.788,0-6.869,3.117-6.869,6.949
		V142.842z"/>
	<path style="fill:#FFFFFF;" d="M193.174,197.362c0-3.83-3.081-6.947-6.869-6.947h-12.553v6.992c0,3.092-1.621,5.862-4.504,8.303
		c1.91,3.226,18.402,32.184,7.322,51.871c-2.319,4.122-5.62,7.487-9.871,10.096V287.4h19.606c3.788,0,6.869-3.118,6.869-6.95
		V197.362z"/>
	<path style="fill:#FFFFFF;" d="M166.699,223.762v30.665c0.418-0.563,0.812-1.14,1.156-1.75
		C172.353,244.682,170.106,233.109,166.699,223.762"/>
	<path style="fill:#FFFFFF;" d="M136.791,264.362c9.75,0,17.396-1.426,22.908-4.233v-49.046
		c-12.972,5.193-33.213,7.865-53.314,7.865c-14.962,0-29.996-1.482-42.061-4.38c1.748,4.682,4.046,9.753,7.063,14.795
		C85.282,252.587,107.287,264.362,136.791,264.362"/>
	<path style="fill:#FFFFFF;" d="M159.699,270.983c-6.27,2.242-13.909,3.379-22.908,3.379c-41.623,0-63.316-21.86-74.185-40.199
		c-4.473-7.549-7.496-15.063-9.53-21.503v81.078c0,0.304-0.039,0.606-0.117,0.899c-0.126,0.473-0.19,0.945-0.19,1.405
		c0,8.837,22.019,18.685,53.616,18.685s53.617-9.848,53.617-18.685c0-0.459-0.063-0.93-0.187-1.399
		c-0.077-0.291-0.116-0.592-0.116-0.893V270.983z"/>
	<path style="fill:#FFFFFF;" d="M166.752,177.877v-3.559c-11.639,7.522-36.105,11.411-60.367,11.411s-48.729-3.889-60.367-11.411
		v3.559c5.921,6.565,29.062,12.797,60.367,12.797S160.83,184.442,166.752,177.877"/>
	<path style="fill:#FFFFFF;" d="M50.304,202.071c-0.942-4.547-1.219-7.455-1.246-7.761c-0.245-2.751,1.786-5.178,4.536-5.425
		c2.762-0.244,5.178,1.786,5.424,4.534c0.017,0.185,0.56,5.576,2.733,13.278c10.133,2.944,25.077,5.251,44.634,5.251
		c39.634,0,60.367-9.467,60.367-14.541v-14.369c-10.873,7.606-36.189,11.637-60.367,11.637s-49.494-4.031-60.367-11.637v14.369
		C46.018,198.741,47.467,200.382,50.304,202.071"/>
	<path style="fill:#FFFFFF;" d="M46.018,164.191c0,5.073,20.733,14.538,60.367,14.538s60.367-9.465,60.367-14.538
		c0-5.073-20.733-14.539-60.367-14.539S46.018,159.118,46.018,164.191"/>
</g>
</svg>
