<?xml version="1.0" encoding="iso-8859-1"?>
<!-- Generator: Adobe Illustrator 25.4.1, SVG Export Plug-In . SVG Version: 6.00 Build 0)  -->
<svg version="1.1" id="Calque_1" xmlns="http://www.w3.org/2000/svg" xmlns:xlink="http://www.w3.org/1999/xlink" x="0px" y="0px"
	 viewBox="0 0 368.5 368.5" style="enable-background:new 0 0 368.5 368.5;" xml:space="preserve">
<g>
	<path style="fill:#FFFFFF;" d="M299.481,173.484c-10.079-12.355-34.454-20.532-61.792-20.532c-27.342,0-51.719,8.177-61.798,20.532
		c4.235,5.195,11.022,9.637,19.472,13.057c5.092-0.52,12.125-2.133,12.125-7.096c0-7.776-41.026-17.274,18.355-20.299
		c59.384-3.024,58.518,18.785,31.31,23.32c-27.21,4.535-26.993,5.611-17.061,9.068c2.177,0.758,3.409,1.565,3.826,2.324
		C268.678,192.72,290.18,184.891,299.481,173.484"/>
	<path style="fill:#FFFFFF;" d="M158.353,257.526v30.2l0.056,0.721c1.154,20.698,36.719,37.538,79.28,37.538
		c42.555,0,78.118-16.84,79.276-37.538l0.068-1.198l-0.004-26.199c-1.643,1.46-3.389,2.879-5.276,4.235
		c-8.557,6.164-17.807,9.263-27.593,9.263c-3.017,0-6.085-0.294-9.2-0.885c-29.946-5.672-56.37-36.998-67.55-52.046
		c-1.507,1.265-3.33,1.997-5.314,1.997c-5.325,0-9.498-5.266-9.498-11.986c0-6.72,4.173-11.987,9.498-11.987
		c5.326,0,9.497,5.267,9.497,11.987c0,1.561-0.233,3.041-0.646,4.398c9.802,13.417,36.317,46.164,65.164,51.621
		c11.498,2.173,22.287-0.293,32.061-7.333c3.398-2.447,6.301-5.113,8.857-7.914l-0.014-94.399
		c-0.413-20.745-36.571-38.205-79.326-38.205c-42.882,0-79.127,17.56-79.336,38.383v25.453c-2.305-3.731-4.367-7.547-6.121-11.051
		c-3.93-7.847-6.309-14.104-6.351-14.221c-0.453-1.198-1.617-1.994-2.887-1.983c-1.284,0.008-2.424,0.815-2.861,2.021
		c-0.078,0.217-7.942,21.779-19.183,35.177c-14.56,17.34-13.664,37.724-6.319,50.234c9.327,15.882,22.084,17.595,27.137,17.595
		c0.632,0,1.114-0.028,1.419-0.053c0.308,0.025,0.788,0.053,1.416,0.053c1.454,0,4.227-0.179,7.625-1.217
		C154.116,259.61,156.195,258.756,158.353,257.526 M143.578,255.236c-0.125-0.016-0.257-0.024-0.387-0.024
		c-0.127,0-0.255,0.007-0.378,0.022c-0.072,0.009-0.443,0.045-1.045,0.045c-3.998,0-14.131-1.42-21.855-14.573
		c-6.255-10.652-6.911-28.14,5.728-43.192c7.898-9.412,14.055-22.152,17.421-29.979c3.461,7.818,9.764,20.566,17.663,29.979
		c12.638,15.052,11.982,32.54,5.729,43.192c-7.728,13.153-17.855,14.573-21.851,14.573
		C144.015,255.279,143.65,255.246,143.578,255.236 M237.687,123.844c40.663,0,72.515,16.757,72.515,38.152
		c0,4.007-1.119,7.852-3.204,11.455l0.024,0.033l-0.538,0.785c-8.921,14.248-33.081,24.52-62.833,25.739
		c-0.208,0.009-0.415,0.017-0.621,0.025c-1.764,0.064-3.539,0.11-5.337,0.11h-0.004h-0.002c-1.803,0-3.581-0.046-5.346-0.11
		l-0.61-0.024c-29.744-1.217-53.9-11.484-62.831-25.723l-0.548-0.802l0.024-0.033c-2.086-3.603-3.204-7.448-3.204-11.455
		C165.172,140.601,197.024,123.844,237.687,123.844"/>
	<path style="fill:#FFFFFF;" d="M153.655,242.739c-0.486-1.622-2.207-2.538-3.814-2.051c-0.084,0.025-8.372,2.441-14.637-2.028
		c-6.951-4.955-7.463-10.878-7.485-11.197c-0.092-1.673-1.563-2.981-3.196-2.894c-1.691,0.077-2.999,1.507-2.921,3.197
		c0.016,0.368,0.514,9.086,10.045,15.88c4.261,3.041,9.034,3.83,12.844,3.83c3.958,0,6.881-0.852,7.112-0.922
		C153.224,246.067,154.142,244.359,153.655,242.739"/>
	<path style="fill:#FFFFFF;" d="M148.992,129.085l-20.902-20.901c-1.623,1.982-3.387,3.943-5.306,5.862
		c-1.812,1.816-3.69,3.5-5.6,5.07l20.892,20.891c2.919,2.917,7.999,2.917,10.918,0C152.002,136.999,152.002,132.098,148.992,129.085
		"/>
	<path style="fill:#FFFFFF;" d="M55.846,96.531l26.491,26.492l0.277,0.243c1.023,0.917,2.36,1.501,3.94,1.814l-18.87-18.871
		c-0.798-0.796-0.798-2.088,0-2.886c0.797-0.798,2.089-0.798,2.887,0l21.757,21.757c1.447-0.233,2.965-0.63,4.522-1.152
		l-15.293-15.295c-0.798-0.797-0.798-2.089,0-2.886c0.798-0.798,2.09-0.798,2.887,0l16.529,16.53
		c1.867-0.868,3.765-1.906,5.667-3.097l-13.63-13.629c-0.798-0.796-0.798-2.088,0-2.887c0.797-0.797,2.089-0.797,2.887,0
		l14.188,14.189c2.086-1.509,4.149-3.186,6.145-5.019l-8.021-8.023c-0.798-0.798-0.798-2.09,0-2.887c0.798-0.799,2.09-0.799,2.887,0
		l8.057,8.057c13.814-14.197,17.844-29.518,12.851-35.105l-0.319-0.358l-24.842-24.844l-0.054,0.026l-1.523-1.591
		c-1.557-1.557-3.852-2.346-6.823-2.346c-3.547,0-7.682,1.13-11.993,3.158l1.575,1.581c6.847-2.65,12.936-2.589,16.372,0.85
		c6.32,6.322,1.302,21.588-11.21,34.098c-12.513,12.511-27.78,17.531-34.099,11.209c-3.495-3.494-3.509-9.726-0.72-16.717
		l-1.555-1.554c-0.766,1.612-1.436,3.214-1.954,4.79C52.757,88.571,53.118,93.802,55.846,96.531"/>
	<path style="fill:#FFFFFF;" d="M55.832,67.746l13.467,13.466c2.319,0.984,8.434-0.891,14.192-6.645
		c6.049-6.054,7.814-12.407,6.48-14.476L76.728,46.846c-2.79-2.79-6.5-4.326-10.448-4.326c-3.946,0-7.657,1.536-10.448,4.326
		C50.07,52.607,50.072,61.981,55.832,67.746"/>
	<path style="fill:#FFFFFF;" d="M202.096,205.766c-1.593,0-3.374,2.506-3.374,5.862c0,3.354,1.781,5.861,3.374,5.861
		c1.591,0,3.372-2.507,3.372-5.861C205.468,208.272,203.687,205.766,202.096,205.766"/>
</g>
</svg>
