<?xml version="1.0" encoding="iso-8859-1"?>
<!-- Generator: Adobe Illustrator 25.4.1, SVG Export Plug-In . SVG Version: 6.00 Build 0)  -->
<svg version="1.1" id="Calque_1" xmlns="http://www.w3.org/2000/svg" xmlns:xlink="http://www.w3.org/1999/xlink" x="0px" y="0px"
	 viewBox="0 0 368.5 368.5" style="enable-background:new 0 0 368.5 368.5;" xml:space="preserve">
<g>
	<path style="fill:#FFFFFF;" d="M279.026,145.862c0-9.685-7.877-17.566-17.565-17.566c-5.1,0-9.688,2.204-12.903,5.694
		c-0.269-0.059-0.557-0.088-0.843-0.088h-10.332c-2.278,0-4.128,1.848-4.128,4.128c0,2.28,1.85,4.13,4.128,4.13h6.914
		c-0.256,1.196-0.394,2.433-0.394,3.702c0,0.582,0.467,1.052,1.048,1.052h33.027C278.559,146.914,279.026,146.444,279.026,145.862"
		/>
	<path style="fill:#FFFFFF;" d="M205.407,279.058V165.181h-11.461c-0.511,0-1.012-0.047-1.502-0.117v114.113
		c0.49-0.07,0.991-0.119,1.502-0.119H205.407z"/>
	<path style="fill:#FFFFFF;" d="M123.164,75.716c1.885-0.115,3.801-0.182,5.757-0.182c2.59,0,5.118,0.111,7.581,0.311
		c3.536-11.768,14.46-20.365,27.36-20.365c15.762,0,28.582,12.82,28.582,28.579v59.718c0.49-0.069,0.991-0.118,1.502-0.118h11.461
		v-59.6c0-22.906-18.637-41.541-41.545-41.541C143.811,42.518,127.038,56.794,123.164,75.716"/>
	<path style="fill:#FFFFFF;" d="M192.444,325.982h12.962v-25.4h-11.46c-0.511,0-1.012-0.049-1.502-0.119V325.982z"/>
	<path style="fill:#FFFFFF;" d="M89.474,96.611h78.893c-1.942-7.639-17.595-15.521-39.445-15.521S91.421,88.972,89.474,96.611"/>
	<path style="fill:#FFFFFF;" d="M211.964,143.66h1.195c1.951,0,3.777,0.529,5.357,1.439c2.893-2.218,6.592-3.531,10.258-3.531
		v-5.555C222.46,136.013,216.03,138.945,211.964,143.66"/>
	<path style="fill:#FFFFFF;" d="M214.66,165.064c-0.493,0.071-0.987,0.119-1.5,0.119h-4.104
		c8.291,52.043,12.588,77.411,14.702,89.895c2.238,13.205,2.238,13.205,2.238,16.537c0,4.367-1.832,8.309-4.757,11.115
		c1.266,1.443,2.154,3.223,2.508,5.192c4.753-3.852,7.805-9.729,7.805-16.307c0-3.797,0-3.797-2.315-17.467
		C227.133,241.738,222.871,216.572,214.66,165.064"/>
	<path style="fill:#FFFFFF;" d="M188.74,154.422c0,2.87,2.337,5.204,5.205,5.204h19.216c2.87,0,5.207-2.334,5.207-5.204
		c0-2.872-2.337-5.208-5.207-5.208h-19.216C191.077,149.214,188.74,151.55,188.74,154.422"/>
	<path style="fill:#FFFFFF;" d="M188.74,289.82c0,2.873,2.337,5.209,5.205,5.209h19.216c2.87,0,5.207-2.336,5.207-5.209
		c0-2.871-2.337-5.207-5.207-5.207h-19.216C191.077,284.613,188.74,286.949,188.74,289.82"/>
	<path style="fill:#FFFFFF;" d="M143.676,141.265c-2.345,0.686-3.7,3.15-3.022,5.495c0.543,1.888,2.296,3.208,4.262,3.208
		c0.419,0,0.834-0.058,1.237-0.176c1.147-0.328,2.09-1.088,2.66-2.132c0.574-1.045,0.699-2.249,0.369-3.366
		C148.518,142.001,145.956,140.595,143.676,141.265"/>
	<path style="fill:#FFFFFF;" d="M144.916,115.602c0.419,0,0.834-0.06,1.237-0.174c1.147-0.331,2.09-1.089,2.659-2.134
		c0.574-1.046,0.701-2.247,0.369-3.369c-0.668-2.291-3.232-3.693-5.505-3.023c-2.345,0.683-3.7,3.149-3.022,5.494
		C141.196,114.287,142.949,115.602,144.916,115.602"/>
	<path style="fill:#FFFFFF;" d="M108.423,127.722c0.544,1.889,2.3,3.211,4.268,3.211c0.413,0,0.828-0.058,1.246-0.177
		c1.144-0.336,2.085-1.097,2.658-2.143c0.561-1.039,0.688-2.242,0.356-3.356c-0.663-2.291-3.177-3.705-5.508-3.025
		C109.099,122.921,107.742,125.388,108.423,127.722"/>
	<path style="fill:#FFFFFF;" d="M140.654,127.722c0.542,1.889,2.292,3.211,4.262,3.211c0.419,0,0.834-0.058,1.246-0.177
		c1.146-0.336,2.089-1.097,2.653-2.143c0.57-1.039,0.696-2.242,0.364-3.356c-0.668-2.291-3.18-3.705-5.509-3.025
		C141.328,122.921,139.975,125.388,140.654,127.722"/>
	<path style="fill:#FFFFFF;" d="M144.916,170.857c0.419,0,0.837-0.063,1.246-0.18c1.148-0.338,2.09-1.1,2.654-2.146
		c0.57-1.039,0.697-2.24,0.367-3.35c-0.662-2.289-3.152-3.713-5.513-3.027c-2.341,0.686-3.694,3.152-3.016,5.492
		C141.196,169.537,142.949,170.857,144.916,170.857"/>
	<path style="fill:#FFFFFF;" d="M111.444,162.154c-2.346,0.686-3.698,3.153-3.021,5.493c0.544,1.89,2.299,3.209,4.265,3.209
		c0.422,0,0.838-0.061,1.248-0.179c1.145-0.337,2.088-1.101,2.657-2.146c0.564-1.039,0.69-2.24,0.358-3.351
		C116.288,162.893,113.803,161.468,111.444,162.154"/>
	<path style="fill:#FFFFFF;" d="M112.69,115.602c0.419,0,0.828-0.06,1.234-0.174c1.148-0.331,2.085-1.089,2.662-2.134
		c0.571-1.046,0.703-2.247,0.365-3.369c-0.663-2.291-3.232-3.693-5.505-3.023c-2.344,0.683-3.7,3.149-3.024,5.494
		C108.967,114.287,110.721,115.602,112.69,115.602"/>
	<path style="fill:#FFFFFF;" d="M127.562,141.265c-2.344,0.686-3.702,3.15-3.021,5.495c0.541,1.888,2.295,3.208,4.263,3.208
		c0.414,0,0.832-0.058,1.235-0.176c1.147-0.328,2.087-1.088,2.662-2.132c0.572-1.045,0.699-2.249,0.368-3.366
		C132.404,142.001,129.839,140.595,127.562,141.265"/>
	<path style="fill:#FFFFFF;" d="M124.54,167.646c0.541,1.891,2.296,3.211,4.26,3.211c0.417,0,0.84-0.063,1.248-0.18
		c1.146-0.338,2.092-1.1,2.66-2.147c0.566-1.038,0.687-2.239,0.361-3.349c-0.659-2.289-3.15-3.713-5.515-3.028
		C125.21,162.839,123.86,165.306,124.54,167.646"/>
	<path style="fill:#FFFFFF;" d="M116.951,144.294c-0.663-2.293-3.22-3.699-5.505-3.029c-2.344,0.685-3.7,3.15-3.023,5.494
		c0.545,1.889,2.299,3.209,4.267,3.209c0.419,0,0.828-0.059,1.235-0.176c1.146-0.328,2.085-1.088,2.661-2.133
		C117.156,146.614,117.288,145.411,116.951,144.294"/>
	<path style="fill:#FFFFFF;" d="M124.54,127.722c0.541,1.889,2.294,3.211,4.264,3.211c0.413,0,0.832-0.058,1.244-0.177
		c1.146-0.336,2.087-1.097,2.66-2.143c0.564-1.039,0.687-2.242,0.359-3.356c-0.666-2.291-3.182-3.705-5.513-3.025
		C125.21,122.921,123.86,125.388,124.54,127.722"/>
	<path style="fill:#FFFFFF;" d="M128.804,115.602c0.413,0,0.832-0.06,1.233-0.174c1.148-0.331,2.089-1.089,2.663-2.134
		c0.573-1.046,0.701-2.247,0.368-3.369c-0.666-2.291-3.236-3.693-5.506-3.023c-2.345,0.683-3.701,3.149-3.022,5.494
		C125.081,114.287,126.835,115.602,128.804,115.602"/>
	<path style="fill:#FFFFFF;" d="M260.814,188.953c-2.344,0.684-3.703,3.148-3.022,5.494c0.544,1.888,2.298,3.207,4.257,3.207
		c0.424,0,0.838-0.058,1.237-0.174c1.146-0.332,2.097-1.09,2.666-2.132c0.571-1.048,0.698-2.25,0.368-3.37
		C265.659,189.687,263.094,188.279,260.814,188.953"/>
	<path style="fill:#FFFFFF;" d="M257.79,175.408c0.541,1.891,2.292,3.211,4.26,3.211c0.422,0,0.836-0.057,1.252-0.176
		c1.144-0.334,2.084-1.098,2.656-2.143c0.566-1.039,0.693-2.241,0.359-3.359c-0.662-2.289-3.181-3.703-5.509-3.023
		C258.464,170.607,257.112,173.074,257.79,175.408"/>
	<path style="fill:#FFFFFF;" d="M262.051,163.288c0.424,0,0.835-0.057,1.237-0.175c1.146-0.33,2.096-1.089,2.662-2.134
		c0.575-1.045,0.7-2.246,0.368-3.367c-0.665-2.291-3.228-3.693-5.502-3.025c-2.347,0.683-3.704,3.148-3.025,5.495
		C258.335,161.971,260.09,163.288,262.051,163.288"/>
</g>
</svg>
