<?xml version="1.0" encoding="iso-8859-1"?>
<!-- Generator: Adobe Illustrator 25.4.1, SVG Export Plug-In . SVG Version: 6.00 Build 0)  -->
<svg version="1.1" id="Calque_1" xmlns="http://www.w3.org/2000/svg" xmlns:xlink="http://www.w3.org/1999/xlink" x="0px" y="0px"
	 viewBox="0 0 368.5 368.5" style="enable-background:new 0 0 368.5 368.5;" xml:space="preserve">
<g>
	<path style="fill:#FFFFFF;" d="M269.947,167.568v-2.201L128.4,306.913c-4.082,4.081-9.51,6.329-15.282,6.329
		c-5.774,0-11.201-2.248-15.282-6.329l-52.16-52.161v1.386c0.004,3.892,1.524,7.556,4.278,10.31l52.831,52.831
		c2.76,2.76,6.43,4.279,10.333,4.279c3.904,0,7.574-1.519,10.334-4.279l142.215-142.215
		C268.823,173.908,269.947,170.089,269.947,167.568"/>
	<path style="fill:#FFFFFF;" d="M49.954,228.464c-5.698,5.697-5.697,14.969,0.001,20.667l52.83,52.832
		c2.759,2.759,6.428,4.279,10.333,4.279c3.903,0,7.573-1.52,10.333-4.28l142.215-142.214c2.76-2.76,4.28-6.43,4.28-10.334
		c0-3.904-1.52-7.574-4.28-10.333l-52.83-52.833c-2.76-2.759-6.43-4.279-10.335-4.279c-3.904,0-7.574,1.52-10.334,4.28
		L49.954,228.464z M158.908,138.284c3.179-3.18,7.407-4.93,11.904-4.93c4.496,0,8.724,1.751,11.903,4.93
		c3.182,3.18,4.934,7.408,4.934,11.905c0,4.498-1.752,8.726-4.934,11.906c-3.178,3.179-7.406,4.93-11.903,4.93
		c-4.496,0-8.724-1.751-11.904-4.931C152.342,155.53,152.342,144.849,158.908,138.284 M128.727,168.465
		c3.18-3.18,7.408-4.931,11.905-4.931c4.496,0,8.725,1.751,11.906,4.931c6.564,6.565,6.564,17.246,0,23.809
		c-3.181,3.18-7.409,4.931-11.906,4.931c-4.497,0-8.724-1.751-11.905-4.931C122.163,185.709,122.163,175.028,128.727,168.465
		 M114.887,274.529c-0.929,0.931-2.62,2.042-5.379,2.042c-5.335,0-12.952-4.303-19.879-11.231c-4.231-4.23-7.61-8.88-9.515-13.091
		c-3.209-7.095-1.173-10.67,0.327-12.17c0.933-0.932,2.622-2.042,5.381-2.042c5.335,0,12.952,4.303,19.879,11.231
		c4.231,4.231,7.61,8.88,9.515,13.091C118.426,269.456,116.388,273.03,114.887,274.529 M122.355,222.454
		c-3.179,3.18-7.406,4.931-11.903,4.931s-8.725-1.751-11.906-4.931c-3.179-3.18-4.931-7.408-4.931-11.905
		c0-4.496,1.752-8.724,4.931-11.904c3.181-3.18,7.409-4.932,11.906-4.932s8.724,1.752,11.904,4.933
		c3.18,3.178,4.932,7.406,4.932,11.903C127.288,215.046,125.536,219.275,122.355,222.454 M152.537,252.634
		c-3.18,3.179-7.409,4.931-11.906,4.931c-4.496,0-8.724-1.751-11.905-4.931c-6.563-6.565-6.563-17.245-0.001-23.809
		c3.181-3.18,7.409-4.932,11.906-4.932c4.497,0,8.726,1.752,11.906,4.932c3.179,3.179,4.93,7.407,4.931,11.904
		C157.468,245.226,155.717,249.454,152.537,252.634 M182.714,222.455c-3.178,3.179-7.406,4.93-11.903,4.93
		c-4.496,0-8.724-1.751-11.904-4.931c-3.18-3.18-4.932-7.408-4.932-11.905c0-4.496,1.752-8.724,4.932-11.904
		c3.179-3.18,7.407-4.932,11.904-4.932s8.725,1.752,11.904,4.933c3.181,3.178,4.933,7.406,4.933,11.903
		C187.648,215.046,185.896,219.275,182.714,222.455 M212.897,192.273c-3.182,3.181-7.409,4.932-11.906,4.932
		c-4.497,0-8.724-1.751-11.904-4.932c-3.179-3.179-4.931-7.407-4.932-11.903c0-4.497,1.752-8.726,4.933-11.906
		c3.179-3.179,7.407-4.93,11.903-4.93c4.497,0,8.724,1.751,11.905,4.931C219.459,175.029,219.459,185.709,212.897,192.273
		 M231.171,133.354c4.496,0,8.724,1.75,11.905,4.93c6.564,6.566,6.564,17.247,0,23.81c-3.181,3.18-7.409,4.931-11.905,4.931
		s-8.723-1.751-11.904-4.931c-6.563-6.564-6.563-17.245,0-23.809C222.447,135.104,226.674,133.354,231.171,133.354 M212.896,108.104
		c6.563,6.564,6.563,17.246,0.001,23.81c-3.182,3.18-7.409,4.931-11.906,4.931c-4.497,0-8.724-1.751-11.904-4.931
		c-3.179-3.18-4.931-7.408-4.932-11.905c0-4.497,1.752-8.726,4.933-11.905c3.179-3.18,7.407-4.931,11.904-4.931
		C205.488,103.173,209.715,104.924,212.896,108.104"/>
	<path style="fill:#FFFFFF;" d="M191.155,120.009c0,2.627,1.024,5.097,2.883,6.955c1.857,1.859,4.327,2.882,6.953,2.882
		c2.628,0,5.098-1.024,6.956-2.882c3.834-3.834,3.834-10.075-0.001-13.91c-1.857-1.858-4.327-2.88-6.954-2.88
		s-5.097,1.022-6.953,2.88C192.178,114.912,191.155,117.382,191.155,120.009"/>
	<path style="fill:#FFFFFF;" d="M224.218,157.145c1.857,1.857,4.327,2.88,6.954,2.88s5.097-1.023,6.955-2.881
		c3.835-3.834,3.835-10.074-0.001-13.91c-1.857-1.857-4.327-2.88-6.954-2.88s-5.097,1.023-6.955,2.881
		C220.383,147.069,220.383,153.31,224.218,157.145"/>
	<path style="fill:#FFFFFF;" d="M163.856,157.144c1.858,1.858,4.328,2.881,6.955,2.881s5.097-1.023,6.953-2.88
		c1.861-1.859,2.884-4.329,2.884-6.956s-1.023-5.096-2.883-6.954c-1.857-1.859-4.327-2.881-6.954-2.881s-5.097,1.022-6.955,2.88
		C160.021,147.069,160.021,153.309,163.856,157.144"/>
	<path style="fill:#FFFFFF;" d="M207.946,173.415c-1.857-1.857-4.328-2.881-6.955-2.881c-2.626,0-5.096,1.023-6.952,2.881
		c-1.861,1.858-2.884,4.328-2.884,6.955c0,2.626,1.024,5.096,2.883,6.954c1.857,1.858,4.327,2.881,6.953,2.881
		c2.628,0,5.098-1.023,6.956-2.881C211.781,183.49,211.781,177.25,207.946,173.415"/>
	<path style="fill:#FFFFFF;" d="M133.677,187.324c1.857,1.857,4.328,2.88,6.955,2.88s5.098-1.023,6.956-2.881
		c3.835-3.834,3.834-10.073-0.001-13.909c-1.857-1.857-4.328-2.881-6.955-2.881c-2.628,0-5.098,1.023-6.956,2.882
		C129.842,177.249,129.842,183.488,133.677,187.324"/>
	<path style="fill:#FFFFFF;" d="M180.648,210.55c0-2.627-1.023-5.096-2.882-6.954c-1.859-1.859-4.329-2.883-6.955-2.883
		c-2.627,0-5.097,1.024-6.954,2.882c-1.858,1.858-2.882,4.329-2.882,6.955c0,2.627,1.024,5.097,2.881,6.954
		c1.858,1.859,4.328,2.882,6.955,2.882s5.097-1.023,6.953-2.881C179.625,215.646,180.648,213.176,180.648,210.55"/>
	<path style="fill:#FFFFFF;" d="M120.288,210.55c0-2.627-1.023-5.097-2.882-6.954c-1.858-1.859-4.328-2.883-6.954-2.883
		c-2.627,0-5.098,1.024-6.956,2.883c-1.857,1.857-2.881,4.328-2.881,6.954c0,2.627,1.024,5.097,2.881,6.954
		c1.858,1.859,4.328,2.882,6.956,2.882c2.627,0,5.097-1.023,6.953-2.881C119.265,215.647,120.288,213.177,120.288,210.55"/>
	<path style="fill:#FFFFFF;" d="M147.588,233.775c-1.858-1.858-4.329-2.882-6.956-2.882s-5.098,1.024-6.956,2.882
		c-3.834,3.835-3.834,10.074,0.001,13.909c1.857,1.858,4.328,2.881,6.955,2.881c2.628,0,5.098-1.023,6.956-2.881
		c1.857-1.858,2.881-4.327,2.881-6.955C150.469,238.102,149.445,235.632,147.588,233.775"/>
	<path style="fill:#FFFFFF;" d="M85.822,245.037c-0.19,0-0.322,0.016-0.406,0.032c-0.392,1.517,1.613,7.772,9.163,15.322
		c6.027,6.027,12.073,9.181,14.93,9.181c0.19,0,0.322-0.016,0.406-0.033c0.392-1.513-1.612-7.77-9.163-15.322
		C94.724,248.19,88.678,245.037,85.822,245.037"/>
	<path style="fill:#FFFFFF;" d="M318.168,115.173c2.535,0.033,4.617-1.991,4.65-4.525c0.479-35.747-28.214-65.226-63.961-65.706
		c-2.535-0.035-4.615,1.993-4.65,4.527c-0.033,2.533,1.992,4.613,4.527,4.647c30.69,0.412,55.319,25.72,54.909,56.409
		C313.609,113.059,315.637,115.139,318.168,115.173"/>
	<path style="fill:#FFFFFF;" d="M299.293,114.919c2.533,0.034,4.617-1.991,4.65-4.524c0.34-25.342-20-46.238-45.339-46.578
		c-2.534-0.034-4.616,1.991-4.649,4.528c-0.035,2.534,1.992,4.614,4.525,4.648c20.282,0.272,36.561,16.994,36.288,37.279
		C294.734,112.805,296.762,114.885,299.293,114.919"/>
	<path style="fill:#FFFFFF;" d="M280.424,114.666c2.531,0.035,4.613-1.991,4.648-4.525c0.202-14.936-11.787-27.249-26.72-27.45
		c-2.535-0.033-4.617,1.993-4.651,4.527c-0.035,2.534,1.993,4.614,4.528,4.649c9.875,0.131,17.802,8.276,17.67,18.151
		C275.864,112.552,277.889,114.632,280.424,114.666"/>
</g>
</svg>
