<?xml version="1.0" encoding="iso-8859-1"?>
<!-- Generator: Adobe Illustrator 25.4.1, SVG Export Plug-In . SVG Version: 6.00 Build 0)  -->
<svg version="1.1" id="Calque_1" xmlns="http://www.w3.org/2000/svg" xmlns:xlink="http://www.w3.org/1999/xlink" x="0px" y="0px"
	 viewBox="0 0 368.5 368.5" style="enable-background:new 0 0 368.5 368.5;" xml:space="preserve">
<g>
	<path style="fill:#FFFFFF;" d="M218.227,176.991c0.768,0.285,1.518,0.603,2.25,0.952h44.406
		c31.717-0.002,57.43-25.711,57.434-57.43c-0.004-31.724-25.717-57.431-57.434-57.435h-88.875c0.239,1.469,0.367,2.975,0.367,4.51
		c0,1.311-0.097,2.599-0.273,3.863h88.781c13.561,0.002,25.799,5.482,34.69,14.368c8.884,8.893,14.371,21.132,14.373,34.694
		c-0.002,13.56-5.485,25.798-14.373,34.691c-8.891,8.884-21.129,14.366-34.69,14.366h-46.738c0.051,0.538,0.082,1.081,0.082,1.631
		V176.991z"/>
	<path style="fill:#FFFFFF;" d="M161.927,56.749c-0.39,0.39-0.902,0.586-1.414,0.586c-0.511,0-1.023-0.196-1.414-0.586
		c-0.781-0.781-0.781-2.048,0-2.828l2.588-2.588c-3.193-2.632-7.176-4.33-11.531-4.71v3.593c0,1.105-0.895,2-2,2
		c-1.104,0-2-0.895-2-2V46.64c-4.311,0.442-8.234,2.195-11.381,4.844l2.438,2.437c0.781,0.781,0.781,2.047,0,2.829
		c-0.391,0.39-0.903,0.586-1.415,0.586c-0.511,0-1.023-0.196-1.414-0.586l-2.412-2.414c-2.568,3.16-4.234,7.075-4.619,11.356h3.326
		c1.106,0,2,0.896,2,2c0,1.105-0.894,2-2,2h-3.314c0.424,4.253,2.117,8.137,4.695,11.268l2.324-2.325
		c0.782-0.781,2.047-0.781,2.829,0c0.781,0.781,0.781,2.048,0,2.829l-2.329,2.328c3.127,2.595,7.014,4.307,11.272,4.743v-3.366
		c0-1.105,0.896-2,2-2c1.105,0,2,0.895,2,2v3.383c4.303-0.375,8.238-2.042,11.412-4.62l-2.469-2.468
		c-0.781-0.782-0.781-2.048,0-2.829c0.782-0.78,2.047-0.781,2.828,0l2.493,2.494c2.66-3.16,4.416-7.105,4.847-11.437h-3.635
		c-1.105,0-2-0.895-2-2c0-1.104,0.895-2,2-2h3.645c-0.391-4.361-2.107-8.345-4.758-11.535L161.927,56.749z M130.611,63.364
		c-1.035-0.384-1.564-1.534-1.182-2.57c0.385-1.037,1.539-1.565,2.571-1.181l16.164,5.987c1.037,0.384,1.564,1.534,1.181,2.57
		c-0.298,0.807-1.062,1.306-1.875,1.306c-0.232,0-0.466-0.04-0.695-0.125L130.611,63.364z"/>
	<path style="fill:#FFFFFF;" d="M118.279,60.299c0-0.539-0.437-0.978-0.979-0.978H92.111c-0.539,0-0.978,0.439-0.978,0.978v12.878
		c0,0.539,0.439,0.978,0.978,0.978H117.3c0.542,0,0.979-0.439,0.979-0.978V60.299z"/>
	<path style="fill:#FFFFFF;" d="M201.076,161.049h-47.271l-6.086,38.387h33.392c1.752-13.612,13.418-24.174,27.488-24.174
		c0.887,0,1.762,0.046,2.627,0.128v-4.188C211.226,165.604,206.674,161.049,201.076,161.049"/>
	<path style="fill:#FFFFFF;" d="M68.443,286.947c1.314-20.534,18.432-36.84,39.297-36.84c21.719,0,39.389,17.667,39.389,39.382
		c0,0.932-0.045,1.854-0.11,2.77h106.399v-14.323c0-6.976,5.677-12.653,12.654-12.653c6.978,0,12.654,5.677,12.654,12.653v14.272
		c22.731-1.055,40.901-19.874,40.901-42.862c0-23.661-19.25-42.911-42.913-42.911h-43.888h-48.451H89.097
		c-23.662,0-42.914,19.25-42.914,42.911C46.183,265.525,55.187,279.636,68.443,286.947"/>
	<path style="fill:#FFFFFF;" d="M140.129,289.489c0-17.855-14.53-32.382-32.389-32.382s-32.389,14.527-32.389,32.382
		c0,17.859,14.53,32.388,32.389,32.388S140.129,307.348,140.129,289.489 M107.74,306.503c-9.383,0-17.018-7.632-17.018-17.013
		c0-9.383,7.635-17.015,17.018-17.015s17.016,7.632,17.016,17.015C124.756,298.871,117.123,306.503,107.74,306.503"/>
	<path style="fill:#FFFFFF;" d="M271.727,277.936c0-3.117-2.537-5.653-5.654-5.653s-5.655,2.536-5.655,5.653v37.757
		c0,3.117,2.538,5.653,5.655,5.653s5.654-2.536,5.654-5.653V277.936z"/>
	<path style="fill:#FFFFFF;" d="M77.225,148.798h70.945v-3.744c0-5.172-4.207-9.379-9.379-9.379H138.2v7.324c0,1.105-0.897,2-2,2
		c-1.106,0-2-0.895-2-2v-7.324h-8v7.324c0,1.105-0.897,2-2,2c-1.106,0-2-0.895-2-2v-7.324h-8v7.324c0,1.105-0.897,2-2,2
		c-1.106,0-2-0.895-2-2v-7.324h-8v7.324c0,1.105-0.897,2-2,2c-1.106,0-2-0.895-2-2v-7.324h-8v7.324c0,1.105-0.897,2-2,2
		c-1.106,0-2-0.895-2-2v-7.304c-4.983,0.215-8.975,4.325-8.975,9.359V148.798z"/>
	<path style="fill:#FFFFFF;" d="M140.66,199.253l6.891-43.455H77.824l6.889,43.455H140.66z M113.422,189.202
		c-6.893,0-12.5-5.607-12.5-12.5c0-6.893,5.607-12.5,12.5-12.5c6.893,0,12.5,5.607,12.5,12.5
		C125.922,183.595,120.315,189.202,113.422,189.202"/>
	<path style="fill:#FFFFFF;" d="M113.422,171.202c-3.033,0-5.5,2.467-5.5,5.5c0,3.033,2.467,5.5,5.5,5.5c3.031,0,5.5-2.467,5.5-5.5
		C118.922,173.669,116.453,171.202,113.422,171.202"/>
	<path style="fill:#FFFFFF;" d="M208.6,182.261c-10.207,0-18.727,7.435-20.418,17.174h40.838
		C227.329,189.696,218.809,182.261,208.6,182.261"/>
</g>
</svg>
