<?xml version="1.0" encoding="iso-8859-1"?>
<!-- Generator: Adobe Illustrator 25.4.1, SVG Export Plug-In . SVG Version: 6.00 Build 0)  -->
<svg version="1.1" id="Calque_1" xmlns="http://www.w3.org/2000/svg" xmlns:xlink="http://www.w3.org/1999/xlink" x="0px" y="0px"
	 viewBox="0 0 368.5 368.5" style="enable-background:new 0 0 368.5 368.5;" xml:space="preserve">
<g>
	<path style="fill:#FFFFFF;" d="M100.019,325.991h173.738c16.642,0,30.182-13.54,30.182-30.183V103.452H69.838v192.356
		C69.838,312.451,83.377,325.991,100.019,325.991 M236.828,248.848l-2.277,21.154c-0.48,4.449-4.244,7.751-8.621,7.751
		c-0.311,0-0.623-0.017-0.94-0.051c-4.767-0.511-8.215-4.794-7.702-9.561l1.42-13.198l-14.274-2.73
		c-4.708-0.899-7.797-5.448-6.896-10.156c0.9-4.712,5.446-7.815,10.157-6.897l22.131,4.232
		C234.266,240.24,237.311,244.353,236.828,248.848 M166.85,147.079c6.064-1.749,12.374-2.635,18.756-2.635
		c36.967,0,67.043,29.822,67.043,66.477c0,5.884-0.774,11.712-2.299,17.322c-1.051,3.863-4.551,6.404-8.373,6.404
		c-0.754,0-1.519-0.099-2.283-0.308c-4.626-1.257-7.357-6.029-6.099-10.655c1.122-4.123,1.691-8.417,1.691-12.763
		c0-27.083-22.286-49.115-49.68-49.115c-4.753,0-9.444,0.659-13.943,1.957c-4.604,1.32-9.419-1.327-10.748-5.934
		C159.587,153.222,162.243,148.409,166.85,147.079 M135.763,170.17l2.281-21.153c0.513-4.77,4.793-8.207,9.561-7.7
		c4.767,0.513,8.215,4.793,7.702,9.56l-1.423,13.199l14.273,2.727c4.71,0.899,7.798,5.445,6.898,10.156
		c-0.796,4.159-4.434,7.054-8.518,7.054c-0.54,0-1.088-0.051-1.638-0.157l-22.133-4.23
		C138.325,178.779,135.279,174.663,135.763,170.17 M121.965,189.957c1.521-4.546,6.443-6.995,10.988-5.477
		c4.547,1.524,6.998,6.444,5.476,10.99c-1.663,4.965-2.506,10.164-2.506,15.451c0,27.086,22.288,49.123,49.685,49.123
		c4.335,0,8.653-0.557,12.831-1.654c4.641-1.226,9.385,1.552,10.603,6.188c1.219,4.636-1.552,9.384-6.19,10.602
		c-5.618,1.478-11.42,2.226-17.244,2.226c-36.971,0-67.048-29.825-67.048-66.485C118.56,203.756,119.706,196.703,121.965,189.957"/>
	<path style="fill:#FFFFFF;" d="M137.064,96.011c0.908-14.889,13.275-26.736,28.39-26.736h44.64
		c15.116,0,27.484,11.847,28.392,26.736h82.979c-1.626-29.817-22.672-53.485-48.307-53.485H97.519
		c-25.637,0-46.684,23.668-48.31,53.485H137.064z"/>
</g>
</svg>
