<?xml version="1.0" encoding="iso-8859-1"?>
<!-- Generator: Adobe Illustrator 25.4.1, SVG Export Plug-In . SVG Version: 6.00 Build 0)  -->
<svg version="1.1" id="Calque_1" xmlns="http://www.w3.org/2000/svg" xmlns:xlink="http://www.w3.org/1999/xlink" x="0px" y="0px"
	 viewBox="0 0 368.5 368.5" style="enable-background:new 0 0 368.5 368.5;" xml:space="preserve">
<g>
	<path style="fill:#FFFFFF;" d="M264.395,200.322v16.007c3.392,2.761,6.663,5.705,9.799,8.838
		c22.687,22.7,35.795,52.603,37.135,84.529h13.007C322.598,264.579,299.209,224.766,264.395,200.322"/>
	<path style="fill:#FFFFFF;" d="M131.967,185.127v13.969c16.225-7.321,33.958-11.18,52.283-11.183
		c18.651,0.003,36.687,4.002,53.144,11.576v-14.018c-16.422-6.8-34.377-10.556-53.143-10.558
		C165.811,174.915,148.156,178.549,131.967,185.127"/>
	<path style="fill:#FFFFFF;" d="M104.966,215.641v-15.927c-35.292,24.388-59.05,64.494-60.803,109.983h13.01
		c1.338-31.925,14.446-61.827,37.132-84.528C97.704,221.772,101.267,218.6,104.966,215.641"/>
	<path style="fill:#FFFFFF;" d="M104.966,226.351c-23.307,20.744-38.607,50.354-40.281,83.346h13.011
		c1.37-24.366,10.948-47.282,27.27-65.402V226.351z"/>
	<path style="fill:#FFFFFF;" d="M304.138,309.697c-1.662-32.737-16.739-62.147-39.743-82.866v18.084
		c15.989,18.024,25.376,40.691,26.729,64.782H304.138z"/>
	<path style="fill:#FFFFFF;" d="M184.412,195.897c-18.736,0.002-36.552,4.416-52.444,12.251v14.454
		c15.832-8.941,33.774-13.702,52.443-13.705c18.882,0.003,37.019,4.875,52.983,14.016v-14.499
		C221.366,200.412,203.36,195.899,184.412,195.897"/>
	<path style="fill:#FFFFFF;" d="M283.006,309.697c-1.201-19.494-7.917-37.335-18.611-52.031v27.321
		c3.04,7.852,4.936,16.161,5.553,24.71H283.006z"/>
	<path style="fill:#FFFFFF;" d="M104.966,257.376c-10.817,14.751-17.615,32.699-18.824,52.321h13.054
		c0.632-8.755,2.599-17.262,5.77-25.281V257.376z"/>
	<path style="fill:#FFFFFF;" d="M237.394,248.573v-16.14c-15.238-9.589-33.338-15.112-52.82-15.114
		c-19.393,0.002-37.412,5.473-52.607,14.981v16.105c14.984-11.711,33.304-18.082,52.606-18.085
		C203.969,230.323,222.374,236.756,237.394,248.573"/>
	<path style="fill:#FFFFFF;" d="M129.65,86.995h-21.564v15.615h21.564V86.995z M122.3,92.18c0-1.381,1.119-2.5,2.5-2.5
		c1.381,0,2.5,1.119,2.5,2.5v4.687c0,1.381-1.119,2.5-2.5,2.5c-1.381,0-2.5-1.119-2.5-2.5V92.18z M116.296,92.18
		c0-1.381,1.12-2.5,2.5-2.5c1.381,0,2.5,1.119,2.5,2.5v4.687c0,1.381-1.119,2.5-2.5,2.5c-1.38,0-2.5-1.119-2.5-2.5V92.18z
		 M110.145,92.18c0-1.381,1.119-2.5,2.5-2.5c1.381,0,2.5,1.119,2.5,2.5v4.687c0,1.381-1.119,2.5-2.5,2.5c-1.381,0-2.5-1.119-2.5-2.5
		V92.18z"/>
	<path style="fill:#FFFFFF;" d="M265.703,56.416h-30.765v25.57h30.765V56.416z M253.814,65.67c0-0.276,0.224-0.5,0.5-0.5h6.621
		c0.277,0,0.5,0.224,0.5,0.5v6.621c0,0.276-0.223,0.5-0.5,0.5h-6.621c-0.276,0-0.5-0.224-0.5-0.5V65.67z M239.152,65.67
		c0-0.276,0.224-0.5,0.5-0.5h6.621c0.276,0,0.5,0.224,0.5,0.5v6.621c0,0.276-0.224,0.5-0.5,0.5h-6.621c-0.276,0-0.5-0.224-0.5-0.5
		V65.67z"/>
	<path style="fill:#FFFFFF;" d="M257.395,140.978c-2.233,0.51-4.554,0.788-6.939,0.788c-2.074,0-4.1-0.208-6.062-0.597v170.914
		h13.001V140.978z"/>
	<rect x="111.966" y="164.399" style="fill:#FFFFFF;" width="13.001" height="147.685"/>
	<path style="fill:#FFFFFF;" d="M250.456,134.766c13.322,0,24.161-10.839,24.161-24.163V88.986h-48.326v21.617
		C226.291,123.927,237.132,134.766,250.456,134.766"/>
	<rect x="103.855" y="109.611" style="fill:#FFFFFF;" width="30.345" height="47.789"/>
</g>
</svg>
