<?xml version="1.0" encoding="iso-8859-1"?>
<!-- Generator: Adobe Illustrator 25.4.1, SVG Export Plug-In . SVG Version: 6.00 Build 0)  -->
<svg version="1.1" id="Calque_1" xmlns="http://www.w3.org/2000/svg" xmlns:xlink="http://www.w3.org/1999/xlink" x="0px" y="0px"
	 viewBox="0 0 368.5 368.5" style="enable-background:new 0 0 368.5 368.5;" xml:space="preserve">
<g>
	<path style="fill:#FFFFFF;" d="M148.064,302.29c-0.004-8.916-3.477-17.295-9.777-23.596c-2.42-2.42-5.151-4.412-8.1-5.961
		l0.002,22.961c0.878,2.059,1.347,4.287,1.349,6.592l0.005,22.82h16.521V302.29z"/>
	<path style="fill:#FFFFFF;" d="M131.543,103.835c-0.004,2.33-0.489,4.551-1.354,6.572v22.946
		c10.608-5.594,17.87-16.719,17.875-29.518V76.224c-0.004-8.914-3.476-17.293-9.775-23.592c-6.299-6.301-14.677-9.771-23.59-9.771
		C96.311,42.869,81.343,57.833,81.334,76.22l0.002,27.613c0.004,8.912,3.473,17.291,9.771,23.588
		c2.368,2.367,5.032,4.336,7.905,5.871v-23.369c-0.744-1.914-1.147-3.967-1.151-6.082V76.224c0.01-9.272,7.563-16.827,16.834-16.842
		c4.506,0.008,8.731,1.762,11.908,4.937c3.177,3.176,4.93,7.405,4.936,11.901L131.543,103.835z"/>
	<path style="fill:#FFFFFF;" d="M130.188,246.389c10.608-5.592,17.873-16.717,17.876-29.521v-27.612
		c-0.003-8.916-3.473-17.291-9.774-23.592c-2.419-2.42-5.155-4.414-8.101-5.963v22.959c0.875,2.059,1.342,4.288,1.346,6.59
		l0.005,27.614c-0.005,2.334-0.489,4.558-1.353,6.582L130.188,246.389z"/>
	<path style="fill:#FFFFFF;" d="M120.801,216.635c-1.655-1.654-3.857-2.566-6.201-2.566c-2.342,0.002-4.544,0.912-6.199,2.566
		c-1.655,1.656-2.567,3.859-2.567,6.197v76.815c0,2.343,0.912,4.543,2.569,6.199c1.656,1.656,3.857,2.568,6.2,2.568
		c4.833,0,8.766-3.931,8.766-8.765l-0.004-76.817C123.365,220.491,122.454,218.29,120.801,216.635"/>
	<path style="fill:#FFFFFF;" d="M81.334,302.294l0.003,22.812l16.523-0.003l0.003-22.817c0.004-2.131,0.421-4.164,1.152-6.045
		v-23.375C88.51,278.495,81.341,289.571,81.334,302.294"/>
	<path style="fill:#FFFFFF;" d="M99.014,183.212l-0.001-23.377c-10.503,5.625-17.672,16.701-17.681,29.42l0.008,27.613
		c0.001,8.914,3.471,17.293,9.769,23.59c2.368,2.369,5.03,4.336,7.905,5.873V222.96c-0.746-1.916-1.151-3.971-1.154-6.086v-27.619
		C97.865,187.124,98.283,185.091,99.014,183.212"/>
	<path style="fill:#FFFFFF;" d="M114.601,192.884c4.832,0,8.766-3.936,8.768-8.77v-76.81c-0.002-2.342-0.915-4.543-2.572-6.201
		c-1.656-1.655-3.858-2.567-6.197-2.567c-2.342,0-4.545,0.912-6.199,2.567c-1.656,1.656-2.569,3.857-2.567,6.197v76.816
		c-0.002,2.342,0.911,4.543,2.567,6.2C110.056,191.97,112.257,192.882,114.601,192.884"/>
	<path style="fill:#FFFFFF;" d="M204.02,129.491c-0.942,3.174,0.009,6.457,2.196,8.646c0.99,0.991,2.237,1.756,3.67,2.184
		l66.086,19.645c4.611,1.369,9.461-1.256,10.834-5.868c1.367-4.609-1.26-9.459-5.871-10.832l-5.893-1.752
		c1.354-6.941,7.489-39.099,7.489-50.681c0.002-33.686-19.569-45.639-36.321-45.637c-16.759-0.002-36.326,11.947-36.324,45.639
		c0.001,6.843,2.143,20.867,4.178,32.636C209.7,122.606,205.317,125.141,204.02,129.491 M246.204,62.614
		c13.332,0,18.905,12.633,18.909,28.217c0,9.187-5.393,38.047-6.848,45.695l-25.526-7.586c-2.136-11.697-5.431-30.922-5.434-38.109
		C227.308,75.245,232.881,62.614,246.204,62.614"/>
	<path style="fill:#FFFFFF;" d="M280.938,171.856l-66.088-19.641c-4.606-1.371-9.457,1.258-10.83,5.87
		c-0.943,3.171,0.008,6.457,2.199,8.648c0.986,0.986,2.236,1.754,3.672,2.182l66.083,19.638c4.609,1.371,9.46-1.258,10.831-5.865
		C288.175,178.081,285.55,173.231,280.938,171.856"/>
	<path style="fill:#FFFFFF;" d="M280.938,200.448l-66.086-19.645c-4.609-1.365-9.461,1.258-10.829,5.872
		c-0.946,3.171,0.007,6.461,2.192,8.644c0.99,0.992,2.239,1.758,3.676,2.186l66.082,19.642c4.615,1.371,9.461-1.258,10.832-5.869
		C288.173,206.673,285.548,201.823,280.938,200.448"/>
	<path style="fill:#FFFFFF;" d="M280.935,229.04l-66.084-19.64c-4.607-1.371-9.459,1.257-10.828,5.865
		c-0.943,3.174,0.004,6.459,2.194,8.65c0.989,0.989,2.236,1.754,3.671,2.182l4.479,1.33c-0.163,0.547-0.32,1.092-0.43,1.654
		c-1.258,6.448-7.535,39.209-7.535,50.92c0.001,33.69,19.567,45.641,36.323,45.639c16.758,0.002,36.322-11.953,36.327-45.635
		c-0.005-7.252-2.408-22.553-4.536-34.697l1.456,0.43c4.612,1.373,9.46-1.254,10.831-5.866
		C288.17,235.263,285.547,230.415,280.935,229.04 M242.724,308.22c-13.328,0.004-18.898-12.629-18.9-28.215
		c0.002-10.623,7.209-47.59,7.209-47.59h0.117l24.653,7.328c2.092,11.338,5.828,32.618,5.824,40.262
		C261.625,295.592,256.053,308.224,242.724,308.22"/>
</g>
</svg>
