<?xml version="1.0" encoding="iso-8859-1"?>
<!-- Generator: Adobe Illustrator 25.4.1, SVG Export Plug-In . SVG Version: 6.00 Build 0)  -->
<svg version="1.1" id="Calque_1" xmlns="http://www.w3.org/2000/svg" xmlns:xlink="http://www.w3.org/1999/xlink" x="0px" y="0px"
	 viewBox="0 0 368.5 368.5" style="enable-background:new 0 0 368.5 368.5;" xml:space="preserve">
<g>
	<path style="fill:#FFFFFF;" d="M68.144,129.822c6.212,6.21,20.877,16.988,33.401,25.82c-4.746,3.172-6.42,9.451-3.651,14.571
		c2.024,3.735,5.866,5.854,9.837,5.854c1.796,0,3.619-0.437,5.31-1.35l77.774-42.133c5.426-2.939,7.445-9.721,4.506-15.151
		c-2.94-5.422-9.722-7.437-15.153-4.499l-6.933,3.754c-5.071-7.526-28.679-42.261-39.187-52.771
		c-30.558-30.561-59.156-23.652-74.353-8.451C44.49,70.668,37.578,99.259,68.144,129.822 M75.493,71.272
		c12.094-12.093,28.609-5.69,42.752,8.446c8.334,8.336,29.625,39.407,35.242,47.667l-30.039,16.275
		c-12.55-8.673-32.981-23.126-39.503-29.643C69.808,99.878,63.404,83.359,75.493,71.272"/>
	<path style="fill:#FFFFFF;" d="M123.835,196.156c2.022,3.733,5.864,5.85,9.84,5.85c1.79,0,3.621-0.437,5.31-1.351l77.768-42.134
		c5.425-2.94,7.441-9.723,4.504-15.15c-2.935-5.421-9.716-7.439-15.148-4.501l-77.774,42.136
		C122.911,183.941,120.895,190.725,123.835,196.156"/>
	<path style="fill:#FFFFFF;" d="M232.048,164.81l-77.778,42.13c-5.419,2.942-7.442,9.724-4.496,15.151
		c2.018,3.734,5.867,5.853,9.831,5.853c1.799,0,3.625-0.436,5.317-1.351l77.77-42.131c5.429-2.943,7.443-9.722,4.504-15.15
		C244.259,163.889,237.478,161.872,232.048,164.81"/>
	<path style="fill:#FFFFFF;" d="M302.51,238.693c-6.581-6.576-22.644-18.278-35.59-27.363l1.711-0.929
		c5.429-2.939,7.442-9.723,4.503-15.149c-2.941-5.424-9.72-7.44-15.15-4.503l-77.771,42.135c-5.424,2.936-7.439,9.72-4.501,15.143
		c2.023,3.735,5.863,5.856,9.836,5.856c1.797,0,3.621-0.436,5.31-1.349l5.27-2.857c0.349,0.64,0.7,1.279,1.111,1.888
		c4.709,6.993,28.736,42.409,39.361,53.033c30.563,30.563,59.156,23.654,74.356,8.452
		C326.16,297.848,333.064,269.255,302.51,238.693 M295.153,297.247c-12.089,12.094-28.604,5.687-42.745-8.452
		c-9.637-9.638-36.635-49.712-36.635-49.712l0.108-0.107l29.014-15.716c12.181,8.385,34.875,24.303,41.808,31.24
		C300.843,268.643,307.246,285.157,295.153,297.247"/>
</g>
</svg>
