<?xml version="1.0" encoding="iso-8859-1"?>
<!-- Generator: Adobe Illustrator 25.4.1, SVG Export Plug-In . SVG Version: 6.00 Build 0)  -->
<svg version="1.1" id="Calque_1" xmlns="http://www.w3.org/2000/svg" xmlns:xlink="http://www.w3.org/1999/xlink" x="0px" y="0px"
	 viewBox="0 0 368.5 368.5" style="enable-background:new 0 0 368.5 368.5;" xml:space="preserve">
<g>
	<path style="fill:#FFFFFF;" d="M325.747,114.182c-0.76-3.56-3.073-6.523-6.349-8.123l-12.611-6.108
		c-0.388-0.186-0.784-0.348-1.184-0.487c-0.224,0.054-0.438,0.119-0.667,0.173c-0.03,0.006-0.2,0.041-0.23,0.047l-25.066,4.486
		c-1.223,0.22-2.494,0.333-3.771,0.333c-0.576-0.004-1.145-0.034-1.717-0.085l-2.1,0.449l-4.033,4.031
		c0.077,0.02,0.154,0.01,0.228,0.04l12.104,4.878c0.03,0.002,0.059,0.014,0.089,0.018l32.716-5.702
		c1.148-0.186,2.199,0.558,2.395,1.683c0.196,1.126-0.558,2.199-1.683,2.395l-31.567,5.502v11.768c0,1.144-0.925,2.069-2.069,2.069
		s-2.069-0.925-2.069-2.069v-12.083l-11.463-4.619c-0.734-0.297-1.178-0.972-1.257-1.708c-2.12,1.431-4.559,2.302-7.131,2.536
		c-0.693,1.976-0.883,4.153-0.416,6.345c0.735,3.449,2.956,6.363,6.094,7.992l13.657,6.581c1.251,0.507,2.745,0.802,4.268,0.802
		c0.82,0,1.649-0.087,2.461-0.261l32.296-6.886c3.08-0.657,5.721-2.475,7.434-5.118
		C325.822,120.416,326.404,117.263,325.747,114.182"/>
	<path style="fill:#FFFFFF;" d="M256.73,96.764c2.78,2.785,3.954,6.515,3.585,10.035c1.121-0.455,2.154-1.128,3.035-2.011l6.1-6.096
		c0.756-0.756,1.853-1.069,2.892-0.831c1.232,0.285,2.392,0.427,3.55,0.435c0.885,0,1.786-0.079,2.651-0.237l25.001-4.471
		c5.462-1.279,9.758-3.381,13.11-6.424c3.884-3.437,6.145-8.574,6.076-13.765c-0.022-5.154-1.747-9.939-4.989-13.865
		c-3.402-4.13-8.185-6.503-13.126-6.513h-0.002c-0.832,0-1.61,0.063-2.443,0.192l-24.773,4.429
		c-6.005,0.974-10.618,3.011-14.152,6.238c-3.793,3.395-6,8.564-5.927,13.85c0.006,1.517,0.19,3.063,0.543,4.617
		c0.237,1.041-0.078,2.13-0.832,2.885l-6.622,6.616c-0.408,0.408-0.755,0.851-1.069,1.309
		C252.083,93.487,254.719,94.756,256.73,96.764 M270.141,71.601c1.958-1.857,5.11-3.16,8.96-3.75l24.702-4.417
		c0.309-0.047,0.491-0.059,0.667-0.067c1.277-0.043,3.273,0.388,5.298,2.762c1.621,1.893,2.649,4.751,2.617,7.27
		c-0.13,3.015-0.982,4.387-2.613,6.04c-1.891,1.786-4.934,3.229-8.426,4.037l-24.547,4.389c-0.269,0.047-0.523,0.069-0.784,0.081
		h-0.014c-2.027,0-3.991-1.069-5.589-2.934c-1.708-1.944-2.795-4.819-2.748-7.301C267.779,74.578,268.623,73.153,270.141,71.601"/>
	<path style="fill:#FFFFFF;" d="M112.737,257.255c3.201,4.9,5.08,10.721,5.08,16.978c0,5.948-1.659,11.632-4.763,16.549
		l34.901-2.789c0.733-3.694,1.103-7.355,1.103-10.914c0-15.435-6.199-29.456-16.252-39.792L112.737,257.255z"/>
	<path style="fill:#FFFFFF;" d="M86.135,242.861c2.039,0,4.029,0.208,5.963,0.576l19.972-19.871
		c-6.559-2.542-13.688-3.955-21.148-3.955c-4.165,0-8.45,0.491-12.765,1.463l-5.607,24.822
		C76.771,243.914,81.415,242.861,86.135,242.861"/>
	<path style="fill:#FFFFFF;" d="M210.057,143.393c0.196,1.283,0.289,2.471,0.289,3.637c0,1.762-0.23,3.439-0.663,5.013
		l43.113-42.894c2.073-2.075,1.873-5.664-0.455-7.996c-1.194-1.192-2.8-1.879-4.405-1.879c-1.386,0-2.659,0.511-3.585,1.437
		l-35.502,35.323L210.057,143.393z"/>
	<path style="fill:#FFFFFF;" d="M198.788,162.884c-1.329,0.346-2.712,0.548-4.122,0.548l-0.394-0.009
		c-1.287,0.039-2.669-0.143-4.187-0.448l-6.817-1.489l-98.283,97.783c3.094,0.667,5.771,2.055,7.856,4.14
		c0.835,0.835,1.518,1.781,2.118,2.777L198.788,162.884z"/>
	<path style="fill:#FFFFFF;" d="M84.46,302.61c-0.938,0.936-1.903,1.817-2.887,2.665c2.532,3.114,6.839,6.957,13.708,8.996
		c2.756,0.819,5.734,1.221,9.107,1.225c11.962-0.081,23.797-4.868,29.786-7.713c0.148-0.071,0.273-0.127,0.376-0.172
		c0.738-0.372,1.287-1.01,1.546-1.796c0.258-0.786,0.198-1.627-0.174-2.364c-0.75-1.494-2.663-2.146-4.157-1.38
		c-0.026,0.012-0.05,0.024-0.076,0.036c-0.307,0.147-1.077,0.521-2.342,1.071c-2.271,1.014-14.228,6.11-24.784,6.11
		c-2.901,0-5.37-0.325-7.508-0.965c-4.609-1.389-8.208-3.814-11.013-7.404C85.523,301.486,85.014,302.058,84.46,302.61"/>
	<path style="fill:#FFFFFF;" d="M89.915,266.335c-2.219-2.219-5.429-3.393-9.285-3.393c-3.182,0-6.656,0.837-10.152,2.3l9.778,5.603
		c0.746,0.257,1.407,0.667,1.936,1.2c3.076,3.078,5.789,13.094-5.488,24.369c-7.02,7.02-13.502,8.069-16.741,8.069
		c-3.162,0-6.016-0.966-7.636-2.583c-0.049-0.05-0.093-0.097-0.133-0.143c-0.237-0.222-0.441-0.483-0.599-0.776l-5.423-10.035
		c-0.295,0.888-0.552,1.772-0.756,2.653c-1.416,6.131-0.434,11.27,2.769,14.47c2.22,2.221,5.431,3.395,9.287,3.395
		c7.573,0,16.793-4.514,24.062-11.78C93.037,288.176,96.797,273.215,89.915,266.335"/>
	<path style="fill:#FFFFFF;" d="M56.843,297.635c0.184,0.111,1.229,0.641,3.12,0.641c2.279,0,6.913-0.813,12.352-6.25
		c8.073-8.071,6.509-14.048,5.636-15.398c-0.164-0.06-0.323-0.133-0.475-0.22l-23.27-13.338c-3.213-1.95-6.442-1.754-8.8,0.602
		l-1.014,1.014c-2.263,2.265-2.447,5.264-0.544,8.911L56.843,297.635z"/>
	<path style="fill:#FFFFFF;" d="M191.243,156.877c1.174,0.234,2.195,0.343,3.185,0.343l0.238,0.004c2.785,0,5.497-1.17,7.075-3.051
		c1.598-1.867,2.398-4.263,2.398-7.143c0-0.849-0.068-1.715-0.202-2.576l-5.543-33.765c-0.551-3.431-2.505-5.87-4.045-7.315
		c-1.934-1.807-4.251-3.144-6.886-3.969l-0.439-0.117l-15.175-3.308c-0.944-0.171-1.881-0.26-2.776-0.26h-0.004
		c-2.936,0-5.517,1.012-7.22,2.776c-2.415,2.469-2.748,5.763-2.734,7.509c0,0.786,0.055,1.554,0.166,2.378l0.028,0.212l5.589,33.941
		c0.641,2.76,2.007,5.26,3.928,7.135c1.849,1.817,4.302,3.148,7.103,3.857l0.159,0.037L191.243,156.877z M173.688,144.765
		c-1.006-1.008-1.619-2.13-2.029-3.674l-0.064-0.295l-5.291-32.207c-0.113-0.683-0.466-2.79,0.869-4.369
		c0.76-0.897,1.871-1.392,3.13-1.392c0.326,0,0.683,0.033,1.075,0.107l14.353,3.163c1.445,0.493,2.904,1.358,3.9,2.313
		c1.117,1.069,1.774,2.217,1.954,3.411l5.146,31.355c0.14,0.941,0.025,3.063-1.372,4.682c-0.982,1.139-2.39,1.768-3.962,1.768
		c-0.335,0-0.695-0.029-1.083-0.093l-12.668-2.696C175.88,146.365,174.674,145.719,173.688,144.765"/>
</g>
</svg>
