<?xml version="1.0" encoding="iso-8859-1"?>
<!-- Generator: Adobe Illustrator 25.4.1, SVG Export Plug-In . SVG Version: 6.00 Build 0)  -->
<svg version="1.1" id="Calque_1" xmlns="http://www.w3.org/2000/svg" xmlns:xlink="http://www.w3.org/1999/xlink" x="0px" y="0px"
	 viewBox="0 0 368.5 368.5" style="enable-background:new 0 0 368.5 368.5;" xml:space="preserve">
<g>
	<path style="fill:#FFFFFF;" d="M64.332,275.801h6.07c-0.189-5.01-0.911-13.373-3.392-22.56
		c-5.886-9.485-12.991-16.432-24.181-23.687c1.042,1.577,2.23,3.305,3.309,4.874c3.586,5.215,7.651,11.128,10.047,16.09
		C60.091,258.605,62.722,268.391,64.332,275.801"/>
	<path style="fill:none;stroke:#FFFFFF;stroke-width:1.698;stroke-miterlimit:10;" d="M64.332,275.801h6.07
		c-0.189-5.01-0.911-13.373-3.392-22.56c-5.886-9.485-12.991-16.432-24.181-23.687c1.042,1.577,2.23,3.305,3.309,4.874
		c3.586,5.215,7.651,11.128,10.047,16.09C60.091,258.605,62.722,268.391,64.332,275.801z"/>
	<path style="fill:#FFFFFF;" d="M75.499,275.801h1.282h14.883c0.174-7.204-0.861-18.894-7.242-31.463
		c-10.417-12.499-23.948-24.456-33.312-32.169c-3.899-3.21-6.662-5.234-8.59-6.507c2.167,3.084,6.125,7.968,12.849,15.081
		C72.321,238.677,75.105,264.968,75.499,275.801"/>
	<path style="fill:none;stroke:#FFFFFF;stroke-width:1.698;stroke-miterlimit:10;" d="M75.499,275.801h1.282h14.883
		c0.174-7.204-0.861-18.894-7.242-31.463c-10.417-12.499-23.948-24.456-33.312-32.169c-3.899-3.21-6.662-5.234-8.59-6.507
		c2.167,3.084,6.125,7.968,12.849,15.081C72.321,238.677,75.105,264.968,75.499,275.801z"/>
	<path style="fill:#FFFFFF;" d="M108.968,208.391c-3.834-6.62-8.303-13.139-13.811-21.151l-1.892-2.754
		c-0.706-1.028-1.314-1.869-1.833-2.554c1.109,5.55,4.577,17.438,13.176,41.834c0.733,2.08,1.395,4.191,2.01,6.313
		c-1.099,6.841-2.349,12.057-3.526,16.279c-1.24-2.39-2.598-4.718-4.09-6.907c-9.566-14.023-19.971-20.71-33.959-27.69
		c6.495,6.42,15.555,15.814,21.633,26.07c8.883,14.99,10.276,29.376,10.089,37.97h3.723h0.299c1.215,2.247,3.021,4.003,5.586,5.094
		c2.811,1.196,6.511,1.612,11.317,1.024c2.099-0.257,4.051-0.609,5.992-1.024c3.531-0.754,7.029-1.719,11.315-2.719
		c10.942-2.554,27.038-5.325,62.079-5.325c8.917,0,16.756,0.214,23.684,0.573c-0.762-15.303-0.925-39.922,4.271-56.552
		c5.612-17.962,17.372-36.26,23.302-36.26c1.111,0,2.123,0.504,2.777,1.386c1.177,1.586,1.116,4.125-0.203,8.489l-0.224,0.74
		c-5.027,16.61-8.998,29.73-6.864,53.582c0.007,0.075,0.015,0.148,0.022,0.221c8.915-15.372,21.522-26.17,30.486-31.186
		c4.968-2.776,7.231-3.713,8.969-3.713c1.382,0,2.509,0.643,3.091,1.768c0.641,1.237,0.666,2.645-0.85,5.572
		c1.177-1.357,2.381-2.723,3.602-4.081c-0.534-8.83-0.912-19.316-1-31.979c-0.379-54.411,5.541-62.681,6.8-75.987
		c1.259-13.3-4.861-20.494-18.855-18.854c-8.914,1.047-14.402,4.264-26.074,6.662c12.643,4.585,19.568,9.491,19.79,9.647
		c1.765,1.257,2.176,3.71,0.914,5.481c-1.255,1.761-3.711,2.176-5.479,0.915h0.002c0,0-0.037-0.031-0.191-0.131
		c-2.32-1.57-24.706-15.972-61.677-15.967c-0.723,0-1.449,0.002-2.172,0.017c-20.335,0.317-34.68,5.394-43.95,10.312
		c-4.628,2.462-7.985,4.888-10.152,6.661c-1.085,0.891-1.874,1.617-2.379,2.105c-0.25,0.24-0.428,0.426-0.537,0.539
		c-0.107,0.114-0.114,0.126-0.114,0.126c-0.779,0.875-1.859,1.323-2.946,1.323c-0.922,0-1.852-0.325-2.602-0.987
		c-1.625-1.441-1.774-3.922-0.334-5.545c0.227-0.287,5.714-6.355,17.218-12.098c-13.845-1.962-28.956-8.489-37.711-9.06
		c-12.46-0.816-20.459,7.982-18.857,18.854c1.605,10.876,10.961,14.777,10.958,75.609c0,6.741-0.13,12.813-0.352,18.358
		C109.312,202.57,109.154,205.567,108.968,208.391 M119.466,198.121c0.533-2.103,2.667-3.376,4.77-2.841
		c2.102,0.529,3.373,2.672,2.839,4.775h0.004c0,0-0.078,0.296-0.217,0.973c-0.423,2.028-1.305,7.023-1.302,13.076
		c-0.008,6.816,1.133,14.906,4.961,21.682c4.076,7.3,11.483,12.439,18.009,15.623c3.25,1.594,6.253,2.709,8.411,3.415
		c1.082,0.352,1.951,0.6,2.539,0.763c0.593,0.156,0.849,0.214,0.849,0.214c2.116,0.481,3.439,2.587,2.961,4.701
		c-0.414,1.826-2.037,3.062-3.827,3.062c-0.292,0-0.584-0.032-0.876-0.098c-0.192-0.05-6.185-1.413-13.516-5.003
		c-5.175-2.551-11.067-6.253-15.966-11.516c-2.015-2.166-3.879-4.571-5.429-7.31c-4.774-8.518-5.965-17.892-5.975-25.533
		c0-0.043,0.002-0.086,0.002-0.129C117.726,204.977,119.413,198.325,119.466,198.121"/>
	<path style="fill:none;stroke:#FFFFFF;stroke-width:1.698;stroke-miterlimit:10;" d="M108.968,208.391
		c-3.834-6.62-8.303-13.139-13.811-21.151l-1.892-2.754c-0.706-1.028-1.314-1.869-1.833-2.554
		c1.109,5.55,4.577,17.438,13.176,41.834c0.733,2.08,1.395,4.191,2.01,6.313c-1.099,6.841-2.349,12.057-3.526,16.279
		c-1.24-2.39-2.598-4.718-4.09-6.907c-9.566-14.023-19.971-20.71-33.959-27.69c6.495,6.42,15.555,15.814,21.633,26.07
		c8.883,14.99,10.276,29.376,10.089,37.97h3.723h0.299c1.215,2.247,3.021,4.003,5.586,5.094c2.811,1.196,6.511,1.612,11.317,1.024
		c2.099-0.257,4.051-0.609,5.992-1.024c3.531-0.754,7.029-1.719,11.315-2.719c10.942-2.554,27.038-5.325,62.079-5.325
		c8.917,0,16.756,0.214,23.684,0.573c-0.762-15.303-0.925-39.922,4.271-56.552c5.612-17.962,17.372-36.26,23.302-36.26
		c1.111,0,2.123,0.504,2.777,1.386c1.177,1.586,1.116,4.125-0.203,8.489l-0.224,0.74c-5.027,16.61-8.998,29.73-6.864,53.582
		c0.007,0.075,0.015,0.148,0.022,0.221c8.915-15.372,21.522-26.17,30.486-31.186c4.968-2.776,7.231-3.713,8.969-3.713
		c1.382,0,2.509,0.643,3.091,1.768c0.641,1.237,0.666,2.645-0.85,5.572c1.177-1.357,2.381-2.723,3.602-4.081
		c-0.534-8.83-0.912-19.316-1-31.979c-0.379-54.411,5.541-62.681,6.8-75.987c1.259-13.3-4.861-20.494-18.855-18.854
		c-8.914,1.047-14.402,4.264-26.074,6.662c12.643,4.585,19.568,9.491,19.79,9.647c1.765,1.257,2.176,3.71,0.914,5.481
		c-1.255,1.761-3.711,2.176-5.479,0.915h0.002c0,0-0.037-0.031-0.191-0.131c-2.32-1.57-24.706-15.972-61.677-15.967
		c-0.723,0-1.449,0.002-2.172,0.017c-20.335,0.317-34.68,5.394-43.95,10.312c-4.628,2.462-7.985,4.888-10.152,6.661
		c-1.085,0.891-1.874,1.617-2.379,2.105c-0.25,0.24-0.428,0.426-0.537,0.539c-0.107,0.114-0.114,0.126-0.114,0.126
		c-0.779,0.875-1.859,1.323-2.946,1.323c-0.922,0-1.852-0.325-2.602-0.987c-1.625-1.441-1.774-3.922-0.334-5.545
		c0.227-0.287,5.714-6.355,17.218-12.098c-13.845-1.962-28.956-8.489-37.711-9.06c-12.46-0.816-20.459,7.982-18.857,18.854
		c1.605,10.876,10.961,14.777,10.958,75.609c0,6.741-0.13,12.813-0.352,18.358C109.312,202.57,109.154,205.567,108.968,208.391z
		 M119.466,198.121c0.533-2.103,2.667-3.376,4.77-2.841c2.102,0.529,3.373,2.672,2.839,4.775h0.004c0,0-0.078,0.296-0.217,0.973
		c-0.423,2.028-1.305,7.023-1.302,13.076c-0.008,6.816,1.133,14.906,4.961,21.682c4.076,7.3,11.483,12.439,18.009,15.623
		c3.25,1.594,6.253,2.709,8.411,3.415c1.082,0.352,1.951,0.6,2.539,0.763c0.593,0.156,0.849,0.214,0.849,0.214
		c2.116,0.481,3.439,2.587,2.961,4.701c-0.414,1.826-2.037,3.062-3.827,3.062c-0.292,0-0.584-0.032-0.876-0.098
		c-0.192-0.05-6.185-1.413-13.516-5.003c-5.175-2.551-11.067-6.253-15.966-11.516c-2.015-2.166-3.879-4.571-5.429-7.31
		c-4.774-8.518-5.965-17.892-5.975-25.533c0-0.043,0.002-0.086,0.002-0.129C117.726,204.977,119.413,198.325,119.466,198.121z"/>
	<path style="fill:#FFFFFF;" d="M304.52,279.037h12.311c-0.204-5.464-0.441-10.658-0.707-15.473
		c-0.761-13.718,4.71-32.036,9.86-44.52c-3.728,4.605-8.433,10.928-13.201,18.215c-4.523,6.912-7.782,16.441-10.033,25.09
		C303.057,268.501,303.804,274.433,304.52,279.037"/>
	<path style="fill:none;stroke:#FFFFFF;stroke-width:1.698;stroke-miterlimit:10;" d="M304.52,279.037h12.311
		c-0.204-5.464-0.441-10.658-0.707-15.473c-0.761-13.718,4.71-32.036,9.86-44.52c-3.728,4.605-8.433,10.928-13.201,18.215
		c-4.523,6.912-7.782,16.441-10.033,25.09C303.057,268.501,303.804,274.433,304.52,279.037z"/>
	<path style="fill:#FFFFFF;" d="M239.745,253.738c-0.396-2.776-0.743-5.605-1-8.474c-2.222-24.838,1.875-38.375,7.062-55.513
		l0.224-0.738c0.198-0.655,0.35-1.22,0.466-1.703c-4.169,4.267-11.954,16.203-16.604,31.081
		c-5.689,18.211-4.636,46.926-3.701,60.646h7.935C235.006,271.408,236.659,262.038,239.745,253.738"/>
	<path style="fill:none;stroke:#FFFFFF;stroke-width:1.698;stroke-miterlimit:10;" d="M239.745,253.738
		c-0.396-2.776-0.743-5.605-1-8.474c-2.222-24.838,1.875-38.375,7.062-55.513l0.224-0.738c0.198-0.655,0.35-1.22,0.466-1.703
		c-4.169,4.267-11.954,16.203-16.604,31.081c-5.689,18.211-4.636,46.926-3.701,60.646h7.935
		C235.006,271.408,236.659,262.038,239.745,253.738z"/>
	<path style="fill:#FFFFFF;" d="M263.996,249.607c2.017-8.912,5.627-17.715,12.787-27.864c1.667-2.363,2.767-4.073,3.492-5.303
		c-0.893,0.447-2.026,1.048-3.462,1.85c-8.552,4.786-20.693,15.242-29.116,30.232c-5.111,9.082-7.425,22.085-8.44,30.515h5.782
		h8.174C254.498,273.738,258.406,261.643,263.996,249.607"/>
	<path style="fill:none;stroke:#FFFFFF;stroke-width:1.698;stroke-miterlimit:10;" d="M263.996,249.607
		c2.017-8.912,5.627-17.715,12.787-27.864c1.667-2.363,2.767-4.073,3.492-5.303c-0.893,0.447-2.026,1.048-3.462,1.85
		c-8.552,4.786-20.693,15.242-29.116,30.232c-5.111,9.082-7.425,22.085-8.44,30.515h5.782h8.174
		C254.498,273.738,258.406,261.643,263.996,249.607z"/>
	<path style="fill:#FFFFFF;" d="M276.64,236.964c-9.276,14.269-16.213,34.624-18.215,42.073h2.56h17.157
		c-0.152-8.355,1.136-21.907,9.211-34.322c0.785-1.207,1.516-2.315,2.217-3.368c3.766-11.225,7.339-18.532,18.873-40.129
		C300.231,208.307,283.905,225.788,276.64,236.964"/>
	<path style="fill:none;stroke:#FFFFFF;stroke-width:1.698;stroke-miterlimit:10;" d="M276.64,236.964
		c-9.276,14.269-16.213,34.624-18.215,42.073h2.56h17.157c-0.152-8.355,1.136-21.907,9.211-34.322
		c0.785-1.207,1.516-2.315,2.217-3.368c3.766-11.225,7.339-18.532,18.873-40.129C300.231,208.307,283.905,225.788,276.64,236.964z"
		/>
	<path style="fill:#FFFFFF;" d="M300.864,234.279c-1.81,2.245-4.687,6.214-9.24,13.216c-7.385,11.351-8.543,23.859-8.391,31.542
		h1.25h14.765h0.117c-1.598-10.569-3.214-27.299,0.06-39.012C300.123,237.536,300.574,235.672,300.864,234.279"/>
	<path style="fill:none;stroke:#FFFFFF;stroke-width:1.698;stroke-miterlimit:10;" d="M300.864,234.279
		c-1.81,2.245-4.687,6.214-9.24,13.216c-7.385,11.351-8.543,23.859-8.391,31.542h1.25h14.765h0.117
		c-1.598-10.569-3.214-27.299,0.06-39.012C300.123,237.536,300.574,235.672,300.864,234.279z"/>
</g>
</svg>
