<?xml version="1.0" encoding="iso-8859-1"?>
<!-- Generator: Adobe Illustrator 25.4.1, SVG Export Plug-In . SVG Version: 6.00 Build 0)  -->
<svg version="1.1" id="Calque_1" xmlns="http://www.w3.org/2000/svg" xmlns:xlink="http://www.w3.org/1999/xlink" x="0px" y="0px"
	 viewBox="0 0 368.5 368.5" style="enable-background:new 0 0 368.5 368.5;" xml:space="preserve">
<g>
	<path style="fill:#FFFFFF;" d="M66.825,180.557c-0.49,70.652-7.885,89.646-8.831,106.026
		c-0.945,16.382,12.701,25.251,24.482,24.483c11.784-0.766,29.491-11.774,102.593-11.774c73.106,0,82.715,9.289,103.083,11.774
		c20.368,2.493,25.585-8.786,24.487-24.483c-1.105-15.696-14.23-27.524-14.232-106.516c-0.002-78.992,12.146-84.056,14.232-98.179
		c2.079-14.116-8.309-25.539-24.487-24.482c-11.367,0.74-30.989,9.217-48.968,11.763c14.939,7.46,22.061,15.339,22.359,15.709
		c1.867,2.108,1.674,5.33-0.437,7.202c-0.974,0.859-2.18,1.282-3.377,1.282c-1.412,0-2.816-0.581-3.826-1.719
		c0,0-0.01-0.013-0.148-0.165c-0.144-0.146-0.373-0.384-0.7-0.697c-0.652-0.634-1.676-1.579-3.084-2.732
		c-2.816-2.303-7.175-5.453-13.186-8.652c-12.035-6.384-30.661-12.979-57.067-13.389c-0.94-0.019-1.881-0.022-2.823-0.022
		c-48.004-0.007-77.073,18.694-80.086,20.733c-0.198,0.131-0.249,0.17-0.249,0.17h0.004c-2.298,1.636-5.484,1.099-7.113-1.19
		c-1.638-2.299-1.106-5.485,1.187-7.116c0.286-0.202,9.281-6.573,25.695-12.525c-15.153-3.116-22.28-7.292-33.857-8.652
		c-18.17-2.128-26.117,7.212-24.482,24.482C59.627,99.164,67.315,109.905,66.825,180.557 M232.785,277.152
		c0,0,0.333-0.077,1.105-0.278c0.76-0.213,1.889-0.537,3.292-0.993c2.806-0.918,6.704-2.363,10.921-4.432
		c8.477-4.136,18.095-10.81,23.389-20.287c4.97-8.798,6.453-19.304,6.439-28.155c0.004-7.858-1.137-14.344-1.686-16.978
		c-0.181-0.879-0.283-1.266-0.283-1.266h0.005c-0.695-2.73,0.956-5.511,3.684-6.198c2.731-0.695,5.504,0.956,6.197,3.688
		c0.065,0.267,2.281,8.984,2.289,20.754c-0.014,9.922-1.559,22.095-7.756,33.153c-6.908,12.206-18.299,19.771-27.784,24.446
		c-9.519,4.661-17.301,6.432-17.552,6.496c-0.377,0.086-0.757,0.128-1.134,0.128c-2.323,0-4.432-1.603-4.97-3.974
		C228.319,280.509,230.039,277.775,232.785,277.152"/>
</g>
</svg>
