<?xml version="1.0" encoding="iso-8859-1"?>
<!-- Generator: Adobe Illustrator 25.4.1, SVG Export Plug-In . SVG Version: 6.00 Build 0)  -->
<svg version="1.1" id="Calque_1" xmlns="http://www.w3.org/2000/svg" xmlns:xlink="http://www.w3.org/1999/xlink" x="0px" y="0px"
	 viewBox="0 0 368.5 368.5" style="enable-background:new 0 0 368.5 368.5;" xml:space="preserve">
<g>
	<path style="fill:#FFFFFF;" d="M202.273,217.118c0-1.03,0.149-2.053,0.448-3.052c0.599-1.953,1.696-3.602,3.107-4.861
		c-2.448-2.046-4.004-5.119-4.007-8.554c-0.005-2.526-2.089-4.604-4.592-4.604c-2.512-0.002-4.598,2.083-4.603,4.591v16.864h9.669
		c-0.004-0.118-0.022-0.234-0.022-0.353v-0.022V217.118z M170.312,200.634c0.009-14.85,12.058-26.898,26.915-26.912
		c14.855,0.014,26.899,12.062,26.908,26.916c0,3.432-1.549,6.501-3.986,8.548c2.227,2.01,3.536,4.895,3.538,7.953
		c0,0.121-0.022,0.242-0.026,0.363h91.134c4.256-0.006,7.689-3.443,7.698-7.682V104.379c-0.009-4.241-3.442-7.676-7.698-7.685
		H104.762v120.808h65.55V200.634z M54.111,217.502l43.649-0.001V96.694H54.111c-4.256,0.009-7.689,3.444-7.698,7.685V209.82
		C46.422,214.059,49.855,217.496,54.111,217.502 M214.69,212.751c-0.047-0.017-0.093-0.038-0.138-0.058l-0.129-0.039
		c-0.021-0.003-0.04-0.01-0.06-0.016c-0.014-0.004-0.027-0.007-0.04-0.011c-0.001,0-0.002-0.001-0.004-0.001
		c-0.012-0.004-0.025-0.008-0.037-0.011c-0.402-0.119-0.815-0.174-1.214-0.177c-2.091,0.021-3.984,1.324-4.603,3.367
		c-0.127,0.421-0.191,0.862-0.191,1.313v0.009v0.022c-0.002,0.759,0.197,1.543,0.575,2.231c0.596,1.105,1.619,1.926,2.811,2.265
		c0.459,0.13,0.898,0.19,1.309,0.193c2.101-0.007,3.942-1.394,4.524-3.371c0.133-0.47,0.192-0.92,0.192-1.328
		C217.688,215.236,216.515,213.459,214.69,212.751 M313.038,251.93H189.627c-0.791,0-1.561-0.32-2.121-0.879
		c-0.558-0.557-0.879-1.329-0.879-2.121v-48.3c0.022-5.837,4.75-10.573,10.602-10.584c5.848,0.011,10.575,4.753,10.591,10.597
		c0.002,2.846,2.307,5.154,5.158,5.152c2.852-0.004,5.151-2.306,5.158-5.156c-0.002-11.534-9.376-20.913-20.909-20.917
		c-11.535,0.004-20.916,9.386-20.916,20.916v48.292c0,0.789-0.318,1.564-0.878,2.121c-0.558,0.559-1.331,0.879-2.121,0.879H55.467
		c-5.488-0.002-9.937,4.453-9.939,9.937c0.002,5.487,4.451,9.942,9.939,9.94h257.571c5.488,0.002,9.933-4.451,9.934-9.936
		C322.971,256.381,318.526,251.928,313.038,251.93 M214.41,230.504l-0.17-0.045c-0.358-0.103-0.777-0.164-1.175-0.164h-0.013h-0.02
		c-2.085,0.035-3.95,1.33-4.562,3.346c-0.128,0.439-0.198,0.908-0.196,1.335v0.046c0.002,0.762,0.196,1.523,0.571,2.218
		c0.588,1.094,1.623,1.92,2.806,2.268c0.457,0.129,0.874,0.187,1.314,0.187h0.008c2.106-0.009,3.931-1.378,4.524-3.381
		c0.125-0.438,0.184-0.882,0.184-1.318C217.679,233.01,216.409,231.16,214.41,230.504"/>
</g>
</svg>
