<?xml version="1.0" encoding="iso-8859-1"?>
<!-- Generator: Adobe Illustrator 25.4.1, SVG Export Plug-In . SVG Version: 6.00 Build 0)  -->
<svg version="1.1" id="Calque_1" xmlns="http://www.w3.org/2000/svg" xmlns:xlink="http://www.w3.org/1999/xlink" x="0px" y="0px"
	 viewBox="0 0 368.5 368.5" style="enable-background:new 0 0 368.5 368.5;" xml:space="preserve">
<g>
	<path style="fill:#FFFFFF;" d="M132.032,265.422c-2.21-0.826-4.53-1.277-6.776-1.277h-0.004c-4.83,0-9.53,2.203-12.456,5.751
		c-3.064,3.642-4.669,8.543-4.661,14.193v11.446c0,3.327,2.704,6.031,6.029,6.031c3.329,0,6.036-2.704,6.036-6.031l-0.004-11.441
		c0.008-3.794,1.157-5.666,1.841-6.445l0.197-0.207c0.934-0.902,1.642-1.112,2.655-1.213l0.399-0.022
		c0.982,0.011,2.045,0.273,3.16,0.779l0.403,0.22l3.181,2.066V265.422z"/>
	<path style="fill:#FFFFFF;" d="M132.032,201.763c-2.208-0.825-4.528-1.276-6.776-1.276h-0.002c-4.839,0-9.534,2.203-12.458,5.749
		c-3.064,3.642-4.669,8.543-4.661,14.196v11.444c0,3.326,2.704,6.031,6.029,6.031c3.329,0,6.036-2.705,6.036-6.031l-0.004-11.439
		c0.008-3.792,1.155-5.665,1.837-6.446l0.205-0.211c1.022-0.99,1.814-1.131,2.677-1.213l0.373-0.018
		c0.99,0.01,2.055,0.273,3.17,0.784l0.393,0.216l3.181,2.068V201.763z"/>
	<path style="fill:#FFFFFF;" d="M142.651,200.657l174.353,84.296c1.057,0.512,1.73,1.584,1.73,2.759v18.53l8.17-3.799v-18.937
		l-177.561-85.847L142.651,200.657z"/>
	<polygon style="fill:#FFFFFF;" points="176.386,259.925 174.844,259.329 144.542,299.46 147.448,298.252 	"/>
	<path style="fill:#FFFFFF;" d="M312.607,306.054v-16.421L138.16,205.291v92.454l33.188-43.954c0.593-0.785,1.506-1.219,2.446-1.219
		c0.371,0,0.746,0.067,1.105,0.207L312.607,306.054z"/>
	<path style="fill:#FFFFFF;" d="M62.653,325.984c0.647,0,1.285-0.034,1.915-0.096v-39.561c0-2.82,2.286-5.106,5.106-5.106
		c2.821,0,5.106,2.286,5.106,5.106v35.227c4.123-3.465,6.754-8.654,6.754-14.451V65.709c0-10.41-8.469-18.881-18.881-18.881
		S43.77,55.299,43.77,65.709v241.394C43.77,317.515,52.241,325.984,62.653,325.984 M64.568,77.996c0-2.82,2.286-5.106,5.106-5.106
		c2.821,0,5.106,2.286,5.106,5.106v42.136c0,2.821-2.285,5.107-5.106,5.107c-2.82,0-5.106-2.286-5.106-5.107V77.996z
		 M64.568,147.441c0-2.821,2.286-5.107,5.106-5.107c2.821,0,5.106,2.286,5.106,5.107v42.136c0,2.82-2.285,5.106-5.106,5.106
		c-2.82,0-5.106-2.286-5.106-5.106V147.441z M64.568,216.885c0-2.82,2.286-5.106,5.106-5.106c2.821,0,5.106,2.286,5.106,5.106
		v42.134c0,2.82-2.285,5.106-5.106,5.106c-2.82,0-5.106-2.286-5.106-5.106V216.885z"/>
	<path style="fill:#FFFFFF;" d="M294.31,181.883c-0.299-0.044-0.594-0.116-0.872-0.248l-181.043-86.28v17.786l181.915,87.062
		V181.883z"/>
	<path style="fill:#FFFFFF;" d="M116.279,90.416l178.658,85.146c0.418-0.554,1.015-0.972,1.729-1.142l27.398-6.503V42.519
		L116.279,90.416z"/>
	<polygon style="fill:#FFFFFF;" points="324.064,174.215 300.438,179.823 300.438,201.393 324.064,195.785 	"/>
</g>
</svg>
