<?xml version="1.0" encoding="iso-8859-1"?>
<!-- Generator: Adobe Illustrator 25.4.1, SVG Export Plug-In . SVG Version: 6.00 Build 0)  -->
<svg version="1.1" id="Calque_1" xmlns="http://www.w3.org/2000/svg" xmlns:xlink="http://www.w3.org/1999/xlink" x="0px" y="0px"
	 viewBox="0 0 368.5 368.5" style="enable-background:new 0 0 368.5 368.5;" xml:space="preserve">
<g>
	<path style="fill:#FFFFFF;" d="M127.345,49.627l-3.662-3.662h-78.16v14.484c0.609,0.175,1.191,0.313,1.738,0.409
		c4.137,0.725,7.612-0.112,7.647-0.12c0.701-0.172,1.443,0.044,1.937,0.569c0.496,0.526,0.672,1.277,0.457,1.966
		c-0.011,0.036-1.22,4.053-0.371,7.821c0.926,4.108,3.604,8.332,3.631,8.374c0.051,0.079,0.088,0.163,0.125,0.247
		c0.139-0.044,0.225-0.076,0.229-0.076c0.759-0.294,1.623-0.104,2.183,0.486c0.559,0.591,0.709,1.46,0.373,2.201
		c-0.197,0.445-0.502,1.407-0.461,2.065c0.051,0.831,0.44,1.741,0.586,2.021c0.506,0.977,0.131,2.185-0.844,2.697
		c-0.296,0.156-0.617,0.23-0.931,0.23c-0.713,0-1.404-0.384-1.762-1.059c-0.096-0.178-0.928-1.793-1.041-3.642
		c-0.014-0.205-0.014-0.411-0.006-0.614c-0.084,0.001-0.168,0.001-0.252,0.002c-1.933-0.019-3.72-0.885-3.918-0.984
		c-0.988-0.494-1.388-1.695-0.894-2.683c0.367-0.734,1.125-1.143,1.894-1.102c-0.965-1.843-2.195-4.535-2.814-7.284
		c-0.567-2.516-0.438-5.036-0.176-6.903c-1.658,0.135-3.867,0.152-6.281-0.271c-0.34-0.06-0.692-0.133-1.049-0.217v23.515
		c0.756-0.007,1.568-0.043,2.385-0.137c3.408-0.394,6.461-1.245,6.492-1.254c0.711-0.201,1.475,0.009,1.986,0.543
		c0.512,0.535,0.686,1.307,0.455,2.01c-0.013,0.04-1.345,4.103-1.539,7.151c-0.201,3.138,0.28,5.647,0.284,5.672
		c0.21,1.083-0.495,2.134-1.579,2.346c-0.129,0.025-0.259,0.038-0.386,0.038c-0.936,0-1.772-0.659-1.959-1.611
		c-0.026-0.121-0.586-3.016-0.352-6.699c0.102-1.589,0.443-3.342,0.797-4.815c-1.098,0.217-2.387,0.436-3.74,0.592
		c-0.981,0.114-1.951,0.159-2.844,0.166v35.875l94.129,94.129l80.685-79.483l-20.238-20.24c0.633,2.054,1.424,3.539,1.436,3.562
		c0.525,0.972,0.164,2.185-0.809,2.711c-0.303,0.163-0.629,0.24-0.949,0.24c-0.711,0-1.399-0.38-1.762-1.049
		c-0.094-0.176-2.32-4.341-2.652-8.927c-0.149-2.028,0.197-4.123,0.633-5.834c-1.479,0.296-3.278,0.525-5.166,0.486
		c-4.772-0.1-9.401-2.429-9.596-2.528c-0.984-0.501-1.377-1.705-0.875-2.69c0.498-0.984,1.701-1.377,2.687-0.876
		c0.041,0.021,1.499,0.743,3.483,1.335l-31.217-31.216c-0.162,0.163-0.348,0.306-0.568,0.408c-0.276,0.129-0.565,0.19-0.848,0.19
		c-0.75,0-1.467-0.423-1.807-1.145c-0.058-0.121-1.406-3.017-1.347-6.323c0.017-0.957,0.185-1.935,0.418-2.843
		c-0.721,0.152-1.494,0.273-2.285,0.328c-1.385,0.097-2.729-0.07-3.856-0.307c-0.168,0.341-0.432,0.639-0.785,0.845
		c-0.316,0.186-0.666,0.276-1.01,0.276c-0.683,0-1.351-0.353-1.724-0.987c-0.088-0.15-2.159-3.706-2.702-7.516
		c-0.232-1.62-0.095-3.265,0.145-4.636c-1.18,0.143-2.582,0.213-4.07,0.077c-3.957-0.363-7.907-2.55-8.073-2.643
		c-0.964-0.538-1.31-1.757-0.771-2.721C126.32,50.079,126.808,49.747,127.345,49.627 M101.386,62.184
		c0.557-0.953,1.78-1.276,2.733-0.721c0.051,0.03,3.355,1.929,6.355,2.308c2.979,0.378,5.543-0.359,5.569-0.366
		c0.718-0.212,1.503,0,2.017,0.546c0.516,0.545,0.686,1.334,0.434,2.042c-0.008,0.025-1.032,2.993-0.559,5.663
		c0.436,2.453,1.832,5.124,2.334,5.945c0.576,0.943,0.277,2.173-0.664,2.749c-0.326,0.199-0.685,0.293-1.041,0.293
		c-0.674,0-1.332-0.34-1.709-0.958c-0.09-0.147-2.203-3.641-2.857-7.33c-0.286-1.603-0.202-3.22-0.008-4.557
		c-1.154,0.103-2.539,0.128-4.018-0.058c-3.828-0.485-7.703-2.726-7.867-2.821C101.152,64.363,100.83,63.138,101.386,62.184
		 M78.363,67.078c0.555-0.954,1.779-1.274,2.732-0.72c0.047,0.026,3.356,1.928,6.358,2.307c2.976,0.378,5.543-0.358,5.568-0.365
		c0.719-0.21,1.5,0,2.016,0.547c0.515,0.545,0.685,1.333,0.433,2.041c-0.008,0.025-1.031,2.993-0.558,5.662
		c0.052,0.289,0.119,0.58,0.193,0.872c0.02,0.077,0.045,0.157,0.066,0.236c0.061,0.223,0.125,0.445,0.198,0.665
		c0.025,0.08,0.052,0.161,0.08,0.241c0.074,0.215,0.148,0.426,0.228,0.635c0.037,0.101,0.078,0.203,0.119,0.306
		c0.541,1.358,1.153,2.502,1.45,2.989c0.576,0.943,0.277,2.174-0.664,2.749c-0.327,0.199-0.686,0.294-1.041,0.294
		c-0.674,0-1.332-0.341-1.709-0.959c-0.053-0.088-0.823-1.363-1.577-3.157c-0.002-0.005-0.005-0.009-0.007-0.014
		c-0.014-0.034-0.026-0.066-0.039-0.1c-0.118-0.281-0.233-0.574-0.344-0.878c-0.033-0.086-0.063-0.172-0.094-0.259
		c-0.098-0.272-0.191-0.55-0.279-0.834c-0.024-0.07-0.043-0.139-0.063-0.209c-0.072-0.241-0.138-0.485-0.203-0.732
		c-0.023-0.097-0.049-0.193-0.07-0.288c-0.012-0.046-0.024-0.09-0.033-0.135l0.005,0.005c-0.056-0.245-0.113-0.49-0.154-0.728
		c-0.285-1.602-0.201-3.219-0.008-4.556c-1.152,0.103-2.539,0.127-4.013-0.059c-3.83-0.484-7.707-2.725-7.871-2.82
		C78.128,69.258,77.806,68.033,78.363,67.078 M73.902,65.738c-0.293,0.56-1.068,2.304-1.113,3.593
		c-0.057,1.574,0.591,3.061,0.597,3.076c0.461,1.003,0.02,2.191-0.984,2.651c-0.27,0.124-0.553,0.182-0.832,0.182
		c-0.758,0-1.483-0.432-1.818-1.165c-0.11-0.235-1.051-2.368-0.961-4.886c0.015-0.445,0.074-0.896,0.158-1.336
		c-0.287,0.045-0.58,0.083-0.875,0.109c-2.627,0.228-4.988-0.732-5.25-0.843c-1.016-0.43-1.492-1.605-1.061-2.622
		c0.43-1.014,1.598-1.489,2.615-1.064c0.049,0.02,1.713,0.685,3.348,0.544c1.795-0.155,3.524-0.966,3.539-0.975
		c0.779-0.373,1.709-0.205,2.307,0.415C74.171,64.039,74.304,64.974,73.902,65.738 M83.65,103.075c-0.031,0-0.061-0.001-0.09-0.002
		c-3.246-0.142-5.66-0.976-5.762-1.011c-1.043-0.365-1.591-1.506-1.226-2.549c0.363-1.041,1.504-1.591,2.543-1.228
		c0.023,0.008,1.996,0.677,4.619,0.791c1.103,0.048,1.959,0.982,1.912,2.085C85.599,102.236,84.712,103.075,83.65,103.075
		 M87.632,114.873c0.473-0.999,1.664-1.425,2.661-0.956c0.031,0.014,0.492,0.216,1.162,0.426c-0.405-1.712-0.809-4.35-0.452-7.275
		c0.223-1.835,0.848-3.794,1.538-5.517c-1.026,0.323-2.129-0.221-2.489-1.24c-0.369-1.042,0.178-2.185,1.219-2.553
		c2.555-0.902,4.424-1.913,4.443-1.923c0.789-0.427,1.768-0.278,2.391,0.366c0.625,0.646,0.742,1.629,0.289,2.404
		c-0.029,0.05-2.947,5.06-3.42,8.948c-0.414,3.386,0.473,6.377,0.733,7.154c1.564-0.245,2.808-0.761,2.824-0.768
		c0.767-0.325,1.658-0.143,2.232,0.459c0.574,0.603,0.719,1.498,0.358,2.249c-0.305,0.636-1.09,2.632-1.051,4.161
		c0.049,1.954,0.965,3.818,0.975,3.837c0.49,0.987,0.091,2.187-0.893,2.682c-0.289,0.144-0.596,0.212-0.897,0.212
		c-0.73,0-1.431-0.4-1.783-1.096c-0.054-0.107-1.33-2.661-1.4-5.534c-0.02-0.754,0.068-1.519,0.207-2.239
		c-0.555,0.085-1.141,0.145-1.742,0.161c-2.961,0.09-5.651-1.154-5.95-1.296C87.589,117.064,87.162,115.871,87.632,114.873
		 M106.113,165.487c-0.256,0.108-0.522,0.16-0.781,0.16c-0.78,0-1.52-0.458-1.842-1.219c-0.098-0.229-2.385-5.652-2.656-9.65
		c-0.131-1.923-0.004-4.179,0.152-5.95c-1.379,0.302-3.108,0.56-4.941,0.53c-1.475-0.024-3.083-0.284-4.782-0.775
		c-1.062-0.307-1.674-1.416-1.367-2.477c0.307-1.06,1.418-1.673,2.477-1.366c1.359,0.393,2.615,0.601,3.734,0.618
		c3.414,0.053,6.441-1.13,6.471-1.142c0.664-0.258,1.416-0.146,1.972,0.296c0.559,0.442,0.84,1.148,0.739,1.853
		c-0.006,0.047-0.69,4.817-0.465,8.143c0.187,2.765,1.758,6.969,2.347,8.356C107.603,163.88,107.128,165.055,106.113,165.487
		 M134.929,172.276c-0.324,0.198-0.683,0.294-1.039,0.294c-0.674,0-1.332-0.341-1.709-0.959c-0.062-0.102-1.527-2.523-1.982-5.092
		c-0.158-0.885-0.16-1.766-0.092-2.554c-1.459,0.073-3.217,0.077-4.514-0.196c-3.486-0.734-6.064-2.373-6.172-2.442
		c-0.929-0.598-1.197-1.835-0.601-2.764c0.598-0.929,1.832-1.198,2.76-0.604c0.047,0.029,2.115,1.323,4.838,1.896
		c1.582,0.334,4.814,0.044,5.927-0.094c0.684-0.085,1.373,0.19,1.807,0.732c0.435,0.541,0.559,1.269,0.326,1.923
		c-0.172,0.495-0.574,2.089-0.342,3.404c0.321,1.807,1.448,3.688,1.459,3.707C136.17,170.47,135.873,171.7,134.929,172.276
		 M164.658,172.776c-0.324,0.197-0.684,0.291-1.037,0.291c-0.674,0-1.332-0.341-1.709-0.959c-0.073-0.118-1.787-2.957-2.323-5.963
		c-0.201-1.134-0.183-2.262-0.078-3.247c-0.83,0.048-1.773,0.04-2.765-0.085c-3.125-0.395-6.276-2.215-6.407-2.292
		c-0.955-0.556-1.277-1.78-0.72-2.735c0.554-0.952,1.777-1.276,2.732-0.722c0.026,0.015,2.592,1.489,4.895,1.78
		c2.271,0.286,4.24-0.272,4.259-0.278c0.723-0.208,1.502,0.003,2.016,0.549c0.516,0.545,0.684,1.333,0.434,2.041
		c-0.006,0.016-0.784,2.279-0.428,4.288c0.402,2.254,1.789,4.562,1.803,4.586C165.902,170.973,165.601,172.203,164.658,172.776
		 M158.824,134.054c4.207,0.534,7.752-0.503,7.787-0.513c0.725-0.214,1.504-0.006,2.021,0.539c0.52,0.547,0.688,1.338,0.436,2.048
		c-0.014,0.038-1.455,4.201-0.783,7.988c0.209,1.177,0.586,2.475,1.119,3.857c0.398,1.03-0.115,2.188-1.145,2.586
		c-0.238,0.092-0.48,0.135-0.72,0.135c-0.803,0-1.561-0.486-1.866-1.28c-0.627-1.621-1.074-3.169-1.328-4.6
		c-0.433-2.447-0.205-4.926,0.137-6.808c-1.662,0.205-3.822,0.312-6.16,0.017c-5.024-0.635-10.133-3.588-10.348-3.713
		c-0.953-0.556-1.275-1.779-0.721-2.733c0.555-0.953,1.78-1.277,2.735-0.723C150.033,130.88,154.621,133.523,158.824,134.054
		 M128.996,90.881c0.554-0.953,1.781-1.275,2.734-0.721c0.045,0.027,3.354,1.929,6.357,2.308c2.977,0.378,5.541-0.359,5.567-0.366
		c0.719-0.211,1.502,0,2.017,0.546c0.516,0.547,0.686,1.335,0.434,2.043c-0.01,0.025-1.033,2.993-0.559,5.662
		c0.436,2.453,1.834,5.122,2.334,5.944c0.577,0.943,0.278,2.174-0.664,2.749c-0.326,0.199-0.685,0.294-1.041,0.294
		c-0.673,0-1.332-0.341-1.709-0.959c-0.089-0.147-2.203-3.639-2.857-7.328c-0.285-1.603-0.201-3.221-0.01-4.558
		c-1.154,0.104-2.539,0.128-4.013-0.058c-3.831-0.485-7.708-2.725-7.87-2.82C128.761,93.061,128.439,91.836,128.996,90.881
		 M126.107,100.075c-0.008,0.025-1.031,2.993-0.559,5.662c0.413,2.307,1.663,4.785,2.229,5.757c2.777,0.256,5.098-0.403,5.121-0.409
		c0.725-0.214,1.504-0.007,2.022,0.54c0.519,0.546,0.685,1.338,0.433,2.047c-0.01,0.026-1.033,2.992-0.558,5.661
		c0.435,2.453,1.833,5.122,2.333,5.944c0.016,0.023,0.022,0.048,0.036,0.071c0.291-0.064,0.459-0.112,0.464-0.114
		c0.719-0.21,1.502,0,2.016,0.547c0.516,0.546,0.686,1.334,0.434,2.042c-0.01,0.026-1.071,3.103-0.578,5.874
		c0.541,3.043,2.398,6.127,2.416,6.158c0.574,0.943,0.275,2.173-0.668,2.748c-0.327,0.197-0.684,0.292-1.039,0.292
		c-0.674,0-1.331-0.341-1.707-0.958c-0.094-0.152-2.266-3.743-2.94-7.541c-0.299-1.678-0.203-3.372,0.002-4.761
		c-1.203,0.113-2.658,0.143-4.209-0.053c-3.939-0.498-7.928-2.802-8.096-2.901c-0.955-0.556-1.277-1.781-0.72-2.735
		c0.556-0.953,1.781-1.277,2.734-0.721c0.086,0.05,3.488,1.997,6.584,2.389c0.326,0.041,0.648,0.067,0.963,0.085
		c-0.688-1.393-1.576-3.492-1.963-5.666c-0.285-1.603-0.201-3.22-0.01-4.557c-1.152,0.102-2.537,0.128-4.013-0.059
		c-3.831-0.484-7.706-2.725-7.87-2.82c-0.953-0.557-1.275-1.781-0.718-2.735c0.556-0.954,1.779-1.276,2.732-0.721
		c0.024,0.013,0.68,0.39,1.662,0.839c-0.42-1.079-0.806-2.299-1.029-3.543c-0.285-1.603-0.201-3.221-0.008-4.558
		c-1.154,0.103-2.537,0.128-4.014-0.058c-1.976-0.25-3.962-0.968-5.447-1.617c0.246,0.815,0.529,1.395,0.535,1.405
		c0.494,0.984,0.104,2.187-0.879,2.686c-0.291,0.147-0.601,0.217-0.906,0.217c-0.726,0-1.426-0.395-1.779-1.086
		c-0.125-0.244-1.223-2.459-1.313-5.012c-0.019-0.599,0.032-1.204,0.125-1.781c-0.423,0.053-0.865,0.088-1.318,0.096
		c-2.654,0.06-5.119-1.091-5.391-1.222c-0.996-0.477-1.416-1.672-0.939-2.668c0.476-0.994,1.67-1.416,2.664-0.941
		c0.035,0.016,1.793,0.832,3.502,0.832c0.031,0,0.062,0,0.094-0.001c1.832-0.031,3.535-0.731,3.55-0.739
		c0.766-0.324,1.651-0.14,2.225,0.459c0.574,0.599,0.719,1.491,0.361,2.241c-0.103,0.22-0.271,0.634-0.433,1.13
		c1.043,0.544,3.535,1.739,5.849,2.032c2.973,0.372,5.538-0.357,5.563-0.364c0.725-0.215,1.504-0.006,2.021,0.54
		C126.193,98.574,126.361,99.365,126.107,100.075"/>
	<path style="fill:#FFFFFF;" d="M265.939,264.711c-0.012,0.013-0.115,0.12-0.129,0.133c-1.558,1.559-3.633,2.418-5.842,2.418
		c-0.101,0-0.201-0.01-0.301-0.014c-1.685,4.473-0.738,9.719,2.858,13.311l38.363,38.308c2.367,2.365,5.514,3.667,8.858,3.667
		c3.353,0,6.506-1.308,8.875-3.682l0.697-0.697c4.883-4.89,4.879-12.846-0.014-17.731l-38.361-38.307
		c-2.371-2.366-5.52-3.67-8.867-3.67c-1.33,0-2.625,0.214-3.856,0.611C268.209,261.175,267.41,263.175,265.939,264.711"/>
	<path style="fill:#FFFFFF;" d="M158.082,243.189c-1.74-3.832-1.686-7.441,0.488-9.62c1.139-1.14,2.717-1.742,4.565-1.742
		c3.572,0,7.922,2.212,11.634,5.919c5.815,5.807,7.622,12.769,4.204,16.195c-1.137,1.139-2.715,1.742-4.565,1.742
		c-1.4,0-2.922-0.351-4.476-0.989c-0.108,0.113-0.211,0.223-0.307,0.33c4.084,2.824,7.607,4.161,9.693,4.161
		c0.617,0,1.102-0.118,1.364-0.332c0.023-0.02,0.046-0.039,0.072-0.057c0-0.001,0.002-0.001,0.002-0.002l79.592-79.701
		c0.066-0.077,0.138-0.149,0.214-0.218c0.377-0.412,0.481-1.52,0.083-3.167c-1.518-0.088-2.975-1.108-3.932-2.787
		c-1.088-1.913-1.276-4.236-0.625-6.009c-1.078-1.465-2.299-2.938-3.645-4.381c1.344,2.236,1.416,4.682-0.029,6.127
		c-0.705,0.704-1.662,1.076-2.772,1.076c-1.695,0-3.605-0.899-5.109-2.403c-1.142-1.143-1.943-2.521-2.258-3.879
		c-0.365-1.588-0.025-3.046,0.932-4.003c0.703-0.704,1.662-1.076,2.771-1.076c1.034,0,2.147,0.337,3.2,0.939
		c-1.776-1.611-3.51-2.969-5.151-4.079c-0.582,0.18-1.215,0.291-1.898,0.291c-1.319-0.001-2.676-0.361-3.824-1.015
		c-1.356-0.77-2.305-1.897-2.653-3.116c-0.351-0.055-0.687-0.091-0.986-0.091c-0.463,0-1.076,0.065-1.404,0.368
		c-0.053,0.056-0.114,0.116-0.166,0.165l-4.498,4.505c0.701-0.293,1.5-0.462,2.375-0.462c1.316,0,2.675,0.36,3.824,1.014
		c1.568,0.892,2.58,2.223,2.773,3.653c0.153,1.12-0.213,2.186-1.029,2.999c-0.902,0.904-2.266,1.402-3.836,1.402
		c-1.318,0-2.676-0.36-3.824-1.015c-1.569-0.891-2.58-2.223-2.774-3.652c-0.074-0.553-0.019-1.092,0.149-1.595l-6.908,6.918
		c0.697-0.287,1.488-0.451,2.353-0.451c1.316,0,2.674,0.359,3.824,1.011c1.571,0.895,2.58,2.227,2.774,3.656
		c0.15,1.12-0.217,2.185-1.032,2.999c-0.9,0.903-2.263,1.402-3.833,1.402c-1.319,0-2.676-0.361-3.827-1.015
		c-1.57-0.893-2.58-2.225-2.773-3.653c-0.072-0.547-0.02-1.079,0.144-1.577l-7.027,7.038c0.691-0.28,1.473-0.439,2.326-0.439
		c1.319,0,2.676,0.36,3.826,1.015c1.571,0.893,2.581,2.225,2.772,3.654c0.15,1.12-0.215,2.184-1.029,2.998
		c-0.903,0.903-2.266,1.401-3.836,1.401c-1.317,0-2.674-0.36-3.823-1.012c-1.57-0.893-2.582-2.224-2.773-3.654
		c-0.074-0.541-0.02-1.069,0.141-1.563l-6.911,6.919c0.686-0.273,1.459-0.426,2.303-0.426c1.317,0,2.676,0.36,3.824,1.014
		c1.569,0.892,2.58,2.223,2.774,3.653c0.15,1.12-0.215,2.185-1.029,3c-0.905,0.903-2.268,1.401-3.836,1.401h-0.002
		c-1.317,0-2.674-0.359-3.825-1.014c-1.568-0.892-2.58-2.223-2.773-3.653c-0.07-0.535-0.018-1.056,0.139-1.545l-7.104,7.113
		c0.678-0.266,1.443-0.414,2.276-0.414c1.318,0,2.675,0.36,3.826,1.014c1.568,0.892,2.58,2.224,2.771,3.653
		c0.153,1.12-0.213,2.186-1.027,2.999c-0.904,0.904-2.268,1.402-3.838,1.402c-1.318,0-2.676-0.36-3.824-1.013
		c-1.571-0.895-2.58-2.227-2.774-3.656c-0.07-0.529-0.017-1.042,0.135-1.526l-6.941,6.952c0.67-0.259,1.429-0.402,2.25-0.402
		c1.318,0,2.675,0.36,3.824,1.012c1.572,0.896,2.582,2.229,2.773,3.658c0.151,1.119-0.216,2.183-1.031,2.996
		c-0.902,0.903-2.264,1.402-3.836,1.402c-1.316,0-2.674-0.36-3.824-1.014c-1.568-0.893-2.58-2.224-2.772-3.653
		c-0.07-0.524-0.017-1.032,0.129-1.511l-6.976,6.987c0.664-0.251,1.414-0.388,2.222-0.388c1.317,0,2.676,0.36,3.825,1.013
		c1.572,0.895,2.582,2.227,2.773,3.656c0.15,1.12-0.215,2.184-1.029,2.998c-0.905,0.903-2.266,1.402-3.836,1.402
		c-1.317,0-2.676-0.36-3.824-1.014c-1.571-0.893-2.58-2.225-2.774-3.653c-0.07-0.517-0.017-1.02,0.127-1.494l-7.014,7.024
		c0.657-0.246,1.401-0.377,2.198-0.377c1.318,0,2.676,0.36,3.826,1.014c1.568,0.892,2.58,2.225,2.771,3.655
		c0.151,1.12-0.214,2.185-1.031,2.998c-0.9,0.903-2.264,1.402-3.834,1.402c-1.316,0-2.674-0.36-3.824-1.013
		c-1.57-0.893-2.58-2.224-2.774-3.653c-0.068-0.512-0.017-1.008,0.124-1.479l-6.682,6.691c-0.01,0.01-0.02,0.019-0.029,0.029
		c-0.016,0.02-0.032,0.041-0.047,0.06c-0.989,1.213,0.017,5.863,4.386,11.84C157.9,243.376,157.992,243.283,158.082,243.189
		 M187.896,250.137c-0.695,0.694-1.564,1.061-2.513,1.061c-1.594,0-3.143-1.05-4.141-2.808c-1.48-2.597-1.309-5.963,0.391-7.66
		c0.691-0.694,1.56-1.061,2.509-1.061c1.594,0,3.141,1.049,4.139,2.806C189.762,245.073,189.592,248.439,187.896,250.137
		 M197.447,240.582c-0.691,0.693-1.56,1.061-2.51,1.061h-0.002c-1.591-0.001-3.14-1.049-4.14-2.805
		c-1.477-2.602-1.305-5.967,0.39-7.662c0.694-0.694,1.563-1.061,2.512-1.061c1.594,0,3.141,1.048,4.141,2.805
		C199.316,235.521,199.144,238.887,197.447,240.582 M206.941,231.091c-0.695,0.695-1.564,1.062-2.513,1.062
		c-1.594,0-3.141-1.048-4.141-2.805c-1.48-2.599-1.309-5.965,0.389-7.663c0.693-0.693,1.562-1.061,2.511-1.061
		c1.594,0,3.141,1.049,4.141,2.806C208.807,226.028,208.637,229.392,206.941,231.091 M216.363,221.668
		c-0.695,0.696-1.564,1.063-2.513,1.063c-1.592-0.001-3.141-1.05-4.141-2.805c-1.479-2.604-1.307-5.969,0.391-7.663
		c0.693-0.693,1.562-1.061,2.511-1.061c1.594,0,3.141,1.049,4.139,2.805C218.228,216.608,218.059,219.973,216.363,221.668
		 M225.916,212.115c-0.693,0.693-1.563,1.061-2.512,1.061c-1.594,0-3.142-1.05-4.14-2.808c-1.479-2.597-1.307-5.962,0.388-7.659
		c0.694-0.694,1.563-1.061,2.512-1.061c1.594,0,3.141,1.048,4.141,2.803C227.783,207.055,227.611,210.419,225.916,212.115
		 M235.248,202.784c-0.693,0.693-1.563,1.061-2.512,1.061c-1.594-0.001-3.142-1.05-4.14-2.808c-1.479-2.598-1.309-5.964,0.388-7.66
		c0.694-0.694,1.563-1.061,2.512-1.061c1.594,0,3.141,1.048,4.141,2.803C237.115,197.723,236.943,201.088,235.248,202.784
		 M247.68,174.681c0.695-0.693,1.562-1.061,2.511-1.061c1.594,0,3.141,1.049,4.141,2.805c1.48,2.601,1.309,5.966-0.389,7.662
		c-0.693,0.694-1.562,1.061-2.511,1.061c-1.594,0-3.141-1.049-4.139-2.804C245.812,179.743,245.982,176.378,247.68,174.681
		 M245.06,185.698c1.479,2.6,1.309,5.965-0.388,7.661c-0.696,0.695-1.563,1.062-2.512,1.062h-0.002
		c-1.592,0-3.141-1.049-4.139-2.806c-1.48-2.603-1.308-5.968,0.391-7.661c0.691-0.693,1.561-1.061,2.51-1.061
		C242.514,182.893,244.06,183.942,245.06,185.698 M233.783,168.872c0.703-0.704,1.662-1.077,2.772-1.077
		c1.693,0,3.603,0.898,5.109,2.403c1.143,1.142,1.945,2.52,2.258,3.879c0.365,1.587,0.027,3.046-0.93,4.003
		c-0.705,0.704-1.664,1.077-2.773,1.077c-1.694,0-3.604-0.898-5.11-2.402C232.529,174.171,231.945,170.709,233.783,168.872
		 M224.512,178.143c0.703-0.703,1.662-1.075,2.771-1.075c1.693,0,3.606,0.898,5.109,2.403c2.583,2.582,3.165,6.044,1.327,7.881
		c-0.703,0.704-1.662,1.077-2.772,1.077c-1.695,0-3.605-0.899-5.109-2.403c-1.145-1.143-1.946-2.521-2.258-3.879
		C223.213,180.56,223.553,179.1,224.512,178.143 M215.088,187.567c0.703-0.704,1.662-1.076,2.771-1.076
		c1.696,0,3.606,0.898,5.11,2.401c2.582,2.584,3.166,6.047,1.328,7.884c-0.705,0.704-1.662,1.075-2.772,1.075
		c-1.697,0-3.607-0.898-5.111-2.403C213.832,192.867,213.25,189.406,215.088,187.567 M205.535,197.122
		c0.701-0.703,1.66-1.076,2.77-1.076c1.693,0,3.603,0.897,5.109,2.401c1.145,1.145,1.945,2.523,2.258,3.88
		c0.365,1.588,0.025,3.048-0.934,4.005c-0.701,0.703-1.66,1.075-2.767,1.075c-1.696,0-3.606-0.898-5.112-2.402
		c-1.142-1.145-1.943-2.523-2.258-3.881C204.236,199.537,204.576,198.078,205.535,197.122 M194.791,207.865
		c0.703-0.704,1.662-1.076,2.771-1.076c1.696,0,3.606,0.898,5.11,2.401c2.582,2.583,3.164,6.046,1.328,7.883
		c-0.705,0.705-1.664,1.076-2.774,1.076c-1.693,0-3.603-0.898-5.109-2.402c-1.142-1.143-1.945-2.521-2.258-3.88
		C193.494,210.28,193.834,208.822,194.791,207.865 M185.301,217.354c0.705-0.704,1.662-1.076,2.771-1.076
		c1.695,0,3.606,0.898,5.111,2.402c2.581,2.583,3.163,6.045,1.327,7.883c-0.705,0.704-1.664,1.076-2.774,1.076
		c-1.693,0-3.603-0.897-5.109-2.401C184.047,222.654,183.465,219.192,185.301,217.354 M175.746,226.909
		c0.705-0.705,1.662-1.077,2.773-1.077c1.694,0,3.604,0.899,5.108,2.404c1.144,1.142,1.945,2.52,2.258,3.879
		c0.365,1.587,0.025,3.046-0.932,4.003c-0.703,0.704-1.66,1.076-2.77,1.076c-1.695,0-3.605-0.899-5.111-2.403
		C174.49,232.209,173.908,228.747,175.746,226.909"/>
	<path style="fill:#FFFFFF;" d="M170.633,243.088c1.789,2.048,2.391,4.736,1.846,7.213c0.736,0.247,1.398,0.382,1.929,0.382
		c0.282,0,0.787-0.035,1.024-0.274c0.871-0.872-0.063-4.997-4.195-9.125c-3.084-3.079-6.291-4.458-8.102-4.458
		c-0.279,0-0.787,0.036-1.027,0.275c-0.442,0.442-0.413,1.727,0.259,3.423c0.662-0.169,1.348-0.262,2.043-0.262
		C166.796,240.262,169.064,241.292,170.633,243.088"/>
	<path style="fill:#FFFFFF;" d="M163.648,254.989c0.588-1.306,1.598-2.683,3.002-4.093c1.279-1.24,1.361-3.21,0.217-4.518
		c-1.135-1.302-3.293-1.451-4.596-0.31c-0.082,0.069-0.123,0.11-0.154,0.139c-0.012,0.012-0.024,0.023-0.033,0.034
		c-0.008,0.007-0.014,0.015-0.022,0.021c-1.98,1.984-3.4,3.948-4.34,6.005c-1.431,3.031-1.652,6.671-0.605,9.764
		c0.984,2.986,2.842,5.773,5.851,8.789c0.026,0.026,0.051,0.052,0.075,0.078l0.166,0.166c2.089,2.086,5.587,5.607,10.087,10.239
		l0.229,0.236c0.018,0.016,0.033,0.033,0.051,0.051l0.068,0.073c2.063,2.067,4.068,3.357,6.262,4.009
		c1.806,0.542,3.881,0.661,6.133,0.359c3.099-0.423,6.613-1.495,12.115-3.7c4.996-2.021,11.142-4.8,19.433-8.627
		c17.565-8.128,26.29-12.001,31.565-13.469c2.432-0.699,4.379-0.934,5.619-0.656c1.096,0.273,1.703,0.643,2.904,1.742
		c1.317,1.258,3.373,1.198,4.582,0.006c0.022-0.024,0.043-0.046,0.053-0.056c0.617-0.644,0.938-1.471,0.918-2.341
		c-0.019-0.871-0.377-1.681-1.006-2.281c-1.351-1.322-3.519-2.98-6.281-3.486c-1.869-0.353-3.799-0.282-6.211,0.217
		c-3.693,0.77-7.871,2.37-13.006,4.536c-5.48,2.32-12.219,5.413-21.873,9.867c-16.213,7.518-23.535,10.521-27.976,11.474
		c-2.209,0.493-3.784,0.554-5.104,0.165c-1.156-0.349-2.15-1.023-3.555-2.411c-0.089-0.091-4.998-5.17-10.451-10.614l-0.131-0.132
		c-0.019-0.018-0.039-0.038-0.056-0.058v0.001c-3.678-3.657-4.528-6.333-4.594-7.934
		C162.921,257.156,163.119,256.161,163.648,254.989"/>
	<path style="fill:#FFFFFF;" d="M183.359,208.33c0.703,0.4,1.535,0.621,2.34,0.621c0.748,0,1.388-0.195,1.715-0.524
		c0.152-0.152,0.203-0.288,0.179-0.475c-0.048-0.358-0.414-0.953-1.283-1.448c-0.703-0.4-1.535-0.621-2.342-0.621
		c-0.746,0-1.386,0.196-1.714,0.523c-0.151,0.151-0.204,0.292-0.178,0.478C182.125,207.241,182.488,207.835,183.359,208.33"/>
	<path style="fill:#FFFFFF;" d="M184.142,242.669c-0.096,0-0.229,0.02-0.389,0.182c-0.668,0.666-0.767,2.541,0.096,4.055
		c0.506,0.893,1.135,1.291,1.533,1.291c0.098,0,0.231-0.021,0.393-0.183c0.664-0.663,0.762-2.54-0.102-4.056
		C185.167,243.067,184.54,242.669,184.142,242.669"/>
	<path style="fill:#FFFFFF;" d="M208.982,202.884c0.926,0.925,2.098,1.523,2.988,1.523c0.205,0,0.485-0.034,0.647-0.196
		c0.209-0.209,0.258-0.66,0.131-1.21c-0.186-0.805-0.715-1.692-1.455-2.432c-0.926-0.925-2.1-1.523-2.989-1.523
		c-0.205,0-0.486,0.035-0.648,0.197c-0.209,0.208-0.256,0.659-0.131,1.208C207.711,201.257,208.242,202.144,208.982,202.884"/>
	<path style="fill:#FFFFFF;" d="M198.238,213.626c0.926,0.925,2.1,1.523,2.988,1.523c0.207,0,0.489-0.034,0.653-0.197
		c0.459-0.46,0.164-2.147-1.328-3.64c-0.926-0.925-2.098-1.523-2.989-1.523c-0.207,0-0.486,0.034-0.65,0.197
		c-0.207,0.208-0.256,0.659-0.129,1.208C196.968,212,197.5,212.886,198.238,213.626"/>
	<path style="fill:#FFFFFF;" d="M227.959,183.905c0.926,0.926,2.098,1.524,2.988,1.524c0.207,0,0.487-0.034,0.651-0.197
		c0.461-0.461,0.166-2.147-1.326-3.64c-0.926-0.925-2.1-1.523-2.989-1.523c-0.207,0-0.488,0.034-0.65,0.197
		c-0.209,0.207-0.256,0.659-0.131,1.208C226.688,182.279,227.219,183.165,227.959,183.905"/>
	<path style="fill:#FFFFFF;" d="M221.525,194.852c0.207,0,0.486-0.034,0.65-0.197c0.459-0.46,0.165-2.147-1.328-3.64
		c-0.925-0.925-2.099-1.524-2.988-1.524c-0.207,0-0.486,0.034-0.648,0.196c-0.461,0.462-0.168,2.148,1.324,3.64
		C219.461,194.254,220.634,194.852,221.525,194.852"/>
	<path style="fill:#FFFFFF;" d="M191.736,224.64c0.207,0,0.488-0.035,0.652-0.199c0.459-0.459,0.164-2.146-1.328-3.64
		c-0.924-0.924-2.098-1.522-2.988-1.522c-0.207,0-0.486,0.034-0.65,0.197c-0.46,0.46-0.166,2.147,1.326,3.64
		C189.673,224.041,190.847,224.64,191.736,224.64"/>
	<path style="fill:#FFFFFF;" d="M182.183,234.194c0.205,0,0.484-0.034,0.646-0.196c0.209-0.209,0.258-0.66,0.131-1.21
		c-0.185-0.805-0.715-1.692-1.455-2.43c-0.926-0.927-2.097-1.525-2.986-1.525c-0.207,0-0.488,0.034-0.652,0.198
		c-0.461,0.46-0.166,2.146,1.326,3.639C180.12,233.595,181.294,234.194,182.183,234.194"/>
	<path style="fill:#FFFFFF;" d="M193.697,233.115c-0.096,0-0.229,0.021-0.389,0.183c-0.666,0.665-0.767,2.541,0.096,4.057
		c0.506,0.89,1.135,1.288,1.533,1.288c0.096,0,0.227-0.02,0.389-0.181c0.666-0.666,0.766-2.542-0.096-4.058
		C194.722,233.513,194.095,233.115,193.697,233.115"/>
	<path style="fill:#FFFFFF;" d="M203.187,223.624c-0.096,0-0.229,0.021-0.389,0.182c-0.668,0.666-0.767,2.543,0.096,4.057
		c0.506,0.891,1.135,1.289,1.533,1.289c0.098,0,0.229-0.02,0.391-0.182c0.664-0.666,0.764-2.542-0.098-4.057
		C204.212,224.023,203.585,223.624,203.187,223.624"/>
	<path style="fill:#FFFFFF;" d="M212.611,214.203c-0.096,0-0.229,0.02-0.391,0.183c-0.666,0.664-0.765,2.54,0.096,4.057
		c0.508,0.889,1.135,1.287,1.533,1.288c0.098,0,0.231-0.021,0.393-0.183c0.664-0.665,0.762-2.541-0.1-4.058
		C213.636,214.6,213.009,214.203,212.611,214.203"/>
	<path style="fill:#FFFFFF;" d="M245.978,161.373c-0.205,0-0.486,0.034-0.65,0.198c-0.207,0.207-0.256,0.658-0.129,1.207
		c0.185,0.806,0.717,1.692,1.455,2.432c0.926,0.926,2.099,1.524,2.988,1.524c0.207,0,0.486-0.034,0.65-0.197
		c0.459-0.46,0.166-2.147-1.326-3.64C248.041,161.971,246.869,161.373,245.978,161.373"/>
	<path style="fill:#FFFFFF;" d="M240.531,186.076c-0.668,0.665-0.768,2.538,0.096,4.056c0.506,0.891,1.134,1.289,1.531,1.289h0.002
		c0.096,0,0.228-0.021,0.389-0.183c0.666-0.665,0.765-2.54-0.096-4.057c-0.508-0.889-1.135-1.288-1.533-1.288
		C240.824,185.893,240.691,185.914,240.531,186.076"/>
	<path style="fill:#FFFFFF;" d="M251.431,182.148c0.098,0,0.229-0.021,0.391-0.183c0.666-0.665,0.765-2.541-0.098-4.056
		c-0.506-0.89-1.135-1.289-1.533-1.289c-0.096,0-0.229,0.021-0.391,0.183c-0.664,0.665-0.764,2.541,0.1,4.057
		C250.406,181.75,251.033,182.148,251.431,182.148"/>
	<path style="fill:#FFFFFF;" d="M202.337,189.352c0.703,0.4,1.535,0.621,2.34,0.621c0.748,0,1.389-0.195,1.717-0.523
		c0.148-0.149,0.201-0.292,0.176-0.477c-0.047-0.358-0.413-0.952-1.282-1.447c-0.705-0.401-1.537-0.621-2.342-0.621
		c-0.748,0-1.388,0.196-1.716,0.523c-0.149,0.149-0.202,0.292-0.176,0.478C201.101,188.264,201.466,188.857,202.337,189.352"/>
	<path style="fill:#FFFFFF;" d="M192.783,198.908c0.703,0.4,1.533,0.62,2.34,0.62c0.746,0,1.389-0.196,1.717-0.523
		c0.148-0.149,0.201-0.291,0.175-0.476c-0.048-0.359-0.414-0.952-1.283-1.447c-0.705-0.401-1.535-0.622-2.342-0.622
		c-0.746,0-1.386,0.196-1.714,0.523c-0.149,0.15-0.202,0.292-0.178,0.477C191.547,197.818,191.912,198.412,192.783,198.908"/>
	<path style="fill:#FFFFFF;" d="M164.314,227.375c0.705,0.4,1.537,0.622,2.342,0.622c0.746,0,1.387-0.197,1.713-0.525
		c0.152-0.152,0.205-0.29,0.179-0.477c-0.048-0.358-0.414-0.952-1.283-1.447c-0.705-0.4-1.535-0.621-2.342-0.621
		c-0.746,0-1.386,0.196-1.714,0.523c-0.149,0.15-0.202,0.293-0.178,0.479C163.08,226.287,163.445,226.88,164.314,227.375"/>
	<path style="fill:#FFFFFF;" d="M173.871,217.82c0.703,0.4,1.535,0.621,2.34,0.621c0.746,0,1.387-0.196,1.715-0.524
		c0.152-0.151,0.203-0.288,0.177-0.476c-0.048-0.358-0.414-0.952-1.283-1.449c-0.705-0.399-1.537-0.619-2.342-0.619
		c-0.746,0-1.388,0.195-1.714,0.522c-0.151,0.15-0.204,0.293-0.178,0.478C172.635,216.731,173,217.325,173.871,217.82"/>
	<path style="fill:#FFFFFF;" d="M211.67,180.021c0.703,0.399,1.535,0.62,2.34,0.62c0.748,0,1.389-0.195,1.715-0.523
		c0.152-0.151,0.203-0.289,0.177-0.476c-0.048-0.358-0.412-0.952-1.283-1.446c-0.703-0.402-1.535-0.623-2.342-0.623
		c-0.746,0-1.386,0.196-1.714,0.523c-0.149,0.15-0.202,0.292-0.176,0.478C210.436,178.932,210.799,179.526,211.67,180.021"/>
	<path style="fill:#FFFFFF;" d="M222.164,204.648c-0.096,0-0.229,0.021-0.389,0.183c-0.666,0.665-0.765,2.54,0.098,4.054
		c0.506,0.893,1.133,1.291,1.531,1.291c0.098,0,0.229-0.021,0.389-0.182c0.666-0.665,0.766-2.542-0.096-4.06
		C223.191,205.046,222.562,204.648,222.164,204.648"/>
	<path style="fill:#FFFFFF;" d="M221.091,170.597c0.703,0.401,1.535,0.622,2.342,0.622c0.746,0,1.385-0.196,1.713-0.523
		c0.15-0.151,0.203-0.294,0.177-0.479c-0.046-0.358-0.412-0.952-1.281-1.446c-0.705-0.4-1.537-0.62-2.342-0.62
		c-0.746,0-1.388,0.195-1.716,0.524c-0.149,0.148-0.202,0.291-0.176,0.475C219.855,169.508,220.22,170.102,221.091,170.597"/>
	<path style="fill:#FFFFFF;" d="M231.496,195.316c-0.096,0-0.229,0.02-0.389,0.182c-0.666,0.666-0.765,2.541,0.096,4.056
		c0.506,0.892,1.135,1.291,1.533,1.291c0.096,0,0.229-0.021,0.391-0.182c0.664-0.665,0.764-2.542-0.1-4.06
		C232.523,195.714,231.894,195.316,231.496,195.316"/>
	<path style="fill:#FFFFFF;" d="M230.365,161.324c0.703,0.401,1.535,0.622,2.34,0.622c0.746,0,1.389-0.196,1.717-0.523
		c0.148-0.149,0.201-0.291,0.175-0.476c-0.048-0.358-0.414-0.952-1.285-1.447c-0.705-0.401-1.535-0.622-2.34-0.622
		c-0.746,0-1.386,0.195-1.714,0.523c-0.149,0.15-0.202,0.292-0.176,0.477C229.129,160.236,229.494,160.83,230.365,161.324"/>
	<path style="fill:#FFFFFF;" d="M240.218,176.157c0.207,0,0.488-0.034,0.652-0.198c0.207-0.207,0.254-0.658,0.127-1.208
		c-0.185-0.806-0.715-1.692-1.455-2.431c-0.926-0.926-2.099-1.524-2.988-1.524c-0.207,0-0.488,0.034-0.65,0.197
		c-0.461,0.46-0.166,2.147,1.328,3.641C238.155,175.559,239.329,176.157,240.218,176.157"/>
	<path style="fill:#FFFFFF;" d="M260.668,172.7c-0.514-1.177-1.176-2.425-1.969-3.705c-0.015,0.763,0.172,1.652,0.621,2.443
		C259.754,172.198,260.277,172.599,260.668,172.7"/>
	<path style="fill:#FFFFFF;" d="M239.035,151.344c0.191,0.188,0.439,0.379,0.752,0.557c0.494,0.281,1.049,0.473,1.613,0.564
		C240.586,152.03,239.793,151.654,239.035,151.344"/>
</g>
</svg>
