<?xml version="1.0" encoding="iso-8859-1"?>
<!-- Generator: Adobe Illustrator 25.4.1, SVG Export Plug-In . SVG Version: 6.00 Build 0)  -->
<svg version="1.1" id="Calque_1" xmlns="http://www.w3.org/2000/svg" xmlns:xlink="http://www.w3.org/1999/xlink" x="0px" y="0px"
	 viewBox="0 0 368.5 368.5" style="enable-background:new 0 0 368.5 368.5;" xml:space="preserve">
<polygon style="fill:#FFFFFF;" points="178.256,260.299 178.256,281.278 321.939,221.802 321.939,200.823 "/>
<polygon style="fill:#FFFFFF;" points="173.256,260.425 46.561,170.151 46.561,190.402 173.256,280.676 "/>
<g>
	<path style="fill:#FFFFFF;" d="M99.144,146.294h3.386c1.381,0,2.5,1.119,2.5,2.5c0,1.381-1.119,2.5-2.5,2.5h-3.41
		c-1.38,0-2.5-1.119-2.5-2.5c0-0.72,0.309-1.363,0.795-1.819l-11.877,4.677c0.457,0.453,0.74,1.08,0.74,1.774
		c0,1.38-1.119,2.5-2.5,2.5H80.37c-0.97,0-1.802-0.559-2.216-1.366l-23.646,9.313c0.586,0.458,0.969,1.161,0.969,1.962
		c0,1.381-1.119,2.5-2.5,2.5H52.63l9.573,6.821c0.441-0.39,1.013-0.635,1.649-0.635h3.408c1.381,0,2.5,1.119,2.5,2.5
		c0,1.082-0.69,1.994-1.651,2.343l8.355,5.953c0.357-0.944,1.262-1.619,2.332-1.619h3.409c1.381,0,2.5,1.119,2.5,2.5
		s-1.119,2.5-2.5,2.5h-0.997l94.104,67.052c0.144-0.026,0.292-0.045,0.444-0.045c0.145,0,0.284,0.019,0.423,0.042l143.057-59.217
		l-25.885-17.852c-0.037,0.104-0.067,0.21-0.105,0.314c-1.019,2.908-2.335,5.779-3.903,8.516c-0.407,0.693-0.8,1.321-1.209,1.969
		c-8.524,13.312-22.505,21.247-37.41,21.247c-0.225,0-0.447-0.002-0.672-0.006c-15.168-0.26-29.125-8.666-37.343-22.485
		c-0.396-0.691-0.755-1.334-1.114-1.993c-1.205-2.255-2.146-4.373-2.896-6.503c-2.227-6.055-3.311-12.497-3.207-19.099
		c0.18-10.681,4.244-22.414,11.15-32.195c0.406-0.575,0.832-1.174,1.273-1.789l-25.043-17.272L99.144,146.294z M65.996,172.465
		h-3.408c-1.381,0-2.5-1.119-2.5-2.5c0-1.38,1.119-2.5,2.5-2.5h3.408c1.381,0,2.5,1.12,2.5,2.5
		C68.496,171.346,67.377,172.465,65.996,172.465 M69.93,165.386c-1.381,0-2.5-1.119-2.5-2.5c0-1.38,1.119-2.5,2.5-2.5h3.408
		c1.381,0,2.5,1.12,2.5,2.5c0,1.381-1.119,2.5-2.5,2.5H69.93z M80.416,178.495h-3.408c-1.381,0-2.5-1.119-2.5-2.5s1.119-2.5,2.5-2.5
		h3.408c1.381,0,2.5,1.119,2.5,2.5S81.797,178.495,80.416,178.495 M87.332,170.157h-3.409c-1.381,0-2.5-1.118-2.5-2.5
		c0-1.38,1.119-2.5,2.5-2.5h3.409c1.381,0,2.5,1.12,2.5,2.5C89.832,169.039,88.713,170.157,87.332,170.157 M88.905,160.981
		c-1.381,0-2.5-1.119-2.5-2.5c0-1.381,1.119-2.5,2.5-2.5h3.409c1.381,0,2.5,1.119,2.5,2.5c0,1.381-1.119,2.5-2.5,2.5H88.905z
		 M98.869,186.412h-3.41c-1.381,0-2.5-1.119-2.5-2.5c0-1.38,1.119-2.5,2.5-2.5h3.41c1.38,0,2.5,1.12,2.5,2.5
		C101.369,185.293,100.249,186.412,98.869,186.412 M100.557,176.114h-3.408c-1.381,0-2.5-1.119-2.5-2.5s1.119-2.5,2.5-2.5h3.408
		c1.381,0,2.5,1.119,2.5,2.5S101.938,176.114,100.557,176.114 M108.428,170.28c0-1.381,1.119-2.5,2.5-2.5h3.408
		c1.381,0,2.5,1.119,2.5,2.5c0,1.38-1.119,2.5-2.5,2.5h-3.408C109.547,172.78,108.428,171.66,108.428,170.28 M115.911,197.686h-3.41
		c-1.381,0-2.5-1.119-2.5-2.5c0-1.38,1.119-2.5,2.5-2.5h3.41c1.38,0,2.5,1.12,2.5,2.5
		C118.411,196.567,117.291,197.686,115.911,197.686 M118.006,158.621h-3.408c-1.381,0-2.5-1.119-2.5-2.5s1.119-2.5,2.5-2.5h3.408
		c1.381,0,2.5,1.119,2.5,2.5S119.387,158.621,118.006,158.621 M124.678,147.011c-1.381,0-2.5-1.119-2.5-2.5s1.119-2.5,2.5-2.5h3.408
		c1.381,0,2.5,1.119,2.5,2.5s-1.119,2.5-2.5,2.5H124.678z M134,184.578h-3.408c-1.381,0-2.5-1.12-2.5-2.5c0-1.382,1.119-2.5,2.5-2.5
		H134c1.381,0,2.5,1.118,2.5,2.5C136.5,183.458,135.381,184.578,134,184.578 M137.524,138.621c-1.381,0-2.5-1.119-2.5-2.5
		s1.119-2.5,2.5-2.5h3.409c1.381,0,2.5,1.119,2.5,2.5s-1.119,2.5-2.5,2.5H137.524z M141.463,155.335c0-1.38,1.119-2.5,2.5-2.5h3.408
		c1.381,0,2.5,1.12,2.5,2.5c0,1.381-1.119,2.5-2.5,2.5h-3.408C142.582,157.835,141.463,156.716,141.463,155.335 M152.08,209.235
		h-3.408c-1.381,0-2.5-1.119-2.5-2.5c0-1.38,1.119-2.5,2.5-2.5h3.408c1.381,0,2.5,1.12,2.5,2.5
		C154.58,208.116,153.461,209.235,152.08,209.235 M168.346,186.675h-3.409c-1.381,0-2.5-1.119-2.5-2.5c0-1.381,1.119-2.5,2.5-2.5
		h3.409c1.381,0,2.5,1.119,2.5,2.5C170.846,185.556,169.727,186.675,168.346,186.675 M184.338,207.386h-3.408
		c-1.381,0-2.5-1.119-2.5-2.5c0-1.38,1.119-2.5,2.5-2.5h3.408c1.381,0,2.5,1.12,2.5,2.5
		C186.838,206.267,185.719,207.386,184.338,207.386 M188.387,148.322h-3.408c-1.381,0-2.5-1.119-2.5-2.5c0-1.381,1.119-2.5,2.5-2.5
		h3.408c1.381,0,2.5,1.119,2.5,2.5C190.887,147.203,189.768,148.322,188.387,148.322"/>
	<path style="fill:#FFFFFF;" d="M228.055,124.585c-2.086,2.868-4.056,5.575-5.694,7.896c-6.115,8.661-9.712,18.965-9.869,28.271
		c-0.091,5.735,0.849,11.327,2.794,16.616c0.646,1.837,1.449,3.636,2.468,5.547c0.32,0.584,0.655,1.186,1,1.788
		c6.941,11.672,18.694,18.798,31.412,19.016l0.558,0.005c12.508,0,24.284-6.729,31.503-18.002c0.355-0.564,0.711-1.129,1.06-1.725
		c1.339-2.337,2.475-4.815,3.359-7.336c1.661-4.667,2.537-9.571,2.61-14.592c0.16-9.319-3.083-19.746-8.898-28.616
		c-1.534-2.33-3.35-5.01-5.314-7.909c-7.84-11.568-18.289-26.983-22.91-38.322C247.217,98.253,236.688,112.723,228.055,124.585
		 M278.519,176.523c-1.027,3.917-3.496,7.977-6.952,11.434c-4.676,4.675-10.355,7.466-15.189,7.466
		c-2.585,0-4.774-0.822-6.331-2.379c-2.303-2.304-2.965-5.886-1.864-10.086c1.028-3.917,3.497-7.977,6.953-11.434
		c4.676-4.676,10.354-7.468,15.189-7.468c2.585,0,4.773,0.823,6.33,2.38C278.958,168.74,279.621,172.322,278.519,176.523"/>
	<path style="fill:#FFFFFF;" d="M270.325,167.056c-3.996,0-9.003,2.525-13.067,6.589c-3.086,3.086-5.278,6.663-6.172,10.074
		c-0.82,3.126-0.436,5.685,1.083,7.204c0.996,0.995,2.412,1.5,4.21,1.5c3.996,0,9.003-2.525,13.067-6.589
		c3.085-3.086,5.277-6.662,6.172-10.073c0.819-3.127,0.435-5.685-1.084-7.205C273.538,167.561,272.122,167.056,270.325,167.056"/>
</g>
</svg>
