<?xml version="1.0" encoding="iso-8859-1"?>
<!-- Generator: Adobe Illustrator 25.4.1, SVG Export Plug-In . SVG Version: 6.00 Build 0)  -->
<svg version="1.1" id="Calque_1" xmlns="http://www.w3.org/2000/svg" xmlns:xlink="http://www.w3.org/1999/xlink" x="0px" y="0px"
	 viewBox="0 0 368.5 368.5" style="enable-background:new 0 0 368.5 368.5;" xml:space="preserve">
<g>
	<path style="fill:#FFFFFF;" d="M192.872,98.302l-93.728,36.912h3.385c1.381,0,2.5,1.12,2.5,2.5c0,1.381-1.119,2.5-2.5,2.5H99.12
		c-1.381,0-2.5-1.119-2.5-2.5c0-0.718,0.308-1.362,0.794-1.819l-11.875,4.677c0.456,0.454,0.739,1.08,0.739,1.774
		c0,1.381-1.119,2.5-2.5,2.5h-3.409c-0.97,0-1.801-0.558-2.216-1.365l-23.644,9.312c0.585,0.458,0.969,1.162,0.969,1.962
		c0,1.381-1.12,2.5-2.5,2.5h-0.347l9.572,6.821c0.441-0.39,1.013-0.634,1.649-0.634h3.409c1.381,0,2.5,1.119,2.5,2.5
		c0,1.081-0.691,1.994-1.653,2.342l8.355,5.953c0.357-0.944,1.263-1.619,2.333-1.619h3.409c1.381,0,2.5,1.119,2.5,2.5
		c0,1.381-1.119,2.5-2.5,2.5h-0.997l94.102,67.052c0.145-0.026,0.293-0.045,0.446-0.045c0.144,0,0.284,0.019,0.422,0.043
		l143.057-59.217L192.872,98.302z M65.997,161.386h-3.409c-1.381,0-2.5-1.119-2.5-2.5s1.119-2.5,2.5-2.5h3.409
		c1.381,0,2.5,1.119,2.5,2.5S67.378,161.386,65.997,161.386 M69.929,154.307c-1.381,0-2.5-1.12-2.5-2.5c0-1.381,1.119-2.5,2.5-2.5
		h3.409c1.381,0,2.5,1.119,2.5,2.5c0,1.38-1.119,2.5-2.5,2.5H69.929z M80.417,167.416h-3.409c-1.381,0-2.5-1.12-2.5-2.5
		c0-1.381,1.119-2.5,2.5-2.5h3.409c1.381,0,2.5,1.119,2.5,2.5C82.917,166.296,81.798,167.416,80.417,167.416 M87.332,159.078h-3.409
		c-1.381,0-2.5-1.119-2.5-2.5s1.119-2.5,2.5-2.5h3.409c1.381,0,2.5,1.119,2.5,2.5S88.713,159.078,87.332,159.078 M88.905,149.901
		c-1.381,0-2.5-1.119-2.5-2.5s1.119-2.5,2.5-2.5h3.409c1.381,0,2.5,1.119,2.5,2.5s-1.119,2.5-2.5,2.5H88.905z M98.869,175.332h-3.41
		c-1.38,0-2.5-1.119-2.5-2.5c0-1.38,1.12-2.5,2.5-2.5h3.41c1.381,0,2.5,1.12,2.5,2.5C101.369,174.213,100.25,175.332,98.869,175.332
		 M100.557,165.034h-3.409c-1.381,0-2.5-1.119-2.5-2.5c0-1.381,1.119-2.5,2.5-2.5h3.409c1.381,0,2.5,1.119,2.5,2.5
		C103.057,163.915,101.938,165.034,100.557,165.034 M108.428,159.2c0-1.381,1.119-2.5,2.5-2.5h3.409c1.381,0,2.5,1.119,2.5,2.5
		s-1.119,2.5-2.5,2.5h-3.409C109.547,161.7,108.428,160.581,108.428,159.2 M115.91,186.606h-3.409c-1.381,0-2.5-1.119-2.5-2.5
		c0-1.379,1.119-2.5,2.5-2.5h3.409c1.381,0,2.5,1.121,2.5,2.5C118.41,185.487,117.291,186.606,115.91,186.606 M118.007,147.542
		h-3.409c-1.381,0-2.5-1.12-2.5-2.5c0-1.381,1.119-2.5,2.5-2.5h3.409c1.381,0,2.5,1.119,2.5,2.5
		C120.507,146.422,119.388,147.542,118.007,147.542 M124.677,135.931c-1.381,0-2.5-1.119-2.5-2.5s1.119-2.5,2.5-2.5h3.409
		c1.381,0,2.5,1.119,2.5,2.5s-1.119,2.5-2.5,2.5H124.677z M134,173.498h-3.409c-1.381,0-2.5-1.12-2.5-2.5c0-1.381,1.119-2.5,2.5-2.5
		H134c1.381,0,2.5,1.119,2.5,2.5C136.5,172.378,135.381,173.498,134,173.498 M137.524,127.542c-1.381,0-2.5-1.12-2.5-2.5
		c0-1.381,1.119-2.5,2.5-2.5h3.409c1.381,0,2.5,1.119,2.5,2.5c0,1.38-1.119,2.5-2.5,2.5H137.524z M141.462,144.255
		c0-1.38,1.12-2.5,2.5-2.5h3.41c1.38,0,2.5,1.12,2.5,2.5c0,1.381-1.12,2.5-2.5,2.5h-3.41
		C142.582,146.755,141.462,145.636,141.462,144.255 M152.08,198.155h-3.409c-1.38,0-2.5-1.119-2.5-2.5c0-1.379,1.12-2.5,2.5-2.5
		h3.409c1.381,0,2.5,1.121,2.5,2.5C154.58,197.036,153.461,198.155,152.08,198.155 M168.346,175.595h-3.41
		c-1.38,0-2.5-1.118-2.5-2.5c0-1.381,1.12-2.5,2.5-2.5h3.41c1.38,0,2.5,1.119,2.5,2.5
		C170.846,174.477,169.726,175.595,168.346,175.595 M184.338,196.307h-3.409c-1.381,0-2.5-1.12-2.5-2.5c0-1.381,1.119-2.5,2.5-2.5
		h3.409c1.381,0,2.5,1.119,2.5,2.5C186.838,195.187,185.719,196.307,184.338,196.307 M188.387,137.242h-3.409
		c-1.381,0-2.5-1.119-2.5-2.5c0-1.381,1.119-2.5,2.5-2.5h3.409c1.381,0,2.5,1.119,2.5,2.5
		C190.887,136.123,189.768,137.242,188.387,137.242 M223.665,171.4h-3.409c-1.381,0-2.5-1.119-2.5-2.5c0-1.381,1.119-2.5,2.5-2.5
		h3.409c1.381,0,2.5,1.119,2.5,2.5C226.165,170.281,225.046,171.4,223.665,171.4"/>
	<polygon style="fill:#FFFFFF;" points="178.256,249.219 178.256,270.198 321.939,210.722 321.939,189.743 	"/>
	<polygon style="fill:#FFFFFF;" points="173.256,249.345 46.562,159.07 46.562,179.322 173.256,269.596 	"/>
</g>
</svg>
