<?xml version="1.0" encoding="iso-8859-1"?>
<!-- Generator: Adobe Illustrator 25.4.1, SVG Export Plug-In . SVG Version: 6.00 Build 0)  -->
<svg version="1.1" id="Calque_1" xmlns="http://www.w3.org/2000/svg" xmlns:xlink="http://www.w3.org/1999/xlink" x="0px" y="0px"
	 viewBox="0 0 368.5 368.5" style="enable-background:new 0 0 368.5 368.5;" xml:space="preserve">
<g>
	<path style="fill:#FFFFFF;" d="M192.245,141.037c0.545,1.07,0.846,2.211,0.846,3.433v7.657c0.44,0.003,0.881,0.008,1.322,0.018
		c2.406,0.04,4.825,0.197,7.191,0.469v-0.248c-0.461-0.993-0.712-2.05-0.712-3.17c0-3.112,1.908-5.735,5.03-7.845
		c-1.709,0.118-3.428,0.181-5.136,0.181C197.935,141.532,195.054,141.364,192.245,141.037"/>
	<path style="fill:#FFFFFF;" d="M238.414,164.54c0.535-0.397,1.11-0.776,1.725-1.14c0.275-0.178,0.558-0.353,0.852-0.523
		c-1.176,0.128-2.361,0.231-3.552,0.303C237.755,163.611,238.08,164.066,238.414,164.54"/>
	<path style="fill:#FFFFFF;" d="M233.025,163.315h-0.04c-2.85,0-5.733-0.168-8.54-0.495c0.544,1.068,0.845,2.212,0.845,3.431
		l-0.025,8.606c0.206,0,0.412-0.005,0.617-0.005c0.574,0,1.15,0.008,1.725,0.022c0.965,0.017,1.932,0.052,2.897,0.107
		c-0.249-0.83-0.402-1.314-0.411-1.341c-0.147-0.464,0.06-0.967,0.491-1.191c0.433-0.225,0.963-0.106,1.258,0.282
		c0.078,0.101,0.721,0.958,1.685,2.48c0.41,0.04,0.817,0.084,1.223,0.131v-0.247c-0.461-0.993-0.712-2.05-0.712-3.17
		c0-1.136,0.255-2.208,0.73-3.214C234.141,166.653,233.541,164.824,233.025,163.315"/>
	<path style="fill:#FFFFFF;" d="M152.591,169.634c0.035,0,0.071-0.001,0.106-0.001c2.806,0,5.642,0.163,8.408,0.481v-1.31
		c-0.299-0.814-0.461-1.668-0.461-2.563c0-3.109,1.907-5.734,5.029-7.844c-1.708,0.118-3.427,0.182-5.135,0.182
		c-3.031,0-6.097-0.191-9.073-0.561c0.728,1.215,1.126,2.532,1.126,3.952V169.634z"/>
	<path style="fill:#FFFFFF;" d="M188.091,152.271v-0.312c-0.161,0.117-0.322,0.233-0.49,0.347
		C187.764,152.295,187.927,152.283,188.091,152.271"/>
	<path style="fill:#FFFFFF;" d="M200.843,179.913c-2.67,0.295-5.402,0.448-8.105,0.448c-3.032,0-6.098-0.191-9.073-0.561
		c0.727,1.215,1.125,2.532,1.125,3.951l-0.025,8.839c0.203,0,0.406-0.006,0.608-0.006c2.964,0,5.964,0.181,8.878,0.536v-1.585
		c-0.299-0.814-0.461-1.668-0.461-2.564C193.79,185.234,196.536,182.199,200.843,179.913"/>
	<path style="fill:#FFFFFF;" d="M217.776,175.3c0.825-0.091,1.655-0.17,2.488-0.233l0.004-1.31
		C219.512,174.303,218.681,174.82,217.776,175.3"/>
	<path style="fill:#FFFFFF;" d="M227.059,203.077c-0.392,0.006-0.785,0.012-1.176,0.012c-3.26,0-6.561-0.22-9.745-0.648
		c0.851,1.299,1.328,2.719,1.328,4.261v5.812c2.152,0.053,4.308,0.202,6.425,0.442v-3.493
		C223.891,207.032,225.061,204.901,227.059,203.077"/>
	<path style="fill:#FFFFFF;" d="M105.591,184.634c0.036,0,0.071-0.001,0.107-0.001c4.909,0,9.914,0.494,14.468,1.457
		c-0.155-0.599-0.244-1.215-0.244-1.854c0-3.086,1.879-5.692,4.957-7.794c0.022-0.017,0.044-0.034,0.067-0.05
		c-1.707,0.118-3.425,0.18-5.131,0.18c-4.909,0-9.914-0.493-14.467-1.456c0.155,0.598,0.243,1.215,0.243,1.854V184.634z"/>
	<path style="fill:#FFFFFF;" d="M147.591,169.813v-0.016c-0.008,0.006-0.016,0.012-0.023,0.018
		C147.575,169.814,147.583,169.813,147.591,169.813"/>
	<path style="fill:#FFFFFF;" d="M179.764,192.798l0.004-1.203c-0.663,0.495-1.398,0.961-2.184,1.402
		C178.308,192.922,179.034,192.854,179.764,192.798"/>
	<path style="fill:#FFFFFF;" d="M153.281,208.811v-0.095c-0.138-0.566-0.213-1.149-0.213-1.75c0-2.009,0.794-3.815,2.196-5.411
		c1.118-1.353,2.665-2.56,4.54-3.614c-2.57,0.273-5.193,0.413-7.79,0.413c-4.909,0-9.914-0.494-14.467-1.457
		c0.154,0.598,0.243,1.215,0.243,1.854l-0.025,8.622c0.36-0.005,0.72-0.011,1.078-0.011
		C143.742,207.362,148.735,207.853,153.281,208.811"/>
	<path style="fill:#FFFFFF;" d="M185.808,221.076c-0.216,0.002-0.432,0.006-0.647,0.006c-4.91,0-9.914-0.492-14.467-1.456
		c0.155,0.598,0.243,1.215,0.243,1.855v8.104c4.235,0.005,8.539,0.376,12.562,1.098v-4.079
		C183.499,224.546,184.338,222.701,185.808,221.076"/>
	<path style="fill:#FFFFFF;" d="M295.001,206.044c-2.667,0-5.362-0.149-7.999-0.436c0.691,1.187,1.073,2.472,1.073,3.855v36.259
		c2.164,0.206,4.474,0.322,6.926,0.322c16.785,0,27.093-5.311,27.093-9.118V199.75C316.018,203.874,305.298,206.044,295.001,206.044
		"/>
	<path style="fill:#FFFFFF;" d="M283.075,217.287c-6.076,4.124-16.796,6.294-27.093,6.294c-3.087,0-6.211-0.199-9.238-0.583
		c0.603,1.119,0.939,2.319,0.939,3.606c0,0.003-0.001,0.005-0.001,0.008v36.502c2.55,0.296,5.321,0.467,8.3,0.467
		c16.539,0,27.093-5.401,27.093-9.118V217.287z"/>
	<path style="fill:#FFFFFF;" d="M73.605,231.087V198.75c0-3.11,1.907-5.734,5.029-7.844c-1.708,0.118-3.427,0.182-5.136,0.182
		c-10.295,0-21.015-2.17-27.091-6.294v37.176c0,3.717,10.553,9.118,27.091,9.118C73.535,231.088,73.569,231.087,73.605,231.087"/>
	<path style="fill:#FFFFFF;" d="M100.591,184.813v-0.019c-0.01,0.007-0.019,0.014-0.029,0.021
		C100.572,184.814,100.582,184.813,100.591,184.813"/>
	<path style="fill:#FFFFFF;" d="M106.751,252.859v-31.378c0-3.738,2.748-6.774,7.056-9.06c-2.672,0.295-5.404,0.449-8.109,0.449
		c-10.297,0-21.017-2.17-27.093-6.295v37.176c0,3.808,10.307,9.119,27.093,9.119C106.054,252.87,106.401,252.864,106.751,252.859"/>
	<path style="fill:#FFFFFF;" d="M132.765,207.612l0.003-1.021c-0.631,0.427-1.309,0.834-2.033,1.218
		C131.409,207.735,132.085,207.668,132.765,207.612"/>
	<path style="fill:#FFFFFF;" d="M255.982,218.581c16.539,0,27.093-5.4,27.093-9.117c0-1.666-1.973-3.62-5.598-5.29
		c-0.258-0.119-0.524-0.237-0.799-0.352c-0.22,1.178-0.424,2.319-0.611,3.405c0.793,0.627,1.258,1.366,1.258,2.237
		c0,5.59-19.158,5.752-21.343,5.752c-2.185,0-21.342-0.162-21.342-5.752c0-0.909,0.511-1.671,1.367-2.315
		c0.014-1.131,0-2.332-0.04-3.601c-3.406,1.337-5.673,2.928-6.601,4.43c-0.078,0.128-0.147,0.255-0.207,0.381
		c-0.118,0.251-0.198,0.5-0.239,0.743c-0.019,0.122-0.029,0.242-0.029,0.362C228.891,213.27,239.197,218.581,255.982,218.581"/>
	<path style="fill:#FFFFFF;" d="M276.411,185.554c-0.299,0.616-0.597,1.236-0.888,1.879c-0.394,0.872-0.754,1.78-1.093,2.709
		c0.046-0.05,0.096-0.099,0.146-0.148c0.881-1.781,1.791-3.356,2.672-4.719C276.962,185.366,276.684,185.458,276.411,185.554"/>
	<path style="fill:#FFFFFF;" d="M295.001,182.809c-3.808,0-7.293,0.29-10.41,0.774c-0.847,0.25-1.719,0.481-2.612,0.693
		c-0.382,0.911-0.793,1.966-1.217,3.165c5.695-1.208,12.945-1.265,14.239-1.265c2.185,0,21.343,0.162,21.343,5.751
		c0,5.59-19.158,5.752-21.343,5.752c-1.486,0-10.825-0.077-16.646-1.885c-0.231,0.988-0.455,1.982-0.668,2.98
		c4.466,1.349,10.326,2.271,17.314,2.271c16.786,0,27.093-5.311,27.093-9.118c0-3.601-9.904-8.782-25.56-9.102
		C296.029,182.815,295.518,182.809,295.001,182.809"/>
	<path style="fill:#FFFFFF;" d="M242.683,234.429c-6.076,4.124-16.795,6.294-27.092,6.294c-4.744,0-9.578-0.463-14.008-1.363
		c0.887,1.322,1.384,2.768,1.384,4.342v35.895c3.63,0.699,7.865,1.126,12.624,1.126c16.785,0,27.092-5.311,27.092-9.119V234.429z"/>
	<path style="fill:#FFFFFF;" d="M138.781,243.702c0-3.352,2.216-6.137,5.779-8.326c-1.898,0.147-3.815,0.223-5.717,0.223
		c-10.296,0-21.016-2.17-27.092-6.294v37.176c0,3.712,10.528,9.102,27.03,9.117V243.702z"/>
	<path style="fill:#FFFFFF;" d="M165.937,229.752v-0.447c-0.251,0.171-0.512,0.337-0.779,0.501
		C165.417,229.786,165.677,229.769,165.937,229.752"/>
	<path style="fill:#FFFFFF;" d="M124.923,184.235c0,3.808,10.307,9.118,27.092,9.118c16.786,0,27.093-5.31,27.093-9.118
		c0-3.718-10.554-9.118-27.093-9.118C135.477,175.117,124.923,180.517,124.923,184.235 M152.015,178.483
		c2.185,0,21.343,0.162,21.343,5.752c0,5.59-19.158,5.752-21.343,5.752c-2.185,0-21.342-0.162-21.342-5.752
		C130.673,178.645,149.83,178.483,152.015,178.483"/>
	<path style="fill:#FFFFFF;" d="M92.723,162.454c0,3.808,10.306,9.118,27.092,9.118c16.785,0,27.093-5.31,27.093-9.118
		c0-3.807-10.308-9.118-27.093-9.118C103.029,153.336,92.723,158.647,92.723,162.454 M119.815,156.702
		c2.185,0,21.343,0.162,21.343,5.752c0,5.59-19.158,5.752-21.343,5.752c-2.185,0-21.342-0.162-21.342-5.752
		C98.473,156.864,117.63,156.702,119.815,156.702"/>
	<path style="fill:#FFFFFF;" d="M225.883,179.852c-16.539,0-27.093,5.401-27.093,9.119s10.554,9.119,27.093,9.119
		c3.493,0,6.714-0.243,9.63-0.659c-0.13-1.054-0.286-2.123-0.461-3.197c-4.271,0.458-8.243,0.489-9.169,0.489
		c-2.185,0-21.343-0.162-21.343-5.752c0-5.591,19.158-5.752,21.343-5.752c0.761,0,3.585,0.021,6.939,0.282
		c-0.298-1.209-0.592-2.346-0.873-3.395C230.031,179.942,228.008,179.852,225.883,179.852"/>
	<path style="fill:#FFFFFF;" d="M249.651,188.566c0.13-1.117,0.287-2.211,0.43-3.318c-0.49-0.328-1.043-0.652-1.65-0.971
		c0.142,0.443,0.28,0.888,0.412,1.339C249.123,186.573,249.392,187.557,249.651,188.566"/>
	<path style="fill:#FFFFFF;" d="M236.634,180.681c0.542,1.059,1.1,2.212,1.665,3.461c0.103,0.017,0.204,0.037,0.307,0.054
		c-0.201-1.103-0.419-2.199-0.651-3.285C237.523,180.831,237.082,180.754,236.634,180.681"/>
	<path style="fill:#FFFFFF;" d="M192.738,157.124c-16.539,0-27.094,5.401-27.094,9.117c0,3.808,10.308,9.12,27.094,9.12
		c16.538,0,27.092-5.401,27.092-9.12C219.83,162.525,209.276,157.124,192.738,157.124 M214.08,166.242
		c0,5.591-19.159,5.753-21.343,5.753c-2.185,0-21.342-0.162-21.342-5.753c0-5.589,19.157-5.751,21.342-5.751
		C194.921,160.491,214.08,160.653,214.08,166.242"/>
	<path style="fill:#FFFFFF;" d="M133.445,144.46c0,3.808,10.307,9.119,27.093,9.119c16.538,0,27.093-5.4,27.093-9.119
		c0-1.713-2.248-3.785-6.287-5.52c-0.089,1.305-0.168,2.552-0.237,3.732c0.491,0.524,0.774,1.117,0.774,1.788
		c0,5.591-19.158,5.752-21.343,5.752c-2.184,0-21.343-0.161-21.343-5.752c0-0.86,0.457-1.591,1.234-2.213
		c-0.006-1.125-0.036-2.316-0.088-3.559C135.92,140.473,133.445,142.663,133.445,144.46"/>
	<path style="fill:#FFFFFF;" d="M266.13,162.806c-1.066,0-2.105,0.023-3.12,0.066c-0.163,1.114-0.325,2.244-0.483,3.383
		c1.778-0.075,3.115-0.083,3.604-0.083c0.138,0,0.346,0.001,0.613,0.003c0.964-1.334,1.859-2.427,2.637-3.301
		C268.326,162.83,267.243,162.806,266.13,162.806"/>
	<path style="fill:#FFFFFF;" d="M269.035,177.62c-0.193,1.028-0.377,2.078-0.538,3.162c0.703-1.157,1.446-2.233,2.214-3.236
		C270.113,177.578,269.549,177.602,269.035,177.62"/>
	<path style="fill:#FFFFFF;" d="M273.007,163.123c-0.306,0.83-0.69,1.927-1.115,3.247c3.153,0.204,6.992,0.618,10.073,1.452
		c1.529-0.859,2.887-1.483,3.938-1.911C282.592,164.642,278.235,163.615,273.007,163.123"/>
	<path style="fill:#FFFFFF;" d="M241.182,168.749c1.612,2.622,3.258,5.633,4.729,8.939c1.464,0.592,3.143,1.139,5.018,1.612
		c0.155-1.002,0.305-2.011,0.472-3c-3.689-0.841-6.611-2.193-6.611-4.376c0-2.553,3.999-3.972,8.551-4.762
		c0.299-1.146,0.611-2.259,0.935-3.336C248.172,164.939,243.652,166.822,241.182,168.749"/>
	<path style="fill:#FFFFFF;" d="M279.539,179.718c0.906-0.193,1.773-0.402,2.599-0.627c0.241-0.239,0.4-0.386,0.435-0.417
		c0.346-0.31,0.849-0.327,1.225-0.071c6-1.9,9.427-4.561,9.427-6.678c0-1.486-1.577-3.2-4.49-4.739
		c-0.448,0.472-1.272,1.374-2.336,2.666c0.674,0.592,1.075,1.275,1.075,2.072c0,1.989-2.428,3.288-5.65,4.14
		C281.078,177.189,280.312,178.407,279.539,179.718"/>
	<path style="fill:#FFFFFF;" d="M205.893,149.196c0,3.594,9.867,8.76,25.469,9.1c0.044-0.278,0.189-0.534,0.44-0.693
		c0.407-0.255,0.937-0.188,1.265,0.163c0.049,0.053,0.222,0.241,0.488,0.542c12.992-0.099,22.193-3.531,25.335-6.784
		c0.4-0.874,0.794-1.694,1.177-2.465c-0.113-1.671-2.303-3.657-6.168-5.337c-0.032,1.477-0.027,2.855,0.011,4.138
		c0.266,0.407,0.419,0.849,0.419,1.336c0,5.589-19.159,5.751-21.343,5.751c-2.185,0-21.343-0.162-21.343-5.751
		c0-0.62,0.247-1.169,0.668-1.662c-0.065-1.204-0.141-2.484-0.226-3.817C208.106,145.444,205.893,147.496,205.893,149.196"/>
	<path style="fill:#FFFFFF;" d="M219.174,130.637c-0.067,0.029-0.135,0.058-0.204,0.087c0.032,0.15,0.065,0.296,0.097,0.446
		C219.101,130.99,219.139,130.816,219.174,130.637"/>
	<path style="fill:#FFFFFF;" d="M219.883,124.542c0.204,0.111,0.397,0.227,0.578,0.347c0.133-0.522,0.267-1.042,0.405-1.549
		c-0.322-0.675-0.647-1.327-0.974-1.967C219.867,122.494,219.863,123.557,219.883,124.542"/>
	<path style="fill:#FFFFFF;" d="M173.983,126.303c0.143,0.67,0.28,1.35,0.413,2.039c0.257-1.217,0.523-2.396,0.791-3.559
		C174.634,125.297,174.23,125.807,173.983,126.303"/>
	<path style="fill:#FFFFFF;" d="M181.742,133.695c4.634,1.652,11.114,2.837,19.044,2.837c3.944,0,7.526-0.295,10.706-0.793
		c-0.091-1.061-0.188-2.13-0.292-3.207c-4.72,0.6-9.399,0.634-10.414,0.634c-1.685,0-13.454-0.098-18.757-2.706
		C181.926,131.55,181.831,132.63,181.742,133.695"/>
	<path style="fill:#FFFFFF;" d="M197.966,251.526c-6.077,4.124-16.796,6.293-27.093,6.293c-10.296,0-21.016-2.169-27.092-6.293
		v37.175c0,3.718,10.554,9.118,27.092,9.118c16.539,0,27.093-5.4,27.093-9.118V251.526z"/>
	<path style="fill:#FFFFFF;" d="M215.591,217.486c-4.064,0-7.744,0.314-10.994,0.84c-2.267,0.722-4.733,1.303-7.307,1.744
		c-5.642,1.872-8.791,4.432-8.791,6.534c0,3.808,10.307,9.118,27.092,9.118c16.786,0,27.092-5.31,27.092-9.118
		C242.683,222.797,232.377,217.486,215.591,217.486 M215.591,232.357c-2.185,0-21.343-0.162-21.343-5.753
		c0-5.59,19.158-5.752,21.343-5.752c2.185,0,21.343,0.162,21.343,5.752C236.934,232.195,217.776,232.357,215.591,232.357"/>
	<path style="fill:#FFFFFF;" d="M73.498,186.088c16.539,0,27.093-5.4,27.093-9.118c0-3.807-10.307-9.118-27.093-9.118
		c-16.785,0-27.092,5.311-27.092,9.118C46.406,180.688,56.96,186.088,73.498,186.088 M73.498,171.718
		c7.742,0,20.843,1.106,20.843,5.252c0,4.146-13.101,5.252-20.843,5.252c-7.741,0-20.842-1.106-20.842-5.252
		C52.656,172.824,65.757,171.718,73.498,171.718"/>
	<path style="fill:#FFFFFF;" d="M105.698,207.87c16.785,0,27.092-5.311,27.092-9.119c0-3.252-8.08-7.794-21.18-8.878
		c-1.871-0.155-3.845-0.24-5.912-0.24c-16.539,0-27.094,5.401-27.094,9.118C78.604,202.559,88.912,207.87,105.698,207.87
		 M84.855,198.751c0-4.146,13.101-5.252,20.842-5.252s20.843,1.106,20.843,5.252c0,4.146-13.102,5.253-20.843,5.253
		S84.855,202.897,84.855,198.751"/>
	<path style="fill:#FFFFFF;" d="M138.844,230.598c16.539,0,27.093-5.4,27.093-9.117c0-3.719-10.554-9.119-27.093-9.119
		s-27.093,5.4-27.093,9.119C111.751,225.198,122.305,230.598,138.844,230.598 M117.501,221.481c0-5.591,19.158-5.753,21.343-5.753
		c2.184,0,21.343,0.162,21.343,5.753c0,5.591-19.159,5.751-21.343,5.751C136.659,227.232,117.501,227.072,117.501,221.481"/>
	<path style="fill:#FFFFFF;" d="M170.873,252.82c16.539,0,27.093-5.4,27.093-9.118c0-3.807-10.307-9.118-27.093-9.118
		c-16.785,0-27.092,5.311-27.092,9.118C143.781,247.42,154.335,252.82,170.873,252.82 M149.531,243.702
		c0-5.59,19.157-5.752,21.342-5.752c2.184,0,21.343,0.162,21.343,5.752c0,5.591-19.159,5.753-21.343,5.753
		C168.688,249.455,149.531,249.293,149.531,243.702"/>
	<path style="fill:#FFFFFF;" d="M212.253,206.966c0-3.719-10.554-9.12-27.093-9.12c-16.538,0-27.092,5.401-27.092,9.12
		c0,3.716,10.554,9.116,27.092,9.116C201.699,216.082,212.253,210.682,212.253,206.966 M185.16,212.717
		c-2.185,0-21.342-0.161-21.342-5.751c0-5.592,19.157-5.754,21.342-5.754c2.185,0,21.343,0.162,21.343,5.754
		C206.503,212.556,187.345,212.717,185.16,212.717"/>
	<path style="fill:#FFFFFF;" d="M219.221,108.896c0.558-3.07,1.221-6.047,1.84-8.582c-1.035,2.096-2.163,4.66-3.226,7.608
		C218.288,108.224,218.75,108.548,219.221,108.896"/>
	<path style="fill:#FFFFFF;" d="M187.889,99.302c0.42,0.272,0.574,0.812,0.361,1.266c-0.012,0.025-0.446,0.973-1.079,2.779
		c0.235,1.977,0.458,4.091,0.663,6.315c0.046,0.5-0.286,0.956-0.776,1.067c-0.491,0.113-0.985-0.158-1.159-0.63
		c-0.14-0.382-0.283-0.755-0.426-1.129c-0.887,3.395-1.82,7.795-2.524,13.183v0.004c0.155,2.333,0.174,4.417,0.138,6.076
		c2.963,1.446,10.051,2.434,17.699,2.434c3.652,0,7.164-0.222,10.165-0.612c-0.19-1.806-0.399-3.61-0.63-5.383
		c-1.265-9.706-3.246-16.301-4.436-19.646c-0.138,0.524-0.274,1.053-0.405,1.598c-0.584,2.443-1.103,4.828-1.545,7.092
		c-0.095,0.488-0.52,0.828-1.034,0.807c-0.498-0.026-0.9-0.415-0.943-0.912c-0.513-5.854-1.23-11.625-2.128-17.151
		c-0.058-0.355-0.124-0.699-0.188-1.044l-0.111-0.59c-0.024-0.133-0.021-0.271,0.01-0.404c0.984-4.255,2.113-8.165,3.048-11.152
		c-0.884,1.278-1.865,2.778-2.866,4.464c-0.206,0.347-0.603,0.535-0.997,0.482c-0.398-0.057-0.725-0.345-0.83-0.734
		c-1.962-7.359-4.475-13.094-6.366-16.802c1.02,6.226,2.629,16.664,3.588,25.996c0.016,0.161-0.007,0.324-0.067,0.475
		c-0.836,2.082-1.496,4.014-2.021,5.904c-0.189,0.679-0.366,1.36-0.535,2.043c-0.111,0.446-0.512,0.759-0.971,0.759h-0.008
		c-0.463-0.004-0.863-0.325-0.966-0.776c-0.136-0.591-0.273-1.181-0.413-1.774c-1.54-6.431-3.803-11.573-5.79-15.242
		c0.792,2.941,1.629,6.733,2.309,11.369C186.986,99.112,187.495,99.048,187.889,99.302"/>
	<path style="fill:#FFFFFF;" d="M206.839,101.745c0.434,0.542,1.303,1.682,2.404,3.406c0.01-0.156,0.058-0.311,0.143-0.453
		c0.235-0.388,0.701-0.568,1.137-0.441c0.048,0.014,0.278,0.085,0.626,0.209c0.547-7.524,2.231-14.2,3.529-18.42
		C212.37,89.076,209.246,94.172,206.839,101.745"/>
	<path style="fill:#FFFFFF;" d="M210.982,108.065c0.003-0.154,0.002-0.31,0.006-0.465c-0.338-0.41-0.632-0.756-0.861-1.018
		C210.403,107.045,210.69,107.543,210.982,108.065"/>
	<path style="fill:#FFFFFF;" d="M171.513,90.57c-0.049,0.316-0.1,0.636-0.15,0.962c2.129,2.977,4.768,7.197,7.204,12.526
		c2.013-1.06,3.507-1.582,3.99-1.736C179.365,96.359,174.951,92.691,171.513,90.57"/>
	<path style="fill:#FFFFFF;" d="M180.261,108.179c0.116,0.334,0.23,0.668,0.338,1.003c0.809-1.66,1.607-3.141,2.343-4.383
		C182.329,105.509,181.389,106.653,180.261,108.179"/>
	<path style="fill:#FFFFFF;" d="M215.843,114.313c-0.242,0.896-0.475,1.808-0.697,2.729c1.025,2.702,1.991,5.733,2.793,9.088
		c-0.1-2.062-0.091-4.45,0.031-7.148c0.016-0.337,0.048-0.692,0.071-1.036C217.293,116.636,216.555,115.422,215.843,114.313"/>
	<path style="fill:#FFFFFF;" d="M142.325,138.224c0.113,2.499,0.136,4.789,0.067,6.815c2.273,1.369,8.955,2.673,18.146,2.673
		c9.345,0,16.492-1.413,18.442-2.852c0.324-6.087,0.929-14.872,1.986-22.966c0.801-6.131,1.88-10.992,2.868-14.583
		c-2.181,3.954-4.726,9.624-6.437,16.794c-0.743,3.116-1.448,6.463-2.094,9.95c-0.09,0.48-0.478,0.819-1.002,0.818
		c-0.489-0.009-0.9-0.37-0.971-0.854c-0.688-4.655-1.578-8.975-2.649-12.838l0.934-0.374l-0.972,0.239
		c-0.068-0.235-0.048-0.486,0.057-0.706c3.128-6.617,6.508-11.531,8.806-14.502c-2.709,1.432-6.459,3.925-9.827,7.948
		c-0.224,0.267-0.57,0.397-0.914,0.347c-0.344-0.051-0.637-0.278-0.774-0.598c-0.371-0.874-0.756-1.728-1.148-2.557
		c-0.08-0.169-0.111-0.355-0.09-0.541c1.051-9.196,2.548-18.841,3.508-24.69c-1.867,3.617-4.363,9.179-6.422,16.314
		c-0.109,0.378-0.429,0.656-0.818,0.713c-0.389,0.055-0.774-0.12-0.986-0.45c-0.625-0.977-1.228-1.872-1.79-2.677
		c0.658,2.091,1.417,4.64,2.165,7.455c0.041,0.157,0.045,0.322,0.009,0.479c-0.466,2.048-0.868,4.105-1.193,6.116
		c-0.942,5.804-1.696,11.871-2.241,18.03c-0.044,0.497-0.447,0.885-0.945,0.911c-0.502,0.028-0.938-0.32-1.033-0.809
		c-0.472-2.444-1.034-5.04-1.671-7.716c-2.718-11.412-7.104-18.565-10.068-22.371c1.789,5.783,4.418,16.307,4.068,27.317
		c-0.14,4.38-0.417,8.381-0.825,11.892c-0.057,0.49-0.461,0.865-0.954,0.884c-0.502,0.008-0.925-0.322-1.02-0.806
		c-0.707-3.585-1.557-7.065-2.528-10.344c-1.571-5.307-3.476-9.712-5.117-12.983C140.312,123.453,142.022,131.552,142.325,138.224"
		/>
	<path style="fill:#FFFFFF;" d="M213.728,107.813c2.356,3.044,5.864,8.133,9.108,15.012c0.103,0.219,0.123,0.468,0.058,0.7
		l-1.007-0.125l0.964,0.267c-1.099,3.98-2.013,8.422-2.716,13.204c-0.072,0.484-0.482,0.846-0.971,0.855
		c-0.515-0.002-0.913-0.338-1.002-0.818c-0.66-3.569-1.383-7.011-2.149-10.233c-1.786-7.51-4.453-13.411-6.712-17.482
		c1.03,3.713,2.165,8.786,3.004,15.22c1.15,8.841,1.781,18.446,2.11,25.071c1.65,1.462,8.938,2.964,18.57,2.964
		c11.849,0,18.566-2.124,18.844-3.263c0-0.157,0.037-0.308,0.105-0.444c-0.095-2.216-0.079-4.748,0.046-7.538
		c0.314-6.943,2.107-15.39,3.574-21.314c-1.707,3.386-3.709,7.992-5.35,13.552c-0.996,3.374-1.868,6.953-2.591,10.635
		c-0.094,0.484-0.523,0.834-1.02,0.807c-0.492-0.019-0.898-0.395-0.954-0.884c-0.42-3.625-0.706-7.737-0.849-12.223
		c-0.36-11.393,2.374-22.279,4.208-28.199c-3.046,3.905-7.606,11.302-10.409,23.106c-0.649,2.728-1.226,5.398-1.715,7.937
		c-0.093,0.489-0.534,0.839-1.032,0.81c-0.498-0.026-0.902-0.414-0.945-0.911c-0.562-6.343-1.335-12.583-2.3-18.547
		c-0.32-1.973-0.721-4.023-1.229-6.267c-0.035-0.157-0.032-0.321,0.009-0.476c0.787-2.978,1.588-5.666,2.276-7.851
		c-0.606,0.865-1.26,1.836-1.939,2.899c-0.212,0.331-0.6,0.505-0.986,0.452c-0.39-0.057-0.709-0.336-0.818-0.713
		c-2.138-7.427-4.731-13.201-6.652-16.923c0.982,6.001,2.534,16.007,3.621,25.541c0.021,0.184-0.009,0.371-0.089,0.539
		c-0.401,0.853-0.794,1.733-1.177,2.633c-0.135,0.321-0.429,0.548-0.774,0.598c-0.345,0.054-0.691-0.08-0.914-0.348
		C220.422,111.857,216.517,109.278,213.728,107.813"/>
	<path style="fill:#FFFFFF;" d="M253.478,175.96c-1.042,6.068-1.873,12.421-2.471,18.88c-0.046,0.495-0.448,0.882-0.945,0.906
		c-0.5,0.029-0.936-0.319-1.032-0.807c-0.603-3.1-1.311-6.048-2.106-8.761c-2.825-9.644-8.131-17.828-11.696-22.592
		c2.264,6.76,5.773,18.632,6.514,29.222l0.031,0.526c0.032,0.505-0.318,0.952-0.814,1.045c-0.5,0.091-0.984-0.199-1.137-0.68
		c-1.803-5.681-3.993-10.341-5.822-13.707c1.577,5.948,3.563,14.637,3.903,21.752c0.152,3.149,0.155,5.953,0.011,8.343
		c2.35,1.347,9.018,2.628,18.068,2.628c7.54,0,14.451-0.939,17.538-2.357c0.688-4.32,1.768-10.458,3.142-16.105
		c0.787-3.234,1.641-5.947,2.444-8.148c-1.621,2.465-3.38,5.681-4.809,9.613c-0.969,2.667-1.914,5.579-2.809,8.653
		c-0.143,0.492-0.639,0.796-1.14,0.704c-0.504-0.093-0.857-0.551-0.817-1.063c0.525-6.594,1.928-12.449,4.17-17.404
		c3.802-8.403,8.246-14.523,11.096-17.981c-4.492,2.207-11.834,7.023-16.264,16.288c-0.249,0.522-0.491,1.048-0.732,1.576
		c-0.201,0.441-0.685,0.677-1.16,0.554c-0.47-0.121-0.785-0.562-0.747-1.045c0.665-8.661,2.823-16.423,4.353-21.039
		c-2.711,3.232-6.643,9.002-9.623,17.862c-0.16,0.478-0.65,0.762-1.147,0.661c-0.495-0.101-0.836-0.554-0.797-1.057
		c0.931-11.964,3.503-27.674,4.903-35.708C260.563,152.163,255.814,162.354,253.478,175.96"/>
</g>
</svg>
