<?xml version="1.0" encoding="iso-8859-1"?>
<!-- Generator: Adobe Illustrator 25.4.1, SVG Export Plug-In . SVG Version: 6.00 Build 0)  -->
<svg version="1.1" id="Calque_1" xmlns="http://www.w3.org/2000/svg" xmlns:xlink="http://www.w3.org/1999/xlink" x="0px" y="0px"
	 viewBox="0 0 368.5 368.5" style="enable-background:new 0 0 368.5 368.5;" xml:space="preserve">
<g>
	<path style="fill:#FFFFFF;" d="M136.152,237.518c0.166,0.095,0.357,0.132,0.539,0.111c0.14-0.015,0.272-0.062,0.391-0.139
		c0.281-0.185,0.437-0.511,0.4-0.844l-0.455-26.893c-0.031-0.281-0.196-0.531-0.443-0.673L95.077,184.1
		c-0.168-0.095-0.358-0.132-0.542-0.111c-0.137,0.015-0.27,0.06-0.389,0.139c-0.281,0.183-0.436,0.509-0.399,0.842l0.455,26.896
		c0.031,0.28,0.196,0.531,0.442,0.672"/>
	<path style="fill:#FFFFFF;" d="M89.08,208.342c0.166,0.095,0.357,0.132,0.539,0.111c0.14-0.015,0.272-0.062,0.391-0.139
		c0.281-0.185,0.437-0.511,0.4-0.844l-0.455-26.893c-0.031-0.281-0.196-0.531-0.443-0.673l-45.651-26.426
		c-0.168-0.095-0.358-0.132-0.542-0.111c-0.137,0.015-0.269,0.06-0.389,0.139c-0.281,0.183-0.436,0.509-0.399,0.842l0.455,26.896
		c0.031,0.28,0.196,0.531,0.442,0.672"/>
	<path style="fill:#FFFFFF;" d="M227.849,201.686l-84.91,9.424c-0.489,0.055-0.842,0.495-0.788,0.983l0.455,26.895
		c0.054,0.488,0.495,0.84,0.984,0.786l84.91-9.424c0.489-0.055,0.84-0.495,0.786-0.983l-0.454-26.895
		C228.777,201.984,228.339,201.632,227.849,201.686"/>
	<path style="fill:#FFFFFF;" d="M325.986,218.634l-0.454-26.894c-0.055-0.488-0.497-0.841-0.986-0.786l-84.907,9.423
		c-0.488,0.055-0.842,0.495-0.788,0.984l0.454,26.894c0.055,0.488,0.497,0.84,0.985,0.786l84.906-9.424
		C325.685,219.563,326.039,219.122,325.986,218.634"/>
	<path style="fill:#FFFFFF;" d="M138.659,183.985c-2.813-1.046-17.588,1.075-31.14,3.859l10.967,6.232
		c0.137-0.145,0.296-0.269,0.499-0.334C125.821,191.536,136.897,187.03,138.659,183.985"/>
	<path style="fill:#FFFFFF;" d="M225.876,195.398l-25.617-14.552c-3.121-0.464-20.315-2.68-31.27,2.943
		c-12.514,6.428-33.91,12.059-34.814,12.296c-0.104,0.027-0.208,0.039-0.31,0.039c-0.542,0-1.037-0.362-1.18-0.912
		c-0.171-0.652,0.22-1.319,0.871-1.489c0.22-0.057,22.044-5.801,34.318-12.105c8.459-4.342,19.97-4.352,27.013-3.824l-12.986-7.376
		c-0.173-0.099-0.374-0.141-0.57-0.119l-84.684,9.399c-0.405,0.045-0.741,0.351-0.823,0.749c-0.079,0.405,0.104,0.812,0.461,1.015
		l8.134,4.621c0.118-0.073,0.244-0.137,0.387-0.167c9.87-2.103,33.135-6.641,35.961-3.414c0.474,0.543,0.601,1.26,0.349,1.967
		c-1.62,4.534-14.885,9.408-19.959,11.124l10.454,5.94c4.352-1.758,22.771-8.964,34.352-9.88
		c12.709-1.002,27.598-2.689,27.748-2.706c0.659-0.075,1.274,0.403,1.35,1.074c0.076,0.671-0.405,1.275-1.075,1.351
		c-0.149,0.018-15.079,1.709-27.83,2.716c-9.906,0.783-25.566,6.557-31.819,8.994l5.919,3.362c0.177,0.096,0.373,0.14,0.572,0.117
		l84.685-9.399c0.407-0.045,0.739-0.347,0.823-0.748C226.418,196.014,226.232,195.604,225.876,195.398"/>
	<path style="fill:#FFFFFF;" d="M174.571,164.568l-43.973-24.979c-0.176-0.1-0.375-0.142-0.573-0.12l-23.726,2.633
		c1.352,1.625,3.326,4.861,5.99,11.333c0.871,2.116,0.767,3.627-0.309,4.495c-0.446,0.358-1.074,0.521-1.844,0.521
		c-5.758,0-19.551-9.074-25.764-13.376c-0.186-0.128-0.305-0.305-0.394-0.495l-4.293,0.476c5.738,2.961,15.596,8.625,19.282,14.276
		c4.732,7.257,12.775,9.077,12.856,9.094c0.658,0.143,1.076,0.793,0.934,1.451c-0.123,0.573-0.628,0.964-1.191,0.964
		c-0.084,0-0.17-0.008-0.256-0.028c-0.369-0.079-9.091-2.024-14.389-10.146c-4.238-6.5-18.247-13.453-21.733-15.112l-29.847,3.313
		c-0.408,0.046-0.74,0.351-0.823,0.752c-0.084,0.401,0.103,0.809,0.462,1.014l43.971,24.98c0.176,0.099,0.376,0.139,0.572,0.117
		l9.322-1.034c-1.269-3.387-4.576-10.512-11.012-14.326c-0.58-0.345-0.771-1.093-0.427-1.673c0.344-0.581,1.092-0.766,1.672-0.428
		c7.554,4.478,11.084,12.736,12.272,16.149l63.748-7.076c-2.478-1.369-6.399-3.53-10.806-5.934
		c-3.331-1.817-6.069-3.098-8.069-4.032c-3.167-1.482-4.352-2.036-4.704-3.092c-0.214-0.638,0.132-1.33,0.771-1.544
		c0.591-0.19,1.221,0.081,1.485,0.626c0.369,0.343,1.952,1.082,3.483,1.799c2.028,0.947,4.806,2.247,8.204,4.101
		c7.459,4.068,13.563,7.46,13.563,7.46c0.074,0.042,0.125,0.106,0.187,0.16l4.996-0.555c0.406-0.045,0.738-0.347,0.821-0.748
		C175.112,165.181,174.928,164.773,174.571,164.568"/>
	<path style="fill:#FFFFFF;" d="M110.449,156.028c-0.019-0.006,0.089-0.436-0.416-1.664c-4.204-10.207-6.378-11.495-6.468-11.545
		c-0.226-0.064-0.391-0.197-0.527-0.354l-15.622,1.734C98.492,151.698,108.821,157.038,110.449,156.028"/>
	<path style="fill:#FFFFFF;" d="M271.269,153.837L255,144.595c-6.663,0.659-21.451,2.445-36.094,6.415
		c-19.896,5.397-27.731,5.788-28.055,5.803c-0.018,0.001-0.036,0.001-0.054,0.001c-0.649,0-1.189-0.511-1.218-1.166
		c-0.029-0.673,0.492-1.243,1.165-1.273c0.077-0.004,7.961-0.415,27.523-5.721c12.672-3.436,25.442-5.255,33.095-6.126
		l-14.165-8.047c-5.088,0.242-35.357,1.876-55.223,7.377c-12.377,3.428-19.434,4.226-23.321,4.226c-2.975,0-4.093-0.467-4.323-0.581
		c-0.603-0.302-0.847-1.035-0.546-1.637c0.302-0.604,1.035-0.844,1.638-0.547c0.007,0,5.1,1.947,25.9-3.813
		c17.135-4.746,41.831-6.646,51.949-7.255l-5.975-3.394c-0.175-0.101-0.376-0.142-0.57-0.121l-84.687,9.4
		c-0.406,0.045-0.74,0.349-0.822,0.751c-0.08,0.401,0.104,0.809,0.46,1.016l21.605,12.273c2.194-1.263,10.358-5.346,25.095-5.934
		c15.917-0.639,26.639-1.273,30.494-4.163c0.541-0.404,1.304-0.296,1.709,0.243c0.404,0.541,0.295,1.305-0.244,1.709
		c-4.431,3.323-14.993,3.973-31.862,4.649c-11.971,0.479-19.467,3.39-22.659,4.934l19.835,11.267
		c0.176,0.099,0.374,0.14,0.571,0.118l84.683-9.399c0.411-0.046,0.741-0.348,0.826-0.749
		C271.811,154.449,271.625,154.041,271.269,153.837"/>
	<path style="fill:#FFFFFF;" d="M259.713,180.155c1.435,3.024,4.09,7.816,6.841,12.453l6.594-0.732
		C270.557,190.068,265.752,186.375,259.713,180.155"/>
	<path style="fill:#FFFFFF;" d="M322.575,184.666l-43.971-24.98c-0.177-0.099-0.377-0.141-0.572-0.119l-47.658,5.289
		c2.622,2.684,6.903,7.807,9.03,14.425c3.022,9.401,3.109,11.669,3.109,11.896c0,0.674-0.547,1.221-1.221,1.221
		s-1.22-0.547-1.22-1.221c-0.003-0.06-0.122-2.218-2.992-11.149c-2.426-7.549-8.023-13.14-9.855-14.822l-33.88,3.76
		c-0.405,0.045-0.738,0.351-0.822,0.749c-0.081,0.405,0.101,0.812,0.462,1.015l43.971,24.982c0.175,0.096,0.375,0.139,0.571,0.117
		l12.828-1.423c0.173-3.755,0.183-12.734-3.268-17.416c-3.306-4.486-4.982-7.239-4.982-8.18c0-0.674,0.547-1.221,1.221-1.221
		c0.604,0,1.105,0.439,1.203,1.014c0.07,0.205,0.661,1.696,4.524,6.938c3.819,5.183,3.938,14.359,3.764,18.591l11.067-1.228
		c-9.13-15.399-7.982-16.292-7.128-16.95c1.221-0.934,2.651,0.371,4.393,2.176c8.898,9.228,15.259,12.971,15.323,13.008
		c0.148,0.086,0.27,0.199,0.366,0.328l4.136-0.459c-2.661-2.325-6.918-6.843-12.574-15.425c-5.772-8.759-5.56-9.484-4.529-10.291
		c0.873-0.68,1.849-0.453,4.752,2.691c0.457,0.496,0.426,1.267-0.069,1.724c-0.229,0.212-0.516,0.318-0.805,0.325
		c0.656,1.071,1.528,2.446,2.69,4.207c7.401,11.231,12.243,15.194,13.992,16.385l37.779-4.193c0.408-0.045,0.74-0.347,0.825-0.748
		C323.116,185.281,322.931,184.871,322.575,184.666"/>
</g>
</svg>
