<?xml version="1.0" encoding="iso-8859-1"?>
<!-- Generator: Adobe Illustrator 25.4.1, SVG Export Plug-In . SVG Version: 6.00 Build 0)  -->
<svg version="1.1" id="Calque_1" xmlns="http://www.w3.org/2000/svg" xmlns:xlink="http://www.w3.org/1999/xlink" x="0px" y="0px"
	 viewBox="0 0 368.5 368.5" style="enable-background:new 0 0 368.5 368.5;" xml:space="preserve">
<g>
	<path style="fill:#FFFFFF;" d="M322.462,166.642c-0.002-0.049-0.004-0.098-0.004-0.149V151.31c0-0.098,0.004-0.196,0.014-0.291
		c0.052-0.741-0.016-3.055-0.965-4.633c-0.859-1.43-2.805-2.319-3.483-2.539c-0.027-0.01-0.083-0.028-0.113-0.037l-17.08-6.079
		c-0.308,0.192-0.668,0.307-1.057,0.307h-0.771c-0.988,0-1.803-0.717-1.967-1.658l-41.844-14.891
		c-0.361,0.524-0.962,0.865-1.644,0.865h-0.772c-1.105,0-2-0.894-2-2c0-0.144,0.016-0.283,0.045-0.419l-59.095-21.03
		c-0.047-0.017-0.092-0.035-0.137-0.052c-0.639-0.254-2.69-0.938-4.406-1.004c-0.098-0.004-0.196-0.006-0.291-0.006
		c-1.848,0-3.662,0.654-3.68,0.66L69.903,140.812l6.86,4.959c0.678,0.49,0.978,1.349,0.756,2.154
		c-0.223,0.806-0.922,1.388-1.756,1.459l-18.86,1.631c-0.056,0.006-0.115,0.007-0.172,0.007c-0.804,0-1.538-0.484-1.849-1.24
		c-0.332-0.808-0.102-1.738,0.572-2.297l2.791-2.32l-7.258,2.709c-1.154,0.549-3.203,1.836-4.048,3.102
		c-1.028,1.543-0.922,3.8-0.92,3.822c0.007,0.092,0.011,0.185,0.011,0.277v17.018c-0.019,1.082,0.17,4.172,1.239,6.322
		c1.007,2.027,3.351,3.84,4.185,4.381l152.598,85.918c1.248,0.578,4.73,1.943,7.308,1.943l0.186-0.004
		c2.055-0.056,5.053-1.92,6.502-3.109l100.398-90.777c0.631-0.575,2.481-2.399,3.399-3.885
		C322.265,172.142,322.566,169.104,322.462,166.642 M280.216,139.696l7.344,3.994c0.748,0.405,1.156,1.239,1.019,2.079
		c-0.137,0.837-0.787,1.498-1.625,1.646l-11.867,2.109c-0.117,0.022-0.234,0.032-0.35,0.032c-0.685,0-1.332-0.352-1.701-0.948
		c-0.431-0.697-0.394-1.586,0.094-2.244l4.523-6.103C278.247,139.46,279.341,139.22,280.216,139.696 M273.382,134.038h0.771
		c1.104,0,2,0.897,2,2c0,1.106-0.896,2-2,2h-0.771c-1.106,0-2-0.894-2-2C271.382,134.935,272.276,134.038,273.382,134.038
		 M267.183,166.745h0.771c1.104,0,2,0.897,2,2c0,1.106-0.896,2-2,2h-0.771c-1.104,0-2-0.894-2-2
		C265.183,167.642,266.079,166.745,267.183,166.745 M262.419,147.22h0.771c1.104,0,2,0.896,2,2c0,1.105-0.896,2-2,2h-0.771
		c-1.105,0-2-0.895-2-2C260.419,148.116,261.314,147.22,262.419,147.22 M225.667,134.749l5.063-2.203
		c0.927-0.402,2.013-0.049,2.525,0.826l3.359,5.76c0.434,0.744,0.344,1.681-0.224,2.328c-0.389,0.441-0.94,0.68-1.504,0.68
		c-0.262,0-0.526-0.051-0.778-0.157l-8.421-3.556c-0.737-0.313-1.217-1.033-1.221-1.832
		C224.462,135.794,224.935,135.069,225.667,134.749 M235.538,197.237c0,1.106-0.896,2-2,2h-0.771c-1.106,0-2-0.894-2-2
		c0-1.103,0.894-2,2-2h0.771C234.642,195.237,235.538,196.134,235.538,197.237 M196.462,158.44l9.09-4.482
		c0.816-0.402,1.797-0.205,2.392,0.479l7.436,8.515c0.574,0.656,0.656,1.61,0.203,2.356c-0.369,0.605-1.021,0.961-1.709,0.961
		c-0.158,0-0.316-0.02-0.475-0.057l-16.527-4.035c-0.816-0.199-1.422-0.889-1.514-1.725
		C195.267,159.616,195.708,158.812,196.462,158.44 M189.485,185.136c0.702-0.584,1.709-0.617,2.45-0.084l3.507,2.535
		c0.678,0.49,0.981,1.35,0.758,2.154c-0.222,0.807-0.924,1.389-1.756,1.459l-7.322,0.633c-0.057,0.006-0.115,0.008-0.172,0.008
		c-0.804,0-1.539-0.485-1.849-1.24c-0.332-0.809-0.1-1.739,0.572-2.297L189.485,185.136z M188.97,205.687c0,1.105-0.897,2-2,2
		h-0.772c-1.103,0-2-0.895-2-2c0-1.104,0.897-2,2-2h0.772C188.073,203.687,188.97,204.583,188.97,205.687 M173.595,117.69
		l7.775-3.822c0.574-0.281,1.25-0.273,1.817,0.028c0.566,0.298,0.955,0.849,1.044,1.484l0.932,6.496
		c0.098,0.678-0.158,1.357-0.68,1.803c-0.367,0.314-0.828,0.48-1.298,0.48c-0.198,0-0.395-0.029-0.588-0.088l-8.707-2.673
		c-0.784-0.241-1.342-0.936-1.407-1.752C172.419,118.827,172.858,118.054,173.595,117.69 M180.085,132.519c0,1.105-0.896,2-2,2
		h-0.771c-1.106,0-2-0.895-2-2c0-1.104,0.894-2,2-2h0.771C179.189,130.519,180.085,131.415,180.085,132.519 M158.444,149.726h0.772
		c1.103,0,2,0.896,2,2c0,1.105-0.897,2-2,2h-0.772c-1.105,0-2-0.895-2-2C156.444,150.622,157.339,149.726,158.444,149.726
		 M155.439,188.886c0,1.105-0.897,2-2,2h-0.772c-1.103,0-2-0.895-2-2c0-1.104,0.897-2,2-2h0.772
		C154.542,186.886,155.439,187.782,155.439,188.886 M148.817,176.688h-0.771c-1.104,0-2-0.894-2-2c0-1.103,0.896-2,2-2h0.771
		c1.104,0,2,0.897,2,2C150.817,175.794,149.921,176.688,148.817,176.688 M150.356,123.001h0.772c1.103,0,2,0.897,2,2
		c0,1.105-0.897,2-2,2h-0.772c-1.103,0-2-0.895-2-2C148.356,123.898,149.253,123.001,150.356,123.001 M136.708,160.226
		c0.26-0.827,1.022-1.391,1.887-1.401l10.984-0.111c0.83,0.019,1.606,0.515,1.897,1.309c0.293,0.792,0.056,1.683-0.592,2.226
		l-5.125,4.289c-0.371,0.309-0.826,0.465-1.283,0.465c-0.407,0-0.813-0.123-1.162-0.371l-5.86-4.178
		C136.749,161.952,136.448,161.052,136.708,160.226 M112.593,133.331c0.26-0.826,1.021-1.391,1.887-1.4l16.941-0.174h0.021
		c0.836,0,1.586,0.521,1.875,1.308c0.293,0.791,0.057,1.684-0.591,2.225l-7.905,6.617c-0.369,0.311-0.826,0.467-1.283,0.467
		c-0.406,0-0.812-0.123-1.162-0.371l-9.037-6.443C112.634,135.058,112.333,134.157,112.593,133.331 M122.136,184.222h0.771
		c1.104,0,2,0.896,2,2c0,1.105-0.896,2-2,2h-0.771c-1.106,0-2-0.895-2-2C120.136,185.118,121.03,184.222,122.136,184.222
		 M119.935,150.384c-1.104,0-2-0.895-2-2c0-1.104,0.896-2,2-2h0.771c1.104,0,2,0.896,2,2c0,1.105-0.896,2-2,2H119.935z
		 M124.556,169.175c-1.104,0-2-0.895-2-2c0-1.104,0.896-2,2-2h0.771c1.104,0,2,0.896,2,2c0,1.105-0.896,2-2,2H124.556z
		 M96.983,169.435h0.772c1.103,0,2,0.896,2,2c0,1.105-0.897,2-2,2h-0.772c-1.103,0-2-0.895-2-2
		C94.983,170.331,95.88,169.435,96.983,169.435 M84.507,147.638h0.771c1.104,0,2,0.896,2,2c0,1.105-0.896,2-2,2h-0.771
		c-1.106,0-2-0.895-2-2C82.507,148.534,83.401,147.638,84.507,147.638 M60.497,173.612c0,1.106-0.896,2-2,2c-1.105,0-2-0.894-2-2
		v-0.834c0-1.103,0.895-2,2-2c1.104,0,2,0.897,2,2V173.612z M75.372,174.509c0,1.105-0.894,2-2,2c-1.103,0-2-0.895-2-2v-0.834
		c0-1.104,0.897-2,2-2c1.106,0,2,0.896,2,2V174.509z M83.638,189.296c0,1.105-0.895,2-2,2c-1.104,0-2-0.895-2-2v-0.834
		c0-1.104,0.896-2,2-2c1.105,0,2,0.896,2,2V189.296z M139.425,221.616c0,1.106-0.895,2-2,2c-1.104,0-2-0.894-2-2v-0.832
		c0-1.103,0.896-2,2-2c1.105,0,2,0.897,2,2V221.616z M244.39,228.276c0,1.106-0.897,2-2,2c-1.106,0-2-0.894-2-2v-0.834
		c0-1.103,0.894-2,2-2c1.103,0,2,0.897,2,2V228.276z M268.439,218.651l-11,11.395c-0.385,0.398-0.909,0.611-1.44,0.611
		c-0.285,0-0.572-0.06-0.842-0.187c-0.773-0.36-1.234-1.17-1.146-2.02l1.974-19.054c0.077-0.739,0.557-1.373,1.245-1.651
		c0.689-0.277,1.474-0.15,2.039,0.332l9.025,7.662c0.422,0.358,0.676,0.873,0.703,1.426
		C269.026,217.716,268.823,218.255,268.439,218.651 M278.274,205.487c0,1.106-0.894,2-2,2c-1.103,0-2-0.894-2-2v-0.834
		c0-1.103,0.897-2,2-2c1.106,0,2,0.897,2,2V205.487z M319.128,150.585l-19.406,16.246c0.355-0.326,0.826-0.531,1.347-0.531
		c1.104,0,2,0.896,2,2v0.834c0,1.105-0.896,2-2,2c-1.105,0-2-0.895-2-2V168.3c0-0.551,0.223-1.049,0.584-1.41l-85.566,71.631v25.812
		c0,1.381-1.119,2.5-2.5,2.5s-2.5-1.119-2.5-2.5V238.94l-58.918-30.378v0.449c0,1.105-0.895,2-2,2c-1.104,0-2-0.895-2-2v-0.836
		c0-0.539,0.217-1.026,0.564-1.387l-17.658-9.103c0.006,0.062,0.02,0.123,0.02,0.185v0.834c0,1.106-0.897,2-2,2
		c-1.106,0-2-0.894-2-2v-0.834c0-0.738,0.404-1.377,1-1.722l-75.252-38.803c-1.229-0.633-1.709-2.141-1.076-3.367
		c0.63-1.229,2.138-1.711,3.367-1.077l22.99,11.856c-0.348-0.361-0.562-0.848-0.562-1.389c0-1.103,0.894-2,2-2h0.771
		c1.104,0,2,0.897,2,2c0,1.106-0.896,2-2,2h-0.771c-0.106,0-0.207-0.015-0.309-0.031l76.254,39.32
		c-0.158-0.287-0.256-0.611-0.256-0.961c0-1.103,0.895-2,2-2h0.771c1.104,0,2,0.897,2,2c0,1.106-0.896,2-2,2h-0.5l55.686,28.713
		l46.246-38.713l-3.137,0.977c-0.195,0.06-0.396,0.09-0.595,0.09c-0.451,0-0.897-0.153-1.258-0.446
		c-0.52-0.419-0.795-1.072-0.733-1.736l0.709-7.742c0.061-0.656,0.44-1.24,1.014-1.563c0.574-0.32,1.272-0.339,1.861-0.05
		l9.223,4.539l42.557-35.627c-0.098,0.013-0.196,0.029-0.297,0.029h-0.77c-1.105,0-2-0.894-2-2c0-1.104,0.895-2,2-2h0.77
		c1.103,0,2,0.896,2,2c0,0.227-0.047,0.439-0.115,0.643l7.236-6.059c1.059-0.885,2.637-0.748,3.521,0.312
		C320.327,148.122,320.187,149.698,319.128,150.585"/>
	<polygon style="fill:#FFFFFF;" points="205.943,158.226 203.164,159.595 208.214,160.828 	"/>
	<polygon style="fill:#FFFFFF;" points="125.869,135.816 120.664,135.869 123.441,137.849 	"/>
	<polygon style="fill:#FFFFFF;" points="279.831,144.04 279.339,144.706 280.634,144.476 	"/>
	<polygon style="fill:#FFFFFF;" points="66.64,143.388 62.919,146.48 70.062,145.863 	"/>
	<polygon style="fill:#FFFFFF;" points="180.663,118.673 179.888,119.056 180.757,119.321 	"/>
	<polygon style="fill:#FFFFFF;" points="255.988,191.962 258.412,191.208 256.16,190.099 	"/>
	<polygon style="fill:#FFFFFF;" points="258.587,223.099 264.081,217.408 259.573,213.581 	"/>
</g>
</svg>
