<?xml version="1.0" encoding="iso-8859-1"?>
<!-- Generator: Adobe Illustrator 25.4.1, SVG Export Plug-In . SVG Version: 6.00 Build 0)  -->
<svg version="1.1" id="Calque_1" xmlns="http://www.w3.org/2000/svg" xmlns:xlink="http://www.w3.org/1999/xlink" x="0px" y="0px"
	 viewBox="0 0 368.5 368.5" style="enable-background:new 0 0 368.5 368.5;" xml:space="preserve">
<rect x="159.512" y="254.723" style="fill:#FFFFFF;" width="95.986" height="5.64"/>
<polygon style="fill:#FFFFFF;" points="153.512,262.162 153.512,257.091 107.727,295.38 107.727,299.318 "/>
<polygon style="fill:#FFFFFF;" points="157.857,266.363 113.183,302.616 205.367,302.616 250.039,266.363 "/>
<polygon style="fill:#FFFFFF;" points="198.877,135.446 198.877,132.465 128.707,132.465 125.035,135.446 "/>
<polygon style="fill:#FFFFFF;" points="205.877,134.785 244.348,103.562 238.744,103.562 205.877,130.235 "/>
<g>
	<path style="fill:#FFFFFF;" d="M155.238,103.865H72.101c-0.318,0-0.617-0.061-0.906-0.151l-28.678,22.609v7.858h75.364
		L155.238,103.865z"/>
	<path style="fill:#FFFFFF;" d="M71.439,171.87l38.852-31.527H42.517v33.884h27.799C70.326,173.344,70.699,172.471,71.439,171.87"/>
	<polygon style="fill:#FFFFFF;" points="202.041,65.884 119.182,65.884 78.82,97.704 162.83,97.704 	"/>
	<path style="fill:#FFFFFF;" d="M157.672,174.227c0.01-0.885,0.383-1.758,1.125-2.358l38.848-31.527h-77.58l-41.754,33.885H157.672z
		"/>
	<polygon style="fill:#FFFFFF;" points="207.42,140.342 165.664,174.227 250.201,174.227 293.184,140.342 	"/>
	<path style="fill:#FFFFFF;" d="M325.983,97.705v-31.82h-28.66c0.006,0.903-0.369,1.8-1.125,2.413L259.96,97.705H325.983z"/>
	<polygon style="fill:#FFFFFF;" points="325.983,114.486 325.983,103.865 252.37,103.865 215.01,134.181 300.999,134.181 	"/>
	<path style="fill:#FFFFFF;" d="M250.186,97.705l39.209-31.82h-79.428c0.006,0.903-0.369,1.799-1.125,2.412l-36.236,29.408H250.186z
		"/>
	<polygon style="fill:#FFFFFF;" points="179.676,232.212 179.676,217.249 187.639,217.249 167.85,192.391 149.026,217.249 
		156.506,217.249 156.506,232.212 	"/>
</g>
</svg>
