<?xml version="1.0" encoding="iso-8859-1"?>
<!-- Generator: Adobe Illustrator 25.4.1, SVG Export Plug-In . SVG Version: 6.00 Build 0)  -->
<svg version="1.1" id="Calque_1" xmlns="http://www.w3.org/2000/svg" xmlns:xlink="http://www.w3.org/1999/xlink" x="0px" y="0px"
	 viewBox="0 0 368.5 368.5" style="enable-background:new 0 0 368.5 368.5;" xml:space="preserve">
<polygon style="fill:#FFFFFF;" points="173.045,267.676 173.045,263.992 46.586,173.886 46.573,177.892 172.455,268.085 "/>
<g>
	<path style="fill:#FFFFFF;" d="M157.505,232.389l17.678,12.596c0.144-0.026,0.292-0.045,0.444-0.045
		c0.145,0,0.285,0.019,0.423,0.042l143.057-59.217l-19.038-13.129c-0.063,0.033-0.121,0.074-0.188,0.103L157.505,232.389z"/>
	<polygon style="fill:#FFFFFF;" points="49.138,155.173 65.641,166.934 206.331,107.989 192.743,98.618 	"/>
	<polygon style="fill:#FFFFFF;" points="154.887,244.914 173.128,257.911 173.128,249.66 154.887,236.664 	"/>
	<polygon style="fill:#FFFFFF;" points="87.435,182.461 228.574,123.328 211.221,111.36 70.433,170.346 	"/>
	<polygon style="fill:#FFFFFF;" points="178.128,258.513 321.811,199.037 321.811,190.058 178.128,249.534 	"/>
	<polygon style="fill:#FFFFFF;" points="111.304,213.86 128.596,226.181 128.596,217.93 111.304,205.609 	"/>
	<polygon style="fill:#FFFFFF;" points="90.765,199.225 106.304,210.297 106.304,202.045 90.765,190.974 	"/>
	<path style="fill:#FFFFFF;" d="M85.765,195.662v-8.251l-16.791-11.964v8.02c0,0.074-0.016,0.143-0.021,0.216L85.765,195.662z"/>
	<polygon style="fill:#FFFFFF;" points="135.176,216.479 152.714,228.975 295.201,169.278 277.3,156.934 	"/>
	<polygon style="fill:#FFFFFF;" points="92.226,185.876 108.849,197.72 250.431,138.401 233.464,126.701 	"/>
	<path style="fill:#FFFFFF;" d="M113.64,201.133l16.77,11.949c0.074-0.04,0.142-0.087,0.222-0.12l141.779-59.401l-17.091-11.787
		L113.64,201.133z"/>
	<polygon style="fill:#FFFFFF;" points="46.433,167.637 63.973,180.137 63.973,171.885 46.433,159.385 	"/>
	<path style="fill:#FFFFFF;" d="M133.596,221.492v7.81c0,0.141-0.019,0.277-0.042,0.412l16.332,11.637V233.1L133.596,221.492z"/>
	<polygon style="fill:#FFFFFF;" points="178.045,264.975 178.045,269.882 203.127,258.959 203.127,254.051 	"/>
	<polygon style="fill:#FFFFFF;" points="296.985,220.874 322.067,209.949 322.067,205.042 296.985,215.965 	"/>
	<polygon style="fill:#FFFFFF;" points="238.462,245.022 263.544,234.099 263.544,229.191 238.462,240.114 	"/>
</g>
</svg>
