<?xml version="1.0" encoding="iso-8859-1"?>
<!-- Generator: Adobe Illustrator 25.4.1, SVG Export Plug-In . SVG Version: 6.00 Build 0)  -->
<svg version="1.1" id="Calque_1" xmlns="http://www.w3.org/2000/svg" xmlns:xlink="http://www.w3.org/1999/xlink" x="0px" y="0px"
	 viewBox="0 0 368.5 368.5" style="enable-background:new 0 0 368.5 368.5;" xml:space="preserve">
<g>
	<path style="fill:#FFFFFF;" d="M93.819,181.894c-0.126,0.403,0.014,0.837,0.354,1.084l41.867,30.348
		c0.17,0.117,0.364,0.183,0.569,0.183h87.12c0.42,0,0.791-0.269,0.921-0.668c0.129-0.398-0.014-0.835-0.353-1.084l-41.871-30.346
		c-0.165-0.12-0.365-0.185-0.566-0.185H94.74C94.324,181.226,93.947,181.499,93.819,181.894"/>
	<path style="fill:#FFFFFF;" d="M92.091,186.397c-0.14,0-0.279,0.031-0.411,0.096c-0.306,0.156-0.501,0.469-0.501,0.814v4.212
		c0,0.286,0.137,0.56,0.369,0.73l7.833,5.816c0.16,0.117,0.351,0.179,0.543,0.179c0.14,0,0.28-0.032,0.408-0.097
		c0.309-0.156,0.504-0.47,0.504-0.814v-4.211c0-0.286-0.137-0.556-0.371-0.73l-7.831-5.816
		C92.472,186.459,92.282,186.397,92.091,186.397"/>
	<path style="fill:#FFFFFF;" d="M116.608,208.944v-4.212c0-0.29-0.136-0.563-0.37-0.735l-7.887-5.792
		c-0.16-0.12-0.35-0.177-0.54-0.177c-0.141,0-0.281,0.031-0.41,0.096c-0.307,0.154-0.501,0.47-0.501,0.813v4.212
		c0,0.289,0.139,0.564,0.374,0.734l7.885,5.794c0.159,0.119,0.349,0.177,0.539,0.177c0.14,0,0.281-0.034,0.411-0.099
		C116.417,209.599,116.608,209.285,116.608,208.944"/>
	<path style="fill:#FFFFFF;" d="M131.472,221.441c0.144,0,0.284-0.032,0.413-0.098c0.306-0.156,0.501-0.469,0.501-0.812v-4.211
		c0-0.289-0.14-0.562-0.374-0.734l-7.888-5.796c-0.16-0.115-0.349-0.173-0.538-0.173c-0.141,0-0.281,0.03-0.411,0.097
		c-0.306,0.154-0.501,0.468-0.501,0.811v4.214c0,0.288,0.14,0.562,0.374,0.733l7.888,5.795
		C131.094,221.383,131.284,221.441,131.472,221.441"/>
	<path style="fill:#FFFFFF;" d="M225.594,218.37h-87.352c-0.503,0-0.912,0.408-0.912,0.91v4.212c0,0.503,0.409,0.91,0.912,0.91
		h87.352c0.504,0,0.91-0.407,0.91-0.91v-4.212C226.504,218.778,226.098,218.37,225.594,218.37"/>
	<path style="fill:#FFFFFF;" d="M87.379,176.208c0.168,0.12,0.366,0.184,0.568,0.184h87.121c0.418,0,0.79-0.27,0.919-0.668
		c0.13-0.4-0.011-0.836-0.351-1.084l-41.869-30.345c-0.169-0.122-0.366-0.186-0.569-0.186H46.077c-0.419,0-0.791,0.272-0.921,0.671
		c-0.13,0.398,0.014,0.833,0.356,1.082L87.379,176.208z"/>
	<path style="fill:#FFFFFF;" d="M50.719,160.946c0.16,0.118,0.351,0.18,0.543,0.18c0.14,0,0.279-0.032,0.409-0.097
		c0.306-0.156,0.502-0.47,0.502-0.814v-4.211c0-0.289-0.136-0.559-0.368-0.733l-7.832-5.815c-0.16-0.118-0.352-0.177-0.543-0.177
		c-0.14,0-0.279,0.029-0.409,0.096c-0.308,0.154-0.501,0.468-0.501,0.813v4.213c0,0.287,0.137,0.56,0.368,0.73L50.719,160.946z"/>
	<path style="fill:#FFFFFF;" d="M67.038,172.735c0.141,0,0.281-0.032,0.41-0.098c0.307-0.154,0.502-0.469,0.502-0.81v-4.214
		c0-0.29-0.14-0.563-0.375-0.735l-7.887-5.792c-0.16-0.119-0.349-0.177-0.538-0.177c-0.142,0-0.281,0.032-0.412,0.098
		c-0.306,0.155-0.5,0.469-0.5,0.812v4.212c0,0.29,0.14,0.563,0.374,0.733l7.888,5.797C66.658,172.677,66.848,172.735,67.038,172.735
		"/>
	<path style="fill:#FFFFFF;" d="M82.811,184.325c0.142,0,0.282-0.033,0.411-0.098c0.305-0.152,0.501-0.469,0.501-0.81v-4.216
		c0-0.289-0.139-0.562-0.374-0.735l-7.884-5.795c-0.161-0.115-0.351-0.172-0.54-0.172c-0.14,0-0.281,0.032-0.414,0.097
		c-0.305,0.155-0.496,0.47-0.496,0.811v4.211c0,0.289,0.137,0.562,0.371,0.735l7.885,5.795
		C82.431,184.266,82.622,184.325,82.811,184.325"/>
	<path style="fill:#FFFFFF;" d="M281.91,181.411c-0.168-0.12-0.366-0.185-0.567-0.185h-87.124c-0.416,0-0.789,0.273-0.919,0.668
		c-0.128,0.403,0.011,0.837,0.354,1.084l41.868,30.347c0.167,0.117,0.365,0.184,0.568,0.184h87.119c0.419,0,0.79-0.27,0.922-0.668
		c0.127-0.398-0.014-0.835-0.353-1.084L281.91,181.411z"/>
	<path style="fill:#FFFFFF;" d="M325.984,223.492v-4.212c0-0.502-0.41-0.91-0.913-0.91h-87.349c-0.502,0-0.912,0.408-0.912,0.91
		v4.212c0,0.502,0.41,0.91,0.912,0.91h87.349C325.574,224.402,325.984,223.994,325.984,223.492"/>
	<path style="fill:#FFFFFF;" d="M186.861,176.208c0.168,0.12,0.364,0.184,0.567,0.184h87.119c0.423,0,0.792-0.27,0.924-0.668
		c0.128-0.4-0.015-0.836-0.354-1.083l-41.87-30.346c-0.167-0.122-0.366-0.186-0.566-0.186h-87.123c-0.417,0-0.791,0.271-0.92,0.671
		c-0.126,0.398,0.015,0.833,0.353,1.084L186.861,176.208z"/>
</g>
</svg>
