<?xml version="1.0" encoding="iso-8859-1"?>
<!-- Generator: Adobe Illustrator 25.4.1, SVG Export Plug-In . SVG Version: 6.00 Build 0)  -->
<svg version="1.1" id="Calque_1" xmlns="http://www.w3.org/2000/svg" xmlns:xlink="http://www.w3.org/1999/xlink" x="0px" y="0px"
	 viewBox="0 0 368.5 368.5" style="enable-background:new 0 0 368.5 368.5;" xml:space="preserve">
<g>
	<path style="fill:#FFFFFF;" d="M90.722,252.871c2.002,0,3.953,0.205,5.853,0.557l20.06-20.059
		c-6.549-2.51-13.659-3.904-21.095-3.904c-4.199,0-8.512,0.494-12.849,1.473l-5.644,24.986
		C81.292,253.931,85.967,252.871,90.722,252.871"/>
	<path style="fill:#FFFFFF;" d="M117.432,267.245c3.268,4.955,5.185,10.859,5.185,17.206c0,5.988-1.67,11.709-4.795,16.66
		l35.135-2.807c0.737-3.721,1.111-7.407,1.111-10.987c0-15.611-6.299-29.788-16.503-40.205L117.432,267.245z"/>
	<path style="fill:#FFFFFF;" d="M262.952,68.858v18.196l7.92-7.919c2.313-2.315,5.392-3.59,8.668-3.59
		c3.274,0,6.35,1.273,8.665,3.584c4.774,4.782,4.774,12.559,0.004,17.342l-9.084,9.083l16.535,3.305
		c2.984-0.073,5.777-1.267,7.892-3.385l14.355-14.366c2.479-2.3,3.796-5.317,3.796-8.576V60.351c0-6.731-6.307-12.531-12.197-13.721
		l-20.515-4.101c-3.048,0.073-5.886,1.316-8.017,3.513l-14.459,14.459C264.204,62.739,262.952,65.693,262.952,68.858 M303.29,68.563
		c0-1.151,0.933-2.083,2.083-2.083c1.151,0,2.083,0.932,2.083,2.083v24.836c0,1.151-0.932,2.083-2.083,2.083
		c-1.15,0-2.083-0.932-2.083-2.083V68.563z"/>
	<path style="fill:#FFFFFF;" d="M202.312,173.53l22.72-22.72v-13.731c0-1.329,0.2-2.608,0.556-3.823l-35.884,35.884L202.312,173.53z
		"/>
	<path style="fill:#FFFFFF;" d="M89.473,269.369c3.156,0.661,5.883,2.065,8.005,4.186c0.82,0.82,1.49,1.748,2.086,2.722
		l88.491-88.489l-12.604-4.396L89.473,269.369z"/>
	<path style="fill:#FFFFFF;" d="M234.852,123.992c1.215-0.356,2.496-0.555,3.825-0.555c3.783,0,7.21,1.55,9.683,4.046l35.428-35.429
		c2.339-2.345,2.34-6.161-0.001-8.507c-1.133-1.129-2.641-1.753-4.246-1.753c-1.606,0-3.115,0.624-4.25,1.759L234.852,123.992z"/>
	<path style="fill:#FFFFFF;" d="M212.936,189.845c2.788,1.019,5.491,1.528,8.082,1.528h0.155c5.738,0,11.213-2.893,14.645-7.739
		c2.355-3.271,3.905-7.197,4.528-11.347c-0.548,0.068-1.102,0.112-1.669,0.112c-1.385,0-2.722-0.211-3.983-0.596
		c-0.533,3.133-1.75,6.199-3.456,8.495c-2.801,3.684-5.932,5.344-10.172,5.409h-0.003c-1.972,0-4.047-0.402-6.219-1.196
		l-49.437-17.228c-11.717-5.36-18.276-14.591-18.495-26.006c-0.74,0.125-1.493,0.204-2.267,0.204c-1.179,0-2.316-0.167-3.408-0.448
		v0.013c-0.115,13.495,8.351,25.562,22.094,31.52l0.112,0.049L212.936,189.845z"/>
	<path style="fill:#FFFFFF;" d="M137.249,106.156v21.681c0,4.076,3.318,7.394,7.395,7.394c4.077,0,7.393-3.318,7.393-7.394v-21.681
		c0-4.075-3.316-7.39-7.393-7.39C140.567,98.766,137.249,102.081,137.249,106.156"/>
	<path style="fill:#FFFFFF;" d="M238.677,129.686c-4.078,0-7.395,3.316-7.395,7.392v21.677c0,4.077,3.317,7.395,7.395,7.395
		c4.077,0,7.392-3.318,7.392-7.395v-21.677C246.069,133.002,242.754,129.686,238.677,129.686"/>
	<path style="fill:#FFFFFF;" d="M89.034,313.02c-0.942,0.942-1.916,1.829-2.905,2.681c2.551,3.139,6.887,7.008,13.798,9.058
		c2.767,0.824,5.766,1.227,9.171,1.235c12.033-0.083,23.949-4.9,29.981-7.762c0.148-0.071,0.276-0.129,0.382-0.175h-0.001
		c1.535-0.775,2.155-2.657,1.382-4.195c-0.753-1.495-2.676-2.15-4.186-1.383c-0.027,0.012-0.055,0.026-0.082,0.039
		c-0.321,0.154-1.09,0.524-2.347,1.074c-2.294,1.021-14.346,6.153-24.96,6.153c-2.911,0-5.396-0.327-7.553-0.974
		c-4.643-1.398-8.266-3.841-11.087-7.452C90.105,311.889,89.59,312.465,89.034,313.02"/>
	<path style="fill:#FFFFFF;" d="M86.089,310.074c11.582-11.583,15.37-26.642,8.442-33.573c-2.233-2.234-5.466-3.413-9.347-3.413
		c-3.204,0-6.702,0.842-10.221,2.315l9.84,5.638c0.75,0.259,1.402,0.659,1.942,1.201c3.102,3.108,5.832,13.192-5.517,24.541
		c-7.067,7.065-13.591,8.12-16.85,8.12c-3.186,0-6.06-0.972-7.692-2.603c-0.04-0.041-0.079-0.084-0.117-0.123
		c-0.246-0.227-0.455-0.496-0.618-0.797l-5.46-10.1c-0.295,0.891-0.555,1.782-0.76,2.669c-1.427,6.172-0.438,11.347,2.786,14.569
		c2.235,2.236,5.467,3.416,9.348,3.416C69.492,321.934,78.773,317.389,86.089,310.074"/>
	<path style="fill:#FFFFFF;" d="M61.202,307.954c0.339,0.224,1.377,0.7,3.175,0.7c2.293,0,6.958-0.818,12.433-6.29
		c8.12-8.121,6.551-14.14,5.674-15.501c-0.166-0.059-0.326-0.134-0.48-0.222L58.58,273.216c-3.241-1.963-6.486-1.77-8.86,0.604
		l-1.023,1.024c-2.276,2.278-2.461,5.297-0.547,8.969L61.202,307.954z"/>
</g>
</svg>
