<?xml version="1.0" encoding="iso-8859-1"?>
<!-- Generator: Adobe Illustrator 25.4.1, SVG Export Plug-In . SVG Version: 6.00 Build 0)  -->
<svg version="1.1" id="Calque_1" xmlns="http://www.w3.org/2000/svg" xmlns:xlink="http://www.w3.org/1999/xlink" x="0px" y="0px"
	 viewBox="0 0 368.5 368.5" style="enable-background:new 0 0 368.5 368.5;" xml:space="preserve">
<g>
	<path style="fill:#FFFFFF;" d="M56.564,159.466c0.589-0.614,1.245-1.374,1.925-2.255c-2.366-1.398-6.825-11.184-6.825-28.223
		c0-16.284,4.072-25.944,6.499-27.99c-0.588-0.694-1.096-1.209-1.467-1.557c-0.706-0.662-1.107-1.586-1.107-2.554
		c0-1.396,0.823-2.593,2.004-3.156c-8.868,1.699-12.929,19.058-12.929,35.257c0,15.307,3.627,31.653,11.509,34.839
		c-0.367-0.554-0.584-1.216-0.584-1.931C55.589,160.992,55.939,160.117,56.564,159.466"/>
	<path style="fill:#FFFFFF;" d="M251.276,177.753h-37.449l16.243,52.845h6.833c6.185,0,11.218,5.033,11.218,11.218
		c0,6.164-4.999,11.18-11.156,11.214l2.941,9.567c3.201,10.421,12.67,17.422,23.56,17.422c2.448,0,4.889-0.369,7.254-1.095
		c6.296-1.936,11.461-6.207,14.545-12.028c3.083-5.82,3.716-12.492,1.78-18.787l-22.152-72.076
		C260.557,177.145,255.994,177.753,251.276,177.753"/>
	<path style="fill:#FFFFFF;" d="M180.775,243.642c3.342,1.646,7.168,2.381,12.43,2.391h26.251h16.051c0.349,0,0.848,0,1.396,0.062
		v-0.062c2.326,0,4.218-1.891,4.218-4.217s-1.892-4.218-4.218-4.218h-43.705c-2.622,0-4.785-0.233-6.488-0.695
		c-2.504-0.75-3.68-1.493-5.124-3.209c-1.436-1.798-2.649-4.687-3.568-8.424c-2.319-9.276-9.782-37.843-12.313-47.517h-8.717
		c1.092,4.157,4.449,17.031,5.224,20.007c2.665,10.237,6.153,23.676,7.627,29.57c0.825,3.285,1.743,5.856,2.891,8.089
		C174.583,239.118,177.434,242.027,180.775,243.642"/>
	<path style="fill:#FFFFFF;" d="M323.836,129.387c0-14.487-6.408-27.144-14.589-28.814c-0.219-0.044-0.429-0.109-0.629-0.191
		h-16.613c6.19,7.69,9.857,17.184,9.857,27.45v3.57c0,10.066-3.531,19.385-9.503,26.994h16.252c0.202-0.084,0.415-0.149,0.636-0.194
		C317.428,156.532,323.836,143.875,323.836,129.387"/>
	<path style="fill:#FFFFFF;" d="M294.862,131.402v-3.57c0-21.698-19.553-39.351-43.586-39.351H112.107
		c5.54,8.954,8.399,25.248,8.399,41.418c0,15.832-2.738,31.789-8.05,40.854h138.82C275.309,170.753,294.862,153.1,294.862,131.402
		 M163.244,111.734c0-1.933,1.567-3.5,3.5-3.5s3.5,1.567,3.5,3.5v32.207c0,1.933-1.567,3.5-3.5,3.5s-3.5-1.567-3.5-3.5V111.734z
		 M137.473,143.941c0,1.933-1.567,3.5-3.5,3.5c-1.934,0-3.5-1.567-3.5-3.5v-32.207c0-1.933,1.566-3.5,3.5-3.5
		c1.933,0,3.5,1.567,3.5,3.5V143.941z M146.293,143.941v-32.207c0-1.933,1.567-3.5,3.5-3.5c1.933,0,3.5,1.567,3.5,3.5v32.207
		c0,1.933-1.567,3.5-3.5,3.5C147.86,147.441,146.293,145.874,146.293,143.941"/>
	<path style="fill:#FFFFFF;" d="M102.106,171.317c3.869,0,11.4-14.619,11.4-41.418s-7.531-41.418-11.4-41.418
		c-1.329,0-3.091,1.726-4.83,5.078c0.589,0.184,1.119,0.504,1.529,0.947c7.322,4.309,10.618,20.261,10.618,34.881
		c0,14.616-3.294,30.564-10.612,34.878c-0.513,0.557-1.207,0.934-1.986,1.068C98.708,169.278,100.662,171.317,102.106,171.317"/>
	<path style="fill:#FFFFFF;" d="M94.9,158.396c0.043-0.018,0.087-0.035,0.131-0.051c2.653-0.972,7.393-11.48,7.393-28.958
		c0-17.477-4.74-27.985-7.393-28.956c-0.042-0.016-0.083-0.032-0.124-0.049H66.37c3.554,5.653,7.236,14.912,7.236,29.005
		c0,13.424-3.419,22.731-7.383,29.009H94.9z"/>
</g>
</svg>
