<?xml version="1.0" encoding="iso-8859-1"?>
<!-- Generator: Adobe Illustrator 25.4.1, SVG Export Plug-In . SVG Version: 6.00 Build 0)  -->
<svg version="1.1" id="Calque_1" xmlns="http://www.w3.org/2000/svg" xmlns:xlink="http://www.w3.org/1999/xlink" x="0px" y="0px"
	 viewBox="0 0 368.5 368.5" style="enable-background:new 0 0 368.5 368.5;" xml:space="preserve">
<g>
	<path style="fill:#FFFFFF;" d="M315.454,232.064h-29.885l5.903-1.46c1.781-16.604-0.363-33.842-6.945-50.387l-8.332,13.827
		c-3.985,6.612-12.59,8.725-19.201,4.74c-6.613-3.985-8.726-12.589-4.741-19.201l16.213-26.899
		c-10.929-13.586-24.938-24.032-40.516-30.734l3.894,15.669c1.842,7.487-2.747,15.065-10.235,16.936
		c-7.487,1.842-15.065-2.717-16.936-10.234l-7.548-30.492c-16.606-1.781-33.844,0.362-50.389,6.914l13.827,8.362
		c6.612,3.985,8.756,12.559,4.77,19.171c-4.015,6.612-12.589,8.755-19.201,4.77l-26.931-16.242
		c-13.555,10.959-24.001,24.937-30.734,40.515l15.699-3.864c7.488-1.842,15.066,2.717,16.907,10.204
		c1.872,7.517-2.717,15.095-10.204,16.937l-30.524,7.547c-0.845,7.878-0.8,15.899,0.179,23.921H55.206
		c-6.411,0-11.608,5.197-11.608,11.609c0,6.411,5.197,11.608,11.608,11.608h260.248c6.411,0,11.609-5.197,11.609-11.608
		C327.063,237.262,321.865,232.064,315.454,232.064 M150.132,219.374c0-19.745,16.032-35.776,35.777-35.776
		s35.776,16.031,35.776,35.776c0,4.479-0.87,8.742-2.381,12.69h-17.582c2.794-3.476,4.475-7.885,4.475-12.69
		c0-11.201-9.088-20.288-20.288-20.288c-11.201,0-20.289,9.087-20.289,20.288c0,4.805,1.681,9.214,4.475,12.69h-17.582
		C151.002,228.117,150.132,223.854,150.132,219.374"/>
</g>
</svg>
