<?xml version="1.0" encoding="iso-8859-1"?>
<!-- Generator: Adobe Illustrator 25.4.1, SVG Export Plug-In . SVG Version: 6.00 Build 0)  -->
<svg version="1.1" id="Calque_1" xmlns="http://www.w3.org/2000/svg" xmlns:xlink="http://www.w3.org/1999/xlink" x="0px" y="0px"
	 viewBox="0 0 368.5 368.5" style="enable-background:new 0 0 368.5 368.5;" xml:space="preserve">
<g>
	<path style="fill:#FFFFFF;" d="M126.349,179.48c0.974,0,1.888-0.26,2.68-0.71h-2.448c-2.489,0-4.514-2.024-4.514-4.514
		c0-2.488,2.025-4.513,4.514-4.513h3.138c-0.929-0.733-2.098-1.174-3.37-1.174c-3.008,0-5.456,2.447-5.456,5.455
		S123.341,179.48,126.349,179.48"/>
	<path style="fill:#FFFFFF;" d="M116.372,325.982h135.754V42.517H116.372V325.982z M129.245,196.745
		c0,1.775-1.443,3.219-3.217,3.219c-1.774,0-3.217-1.444-3.217-3.219v-5.273c0-1.774,1.443-3.217,3.217-3.217
		c1.774,0,3.217,1.443,3.217,3.217V196.745z M234.291,306.428c0,1.381-1.119,2.5-2.5,2.5H136.97c-1.381,0-2.5-1.119-2.5-2.5v-81.809
		c0-1.381,1.119-2.5,2.5-2.5h94.821c1.381,0,2.5,1.119,2.5,2.5V306.428z M234.291,204.819c0,1.381-1.119,2.5-2.5,2.5H136.97
		c-1.381,0-2.5-1.119-2.5-2.5v-21.178c0-1.381,1.119-2.5,2.5-2.5h94.821c1.381,0,2.5,1.119,2.5,2.5V204.819z M134.47,71.275
		c0-1.381,1.119-2.5,2.5-2.5h12.711c4.235-6.779,17.715-11.386,33.928-11.386c16.214,0,29.693,4.607,33.927,11.386h14.255
		c1.381,0,2.5,1.119,2.5,2.5v92.565c0,1.381-1.119,2.5-2.5,2.5H136.97c-1.381,0-2.5-1.119-2.5-2.5V71.275z M126.349,165.569
		c3.099,0,5.806,1.681,7.278,4.174h8.719c2.49,0,4.515,2.025,4.515,4.514s-2.025,4.514-4.515,4.514h-9.004
		c-1.523,2.236-4.089,3.709-6.993,3.709c-4.663,0-8.456-3.793-8.456-8.456C117.893,169.362,121.686,165.569,126.349,165.569"/>
	<path style="fill:#FFFFFF;" d="M143.267,299.022c-0.003-0.037-0.011-0.073-0.011-0.111v-65.966l-3.786-3.414v72.845
		L143.267,299.022z"/>
	<path style="fill:#FFFFFF;" d="M224.6,79.795v75.176l4.691,4.301V75.527l-4.653,4.244C224.627,79.781,224.612,79.784,224.6,79.795"
		/>
	<polygon style="fill:#FFFFFF;" points="141.965,186.141 144.616,188.342 223.379,188.342 226.42,186.141 	"/>
	<polygon style="fill:#FFFFFF;" points="226.018,190.135 226.018,198.605 229.291,200.963 229.291,187.766 	"/>
	<path style="fill:#FFFFFF;" d="M224.004,200.852c-0.089-0.064-0.168-0.138-0.239-0.217h-78.822
		c-0.099,0.134-0.215,0.256-0.36,0.354l-1.957,1.33h83.415L224.004,200.852z"/>
	<path style="fill:#FFFFFF;" d="M145.869,77.196c0.033,0.029,0.058,0.063,0.087,0.094h8.628l-3.514-3.514h-9.081L145.869,77.196z"/>
	<path style="fill:#FFFFFF;" d="M222.908,77.29l3.852-3.515h-10.746c-0.095,0-0.189-0.01-0.282-0.021l-4.114,3.536H222.908z"/>
	<path style="fill:#FFFFFF;" d="M141.274,227.119l3.471,3.129c0.004,0,0.008-0.001,0.011-0.001h79.191
		c0.064,0,0.126,0.011,0.188,0.019l3.267-3.147H141.274z"/>
	<path style="fill:#FFFFFF;" d="M158.023,76.487c3.772-5.355,14.532-9.465,25.551-9.465c10.596,0,20.949,3.802,25.083,8.856
		l4.822-4.145c-2.431-4.67-13.97-9.344-29.869-9.344c-16.267,0-27.963,4.891-30.017,9.667L158.023,76.487z"/>
	<polygon style="fill:#FFFFFF;" points="142.705,190.656 139.471,187.97 139.471,200.837 142.705,198.639 	"/>
	<polygon style="fill:#FFFFFF;" points="226.82,303.928 223.168,300.411 146.228,300.411 142.245,303.928 	"/>
	<path style="fill:#FFFFFF;" d="M225.447,233.162v65.279l3.844,3.703v-72.679l-3.826,3.685
		C225.46,233.155,225.452,233.156,225.447,233.162"/>
	<polygon style="fill:#FFFFFF;" points="227.11,161.34 222.5,157.114 146.268,157.114 141.723,161.34 	"/>
	<polygon style="fill:#FFFFFF;" points="143.745,155.363 143.745,79.324 139.47,75.556 139.47,159.34 	"/>
	<rect x="146.256" y="233.247" style="fill:#FFFFFF;" width="76.191" height="64.164"/>
	<rect x="145.705" y="191.343" style="fill:#FFFFFF;" width="77.313" height="6.293"/>
	<path style="fill:#FFFFFF;" d="M146.745,154.114H221.6V80.29h-12.894c-0.617,0-1.171-0.378-1.396-0.951
		c-1.731-4.407-11.905-9.317-23.737-9.317c-11.831,0-22.005,4.91-23.737,9.317c-0.226,0.573-0.78,0.951-1.396,0.951h-11.695V154.114
		z"/>
	<path style="fill:#FFFFFF;" d="M126.581,172.743c-0.834,0-1.514,0.679-1.514,1.514s0.68,1.514,1.514,1.514h15.765
		c0.836,0,1.515-0.679,1.515-1.514s-0.679-1.514-1.515-1.514H126.581z"/>
</g>
</svg>
