<?xml version="1.0" encoding="iso-8859-1"?>
<!-- Generator: Adobe Illustrator 25.4.1, SVG Export Plug-In . SVG Version: 6.00 Build 0)  -->
<svg version="1.1" id="Calque_1" xmlns="http://www.w3.org/2000/svg" xmlns:xlink="http://www.w3.org/1999/xlink" x="0px" y="0px"
	 viewBox="0 0 368.5 368.5" style="enable-background:new 0 0 368.5 368.5;" xml:space="preserve">
<polygon style="fill:#FFFFFF;" points="187.883,151.024 294.69,114.845 187.883,78.665 "/>
<polygon style="fill:#FFFFFF;" points="180.053,79.15 74.273,114.98 180.053,150.813 "/>
<g>
	<path style="fill:#FFFFFF;" d="M221.495,195.001c-1.425,0-2.842-0.163-4.211-0.487c-5.534-1.302-8.546-4.31-8.87-4.649
		l-20.531-23.751v147.149c0,2.161-1.754,3.915-3.916,3.915c-2.161,0-3.915-1.754-3.915-3.915V166.841l-19.764,22.871
		c-0.462,0.492-3.474,3.5-9.011,4.802c-1.371,0.324-2.788,0.487-4.213,0.487c-3.196,0-5.574-0.823-6.257-1.088l-74.37-25.194
		v107.763c0,0-0.049,0.857,0,2.08v2.396l0.204-0.069c0.239,1.731,0.724,3.599,1.69,4.851c2.149,2.786,6.808,4.213,6.808,4.213
		l101.783,34.727c0,0,2.995,1.305,7.547,1.305c4.563,0,7.749-1.384,7.749-1.384l101.546-34.648c0,0,4.66-1.427,6.811-4.213
		c0.966-1.252,1.45-3.12,1.693-4.853l0.203,0.071v-2.419c0.049-1.211,0-2.057,0-2.057v-107.88l-74.718,25.311
		C227.069,194.178,224.691,195.001,221.495,195.001"/>
	<path style="fill:#FFFFFF;" d="M62.074,110.848l115.163-39.013l-22.872-26.469c0.002,0.006,0.005,0.008,0.005,0.008
		c-0.023,0-1.725-1.562-4.886-2.307c-0.785-0.186-1.598-0.278-2.422-0.278c-1.993,0-3.4,0.549-3.415,0.556L40.454,78.27
		c0,0-2.615,0.627-3.015,2.195c-0.5,1.968,0.504,2.952,0.515,2.959l0.459,0.451l23.159,26.802L62.074,110.848z"/>
	<path style="fill:#FFFFFF;" d="M154.54,184.402l22.696-26.274L61.799,119.02l-23.845,27.515c-0.089,0.097-0.989,1.084-0.512,2.962
		c0.4,1.568,3.028,2.195,3.053,2.2l0.482,0.13l102.706,34.803c0,0,1.407,0.54,3.382,0.54c0.823,0,1.636-0.094,2.419-0.278
		C152.758,186.12,154.469,184.471,154.54,184.402"/>
	<path style="fill:#FFFFFF;" d="M328.106,78.003l-0.52-0.138L224.872,43.06c0,0-1.404-0.54-3.377-0.54
		c-0.823,0-1.634,0.094-2.414,0.278c-2.972,0.7-4.657,2.123-4.996,2.434l-22.759,26.332l115.443,39.106l23.843-27.515
		c0.089-0.097,0.986-1.079,0.504-2.95C330.721,78.648,328.134,78.008,328.106,78.003"/>
	<path style="fill:#FFFFFF;" d="M191.329,158.128l22.871,26.465c-0.002-0.005-0.005-0.007-0.005-0.007
		c0.023,0,1.726,1.562,4.884,2.306c0.782,0.184,1.595,0.278,2.416,0.278c1.996,0,3.408-0.55,3.423-0.556l103.188-34.925
		c0,0,2.613-0.627,3.008-2.189c0.484-1.886-0.413-2.868-0.597-3.046l-0.364-0.37l-23.384-27.064L191.329,158.128z"/>
</g>
</svg>
