<?xml version="1.0" encoding="iso-8859-1"?>
<!-- Generator: Adobe Illustrator 25.4.1, SVG Export Plug-In . SVG Version: 6.00 Build 0)  -->
<svg version="1.1" id="Calque_1" xmlns="http://www.w3.org/2000/svg" xmlns:xlink="http://www.w3.org/1999/xlink" x="0px" y="0px"
	 viewBox="0 0 368.5 368.5" style="enable-background:new 0 0 368.5 368.5;" xml:space="preserve">
<rect x="136.248" y="48.327" style="fill:#FFFFFF;" width="4.909" height="21.642"/>
<rect x="154.065" y="48.327" style="fill:#FFFFFF;" width="4.908" height="21.642"/>
<rect x="180.789" y="48.327" style="fill:#FFFFFF;" width="4.146" height="21.642"/>
<rect x="171.881" y="48.327" style="fill:#FFFFFF;" width="4.908" height="21.642"/>
<rect x="128.746" y="48.327" style="fill:#FFFFFF;" width="3.502" height="21.642"/>
<rect x="162.973" y="48.327" style="fill:#FFFFFF;" width="4.908" height="21.642"/>
<rect x="145.157" y="48.327" style="fill:#FFFFFF;" width="4.907" height="21.642"/>
<g>
	<path style="fill:#FFFFFF;" d="M120.205,320.173h128.09c11.292,0,20.48-9.187,20.48-20.479V136.886
		c0-12.695-7.286-23.387-22.278-32.688l-47.172-27.229h-79.12c-11.292,0-20.479,9.186-20.479,20.477v202.248
		C99.726,310.986,108.913,320.173,120.205,320.173 M185.18,118.211c36.838,0.008,66.812,29.981,66.815,66.817
		c-0.003,36.838-29.977,66.812-66.815,66.818c-36.838-0.006-66.812-29.98-66.816-66.818
		C118.368,148.192,148.342,118.219,185.18,118.211"/>
	<path style="fill:#FFFFFF;" d="M185.18,237.983c11.127-0.002,21.777-3.422,30.8-9.89l1.436-1.029l-74.27-74.271l-1.029,1.437
		c-6.469,9.02-9.89,19.67-9.893,30.799c0.003,14.136,5.511,27.433,15.512,37.446C157.745,232.473,171.043,237.981,185.18,237.983
		 M182.182,201.36c0.137-1.557,0.293-3.173,0.461-4.827l23.742,23.742H160.51v-0.019l-0.052,0.019h-0.115
		c0.136-2.597,0.166-5.913-0.027-10.19c-0.684-15.135-7.056-36.376-7.056-36.376s7.056,9.825,11.834,26.022
		c1.44,4.881,2.525,9.56,3.342,13.728c0.471-4.037,0.877-9.134,1.08-15.536c0.168-5.307-0.19-10.51-0.824-15.342l12.092,12.094
		C181.314,197.044,181.78,199.277,182.182,201.36"/>
	<path style="fill:#FFFFFF;" d="M227.215,217.264l1.029-1.437c6.467-9.019,9.887-19.668,9.891-30.8
		c-0.004-14.133-5.512-27.429-15.51-37.445c-10.011-9.997-23.309-15.505-37.444-15.51h-0.002
		c-11.126,0.003-21.777,3.424-30.799,9.891l-1.437,1.03L227.215,217.264z M186.182,171.988c0.177-0.855,0.353-1.717,0.543-2.551
		c-2.64-9.969-5.345-17.279-5.345-17.279s3.263,3.719,7.226,9.925c5.126-17.806,10.089-20.777,10.089-20.777
		s-1.517,13.082-3.707,32.306c0.52,1.106,1.03,2.247,1.524,3.414c8.428-10.101,18.496-13.052,18.496-13.052
		s-7.711,8.052-14.567,22.274L186.182,171.988z M206.375,191.14c4.777-20.08,14.332-31.232,14.332-31.232s-4.587,9.732-7.072,28.797
		c-0.414,3.178-0.773,6.432-1.086,9.652l-6.369-6.37C206.246,191.704,206.308,191.423,206.375,191.14"/>
</g>
</svg>
