<?xml version="1.0" encoding="iso-8859-1"?>
<!-- Generator: Adobe Illustrator 25.4.1, SVG Export Plug-In . SVG Version: 6.00 Build 0)  -->
<svg version="1.1" id="Calque_1" xmlns="http://www.w3.org/2000/svg" xmlns:xlink="http://www.w3.org/1999/xlink" x="0px" y="0px"
	 viewBox="0 0 368.5 368.5" style="enable-background:new 0 0 368.5 368.5;" xml:space="preserve">
<g>
	<path style="fill:#FFFFFF;" d="M249.23,191.511c-3.04-32.425-9.897-55.383-13.739-66.242c-0.825,6.424-5.189,11.347-10.448,11.347
		h-82.97c-4.547,0-8.422-3.683-9.925-8.832c-3.935,11.679-10.048,33.623-12.869,63.727c-4.292,45.775,5.908,103.377,6.344,105.806
		c0.019,0.104,0.031,0.209,0.036,0.315c0.662,2.871,2.619,8.818,7.475,8.818h102.192c4.775,0,6.797-6.017,7.484-8.871
		c0.02-0.215,0.067-0.422,0.138-0.617C243.873,291.679,253.377,235.74,249.23,191.511 M148.08,154.278
		c0-3.965,3.226-7.192,7.192-7.192h37.276c3.965,0,7.192,3.227,7.192,7.192c0,3.966-3.227,7.193-7.192,7.193h-37.276
		C151.306,161.471,148.08,158.244,148.08,154.278 M195.73,243.658c-0.352,1.001-0.802,1.983-1.328,2.901
		c-0.126,0.215-0.254,0.418-0.422,0.684c-2.837,4.431-7.449,7.075-12.34,7.075l-0.215-0.001c-4.972-0.086-9.577-2.887-12.289-7.447
		l-0.41-0.731c-0.404-0.758-0.718-1.465-0.976-2.196c-0.772-2.102-1.145-4.322-1.108-6.594c0.063-3.7,1.501-7.812,3.948-11.277
		c0.685-0.969,1.494-2.082,2.37-3.285c3.152-4.331,6.901-9.482,9.229-13.865c2.18,4.463,5.766,9.755,8.779,14.204
		c0.827,1.22,1.59,2.346,2.235,3.325c2.327,3.55,3.626,7.709,3.562,11.418C196.736,239.863,196.388,241.807,195.73,243.658
		 M221.613,165.38c-5.332,0-9.669-4.337-9.669-9.668c0-5.331,4.337-9.668,9.669-9.668c5.331,0,9.668,4.337,9.668,9.668
		C231.281,161.043,226.944,165.38,221.613,165.38"/>
	<path style="fill:#FFFFFF;" d="M136.474,123.071c0,4.632,2.564,8.545,5.6,8.545h82.969c3.036,0,5.601-3.913,5.601-8.545
		c0-4.631-2.565-8.546-5.601-8.546h-82.969C139.038,114.525,136.474,118.44,136.474,123.071 M151.69,128.5h-3.095
		c-1.38,0-2.5-1.119-2.5-2.5c0-1.381,1.12-2.5,2.5-2.5h3.095c1.381,0,2.5,1.119,2.5,2.5C154.19,127.381,153.071,128.5,151.69,128.5
		 M151.69,122.42h-3.095c-1.38,0-2.5-1.119-2.5-2.5c0-1.381,1.12-2.5,2.5-2.5h3.095c1.381,0,2.5,1.119,2.5,2.5
		C154.19,121.301,153.071,122.42,151.69,122.42 M161.242,128.5h-3.093c-1.381,0-2.5-1.119-2.5-2.5c0-1.381,1.119-2.5,2.5-2.5h3.093
		c1.381,0,2.5,1.119,2.5,2.5C163.742,127.381,162.623,128.5,161.242,128.5 M161.242,122.42h-3.093c-1.381,0-2.5-1.119-2.5-2.5
		c0-1.381,1.119-2.5,2.5-2.5h3.093c1.381,0,2.5,1.119,2.5,2.5C163.742,121.301,162.623,122.42,161.242,122.42 M170.792,128.5h-3.093
		c-1.38,0-2.5-1.119-2.5-2.5c0-1.381,1.12-2.5,2.5-2.5h3.093c1.381,0,2.5,1.119,2.5,2.5
		C173.292,127.381,172.173,128.5,170.792,128.5 M170.792,122.42h-3.093c-1.38,0-2.5-1.119-2.5-2.5c0-1.381,1.12-2.5,2.5-2.5h3.093
		c1.381,0,2.5,1.119,2.5,2.5C173.292,121.301,172.173,122.42,170.792,122.42 M180.345,128.5h-3.095c-1.381,0-2.5-1.119-2.5-2.5
		c0-1.381,1.119-2.5,2.5-2.5h3.095c1.381,0,2.5,1.119,2.5,2.5C182.845,127.381,181.726,128.5,180.345,128.5 M180.345,122.42h-3.095
		c-1.381,0-2.5-1.119-2.5-2.5c0-1.381,1.119-2.5,2.5-2.5h3.095c1.381,0,2.5,1.119,2.5,2.5
		C182.845,121.301,181.726,122.42,180.345,122.42 M189.897,128.5h-3.094c-1.381,0-2.5-1.119-2.5-2.5c0-1.381,1.119-2.5,2.5-2.5
		h3.094c1.38,0,2.5,1.119,2.5,2.5C192.397,127.381,191.277,128.5,189.897,128.5 M189.897,122.42h-3.094c-1.381,0-2.5-1.119-2.5-2.5
		c0-1.381,1.119-2.5,2.5-2.5h3.094c1.38,0,2.5,1.119,2.5,2.5C192.397,121.301,191.277,122.42,189.897,122.42 M199.447,128.5h-3.093
		c-1.381,0-2.5-1.119-2.5-2.5c0-1.381,1.119-2.5,2.5-2.5h3.093c1.381,0,2.5,1.119,2.5,2.5
		C201.947,127.381,200.828,128.5,199.447,128.5 M199.447,122.42h-3.093c-1.381,0-2.5-1.119-2.5-2.5c0-1.381,1.119-2.5,2.5-2.5h3.093
		c1.381,0,2.5,1.119,2.5,2.5C201.947,121.301,200.828,122.42,199.447,122.42 M209,128.5h-3.094c-1.38,0-2.5-1.119-2.5-2.5
		c0-1.381,1.12-2.5,2.5-2.5H209c1.381,0,2.5,1.119,2.5,2.5C211.5,127.381,210.381,128.5,209,128.5 M209,122.42h-3.094
		c-1.38,0-2.5-1.119-2.5-2.5c0-1.381,1.12-2.5,2.5-2.5H209c1.381,0,2.5,1.119,2.5,2.5C211.5,121.301,210.381,122.42,209,122.42
		 M218.551,128.5h-3.093c-1.381,0-2.5-1.119-2.5-2.5c0-1.381,1.119-2.5,2.5-2.5h3.093c1.381,0,2.5,1.119,2.5,2.5
		C221.051,127.381,219.932,128.5,218.551,128.5 M221.051,119.92c0,1.381-1.119,2.5-2.5,2.5h-3.093c-1.381,0-2.5-1.119-2.5-2.5
		c0-1.381,1.119-2.5,2.5-2.5h3.093C219.932,117.42,221.051,118.539,221.051,119.92"/>
	<path style="fill:#FFFFFF;" d="M221.613,151.044c-2.574,0-4.669,2.095-4.669,4.668c0,2.573,2.095,4.668,4.669,4.668
		c2.574,0,4.668-2.095,4.668-4.668C226.281,153.139,224.187,151.044,221.613,151.044"/>
	<path style="fill:#FFFFFF;" d="M163.812,156.47v-4.385h-8.539c-1.209,0-2.193,0.985-2.193,2.193c0,1.208,0.984,2.192,2.193,2.192
		H163.812z"/>
	<rect x="168.812" y="152.085" style="fill:#FFFFFF;" width="10.63" height="4.385"/>
	<path style="fill:#FFFFFF;" d="M184.441,152.086v4.385h8.107c1.209,0,2.192-0.985,2.192-2.193c0-1.208-0.983-2.192-2.192-2.192
		H184.441z"/>
	<path style="fill:#FFFFFF;" d="M176.314,98.31c2.017,1.965,5.218,1.943,7.205-0.047l11.084-11.098c2-2.002,1.996-5.247-0.004-7.248
		c-2.004-1.999-5.248-1.998-7.248,0.005l-2.857,2.864l-0.195-15.674c-0.036-2.83-2.358-5.095-5.187-5.062
		c-2.83,0.034-5.097,2.358-5.061,5.189l0.183,14.72l-3.043-2.969c-2.025-1.975-5.272-1.934-7.249,0.09
		c-1.975,2.025-1.935,5.273,0.091,7.248L176.314,98.31z"/>
</g>
</svg>
