<?xml version="1.0" encoding="iso-8859-1"?>
<!-- Generator: Adobe Illustrator 25.4.1, SVG Export Plug-In . SVG Version: 6.00 Build 0)  -->
<svg version="1.1" id="Calque_1" xmlns="http://www.w3.org/2000/svg" xmlns:xlink="http://www.w3.org/1999/xlink" x="0px" y="0px"
	 viewBox="0 0 368.5 368.5" style="enable-background:new 0 0 368.5 368.5;" xml:space="preserve">
<g>
	<path style="fill:#FFFFFF;" d="M56.862,227.511c0.413-3.297-1.925-6.301-5.217-6.713c-3.296-0.408-6.302,1.922-6.714,5.219
		c-5.818,46.48,27.261,89.041,73.743,94.863c3.297,0.412,6.3-1.926,6.715-5.219c0.412-3.295-1.925-6.299-5.221-6.713
		C80.261,303.95,51.867,267.415,56.862,227.511 M69.474,229.089c-4.125,32.951,19.325,63.119,52.276,67.246
		c3.293,0.412,6.299-1.92,6.711-5.221c0.413-3.295-1.925-6.299-5.219-6.711c-26.373-3.301-45.14-27.445-41.836-53.82
		c0.411-3.293-1.927-6.297-5.217-6.711C72.895,223.46,69.886,225.794,69.474,229.089 M94.012,232.165
		c-2.433,19.418,11.389,37.197,30.809,39.629c3.296,0.412,6.301-1.924,6.714-5.219c0.415-3.295-1.923-6.299-5.219-6.713
		c-12.843-1.605-21.984-13.365-20.375-26.205c0.415-3.295-1.921-6.299-5.217-6.713C97.433,226.532,94.427,228.868,94.012,232.165"/>
	<path style="fill:#FFFFFF;" d="M218.067,47.573c-19.464,0.001-37.05,7.878-49.808,20.629
		c-12.753,12.759-20.629,30.346-20.629,49.808v3.276h72.166c28.789,0.003,52.119,23.339,52.122,52.126v44.916h52.314V47.573H218.067
		z M219.796,128.289h-69.451c-13.292,13.41-21.125,31.732-21.127,51.103c0,5.865,0.716,11.828,2.217,17.785
		c8.282,32.938,37.881,54.905,70.362,54.905c5.868,0,11.829-0.715,17.784-2.213c19.957-5.02,35.881-17.865,45.337-34.434v-42.023
		c-0.002-12.471-5.045-23.733-13.214-31.908C243.524,133.334,232.267,128.289,219.796,128.289 M219.669,211.818l-39.323,31.107
		c-2.073-0.693-4.111-1.486-6.102-2.377c-13.626-6.103-25.087-16.718-32.096-30.457c1.187-1.556,2.593-3.253,4.226-4.968
		c5.606-5.858,14.004-12.108,24.901-12.141c1.966,0,3.999,0.209,6.076,0.66c4.109,0.895,7.486,1.262,10.316,1.262
		c5.825-0.029,9.314-1.443,12.826-3.547c3.492-2.103,6.911-5.137,11.716-7.865c0.148-0.084,0.294-0.168,0.439-0.25l-2.458-3.106
		l-12.652-15.994c-2.42-3.058-5.976-4.637-9.598-4.642c-2.236,0.004-4.461,0.611-6.453,1.859c-0.382,0.238-0.757,0.492-1.121,0.779
		l-19.022,15.049l-24.359,19.27c-0.037-0.141-0.084-0.28-0.12-0.42c-0.612-2.434-1.076-4.867-1.409-7.295l40.567-32.092
		c3.519-2.791,7.749-4.154,11.917-4.152c5.663-0.004,11.3,2.513,15.088,7.3l7.823,9.889l12.281,15.526l-0.02,0.011
		c2.578,3.436,3.858,7.494,3.854,11.508C226.972,202.394,224.458,208.031,219.669,211.818"/>
</g>
</svg>
