<?xml version="1.0" encoding="iso-8859-1"?>
<!-- Generator: Adobe Illustrator 25.4.1, SVG Export Plug-In . SVG Version: 6.00 Build 0)  -->
<svg version="1.1" id="Calque_1" xmlns="http://www.w3.org/2000/svg" xmlns:xlink="http://www.w3.org/1999/xlink" x="0px" y="0px"
	 viewBox="0 0 368.5 368.5" style="enable-background:new 0 0 368.5 368.5;" xml:space="preserve">
<g>
	<path style="fill:#FFFFFF;" d="M206.863,239.717c20.226,0,39.12-10.283,53.216-28.952c13.865-18.344,21.508-42.656,21.522-68.457
		c-0.014-25.801-7.657-50.115-21.522-68.461c-14.096-18.669-32.988-28.95-53.2-28.95c-14.585,0-28.836,5.581-40.924,15.864
		c0.187-0.079,0.37-0.161,0.573-0.201c2.856-0.555,5.552-0.829,8.245-0.833c2.104,0.004,4.196,0.171,6.263,0.483
		c4.416-2.51,9.02-4.413,13.748-5.581c0.573-0.145,1.183-0.03,1.669,0.307c0.487,0.338,0.805,0.869,0.871,1.457l0.414,3.601
		c2.878,0.308,5.716,0.901,8.498,1.778l-0.727-6.319c-0.068-0.589,0.121-1.178,0.519-1.617c0.397-0.44,1.002-0.702,1.557-0.677
		c17.235,0.249,33.548,9.363,45.926,25.662c3.047,4.02,5.828,8.479,8.27,13.253c0.446,0.875,0.213,1.947-0.559,2.554l-15.355,12.097
		c0.913,2.795,1.723,5.657,2.411,8.585l15.427-12.157c0.521-0.412,1.205-0.547,1.847-0.362c0.637,0.185,1.146,0.664,1.369,1.289
		c4.278,12.027,6.444,24.89,6.438,38.23c0.008,14.679-2.739,29.27-7.942,42.196c-0.255,0.637-0.812,1.104-1.484,1.246
		c-0.141,0.031-0.284,0.045-0.426,0.045c-0.532,0-1.046-0.206-1.434-0.582l-14.642-14.212c-0.808,3-1.745,5.925-2.795,8.766
		l14.647,14.217c0.676,0.655,0.821,1.685,0.354,2.502c-1.896,3.314-3.958,6.446-6.124,9.303
		c-12.582,16.564-29.147,25.688-46.65,25.693c-1.14,0-2.361-0.051-3.841-0.161c-0.571-0.043-1.098-0.32-1.456-0.769
		c-0.358-0.448-0.513-1.023-0.429-1.591l1-6.668c-2.784,0.593-5.615,0.907-8.473,0.935l-0.575,3.835
		c-0.091,0.605-0.447,1.138-0.97,1.454c-0.525,0.318-1.158,0.39-1.737,0.187c-3.998-1.373-7.896-3.298-11.653-5.677
		c-1.309,0.124-2.624,0.213-3.946,0.215h-0.014c-1.621-0.004-3.338-0.121-5.253-0.36c-0.828-0.103-1.542-0.551-2.037-1.187
		c-0.255,0.071-0.515,0.133-0.772,0.197c-0.461,0.481-0.923,0.96-1.392,1.424c12.194,10.653,26.567,16.399,41.536,16.399v2.059
		L206.863,239.717z"/>
	<path style="fill:#FFFFFF;" d="M146.075,276.534c16.525,14.965,38.155,25.529,64.28,31.388c8.611,1.922,17.557,3.278,26.736,4.084
		c-0.346-1.575-0.543-3.206-0.543-4.883c0-2.616,0.468-5.12,1.287-7.461c-8.535-0.772-16.902-2.039-24.787-3.803
		c-24.031-5.348-43.775-14.931-58.677-28.482c-8.183-7.429-15.172-15.807-20.896-24.958c-4.265,1.209-8.615,1.995-13.012,2.295
		C127.202,256.467,135.77,267.143,146.075,276.534"/>
	<path style="fill:#FFFFFF;" d="M309.506,290.62h-50.279c-9.098,0-16.501,7.403-16.501,16.503c0,9.101,7.403,16.504,16.501,16.504
		h50.279c9.1,0,16.505-7.403,16.505-16.504C326.011,298.023,318.606,290.62,309.506,290.62 M309.397,320.091
		c-7.228,0-13.109-5.888-13.109-13.129c0-7.24,5.881-13.13,13.109-13.13c7.226,0,13.106,5.89,13.106,13.13
		C322.503,314.203,316.623,320.091,309.397,320.091"/>
	<path style="fill:#FFFFFF;" d="M197.566,66.188c7.502,4.424,14.281,11.003,19.792,19.442c9.852,15.049,15.306,34.782,15.377,55.587
		c0,0.093,0.008,0.181,0.008,0.274c0,0.098-0.008,0.195-0.008,0.291c-0.077,20.793-5.531,40.51-15.379,55.556
		c-5.511,8.44-12.291,15.021-19.792,19.445c12.648-1.522,24.55-9.641,33.156-22.826c9.247-14.128,14.353-32.763,14.375-52.474
		c-0.022-19.709-5.128-38.349-14.374-52.473C222.114,75.829,210.212,67.712,197.566,66.188"/>
	<path style="fill:#FFFFFF;" d="M198.823,85.63c9.853,15.049,15.307,34.783,15.377,55.588c0,0.092,0.008,0.181,0.008,0.273
		c0,0.099-0.008,0.195-0.008,0.292c-0.076,20.793-5.531,40.51-15.379,55.555c-5.511,8.441-12.29,15.021-19.792,19.446
		c12.648-1.523,24.55-9.642,33.156-22.826c9.247-14.129,14.353-32.764,14.375-52.475c-0.022-19.709-5.128-38.348-14.373-52.472
		c-8.608-13.181-20.51-21.298-33.156-22.823C186.533,70.613,193.312,77.191,198.823,85.63"/>
	<path style="fill:#FFFFFF;" d="M174.902,212.021c7.081-3.934,13.523-10.06,18.748-18.064c9.247-14.128,14.353-32.763,14.375-52.474
		c-0.022-19.71-5.128-38.349-14.373-52.473c-5.71-8.742-12.873-15.246-20.737-19.093c0.217,0.281,0.447,0.545,0.66,0.828
		c14.534,19.228,22.548,44.643,22.563,71.56C196.123,168.383,188.586,193.027,174.902,212.021"/>
	<path style="fill:#FFFFFF;" d="M79.501,99.595l6.482,4.632c0.056-0.079,0.115-0.155,0.171-0.232
		c5.215-6.932,11.793-12.01,19.14-14.802l-1.585-13.82C94.005,81.014,85.688,89.374,79.501,99.595"/>
	<path style="fill:#FFFFFF;" d="M177.6,142.31c0.004-11.232-1.601-22.104-4.776-32.389l-13.704,10.797
		c2.307,6.866,3.477,14.119,3.485,21.586c-0.008,8.145-1.362,15.948-4.026,23.232l13.08,12.699
		C175.559,167.033,177.604,154.711,177.6,142.31"/>
	<path style="fill:#FFFFFF;" d="M135.689,115.18c-4.927-6.46-10.938-9.877-17.378-9.877c-6.444,0-12.455,3.417-17.382,9.883
		c-5.336,7.029-8.389,16.914-8.375,27.118c-0.014,10.215,3.039,20.099,8.377,27.126c4.925,6.464,10.936,9.883,17.38,9.883
		c6.44,0,12.451-3.419,17.384-9.887c5.328-7.019,8.38-16.903,8.372-27.116C144.075,132.095,141.023,122.211,135.689,115.18"/>
	<path style="fill:#FFFFFF;" d="M150.441,103.959l14.957-11.783c-1.993-3.648-4.208-7.085-6.601-10.245
		c-3.909-5.148-8.233-9.515-12.851-13.042c-4.215-0.991-8.575-1.514-13.04-1.514c-3.865,0-7.646,0.412-11.329,1.16l2.138,18.643
		C133.976,88.721,143.386,94.607,150.441,103.959"/>
	<path style="fill:#FFFFFF;" d="M67.697,142.919c0,6.365,0.688,12.543,1.967,18.448l6.082-3.765
		c-1.143-5.017-1.722-10.15-1.728-15.29c0.006-7.401,1.156-14.591,3.423-21.411l-5.738-4.098
		C69.113,124.941,67.697,133.738,67.697,142.919"/>
	<path style="fill:#FFFFFF;" d="M100.101,208.196l2.114-14.096c-6.104-2.956-11.621-7.58-16.063-13.485
		c-1.289-1.709-2.496-3.527-3.604-5.43l-6.76,4.185C81.492,191.341,89.921,201.316,100.101,208.196"/>
	<path style="fill:#FFFFFF;" d="M120.407,197.785l-2.785,18.571c4.905,1.365,10.019,2.107,15.284,2.107
		c3.632,0,7.192-0.36,10.661-1.021c5.513-3.793,10.651-8.735,15.232-14.766c1.581-2.085,3.102-4.328,4.54-6.689l-14.153-13.736
		C141.522,191.591,131.217,197.149,120.407,197.785"/>
	<path style="fill:#FFFFFF;" d="M63.86,74.468c-13.734,18.169-21.302,42.26-21.314,67.842c0.012,25.577,7.58,49.667,21.312,67.831
		c13.893,18.408,32.494,28.544,52.382,28.544v3.089l0.012-3.089c19.894,0,38.497-10.136,52.392-28.542
		c13.734-18.164,21.302-42.256,21.316-67.837c-0.014-25.578-7.584-49.671-21.314-67.836c-13.899-18.405-32.498-28.542-52.378-28.542
		C96.352,45.928,77.753,56.065,63.86,74.468 M54.961,176.292c-0.903-0.35-1.591-1.104-1.854-2.035
		c-2.912-10.247-4.386-20.997-4.381-31.951c-0.005-13.921,2.323-27.301,6.923-39.768c0.334-0.903,1.07-1.599,1.989-1.883
		c0.919-0.285,1.921-0.12,2.705,0.439l22.581,16.129c1.136,0.813,1.587,2.285,1.098,3.594c-2.532,6.788-3.819,14.019-3.825,21.493
		c0.006,5.374,0.702,10.741,2.071,15.954c0.344,1.313-0.209,2.697-1.363,3.411l-23.203,14.363c-0.495,0.306-1.058,0.463-1.625,0.463
		C55.699,176.501,55.321,176.433,54.961,176.292 M102.042,229.398c-0.489,0.297-1.044,0.448-1.603,0.448
		c-0.338,0-0.676-0.054-1.004-0.167c-11.482-3.942-22.08-11.986-30.652-23.267c-4.428-5.838-8.249-12.521-11.356-19.863
		c-0.594-1.404-0.075-3.029,1.218-3.832l23.426-14.504c0.738-0.456,1.629-0.583,2.462-0.348c0.832,0.234,1.528,0.807,1.92,1.577
		c1.35,2.661,2.908,5.169,4.632,7.455c4.312,5.732,9.742,10.046,15.701,12.481c1.319,0.539,2.097,1.909,1.886,3.319l-5.179,34.519
		C103.357,228.123,102.826,228.921,102.042,229.398 M152.575,120.747c-0.472-1.259-0.076-2.679,0.979-3.51l18.901-14.892
		c0.787-0.618,1.816-0.815,2.769-0.543c0.956,0.275,1.722,0.995,2.054,1.934c4.32,12.15,6.506,25.127,6.5,38.574
		c0.006,14.81-2.767,29.535-8.018,42.582c-0.385,0.953-1.219,1.655-2.227,1.868c-0.211,0.044-0.426,0.066-0.639,0.066
		c-0.795,0-1.569-0.308-2.152-0.873l-17.932-17.404c-0.901-0.875-1.182-2.208-0.711-3.373c2.863-7.101,4.319-14.796,4.328-22.87
		C156.418,134.802,155.123,127.548,152.575,120.747 M169.386,193.248c1.012,0.981,1.231,2.526,0.529,3.751
		c-1.914,3.348-3.998,6.513-6.194,9.412c-12.781,16.827-29.638,26.096-47.469,26.1c-1.186,0-2.431-0.05-3.918-0.161
		c-0.858-0.064-1.649-0.481-2.186-1.152c-0.537-0.672-0.768-1.537-0.641-2.388l5.178-34.529c0.228-1.512,1.527-2.63,3.055-2.63
		h0.032l0.375,0.012h0.016c10.395,0,20.306-5.382,27.373-14.764c0.131-0.175,0.251-0.358,0.372-0.541l0.376-0.557
		c0.521-0.738,1.34-1.213,2.239-1.295c0.921-0.084,1.792,0.229,2.439,0.859L169.386,193.248z M140.611,173.167
		c-6.062,7.949-13.979,12.324-22.3,12.324c-8.323,0-16.241-4.376-22.297-12.32c-6.142-8.087-9.653-19.335-9.637-30.867
		c-0.016-11.52,3.495-22.77,9.635-30.859c6.056-7.946,13.976-12.32,22.299-12.32c8.321,0,16.238,4.374,22.296,12.314
		c6.138,8.091,9.649,19.339,9.639,30.871C150.256,153.842,146.745,165.09,140.611,173.167 M114.651,53.142
		c0.597-0.657,1.505-1.043,2.335-1.015c17.561,0.255,34.157,9.514,46.733,26.072c3.099,4.091,5.913,8.6,8.364,13.408
		c0.67,1.314,0.318,2.918-0.841,3.831l-19.564,15.412c-0.547,0.43-1.223,0.661-1.91,0.661c-0.163,0-0.326-0.012-0.487-0.038
		c-0.853-0.136-1.609-0.621-2.086-1.339l-0.243-0.368c-0.461-0.694-0.919-1.39-1.416-2.05c-6.558-8.712-15.383-13.921-24.853-14.671
		c-1.474-0.116-2.657-1.259-2.826-2.727l-3.984-34.75C113.772,54.685,114.056,53.802,114.651,53.142 M103.928,53.631
		c0.855-0.211,1.774-0.046,2.502,0.463c0.73,0.507,1.207,1.301,1.307,2.184l3.978,34.682c0.171,1.482-0.744,2.873-2.17,3.308
		c-7.075,2.15-13.458,6.8-18.456,13.446c-0.597,0.791-1.142,1.623-1.689,2.456c-0.461,0.702-1.221,1.235-2.048,1.39
		c-0.211,0.04-0.428,0.06-0.643,0.06c-0.624,0-1.243-0.171-1.752-0.533L61.869,94.596c-1.255-0.897-1.657-2.584-0.939-3.95
		c2.365-4.503,5.006-8.69,7.852-12.445C78.505,65.402,90.656,56.907,103.928,53.631"/>
</g>
</svg>
