<?xml version="1.0" encoding="iso-8859-1"?>
<!-- Generator: Adobe Illustrator 25.4.1, SVG Export Plug-In . SVG Version: 6.00 Build 0)  -->
<svg version="1.1" id="Calque_1" xmlns="http://www.w3.org/2000/svg" xmlns:xlink="http://www.w3.org/1999/xlink" x="0px" y="0px"
	 viewBox="0 0 368.5 368.5" style="enable-background:new 0 0 368.5 368.5;" xml:space="preserve">
<g>
	<path style="fill:#FFFFFF;" d="M162.77,217.217c1.312,0,2.609,0.065,3.897,0.161l38.325-118.48
		c-0.081-0.183-0.129-0.379-0.222-0.56c-1.251-2.438-3.377-4.243-5.986-5.079l-97.566-31.394c-1.028-0.331-2.088-0.498-3.153-0.498
		c-4.47,0-8.393,2.861-9.761,7.121L44.083,205.907c-0.839,2.607-0.611,5.387,0.641,7.827c1.252,2.44,3.38,4.247,5.99,5.086
		l68.704,22.107C128.6,226.679,144.594,217.217,162.77,217.217"/>
	<path style="fill:#FFFFFF;" d="M253.289,75.011c2.449,0,4.886,0.388,7.247,1.154l9.898,3.199c-0.331-2.654-0.112-5.413,0.787-8.116
		c0.859-2.586,2.275-4.85,4.044-6.757l-9.917-3.206c-3.911-1.27-7.966-1.912-12.057-1.912c-17.02,0-31.98,10.899-37.243,27.122
		l-42.643,131.83c5.214,1.097,10.137,2.993,14.644,5.54l42.882-132.563C234.048,81.573,243.034,75.022,253.289,75.011"/>
	<path style="fill:#FFFFFF;" d="M55.381,244.031l56.274,18.172c0.676-5.303,2.159-10.358,4.326-15.037l-55.787-18.021
		c-0.783-0.252-1.593-0.38-2.406-0.38c-3.404,0-6.395,2.182-7.443,5.426C49.021,238.29,51.28,242.704,55.381,244.031"/>
	<path style="fill:#FFFFFF;" d="M162.769,228.387c-22.263,0-40.376,18.11-40.376,40.372c0,22.266,18.113,40.379,40.376,40.379
		c22.267,0,40.381-18.113,40.381-40.379C203.15,246.497,185.036,228.387,162.769,228.387 M183.432,268.759
		c0,11.391-9.269,20.658-20.663,20.658c-11.392,0-20.66-9.267-20.66-20.658c0-11.393,9.268-20.66,20.66-20.66
		C174.163,248.099,183.432,257.366,183.432,268.759"/>
	<path style="fill:#FFFFFF;" d="M318.925,74.591l-26.335-8.753c-1.214-0.405-2.473-0.608-3.738-0.608
		c-5.127,0-9.655,3.267-11.27,8.132c-2.067,6.209,1.308,12.941,7.522,15.009l26.33,8.749c1.216,0.404,2.477,0.609,3.745,0.609
		c5.119,0,9.644-3.265,11.259-8.126c1-3.007,0.769-6.228-0.652-9.065C324.367,77.703,321.93,75.59,318.925,74.591"/>
</g>
</svg>
