<?xml version="1.0" encoding="iso-8859-1"?>
<!-- Generator: Adobe Illustrator 25.4.1, SVG Export Plug-In . SVG Version: 6.00 Build 0)  -->
<svg version="1.1" id="Calque_1" xmlns="http://www.w3.org/2000/svg" xmlns:xlink="http://www.w3.org/1999/xlink" x="0px" y="0px"
	 viewBox="0 0 368.5 368.5" style="enable-background:new 0 0 368.5 368.5;" xml:space="preserve">
<g>
	<path style="fill:#FFFFFF;" d="M222.259,219.891c1.41,0,2.558-1.148,2.558-2.558v-65.088c0-1.41-1.148-2.557-2.558-2.557h-76.406
		c-1.41,0-2.558,1.147-2.558,2.557v65.088c0,1.41,1.148,2.558,2.558,2.558H222.259z M151.258,210.369l30.923-55.322
		c0.442-0.79,1.277-1.28,2.182-1.28h0.005c0.908,0.002,1.743,0.496,2.182,1.288l30.506,55.071c0.297,0.412,0.472,0.917,0.472,1.463
		c0,1.381-1.12,2.5-2.5,2.5c-0.005,0-0.013,0-0.02,0h-61.567c-0.887,0-1.708-0.47-2.157-1.235
		C150.835,212.089,150.825,211.143,151.258,210.369"/>
	<path style="fill:#FFFFFF;" d="M145.853,124.892h76.405c1.41,0,2.558-1.147,2.558-2.557v-8.629c0-2.362-0.963-4.959-3.029-8.17
		l-23.98-36.681h-26.809l-24.09,37.564l-0.735,1.098c-1.608,2.391-2.879,4.278-2.879,6.189v8.629
		C143.294,123.745,144.442,124.892,145.853,124.892"/>
	<path style="fill:#FFFFFF;" d="M184.354,161.408l-26.651,47.681h53.062L184.354,161.408z M184.225,207.301
		c-2.485,0-4.5-2.005-4.5-4.491v-0.02c0-2.485,2.015-4.5,4.5-4.5c2.485,0,4.5,2.015,4.5,4.5
		C188.725,205.276,186.71,207.301,184.225,207.301 M184.225,196.819c-2.485,0-4.5-2.015-4.5-4.5v-18.903c0-2.486,2.015-4.5,4.5-4.5
		c2.485,0,4.5,2.014,4.5,4.5v18.903C188.725,194.804,186.71,196.819,184.225,196.819"/>
	<rect x="181.891" y="52.548" style="fill:#FFFFFF;" width="4.745" height="9.307"/>
	<rect x="174.149" y="52.548" style="fill:#FFFFFF;" width="4.742" height="9.307"/>
	<rect x="189.636" y="52.548" style="fill:#FFFFFF;" width="4.742" height="9.307"/>
	<rect x="197.378" y="52.548" style="fill:#FFFFFF;" width="0.834" height="9.307"/>
	<rect x="170.111" y="52.548" style="fill:#FFFFFF;" width="1.037" height="9.307"/>
	<path style="fill:#FFFFFF;" d="M221.723,131.99h-74.619c-2.79,0-5.06,2.311-5.06,5.151c0,2.841,2.27,5.152,5.06,5.152h74.619
		c2.79,0,5.061-2.311,5.061-5.152C226.784,134.301,224.513,131.99,221.723,131.99"/>
	<path style="fill:#FFFFFF;" d="M221.693,296.649h-74.887c-2.806,0-5.09,2.311-5.09,5.15v9c0,2.841,2.284,5.153,5.09,5.153h74.887
		c2.807,0,5.09-2.312,5.09-5.153v-9C226.783,298.96,224.5,296.649,221.693,296.649"/>
	<path style="fill:#FFFFFF;" d="M223.076,278.866c-0.455,0.053-0.914,0.086-1.383,0.086h-74.887c-0.468,0-0.927-0.033-1.382-0.086
		c-2.132,0.614-3.707,2.582-3.707,4.934c0,2.84,2.283,5.152,5.089,5.152h74.887c2.807,0,5.09-2.312,5.09-5.152
		C226.783,281.448,225.208,279.48,223.076,278.866"/>
	<path style="fill:#FFFFFF;" d="M223.076,261.866c-0.455,0.053-0.914,0.086-1.383,0.086h-74.887c-0.468,0-0.927-0.033-1.382-0.086
		c-2.132,0.614-3.707,2.582-3.707,4.934c0,2.84,2.283,5.152,5.089,5.152h74.887c2.807,0,5.09-2.312,5.09-5.152
		C226.783,264.448,225.208,262.48,223.076,261.866"/>
	<path style="fill:#FFFFFF;" d="M223.076,244.866c-0.455,0.053-0.914,0.086-1.383,0.086h-74.887c-0.468,0-0.927-0.033-1.382-0.086
		c-2.132,0.614-3.707,2.582-3.707,4.934c0,2.84,2.283,5.152,5.089,5.152h74.887c2.807,0,5.09-2.312,5.09-5.152
		C226.783,247.448,225.208,245.48,223.076,244.866"/>
	<path style="fill:#FFFFFF;" d="M221.693,227.649h-74.887c-2.806,0-5.09,2.311-5.09,5.15c0,2.841,2.284,5.153,5.09,5.153h74.887
		c2.807,0,5.09-2.312,5.09-5.153C226.783,229.96,224.5,227.649,221.693,227.649"/>
</g>
</svg>
