<?xml version="1.0" encoding="iso-8859-1"?>
<!-- Generator: Adobe Illustrator 25.4.1, SVG Export Plug-In . SVG Version: 6.00 Build 0)  -->
<svg version="1.1" id="Calque_1" xmlns="http://www.w3.org/2000/svg" xmlns:xlink="http://www.w3.org/1999/xlink" x="0px" y="0px"
	 viewBox="0 0 368.5 368.5" style="enable-background:new 0 0 368.5 368.5;" xml:space="preserve">
<g>
	<path style="fill:#FFFFFF;" d="M246.78,301.835v-67.129c0-3.331-1.317-6.524-3.671-8.879l-76.37-76.37
		c-4.907-4.909-12.855-4.909-17.766,0l-76.364,76.37c-2.356,2.355-3.682,5.548-3.682,8.879v67.129
		c0,6.938,5.625,12.558,12.558,12.558h51.318v-52.881c0-4.357,3.531-7.894,7.89-7.894h34.32c4.356,0,7.893,3.537,7.893,7.894v52.881
		h51.32C241.164,314.393,246.78,308.773,246.78,301.835"/>
	<path style="fill:#FFFFFF;" d="M260.613,214.799c3.214,0,6.425-1.229,8.879-3.682c4.904-4.9,4.904-12.855,0-17.754l-84.155-84.155
		c-7.335-7.344-17.095-11.386-27.479-11.386c-10.38,0-20.139,4.042-27.477,11.386l-84.158,84.155
		c-4.902,4.899-4.902,12.854,0,17.754c4.906,4.909,12.857,4.909,17.761,0l84.158-84.152c2.596-2.598,6.045-4.027,9.716-4.027
		s7.118,1.429,9.716,4.027l84.158,84.152C254.183,213.57,257.397,214.799,260.613,214.799"/>
	<path style="fill:#FFFFFF;" d="M319.73,149.144c3.469,0,6.28-2.809,6.28-6.278c0-48.931-39.811-88.748-88.742-88.748
		c-3.468,0-6.28,2.811-6.28,6.28c0,3.468,2.812,6.278,6.28,6.278c42.009,0,76.182,34.183,76.182,76.19
		C313.45,146.335,316.264,149.144,319.73,149.144"/>
	<path style="fill:#FFFFFF;" d="M293.893,149.144c3.469,0,6.282-2.809,6.282-6.278c0-34.687-28.222-62.911-62.906-62.911
		c-3.469,0-6.281,2.809-6.281,6.282c0,3.469,2.812,6.278,6.281,6.278c27.76,0,50.346,22.586,50.346,50.351
		C287.615,146.335,290.427,149.144,293.893,149.144"/>
	<path style="fill:#FFFFFF;" d="M261.785,142.866c0,3.469,2.811,6.278,6.28,6.278c3.464,0,6.278-2.809,6.278-6.278
		c0-20.445-16.631-37.076-37.074-37.076c-3.469,0-6.28,2.811-6.28,6.28c0,3.469,2.811,6.278,6.28,6.278
		C250.787,118.348,261.785,129.349,261.785,142.866"/>
</g>
</svg>
