<?xml version="1.0" encoding="iso-8859-1"?>
<!-- Generator: Adobe Illustrator 25.4.1, SVG Export Plug-In . SVG Version: 6.00 Build 0)  -->
<svg version="1.1" id="Calque_1" xmlns="http://www.w3.org/2000/svg" xmlns:xlink="http://www.w3.org/1999/xlink" x="0px" y="0px"
	 viewBox="0 0 368.5 368.5" style="enable-background:new 0 0 368.5 368.5;" xml:space="preserve">
<g>
	<path style="fill:#FFFFFF;" d="M70.91,158.501c17.761,19.256,38.861,31.698,53.755,31.698c5.389,0,10.011-1.633,13.364-4.727
		c13.017-12.002,3.801-41.7-21.438-69.081C98.833,97.133,77.734,84.688,62.838,84.688c-5.391,0-10.012,1.634-13.367,4.727
		C36.459,101.416,45.675,131.115,70.91,158.501 M56.296,96.818c1.484-1.368,3.684-2.061,6.542-2.061c10.01,0,28.223,8.8,46.35,28.46
		c21.433,23.251,29.3,48.136,22.015,54.853c-1.482,1.367-3.682,2.06-6.538,2.06c-10.008,0-28.223-8.799-46.352-28.453
		C56.884,128.42,49.016,103.532,56.296,96.818"/>
	<path style="fill:#FFFFFF;" d="M322.644,302.933c6.277-6.914,7.357-15.52-6.855-29.99c-4.724-4.813-18.104-18.14-33.661-33.594
		c-0.846,3.898-2.835,9.532-7.614,14.521c-4.811,4.885-11.448,7.981-15.739,9.633c14.37,14.309,27.516,27.353,34.161,33.841
		C306.128,310.227,316.128,310.111,322.644,302.933"/>
	<path style="fill:#FFFFFF;" d="M54.203,80.853c12.145-11.044,42.832,2.633,68.626,30.61c25.835,28.03,36.975,59.793,24.877,70.945
		c-0.182,0.166-0.383,0.314-0.57,0.468l0.68,0.749c0,0,16.88-6.037,52.015,21.047c0,0,27.943,27.953,53.935,53.848
		c0.224-0.075,0.481-0.164,0.772-0.264c1.155-0.399,2.774-1.011,4.591-1.819c3.608-1.603,7.968-4.065,10.796-7.007
		c4.7-4.816,6.03-10.974,6.349-13.669c0.113-0.888,0.117-1.285,0.117-1.285c0.004-0.252,0.039-0.49,0.099-0.724
		c-28.787-28.581-62.13-61.564-62.13-61.564c-31.831-47.592-30.909-60.604-67.453-92.533C97.574,36.557,53.84,80.46,53.84,80.46
		L54.203,80.853z"/>
	<path style="fill:#FFFFFF;" d="M76.85,122.661c0.723,0,1.448-0.258,2.026-0.781c1.237-1.119,1.332-3.029,0.213-4.266l-3.798-4.199
		c-1.12-1.236-3.029-1.332-4.267-0.213c-1.237,1.119-1.332,3.029-0.213,4.266l3.798,4.199
		C75.205,122.326,76.026,122.661,76.85,122.661"/>
	<path style="fill:#FFFFFF;" d="M91.405,124.63c0.596,0.657,1.415,0.991,2.238,0.991c0.724,0,1.45-0.257,2.028-0.783
		c1.236-1.12,1.329-3.03,0.208-4.267l-3.806-4.197c-1.12-1.234-3.031-1.329-4.267-0.206c-1.236,1.119-1.328,3.029-0.207,4.265
		L91.405,124.63z"/>
	<path style="fill:#FFFFFF;" d="M107.633,142.249c0.597,0.659,1.417,0.993,2.24,0.993c0.724,0,1.45-0.258,2.028-0.782
		c1.236-1.12,1.33-3.03,0.21-4.267l-3.802-4.197c-1.122-1.236-3.033-1.328-4.268-0.21c-1.236,1.121-1.33,3.03-0.21,4.267
		L107.633,142.249z"/>
	<path style="fill:#FFFFFF;" d="M89.299,133.328c-1.236,1.12-1.33,3.03-0.209,4.266l3.804,4.197
		c0.596,0.658,1.416,0.992,2.239,0.992c0.724,0,1.449-0.258,2.028-0.782c1.236-1.12,1.329-3.031,0.209-4.266l-3.804-4.197
		C92.447,132.301,90.535,132.207,89.299,133.328"/>
	<path style="fill:#FFFFFF;" d="M107.196,152.157c-1.237,1.12-1.333,3.03-0.213,4.266l3.802,4.201
		c0.597,0.66,1.417,0.995,2.241,0.995c0.723,0,1.447-0.257,2.025-0.781c1.237-1.12,1.333-3.029,0.214-4.265l-3.803-4.203
		C110.343,151.132,108.433,151.037,107.196,152.157"/>
	<path style="fill:#FFFFFF;" d="M92.658,148.479c-1.118-1.235-3.03-1.332-4.266-0.21c-1.237,1.117-1.332,3.028-0.212,4.265
		l3.804,4.203c0.596,0.658,1.416,0.993,2.24,0.993c0.723,0,1.449-0.258,2.027-0.782c1.236-1.119,1.331-3.029,0.211-4.266
		L92.658,148.479z"/>
	<path style="fill:#FFFFFF;" d="M80.738,139.466c1.237-1.119,1.332-3.03,0.213-4.265l-3.8-4.201
		c-1.119-1.236-3.03-1.336-4.267-0.214c-1.237,1.118-1.332,3.029-0.213,4.266l3.8,4.201c0.596,0.658,1.417,0.994,2.241,0.994
		C79.435,140.247,80.16,139.989,80.738,139.466"/>
</g>
</svg>
