<?xml version="1.0" encoding="iso-8859-1"?>
<!-- Generator: Adobe Illustrator 25.4.1, SVG Export Plug-In . SVG Version: 6.00 Build 0)  -->
<svg version="1.1" id="Calque_1" xmlns="http://www.w3.org/2000/svg" xmlns:xlink="http://www.w3.org/1999/xlink" x="0px" y="0px"
	 viewBox="0 0 368.5 368.5" style="enable-background:new 0 0 368.5 368.5;" xml:space="preserve">
<g>
	<path style="fill:#FFFFFF;" d="M122.057,259.945l-7.682-10.387c-0.047-0.063-0.079-0.134-0.115-0.205l-7.982-10.793
		c-0.022-0.029-0.033-0.062-0.052-0.092l-7.872-10.644c-0.111-0.085-0.214-0.181-0.3-0.297l-8.074-10.916
		c-0.02-0.027-0.03-0.059-0.048-0.086l-7.892-10.673c-0.125-0.089-0.241-0.19-0.336-0.318l-8.073-10.917
		c-0.022-0.029-0.032-0.063-0.052-0.092l-7.869-10.641c-0.112-0.085-0.217-0.182-0.304-0.298l-8.074-10.918
		c-0.022-0.03-0.033-0.064-0.053-0.094l-8.041-10.873c-0.049-0.066-0.081-0.139-0.118-0.21l-7.98-10.79
		c-0.021-0.027-0.032-0.061-0.051-0.09l-7.874-10.646c-0.111-0.084-0.214-0.18-0.3-0.295l-5.473-7.401v2.183l94.615,127.891V259.945
		z"/>
	<path style="fill:#FFFFFF;" d="M338.858,231.012l-70.559-95.35c-0.328,0.314-0.738,0.545-1.208,0.644l-25.999,5.494l1.153,1.559
		c0.117,0.087,0.221,0.19,0.31,0.31l8.075,10.916c0.302,0.41,0.377,0.944,0.198,1.42c-0.015,0.041-0.042,0.074-0.06,0.113
		c0.029,0.153,0.047,0.308,0.047,0.468v6.657c0,1.174-0.816,2.19-1.963,2.442l-61.33,13.489l1.071,1.448
		c0.128,0.091,0.245,0.198,0.342,0.329l8.075,10.917c0.302,0.409,0.377,0.944,0.198,1.419c-0.015,0.041-0.041,0.076-0.059,0.114
		c0.028,0.151,0.046,0.307,0.046,0.467v6.658c0,1.174-0.816,2.189-1.962,2.441l-61.189,13.466l1.064,1.438
		c0.116,0.087,0.221,0.191,0.31,0.31l8.074,10.918c0.021,0.028,0.032,0.061,0.051,0.091l8.045,10.876
		c0.047,0.064,0.079,0.136,0.115,0.207l7.982,10.791c0.302,0.41,0.377,0.943,0.198,1.42c-0.016,0.041-0.041,0.074-0.06,0.113
		c0.029,0.152,0.047,0.308,0.047,0.468v6.657c0,1.175-0.818,2.191-1.965,2.441l-30.963,6.783l4.6,6.217
		c0.061,0.086,4.847,6.668,11.584,8.809c1.718,0.547,3.821,0.823,6.252,0.823c5.543,0,10.904-1.451,10.958-1.466l171.451-36.509
		c0.051-0.011,6.604-1.539,8.545-6.253c2.184-5.304-1.242-9.282-1.389-9.45C338.915,231.085,338.883,231.046,338.858,231.012"/>
	<path style="fill:#FFFFFF;" d="M245.815,157.802l-13.416,2.934c-0.008,0.002-0.016,0-0.025,0.002
		c-0.037,0.011-0.07,0.03-0.108,0.039l-15.526,3.394c-0.355,0.52-0.896,0.894-1.524,1.032l-32.695,7.21l1.745,2.358l61.549-13.537
		V157.802z"/>
	<path style="fill:#FFFFFF;" d="M264.075,128.298l-13.066,2.855c-0.007,0.002-0.013,0.002-0.019,0.002
		c-0.039,0.013-0.074,0.033-0.114,0.041l-15.173,3.317l2.121,2.867l26.251-5.547V128.298z"/>
	<path style="fill:#FFFFFF;" d="M192.195,195.085l-13.417,2.933c-0.005,0.001-0.011,0.001-0.016,0.001
		c-0.04,0.013-0.076,0.034-0.116,0.042l-17.346,3.792c-0.01,0.002-0.02,0.001-0.031,0.003c-0.018,0.005-0.034,0.015-0.053,0.019
		l-17.346,3.793c-0.007,0.001-0.014,0-0.021,0.002c-0.038,0.012-0.073,0.031-0.112,0.039l-15.172,3.317l2.222,3.004l61.408-13.513
		V195.085z"/>
	<path style="fill:#FFFFFF;" d="M154.87,254.281l-13.416,2.934c-0.009,0.002-0.017,0.002-0.025,0.002
		c-0.037,0.011-0.07,0.031-0.108,0.039l-16.264,3.556v3.428l29.813-6.529V254.281z"/>
	<polygon style="fill:#FFFFFF;" points="156.952,110.357 171.084,107.268 164.964,98.994 150.833,102.084 	"/>
	<polygon style="fill:#FFFFFF;" points="133.354,105.918 139.473,114.191 153.606,111.102 147.486,102.828 	"/>
	<polygon style="fill:#FFFFFF;" points="130.057,106.625 115.924,109.716 122.043,117.988 136.175,114.899 	"/>
	<polygon style="fill:#FFFFFF;" points="112.58,110.46 98.447,113.551 104.566,121.824 118.699,118.733 	"/>
	<polygon style="fill:#FFFFFF;" points="167.131,124.033 172.527,131.33 186.709,128.306 181.263,120.943 	"/>
	<polygon style="fill:#FFFFFF;" points="149.652,127.867 154.979,135.07 169.162,132.047 163.785,124.777 	"/>
	<polygon style="fill:#FFFFFF;" points="159.036,113.064 165.155,121.337 179.287,118.248 173.168,109.974 	"/>
	<polygon style="fill:#FFFFFF;" points="141.557,116.899 147.676,125.172 161.808,122.083 155.689,113.809 	"/>
	<polygon style="fill:#FFFFFF;" points="146.354,128.575 132.222,131.665 137.497,138.797 151.679,135.773 	"/>
	<polygon style="fill:#FFFFFF;" points="114.745,135.499 120.865,143.773 134.997,140.683 128.878,132.409 	"/>
	<polygon style="fill:#FFFFFF;" points="124.128,120.697 130.247,128.97 144.379,125.881 138.26,117.607 	"/>
	<polygon style="fill:#FFFFFF;" points="106.65,124.531 112.769,132.804 126.902,129.715 120.782,121.441 	"/>
	<polygon style="fill:#FFFFFF;" points="87.135,125.638 101.268,122.548 95.149,114.275 81.016,117.365 	"/>
	<polygon style="fill:#FFFFFF;" points="63.539,121.199 69.659,129.472 83.789,126.383 77.671,118.109 	"/>
	<polygon style="fill:#FFFFFF;" points="60.241,121.908 46.108,124.998 52.227,133.271 66.36,130.181 	"/>
	<polygon style="fill:#FFFFFF;" points="48.883,134.014 42.764,125.741 28.632,128.831 34.75,137.104 	"/>
	<polygon style="fill:#FFFFFF;" points="97.315,139.314 103.433,147.587 117.566,144.498 111.447,136.224 	"/>
	<polygon style="fill:#FFFFFF;" points="79.836,143.148 85.954,151.422 100.087,148.331 93.968,140.057 	"/>
	<polygon style="fill:#FFFFFF;" points="89.219,128.346 95.338,136.618 109.471,133.529 103.352,125.255 	"/>
	<polygon style="fill:#FFFFFF;" points="71.742,132.181 77.86,140.454 91.993,137.364 85.874,129.09 	"/>
	<polygon style="fill:#FFFFFF;" points="82.658,152.129 76.54,143.856 62.407,146.946 68.526,155.219 	"/>
	<polygon style="fill:#FFFFFF;" points="65.181,155.963 59.062,147.69 44.929,150.779 51.049,159.053 	"/>
	<polygon style="fill:#FFFFFF;" points="74.564,141.163 68.444,132.889 54.312,135.979 60.431,144.252 	"/>
	<polygon style="fill:#FFFFFF;" points="57.086,144.996 50.966,136.723 36.834,139.812 42.953,148.086 	"/>
	<polygon style="fill:#FFFFFF;" points="144.733,154.449 130.937,157.465 137.057,165.738 151.04,162.681 	"/>
	<polygon style="fill:#FFFFFF;" points="136.375,143.539 122.842,146.497 128.961,154.771 142.681,151.771 	"/>
	<polygon style="fill:#FFFFFF;" points="179.313,173.121 165.197,176.234 170.833,183.853 184.966,180.764 	"/>
	<polygon style="fill:#FFFFFF;" points="161.368,176.324 147.236,179.414 153.355,187.687 167.488,184.597 	"/>
	<polygon style="fill:#FFFFFF;" points="139.142,168.446 145.26,176.719 159.393,173.63 158.395,172.281 153.116,165.39 	"/>
	<polygon style="fill:#FFFFFF;" points="133.76,166.462 127.64,158.189 113.507,161.278 119.627,169.552 	"/>
	<polygon style="fill:#FFFFFF;" points="116.281,170.297 110.162,162.024 96.029,165.114 102.149,173.387 	"/>
	<polygon style="fill:#FFFFFF;" points="125.664,155.496 119.545,147.223 105.412,150.312 111.531,158.586 	"/>
	<polygon style="fill:#FFFFFF;" points="108.187,159.33 102.066,151.057 87.934,154.146 94.053,162.42 	"/>
	<polygon style="fill:#FFFFFF;" points="98.852,174.095 92.732,165.822 78.6,168.911 84.719,177.185 	"/>
	<polygon style="fill:#FFFFFF;" points="81.374,177.93 75.255,169.657 61.122,172.746 67.241,181.02 	"/>
	<polygon style="fill:#FFFFFF;" points="90.757,163.128 84.637,154.855 70.505,157.944 76.624,166.218 	"/>
	<polygon style="fill:#FFFFFF;" points="73.278,166.962 67.159,158.689 53.027,161.778 59.146,170.052 	"/>
	<polygon style="fill:#FFFFFF;" points="150.057,188.412 143.938,180.14 129.805,183.229 135.925,191.503 	"/>
	<polygon style="fill:#FFFFFF;" points="126.46,183.973 112.327,187.063 118.446,195.336 132.579,192.246 	"/>
	<polygon style="fill:#FFFFFF;" points="141.962,177.445 135.843,169.172 121.711,172.261 127.83,180.535 	"/>
	<polygon style="fill:#FFFFFF;" points="124.484,181.279 118.365,173.006 104.232,176.095 110.351,184.369 	"/>
	<polygon style="fill:#FFFFFF;" points="115.15,196.044 109.031,187.771 94.898,190.86 101.017,199.135 	"/>
	<polygon style="fill:#FFFFFF;" points="97.672,199.878 91.553,191.605 77.42,194.694 83.539,202.968 	"/>
	<polygon style="fill:#FFFFFF;" points="107.055,185.077 100.937,176.803 86.803,179.894 92.923,188.167 	"/>
	<polygon style="fill:#FFFFFF;" points="89.577,188.911 83.458,180.639 69.326,183.727 75.444,192.001 	"/>
	<polygon style="fill:#FFFFFF;" points="220.802,86.794 226.921,95.067 241.054,91.978 234.935,83.704 	"/>
	<polygon style="fill:#FFFFFF;" points="209.442,98.903 223.575,95.813 217.456,87.54 203.323,90.63 	"/>
	<polygon style="fill:#FFFFFF;" points="192.013,102.701 206.146,99.611 200.027,91.338 185.895,94.428 	"/>
	<polygon style="fill:#FFFFFF;" points="174.535,106.535 188.668,103.445 182.549,95.172 168.417,98.262 	"/>
	<polygon style="fill:#FFFFFF;" points="237.1,108.744 243.219,117.017 257.352,113.928 251.232,105.654 	"/>
	<polygon style="fill:#FFFFFF;" points="219.622,112.579 225.742,120.852 239.874,117.763 233.755,109.489 	"/>
	<polygon style="fill:#FFFFFF;" points="229.005,97.777 235.124,106.05 249.257,102.961 243.137,94.687 	"/>
	<polygon style="fill:#FFFFFF;" points="211.528,101.611 217.646,109.883 231.779,106.794 225.66,98.52 	"/>
	<polygon style="fill:#FFFFFF;" points="202.193,116.376 208.311,124.65 222.444,121.561 216.325,113.287 	"/>
	<path style="fill:#FFFFFF;" d="M184.714,120.21l5.515,7.458c0.536,0.045,1.032,0.275,1.438,0.634l13.299-2.908l-6.119-8.273
		L184.714,120.21z"/>
	<polygon style="fill:#FFFFFF;" points="194.098,105.409 200.218,113.683 214.35,110.594 208.23,102.319 	"/>
	<polygon style="fill:#FFFFFF;" points="176.62,109.243 182.739,117.516 196.872,114.426 190.753,106.154 	"/>
	<polygon style="fill:#FFFFFF;" points="245.198,119.743 251.317,128.016 265.45,124.927 259.331,116.653 	"/>
	<polygon style="fill:#FFFFFF;" points="241.852,120.488 227.719,123.578 233.838,131.851 247.971,128.761 	"/>
	<polygon style="fill:#FFFFFF;" points="232.518,135.252 218.385,138.342 224.505,146.615 238.637,143.525 	"/>
	<polygon style="fill:#FFFFFF;" points="202.056,141.925 208.292,150.173 221.158,147.36 215.039,139.086 	"/>
	<polygon style="fill:#FFFFFF;" points="230.542,132.558 224.423,124.286 210.29,127.374 216.41,135.648 	"/>
	<polygon style="fill:#FFFFFF;" points="193.792,130.995 200.028,139.242 213.064,136.392 206.945,128.119 	"/>
	<polygon style="fill:#FFFFFF;" points="226.589,149.324 232.708,157.597 246.84,154.508 240.721,146.234 	"/>
	<polygon style="fill:#FFFFFF;" points="223.243,150.068 210.345,152.888 216.581,161.135 229.362,158.34 	"/>
	<polygon style="fill:#FFFFFF;" points="172.968,186.606 179.087,194.879 193.22,191.789 187.1,183.515 	"/>
	<polygon style="fill:#FFFFFF;" points="169.623,187.35 155.49,190.441 161.609,198.714 175.742,195.624 	"/>
	<polygon style="fill:#FFFFFF;" points="152.193,191.165 138.06,194.256 144.179,202.529 158.312,199.44 	"/>
	<polygon style="fill:#FFFFFF;" points="134.714,194.999 120.582,198.09 126.701,206.363 140.833,203.273 	"/>
	<polygon style="fill:#FFFFFF;" points="125.38,209.764 111.247,212.855 117.366,221.128 131.499,218.037 	"/>
	<polygon style="fill:#FFFFFF;" points="114.021,221.873 107.902,213.6 93.769,216.689 99.888,224.963 	"/>
	<polygon style="fill:#FFFFFF;" points="103.152,201.887 109.271,210.16 123.404,207.071 117.285,198.797 	"/>
	<polygon style="fill:#FFFFFF;" points="105.926,210.906 99.806,202.633 85.674,205.721 91.793,213.996 	"/>
	<polygon style="fill:#FFFFFF;" points="127.545,234.804 133.665,243.078 147.798,239.988 141.678,231.713 	"/>
	<polygon style="fill:#FFFFFF;" points="130.319,243.822 124.2,235.549 110.067,238.638 116.186,246.912 	"/>
	<polygon style="fill:#FFFFFF;" points="119.45,223.836 125.569,232.109 139.702,229.02 133.583,220.746 	"/>
	<polygon style="fill:#FFFFFF;" points="122.225,232.853 116.104,224.581 101.972,227.67 108.091,235.944 	"/>
	<polygon style="fill:#FFFFFF;" points="135.643,245.802 141.762,254.077 155.895,250.986 149.776,242.712 	"/>
	<polygon style="fill:#FFFFFF;" points="138.417,254.82 132.298,246.548 118.165,249.637 124.284,257.91 	"/>
	<path style="fill:#FFFFFF;" d="M210.332,161.16l-21.343-28.227l-46.798,9.975l21.811,28.468L210.332,161.16z M195.532,154.892
		c-0.016,0.054-0.066,0.089-0.12,0.089c-0.011,0-0.022-0.001-0.033-0.005l-11.517-3.246c-0.055-0.016-0.093-0.067-0.092-0.123
		c0.001-0.057,0.04-0.106,0.095-0.119l11.124-2.755c0.063-0.017,0.121,0.015,0.145,0.071c0.518,1.195,0.78,2.398,0.78,3.577
		C195.914,153.202,195.786,154.046,195.532,154.892 M183.012,140.079c4.04,1.067,7.395,2.873,9.702,5.223
		c0.032,0.032,0.043,0.078,0.031,0.122c-0.012,0.043-0.046,0.076-0.09,0.087l-13.312,3.298c-0.01,0.003-0.02,0.004-0.03,0.004
		c-0.036,0-0.071-0.016-0.095-0.044c-0.031-0.037-0.039-0.087-0.02-0.131l3.667-8.486
		C182.889,140.094,182.953,140.065,183.012,140.079 M170.286,139.419c1.609-0.246,3.219-0.37,4.784-0.37
		c1.061,0,2.156,0.066,3.45,0.204c0.039,0.005,0.074,0.028,0.094,0.063c0.02,0.033,0.022,0.076,0.007,0.112l-3.255,7.53
		c-0.018,0.043-0.058,0.071-0.104,0.076c-0.003,0.001-0.007,0.001-0.011,0.001c-0.041,0-0.08-0.022-0.104-0.056l-4.946-7.366
		c-0.023-0.036-0.028-0.082-0.01-0.121C170.208,139.452,170.244,139.425,170.286,139.419 M165.658,140.514
		c0.055-0.015,0.112,0.003,0.142,0.05l4.838,7.205c0.029,0.043,0.028,0.099-0.003,0.142c-0.023,0.034-0.061,0.052-0.101,0.052
		c-0.011,0-0.022-0.001-0.034-0.005l-12.006-3.386c-0.044-0.013-0.078-0.049-0.088-0.094c-0.009-0.045,0.006-0.092,0.042-0.122
		C160.331,142.761,162.824,141.433,165.658,140.514 M154.706,154.91c-0.054,0-0.104-0.037-0.12-0.091
		c-0.244-0.848-0.363-1.646-0.363-2.438c0-1.602,0.461-3.192,1.371-4.723c0.029-0.049,0.086-0.075,0.141-0.057l12.867,3.628
		c0.055,0.014,0.093,0.065,0.092,0.122c-0.001,0.057-0.04,0.105-0.095,0.119l-13.862,3.436
		C154.726,154.908,154.716,154.91,154.706,154.91 M167.576,164.792c-0.009,0-0.02-0.001-0.03-0.004
		c-4.788-1.187-8.704-3.441-11.028-6.343c-0.027-0.034-0.034-0.078-0.021-0.119c0.014-0.04,0.047-0.071,0.088-0.081l15.326-3.796
		c0.048-0.015,0.095,0.003,0.125,0.04c0.031,0.036,0.039,0.087,0.02,0.129l-4.365,10.099
		C167.671,164.763,167.625,164.792,167.576,164.792 M181.971,164.949c-2.262,0.505-4.584,0.763-6.901,0.763
		c-0.9,0-1.855-0.051-3.004-0.158c-0.04-0.004-0.076-0.025-0.096-0.061c-0.021-0.034-0.024-0.076-0.007-0.113l4.022-9.305
		c0.018-0.042,0.057-0.071,0.103-0.076c0.037-0.007,0.089,0.018,0.115,0.055l5.845,8.702c0.022,0.034,0.027,0.077,0.012,0.116
		C182.044,164.911,182.011,164.939,181.971,164.949 M186.402,163.556c-0.016,0.008-0.032,0.01-0.048,0.01
		c-0.04,0-0.08-0.02-0.104-0.055l-5.86-8.726c-0.028-0.043-0.028-0.1,0.003-0.143c0.031-0.042,0.086-0.061,0.135-0.047l13.012,3.67
		c0.04,0.012,0.072,0.042,0.085,0.082c0.013,0.04,0.005,0.084-0.021,0.116C191.95,160.523,189.461,162.285,186.402,163.556"/>
</g>
</svg>
