<?xml version="1.0" encoding="iso-8859-1"?>
<!-- Generator: Adobe Illustrator 25.4.1, SVG Export Plug-In . SVG Version: 6.00 Build 0)  -->
<svg version="1.1" id="Calque_1" xmlns="http://www.w3.org/2000/svg" xmlns:xlink="http://www.w3.org/1999/xlink" x="0px" y="0px"
	 viewBox="0 0 368.5 368.5" style="enable-background:new 0 0 368.5 368.5;" xml:space="preserve">
<g>
	<path style="fill:#FFFFFF;" d="M77.323,61.746h89.173c21.02,0.037,38.147,17.165,38.184,38.183v36.099
		c3.051-0.302,6.143-0.463,9.272-0.463c3.362,0,6.68,0.187,9.95,0.535V99.935c-0.004-31.647-25.756-57.403-57.407-57.412H77.323
		c-5.299,0-9.61,4.312-9.61,9.611C67.713,57.434,72.024,61.746,77.323,61.746"/>
	<path style="fill:#FFFFFF;" d="M213.951,141.668c-47.259,0-85.894,37.64-87.509,84.514h175.023
		C299.85,179.308,261.212,141.668,213.951,141.668 M276.515,208.725c-0.816,0.224-1.637,0.333-2.445,0.333
		c-4.016-0.002-7.701-2.66-8.819-6.716c-1.344-5.098-5.822-12.131-11.852-18.06c-5.975-5.981-13.456-10.948-19.759-13.137
		c-4.771-1.683-7.27-6.912-5.587-11.681c1.683-4.764,6.913-7.266,11.68-5.584c9.721,3.464,18.889,9.812,26.578,17.418
		c7.635,7.661,13.84,16.49,16.587,26.163C284.245,202.334,281.386,207.376,276.515,208.725"/>
	<path style="fill:#FFFFFF;" d="M294.133,237.196H134.838c-4.847,0-8.791,3.944-8.791,8.792c0,4.846,3.944,8.788,8.791,8.788
		h159.295c4.847,0,8.79-3.942,8.79-8.788C302.923,241.14,298.98,237.196,294.133,237.196"/>
	<path style="fill:#FFFFFF;" d="M186.507,313.19c-1.416,1.417-2.196,3.3-2.194,5.305c0.001,2.001,0.782,3.88,2.197,5.297
		c1.416,1.414,3.298,2.193,5.3,2.193c2.003,0,3.884-0.779,5.297-2.193c2.922-2.921,2.924-7.677,0.001-10.604
		C194.275,310.357,189.333,310.361,186.507,313.19 M192.262,318.944c-0.235,0.238-0.668,0.24-0.909-0.002
		c-0.249-0.248-0.249-0.656-0.001-0.904c0.119-0.119,0.291-0.191,0.458-0.191c0.166,0,0.335,0.07,0.453,0.189
		C192.512,318.286,192.512,318.694,192.262,318.944"/>
	<path style="fill:#FFFFFF;" d="M248.885,323.792c2.923-2.925,2.922-7.681-0.003-10.602c-2.833-2.833-7.777-2.821-10.596,0
		c-1.415,1.415-2.196,3.296-2.198,5.297c-0.003,2.003,0.776,3.886,2.195,5.307c1.416,1.415,3.298,2.193,5.3,2.193
		C245.585,325.987,247.467,325.209,248.885,323.792 M243.133,318.036c0.117-0.117,0.285-0.187,0.451-0.187
		c0.165,0,0.333,0.07,0.453,0.189c0.119,0.119,0.19,0.29,0.19,0.457s-0.071,0.336-0.185,0.449c-0.236,0.236-0.672,0.24-0.91,0.004
		C242.88,318.696,242.88,318.288,243.133,318.036"/>
	<path style="fill:#FFFFFF;" d="M161.598,277.143c-2.922,2.921-2.921,7.675,0.001,10.598c1.417,1.416,3.299,2.197,5.301,2.197
		c2.001,0,3.882-0.779,5.296-2.193c1.418-1.417,2.199-3.3,2.198-5.303c0-2.001-0.78-3.882-2.198-5.301
		C169.364,274.312,164.434,274.31,161.598,277.143 M167.351,282.899c-0.232,0.23-0.669,0.236-0.908-0.002
		c-0.117-0.117-0.187-0.286-0.187-0.453c0-0.167,0.071-0.34,0.188-0.455c0.117-0.117,0.288-0.189,0.456-0.189
		c0.169,0,0.339,0.072,0.454,0.187C167.604,282.237,167.604,282.647,167.351,282.899"/>
	<path style="fill:#FFFFFF;" d="M273.792,287.741c2.922-2.921,2.923-7.675,0.005-10.596c-2.831-2.837-7.771-2.835-10.606-0.002
		c-2.921,2.925-2.92,7.679,0.001,10.596c1.415,1.418,3.297,2.197,5.3,2.197S272.378,289.157,273.792,287.741 M268.038,281.987
		c0.117-0.117,0.288-0.189,0.455-0.189c0.169,0,0.34,0.072,0.455,0.187c0.251,0.252,0.251,0.66-0.001,0.912
		c-0.232,0.234-0.674,0.234-0.906,0C267.789,282.645,267.788,282.237,268.038,281.987"/>
	<path style="fill:#FFFFFF;" d="M212.4,277.137c-1.418,1.415-2.2,3.298-2.199,5.303c0.001,2.007,0.783,3.89,2.191,5.291
		c1.416,1.423,3.3,2.203,5.306,2.203c2.003,0,3.884-0.778,5.292-2.189c1.42-1.415,2.202-3.296,2.202-5.301s-0.78-3.888-2.196-5.301
		C220.168,274.31,215.22,274.312,212.4,277.137 M218.151,282.895c-0.235,0.233-0.681,0.233-0.909,0.002
		c-0.118-0.117-0.189-0.288-0.188-0.455c0-0.169,0.071-0.342,0.184-0.453c0.119-0.119,0.292-0.193,0.46-0.193
		c0.169,0,0.341,0.072,0.448,0.181c0.12,0.119,0.193,0.292,0.193,0.461S218.267,282.78,218.151,282.895"/>
</g>
</svg>
