<?xml version="1.0" encoding="iso-8859-1"?>
<!-- Generator: Adobe Illustrator 25.4.1, SVG Export Plug-In . SVG Version: 6.00 Build 0)  -->
<svg version="1.1" id="Calque_1" xmlns="http://www.w3.org/2000/svg" xmlns:xlink="http://www.w3.org/1999/xlink" x="0px" y="0px"
	 viewBox="0 0 368.5 368.5" style="enable-background:new 0 0 368.5 368.5;" xml:space="preserve">
<g>
	<path style="fill:#FFFFFF;" d="M201.813,150.258c0.74,0,1.428-0.107,2.045-0.292v-10.401h-3.857v10.458
		C200.555,150.165,201.155,150.258,201.813,150.258"/>
	<path style="fill:#FFFFFF;" d="M212.401,151.984c-1.898,2.848-5.32,4.831-9.277,5.197c3.72,5.157,5.879,11.432,5.879,18.024v35.67
		h8.513v-54.533C216.075,154.632,214.352,153.15,212.401,151.984"/>
	<path style="fill:#FFFFFF;" d="M178.089,153.693c0.754-0.017,1.479-0.124,2.154-0.312v-0.377v-13.44h-4.435v12.514
		C176.591,152.588,177.355,153.124,178.089,153.693"/>
	<path style="fill:#FFFFFF;" d="M202.003,223.387v-48.182c0-8.621-4.746-16.565-12.109-20.75c-1.307,2.163-3.397,3.918-5.94,5.012
		c4.768,5.975,7.553,13.494,7.553,21.414v42.506H202.003z"/>
	<path style="fill:#FFFFFF;" d="M154.518,156.799c0.748,0.176,1.537,0.276,2.35,0.276c0.925,0,1.818-0.127,2.652-0.349v-6.085
		v-11.076h-5.002v15.822V156.799z"/>
	<path style="fill:#FFFFFF;" d="M184.507,180.881c0-10.033-5.607-19.268-14.268-24.005c-2.369,4.268-7.492,7.199-13.371,7.199
		c-3.797,0-7.248-1.191-9.863-3.171v74.761h37.502V180.881z"/>
	<rect x="147.005" y="131.271" style="fill:#FFFFFF;" width="70.512" height="3.293"/>
	<path style="fill:#FFFFFF;" d="M130.945,215.951H77.867v29.767h53.078V215.951z M109.849,225.619H99.476
		c-2.035,0-3.691-1.656-3.691-3.691c0-2.036,1.656-3.691,3.691-3.691h10.373c2.035,0,3.691,1.655,3.691,3.691
		C113.54,223.963,111.884,225.619,109.849,225.619"/>
	<path style="fill:#FFFFFF;" d="M79.894,294.549h51.051v-30.39H77.867v28.367C77.868,293.637,78.778,294.547,79.894,294.549
		 M99.476,266.106h10.373c2.035,0,3.691,1.655,3.691,3.69c0,2.036-1.656,3.692-3.691,3.692H99.476c-2.035,0-3.691-1.656-3.691-3.692
		C95.785,267.761,97.44,266.106,99.476,266.106"/>
	<path style="fill:#FFFFFF;" d="M197.128,65.512h-35.387c-4.869,0-8.83,3.961-8.83,8.83s3.961,8.83,8.83,8.83h35.387
		c4.867,0,8.828-3.961,8.828-8.83S201.995,65.512,197.128,65.512 M197.128,80.172h-35.387c-3.215,0-5.83-2.615-5.83-5.83
		s2.615-5.83,5.83-5.83h35.387c3.213,0,5.828,2.615,5.828,5.83S200.341,80.172,197.128,80.172"/>
	<path style="fill:#FFFFFF;" d="M197.128,87.453h-35.387c-4.869,0-8.83,3.961-8.83,8.83s3.961,8.83,8.83,8.83h35.387
		c4.867,0,8.828-3.961,8.828-8.83S201.995,87.453,197.128,87.453 M197.128,102.113h-35.387c-3.215,0-5.83-2.615-5.83-5.83
		s2.615-5.83,5.83-5.83h35.387c3.213,0,5.828,2.615,5.828,5.83S200.341,102.113,197.128,102.113"/>
	<path style="fill:#FFFFFF;" d="M118.933,73.288H91.066c-4.01,0-7.272,3.263-7.272,7.272c0,4.01,3.262,7.272,7.272,7.272h27.867
		c4.01,0,7.273-3.262,7.273-7.272C126.206,76.551,122.943,73.288,118.933,73.288 M118.933,84.832H91.066
		c-2.356,0-4.272-1.916-4.272-4.272c0-2.355,1.916-4.272,4.272-4.272h27.867c2.355,0,4.273,1.917,4.273,4.272
		C123.206,82.916,121.288,84.832,118.933,84.832"/>
	<path style="fill:#FFFFFF;" d="M118.933,90.568H91.066c-4.01,0-7.272,3.262-7.272,7.272c0,4.009,3.262,7.272,7.272,7.272h27.867
		c4.01,0,7.273-3.263,7.273-7.272C126.206,93.83,122.943,90.568,118.933,90.568 M118.933,102.112H91.066
		c-2.356,0-4.272-1.917-4.272-4.272c0-2.356,1.916-4.272,4.272-4.272h27.867c2.355,0,4.273,1.916,4.273,4.272
		C123.206,100.195,121.288,102.112,118.933,102.112"/>
	<path style="fill:#FFFFFF;" d="M117.167,171.018H92.833c-3.607,0-6.541,2.934-6.541,6.539c0,3.607,2.934,6.541,6.541,6.541h24.334
		c3.605,0,6.541-2.934,6.541-6.541C123.708,173.952,120.772,171.018,117.167,171.018 M117.167,181.098H92.833
		c-1.953,0-3.541-1.588-3.541-3.541c0-1.951,1.588-3.539,3.541-3.539h24.334c1.951,0,3.541,1.588,3.541,3.539
		C120.708,179.51,119.118,181.098,117.167,181.098"/>
	<path style="fill:#FFFFFF;" d="M117.167,186.106H92.833c-3.607,0-6.541,2.934-6.541,6.541c0,3.606,2.934,6.541,6.541,6.541h24.334
		c3.605,0,6.541-2.935,6.541-6.541C123.708,189.04,120.772,186.106,117.167,186.106 M117.167,196.188H92.833
		c-1.953,0-3.541-1.588-3.541-3.541c0-1.952,1.588-3.541,3.541-3.541h24.334c1.951,0,3.541,1.589,3.541,3.541
		C120.708,194.6,119.118,196.188,117.167,196.188"/>
	<path style="fill:#FFFFFF;" d="M117.167,125.018H92.833c-3.607,0-6.541,2.934-6.541,6.539c0,3.607,2.934,6.541,6.541,6.541h24.334
		c3.605,0,6.541-2.934,6.541-6.541C123.708,127.952,120.772,125.018,117.167,125.018 M117.167,135.098H92.833
		c-1.953,0-3.541-1.588-3.541-3.541c0-1.951,1.588-3.539,3.541-3.539h24.334c1.951,0,3.541,1.588,3.541,3.539
		C120.708,133.51,119.118,135.098,117.167,135.098"/>
	<path style="fill:#FFFFFF;" d="M117.167,140.106H92.833c-3.607,0-6.541,2.934-6.541,6.541c0,3.606,2.934,6.541,6.541,6.541h24.334
		c3.605,0,6.541-2.935,6.541-6.541C123.708,143.04,120.772,140.106,117.167,140.106 M117.167,150.188H92.833
		c-1.953,0-3.541-1.588-3.541-3.541c0-1.952,1.588-3.541,3.541-3.541h24.334c1.951,0,3.541,1.589,3.541,3.541
		C120.708,148.6,119.118,150.188,117.167,150.188"/>
	<path style="fill:#FFFFFF;" d="M290.591,292.938V123.58h-68.075v170.97h66.094C289.581,294.548,290.395,293.856,290.591,292.938
		 M233.239,214.838c0,2.035-1.656,3.691-3.691,3.691c-2.036,0-3.692-1.656-3.692-3.691v-10.372c0-2.036,1.656-3.692,3.692-3.692
		c2.035,0,3.691,1.656,3.691,3.692V214.838z"/>
	<path style="fill:#FFFFFF;" d="M75.569,307.772c1.076,0.305,1.82,1.287,1.82,2.406v9.257c0,2.231,1.815,4.047,4.047,4.047
		c2.233,0,4.047-1.816,4.047-4.047v-8.56c0-1.381,1.119-2.5,2.5-2.5h192.924c1.381,0,2.5,1.119,2.5,2.5v8.56
		c0,2.231,1.814,4.047,4.047,4.047c2.232,0,4.049-1.816,4.049-4.047v-9.369c0-1.097,0.716-2.066,1.765-2.388
		c6.692-2.055,11.188-8.145,11.19-15.153V60.866c-0.004-8.735-7.114-15.846-15.85-15.849H79.889
		c-8.734,0.003-15.845,7.114-15.847,15.85v231.659C64.044,299.583,68.784,305.853,75.569,307.772 M222.635,56.341
		c0-1.381,1.12-2.5,2.5-2.5h63.475c3.867,0.009,7.016,3.159,7.026,7.019v48.952c0,1.381-1.12,2.5-2.5,2.5h-68.001
		c-1.38,0-2.5-1.119-2.5-2.5V56.341z M142.005,56.341c0-1.381,1.119-2.5,2.5-2.5h69.57c1.381,0,2.5,1.119,2.5,2.5v53.471
		c0,1.381-1.119,2.5-2.5,2.5h-69.57c-1.381,0-2.5-1.119-2.5-2.5V56.341z M142.005,120.873c0-1.381,1.119-2.5,2.5-2.5h148.631
		c1.38,0,2.5,1.119,2.5,2.5v171.653c-0.01,3.869-3.161,7.018-7.022,7.024H144.505c-1.381,0-2.5-1.12-2.5-2.5V120.873z
		 M72.866,60.866c0.008-3.866,3.156-7.016,7.017-7.025h0.004h53.557c1.381,0,2.5,1.119,2.5,2.5v53.471c0,1.381-1.119,2.5-2.5,2.5
		H75.366c-1.381,0-2.5-1.119-2.5-2.5V60.866z M72.866,120.872c0-1.381,1.119-2.5,2.5-2.5h58.078c1.381,0,2.5,1.119,2.5,2.5v35.517
		c0,1.38-1.119,2.5-2.5,2.5H75.366c-1.381,0-2.5-1.12-2.5-2.5V120.872z M72.866,167.449c0-1.381,1.119-2.5,2.5-2.5h58.078
		c1.381,0,2.5,1.119,2.5,2.5v34.943c0,1.381-1.119,2.5-2.5,2.5H75.366c-1.381,0-2.5-1.119-2.5-2.5V167.449z M72.866,213.451
		c0-1.381,1.119-2.5,2.5-2.5h58.078c1.381,0,2.5,1.119,2.5,2.5v34.767c0,1.381-1.119,2.5-2.5,2.5H75.366c-1.381,0-2.5-1.119-2.5-2.5
		V213.451z M72.866,261.659c0-1.381,1.119-2.5,2.5-2.5h58.078c1.381,0,2.5,1.119,2.5,2.5v35.391c0,1.38-1.119,2.5-2.5,2.5H79.889
		c-3.865-0.006-7.015-3.155-7.023-7.018V261.659z"/>
	<path style="fill:#FFFFFF;" d="M282.849,64.342h-46.154c-3.276,0-5.94,2.664-5.94,5.937c0,3.275,2.664,5.938,5.94,5.938h46.154
		c3.275,0,5.939-2.663,5.939-5.938C288.788,67.006,286.124,64.342,282.849,64.342 M282.849,73.217h-46.154
		c-1.621,0-2.94-1.317-2.94-2.938c0-1.619,1.319-2.937,2.94-2.937h46.154c1.621,0,2.939,1.318,2.939,2.937
		C285.788,71.9,284.47,73.217,282.849,73.217"/>
	<path style="fill:#FFFFFF;" d="M282.849,79.548h-46.154c-3.276,0-5.94,2.663-5.94,5.938c0,3.274,2.664,5.938,5.94,5.938h46.154
		c3.275,0,5.939-2.664,5.939-5.938C288.788,82.211,286.124,79.548,282.849,79.548 M282.849,88.424h-46.154
		c-1.621,0-2.94-1.318-2.94-2.938c0-1.621,1.319-2.938,2.94-2.938h46.154c1.621,0,2.939,1.317,2.939,2.938
		C285.788,87.106,284.47,88.424,282.849,88.424"/>
	<path style="fill:#FFFFFF;" d="M282.849,94.755h-46.154c-3.276,0-5.94,2.663-5.94,5.936c0,3.274,2.664,5.938,5.94,5.938h46.154
		c3.275,0,5.939-2.664,5.939-5.938C288.788,97.418,286.124,94.755,282.849,94.755 M282.849,103.629h-46.154
		c-1.621,0-2.94-1.317-2.94-2.938c0-1.619,1.319-2.936,2.94-2.936h46.154c1.621,0,2.939,1.317,2.939,2.936
		C285.788,102.312,284.47,103.629,282.849,103.629"/>
</g>
</svg>
