<?xml version="1.0" encoding="iso-8859-1"?>
<!-- Generator: Adobe Illustrator 25.4.1, SVG Export Plug-In . SVG Version: 6.00 Build 0)  -->
<svg version="1.1" id="Calque_1" xmlns="http://www.w3.org/2000/svg" xmlns:xlink="http://www.w3.org/1999/xlink" x="0px" y="0px"
	 viewBox="0 0 368.5 368.5" style="enable-background:new 0 0 368.5 368.5;" xml:space="preserve">
<g>
	<path style="fill:#FFFFFF;" d="M194.191,81.408c-1.97,0-3.807,0.082-5.532,0.275c0.33,2.49,0.767,5.113,1.351,7.807
		c3.073,14.191,11.596,26.482,11.956,27c1.095,1.563,2.843,2.4,4.617,2.4c1.115,0,2.241-0.329,3.224-1.017
		c2.546-1.782,3.166-5.293,1.384-7.84c-0.076-0.108-7.579-10.925-10.178-22.928c-0.421-1.941-0.748-3.846-1.017-5.688
		L194.191,81.408z"/>
	<path style="fill:#FFFFFF;" d="M164.317,117.148c1.331-30.542,9.09-40.243,29.876-40.243l15.376,0.026l0.031-11.85l-15.136-14.826
		l-70.171-0.153l0.096,19.488c12.386,5.115,20.601,16.696,20.601,29.276v21.65C150.804,118.796,157.255,117.671,164.317,117.148
		 M143.053,62.757c0-1.867,1.512-3.378,3.378-3.378h17.758c1.866,0,3.378,1.511,3.378,3.378c0,1.865-1.512,3.378-3.378,3.378
		h-17.758C144.565,66.135,143.053,64.622,143.053,62.757"/>
	<path style="fill:#FFFFFF;" d="M170.203,188.854c0.264-22.457,0.547-55.285,0.39-65.268c-38.441,0.935-57.924,18.923-57.924,53.501
		l-0.303,127.67c0,11.7,9.522,21.227,21.226,21.227h59.064c11.71,0,21.237-9.527,21.237-21.236v-69.157l-42.744-44.351
		C170.533,190.599,170.193,189.742,170.203,188.854 M194.475,258.503v38.668c0,4.282-3.473,7.755-7.756,7.755h-48.038
		c-4.285,0-7.754-3.473-7.754-7.755V198.81c0-4.283,3.469-7.755,7.754-7.755l48.038,48.142
		C191.752,244.196,194.475,247.826,194.475,258.503"/>
	<path style="fill:#FFFFFF;" d="M247.115,93.798c1.141,0,2.255-0.578,2.891-1.626c0.967-1.593,0.46-3.669-1.134-4.64l-13.983-8.492
		c-1.598-0.968-3.672-0.459-4.641,1.133c-0.967,1.595-0.461,3.673,1.134,4.641l13.983,8.493
		C245.913,93.639,246.518,93.798,247.115,93.798"/>
	<path style="fill:#FFFFFF;" d="M245.365,43.01l-13.983,8.492c-1.594,0.969-2.101,3.047-1.133,4.641
		c0.636,1.047,1.749,1.624,2.89,1.624c0.597,0,1.203-0.158,1.75-0.49l13.983-8.494c1.595-0.968,2.102-3.046,1.134-4.64
		C249.038,42.548,246.959,42.044,245.365,43.01"/>
	<path style="fill:#FFFFFF;" d="M233.074,68.157c0,1.866,1.512,3.378,3.378,3.378h16.361c1.866,0,3.377-1.512,3.377-3.378
		c0-1.866-1.511-3.378-3.377-3.378h-16.361C234.586,64.779,233.074,66.291,233.074,68.157"/>
</g>
</svg>
