<?xml version="1.0" encoding="iso-8859-1"?>
<!-- Generator: Adobe Illustrator 25.4.1, SVG Export Plug-In . SVG Version: 6.00 Build 0)  -->
<svg version="1.1" id="Calque_1" xmlns="http://www.w3.org/2000/svg" xmlns:xlink="http://www.w3.org/1999/xlink" x="0px" y="0px"
	 viewBox="0 0 368.5 368.5" style="enable-background:new 0 0 368.5 368.5;" xml:space="preserve">
<g>
	<path style="fill:#FFFFFF;" d="M247.015,287.888c0.662,1.342,2.004,2.174,3.504,2.174c0.603,0,1.183-0.137,1.725-0.405
		c0.939-0.464,1.638-1.264,1.972-2.252c0.332-0.989,0.262-2.048-0.201-2.984l-2.047-4.137c-2.053,1.268-4.385,2.448-6.969,3.532
		L247.015,287.888z"/>
	<path style="fill:#FFFFFF;" d="M118.634,306.014c0.557,0.232,1.15,0.337,1.746,0.299c1.496-0.092,2.785-1.006,3.365-2.385
		l8.202-19.499c-2.596-1.018-4.967-2.125-7.083-3.316l-8.32,19.784C115.708,302.882,116.646,305.177,118.634,306.014"/>
	<path style="fill:#FFFFFF;" d="M195.834,320.995c0.088,2.097,1.801,3.739,3.898,3.739l0.17-0.004
		c2.153-0.092,3.83-1.917,3.739-4.067l-1.203-28.181c-2.59,0.179-5.196,0.316-7.803,0.4L195.834,320.995z"/>
	<path style="fill:#FFFFFF;" d="M187.712,285.996c41.285,0,66.635-10.947,66.635-18.795v-92.186c-0.43-0.135-0.814-0.41-1.074-0.808
		l-3.68-5.603l-5.693,15.052c-0.301,0.794-1.057,1.293-1.871,1.293c-0.168,0-0.34-0.022-0.51-0.067
		c-0.99-0.26-1.625-1.228-1.467-2.241l3.244-20.911l-5.34-6.659c-0.337-0.42-0.49-0.959-0.425-1.494
		c0.066-0.535,0.343-1.02,0.771-1.347l7.141-5.455l3.47-21.323c0.19-0.974,1.047-1.657,2.061-1.614
		c0.99,0.049,1.797,0.818,1.893,1.806l1.392,14.399l0.088-0.067V119.7c-0.004,0.002-0.008,0.004-0.01,0.005
		c-0.398,0.217-0.814,0.43-1.24,0.64c-0.1,0.049-0.199,0.098-0.299,0.146c-0.431,0.207-0.873,0.412-1.33,0.611
		c-0.019,0.008-0.037,0.016-0.057,0.023c-0.445,0.194-0.906,0.383-1.376,0.569c-0.108,0.043-0.217,0.085-0.327,0.128
		c-0.486,0.188-0.982,0.374-1.494,0.555c-0.051,0.018-0.101,0.036-0.152,0.053c-0.477,0.167-0.965,0.33-1.461,0.491
		c-0.111,0.036-0.223,0.074-0.334,0.109c-0.539,0.172-1.084,0.34-1.643,0.504c-0.078,0.022-0.156,0.045-0.234,0.066
		c-0.508,0.148-1.025,0.293-1.549,0.434c-0.109,0.03-0.219,0.06-0.328,0.089c-0.584,0.155-1.176,0.307-1.775,0.454
		c-0.096,0.024-0.192,0.046-0.285,0.07c-0.547,0.133-1.1,0.262-1.659,0.389c-0.099,0.023-0.199,0.046-0.3,0.068
		c-0.624,0.141-1.252,0.275-1.889,0.408c-0.11,0.023-0.221,0.045-0.33,0.068c-0.588,0.12-1.18,0.238-1.778,0.352
		c-0.08,0.016-0.16,0.031-0.238,0.047c-0.658,0.125-1.322,0.245-1.99,0.363c-0.119,0.022-0.24,0.041-0.361,0.063
		c-0.635,0.11-1.274,0.218-1.918,0.322c-0.047,0.008-0.094,0.017-0.141,0.023c-0.684,0.112-1.371,0.217-2.063,0.321
		c-0.134,0.019-0.267,0.039-0.402,0.059c-0.681,0.101-1.365,0.199-2.055,0.293c-0.007,0.001-0.017,0.003-0.027,0.004
		c-0.703,0.096-1.408,0.189-2.117,0.278c-0.139,0.018-0.277,0.035-0.416,0.052c-1.41,0.176-2.828,0.339-4.25,0.491
		c-0.139,0.014-0.275,0.03-0.414,0.043c-0.711,0.076-1.422,0.148-2.133,0.216c-0.033,0.003-0.066,0.007-0.102,0.01
		c-0.679,0.065-1.361,0.128-2.041,0.188c-0.134,0.012-0.269,0.024-0.404,0.036c-0.701,0.06-1.402,0.12-2.103,0.175
		c-0.08,0.006-0.159,0.012-0.239,0.019c-0.636,0.05-1.269,0.098-1.9,0.144c-0.137,0.009-0.272,0.019-0.408,0.029
		c-0.686,0.049-1.367,0.096-2.047,0.139c-0.111,0.007-0.223,0.013-0.334,0.021c-0.604,0.037-1.201,0.073-1.799,0.107
		c-0.127,0.008-0.256,0.016-0.383,0.022c-0.666,0.038-1.328,0.072-1.986,0.105c-0.125,0.006-0.25,0.012-0.375,0.018
		c-0.588,0.029-1.172,0.056-1.752,0.08c-0.105,0.005-0.209,0.01-0.314,0.014c-0.641,0.027-1.276,0.051-1.905,0.074
		c-0.142,0.006-0.285,0.01-0.427,0.014c-0.567,0.02-1.127,0.039-1.682,0.054c-0.08,0.002-0.162,0.005-0.242,0.008
		c-0.616,0.017-1.219,0.031-1.819,0.045c-0.142,0.003-0.285,0.006-0.425,0.009c-0.553,0.011-1.098,0.02-1.635,0.029
		c-0.057,0.001-0.112,0.002-0.168,0.003c-0.576,0.008-1.143,0.014-1.703,0.018c-0.139,0.002-0.278,0.003-0.414,0.004
		c-0.559,0.003-1.114,0.005-1.653,0.005c-0.515,0-1.045-0.002-1.578-0.005c-0.254-0.001-0.51-0.003-0.767-0.006
		c-0.114,0-0.227-0.002-0.34-0.003c-20.364-0.195-50.457-2.611-63.95-10.062v40.515l0.176-1.222
		c0.143-0.984,0.987-1.715,1.981-1.715h0.004c0.996,0.003,1.838,0.739,1.976,1.725c0.004,0.027,0.02,0.141,0.022,0.17l1.736,18.135
		l5.326,4.583c0.815,0.701,0.93,1.921,0.26,2.761l-4.561,5.728l1.602,17.998c0.09,1.023-0.609,1.95-1.619,2.143
		c-0.125,0.023-0.25,0.035-0.375,0.035c-0.869,0-1.66-0.571-1.916-1.432l-3.567-12.036l-1.045,1.58v68.432
		C121.077,275.049,146.427,285.996,187.712,285.996 M214.224,206.348l8.465-2.891l3.209-12.331c0.015-0.063,0.035-0.126,0.058-0.187
		c0.301-0.817,1.073-1.384,1.979-1.337c0.871,0.039,1.627,0.607,1.851,1.45l2.448,9.147l7.478-2.556
		c0.803-0.273,1.694-0.011,2.219,0.658c0.525,0.668,0.57,1.596,0.111,2.313c-0.033,0.052-0.101,0.154-0.14,0.204l-7.389,9.432
		l2.535,10.295c0.203,0.823-0.135,1.682-0.84,2.149c-0.707,0.465-1.629,0.436-2.304-0.072l-6.088-4.586l-6.846,9.522
		c-0.385,0.536-0.996,0.833-1.625,0.833c-0.281,0-0.566-0.061-0.836-0.184c-0.869-0.4-1.332-1.361-1.105-2.293l2.908-11.88
		l-6.508-4.102c-0.652-0.41-1.01-1.158-0.92-1.924C212.974,207.243,213.495,206.596,214.224,206.348 M212.619,233.681
		c0.019-0.069,0.041-0.138,0.068-0.204c0.295-0.756,1.031-1.299,1.844-1.313c0.847-0.013,1.564,0.422,1.886,1.167l6.047,14.003
		l15.412-3.565c0.821-0.19,1.668,0.154,2.127,0.856c0.459,0.704,0.428,1.62-0.076,2.292c-0.057,0.074-0.168,0.212-0.232,0.278
		l-12.575,12.616l5.79,14.337c0.318,0.789,0.103,1.694-0.538,2.254c-0.64,0.561-1.566,0.654-2.304,0.235l-13.371-7.598
		l-12.418,13.714c-0.391,0.429-0.932,0.657-1.485,0.657c-0.32,0-0.642-0.077-0.939-0.235c-0.811-0.433-1.223-1.36-1-2.249
		l4.111-16.458l-13.201-6.382c-0.764-0.369-1.211-1.181-1.117-2.024c0.094-0.842,0.711-1.535,1.537-1.725l15.836-3.664
		L212.619,233.681z M145.863,150.001c0.506-0.665,1.345-0.988,2.144-0.746l18.709,5.63l10.795-16.596
		c0.44-0.675,1.234-1.025,2.039-0.876c0.793,0.145,1.422,0.753,1.592,1.542l0.023,0.1c0.016,0.075,0.028,0.152,0.036,0.229
		l2.009,20.564l18.819,5.666c0.824,0.248,1.398,0.994,1.424,1.856c0.025,0.859-0.502,1.639-1.311,1.936l-18.18,6.677l1.555,20.221
		c0.068,0.895-0.467,1.726-1.311,2.033c-0.224,0.082-0.455,0.121-0.683,0.121c-0.633,0-1.244-0.301-1.627-0.837l-12.475-17.439
		l-18.511,8.081c-0.805,0.351-1.741,0.137-2.311-0.522c-0.574-0.662-0.65-1.619-0.189-2.363l10.349-16.719l-12.84-16.06
		c-0.045-0.057-0.088-0.116-0.127-0.177C145.345,151.616,145.357,150.666,145.863,150.001 M132.015,230.518
		c0.533-0.711,1.475-0.984,2.301-0.677l6.808,2.538l3.571-6.23c0.08-0.137,0.174-0.265,0.283-0.38
		c0.529-0.562,1.35-0.778,2.08-0.542c0.734,0.236,1.279,0.861,1.381,1.626l1.152,8.685l7.291,2.719
		c0.764,0.285,1.278,1.005,1.299,1.82c0.023,0.813-0.451,1.56-1.197,1.886c-0.045,0.02-0.121,0.051-0.166,0.068l-6.387,2.258
		l0.93,8.183c0.103,0.914-0.43,1.781-1.291,2.1c-0.229,0.085-0.463,0.125-0.696,0.125c-0.648,0-1.273-0.315-1.654-0.875
		l-4.982-7.324l-6.52,2.818c-0.783,0.338-1.693,0.143-2.269-0.485c-0.575-0.63-0.69-1.555-0.282-2.304l3.598-6.636l-5.246-6.974
		C131.486,232.207,131.484,231.231,132.015,230.518"/>
	<path style="fill:#FFFFFF;" d="M138.875,103.332c-14.631,3.234-17.797,6.828-17.797,7.545c0.016,0.724,3.254,4.344,17.908,7.568
		c8.075,1.776,17.815,3.055,28.455,3.77c4.58-7.484,12.811-12.196,21.7-12.196c8.791,0,16.972,4.635,21.58,11.998
		c9.564-0.742,18.324-1.948,25.697-3.568c13.285-2.92,17.201-6.172,17.832-7.295c0.066-0.116,0.096-0.209,0.098-0.277
		c0-0.717-3.168-4.311-17.797-7.545c-13.006-2.874-30.35-4.457-48.838-4.457S151.879,100.458,138.875,103.332"/>
	<path style="fill:#FFFFFF;" d="M205.613,123.363c-3.813-5.162-9.938-8.344-16.473-8.344c-6.611,0-12.777,3.239-16.578,8.49
		C183.427,124.046,194.924,123.991,205.613,123.363"/>
	<path style="fill:#FFFFFF;" d="M223.664,211.418c0.727,0.458,1.08,1.331,0.875,2.167l-0.799,3.267l2.022-2.813
		c0.314-0.437,0.791-0.729,1.324-0.809c0.535-0.082,1.074,0.056,1.504,0.379l3.23,2.435l-1.424-5.782
		c-0.146-0.598-0.009-1.229,0.37-1.712l3.873-4.947l-3.137,1.073c-0.524,0.177-1.1,0.133-1.588-0.128
		c-0.49-0.261-0.848-0.713-0.99-1.248l-1.045-3.902l-1.588,6.108c-0.17,0.65-0.654,1.172-1.289,1.388l-5.524,1.886L223.664,211.418z
		"/>
	<path style="fill:#FFFFFF;" d="M128.23,183.768l-4.477-3.852c-0.39-0.335-0.636-0.81-0.687-1.325l-0.27-2.832
		c-0.22,0.462-0.613,0.83-1.105,1.015c-0.443,0.166-0.924,0.167-1.359,0.015v2.866l1.406,4.342c0.092,0.285,0.119,0.587,0.08,0.884
		l-0.936,6.937l0.274-0.412c0.428-0.648,1.187-0.99,1.963-0.874c0.334,0.05,0.64,0.181,0.9,0.375l-0.076-0.868
		c-0.047-0.511,0.107-1.021,0.428-1.423L128.23,183.768z"/>
	<path style="fill:#FFFFFF;" d="M152.984,154.93l9.781,12.233c0.528,0.662,0.582,1.583,0.137,2.302l-7.717,12.467l14.121-6.164
		c0.26-0.113,0.532-0.168,0.799-0.168c0.631,0,1.242,0.299,1.629,0.837l9.246,12.927l-1.121-14.583
		c-0.068-0.893,0.463-1.722,1.305-2.031l13.976-5.133l-14.365-4.325c-0.777-0.233-1.336-0.913-1.414-1.72l-1.598-16.333
		l-8.509,13.084c-0.485,0.744-1.405,1.082-2.254,0.824L152.984,154.93z"/>
	<path style="fill:#FFFFFF;" d="M208.169,261.574c0.854,0.412,1.301,1.366,1.07,2.285l-2.57,10.293l8.139-8.987
		c0.627-0.695,1.654-0.859,2.47-0.397l9.772,5.553l-4.135-10.236c-0.299-0.743-0.127-1.594,0.438-2.161l8.666-8.696l-10.278,2.378
		c-0.945,0.218-1.904-0.267-2.287-1.155l-4.445-10.29l-3.442,12.713c-0.191,0.712-0.761,1.26-1.478,1.426l-11.475,2.654
		L208.169,261.574z"/>
	<path style="fill:#FFFFFF;" d="M141.392,240.668l-1.453,2.682l2.728-1.18c0.258-0.111,0.528-0.164,0.793-0.164
		c0.647,0,1.274,0.313,1.655,0.875l1.357,1.995l-0.195-1.717c-0.106-0.925,0.443-1.801,1.32-2.111l2.733-0.966l-3.262-1.217
		c-0.692-0.259-1.186-0.879-1.283-1.611l-0.536-4.028l-1.498,2.614c-0.486,0.849-1.515,1.223-2.433,0.88l-1.992-0.743l1.908,2.536
		C141.703,239.139,141.765,239.981,141.392,240.668"/>
	<path style="fill:#FFFFFF;" d="M254.337,147.457v-2.441l-0.51,0.388c-0.576,0.44-1.347,0.533-2.013,0.244
		c-0.665-0.291-1.122-0.919-1.19-1.641l-0.254-2.616l-1.107,6.81c-0.08,0.505-0.354,0.959-0.76,1.27l-6.146,4.694l4.611,5.749
		c0.349,0.438,0.502,1.004,0.416,1.559l-0.438,2.821l0.293-0.776c0.266-0.705,0.905-1.2,1.653-1.282
		c0.072-0.008,0.146-0.011,0.218-0.011c0.668,0,1.299,0.336,1.672,0.902l1.491,2.271l-0.874-10.16
		c-0.027-0.316,0.02-0.634,0.141-0.927L254.337,147.457z"/>
	<path style="fill:#FFFFFF;" d="M228.418,89.082c0.977,0.572,2.047,0.846,3.104,0.846c2.111,0,4.169-1.09,5.314-3.045l11.539-19.694
		c1.721-2.931,0.736-6.703-2.197-8.419c-2.932-1.719-6.701-0.737-8.422,2.197l-11.535,19.695
		C224.5,83.594,225.484,87.363,228.418,89.082"/>
	<path style="fill:#FFFFFF;" d="M137.402,86.883c1.145,1.955,3.201,3.043,5.311,3.043c1.06,0,2.13-0.273,3.109-0.846
		c2.932-1.717,3.916-5.486,2.197-8.418L136.48,60.967c-1.717-2.932-5.488-3.916-8.42-2.199c-2.933,1.718-3.918,5.49-2.199,8.42
		L137.402,86.883z"/>
	<path style="fill:#FFFFFF;" d="M187.13,81.309c3.396,0,6.154-2.754,6.154-6.152V49.924c0-3.398-2.758-6.154-6.154-6.154
		c-3.4,0-6.154,2.756-6.154,6.154v25.233C180.976,78.555,183.73,81.309,187.13,81.309"/>
</g>
</svg>
