<?xml version="1.0" encoding="iso-8859-1"?>
<!-- Generator: Adobe Illustrator 25.4.1, SVG Export Plug-In . SVG Version: 6.00 Build 0)  -->
<svg version="1.1" id="Calque_1" xmlns="http://www.w3.org/2000/svg" xmlns:xlink="http://www.w3.org/1999/xlink" x="0px" y="0px"
	 viewBox="0 0 368.5 368.5" style="enable-background:new 0 0 368.5 368.5;" xml:space="preserve">
<g>
	<path style="fill:#FFFFFF;" d="M85.411,293.239h16.426c-5.1-0.759-9.94-2.941-14.367-6.301h-2.059
		c-20.165,0-36.571-27.631-36.571-61.595c0-33.962,16.406-61.591,36.571-61.591h2.054c4.075-3.095,8.503-5.181,13.159-6.088
		c0.013-0.072,0.026-0.144,0.04-0.213H85.411c-23.64,0-42.872,30.455-42.872,67.892C42.539,262.782,61.771,293.239,85.411,293.239"
		/>
	<path style="fill:#FFFFFF;" d="M133.369,184.598c-1.373-2.652-2.875-5.108-4.493-7.332c-0.582,4.807-0.952,9.691-1.053,14.606
		c0.019,0.345,0.03,0.578,0.03,0.813v5.803C128.691,193.348,130.619,188.631,133.369,184.598"/>
	<path style="fill:#FFFFFF;" d="M127.853,210.106v22.864c0,9.401-6.876,17.048-15.328,17.048s-15.329-7.647-15.329-17.048v-40.284
		c0-0.585,0.03-1.166,0.084-1.737c0.166-9.152,0.934-18.025,2.211-26.551c-17.133,5.125-30.191,30.493-30.191,60.944
		c0,34.134,16.404,61.907,36.568,61.907c18.698,0,34.154-23.881,36.308-54.565C134.774,227.856,129.417,219.7,127.853,210.106"/>
	<path style="fill:#FFFFFF;" d="M157.637,231.073h22.747v0.024c11.93,0,21.635-12.008,21.635-26.766
		c0-14.762-9.705-26.77-21.635-26.77v-0.037h-22.747c-13.223,0-23.981,12.01-23.981,26.772
		C133.656,219.06,144.414,231.073,157.637,231.073"/>
	<path style="fill:#FFFFFF;" d="M302.019,177.524h-35.188c7.035,6.013,11.639,15.773,11.639,26.807
		c0,10.991-4.573,20.724-11.57,26.742h35.119c13.225,0,23.986-12.014,23.986-26.777
		C326.005,189.534,315.244,177.524,302.019,177.524"/>
	<path style="fill:#FFFFFF;" d="M272.169,204.331c0-14.517-9.39-26.342-21.048-26.733l0.041,0.475l-0.357,0.762
		c-0.392,0.841-0.872,1.616-1.426,2.306c-1.037,1.286-2.416,2.328-3.999,3.114h7.314c12.828,0,13.824,15.229,13.824,19.9
		c0,4.667-0.996,19.9-13.834,19.9l-44.786,0.155c3.864-4.564,6.018-11.408,6.018-19.954c0-8.58-2.166-15.44-6.051-20.001h23.321
		c-1.823-0.834-3.507-1.976-4.961-3.427c-1.557-1.556-3.339-2.657-5.29-3.304h-24.254c7.035,6.013,11.64,15.773,11.64,26.807
		c0,10.992-4.574,20.724-11.571,26.742h54.192C262.683,230.798,272.169,218.918,272.169,204.331"/>
	<path style="fill:#FFFFFF;" d="M103.577,191.18l-0.015,0.251c-0.04,0.414-0.065,0.83-0.065,1.255v40.283
		c0,5.928,4.05,10.748,9.028,10.748c4.977,0,9.027-4.82,9.027-10.748v-40.283c0-0.139-0.01-0.275-0.018-0.412l-0.013-0.406
		c0.889-44.765,23.75-94.83,53.014-94.83c24.864,0,45.734,31.474,50.045,75.128c2.234,0.978,4.278,2.386,6.096,4.201
		c2.018,2.015,4.842,3.169,7.751,3.169c2.562,0.001,4.877-0.898,6.042-2.345c0.093-0.113,0.179-0.234,0.263-0.361
		c-5.214-57.966-35.291-101.565-70.197-101.565C136.531,75.266,104.699,127.266,103.577,191.18"/>
</g>
</svg>
