<?xml version="1.0" encoding="iso-8859-1"?>
<!-- Generator: Adobe Illustrator 25.4.1, SVG Export Plug-In . SVG Version: 6.00 Build 0)  -->
<svg version="1.1" id="Calque_1" xmlns="http://www.w3.org/2000/svg" xmlns:xlink="http://www.w3.org/1999/xlink" x="0px" y="0px"
	 viewBox="0 0 368.5 368.5" style="enable-background:new 0 0 368.5 368.5;" xml:space="preserve">
<g>
	<path style="fill:#FFFFFF;" d="M54.826,74.285l-2.593,2.596c-1.462,1.464-2.289,3.448-2.289,5.519
		c0.006,2.067,0.824,4.053,2.289,5.518l5.979,5.983l36.769-36.772l-5.973-5.974c-3.048-3.049-7.988-3.049-11.038,0l-2.593,2.59
		l-10.083-10.08c-1.521-1.526-3.992-1.526-5.517,0c-1.522,1.523-1.522,3.989,0,5.517L69.86,59.264l-9.517,9.5L50.269,58.688
		c-1.525-1.524-3.996-1.524-5.52,0c-1.525,1.525-1.525,3.995,0,5.521L54.826,74.285z"/>
	
		<rect x="159.142" y="38.357" transform="matrix(0.7071 -0.7071 0.7071 0.7071 -75.9157 184.832)" style="fill:#FFFFFF;" width="51.999" height="291.384"/>
	<path style="fill:#FFFFFF;" d="M281.281,316.95c1.462,1.463,3.446,2.289,5.518,2.289c2.065,0,4.056-0.826,5.518-2.289l2.598-2.596
		c0.016,0.02,0.021,0.044,0.037,0.058l10.426,10.426c0.761,0.763,1.762,1.145,2.759,1.145c0.999,0,1.998-0.382,2.759-1.145
		c1.527-1.525,1.527-3.996,0-5.516l-10.423-10.432c-0.018-0.012-0.041-0.02-0.062-0.036l9.527-9.53
		c0.021,0.019,0.029,0.046,0.043,0.057l10.426,10.433c0.763,0.756,1.762,1.142,2.757,1.142c1.002,0,1.998-0.386,2.763-1.142
		c1.524-1.529,1.524-3.998,0-5.52l-10.425-10.431c-0.02-0.018-0.045-0.021-0.066-0.039l2.605-2.608
		c3.049-3.047,3.047-7.985,0-11.035l-5.973-5.974l-36.77,36.764L281.281,316.95z"/>
</g>
</svg>
