<?xml version="1.0" encoding="iso-8859-1"?>
<!-- Generator: Adobe Illustrator 25.4.1, SVG Export Plug-In . SVG Version: 6.00 Build 0)  -->
<svg version="1.1" id="Calque_1" xmlns="http://www.w3.org/2000/svg" xmlns:xlink="http://www.w3.org/1999/xlink" x="0px" y="0px"
	 viewBox="0 0 368.5 368.5" style="enable-background:new 0 0 368.5 368.5;" xml:space="preserve">
<polygon style="fill:#FFFFFF;" points="62.23,108.932 62.23,214.506 106.529,258.805 106.529,153.506 "/>
<polygon style="fill:#FFFFFF;" points="110.531,147.604 204.168,93.545 157.539,47.629 64.539,101.325 "/>
<polygon style="fill:#FFFFFF;" points="178.646,58.588 212.039,91.471 288.494,135.609 256.322,103.438 "/>
<g>
	<path style="fill:#FFFFFF;" d="M258.908,191.182c0,37.381-20.246,69.055-48.397,79.301c33.401-0.127,60.536-27.334,60.536-60.766
		c0-14.857-5.368-28.48-14.254-39.049C258.189,177.334,258.908,184.198,258.908,191.182"/>
	<path style="fill:#FFFFFF;" d="M253.908,191.182c0-9.502-1.389-18.76-4.098-27.559c-2.847-2.447-5.923-4.632-9.193-6.525
		c0.527,4.188,0.816,8.432,0.816,12.686c0,45.648-30.531,82.785-68.058,82.785c-2.176,0-4.35-0.133-6.51-0.383
		c7.783,7.955,17.725,13.785,28.871,16.533C228.515,265.631,253.908,232.053,253.908,191.182"/>
	<path style="fill:#FFFFFF;" d="M151.697,225.85c0.254,0.004,0.506,0.01,0.762,0.01c15.568,0,30.259-7.248,41.537-19.414
		c-11.383,8.66-25.572,13.814-40.947,13.814c-0.864,0-1.743-0.033-2.622-0.068C150.763,222.11,151.185,223.998,151.697,225.85"/>
	<path style="fill:#FFFFFF;" d="M306.269,265.234V153.955L209.9,98.318l-96.371,55.637v111.279l96.371,55.637L306.269,265.234z
		 M210.277,141.947c0.381,0,0.771,0.023,1.156,0.029c1.959,0.033,3.903,0.133,5.819,0.328c0.025,0.004,0.048,0.004,0.074,0.006
		c0.019,0.002,0.039,0.01,0.058,0.012c34.041,3.564,60.663,32.428,60.663,67.395c0,37.369-30.401,67.771-67.77,67.771
		c-34.979,0-63.848-26.637-67.4-60.689c0-0.008-0.004-0.018-0.004-0.026c-0.002-0.012-0.002-0.023-0.004-0.033
		c-0.238-2.311-0.363-4.652-0.363-7.023c0-1.346,0.05-2.68,0.128-4.006c0.094-1.596,0.252-3.174,0.455-4.739
		c0.198-1.531,0.434-3.05,0.735-4.546c0.021-0.116,0.037-0.235,0.062-0.35C150.214,165.222,177.58,141.947,210.277,141.947"/>
	<path style="fill:#FFFFFF;" d="M220.75,149.869c0.035,0.877,0.068,1.754,0.068,2.621c0,8.557-1.609,16.74-4.515,24.285
		c-4.465,14.645-12.391,27.727-22.66,37.229c-11.694,10.822-25.629,16.623-40.344,16.836c2.062,5.55,4.914,10.718,8.42,15.371
		c3.824,0.883,7.734,1.357,11.656,1.357c34.771,0,63.059-34.894,63.059-77.785c0-5.213-0.446-10.406-1.276-15.486
		C230.621,152.252,225.793,150.75,220.75,149.869"/>
</g>
</svg>
