<?xml version="1.0" encoding="iso-8859-1"?>
<!-- Generator: Adobe Illustrator 25.4.1, SVG Export Plug-In . SVG Version: 6.00 Build 0)  -->
<svg version="1.1" id="Calque_1" xmlns="http://www.w3.org/2000/svg" xmlns:xlink="http://www.w3.org/1999/xlink" x="0px" y="0px"
	 viewBox="0 0 368.5 368.5" style="enable-background:new 0 0 368.5 368.5;" xml:space="preserve">
<g>
	<path style="fill:#FFFFFF;" d="M327.063,89.78c0-5.536-4.499-10.037-10.032-10.037H53.636c-5.536,0-10.037,4.501-10.037,10.037
		v42.487h283.464V89.78z M87.174,119.684c-6.295,0-11.4-5.106-11.4-11.4c0-6.3,5.105-11.401,11.4-11.401s11.401,5.101,11.401,11.401
		C98.575,114.578,93.469,119.684,87.174,119.684 M125.696,119.684c-6.295,0-11.403-5.106-11.403-11.4
		c0-6.3,5.108-11.401,11.403-11.401c6.29,0,11.4,5.101,11.4,11.401C137.096,114.578,131.986,119.684,125.696,119.684
		 M164.213,119.684c-6.295,0-11.4-5.106-11.4-11.4c0-6.3,5.105-11.401,11.4-11.401c6.295,0,11.401,5.101,11.401,11.401
		C175.614,114.578,170.508,119.684,164.213,119.684"/>
	<path style="fill:#FFFFFF;" d="M327.063,299.736V139.488H43.598v160.248c0,5.533,4.499,10.034,10.038,10.034h263.395
		C322.564,309.77,327.063,305.269,327.063,299.736 M293.649,261.416c0,11.304-9.16,20.469-20.467,20.469H97.474
		c-11.301,0-20.469-9.165-20.469-20.469v-68.729c0-11.305,9.168-20.47,20.469-20.47h16.967c1.448-8.854,9.123-15.643,18.382-15.643
		h105.016c9.256,0,16.933,6.789,18.381,15.643h16.962c11.307,0,20.467,9.165,20.467,20.47V261.416z"/>
	<path style="fill:#FFFFFF;" d="M75.461,64.751c0,3.324,2.696,6.018,6.018,6.018h75.012c3.326,0,6.018-2.694,6.018-6.018
		c0-3.324-2.692-6.018-6.018-6.018H81.479C78.157,58.733,75.461,61.427,75.461,64.751"/>
	<path style="fill:#FFFFFF;" d="M208.146,64.751c0,3.324,2.694,6.018,6.018,6.018h75.017c3.324,0,6.017-2.694,6.017-6.018
		c0-3.324-2.693-6.018-6.017-6.018h-75.017C210.84,58.733,208.146,61.427,208.146,64.751"/>
	<path style="fill:#FFFFFF;" d="M237.838,163.798H132.822c-6.302,0-11.428,5.129-11.428,11.433c0,6.302,5.126,11.431,11.428,11.431
		h105.016c6.3,0,11.429-5.129,11.429-11.431C249.267,168.927,244.138,163.798,237.838,163.798"/>
</g>
</svg>
