<?xml version="1.0" encoding="iso-8859-1"?>
<!-- Generator: Adobe Illustrator 25.4.1, SVG Export Plug-In . SVG Version: 6.00 Build 0)  -->
<svg version="1.1" id="Calque_1" xmlns="http://www.w3.org/2000/svg" xmlns:xlink="http://www.w3.org/1999/xlink" x="0px" y="0px"
	 viewBox="0 0 368.5 368.5" style="enable-background:new 0 0 368.5 368.5;" xml:space="preserve">
<g>
	<path style="fill:#FFFFFF;" d="M172.916,271.597c-1.477,22.134,2.186,40.035,2.223,40.214c0.267,1.283-0.217,2.538-1.14,3.343
		h28.157V232.22l-23.252,7.625C177.582,243.215,174.121,253.518,172.916,271.597"/>
	<path style="fill:#FFFFFF;" d="M170.596,242.569l-15.527,5.091c-0.02,0.025-0.031,0.052-0.05,0.076
		c-0.133,0.165-9.082,11.313-14.537,25.628c-5.443,14.286-5.519,32.345-5.519,32.526c-0.001,1.932-1.568,3.498-3.5,3.498h-0.001
		c-1.932-0.001-3.499-1.566-3.499-3.5c0-0.789,0.069-19.504,5.978-35.016c2.977-7.816,6.847-14.651,9.996-19.562l-13.141,4.31
		c-2.456,0.805-4.97,1.342-7.512,1.617c-3.336,6.88-7.294,16.684-10.061,28.788c-1.874,8.202-3.41,17.985-4.574,29.128h60.765
		c-0.553-0.483-0.966-1.139-1.129-1.915c-0.159-0.766-3.893-19.027-2.352-42.108C166.826,257.726,168.899,248.334,170.596,242.569"
		/>
	<path style="fill:#FFFFFF;" d="M114.557,179.026l15.795-5.18c-2.842-4.94-9.096-16.194-14.173-28.04
		c-6.701-15.638-11.09-37.377-11.273-38.294c-0.38-1.896,0.849-3.739,2.745-4.118c1.89-0.378,3.738,0.85,4.118,2.745
		c0.044,0.218,4.434,21.95,10.844,36.91c5.374,12.54,12.309,24.736,14.54,28.567l24.839-8.145
		c-3.029-5.36-11.531-21.128-16.514-37.576c-6.047-19.951-5.537-53.272-5.513-54.68c0.034-1.912,1.595-3.439,3.499-3.439
		c0.021,0,0.041,0,0.063,0c1.931,0.034,3.471,1.628,3.437,3.561c-0.005,0.334-0.513,33.634,5.213,52.528
		c5.2,17.159,14.727,34.116,16.607,37.379l23.756-7.79c3.132-1.028,6.359-1.622,9.617-1.785V53.347H53.479
		c4.185,20.997,11.567,49.588,23.81,74.03C89.797,152.349,104.457,169.243,114.557,179.026"/>
	<path style="fill:#FFFFFF;" d="M264.86,161.196c-0.195-4.185,0.543-8.368,2.191-12.297l-33.963,17.088
		c2.006,2.624,3.676,5.544,4.937,8.71L264.86,161.196z"/>
	<path style="fill:#FFFFFF;" d="M270.551,177.073l-30.027,5.079c0.974,3.285,1.475,6.606,1.521,9.885l38.606-6.53
		C276.689,183.529,273.225,180.648,270.551,177.073"/>
	<path style="fill:#FFFFFF;" d="M232.17,179.056c-4.008-12.225-15.338-20.438-28.193-20.438c-3.133,0-6.247,0.5-9.255,1.487
		l-86,28.201c-15.549,5.099-24.053,21.898-18.955,37.448l1.397,4.262c4.01,12.225,15.341,20.439,28.197,20.439
		c3.132,0,6.246-0.5,9.253-1.486l86.001-28.202c15.549-5.1,24.051-21.9,18.951-37.448L232.17,179.056z"/>
	<path style="fill:#FFFFFF;" d="M293.433,138.32c-2.278,0-4.543,0.364-6.731,1.081c-5.482,1.798-9.935,5.622-12.54,10.768
		c-2.604,5.146-3.049,10.998-1.251,16.478c2.917,8.894,11.16,14.87,20.512,14.87c2.28,0,4.544-0.364,6.734-1.082
		c11.312-3.709,17.497-15.931,13.788-27.245C311.029,144.296,302.786,138.32,293.433,138.32"/>
</g>
</svg>
