<?xml version="1.0" encoding="iso-8859-1"?>
<!-- Generator: Adobe Illustrator 25.4.1, SVG Export Plug-In . SVG Version: 6.00 Build 0)  -->
<svg version="1.1" id="Calque_1" xmlns="http://www.w3.org/2000/svg" xmlns:xlink="http://www.w3.org/1999/xlink" x="0px" y="0px"
	 viewBox="0 0 368.5 368.5" style="enable-background:new 0 0 368.5 368.5;" xml:space="preserve">
<g>
	<path style="fill:#FFFFFF;" d="M47.276,226.533c1.688-16.607,3.134-19.562,6.359-19.562c2.464,0,3.632,2.542,4.868,5.235
		c0.416,0.904,1.093,2.379,1.494,2.868c1.73-0.16,6.148-4.722,7.419-7.687c1.18-2.758,3.548-4.471,6.178-4.471
		c1.969,0,3.711,0.97,4.867,2.656c1.061-1.324,2.682-4.019,4.292-7.883c1.272-3.054,2.855-6.854,6.625-6.854
		c1.008,0,2.02,0.277,3.12,0.699V75.658c0-3.882,2.994-8.012,6.817-9.403l30.62-11.145V44.017H43.277v191.198
		c0.722,1.627,1.3,2.563,1.694,3.089C45.541,237.096,46.512,234.04,47.276,226.533"/>
	<path style="fill:#FFFFFF;" d="M320.935,263.889l-27.962-26.78c-3.792-3.815-7.989-6.399-12.355-8.146
		c1.665,2.472,3.08,5.093,4.215,7.839c1.642,1.126,3.18,2.408,4.638,3.875l27.968,26.786c2.667,2.79,3.44,5.762,2.234,8.596
		c-1.612,3.787-7.143,7.608-15.869,7.608H119.883c-6.835,0-12.823-2.836-14.901-7.058c-1.287-2.614-0.885-5.426,1.161-8.14
		l26.532-27.825c9.737-9.182,17.38-10.189,31.319-10.189h3.424c3.87-0.855,7.899-1.322,12.017-1.322
		c3.126,0,6.323,0.285,9.529,0.849c1.008-1.58,2.127-3.081,3.313-4.527h-28.283c-14.016,0-23.353,0.781-34.8,11.6
		c-0.031,0.029-0.062,0.06-0.092,0.091l-26.673,27.973c-0.061,0.064-0.118,0.13-0.172,0.2c-3.258,4.234-3.9,9.154-1.761,13.499
		c2.82,5.729,9.921,9.508,18.274,9.819c0.37,0.014,0.739,0.03,1.113,0.03h0.948l4.97,21.277c2.788,7.204,9.99,14.539,19.751,14.539
		h136.895c9.187,0,17.129-5.855,19.762-14.57l5.004-21.426c0.722-0.077,1.429-0.18,2.124-0.304c7.124-1.27,12.73-4.98,14.937-10.166
		c1.999-4.699,0.808-9.822-3.267-14.056C320.983,263.936,320.96,263.912,320.935,263.889"/>
	<path style="fill:#FFFFFF;" d="M287.514,249.511c-0.59,0.581-0.597,1.531-0.015,2.122l1.062,1.076
		c-0.239,0.158-0.502,0.285-0.796,0.355c-0.527,0.126-1.048,0.265-1.564,0.41c-0.732,0.208-1.52,0.07-2.139-0.376
		c-0.618-0.445-1-1.147-1.037-1.908c-1.095-22.46-22.138-40.055-47.908-40.055c-18.111,0-34.499,8.772-42.767,22.891
		c-0.542,0.925-1.612,1.401-2.664,1.185c-3.452-0.715-6.902-1.078-10.252-1.078c-22.497,0-42.172,14.838-42.965,32.4
		c-0.015,0.33-0.035,0.695-0.056,1.084c-0.072,1.327-0.232,4.232,0.022,5.495c0.227,0.119,0.426,0.28,0.606,0.461h-9.927
		c-3.306,0-5.546-0.937-6.309-2.638c-0.855-1.907,0.145-4.741,2.671-7.576l19.65-21.855c0.554-0.616,0.504-1.564-0.112-2.118
		s-1.565-0.503-2.118,0.112l-19.655,21.861c-3.39,3.805-4.546,7.742-3.173,10.803c0.738,1.648,2.896,4.411,9.046,4.411h169.048
		c6.318,0,8.633-2.323,9.462-4.273c1.212-2.849-0.072-6.54-3.535-10.138l-12.454-12.636
		C289.054,248.936,288.104,248.929,287.514,249.511 M260.967,238.286c-1.899,0-3.443-1.428-3.443-3.182
		c0-1.757,1.544-3.185,3.443-3.185c1.898,0,3.442,1.428,3.442,3.185C264.409,236.858,262.865,238.286,260.967,238.286
		 M235.783,222.702c0-1.756,1.545-3.186,3.445-3.186c1.9,0,3.446,1.43,3.446,3.186s-1.546,3.183-3.446,3.183
		C237.328,225.885,235.783,224.458,235.783,222.702 M220.232,230.208c0-1.967,1.625-3.566,3.623-3.566
		c1.995,0,3.619,1.599,3.619,3.566c0,1.967-1.624,3.566-3.619,3.566C221.857,233.774,220.232,232.175,220.232,230.208
		 M216.208,251.019c0,2.606-2.12,4.727-4.727,4.727c-2.604,0-4.722-2.121-4.722-4.727c0-2.605,2.118-4.725,4.722-4.725
		C214.088,246.294,216.208,248.414,216.208,251.019 M168.714,245.843c2.029,0,3.681,1.548,3.681,3.451
		c0,1.905-1.652,3.454-3.681,3.454c-2.03,0-3.682-1.549-3.682-3.454C165.032,247.391,166.684,245.843,168.714,245.843
		 M249.53,257.755c0-3.186,2.595-5.779,5.784-5.779c3.186,0,5.778,2.593,5.778,5.779c0,3.189-2.592,5.782-5.778,5.782
		C252.125,263.537,249.53,260.944,249.53,257.755"/>
	<path style="fill:#FFFFFF;" d="M310.406,45.236l-10.259,6.708c-0.83,0.545-1.904,0.545-2.736,0l-10.259-6.708l-10.259,6.708
		c-0.831,0.544-1.905,0.544-2.736,0l-10.259-6.708l-10.259,6.708c-0.832,0.544-1.906,0.544-2.736,0l-10.259-6.708l-10.259,6.708
		c-0.831,0.545-1.905,0.545-2.736,0l-10.259-6.708l-10.26,6.708c-0.832,0.544-1.906,0.544-2.736,0l-10.257-6.708l-10.259,6.708
		c-0.83,0.545-1.904,0.545-2.736,0l-10.259-6.708l-9.627,6.296c1.753,6.437,7.596,11.027,14.502,11.027h60.23
		c1.381,0,2.5,1.119,2.5,2.5v45.063c0.834-0.128,1.681-0.215,2.55-0.215c0.651,0,1.289,0.046,1.921,0.119V65.059
		c0-1.381,1.119-2.5,2.5-2.5h60.101c6.9,0,12.736-4.583,14.495-11.013L310.406,45.236z"/>
	<path style="fill:#FFFFFF;" d="M241.038,114.908c-6.489,0-11.768,5.279-11.768,11.768v45.429c0,6.49,5.279,11.77,11.768,11.77
		c6.49,0,11.77-5.28,11.77-11.77v-45.429C252.808,120.187,247.528,114.908,241.038,114.908"/>
	<path style="fill:#FFFFFF;" d="M101.024,70.954c-1.879,0.684-3.527,2.881-3.527,4.704v140.639c0.275-0.174,0.611-0.423,1-0.773
		l43.237-38.91c2.561-2.304,4.345-6.047,4.345-7.966v-47.074h-10.947v36.638c0,7.468-5.837,14.347-13.288,15.662
		c-0.779,0.137-1.588,0.206-2.404,0.206l-0.13-0.001c-1.372-0.012-2.478-1.128-2.478-2.5V78.112c0-1.052,0.658-1.991,1.647-2.35
		c0.865-0.314,1.683-0.536,2.502-0.679c0.797-0.14,1.604-0.212,2.393-0.212c6.703,0,11.758,5.123,11.758,11.917v18.692h10.947
		V56.156c0-1.122-0.587-1.122-0.903-1.122c-0.27,0-0.586,0.063-0.915,0.183L101.024,70.954z"/>
	<path style="fill:#FFFFFF;" d="M123.374,79.871c-0.498,0-1.013,0.046-1.529,0.138c-0.004,0-0.008,0.001-0.013,0.002v88.746
		c4.58-1.253,8.301-5.887,8.301-10.545V121.47c-3.856-0.593-6.822-3.924-6.822-7.943c0-4.02,2.966-7.35,6.822-7.943V86.789
		C130.133,82.716,127.354,79.871,123.374,79.871"/>
	<path style="fill:#FFFFFF;" d="M146.591,110.48h-15.233c-1.681,0-3.047,1.367-3.047,3.046c0,1.681,1.366,3.047,3.047,3.047h15.233
		c8.384,0.015,15.214,6.846,15.229,15.226v6.858c0.971-0.18,1.968-0.286,2.99-0.286c1.062,0,2.098,0.11,3.105,0.303v-6.87
		C167.912,120.048,158.346,110.482,146.591,110.48"/>
	<path style="fill:#FFFFFF;" d="M164.81,143.371c-6.292,0-11.41,5.119-11.41,11.41v44.284c0,6.291,5.118,11.409,11.41,11.409
		c6.292,0,11.41-5.118,11.41-11.409v-44.284C176.22,148.49,171.102,143.371,164.81,143.371"/>
</g>
</svg>
