<?xml version="1.0" encoding="iso-8859-1"?>
<!-- Generator: Adobe Illustrator 25.4.1, SVG Export Plug-In . SVG Version: 6.00 Build 0)  -->
<svg version="1.1" id="Calque_1" xmlns="http://www.w3.org/2000/svg" xmlns:xlink="http://www.w3.org/1999/xlink" x="0px" y="0px"
	 viewBox="0 0 368.5 368.5" style="enable-background:new 0 0 368.5 368.5;" xml:space="preserve">
<g>
	<path style="fill:#FFFFFF;" d="M98.122,150.992v-6.845c-6.526-0.186-11.135-1.251-14.011-3.258l-0.242-0.186
		c-2.146-1.829-3.31-3.966-3.46-6.353l-0.018-0.284l0.035-0.288l8.265-70.317c-0.006-1.563,0.601-4.19,3.477-6.627
		c2.406-2.024,5.792-3.18,9.296-3.18h52.421c-0.145-0.946-0.224-1.926-0.224-2.934c0-1.458,0.166-2.855,0.465-4.174h-52.608
		c-5.196,0.005-10.121,1.71-13.868,4.797c-3.758,3.091-5.969,7.46-6.069,11.988l-0.022,0.303l-8.28,70.433
		c0.002,4.45,2.215,8.947,6.083,12.127c3.741,3.093,8.666,4.794,13.872,4.798H98.122z"/>
	<path style="fill:#FFFFFF;" d="M220.484,46.546c0.299,1.319,0.465,2.716,0.465,4.174c0,1.008-0.079,1.988-0.224,2.933h50.135
		c3.552,0,6.935,1.157,9.334,3.174c2.874,2.434,3.483,5.06,3.491,6.836l0.046,0.603l8.248,69.799l-0.018,0.285
		c-0.15,2.391-1.318,4.53-3.473,6.356c-1.339,1.278-4.179,2.547-13.758,3.025v6.781c12.6-0.548,15.686-2.179,18.268-4.314
		c3.877-3.187,6.093-7.683,6.089-12.339l-0.044-0.586l-8.255-69.949c-0.097-4.52-2.309-8.886-6.066-11.98
		c-3.745-3.09-8.668-4.793-13.866-4.798H220.484z"/>
	<path style="fill:#FFFFFF;" d="M268.346,126.506h-9.331v-6.971c0-0.71-0.574-1.289-1.28-1.289c-0.709,0-1.287,0.579-1.287,1.289
		v6.971h-43.639v-6.971c0-0.628-0.461-1.152-1.076-1.253c-0.613,0.101-1.075,0.625-1.075,1.253v6.971h-43.642v-6.971
		c0-0.65-0.487-1.185-1.125-1.264c-0.644,0.079-1.135,0.614-1.135,1.264v6.971h-43.22v-6.971c0-0.71-0.578-1.289-1.287-1.289
		c-0.708,0-1.286,0.579-1.286,1.289v6.971h-14.457v126.56c2.802-2.19,6.075-3.666,9.581-4.341c-0.093-2.593,0.669-5.113,2.292-7.173
		c1.412-1.792,3.307-3.054,5.427-3.694c0.567-6.897,3.792-17.698,11.916-35.224c8.44-18.207,19.334-37.266,23.833-42.984
		c0.873-1.109,2.151-1.826,3.552-1.992c1.403-0.167,2.812,0.228,3.922,1.102l51.17,40.283c1.108,0.873,1.825,2.152,1.991,3.552
		c0.166,1.402-0.231,2.812-1.104,3.921c-4.987,6.334-45.777,45.565-67.386,52.963c-0.058,2.282-0.786,4.565-2.305,6.494
		c-1.623,2.065-3.884,3.432-6.399,3.948c0.245,5.418-1.421,10.687-4.809,14.991l-3.957,5.028h123.983
		c6.69,0,12.133-5.471,12.133-12.197V126.506z"/>
	<path style="fill:#FFFFFF;" d="M277.944,120.122c0.65,0,1.18-0.529,1.18-1.184v-16.582c0-0.65-0.53-1.181-1.18-1.181H95.143
		c-0.653,0-1.185,0.531-1.185,1.181v16.582c0,0.655,0.532,1.184,1.185,1.184h17.436v-0.587c0-4.23,3.442-7.673,7.671-7.673
		s7.671,3.443,7.671,7.673v0.587h30.452v-0.587c0-4.141,3.252-7.503,7.402-7.653l0.117-0.004l0.116,0.004
		c4.146,0.15,7.393,3.512,7.393,7.653v0.587h30.874v-0.587c0-4.092,3.209-7.45,7.307-7.645l0.151-0.008l0.152,0.008
		c4.098,0.195,7.309,3.555,7.309,7.645v0.587h30.87v-0.587c0-4.23,3.442-7.673,7.671-7.673c4.227,0,7.665,3.443,7.665,7.673v0.587
		H277.944z"/>
	<path style="fill:#FFFFFF;" d="M160.045,50.72c0,4.37,2.379,8.205,5.094,8.205h44.33c2.715,0,5.096-3.835,5.096-8.205
		c0-4.369-2.381-8.201-5.096-8.201h-44.33C162.424,42.519,160.045,46.351,160.045,50.72"/>
	<path style="fill:#FFFFFF;" d="M75.074,299.69c-5.54,7.04-4.322,17.273,2.714,22.813c2.893,2.278,6.366,3.482,10.038,3.482
		c5.021,0,9.679-2.258,12.779-6.196l30.565-38.825c2.627-3.336,3.817-7.479,3.387-11.692c-0.91-0.381-1.785-0.852-2.566-1.468
		l-13.777-10.848c-0.781-0.615-1.425-1.349-2.003-2.127c-4.157,0.562-7.927,2.683-10.566,6.037L75.074,299.69z M88.51,317.866
		c-3.955,0-7.172-3.218-7.172-7.174c0-3.955,3.217-7.173,7.172-7.173c3.955,0,7.174,3.218,7.174,7.173
		C95.684,314.647,92.465,317.866,88.51,317.866"/>
	<path style="fill:#FFFFFF;" d="M142.378,262.023c0.806-1.025,1.095-2.287,0.925-3.486c-1.821-0.051-3.377-0.552-4.612-1.525
		l-11.819-9.307c-0.771-0.606-1.957-1.551-2.591-3.869c-1.133,0.178-2.164,0.747-2.885,1.664c-0.756,0.962-1.095,2.162-0.95,3.378
		c0.146,1.217,0.755,2.304,1.717,3.061l13.779,10.849C137.879,264.315,140.863,263.945,142.378,262.023"/>
	<path style="fill:#FFFFFF;" d="M208.316,203.672l-45.919-36.149c-4.644,7-13.618,22.872-20.952,38.691
		c-14.814,31.958-10.67,36.438-10.624,36.475l11.821,9.308c0.104,0.082,0.413,0.176,0.947,0.176
		C155.55,252.173,196.3,216.845,208.316,203.672"/>
	<path style="fill:#FFFFFF;" d="M88.51,308.839c-1.02,0-1.852,0.831-1.852,1.853c0,1.022,0.832,1.854,1.852,1.854
		c1.023,0,1.854-0.832,1.854-1.854C90.364,309.67,89.533,308.839,88.51,308.839"/>
</g>
</svg>
