<?xml version="1.0" encoding="iso-8859-1"?>
<!-- Generator: Adobe Illustrator 25.4.1, SVG Export Plug-In . SVG Version: 6.00 Build 0)  -->
<svg version="1.1" id="Calque_1" xmlns="http://www.w3.org/2000/svg" xmlns:xlink="http://www.w3.org/1999/xlink" x="0px" y="0px"
	 viewBox="0 0 368.5 368.5" style="enable-background:new 0 0 368.5 368.5;" xml:space="preserve">
<g>
	<path style="fill:#FFFFFF;" d="M118.148,86.48h132.999V68.164c0-4.687-3.813-8.5-8.5-8.5H126.648c-4.687,0-8.5,3.813-8.5,8.5V86.48
		z"/>
	<path style="fill:#FFFFFF;" d="M197.963,136.384c0.34-1.107,0.697-2.201,1.071-3.282c0.075-0.216,0.155-0.429,0.232-0.644
		c0.308-0.874,0.629-1.739,0.959-2.596c0.113-0.294,0.228-0.586,0.343-0.878c0.357-0.896,0.723-1.782,1.103-2.657
		c0.065-0.151,0.128-0.306,0.194-0.457c0.45-1.023,0.917-2.029,1.399-3.022c0.106-0.223,0.218-0.441,0.328-0.662
		c0.387-0.782,0.783-1.554,1.187-2.316c0.139-0.257,0.276-0.515,0.414-0.769c0.481-0.884,0.973-1.755,1.478-2.61
		c0.038-0.063,0.074-0.129,0.111-0.191c0.55-0.924,1.118-1.827,1.697-2.716c0.138-0.214,0.281-0.424,0.422-0.635
		c0.458-0.689,0.923-1.368,1.398-2.034c0.155-0.219,0.31-0.438,0.467-0.655c1.219-1.677,2.489-3.28,3.81-4.805
		c0.172-0.199,0.347-0.393,0.52-0.588c0.52-0.588,1.048-1.163,1.582-1.726c0.171-0.18,0.34-0.362,0.511-0.539
		c0.692-0.713,1.393-1.41,2.108-2.081c0.052-0.048,0.104-0.093,0.157-0.142c0.658-0.614,1.327-1.207,2.005-1.784
		c0.203-0.174,0.408-0.344,0.613-0.515c0.578-0.479,1.162-0.945,1.752-1.398c0.179-0.138,0.356-0.28,0.537-0.414
		c0.756-0.567,1.522-1.115,2.299-1.636c0.126-0.085,0.255-0.163,0.381-0.246c0.465-0.307,0.93-0.616,1.401-0.906H116.17
		c-28.713,0-52.072,33.622-52.072,74.948v140.409h129.157V168.428c0-1.269,0.028-2.528,0.07-3.783
		c0.012-0.366,0.028-0.73,0.044-1.094c0.041-0.943,0.092-1.883,0.155-2.819c0.024-0.342,0.044-0.686,0.07-1.028
		c0.095-1.23,0.204-2.455,0.338-3.668c0.015-0.136,0.034-0.271,0.05-0.408c0.123-1.085,0.262-2.162,0.416-3.233
		c0.051-0.354,0.105-0.705,0.16-1.058c0.141-0.922,0.294-1.838,0.458-2.748c0.052-0.294,0.102-0.591,0.158-0.884
		c0.221-1.174,0.459-2.338,0.717-3.492c0.043-0.194,0.091-0.384,0.135-0.577c0.222-0.97,0.458-1.932,0.706-2.885
		c0.084-0.326,0.169-0.652,0.257-0.975c0.247-0.91,0.503-1.812,0.771-2.706C197.829,136.842,197.893,136.611,197.963,136.384
		 M99.456,179.852c0,0,9.719-1.421,16.12,4.977c6.4,6.4,5.095,16.947,5.095,16.947s-9.953,1.898-16.709-4.857
		C97.205,190.162,99.456,179.852,99.456,179.852 M120.67,259.475c0,0-14.584,2.779-24.48-7.117
		c-9.895-9.896-6.596-25.002-6.596-25.002s14.236-2.082,23.612,7.292C122.58,244.024,120.67,259.475,120.67,259.475
		 M136.143,286.888c0,2.76-2.239,5.002-4.999,5.002c-2.763,0-5-2.242-5-5.002V180.329c0-2.76,2.237-4.998,5-4.998
		c2.76,0,4.999,2.238,4.999,4.998V286.888z M161.541,224.12c-8.188,8.192-20.262,5.892-20.262,5.892s-1.58-12.79,6.177-20.55
		c7.762-7.76,19.547-6.037,19.547-6.037S169.732,215.929,161.541,224.12"/>
	<path style="fill:#FFFFFF;" d="M217.783,308.837h86.619V168.428c0-41.326-23.359-74.947-52.073-74.947
		c-28.713,0-52.073,33.621-52.073,74.947v140.409h10.421H217.783z"/>
</g>
</svg>
