<?xml version="1.0" encoding="iso-8859-1"?>
<!-- Generator: Adobe Illustrator 25.4.1, SVG Export Plug-In . SVG Version: 6.00 Build 0)  -->
<svg version="1.1" id="Calque_1" xmlns="http://www.w3.org/2000/svg" xmlns:xlink="http://www.w3.org/1999/xlink" x="0px" y="0px"
	 viewBox="0 0 368.5 368.5" style="enable-background:new 0 0 368.5 368.5;" xml:space="preserve">
<g>
	<path style="fill:#FFFFFF;" d="M96.019,176.347c-1.86,0.158-4.001,0.594-6.098,1.69c-3.248,1.699-4.912,4.645-5.911,7.268
		c-1.01,2.659-1.564,5.275-2.295,7.21c-0.311,0.865-0.932,1.841-1.664,2.764c0.795,0.494,1.567,1.051,2.302,1.675
		c0.977,0.829,1.845,1.736,2.612,2.701c1.119-1.351,2.188-2.954,2.908-4.844c0.952-2.589,1.494-5.165,2.273-7.147
		c0.787-2.018,1.609-3.168,2.823-3.805c1.066-0.56,2.351-0.859,3.59-0.959c1.12-0.094,2.185-0.024,2.942,0.066
		c0.38,0.045,0.677,0.095,0.871,0.133c0.097,0.019,0.166,0.033,0.206,0.043c0.023,0.003,0.024,0.004,0.024,0.004
		c1.762,0.432,3.543-0.648,3.974-2.411c0.433-1.762-0.647-3.543-2.409-3.972C101.96,176.717,99.406,176.083,96.019,176.347"/>
	<path style="fill:#FFFFFF;" d="M43.622,230.264c1.315,1.116,3.288,0.952,4.404-0.363l6.234-7.348l1.994-2.351l7.419,6.294
		l-1.994,2.351l-6.234,7.348c-1.116,1.315-0.955,3.289,0.361,4.405c1.317,1.118,3.29,0.954,4.406-0.361l6.233-7.348l1.995-2.351
		l2.865,2.431c0.503,0.426,1.253,0.363,1.676-0.136l9.237-10.888c5.73-6.754,4.896-16.908-1.86-22.64
		c-6.753-5.729-16.906-4.895-22.635,1.859l-9.237,10.888c-0.423,0.499-0.361,1.252,0.138,1.676l2.865,2.429l-1.995,2.351
		l-6.233,7.348C42.145,227.174,42.303,229.145,43.622,230.264"/>
	<path style="fill:#FFFFFF;" d="M213.697,71.965c-53.485,0-98.231,37.397-109.528,87.469c3.07,0.576,5.329,3.37,5.145,6.567
		l-1.342,23.338c-0.187,3.25-2.834,5.803-6.02,5.949c5.546,56.832,53.456,101.247,111.745,101.247
		c62.013,0,112.285-50.272,112.285-112.285C325.982,122.236,275.71,71.965,213.697,71.965 M213.967,266.173
		c-45.173,0-81.923-36.75-81.923-81.923s36.75-81.924,81.923-81.924s81.923,36.751,81.923,81.924S259.14,266.173,213.967,266.173"/>
	<path style="fill:#FFFFFF;" d="M213.967,107.561c-42.286,0-76.689,34.403-76.689,76.69c0,42.286,34.403,76.689,76.689,76.689
		c42.287,0,76.689-34.403,76.689-76.689C290.656,141.964,256.254,107.561,213.967,107.561 M152.584,196.532
		c-5.339,0-9.683-4.344-9.683-9.683c0-5.339,4.344-9.683,9.683-9.683c5.339,0,9.683,4.344,9.683,9.683
		C162.267,192.188,157.923,196.532,152.584,196.532 M184.255,238.521c-12.55,0-22.725-10.174-22.725-22.725
		c0-12.552,10.175-22.726,22.725-22.726c12.553,0,22.727,10.174,22.727,22.726C206.982,228.347,196.808,238.521,184.255,238.521
		 M184.255,183.564c-12.55,0-22.725-10.174-22.725-22.726c0-12.551,10.175-22.725,22.725-22.725
		c12.553,0,22.727,10.174,22.727,22.725C206.982,173.391,196.808,183.564,184.255,183.564 M243.137,238.521
		c-12.55,0-22.725-10.174-22.725-22.725c0-12.552,10.175-22.726,22.725-22.726c12.552,0,22.726,10.174,22.726,22.726
		C265.863,228.347,255.689,238.521,243.137,238.521 M243.137,183.564c-12.55,0-22.725-10.174-22.725-22.726
		c0-12.551,10.175-22.725,22.725-22.725c12.552,0,22.726,10.174,22.726,22.725C265.863,173.391,255.689,183.564,243.137,183.564"/>
	<path style="fill:#FFFFFF;" d="M176.167,156.613c-2.333,0-4.227,1.892-4.227,4.226c0,2.333,1.894,4.225,4.227,4.225
		c2.331,0,4.226-1.892,4.226-4.225C180.393,158.505,178.498,156.613,176.167,156.613"/>
	<path style="fill:#FFFFFF;" d="M192.345,156.613c-2.334,0-4.227,1.892-4.227,4.226c0,2.333,1.893,4.225,4.227,4.225
		c2.333,0,4.227-1.892,4.227-4.225C196.572,158.505,194.678,156.613,192.345,156.613"/>
	<path style="fill:#FFFFFF;" d="M235.049,156.613c-2.333,0-4.227,1.892-4.227,4.226c0,2.333,1.894,4.225,4.227,4.225
		c2.331,0,4.226-1.892,4.226-4.225C239.275,158.505,237.38,156.613,235.049,156.613"/>
	<path style="fill:#FFFFFF;" d="M251.227,156.613c-2.334,0-4.227,1.892-4.227,4.226c0,2.333,1.893,4.225,4.227,4.225
		c2.333,0,4.227-1.892,4.227-4.225C255.454,158.505,253.56,156.613,251.227,156.613"/>
	<path style="fill:#FFFFFF;" d="M176.167,211.57c-2.333,0-4.227,1.892-4.227,4.226c0,2.333,1.894,4.225,4.227,4.225
		c2.331,0,4.226-1.892,4.226-4.225C180.393,213.462,178.498,211.57,176.167,211.57"/>
	<path style="fill:#FFFFFF;" d="M192.345,211.57c-2.334,0-4.227,1.892-4.227,4.226c0,2.333,1.893,4.225,4.227,4.225
		c2.333,0,4.227-1.892,4.227-4.225C196.572,213.462,194.678,211.57,192.345,211.57"/>
	<path style="fill:#FFFFFF;" d="M235.049,211.57c-2.333,0-4.227,1.892-4.227,4.226c0,2.333,1.894,4.225,4.227,4.225
		c2.331,0,4.226-1.892,4.226-4.225C239.275,213.462,237.38,211.57,235.049,211.57"/>
	<path style="fill:#FFFFFF;" d="M251.227,211.57c-2.334,0-4.227,1.892-4.227,4.226c0,2.333,1.893,4.225,4.227,4.225
		c2.333,0,4.227-1.892,4.227-4.225C255.454,213.462,253.56,211.57,251.227,211.57"/>
	<path style="fill:#FFFFFF;" d="M152.585,182.4c-2.453,0-4.449,1.996-4.449,4.449s1.996,4.449,4.449,4.449
		c2.453,0,4.449-1.996,4.449-4.449S155.037,182.4,152.585,182.4"/>
</g>
</svg>
