<?xml version="1.0" encoding="iso-8859-1"?>
<!-- Generator: Adobe Illustrator 25.4.1, SVG Export Plug-In . SVG Version: 6.00 Build 0)  -->
<svg version="1.1" id="Calque_1" xmlns="http://www.w3.org/2000/svg" xmlns:xlink="http://www.w3.org/1999/xlink" x="0px" y="0px"
	 viewBox="0 0 368.5 368.5" style="enable-background:new 0 0 368.5 368.5;" xml:space="preserve">
<g>
	<path style="fill:#FFFFFF;" d="M77.456,194.485c0.021-38.461,0.046-80.474,0.061-111.945c-13.327,0.013-24.028,0.023-30.709,0.029
		c0,41.701-0.006,213.471,0,214.864v3.638c0.306,5.648,1.255,10.376,2.817,13.814c0.058,0.126,0.11,0.256,0.158,0.387
		c3.364,9.604,8.635,10.716,12.308,10.716c7.425,0,15.314-10.393,15.314-29.653c0-0.817,0.012-24.293,0.03-56.897L77.456,194.485z
		 M62.928,307.527c-3.251,0-5.881-6.68-5.881-14.924c0-8.241,2.63-14.922,5.881-14.922c3.239,0,5.875,6.681,5.875,14.922
		C68.803,300.847,66.167,307.527,62.928,307.527"/>
	<path style="fill:#FFFFFF;" d="M81.135,42.523L50.411,73.25c49.25-0.048,243.395-0.233,246.152-0.233
		c15.545,0,27.267-6.546,27.267-15.226c0-8.285-10.634-14.663-25.283-15.168C296.103,42.597,102.697,42.53,81.135,42.523
		 M305.077,55.962c0,3.242-6.678,5.879-14.922,5.879c-8.247,0-14.929-2.637-14.929-5.879c0-3.245,6.682-5.878,14.929-5.878
		C298.399,50.084,305.077,52.717,305.077,55.962"/>
</g>
</svg>
