<?xml version="1.0" encoding="iso-8859-1"?>
<!-- Generator: Adobe Illustrator 25.4.1, SVG Export Plug-In . SVG Version: 6.00 Build 0)  -->
<svg version="1.1" id="Calque_1" xmlns="http://www.w3.org/2000/svg" xmlns:xlink="http://www.w3.org/1999/xlink" x="0px" y="0px"
	 viewBox="0 0 368.5 368.5" style="enable-background:new 0 0 368.5 368.5;" xml:space="preserve">
<g>
	<path style="fill:#FFFFFF;" d="M76.369,239.438c-2.266,1.155-4.753,1.835-7.367,1.835c-4.358,0-8.456-1.699-11.541-4.782
		c-3.081-3.083-4.78-7.181-4.78-11.539c0-4.358,1.699-8.456,4.78-11.537l18.929-18.93c0.021-38.461,0.046-80.474,0.061-111.945
		c-13.327,0.013-24.028,0.023-30.709,0.029c0,41.701-0.006,213.471,0,214.864v3.638c0.306,5.648,1.255,10.376,2.817,13.814
		c0.058,0.126,0.11,0.256,0.158,0.387c3.364,9.604,8.635,10.716,12.308,10.716c7.425,0,15.314-10.393,15.314-29.653
		C76.339,295.518,76.351,272.042,76.369,239.438 M61.862,307.527c-3.251,0-5.881-6.68-5.881-14.924
		c0-8.241,2.63-14.922,5.881-14.922c3.239,0,5.875,6.681,5.875,14.922C67.737,300.847,65.101,307.527,61.862,307.527"/>
	<path style="fill:#FFFFFF;" d="M221.459,82.403c-6.418,0.007-13.045,0.014-19.824,0.02L64.049,220.003
		c-2.73,2.729-2.73,7.17,0,9.899c2.648,2.645,7.249,2.648,9.903-0.001L221.459,82.403z"/>
	<path style="fill:#FFFFFF;" d="M80.069,42.523L49.345,73.25c49.25-0.048,243.395-0.233,246.152-0.233
		c15.545,0,27.267-6.546,27.267-15.226c0-8.285-10.634-14.663-25.283-15.168C295.037,42.597,101.631,42.53,80.069,42.523
		 M304.011,55.962c0,3.242-6.678,5.879-14.922,5.879c-8.247,0-14.929-2.637-14.929-5.879c0-3.245,6.682-5.878,14.929-5.878
		C297.333,50.084,304.011,52.717,304.011,55.962"/>
</g>
</svg>
