<?xml version="1.0" encoding="iso-8859-1"?>
<!-- Generator: Adobe Illustrator 25.4.1, SVG Export Plug-In . SVG Version: 6.00 Build 0)  -->
<svg version="1.1" id="Calque_1" xmlns="http://www.w3.org/2000/svg" xmlns:xlink="http://www.w3.org/1999/xlink" x="0px" y="0px"
	 viewBox="0 0 368.5 368.5" style="enable-background:new 0 0 368.5 368.5;" xml:space="preserve">
<g>
	<path style="fill:#FFFFFF;" d="M80.191,190.151c0.691,0.865,1.725,1.362,2.836,1.362c0.829,0,1.611-0.274,2.261-0.793
		l15.462-12.345c0.27-0.216,0.602-0.328,0.936-0.328c0.221,0,0.443,0.049,0.65,0.149c0.519,0.25,0.85,0.775,0.85,1.351v63.112h7.253
		V171.36c0-0.456,0.208-0.888,0.564-1.172l21.722-17.344c0.45-0.36,1.066-0.429,1.586-0.179c0.52,0.25,0.85,0.776,0.85,1.352v64.054
		h7.254v-72.242c0-0.456,0.207-0.888,0.564-1.173l22.503-17.967c0.451-0.361,1.067-0.43,1.587-0.18
		c0.519,0.25,0.849,0.776,0.849,1.352v65.654c2.83,0,5.23,0,7.253,0v-73.843c0-0.455,0.208-0.887,0.564-1.172l21.279-16.988
		c0.451-0.36,1.067-0.429,1.587-0.179c0.519,0.25,0.849,0.776,0.849,1.352v66.31h7.255V94.497c0-0.456,0.207-0.888,0.564-1.173
		l22.915-18.297c0.45-0.359,1.066-0.43,1.586-0.179c0.52,0.25,0.85,0.776,0.85,1.352v68.184h7.254V68.013
		c0-0.456,0.207-0.888,0.563-1.172l10.302-8.227c0.758-0.605,1.235-1.468,1.343-2.431c0.108-0.962-0.166-1.909-0.77-2.666
		c-0.693-0.867-1.727-1.365-2.838-1.365c-0.829,0-1.611,0.275-2.261,0.794L80.761,185.052
		C79.199,186.299,78.943,188.587,80.191,190.151"/>
	<path style="fill:#FFFFFF;" d="M94.84,249.658l34.372,37.403c0.759-0.355,1.589-0.551,2.436-0.551h22.27l-33.936-36.852H94.84z"/>
	<path style="fill:#FFFFFF;" d="M157.476,268.023c0-0.569,0.1-1.119,0.246-1.655l-33.707-36.601v16.392
		c0,0.154-0.026,0.3-0.045,0.449l33.506,36.385V268.023z"/>
	<path style="fill:#FFFFFF;" d="M220.822,218.947c0-0.564,0.103-1.118,0.252-1.658l-33.711-36.606v16.334
		c0,0.17-0.025,0.336-0.05,0.503l33.509,36.388V218.947z"/>
	<path style="fill:#FFFFFF;" d="M189.159,243.465c0-0.561,0.099-1.104,0.241-1.632l-33.696-36.592v16.329
		c0,0.174-0.027,0.34-0.051,0.507l33.506,36.383V243.465z"/>
	<path style="fill:#FFFFFF;" d="M221.451,151.383l34.479,37.439c0.779-0.38,1.639-0.592,2.517-0.592h23.609l-32.493-35.33
		c-0.967-1.052-1.523-1.517-4.541-1.517H221.451z"/>
	<path style="fill:#FFFFFF;" d="M125.754,308.219v-15.607c0-0.561,0.103-1.112,0.25-1.651l-33.711-36.685v17.201
		c0,0.052-0.001,0.102-0.003,0.154c-0.001,0.022-0.003,0.048-0.005,0.077c0.053,0.132,0.306,0.688,1.442,1.909L125.754,308.219z"/>
	<path style="fill:#FFFFFF;" d="M219.088,172.494c0,0.183-0.027,0.359-0.054,0.534l33.513,36.389v-15.083
		c0-0.53,0.092-1.051,0.225-1.561l-33.684-36.575V172.494z"/>
	<path style="fill:#FFFFFF;" d="M126.487,225.071l34.444,37.402c0.761-0.358,1.592-0.554,2.439-0.554h22.177l-33.934-36.848H126.487
		z"/>
	<path style="fill:#FFFFFF;" d="M189.841,175.994l34.439,37.396c0.757-0.354,1.588-0.55,2.437-0.55c10.493,0,17.497,0,22.186,0
		l-33.934-36.846H189.841z"/>
	<path style="fill:#FFFFFF;" d="M158.147,200.514l34.451,37.411c0.765-0.364,1.603-0.564,2.46-0.564h22.148l-33.93-36.846
		C179.96,200.514,172.955,200.514,158.147,200.514"/>
	<path style="fill:#FFFFFF;" d="M256.045,219.842c-3.165-0.002-10.619-0.002-28.224-0.002v21.022c0,1.933-1.566,3.5-3.5,3.5h-28.163
		v21.057c0,1.933-1.567,3.5-3.5,3.5h-28.183v21.091c0,1.933-1.567,3.5-3.5,3.5h-28.221v22.838l32.927-0.004L289.1,217.42v-22.189
		h-29.553v21.111c0,0.929-0.369,1.819-1.026,2.476c-0.656,0.655-1.546,1.024-2.474,1.024H256.045z"/>
</g>
</svg>
