<?xml version="1.0" encoding="iso-8859-1"?>
<!-- Generator: Adobe Illustrator 25.4.1, SVG Export Plug-In . SVG Version: 6.00 Build 0)  -->
<svg version="1.1" id="Calque_1" xmlns="http://www.w3.org/2000/svg" xmlns:xlink="http://www.w3.org/1999/xlink" x="0px" y="0px"
	 viewBox="0 0 368.5 368.5" style="enable-background:new 0 0 368.5 368.5;" xml:space="preserve">
<g>
	<path style="fill:#FFFFFF;" d="M123.062,280.039c1.385,0.589,2.898,0.799,4.369,0.613c2.99-0.371,5.578-2.319,6.757-5.083
		l28.771-67.188c-3.414-1.221-5.882-4.457-5.882-8.289c0-2.358,0.918-4.575,2.586-6.242l0.654-0.654l-5.373-9.195l-36.352,84.904
		C116.754,273.202,118.758,278.199,123.062,280.039"/>
	<path style="fill:#FFFFFF;" d="M302.083,275.841c0.576-2.19,0.262-4.473-0.881-6.428l-21.387-36.603l-12.399,12.399l19.141,32.756
		c1.515,2.599,4.324,4.212,7.333,4.212c1.49,0,2.965-0.402,4.266-1.164C300.114,279.87,301.507,278.032,302.083,275.841"/>
	<polygon style="fill:#FFFFFF;" points="210.295,147.451 229.94,147.451 221.339,132.735 208.94,145.133 	"/>
	<polygon style="fill:#FFFFFF;" points="227.993,177.738 230.042,181.248 249.687,181.248 240.392,165.338 	"/>
	<polygon style="fill:#FFFFFF;" points="260.16,199.17 247.761,211.569 249.739,214.954 269.382,214.954 	"/>
	<polygon style="fill:#FFFFFF;" points="210.303,113.843 176.136,55.373 163.738,67.772 190.658,113.843 	"/>
	<path style="fill:#FFFFFF;" d="M183.455,232.792c-0.168,0.341-0.279,0.707-0.279,1.098c0,1.346,1.06,2.425,2.386,2.507
		L183.455,232.792z"/>
	<path style="fill:#FFFFFF;" d="M256.762,187.544h-27.238c-0.678,0-1.318,0.264-1.801,0.746l-22.75,22.752l12.692,21.72
		l40.892-40.892c0.478-0.477,0.742-1.117,0.742-1.793C259.299,188.681,258.162,187.544,256.762,187.544"/>
	<path style="fill:#FFFFFF;" d="M203.1,266.411c-0.197,0.365-0.334,0.757-0.334,1.184c0,1.388,1.121,2.511,2.504,2.529
		L203.1,266.411z"/>
	<path style="fill:#FFFFFF;" d="M278.149,225.574c0.476-0.477,0.74-1.117,0.74-1.795c0-1.395-1.137-2.529-2.535-2.529h-27.24
		c-0.68,0-1.318,0.264-1.795,0.74l-22.691,22.692l12.692,21.719L278.149,225.574z"/>
	<path style="fill:#FFFFFF;" d="M163.68,198.951c-0.183,0.353-0.307,0.734-0.307,1.141c0,1.368,1.09,2.471,2.446,2.52
		L163.68,198.951z"/>
	<path style="fill:#FFFFFF;" d="M236.961,153.746h-27.242c-0.678,0-1.316,0.264-1.799,0.744l-22.717,22.719l12.693,21.723
		l40.858-40.86c0.476-0.479,0.742-1.118,0.742-1.793C239.496,154.882,238.359,153.746,236.961,153.746"/>
	<path style="fill:#FFFFFF;" d="M119.226,164.692c-0.478,0.477-0.74,1.113-0.74,1.789c0,1.398,1.137,2.535,2.535,2.535h0.336
		l4.81-11.265L119.226,164.692z"/>
	<path style="fill:#FFFFFF;" d="M164.832,120.139c-0.68,0-1.318,0.264-1.799,0.743l-6.78,6.78l22.59,38.661l41.864-41.861
		c0.478-0.477,0.74-1.114,0.74-1.793c0-1.395-1.137-2.53-2.535-2.53H164.832z"/>
	<path style="fill:#FFFFFF;" d="M116.757,74.593c5.236,0,10.13,2.807,12.767,7.323l4.118,7.046l42.116-42.112
		c0.475-0.477,0.74-1.116,0.74-1.795c0-1.397-1.136-2.532-2.534-2.532h-27.239c-0.679,0-1.318,0.264-1.802,0.745l-31.789,31.794
		C114.315,74.761,115.53,74.593,116.757,74.593"/>
	<path style="fill:#FFFFFF;" d="M102.454,85.741l-1.336,1.337c-0.48,0.479-0.742,1.115-0.742,1.793c0,1.113,0.734,2.032,1.734,2.371
		C101.876,89.391,102.003,87.524,102.454,85.741"/>
	<path style="fill:#FFFFFF;" d="M66.842,312.717c-0.893,2.085-0.92,4.391-0.076,6.492c0.843,2.103,2.455,3.752,4.542,4.642
		c1.389,0.593,2.893,0.798,4.371,0.616c2.992-0.374,5.578-2.322,6.757-5.084l64.011-149.922l-10.653-18.23L66.842,312.717z"/>
	<path style="fill:#FFFFFF;" d="M258.268,319.654c0.576-2.191,0.265-4.473-0.879-6.425l-133.3-228.136
		c-1.514-2.593-4.326-4.204-7.332-4.204c-1.494,0-2.97,0.401-4.269,1.16c-4.039,2.36-5.404,7.566-3.045,11.606l133.302,228.124
		c1.512,2.598,4.32,4.209,7.332,4.209c1.488,0,2.964-0.402,4.269-1.162C256.299,323.684,257.693,321.844,258.268,319.654
		 M152.979,144.551c0,2.435-1.982,4.416-4.418,4.416c-2.435,0-4.415-1.981-4.415-4.416c0-2.432,1.98-4.414,4.415-4.414
		C150.997,140.137,152.979,142.119,152.979,144.551"/>
	<path style="fill:#FFFFFF;" d="M147.249,145.889c-0.131-0.289-0.211-0.605-0.211-0.943c0-1.102,0.789-1.983,1.824-2.215
		c-0.101-0.016-0.195-0.059-0.301-0.059c-1.035,0-1.878,0.842-1.878,1.879C146.683,145.075,146.901,145.549,147.249,145.889"/>
</g>
</svg>
