<?xml version="1.0" encoding="iso-8859-1"?>
<!-- Generator: Adobe Illustrator 25.4.1, SVG Export Plug-In . SVG Version: 6.00 Build 0)  -->
<svg version="1.1" id="Calque_1" xmlns="http://www.w3.org/2000/svg" xmlns:xlink="http://www.w3.org/1999/xlink" x="0px" y="0px"
	 viewBox="0 0 368.5 368.5" style="enable-background:new 0 0 368.5 368.5;" xml:space="preserve">
<g>
	<path style="fill:#FFFFFF;" d="M230.224,167.602c0-1.134,0.232-2.251,0.641-3.297c-0.557-0.148-1.092-0.387-1.53-0.824
		l-50.841-50.833v22.095l51.73,51.72V167.602z"/>
	<path style="fill:#FFFFFF;" d="M234.848,159.748c1.344-0.756,2.865-1.209,4.433-1.209l30.402,0.002l-51.622-51.607h-35.675
		l51.752,51.744C234.454,158.994,234.682,159.361,234.848,159.748"/>
	<path style="fill:#FFFFFF;" d="M275.226,135.457c0-1.004,0.208-1.985,0.531-2.925c-0.414-0.166-0.803-0.414-1.139-0.75
		l-51.122-51.111v22.093l51.73,51.713V135.457z"/>
	<path style="fill:#FFFFFF;" d="M95.899,260.896c-0.219-0.137-0.456-0.239-0.646-0.431L43.64,208.752v27.455
		c-0.004,0.088-0.029,0.172-0.029,0.263c0,1.864,1.473,3.746,3.392,5.645l48.345,48.091l0.025-26.396
		C95.373,262.811,95.578,261.833,95.899,260.896"/>
	<path style="fill:#FFFFFF;" d="M279.841,127.612c1.344-0.761,2.874-1.214,4.446-1.214h39.15l-48.093-48.146
		c-2.674-2.678-5.026-3.46-10.096-3.46h-38.026l52.199,52.188C279.607,127.165,279.706,127.398,279.841,127.612"/>
	<path style="fill:#FFFFFF;" d="M189.682,191.91c1.402-0.851,3.025-1.346,4.692-1.346h30.345l-51.616-51.607h-35.678l51.43,51.419
		C189.293,190.813,189.532,191.351,189.682,191.91"/>
	<path style="fill:#FFFFFF;" d="M100.061,255.667c0.057,0.058,0.075,0.133,0.128,0.192c1.305-0.694,2.753-1.107,4.241-1.107h30.517
		l-51.62-51.609H47.638L100.061,255.667z"/>
	<path style="fill:#FFFFFF;" d="M140.368,231.696c0-1.336,0.332-2.642,0.895-3.843c-0.031,0-0.061,0.018-0.092,0.018
		c-0.869,0-1.738-0.332-2.402-0.995l-50.133-50.125v22.095l51.732,51.721V231.696z"/>
	<path style="fill:#FFFFFF;" d="M185.311,199.624c0-1.216,0.259-2.419,0.732-3.531c-0.723-0.088-1.433-0.358-1.99-0.915
		l-50.466-50.457v22.095l51.724,51.713V199.624z"/>
	<path style="fill:#FFFFFF;" d="M144.496,224.11c1.462-0.946,3.18-1.475,4.929-1.475h30.386l-51.617-51.606H92.518l51.054,51.045
		C144.14,222.642,144.414,223.369,144.496,224.11"/>
	<polygon style="fill:#FFFFFF;" points="106.693,293.719 152.586,293.715 327.076,164.946 327.076,137.719 286.547,137.719 
		286.547,169.863 241.544,169.859 241.544,201.884 196.632,201.884 196.632,233.956 151.689,233.956 151.689,266.072 
		106.693,266.072 	"/>
</g>
</svg>
