<?xml version="1.0" encoding="iso-8859-1"?>
<!-- Generator: Adobe Illustrator 25.4.1, SVG Export Plug-In . SVG Version: 6.00 Build 0)  -->
<svg version="1.1" id="Calque_1" xmlns="http://www.w3.org/2000/svg" xmlns:xlink="http://www.w3.org/1999/xlink" x="0px" y="0px"
	 viewBox="0 0 368.5 368.5" style="enable-background:new 0 0 368.5 368.5;" xml:space="preserve">
<g>
	<path style="fill:#FFFFFF;" d="M167.591,273.527c0-3.448,1.648-6.609,4.345-8.585c-0.478-1.988-1.318-4.085-1.646-4.818
		c-1.223-2.916-2.885-5.365-4.645-7.957c-0.755-1.113-1.537-2.264-2.279-3.449c-3.879-4.648-6.014-10.527-6.014-16.584
		c0-14.274,11.614-25.887,25.887-25.887c14.276,0,25.887,11.613,25.887,25.887c0,4.742-1.295,9.381-3.748,13.42
		c-1.233,2.424-2.627,4.666-3.975,6.836c-1.498,2.407-2.912,4.681-3.76,6.699c-0.66,1.568-1.24,3.544-1.734,5.893
		c2.67,1.979,4.299,5.125,4.299,8.545v13.078c0,2.14-0.67,4.198-1.84,5.931H209.3h51.318c6.939,0,12.555-5.621,12.555-12.558
		v-67.129c0-3.332-1.317-6.525-3.672-8.879l-76.371-76.371c-4.905-4.907-12.854-4.907-17.766,0L99.001,203.97
		c-2.356,2.354-3.682,5.547-3.682,8.879v67.129c0,6.937,5.625,12.558,12.559,12.558h51.316h10.235
		c-1.168-1.732-1.838-3.791-1.838-5.931V273.527z M220.683,209.918l8.646-3.229c1.547-0.578,3.279,0.207,3.859,1.759
		c0.58,1.553-0.209,3.282-1.759,3.862l-8.647,3.229c-0.346,0.129-0.701,0.191-1.051,0.191c-1.215,0-2.359-0.746-2.81-1.952
		C218.343,212.226,219.13,210.498,220.683,209.918 M203.116,193.894l5.186-7.638c0.931-1.37,2.797-1.728,4.168-0.797
		c1.371,0.931,1.728,2.796,0.796,4.167l-5.185,7.637c-0.58,0.855-1.523,1.316-2.485,1.316c-0.58,0-1.166-0.168-1.683-0.519
		C202.544,197.13,202.186,195.264,203.116,193.894 M180.52,180.294c0-1.656,1.342-3,3-3c1.657,0,3,1.344,3,3v9.231
		c0,1.656-1.343,3-3,3c-1.658,0-3-1.344-3-3V180.294z M147.54,213.778c-0.451,1.206-1.594,1.952-2.811,1.952
		c-0.349,0-0.703-0.062-1.049-0.192l-8.646-3.229c-1.551-0.579-2.34-2.308-1.76-3.861c0.58-1.552,2.311-2.339,3.86-1.759l8.646,3.23
		C147.331,210.498,148.12,212.227,147.54,213.778 M153.995,185.459c1.369-0.932,3.234-0.574,4.166,0.797l5.185,7.638
		c0.93,1.371,0.573,3.236-0.798,4.166c-0.516,0.351-1.102,0.519-1.682,0.519c-0.961,0-1.904-0.461-2.484-1.316l-5.186-7.637
		C152.266,188.255,152.624,186.39,153.995,185.459"/>
	<path style="fill:#FFFFFF;" d="M211.729,87.351c-7.334-7.345-17.094-11.387-27.479-11.387c-10.38,0-20.14,4.042-27.476,11.387
		l-84.16,84.154c-4.901,4.899-4.901,12.854,0,17.754c4.908,4.91,12.857,4.91,17.761,0l84.159-84.152
		c2.597-2.598,6.045-4.026,9.716-4.026c3.67,0,7.118,1.428,9.717,4.026l84.157,84.152c2.451,2.454,5.666,3.684,8.882,3.684
		c3.213,0,6.424-1.23,8.877-3.684c4.905-4.9,4.905-12.855,0-17.754L211.729,87.351z"/>
</g>
</svg>
