<?xml version="1.0" encoding="iso-8859-1"?>
<!-- Generator: Adobe Illustrator 25.4.1, SVG Export Plug-In . SVG Version: 6.00 Build 0)  -->
<svg version="1.1" id="Calque_1" xmlns="http://www.w3.org/2000/svg" xmlns:xlink="http://www.w3.org/1999/xlink" x="0px" y="0px"
	 viewBox="0 0 368.5 368.5" style="enable-background:new 0 0 368.5 368.5;" xml:space="preserve">
<g>
	<path style="fill:#FFFFFF;" d="M323.857,108.373L259.982,44.68c-2.79-2.797-7.3-2.797-10.111,0L44.61,249.904
		c-2.79,2.842-2.79,7.408,0,10.205l63.861,63.715c2.789,2.791,7.357,2.791,10.139,0l61.361-61.099l-20.256-20.256
		c-3.693-3.688-3.693-9.666,0-13.36c3.686-3.694,9.666-3.694,13.359-0.007l20.257,20.257l16.586-16.565l-39.065-39.071
		c-3.693-3.694-3.693-9.674,0-13.368c3.679-3.685,9.674-3.685,13.36,0l39.065,39.073l14.175-14.175l-20.258-20.25
		c-3.686-3.692-3.686-9.681,0-13.366c3.685-3.694,9.674-3.694,13.359,0l20.258,20.25l15.77-15.772l-39.065-39.056
		c-3.678-3.686-3.678-9.674,0-13.36c3.693-3.693,9.674-3.693,13.367,0l39.057,39.058l14.99-16.558l-20.25-20.242
		c-3.684-3.693-3.684-9.674,0-13.359c3.687-3.694,9.675-3.694,13.361,0l20.242,20.235l15.574-14.29
		C326.69,115.752,326.69,111.191,323.857,108.373"/>
</g>
</svg>
