<?xml version="1.0" encoding="iso-8859-1"?>
<!-- Generator: Adobe Illustrator 25.4.1, SVG Export Plug-In . SVG Version: 6.00 Build 0)  -->
<svg version="1.1" id="Calque_1" xmlns="http://www.w3.org/2000/svg" xmlns:xlink="http://www.w3.org/1999/xlink" x="0px" y="0px"
	 viewBox="0 0 368.5 368.5" style="enable-background:new 0 0 368.5 368.5;" xml:space="preserve">
<g>
	<path style="fill:#FFFFFF;" d="M283.803,99.8H258.95c-0.27,6.192-4.588,11.125-9.897,11.125h-12.389
		c-5.305,0-9.623-4.933-9.893-11.125h-26.672v25.35h83.704V99.8z"/>
	<path style="fill:#FFFFFF;" d="M48.711,151.495c-2.261,1.156-3.824,3.483-3.824,6.198c0,3.859,3.129,6.986,6.992,6.986
		c3.858,0,6.986-3.127,6.986-6.986c0-2.915-1.785-5.409-4.321-6.456v-19.022h-5.833V151.495z"/>
	<path style="fill:#FFFFFF;" d="M54.545,92.659c2.535-1.05,4.32-3.545,4.32-6.462c0-3.857-3.127-6.986-6.986-6.986
		c-3.862,0-6.992,3.129-6.992,6.986c0,2.716,1.563,5.044,3.825,6.203v18.458h5.833V92.659z"/>
	<rect x="93.924" y="235.226" style="fill:#FFFFFF;" width="33.727" height="10.391"/>
	<polygon style="fill:#FFFFFF;" points="175.371,128.326 174.602,128.063 179.173,114.747 173.428,114.747 168.767,128.326 	"/>
	<polygon style="fill:#FFFFFF;" points="165.512,128.326 164.743,128.063 169.314,114.747 163.564,114.747 158.904,128.326 	"/>
	<polygon style="fill:#FFFFFF;" points="180.918,121.649 178.626,128.326 180.918,128.326 	"/>
	<polygon style="fill:#FFFFFF;" points="118.056,128.326 124.666,128.326 123.897,128.063 127.651,117.124 127.651,114.747 
		122.723,114.747 	"/>
	<polygon style="fill:#FFFFFF;" points="114.036,128.062 118.612,114.747 112.671,114.747 108.009,128.326 114.807,128.326 	"/>
	<polygon style="fill:#FFFFFF;" points="93.924,114.747 93.924,128.326 94.894,128.326 94.125,128.063 98.696,114.747 	"/>
	<polygon style="fill:#FFFFFF;" points="104.754,128.326 103.985,128.063 108.556,114.747 102.811,114.747 98.15,128.326 	"/>
	<polygon style="fill:#FFFFFF;" points="159.45,114.747 157.498,114.747 157.498,120.433 	"/>
	<rect x="43.592" y="114.747" style="fill:#FFFFFF;" width="20.789" height="13.579"/>
	<path style="fill:#FFFFFF;" d="M70.215,261.871H88.09V63.503c-10.089,1.212-17.876,8.624-17.876,17.556V261.871z"/>
	<rect x="157.498" y="231.665" style="fill:#FFFFFF;" width="126.305" height="17.261"/>
	<path style="fill:#FFFFFF;" d="M133.484,296.067c0,5.012,4.077,9.09,9.088,9.09c5.013,0,9.092-4.078,9.092-9.09V99.206h-18.18
		V296.067z"/>
	<path style="fill:#FFFFFF;" d="M289.636,99.206v196.861c0,5.012,4.077,9.09,9.09,9.09c5.009,0,9.085-4.078,9.085-9.09V99.206
		H289.636z"/>
	<path style="fill:#FFFFFF;" d="M312.043,93.373c8.277,0,15.013-6.734,15.013-15.011c0-8.275-6.736-15.008-15.013-15.008H118.589
		v30.019H312.043z"/>
</g>
</svg>
