<?xml version="1.0" encoding="iso-8859-1"?>
<!-- Generator: Adobe Illustrator 25.4.1, SVG Export Plug-In . SVG Version: 6.00 Build 0)  -->
<svg version="1.1" id="Calque_1" xmlns="http://www.w3.org/2000/svg" xmlns:xlink="http://www.w3.org/1999/xlink" x="0px" y="0px"
	 viewBox="0 0 368.5 368.5" style="enable-background:new 0 0 368.5 368.5;" xml:space="preserve">
<g>
	<path style="fill:#FFFFFF;" d="M279.859,178.738c1.475,0,2.279-0.394,2.799-0.887c0.002-0.025,0.016-0.068,0.012-0.084
		c-0.008-0.028-0.215-0.701-2.059-1.663c-2.586-1.349-19.481-9.692-29.025-14.399c-0.178,0.054-0.363,0.097-0.556,0.118
		l-7.846,0.855c9.093,4.524,19.876,9.862,24.533,12.066C270.665,176.14,276.152,178.738,279.859,178.738"/>
	<path style="fill:#FFFFFF;" d="M290.455,107.201c-0.589,0-1.197,0.054-1.808,0.16l-61.816,10.901v36.773
		c0.547-0.049,1.103,0.035,1.608,0.288c0.074,0.037,1.931,0.966,4.81,2.403l9.514-1.037l0.833-2.034
		c0.315-0.769,0.934-1.374,1.713-1.669c0.778-0.297,1.642-0.254,2.389,0.113c1.306,0.643,32.009,15.765,35.689,17.685
		c2.765,1.443,4.468,3.248,5.061,5.366c0.181,0.647,0.294,1.493,0.167,2.473c0.026,0.244,0.031,0.493-0.006,0.746l-13.479,91.136
		c-0.065,0.439-0.226,0.859-0.474,1.228c-0.311,0.467-3.271,4.564-10.951,4.564c-0.42,0-0.856-0.012-1.309-0.038
		c-7.199-0.421-12.158-3.53-12.366-3.662l-24.688-16.571c2.456,13.408,3.704,20.263,3.723,20.474
		c0.345,3.87-1.952,7.264-6.141,9.085c-3.47,1.509-7.846,2.411-11.705,2.411c-4.353,0-7.965-1.121-10.445-3.241l-4.548-4.104
		c-0.518,4.06-3.541,8.408-8.501,11.815c-4.605,3.16-10.051,4.973-14.943,4.973h-0.001c-3.444-0.001-6.344-0.923-8.386-2.668
		l-20.926-17.89v18.441c0.008,4.845,3.326,8.233,8.068,8.233c0.588,0,1.193-0.054,1.803-0.16l134.271-23.676
		c6.002-1.071,10.898-6.813,10.908-12.798V115.436C298.511,110.59,295.195,107.201,290.455,107.201"/>
	<path style="fill:#FFFFFF;" d="M230.59,163.105c-0.363-0.182-0.715-0.357-1.044-0.521l-8.667,69.136
		c1.092,5.948,2.076,11.298,2.95,16.066l29.484,19.789c0.003,0,3.885,2.369,9.433,2.693c3.81,0.222,5.822-0.934,6.585-1.566
		l12.44-84.107c-0.593,0.093-1.228,0.143-1.912,0.143c-4.666,0-10.039-2.36-14.709-4.571c-6.344-3.002-23.898-11.742-33.288-16.427
		C231.388,163.632,230.953,163.415,230.59,163.105"/>
	<path style="fill:#FFFFFF;" d="M173.72,163.095c0.285,0.37,0.493,0.796,0.582,1.264l20.48,106.913l9.95,8.975
		c1.319,1.126,3.583,1.749,6.486,1.749c3.032,0,6.6-0.734,9.312-1.913c1-0.435,2.645-1.392,2.564-2.962
		c-0.564-3.294-13.265-72.32-21.256-115.716c-0.462,0.272-0.943,0.529-1.461,0.753c-2.805,1.211-6.212,1.466-8.577,1.466
		c-5.084,0-11.938-1.207-15.921-4.592l-27.854-24.809c-1.008,0.903-1.889,1.945-2.599,3.087l25.777,22.037
		C172.406,160.375,173.251,161.658,173.72,163.095 M188.071,165.072c1.355-0.261,2.666,0.63,2.925,1.985l20.333,106.335
		c0.26,1.357-0.628,2.666-1.985,2.925c-0.159,0.03-0.317,0.045-0.473,0.045c-1.175,0-2.223-0.833-2.451-2.03l-20.334-106.335
		C185.826,166.64,186.714,165.331,188.071,165.072"/>
	<path style="fill:#FFFFFF;" d="M191.801,157.624L191.801,157.624c1.108,0,2.163-0.073,3.123-0.204l-32.297-27.837l-8.252,1.455
		c-0.243,0.043-0.481,0.106-0.72,0.165l26.163,23.303C181.956,156.322,186.906,157.624,191.801,157.624"/>
	<path style="fill:#FFFFFF;" d="M200.592,154.082c0.166-1.112-0.582-2.468-2.055-3.719l-26.435-22.451l-3.117,0.55l31.059,26.769
		C200.342,154.869,200.532,154.483,200.592,154.082"/>
	<path style="fill:#FFFFFF;" d="M172.78,291.44h0.002c3.654,0,7.969-1.466,11.546-3.921c4.708-3.232,6.64-7.172,5.789-9.113
		c-0.09-0.206-0.157-0.421-0.2-0.641l-19.731-103.007c-1.28,1.451-2.831,2.826-4.626,4.058c-4.603,3.16-10.051,4.974-14.943,4.974
		c-2.804,0-5.237-0.621-7.149-1.789v86.986l24.826,21.224C169.22,291.003,170.813,291.439,172.78,291.44 M166.687,280.77
		c-0.164,0.033-0.326,0.048-0.487,0.048c-1.17,0-2.214-0.824-2.451-2.016l-17.007-86.075c-0.268-1.354,0.613-2.669,1.966-2.936
		c1.355-0.277,2.671,0.612,2.938,1.967l17.01,86.076C168.923,279.188,168.042,280.501,166.687,280.77"/>
	<path style="fill:#FFFFFF;" d="M150.617,177.789c3.655,0,7.971-1.466,11.546-3.921c4.261-2.924,5.885-6.09,5.981-7.912
		c0.046-0.868-0.22-1.52-0.84-2.049l-23.82-20.364c-0.004,0.1-0.015,0.197-0.015,0.297v30.445l2.661,2.276
		C147.057,177.352,148.65,177.789,150.617,177.789"/>
	<path style="fill:#FFFFFF;" d="M304.627,90.157c-0.508-0.243-1.027-0.469-1.555-0.676c-0.093-0.037-0.186-0.072-0.28-0.107
		c-1.158-0.437-2.355-0.788-3.586-1.046c-0.05-0.01-0.099-0.022-0.149-0.032c-0.611-0.124-1.231-0.224-1.857-0.305
		c-0.076-0.009-0.152-0.017-0.227-0.026c-1.257-0.149-2.542-0.207-3.847-0.176c-0.099,0.002-0.2,0.003-0.3,0.007
		c-0.622,0.022-1.246,0.064-1.873,0.126c-0.115,0.012-0.231,0.025-0.348,0.038c-0.648,0.072-1.298,0.159-1.953,0.275L154.374,111.91
		c-4.655,0.823-9.067,2.666-13.004,5.26c-10.063,6.627-17.027,18.151-17.032,30.039v151.488c0,0.51,0.017,1.015,0.043,1.516
		c0.009,0.17,0.023,0.338,0.034,0.507c0.022,0.316,0.049,0.631,0.082,0.943c0.023,0.221,0.047,0.442,0.075,0.66
		c0.03,0.23,0.066,0.458,0.1,0.685c0.99,6.362,4.156,11.671,8.802,15.212c0.114,0.087,0.229,0.173,0.345,0.257
		c0.204,0.149,0.41,0.297,0.62,0.439c0.265,0.181,0.537,0.356,0.812,0.526c3.657,2.264,8.055,3.541,12.926,3.541
		c1.687,0,3.422-0.155,5.157-0.46l134.277-23.676c16.555-2.928,30.031-18.762,30.036-35.296V112.064
		C317.644,102.034,312.55,93.968,304.627,90.157 M304.518,266.926c-0.014,8.905-6.981,17.117-15.859,18.7l-134.285,23.679
		c-0.953,0.166-1.906,0.25-2.837,0.25h-0.001c-8.006-0.001-14.052-6.117-14.068-14.227V143.834
		c0.017-8.91,6.984-17.123,15.86-18.703l134.283-23.679c0.954-0.167,1.91-0.251,2.843-0.251c8.004,0,14.051,6.119,14.064,14.231
		V266.926z"/>
	<path style="fill:#FFFFFF;" d="M118.338,147.207c0.001-3.622,0.555-7.214,1.58-10.684c0.171-0.578,0.355-1.152,0.552-1.723
		c4.917-14.274,17.795-26.137,32.861-28.798l134.28-23.677c0.927-0.163,1.853-0.29,2.777-0.382l-57.359-33.039
		c-3.723-2.223-8.1-3.386-12.701-3.386c-1.688,0-3.425,0.155-5.161,0.46L80.889,69.655c-16.554,2.924-30.029,18.759-30.037,35.298
		V256.44c0.005,8.953,4.001,16.534,10.963,20.796l58.997,34.147c-1.617-3.835-2.473-8.118-2.474-12.685V147.207z"/>
</g>
</svg>
