<?xml version="1.0" encoding="iso-8859-1"?>
<!-- Generator: Adobe Illustrator 25.4.1, SVG Export Plug-In . SVG Version: 6.00 Build 0)  -->
<svg version="1.1" id="Calque_1" xmlns="http://www.w3.org/2000/svg" xmlns:xlink="http://www.w3.org/1999/xlink" x="0px" y="0px"
	 viewBox="0 0 368.5 368.5" style="enable-background:new 0 0 368.5 368.5;" xml:space="preserve">
<g>
	<path style="fill:#FFFFFF;" d="M91.636,249.842v49.555c0,1.962,1.592,3.554,3.555,3.554h74.598v-56.664H95.191
		C93.228,246.287,91.636,247.879,91.636,249.842 M116.857,256.532h35.295c0,5.531-4.483,10.016-10.014,10.016h-15.265
		C121.342,266.548,116.857,262.063,116.857,256.532"/>
	<path style="fill:#FFFFFF;" d="M169.788,310.274H71.395c-3.837,0-7.077-2.458-7.077-5.369v-79.856h105.47V213.2H64.318v-43.147
		h105.47v-11.849H64.318v-44.23h105.47v-11.849H64.318v-38.6c0-2.909,3.24-5.367,7.077-5.367h98.393v-6.281
		c0-1.957,0.352-3.825,0.967-5.568h-99.36c-10.435,0-18.926,7.723-18.926,17.216v241.38c0,9.493,8.491,17.218,18.926,17.218h99.333
		c-0.598-1.722-0.94-3.564-0.94-5.494V310.274z"/>
	<path style="fill:#FFFFFF;" d="M185.86,325.987h123.351c4.945,0,8.967-4.198,8.967-9.359V51.877c0-5.159-4.022-9.354-8.967-9.354
		H185.86c-4.943,0-8.963,4.195-8.963,9.354v264.751C176.897,321.789,180.917,325.987,185.86,325.987 M188.39,163.459
		c0-3.272,2.652-5.925,5.925-5.925c3.272,0,5.924,2.653,5.924,5.925v33.809c0,3.273-2.652,5.925-5.924,5.925
		c-3.273,0-5.925-2.652-5.925-5.925V163.459z"/>
</g>
</svg>
