<?xml version="1.0" encoding="iso-8859-1"?>
<!-- Generator: Adobe Illustrator 25.4.1, SVG Export Plug-In . SVG Version: 6.00 Build 0)  -->
<svg version="1.1" id="Calque_1" xmlns="http://www.w3.org/2000/svg" xmlns:xlink="http://www.w3.org/1999/xlink" x="0px" y="0px"
	 viewBox="0 0 368.5 368.5" style="enable-background:new 0 0 368.5 368.5;" xml:space="preserve">
<g>
	<path style="fill:#FFFFFF;" d="M256.196,212.409c-1.113,2.75-2.033,5.771-2.73,8.984c0.912,4.444,1.397,9.147,1.397,13.959
		c0,4.864-0.494,9.612-1.423,14.094c0.69,3.211,1.603,6.233,2.709,8.984c2.425-6.976,3.714-14.898,3.714-23.078
		C259.863,227.225,258.592,219.352,256.196,212.409"/>
	<polygon style="fill:#FFFFFF;" points="111.331,164.852 80.475,140.197 52.933,140.197 83.788,164.852 	"/>
	<rect x="47.037" y="78.405" style="fill:#FFFFFF;" width="31.756" height="54.791"/>
	<polygon style="fill:#FFFFFF;" points="80.932,71.405 111.331,47.114 83.788,47.114 53.39,71.405 	"/>
	<path style="fill:#FFFFFF;" d="M117.182,152.032c-15.446-3.029-27.4-22.432-27.4-45.857c0-25.522,14.184-46.288,31.619-46.288
		h16.276l-16.359-13.072L85.25,75.636c-0.085,0.402-0.246,0.773-0.456,1.111v58.107c0.278,0.448,0.449,0.963,0.502,1.514
		l36.022,28.785l3.594-2.873L117.182,152.032z"/>
	<path style="fill:#FFFFFF;" d="M173.438,64.888h-0.311c-0.199,0.051-0.403,0.086-0.618,0.086
		c-12.406,0-22.887,18.955-22.887,41.393c0,12.201,3.019,23.756,8.284,31.701l6.696,9.389h8.836
		c14.68,0,26.623-18.518,26.623-41.282C200.061,83.41,188.118,64.888,173.438,64.888 M174.402,138.807
		c-10.415,0-18.855-14.598-18.855-32.601c0-18,8.44-32.598,18.855-32.598c10.414,0,18.856,14.598,18.856,32.598
		C193.258,124.21,184.816,138.807,174.402,138.807"/>
	<path style="fill:#FFFFFF;" d="M111.478,144.47l-2.651-3.516c-0.031-0.041-0.061-0.082-0.088-0.125
		c-5.794-8.744-9.117-21.304-9.117-34.462c0-16.46,4.908-30.655,12.471-38.868c-10.101,5.866-17.312,20.989-17.312,38.676
		C94.781,123.499,101.702,138.357,111.478,144.47"/>
	<path style="fill:#FFFFFF;" d="M215.897,321.685c8.392,0,16.615-3.945,23.929-11.449c-1.711-2.158-3.354-4.5-4.924-7.012
		c-0.009-0.014-0.019-0.029-0.028-0.043c-0.365-0.586-0.726-1.18-1.083-1.783c-0.029-0.049-0.058-0.098-0.086-0.147
		c-0.116-0.195-0.234-0.388-0.349-0.587c-0.102-0.176-0.196-0.362-0.297-0.54c-0.433-0.759-0.858-1.529-1.274-2.312
		c-0.208-0.389-0.411-0.785-0.615-1.18c-0.332-0.646-0.658-1.299-0.979-1.959c-0.224-0.461-0.448-0.922-0.667-1.388
		c-0.343-0.735-0.68-1.479-1.009-2.231c-0.29-0.658-0.572-1.326-0.85-1.996c-0.06-0.144-0.118-0.289-0.178-0.434
		c-1.084-2.638-2.082-5.359-2.993-8.158c-0.275,0.014-0.55,0.035-0.824,0.035c-6.254,0-12.101-3.353-16.907-9.697l-38.439-50.965
		c-0.525,5.077-0.813,10.299-0.813,15.641C167.511,283.013,189.217,321.685,215.897,321.685"/>
	<path style="fill:#FFFFFF;" d="M218.439,220.153c0.046-0.475,0.092-0.949,0.143-1.424c0.859-8.08,2.333-15.879,4.391-23.23
		c-5.682,0.361-11.185,4.828-15.227,12.453l10.467,14.678C218.28,221.799,218.359,220.977,218.439,220.153"/>
	<path style="fill:#FFFFFF;" d="M204.543,203.46c5.026-8.303,11.859-13,19.127-13c0.274,0,0.549,0.023,0.824,0.037
		c0.899-2.762,1.883-5.449,2.951-8.053c0.08-0.197,0.159-0.396,0.241-0.591c0.267-0.641,0.536-1.278,0.812-1.909
		c0.341-0.775,0.689-1.545,1.044-2.304c0.203-0.436,0.412-0.864,0.62-1.293c0.35-0.721,0.706-1.434,1.068-2.137
		c0.164-0.316,0.326-0.631,0.491-0.943c0.446-0.844,0.905-1.67,1.37-2.487c0.09-0.158,0.174-0.324,0.265-0.48
		c0.103-0.178,0.208-0.35,0.312-0.526c0.059-0.101,0.118-0.199,0.177-0.298c0.322-0.545,0.649-1.082,0.979-1.612
		c0.039-0.064,0.078-0.127,0.118-0.189c1.557-2.489,3.187-4.807,4.884-6.949c-7.314-7.502-15.537-11.45-23.929-11.45
		c-12.84,0-24.519,8.975-33.19,23.567L204.543,203.46z"/>
	<path style="fill:#FFFFFF;" d="M273.075,149.276c-26.68,0-48.385,38.672-48.385,86.205c0,47.534,21.705,86.204,48.385,86.204
		c26.681,0,48.388-38.67,48.388-86.204C321.463,187.948,299.756,149.276,273.075,149.276 M273.076,281.501
		c-15.754,0-28.094-20.215-28.094-46.02c0-25.806,12.34-46.021,28.094-46.021c15.754,0,28.095,20.215,28.095,46.021
		C301.171,261.286,288.83,281.501,273.076,281.501"/>
	<path style="fill:#FFFFFF;" d="M210.752,267.788c2.664,3.516,7.07,7.713,12.918,7.713c0.12,0,0.24-0.002,0.36-0.006
		c-3.498-12.391-5.34-26.164-5.34-40.016c0-1.175,0.014-2.347,0.04-3.513l-64.943-91.067c-5.842-8.814-9.165-21.375-9.165-34.533
		c0-17.1,5.295-31.76,13.363-39.803c-8.595,4.217-15.382,17.393-16.747,33.907c-0.108,1.304-1.201,2.293-2.489,2.293
		c-0.069,0-0.138-0.002-0.208-0.008c-1.376-0.114-2.399-1.323-2.286-2.698c1.282-15.511,6.931-28.16,14.761-34.818
		c-11.743,1.445-21.396,19.762-21.396,41.293c0,12.199,3.02,23.754,8.286,31.699c0.763,1.151,0.449,2.701-0.702,3.465
		c-0.426,0.281-0.905,0.416-1.379,0.416c-0.811,0-1.605-0.392-2.087-1.119c-5.794-8.742-9.118-21.303-9.118-34.461
		c0-18.318,6.077-33.828,15.129-41.412c-0.053,0.004-0.104,0.016-0.159,0.016c-12.407,0-22.889,18.957-22.889,41.396
		c0,12.168,3.005,23.693,8.245,31.637l9.411,12.478c0.831,1.104,0.611,2.67-0.491,3.502c-0.451,0.34-0.98,0.504-1.504,0.504
		c-0.757,0-1.506-0.344-1.998-0.996l-9.457-12.541c-0.03-0.039-0.059-0.08-0.088-0.123c-5.794-8.742-9.118-21.303-9.118-34.461
		c0-18.414,6.141-33.994,15.273-41.533c-12.17,0.539-22.352,19.256-22.352,41.367c0,12.17,3.004,23.695,8.243,31.639
		L210.752,267.788z"/>
</g>
</svg>
