<?xml version="1.0" encoding="iso-8859-1"?>
<!-- Generator: Adobe Illustrator 25.4.1, SVG Export Plug-In . SVG Version: 6.00 Build 0)  -->
<svg version="1.1" id="Calque_1" xmlns="http://www.w3.org/2000/svg" xmlns:xlink="http://www.w3.org/1999/xlink" x="0px" y="0px"
	 viewBox="0 0 368.5 368.5" style="enable-background:new 0 0 368.5 368.5;" xml:space="preserve">
<polygon style="fill:#FFFFFF;" points="127.577,90.039 147.334,90.039 155.35,82.023 135.594,82.023 "/>
<g>
	<path style="fill:#FFFFFF;" d="M143.917,73.699h13.263c-0.335-0.723-0.792-1.403-1.387-1.998c-1.319-1.319-3.073-2.045-4.939-2.045
		c-1.865,0-3.62,0.727-4.94,2.046L143.917,73.699z"/>
	<path style="fill:#FFFFFF;" d="M48.147,80.72l47.424,47.425v171.559h13.958V127.841l13.318-13.317h-19.758l-0.691,0.691
		l-0.69-0.691H88.562c-2.296,0-4.164-1.867-4.164-4.162c0-2.295,1.868-4.162,4.164-4.162h4.822l-7.839-7.838H72.399
		c-2.295,0-4.163-1.868-4.163-4.163c0-2.294,1.868-4.161,4.163-4.161h4.823l-8.016-8.016H56.06c-2.295,0-4.163-1.866-4.163-4.161
		c0-2.295,1.868-4.163,4.163-4.163h4.822l-2.856-2.856c-1.32-1.32-3.075-2.046-4.941-2.046c-1.865,0-3.619,0.726-4.938,2.045
		C45.424,73.564,45.424,77.996,48.147,80.72"/>
	<polygon style="fill:#FFFFFF;" points="139.01,98.362 119.253,98.362 111.413,106.201 131.171,106.201 	"/>
	<polygon style="fill:#FFFFFF;" points="235.005,79.022 298.907,79.022 301.231,76.699 232.681,76.699 	"/>
	<polygon style="fill:#FFFFFF;" points="249.02,93.039 251.343,95.362 282.566,95.362 284.889,93.039 	"/>
	<polygon style="fill:#FFFFFF;" points="268.727,109.201 265.182,109.201 266.954,110.974 	"/>
	<path style="fill:#FFFFFF;" d="M56.061,76.699c-0.641,0-1.163,0.522-1.163,1.162c0,0.641,0.522,1.162,1.163,1.162h152.151
		c-0.259-0.757-0.434-1.535-0.506-2.324H56.061z"/>
	<path style="fill:#FFFFFF;" d="M72.399,93.039c-0.641,0-1.163,0.521-1.163,1.161c0,0.641,0.522,1.162,1.163,1.162h125.829h24.874
		l-2.323-2.323h-22.551H72.399z"/>
	<path style="fill:#FFFFFF;" d="M239.265,111.524l-2.324-2.324h-54.875H88.562c-0.641,0-1.163,0.521-1.163,1.161
		c0,0.641,0.522,1.163,1.163,1.163h93.504H239.265z"/>
	<path style="fill:#FFFFFF;" d="M212.703,80.72l47.424,47.425v171.559h13.959V127.842l46.263-46.263
		c1.319-1.319,2.046-3.072,2.046-4.939c0-1.866-0.727-3.62-2.046-4.94c-1.319-1.319-3.072-2.045-4.938-2.045
		s-3.621,0.727-4.941,2.046l-43.516,43.514l-44.372-44.373c-1.32-1.32-3.074-2.046-4.941-2.046c-1.865,0-3.619,0.726-4.938,2.045
		C209.98,73.564,209.98,77.996,212.703,80.72"/>
</g>
</svg>
