<?xml version="1.0" encoding="iso-8859-1"?>
<!-- Generator: Adobe Illustrator 25.4.1, SVG Export Plug-In . SVG Version: 6.00 Build 0)  -->
<svg version="1.1" id="Calque_1" xmlns="http://www.w3.org/2000/svg" xmlns:xlink="http://www.w3.org/1999/xlink" x="0px" y="0px"
	 viewBox="0 0 368.5 368.5" style="enable-background:new 0 0 368.5 368.5;" xml:space="preserve">
<g>
	<path style="fill:#FFFFFF;" d="M200.352,159.186l-0.015,83.897c0,9.008-7.25,16.336-16.16,16.336
		c-8.913,0-16.164-7.328-16.164-16.336v-36.408c-8.972,3.403-21.534,5.147-34.017,5.147c-13.105,0-26.299-1.92-35.332-5.666v37.06
		c0,45.637,38.361,82.769,85.513,82.769c47.155,0,85.517-37.132,85.517-82.769l0.011-83.897v-4.057v-36.408
		c-8.972,3.403-21.533,5.147-34.017,5.147c-13.104,0-26.299-1.92-35.332-5.666v37.06L200.352,159.186z"/>
	<path style="fill:#FFFFFF;" d="M94.064,194.168c0,3.644,14.094,10.734,39.932,10.734c25.841,0,39.937-7.09,39.937-10.734v-54.066
		c0-3.644-14.096-10.733-39.937-10.733c-25.838,0-39.932,7.089-39.932,10.733V194.168z M133.397,134.875
		c17.901,0,32.419,3.484,32.419,7.768c0,4.296-14.518,7.771-32.419,7.771c-17.907,0-32.425-3.475-32.425-7.771
		C100.972,138.359,115.49,134.875,133.397,134.875"/>
	<path style="fill:#FFFFFF;" d="M194.611,107.319c0,3.644,14.094,10.734,39.932,10.734c25.841,0,39.937-7.09,39.937-10.734V53.253
		c0-3.644-14.096-10.733-39.937-10.733c-25.838,0-39.932,7.089-39.932,10.733V107.319z M233.944,48.026
		c17.901,0,32.419,3.484,32.419,7.768c0,4.296-14.518,7.771-32.419,7.771c-17.907,0-32.425-3.475-32.425-7.771
		C201.519,51.51,216.037,48.026,233.944,48.026"/>
</g>
</svg>
