<?xml version="1.0" encoding="iso-8859-1"?>
<!-- Generator: Adobe Illustrator 25.4.1, SVG Export Plug-In . SVG Version: 6.00 Build 0)  -->
<svg version="1.1" id="Calque_1" xmlns="http://www.w3.org/2000/svg" xmlns:xlink="http://www.w3.org/1999/xlink" x="0px" y="0px"
	 viewBox="0 0 368.5 368.5" style="enable-background:new 0 0 368.5 368.5;" xml:space="preserve">
<g>
	<path style="fill:#FFFFFF;" d="M95.818,165.165c-22.803,0-35.243,6.257-35.243,9.471v49.744c6.144-7.462,32.1-7.707,35.379-7.707
		c3.232,0,28.503,0.239,35.105,7.391v-49.428C131.059,171.422,118.62,165.165,95.818,165.165"/>
	<path style="fill:#FFFFFF;" d="M274.847,206.495c11.564,0,23.208,1.695,31.179,5v-32.704c0-40.273-33.853-73.04-75.462-73.04
		c-41.612,0-75.465,32.767-75.465,73.04l-0.01,74.036c0,7.949-6.398,14.415-14.263,14.415c-7.863,0-14.26-6.466-14.26-14.415
		l-0.012-24.715c-1.519-1.967-12.726-5.333-30.6-5.333c-17.825,0-29.02,3.347-30.593,5.316v24.849
		c0,40.274,33.854,73.04,75.465,73.04s75.464-32.766,75.464-73.04l0.013-74.036c0-7.949,6.398-14.415,14.261-14.415
		c7.865,0,14.264,6.466,14.264,14.415v32.129C252.746,208.035,263.831,206.495,274.847,206.495"/>
	<path style="fill:#FFFFFF;" d="M310.086,222.074c0-3.215-12.438-9.472-35.239-9.472c-22.803,0-35.243,6.257-35.243,9.472v47.711
		c0,3.216,12.44,9.472,35.243,9.472c22.801,0,35.239-6.256,35.239-9.472V222.074z M275.376,274.398
		c-15.797,0-28.608-3.074-28.608-6.855c0-3.791,12.811-6.858,28.608-6.858c15.802,0,28.613,3.067,28.613,6.858
		C303.989,271.324,291.178,274.398,275.376,274.398"/>
	<path style="fill:#FFFFFF;" d="M85.604,111.018c-9.233-0.955-15.7-3.156-15.7-5.718c0-2.771,7.561-5.116,18.006-5.924
		c0.24-0.061,0.488-0.103,0.747-0.103h0.817c2.054-0.125,4.192-0.199,6.409-0.199c2.215,0,4.355,0.074,6.409,0.199h1.037
		c0.291,0,0.568,0.054,0.834,0.13c10.282,0.829,17.695,3.154,17.695,5.897c0,2.541-6.364,4.725-15.476,5.691v4.059
		c13.066-1.487,20.733-5.374,20.733-7.71V50.838c0-2.932-12.042-8.319-31.717-8.319s-31.717,5.387-31.717,8.319v56.502
		c0,2.407,8.129,6.462,21.923,7.84V111.018z"/>
	<path style="fill:#FFFFFF;" d="M109.363,133.943h-6.034c-1.687,0-3.053-1.366-3.053-3.053v-25.51H91.71v25.51
		c0,1.687-1.366,3.053-3.053,3.053H82.96l13.2,18.627L109.363,133.943z"/>
</g>
</svg>
