<?xml version="1.0" encoding="iso-8859-1"?>
<!-- Generator: Adobe Illustrator 25.4.1, SVG Export Plug-In . SVG Version: 6.00 Build 0)  -->
<svg version="1.1" id="Calque_1" xmlns="http://www.w3.org/2000/svg" xmlns:xlink="http://www.w3.org/1999/xlink" x="0px" y="0px"
	 viewBox="0 0 368.5 368.5" style="enable-background:new 0 0 368.5 368.5;" xml:space="preserve">
<g>
	<path style="fill:#FFFFFF;" d="M276.344,125.891c-8.277,6.945-16.975,12.437-24.491,15.463c-3.552,1.431-6.442,2.151-8.804,2.395
		c0.19,0.377,0.38,0.774,0.568,1.181c1.65,0.882,5.107,1.256,10.888,0.034c7.427-1.568,16.425-5.265,25.338-10.412
		c8.914-5.146,16.616-11.09,21.687-16.737c3.065-3.412,4.593-6.089,5.156-7.993c-2.217-4.222-4.717-8.278-7.46-12.125
		c-0.711,1.955-1.8,4.19-3.401,6.759C291.54,111.333,284.621,118.945,276.344,125.891"/>
	<path style="fill:#FFFFFF;" d="M305.251,121.156c-5.415,6.028-13.55,12.324-22.908,17.727c-9.357,5.402-18.876,9.299-26.804,10.974
		c-2.96,0.625-5.441,0.891-7.52,0.891c-0.8,0-1.535-0.043-2.22-0.115c0.189,0.603,0.361,1.231,0.534,1.859
		c3.702,3.009,18.327,3.035,37.509-3.947c9.673-3.52,18.29-8.037,24.264-12.717c3.579-2.803,5.545-5.156,6.442-6.928
		c-1.451-4.63-3.142-9.072-5.065-13.322C308.466,117.254,307.094,119.105,305.251,121.156"/>
	<path style="fill:#FFFFFF;" d="M285.553,153.244c-10.434,3.797-21.448,6.214-29.991,6.215c-2.971,0-5.636-0.299-7.88-0.926
		c0.217,1.229,0.406,2.493,0.572,3.791c1.408,1.311,4.486,2.692,9.933,3.465c7.512,1.064,17.233,0.668,27.37-1.119
		c18.516-3.264,30.704-9.742,33.845-14.229c-0.779-5.324-1.814-10.463-3.1-15.407c-1.29,1.466-2.955,3.041-5.112,4.73
		C304.811,144.762,295.706,149.548,285.553,153.244"/>
	<path style="fill:#FFFFFF;" d="M285.198,81.837c-0.233-0.212-0.475-0.414-0.71-0.625c-0.326,2.173-1.025,4.744-2.265,7.822
		c-3.025,7.518-8.517,16.215-15.462,24.492c-6.946,8.277-14.558,15.196-21.434,19.481c-2.782,1.733-5.174,2.869-7.239,3.57
		c0.601,0.639,1.22,1.352,1.847,2.167c1.923,0.334,5.2-0.075,10.05-2.028c7.041-2.836,15.26-8.04,23.144-14.655
		c7.885-6.617,14.438-13.808,18.452-20.249c2.637-4.231,3.638-7.293,3.73-9.26C292.179,88.697,288.797,85.105,285.198,81.837"/>
	<path style="fill:#FFFFFF;" d="M262.931,110.312c6.616-7.884,11.82-16.104,14.655-23.145c1.952-4.849,2.362-8.126,2.028-10.049
		c-3.946-3.1-8.155-5.919-12.584-8.448c0.172,9.043-4.836,22.538-11.878,34.734c-7.06,12.228-16.273,23.345-24.204,27.693
		c0.808,0.451,1.564,0.92,2.289,1.403c1.958-0.035,5.08-1.016,9.446-3.737C249.124,124.75,256.316,118.197,262.931,110.312"/>
	<path style="fill:#FFFFFF;" d="M285.684,180.722c18.291,0,31.219-4.036,35.473-7.82c-0.088-5.536-0.41-10.912-0.963-16.127
		c-6.96,5.757-20.219,10.429-33.769,12.818c-6.685,1.18-13.229,1.777-19.159,1.777c-3.508,0-6.8-0.209-9.781-0.631
		c-3.686-0.523-6.492-1.312-8.638-2.246c0.061,0.957,0.108,1.933,0.144,2.922C251.127,175.541,264.959,180.722,285.684,180.722"/>
	<path style="fill:#FFFFFF;" d="M221.062,90.708c1.811-10.275,2.23-20.127,1.181-27.741c-0.652-4.726-1.753-7.693-2.875-9.344
		c-5.22-0.634-10.604-1.024-16.23-1.182c4.71,8.058,7.136,22.197,7.136,36.223c0,13.857-2.37,27.818-6.97,35.923
		c1.272,0.061,2.514,0.147,3.738,0.248C211.539,121.333,217.82,109.095,221.062,90.708"/>
	<path style="fill:#FFFFFF;" d="M321.264,293.703c-0.05-0.234-0.074-0.475-0.074-0.715V178.947
		c-7.85,4.471-21.732,6.776-35.506,6.776c-14.442,0-29-2.534-36.601-7.441v114.402c0.344,0.612,0.499,1.317,0.436,2.028
		c-0.026,0.279-0.039,0.56-0.039,0.842c0,10.074,16.482,18.586,35.993,18.586c19.509,0,35.99-8.512,35.99-18.586
		C321.463,294.961,321.396,294.339,321.264,293.703"/>
	<path style="fill:#FFFFFF;" d="M225.33,54.462c0.77,2.04,1.421,4.591,1.866,7.822c1.119,8.116,0.69,18.519-1.21,29.292
		c-2.377,13.482-6.962,26.677-12.601,33.824c0.189,0.022,0.379,0.06,0.566,0.128c1.522,0.557,4.984-0.931,9.694-6.947
		c4.681-5.974,9.197-14.592,12.715-24.262c3.521-9.672,5.601-19.177,5.857-26.763c0.162-4.801-0.448-7.909-1.302-9.696
		c-4.218-1.182-8.586-2.183-13.146-2.996C226.96,54.722,226.144,54.593,225.33,54.462"/>
	<path style="fill:#FFFFFF;" d="M241.06,96.029c-3.695,10.152-8.482,19.258-13.478,25.637c-1.984,2.533-3.813,4.398-5.489,5.758
		c0.422,0.001,0.849,0.097,1.239,0.324c3.666,2.116,16.2-7.285,27.49-26.844c9.413-16.304,12.28-29.818,10.85-35.093
		c-4.806-2.391-9.787-4.447-15-6.184c0.433,2.148,0.654,4.796,0.542,8.098C246.941,75.824,244.755,85.875,241.06,96.029"/>
	<path style="fill:#FFFFFF;" d="M200.801,111.496c0.279-1.125,0.543-2.32,0.788-3.587h-15.397c0.244,1.267,0.508,2.462,0.788,3.587
		H200.801z"/>
	<path style="fill:#FFFFFF;" d="M202.395,102.909c0.156-1.188,0.295-2.423,0.412-3.707h-13.512c-1.38,0-2.5-1.119-2.5-2.5
		c0-1.381,1.12-2.5,2.5-2.5h13.852c0.041-0.894,0.072-1.808,0.094-2.74h-10.849c-1.381,0-2.5-1.119-2.5-2.5
		c0-1.381,1.119-2.5,2.5-2.5h10.863c-0.022-1.316-0.068-2.589-0.13-3.829h-7.634c-1.381,0-2.5-1.119-2.5-2.5
		c0-1.381,1.119-2.5,2.5-2.5h7.267c-0.184-1.908-0.414-3.709-0.679-5.402h-3.389c-1.381,0-2.5-1.119-2.5-2.5
		c0-1.381,1.119-2.5,2.5-2.5h2.441c-2.174-9.637-5.463-14.558-7.241-14.558c-2.807,0-9.384,12.245-9.384,35.992
		c0,5.333,0.334,10.08,0.88,14.244H202.395z"/>
	<path style="fill:#FFFFFF;" d="M198.686,118.147c0.211-0.52,0.422-1.068,0.628-1.651h-10.848c0.207,0.583,0.417,1.131,0.628,1.651
		H198.686z"/>
	<path style="fill:#FFFFFF;" d="M195.975,123.147h-4.17c0.792,0.999,1.517,1.51,2.085,1.51
		C194.458,124.657,195.183,124.146,195.975,123.147"/>
	<path style="fill:#FFFFFF;" d="M152.155,74.544c1.114,1.89,1.823,3.883,2.091,5.952c0.08,0.244,0.134,0.5,0.134,0.77v10.208
		l7.606-2.05c5.152-1.268,6.223-6.444,6.223-10.565c0-3.484-1.586-7-5.131-7c-0.486,0-1.003,0.066-1.537,0.198L152.155,74.544z
		 M163.944,81.104c0,3.045-1.893,5.431-4.309,5.431c-2.415,0-4.306-2.386-4.306-5.431c0-3.045,1.891-5.43,4.306-5.43
		C162.051,75.674,163.944,78.059,163.944,81.104"/>
	<path style="fill:#FFFFFF;" d="M67.139,88.957c8.701-6.754,23.275-10.901,39.466-10.901c16.188,0,30.763,4.148,39.466,10.901
		c1.981-2.226,3.132-4.639,3.279-7.148c-0.61-10.789-19.928-19.806-42.745-19.806c-22.811,0-42.125,9.012-42.746,19.797
		C64.003,84.312,65.156,86.729,67.139,88.957"/>
	<path style="fill:#FFFFFF;" d="M149.38,92.731c-7.765,8.292-23.816,13.863-42.775,13.863c-13.825,0-26.085-2.971-34.733-7.791
		v15.203c7.841,5.188,20.614,8.643,34.733,8.643c23.186,0,42.775-9.31,42.775-20.329V92.731z"/>
	<path style="fill:#FFFFFF;" d="M53.546,99.214c-5.15,1.268-6.22,6.444-6.22,10.565c0,3.485,1.587,7.001,5.132,7.001
		c0.484,0,1.001-0.066,1.535-0.198l12.879-3.414V95.625L53.546,99.214z M55.898,112.964c-2.416,0-4.309-2.385-4.309-5.431
		c0-3.046,1.893-5.43,4.309-5.43c2.415,0,4.307,2.384,4.307,5.43C60.205,110.579,58.313,112.964,55.898,112.964"/>
	<path style="fill:#FFFFFF;" d="M79.315,258.197l6.144,14.372c6.596-2.914,14.522-4.965,23.185-5.92v-15.954
		c-3.135-0.235-6.217-0.58-9.245-1.008C91.215,251.582,84.237,254.556,79.315,258.197"/>
	<path style="fill:#FFFFFF;" d="M130.838,266.614c8.949,0.961,17.119,3.092,23.865,6.133l6.157-14.243
		c-4.918-3.765-12.021-6.844-20.387-8.792c-3.155,0.441-6.368,0.785-9.635,1.018V266.614z"/>
	<path style="fill:#FFFFFF;" d="M119.881,297.442c-21.628,0-39.863-6.469-48.286-16.02v11.526c0,12.527,22.112,23.111,48.286,23.111
		c26.173,0,48.285-10.584,48.285-23.111v-11.526C159.743,290.973,141.508,297.442,119.881,297.442"/>
	<path style="fill:#FFFFFF;" d="M125.838,292.258v-41.261c-1.928,0.075-3.864,0.123-5.816,0.123c-2.141,0-4.266-0.055-6.377-0.143
		v41.261C117.756,292.502,121.763,292.506,125.838,292.258"/>
	<path style="fill:#FFFFFF;" d="M76.704,279.483c2.28,2.174,5.264,4.176,8.804,5.92l-19.477-45.562
		c-0.171-0.086-0.349-0.166-0.519-0.252c-2.619-1.334-5.018-2.753-7.222-4.241L76.704,279.483z"/>
	<path style="fill:#FFFFFF;" d="M181.912,235.245c-2.245,1.525-4.699,2.979-7.379,4.344c-0.02,0.01-0.042,0.019-0.062,0.029
		l-19.677,45.521c3.656-1.86,6.687-3.999,8.936-6.319l0.537-1.305L181.912,235.245z"/>
	<path style="fill:#FFFFFF;" d="M67.78,235.133c13.912,7.085,32.466,10.987,52.241,10.987c19.777,0,38.33-3.902,52.242-10.987
		c13.377-6.811,20.744-15.675,20.744-24.955c0-9.28-7.367-18.144-20.744-24.956c-13.912-7.086-32.465-10.988-52.242-10.988
		c-19.775,0-38.328,3.902-52.241,10.988c-13.376,6.812-20.743,15.676-20.743,24.956C47.037,219.458,54.404,228.322,67.78,235.133"/>
</g>
</svg>
