<?xml version="1.0" encoding="iso-8859-1"?>
<!-- Generator: Adobe Illustrator 25.4.1, SVG Export Plug-In . SVG Version: 6.00 Build 0)  -->
<svg version="1.1" id="Calque_1" xmlns="http://www.w3.org/2000/svg" xmlns:xlink="http://www.w3.org/1999/xlink" x="0px" y="0px"
	 viewBox="0 0 368.5 368.5" style="enable-background:new 0 0 368.5 368.5;" xml:space="preserve">
<g>
	<path style="fill:#FFFFFF;" d="M216.858,133.129c-2.66-0.773-5.588,0.864-6.345,3.461c-0.393,1.316-0.247,2.7,0.404,3.903
		c0.656,1.21,1.751,2.088,3.085,2.481c0.464,0.131,0.943,0.198,1.423,0.198c2.265,0,4.287-1.52,4.914-3.688
		C221.124,136.784,219.572,133.939,216.858,133.129"/>
	<path style="fill:#FFFFFF;" d="M216.858,113.144c-2.642-0.773-5.588,0.858-6.345,3.459c-0.393,1.312-0.247,2.702,0.408,3.909
		c0.662,1.21,1.753,2.088,3.085,2.473c0.464,0.129,0.939,0.196,1.415,0.196c2.269,0,4.289-1.516,4.922-3.694
		C221.124,116.779,219.564,113.938,216.858,113.144"/>
	<path style="fill:#FFFFFF;" d="M136.385,187.527H71.819c-3.071,0-5.554,2.485-5.554,5.558v36.767c0,0.02-0.005,0.032-0.005,0.058
		v48.589c0,9.205,7.462,16.672,16.67,16.672h42.339c9.207,0,16.67-7.467,16.67-16.672v-14.595V229.91v-36.825
		C141.939,190.012,139.455,187.527,136.385,187.527"/>
	<path style="fill:#FFFFFF;" d="M303.815,278.499v-14.595V229.91v-36.825c0-3.073-2.488-5.558-5.558-5.558H168.17
		c-3.07,0-5.557,2.485-5.557,5.558v36.825v33.994v14.595c0,9.205,7.47,16.672,16.675,16.672h107.853
		C296.352,295.171,303.815,287.704,303.815,278.499"/>
	<path style="fill:#FFFFFF;" d="M326.004,165.131c0-6.062-4.914-10.978-10.978-10.978H185.784V96.601
		c0-6.618,5.385-12.006,12.004-12.006c6.62,0,12.002,5.388,12.002,12.006c0,3.111,2.52,5.631,5.629,5.631
		c3.115,0,5.633-2.52,5.633-5.631c0-12.83-10.434-23.268-23.264-23.268c-12.829,0-23.267,10.438-23.267,23.268v57.552H53.519
		c-6.065,0-10.98,4.916-10.98,10.978c0,6.062,4.915,10.98,10.98,10.98h261.507C321.09,176.111,326.004,171.193,326.004,165.131"/>
</g>
</svg>
