<?xml version="1.0" encoding="iso-8859-1"?>
<!-- Generator: Adobe Illustrator 25.4.1, SVG Export Plug-In . SVG Version: 6.00 Build 0)  -->
<svg version="1.1" id="Calque_1" xmlns="http://www.w3.org/2000/svg" xmlns:xlink="http://www.w3.org/1999/xlink" x="0px" y="0px"
	 viewBox="0 0 368.5 368.5" style="enable-background:new 0 0 368.5 368.5;" xml:space="preserve">
<polygon style="fill:#FFFFFF;" points="252.693,302.018 258.89,302.018 258.89,113.464 304.327,113.464 304.327,107.259 
	258.89,107.259 258.89,66.505 252.693,66.505 252.693,107.259 205.77,107.259 205.77,113.464 252.693,113.464 "/>
<polygon style="fill:#FFFFFF;" points="113.257,302.018 119.457,302.018 119.457,113.464 164.885,113.464 164.885,107.259 
	119.457,107.259 119.457,66.505 113.257,66.505 113.257,107.259 66.337,107.259 66.337,113.464 113.257,113.464 "/>
<polygon style="fill:#FFFFFF;" points="117.965,66.505 111.765,66.505 111.765,212.539 66.337,212.539 66.337,218.744 
	111.765,218.744 111.765,302.018 117.965,302.018 117.965,218.744 164.885,218.744 164.885,212.539 117.965,212.539 "/>
<polygon style="fill:#FFFFFF;" points="257.403,66.505 251.203,66.505 251.203,212.539 205.775,212.539 205.775,218.744 
	251.203,218.744 251.203,302.018 257.403,302.018 257.403,218.744 304.323,218.744 304.323,212.539 257.403,212.539 "/>
<g>
	<path style="fill:#FFFFFF;" d="M52.283,324.75h137.845V202.801c-1.408,0.947-3.103,1.502-4.922,1.502
		c-4.889,0-8.866-3.974-8.866-8.858v-25.709c0-4.884,3.977-8.858,8.866-8.858c1.819,0,3.514,0.555,4.922,1.503V43.766H52.283
		c-4.786,0.002-8.685,3.906-8.685,8.698v263.585C43.598,320.847,47.494,324.75,52.283,324.75 M58.02,62.346
		c0-2.296,1.863-4.158,4.158-4.158h106.866c2.295,0,4.158,1.862,4.158,4.158v243.83c0,2.296-1.863,4.158-4.158,4.158H62.178
		c-2.295,0-4.158-1.862-4.158-4.158V62.346z"/>
	<path style="fill:#FFFFFF;" d="M192.901,43.766v121.677c0.714,1.278,1.158,2.729,1.158,4.294v25.708
		c0,1.565-0.444,3.016-1.158,4.294v125.012h125.466c4.795,0,8.696-3.904,8.696-8.701V52.465c0-4.792-3.901-8.696-8.698-8.699
		H192.901z M312.644,306.176c0,2.296-1.862,4.158-4.158,4.158H201.612c-2.295,0-4.158-1.862-4.158-4.158V62.346
		c0-2.295,1.863-4.158,4.158-4.158h106.874c2.296,0,4.158,1.863,4.158,4.158V306.176z"/>
	<path style="fill:#FFFFFF;" d="M181.884,169.737v25.709c0,1.827,1.489,3.313,3.322,3.313c1.825,0,3.308-1.486,3.308-3.313v-25.709
		c0-1.827-1.483-3.314-3.308-3.314C183.373,166.423,181.884,167.91,181.884,169.737"/>
</g>
</svg>
