<?xml version="1.0" encoding="iso-8859-1"?>
<!-- Generator: Adobe Illustrator 25.4.1, SVG Export Plug-In . SVG Version: 6.00 Build 0)  -->
<svg version="1.1" id="Calque_1" xmlns="http://www.w3.org/2000/svg" xmlns:xlink="http://www.w3.org/1999/xlink" x="0px" y="0px"
	 viewBox="0 0 368.5 368.5" style="enable-background:new 0 0 368.5 368.5;" xml:space="preserve">
<g>
	<path style="fill:#FFFFFF;" d="M323.308,65.522l-11.689-14.633c-0.128-0.161-0.319-0.257-0.524-0.267l-176.363-8.101
		c-0.27-0.027-0.536,0.136-0.664,0.381c-0.129,0.245-0.104,0.543,0.063,0.764l11.724,15.417c0.129,0.169,0.326,0.272,0.538,0.281
		l176.328,7.316c0.01,0.001,0.02,0.001,0.029,0.001c0.268,0,0.515-0.151,0.637-0.391C323.513,66.04,323.483,65.74,323.308,65.522"/>
	<path style="fill:#FFFFFF;" d="M233.75,321.171c-0.133-0.192-0.352-0.307-0.586-0.307l-173.175-0.247l-14.127-8.981
		c-0.219-0.139-0.497-0.148-0.726-0.024c-0.228,0.126-0.37,0.365-0.37,0.626v4.147c0,0.244,0.124,0.471,0.33,0.602l13.667,8.708
		c0.114,0.072,0.247,0.111,0.383,0.111l172.633,0.177h0.001c0.297,0,0.564-0.185,0.668-0.464l1.384-3.692
		C233.913,321.609,233.883,321.362,233.75,321.171"/>
	<path style="fill:#FFFFFF;" d="M143.361,61.872l-11.689-16.131c-0.154-0.214-0.416-0.321-0.674-0.289
		c-0.26,0.036-0.481,0.212-0.572,0.459l-5.231,14.044c-0.089,0.24-0.043,0.511,0.122,0.707l2.179,2.599L46.938,307.276
		c-0.101,0.308,0.018,0.646,0.291,0.823l12.438,8.03c0.117,0.075,0.252,0.114,0.387,0.114c0.081,0,0.161-0.013,0.239-0.041
		c0.208-0.073,0.37-0.24,0.439-0.45l82.73-253.24C143.533,62.295,143.495,62.057,143.361,61.872"/>
	<path style="fill:#FFFFFF;" d="M323.605,69.903c-0.134-0.19-0.352-0.304-0.584-0.304h-4.268c-0.301,0-0.569,0.188-0.671,0.471
		l-88.913,246.056c-0.065,0.107-0.102,0.233-0.102,0.367c0,0.395,0.319,0.714,0.713,0.714h0.015h4.268
		c0.3,0,0.568-0.188,0.671-0.471l88.958-246.181C323.771,70.336,323.739,70.093,323.605,69.903"/>
	<path style="fill:#FFFFFF;" d="M168.736,211.835c0.269,0,0.542-0.076,0.784-0.236l32.315-21.283
		c0.658-0.433,0.841-1.318,0.407-1.976c-0.433-0.659-1.318-0.842-1.977-0.407l-32.315,21.283c-0.659,0.434-0.841,1.319-0.407,1.976
		C167.817,211.609,168.272,211.835,168.736,211.835"/>
	<path style="fill:#FFFFFF;" d="M157.518,197.763c0.269,0,0.542-0.076,0.784-0.236l32.315-21.282
		c0.658-0.434,0.841-1.319,0.407-1.976c-0.433-0.659-1.318-0.841-1.977-0.407l-32.315,21.282c-0.659,0.434-0.841,1.319-0.407,1.976
		C156.599,197.537,157.054,197.763,157.518,197.763"/>
	<path style="fill:#FFFFFF;" d="M173.509,198.703c0.269,0,0.542-0.076,0.784-0.236l32.315-21.282
		c0.659-0.434,0.841-1.319,0.407-1.976c-0.433-0.659-1.318-0.841-1.977-0.407l-32.315,21.282c-0.659,0.434-0.841,1.319-0.407,1.976
		C172.59,198.477,173.045,198.703,173.509,198.703"/>
	<path style="fill:#FFFFFF;" d="M310.041,74.064c-0.252-0.378-0.67-0.613-1.125-0.633l-157.668-6.913
		c-0.63-0.02-1.217,0.373-1.417,0.978L69.877,309.287c-0.143,0.434-0.07,0.911,0.197,1.282s0.696,0.592,1.153,0.594l151.794,0.576
		h0.006c0.599,0,1.135-0.375,1.34-0.939l85.828-235.455C310.351,74.918,310.293,74.442,310.041,74.064 M220.164,308.874
		l-6.131-10.396l-0.423-0.718l-0.423-0.717L77.35,295.782l74.852-226.365l142.237,6.236l-3.079,8.574l0.747,0.03l0.747,0.03
		l0.161,0.007c2.652,0.107,4.723,2.352,4.617,5.005c-0.105,2.59-2.217,4.62-4.81,4.62c-0.065,0-0.13-0.002-0.195-0.004l-3.184-0.128
		l-0.748-0.03l-0.747-0.03l-72.424,201.661l0.471,0.799l0.471,0.799l6.118,10.373l-0.555,1.522L220.164,308.874z"/>
	<path style="fill:#FFFFFF;" d="M289.454,91.644l0.747,0.03l2.513,0.101l0.108,0.003c1.415,0,2.614-1.151,2.671-2.566
		c0.059-1.473-1.091-2.72-2.564-2.779l-0.833-0.034l-0.748-0.03l-0.747-0.03L159.4,81.049l-0.108-0.002
		c-1.416,0-2.614,1.151-2.672,2.566c-0.028,0.71,0.224,1.39,0.71,1.918c0.487,0.527,1.145,0.833,1.855,0.861l129.522,5.222
		L289.454,91.644z"/>
</g>
</svg>
