<?xml version="1.0" encoding="iso-8859-1"?>
<!-- Generator: Adobe Illustrator 25.4.1, SVG Export Plug-In . SVG Version: 6.00 Build 0)  -->
<svg version="1.1" id="Calque_1" xmlns="http://www.w3.org/2000/svg" xmlns:xlink="http://www.w3.org/1999/xlink" x="0px" y="0px"
	 viewBox="0 0 368.5 368.5" style="enable-background:new 0 0 368.5 368.5;" xml:space="preserve">
<polygon style="fill:#FFFFFF;" points="252.687,302.018 258.884,302.018 258.884,113.464 304.321,113.464 304.321,107.259 
	258.884,107.259 258.884,66.505 252.687,66.505 252.687,107.259 205.764,107.259 205.764,113.464 252.687,113.464 "/>
<polygon style="fill:#FFFFFF;" points="113.251,302.018 119.451,302.018 119.451,113.464 164.878,113.464 164.878,107.259 
	119.451,107.259 119.451,66.505 113.251,66.505 113.251,107.259 66.331,107.259 66.331,113.464 113.251,113.464 "/>
<polygon style="fill:#FFFFFF;" points="117.958,66.505 111.758,66.505 111.758,212.539 66.33,212.539 66.33,218.744 
	111.758,218.744 111.758,302.018 117.958,302.018 117.958,218.744 164.878,218.744 164.878,212.539 117.958,212.539 "/>
<polygon style="fill:#FFFFFF;" points="257.396,66.505 251.196,66.505 251.196,212.539 205.768,212.539 205.768,218.744 
	251.196,218.744 251.196,302.018 257.396,302.018 257.396,218.744 304.316,218.744 304.316,212.539 257.396,212.539 "/>
<g>
	<path style="fill:#FFFFFF;" d="M52.276,324.75h137.845V202.801c-1.408,0.947-3.103,1.502-4.922,1.502
		c-4.889,0-8.866-3.974-8.866-8.858v-25.709c0-4.884,3.977-8.858,8.866-8.858c1.819,0,3.514,0.555,4.922,1.503V43.766H52.276
		c-4.786,0.002-8.685,3.906-8.685,8.698v263.585C43.591,320.847,47.487,324.75,52.276,324.75 M58.013,62.346
		c0-2.296,1.863-4.158,4.158-4.158h106.866c2.295,0,4.158,1.862,4.158,4.158v243.83c0,2.296-1.863,4.158-4.158,4.158H62.171
		c-2.295,0-4.158-1.862-4.158-4.158V62.346z"/>
	<path style="fill:#FFFFFF;" d="M192.894,43.766v121.677c0.714,1.278,1.158,2.729,1.158,4.294v25.708
		c0,1.565-0.444,3.016-1.158,4.294v125.012H318.36c4.795,0,8.696-3.904,8.696-8.701V52.465c0-4.792-3.901-8.696-8.698-8.699H192.894
		z M312.637,306.176c0,2.296-1.862,4.158-4.158,4.158H201.605c-2.295,0-4.158-1.862-4.158-4.158V62.346
		c0-2.295,1.863-4.158,4.158-4.158h106.874c2.296,0,4.158,1.863,4.158,4.158V306.176z"/>
	<path style="fill:#FFFFFF;" d="M181.878,169.737v25.709c0,1.827,1.489,3.313,3.322,3.313c1.825,0,3.308-1.486,3.308-3.313v-25.709
		c0-1.827-1.483-3.314-3.308-3.314C183.367,166.423,181.878,167.91,181.878,169.737"/>
</g>
</svg>
