<?xml version="1.0" encoding="iso-8859-1"?>
<!-- Generator: Adobe Illustrator 25.4.1, SVG Export Plug-In . SVG Version: 6.00 Build 0)  -->
<svg version="1.1" id="Calque_1" xmlns="http://www.w3.org/2000/svg" xmlns:xlink="http://www.w3.org/1999/xlink" x="0px" y="0px"
	 viewBox="0 0 368.5 368.5" style="enable-background:new 0 0 368.5 368.5;" xml:space="preserve">
<g>
	<path style="fill:#FFFFFF;" d="M232.234,260.112H70.884c-6.168,7.222-9.66,16.942-9.66,27.096c0,21.378,15.19,38.77,33.863,38.77
		l145.832,0.009c-9.52-9.625-15.5-23.445-15.5-38.779C225.419,277.587,227.825,268.221,232.234,260.112"/>
	<path style="fill:#FFFFFF;" d="M117.546,42.523h-0.567l0.567,203.753h128.342c2.796,0,5.315,1.682,6.388,4.263
		c1.073,2.581,0.486,5.551-1.483,7.535c-7.333,7.369-11.537,17.989-11.537,29.134c0,21.378,15.19,38.771,33.861,38.771
		c18.673,0,33.865-17.393,33.865-38.771l0.312-244.685H117.546z"/>
</g>
</svg>
