<?xml version="1.0" encoding="iso-8859-1"?>
<!-- Generator: Adobe Illustrator 25.4.1, SVG Export Plug-In . SVG Version: 6.00 Build 0)  -->
<svg version="1.1" id="Calque_1" xmlns="http://www.w3.org/2000/svg" xmlns:xlink="http://www.w3.org/1999/xlink" x="0px" y="0px"
	 viewBox="0 0 368.5 368.5" style="enable-background:new 0 0 368.5 368.5;" xml:space="preserve">
<g>
	<path style="fill:#FFFFFF;" d="M197.51,136.22c1.013,1.148,1.889,2.138,2.759,3.269c1.809,2.348,2.958,4.356,5.665,12.583
		c1.645,5.003,5.692,15.118,12.568,19.481c-0.299,0.442-0.546,0.935-0.724,1.465l36.057,4.695v-2.623
		c0-1.337-0.413-2.551-1.08-3.533c6.883-4.358,10.929-14.48,12.573-19.483c2.708-8.229,3.857-10.237,5.666-12.588
		c0.87-1.13,1.747-2.123,2.763-3.272c1.357-1.535,2.893-3.273,4.979-5.944c7.391-9.478,11.298-20.97,11.298-33.233
		c0-28.436-21.983-51.929-49.849-54.308v-0.203h-4.444l-0.081,0.001l-0.022-0.001l-4.558,0.005v0.198
		c-27.869,2.379-49.853,25.872-49.853,54.308c0,12.265,3.907,23.757,11.301,33.233C194.615,132.943,196.154,134.684,197.51,136.22
		 M235.544,51.419h0.079h0.1c25.047,0.109,45.424,20.573,45.424,45.618c0,10.264-3.256,19.866-9.417,27.765
		c-1.917,2.457-3.359,4.086-4.631,5.526c-1.077,1.218-2.093,2.369-3.147,3.738c-2.529,3.286-4.07,6.128-7.066,15.232
		c-2.941,8.952-7.559,15.449-10.98,15.449c-1.014,0-2.059,0.004-3.107,0.008v-29.952c-1.546,0.91-3.255,1.567-5.079,1.905v28.075
		l-1.194,0.006l-0.001,0.026c-0.3-0.002-0.612-0.005-0.933-0.008c-0.292,0.003-0.576,0.005-0.851,0.008l-2.513-0.029v-28.047
		c-1.818-0.311-3.53-0.928-5.079-1.809v29.821c-0.6-0.001-1.204-0.004-1.789-0.004c-3.42,0-8.038-6.497-10.983-15.451
		c-2.994-9.104-4.535-11.947-7.065-15.229c-1.053-1.369-2.067-2.517-3.141-3.732c-1.273-1.441-2.717-3.073-4.635-5.531
		c-6.163-7.901-9.421-17.502-9.421-27.767C190.115,71.992,210.493,51.528,235.544,51.419"/>
	<path style="fill:#FFFFFF;" d="M246.737,89.549c0-6.542-5.324-11.865-11.869-11.865c-6.542,0-11.865,5.323-11.865,11.865v31.757
		c0,6.542,5.323,11.864,11.865,11.864c6.545,0,11.869-5.322,11.869-11.864V89.549z"/>
	<path style="fill:#FFFFFF;" d="M217.427,179.863v0.009l-3.247-0.424c-2.286-0.295-4.378,1.314-4.678,3.602
		c-0.296,2.287,1.315,4.378,3.601,4.675l4.324,0.563v6.761l36.408,4.739v-6.761l1.868,0.244c0.181,0.025,0.362,0.034,0.54,0.034
		c2.066,0.002,3.86-1.532,4.136-3.633c0.297-2.285-1.316-4.379-3.601-4.674l-2.943-0.386v-0.01L217.427,179.863z"/>
	<path style="fill:#FFFFFF;" d="M214.257,200.689v0.01l-3.853-0.5c-2.713-0.353-5.193,1.555-5.55,4.271
		c-0.349,2.712,1.562,5.189,4.272,5.546l50.53,6.577c0.216,0.03,0.432,0.041,0.643,0.041c2.452,0.003,4.577-1.816,4.902-4.309
		c0.357-2.712-1.56-5.193-4.271-5.547l-3.487-0.457v-0.008L214.257,200.689z"/>
	<path style="fill:#FFFFFF;" d="M101.701,270.559v-31.171c0-16.123,13.12-29.238,29.243-29.238
		c16.122,0,29.237,13.115,29.237,29.238v40.199c0,21.666,17.63,39.297,39.3,39.297s39.302-17.631,39.302-39.297v-29.382
		c11.913-2.011,21.475-11.636,23.067-23.959c0.178-1.376-0.793-2.638-2.17-2.817l-50.666-6.814
		c-0.107-0.015-0.216-0.019-0.324-0.019c-0.554,0-1.089,0.181-1.535,0.523c-0.527,0.406-0.876,1.004-0.964,1.667
		c-0.169,1.315,0,2.744,0,3.854c0,13.56,9.704,24.892,22.527,27.427v29.52c0,16.122-13.112,29.237-29.237,29.237
		c-16.121,0-29.237-13.115-29.237-29.237v-40.199c0-21.668-17.628-39.299-39.3-39.299c-21.67,0-39.298,17.631-39.298,39.299v31.357
		c1.773-0.387,3.61-0.601,5.499-0.601C98.702,270.144,100.223,270.287,101.701,270.559"/>
	<path style="fill:#FFFFFF;" d="M79.854,313.713h5.619v6.918v2.334c0,1.67,1.356,3.026,3.028,3.026c1.668,0,3.027-1.356,3.027-3.026
		v-2.334v-6.918h11.241v6.918v2.334c0,1.67,1.349,3.026,3.024,3.026c1.668,0,3.024-1.356,3.024-3.026v-2.334v-6.918h5.62
		c0.766,0,1.385-0.62,1.385-1.382v-16.598c0-10.296-8.381-18.672-18.678-18.672s-18.674,8.376-18.674,18.672v16.598
		C78.47,313.093,79.089,313.713,79.854,313.713"/>
</g>
</svg>
