<?xml version="1.0" encoding="iso-8859-1"?>
<!-- Generator: Adobe Illustrator 25.4.1, SVG Export Plug-In . SVG Version: 6.00 Build 0)  -->
<svg version="1.1" id="Calque_1" xmlns="http://www.w3.org/2000/svg" xmlns:xlink="http://www.w3.org/1999/xlink" x="0px" y="0px"
	 viewBox="0 0 368.5 368.5" style="enable-background:new 0 0 368.5 368.5;" xml:space="preserve">
<g>
	<path style="fill:#FFFFFF;" d="M207.144,62.279c-0.714-0.012-1.419-0.017-2.13-0.017c-66.107,0-120.817,53.785-121.957,119.895
		c-0.56,32.532,11.614,63.368,34.282,86.828c12.913,13.368,28.343,23.398,45.241,29.673c-41.378-7.942-72.967-28.71-92.503-61.242
		c-19.306-32.152-20.25-64.78-20.257-65.107c-0.015-0.666-0.371-1.207-0.888-1.547c0.019-0.046,0.067-0.07,0.08-0.118
		c0.074-0.275,0.212-0.821,0.401-1.584c6.59-26.416,11.144-33.953,13.803-35.627c0.457-0.286,0.594-0.892,0.306-1.348
		c-0.287-0.459-0.892-0.592-1.349-0.308c-4.325,2.722-9.066,14.554-14.483,36.129c-1.731-16.112-2.825-32.408-1.788-34.106
		c0.302-0.449,0.182-1.056-0.265-1.358c-0.444-0.298-1.053-0.182-1.359,0.265c-2.045,3.04,1.005,31.419,1.838,38.812
		c-0.128,0.269-0.214,0.559-0.208,0.876c0.03,1.367,0.947,33.856,20.729,66.891c18.269,30.509,56.744,66.887,136.284,66.949
		c0.006,0.001,0.011,0.001,0.017,0.001c0.714,0.013,1.419,0.019,2.13,0.019c66.109,0,120.823-53.787,121.963-119.898
		C328.189,119.101,274.408,63.44,207.144,62.279 M203.007,302.324c-31.489-0.541-60.914-13.347-82.854-36.057
		c-21.942-22.709-33.726-52.556-33.184-84.042c1.102-63.991,54.058-116.051,118.045-116.051c0.69,0,1.37,0.005,2.062,0.017
		c65.106,1.123,117.163,54.999,116.043,120.098C322.004,250.971,267.938,303.438,203.007,302.324"/>
	<path style="fill:#FFFFFF;" d="M206.946,73.863c-0.648-0.011-1.284-0.016-1.927-0.016c-59.835,0-109.349,48.677-110.376,108.509
		c-0.509,29.441,10.511,57.351,31.027,78.584c20.515,21.232,48.029,33.205,77.471,33.713c0.647,0.01,1.285,0.017,1.929,0.017
		c59.829,0,109.341-48.679,110.372-108.512C316.487,125.287,267.816,74.911,206.946,73.863 M205.07,290.758
		c-0.621,0-1.238-0.006-1.86-0.017c-28.399-0.489-54.937-12.039-74.727-32.52c-19.789-20.483-30.419-47.4-29.928-75.797
		c0.989-57.712,48.749-104.665,106.464-104.665c0.62,0,1.235,0.004,1.858,0.016c58.713,1.01,105.66,49.601,104.653,108.316
		C310.537,243.804,262.779,290.758,205.07,290.758"/>
	<path style="fill:#FFFFFF;" d="M206.745,85.446c-0.579-0.01-1.148-0.016-1.723-0.016c-53.552,0-97.87,43.571-98.792,97.123
		c-0.457,26.353,9.403,51.334,27.768,70.34c18.362,19.005,42.988,29.722,69.341,30.176c0.579,0.012,1.148,0.015,1.723,0.015
		c53.554,0,97.872-43.571,98.795-97.128C304.793,131.475,261.227,86.385,206.745,85.446 M203.408,279.157
		c-25.31-0.435-48.96-10.728-66.596-28.982c-17.637-18.255-27.11-42.247-26.67-67.553c0.886-51.434,43.449-93.28,94.88-93.28
		c0.552,0,1.099,0.006,1.654,0.016c52.328,0.901,94.167,44.207,93.269,96.532C299.051,237.88,255.653,280.095,203.408,279.157"/>
	<path style="fill:#FFFFFF;" d="M267.757,123.668c-16.21-16.777-37.95-26.236-61.212-26.638c-0.512-0.009-1.018-0.013-1.526-0.013
		c-47.275,0-86.396,38.462-87.206,85.739c-0.83,48.094,37.627,87.899,85.725,88.73c0.513,0.007,1.013,0.011,1.523,0.011
		c47.277,0,86.401-38.461,87.213-85.74C292.675,162.495,283.969,140.445,267.757,123.668 M205.061,267.585
		c-0.487,0-0.967-0.004-1.454-0.012c-45.943-0.792-82.674-38.812-81.881-84.752c0.773-45.155,38.138-81.892,83.293-81.892
		c0.485,0,0.97,0.004,1.457,0.013c22.22,0.381,42.985,9.42,58.469,25.444c15.484,16.026,23.801,37.087,23.417,59.305
		C287.586,230.849,250.218,267.585,205.061,267.585"/>
	<path style="fill:#FFFFFF;" d="M260.115,131.05c-14.211-14.709-33.301-23.005-53.752-23.357
		c-42.089-0.702-77.167,33.301-77.888,75.246c-0.351,20.451,7.282,39.817,21.496,54.529c14.213,14.71,33.302,23.004,53.752,23.354
		c0.451,0.009,0.896,0.013,1.345,0.013c41.491,0,75.827-33.76,76.541-75.259C281.962,165.126,274.329,145.762,260.115,131.05
		 M205.068,253.011c-0.403,0-0.804-0.004-1.211-0.011c-18.361-0.315-35.499-7.762-48.259-20.97
		c-12.762-13.207-19.616-30.594-19.299-48.956c0.638-37.257,31.467-67.569,68.721-67.569c0.403,0,0.804,0.004,1.209,0.011
		c18.361,0.315,35.501,7.764,48.261,20.97c12.76,13.209,19.614,30.594,19.295,48.956C273.145,222.7,242.318,253.011,205.068,253.011
		"/>
</g>
</svg>
