<?xml version="1.0" encoding="iso-8859-1"?>
<!-- Generator: Adobe Illustrator 25.4.1, SVG Export Plug-In . SVG Version: 6.00 Build 0)  -->
<svg version="1.1" id="Calque_1" xmlns="http://www.w3.org/2000/svg" xmlns:xlink="http://www.w3.org/1999/xlink" x="0px" y="0px"
	 viewBox="0 0 368.5 368.5" style="enable-background:new 0 0 368.5 368.5;" xml:space="preserve">
<g>
	<path style="fill:#FFFFFF;" d="M106.709,138.478c0.385,0,0.768-0.146,1.061-0.439c0.585-0.586,0.585-1.535,0-2.122l-19.1-19.101
		v4.242l16.978,16.981C105.941,138.332,106.326,138.478,106.709,138.478"/>
	<path style="fill:#FFFFFF;" d="M134.877,123.429c0.383,0,0.767-0.146,1.06-0.439c0.586-0.586,0.586-1.536,0-2.122L88.67,73.6v4.243
		l45.146,45.147C134.109,123.283,134.492,123.429,134.877,123.429"/>
	<path style="fill:#FFFFFF;" d="M249.184,108.907c-0.586,0.585-0.586,1.536,0,2.121l25.398,25.398v-4.242l-23.277-23.277
		C250.719,108.321,249.77,108.321,249.184,108.907"/>
	<polygon style="fill:#FFFFFF;" points="219.512,60.521 274.582,115.591 274.582,111.349 223.754,60.521 	"/>
	<path style="fill:#FFFFFF;" d="M141.049,278.54c0.385,0,0.768-0.146,1.061-0.439c0.585-0.586,0.585-1.536,0-2.122l-53.44-53.441
		v4.242l51.318,51.321C140.281,278.394,140.666,278.54,141.049,278.54"/>
	<path style="fill:#FFFFFF;" d="M121.758,233.009c0.383,0,0.768-0.146,1.061-0.439c0.585-0.586,0.585-1.536,0-2.122L88.67,196.3
		v4.242l32.027,32.028C120.99,232.863,121.373,233.009,121.758,233.009"/>
	<path style="fill:#FFFFFF;" d="M138.445,174.887c-0.586,0.586-0.586,1.536,0,2.121l33.67,33.671v-4.243l-31.549-31.549
		C139.98,174.301,139.031,174.301,138.445,174.887"/>
	<path style="fill:#FFFFFF;" d="M190.24,185.589l0.635,0.633c0.586-0.827,1.238-1.593,1.928-2.313l-2.563-2.562V185.589z"/>
	<path style="fill:#FFFFFF;" d="M190.24,173.242l7.139,7.137c0.947-0.517,1.943-0.936,2.972-1.269L190.24,169V173.242z"/>
	<path style="fill:#FFFFFF;" d="M172.115,138.91v-4.242L97.969,60.521h-1.596c-0.799,0-1.571,0.123-2.297,0.349L172.115,138.91z"/>
	<path style="fill:#FFFFFF;" d="M211.66,140.792c0.383,0,0.768-0.146,1.061-0.439c0.585-0.586,0.585-1.536,0-2.122l-22.481-22.479
		v4.242l20.359,20.359C210.892,140.646,211.275,140.792,211.66,140.792"/>
	<path style="fill:#FFFFFF;" d="M185.24,162.06c0-1.381,1.119-2.5,2.5-2.5h86.842v-8.125H187.74c-1.381,0-2.5-1.119-2.5-2.5V60.521
		h-8.125v88.414c0,1.381-1.119,2.5-2.5,2.5H88.67v8.125h85.945c1.381,0,2.5,1.119,2.5,2.5v142.834h8.125V162.06z"/>
	<path style="fill:#FFFFFF;" d="M84.691,323.482h193.145c7.957,0,14.431-6.474,14.431-14.432v-91.587h-12.685v79.726v0.149
		c0,7.005-5.698,12.705-12.701,12.705h-85.133c-0.287,0-0.561-0.059-0.819-0.149H96.373c-7.006,0-12.703-5.7-12.703-12.705V68.224
		c0-7.004,5.697-12.703,12.703-12.703h170.508c7.003,0,12.701,5.699,12.701,12.703v108.09c4.91,0.204,9.199,1.436,12.685,3.626
		V59.449c0-7.957-6.474-14.431-14.431-14.431H84.691c-7.959,0-14.432,6.474-14.432,14.431V309.05
		C70.259,317.008,76.732,323.482,84.691,323.482"/>
	<path style="fill:#FFFFFF;" d="M205.461,182.277c-8.051,0.062-14.59,7.581-14.619,16.762l0.002,0.126l-0.063,106.378h76.1
		c3.238,0,6.127-1.873,7.459-4.805l-0.059-82.113h-64.603c-0.889-0.008-1.684-0.446-2.154-1.162h-0.348l0.217-0.225
		c-0.01-0.018-0.02-0.035-0.028-0.054c-0.181-0.376-0.267-0.753-0.267-1.139c0-0.589,0.203-1.163,0.57-1.616
		c0.152-0.198,0.334-0.439,0.522-0.692c0.187-0.274,0.509-0.558,0.867-0.747c4.642-2.425,7.664-8.251,7.705-14.842v-0.138
		c-0.002-4.4-1.33-8.509-3.739-11.573c-1.5-1.898-3.328-3.265-5.291-3.953C206.963,182.346,206.203,182.277,205.461,182.277"/>
	<path style="fill:#FFFFFF;" d="M298.24,200.264c-0.002-5.848-1.664-10.767-4.81-14.226l0.335-0.306v-0.002l-0.337,0.306
		c-3.487-3.83-8.633-5.773-15.297-5.775l-63.989-0.003c1.069,0.858,2.053,1.86,2.938,2.99c3.123,3.974,4.844,9.223,4.846,14.778
		c-0.01,5.904-1.965,11.465-5.393,15.437h75.25C295.949,209.799,298.242,205.117,298.24,200.264"/>
</g>
</svg>
