<?xml version="1.0" encoding="iso-8859-1"?>
<!-- Generator: Adobe Illustrator 25.4.1, SVG Export Plug-In . SVG Version: 6.00 Build 0)  -->
<svg version="1.1" id="Calque_1" xmlns="http://www.w3.org/2000/svg" xmlns:xlink="http://www.w3.org/1999/xlink" x="0px" y="0px"
	 viewBox="0 0 368.5 368.5" style="enable-background:new 0 0 368.5 368.5;" xml:space="preserve">
<g>
	<path style="fill:#FFFFFF;" d="M42.26,308.326c0,5.535,4.498,10.037,10.033,10.037h263.395c5.535,0,10.035-4.502,10.035-10.037
		V265.84H42.26V308.326z M282.149,278.422c6.295,0,11.4,5.105,11.4,11.4c0,6.301-5.105,11.401-11.4,11.401
		c-6.295,0-11.399-5.1-11.399-11.401C270.75,283.527,275.854,278.422,282.149,278.422 M243.628,278.422
		c6.295,0,11.402,5.105,11.402,11.4c0,6.301-5.107,11.401-11.402,11.401c-6.29,0-11.401-5.1-11.401-11.401
		C232.227,283.527,237.338,278.422,243.628,278.422 M205.11,278.422c6.295,0,11.4,5.105,11.4,11.4c0,6.301-5.105,11.401-11.4,11.401
		c-6.295,0-11.399-5.1-11.399-11.401C193.711,283.527,198.815,278.422,205.11,278.422"/>
	<path style="fill:#FFFFFF;" d="M245.674,233.112c45.341-5.573,80.565-44.319,80.565-91.142c0-50.637-41.196-91.833-91.833-91.833
		c-30.814,0-58.131,15.257-74.798,38.612h-27.264c-5.535,0-10.033,4.503-10.033,10.036v160.248h123.363V233.112z M156.484,144.796
		h10v8h-10V144.796z M154.484,152.796h-4.196c-0.337-2.632-0.553-5.299-0.643-8h4.839V152.796z M168.484,144.796h10v8h-10V144.796z
		 M180.484,144.796h10v8h-10V144.796z M192.484,144.796h10v8h-10V144.796z M204.484,144.796h10v8h-10V144.796z M216.484,144.796h10
		v8h-10V144.796z M228.484,144.796h10v8h-10V144.796z M240.484,144.796h11v8h-11V144.796z M253.484,144.796h9.5v8h-9.5V144.796z
		 M262.984,142.796h-9.5v-7h9.5V142.796z M251.484,142.796h-11v-7h11V142.796z M238.484,142.796h-10v-7h10V142.796z
		 M226.484,142.796h-10v-7h10V142.796z M214.484,142.796h-10v-7h10V142.796z M202.484,142.796h-10v-7h10V142.796z M190.484,142.796
		h-10v-7h10V142.796z M178.484,142.796h-10v-7h10V142.796z M166.484,142.796h-10v-7h10V142.796z M154.484,142.796h-4.89
		c-0.002-0.276-0.021-0.549-0.021-0.826c0-2.078,0.102-4.132,0.249-6.174h4.662V142.796z M154.484,154.796v7.255h-2.489
		c-0.581-2.383-1.078-4.799-1.452-7.255H154.484z M156.484,154.796h10v7.254h-10V154.796z M168.484,154.796h10v7.254h-10V154.796z
		 M180.484,154.796h10v7.254h-10V154.796z M192.484,154.796h10v7.254h-10V154.796z M204.484,154.796h10v7.254h-10V154.796z
		 M216.484,154.796h10v7.254h-10V154.796z M228.484,154.796h10v7.254h-10V154.796z M240.484,154.796h11v7.254h-11V154.796z
		 M253.484,154.796h9.5v2.436c-1.376,2.846-4.284,4.819-7.65,4.819h-1.85V154.796z M262.984,133.796h-9.5v-6.095
		c1.711-0.443,3.398-0.929,5.027-1.462c1.561-0.512,3.04-1.075,4.473-1.657V133.796z M251.484,133.796h-11v-3.513
		c3.521-0.519,7.291-1.204,11-2.084V133.796z M238.484,133.796h-10v-2.252c2.629-0.149,6.116-0.462,10-0.98V133.796z
		 M226.484,133.796h-10v-2.146h8.813c0.35,0,0.748-0.006,1.187-0.019V133.796z M214.484,133.796h-10v-2.146h10V133.796z
		 M202.484,133.796h-10v-2.146h10V133.796z M190.484,133.796h-10v-2.146h10V133.796z M178.484,133.796h-10v-2.146h10V133.796z
		 M166.484,133.796h-10v-2.146h10V133.796z M154.484,133.796h-4.509c0.069-0.72,0.162-1.431,0.249-2.146h4.26V133.796z
		 M255.334,169.051c8.547,0,15.5-6.954,15.5-15.5v-32.647c0-0.028-0.008-0.054-0.008-0.082c3.378-1.888,6.164-3.798,8.305-5.437
		v61.314H157.038c-1.122-2.489-2.126-5.04-3.007-7.648H255.334z M186.608,71.33c1.479,0,2.682,1.203,2.682,2.683
		c0,1.48-1.203,2.685-2.682,2.685c-1.48,0-2.683-1.205-2.683-2.685C183.925,72.533,185.128,71.33,186.608,71.33 M158.586,109.013
		c0-1.48,1.204-2.683,2.684-2.683c1.478,0,2.681,1.203,2.681,2.683c0,1.48-1.203,2.685-2.681,2.685
		C159.79,111.698,158.586,110.493,158.586,109.013 M176.586,83.013c0-1.48,1.204-2.683,2.684-2.683c1.478,0,2.681,1.203,2.681,2.683
		c0,1.48-1.203,2.685-2.681,2.685C177.79,85.698,176.586,84.493,176.586,83.013 M187.925,83.013c0-1.48,1.203-2.683,2.683-2.683
		c1.479,0,2.682,1.203,2.682,2.683c0,1.48-1.203,2.685-2.682,2.685C189.128,85.698,187.925,84.493,187.925,83.013 M208.628,83.013
		c0,1.48-1.203,2.685-2.683,2.685c-1.479,0-2.682-1.205-2.682-2.685c0-1.48,1.203-2.683,2.682-2.683
		C207.425,80.33,208.628,81.533,208.628,83.013 M206.263,66.013c0-1.48,1.203-2.683,2.682-2.683c1.48,0,2.683,1.203,2.683,2.683
		c0,1.48-1.203,2.685-2.683,2.685C207.466,68.698,206.263,67.493,206.263,66.013 M212.285,88.33c1.479,0,2.682,1.203,2.682,2.683
		c0,1.48-1.203,2.685-2.682,2.685c-1.479,0-2.683-1.205-2.683-2.685C209.602,89.533,210.806,88.33,212.285,88.33 M215.602,74.013
		c0-1.48,1.204-2.683,2.683-2.683c1.479,0,2.682,1.203,2.682,2.683c0,1.48-1.203,2.685-2.682,2.685
		C216.806,76.698,215.602,75.493,215.602,74.013 M223.602,83.013c0-1.48,1.204-2.683,2.683-2.683s2.682,1.203,2.682,2.683
		c0,1.48-1.203,2.685-2.682,2.685S223.602,84.493,223.602,83.013 M229.602,66.013c0-1.48,1.204-2.683,2.683-2.683
		s2.682,1.203,2.682,2.683c0,1.48-1.203,2.685-2.682,2.685S229.602,67.493,229.602,66.013 M219.967,101.013
		c0,1.48-1.203,2.685-2.682,2.685c-1.479,0-2.683-1.205-2.683-2.685c0-1.48,1.204-2.683,2.683-2.683
		C218.764,98.33,219.967,99.533,219.967,101.013 M205.967,109.013c0,1.48-1.203,2.685-2.682,2.685c-1.479,0-2.683-1.205-2.683-2.685
		c0-1.48,1.204-2.683,2.683-2.683C204.764,106.33,205.967,107.533,205.967,109.013 M198.945,76.698
		c-1.479,0-2.682-1.205-2.682-2.685c0-1.48,1.203-2.683,2.682-2.683c1.48,0,2.683,1.203,2.683,2.683
		C201.628,75.493,200.425,76.698,198.945,76.698 M197.945,88.33c1.48,0,2.683,1.203,2.683,2.683c0,1.48-1.203,2.685-2.683,2.685
		c-1.479,0-2.682-1.205-2.682-2.685C195.263,89.533,196.466,88.33,197.945,88.33 M197.623,100.853
		c0.085,1.482-1.046,2.753-2.519,2.84c-0.039,0.002-0.118,0.004-0.157,0.004c-1.418,0-2.595-1.108-2.679-2.524
		c-0.085-1.481,1.047-2.752,2.522-2.838c0.039-0.002,0.116-0.004,0.155-0.004C196.362,98.331,197.539,99.439,197.623,100.853
		 M188.628,109.013c0,1.48-1.203,2.685-2.683,2.685c-1.479,0-2.682-1.205-2.682-2.685c0-1.48,1.203-2.683,2.682-2.683
		C187.425,106.33,188.628,107.533,188.628,109.013 M187.29,91.013c0,1.48-1.203,2.685-2.682,2.685c-1.48,0-2.683-1.205-2.683-2.685
		c0-1.48,1.203-2.683,2.683-2.683C186.087,88.33,187.29,89.533,187.29,91.013 M181.29,101.013c0,1.48-1.203,2.685-2.682,2.685
		c-1.48,0-2.683-1.205-2.683-2.685c0-1.48,1.203-2.683,2.683-2.683C180.087,98.33,181.29,99.533,181.29,101.013 M175.951,91.013
		c0,1.48-1.203,2.685-2.681,2.685c-1.48,0-2.684-1.205-2.684-2.685c0-1.48,1.204-2.683,2.684-2.683
		C174.748,88.33,175.951,89.533,175.951,91.013 M175.29,109.013c0,1.48-1.203,2.685-2.682,2.685c-1.48,0-2.683-1.205-2.683-2.685
		c0-1.48,1.203-2.683,2.683-2.683C174.087,106.33,175.29,107.533,175.29,109.013 M169.951,101.013c0,1.48-1.203,2.685-2.681,2.685
		c-1.48,0-2.684-1.205-2.684-2.685c0-1.48,1.204-2.683,2.684-2.683C168.748,98.33,169.951,99.533,169.951,101.013 M152.07,121.569
		h56.736c0.916,0,1.92,0.034,3.004,0.071c1.303,0.044,2.78,0.095,4.353,0.095c7.144,0,16.744-0.949,27.674-8.348
		c10.349-7.006,10.983-19.666,10.128-27.775l25.166,22.884v0.413c-2.155,1.914-6.575,5.451-12.881,8.683
		c-0.348,0.114-0.674,0.274-0.964,0.484c-2.51,1.236-5.284,2.413-8.332,3.412c-11.79,3.862-26.677,5.162-31.657,5.162h-74.311
		C151.299,124.939,151.654,123.242,152.07,121.569 M160.59,183.699h118.541V194.2h-111.5
		C165.034,190.887,162.679,187.38,160.59,183.699 M282.631,201.2c1.933,0,3.5-1.567,3.5-3.5v-17.501
		c0-0.152-0.025-0.297-0.045-0.444c0.02-0.146,0.045-0.291,0.045-0.443V74.799c20.115,15.525,33.108,39.853,33.108,67.171
		c0,46.778-38.055,84.834-84.833,84.834c-23.75,0-45.238-9.823-60.652-25.604H282.631z"/>
	<path style="fill:#FFFFFF;" d="M204.628,83.013c0,0.726,0.591,1.317,1.317,1.317c0.727,0,1.318-0.591,1.318-1.317
		c0-0.725-0.591-1.315-1.318-1.315C205.219,81.698,204.628,82.288,204.628,83.013 M206.628,83.013c0,0.378-0.306,0.685-0.683,0.685
		c-0.379,0-0.682-0.307-0.682-0.685c0-0.376,0.303-0.683,0.682-0.683C206.322,82.33,206.628,82.637,206.628,83.013"/>
	<path style="fill:#FFFFFF;" d="M210.263,66.013c0-0.725-0.591-1.315-1.317-1.315c-0.727,0-1.318,0.59-1.318,1.315
		c0,0.726,0.591,1.317,1.318,1.317C209.672,67.33,210.263,66.739,210.263,66.013 M208.263,66.013c0-0.376,0.304-0.683,0.683-0.683
		c0.377,0,0.682,0.307,0.682,0.683c0,0.378-0.305,0.685-0.682,0.685C208.567,66.698,208.263,66.391,208.263,66.013"/>
	<path style="fill:#FFFFFF;" d="M185.29,74.013c0,0.726,0.591,1.317,1.317,1.317c0.727,0,1.318-0.591,1.318-1.317
		c0-0.725-0.591-1.315-1.318-1.315C185.881,72.698,185.29,73.288,185.29,74.013 M187.29,74.013c0,0.378-0.306,0.685-0.683,0.685
		c-0.378,0-0.682-0.307-0.682-0.685c0-0.376,0.304-0.683,0.682-0.683C186.984,73.33,187.29,73.637,187.29,74.013"/>
	<path style="fill:#FFFFFF;" d="M233.602,66.013c0-0.725-0.591-1.315-1.316-1.315c-0.727,0-1.319,0.59-1.319,1.315
		c0,0.726,0.592,1.317,1.319,1.317C233.011,67.33,233.602,66.739,233.602,66.013 M231.602,66.013c0-0.376,0.305-0.683,0.684-0.683
		c0.377,0,0.681,0.307,0.681,0.683c0,0.378-0.304,0.685-0.681,0.685C231.907,66.698,231.602,66.391,231.602,66.013"/>
	<path style="fill:#FFFFFF;" d="M198.946,72.698c-0.727,0-1.317,0.59-1.317,1.315c0,0.726,0.59,1.317,1.317,1.317
		c0.727,0,1.317-0.591,1.317-1.317C200.263,73.288,199.673,72.698,198.946,72.698 M198.946,74.698c-0.379,0-0.683-0.307-0.683-0.685
		c0-0.376,0.304-0.683,0.683-0.683c0.377,0,0.683,0.307,0.683,0.683C199.629,74.391,199.323,74.698,198.946,74.698"/>
	<path style="fill:#FFFFFF;" d="M180.587,83.013c0-0.725-0.591-1.315-1.316-1.315c-0.727,0-1.319,0.59-1.319,1.315
		c0,0.726,0.592,1.317,1.319,1.317C179.995,84.33,180.587,83.739,180.587,83.013 M178.587,83.013c0-0.376,0.305-0.683,0.684-0.683
		c0.377,0,0.681,0.307,0.681,0.683c0,0.378-0.304,0.685-0.681,0.685C178.891,83.698,178.587,83.391,178.587,83.013"/>
	<path style="fill:#FFFFFF;" d="M191.925,83.013c0-0.725-0.591-1.315-1.317-1.315c-0.727,0-1.318,0.59-1.318,1.315
		c0,0.726,0.591,1.317,1.318,1.317C191.334,84.33,191.925,83.739,191.925,83.013 M189.925,83.013c0-0.376,0.304-0.683,0.683-0.683
		c0.377,0,0.682,0.307,0.682,0.683c0,0.378-0.305,0.685-0.682,0.685C190.229,83.698,189.925,83.391,189.925,83.013"/>
	<path style="fill:#FFFFFF;" d="M219.602,74.013c0-0.725-0.591-1.315-1.316-1.315c-0.727,0-1.319,0.59-1.319,1.315
		c0,0.726,0.592,1.317,1.319,1.317C219.011,75.33,219.602,74.739,219.602,74.013 M217.602,74.013c0-0.376,0.305-0.683,0.684-0.683
		c0.377,0,0.681,0.307,0.681,0.683c0,0.378-0.304,0.685-0.681,0.685C217.907,74.698,217.602,74.391,217.602,74.013"/>
	<path style="fill:#FFFFFF;" d="M227.602,83.013c0-0.725-0.591-1.315-1.316-1.315c-0.727,0-1.319,0.59-1.319,1.315
		c0,0.726,0.592,1.317,1.319,1.317C227.011,84.33,227.602,83.739,227.602,83.013 M225.602,83.013c0-0.376,0.305-0.683,0.684-0.683
		c0.377,0,0.681,0.307,0.681,0.683c0,0.378-0.304,0.685-0.681,0.685C225.907,83.698,225.602,83.391,225.602,83.013"/>
	<path style="fill:#FFFFFF;" d="M162.587,109.013c0-0.725-0.591-1.315-1.316-1.315c-0.727,0-1.319,0.59-1.319,1.315
		c0,0.726,0.592,1.317,1.319,1.317C161.995,110.33,162.587,109.739,162.587,109.013 M160.587,109.013
		c0-0.376,0.305-0.683,0.684-0.683c0.377,0,0.681,0.307,0.681,0.683c0,0.378-0.304,0.685-0.681,0.685
		C160.891,109.698,160.587,109.391,160.587,109.013"/>
	<path style="fill:#FFFFFF;" d="M177.29,101.013c0,0.726,0.591,1.317,1.317,1.317c0.727,0,1.318-0.591,1.318-1.317
		c0-0.725-0.591-1.315-1.318-1.315C177.881,99.698,177.29,100.288,177.29,101.013 M179.29,101.013c0,0.378-0.306,0.685-0.683,0.685
		c-0.378,0-0.682-0.307-0.682-0.685c0-0.376,0.304-0.683,0.682-0.683C178.984,100.33,179.29,100.637,179.29,101.013"/>
	<path style="fill:#FFFFFF;" d="M195.628,100.973c0.021,0.377-0.266,0.701-0.641,0.723c-0.013,0.001-0.025-0.005-0.039-0.005v0.006
		v-0.006c-0.361-0.002-0.662-0.275-0.683-0.637c-0.022-0.373,0.259-0.694,0.634-0.72l-0.022-0.635
		c-0.731,0.043-1.287,0.665-1.246,1.388c0.042,0.7,0.619,1.244,1.315,1.244c0.801-0.044,1.357-0.668,1.316-1.391
		c-0.042-0.699-0.619-1.243-1.314-1.243v0.641C195.304,100.34,195.606,100.613,195.628,100.973"/>
	<path style="fill:#FFFFFF;" d="M184.628,109.013c0,0.726,0.591,1.317,1.317,1.317c0.727,0,1.318-0.591,1.318-1.317
		c0-0.725-0.591-1.315-1.318-1.315C185.219,107.698,184.628,108.288,184.628,109.013 M186.628,109.013
		c0,0.378-0.306,0.685-0.683,0.685c-0.379,0-0.682-0.307-0.682-0.685c0-0.376,0.303-0.683,0.682-0.683
		C186.322,108.33,186.628,108.637,186.628,109.013"/>
	<path style="fill:#FFFFFF;" d="M197.946,89.698c-0.727,0-1.317,0.59-1.317,1.315c0,0.726,0.59,1.317,1.317,1.317
		c0.727,0,1.317-0.591,1.317-1.317C199.263,90.288,198.673,89.698,197.946,89.698 M197.946,91.698c-0.379,0-0.683-0.307-0.683-0.685
		c0-0.376,0.304-0.683,0.683-0.683c0.377,0,0.683,0.307,0.683,0.683C198.629,91.391,198.323,91.698,197.946,91.698"/>
	<path style="fill:#FFFFFF;" d="M172.608,107.698c-0.727,0-1.317,0.59-1.317,1.315c0,0.726,0.59,1.317,1.317,1.317
		c0.727,0,1.317-0.591,1.317-1.317C173.925,108.288,173.335,107.698,172.608,107.698 M172.608,109.698
		c-0.379,0-0.683-0.307-0.683-0.685c0-0.376,0.304-0.683,0.683-0.683c0.377,0,0.683,0.307,0.683,0.683
		C173.291,109.391,172.985,109.698,172.608,109.698"/>
	<path style="fill:#FFFFFF;" d="M165.952,101.013c0,0.726,0.592,1.317,1.318,1.317s1.317-0.591,1.317-1.317
		c0-0.725-0.591-1.315-1.317-1.315S165.952,100.288,165.952,101.013 M167.952,101.013c0,0.378-0.305,0.685-0.682,0.685
		c-0.379,0-0.683-0.307-0.683-0.685c0-0.376,0.304-0.683,0.683-0.683C167.647,100.33,167.952,100.637,167.952,101.013"/>
	<path style="fill:#FFFFFF;" d="M201.967,109.013c0,0.726,0.592,1.317,1.318,1.317s1.317-0.591,1.317-1.317
		c0-0.725-0.591-1.315-1.317-1.315S201.967,108.288,201.967,109.013 M203.967,109.013c0,0.378-0.305,0.685-0.682,0.685
		c-0.379,0-0.683-0.307-0.683-0.685c0-0.376,0.304-0.683,0.683-0.683C203.662,108.33,203.967,108.637,203.967,109.013"/>
	<path style="fill:#FFFFFF;" d="M173.27,89.698c-0.727,0-1.318,0.59-1.318,1.315c0,0.726,0.591,1.317,1.318,1.317
		c0.726,0,1.316-0.591,1.316-1.317C174.586,90.288,173.996,89.698,173.27,89.698 M173.27,91.698c-0.379,0-0.684-0.307-0.684-0.685
		c0-0.376,0.305-0.683,0.684-0.683c0.377,0,0.682,0.307,0.682,0.683C173.952,91.391,173.647,91.698,173.27,91.698"/>
	<path style="fill:#FFFFFF;" d="M184.608,89.698c-0.727,0-1.317,0.59-1.317,1.315c0,0.726,0.59,1.317,1.317,1.317
		c0.727,0,1.317-0.591,1.317-1.317C185.925,90.288,185.335,89.698,184.608,89.698 M184.608,91.698c-0.379,0-0.683-0.307-0.683-0.685
		c0-0.376,0.304-0.683,0.683-0.683c0.377,0,0.683,0.307,0.683,0.683C185.291,91.391,184.985,91.698,184.608,91.698"/>
	<path style="fill:#FFFFFF;" d="M212.286,89.698c-0.727,0-1.318,0.59-1.318,1.315c0,0.726,0.591,1.317,1.318,1.317
		c0.726,0,1.316-0.591,1.316-1.317C213.602,90.288,213.012,89.698,212.286,89.698 M212.286,91.698c-0.379,0-0.684-0.307-0.684-0.685
		c0-0.376,0.305-0.683,0.684-0.683c0.377,0,0.682,0.307,0.682,0.683C212.968,91.391,212.663,91.698,212.286,91.698"/>
	<path style="fill:#FFFFFF;" d="M215.967,101.013c0,0.726,0.592,1.317,1.318,1.317s1.317-0.591,1.317-1.317
		c0-0.725-0.591-1.315-1.317-1.315S215.967,100.288,215.967,101.013 M217.967,101.013c0,0.378-0.305,0.685-0.682,0.685
		c-0.379,0-0.683-0.307-0.683-0.685c0-0.376,0.304-0.683,0.683-0.683C217.662,100.33,217.967,100.637,217.967,101.013"/>
</g>
</svg>
