<?xml version="1.0" encoding="iso-8859-1"?>
<!-- Generator: Adobe Illustrator 25.4.1, SVG Export Plug-In . SVG Version: 6.00 Build 0)  -->
<svg version="1.1" id="Calque_1" xmlns="http://www.w3.org/2000/svg" xmlns:xlink="http://www.w3.org/1999/xlink" x="0px" y="0px"
	 viewBox="0 0 368.5 368.5" style="enable-background:new 0 0 368.5 368.5;" xml:space="preserve">
<g>
	<path style="fill:#FFFFFF;" d="M304.463,145.211l-24.246-6.716v7.123l22.412,6.208c2.597,0.719,5.19,1.1,7.501,1.1
		c3.148,0,4.85-0.727,5.266-1.127C315.116,150.65,311.621,147.194,304.463,145.211"/>
	<polygon style="fill:#FFFFFF;" points="264.439,85.569 213.166,53.476 207.58,53.466 259.581,85.552 	"/>
	<path style="fill:#FFFFFF;" d="M173.128,262.904c0.087,0.502,0.187,0.998,0.291,1.493c0.036,0.168,0.069,0.338,0.107,0.505
		c0.084,0.376,0.177,0.746,0.27,1.117c0.081,0.318,0.161,0.635,0.249,0.948c0.063,0.227,0.129,0.452,0.195,0.675
		c0.149,0.499,0.303,0.995,0.469,1.486c0.015,0.046,0.031,0.09,0.047,0.136c4.743,13.788,16.545,24.319,31.069,27.255
		c0.036,0.008,0.073,0.015,0.11,0.023c0.574,0.114,1.154,0.214,1.737,0.304c0.112,0.017,0.224,0.037,0.337,0.053
		c0.515,0.075,1.034,0.137,1.554,0.193c0.162,0.018,0.322,0.04,0.485,0.055c0.498,0.048,1,0.082,1.502,0.111
		c0.172,0.011,0.343,0.028,0.516,0.036c0.667,0.031,1.336,0.049,2.01,0.049c22.923,0,41.573-18.648,41.573-41.571V91.352
		L201.13,57.713v51.48l21.103,5.847c1.858-1.611,3.991-2.511,6.297-2.511c3.949,0,7.394,2.631,9.807,6.972l0.064,0.017l0.37,0.806
		c1.769,3.524,2.896,8.041,3.133,13.131c0.002,0.037,0.003,0.075,0.005,0.113c0.028,0.629,0.046,1.266,0.046,1.912
		c0,0.891-0.03,1.765-0.082,2.624l-0.212,3.968l-0.219-0.061c-1.567,9.7-6.597,16.42-12.912,16.42
		c-7.653,0-13.424-9.867-13.424-22.951c0-0.256,0.006-0.509,0.01-0.762l-13.986-3.875v82.13c0,19.571-11.636,36.47-28.35,44.157
		c0.026,1.894,0.129,3.813,0.341,5.727C173.123,262.873,173.125,262.888,173.128,262.904"/>
	<path style="fill:#FFFFFF;" d="M149.121,262.646c-0.089-0.945-0.156-1.895-0.206-2.85c-0.01-0.197-0.017-0.394-0.025-0.591
		c-0.04-0.936-0.067-1.874-0.068-2.818c0-0.018-0.001-0.036-0.001-0.053v-23.228c-0.013-9.294-0.044-25.671-5.664-41.57
		c-3.743-10.586-9.975-20.953-20.329-28.885c-1.488-1.141-3.045-2.239-4.708-3.272c-0.014-0.008-0.028-0.016-0.042-0.025
		c-0.325-0.201-0.643-0.385-0.961-0.568c-0.249-0.142-0.501-0.283-0.779-0.433c-2.894-1.56-5.488-2.362-7.722-2.362
		c-2.331,0-4.325,0.881-6.094,2.691c-7.238,7.41-8.388,27.526-8.221,34.653l0.001,20.2c0,18.709,9.037,36.455,24.178,47.482
		l37.689,25.583c-3.818-7.328-6.202-15.341-7.022-23.71C149.139,262.809,149.129,262.728,149.121,262.646"/>
	<path style="fill:#FFFFFF;" d="M262.649,255.772c0,26.782-21.789,48.571-48.572,48.571c-23.77,0-43.903-16.99-47.873-40.398
		l-0.027-0.194c-0.278-2.478-0.419-4.973-0.419-7.418v-23.228c-0.005-3.144-0.038-6.928-0.247-11.103l-0.004-0.175v-1.195
		l-0.402-4.493c-2.43-27.152-12.259-45.72-30.049-56.761c-3.588-2.226-6.76-3.367-9.427-3.388
		c30.11,21.775,30.17,61.704,30.192,77.11v23.233c0,7.471,1.386,14.744,4.121,21.626l0.236,0.571c0.793,1.94,1.707,3.87,2.718,5.734
		l0.133,0.242c0.604,1.105,1.273,2.233,1.98,3.34l0.316,0.491c0.256,0.392,0.522,0.786,0.791,1.179l0.358,0.518
		c0.304,0.433,0.601,0.841,0.901,1.245c0.178,0.241,0.355,0.474,0.534,0.708c0.182,0.238,0.362,0.465,0.541,0.693
		c0.383,0.484,0.757,0.942,1.137,1.394l0.405,0.481c0.248,0.288,0.507,0.582,0.769,0.875l0.352,0.389
		c0.885,0.973,1.81,1.924,2.742,2.82c10.99,10.572,25.431,16.394,40.663,16.394c32.367,0,58.699-26.333,58.699-58.7V92.599
		l-10.568-0.036V255.772z"/>
	<path style="fill:#FFFFFF;" d="M228.53,151.432c0.566,0,1.198-0.329,1.837-0.92c-1.69-3.445-2.757-7.797-3.053-12.414l-5.178-1.436
		C222.438,145.584,226.08,151.432,228.53,151.432"/>
	<path style="fill:#FFFFFF;" d="M234.631,140.124l-0.084-0.023c0.015,0.11,0.029,0.221,0.045,0.33
		C234.607,140.331,234.617,140.225,234.631,140.124"/>
	<path style="fill:#FFFFFF;" d="M233.319,125.375L104.204,89.607c-0.263,1.326-0.578,2.657-0.947,3.99
		c-0.249,0.895-0.523,1.775-0.813,2.645l132.418,36.682C234.659,130.18,234.131,127.594,233.319,125.375"/>
	<path style="fill:#FFFFFF;" d="M84.429,54.4c-1.238-0.343-2.525-0.517-3.826-0.517c-10.691,0-21.515,11.065-25.739,26.309
		c-4.82,17.399,0.6,34.145,12.081,37.326c1.237,0.343,2.525,0.517,3.826,0.517c10.692,0,21.516-11.064,25.739-26.307
		C101.33,74.326,95.911,57.581,84.429,54.4"/>
</g>
</svg>
