<?xml version="1.0" encoding="iso-8859-1"?>
<!-- Generator: Adobe Illustrator 25.4.1, SVG Export Plug-In . SVG Version: 6.00 Build 0)  -->
<svg version="1.1" id="Calque_1" xmlns="http://www.w3.org/2000/svg" xmlns:xlink="http://www.w3.org/1999/xlink" x="0px" y="0px"
	 viewBox="0 0 368.5 368.5" style="enable-background:new 0 0 368.5 368.5;" xml:space="preserve">
<g>
	<path style="fill:#FFFFFF;" d="M287.759,140.516v-28.743c0-0.528-0.429-0.958-0.958-0.958h-18.948c-0.53,0-0.959,0.43-0.959,0.958
		v28.743c0,0.53,0.429,0.958,0.959,0.958h18.948C287.33,141.474,287.759,141.046,287.759,140.516"/>
	<path style="fill:#FFFFFF;" d="M261.21,78.257c0-0.529-0.43-0.958-0.958-0.958h-28.743c-0.529,0-0.958,0.429-0.958,0.958v18.949
		c0,0.531,0.429,0.958,0.958,0.958h28.743c0.528,0,0.958-0.427,0.958-0.958V78.257z"/>
	<path style="fill:#FFFFFF;" d="M261.21,158.681c0-0.53-0.43-0.958-0.958-0.958h-28.743c-0.529,0-0.958,0.428-0.958,0.958v8.514
		c0,0.528,0.429,0.958,0.958,0.958h28.743c0.528,0,0.958-0.43,0.958-0.958V158.681z"/>
	<path style="fill:#FFFFFF;" d="M261.21,174.775c0-0.53-0.428-0.958-0.958-0.958h-28.743c-0.529,0-0.958,0.428-0.958,0.958v18.945
		c0,0.527,0.429,0.958,0.958,0.958h28.743c0.53,0,0.958-0.431,0.958-0.958V174.775z"/>
	<path style="fill:#FFFFFF;" d="M260.252,200.339h-28.743c-0.528,0-0.958,0.429-0.958,0.958v17.105c0,0.515-0.006,1.028-0.016,1.541
		c-0.007,0.527,0.413,0.965,0.941,0.976l28.736,0.569h0.018c0.52,0,0.947-0.415,0.958-0.937c0.014-0.717,0.022-1.432,0.022-2.149
		v-17.105C261.21,200.768,260.782,200.339,260.252,200.339"/>
	<path style="fill:#FFFFFF;" d="M226.977,241.655c-0.161,0.507,0.121,1.042,0.624,1.201l27.4,8.681
		c0.096,0.03,0.194,0.045,0.291,0.045c0.152,0,0.305-0.037,0.441-0.108c0.226-0.116,0.395-0.32,0.471-0.562
		c2.215-6.998,3.716-14.259,4.456-21.577c0.024-0.255-0.051-0.508-0.212-0.704c-0.162-0.197-0.393-0.322-0.645-0.348l-28.597-2.887
		c-0.033-0.004-0.067-0.008-0.098-0.008c-0.485,0-0.9,0.369-0.955,0.863C229.627,231.481,228.556,236.663,226.977,241.655"/>
	<path style="fill:#FFFFFF;" d="M225.714,246.986c-0.375,0-0.735,0.223-0.885,0.593c-1.991,4.85-4.496,9.517-7.438,13.872
		c-0.298,0.438-0.183,1.035,0.254,1.329l23.804,16.109c0.164,0.111,0.352,0.163,0.536,0.163c0.308,0,0.609-0.146,0.793-0.421
		c4.127-6.095,7.63-12.625,10.413-19.409c0.2-0.492-0.033-1.053-0.522-1.252l-26.591-10.913
		C225.96,247.008,225.837,246.986,225.714,246.986"/>
	<path style="fill:#FFFFFF;" d="M237.545,285.727c0.159-0.196,0.234-0.451,0.205-0.703c-0.029-0.253-0.156-0.483-0.353-0.644
		l-22.411-17.998c-0.167-0.135-0.382-0.21-0.598-0.21c-0.035,0-0.069,0.002-0.106,0.006c-0.251,0.026-0.483,0.153-0.642,0.352
		c-3.286,4.092-7.01,7.87-11.069,11.224c-0.408,0.336-0.466,0.941-0.128,1.347l18.301,22.16c0.19,0.232,0.464,0.348,0.74,0.348
		c0.214,0,0.428-0.07,0.609-0.219C227.749,296.719,232.948,291.449,237.545,285.727"/>
	<path style="fill:#FFFFFF;" d="M223.907,110.815h-18.943c-0.529,0-0.958,0.429-0.958,0.958v28.743c0,0.529,0.429,0.958,0.958,0.958
		h18.943c0.531,0,0.958-0.429,0.958-0.958v-28.743C224.865,111.244,224.438,110.815,223.907,110.815"/>
	<path style="fill:#FFFFFF;" d="M195.818,317.395c6.743-2.878,13.221-6.467,19.253-10.674c0.211-0.144,0.353-0.366,0.397-0.617
		c0.046-0.249-0.009-0.507-0.157-0.715l-16.433-23.58c-0.186-0.269-0.482-0.414-0.785-0.414c-0.192,0-0.382,0.057-0.547,0.174
		c-4.311,3.002-8.943,5.571-13.77,7.631c-0.233,0.1-0.417,0.289-0.512,0.525c-0.093,0.235-0.091,0.499,0.008,0.731l11.289,26.434
		c0.155,0.365,0.511,0.584,0.882,0.584C195.571,317.474,195.697,317.448,195.818,317.395"/>
	<path style="fill:#FFFFFF;" d="M177.481,111.773v28.743c0,0.529,0.429,0.958,0.958,0.958h18.947c0.529,0,0.958-0.429,0.958-0.958
		v-28.743c0-0.529-0.429-0.958-0.958-0.958h-18.947C177.91,110.815,177.481,111.244,177.481,111.773"/>
	<path style="fill:#FFFFFF;" d="M188.172,319.311l-9.065-27.276c-0.135-0.404-0.508-0.658-0.909-0.658
		c-0.102,0-0.201,0.018-0.303,0.048c-4.966,1.651-10.131,2.794-15.356,3.397c-0.524,0.061-0.901,0.537-0.842,1.061l3.295,28.55
		c0.055,0.488,0.469,0.849,0.95,0.849c0.035,0,0.07-0.002,0.108-0.005c7.315-0.844,14.553-2.444,21.516-4.757
		C188.066,320.353,188.339,319.811,188.172,319.311"/>
	<path style="fill:#FFFFFF;" d="M153.415,110.815c-0.605,0-1.209,0.007-1.812,0.018c-0.255,0.004-0.496,0.109-0.671,0.296
		c-0.176,0.18-0.272,0.426-0.269,0.681l0.565,28.739c0.007,0.253,0.113,0.496,0.296,0.672c0.176,0.171,0.416,0.266,0.663,0.266
		h0.019c0.397-0.009,0.794-0.015,1.221-0.015l0.193,0.002h17.238c0.53,0,0.958-0.429,0.958-0.958v-28.743
		c0-0.529-0.428-0.958-0.958-0.958H153.67H153.415z"/>
	<path style="fill:#FFFFFF;" d="M157.277,325.928c0.255-0.009,0.495-0.118,0.671-0.303c0.173-0.187,0.265-0.432,0.257-0.687
		l-0.983-28.728c-0.01-0.254-0.121-0.494-0.306-0.668c-0.179-0.164-0.409-0.258-0.652-0.258l-0.035,0.004
		c-0.864,0.03-1.732,0.041-2.606,0.041c-4.401,0-8.816-0.372-13.12-1.11c-0.053-0.009-0.107-0.013-0.161-0.013
		c-0.196,0-0.389,0.06-0.554,0.174c-0.205,0.148-0.348,0.371-0.388,0.622l-4.85,28.331c-0.092,0.52,0.259,1.016,0.782,1.106
		c6.006,1.029,12.16,1.549,18.291,1.549C154.848,325.988,156.064,325.967,157.277,325.928"/>
	<path style="fill:#FFFFFF;" d="M120.626,116.977l8.642,27.414c0.075,0.242,0.244,0.446,0.472,0.563
		c0.138,0.071,0.287,0.107,0.441,0.107c0.097,0,0.194-0.013,0.287-0.045c4.982-1.57,10.166-2.635,15.408-3.157
		c0.527-0.052,0.91-0.522,0.858-1.048l-2.853-28.6c-0.049-0.496-0.466-0.864-0.954-0.864c-0.029,0-0.063,0-0.094,0.005
		c-7.33,0.732-14.59,2.219-21.582,4.424C120.745,115.937,120.465,116.474,120.626,116.977"/>
	<path style="fill:#FFFFFF;" d="M106.039,314.915c6.593,3.256,13.543,5.837,20.654,7.67c0.079,0.023,0.159,0.032,0.24,0.032
		c0.169,0,0.337-0.043,0.487-0.131c0.218-0.129,0.377-0.34,0.441-0.587l7.178-27.834c0.132-0.514-0.177-1.033-0.689-1.166
		c-5.07-1.306-10.031-3.149-14.744-5.477c-0.136-0.067-0.282-0.099-0.424-0.099c-0.352,0-0.692,0.196-0.858,0.535l-12.722,25.775
		C105.368,314.107,105.564,314.681,106.039,314.915"/>
	<path style="fill:#FFFFFF;" d="M113.311,118.705c-0.121,0-0.243,0.021-0.36,0.073c-6.797,2.771-13.331,6.267-19.424,10.379
		c-0.439,0.295-0.554,0.892-0.259,1.329l16.075,23.827c0.184,0.274,0.486,0.421,0.793,0.421c0.187,0,0.37-0.054,0.534-0.162
		c4.358-2.938,9.028-5.435,13.878-7.416c0.49-0.199,0.724-0.758,0.525-1.252L114.198,119.3
		C114.047,118.929,113.687,118.705,113.311,118.705"/>
	<path style="fill:#FFFFFF;" d="M98.288,310.681c0.149,0.094,0.322,0.137,0.494,0.137c0.079,0,0.155-0.01,0.232-0.029
		c0.247-0.061,0.458-0.218,0.588-0.435l14.799-24.64c0.27-0.454,0.124-1.044-0.328-1.317c-4.503-2.702-8.741-5.88-12.601-9.446
		c-0.18-0.165-0.412-0.255-0.651-0.255h-0.027c-0.264,0.01-0.504,0.12-0.677,0.307l-19.499,21.119
		c-0.173,0.188-0.264,0.435-0.255,0.691c0.012,0.251,0.124,0.492,0.307,0.666C86.074,302.461,91.999,306.905,98.288,310.681"/>
	<path style="fill:#FFFFFF;" d="M87.132,134.178c-0.039-0.006-0.073-0.006-0.108-0.006c-0.216,0-0.429,0.073-0.598,0.208
		c-5.728,4.588-11.006,9.777-15.687,15.43c-0.163,0.197-0.24,0.446-0.216,0.7c0.022,0.254,0.146,0.487,0.342,0.649l22.137,18.334
		c0.179,0.147,0.393,0.22,0.612,0.22c0.274,0,0.546-0.116,0.735-0.347c3.354-4.046,7.135-7.766,11.239-11.054
		c0.414-0.33,0.479-0.934,0.15-1.346L87.772,134.53C87.613,134.331,87.383,134.204,87.132,134.178"/>
	<path style="fill:#FFFFFF;" d="M75.11,291.548h0.027c0.253,0,0.485-0.09,0.661-0.253l21.153-19.461
		c0.188-0.172,0.297-0.412,0.306-0.664c0.012-0.255-0.078-0.502-0.248-0.689c-3.561-3.866-6.734-8.114-9.437-12.62
		c-0.181-0.303-0.497-0.466-0.823-0.466c-0.168,0-0.337,0.043-0.493,0.135l-24.655,14.774c-0.218,0.131-0.375,0.34-0.437,0.586
		c-0.063,0.248-0.022,0.51,0.108,0.726c3.767,6.285,8.197,12.215,13.174,17.623C74.618,291.427,74.857,291.539,75.11,291.548"/>
	<path style="fill:#FFFFFF;" d="M66.183,156.415c-0.302,0-0.601,0.144-0.785,0.41c-4.213,6.025-7.814,12.502-10.704,19.249
		c-0.208,0.486,0.015,1.05,0.503,1.256l26.418,11.318c0.122,0.054,0.249,0.078,0.377,0.078c0.37,0,0.727-0.219,0.88-0.58
		c2.065-4.816,4.639-9.446,7.653-13.757c0.303-0.435,0.197-1.031-0.236-1.334l-23.56-16.468
		C66.563,156.471,66.371,156.415,66.183,156.415"/>
	<path style="fill:#FFFFFF;" d="M49.512,244.475c-0.129,0.215-0.165,0.479-0.104,0.726c1.828,7.12,4.399,14.076,7.647,20.67
		c0.168,0.337,0.506,0.534,0.861,0.534c0.144,0,0.285-0.03,0.422-0.1l25.785-12.694c0.475-0.234,0.672-0.807,0.438-1.282
		c-2.317-4.71-4.152-9.669-5.456-14.748c-0.111-0.432-0.5-0.718-0.925-0.718c-0.081,0-0.161,0.009-0.24,0.03l-27.84,7.141
		C49.852,244.097,49.642,244.254,49.512,244.475"/>
	<path style="fill:#FFFFFF;" d="M80.027,192.824l-27.263-9.102c-0.097-0.032-0.202-0.048-0.302-0.048
		c-0.402,0-0.774,0.252-0.906,0.656c-2.328,6.961-3.938,14.202-4.789,21.511c-0.028,0.253,0.043,0.509,0.2,0.705
		c0.158,0.202,0.388,0.33,0.642,0.359l28.548,3.322c0.038,0.006,0.075,0.007,0.114,0.007c0.479,0,0.893-0.357,0.95-0.847
		c0.605-5.217,1.755-10.38,3.413-15.349C80.801,193.535,80.528,192.992,80.027,192.824"/>
	<path style="fill:#FFFFFF;" d="M48.513,237.364c0.053,0,0.107-0.004,0.163-0.015l28.335-4.82c0.25-0.041,0.473-0.184,0.618-0.39
		c0.148-0.207,0.205-0.464,0.165-0.714c-0.88-5.158-1.232-10.453-1.048-15.739c0.019-0.528-0.397-0.972-0.924-0.991l-28.724-0.996
		h-0.033c-0.517,0-0.94,0.407-0.959,0.923c-0.259,7.341,0.235,14.725,1.464,21.945C47.65,237.033,48.056,237.364,48.513,237.364"/>
	<path style="fill:#FFFFFF;" d="M261.21,111.773c0-0.529-0.428-0.958-0.958-0.958h-28.743c-0.529,0-0.958,0.429-0.958,0.958v28.894
		c0,0.526,0.429,0.958,0.958,0.958h28.743c0.53,0,0.958-0.432,0.958-0.958V111.773z"/>
	<path style="fill:#FFFFFF;" d="M322.505,104.109c0-0.53-0.429-0.958-0.958-0.958h-9.076c-3.858,0-7.001,3.142-7.001,7.002v31.988
		c0,3.86,3.143,6.998,7.001,6.998h9.076c0.529,0,0.958-0.428,0.958-0.958V104.109z"/>
	<path style="fill:#FFFFFF;" d="M296.615,110.815c-1.782,0-3.227,1.45-3.227,3.226v24.201c0,1.787,1.445,3.229,3.227,3.229
		c1.781,0,3.227-1.442,3.227-3.229v-24.201C299.842,112.265,298.396,110.815,296.615,110.815"/>
	<path style="fill:#FFFFFF;" d="M267.796,42.523h-44.072c-0.533,0-0.958,0.429-0.958,0.958v9.072c0,3.861,3.139,7,6.998,7h31.987
		c3.863,0,7.003-3.139,7.003-7v-9.072C268.754,42.952,268.323,42.523,267.796,42.523"/>
	<path style="fill:#FFFFFF;" d="M257.86,65.182h-24.203c-1.782,0-3.228,1.445-3.228,3.228c0,1.78,1.446,3.23,3.228,3.23h24.203
		c1.781,0,3.224-1.45,3.224-3.23C261.084,66.627,259.641,65.182,257.86,65.182"/>
</g>
</svg>
