<?xml version="1.0" encoding="iso-8859-1"?>
<!-- Generator: Adobe Illustrator 25.4.1, SVG Export Plug-In . SVG Version: 6.00 Build 0)  -->
<svg version="1.1" id="Calque_1" xmlns="http://www.w3.org/2000/svg" xmlns:xlink="http://www.w3.org/1999/xlink" x="0px" y="0px"
	 viewBox="0 0 368.5 368.5" style="enable-background:new 0 0 368.5 368.5;" xml:space="preserve">
<g>
	<path style="fill:#FFFFFF;" d="M269.621,119.282c2.617,1.672,4.284,4.291,4.284,7.2c0,1.386-0.389,2.702-1.067,3.885l12.213-3.818
		c-2.769-1.645-4.558-4.328-4.558-7.399c0-1.268,0.332-2.455,0.882-3.545L269.621,119.282z"/>
	<path style="fill:#FFFFFF;" d="M288.415,235.06l-21.395,6.694c-0.053,0.017-0.106,0.014-0.16,0.024v0.296l11.062,3.484
		l10.493-3.456V235.06z"/>
	<path style="fill:#FFFFFF;" d="M269.621,172.049c2.617,1.671,4.284,4.286,4.284,7.195c0,1.389-0.391,2.709-1.071,3.895l12.22-3.82
		c-2.77-1.646-4.561-4.329-4.561-7.402c0-1.267,0.334-2.456,0.882-3.546L269.621,172.049z"/>
	<path style="fill:#FFFFFF;" d="M269.621,224.818c2.617,1.67,4.284,4.285,4.284,7.192c0,1.389-0.389,2.709-1.071,3.895l12.213-3.82
		c-2.767-1.644-4.554-4.325-4.554-7.396c0-1.268,0.332-2.457,0.882-3.548L269.621,224.818z"/>
	<path style="fill:#FFFFFF;" d="M269.621,145.667c2.617,1.672,4.284,4.288,4.284,7.198c0,1.386-0.389,2.704-1.069,3.888
		l12.215-3.821c-2.769-1.645-4.558-4.327-4.558-7.397c0-1.267,0.332-2.456,0.882-3.546L269.621,145.667z"/>
	<polygon style="fill:#FFFFFF;" points="266.86,89.73 288.415,82.992 288.415,42.523 266.86,42.523 	"/>
	<path style="fill:#FFFFFF;" d="M267.02,215.372c-0.052,0.016-0.105,0.012-0.16,0.026v6.253l21.555-6.742v-6.232L267.02,215.372z"/>
	<path style="fill:#FFFFFF;" d="M269.618,198.432c2.619,1.672,4.287,4.291,4.287,7.2c0,1.389-0.388,2.705-1.07,3.891l12.217-3.821
		c-2.769-1.645-4.558-4.329-4.558-7.401c0-1.268,0.334-2.457,0.882-3.547L269.618,198.432z"/>
	<path style="fill:#FFFFFF;" d="M269.618,92.897c2.619,1.672,4.287,4.289,4.287,7.199c0,1.388-0.388,2.705-1.068,3.889l12.218-3.819
		c-2.77-1.645-4.561-4.328-4.561-7.4c0-1.266,0.332-2.453,0.882-3.542L269.618,92.897z"/>
	<path style="fill:#FFFFFF;" d="M266.86,189.011v6.255l21.555-6.743v-6.226l-21.395,6.69
		C266.967,189.003,266.914,189,266.86,189.011"/>
	<path style="fill:#FFFFFF;" d="M267.02,109.833c-0.052,0.016-0.105,0.012-0.16,0.024v6.26l21.555-6.744v-6.23L267.02,109.833z"/>
	<path style="fill:#FFFFFF;" d="M267.02,162.603c-0.052,0.017-0.105,0.012-0.16,0.024v6.257l21.555-6.744v-6.231L267.02,162.603z"/>
	<path style="fill:#FFFFFF;" d="M267.02,136.216c-0.052,0.016-0.105,0.012-0.16,0.024v6.261l21.555-6.744v-6.233L267.02,136.216z"/>
	<path style="fill:#FFFFFF;" d="M201.159,270.23c-3.683-1.793-6.133-5.066-6.133-8.877c0-1.809,0.554-3.499,1.523-4.97
		l-16.333,5.109c3.48,1.852,5.772,5.044,5.772,8.641c0,1.997-0.726,3.858-1.941,5.452L201.159,270.23z"/>
	<path style="fill:#FFFFFF;" d="M204.512,178.375l-26.31,8.229c-0.191,0.059-0.384,0.09-0.574,0.09
		c-0.026,0-0.051-0.013-0.077-0.014v8.393l26.961-8.435V178.375z"/>
	<path style="fill:#FFFFFF;" d="M204.512,241.596l-26.31,8.233c-0.191,0.059-0.384,0.088-0.574,0.088
		c-0.026,0-0.051-0.011-0.077-0.012v8.392l26.961-8.435V241.596z"/>
	<path style="fill:#FFFFFF;" d="M204.512,146.764l-26.31,8.231c-0.191,0.057-0.384,0.087-0.574,0.087
		c-0.026,0-0.051-0.011-0.077-0.013v8.395l26.961-8.439V146.764z"/>
	<path style="fill:#FFFFFF;" d="M204.512,273.21l-26.31,8.231c-0.191,0.059-0.384,0.088-0.574,0.088
		c-0.026,0-0.051-0.011-0.077-0.012v1.094l13.827,4.356l13.134-4.326V273.21z"/>
	<path style="fill:#FFFFFF;" d="M204.512,115.148l-26.31,8.231c-0.191,0.059-0.384,0.088-0.574,0.088
		c-0.026,0-0.051-0.011-0.077-0.012v8.394l26.961-8.437V115.148z"/>
	<path style="fill:#FFFFFF;" d="M204.512,209.985l-26.31,8.233c-0.191,0.058-0.384,0.087-0.574,0.087
		c-0.026,0-0.051-0.011-0.077-0.012v8.393l26.961-8.437V209.985z"/>
	<path style="fill:#FFFFFF;" d="M201.159,175.395c-3.683-1.792-6.133-5.066-6.133-8.879c0-1.808,0.554-3.499,1.523-4.968
		l-16.327,5.108c3.476,1.851,5.766,5.042,5.766,8.643c0,1.995-0.726,3.855-1.939,5.447L201.159,175.395z"/>
	<path style="fill:#FFFFFF;" d="M201.161,143.783c-3.685-1.793-6.134-5.066-6.134-8.876c0-1.81,0.553-3.502,1.524-4.974
		l-16.335,5.111c3.482,1.851,5.772,5.046,5.772,8.649c0,1.993-0.724,3.851-1.937,5.442L201.161,143.783z"/>
	<path style="fill:#FFFFFF;" d="M201.156,238.617c-3.681-1.791-6.129-5.064-6.129-8.875c0-1.81,0.554-3.502,1.523-4.972
		l-16.331,5.11c3.48,1.85,5.77,5.04,5.77,8.64c0,1.996-0.726,3.858-1.939,5.451L201.156,238.617z"/>
	<path style="fill:#FFFFFF;" d="M201.156,112.169c-3.683-1.793-6.129-5.065-6.129-8.873c0-1.812,0.554-3.503,1.526-4.974
		l-16.336,5.11c3.482,1.85,5.772,5.041,5.772,8.639c0,1.997-0.726,3.857-1.939,5.45L201.156,112.169z"/>
	<polygon style="fill:#FFFFFF;" points="177.551,100.237 204.512,91.802 204.512,42.524 177.551,42.524 	"/>
	<path style="fill:#FFFFFF;" d="M201.157,207.005c-3.683-1.793-6.131-5.065-6.131-8.874c0-1.81,0.554-3.501,1.523-4.972
		l-16.329,5.108c3.48,1.852,5.768,5.043,5.768,8.644c0,1.995-0.725,3.855-1.937,5.447L201.157,207.005z"/>
	<path style="fill:#FFFFFF;" d="M111.902,159.992c-4.896-1.893-8.194-5.746-8.194-10.246c0-2.414,0.952-4.642,2.589-6.481
		l-23.196,6.64c4.644,1.96,7.678,5.664,7.678,9.991c0,2.664-1.154,5.094-3.116,7.032L111.902,159.992z"/>
	<path style="fill:#FFFFFF;" d="M115.69,209.73v-10.289l-34.19,9.788c-0.176,0.051-0.355,0.075-0.531,0.075
		c-0.304,0-0.589-0.095-0.854-0.228v10.833c0.109-0.057,0.203-0.134,0.327-0.168l34.863-9.981
		C115.435,209.723,115.562,209.739,115.69,209.73"/>
	<path style="fill:#FFFFFF;" d="M115.69,246.268v-10.293l-34.19,9.79c-0.176,0.051-0.355,0.075-0.531,0.075
		c-0.304,0-0.589-0.095-0.854-0.227v10.832c0.109-0.056,0.203-0.135,0.327-0.17l34.863-9.977
		C115.435,246.26,115.562,246.276,115.69,246.268"/>
	<path style="fill:#FFFFFF;" d="M111.902,306.135c-4.896-1.892-8.194-5.743-8.194-10.241c0-2.416,0.954-4.645,2.591-6.486
		l-23.201,6.643c4.646,1.956,7.681,5.661,7.681,9.989c0,2.664-1.153,5.094-3.114,7.031L111.902,306.135z"/>
	<path style="fill:#FFFFFF;" d="M115.69,320.763v-11.712l-34.19,9.784c-0.176,0.051-0.355,0.075-0.531,0.075
		c-0.304,0-0.589-0.094-0.854-0.228v2.054l18.229,5.252L115.69,320.763z"/>
	<path style="fill:#FFFFFF;" d="M115.69,282.801v-10.29L81.5,282.3c-0.176,0.05-0.355,0.075-0.531,0.075
		c-0.304,0-0.589-0.094-0.854-0.228v10.835c0.109-0.057,0.203-0.135,0.327-0.169l34.863-9.982
		C115.435,282.794,115.562,282.81,115.69,282.801"/>
	<path style="fill:#FFFFFF;" d="M115.69,136.655v-10.287l-34.19,9.784c-0.176,0.051-0.355,0.075-0.531,0.075
		c-0.304,0-0.589-0.095-0.854-0.228v10.838c0.109-0.057,0.203-0.135,0.327-0.169l34.863-9.981
		C115.435,136.649,115.562,136.665,115.69,136.655"/>
	<path style="fill:#FFFFFF;" d="M115.69,173.193v-10.286l-34.19,9.784c-0.176,0.051-0.355,0.076-0.531,0.076
		c-0.304,0-0.589-0.096-0.854-0.229v10.836c0.109-0.057,0.203-0.135,0.327-0.169l34.863-9.982
		C115.435,173.187,115.562,173.202,115.69,173.193"/>
	<path style="fill:#FFFFFF;" d="M111.897,233.061c-4.892-1.894-8.188-5.744-8.188-10.242c0-2.415,0.952-4.642,2.589-6.481
		l-23.202,6.642c4.646,1.957,7.684,5.662,7.684,9.99c0,2.663-1.155,5.094-3.115,7.03L111.897,233.061z"/>
	<path style="fill:#FFFFFF;" d="M111.899,196.527c-4.894-1.894-8.19-5.745-8.19-10.246c0-2.414,0.952-4.64,2.587-6.479l-23.196,6.64
		c4.644,1.959,7.68,5.662,7.68,9.987c0,2.666-1.157,5.099-3.122,7.038L111.899,196.527z"/>
	<path style="fill:#FFFFFF;" d="M80.116,110.3c0.109-0.057,0.203-0.135,0.327-0.17l34.863-9.98c0.13-0.036,0.257-0.02,0.385-0.03
		V42.523H80.116V110.3z"/>
	<path style="fill:#FFFFFF;" d="M111.897,269.598c-4.892-1.893-8.188-5.742-8.188-10.241c0-2.415,0.952-4.643,2.589-6.483
		l-23.202,6.639c4.646,1.962,7.684,5.667,7.684,9.994c0,2.662-1.155,5.091-3.115,7.029L111.897,269.598z"/>
	<path style="fill:#FFFFFF;" d="M111.902,123.453c-4.896-1.893-8.194-5.743-8.194-10.242c0-2.415,0.952-4.643,2.589-6.483
		l-23.197,6.64c4.644,1.96,7.679,5.664,7.679,9.99c0,2.664-1.153,5.094-3.114,7.031L111.902,123.453z"/>
</g>
</svg>
