<?xml version="1.0" encoding="iso-8859-1"?>
<!-- Generator: Adobe Illustrator 25.4.1, SVG Export Plug-In . SVG Version: 6.00 Build 0)  -->
<svg version="1.1" id="Calque_1" xmlns="http://www.w3.org/2000/svg" xmlns:xlink="http://www.w3.org/1999/xlink" x="0px" y="0px"
	 viewBox="0 0 368.5 368.5" style="enable-background:new 0 0 368.5 368.5;" xml:space="preserve">
<g>
	<path style="fill:#FFFFFF;" d="M230.95,55.635c2.288,1.071,4.543,2.181,6.755,3.335c0.082-0.261,0.197-0.514,0.352-0.749
		l7.628-11.631l-38.134-0.209C215.621,48.941,223.444,52.043,230.95,55.635"/>
	<path style="fill:#FFFFFF;" d="M257.596,133.666c9.837,0,19.363,1.394,28.315,4.142c8.368,2.568,15.522,8.315,21.333,14.797
		c-7.947-20.435-19.234-41.002-34.162-56.896c-10.322-10.989-22.65-20.446-36.35-28.09c3.677,6.408,7.026,14.407,8.439,23.708
		c2.4,15.809,1.688,34.225,1.131,42.985C249.137,133.977,253.003,133.666,257.596,133.666"/>
	<path style="fill:#FFFFFF;" d="M311.691,141.528l0.543,1.269c0.373,0.886,0.737,1.761,1.093,2.633l0.512,1.268
		c0.337,0.837,0.667,1.671,0.99,2.502c0.127,0.326,0.258,0.67,0.388,1.014l2.015,5.448c0.179,0.495,0.354,0.997,0.528,1.495
		c0.208,0.594,0.406,1.172,0.602,1.752l0.502,1.475c0.202,0.607,0.396,1.199,0.589,1.794l0.455,1.397
		c0.11,0.346,0.213,0.685,0.321,1.029v-8.931l-2.901-4.424c-0.656-0.999-0.656-2.291,0-3.29l2.901-4.425v-17.883l-9.283,14.157
		c0.24,0.551,0.474,1.092,0.704,1.626C311.652,141.437,311.69,141.525,311.691,141.528"/>
	<polygon style="fill:#FFFFFF;" points="320.229,54.654 320.229,46.998 315.19,46.97 	"/>
	<path style="fill:#FFFFFF;" d="M268.724,58.221c0.655,0.999,0.655,2.292,0,3.29l-7.913,12.066c3.137,2.382,6.163,4.87,9.078,7.461
		l8.663-13.209c0.555-0.845,1.498-1.355,2.509-1.355c1.012,0,1.954,0.51,2.509,1.355l12.824,19.555c0.655,1,0.655,2.292,0,3.29
		l-7.304,11.136l0.53,0.702c0.514,0.688,1.023,1.39,1.531,2.092l0.595,0.824c0.707,0.998,1.395,1.987,2.071,2.989
		c0.066,0.096,0.158,0.233,0.248,0.369l0.153,0.231c0.549,0.821,1.075,1.615,1.594,2.414c0.126,0.195,0.245,0.385,0.366,0.577
		l8.549-13.035c0.555-0.846,1.497-1.355,2.508-1.355s1.955,0.509,2.51,1.354l10.484,15.987V95.1l-2.902-4.425
		c-0.655-0.998-0.655-2.291,0-3.29l2.902-4.424V65.079l-10.484,15.986c-0.555,0.845-1.499,1.354-2.51,1.354
		s-1.953-0.509-2.508-1.354l-12.825-19.554c-0.656-0.998-0.656-2.291,0-3.29l7.434-11.337l-38.184-0.21L268.724,58.221z"/>
	<path style="fill:#FFFFFF;" d="M207.522,154.164c18.738,0,33.251,6.465,35.579,15.405l0.266,0.004l0.037,1.85
		c0.016,0.229,0.033,0.459,0.033,0.691c0,0.093-0.011,0.183-0.013,0.275l0.013,0.636v33.854l76.351,0.419v-9.974
		c-0.85-4.949-1.955-10.211-3.316-15.67c-3.069-6.654-15.262-30.782-32.909-36.199c-8.19-2.515-16.926-3.79-25.967-3.79
		c-8.836,0-14.745,1.268-14.803,1.281c-1.25,0.272-2.552-0.068-3.508-0.913c-0.955-0.846-1.452-2.097-1.333-3.368
		c0.023-0.257,2.373-25.961-0.69-46.137c-2.32-15.282-10.619-26.663-15.694-32.387c-16.091-6.955-33.582-11.575-51.644-13.477
		v107.889h29.838C202.248,154.3,204.84,154.164,207.522,154.164"/>
	<polygon style="fill:#FFFFFF;" points="307.235,73.949 316.472,59.867 309.139,48.685 305.331,48.685 297.999,59.867 	"/>
	<path style="fill:#FFFFFF;" d="M281.061,74.945l-7.437,11.34c1.603,1.557,3.108,3.085,4.56,4.631
		c2.08,2.215,4.159,4.598,6.209,7.116l5.904-9.002L281.061,74.945z"/>
	<path style="fill:#FFFFFF;" d="M316.559,120.305l-9.324-14.217l-8.428,12.852c2.709,4.623,5.297,9.486,7.705,14.481l0.723,1.103
		L316.559,120.305z"/>
	<path style="fill:#FFFFFF;" d="M248.499,66.489c2.297,1.46,4.571,2.988,6.792,4.563l7.337-11.186l-7.332-11.181h-3.809
		l-7.334,11.181L248.499,66.489z"/>
	<polygon style="fill:#FFFFFF;" points="48.271,275.242 66.828,256.685 48.271,238.13 	"/>
	<polygon style="fill:#FFFFFF;" points="71.07,260.928 48.271,283.727 48.271,295.324 105.466,295.324 	"/>
	<polygon style="fill:#FFFFFF;" points="171.607,273.318 159.217,260.928 124.821,295.324 171.607,295.324 	"/>
	<polygon style="fill:#FFFFFF;" points="115.144,216.854 75.312,256.686 113.952,295.325 116.337,295.325 154.975,256.686 	"/>
	<path style="fill:#FFFFFF;" d="M48.271,229.66c0.028,0.026,0.061,0.044,0.088,0.072l22.711,22.711l39.831-39.832l-39.525-39.527
		l-23.105,23.104V229.66z"/>
	<polygon style="fill:#FFFFFF;" points="71.376,164.599 74.422,161.553 68.33,161.553 	"/>
	<polygon style="fill:#FFFFFF;" points="159.218,252.444 171.607,240.055 171.607,185.779 158.913,173.084 119.387,212.611 	"/>
	<polygon style="fill:#FFFFFF;" points="154.671,168.842 147.383,161.553 82.907,161.553 75.618,168.842 115.144,208.368 	"/>
	<polygon style="fill:#FFFFFF;" points="155.867,161.553 158.912,164.599 161.958,161.553 	"/>
	<polygon style="fill:#FFFFFF;" points="171.607,264.833 171.607,248.539 163.459,256.685 	"/>
	<polygon style="fill:#FFFFFF;" points="67.133,168.842 59.845,161.553 48.271,161.553 48.271,187.704 	"/>
	<path style="fill:#FFFFFF;" d="M171.607,177.294v-5.18c0-4.013,2.383-7.635,6.504-10.561h-7.668l-7.288,7.289L171.607,177.294z"/>
	<path style="fill:#FFFFFF;" d="M178.607,172.115c0,0.429,0.097,0.873,0.286,1.327c1.837,4.385,12.394,9.623,28.629,9.623
		c0.517,0,1.027-0.007,1.532-0.017c9.556-0.209,17.531-2.356,22.365-5.107c2.684-1.551,4.348-3.262,4.851-4.839
		c0.058-0.187,0.105-0.375,0.13-0.56l0.011-0.078c0.014-0.118,0.026-0.234,0.026-0.349c0-4.572-11-10.95-28.915-10.95
		C189.608,161.165,178.607,167.543,178.607,172.115"/>
	<path style="fill:#FFFFFF;" d="M236.437,183.027c-6.453,4.344-16.842,7.038-28.915,7.038c-12.123,0-22.482-2.706-28.915-7.037
		v128.14c0,4.572,11,10.951,28.915,10.951s28.915-6.379,28.915-10.951V183.027z"/>
</g>
</svg>
