<?xml version="1.0" encoding="iso-8859-1"?>
<!-- Generator: Adobe Illustrator 25.4.1, SVG Export Plug-In . SVG Version: 6.00 Build 0)  -->
<svg version="1.1" id="Calque_1" xmlns="http://www.w3.org/2000/svg" xmlns:xlink="http://www.w3.org/1999/xlink" x="0px" y="0px"
	 viewBox="0 0 368.5 368.5" style="enable-background:new 0 0 368.5 368.5;" xml:space="preserve">
<g>
	<path style="fill:#FFFFFF;" d="M127.158,131.233v12.409l14.456-0.011h0.002c0.821,0,1.608,0.325,2.189,0.906
		c0.582,0.582,0.908,1.369,0.908,2.19v17.028c0,1.702-1.374,3.085-3.077,3.097l-13.718,0.088l0.059,10.285l28.078-0.063
		l-0.003-30.405c0-1.71,1.385-3.095,3.095-3.097l38.449-0.029h0.002c0.82,0,1.608,0.325,2.188,0.906
		c0.582,0.582,0.909,1.369,0.909,2.19v17.028c0,1.702-1.374,3.085-3.077,3.097l-13.719,0.088l0.06,10.285l28.105-0.063l0.015-30.407
		c0.001-1.709,1.386-3.093,3.095-3.095l38.694-0.029h0.002c0.82,0,1.608,0.325,2.188,0.906c0.582,0.582,0.909,1.369,0.909,2.19
		v17.028c0,1.702-1.374,3.085-3.077,3.097l-13.722,0.088l0.063,10.285l28.075-0.063l-0.004-30.405c0-1.71,1.385-3.095,3.094-3.097
		l38.455-0.029h0.002c0.821,0,1.608,0.325,2.189,0.906c0.582,0.582,0.908,1.369,0.908,2.19v17.028c0,1.702-1.374,3.085-3.077,3.097
		l-13.723,0.088l0.061,10.285l30.846-0.068V115.58H116.603C123.239,119.727,127.158,125.142,127.158,131.233"/>
	<path style="fill:#FFFFFF;" d="M327.056,183.351l-33.917,0.077h-0.008c-1.702,0-3.086-1.375-3.096-3.079l-0.097-16.467
		c-0.01-1.71,1.367-3.104,3.077-3.115l13.741-0.089v-10.851l-32.261,0.025l0.028,30.247c0.042,0.844-0.263,1.67-0.847,2.285
		c-0.582,0.615-1.392,0.963-2.239,0.967l-34.277,0.077h-0.007c-1.703,0-3.087-1.375-3.097-3.078l-0.102-16.466
		c-0.01-1.711,1.367-3.106,3.077-3.117l13.741-0.089v-10.851l-32.502,0.025l-0.015,30.402c-0.001,1.706-1.383,3.091-3.09,3.097
		l-34.278,0.077h-0.007c-1.703,0-3.087-1.375-3.097-3.079l-0.097-16.467c-0.01-1.71,1.367-3.104,3.077-3.115l13.737-0.089v-10.851
		l-32.255,0.025l0.026,30.26c0.039,0.845-0.27,1.667-0.852,2.277c-0.583,0.611-1.389,0.958-2.234,0.962l-32.028,0.07v30.545h199.899
		V183.351z"/>
	<polygon style="fill:#FFFFFF;" points="138.519,149.826 127.158,149.835 127.158,160.751 138.519,160.677 	"/>
	<path style="fill:#FFFFFF;" d="M81.243,253.043c22.191,0,37.656-8.309,37.656-15.766V143.54
		c-8.105,6.293-21.859,10.277-38.104,10.277c-8.519,0-16.801-1.17-23.952-3.384c-2.178-0.674-3.397-2.988-2.723-5.167
		c0.674-2.175,2.982-3.399,5.167-2.722c6.369,1.972,13.806,3.015,21.508,3.015c22.188,0,37.651-8.309,37.651-15.765
		c0-0.19,0.031-0.37,0.055-0.552c-2.429-6.87-17.028-13.775-37.258-13.775c-22.188,0-37.651,8.308-37.651,15.766v106.044
		C43.592,244.734,59.055,253.043,81.243,253.043"/>
</g>
</svg>
