<?xml version="1.0" encoding="iso-8859-1"?>
<!-- Generator: Adobe Illustrator 25.4.1, SVG Export Plug-In . SVG Version: 6.00 Build 0)  -->
<svg version="1.1" id="Calque_1" xmlns="http://www.w3.org/2000/svg" xmlns:xlink="http://www.w3.org/1999/xlink" x="0px" y="0px"
	 viewBox="0 0 368.5 368.5" style="enable-background:new 0 0 368.5 368.5;" xml:space="preserve">
<g>
	<path style="fill:#FFFFFF;" d="M138.558,255.87v42.015c0.028,0.156,0.04,0.316,0.036,0.478l-0.01,0.199
		c0,12.09,20.94,22.34,45.726,22.34c24.787,0,45.727-10.25,45.727-22.385l-0.01-0.197v-42.479
		c-12.33,4.418-28.223,7.042-45.778,7.042C166.734,262.883,150.876,260.269,138.558,255.87"/>
	<path style="fill:#FFFFFF;" d="M145.738,147.206c5.781-3.817,15.44-6.991,27.575-8.212v-5.022
		c-11.741,1.127-21.8,4.038-28.697,8.089L145.738,147.206z"/>
	<path style="fill:#FFFFFF;" d="M195.133,138.989c12.128,1.215,21.786,4.377,27.583,8.186l1.12-5.14
		c-6.906-4.043-16.966-6.947-28.703-8.067V138.989z"/>
	<path style="fill:#FFFFFF;" d="M250.874,231.616c0-1.192-0.223-2.394-0.662-3.572c-0.025-0.067-0.048-0.135-0.067-0.203
		l-17.933-64.413c-2.289,2.918-5.852,5.538-10.62,7.787c-0.138,0.065-0.282,0.107-0.427,0.145
		c-9.205,4.281-22.243,6.912-36.916,6.912c-14.717,0-27.789-2.645-36.998-6.949c-0.138-0.038-0.275-0.077-0.407-0.14
		c-4.767-2.256-8.291-4.866-10.557-7.772l-18.274,65.476c-0.259,0.913-0.389,1.829-0.389,2.729
		c0,14.238,30.511,26.267,66.625,26.267S250.874,245.854,250.874,231.616"/>
	<path style="fill:#FFFFFF;" d="M130.253,76.34c-8.169,4.066-12.627,8.831-12.627,13.453c0,3.676,2.825,7.433,7.981,10.836
		c0.059,0.032,0.126,0.046,0.183,0.084c2.686,1.74,5.955,3.363,9.718,4.826c0.154,0.06,0.293,0.145,0.429,0.232
		c9.996,3.823,23.662,6.599,39.906,7.321c0.03,0.001,0.059-0.006,0.091-0.004c1.298,0.06,2.605,0.106,3.926,0.138l0.255,0.007
		c0.764,0.017,1.53,0.026,2.296,0.034c0.344,0.003,0.685,0.009,1.03,0.01c0.698,0.003,1.401,0.001,2.108-0.005
		c0.359-0.002,0.718-0.006,1.076-0.01c1.909-0.025,3.858-0.08,5.896-0.172c0.03-0.002,0.059,0.005,0.089,0.005
		c16.23-0.718,29.89-3.484,39.889-7.299c0.14-0.089,0.28-0.175,0.438-0.235c3.76-1.457,7.029-3.075,9.714-4.809
		c0.058-0.038,0.124-0.052,0.185-0.084c5.192-3.414,8.04-7.185,8.04-10.875c0-5.18-5.727-10.598-15.711-14.865
		c-0.063-0.027-0.126-0.057-0.187-0.089l-51.461-27.241L130.253,76.34z"/>
	<path style="fill:#FFFFFF;" d="M224.154,164.048c1.803-1.226,3.237-2.521,4.243-3.842c0.373-0.564,0.594-0.923,0.723-1.139
		l0.664-3.27c0.075-0.345,6.298-29.059,10.549-48.016c-1.365,0.674-2.812,1.323-4.334,1.943L224.154,164.048z"/>
	<path style="fill:#FFFFFF;" d="M138.656,155.767l0.657,3.229c0.969,1.735,2.653,3.428,4.971,5.012L132.442,109.7
		c-1.521-0.623-2.969-1.274-4.334-1.95C132.359,126.707,138.587,155.45,138.656,155.767"/>
	<path style="fill:#FFFFFF;" d="M178.313,118.184v54.929c3.975,0.208,7.857,0.21,11.82,0.003v-54.929
		c-3.498,0.115-6.824,0.12-10.131,0.046l-0.288-0.01C179.249,118.212,178.781,118.2,178.313,118.184"/>
</g>
</svg>
