<?xml version="1.0" encoding="iso-8859-1"?>
<!-- Generator: Adobe Illustrator 25.4.1, SVG Export Plug-In . SVG Version: 6.00 Build 0)  -->
<svg version="1.1" id="Calque_1" xmlns="http://www.w3.org/2000/svg" xmlns:xlink="http://www.w3.org/1999/xlink" x="0px" y="0px"
	 viewBox="0 0 368.5 368.5" style="enable-background:new 0 0 368.5 368.5;" xml:space="preserve">
<g>
	<path style="fill:#FFFFFF;" d="M115.724,258.155c-13.707-13.707-18.816-32.805-15.334-50.531
		c-9.223,18.387-6.186,41.404,9.138,56.728c9.268,9.268,21.59,14.371,34.697,14.371c7.763,0,15.246-1.804,21.987-5.191
		c-3.534,0.689-7.16,1.045-10.841,1.045C140.394,274.579,126.314,268.745,115.724,258.155"/>
	<path style="fill:#FFFFFF;" d="M126.871,247.009c-10.591-10.59-16.424-24.67-16.423-39.646c0-3.682,0.356-7.309,1.045-10.842
		c-3.387,6.74-5.191,14.222-5.191,21.986c-0.001,13.108,5.104,25.43,14.372,34.699c9.268,9.268,21.59,14.371,34.696,14.371
		c7.812,0,15.339-1.826,22.113-5.254c-3.618,0.717-7.293,1.081-10.968,1.081C152.157,263.404,137.801,257.939,126.871,247.009"/>
	<path style="fill:#FFFFFF;" d="M143.964,295.78c-3.592,0.705-7.24,1.062-10.888,1.062c-14.358,0-28.714-5.464-39.645-16.394
		c-13.727-13.727-18.829-32.857-15.318-50.607c-3.425,6.771-5.251,14.296-5.251,22.105c0,13.108,5.104,25.43,14.373,34.699
		C102.559,301.967,125.576,305.005,143.964,295.78"/>
	<path style="fill:#FFFFFF;" d="M199.955,229.964c-14.358,0-28.716-5.465-39.646-16.395c-10.591-10.589-16.423-24.669-16.422-39.646
		c0-3.682,0.357-7.309,1.046-10.844c-3.389,6.742-5.193,14.227-5.193,21.99c-0.001,13.108,5.104,25.43,14.372,34.698
		c9.268,9.267,21.591,14.373,34.697,14.371c7.811,0,15.337-1.826,22.111-5.252C207.303,229.601,203.629,229.964,199.955,229.964"/>
	<path style="fill:#FFFFFF;" d="M138.017,235.862c-10.591-10.592-16.424-24.672-16.423-39.648c0-3.682,0.356-7.307,1.045-10.842
		c-3.387,6.742-5.192,14.224-5.192,21.99c0,13.107,5.104,25.428,14.373,34.697c15.322,15.321,38.334,18.358,56.721,9.137
		c-3.588,0.705-7.233,1.061-10.878,1.061C163.303,252.257,148.949,246.794,138.017,235.862"/>
	<path style="fill:#FFFFFF;" d="M149.162,224.716c-10.59-10.59-16.423-24.67-16.422-39.646c0-3.682,0.356-7.309,1.046-10.844
		c-3.388,6.742-5.192,14.224-5.192,21.988c0,13.107,5.104,25.43,14.373,34.699c15.292,15.291,38.244,18.346,56.613,9.192
		c-3.512,0.679-7.114,1.033-10.771,1.033C173.833,241.14,159.752,235.306,149.162,224.716"/>
	<path style="fill:#FFFFFF;" d="M104.578,269.302c-13.708-13.709-18.816-32.807-15.333-50.535
		c-9.225,18.389-6.188,41.406,9.136,56.732c15.292,15.291,38.246,18.346,56.615,9.192c-3.513,0.679-7.114,1.033-10.772,1.033
		C129.248,285.724,115.168,279.892,104.578,269.302"/>
	<path style="fill:#FFFFFF;" d="M245.195,184.751c-14.976,0-29.056-5.832-39.646-16.422c-13.968-13.969-18.995-33.529-15.113-51.539
		c-10.273,18.645-7.529,42.602,8.261,58.393c15.757,15.754,39.648,18.521,58.277,8.322
		C253.144,184.319,249.203,184.751,245.195,184.751"/>
	<path style="fill:#FFFFFF;" d="M193.748,180.132c-13.727-13.727-18.829-32.859-15.317-50.609
		c-3.426,6.773-5.252,14.298-5.252,22.107c0,13.107,5.104,25.43,14.373,34.699c9.268,9.268,21.59,14.371,34.697,14.371
		c7.811,0,15.337-1.826,22.111-5.254c-3.618,0.717-7.292,1.081-10.967,1.081C219.035,196.527,204.678,191.062,193.748,180.132"/>
	<path style="fill:#FFFFFF;" d="M182.602,191.278c-10.591-10.592-16.424-24.672-16.423-39.648c0-3.682,0.356-7.307,1.045-10.842
		c-3.387,6.742-5.191,14.224-5.191,21.988c0,13.107,5.104,25.43,14.372,34.699c15.291,15.289,38.241,18.344,56.61,9.192
		c-3.511,0.679-7.111,1.033-10.767,1.033C207.272,207.7,193.192,201.868,182.602,191.278"/>
	<path style="fill:#FFFFFF;" d="M132.815,306.927c-3.591,0.705-7.237,1.062-10.884,1.062c-14.358,0-28.715-5.464-39.645-16.394
		c-10.591-10.592-16.424-24.672-16.423-39.649c0-3.681,0.356-7.306,1.045-10.841c-3.386,6.742-5.191,14.224-5.191,21.988
		c-0.001,13.107,5.104,25.43,14.372,34.699C91.412,313.113,114.427,316.15,132.815,306.927"/>
	<path style="fill:#FFFFFF;" d="M171.456,202.425c-10.591-10.592-16.423-24.672-16.423-39.648c0-3.682,0.357-7.309,1.046-10.842
		c-3.387,6.74-5.192,14.224-5.192,21.988c0,13.107,5.104,25.43,14.372,34.697c15.324,15.323,38.34,18.36,56.726,9.137
		c-3.591,0.705-7.238,1.063-10.885,1.063C196.742,218.82,182.386,213.355,171.456,202.425"/>
	<path style="fill:#FFFFFF;" d="M100.213,323.222h0.003c7.742,0,15.18-1.818,21.836-5.232c-3.715,0.757-7.491,1.146-11.268,1.146
		c-14.358,0-28.715-5.465-39.645-16.394c-10.591-10.592-16.423-24.672-16.423-39.649c0-3.76,0.369-7.465,1.088-11.07
		c-9.178,18.174-6,41.197,9.427,56.625C74.628,318.044,87.052,323.222,100.213,323.222"/>
	<path style="fill:#FFFFFF;" d="M287.053,138.216c-1.766,7.824-5.693,15.01-11.504,20.82c-8.107,8.108-18.886,12.575-30.352,12.575
		c-0.923,0-1.839-0.04-2.752-0.098c-0.035-0.002-0.07-0.006-0.105-0.008c-7.74-0.506-15.081-3.057-21.395-7.4
		c-0.004-0.002-0.007-0.004-0.01-0.006c-0.657-0.453-1.301-0.926-1.936-1.418c-0.129-0.098-0.256-0.199-0.384-0.299
		c-0.518-0.41-1.026-0.834-1.527-1.27c-0.15-0.128-0.302-0.255-0.45-0.388c-0.597-0.531-1.183-1.078-1.754-1.649
		c-0.014-0.013-0.028-0.025-0.041-0.039c-0.465-0.465-0.916-0.941-1.358-1.424c-0.172-0.189-0.337-0.382-0.505-0.574
		c-0.249-0.281-0.497-0.564-0.739-0.853c-0.228-0.274-0.451-0.553-0.673-0.83c-0.151-0.192-0.302-0.383-0.45-0.577
		c-0.275-0.357-0.545-0.718-0.808-1.083c-0.048-0.067-0.094-0.135-0.142-0.202c-5.125-7.203-7.899-15.791-7.899-24.81
		c0.001-11.467,4.466-22.246,12.573-30.354c1.087-1.088,2.225-2.103,3.403-3.056l13.897-13.899
		c-8.105,2.223-15.538,6.508-21.642,12.612c-19.131,19.132-19.132,50.261-0.001,69.394c9.268,9.268,21.59,14.371,34.697,14.371
		c13.106,0,25.429-5.105,34.696-14.373c8.706-8.705,13.736-20.103,14.315-32.316L287.053,138.216z"/>
	<path style="fill:#FFFFFF;" d="M217.026,106.392c-6.467,8.152-9.01,18.828-7.123,28.961l68.494-68.492
		c-2.576-0.604-5.022-1.893-7.027-3.897c-1.96-1.961-3.284-4.381-3.903-7.013L217.026,106.392z"/>
	<path style="fill:#FFFFFF;" d="M306.607,108.763c-2.633-0.619-5.055-1.943-7.015-3.904c-2.004-2.004-3.292-4.449-3.897-7.026
		l-64.1,64.102c4.296,1.754,8.924,2.668,13.605,2.668h0.001c2.035,0,4.076-0.174,6.082-0.516L306.607,108.763z"/>
	<path style="fill:#FFFFFF;" d="M304.633,88.896l-0.093,0.094c-3.01,3.009-3.009,7.908,0.002,10.92
		c1.458,1.457,3.397,2.259,5.46,2.259s4.001-0.802,5.459-2.259l0.093-0.094c1.458-1.459,2.261-3.397,2.26-5.459
		c0-2.063-0.804-4.002-2.262-5.459c-1.459-1.459-3.398-2.264-5.46-2.264S306.091,87.437,304.633,88.896"/>
	<path style="fill:#FFFFFF;" d="M286.683,74.054l-0.019-0.018c-3.009,3.012-3.008,7.91,0.003,10.922
		c3.01,3.008,7.907,3.008,10.917-0.002h0.001l-0.019-0.019c1.223-1.405,1.896-3.176,1.897-5.057c0-2.06-0.803-4-2.261-5.457
		c-1.46-1.459-3.4-2.264-5.464-2.264C289.858,72.159,288.086,72.833,286.683,74.054"/>
	<path style="fill:#FFFFFF;" d="M288.739,93.802c-2.574-0.605-5.019-1.893-7.021-3.895c-2.005-2.003-3.293-4.451-3.898-7.027
		l-63.748,63.748c1.571,2.727,3.488,5.227,5.72,7.457c1.453,1.453,3.028,2.78,4.701,3.961L288.739,93.802z"/>
	<path style="fill:#FFFFFF;" d="M276.32,47.097l-0.001,0.002c-1.457,1.457-2.26,3.394-2.26,5.457c0,2.062,0.802,4,2.26,5.459
		c3.01,3.012,7.91,3.014,10.92,0.002l-0.02-0.022c1.188-1.394,1.84-3.144,1.84-4.996c0-2.062-0.803-4.002-2.262-5.459
		c-1.459-1.459-3.397-2.261-5.46-2.261c-1.853,0-3.602,0.652-4.996,1.839L276.32,47.097z"/>
</g>
</svg>
