<?xml version="1.0" encoding="iso-8859-1"?>
<!-- Generator: Adobe Illustrator 25.4.1, SVG Export Plug-In . SVG Version: 6.00 Build 0)  -->
<svg version="1.1" id="Calque_1" xmlns="http://www.w3.org/2000/svg" xmlns:xlink="http://www.w3.org/1999/xlink" x="0px" y="0px"
	 viewBox="0 0 368.5 368.5" style="enable-background:new 0 0 368.5 368.5;" xml:space="preserve">
<g>
	<path style="fill:#FFFFFF;" d="M45.663,63.211c0,3.332,2.702,6.033,6.033,6.033h9.109V57.178h-9.109
		C48.365,57.178,45.663,59.879,45.663,63.211"/>
	<rect x="88.39" y="57.177" style="fill:#FFFFFF;" width="12.485" height="12.064"/>
	<rect x="288.729" y="57.177" style="fill:#FFFFFF;" width="12.485" height="12.064"/>
	<rect x="168.527" y="57.177" style="fill:#FFFFFF;" width="12.481" height="12.064"/>
	<rect x="128.458" y="57.177" style="fill:#FFFFFF;" width="12.482" height="12.064"/>
	<rect x="208.593" y="57.177" style="fill:#FFFFFF;" width="12.485" height="12.064"/>
	<rect x="248.664" y="57.177" style="fill:#FFFFFF;" width="12.482" height="12.064"/>
	<path style="fill:#FFFFFF;" d="M83.216,51.142c0-4.758-3.858-8.619-8.619-8.619c-4.759,0-8.618,3.861-8.618,8.619v24.136
		c0,4.761,3.859,8.62,8.618,8.62c4.761,0,8.619-3.859,8.619-8.62V51.142z"/>
	<path style="fill:#FFFFFF;" d="M123.287,51.142c0-4.758-3.86-8.619-8.624-8.619c-4.756,0-8.615,3.861-8.615,8.619v24.136
		c0,4.761,3.859,8.62,8.615,8.62c4.764,0,8.624-3.859,8.624-8.62V51.142z"/>
	<path style="fill:#FFFFFF;" d="M146.113,51.142v24.136c0,4.761,3.859,8.62,8.618,8.62c4.764,0,8.624-3.859,8.624-8.62V51.142
		c0-4.758-3.86-8.619-8.624-8.619C149.972,42.523,146.113,46.384,146.113,51.142"/>
	<path style="fill:#FFFFFF;" d="M186.181,51.142v24.136c0,4.761,3.859,8.62,8.618,8.62c4.761,0,8.624-3.859,8.624-8.62V51.142
		c0-4.758-3.863-8.619-8.624-8.619C190.04,42.523,186.181,46.384,186.181,51.142"/>
	<path style="fill:#FFFFFF;" d="M243.491,51.142c0-4.758-3.86-8.619-8.624-8.619c-4.759,0-8.618,3.861-8.618,8.619v24.136
		c0,4.761,3.859,8.62,8.618,8.62c4.764,0,8.624-3.859,8.624-8.62V51.142z"/>
	<path style="fill:#FFFFFF;" d="M283.557,51.142c0-4.758-3.86-8.619-8.621-8.619c-4.762,0-8.621,3.861-8.621,8.619v24.136
		c0,4.761,3.859,8.62,8.621,8.62c4.761,0,8.621-3.859,8.621-8.62V51.142z"/>
	<path style="fill:#FFFFFF;" d="M315.005,42.523c-4.761,0-8.618,3.859-8.618,8.619v24.137c0,4.762,3.857,8.619,8.618,8.619
		c4.761,0,8.618-3.857,8.618-8.619V51.142C323.623,46.382,319.766,42.523,315.005,42.523"/>
	<rect x="188.712" y="91.765" style="fill:#FFFFFF;" width="12.485" height="12.064"/>
	<rect x="68.511" y="91.765" style="fill:#FFFFFF;" width="12.483" height="12.064"/>
	<rect x="268.849" y="91.765" style="fill:#FFFFFF;" width="12.487" height="12.064"/>
	<rect x="108.579" y="91.765" style="fill:#FFFFFF;" width="12.481" height="12.064"/>
	<rect x="228.781" y="91.765" style="fill:#FFFFFF;" width="12.485" height="12.064"/>
	<path style="fill:#FFFFFF;" d="M318.939,91.765h-10.024v12.064h10.024c3.331,0,6.033-2.701,6.033-6.033
		S322.27,91.765,318.939,91.765"/>
	<rect x="148.645" y="91.765" style="fill:#FFFFFF;" width="12.484" height="12.064"/>
	<path style="fill:#FFFFFF;" d="M63.338,85.729c0-4.763-3.859-8.621-8.618-8.621c-4.761,0-8.62,3.858-8.62,8.621v24.134
		c0,4.765,3.859,8.619,8.62,8.619c4.759,0,8.618-3.854,8.618-8.619V85.729z"/>
	<path style="fill:#FFFFFF;" d="M103.408,85.732c0-4.765-3.86-8.624-8.621-8.624c-4.759,0-8.621,3.859-8.621,8.624v24.132
		c0,4.762,3.862,8.619,8.621,8.619c4.761,0,8.621-3.857,8.621-8.619V85.732z"/>
	<path style="fill:#FFFFFF;" d="M126.235,109.863c0,4.763,3.859,8.619,8.618,8.619c4.763,0,8.621-3.856,8.621-8.619V85.732
		c0-4.765-3.858-8.624-8.621-8.624c-4.759,0-8.618,3.859-8.618,8.624V109.863z"/>
	<path style="fill:#FFFFFF;" d="M166.303,109.863c0,4.763,3.861,8.619,8.616,8.619c4.766,0,8.623-3.856,8.623-8.619V85.732
		c0-4.765-3.857-8.624-8.623-8.624c-4.755,0-8.616,3.859-8.616,8.624V109.863z"/>
	<path style="fill:#FFFFFF;" d="M223.611,85.732c0-4.765-3.86-8.624-8.624-8.624c-4.756,0-8.618,3.859-8.618,8.624v24.132
		c0,4.762,3.862,8.619,8.618,8.619c4.764,0,8.624-3.857,8.624-8.619V85.732z"/>
	<path style="fill:#FFFFFF;" d="M263.679,85.732c0-4.765-3.86-8.624-8.621-8.624c-4.762,0-8.618,3.859-8.618,8.624v24.132
		c0,4.762,3.856,8.619,8.618,8.619c4.761,0,8.621-3.857,8.621-8.619V85.732z"/>
	<path style="fill:#FFFFFF;" d="M303.746,85.732c0-4.765-3.859-8.624-8.618-8.624c-4.764,0-8.622,3.859-8.622,8.624v24.132
		c0,4.762,3.858,8.619,8.622,8.619c4.759,0,8.618-3.857,8.618-8.619V85.732z"/>
	<rect x="248.663" y="126.345" style="fill:#FFFFFF;" width="12.482" height="12.066"/>
	<path style="fill:#FFFFFF;" d="M51.696,138.411h9.109v-12.066h-9.109c-3.331,0-6.033,2.701-6.033,6.033
		S48.365,138.411,51.696,138.411"/>
	<rect x="208.593" y="126.345" style="fill:#FFFFFF;" width="12.485" height="12.066"/>
	<rect x="288.729" y="126.345" style="fill:#FFFFFF;" width="12.485" height="12.066"/>
	<rect x="128.458" y="126.345" style="fill:#FFFFFF;" width="12.482" height="12.066"/>
	<rect x="88.39" y="126.345" style="fill:#FFFFFF;" width="12.485" height="12.066"/>
	<rect x="168.527" y="126.345" style="fill:#FFFFFF;" width="12.481" height="12.066"/>
	<path style="fill:#FFFFFF;" d="M83.216,120.314c0-4.765-3.858-8.624-8.619-8.624c-4.759,0-8.618,3.859-8.618,8.624v24.132
		c0,4.762,3.859,8.619,8.618,8.619c4.761,0,8.619-3.857,8.619-8.619V120.314z"/>
	<path style="fill:#FFFFFF;" d="M106.048,120.314v24.132c0,4.764,3.857,8.621,8.616,8.621c4.761,0,8.62-3.857,8.62-8.621v-24.132
		c0-4.765-3.859-8.624-8.62-8.624C109.905,111.69,106.048,115.549,106.048,120.314"/>
	<path style="fill:#FFFFFF;" d="M163.354,120.314c0-4.765-3.86-8.624-8.621-8.624c-4.759,0-8.619,3.859-8.619,8.624v24.132
		c0,4.764,3.86,8.621,8.619,8.621c4.761,0,8.621-3.857,8.621-8.621V120.314z"/>
	<path style="fill:#FFFFFF;" d="M186.183,120.314v24.132c0,4.764,3.859,8.621,8.618,8.621s8.62-3.857,8.62-8.621v-24.132
		c0-4.765-3.861-8.624-8.62-8.624S186.183,115.549,186.183,120.314"/>
	<path style="fill:#FFFFFF;" d="M226.249,120.314v24.132c0,4.764,3.86,8.621,8.619,8.621c4.761,0,8.621-3.857,8.621-8.621v-24.132
		c0-4.765-3.86-8.624-8.621-8.624C230.109,111.69,226.249,115.549,226.249,120.314"/>
	<path style="fill:#FFFFFF;" d="M266.316,120.314v24.132c0,4.764,3.86,8.621,8.621,8.621c4.759,0,8.618-3.857,8.618-8.621v-24.132
		c0-4.765-3.859-8.624-8.618-8.624C270.176,111.69,266.316,115.549,266.316,120.314"/>
	<path style="fill:#FFFFFF;" d="M315.005,153.068c4.761,0,8.618-3.857,8.618-8.621v-24.132c0-4.765-3.857-8.624-8.618-8.624
		c-4.761,0-8.618,3.859-8.618,8.624v24.132C306.387,149.211,310.244,153.068,315.005,153.068"/>
	<rect x="68.511" y="160.927" style="fill:#FFFFFF;" width="12.483" height="12.068"/>
	<rect x="228.781" y="160.927" style="fill:#FFFFFF;" width="12.485" height="12.068"/>
	<rect x="148.645" y="160.927" style="fill:#FFFFFF;" width="12.484" height="12.068"/>
	<path style="fill:#FFFFFF;" d="M318.939,160.93h-10.024v12.066h10.024c3.331,0,6.033-2.701,6.033-6.033
		S322.27,160.93,318.939,160.93"/>
	<rect x="188.712" y="160.928" style="fill:#FFFFFF;" width="12.485" height="12.068"/>
	<rect x="108.579" y="160.928" style="fill:#FFFFFF;" width="12.481" height="12.068"/>
	<rect x="268.849" y="160.928" style="fill:#FFFFFF;" width="12.487" height="12.068"/>
	<path style="fill:#FFFFFF;" d="M63.338,154.897c0-4.763-3.859-8.621-8.618-8.621c-4.761,0-8.62,3.858-8.62,8.621v24.134
		c0,4.765,3.859,8.617,8.62,8.617c4.759,0,8.618-3.852,8.618-8.617V154.897z"/>
	<path style="fill:#FFFFFF;" d="M103.408,154.897c0-4.763-3.86-8.621-8.621-8.621c-4.759,0-8.621,3.858-8.621,8.621v24.134
		c0,4.763,3.862,8.619,8.621,8.619c4.761,0,8.621-3.856,8.621-8.619V154.897z"/>
	<path style="fill:#FFFFFF;" d="M143.472,154.897c0-4.763-3.857-8.621-8.618-8.621c-4.759,0-8.618,3.858-8.618,8.621v24.134
		c0,4.765,3.859,8.617,8.618,8.617c4.761,0,8.618-3.852,8.618-8.617V154.897z"/>
	<path style="fill:#FFFFFF;" d="M166.303,179.031c0,4.765,3.86,8.617,8.617,8.617c4.763,0,8.62-3.852,8.62-8.617v-24.134
		c0-4.763-3.857-8.622-8.62-8.622c-4.757,0-8.617,3.859-8.617,8.622V179.031z"/>
	<path style="fill:#FFFFFF;" d="M223.608,154.897c0-4.763-3.859-8.621-8.62-8.621c-4.759,0-8.618,3.858-8.618,8.621v24.134
		c0,4.765,3.859,8.617,8.618,8.617c4.761,0,8.62-3.852,8.62-8.617V154.897z"/>
	<path style="fill:#FFFFFF;" d="M263.677,154.897c0-4.763-3.859-8.621-8.618-8.621c-4.764,0-8.621,3.858-8.621,8.621v24.134
		c0,4.763,3.857,8.617,8.621,8.617c4.759,0,8.618-3.854,8.618-8.617V154.897z"/>
	<path style="fill:#FFFFFF;" d="M303.746,154.897c0-4.763-3.859-8.621-8.618-8.621c-4.764,0-8.622,3.858-8.622,8.621v24.134
		c0,4.763,3.858,8.617,8.622,8.617c4.759,0,8.618-3.854,8.618-8.617V154.897z"/>
	<rect x="288.729" y="195.515" style="fill:#FFFFFF;" width="12.485" height="12.066"/>
	<rect x="248.663" y="195.515" style="fill:#FFFFFF;" width="12.482" height="12.066"/>
	<rect x="208.593" y="195.515" style="fill:#FFFFFF;" width="12.485" height="12.066"/>
	<rect x="128.458" y="195.515" style="fill:#FFFFFF;" width="12.482" height="12.066"/>
	<rect x="88.39" y="195.515" style="fill:#FFFFFF;" width="12.485" height="12.066"/>
	<rect x="168.527" y="195.515" style="fill:#FFFFFF;" width="12.481" height="12.066"/>
	<path style="fill:#FFFFFF;" d="M51.696,207.581h9.109v-12.066h-9.109c-3.331,0-6.033,2.701-6.033,6.033
		C45.663,204.882,48.365,207.581,51.696,207.581"/>
	<path style="fill:#FFFFFF;" d="M83.216,189.48c0-4.76-3.858-8.619-8.619-8.619c-4.759,0-8.618,3.859-8.618,8.619v24.136
		c0,4.761,3.859,8.62,8.618,8.62c4.761,0,8.619-3.859,8.619-8.62V189.48z"/>
	<path style="fill:#FFFFFF;" d="M106.048,213.618c0,4.758,3.857,8.617,8.616,8.617c4.761,0,8.62-3.859,8.62-8.617v-24.139
		c0-4.76-3.859-8.619-8.62-8.619c-4.759,0-8.616,3.859-8.616,8.619V213.618z"/>
	<path style="fill:#FFFFFF;" d="M163.354,189.48c0-4.76-3.86-8.619-8.621-8.619c-4.759,0-8.619,3.859-8.619,8.619v24.139
		c0,4.758,3.86,8.617,8.619,8.617c4.761,0,8.621-3.859,8.621-8.617V189.48z"/>
	<path style="fill:#FFFFFF;" d="M186.183,213.618c0,4.758,3.859,8.617,8.618,8.617s8.62-3.859,8.62-8.617v-24.139
		c0-4.76-3.861-8.619-8.62-8.619s-8.618,3.859-8.618,8.619V213.618z"/>
	<path style="fill:#FFFFFF;" d="M243.489,189.48c0-4.76-3.859-8.619-8.621-8.619c-4.758,0-8.619,3.859-8.619,8.619v24.139
		c0,4.758,3.861,8.617,8.619,8.617c4.762,0,8.621-3.859,8.621-8.617V189.48z"/>
	<path style="fill:#FFFFFF;" d="M283.556,189.48c0-4.76-3.859-8.617-8.618-8.617c-4.764,0-8.624,3.857-8.624,8.617v24.136
		c0,4.761,3.86,8.62,8.624,8.62c4.759,0,8.618-3.859,8.618-8.62V189.48z"/>
	<path style="fill:#FFFFFF;" d="M306.387,213.616c0,4.76,3.857,8.621,8.618,8.621c4.761,0,8.618-3.861,8.618-8.621V189.48
		c0-4.761-3.857-8.62-8.618-8.62c-4.761,0-8.618,3.859-8.618,8.62V213.616z"/>
	<rect x="148.645" y="230.098" style="fill:#FFFFFF;" width="12.484" height="12.068"/>
	<path style="fill:#FFFFFF;" d="M324.971,236.133c0-3.334-2.702-6.035-6.033-6.035h-10.024v12.068h10.024
		C322.269,242.166,324.971,239.463,324.971,236.133"/>
	<rect x="228.783" y="230.098" style="fill:#FFFFFF;" width="12.485" height="12.068"/>
	<rect x="188.712" y="230.098" style="fill:#FFFFFF;" width="12.485" height="12.068"/>
	<rect x="68.511" y="230.097" style="fill:#FFFFFF;" width="12.483" height="12.068"/>
	<rect x="108.579" y="230.098" style="fill:#FFFFFF;" width="12.481" height="12.068"/>
	<rect x="268.849" y="230.097" style="fill:#FFFFFF;" width="12.487" height="12.068"/>
	<path style="fill:#FFFFFF;" d="M54.72,215.445c-4.761,0-8.62,3.857-8.62,8.619v24.134c0,4.763,3.859,8.624,8.62,8.624
		c4.759,0,8.618-3.861,8.618-8.624v-24.134C63.338,219.302,59.479,215.445,54.72,215.445"/>
	<path style="fill:#FFFFFF;" d="M86.166,248.199c0,4.762,3.862,8.624,8.621,8.624c4.759,0,8.619-3.862,8.619-8.624v-24.134
		c0-4.763-3.86-8.619-8.619-8.619c-4.759,0-8.621,3.856-8.621,8.619V248.199z"/>
	<path style="fill:#FFFFFF;" d="M143.472,248.199v-24.134c0-4.763-3.857-8.619-8.618-8.619c-4.759,0-8.618,3.856-8.618,8.619v24.134
		c0,4.762,3.859,8.624,8.618,8.624C139.615,256.823,143.472,252.961,143.472,248.199"/>
	<path style="fill:#FFFFFF;" d="M166.303,248.199c0,4.762,3.86,8.624,8.617,8.624c4.763,0,8.62-3.862,8.62-8.624v-24.134
		c0-4.763-3.857-8.619-8.62-8.619c-4.757,0-8.617,3.856-8.617,8.619V248.199z"/>
	<path style="fill:#FFFFFF;" d="M223.608,248.199v-24.134c0-4.763-3.859-8.619-8.62-8.619c-4.759,0-8.618,3.856-8.618,8.619v24.134
		c0,4.762,3.859,8.624,8.618,8.624C219.749,256.823,223.608,252.961,223.608,248.199"/>
	<path style="fill:#FFFFFF;" d="M246.44,248.199c0,4.762,3.857,8.624,8.618,8.624c4.759,0,8.618-3.862,8.618-8.624v-24.134
		c0-4.763-3.859-8.619-8.618-8.619c-4.761,0-8.618,3.856-8.618,8.619V248.199z"/>
	<path style="fill:#FFFFFF;" d="M303.746,224.064c0-4.76-3.859-8.617-8.618-8.617c-4.764,0-8.622,3.857-8.622,8.617v24.132
		c0,4.764,3.858,8.626,8.622,8.626c4.759,0,8.618-3.862,8.618-8.626V224.064z"/>
	<rect x="288.729" y="264.68" style="fill:#FFFFFF;" width="12.485" height="12.066"/>
	<rect x="88.39" y="264.68" style="fill:#FFFFFF;" width="12.485" height="12.066"/>
	<path style="fill:#FFFFFF;" d="M51.696,276.746h9.109V264.68h-9.109c-3.331,0-6.033,2.703-6.033,6.033
		C45.663,274.047,48.365,276.746,51.696,276.746"/>
	<rect x="128.458" y="264.68" style="fill:#FFFFFF;" width="12.482" height="12.066"/>
	<rect x="208.593" y="264.68" style="fill:#FFFFFF;" width="12.485" height="12.066"/>
	<rect x="248.664" y="264.68" style="fill:#FFFFFF;" width="12.482" height="12.066"/>
	<rect x="168.527" y="264.68" style="fill:#FFFFFF;" width="12.481" height="12.066"/>
	<path style="fill:#FFFFFF;" d="M83.215,258.647c0-4.763-3.857-8.619-8.616-8.619c-4.761,0-8.621,3.856-8.621,8.619v24.136
		c0,4.763,3.86,8.617,8.621,8.617c4.759,0,8.616-3.854,8.616-8.617V258.647z"/>
	<path style="fill:#FFFFFF;" d="M123.286,258.647c0-4.763-3.859-8.619-8.621-8.619c-4.758,0-8.618,3.856-8.618,8.619v24.136
		c0,4.763,3.86,8.617,8.618,8.617c4.762,0,8.621-3.854,8.621-8.617V258.647z"/>
	<path style="fill:#FFFFFF;" d="M163.354,258.647c0-4.763-3.859-8.619-8.621-8.619c-4.761,0-8.621,3.856-8.621,8.619v24.136
		c0,4.763,3.86,8.617,8.621,8.617c4.762,0,8.621-3.854,8.621-8.617V258.647z"/>
	<path style="fill:#FFFFFF;" d="M186.18,282.784c0,4.762,3.86,8.617,8.62,8.617c4.76,0,8.622-3.855,8.622-8.617v-24.136
		c0-4.763-3.862-8.62-8.622-8.62c-4.76,0-8.62,3.857-8.62,8.62V282.784z"/>
	<path style="fill:#FFFFFF;" d="M243.49,258.647c0-4.763-3.859-8.619-8.62-8.619c-4.762,0-8.622,3.856-8.622,8.619v24.136
		c0,4.763,3.86,8.617,8.622,8.617c4.761,0,8.62-3.854,8.62-8.617V258.647z"/>
	<path style="fill:#FFFFFF;" d="M283.556,258.647c0-4.763-3.859-8.619-8.618-8.619c-4.764,0-8.624,3.856-8.624,8.619v24.136
		c0,4.763,3.86,8.617,8.624,8.617c4.759,0,8.618-3.854,8.618-8.617V258.647z"/>
	<path style="fill:#FFFFFF;" d="M315.005,291.403c4.761,0,8.618-3.857,8.618-8.619v-24.139c0-4.76-3.857-8.617-8.618-8.617
		c-4.761,0-8.618,3.857-8.618,8.617v24.139C306.387,287.546,310.244,291.403,315.005,291.403"/>
	<path style="fill:#FFFFFF;" d="M324.971,305.302c0-3.334-2.702-6.033-6.033-6.033h-10.024v12.066h10.024
		C322.269,311.335,324.971,308.632,324.971,305.302"/>
	<rect x="268.849" y="299.269" style="fill:#FFFFFF;" width="12.487" height="12.064"/>
	<rect x="188.712" y="299.27" style="fill:#FFFFFF;" width="12.485" height="12.064"/>
	<rect x="228.781" y="299.269" style="fill:#FFFFFF;" width="12.485" height="12.064"/>
	<rect x="108.579" y="299.269" style="fill:#FFFFFF;" width="12.481" height="12.064"/>
	<rect x="148.645" y="299.27" style="fill:#FFFFFF;" width="12.484" height="12.064"/>
	<rect x="68.511" y="299.269" style="fill:#FFFFFF;" width="12.483" height="12.064"/>
	<path style="fill:#FFFFFF;" d="M54.721,325.988c4.759,0,8.618-3.859,8.618-8.619v-24.137c0-4.757-3.859-8.619-8.618-8.619
		c-4.764,0-8.624,3.862-8.624,8.619v24.137C46.097,322.129,49.957,325.988,54.721,325.988"/>
	<path style="fill:#FFFFFF;" d="M94.789,325.988c4.759,0,8.618-3.859,8.618-8.619v-24.137c0-4.757-3.859-8.619-8.618-8.619
		c-4.761,0-8.624,3.862-8.624,8.619v24.137C86.165,322.129,90.028,325.988,94.789,325.988"/>
	<path style="fill:#FFFFFF;" d="M126.233,317.368c0,4.76,3.86,8.619,8.621,8.619c4.762,0,8.618-3.859,8.618-8.619v-24.136
		c0-4.758-3.856-8.62-8.618-8.62c-4.761,0-8.621,3.862-8.621,8.62V317.368z"/>
	<path style="fill:#FFFFFF;" d="M174.919,325.988c4.765,0,8.621-3.859,8.621-8.619v-24.137c0-4.757-3.856-8.619-8.621-8.619
		c-4.756,0-8.618,3.862-8.618,8.619v24.137C166.301,322.129,170.163,325.988,174.919,325.988"/>
	<path style="fill:#FFFFFF;" d="M223.609,317.368v-24.136c0-4.758-3.859-8.62-8.621-8.62c-4.758,0-8.621,3.862-8.621,8.62v24.136
		c0,4.76,3.863,8.619,8.621,8.619C219.75,325.987,223.609,322.128,223.609,317.368"/>
	<path style="fill:#FFFFFF;" d="M255.059,325.988c4.759,0,8.618-3.859,8.618-8.619v-24.137c0-4.757-3.859-8.619-8.618-8.619
		c-4.764,0-8.621,3.862-8.621,8.619v24.137C246.438,322.129,250.295,325.988,255.059,325.988"/>
	<path style="fill:#FFFFFF;" d="M295.128,325.988c4.759,0,8.618-3.859,8.618-8.619v-24.137c0-4.757-3.859-8.619-8.618-8.619
		c-4.763,0-8.621,3.862-8.621,8.619v24.137C286.507,322.129,290.365,325.988,295.128,325.988"/>
</g>
</svg>
