<?xml version="1.0" encoding="iso-8859-1"?>
<!-- Generator: Adobe Illustrator 25.4.1, SVG Export Plug-In . SVG Version: 6.00 Build 0)  -->
<svg version="1.1" id="Calque_1" xmlns="http://www.w3.org/2000/svg" xmlns:xlink="http://www.w3.org/1999/xlink" x="0px" y="0px"
	 viewBox="0 0 368.5 368.5" style="enable-background:new 0 0 368.5 368.5;" xml:space="preserve">
<g>
	<path style="fill:#FFFFFF;" d="M315.855,205.193h-63.996c-0.451,0-0.818-0.367-0.818-0.816v-3.319c0-0.452,0.367-0.816,0.818-0.816
		h54.253c6.007,0,10.9-3.963,10.9-8.834c0-3.476-2.492-6.479-6.092-7.923c-1.3,0.302-2.652,0.477-4.052,0.477l-82.229,0.033
		l7.257,3.165c5.56,1.916,9.279,7.104,9.279,12.993c0,1.402-0.22,2.803-0.658,4.205c-1.843,5.691-7.097,9.517-13.073,9.517
		c-1.375,0-2.784-0.213-4.079-0.615c-0.167-0.054-0.324-0.112-0.48-0.179l-71.748-30.853c-0.208-0.089-0.409-0.192-0.603-0.313
		c-1.784-0.963-3.425-2.244-4.872-3.782c-0.227,0.246-0.462,0.488-0.7,0.726c-4.06,4.002-9.436,6.213-15.137,6.213h-86.24v61.654
		h86.24c4.565,0,8.695-1.833,11.705-4.807c1.799-1.777,3.188-3.97,4.032-6.416c1.542,3.841,4.115,6.981,7.413,8.72
		c0.032,0.022,0.066,0.041,0.093,0.059l71.748,30.85c0.804,0.253,1.711,0.396,2.628,0.396c3.851,0,7.235-2.464,8.425-6.134
		c0.275-0.875,0.419-1.788,0.419-2.7c0-3.852-2.471-7.243-6.146-8.431l-25.322-11.042c-0.348-0.154-0.558-0.531-0.469-0.912
		c0.078-0.38,0.413-0.654,0.795-0.654l101.718-0.039c6.011,0,10.904-3.965,10.904-8.835c0-4.879-4.893-8.85-10.904-8.85h-55.005
		c-0.451,0-0.818-0.361-0.818-0.812v-3.441c0-0.449,0.367-0.818,0.818-0.818h63.996c6.174,0,11.193-3.957,11.193-8.833
		C327.048,209.154,322.029,205.193,315.855,205.193 M139.051,187.659v1.64c-0.095-0.257-0.17-0.53-0.17-0.821
		C138.881,188.19,138.956,187.918,139.051,187.659 M148.895,220.229h-7.568c-1.349,0-2.446-1.091-2.446-2.44
		c0-1.348,1.097-2.443,2.446-2.443h7.568c1.348,0,2.443,1.095,2.443,2.443C151.338,219.138,150.243,220.229,148.895,220.229
		 M148.895,205.576h-7.568c-1.349,0-2.446-1.097-2.446-2.443c0-1.35,1.097-2.442,2.446-2.442h7.568c1.348,0,2.443,1.092,2.443,2.442
		C151.338,204.479,150.243,205.576,148.895,205.576"/>
	<path style="fill:#FFFFFF;" d="M315.855,138.651h-63.996c-0.451,0-0.818-0.365-0.818-0.816v-3.318c0-0.451,0.367-0.816,0.818-0.816
		h54.253c6.009,0,10.902-3.965,10.902-8.839c0-4.87-4.893-8.836-10.902-8.836h-54.253c-0.451,0-0.818-0.363-0.818-0.814v-2.902
		c0-0.448,0.367-0.813,0.818-0.813h23.323c4.738,0,8.589-3.962,8.589-8.835c0-4.878-3.851-8.844-8.589-8.844H158.654
		c-5.759,0-10.738,4.197-13.141,10.276c-0.86-2.425-2.251-4.598-4.06-6.354c-3.002-2.93-7.099-4.738-11.626-4.738H43.585v66.539
		v20.643h86.242c4.561,0,8.691-1.832,11.701-4.803c1.803-1.78,3.188-3.974,4.036-6.421c1.538,3.842,4.113,6.976,7.41,8.721
		c0.033,0.019,0.067,0.041,0.093,0.06l71.747,30.853c0.807,0.251,1.715,0.393,2.63,0.393c3.853,0,7.235-2.462,8.425-6.135
		c0.277-0.875,0.421-1.787,0.421-2.7c0-3.851-2.473-7.243-6.149-8.429l-25.321-11.045c-0.35-0.151-0.558-0.529-0.469-0.911
		c0.078-0.38,0.415-0.653,0.797-0.653l101.718-0.04c6.01,0,10.9-3.964,10.9-8.835c0-4.881-4.89-8.849-10.9-8.849h-55.007
		c-0.451,0-0.818-0.361-0.818-0.812v-3.442c0-0.45,0.367-0.815,0.818-0.815h63.996c6.172,0,11.195-3.963,11.195-8.835
		C327.05,142.614,322.027,138.651,315.855,138.651 M148.897,153.685h-7.57c-1.349,0-2.444-1.089-2.444-2.437
		c0-1.349,1.095-2.444,2.444-2.444h7.57c1.347,0,2.442,1.095,2.442,2.444C151.339,152.596,150.244,153.685,148.897,153.685
		 M148.897,139.033h-7.57c-1.349,0-2.444-1.094-2.444-2.444c0-1.346,1.095-2.437,2.444-2.437h7.57c1.347,0,2.442,1.091,2.442,2.437
		C151.339,137.939,150.244,139.033,148.897,139.033 M148.897,124.382h-7.57c-1.349,0-2.444-1.095-2.444-2.443
		c0-1.349,1.095-2.446,2.444-2.446h7.57c1.347,0,2.442,1.097,2.442,2.446C151.339,123.287,150.244,124.382,148.897,124.382"/>
</g>
</svg>
