<?xml version="1.0" encoding="iso-8859-1"?>
<!-- Generator: Adobe Illustrator 25.4.1, SVG Export Plug-In . SVG Version: 6.00 Build 0)  -->
<svg version="1.1" id="Calque_1" xmlns="http://www.w3.org/2000/svg" xmlns:xlink="http://www.w3.org/1999/xlink" x="0px" y="0px"
	 viewBox="0 0 368.5 368.5" style="enable-background:new 0 0 368.5 368.5;" xml:space="preserve">
<g>
	<path style="fill:#FFFFFF;" d="M315.96,300.783h-18.613h-5.99c-0.2-12.675-0.594-33.721-1.265-55.81
		c-0.969-31.939,6.385-79.01,14.682-112.438c-5.32,11.628-12.459,28.927-19.281,47.967c-5.925,16.533-10.304,39.32-13.409,61.093
		c0.634,24.787,2.931,48.427,4.099,59.188h-6.036c-2.109-19.284-7.29-74.6-1.829-110.245c1.378-8.987,2.061-14.845,2.373-18.664
		c-2.436,5.357-6.365,15.157-12.695,32.924c-13.849,38.877-11.467,83.146-10.39,95.985h-6.028
		c-0.982-11.476-2.686-43.493,4.729-76.786c0.081-8.509,0.583-16.698,1.821-23.494c2.344-12.87,6.976-25.153,12.338-39.378
		c6.449-17.104,13.756-36.486,19.939-63.639c-2.594,5.841-5.566,12.813-8.368,19.389c-6.796,15.942-14.497,34.012-20.816,46.23
		c-8.445,16.327-17.555,43.973-24.679,68.029c-0.215,2.804-0.414,5.62-0.586,8.474c-1.461,24.085-1.653,49.759-1.657,61.175h-5.989
		c0.005-11.496,0.2-37.31,1.669-61.537c1.841-30.398,5.709-57.479,18.598-90.847c4.169-10.79,5.838-16.4,6.456-19.315
		c-1.253,1.061-3.092,2.774-5.795,5.535c-11.263,11.507-27.262,36.682-38.388,72.822c-9.283,30.146-11.654,77.408-12.203,93.342
		h-6.005c0.431-13.354,2.117-48.8,8.276-78.402c-0.549-6.871-1.016-13.893-1.364-20.987c-2.846-58.054,2.413-89.804,9.073-130.001
		l0.297-1.795c0.672-4.055,0.984-6.895,1.11-8.874c-5.566,9.948-16.178,39.097-22.494,76.014
		c-9.254,54.073-5.029,146.071-4.084,164.045h-5.996c-0.758-14.541-3.39-72.398-0.302-123.057
		c-8.374-47.123-18.071-72.894-34.098-115.466l-2.569-6.829c-1.444-3.84-2.608-6.688-3.536-8.795
		c1.015,14.768,7.25,51.876,18.613,110.742c4.36,22.582,7.106,46.683,8.832,69.029c7.167,31.417,10.528,63.151,11.317,74.376h-6.008
		c-1.138-15.437-7.362-70.852-21.386-108.397c-14.616-39.137-30.506-55.59-52.827-75.265c0.976,1.772,2.039,3.672,3.091,5.552
		c8.749,15.628,23.391,41.787,32.713,70.51c16.142,49.741,13.556,97.599,12.783,107.6h-6.006c0.635-7.766,3.262-49.913-9.517-95.913
		c-14.37-31.635-33.028-61.771-45.93-81.176c-7.473-11.236-11.91-16.681-14.418-19.317c1.569,6.127,6.764,20.077,20.646,46.901
		c11.523,22.263,18.126,49.738,21.913,74.784c0.724,2.156,1.439,4.345,2.136,6.599c6.895,22.289,11.993,53.696,14.126,68.122h-6.053
		c-2.179-14.611-7.147-44.86-13.794-66.352c-9.112-29.462-19.908-49.235-38.505-70.528c-0.079-0.09-0.158-0.18-0.235-0.267
		c1.681,5.517,4.881,14.016,7.627,21.307c4.847,12.872,10.341,27.461,13.533,39.534c7.237,27.374,11.248,63.765,12.485,76.306
		h-6.018H52.555c-5.537,0-10.029,4.725-10.029,10.556c0,5.831,4.492,10.556,10.029,10.556h198.748h2.274h62.383
		c5.539,0,10.031-4.725,10.031-10.556C325.991,305.508,321.499,300.783,315.96,300.783"/>
</g>
</svg>
