<?xml version="1.0" encoding="iso-8859-1"?>
<!-- Generator: Adobe Illustrator 25.4.1, SVG Export Plug-In . SVG Version: 6.00 Build 0)  -->
<svg version="1.1" id="Calque_1" xmlns="http://www.w3.org/2000/svg" xmlns:xlink="http://www.w3.org/1999/xlink" x="0px" y="0px"
	 viewBox="0 0 368.5 368.5" style="enable-background:new 0 0 368.5 368.5;" xml:space="preserve">
<g>
	<path style="fill:#FFFFFF;" d="M323.785,283.564V84.956c0-23.396-19.611-42.43-43.715-42.43H90.616
		c-24.103,0-43.713,19.034-43.713,42.43v198.608c0,23.393,19.61,42.427,43.713,42.427H280.07
		C304.174,325.991,323.785,306.957,323.785,283.564 M261.008,269.65c-0.577-0.337-1.239-0.545-1.957-0.545H112.587
		c-0.643,0-1.24,0.17-1.775,0.446c-9.03-7.964-16.786-17.33-22.931-27.763h196.173C277.883,252.264,270.088,261.666,261.008,269.65
		 M251.875,276.892c-18.612,13.277-41.354,21.122-65.907,21.122c-24.554,0-47.296-7.845-65.908-21.122H251.875z M287.049,234.001
		H83.682h-0.006c-4.184-8.565-7.322-17.728-9.249-27.325h223.081c-1.941,9.668-5.114,18.889-9.342,27.507
		C287.81,234.077,287.439,234.001,287.049,234.001 M72.195,184.243c0-4.311,0.263-8.56,0.732-12.747
		c0.237,0.046,0.481,0.073,0.73,0.073h225.359c0.464,4.165,0.724,8.388,0.724,12.674c0,4.966-0.355,9.848-0.975,14.646H73.657
		c-0.165,0-0.322,0.028-0.481,0.048C72.552,194.124,72.195,189.227,72.195,184.243 M109.864,101.351h150.301
		c0.991,0,1.885-0.38,2.572-0.991c8.905,8.157,16.494,17.715,22.452,28.311H86.746c5.788-10.294,13.125-19.597,21.701-27.594
		C108.888,101.25,109.364,101.351,109.864,101.351 M117.354,93.564c19.09-14.479,42.862-23.092,68.614-23.092
		s49.524,8.613,68.613,23.092H117.354z M83.533,136.457h204.612c0.339,0,0.661-0.055,0.973-0.136
		c4.024,8.623,6.987,17.832,8.743,27.462H74.073c1.753-9.607,4.707-18.793,8.716-27.401C83.03,136.43,83.278,136.457,83.533,136.457
		 M291.784,87.62c-5.149,0-9.33-4.177-9.33-9.328c0-5.156,4.181-9.331,9.33-9.331c5.159,0,9.332,4.175,9.332,9.331
		C301.116,83.443,296.943,87.62,291.784,87.62 M80.264,87.671c-5.149,0-9.323-4.18-9.323-9.331c0-5.153,4.174-9.333,9.323-9.333
		c5.161,0,9.34,4.18,9.34,9.333C89.604,83.491,85.425,87.671,80.264,87.671 M80.264,279.837c5.161,0,9.34,4.175,9.34,9.331
		c0,5.148-4.179,9.328-9.34,9.328c-5.149,0-9.323-4.18-9.323-9.328C70.941,284.012,75.115,279.837,80.264,279.837 M291.784,279.845
		c5.159,0,9.332,4.175,9.332,9.331c0,5.153-4.173,9.328-9.332,9.328c-5.149,0-9.33-4.175-9.33-9.328
		C282.454,284.02,286.635,279.845,291.784,279.845"/>
</g>
</svg>
