<?xml version="1.0" encoding="iso-8859-1"?>
<!-- Generator: Adobe Illustrator 25.4.1, SVG Export Plug-In . SVG Version: 6.00 Build 0)  -->
<svg version="1.1" id="Calque_1" xmlns="http://www.w3.org/2000/svg" xmlns:xlink="http://www.w3.org/1999/xlink" x="0px" y="0px"
	 viewBox="0 0 368.5 368.5" style="enable-background:new 0 0 368.5 368.5;" xml:space="preserve">
<g>
	<path style="fill:#FFFFFF;" d="M289.456,95.108l-5.791-5.789h-7.797l9.691,9.687c2.843,2.845,6.761,4.476,10.748,4.476
		c1.068,0,2.107-0.152,3.125-0.373v-5.756c-1.012,0.367-2.083,0.579-3.185,0.579C293.685,97.932,291.276,96.928,289.456,95.108"/>
	<path style="fill:#FFFFFF;" d="M183.455,103.484c2.764,0,5.428-0.768,7.703-2.225c0.425-0.272,1.902-1.248,2.906-2.249l5.579-5.582
		l-3.895-3.895l-5.582,5.579c-0.563,0.563-1.355,1.102-1.78,1.373c-1.479,0.948-3.205,1.449-4.989,1.449
		c-2.562,0-4.975-1.002-6.795-2.822l-5.793-5.793h-7.795l9.688,9.691C175.548,101.851,179.466,103.484,183.455,103.484"/>
	<path style="fill:#FFFFFF;" d="M239.877,122.881h0.004c2.764,0,5.428-0.768,7.705-2.221c0.423-0.274,1.894-1.243,2.906-2.253
		l5.579-5.578l-3.897-3.897l-5.58,5.579c-0.533,0.531-1.261,1.038-1.78,1.371c-1.479,0.948-3.205,1.449-4.993,1.449
		c-2.562,0-4.975-1.004-6.795-2.82l-19.85-19.852l0.008-0.012l-5.331-5.328h-7.794l9.942,9.942l-0.008,0.008l19.14,19.138
		C231.974,121.251,235.892,122.881,239.877,122.881"/>
	<polygon style="fill:#FFFFFF;" points="260.597,100.506 264.494,104.405 275.452,93.426 271.555,89.528 	"/>
	<path style="fill:#FFFFFF;" d="M269.631,114.068l-19.14-19.14c-2.848-2.85-6.641-4.418-10.68-4.418s-7.829,1.568-10.679,4.418
		l-5.582,5.578l3.9,3.899l5.576-5.579c1.808-1.812,4.218-2.806,6.785-2.806c2.566,0,4.973,0.994,6.783,2.806l19.832,19.832
		l-0.01,0.008l19.142,19.138c2.844,2.846,6.761,4.476,10.749,4.476c1.067,0,2.105-0.15,3.125-0.373v-5.755
		c-1.014,0.367-2.082,0.578-3.184,0.578c-2.562,0-4.974-1.001-6.793-2.822l-19.832-19.832L269.631,114.068z"/>
	<path style="fill:#FFFFFF;" d="M296.239,115.42c1.109,0,2.177,0.219,3.193,0.579v-5.744c-1.036-0.223-2.105-0.345-3.193-0.345
		c-4.039,0-7.835,1.567-10.681,4.416l-5.579,5.58l3.897,3.9l5.58-5.582C291.264,116.414,293.673,115.42,296.239,115.42"/>
	<path style="fill:#FFFFFF;" d="M78.302,101.261c0.551-0.351,1.936-1.277,2.908-2.249l5.579-5.584l-3.897-3.895l-5.58,5.577
		c-0.569,0.571-1.361,1.108-1.78,1.377c-1.479,0.946-3.205,1.445-4.991,1.445c-0.489,0-0.968-0.068-1.443-0.139v5.615
		c0.497,0.048,0.994,0.076,1.501,0.076C73.363,103.484,76.025,102.716,78.302,101.261"/>
	<path style="fill:#FFFFFF;" d="M97.125,99.241l-0.008,0.008l19.16,19.16c2.843,2.844,6.763,4.472,10.75,4.472
		c2.762,0,5.428-0.766,7.703-2.219c0.427-0.274,1.9-1.245,2.908-2.253l5.579-5.58l-3.897-3.897l-5.58,5.579
		c-0.572,0.571-1.363,1.106-1.78,1.373c-1.478,0.946-3.205,1.449-4.993,1.449c-2.562,0-4.973-1.004-6.793-2.822l-19.832-19.832
		l0.008-0.008l-5.354-5.352h-7.793L97.125,99.241z"/>
	
		<rect x="147.415" y="94.212" transform="matrix(0.7068 -0.7074 0.7074 0.7068 -23.1026 138.1929)" style="fill:#FFFFFF;" width="15.512" height="5.513"/>
	<path style="fill:#FFFFFF;" d="M120.174,98.83c1.81-1.814,4.219-2.808,6.783-2.808c2.566,0,4.975,0.994,6.783,2.808l19.83,19.832
		l-0.006,0.004l19.14,19.142c2.844,2.844,6.761,4.474,10.747,4.474c2.768,0,5.432-0.77,7.707-2.223
		c0.425-0.273,1.9-1.243,2.907-2.251l5.578-5.579l-3.895-3.898l-5.584,5.58c-0.561,0.561-1.353,1.099-1.78,1.373
		c-1.475,0.948-3.203,1.449-4.987,1.449c-2.563,0-4.975-1.002-6.797-2.822l-19.831-19.833l0.008-0.01l-19.141-19.137
		c-2.846-2.852-6.642-4.419-10.679-4.419c-4.039,0-7.833,1.567-10.681,4.419l-5.579,5.577l3.897,3.898L120.174,98.83z"/>
	
		<rect x="203.842" y="113.612" transform="matrix(0.7066 -0.7076 0.7076 0.7066 -20.26 183.8749)" style="fill:#FFFFFF;" width="15.511" height="5.513"/>
	<path style="fill:#FFFFFF;" d="M176.6,118.225c1.81-1.81,4.219-2.806,6.785-2.806c2.564,0,4.971,0.996,6.781,2.806L210,138.059
		l-0.007,0.008l19.139,19.14c2.842,2.84,6.759,4.47,10.747,4.47c2.766,0,5.43-0.768,7.705-2.219c0.427-0.273,1.9-1.241,2.907-2.251
		l5.58-5.579l-3.897-3.898l-5.582,5.58c-0.529,0.529-1.261,1.04-1.78,1.373c-1.477,0.946-3.203,1.447-4.989,1.447
		c-2.564,0-4.977-1.002-6.795-2.82l-19.853-19.854l0.01-0.01l-19.121-19.12c-2.848-2.848-6.642-4.417-10.679-4.417
		c-4.041,0-7.833,1.569-10.683,4.417l-5.577,5.579l3.897,3.9L176.6,118.225z"/>
	
		<rect x="260.269" y="133.011" transform="matrix(0.7065 -0.7078 0.7078 0.7065 -17.4133 229.5475)" style="fill:#FFFFFF;" width="15.512" height="5.51"/>
	<path style="fill:#FFFFFF;" d="M299.432,174.951c-1.012,0.367-2.084,0.577-3.185,0.577c-2.562,0-4.975-1-6.791-2.822l-19.833-19.83
		l0.008-0.008l-19.14-19.142c-2.847-2.846-6.641-4.413-10.68-4.413s-7.829,1.567-10.678,4.413l-5.582,5.581l3.899,3.898l5.578-5.582
		c1.808-1.806,4.217-2.804,6.783-2.804c2.566,0,4.975,0.998,6.783,2.804l19.833,19.835l-0.008,0.008l19.139,19.141
		c2.842,2.84,6.762,4.475,10.749,4.475c1.067,0,2.105-0.15,3.125-0.374V174.951z"/>
	<path style="fill:#FFFFFF;" d="M299.432,149.054c-1.036-0.222-2.105-0.345-3.193-0.345c-4.039,0-7.835,1.568-10.681,4.418
		l-5.579,5.58l3.897,3.897l5.58-5.582c1.808-1.808,4.217-2.805,6.783-2.805c1.109,0,2.177,0.221,3.193,0.578V149.054z"/>
	
		<rect x="90.988" y="113.613" transform="matrix(0.7065 -0.7077 0.7077 0.7065 -53.3742 104.0311)" style="fill:#FFFFFF;" width="15.511" height="5.513"/>
	<path style="fill:#FFFFFF;" d="M69.099,142.207c0.497,0.052,0.994,0.076,1.501,0.076c2.764,0,5.426-0.771,7.703-2.221
		c0.429-0.278,1.902-1.246,2.907-2.253l5.58-5.58l-3.897-3.898l-5.58,5.582c-0.569,0.565-1.361,1.102-1.78,1.369
		c-1.479,0.95-3.205,1.449-4.991,1.449c-0.489,0-0.968-0.068-1.443-0.14V142.207z"/>
	<path style="fill:#FFFFFF;" d="M69.099,115.559c0.471-0.068,0.946-0.14,1.433-0.14c2.568,0,4.975,0.996,6.785,2.808l19.808,19.811
		l-0.008,0.01l19.16,19.159c2.844,2.844,6.763,4.475,10.751,4.475c2.764,0,5.428-0.769,7.703-2.222
		c0.427-0.271,1.899-1.245,2.907-2.253l5.582-5.579l-3.899-3.898l-5.58,5.58c-0.571,0.565-1.359,1.104-1.78,1.375
		c-1.479,0.946-3.205,1.447-4.993,1.447c-2.563,0-4.973-1.002-6.793-2.822l-19.833-19.832l0.008-0.01L81.21,114.33
		c-2.847-2.852-6.639-4.418-10.678-4.418c-0.481,0-0.962,0.026-1.433,0.071V115.559z"/>
	
		<rect x="147.415" y="133.012" transform="matrix(0.707 -0.7072 0.7072 0.707 -50.5525 149.5151)" style="fill:#FFFFFF;" width="15.513" height="5.513"/>
	<path style="fill:#FFFFFF;" d="M126.957,129.311c-4.041,0-7.833,1.569-10.682,4.418l-5.578,5.58l3.897,3.897l5.58-5.579
		c1.81-1.81,4.219-2.806,6.783-2.806c2.566,0,4.975,0.996,6.783,2.806l19.812,19.81l-0.009,0.01l19.161,19.16
		c2.844,2.844,6.761,4.472,10.747,4.472c2.768,0,5.432-0.768,7.707-2.223c0.425-0.271,1.898-1.239,2.907-2.249l5.578-5.582
		l-3.895-3.897l-5.584,5.582c-0.561,0.56-1.353,1.101-1.78,1.373c-1.475,0.945-3.203,1.448-4.989,1.448
		c-2.563,0-4.977-1.003-6.795-2.821l-19.831-19.833l0.008-0.008l-19.141-19.14C134.79,130.88,130.994,129.311,126.957,129.311"/>
	
		<rect x="203.841" y="152.412" transform="matrix(0.7071 -0.7071 0.7071 0.7071 -47.745 195.0704)" style="fill:#FFFFFF;" width="15.513" height="5.512"/>
	<path style="fill:#FFFFFF;" d="M183.385,148.708c-4.041,0-7.833,1.571-10.683,4.42l-5.577,5.58l3.897,3.897l5.578-5.579
		c1.81-1.81,4.219-2.808,6.785-2.808c2.564,0,4.971,0.998,6.781,2.808L210,176.858l-0.008,0.006l19.14,19.142
		c2.842,2.842,6.759,4.472,10.747,4.472c2.766,0,5.43-0.768,7.705-2.221c0.427-0.273,1.9-1.243,2.907-2.251l5.58-5.58l-3.897-3.897
		l-5.582,5.578c-0.529,0.53-1.261,1.041-1.78,1.375c-1.477,0.947-3.203,1.448-4.989,1.448c-2.564,0-4.977-1.003-6.795-2.823
		l-19.853-19.851l0.01-0.01l-19.121-19.118C191.216,150.279,187.422,148.708,183.385,148.708"/>
	
		<rect x="260.27" y="171.81" transform="matrix(0.7065 -0.7078 0.7078 0.7065 -44.8737 240.9366)" style="fill:#FFFFFF;" width="15.51" height="5.512"/>
	<path style="fill:#FFFFFF;" d="M299.432,213.749c-1.012,0.367-2.084,0.577-3.185,0.577c-2.562,0-4.975-1.002-6.791-2.82
		l-19.813-19.812l0.008-0.008l-19.16-19.162c-2.847-2.846-6.641-4.414-10.68-4.414s-7.829,1.568-10.678,4.414l-5.582,5.582
		l3.899,3.897l5.578-5.582c1.808-1.806,4.217-2.804,6.783-2.804c2.566,0,4.975,0.998,6.783,2.804l19.833,19.835l-0.008,0.008
		l19.139,19.141c2.842,2.84,6.762,4.475,10.749,4.475c1.067,0,2.105-0.15,3.125-0.374V213.749z"/>
	
		<rect x="260.27" y="210.609" transform="matrix(0.7065 -0.7077 0.7077 0.7065 -72.3374 252.2946)" style="fill:#FFFFFF;" width="15.51" height="5.511"/>
	<path style="fill:#FFFFFF;" d="M299.432,187.85c-1.036-0.219-2.105-0.343-3.193-0.343c-4.039,0-7.835,1.568-10.681,4.418
		l-5.579,5.58l3.897,3.895l5.58-5.577c1.808-1.811,4.217-2.806,6.783-2.806c1.109,0,2.177,0.217,3.193,0.576V187.85z"/>
	
		<rect x="90.988" y="152.412" transform="matrix(0.7065 -0.7077 0.7077 0.7065 -80.8318 115.4176)" style="fill:#FFFFFF;" width="15.512" height="5.512"/>
	<path style="fill:#FFFFFF;" d="M69.099,181.005c0.497,0.048,0.994,0.074,1.501,0.074c2.764,0,5.426-0.768,7.703-2.221
		c0.429-0.274,1.902-1.242,2.907-2.249l5.58-5.582l-3.897-3.896l-5.58,5.58c-0.569,0.567-1.361,1.104-1.78,1.371
		c-1.479,0.946-3.205,1.449-4.991,1.449c-0.489,0-0.968-0.072-1.443-0.142V181.005z"/>
	<path style="fill:#FFFFFF;" d="M69.099,154.36c0.471-0.072,0.946-0.142,1.433-0.142c2.568,0,4.975,0.996,6.785,2.808l19.808,19.811
		l-0.008,0.01l19.16,19.159c2.844,2.844,6.763,4.475,10.749,4.475c2.766,0,5.43-0.769,7.705-2.221
		c0.429-0.278,1.902-1.248,2.907-2.254l5.582-5.579l-3.899-3.898l-5.58,5.578c-0.571,0.569-1.359,1.106-1.78,1.375
		c-1.479,0.948-3.205,1.449-4.993,1.449c-2.563,0-4.973-1.002-6.793-2.824l-19.833-19.83l0.008-0.01l-19.14-19.138
		c-2.847-2.848-6.639-4.418-10.678-4.418c-0.481,0-0.962,0.025-1.433,0.069V154.36z"/>
	
		<rect x="147.415" y="171.811" transform="matrix(0.7069 -0.7073 0.7073 0.7069 -77.9931 160.9128)" style="fill:#FFFFFF;" width="15.513" height="5.514"/>
	<path style="fill:#FFFFFF;" d="M126.957,168.108c-4.041,0-7.833,1.57-10.682,4.418l-5.578,5.582l3.897,3.899l5.58-5.581
		c1.81-1.81,4.219-2.806,6.783-2.806c2.566,0,4.975,0.996,6.783,2.806l19.812,19.81l-0.009,0.008l19.161,19.162
		c2.844,2.842,6.761,4.472,10.747,4.472h0.004c2.764,0,5.428-0.768,7.703-2.219c0.425-0.275,1.9-1.251,2.907-2.253l5.578-5.582
		l-3.895-3.897l-5.584,5.582c-0.567,0.568-1.357,1.101-1.78,1.372c-1.475,0.948-3.203,1.447-4.989,1.447
		c-2.563,0-4.977-1.002-6.795-2.819l-19.831-19.833l0.008-0.008l-19.141-19.142C134.79,169.678,130.994,168.108,126.957,168.108"/>
	
		<rect x="203.842" y="191.21" transform="matrix(0.707 -0.7072 0.7072 0.707 -75.1777 206.4715)" style="fill:#FFFFFF;" width="15.513" height="5.513"/>
	
		<rect x="147.415" y="210.61" transform="matrix(0.7069 -0.7073 0.7073 0.7069 -105.4344 172.2835)" style="fill:#FFFFFF;" width="15.512" height="5.512"/>
	<path style="fill:#FFFFFF;" d="M183.385,187.507c-4.039,0-7.833,1.571-10.681,4.42l-5.579,5.58l3.897,3.897l5.576-5.579
		c1.812-1.81,4.221-2.806,6.787-2.806c2.564,0,4.973,0.996,6.781,2.806L210,215.657l-0.008,0.008l19.138,19.14
		c2.844,2.842,6.761,4.472,10.751,4.472c2.764,0,5.426-0.768,7.703-2.223c0.427-0.271,1.893-1.237,2.907-2.249l5.58-5.582
		l-3.897-3.895l-5.582,5.578c-0.529,0.532-1.259,1.039-1.778,1.373c-1.479,0.95-3.205,1.45-4.991,1.45
		c-2.564,0-4.975-1.001-6.795-2.823l-19.831-19.831l0.008-0.008l-19.14-19.14C191.216,189.078,187.422,187.507,183.385,187.507"/>
	
		<rect x="203.842" y="230.009" transform="matrix(0.7067 -0.7075 0.7075 0.7067 -102.6214 217.96)" style="fill:#FFFFFF;" width="15.513" height="5.512"/>
	<path style="fill:#FFFFFF;" d="M299.432,252.548c-1.012,0.367-2.084,0.577-3.185,0.577c-2.562,0-4.975-1-6.791-2.82l-19.813-19.813
		l0.008-0.008l-19.16-19.159c-2.847-2.848-6.641-4.417-10.68-4.417s-7.829,1.569-10.678,4.417l-5.582,5.579l3.899,3.896l5.578-5.578
		c1.808-1.808,4.217-2.808,6.783-2.808c2.566,0,4.975,1,6.783,2.808l19.833,19.832l-0.008,0.01l19.139,19.14
		c2.844,2.842,6.762,4.475,10.749,4.475c1.067,0,2.107-0.15,3.125-0.374V252.548z"/>
	
		<rect x="260.269" y="249.408" transform="matrix(0.7064 -0.7078 0.7078 0.7064 -99.7927 263.748)" style="fill:#FFFFFF;" width="15.511" height="5.512"/>
	<path style="fill:#FFFFFF;" d="M299.432,226.651c-1.036-0.222-2.105-0.343-3.193-0.343c-4.039,0-7.835,1.57-10.681,4.416
		l-5.579,5.58l3.897,3.895l5.58-5.578c1.808-1.809,4.217-2.805,6.783-2.805c1.109,0,2.177,0.219,3.193,0.576V226.651z"/>
	
		<rect x="90.988" y="191.211" transform="matrix(0.7065 -0.7077 0.7077 0.7065 -108.289 126.804)" style="fill:#FFFFFF;" width="15.512" height="5.512"/>
	<path style="fill:#FFFFFF;" d="M69.099,219.804c0.497,0.05,0.994,0.074,1.501,0.074c2.766,0,5.426-0.768,7.703-2.219
		c0.429-0.274,1.904-1.247,2.907-2.251l5.58-5.58l-3.897-3.897l-5.58,5.579c-0.575,0.573-1.365,1.106-1.78,1.371
		c-1.479,0.948-3.205,1.447-4.991,1.447c-0.489,0-0.968-0.07-1.443-0.142V219.804z"/>
	<path style="fill:#FFFFFF;" d="M69.099,193.159c0.471-0.072,0.946-0.14,1.433-0.14c2.568,0,4.975,0.998,6.785,2.806l19.808,19.813
		l-0.008,0.008l19.16,19.159c2.844,2.844,6.763,4.472,10.749,4.472c2.766,0,5.43-0.766,7.705-2.219
		c0.427-0.275,1.897-1.241,2.907-2.253l5.582-5.579l-3.899-3.898l-5.58,5.578c-0.571,0.569-1.359,1.106-1.78,1.375
		c-1.479,0.948-3.205,1.449-4.993,1.449c-2.563,0-4.973-1.004-6.793-2.824l-19.833-19.83l0.008-0.009l-19.14-19.139
		c-2.847-2.848-6.639-4.419-10.678-4.419c-0.481,0-0.962,0.026-1.433,0.07V193.159z"/>
	
		<rect x="90.988" y="230.009" transform="matrix(0.7065 -0.7078 0.7078 0.7065 -135.7543 138.2114)" style="fill:#FFFFFF;" width="15.512" height="5.512"/>
	<path style="fill:#FFFFFF;" d="M126.957,206.908c-4.041,0-7.833,1.567-10.682,4.418l-5.578,5.578l3.897,3.897l5.58-5.579
		c1.808-1.81,4.219-2.802,6.783-2.802c2.566,0,4.975,0.992,6.783,2.802l19.812,19.812l-0.009,0.008l19.161,19.16
		c2.844,2.846,6.761,4.476,10.747,4.476h0.004c2.764,0,5.428-0.768,7.703-2.221c0.425-0.273,1.901-1.249,2.907-2.255l5.578-5.578
		l-3.895-3.899l-5.58,5.579c-0.565,0.565-1.357,1.102-1.784,1.374c-1.475,0.949-3.203,1.448-4.987,1.448
		c-2.563,0-4.975-1-6.797-2.822l-19.831-19.828l0.008-0.01l-19.141-19.14C134.79,208.475,130.994,206.908,126.957,206.908"/>
	
		<rect x="147.415" y="249.407" transform="matrix(0.7072 -0.707 0.707 0.7072 -132.8493 183.5432)" style="fill:#FFFFFF;" width="15.513" height="5.513"/>
	<path style="fill:#FFFFFF;" d="M183.385,226.308c-4.039,0-7.833,1.57-10.681,4.418l-5.579,5.578l3.897,3.899l5.578-5.579
		c1.81-1.812,4.217-2.806,6.785-2.806c2.564,0,4.973,0.994,6.779,2.806l19.814,19.808l-0.006,0.012l19.16,19.158
		c2.84,2.846,6.759,4.476,10.745,4.476c2.768,0,5.432-0.77,7.707-2.223c0.427-0.272,1.896-1.239,2.907-2.253l5.58-5.578
		l-3.897-3.899l-5.58,5.582c-0.531,0.528-1.261,1.039-1.78,1.372c-1.479,0.946-3.207,1.449-4.995,1.449
		c-2.563,0-4.973-1.002-6.791-2.821l-19.874-19.877l0.008-0.01l-19.097-19.094C191.216,227.878,187.422,226.308,183.385,226.308"/>
	
		<rect x="203.841" y="268.808" transform="matrix(0.7069 -0.7073 0.7073 0.7069 -130.06 229.2494)" style="fill:#FFFFFF;" width="15.514" height="5.511"/>
	<path style="fill:#FFFFFF;" d="M279.564,279.213l-9.92-9.92l0.008-0.008l-19.16-19.16c-2.85-2.85-6.642-4.418-10.681-4.418
		s-7.83,1.568-10.678,4.418l-5.582,5.58l3.9,3.895l5.577-5.577c1.808-1.811,4.217-2.808,6.783-2.808
		c2.567,0,4.975,0.997,6.784,2.808l19.832,19.832l-0.008,0.008l5.35,5.35H279.564z"/>
	<path style="fill:#FFFFFF;" d="M299.432,271.191v-5.741c-1.036-0.222-2.105-0.344-3.193-0.344c-4.039,0-7.835,1.571-10.681,4.415
		l-5.579,5.581l3.897,3.898l5.58-5.58c1.808-1.806,4.217-2.808,6.783-2.808C297.348,270.612,298.416,270.834,299.432,271.191"/>
	<path style="fill:#FFFFFF;" d="M69.099,258.601c0.497,0.052,0.994,0.076,1.501,0.076c2.766,0,5.426-0.769,7.703-2.219
		c0.429-0.274,1.904-1.248,2.907-2.251l5.58-5.582l-3.897-3.898l-5.58,5.582c-0.569,0.567-1.361,1.104-1.78,1.373
		c-1.479,0.946-3.205,1.449-4.991,1.449c-0.489,0-0.968-0.07-1.443-0.144V258.601z"/>
	<path style="fill:#FFFFFF;" d="M69.099,231.955c0.471-0.07,0.946-0.138,1.433-0.138c2.568,0,4.975,0.996,6.785,2.804l19.808,19.813
		l-0.008,0.008l19.16,19.164c2.844,2.841,6.763,4.472,10.749,4.472c2.766,0,5.43-0.769,7.705-2.222
		c0.427-0.275,1.895-1.243,2.907-2.25l5.582-5.58l-3.899-3.898l-5.58,5.582c-0.571,0.563-1.359,1.098-1.78,1.371
		c-1.479,0.944-3.205,1.447-4.993,1.447c-2.563,0-4.973-1.002-6.793-2.818l-19.811-19.814l0.008-0.008L81.21,230.726
		c-2.847-2.85-6.639-4.417-10.678-4.417c-0.481,0-0.962,0.024-1.433,0.07V231.955z"/>
	<path style="fill:#FFFFFF;" d="M126.957,245.707c-4.039,0-7.833,1.569-10.681,4.418l-5.579,5.578l3.897,3.897l5.58-5.579
		c1.81-1.808,4.219-2.804,6.783-2.804c2.566,0,4.975,0.996,6.783,2.804l19.83,19.836l-0.006,0.006l5.349,5.348h7.796l-9.94-9.938
		l0.008-0.008l-19.139-19.14C134.79,247.276,130.996,245.707,126.957,245.707"/>
	<path style="fill:#FFFFFF;" d="M183.385,265.106c-4.041,0-7.833,1.57-10.683,4.418l-5.577,5.578l3.897,3.897l5.578-5.579
		c1.81-1.806,4.219-2.806,6.785-2.806c2.564,0,4.973,1,6.779,2.806l5.795,5.793h7.795l-9.689-9.689
		C191.216,266.676,187.422,265.106,183.385,265.106"/>
	
		<rect x="90.988" y="268.808" transform="matrix(0.7071 -0.7071 0.7071 0.7071 -163.1038 149.3615)" style="fill:#FFFFFF;" width="15.511" height="5.513"/>
	<path style="fill:#FFFFFF;" d="M69.099,270.756c0.471-0.07,0.946-0.142,1.433-0.142c2.568,0,4.975,1,6.785,2.806l5.787,5.793h7.795
		l-9.689-9.69c-2.847-2.846-6.639-4.416-10.678-4.416c-0.481,0-0.962,0.025-1.433,0.071V270.756z"/>
	<path style="fill:#FFFFFF;" d="M325.997,278.231V90.298c0-5.645-4.574-10.217-10.217-10.217c-5.644,0-10.218,4.572-10.218,10.217
		v187.933c0,5.642,4.574,10.218,10.218,10.218C321.423,288.449,325.997,283.873,325.997,278.231"/>
	<path style="fill:#FFFFFF;" d="M62.968,90.299c0-5.646-4.574-10.218-10.218-10.218c-5.643,0-10.217,4.572-10.217,10.218v187.933
		c0,5.641,4.574,10.217,10.217,10.217c5.644,0,10.218-4.576,10.218-10.217V90.299z"/>
</g>
</svg>
