<?xml version="1.0" encoding="iso-8859-1"?>
<!-- Generator: Adobe Illustrator 25.4.1, SVG Export Plug-In . SVG Version: 6.00 Build 0)  -->
<svg version="1.1" id="Calque_1" xmlns="http://www.w3.org/2000/svg" xmlns:xlink="http://www.w3.org/1999/xlink" x="0px" y="0px"
	 viewBox="0 0 368.5 368.5" style="enable-background:new 0 0 368.5 368.5;" xml:space="preserve">
<g>
	<path style="fill:#FFFFFF;" d="M323.759,283.567V84.959c0-23.396-19.611-42.43-43.715-42.43H90.59
		c-24.103,0-43.713,19.034-43.713,42.43v198.608c0,23.393,19.61,42.427,43.713,42.427h189.454
		C304.148,325.994,323.759,306.96,323.759,283.567 M260.982,269.653c-0.577-0.337-1.239-0.545-1.957-0.545H112.561
		c-0.643,0-1.24,0.17-1.775,0.446c-9.03-7.964-16.786-17.33-22.931-27.763h196.173C277.857,252.267,270.062,261.669,260.982,269.653
		 M251.849,276.895c-18.612,13.277-41.354,21.122-65.907,21.122c-24.554,0-47.296-7.845-65.908-21.122H251.849z M287.023,234.004
		H83.656H83.65c-4.184-8.565-7.322-17.728-9.249-27.325h223.081c-1.941,9.668-5.114,18.889-9.342,27.507
		C287.784,234.08,287.413,234.004,287.023,234.004 M72.169,184.246c0-4.311,0.263-8.56,0.732-12.747
		c0.237,0.046,0.481,0.073,0.73,0.073H298.99c0.464,4.165,0.724,8.388,0.724,12.674c0,4.966-0.355,9.848-0.975,14.646H73.631
		c-0.165,0-0.322,0.028-0.481,0.048C72.526,194.127,72.169,189.23,72.169,184.246 M109.838,101.354h150.301
		c0.991,0,1.885-0.38,2.572-0.991c8.905,8.157,16.494,17.715,22.452,28.311H86.72c5.788-10.294,13.125-19.597,21.701-27.594
		C108.862,101.253,109.338,101.354,109.838,101.354 M117.328,93.567c19.09-14.479,42.862-23.092,68.614-23.092
		s49.524,8.613,68.613,23.092H117.328z M83.507,136.461h204.612c0.339,0,0.661-0.056,0.973-0.137
		c4.024,8.623,6.987,17.832,8.743,27.462H74.047c1.753-9.607,4.707-18.793,8.716-27.401
		C83.004,136.433,83.252,136.461,83.507,136.461 M291.758,87.623c-5.149,0-9.33-4.177-9.33-9.328c0-5.156,4.181-9.331,9.33-9.331
		c5.159,0,9.332,4.175,9.332,9.331C301.09,83.446,296.917,87.623,291.758,87.623 M80.238,87.674c-5.149,0-9.323-4.18-9.323-9.331
		c0-5.153,4.174-9.333,9.323-9.333c5.161,0,9.34,4.18,9.34,9.333C89.578,83.494,85.399,87.674,80.238,87.674 M80.238,279.84
		c5.161,0,9.34,4.175,9.34,9.331c0,5.148-4.179,9.328-9.34,9.328c-5.149,0-9.323-4.18-9.323-9.328
		C70.915,284.015,75.089,279.84,80.238,279.84 M291.758,279.848c5.159,0,9.332,4.175,9.332,9.331c0,5.153-4.173,9.328-9.332,9.328
		c-5.149,0-9.33-4.175-9.33-9.328C282.428,284.023,286.609,279.848,291.758,279.848"/>
</g>
</svg>
