<?xml version="1.0" encoding="iso-8859-1"?>
<!-- Generator: Adobe Illustrator 25.4.1, SVG Export Plug-In . SVG Version: 6.00 Build 0)  -->
<svg version="1.1" id="Calque_1" xmlns="http://www.w3.org/2000/svg" xmlns:xlink="http://www.w3.org/1999/xlink" x="0px" y="0px"
	 viewBox="0 0 368.5 368.5" style="enable-background:new 0 0 368.5 368.5;" xml:space="preserve">
<g>
	<path style="fill:#FFFFFF;" d="M94.947,321.677l9.156-105.731c-0.779,0.112-1.568,0.19-2.379,0.19h-1.115
		c-3.436,0-6.629-1.045-9.283-2.832l-9.291,107.255c-0.307,3.559,2.338,6.706,5.898,7.014
		C91.502,327.883,94.642,325.186,94.947,321.677"/>
	<path style="fill:#FFFFFF;" d="M266.588,205.24l10.084,116.437c0.289,3.321,3.119,5.92,6.445,5.921h0.002
		c0.188,0,0.377-0.008,0.569-0.024c3.558-0.309,6.205-3.455,5.896-7.015l-9.988-115.319H266.588z"/>
	<path style="fill:#FFFFFF;" d="M263.334,200.24h25.842c4.939,0,8.957-4.018,8.957-8.957c0-4.939-4.018-8.957-8.957-8.957h-25.842
		c2.037,2.426,3.268,5.549,3.268,8.957C266.602,194.691,265.371,197.814,263.334,200.24"/>
	<path style="fill:#FFFFFF;" d="M180.812,205.24c2.014,3.517,5.795,5.896,10.129,5.896h1.117c4.334,0,8.115-2.379,10.129-5.896
		H180.812z"/>
	<path style="fill:#FFFFFF;" d="M190.65,161.214c4.854,0,8.801,4.739,8.801,10.563c0,2.037-0.492,3.934-1.326,5.549h5.605v-8.44
		c0-6.436-5.236-11.671-11.672-11.671h-1.117c-3.498,0-6.633,1.554-8.773,3.999H190.65z"/>
	<path style="fill:#FFFFFF;" d="M118.162,166.214c0.143,0.873,0.236,1.761,0.236,2.672v8.44h72.438
		c1.976-0.147,3.615-2.624,3.615-5.549c0-3.016-1.74-5.563-3.801-5.563H118.162z"/>
	<path style="fill:#FFFFFF;" d="M83.938,177.325v-8.439c0-0.912,0.092-1.8,0.234-2.673h-6.908c-2.058,0-3.799,2.548-3.799,5.563
		c0,3.016,1.741,5.563,3.799,5.563h3.02c0.093-0.002,0.183-0.014,0.279-0.014H83.938z"/>
	<path style="fill:#FFFFFF;" d="M226.938,205.24l10.086,116.437c0.287,3.321,3.119,5.92,6.445,5.921
		c0.188,0,0.377-0.008,0.569-0.024c3.56-0.309,6.205-3.455,5.896-7.016l-9.986-115.318H226.938z"/>
	<path style="fill:#FFFFFF;" d="M136.824,321.677l10.084-116.437H133.9l-9.988,115.319c-0.307,3.559,2.338,6.706,5.898,7.014
		C133.379,327.883,136.521,325.186,136.824,321.677"/>
	<path style="fill:#FFFFFF;" d="M80.562,200.24h3.414c-0.012-0.259-0.039-0.514-0.039-0.776v-17.138h-3.375
		c-4.939,0-8.957,4.018-8.957,8.957C71.605,196.222,75.623,200.24,80.562,200.24"/>
	<path style="fill:#FFFFFF;" d="M118.398,182.325v17.138c0,0.262-0.027,0.517-0.039,0.776h134.285c4.94,0,8.957-4.018,8.957-8.957
		c0-4.939-4.017-8.957-8.957-8.957H118.398z"/>
	<path style="fill:#FFFFFF;" d="M194.754,71.083c-2.42,0-4.697-0.943-6.408-2.654c-1.713-1.711-2.656-3.988-2.656-6.409
		c0-1.288,0.275-2.532,0.783-3.674c-4.625-1.981-9.557-3.043-14.645-3.077c7.071,3.72,13.342,9.433,18.322,16.835h13.682
		c-0.933-1.21-1.918-2.349-2.93-3.439C199.223,70.221,197.057,71.083,194.754,71.083"/>
	<path style="fill:#FFFFFF;" d="M189.947,77.105l-3.17,2.747c1.668,2.049,3.199,4.253,4.559,6.607l10.795-9.354H189.947z"/>
	<path style="fill:#FFFFFF;" d="M193.705,114.681c0-12.252-4.08-23.38-10.691-31.568l-10.444,9.046
		c3.221,5.785,4.932,12.623,4.932,19.829c0,18.564-11.516,33.667-25.668,33.667c-3.549,0-7.033-0.958-10.246-2.789v8.095
		c0,1.931-0.387,3.772-1.074,5.459c4.638,2.412,9.753,3.757,15.127,3.757C176.631,160.177,193.705,139.767,193.705,114.681"/>
	<path style="fill:#FFFFFF;" d="M175.502,111.988c0-6.714-1.559-13.077-4.48-18.486l-2.231,1.931
		c-0.896,0.775-2.213,0.815-3.152,0.095c-2.996-2.291-6.453-3.502-9.998-3.502c-6.297,0-11.877,3.772-15.282,9.539h11.334
		c5.534,0,10.036,4.501,10.036,10.034c0,5.533-4.502,10.034-10.036,10.034h-10.105v8.008c0.303,0.413,0.603,0.827,0.934,1.217
		c0.556,0.659,0.734,1.56,0.468,2.382l-1.402,4.346v2.926c3.185,2.053,6.684,3.143,10.246,3.143
		C164.885,143.655,175.502,129.449,175.502,111.988"/>
	<path style="fill:#FFFFFF;" d="M109.158,94.815h17.93c3.595,0,6.881,1.323,9.418,3.497c4.33-6.839,11.293-11.286,19.134-11.286
		c3.993,0,7.879,1.154,11.35,3.354l18.606-16.119c-8.393-12.105-20.62-19-33.838-19C131.254,55.261,113.988,72.109,109.158,94.815"
		/>
	<path style="fill:#FFFFFF;" d="M151.693,106.565h-10.375c0.172,0.892,0.27,1.81,0.27,2.751v7.317h10.105
		c2.775,0,5.035-2.258,5.035-5.034C156.728,108.823,154.468,106.565,151.693,106.565"/>
	<path style="fill:#FFFFFF;" d="M191.881,59.147c-0.768,0.768-1.191,1.788-1.191,2.874c0,1.085,0.423,2.105,1.191,2.872
		c0.768,0.768,1.787,1.191,2.873,1.191c1.086,0,2.106-0.423,2.873-1.19l7.656-7.657h-5.75c-1.672,0-3.248-0.397-4.658-1.085
		L191.881,59.147z"/>
	<path style="fill:#FFFFFF;" d="M199.533,52.237h24.361c3.125,0,5.668-2.542,5.668-5.668c0-3.125-2.543-5.667-5.668-5.667h-24.361
		c-3.125,0-5.668,2.542-5.668,5.667C193.865,49.695,196.408,52.237,199.533,52.237"/>
	<path style="fill:#FFFFFF;" d="M116.088,160.461h11c5.238,0,9.5-4.262,9.5-9.5v-41.646c0-5.238-4.262-9.5-9.5-9.5h-11.367
		c2.217,2.547,3.572,5.865,3.572,9.5v41.646c0,3.518-1.262,6.745-3.351,9.258C115.99,160.3,116.039,160.379,116.088,160.461"/>
	<path style="fill:#FFFFFF;" d="M79.867,160.462h6.379c2.901-4.926,8.244-8.247,14.363-8.247h1.116
		c4.173,0,7.984,1.552,10.912,4.095c1.043-1.524,1.656-3.366,1.656-5.348v-41.646c0-5.239-4.262-9.5-9.5-9.5h-2.631H79.867
		c-5.238,0-9.5,4.261-9.5,9.5v41.646C70.367,156.199,74.629,160.462,79.867,160.462 M99.002,125.988c0,1.381-1.119,2.5-2.5,2.5
		c-1.381,0-2.5-1.119-2.5-2.5v-12.333c0-1.381,1.119-2.5,2.5-2.5c1.381,0,2.5,1.119,2.5,2.5V125.988z M85.002,113.654
		c0-1.381,1.119-2.5,2.5-2.5c1.381,0,2.5,1.119,2.5,2.5v12.333c0,1.381-1.119,2.5-2.5,2.5c-1.381,0-2.5-1.119-2.5-2.5V113.654z
		 M76.002,113.654c0-1.381,1.119-2.5,2.5-2.5c1.381,0,2.5,1.119,2.5,2.5v12.333c0,1.381-1.119,2.5-2.5,2.5
		c-1.381,0-2.5-1.119-2.5-2.5V113.654z"/>
	<path style="fill:#FFFFFF;" d="M113.398,199.464v-30.577c0-6.437-5.236-11.672-11.673-11.672h-1.116
		c-6.435,0-11.671,5.235-11.671,11.672v30.577c0,6.436,5.236,11.673,11.671,11.673h1.116
		C108.162,211.137,113.398,205.9,113.398,199.464 M96.002,172.154c0-2.573,2.094-4.667,4.666-4.667c2.574,0,4.666,2.094,4.666,4.667
		c0,2.573-2.092,4.667-4.666,4.667C98.096,176.822,96.002,174.728,96.002,172.154"/>
	<path style="fill:#FFFFFF;" d="M100.668,172.488c0.184,0,0.334-0.149,0.334-0.333s-0.15-0.333-0.334-0.333
		c-0.184,0-0.334,0.149-0.334,0.333S100.484,172.488,100.668,172.488"/>
</g>
</svg>
