<?xml version="1.0" encoding="iso-8859-1"?>
<!-- Generator: Adobe Illustrator 25.4.1, SVG Export Plug-In . SVG Version: 6.00 Build 0)  -->
<svg version="1.1" id="Calque_1" xmlns="http://www.w3.org/2000/svg" xmlns:xlink="http://www.w3.org/1999/xlink" x="0px" y="0px"
	 viewBox="0 0 368.5 368.5" style="enable-background:new 0 0 368.5 368.5;" xml:space="preserve">
<g>
	<path style="fill:#FFFFFF;" d="M82.676,299.291v17.108c0,5.295,4.29,9.588,9.586,9.588c5.291,0,9.59-4.293,9.59-9.588v-14.763h-5.2
		C91.76,301.634,87.071,300.785,82.676,299.291"/>
	<path style="fill:#FFFFFF;" d="M226.187,120.896h7.23c16.646,0,30.189,13.543,30.189,30.189v2.689
		c0,11.496-6.46,21.505-15.937,26.604v7.817c13.494-5.609,23.011-18.919,23.011-34.421v-2.689c0-20.546-16.717-37.263-37.263-37.263
		h-7.774c0.444,1.551,0.696,3.181,0.696,4.873C226.339,119.443,226.278,120.174,226.187,120.896"/>
	<path style="fill:#FFFFFF;" d="M208.582,108.014h-13.14c1.492,1.975,2.411,4.405,2.411,7.066c0,4.687-2.772,8.711-6.744,10.611
		c1.772,0.846,3.296,2.11,4.445,3.682h13.028c5.89,0,10.683-4.79,10.683-10.678C219.265,112.806,214.472,108.014,208.582,108.014"/>
	<path style="fill:#FFFFFF;" d="M96.655,294.563H220.73c-0.682-3.294-1.043-6.704-1.043-10.197c0-2.141,0.18-4.238,0.44-6.309
		H96.653c-11.036-0.025-20.023-9.011-20.043-20.033V128.141c0-4.547-3.699-8.248-8.246-8.248c-4.553,0-8.255,3.701-8.255,8.248
		v129.877C60.115,278.159,76.51,294.553,96.655,294.563"/>
	<path style="fill:#FFFFFF;" d="M294.809,240.728V128.141c0-4.547-3.702-8.248-8.251-8.248c-4.55,0-8.252,3.701-8.252,8.248v106.708
		C284.22,235.845,289.783,237.854,294.809,240.728"/>
	<path style="fill:#FFFFFF;" d="M98.782,98.58h87.28c2.601,0,4.716-2.115,4.716-4.716c0-2.601-2.115-4.716-4.716-4.716h-87.28
		c-2.601,0-4.716,2.115-4.716,4.716C94.066,96.465,96.181,98.58,98.782,98.58"/>
	<path style="fill:#FFFFFF;" d="M98.782,119.796h87.28c2.601,0,4.716-2.116,4.716-4.716c0-2.602-2.115-4.716-4.716-4.716h-87.28
		c-2.601,0-4.716,2.114-4.716,4.716C94.066,117.68,96.181,119.796,98.782,119.796"/>
	<path style="fill:#FFFFFF;" d="M98.782,141.018h87.28c2.601,0,4.716-2.116,4.716-4.716c0-2.602-2.115-4.716-4.716-4.716h-87.28
		c-2.601,0-4.716,2.114-4.716,4.716C94.066,138.902,96.181,141.018,98.782,141.018"/>
	<path style="fill:#FFFFFF;" d="M115.088,79.781h56.864c0.652,0,1.179-0.527,1.179-1.179V57.933c0-8.497-6.913-15.41-15.411-15.41
		h-28.402c-8.496,0-15.409,6.913-15.409,15.41v20.669C113.909,79.254,114.436,79.781,115.088,79.781"/>
	<path style="fill:#FFFFFF;" d="M102.227,269.553H221.92c3.257-10.543,9.925-19.578,18.675-25.906v-74.798
		c0-9.482-7.712-17.195-17.189-17.195H102.227c-9.48,0-17.192,7.713-17.192,17.195v83.512
		C85.035,261.841,92.747,269.553,102.227,269.553 M124.501,186.964c0.421-0.436,1.105-0.477,1.58-0.099l29.052,23.211l4.624-23.097
		c0.088-0.443,0.422-0.797,0.861-0.909c0.436-0.114,0.899,0.033,1.194,0.377l40.944,48.257c0.385,0.452,0.372,1.12-0.03,1.561
		c-0.399,0.436-1.067,0.504-1.55,0.163l-29.997-21.221l-3.68,21.462c-0.077,0.452-0.409,0.819-0.853,0.938
		c-0.102,0.028-0.206,0.042-0.308,0.042c-0.343,0-0.675-0.15-0.902-0.419l-40.993-48.683
		C124.053,188.083,124.077,187.399,124.501,186.964"/>
	<path style="fill:#FFFFFF;" d="M269.956,245.887c-21.217,0-38.479,17.261-38.479,38.478c0,21.22,17.262,38.482,38.479,38.482
		c21.217,0,38.479-17.262,38.479-38.482C308.435,263.148,291.173,245.887,269.956,245.887 M269.956,304.613
		c-11.166,0-20.25-9.083-20.25-20.248c0-11.163,9.084-20.246,20.25-20.246c11.164,0,20.248,9.083,20.248,20.246
		C290.204,295.53,281.12,304.613,269.956,304.613"/>
</g>
</svg>
