<?xml version="1.0" encoding="iso-8859-1"?>
<!-- Generator: Adobe Illustrator 25.4.1, SVG Export Plug-In . SVG Version: 6.00 Build 0)  -->
<svg version="1.1" id="Calque_1" xmlns="http://www.w3.org/2000/svg" xmlns:xlink="http://www.w3.org/1999/xlink" x="0px" y="0px"
	 viewBox="0 0 368.5 368.5" style="enable-background:new 0 0 368.5 368.5;" xml:space="preserve">
<g>
	<path style="fill:#FFFFFF;" d="M230.377,238.728l6.018,6.018c1.029-1.151,2.491-3.061,3.255-5.34
		c0.799-2.388,0.642-4.916,0.424-6.434l-4.985-4.986c-0.054,1.332-0.258,2.792-0.739,4.229
		C233.395,235.066,231.607,237.374,230.377,238.728"/>
	<path style="fill:#FFFFFF;" d="M238.521,246.871l6.018,6.017c1.029-1.149,2.49-3.061,3.255-5.34
		c0.795-2.375,0.637-4.913,0.421-6.436l-4.982-4.982c-0.053,1.332-0.257,2.791-0.739,4.228
		C241.539,243.211,239.751,245.52,238.521,246.871"/>
	<path style="fill:#FFFFFF;" d="M203.817,212.168c1.029-1.149,2.491-3.06,3.257-5.34c0.664-1.985,0.666-4.065,0.522-5.585
		c-0.698,0.182-1.423,0.295-2.169,0.295c-1.15,0-2.273-0.227-3.34-0.678l-5.09-2.15l2.135,5.27c0.542,1.339,0.717,2.736,0.578,4.084
		L203.817,212.168z"/>
	<path style="fill:#FFFFFF;" d="M246.665,255.015l6.016,6.016c1.029-1.151,2.491-3.062,3.256-5.342
		c0.795-2.374,0.637-4.911,0.42-6.434l-4.978-4.981c-0.055,1.332-0.259,2.791-0.74,4.227
		C249.683,251.353,247.894,253.662,246.665,255.015"/>
	<path style="fill:#FFFFFF;" d="M222.234,230.584l6.016,6.017c1.029-1.151,2.491-3.061,3.255-5.34
		c0.799-2.387,0.642-4.915,0.424-6.434l-4.985-4.985c-0.053,1.332-0.257,2.791-0.739,4.228
		C225.251,226.922,223.464,229.232,222.234,230.584"/>
	<path style="fill:#FFFFFF;" d="M205.943,214.295l6.018,6.018c1.029-1.15,2.492-3.06,3.254-5.339
		c0.796-2.375,0.639-4.914,0.422-6.438l-4.981-4.981c-0.053,1.331-0.257,2.79-0.738,4.225
		C208.963,210.634,207.174,212.942,205.943,214.295"/>
	<path style="fill:#FFFFFF;" d="M266.925,264.786c-0.956,2.855-2.743,5.164-3.973,6.518l4.257,4.257
		c0.725-1.64,1.743-3.156,3.05-4.461l0.826-0.828c1.084-1.084,2.311-1.97,3.633-2.656l-7.054-7.055
		C267.611,261.892,267.406,263.35,266.925,264.786"/>
	<path style="fill:#FFFFFF;" d="M214.089,222.44l6.018,6.019c1.03-1.151,2.491-3.061,3.253-5.34
		c0.797-2.376,0.639-4.916,0.422-6.439l-4.982-4.981c-0.053,1.332-0.257,2.791-0.739,4.227
		C217.106,218.779,215.319,221.087,214.089,222.44"/>
	<path style="fill:#FFFFFF;" d="M254.806,263.157l6.02,6.02c1.029-1.149,2.49-3.062,3.255-5.344c0.795-2.372,0.638-4.91,0.422-6.434
		l-4.983-4.982c-0.054,1.331-0.258,2.79-0.739,4.225C257.825,259.495,256.036,261.804,254.806,263.157"/>
	<path style="fill:#FFFFFF;" d="M156.322,217.447c-0.934,0-1.859-0.152-2.749-0.453c-1.265-0.426-2.384-1.119-3.326-2.061
		c-0.157-0.157-0.29-0.331-0.434-0.498l-7.31,7.311c-0.679,0.678-1.053,1.581-1.053,2.541c0,0.961,0.374,1.863,1.054,2.541
		c1.357,1.361,3.725,1.361,5.084,0.004l9.439-9.441C156.793,217.411,156.56,217.447,156.322,217.447"/>
	<path style="fill:#FFFFFF;" d="M214.516,156.234c0.382,1.194,0.487,2.43,0.341,3.639l9.06-9.062c0.68-0.679,1.054-1.581,1.054-2.54
		c0-0.961-0.375-1.863-1.055-2.543c-1.36-1.361-3.723-1.359-5.082-0.001l-6.753,6.753
		C213.18,153.474,214.041,154.744,214.516,156.234"/>
	<path style="fill:#FFFFFF;" d="M207.883,173.523c-1.099,0.352-2.295-0.096-2.895-1.08c-0.6-0.986-0.448-2.254,0.368-3.068
		l1.76-1.762l-11.501,3.67c1.531,0.949,2.72,2.354,3.412,4.056c0.865,2.129,0.849,4.467-0.045,6.583
		c-1.346,3.19-4.454,5.251-7.92,5.251c-1.151,0-2.275-0.227-3.341-0.677l-5.091-2.15l2.135,5.269
		c0.863,2.128,0.844,4.465-0.051,6.578c-0.894,2.114-2.56,3.754-4.689,4.615c-1.032,0.418-2.118,0.63-3.225,0.63
		c-2.266,0-4.483-0.919-6.084-2.522c-0.533-0.534-0.992-1.131-1.366-1.784l-4.048,11.984l2.035-2.034
		c0.82-0.822,2.099-0.971,3.086-0.358c0.986,0.613,1.422,1.824,1.051,2.924l-4.193,12.42c-0.441,1.305-0.109,2.72,0.866,3.695
		c0.39,0.391,0.858,0.68,1.388,0.859c0.374,0.126,0.762,0.19,1.152,0.19c1.544,0,2.913-0.982,3.406-2.445l7-20.739
		c0.334-0.99,1.25-1.668,2.295-1.699c1.042-0.02,1.999,0.592,2.391,1.561l2.053,5.066c0.183,0.451,0.447,0.851,0.784,1.188
		c0.675,0.675,1.602,1.059,2.55,1.059c0.462,0,0.914-0.089,1.349-0.264c1.837-0.745,2.725-2.844,1.982-4.683L190.098,195
		c-0.379-0.936-0.157-2.01,0.562-2.719c0.721-0.708,1.798-0.916,2.728-0.522l10.642,4.496c0.448,0.188,0.918,0.284,1.397,0.284
		c1.451,0,2.75-0.862,3.312-2.196c0.374-0.886,0.381-1.864,0.02-2.755c-0.36-0.889-1.045-1.584-1.928-1.956l-4.868-2.056
		c-0.963-0.408-1.571-1.371-1.523-2.417c0.047-1.045,0.74-1.95,1.737-2.269l19.609-6.258c0.916-0.291,1.662-0.921,2.103-1.773
		c0.44-0.854,0.522-1.826,0.23-2.742c-0.477-1.498-1.853-2.504-3.423-2.504c-0.371,0-0.738,0.056-1.095,0.172L207.883,173.523z"/>
	<path style="fill:#FFFFFF;" d="M200.151,141.869c0.382,1.193,0.487,2.43,0.341,3.639l9.062-9.062
		c0.679-0.679,1.052-1.581,1.051-2.541c0-0.96-0.374-1.863-1.054-2.542c-1.359-1.361-3.723-1.359-5.08-0.001l-6.754,6.753
		C198.815,139.109,199.677,140.379,200.151,141.869"/>
	<path style="fill:#FFFFFF;" d="M142.663,203.026c-0.235,0.019-0.467,0.056-0.706,0.056c-0.933,0-1.857-0.153-2.748-0.452
		c-1.268-0.427-2.387-1.122-3.328-2.064c-0.157-0.157-0.289-0.33-0.433-0.496l-7.31,7.31c-0.68,0.679-1.054,1.582-1.053,2.541
		c0,0.961,0.374,1.864,1.053,2.543c1.359,1.36,3.727,1.36,5.085,0.002L142.663,203.026z"/>
	<path style="fill:#FFFFFF;" d="M193.518,159.158c-1.098,0.35-2.295-0.096-2.895-1.08c-0.6-0.986-0.448-2.254,0.367-3.068
		l1.761-1.762l-11.502,3.671c1.532,0.949,2.721,2.354,3.414,4.057c0.865,2.129,0.848,4.467-0.046,6.582
		c-1.347,3.19-4.455,5.25-7.92,5.25c-1.151,0-2.275-0.227-3.341-0.677l-5.091-2.15l2.135,5.269c0.862,2.128,0.844,4.465-0.051,6.578
		c-0.895,2.114-2.56,3.753-4.687,4.615c-1.034,0.418-2.119,0.63-3.226,0.63h-0.001c-2.265,0-4.482-0.919-6.083-2.521
		c-0.534-0.533-0.992-1.131-1.368-1.786l-4.047,11.987l2.036-2.036c0.821-0.823,2.099-0.971,3.086-0.358
		c0.986,0.614,1.422,1.824,1.05,2.924l-4.195,12.42c-0.439,1.304-0.107,2.72,0.868,3.695c0.391,0.391,0.858,0.68,1.388,0.86
		c0.375,0.125,0.762,0.189,1.152,0.189c1.544,0,2.912-0.982,3.404-2.443l7.005-20.741c0.334-0.99,1.25-1.668,2.294-1.699
		c1.037-0.027,1.999,0.593,2.391,1.563l2.049,5.066c0.183,0.448,0.449,0.85,0.787,1.188c0.671,0.673,1.6,1.057,2.548,1.057
		c0.461,0,0.914-0.089,1.349-0.264c0.89-0.362,1.587-1.046,1.96-1.93c0.375-0.884,0.383-1.861,0.021-2.752l-4.398-10.854
		c-0.379-0.937-0.158-2.011,0.562-2.72c0.721-0.708,1.795-0.914,2.728-0.523l10.643,4.495c0.448,0.188,0.917,0.284,1.397,0.284
		c1.45,0,2.751-0.862,3.313-2.196c0.375-0.886,0.382-1.865,0.019-2.755c-0.36-0.889-1.045-1.583-1.928-1.956l-4.869-2.056
		c-0.964-0.407-1.572-1.371-1.524-2.416c0.047-1.046,0.74-1.951,1.737-2.27l19.609-6.258c0.917-0.291,1.664-0.921,2.104-1.773
		c0.44-0.853,0.521-1.826,0.229-2.741c-0.476-1.499-1.852-2.505-3.422-2.505c-0.37,0-0.737,0.056-1.094,0.172L193.518,159.158z"/>
	<path style="fill:#FFFFFF;" d="M185.787,127.503c0.381,1.194,0.486,2.43,0.34,3.639l9.062-9.063
		c0.679-0.678,1.052-1.58,1.051-2.541c0-0.961-0.375-1.863-1.055-2.543c-1.359-1.357-3.722-1.355-5.081,0.001l-6.753,6.753
		C184.45,124.743,185.312,126.013,185.787,127.503"/>
	<path style="fill:#FFFFFF;" d="M128.298,188.661c-0.235,0.02-0.467,0.056-0.706,0.056c-0.934,0-1.858-0.153-2.749-0.454
		c-1.266-0.425-2.386-1.119-3.327-2.061c-0.158-0.157-0.289-0.331-0.433-0.497l-7.31,7.311c-0.679,0.677-1.052,1.581-1.052,2.541
		c0,0.96,0.374,1.863,1.053,2.542c1.36,1.359,3.725,1.358,5.084,0L128.298,188.661z"/>
	<path style="fill:#FFFFFF;" d="M179.152,144.792c-1.1,0.35-2.295-0.096-2.895-1.08c-0.6-0.986-0.449-2.254,0.368-3.069l1.76-1.761
		l-11.499,3.67c1.532,0.951,2.721,2.357,3.412,4.06c0.864,2.127,0.846,4.465-0.046,6.579c-1.346,3.19-4.455,5.251-7.92,5.251
		c-1.151,0-2.276-0.227-3.342-0.677l-5.089-2.151l2.135,5.27c0.861,2.129,0.844,4.465-0.052,6.578
		c-0.895,2.115-2.562,3.754-4.69,4.615c-1.031,0.418-2.117,0.63-3.224,0.63c-2.263,0-4.479-0.917-6.081-2.518
		c-0.537-0.538-0.995-1.137-1.37-1.788l-4.043,11.982l2.032-2.032c0.821-0.823,2.1-0.97,3.085-0.358
		c0.988,0.613,1.423,1.824,1.051,2.925l-4.196,12.42c-0.44,1.303-0.107,2.718,0.869,3.692c0.393,0.394,0.859,0.682,1.388,0.861
		c0.376,0.126,0.763,0.19,1.152,0.19c1.544,0,2.912-0.982,3.404-2.443l7.003-20.741c0.334-0.99,1.249-1.668,2.294-1.699
		c1.066-0.037,1.998,0.592,2.391,1.561l2.053,5.066c0.184,0.452,0.448,0.854,0.784,1.189c0.673,0.673,1.602,1.058,2.549,1.058h0.001
		c0.461,0,0.914-0.089,1.349-0.264c0.889-0.361,1.586-1.046,1.959-1.93c0.375-0.884,0.383-1.861,0.021-2.752l-4.397-10.855
		c-0.379-0.936-0.157-2.01,0.562-2.719c0.721-0.709,1.794-0.914,2.728-0.523l10.642,4.494c0.448,0.189,0.917,0.285,1.397,0.285
		c1.45,0,2.751-0.862,3.314-2.197c0.374-0.885,0.381-1.862,0.02-2.753c-0.361-0.889-1.048-1.584-1.932-1.957l-4.868-2.056
		c-0.963-0.408-1.571-1.372-1.523-2.417c0.047-1.045,0.74-1.95,1.737-2.269l19.611-6.258c0.916-0.291,1.662-0.921,2.102-1.773
		c0.44-0.854,0.522-1.826,0.23-2.74c-0.478-1.5-1.852-2.506-3.423-2.506c-0.369,0-0.737,0.056-1.094,0.172L179.152,144.792z"/>
	<path style="fill:#FFFFFF;" d="M168.986,109.382c1.1,0.995,1.961,2.264,2.436,3.754c0.381,1.195,0.486,2.431,0.339,3.64
		l9.063-9.061c1.4-1.401,1.4-3.683-0.002-5.086c-1.357-1.355-3.725-1.356-5.084,0.002L168.986,109.382z"/>
	<path style="fill:#FFFFFF;" d="M113.931,174.295c-0.235,0.02-0.467,0.056-0.705,0.056c-0.934,0-1.858-0.153-2.75-0.452
		c-1.268-0.428-2.388-1.123-3.327-2.066c-0.157-0.156-0.289-0.33-0.432-0.496l-7.311,7.312c-0.679,0.679-1.053,1.581-1.052,2.541
		c0,0.959,0.374,1.864,1.054,2.543c1.359,1.36,3.724,1.358,5.082,0.002L113.931,174.295z"/>
	<path style="fill:#FFFFFF;" d="M164.788,130.427c-1.1,0.352-2.295-0.096-2.895-1.08c-0.6-0.986-0.448-2.254,0.367-3.068
		l1.761-1.762l-11.5,3.67c1.532,0.951,2.72,2.357,3.412,4.06c0.864,2.127,0.847,4.465-0.047,6.58c-1.347,3.19-4.455,5.25-7.919,5.25
		c-1.151,0-2.275-0.227-3.341-0.677l-5.089-2.15l2.135,5.269c1.777,4.394-0.351,9.415-4.744,11.193
		c-1.031,0.418-2.115,0.629-3.222,0.629c-2.263,0-4.479-0.917-6.082-2.516c-0.537-0.54-0.995-1.138-1.369-1.789l-4.047,11.983
		l2.034-2.034c0.821-0.822,2.099-0.97,3.086-0.357c0.986,0.613,1.422,1.824,1.051,2.924l-4.194,12.42
		c-0.441,1.305-0.108,2.72,0.866,3.694c0.39,0.392,0.859,0.681,1.389,0.86c0.376,0.126,0.763,0.19,1.152,0.19
		c1.544,0,2.913-0.982,3.406-2.445l7-20.739c0.335-0.99,1.25-1.668,2.295-1.699c1.079-0.028,1.999,0.592,2.391,1.561l2.051,5.066
		c0.183,0.449,0.449,0.853,0.79,1.196c0.668,0.666,1.598,1.051,2.545,1.051c0.461,0,0.913-0.089,1.347-0.264
		c0.892-0.362,1.589-1.046,1.963-1.93c0.375-0.885,0.382-1.861,0.021-2.752l-4.397-10.857c-0.379-0.937-0.157-2.01,0.562-2.719
		c0.72-0.709,1.798-0.916,2.728-0.522l10.641,4.496c0.448,0.188,0.917,0.284,1.397,0.284c1.45,0,2.751-0.862,3.312-2.196
		c0.376-0.886,0.383-1.864,0.022-2.755c-0.361-0.889-1.047-1.585-1.931-1.958l-4.867-2.054c-0.965-0.407-1.573-1.371-1.525-2.416
		c0.047-1.045,0.74-1.951,1.737-2.27l19.609-6.258c0.917-0.291,1.664-0.921,2.104-1.773c0.44-0.854,0.522-1.826,0.23-2.742
		c-0.477-1.498-1.853-2.504-3.423-2.504c-0.369,0-0.737,0.056-1.094,0.172L164.788,130.427z"/>
	<path style="fill:#FFFFFF;" d="M157.056,98.772c0.381,1.194,0.486,2.431,0.341,3.64l9.061-9.062
		c1.401-1.401,1.399-3.682-0.005-5.086c-1.355-1.355-3.721-1.356-5.079,0.001l-6.754,6.754
		C155.719,96.013,156.581,97.282,157.056,98.772"/>
	<path style="fill:#FFFFFF;" d="M99.567,159.93c-0.235,0.019-0.467,0.056-0.706,0.056c-0.934,0-1.858-0.153-2.75-0.454
		c-1.266-0.425-2.385-1.12-3.326-2.061c-0.157-0.157-0.291-0.331-0.434-0.498l-7.311,7.312c-1.4,1.4-1.398,3.681,0.004,5.084
		c1.357,1.357,3.724,1.357,5.084,0L99.567,159.93z"/>
	<path style="fill:#FFFFFF;" d="M150.423,116.062c-1.099,0.35-2.294-0.096-2.895-1.08c-0.6-0.986-0.448-2.254,0.367-3.068
		l1.761-1.761l-11.501,3.669c3.521,2.193,5.032,6.695,3.368,10.638c-1.348,3.192-4.456,5.252-7.921,5.252
		c-1.151,0-2.276-0.227-3.342-0.677l-5.09-2.151l2.136,5.27c1.777,4.394-0.349,9.416-4.741,11.193
		c-1.033,0.418-2.117,0.63-3.225,0.63h-0.001c-2.265,0-4.479-0.918-6.081-2.519c-0.536-0.538-0.994-1.136-1.369-1.787l-4.043,11.981
		l2.031-2.031c0.821-0.823,2.1-0.971,3.086-0.358c0.986,0.613,1.422,1.824,1.051,2.924l-4.193,12.42
		c-0.442,1.304-0.11,2.719,0.867,3.693c0.391,0.394,0.857,0.682,1.386,0.861c0.376,0.126,0.763,0.19,1.153,0.19
		c1.545,0,2.912-0.981,3.404-2.442l7.005-20.742c0.334-0.99,1.25-1.668,2.295-1.699c1.033-0.029,1.997,0.592,2.39,1.561l2.051,5.066
		c0.183,0.451,0.447,0.853,0.789,1.196c0.668,0.666,1.597,1.05,2.545,1.05c0.46,0,0.912-0.088,1.345-0.263
		c1.84-0.745,2.729-2.845,1.986-4.683l-4.398-10.854c-0.379-0.938-0.157-2.01,0.562-2.72c0.721-0.708,1.797-0.915,2.727-0.523
		l10.643,4.496c0.447,0.188,0.916,0.284,1.396,0.284c1.449,0,2.75-0.862,3.313-2.197c0.375-0.885,0.381-1.863,0.02-2.753
		c-0.361-0.89-1.047-1.586-1.932-1.959l-4.864-2.054c-0.964-0.408-1.572-1.371-1.524-2.416c0.046-1.046,0.74-1.951,1.737-2.27
		l19.609-6.258c0.915-0.291,1.663-0.921,2.102-1.773c0.441-0.854,0.523-1.827,0.23-2.742c-0.476-1.498-1.852-2.504-3.421-2.504
		c-0.369,0-0.737,0.056-1.094,0.172L150.423,116.062z"/>
	<path style="fill:#FFFFFF;" d="M116.817,104.059c1.788,1.788,2.773,4.165,2.773,6.692c0,2.529-0.985,4.905-2.773,6.694
		c-1.786,1.787-4.162,2.771-6.691,2.771c-2.528,0-4.905-0.984-6.692-2.771l-14.29-14.29c-0.902,0.352-1.643,1.053-2.023,1.993
		c-0.542,1.34-0.232,2.869,0.792,3.894c0.338,0.338,0.741,0.604,1.192,0.787l5.067,2.052c0.968,0.392,1.592,1.347,1.561,2.392
		c-0.031,1.045-0.709,1.959-1.699,2.294l-20.737,7.001c-1.879,0.635-2.894,2.677-2.26,4.554c0.18,0.531,0.469,0.998,0.86,1.389
		c0.95,0.949,2.411,1.304,3.696,0.869l11.954-4.037c0.264-0.088,0.534-0.131,0.8-0.131c0.846,0,1.658,0.432,2.124,1.182
		c0.613,0.986,0.465,2.266-0.356,3.086l-19.44,19.439c-1.4,1.401-1.399,3.682,0.002,5.084c1.359,1.358,3.725,1.358,5.082,0.002
		l19.752-19.751c0.822-0.82,2.1-0.968,3.086-0.356c0.987,0.613,1.422,1.824,1.051,2.924l-4.192,12.42
		c-0.442,1.304-0.11,2.718,0.865,3.695c0.389,0.391,0.858,0.68,1.389,0.858c0.375,0.126,0.762,0.191,1.151,0.191
		c1.544,0,2.912-0.983,3.406-2.446l7-20.738c0.335-0.99,1.25-1.668,2.295-1.699c1.077-0.01,1.998,0.592,2.392,1.56l2.051,5.067
		c0.182,0.449,0.449,0.852,0.791,1.195c0.667,0.668,1.595,1.052,2.543,1.052c0.461,0,0.914-0.089,1.349-0.265
		c1.837-0.744,2.726-2.843,1.983-4.682l-4.4-10.856c-0.379-0.936-0.157-2.011,0.563-2.72c0.719-0.707,1.797-0.916,2.726-0.521
		l10.645,4.496c0.447,0.188,0.917,0.283,1.396,0.283c1.45,0,2.751-0.861,3.315-2.196c0.77-1.828-0.086-3.942-1.912-4.712
		l-4.867-2.055c-0.965-0.406-1.573-1.371-1.526-2.416c0.047-1.045,0.741-1.951,1.738-2.269l19.611-6.258
		c0.916-0.291,1.663-0.922,2.103-1.773c0.44-0.854,0.522-1.827,0.23-2.742c-0.478-1.499-1.854-2.504-3.424-2.504
		c-0.369,0-0.737,0.056-1.094,0.171l-11.719,3.739c-1.097,0.351-2.294-0.096-2.893-1.08c-0.601-0.987-0.449-2.254,0.367-3.069
		l18.561-18.563c0.68-0.679,1.053-1.581,1.053-2.542c0-0.959-0.375-1.863-1.055-2.543c-1.356-1.356-3.721-1.358-5.08,0
		l-18.872,18.871c-0.816,0.814-2.084,0.967-3.068,0.366c-0.985-0.6-1.432-1.796-1.081-2.895l3.89-12.182
		c0.601-1.888-0.447-3.916-2.336-4.519c-0.356-0.114-0.723-0.171-1.091-0.171c-1.571,0-2.947,1.006-3.426,2.504l-6.257,19.614
		c-0.318,0.998-1.224,1.691-2.268,1.738c-1.04,0.032-2.01-0.56-2.416-1.525l-2.055-4.866c-0.565-1.337-1.866-2.199-3.319-2.199
		c-0.477,0-0.946,0.095-1.392,0.283c-0.377,0.16-0.701,0.387-0.99,0.648L116.817,104.059z"/>
	<path style="fill:#FFFFFF;" d="M274.623,273.805l-0.826,0.828c-1.833,1.834-2.842,4.266-2.842,6.854
		c0,2.589,1.009,5.021,2.84,6.851l30.06,30.063c1.83,1.83,4.264,2.838,6.853,2.838c2.588,0,5.02-1.008,6.849-2.838l0.83-0.828
		c1.831-1.83,2.838-4.264,2.838-6.854c0-2.588-1.007-5.021-2.838-6.85l-30.061-30.064c-1.83-1.83-4.263-2.836-6.851-2.836
		C278.886,270.969,276.453,271.975,274.623,273.805"/>
	<path style="fill:#FFFFFF;" d="M81.8,49.576c-0.898,0.259-3.512,1.158-5.377,3.274c-1.29,1.463-2.052,3.412-2.478,4.871
		c2.716,0.488,5.22,1.766,7.24,3.724c1.615-0.93,4.162-2.119,6.857-2.287c1.666-0.106,3.217,0.151,4.512,0.521
		c-1.066-1.92-2.391-3.723-3.998-5.33C86.56,52.353,84.277,50.75,81.8,49.576"/>
	<path style="fill:#FFFFFF;" d="M49.127,62.847c0.007,0.029,0.779,3.422,3.36,5.697c1.512,1.333,3.544,2.103,5.016,2.52
		c0.081-2.908,1.056-5.789,2.929-8.196c-0.925-1.618-2.094-4.142-2.262-6.812c-0.128-2.036,0.287-3.895,0.784-5.332
		c-1.662,1.006-3.215,2.217-4.624,3.625c-2.389,2.391-4.167,5.163-5.346,8.121C49.046,62.587,49.098,62.711,49.127,62.847"/>
	<path style="fill:#FFFFFF;" d="M88.23,62.152c-1.894,0.118-3.771,0.926-5.103,1.646c1.443,2.203,2.205,4.723,2.276,7.264
		c1.798,0.485,4.436,1.445,6.46,3.231c1.294,1.14,2.222,2.466,2.881,3.676c1.316-4.742,1.129-9.757-0.443-14.357
		C93.437,63.143,90.998,61.984,88.23,62.152"/>
	<path style="fill:#FFFFFF;" d="M63.046,48.757c-0.018,0.243-0.088,0.485-0.23,0.705c-0.016,0.025-1.868,2.971-1.652,6.405
		c0.109,1.731,0.793,3.45,1.46,4.75c2.349-1.911,5.226-2.983,8.269-3.101c0.468-1.799,1.433-4.556,3.281-6.65
		c1.088-1.235,2.347-2.138,3.511-2.792c-2.012-0.533-4.105-0.813-6.241-0.813C68.532,47.261,65.699,47.777,63.046,48.757"/>
	<path style="fill:#FFFFFF;" d="M81.948,88.962c-0.157-2.506-1.521-4.986-2.29-6.205c-1.835,1.331-3.971,2.195-6.211,2.52
		c-0.148,0.923-0.98,5.304-3.642,8.318c-0.62,0.703-1.295,1.295-1.979,1.799c1.186,0.176,2.392,0.267,3.613,0.267
		c3.334,0,6.653-0.699,9.694-2.025C81.597,92.453,82.062,90.778,81.948,88.962"/>
	<path style="fill:#FFFFFF;" d="M55.136,82.935c2.335-0.146,4.648-1.34,5.937-2.125c-1.723-1.92-2.835-4.197-3.312-6.586
		c-1.727-0.394-4.907-1.356-7.258-3.43c-1.273-1.122-2.195-2.424-2.851-3.618c-0.872,4.888-0.226,9.985,1.912,14.557
		C50.677,82.271,52.782,83.084,55.136,82.935"/>
	<path style="fill:#FFFFFF;" d="M54.571,85.953c-0.952,0-1.854-0.114-2.685-0.286c0.737,1.015,1.534,1.997,2.447,2.911
		c2.657,2.655,5.825,4.611,9.28,5.789c1.173-0.504,2.719-1.366,3.943-2.756c1.754-1.987,2.537-4.907,2.819-6.228
		c-2.528-0.191-4.918-1.052-6.971-2.498c-1.244,0.838-4.537,2.824-8.08,3.045C55.07,85.945,54.819,85.953,54.571,85.953"/>
	<path style="fill:#FFFFFF;" d="M113.458,106.356c-0.053,1.332-0.257,2.791-0.739,4.228c-0.76,2.273-2.05,4.202-3.165,5.577
		c0.19,0.019,0.378,0.055,0.573,0.055c1.459,0,2.831-0.568,3.861-1.599c1.034-1.034,1.603-2.407,1.603-3.866
		c0-1.459-0.569-2.832-1.602-3.864L113.458,106.356z"/>
	<path style="fill:#FFFFFF;" d="M100.601,108.956l5.661,5.661c0.12,0.12,0.261,0.212,0.39,0.32c1.027-1.154,2.467-3.047,3.221-5.304
		c0.797-2.377,0.638-4.916,0.421-6.44l-4.98-4.981c-0.053,1.332-0.256,2.791-0.737,4.227
		C103.619,105.294,101.831,107.604,100.601,108.956"/>
	<path style="fill:#FFFFFF;" d="M90.331,98.685c1.029-1.149,2.491-3.061,3.254-5.342c0.802-2.39,0.644-4.92,0.427-6.436l-1.16-1.162
		c-0.635-0.634-0.769-1.615-0.328-2.396c0.242-0.428,0.453-0.865,0.665-1.303c-0.203-0.746-1.082-3.539-3.31-5.504
		c-1.41-1.244-3.289-1.998-4.735-2.432c-0.459,2.376-1.533,4.658-3.241,6.593c0.841,1.252,2.817,4.537,3.038,8.071
		c0.098,1.536-0.117,2.969-0.441,4.2c0.158,0.088,0.311,0.191,0.444,0.324L90.331,98.685z"/>
	<path style="fill:#FFFFFF;" d="M97.17,90.066c-0.053,1.332-0.258,2.793-0.74,4.23c-0.955,2.854-2.742,5.164-3.972,6.516
		l6.018,6.018c1.028-1.151,2.491-3.063,3.256-5.344c0.795-2.375,0.637-4.914,0.42-6.438L97.17,90.066z"/>
</g>
</svg>
