<?xml version="1.0" encoding="iso-8859-1"?>
<!-- Generator: Adobe Illustrator 25.4.1, SVG Export Plug-In . SVG Version: 6.00 Build 0)  -->
<svg version="1.1" id="Calque_1" xmlns="http://www.w3.org/2000/svg" xmlns:xlink="http://www.w3.org/1999/xlink" x="0px" y="0px"
	 viewBox="0 0 368.5 368.5" style="enable-background:new 0 0 368.5 368.5;" xml:space="preserve">
<g>
	<path style="fill:#FFFFFF;" d="M43.612,289.021c0,5.536,4.499,10.037,10.032,10.037h263.395c5.536,0,10.037-4.501,10.037-10.037
		v-42.487H43.612V289.021z M283.501,259.117c6.295,0,11.4,5.106,11.4,11.4c0,6.3-5.105,11.401-11.4,11.401
		c-6.295,0-11.401-5.101-11.401-11.401C272.1,264.224,277.206,259.117,283.501,259.117 M244.979,259.117
		c6.295,0,11.403,5.106,11.403,11.4c0,6.3-5.108,11.401-11.403,11.401c-6.29,0-11.4-5.101-11.4-11.401
		C233.579,264.224,238.689,259.117,244.979,259.117 M206.462,259.117c6.295,0,11.4,5.106,11.4,11.4c0,6.3-5.105,11.401-11.4,11.401
		c-6.295,0-11.401-5.101-11.401-11.401C195.061,264.224,200.167,259.117,206.462,259.117"/>
	<path style="fill:#FFFFFF;" d="M123.662,79.48v160.248h123.364V79.48c0-5.533-4.499-10.035-10.037-10.035H133.694
		C128.161,69.445,123.662,73.947,123.662,79.48"/>
</g>
</svg>
