<?xml version="1.0" encoding="iso-8859-1"?>
<!-- Generator: Adobe Illustrator 25.4.1, SVG Export Plug-In . SVG Version: 6.00 Build 0)  -->
<svg version="1.1" id="Calque_1" xmlns="http://www.w3.org/2000/svg" xmlns:xlink="http://www.w3.org/1999/xlink" x="0px" y="0px"
	 viewBox="0 0 368.5 368.5" style="enable-background:new 0 0 368.5 368.5;" xml:space="preserve">
<g>
	<path style="fill:#FFFFFF;" d="M93.24,263.603c-9.635,10.093-16.648,20.324-21.242,28.019c-0.145,0.242-0.276,0.468-0.414,0.704
		l9.912,9.912c4.982-7.775,12.81-18.27,24.586-30.045c5.828-5.828,12.621-11.964,20.506-18.239
		c12.431-9.887,28.947-22.069,45.931-34.247v-2.349c0-3.992,0.254-7.745,0.711-11.291c-35.258,24.703-63.771,41.246-78.74,56.262
		C94.066,262.753,93.648,263.178,93.24,263.603"/>
	<path style="fill:#FFFFFF;" d="M108.648,274.759c-11.92,11.922-19.701,22.479-24.525,30.105l1.453,1.454
		c1.394,1.394,3.25,2.162,5.22,2.162c1.973,0,3.829-0.768,5.223-2.162l76.5-76.501v-5.645
		c-16.207,11.648-31.83,23.199-43.676,32.621C121.072,262.981,114.38,269.028,108.648,274.759"/>
	<path style="fill:#FFFFFF;" d="M95.064,234.22c20.145-20.142,43.822-39.814,84.84-79.143c1.119-1.069,2.234-2.163,3.349-3.281
		c21.758-21.751,42.95-51.522,58.659-75.829c5.228-8.087,9.849-15.564,13.689-21.95l-44.377,44.377
		c-5.096,9.32-12.93,21.778-24.258,35.356c2.395,0.699,3.993,1.044,4.032,1.053c1.265,0.266,2.283,1.209,2.642,2.451
		c0.362,1.243,0.008,2.583-0.92,3.484l-34.16,33.195c-0.662,0.642-1.541,0.99-2.439,0.99c-0.286,0-0.573-0.035-0.858-0.106
		c-0.238-0.061-3.611-0.923-8.158-2.525c-14.191,11.748-29.252,23.179-42.885,33.106l-54.562,54.561
		c-2.879,2.879-2.879,7.564,0,10.443l8.568,8.567c7.848-11.245,19.182-26.454,31.002-38.793
		C91.148,238.175,93.087,236.195,95.064,234.22"/>
	<path style="fill:#FFFFFF;" d="M182.414,157.7c-41.084,39.388-64.822,59.12-84.785,79.086c-1.957,1.957-3.877,3.919-5.781,5.904
		c-10.584,11.043-20.891,24.581-28.526,35.343c-0.869,1.222-1.695,2.402-2.488,3.543l8.102,8.102
		c4.701-7.865,11.841-18.269,21.685-28.584c0.428-0.444,0.859-0.886,1.301-1.332c16.037-15.991,45.676-32.965,82.125-58.695
		c6.515-32.81,32.851-44.926,55.847-44.926h0.924c7.073-6.466,14-13.127,20.621-19.75c16.608-16.605,31.336-32.926,41.911-45.091
		c4.336-4.99,7.959-9.261,10.736-12.58l-2.053-2.053c-3.556,3.785-8.459,8.913-14.025,14.481
		c-9.338,9.334-20.518,19.892-30.401,27.46c-4.951,3.785-9.562,6.827-13.572,8.611c-2.008,0.891-3.877,1.476-5.644,1.633
		c-1.748,0.155-3.5-0.159-4.895-1.232c-0.182-0.141-0.346-0.289-0.502-0.443c-0.004-0.002-0.006-0.006-0.01-0.009
		c-1.021-1.022-1.506-2.4-1.615-3.803c-0.309-5.22,3.275-12.359,8.557-21.006c10.09-16.277,26.885-36.95,37.857-49.943l-5.068-5.068
		c-1.395-1.394-3.25-2.162-5.223-2.162c-0.967,0-1.904,0.187-2.773,0.539c-13.164,22.663-45.125,74.846-78.899,108.639
		C184.687,155.496,183.553,156.608,182.414,157.7"/>
	<path style="fill:#FFFFFF;" d="M237.182,114.929c-1.201,2.671-1.941,4.982-2.146,6.677c-0.211,1.737,0.115,2.619,0.523,3.005
		c0.049,0.048,0.102,0.095,0.152,0.135c0.485,0.37,1.188,0.583,2.371,0.489c2.049-0.156,5.207-1.442,8.838-3.638
		c10.965-6.568,26.367-20.851,38.52-33.016c5.582-5.58,10.488-10.714,14.027-14.481L280.36,54.992
		c-9.006,10.668-21.844,26.418-31.588,40.517C243.762,102.753,239.575,109.572,237.182,114.929"/>
	<path style="fill:#FFFFFF;" d="M236.176,156.141h10.021l62.434-62.434c2.879-2.879,2.879-7.565,0-10.443l-1.971-1.97
		c-9.687,11.568-29.302,34.31-52.652,57.663C248.26,144.703,242.281,150.479,236.176,156.141"/>
	<path style="fill:#FFFFFF;" d="M216.109,186.228h-4.396c-4.221,0-7.657,3.434-7.657,7.655c0,1.099,0.233,2.141,0.645,3.085
		c0.738-0.514,1.472-1.026,2.203-1.535L216.109,186.228z"/>
	<path style="fill:#FFFFFF;" d="M140.09,169.53l-18.035,18.033c7.06-5.405,14.193-11.03,21.135-16.738
		C142.176,170.423,141.139,169.991,140.09,169.53"/>
	<path style="fill:#FFFFFF;" d="M178.787,130.833c1.535,0.658,3.037,1.23,4.439,1.719c7.188-8.507,12.989-16.589,17.581-23.74
		L178.787,130.833z"/>
	<path style="fill:#FFFFFF;" d="M263.596,156.141l9.955-9.954v-5.253c0-1.105,0.895-2,2-2h5.252l29.281-29.28
		c2.182-2.179,3.242-5.054,3.188-7.911v-2.777l-57.176,57.175H263.596z"/>
	<path style="fill:#FFFFFF;" d="M226.01,186.228l-15.277,15.277c0.32,0.042,0.646,0.071,0.98,0.071h6.449l15.348-15.348H226.01z"/>
	<path style="fill:#FFFFFF;" d="M100.969,311.268c-2.717,2.717-6.328,4.212-10.172,4.212c-3.842,0-7.453-1.495-10.17-4.212
		l-35.863-35.862l0.15,3.849c0.256,2.386,1.299,4.702,3.127,6.529l35.26,35.26c4.25,4.25,11.143,4.25,15.393,0l73.826-73.826v-7.502
		L100.969,311.268z"/>
	<rect x="284.94" y="142.934" style="fill:#FFFFFF;" width="4.078" height="13.207"/>
	<rect x="309.565" y="142.934" style="fill:#FFFFFF;" width="3.844" height="13.207"/>
	<rect x="293.018" y="142.934" style="fill:#FFFFFF;" width="4.314" height="13.207"/>
	<rect x="277.551" y="142.934" style="fill:#FFFFFF;" width="3.389" height="13.207"/>
	<rect x="301.332" y="142.934" style="fill:#FFFFFF;" width="4.233" height="13.207"/>
	<path style="fill:#FFFFFF;" d="M317.439,163.142h-87.545c-23.238,0-50.375,14.199-50.375,54.216v96.979
		c0,3.471,2.825,6.295,6.297,6.295h131.623c3.473,0,6.297-2.824,6.297-6.295v-144.9
		C323.736,165.966,320.912,163.142,317.439,163.142 M241.328,208.576h-29.615c-8.082,0-14.656-6.574-14.656-14.655
		c0-8.118,6.574-14.693,14.656-14.693h29.615c8.08,0,14.654,6.575,14.654,14.656C255.982,202.002,249.408,208.576,241.328,208.576"
		/>
	<path style="fill:#FFFFFF;" d="M51.592,60.268l47.426,48.418l14.332-14.061L66,46.304c-1.211-1.238-3.603-2.036-6.097-2.036
		c-2.836,0-5.495,1-7.291,2.743c-1.819,1.764-2.881,4.419-2.918,7.284C49.664,56.715,50.409,59.06,51.592,60.268 M57.721,52.212
		c0.834-0.819,1.937-1.271,3.107-1.271c1.2,0,2.323,0.472,3.164,1.329c1.713,1.748,1.686,4.562-0.058,6.275
		c-0.836,0.818-1.94,1.269-3.108,1.269c-1.201,0-2.326-0.473-3.166-1.33c-0.83-0.844-1.281-1.962-1.269-3.147
		C56.401,54.151,56.873,53.042,57.721,52.212"/>
	<path style="fill:#FFFFFF;" d="M110.721,135.027l12.102,12.363l28.459-27.972l-11.92-12.174c-1.03-1.05-3.207-2.115-5.371-2.115
		c-1.536,0-2.852,0.527-3.911,1.566c-0.654,0.642-1.535,1.001-2.451,1.001h-0.033c-0.93-0.009-1.816-0.386-2.467-1.05l-6.879-7.021
		l-14.334,14.062l6.637,6.774c1.352,1.38,1.33,3.595-0.051,4.948C106.653,129.184,109.356,133.632,110.721,135.027"/>
	<path style="fill:#FFFFFF;" d="M138.996,161.275c6.184,3.171,12.939,5.317,16.123,6.241l17.008-16.527
		c-2.119-0.616-4.641-1.467-7.25-2.618c-7.041-3.106-11.174-7.181-11.346-7.353c-1.369-1.365-1.373-3.581-0.008-4.949
		c1.366-1.37,3.582-1.374,4.95-0.008c0.027,0.025,3.449,3.355,9.23,5.906c4.377,1.931,8.523,2.917,10.322,3.29l5.409-5.255
		c-3.86-1.209-8.979-3.12-13.682-5.859c-5.33-3.105-10.287-7.397-13.186-10.105l-29.08,28.583
		C130.017,155.115,134.221,158.826,138.996,161.275"/>
</g>
</svg>
