<?xml version="1.0" encoding="iso-8859-1"?>
<!-- Generator: Adobe Illustrator 25.4.1, SVG Export Plug-In . SVG Version: 6.00 Build 0)  -->
<svg version="1.1" id="Calque_1" xmlns="http://www.w3.org/2000/svg" xmlns:xlink="http://www.w3.org/1999/xlink" x="0px" y="0px"
	 viewBox="0 0 368.5 368.5" style="enable-background:new 0 0 368.5 368.5;" xml:space="preserve">
<rect x="253.098" y="278.465" style="fill:#FFFFFF;" width="4" height="41.509"/>
<rect x="246.098" y="278.465" style="fill:#FFFFFF;" width="3" height="41.509"/>
<rect x="261.098" y="278.465" style="fill:#FFFFFF;" width="6" height="41.509"/>
<g>
	<path style="fill:#FFFFFF;" d="M298.785,278.466h-0.855v36.699c0.543-1.118,0.855-2.367,0.855-3.69V278.466z"/>
	<path style="fill:#FFFFFF;" d="M240.422,278.466v40.807c0.533,0.232,1.094,0.412,1.676,0.531v-41.338H240.422z"/>
	<rect x="286.098" y="278.465" style="fill:#FFFFFF;" width="2" height="41.509"/>
	<path style="fill:#FFFFFF;" d="M292.098,319.775c0.643-0.141,1.254-0.357,1.832-0.634v-40.676h-1.832V319.775z"/>
	<path style="fill:#FFFFFF;" d="M236.422,278.466h-1.127v33.009c0,1.533,0.414,2.969,1.127,4.212V278.466z"/>
	<rect x="271.098" y="278.465" style="fill:#FFFFFF;" width="4" height="41.509"/>
	<rect x="279.098" y="278.465" style="fill:#FFFFFF;" width="3" height="41.509"/>
	<path style="fill:#FFFFFF;" d="M147.467,100.471c1.086,8.502,3.324,20.518,7.965,34.119c9.09,26.612,22.797,39.197,23.359,39.708
		c1.203,1.09,2.713,1.626,4.217,1.626c1.715,0,3.424-0.697,4.666-2.069c2.332-2.575,2.133-6.551-0.443-8.882
		c-0.518-0.482-12.049-11.452-19.895-34.446c-4.029-11.789-6.109-22.343-7.181-30.06c-0.016,0-0.028,0.004-0.043,0.004H147.467z"/>
	<polygon style="fill:#FFFFFF;" points="163.611,75.66 291.494,73.418 291.494,65.508 163.611,63.264 	"/>
	<path style="fill:#FFFFFF;" d="M48.285,293.951c0,14.372,11.693,26.065,26.066,26.065h82c14.372,0,26.065-11.693,26.065-26.065
		v-48.147c0-14.332-3.496-27.287-11.69-43.319c-0.019-0.038-0.039-0.077-0.056-0.116l-33.723-72.438
		c-0.199,0.014-0.4,0.03-0.603,0.03H99.23c-0.408,0-0.804-0.039-1.197-0.097l-38.973,72.93
		c-7.546,14.576-10.775,27.451-10.775,43.01V293.951z"/>
	<path style="fill:#FFFFFF;" d="M98.063,121.793c0,0.644,0.523,1.168,1.168,1.168h37.113c0.645,0,1.17-0.524,1.17-1.168v-21.322
		H98.063V121.793z"/>
	<path style="fill:#FFFFFF;" d="M94.041,93.471h62.57V48.484h-62.57c-12.404,0-22.496,10.091-22.496,22.494
		C71.545,83.381,81.637,93.471,94.041,93.471"/>
	<path style="fill:#FFFFFF;" d="M230.473,271.466h72.447L320.215,99.7h-109.92L230.473,271.466z M255.506,109.961h22.527
		c4.233,0,7.676,3.444,7.676,7.677s-3.443,7.677-7.676,7.677h-22.527c-4.234,0-7.678-3.444-7.678-7.677
		S251.272,109.961,255.506,109.961"/>
</g>
</svg>
