<?xml version="1.0" encoding="iso-8859-1"?>
<!-- Generator: Adobe Illustrator 25.4.1, SVG Export Plug-In . SVG Version: 6.00 Build 0)  -->
<svg version="1.1" id="Calque_1" xmlns="http://www.w3.org/2000/svg" xmlns:xlink="http://www.w3.org/1999/xlink" x="0px" y="0px"
	 viewBox="0 0 368.5 368.5" style="enable-background:new 0 0 368.5 368.5;" xml:space="preserve">
<g>
	<path style="fill:#FFFFFF;" d="M102.572,143.255c0.253,0.399,0.553,0.795,0.9,1.19c0.521,0.59,1.146,1.17,1.868,1.736
		c5.299,4.153,15.862,7.494,29.205,7.494h98.844c19.41,0,32.936-7.072,32.936-13.418c0-6.345-13.526-13.416-32.936-13.416h-98.845
		c-19.408,0-32.933,7.071-32.933,13.416C101.611,141.248,101.941,142.257,102.572,143.255 M215.192,132.888h16.187
		c1.381,0,2.5,1.119,2.5,2.5s-1.119,2.5-2.5,2.5h-16.187c-1.381,0-2.5-1.119-2.5-2.5S213.811,132.888,215.192,132.888
		 M215.192,142.9h16.187c1.381,0,2.5,1.119,2.5,2.5c0,1.381-1.119,2.5-2.5,2.5h-16.187c-1.381,0-2.5-1.119-2.5-2.5
		C212.692,144.019,213.811,142.9,215.192,142.9 M188.494,132.888h16.187c1.381,0,2.5,1.119,2.5,2.5s-1.119,2.5-2.5,2.5h-16.187
		c-1.381,0-2.5-1.119-2.5-2.5S187.113,132.888,188.494,132.888 M188.494,142.9h16.187c1.381,0,2.5,1.119,2.5,2.5
		c0,1.381-1.119,2.5-2.5,2.5h-16.187c-1.381,0-2.5-1.119-2.5-2.5C185.994,144.019,187.113,142.9,188.494,142.9 M161.795,132.888
		h16.188c1.381,0,2.5,1.119,2.5,2.5s-1.119,2.5-2.5,2.5h-16.188c-1.381,0-2.5-1.119-2.5-2.5S160.414,132.888,161.795,132.888
		 M161.795,142.9h16.188c1.381,0,2.5,1.119,2.5,2.5c0,1.381-1.119,2.5-2.5,2.5h-16.188c-1.381,0-2.5-1.119-2.5-2.5
		C159.295,144.019,160.414,142.9,161.795,142.9 M135.098,132.888h16.187c1.381,0,2.5,1.119,2.5,2.5s-1.119,2.5-2.5,2.5h-16.187
		c-1.381,0-2.5-1.119-2.5-2.5S133.717,132.888,135.098,132.888 M135.098,142.9h16.187c1.381,0,2.5,1.119,2.5,2.5
		c0,1.381-1.119,2.5-2.5,2.5h-16.187c-1.381,0-2.5-1.119-2.5-2.5C132.598,144.019,133.717,142.9,135.098,142.9"/>
	<path style="fill:#FFFFFF;" d="M245.028,239.881H123.22c-15.813,0-30.103-3.027-38.411-7.916
		c1.465,25.744,12.391,43.705,19.093,52.422c0.056,0.072,0.108,0.146,0.155,0.226c5.14,8.465,17.147,13.936,30.591,13.936h99.132
		c13.09,0,24.975-5.279,30.277-13.449c0.04-0.063,0.083-0.123,0.129-0.182c6.865-8.762,18.071-26.885,19.517-53.088
		C275.445,236.811,261.078,239.881,245.028,239.881 M151.285,274.138h-16.187c-1.933,0-3.5-1.569-3.5-3.5c0-1.934,1.567-3.5,3.5-3.5
		h16.187c1.934,0,3.5,1.566,3.5,3.5C154.785,272.57,153.219,274.138,151.285,274.138 M151.285,258.562h-16.187
		c-1.933,0-3.5-1.567-3.5-3.5c0-1.932,1.567-3.5,3.5-3.5h16.187c1.934,0,3.5,1.568,3.5,3.5
		C154.785,256.996,153.219,258.562,151.285,258.562 M177.984,274.138h-16.188c-1.933,0-3.5-1.569-3.5-3.5c0-1.934,1.567-3.5,3.5-3.5
		h16.188c1.933,0,3.5,1.566,3.5,3.5C181.484,272.57,179.917,274.138,177.984,274.138 M177.984,258.562h-16.188
		c-1.933,0-3.5-1.567-3.5-3.5c0-1.932,1.567-3.5,3.5-3.5h16.188c1.933,0,3.5,1.568,3.5,3.5
		C181.484,256.996,179.917,258.562,177.984,258.562 M204.681,274.138h-16.187c-1.933,0-3.5-1.569-3.5-3.5c0-1.934,1.567-3.5,3.5-3.5
		h16.187c1.933,0,3.5,1.566,3.5,3.5C208.181,272.57,206.614,274.138,204.681,274.138 M204.681,258.562h-16.187
		c-1.933,0-3.5-1.567-3.5-3.5c0-1.932,1.567-3.5,3.5-3.5h16.187c1.933,0,3.5,1.568,3.5,3.5
		C208.181,256.996,206.614,258.562,204.681,258.562 M231.379,274.138h-16.187c-1.933,0-3.5-1.569-3.5-3.5c0-1.934,1.567-3.5,3.5-3.5
		h16.187c1.933,0,3.5,1.566,3.5,3.5C234.879,272.57,233.312,274.138,231.379,274.138 M231.379,258.562h-16.187
		c-1.933,0-3.5-1.567-3.5-3.5c0-1.932,1.567-3.5,3.5-3.5h16.187c1.933,0,3.5,1.568,3.5,3.5
		C234.879,256.996,233.312,258.562,231.379,258.562 M251.326,273.458c-5.908,0-10.714-4.807-10.714-10.715
		s4.806-10.715,10.714-10.715c5.908,0,10.714,4.807,10.714,10.715S257.234,273.458,251.326,273.458"/>
	<path style="fill:#FFFFFF;" d="M251.326,257.029c-3.151,0-5.714,2.564-5.714,5.715c0,3.152,2.563,5.715,5.714,5.715
		c3.151,0,5.714-2.563,5.714-5.715C257.04,259.593,254.477,257.029,251.326,257.029"/>
	<path style="fill:#FFFFFF;" d="M233.39,158.675h-98.845c-16.168,0-29.675-4.676-35.224-11.455
		c-4.504,13.473-14.59,47.137-14.677,78.543c6.315,5.467,21.659,9.117,38.576,9.117h121.808c16.97,0,32.748-3.81,38.828-9.316
		c-0.129-31.77-10.438-65.764-14.844-78.85C263.732,153.767,249.96,158.675,233.39,158.675 M196.312,211.3
		c-0.351,0.998-0.801,1.98-1.322,2.895c-0.114,0.191-0.229,0.375-0.346,0.562l-0.08,0.129c-2.838,4.43-7.453,7.076-12.345,7.076
		l-0.21-0.002c-4.975-0.088-9.579-2.889-12.292-7.451c-0.144-0.252-0.283-0.504-0.408-0.729c-0.403-0.755-0.719-1.462-0.976-2.195
		c-0.772-2.101-1.145-4.322-1.109-6.594c0.063-3.701,1.502-7.812,3.949-11.277c0.684-0.969,1.492-2.08,2.367-3.281
		c3.153-4.332,6.903-9.485,9.232-13.869c2.179,4.463,5.764,9.754,8.778,14.203c0.826,1.219,1.59,2.346,2.235,3.326
		c2.327,3.551,3.626,7.709,3.563,11.418C197.319,207.505,196.972,209.448,196.312,211.3"/>
	<path style="fill:#FFFFFF;" d="M199.435,90.642c1.975-2.023,1.935-5.271-0.09-7.248l-12.282-11.982
		c-2.016-1.965-5.217-1.944-7.205,0.046l-11.084,11.098c-1.999,2.004-1.996,5.248,0.004,7.248c2.004,1.998,5.249,1.998,7.248-0.004
		l2.858-2.863l0.194,15.674c0.036,2.83,2.357,5.095,5.188,5.06c2.83-0.035,5.096-2.357,5.06-5.187l-0.182-14.721l3.044,2.969
		C194.212,92.706,197.458,92.667,199.435,90.642"/>
</g>
</svg>
