<?xml version="1.0" encoding="iso-8859-1"?>
<!-- Generator: Adobe Illustrator 25.4.1, SVG Export Plug-In . SVG Version: 6.00 Build 0)  -->
<svg version="1.1" id="Calque_1" xmlns="http://www.w3.org/2000/svg" xmlns:xlink="http://www.w3.org/1999/xlink" x="0px" y="0px"
	 viewBox="0 0 368.5 368.5" style="enable-background:new 0 0 368.5 368.5;" xml:space="preserve">
<g>
	<path style="fill:#FFFFFF;" d="M280.114,145.867c0-9.684-7.877-17.565-17.565-17.565c-5.1,0-9.688,2.203-12.903,5.693
		c-0.269-0.058-0.558-0.088-0.842-0.088h-10.333c-2.278,0-4.128,1.848-4.128,4.128c0,2.281,1.85,4.129,4.128,4.129h6.914
		c-0.256,1.197-0.394,2.434-0.394,3.703c0,0.582,0.466,1.053,1.048,1.053h33.027C279.647,146.92,280.114,146.449,280.114,145.867"/>
	<path style="fill:#FFFFFF;" d="M206.494,279.063V165.187h-11.46c-0.511,0-1.012-0.047-1.502-0.117v114.112
		c0.49-0.07,0.991-0.119,1.502-0.119H206.494z"/>
	<path style="fill:#FFFFFF;" d="M124.251,75.721c1.885-0.115,3.801-0.182,5.757-0.182c2.59,0,5.118,0.111,7.581,0.311
		c3.536-11.767,14.46-20.365,27.361-20.365c15.761,0,28.582,12.82,28.582,28.579v59.718c0.49-0.069,0.991-0.118,1.501-0.118h11.461
		v-59.6c0-22.906-18.636-41.541-41.544-41.541C144.899,42.523,128.124,56.799,124.251,75.721"/>
	<path style="fill:#FFFFFF;" d="M193.532,325.988h12.962v-25.4h-11.46c-0.511,0-1.012-0.049-1.502-0.119V325.988z"/>
	<path style="fill:#FFFFFF;" d="M90.561,96.616h78.893c-1.942-7.638-17.595-15.521-39.445-15.521S92.508,88.978,90.561,96.616"/>
	<path style="fill:#FFFFFF;" d="M213.051,143.665h1.196c1.95,0,3.776,0.529,5.356,1.439c2.894-2.219,6.592-3.532,10.258-3.532
		v-5.555C223.547,136.018,217.118,138.951,213.051,143.665"/>
	<path style="fill:#FFFFFF;" d="M215.747,165.07c-0.493,0.071-0.987,0.118-1.5,0.118h-4.103
		c8.29,52.043,12.588,77.412,14.701,89.895c2.238,13.205,2.238,13.205,2.238,16.537c0,4.367-1.831,8.31-4.757,11.116
		c1.267,1.443,2.155,3.223,2.508,5.192c4.753-3.852,7.805-9.729,7.805-16.308c0-3.797,0-3.797-2.315-17.466
		C228.22,241.743,223.958,216.577,215.747,165.07"/>
	<path style="fill:#FFFFFF;" d="M189.827,154.428c0,2.87,2.337,5.204,5.205,5.204h19.216c2.869,0,5.207-2.334,5.207-5.204
		c0-2.872-2.338-5.208-5.207-5.208h-19.216C192.164,149.22,189.827,151.556,189.827,154.428"/>
	<path style="fill:#FFFFFF;" d="M189.827,289.825c0,2.873,2.337,5.21,5.205,5.21h19.216c2.869,0,5.207-2.337,5.207-5.21
		c0-2.87-2.338-5.206-5.207-5.206h-19.216C192.164,284.619,189.827,286.955,189.827,289.825"/>
	<path style="fill:#FFFFFF;" d="M144.763,141.27c-2.345,0.685-3.7,3.15-3.022,5.495c0.543,1.888,2.296,3.209,4.262,3.209
		c0.419,0,0.834-0.06,1.237-0.176c1.147-0.329,2.091-1.088,2.66-2.134c0.574-1.044,0.699-2.248,0.369-3.365
		C149.605,142.007,147.044,140.6,144.763,141.27"/>
	<path style="fill:#FFFFFF;" d="M146.003,115.608c0.419,0,0.834-0.059,1.237-0.174c1.146-0.332,2.09-1.089,2.659-2.134
		c0.574-1.045,0.7-2.247,0.368-3.369c-0.668-2.291-3.231-3.693-5.504-3.024c-2.345,0.684-3.7,3.15-3.022,5.494
		C142.283,114.292,144.036,115.608,146.003,115.608"/>
	<path style="fill:#FFFFFF;" d="M109.51,127.728c0.544,1.888,2.3,3.21,4.268,3.21c0.413,0,0.828-0.057,1.246-0.176
		c1.144-0.336,2.086-1.097,2.658-2.143c0.562-1.039,0.689-2.242,0.357-3.356c-0.663-2.291-3.178-3.705-5.507-3.025
		C110.186,122.927,108.83,125.393,109.51,127.728"/>
	<path style="fill:#FFFFFF;" d="M141.741,127.728c0.543,1.888,2.292,3.21,4.262,3.21c0.419,0,0.834-0.057,1.246-0.176
		c1.147-0.336,2.089-1.097,2.654-2.143c0.57-1.039,0.696-2.242,0.364-3.356c-0.668-2.291-3.181-3.705-5.51-3.025
		C142.415,122.927,141.063,125.393,141.741,127.728"/>
	<path style="fill:#FFFFFF;" d="M146.003,170.862c0.419,0,0.837-0.061,1.246-0.18c1.146-0.337,2.09-1.1,2.654-2.146
		c0.57-1.039,0.696-2.239,0.366-3.35c-0.661-2.288-3.151-3.713-5.512-3.027c-2.341,0.687-3.694,3.153-3.016,5.493
		C142.283,169.542,144.036,170.862,146.003,170.862"/>
	<path style="fill:#FFFFFF;" d="M112.531,162.158c-2.345,0.687-3.698,3.154-3.022,5.494c0.546,1.889,2.301,3.209,4.266,3.209
		c0.421,0,0.839-0.061,1.249-0.18c1.144-0.337,2.087-1.1,2.657-2.146c0.563-1.039,0.689-2.239,0.357-3.35
		C117.375,162.898,114.891,161.473,112.531,162.158"/>
	<path style="fill:#FFFFFF;" d="M113.777,115.608c0.419,0,0.828-0.059,1.235-0.174c1.147-0.332,2.085-1.089,2.662-2.134
		c0.57-1.045,0.702-2.247,0.364-3.369c-0.663-2.291-3.231-3.693-5.505-3.024c-2.344,0.684-3.7,3.15-3.024,5.494
		C110.055,114.292,111.81,115.608,113.777,115.608"/>
	<path style="fill:#FFFFFF;" d="M128.649,141.27c-2.344,0.685-3.702,3.15-3.022,5.495c0.541,1.888,2.296,3.209,4.264,3.209
		c0.413,0,0.832-0.06,1.234-0.176c1.148-0.329,2.088-1.088,2.662-2.134c0.573-1.044,0.7-2.248,0.369-3.365
		C133.492,142.007,130.927,140.6,128.649,141.27"/>
	<path style="fill:#FFFFFF;" d="M125.627,167.652c0.541,1.89,2.296,3.21,4.26,3.21c0.417,0,0.839-0.062,1.248-0.18
		c1.147-0.337,2.091-1.1,2.66-2.147c0.566-1.038,0.688-2.238,0.361-3.35c-0.659-2.287-3.15-3.712-5.515-3.027
		C126.297,162.845,124.947,165.312,125.627,167.652"/>
	<path style="fill:#FFFFFF;" d="M118.038,144.299c-0.663-2.293-3.22-3.699-5.505-3.029c-2.344,0.685-3.7,3.15-3.024,5.495
		c0.546,1.889,2.3,3.209,4.268,3.209c0.419,0,0.828-0.06,1.235-0.176c1.146-0.329,2.085-1.088,2.662-2.134
		C118.243,146.62,118.375,145.417,118.038,144.299"/>
	<path style="fill:#FFFFFF;" d="M125.627,127.728c0.541,1.888,2.294,3.21,4.264,3.21c0.413,0,0.832-0.057,1.244-0.176
		c1.147-0.336,2.087-1.097,2.66-2.143c0.564-1.039,0.688-2.242,0.359-3.356c-0.666-2.291-3.182-3.705-5.513-3.025
		C126.297,122.927,124.947,125.393,125.627,127.728"/>
	<path style="fill:#FFFFFF;" d="M129.891,115.608c0.413,0,0.832-0.059,1.233-0.174c1.149-0.332,2.089-1.089,2.663-2.134
		c0.572-1.045,0.7-2.247,0.367-3.369c-0.666-2.291-3.235-3.693-5.505-3.024c-2.345,0.684-3.702,3.15-3.022,5.494
		C126.168,114.292,127.923,115.608,129.891,115.608"/>
	<path style="fill:#FFFFFF;" d="M261.902,188.958c-2.344,0.683-3.703,3.148-3.023,5.494c0.544,1.888,2.299,3.208,4.258,3.208
		c0.424,0,0.837-0.06,1.237-0.175c1.146-0.332,2.097-1.089,2.665-2.133c0.572-1.047,0.699-2.25,0.369-3.369
		C266.746,189.693,264.181,188.285,261.902,188.958"/>
	<path style="fill:#FFFFFF;" d="M258.877,175.414c0.541,1.89,2.292,3.211,4.26,3.211c0.421,0,0.836-0.058,1.251-0.177
		c1.146-0.334,2.085-1.097,2.657-2.143c0.566-1.039,0.693-2.24,0.359-3.358c-0.663-2.289-3.182-3.703-5.509-3.024
		C259.551,170.613,258.199,173.08,258.877,175.414"/>
	<path style="fill:#FFFFFF;" d="M263.138,163.294c0.424,0,0.836-0.056,1.237-0.175c1.146-0.33,2.096-1.089,2.663-2.134
		c0.574-1.044,0.7-2.246,0.368-3.367c-0.665-2.291-3.229-3.693-5.503-3.026c-2.346,0.684-3.704,3.149-3.025,5.496
		C259.422,161.976,261.177,163.294,263.138,163.294"/>
</g>
</svg>
