<?xml version="1.0" encoding="iso-8859-1"?>
<!-- Generator: Adobe Illustrator 25.4.1, SVG Export Plug-In . SVG Version: 6.00 Build 0)  -->
<svg version="1.1" id="Calque_1" xmlns="http://www.w3.org/2000/svg" xmlns:xlink="http://www.w3.org/1999/xlink" x="0px" y="0px"
	 viewBox="0 0 368.5 368.5" style="enable-background:new 0 0 368.5 368.5;" xml:space="preserve">
<g>
	<path style="fill:#FFFFFF;" d="M254.769,133.916l10.135-8.666H104.411l10.138,8.666c0.112,0.097,0.206,0.207,0.302,0.316h139.615
		C254.562,134.123,254.656,134.013,254.769,133.916"/>
	<polygon style="fill:#FFFFFF;" points="265.674,288.869 264.931,288.869 273.353,296.069 273.969,296.069 273.969,125.934 
		264.264,134.233 265.674,134.233 	"/>
	<polygon style="fill:#FFFFFF;" points="105.828,296.069 263.487,296.069 255.069,288.869 114.248,288.869 	"/>
	<polygon style="fill:#FFFFFF;" points="104.974,288.365 104.974,134.233 105.053,134.233 95.59,126.145 95.59,296.069 
		95.964,296.069 	"/>
	<path style="fill:#FFFFFF;" d="M96.913,118.84h175.488l25.403-21.719c-0.029-0.001-0.058-0.009-0.088-0.009h-69.889l-32.579-41.568
		c0.29-0.939,0.49-1.917,0.49-2.953c0-5.559-4.509-10.068-10.074-10.068c-5.561,0-10.07,4.509-10.07,10.068
		c0,1.151,0.234,2.238,0.588,3.268l-32.329,41.253H72.931c-0.438,0-0.864,0.056-1.281,0.129L96.913,118.84z M180.247,61.063
		c1.567,1.005,3.418,1.604,5.417,1.604c2.099,0,4.046-0.644,5.659-1.741l28.36,36.186h-67.685L180.247,61.063z"/>
	<path style="fill:#FFFFFF;" d="M89.89,301.264c-0.436-0.549-0.709-1.234-0.709-1.99V122.046c0-0.421,0.085-0.817,0.231-1.185
		l-23.074-19.728c-0.547,1.037-0.885,2.203-0.885,3.459v213.917c0,1.098,0.25,2.132,0.674,3.071L89.89,301.264z"/>
	<path style="fill:#FFFFFF;" d="M280.08,120.71c0.188,0.408,0.298,0.859,0.298,1.335v177.229c0,0.813-0.311,1.546-0.809,2.111
		l24.529,20.974c0.682-1.127,1.097-2.435,1.097-3.85V104.591c0-1.572-0.488-3.026-1.316-4.229L280.08,120.71z"/>
	<path style="fill:#FFFFFF;" d="M270.986,302.479H98.33l-27.208,23.262c0.582,0.146,1.183,0.246,1.809,0.246h224.785
		c0.234,0,0.453-0.046,0.681-0.068L270.986,302.479z"/>
	<path style="fill:#FFFFFF;" d="M247.983,250.242c0,0-15.673-11.393-22.795-18.519c-7.126-7.122-14.245,0-14.245,0l-27.063,28.493
		l8.547-21.367c0,0-14.247-18.522-22.794-25.641c-8.547-7.121-14.246,0-14.246,0l-31.336,34.188l-7.126,31.335h132.479
		L247.983,250.242z"/>
	<path style="fill:#FFFFFF;" d="M218.066,203.678c8.902,0,16.12-7.214,16.12-16.111c0-8.906-7.218-16.12-16.12-16.12
		c-8.895,0-16.111,7.214-16.111,16.12C201.955,196.464,209.171,203.678,218.066,203.678"/>
</g>
</svg>
