<?xml version="1.0" encoding="iso-8859-1"?>
<!-- Generator: Adobe Illustrator 25.4.1, SVG Export Plug-In . SVG Version: 6.00 Build 0)  -->
<svg version="1.1" id="Calque_1" xmlns="http://www.w3.org/2000/svg" xmlns:xlink="http://www.w3.org/1999/xlink" x="0px" y="0px"
	 viewBox="0 0 368.5 368.5" style="enable-background:new 0 0 368.5 368.5;" xml:space="preserve">
<g>
	<path style="fill:#FFFFFF;" d="M183.344,102.996l0.07,0.066c0.496,0.502,0.982,0.942,1.53,1.397
		c0.141,0.119,0.314,0.177,0.49,0.177c0.13,0,0.258-0.031,0.378-0.099c0.278-0.158,0.428-0.47,0.38-0.786
		c-0.907-5.789,1.023-11.717,5.16-15.855l7.768-7.765l2.654-2.657c8.612-8.616,9.178-22.628,1.29-31.903
		c-0.4-0.473-0.83-0.971-1.288-1.429c-0.516-0.513-1.041-0.993-1.566-1.43c-0.141-0.118-0.314-0.179-0.489-0.179
		c-0.13,0-0.261,0.034-0.38,0.103c-0.277,0.157-0.428,0.468-0.378,0.785c0.922,5.811-0.998,11.752-5.134,15.89l-7.764,7.766
		l-2.657,2.655C174.255,78.88,174.227,93.804,183.344,102.996"/>
	<path style="fill:#FFFFFF;" d="M214.127,91.282c4.106-4.109,4.376-10.796,0.617-15.218c-0.195-0.227-0.404-0.468-0.614-0.682
		c-0.243-0.239-0.493-0.468-0.753-0.682c-0.067-0.055-0.148-0.085-0.233-0.085c-0.06,0-0.123,0.016-0.178,0.05
		c-0.133,0.073-0.205,0.224-0.181,0.372c0.44,2.771-0.475,5.607-2.45,7.579l-3.701,3.705l-1.269,1.267
		c-4.364,4.363-4.376,11.481-0.028,15.866c0.27,0.271,0.501,0.482,0.763,0.698c0.068,0.056,0.149,0.086,0.233,0.086
		c0.061,0,0.124-0.016,0.182-0.048c0.13-0.075,0.203-0.224,0.178-0.374c-0.433-2.763,0.489-5.589,2.462-7.564l3.705-3.706
		L214.127,91.282z"/>
	<path style="fill:#FFFFFF;" d="M157.815,86.321l-1.269,1.269c-4.362,4.362-4.378,11.48-0.029,15.865
		c0.271,0.27,0.505,0.481,0.762,0.697c0.066,0.055,0.152,0.086,0.235,0.086c0.061,0,0.122-0.016,0.176-0.049
		c0.135-0.073,0.208-0.223,0.184-0.372c-0.432-2.763,0.49-5.591,2.464-7.565l3.703-3.704l1.268-1.266
		c4.106-4.109,4.377-10.792,0.615-15.219c-0.206-0.239-0.407-0.473-0.615-0.682c-0.24-0.238-0.488-0.465-0.749-0.681
		c-0.069-0.055-0.152-0.083-0.234-0.083c-0.06,0-0.124,0.015-0.18,0.046c-0.132,0.075-0.204,0.226-0.178,0.376
		c0.437,2.773-0.478,5.605-2.45,7.578L157.815,86.321z"/>
	<path style="fill:#FFFFFF;" d="M144.187,314.199c-2.389,0-4.676-0.422-6.817-1.166l-5.704,5.707c-1.661,1.662-1.661,4.352,0,6.012
		c0.83,0.831,1.917,1.246,3.005,1.246s2.175-0.415,3.006-1.246l10.551-10.553H144.187z"/>
	<path style="fill:#FFFFFF;" d="M238.992,318.74l-5.704-5.707c-2.142,0.744-4.428,1.166-6.818,1.166h-4.04l10.551,10.553
		c0.832,0.83,1.921,1.246,3.008,1.246s2.175-0.416,3.003-1.246C240.655,323.092,240.655,320.402,238.992,318.74"/>
	<path style="fill:#FFFFFF;" d="M241.709,293.328V188.42c0-1.814-1.471-3.284-3.285-3.284H132.235c-1.817,0-3.287,1.47-3.287,3.284
		v104.908c0,8.405,6.835,15.242,15.239,15.242h82.284C234.873,308.57,241.709,301.733,241.709,293.328 M221.298,226.723
		c4.131,0,7.483,3.35,7.483,7.485c0,4.134-3.352,7.485-7.483,7.485c-4.137,0-7.488-3.351-7.488-7.485
		C213.81,230.073,217.161,226.723,221.298,226.723 M149.364,260.563c-4.135,0-7.488-3.349-7.488-7.483
		c0-4.136,3.353-7.485,7.488-7.485c4.134,0,7.484,3.349,7.484,7.485C156.848,257.214,153.498,260.563,149.364,260.563
		 M149.364,217.328c-4.135,0-7.488-3.351-7.488-7.487c0-4.131,3.353-7.48,7.488-7.48c4.134,0,7.484,3.349,7.484,7.48
		C156.848,213.977,153.498,217.328,149.364,217.328 M173.729,284.926c-4.137,0-7.49-3.351-7.49-7.485
		c0-4.131,3.353-7.482,7.49-7.482c4.132,0,7.482,3.351,7.482,7.482C181.211,281.575,177.861,284.926,173.729,284.926
		 M173.729,241.693c-4.137,0-7.49-3.351-7.49-7.485c0-4.135,3.353-7.485,7.49-7.485c4.132,0,7.482,3.35,7.482,7.485
		C181.211,238.342,177.861,241.693,173.729,241.693 M196.934,260.563c-4.135,0-7.485-3.349-7.485-7.483
		c0-4.136,3.35-7.485,7.485-7.485s7.482,3.349,7.482,7.485C204.416,257.214,201.069,260.563,196.934,260.563 M196.934,217.328
		c-4.135,0-7.485-3.351-7.485-7.487c0-4.131,3.35-7.48,7.485-7.48s7.482,3.349,7.482,7.48
		C204.416,213.977,201.069,217.328,196.934,217.328 M213.81,277.441c0-4.131,3.351-7.482,7.488-7.482
		c4.131,0,7.483,3.351,7.483,7.482c0,4.134-3.352,7.485-7.483,7.485C217.161,284.926,213.81,281.575,213.81,277.441"/>
	<path style="fill:#FFFFFF;" d="M258.251,160.565c0-2.575-2.085-4.659-4.659-4.659H117.066c-2.573,0-4.657,2.084-4.657,4.659v9.308
		c0,2.572,2.084,4.654,4.657,4.654h136.526c2.574,0,4.659-2.082,4.659-4.654V160.565z"/>
	<path style="fill:#FFFFFF;" d="M199.345,114.931h-26.151c-0.787,0-1.491,0.492-1.762,1.23l-11.264,30.661
		c-0.212,0.578-0.127,1.219,0.223,1.725c0.35,0.502,0.927,0.804,1.539,0.804h46.799c0.593,0,1.156-0.282,1.51-0.762
		c0.354-0.482,0.461-1.098,0.285-1.666l-9.383-30.664C200.899,115.471,200.17,114.931,199.345,114.931"/>
	<path style="fill:#FFFFFF;" d="M253.579,150.022c1.408,0,2.55-1.139,2.55-2.55v-9.383c0-4.339-3.531-7.869-7.872-7.869h-19.391
		c-4.341,0-7.87,3.53-7.87,7.869v9.383c0,1.411,1.143,2.55,2.551,2.55c1.407,0,2.55-1.139,2.55-2.55v-9.383
		c0-1.526,1.24-2.768,2.769-2.768h19.391c1.529,0,2.772,1.242,2.772,2.768v9.383C251.029,148.883,252.172,150.022,253.579,150.022"
		/>
</g>
</svg>
