<?xml version="1.0" encoding="iso-8859-1"?>
<!-- Generator: Adobe Illustrator 25.4.1, SVG Export Plug-In . SVG Version: 6.00 Build 0)  -->
<svg version="1.1" id="Calque_1" xmlns="http://www.w3.org/2000/svg" xmlns:xlink="http://www.w3.org/1999/xlink" x="0px" y="0px"
	 viewBox="0 0 368.5 368.5" style="enable-background:new 0 0 368.5 368.5;" xml:space="preserve">
<g>
	<path style="fill:#FFFFFF;" d="M312.411,45.979H56.088c-5.238,0-9.5,4.262-9.5,9.5v257.543c0,5.238,4.262,9.5,9.5,9.5h256.323
		c5.238,0,9.5-4.262,9.5-9.5V55.479C321.911,50.241,317.649,45.979,312.411,45.979 M298.427,206.893
		c-1.378,1.312-3.187,2.035-5.09,2.035c-2.014,0-3.965-0.838-5.352-2.297l-0.771-0.81v43.074c0,7.996-6.505,14.5-14.5,14.5H94.564
		c-7.995,0-14.5-6.504-14.5-14.5v-11.133c-2.52-1.178-4.275-3.728-4.275-6.689v-24.43c0-2.961,1.755-5.512,4.275-6.689v-36.192
		c-2.52-1.178-4.275-3.728-4.275-6.689v-24.43c0-2.959,1.755-5.51,4.275-6.688v-8.794c0-7.994,6.505-14.5,14.5-14.5h178.15
		c7.995,0,14.5,6.506,14.5,14.5v67.222l11.475,12.069C301.495,199.403,301.377,204.086,298.427,206.893"/>
	<path style="fill:#FFFFFF;" d="M282.214,200.563l-11.063-11.635c-2.806-2.951-2.688-7.635,0.263-10.441
		c1.379-1.313,3.186-2.034,5.088-2.034c2.015,0,3.966,0.836,5.353,2.295l0.359,0.377V117.16c0-5.238-4.262-9.5-9.5-9.5H94.564
		c-5.238,0-9.5,4.262-9.5,9.5v8.354c3.159,0.838,5.497,3.711,5.497,7.129v24.43c0,3.418-2.338,6.293-5.497,7.13v35.307
		c3.159,0.838,5.497,3.715,5.497,7.133v24.43c0,3.418-2.338,6.293-5.497,7.13v10.692c0,5.238,4.262,9.5,9.5,9.5h178.15
		c5.238,0,9.5-4.262,9.5-9.5V200.563z M266.167,125.348V239.66c0,7.122-5.793,12.915-12.913,12.915H113.661
		c-7.12,0-12.913-5.793-12.913-12.915V125.348c0-7.121,5.793-12.916,12.913-12.916h139.593
		C260.374,112.432,266.167,118.227,266.167,125.348"/>
	<path style="fill:#FFFFFF;" d="M83.175,233.457c1.315,0,2.386-1.068,2.386-2.385v-24.429c0-1.317-1.071-2.387-2.386-2.387
		c-1.315,0-2.385,1.07-2.385,2.387v24.429C80.79,232.389,81.86,233.457,83.175,233.457"/>
	<path style="fill:#FFFFFF;" d="M83.175,159.457c1.315,0,2.386-1.068,2.386-2.385v-24.429c0-1.315-1.071-2.383-2.386-2.383
		c-1.315,0-2.385,1.068-2.385,2.383v24.429C80.79,158.389,81.86,159.457,83.175,159.457"/>
	<path style="fill:#FFFFFF;" d="M278.233,182.193c-0.455-0.478-1.069-0.74-1.73-0.74c-0.614,0-1.198,0.232-1.643,0.656
		c-0.953,0.906-0.991,2.42-0.084,3.373l16.833,17.703c0.877,0.922,2.448,0.963,3.372,0.084c0.954-0.906,0.992-2.42,0.086-3.373
		L278.233,182.193z"/>
	<path style="fill:#FFFFFF;" d="M180.5,203.797c0.588,0.592,1.164,1.115,1.816,1.654c0.165,0.143,0.372,0.213,0.58,0.213
		c0.154,0,0.309-0.039,0.448-0.121c0.331-0.187,0.509-0.559,0.45-0.928c-1.079-6.878,1.213-13.914,6.129-18.832l9.225-9.22
		l3.151-3.159c10.226-10.226,10.9-26.865,1.533-37.88c-0.437-0.51-0.978-1.139-1.533-1.698c-0.607-0.605-1.232-1.175-1.858-1.697
		c-0.169-0.139-0.372-0.211-0.582-0.211c-0.154,0-0.31,0.037-0.45,0.121c-0.331,0.186-0.508,0.557-0.448,0.932
		c1.094,6.896-1.183,13.953-6.096,18.867l-9.222,9.223l-3.154,3.156c-10.871,10.863-10.903,28.58-0.076,39.496L180.5,203.797z"/>
	<path style="fill:#FFFFFF;" d="M208.07,183.912l-1.507,1.506c-5.181,5.183-5.198,13.633-0.034,18.84
		c0.322,0.322,0.599,0.576,0.908,0.83c0.079,0.066,0.177,0.095,0.275,0.095c0.076,0,0.149-0.015,0.217-0.052
		c0.156-0.092,0.241-0.268,0.213-0.446c-0.513-3.277,0.58-6.632,2.922-8.98l4.4-4.4l1.503-1.502
		c4.88-4.881,5.198-12.815,0.731-18.069c-0.23-0.269-0.475-0.556-0.731-0.812c-0.284-0.281-0.58-0.555-0.889-0.807
		c-0.079-0.068-0.175-0.099-0.275-0.099c-0.073,0-0.149,0.017-0.215,0.056c-0.158,0.086-0.244,0.266-0.212,0.445
		c0.523,3.291-0.564,6.651-2.91,9L208.07,183.912z"/>
	<path style="fill:#FFFFFF;" d="M149.465,205.088c0.079,0.062,0.177,0.102,0.277,0.102c0.073,0,0.147-0.02,0.215-0.059
		c0.156-0.088,0.241-0.266,0.213-0.441c-0.515-3.278,0.58-6.637,2.922-8.985l4.4-4.4l1.503-1.504
		c4.88-4.879,5.198-12.811,0.731-18.067c-0.23-0.271-0.475-0.556-0.731-0.812c-0.286-0.283-0.578-0.555-0.889-0.809
		c-0.079-0.066-0.175-0.099-0.275-0.099c-0.073,0-0.149,0.019-0.215,0.058c-0.154,0.086-0.241,0.264-0.212,0.442
		c0.521,3.295-0.565,6.658-2.91,9l-4.396,4.4l-1.507,1.504c-5.183,5.184-5.196,13.633-0.034,18.838
		C148.878,204.58,149.154,204.83,149.465,205.088"/>
	<path style="fill:#FFFFFF;" d="M178.308,231.664h-31.79c-2.537,0-4.59,2.053-4.59,4.586c0,2.537,2.053,4.592,4.59,4.592h31.79
		c2.535,0,4.59-2.055,4.59-4.592C182.898,233.717,180.843,231.664,178.308,231.664"/>
	<path style="fill:#FFFFFF;" d="M223.75,231.965l-38.022-14.539c-2.377-0.904-5.019,0.287-5.925,2.65
		c-0.906,2.371,0.279,5.024,2.648,5.926l38.02,14.537c0.541,0.207,1.094,0.303,1.637,0.303c1.849,0,3.591-1.121,4.29-2.953
		C227.304,235.526,226.118,232.867,223.75,231.965"/>
</g>
</svg>
