<?xml version="1.0" encoding="iso-8859-1"?>
<!-- Generator: Adobe Illustrator 25.4.1, SVG Export Plug-In . SVG Version: 6.00 Build 0)  -->
<svg version="1.1" id="Calque_1" xmlns="http://www.w3.org/2000/svg" xmlns:xlink="http://www.w3.org/1999/xlink" x="0px" y="0px"
	 viewBox="0 0 368.5 368.5" style="enable-background:new 0 0 368.5 368.5;" xml:space="preserve">
<g>
	<path style="fill:#FFFFFF;" d="M42.533,99.924v168.671c0,25.468,19.978,46.101,44.596,46.101h194.275
		c24.621,0,44.593-20.633,44.593-46.101V99.924c0-25.467-19.972-46.103-44.593-46.103H87.129
		C62.511,53.821,42.533,74.457,42.533,99.924 M92.918,229.062l11.135-104.528c1.136-10.674,11.266-19.361,22.582-19.361h113.038
		c5.944,0,11.431,2.4,15.057,6.586c1.724,1.989,2.947,4.293,3.657,6.752c2.585,3.031,4.174,6.989,4.174,11.354v116.857
		c0,9.462-7.417,17.127-16.581,17.127h-15.828h-97.176h-0.04c-0.586,0-1.172-0.031-1.746-0.093
		c-9.24-0.664-17.744-6.422-22.804-14.704c-4.422-0.803-8.386-2.955-11.217-6.223C93.887,239.04,92.374,234.152,92.918,229.062"/>
	<path style="fill:#FFFFFF;" d="M112.223,240.349h113.05c6.853,0,13.203-5.172,13.854-11.286l11.135-104.529
		c0.274-2.527-0.445-4.85-2.059-6.725c-1.972-2.262-5.076-3.572-8.527-3.572H126.635c-6.868,0-13.206,5.169-13.863,11.291
		l-11.13,104.525c-0.276,2.527,0.44,4.854,2.059,6.724C105.67,239.046,108.778,240.349,112.223,240.349 M161.236,221.098
		l2.163-20.269c0.364-3.381,3.28-5.828,6.587-5.456c3.279,0.369,5.642,3.42,5.279,6.803l-2.158,20.28
		c-0.335,3.155-2.918,5.49-5.927,5.49c-0.209,0-0.437-0.02-0.659-0.042C163.239,227.541,160.873,224.484,161.236,221.098"/>
</g>
</svg>
