<?xml version="1.0" encoding="iso-8859-1"?>
<!-- Generator: Adobe Illustrator 25.4.1, SVG Export Plug-In . SVG Version: 6.00 Build 0)  -->
<svg version="1.1" id="Calque_1" xmlns="http://www.w3.org/2000/svg" xmlns:xlink="http://www.w3.org/1999/xlink" x="0px" y="0px"
	 viewBox="0 0 368.5 368.5" style="enable-background:new 0 0 368.5 368.5;" xml:space="preserve">
<g>
	<path style="fill:#FFFFFF;" d="M287.768,79.375c0-10.852-5.437-20.449-13.726-26.234c-3.194-2.229-6.811-3.889-10.706-4.834
		c9.394,7.123,15.475,18.396,15.475,31.068v105.203l4.764-42.967l4.193-37.83V79.375z"/>
	<path style="fill:#FFFFFF;" d="M112.71,321.102h4.753c-10.103-7.051-16.731-18.752-16.731-31.979c0-0.421,0.086-0.82,0.223-1.195
		c0.002-0.105-0.009-0.209,0.003-0.316l20.395-183.83V79.375c0-13.226,6.627-24.925,16.729-31.976H112.71
		c-17.633,0-31.978,14.344-31.978,31.976v209.748C80.732,306.756,95.077,321.102,112.71,321.102"/>
	<path style="fill:#FFFFFF;" d="M271.811,79.375c0-17.633-14.345-31.977-31.978-31.977h-27h-52.504
		c-17.632,0-31.977,14.344-31.977,31.977v24.6c0,0.129-0.007,0.257-0.021,0.384l-20.416,184.024
		c-0.03,0.269-0.097,0.521-0.183,0.765c0.015,17.621,14.354,31.953,31.978,31.953h73.123h27c17.633,0,31.978-14.345,31.978-31.978
		V79.375z M237.623,221.121h-96.221c-3.313,0-6-2.687-6-6c0-3.314,2.687-6,6-6h96.221c3.313,0,6,2.686,6,6
		C243.623,218.434,240.936,221.121,237.623,221.121 M243.623,235.121c0,3.313-2.687,6-6,6h-96.221c-3.313,0-6-2.687-6-6
		c0-3.314,2.687-6,6-6h96.221C240.936,229.121,243.623,231.807,243.623,235.121 M237.623,201.135h-96.221c-3.313,0-6-2.688-6-6
		c0-3.315,2.687-6,6-6h96.221c3.313,0,6,2.685,6,6C243.623,198.447,240.936,201.135,237.623,201.135 M237.623,180.48h-96.221
		c-3.313,0-6-2.687-6-6c0-3.314,2.687-6,6-6h96.221c3.313,0,6,2.686,6,6C243.623,177.793,240.936,180.48,237.623,180.48
		 M193.461,72.15c20.295,0,36.806,18.061,36.806,40.262c0,22.199-16.511,40.262-36.806,40.262
		c-20.296,0-36.808-18.063-36.808-40.262C156.653,90.211,173.165,72.15,193.461,72.15 M137.208,294.545
		c-8.324,0-15.096-7.326-15.096-16.33c0-9.006,6.772-16.33,15.096-16.33c8.324,0,15.097,7.324,15.097,16.33
		C152.305,287.219,145.532,294.545,137.208,294.545 M247.886,296.914h-72.829c-6.339,0-11.496-5.156-11.496-11.494v-15.592
		c0-6.338,5.157-11.494,11.496-11.494h72.829c6.338,0,11.495,5.156,11.495,11.494v15.592
		C259.381,291.758,254.224,296.914,247.886,296.914"/>
	<path style="fill:#FFFFFF;" d="M145.305,278.215c0-5.145-3.632-9.33-8.097-9.33c-4.464,0-8.096,4.185-8.096,9.33
		c0,5.145,3.632,9.33,8.096,9.33C141.673,287.545,145.305,283.36,145.305,278.215"/>
	<path style="fill:#FFFFFF;" d="M252.382,269.828c0-2.479-2.017-4.494-4.495-4.494h-72.829c-2.479,0-4.496,2.015-4.496,4.494v15.592
		c0,2.478,2.017,4.494,4.496,4.494h72.829c2.478,0,4.495-2.016,4.495-4.494V269.828z"/>
	<path style="fill:#FFFFFF;" d="M166.587,112.654c0,0.316,0.016,0.58,0.037,0.805c0.404,4.314,4.033,7.55,8.282,7.552
		c0.26,0,0.523-0.013,0.786-0.039c4.298-0.402,7.525-4.002,7.552-8.226c0.036-0.367,0.302-3.711,3.655-8.424
		c1.853-2.586,3.541-3.912,4.617-4.604c0.537-0.345,0.921-0.523,1.09-0.597c0.026-0.01,0.046-0.02,0.061-0.026
		c4.265-1.318,6.75-5.791,5.574-10.133c-1.204-4.441-5.778-7.062-10.217-5.859c-1.329,0.326-8.424,2.744-14.677,11.535
		C167.043,103.443,166.567,110.945,166.587,112.654"/>
</g>
</svg>
