<?xml version="1.0" encoding="iso-8859-1"?>
<!-- Generator: Adobe Illustrator 25.4.1, SVG Export Plug-In . SVG Version: 6.00 Build 0)  -->
<svg version="1.1" id="Calque_1" xmlns="http://www.w3.org/2000/svg" xmlns:xlink="http://www.w3.org/1999/xlink" x="0px" y="0px"
	 viewBox="0 0 368.5 368.5" style="enable-background:new 0 0 368.5 368.5;" xml:space="preserve">
<g>
	<path style="fill:#FFFFFF;" d="M63.512,212.455h30.713c0.726-0.365,1.469-0.72,2.249-1.058l0.231-0.09l83.384-29.147
		c3.865-1.566,8.522-2.392,13.475-2.392c6.116,0,12.388,1.213,18.43,3.494V63.975c0-11.498-9.353-20.852-20.849-20.852H63.512
		c-11.496,0-20.849,9.354-20.849,20.852v127.629C42.663,203.102,52.016,212.455,63.512,212.455 M126.532,185.215
		c-31.665,0-57.427-25.762-57.427-57.426s25.762-57.424,57.427-57.424s57.426,25.76,57.426,57.424S158.197,185.215,126.532,185.215"
		/>
	<path style="fill:#FFFFFF;" d="M148.836,115.225c-6.729,0-12.203,5.475-12.203,12.203c0,6.729,5.474,12.205,12.203,12.205
		c6.729,0,12.202-5.476,12.202-12.205C161.038,120.7,155.565,115.225,148.836,115.225"/>
	<path style="fill:#FFFFFF;" d="M103.917,115.225c-6.729,0-12.203,5.475-12.203,12.203c0,6.729,5.474,12.205,12.203,12.205
		c6.729,0,12.203-5.476,12.203-12.205C116.12,120.7,110.646,115.225,103.917,115.225"/>
	<path style="fill:#FFFFFF;" d="M226.723,314.396c-5.97,2.723-11.586,4.047-17.158,4.047h-0.001
		c-8.983,0-18.004-3.447-29.251-11.176l-91.867-64.76c-0.074-0.056-0.142-0.115-0.214-0.174v0.834
		c-0.026,2.731,1.546,5.448,4.427,7.686l91.652,64.604c10.11,6.945,17.673,9.919,25.252,9.919c4.551,0,9.217-1.119,14.264-3.419
		l100.335-45.428c0.265-0.242,1.303-1.565,1.294-3.83v-3.006L226.723,314.396z"/>
	<path style="fill:#FFFFFF;" d="M193.565,186.768c-4.09,0-7.865,0.66-10.913,1.906l-0.17,0.065l-83.347,29.135
		c-6.498,2.826-10.351,6.586-10.851,10.593c-0.371,2.977,1.182,5.975,4.374,8.452l91.654,64.603
		c10.109,6.947,17.672,9.922,25.252,9.922h0.001c4.549,0,9.215-1.119,14.262-3.42l100.226-45.379
		c0.564-0.59,2.052-3.049,1.742-6.086c-0.326-3.213-2.575-5.965-6.683-8.18l-98.076-52.482l-0.165-0.115
		C212.488,189.969,202.791,186.768,193.565,186.768 M262.258,234.939c1.001,0.373,1.776,1.184,2.105,2.201
		c0.064,0.195,1.55,4.871,1.085,10.76c-0.295,3.699-1.001,6.748-1.539,8.656c-0.001,0.072,0.003,0.145-0.003,0.217
		c-0.112,1.312-0.954,2.451-2.175,2.945l-44.52,17.989c-0.425,0.171-0.869,0.255-1.31,0.255H215.9c-0.199,0-0.396-0.021-0.591-0.056
		c-0.06-0.01-0.118-0.026-0.178-0.039c-0.137-0.032-0.27-0.069-0.403-0.115c-0.065-0.024-0.127-0.047-0.19-0.075
		c-0.134-0.054-0.262-0.123-0.388-0.195c-0.051-0.029-0.102-0.053-0.151-0.084c-0.013-0.01-0.028-0.016-0.042-0.025l-70.082-46.766
		c-0.047-0.031-0.087-0.068-0.132-0.102c-0.064-0.046-0.128-0.093-0.188-0.146c-0.072-0.061-0.139-0.127-0.205-0.193
		c-0.054-0.053-0.108-0.104-0.157-0.161c-0.067-0.076-0.125-0.154-0.184-0.234c-0.041-0.057-0.084-0.109-0.122-0.168
		c-0.061-0.092-0.112-0.189-0.163-0.287c-0.028-0.051-0.059-0.1-0.082-0.152c-0.071-0.151-0.13-0.307-0.178-0.465
		c-0.003-0.012-0.005-0.024-0.008-0.033c-0.045-0.157-0.079-0.313-0.101-0.475c-0.008-0.053-0.008-0.107-0.014-0.162
		c-0.011-0.119-0.021-0.236-0.02-0.356c0-0.017-0.003-0.033-0.002-0.05c0-0.053,0.011-0.104,0.015-0.157
		c0.005-0.076,0.004-0.15,0.014-0.226c0.004-0.028,0.013-0.055,0.016-0.082c0.012-0.076,0.03-0.151,0.047-0.227
		c0.021-0.094,0.043-0.185,0.071-0.275c0.023-0.072,0.048-0.145,0.077-0.215c0.034-0.09,0.071-0.176,0.112-0.262
		c0.032-0.066,0.066-0.133,0.103-0.197c0.046-0.084,0.098-0.164,0.152-0.244c0.04-0.061,0.081-0.119,0.125-0.176
		c0.06-0.078,0.126-0.152,0.193-0.227c0.047-0.05,0.092-0.101,0.142-0.15c0.075-0.072,0.156-0.139,0.238-0.205
		c0.05-0.041,0.098-0.084,0.151-0.121c0.095-0.068,0.197-0.129,0.3-0.19c0.045-0.025,0.088-0.054,0.135-0.08
		c0.155-0.08,0.317-0.15,0.485-0.209l0.252-0.084l45.247-15.423c0.765-0.26,1.595-0.248,2.353,0.033L262.258,234.939z"/>
	<path style="fill:#FFFFFF;" d="M213.733,268.809c0.264-1.316,0.508-2.818,0.646-4.391c0.2-2.263-0.162-4.859-0.468-6.521
		l-39.546-15.358L213.733,268.809z"/>
	<path style="fill:#FFFFFF;" d="M258.47,247.348c0.137-1.725,0.053-3.311-0.101-4.615L220.945,257.5
		c0.337,2.069,0.641,4.889,0.408,7.533c-0.112,1.274-0.281,2.502-0.475,3.643l36.493-14.746
		C257.785,252.328,258.256,250.043,258.47,247.348"/>
	<polygon style="fill:#FFFFFF;" points="191.269,215.9 156.037,227.91 216.929,251.558 250.878,238.162 	"/>
</g>
</svg>
