<?xml version="1.0" encoding="iso-8859-1"?>
<!-- Generator: Adobe Illustrator 25.4.1, SVG Export Plug-In . SVG Version: 6.00 Build 0)  -->
<svg version="1.1" id="Calque_1" xmlns="http://www.w3.org/2000/svg" xmlns:xlink="http://www.w3.org/1999/xlink" x="0px" y="0px"
	 viewBox="0 0 368.5 368.5" style="enable-background:new 0 0 368.5 368.5;" xml:space="preserve">
<g>
	<path style="fill:#FFFFFF;" d="M302.871,240.832c1.189,2.586,2.741,4.844,4.325,6.748l-0.01-11.775l-5.749,1.549
		C301.853,238.52,302.328,239.688,302.871,240.832"/>
	<path style="fill:#FFFFFF;" d="M307.2,254.838c-3.915-3.615-6.893-7.611-8.859-11.891c-0.671-1.414-1.244-2.857-1.741-4.291
		l-9.346,2.518c0.399,1.101,0.847,2.203,1.36,3.283c4.486,9.756,14.093,15.129,14.187,15.176c1.919,0.976,3.406,2.447,4.399,4.168
		V254.838z"/>
	<path style="fill:#FFFFFF;" d="M300.656,264.151c-1.931-0.908-11.794-7.186-16.573-17.578c-0.639-1.35-1.191-2.725-1.672-4.094
		l-8.376,2.256c0.451,1.309,0.971,2.625,1.581,3.91c4.485,9.754,14.093,15.129,14.186,15.176c3.915,1.992,6.055,6.031,5.794,10.1
		c0.027,0.013,0.065,0.035,0.088,0.048c0.921,0.455,1.938,0.647,2.946,0.547c1.893-0.179,3.537-1.297,4.396-2.992
		C304.391,268.835,303.327,265.538,300.656,264.151"/>
	<path style="fill:#FFFFFF;" d="M290.027,275.713c1.366-2.691,0.302-5.988-2.37-7.377c-1.928-0.906-11.795-7.189-16.571-17.576
		c-0.738-1.557-1.359-3.147-1.888-4.723l-9.35,2.52c0.435,1.244,0.934,2.492,1.512,3.713c4.489,9.759,14.092,15.127,14.185,15.173
		c3.868,1.967,5.998,5.932,5.799,9.948c0.387,0.228,0.752,0.439,1.072,0.615c0.108,0.059,0.199,0.109,0.269,0.15
		c0.922,0.455,1.937,0.645,2.947,0.547C287.525,278.524,289.169,277.406,290.027,275.713"/>
	<path style="fill:#FFFFFF;" d="M273.403,271.963c-1.929-0.906-11.794-7.186-16.573-17.578c-0.707-1.49-1.305-3.016-1.82-4.526
		l-8.791,2.368c0.427,1.209,0.914,2.418,1.475,3.603c4.493,9.768,14.089,15.127,14.183,15.174c3.995,2.033,6.136,6.191,5.775,10.338
		c0.171,0.098,0.352,0.203,0.508,0.289c0.109,0.059,0.199,0.109,0.269,0.15c0.923,0.455,1.934,0.647,2.947,0.547
		c1.892-0.179,3.536-1.297,4.396-2.992C277.137,276.647,276.074,273.35,273.403,271.963"/>
	<path style="fill:#FFFFFF;" d="M262.106,282.897c1.365-2.69,0.302-5.986-2.37-7.373c-1.934-0.908-11.787-7.174-16.573-17.578
		c-0.69-1.455-1.275-2.942-1.782-4.416l-8.87,2.39c0.48,1.44,1.044,2.893,1.715,4.309c4.488,9.756,14.092,15.129,14.185,15.174
		c3.766,1.916,5.879,5.724,5.804,9.633c0.091,0.05,0.195,0.111,0.28,0.158c0.108,0.058,0.198,0.109,0.267,0.148
		c0.923,0.457,1.934,0.645,2.948,0.547C259.603,285.707,261.247,284.59,262.106,282.897"/>
	<path style="fill:#FFFFFF;" d="M248.637,287.295c1.366-2.689,0.302-5.988-2.37-7.375c-1.932-0.906-11.789-7.178-16.572-17.576
		c-0.8-1.688-1.466-3.416-2.023-5.121l-9.351,2.519c0.466,1.375,1.007,2.758,1.648,4.11c4.493,9.769,14.089,15.127,14.183,15.172
		c3.87,1.97,6.001,5.935,5.801,9.951c0.387,0.228,0.752,0.439,1.072,0.615c0.11,0.059,0.199,0.109,0.27,0.15
		c0.921,0.457,1.937,0.639,2.944,0.545C246.135,290.106,247.778,288.988,248.637,287.295"/>
	<path style="fill:#FFFFFF;" d="M232.013,283.545c-1.943-0.91-11.779-7.152-16.574-17.578c-0.769-1.621-1.412-3.281-1.956-4.922
		l-8.79,2.367c0.458,1.34,0.987,2.688,1.611,4.002c4.495,9.772,14.087,15.123,14.181,15.17c0.05,0.022,0.04,0.018,0.09,0.043
		c3.926,2.002,6.051,6.152,5.687,10.299c0.174,0.098,0.356,0.203,0.513,0.289c0.107,0.059,0.195,0.109,0.263,0.148
		c0.924,0.457,1.939,0.639,2.944,0.547c1.896-0.179,3.54-1.297,4.4-2.992C235.747,288.231,234.684,284.934,232.013,283.545"/>
	<path style="fill:#FFFFFF;" d="M220.717,294.481c1.364-2.69,0.301-5.986-2.369-7.375c-1.938-0.908-11.783-7.162-16.574-17.576
		c-0.752-1.586-1.383-3.209-1.918-4.815l-9.222,2.485c0.489,1.482,1.068,2.98,1.76,4.439c4.487,9.758,14.091,15.131,14.185,15.176
		c3.74,1.902,5.85,5.674,5.806,9.553c0.254,0.146,0.503,0.289,0.725,0.41c0.106,0.058,0.193,0.107,0.262,0.146
		c0.922,0.455,1.936,0.641,2.952,0.549C218.213,297.293,219.857,296.174,220.717,294.481"/>
	<path style="fill:#FFFFFF;" d="M206.805,298.707c1.366-2.689,0.302-5.988-2.37-7.375c-1.932-0.906-11.789-7.178-16.572-17.578
		c-0.821-1.731-1.499-3.504-2.065-5.252l-9.354,2.52c0.476,1.417,1.032,2.847,1.693,4.242c4.496,9.771,14.088,15.125,14.181,15.172
		c3.872,1.968,6.002,5.933,5.803,9.951c0.387,0.228,0.752,0.439,1.072,0.615c0.109,0.059,0.198,0.109,0.268,0.148
		c0.924,0.457,1.936,0.639,2.946,0.547C204.302,301.518,205.946,300.4,206.805,298.707"/>
	<path style="fill:#FFFFFF;" d="M190.182,294.957c-1.942-0.91-11.778-7.152-16.575-17.578c-0.789-1.664-1.448-3.371-2-5.055
		l-8.79,2.369c0.468,1.383,1.011,2.776,1.656,4.133c4.494,9.772,14.087,15.125,14.18,15.17c3.996,2.033,6.137,6.193,5.777,10.34
		c0.173,0.1,0.356,0.205,0.514,0.291c0.106,0.059,0.194,0.109,0.263,0.148c0.924,0.457,1.934,0.643,2.94,0.545
		c1.9-0.179,3.544-1.297,4.404-2.988C193.915,299.643,192.852,296.344,190.182,294.957"/>
	<path style="fill:#FFFFFF;" d="M178.885,305.893c1.364-2.689,0.301-5.986-2.369-7.375c-1.942-0.908-11.779-7.15-16.574-17.576
		c-0.773-1.629-1.419-3.297-1.963-4.945l-8.864,2.386c0.516,1.614,1.136,3.248,1.89,4.838c4.494,9.776,14.086,15.129,14.18,15.174
		c3.769,1.918,5.883,5.727,5.809,9.633c0.092,0.051,0.197,0.113,0.284,0.16c0.106,0.059,0.194,0.107,0.263,0.148
		c0.922,0.455,1.937,0.645,2.948,0.547C176.381,308.704,178.025,307.586,178.885,305.893"/>
	<path style="fill:#FFFFFF;" d="M165.415,310.291c1.367-2.691,0.304-5.988-2.366-7.375c-1.942-0.908-11.779-7.15-16.574-17.58
		c-0.884-1.863-1.6-3.775-2.19-5.652l-9.364,2.523c0.503,1.547,1.105,3.115,1.828,4.639c4.493,9.771,14.087,15.127,14.181,15.172
		c3.871,1.968,6.002,5.935,5.802,9.951c0.389,0.23,0.757,0.441,1.078,0.617c0.106,0.059,0.194,0.109,0.263,0.148
		c0.922,0.455,1.94,0.645,2.947,0.547C162.913,313.102,164.557,311.984,165.415,310.291"/>
	<path style="fill:#FFFFFF;" d="M148.792,306.539c-1.94-0.908-11.781-7.156-16.574-17.578c-0.852-1.797-1.55-3.641-2.128-5.453
		l-8.799,2.369c0.497,1.514,1.086,3.043,1.792,4.531c4.496,9.774,14.087,15.127,14.18,15.172c3.996,2.031,6.138,6.191,5.777,10.338
		c0.173,0.1,0.356,0.205,0.513,0.291c0.108,0.059,0.196,0.109,0.265,0.148c0.919,0.455,1.932,0.643,2.946,0.547
		c1.893-0.179,3.537-1.297,4.397-2.99C152.525,311.225,151.462,307.926,148.792,306.539"/>
	<path style="fill:#FFFFFF;" d="M137.495,317.475c1.365-2.689,0.302-5.986-2.368-7.373c-1.946-0.91-11.774-7.141-16.574-17.578
		c-0.836-1.76-1.523-3.567-2.094-5.344l-6.278,1.691c-0.021,0.006-0.042,0.008-0.063,0.012c-0.034,0.008-0.066,0.014-0.099,0.02
		c-0.247,0.054-0.497,0.088-0.746,0.088h-0.001h-0.001h-0.016c-0.18-0.002-0.359-0.016-0.537-0.045
		c-0.059-0.01-0.117-0.03-0.177-0.041c-0.122-0.026-0.243-0.051-0.362-0.09c-0.069-0.024-0.135-0.057-0.203-0.084
		c-0.105-0.041-0.209-0.082-0.311-0.133c-0.073-0.039-0.141-0.086-0.212-0.129c-0.074-0.045-0.152-0.084-0.224-0.135l-2.366-1.701
		c0.958,3.78,2.204,7.328,3.744,10.608c6.371,13.273,17.005,20.179,21.28,22.531c0.107,0.058,0.195,0.107,0.265,0.148
		c0.921,0.455,1.935,0.637,2.943,0.545C134.991,320.286,136.635,319.168,137.495,317.475"/>
	<path style="fill:#FFFFFF;" d="M306.453,87.17V75.811L165.4,106.447c-0.179,0.039-0.358,0.059-0.533,0.059
		c-0.019,0-0.038-0.006-0.057-0.006l-9.298,14.358L306.453,87.17z"/>
	<polygon style="fill:#FFFFFF;" points="153.146,115.313 160.709,103.635 160.709,48.012 153.146,48.012 	"/>
	<polygon style="fill:#FFFFFF;" points="306.453,70.694 306.453,48.012 165.709,48.012 165.709,101.264 	"/>
	<path style="fill:#FFFFFF;" d="M87.478,48.012v139.721c1.348-1.045,2.867-1.875,4.512-2.44c0.217-0.105,0.446-0.193,0.689-0.252
		l0.861-0.207c0.007,0.002,0.011-0.002,0.015-0.004l212.898-51.289V94.342l-156.045,34.826c-1.036,0.235-2.122-0.019-2.951-0.683
		c-0.829-0.666-1.312-1.67-1.312-2.733v-77.74H87.478z"/>
	<path style="fill:#FFFFFF;" d="M306.453,140.74l-198.719,47.875c0.07,0.064,0.131,0.137,0.199,0.203
		c0.204,0.195,0.399,0.401,0.593,0.608c0.159,0.169,0.318,0.337,0.469,0.515c0.186,0.217,0.36,0.444,0.535,0.67
		c0.139,0.182,0.281,0.363,0.413,0.553c0.166,0.238,0.32,0.486,0.473,0.734c0.12,0.192,0.242,0.381,0.353,0.578
		c0.146,0.262,0.276,0.532,0.408,0.801c0.097,0.199,0.199,0.393,0.287,0.596c0.124,0.285,0.23,0.58,0.337,0.873
		c0.073,0.199,0.155,0.396,0.22,0.599c0.101,0.317,0.181,0.641,0.262,0.965c0.048,0.192,0.107,0.379,0.147,0.573
		c0.079,0.371,0.131,0.75,0.182,1.13c0.021,0.157,0.055,0.307,0.071,0.465c0.057,0.541,0.088,1.09,0.088,1.647v80.799
		l193.682-52.172V140.74z"/>
	<polygon style="fill:#FFFFFF;" points="80.478,48.012 61.3,48.012 61.3,229.162 80.478,241.118 	"/>
	<path style="fill:#FFFFFF;" d="M105.772,278.666v-78.541c0-4.795-3.901-8.695-8.697-8.695c-4.795,0-8.696,3.9-8.696,8.695v66.045
		L105.772,278.666z"/>
</g>
</svg>
