<?xml version="1.0" encoding="iso-8859-1"?>
<!-- Generator: Adobe Illustrator 25.4.1, SVG Export Plug-In . SVG Version: 6.00 Build 0)  -->
<svg version="1.1" id="Calque_1" xmlns="http://www.w3.org/2000/svg" xmlns:xlink="http://www.w3.org/1999/xlink" x="0px" y="0px"
	 viewBox="0 0 368.5 368.5" style="enable-background:new 0 0 368.5 368.5;" xml:space="preserve">
<g>
	<path style="fill:#FFFFFF;" d="M325.032,228.004H145.435c-13.464,0-26.129-5.252-35.655-14.787
		c-9.545-9.56-14.798-22.265-14.777-35.775c0.022-20.375,16.618-36.946,36.993-36.946c7.014,0.008,13.578,2.739,18.518,7.693
		c3.764,3.775,6.227,8.49,7.189,13.61c0.455-0.744,1.15-1.288,1.989-1.532c1.7-0.51,3.784,0.614,4.293,2.367
		c0.263,0.883,0.159,1.824-0.292,2.639c-0.442,0.814-1.181,1.405-2.08,1.658c-0.299,0.089-0.637,0.141-0.961,0.141
		c-0.99,0-1.879-0.457-2.524-1.156c0.008,0.26,0.037,0.518,0.037,0.78c0,0.251,0.099,0.492,0.277,0.673
		c0.178,0.178,0.42,0.277,0.669,0.277l32.333,0.029h0.006c0.247,0,0.492-0.098,0.672-0.277c0.177-0.178,0.279-0.42,0.279-0.675
		c0-0.286-0.013-0.574-0.021-0.859c-0.603,0.578-1.419,0.937-2.319,0.937c-1.858,0-3.362-1.503-3.362-3.359
		c0-1.861,1.504-3.363,3.362-3.363c0.747,0,1.432,0.252,1.991,0.665c-1.256-12.907-6.571-24.951-15.367-34.626
		c-0.538,1.139-1.686,1.93-3.029,1.93c-1.857,0-3.36-1.503-3.36-3.363c0-1.344,0.795-2.496,1.935-3.034
		c-11.053-9.911-25.143-15.353-40.062-15.389c1.157,0.313,2.142,1.184,2.48,2.357c0.26,0.885,0.157,1.823-0.288,2.636
		c-0.444,0.809-1.181,1.401-2.073,1.661c-0.325,0.093-0.65,0.138-0.971,0.138c-1.533,0-2.902-1.028-3.332-2.502
		c-0.521-1.795,0.487-3.671,2.246-4.254c-15.61,0.381-29.979,5.821-41.56,14.733c0.669,0.612,1.094,1.486,1.094,2.47
		c0,1.855-1.505,3.357-3.362,3.357c-1.185,0-2.221-0.614-2.821-1.541c-2.987,2.775-5.73,5.797-8.206,9.041
		c0.657,0.613,1.075,1.484,1.075,2.456c0,1.856-1.504,3.359-3.362,3.359c-0.527,0-1.02-0.132-1.463-0.347
		c-6.839,10.916-10.842,23.775-10.859,37.572c-0.02,13.655,3.204,26.805,9.246,38.618c0.617-0.76,1.546-1.254,2.601-1.254
		c1.855,0,3.362,1.502,3.362,3.359c0,1.713-1.288,3.11-2.944,3.319c3.491,5.73,7.663,11.099,12.526,15.968
		c8.637,8.647,18.817,15.174,29.91,19.371c0.721-0.05,1.429,0.231,1.944,0.721c8.195,2.871,16.869,4.461,25.772,4.692
		c-0.704-0.442-1.265-1.104-1.509-1.938c-0.256-0.892-0.152-1.828,0.294-2.641c0.446-0.812,1.183-1.404,2.073-1.662
		c1.833-0.519,3.781,0.598,4.298,2.364c0.254,0.898,0.152,1.834-0.29,2.64c-0.295,0.543-0.73,0.973-1.246,1.285h25.936
		c-0.745-0.439-1.343-1.119-1.595-1.986c-0.256-0.885-0.156-1.82,0.282-2.635c0.461-0.822,1.196-1.412,2.08-1.668
		c1.86-0.513,3.791,0.604,4.299,2.366c0.261,0.894,0.157,1.836-0.294,2.648c-0.297,0.537-0.73,0.965-1.243,1.275h25.811
		c-0.745-0.439-1.341-1.117-1.596-1.984c-0.26-0.893-0.156-1.83,0.288-2.643c0.448-0.812,1.183-1.404,2.073-1.662
		c1.828-0.517,3.784,0.598,4.3,2.362c0.444,1.543-0.236,3.134-1.54,3.927h25.807c-0.747-0.441-1.347-1.121-1.597-1.99
		c-0.257-0.887-0.153-1.824,0.293-2.638c0.448-0.811,1.181-1.403,2.069-1.661c1.843-0.515,3.791,0.6,4.302,2.364
		c0.26,0.888,0.158,1.826-0.286,2.64c-0.303,0.545-0.736,0.973-1.249,1.285h25.805c-0.744-0.439-1.343-1.117-1.595-1.986
		c-0.26-0.889-0.156-1.826,0.29-2.641c0.449-0.814,1.186-1.404,2.074-1.662c1.835-0.519,3.784,0.598,4.296,2.364
		c0.262,0.886,0.16,1.826-0.287,2.642c-0.296,0.543-0.73,0.971-1.245,1.283h25.801c-0.746-0.441-1.347-1.121-1.595-1.99
		c-0.53-1.838,0.533-3.765,2.364-4.299c1.85-0.511,3.786,0.602,4.3,2.362c0.262,0.886,0.16,1.826-0.29,2.644
		c-0.295,0.541-0.73,0.971-1.244,1.283h25.805c-0.743-0.439-1.343-1.117-1.596-1.986c-0.256-0.894-0.156-1.83,0.284-2.639
		c0.454-0.818,1.195-1.406,2.086-1.662c1.716-0.506,3.774,0.616,4.291,2.354c0.258,0.896,0.156,1.834-0.29,2.648
		c-0.299,0.543-0.734,0.975-1.25,1.285h2.084c0.526,0,0.951-0.425,0.951-0.951v-32.334
		C325.983,228.432,325.558,228.004,325.032,228.004 M171.308,148.231c0.45-0.811,1.185-1.399,2.075-1.654
		c0.253-0.076,0.533-0.117,0.853-0.122c0.03-0.004,0.124-0.008,0.217-0.008c1.551,0,2.931,1.025,3.353,2.495
		c0.263,0.893,0.157,1.834-0.296,2.646c-0.44,0.799-1.174,1.387-2.061,1.654c-0.327,0.092-0.652,0.139-0.978,0.139h-0.13
		c-1.524,0-2.893-1.026-3.328-2.495C170.753,149.985,170.859,149.046,171.308,148.231 M157.614,134.619
		c0.447-0.812,1.185-1.402,2.074-1.66c1.813-0.509,3.786,0.601,4.297,2.366c0.261,0.886,0.159,1.826-0.292,2.641
		c-0.442,0.812-1.181,1.403-2.078,1.657c-0.298,0.089-0.634,0.139-0.963,0.139c-1.537,0-2.906-1.031-3.332-2.505
		C157.064,136.365,157.168,135.428,157.614,134.619 M141.971,121.602c0.44-0.809,1.176-1.4,2.071-1.66
		c1.768-0.512,3.78,0.591,4.298,2.362c0.256,0.898,0.152,1.832-0.29,2.638c-0.445,0.814-1.183,1.405-2.078,1.664
		c-0.313,0.092-0.639,0.14-0.966,0.14c-1.534,0-2.902-1.029-3.333-2.504C141.417,123.348,141.523,122.412,141.971,121.602
		 M130.348,132.959c1.832-0.507,3.792,0.601,4.301,2.366c0.262,0.886,0.159,1.823-0.29,2.636c-0.444,0.812-1.181,1.406-2.075,1.662
		c-0.31,0.091-0.637,0.139-0.967,0.139c-1.533,0-2.903-1.03-3.332-2.503C127.453,135.422,128.512,133.494,130.348,132.959
		 M112.629,121.6c0.446-0.809,1.184-1.398,2.077-1.658c1.735-0.508,3.789,0.614,4.298,2.361c0.26,0.897,0.154,1.834-0.293,2.643
		c-0.437,0.806-1.174,1.399-2.071,1.658c-0.318,0.095-0.645,0.142-0.97,0.142c-1.529,0-2.898-1.027-3.327-2.498
		C112.083,123.351,112.185,122.414,112.629,121.6 M98.942,134.619c0.448-0.814,1.185-1.402,2.077-1.66
		c1.75-0.513,3.787,0.622,4.294,2.366c0.258,0.893,0.156,1.832-0.29,2.636c-0.451,0.819-1.188,1.408-2.078,1.662
		c-0.299,0.089-0.635,0.139-0.964,0.139c-1.531,0-2.901-1.03-3.33-2.503C98.393,136.367,98.495,135.43,98.942,134.619
		 M75.686,192.574c-0.44,0.813-1.174,1.403-2.067,1.666c-0.314,0.091-0.641,0.137-0.977,0.137c-1.537,0-2.905-1.031-3.329-2.503
		c-0.256-0.891-0.152-1.826,0.292-2.637c0.455-0.82,1.192-1.409,2.078-1.66c1.761-0.515,3.784,0.595,4.293,2.367
		C76.234,190.824,76.132,191.76,75.686,192.574 M75.686,165.267c-0.439,0.815-1.176,1.407-2.073,1.663
		c-0.321,0.092-0.648,0.142-0.971,0.142c-1.535,0-2.902-1.029-3.329-2.505c-0.256-0.891-0.152-1.827,0.292-2.637
		c0.453-0.82,1.188-1.409,2.075-1.663c1.786-0.517,3.787,0.601,4.296,2.369C76.237,163.509,76.135,164.447,75.686,165.267
		 M83.296,148.235c0.449-0.815,1.186-1.401,2.078-1.658c1.755-0.519,3.776,0.593,4.294,2.362c0.258,0.891,0.156,1.826-0.288,2.636
		c-0.445,0.813-1.181,1.404-2.071,1.667c-0.325,0.092-0.651,0.139-0.978,0.139c-1.533,0-2.901-1.03-3.325-2.504
		C82.746,149.985,82.848,149.047,83.296,148.235 M82.894,176.873c0.036-0.447,0.173-0.91,0.405-1.33
		c0.446-0.814,1.183-1.403,2.075-1.658c1.755-0.513,3.776,0.591,4.294,2.364c0.128,0.445,0.168,0.908,0.114,1.371
		c-0.038,0.462-0.175,0.927-0.403,1.343c-0.449,0.815-1.187,1.406-2.079,1.66c-0.303,0.091-0.631,0.138-0.966,0.138
		c-1.536,0-2.905-1.032-3.328-2.51C82.872,177.8,82.835,177.336,82.894,176.873 M89.377,233.504
		c-0.444,0.816-1.182,1.406-2.077,1.662c-0.317,0.094-0.644,0.141-0.969,0.141c-1.533,0-2.901-1.029-3.325-2.504
		c-0.26-0.895-0.156-1.836,0.293-2.647c0.442-0.806,1.18-1.396,2.073-1.654c1.739-0.51,3.787,0.621,4.296,2.365
		C89.928,231.754,89.826,232.694,89.377,233.504 M89.379,206.271c-0.444,0.813-1.182,1.403-2.077,1.661
		c-0.319,0.092-0.646,0.14-0.968,0.14c-1.534,0-2.904-1.031-3.328-2.509c-0.262-0.886-0.158-1.826,0.293-2.642
		c0.442-0.809,1.18-1.397,2.075-1.654c1.74-0.511,3.791,0.621,4.294,2.366C89.928,204.516,89.826,205.457,89.379,206.271
		 M105.025,247.197c-0.455,0.819-1.194,1.409-2.084,1.661c-0.288,0.089-0.628,0.14-0.962,0.14c-1.529,0-2.897-1.027-3.326-2.498
		c-0.26-0.896-0.156-1.834,0.288-2.644c0.447-0.813,1.184-1.405,2.078-1.662c1.764-0.502,3.791,0.623,4.294,2.365
		C105.571,245.453,105.469,246.389,105.025,247.197 M105.027,219.885c-0.455,0.818-1.192,1.408-2.08,1.664
		c-0.301,0.088-0.637,0.139-0.966,0.139c-1.531,0-2.899-1.028-3.33-2.5c-0.258-0.895-0.156-1.834,0.291-2.643
		c0.446-0.816,1.185-1.404,2.081-1.658c1.749-0.504,3.776,0.594,4.29,2.361C105.571,218.143,105.469,219.078,105.027,219.885
		 M118.711,233.506c-0.439,0.813-1.178,1.402-2.077,1.66c-0.31,0.092-0.646,0.141-0.968,0.141c-1.525,0-2.89-1.026-3.323-2.496
		c-0.262-0.905-0.156-1.85,0.296-2.66c0.447-0.811,1.187-1.397,2.078-1.651c0.284-0.082,0.593-0.125,0.905-0.125
		c1.539,0,2.962,1.047,3.384,2.49C119.262,231.76,119.158,232.697,118.711,233.506 M134.361,247.197
		c-0.448,0.815-1.185,1.407-2.079,1.659c-0.304,0.093-0.635,0.142-0.969,0.142c-1.529,0-2.898-1.027-3.327-2.498
		c-0.533-1.842,0.528-3.771,2.362-4.306c1.823-0.514,3.792,0.599,4.301,2.367C134.911,245.446,134.808,246.383,134.361,247.197
		 M148.05,233.502c-0.446,0.818-1.185,1.408-2.08,1.664c-0.318,0.094-0.647,0.141-0.972,0.141c-1.526,0-2.894-1.029-3.323-2.5
		c-0.258-0.901-0.15-1.842,0.297-2.651c0.448-0.81,1.186-1.398,2.077-1.654c1.714-0.51,3.782,0.617,4.291,2.365
		C148.598,231.756,148.496,232.692,148.05,233.502 M163.693,247.199c-0.444,0.815-1.183,1.407-2.08,1.659
		c-0.296,0.091-0.626,0.14-0.962,0.14c-1.535,0-2.905-1.027-3.331-2.5c-0.256-0.896-0.152-1.834,0.292-2.642
		c0.448-0.813,1.185-1.403,2.076-1.662c1.813-0.508,3.786,0.601,4.297,2.365C164.246,245.444,164.144,246.383,163.693,247.199
		 M177.51,233.516c-0.446,0.81-1.185,1.398-2.078,1.65c-0.31,0.094-0.637,0.141-0.964,0.141h-0.13c-1.523,0-2.89-1.026-3.325-2.496
		c-0.258-0.905-0.152-1.846,0.291-2.655c0.458-0.816,1.195-1.4,2.083-1.654c0.253-0.074,0.529-0.115,0.837-0.119
		c0.032-0.004,0.123-0.008,0.212-0.008c1.56,0,2.946,1.024,3.37,2.494C178.069,231.764,177.963,232.705,177.51,233.516
		 M193.168,247.197c-0.457,0.821-1.194,1.407-2.08,1.659c-0.305,0.093-0.636,0.142-0.97,0.142c-1.529,0-2.897-1.027-3.326-2.498
		c-0.259-0.898-0.155-1.836,0.289-2.644c0.448-0.813,1.185-1.403,2.077-1.662c1.772-0.504,3.787,0.621,4.294,2.361
		C193.712,245.444,193.612,246.381,193.168,247.197 M206.855,233.502c-0.449,0.82-1.19,1.41-2.084,1.664
		c-0.303,0.092-0.639,0.141-0.965,0.141c-1.524,0-2.889-1.026-3.322-2.496c-0.26-0.899-0.156-1.84,0.292-2.653
		c0.444-0.808,1.179-1.398,2.067-1.656c1.731-0.506,3.793,0.619,4.302,2.361C207.399,231.764,207.295,232.699,206.855,233.502
		 M222.502,247.197c-0.45,0.817-1.189,1.407-2.08,1.659c-0.301,0.093-0.632,0.142-0.966,0.142c-1.531,0-2.9-1.027-3.329-2.498
		c-0.529-1.842,0.53-3.771,2.363-4.304c1.82-0.528,3.791,0.597,4.3,2.365C223.05,245.449,222.948,246.385,222.502,247.197
		 M236.187,233.508c-0.446,0.812-1.183,1.402-2.075,1.658c-0.317,0.094-0.644,0.141-0.969,0.141c-1.536,0-2.903-1.031-3.328-2.506
		c-0.259-0.891-0.153-1.832,0.297-2.645c0.446-0.81,1.183-1.398,2.072-1.654c1.743-0.5,3.788,0.623,4.295,2.365
		C236.742,231.75,236.64,232.69,236.187,233.508 M251.837,247.196c-0.447,0.818-1.186,1.408-2.08,1.662
		c-0.301,0.091-0.631,0.14-0.967,0.14c-1.533,0-2.9-1.027-3.325-2.5c-0.26-0.894-0.159-1.834,0.29-2.644
		c0.442-0.807,1.177-1.399,2.071-1.658c1.82-0.522,3.789,0.597,4.301,2.361C252.385,245.44,252.283,246.379,251.837,247.196
		 M265.527,233.51c-0.446,0.812-1.184,1.4-2.079,1.656c-0.325,0.094-0.65,0.141-0.971,0.141c-1.525,0-2.892-1.028-3.321-2.496
		c-0.26-0.901-0.156-1.844,0.293-2.657c0.448-0.81,1.185-1.396,2.077-1.652c1.714-0.508,3.785,0.629,4.288,2.361
		C266.076,231.754,265.974,232.694,265.527,233.51 M281.171,247.197c-0.451,0.817-1.188,1.407-2.08,1.659
		c-0.301,0.093-0.631,0.142-0.966,0.142c-1.532,0-2.901-1.027-3.326-2.5c-0.258-0.89-0.155-1.83,0.293-2.644
		c0.448-0.813,1.185-1.403,2.075-1.66c1.803-0.508,3.783,0.601,4.294,2.365C281.722,245.436,281.621,246.377,281.171,247.197
		 M294.86,233.506c-0.442,0.814-1.181,1.404-2.076,1.66c-0.318,0.094-0.645,0.141-0.969,0.141c-1.535,0-2.904-1.031-3.327-2.506
		c-0.257-0.891-0.153-1.83,0.293-2.645c0.459-0.816,1.196-1.398,2.08-1.654c0.292-0.086,0.608-0.133,0.927-0.133
		c1.525,0,2.94,1.049,3.364,2.494C295.416,231.75,295.312,232.69,294.86,233.506 M310.509,247.199
		c-0.451,0.817-1.189,1.407-2.084,1.659c-0.299,0.091-0.63,0.14-0.964,0.14c-1.529,0-2.896-1.027-3.325-2.5
		c-0.529-1.842,0.531-3.771,2.365-4.304c1.816-0.508,3.785,0.599,4.298,2.363C311.056,245.449,310.953,246.387,310.509,247.199
		 M324.198,233.508c-0.451,0.816-1.189,1.404-2.08,1.658c-0.314,0.094-0.641,0.141-0.968,0.141c-1.527,0-2.894-1.028-3.323-2.498
		c-0.262-0.908-0.154-1.85,0.303-2.662c0.442-0.803,1.176-1.389,2.067-1.645c1.705-0.504,3.777,0.625,4.291,2.358
		C324.748,231.756,324.644,232.694,324.198,233.508"/>
	<path style="fill:#FFFFFF;" d="M325.031,269.078H145.434c-24.445,0-47.427-9.529-64.717-26.838
		c-10.197-10.217-17.668-22.42-22.098-35.729c-0.481-1.458-0.927-2.922-1.339-4.402c-2.203-7.95-3.362-16.243-3.351-24.72
		c0.012-8.862,1.527-17.376,4.272-25.322c0.357-1.028,0.736-2.051,1.133-3.063c11.412-28.992,39.677-49.583,72.657-49.583
		c24.043,0.026,46.084,14.215,57.996,34.368c0.758,1.286,1.49,2.596,2.164,3.928c4.508,8.898,7.086,18.782,7.086,29.028
		c0,0.523,0.425,0.95,0.952,0.95h9.509c0.526,0,0.951-0.427,0.951-0.95c0-41.898-36.756-78.691-78.653-78.736
		c-21.656,0-41.545,7.747-57.043,20.609c-1.212,1.007-2.394,2.051-3.553,3.119c-13.942,12.859-23.788,30.079-27.371,49.472
		c-0.299,1.62-0.555,3.254-0.765,4.904c-0.472,3.692-0.745,7.448-0.747,11.263c-0.003,3.711,0.197,7.387,0.584,11.027
		c0.171,1.664,0.384,3.319,0.64,4.963c1.959,12.77,6.288,24.946,12.763,36.017c0.787,1.338,1.606,2.66,2.451,3.963
		c3.918,6.049,8.481,11.744,13.693,16.959c3.57,3.576,7.363,6.855,11.338,9.826c0.77,0.576,1.558,1.121,2.344,1.672
		c17.19,12.127,37.636,18.687,59.104,18.687h179.597c0.524,0,0.951-0.424,0.951-0.949v-9.512
		C325.982,269.504,325.555,269.078,325.031,269.078"/>
</g>
</svg>
