<?xml version="1.0" encoding="iso-8859-1"?>
<!-- Generator: Adobe Illustrator 25.4.1, SVG Export Plug-In . SVG Version: 6.00 Build 0)  -->
<svg version="1.1" id="Calque_1" xmlns="http://www.w3.org/2000/svg" xmlns:xlink="http://www.w3.org/1999/xlink" x="0px" y="0px"
	 viewBox="0 0 368.5 368.5" style="enable-background:new 0 0 368.5 368.5;" xml:space="preserve">
<g>
	<path style="fill:#FFFFFF;" d="M325.04,228.01H145.443c-13.464,0-26.128-5.252-35.655-14.788
		c-9.545-9.56-14.798-22.265-14.777-35.774c0.022-20.375,16.618-36.947,36.993-36.947c7.014,0.008,13.578,2.74,18.519,7.694
		c3.763,3.774,6.226,8.49,7.188,13.609c0.455-0.743,1.15-1.288,1.989-1.531c1.7-0.511,3.784,0.613,4.293,2.366
		c0.263,0.884,0.159,1.824-0.292,2.64c-0.442,0.813-1.181,1.404-2.08,1.659c-0.299,0.089-0.637,0.139-0.961,0.139
		c-0.99,0-1.879-0.457-2.524-1.155c0.008,0.259,0.037,0.518,0.037,0.779c0,0.251,0.099,0.493,0.277,0.673
		c0.178,0.178,0.42,0.278,0.669,0.278l32.333,0.028h0.006c0.247,0,0.492-0.098,0.672-0.276c0.177-0.179,0.279-0.42,0.279-0.675
		c0-0.286-0.013-0.574-0.021-0.86c-0.603,0.578-1.419,0.937-2.319,0.937c-1.858,0-3.362-1.503-3.362-3.359
		c0-1.861,1.504-3.363,3.362-3.363c0.748,0,1.432,0.252,1.991,0.665c-1.256-12.907-6.57-24.951-15.367-34.626
		c-0.538,1.139-1.686,1.93-3.029,1.93c-1.857,0-3.36-1.503-3.36-3.362c0-1.345,0.795-2.496,1.935-3.035
		c-11.053-9.911-25.143-15.353-40.062-15.389c1.157,0.313,2.142,1.184,2.48,2.358c0.26,0.884,0.158,1.822-0.288,2.635
		c-0.444,0.81-1.181,1.401-2.073,1.661c-0.325,0.093-0.65,0.139-0.971,0.139c-1.533,0-2.902-1.029-3.332-2.502
		c-0.521-1.796,0.488-3.672,2.247-4.255c-15.611,0.382-29.98,5.821-41.561,14.733c0.669,0.613,1.094,1.487,1.094,2.47
		c0,1.856-1.505,3.358-3.362,3.358c-1.185,0-2.221-0.615-2.821-1.541c-2.987,2.775-5.73,5.796-8.206,9.041
		c0.657,0.613,1.075,1.483,1.075,2.456c0,1.855-1.504,3.358-3.362,3.358c-0.527,0-1.02-0.132-1.463-0.347
		c-6.839,10.916-10.842,23.776-10.859,37.573c-0.02,13.654,3.204,26.804,9.246,38.617c0.617-0.76,1.546-1.254,2.601-1.254
		c1.855,0,3.362,1.503,3.362,3.36c0,1.713-1.288,3.11-2.944,3.318c3.491,5.731,7.663,11.099,12.526,15.968
		c8.637,8.648,18.817,15.175,29.91,19.372c0.722-0.05,1.43,0.231,1.944,0.721c8.195,2.87,16.869,4.461,25.772,4.692
		c-0.704-0.442-1.265-1.104-1.509-1.938c-0.256-0.893-0.152-1.829,0.294-2.641c0.446-0.813,1.183-1.404,2.073-1.662
		c1.833-0.52,3.781,0.598,4.298,2.364c0.254,0.897,0.152,1.834-0.29,2.64c-0.295,0.542-0.73,0.973-1.246,1.285h25.936
		c-0.745-0.44-1.343-1.12-1.595-1.987c-0.256-0.885-0.156-1.819,0.282-2.634c0.461-0.823,1.196-1.412,2.08-1.668
		c1.86-0.513,3.791,0.604,4.3,2.366c0.26,0.893,0.156,1.835-0.295,2.647c-0.297,0.537-0.73,0.966-1.243,1.276h25.811
		c-0.745-0.44-1.341-1.118-1.596-1.984c-0.26-0.893-0.156-1.831,0.288-2.643c0.448-0.813,1.183-1.404,2.073-1.662
		c1.828-0.518,3.783,0.598,4.3,2.361c0.444,1.543-0.236,3.135-1.54,3.928h25.807c-0.747-0.442-1.347-1.122-1.596-1.991
		c-0.258-0.886-0.154-1.824,0.292-2.638c0.448-0.811,1.181-1.402,2.069-1.66c1.843-0.516,3.791,0.6,4.302,2.364
		c0.26,0.888,0.157,1.826-0.286,2.64c-0.303,0.544-0.736,0.973-1.248,1.285h25.804c-0.744-0.44-1.343-1.118-1.595-1.986
		c-0.26-0.889-0.156-1.827,0.29-2.641c0.449-0.815,1.186-1.404,2.074-1.662c1.835-0.52,3.784,0.598,4.296,2.363
		c0.262,0.887,0.16,1.827-0.287,2.643c-0.296,0.542-0.73,0.971-1.245,1.283h25.801c-0.746-0.442-1.347-1.122-1.595-1.991
		c-0.53-1.837,0.533-3.765,2.364-4.298c1.85-0.511,3.786,0.602,4.3,2.361c0.262,0.887,0.16,1.827-0.29,2.645
		c-0.295,0.54-0.73,0.971-1.244,1.283h25.805c-0.743-0.44-1.343-1.118-1.596-1.986c-0.256-0.895-0.156-1.831,0.284-2.639
		c0.455-0.819,1.195-1.406,2.086-1.662c1.716-0.506,3.774,0.616,4.291,2.353c0.258,0.897,0.156,1.835-0.29,2.649
		c-0.299,0.542-0.734,0.975-1.25,1.285h2.084c0.526,0,0.951-0.425,0.951-0.951v-32.334
		C325.991,228.438,325.566,228.01,325.04,228.01 M171.316,148.237c0.45-0.811,1.185-1.4,2.075-1.655
		c0.253-0.076,0.533-0.117,0.853-0.122c0.031-0.004,0.124-0.008,0.217-0.008c1.551,0,2.931,1.026,3.354,2.495
		c0.262,0.893,0.156,1.835-0.297,2.647c-0.44,0.798-1.174,1.387-2.061,1.653c-0.327,0.092-0.652,0.139-0.978,0.139h-0.13
		c-1.524,0-2.893-1.025-3.328-2.495C170.761,149.991,170.867,149.051,171.316,148.237 M157.622,134.624
		c0.447-0.811,1.185-1.402,2.074-1.66c1.813-0.509,3.786,0.602,4.297,2.366c0.261,0.886,0.159,1.826-0.292,2.641
		c-0.442,0.812-1.181,1.403-2.078,1.657c-0.298,0.089-0.634,0.139-0.963,0.139c-1.537,0-2.906-1.03-3.332-2.505
		C157.072,136.37,157.176,135.434,157.622,134.624 M141.979,121.608c0.44-0.81,1.177-1.401,2.071-1.661
		c1.768-0.51,3.78,0.591,4.298,2.363c0.256,0.897,0.152,1.831-0.29,2.637c-0.444,0.814-1.183,1.406-2.078,1.665
		c-0.313,0.091-0.639,0.139-0.966,0.139c-1.533,0-2.902-1.029-3.333-2.504C141.425,123.354,141.531,122.417,141.979,121.608
		 M130.357,132.964c1.831-0.507,3.791,0.602,4.3,2.366c0.262,0.886,0.16,1.824-0.29,2.636c-0.444,0.813-1.181,1.406-2.075,1.662
		c-0.31,0.091-0.637,0.139-0.967,0.139c-1.533,0-2.903-1.028-3.332-2.503C127.461,135.427,128.52,133.499,130.357,132.964
		 M112.637,121.606c0.446-0.81,1.184-1.399,2.077-1.659c1.735-0.507,3.789,0.615,4.298,2.361c0.26,0.897,0.154,1.835-0.293,2.643
		c-0.437,0.806-1.174,1.399-2.07,1.659c-0.319,0.094-0.646,0.141-0.971,0.141c-1.529,0-2.898-1.027-3.327-2.498
		C112.091,123.357,112.193,122.419,112.637,121.606 M98.95,134.624c0.448-0.813,1.185-1.402,2.077-1.66
		c1.75-0.513,3.787,0.622,4.294,2.366c0.258,0.894,0.156,1.832-0.29,2.636c-0.451,0.819-1.188,1.408-2.078,1.662
		c-0.299,0.089-0.635,0.139-0.964,0.139c-1.531,0-2.901-1.028-3.33-2.503C98.401,136.372,98.503,135.436,98.95,134.624
		 M75.694,192.579c-0.44,0.813-1.174,1.404-2.067,1.666c-0.314,0.091-0.641,0.137-0.977,0.137c-1.536,0-2.905-1.03-3.329-2.504
		c-0.256-0.889-0.152-1.825,0.292-2.635c0.455-0.821,1.192-1.41,2.078-1.661c1.761-0.514,3.784,0.595,4.293,2.367
		C76.242,190.829,76.14,191.765,75.694,192.579 M75.694,165.273c-0.439,0.814-1.176,1.406-2.073,1.663
		c-0.321,0.092-0.648,0.141-0.971,0.141c-1.535,0-2.902-1.029-3.329-2.504c-0.256-0.892-0.152-1.828,0.292-2.637
		c0.453-0.82,1.188-1.408,2.076-1.663c1.785-0.518,3.786,0.6,4.295,2.368C76.245,163.514,76.143,164.452,75.694,165.273
		 M83.304,148.241c0.449-0.815,1.186-1.402,2.078-1.659c1.755-0.518,3.776,0.593,4.294,2.363c0.258,0.89,0.156,1.826-0.288,2.635
		c-0.445,0.814-1.181,1.405-2.071,1.667c-0.325,0.092-0.651,0.139-0.978,0.139c-1.533,0-2.9-1.029-3.325-2.504
		C82.754,149.991,82.856,149.053,83.304,148.241 M82.902,176.878c0.036-0.447,0.173-0.91,0.405-1.33
		c0.446-0.813,1.183-1.402,2.075-1.658c1.755-0.513,3.776,0.592,4.294,2.364c0.128,0.446,0.168,0.908,0.114,1.371
		c-0.038,0.462-0.175,0.927-0.403,1.343c-0.448,0.815-1.187,1.406-2.079,1.66c-0.303,0.091-0.631,0.138-0.966,0.138
		c-1.536,0-2.905-1.031-3.328-2.51C82.88,177.805,82.843,177.341,82.902,176.878 M89.385,233.51
		c-0.444,0.816-1.181,1.406-2.077,1.663c-0.317,0.093-0.644,0.139-0.969,0.139c-1.533,0-2.9-1.029-3.325-2.504
		c-0.26-0.895-0.156-1.835,0.293-2.647c0.442-0.806,1.18-1.395,2.073-1.653c1.739-0.51,3.787,0.621,4.296,2.365
		C89.936,231.759,89.834,232.699,89.385,233.51 M89.387,206.277c-0.444,0.812-1.182,1.403-2.077,1.661
		c-0.319,0.092-0.646,0.139-0.968,0.139c-1.534,0-2.903-1.031-3.328-2.508c-0.262-0.887-0.158-1.827,0.293-2.643
		c0.442-0.808,1.18-1.396,2.075-1.653c1.74-0.512,3.791,0.621,4.294,2.365C89.936,204.522,89.834,205.462,89.387,206.277
		 M105.033,247.203c-0.455,0.819-1.194,1.408-2.084,1.66c-0.288,0.09-0.628,0.14-0.962,0.14c-1.529,0-2.897-1.027-3.326-2.497
		c-0.26-0.897-0.156-1.835,0.288-2.645c0.447-0.813,1.184-1.404,2.078-1.662c1.764-0.501,3.791,0.624,4.294,2.366
		C105.579,245.458,105.477,246.395,105.033,247.203 M105.035,219.89c-0.455,0.819-1.192,1.408-2.08,1.664
		c-0.301,0.089-0.637,0.139-0.966,0.139c-1.531,0-2.899-1.027-3.33-2.5c-0.258-0.895-0.156-1.833,0.291-2.643
		c0.446-0.815,1.185-1.404,2.081-1.658c1.749-0.504,3.776,0.594,4.29,2.361C105.579,218.148,105.477,219.084,105.035,219.89
		 M118.719,233.512c-0.439,0.812-1.178,1.402-2.077,1.661c-0.31,0.091-0.646,0.139-0.968,0.139c-1.525,0-2.89-1.025-3.323-2.495
		c-0.262-0.906-0.156-1.85,0.296-2.661c0.447-0.81,1.187-1.397,2.078-1.65c0.284-0.083,0.593-0.126,0.905-0.126
		c1.539,0,2.962,1.048,3.384,2.491C119.27,231.766,119.166,232.702,118.719,233.512 M134.369,247.203
		c-0.448,0.815-1.185,1.406-2.079,1.659c-0.304,0.092-0.635,0.141-0.969,0.141c-1.529,0-2.898-1.027-3.327-2.497
		c-0.533-1.842,0.528-3.772,2.363-4.307c1.822-0.514,3.791,0.6,4.3,2.368C134.919,245.451,134.817,246.389,134.369,247.203
		 M148.058,233.508c-0.446,0.818-1.185,1.408-2.08,1.665c-0.318,0.093-0.647,0.139-0.972,0.139c-1.526,0-2.894-1.029-3.323-2.5
		c-0.258-0.901-0.15-1.841,0.298-2.651c0.447-0.809,1.185-1.396,2.076-1.653c1.714-0.51,3.782,0.617,4.291,2.365
		C148.606,231.761,148.504,232.697,148.058,233.508 M163.701,247.204c-0.444,0.815-1.183,1.406-2.08,1.658
		c-0.296,0.091-0.626,0.14-0.962,0.14c-1.535,0-2.905-1.027-3.331-2.5c-0.256-0.895-0.152-1.834,0.292-2.642
		c0.448-0.813,1.185-1.402,2.076-1.662c1.813-0.507,3.786,0.602,4.297,2.366C164.254,245.45,164.152,246.389,163.701,247.204
		 M177.518,233.521c-0.446,0.81-1.185,1.399-2.077,1.652c-0.311,0.093-0.638,0.139-0.965,0.139h-0.13
		c-1.523,0-2.89-1.025-3.325-2.495c-0.258-0.906-0.152-1.846,0.291-2.656c0.458-0.815,1.195-1.4,2.083-1.653
		c0.254-0.074,0.529-0.115,0.837-0.12c0.032-0.004,0.123-0.008,0.212-0.008c1.56,0,2.946,1.025,3.371,2.495
		C178.077,231.77,177.971,232.71,177.518,233.521 M193.176,247.203c-0.457,0.821-1.194,1.406-2.08,1.659
		c-0.305,0.092-0.636,0.141-0.97,0.141c-1.529,0-2.897-1.027-3.327-2.497c-0.258-0.898-0.154-1.837,0.29-2.645
		c0.448-0.813,1.185-1.402,2.077-1.662c1.772-0.503,3.787,0.622,4.294,2.361C193.72,245.45,193.62,246.388,193.176,247.203
		 M206.863,233.507c-0.449,0.82-1.19,1.411-2.084,1.666c-0.303,0.091-0.639,0.139-0.964,0.139c-1.525,0-2.89-1.025-3.323-2.495
		c-0.26-0.899-0.156-1.84,0.292-2.654c0.444-0.808,1.179-1.397,2.067-1.655c1.731-0.507,3.793,0.619,4.302,2.361
		C207.407,231.77,207.303,232.704,206.863,233.507 M222.51,247.203c-0.45,0.817-1.189,1.406-2.08,1.659
		c-0.301,0.092-0.632,0.141-0.966,0.141c-1.531,0-2.9-1.027-3.329-2.497c-0.529-1.842,0.53-3.772,2.363-4.305
		c1.82-0.528,3.791,0.598,4.3,2.366C223.058,245.454,222.956,246.391,222.51,247.203 M236.195,233.514
		c-0.446,0.812-1.183,1.402-2.075,1.659c-0.317,0.093-0.644,0.139-0.969,0.139c-1.536,0-2.903-1.031-3.327-2.506
		c-0.26-0.891-0.154-1.831,0.296-2.645c0.447-0.809,1.183-1.396,2.072-1.653c1.743-0.501,3.788,0.623,4.295,2.365
		C236.75,231.755,236.648,232.695,236.195,233.514 M251.845,247.201c-0.447,0.819-1.186,1.408-2.08,1.662
		c-0.301,0.091-0.631,0.14-0.967,0.14c-1.533,0-2.9-1.027-3.325-2.5c-0.26-0.894-0.158-1.834,0.29-2.643
		c0.442-0.808,1.177-1.399,2.071-1.659c1.82-0.522,3.789,0.598,4.301,2.363C252.393,245.446,252.291,246.384,251.845,247.201
		 M265.535,233.516c-0.446,0.811-1.184,1.4-2.079,1.657c-0.325,0.093-0.65,0.139-0.971,0.139c-1.525,0-2.892-1.027-3.321-2.496
		c-0.26-0.901-0.156-1.843,0.293-2.657c0.448-0.809,1.185-1.394,2.077-1.651c1.714-0.509,3.785,0.628,4.288,2.361
		C266.084,231.759,265.982,232.7,265.535,233.516 M281.179,247.203c-0.451,0.817-1.188,1.406-2.08,1.659
		c-0.301,0.092-0.631,0.141-0.966,0.141c-1.532,0-2.901-1.027-3.326-2.5c-0.258-0.89-0.155-1.83,0.293-2.643
		c0.448-0.814,1.185-1.403,2.075-1.661c1.803-0.507,3.783,0.602,4.294,2.366C281.731,245.441,281.629,246.382,281.179,247.203
		 M294.868,233.512c-0.442,0.814-1.181,1.404-2.076,1.661c-0.318,0.093-0.645,0.139-0.968,0.139c-1.536,0-2.905-1.031-3.328-2.506
		c-0.257-0.889-0.153-1.829,0.293-2.645c0.459-0.815,1.196-1.398,2.08-1.653c0.292-0.087,0.608-0.134,0.927-0.134
		c1.525,0,2.94,1.05,3.364,2.495C295.424,231.755,295.32,232.695,294.868,233.512 M310.517,247.204
		c-0.45,0.817-1.189,1.406-2.084,1.658c-0.299,0.091-0.63,0.14-0.964,0.14c-1.529,0-2.896-1.027-3.325-2.499
		c-0.529-1.842,0.531-3.772,2.365-4.305c1.816-0.507,3.785,0.6,4.298,2.363C311.065,245.454,310.961,246.393,310.517,247.204
		 M324.206,233.514c-0.451,0.815-1.189,1.404-2.08,1.659c-0.314,0.093-0.641,0.139-0.968,0.139c-1.527,0-2.894-1.027-3.323-2.498
		c-0.262-0.907-0.154-1.85,0.303-2.662c0.442-0.802,1.177-1.389,2.067-1.644c1.705-0.505,3.778,0.624,4.291,2.357
		C324.756,231.761,324.652,232.7,324.206,233.514"/>
	<path style="fill:#FFFFFF;" d="M325.04,269.084H145.443c-24.445,0-47.427-9.53-64.717-26.839
		c-10.197-10.216-17.668-22.419-22.098-35.729c-0.481-1.458-0.927-2.922-1.339-4.402c-2.203-7.95-3.362-16.243-3.351-24.72
		c0.012-8.862,1.527-17.376,4.272-25.322c0.357-1.029,0.736-2.051,1.133-3.063c11.412-28.992,39.676-49.583,72.656-49.583
		c24.044,0.026,46.084,14.215,57.997,34.367c0.758,1.287,1.49,2.597,2.164,3.929c4.508,8.898,7.086,18.782,7.086,29.027
		c0,0.524,0.425,0.951,0.951,0.951h9.51c0.526,0,0.951-0.427,0.951-0.951c0-41.897-36.756-78.69-78.653-78.735
		c-21.656,0-41.545,7.747-57.043,20.608c-1.213,1.008-2.394,2.052-3.553,3.12c-13.942,12.859-23.788,30.079-27.371,49.472
		c-0.299,1.62-0.555,3.254-0.765,4.903c-0.472,3.693-0.745,7.449-0.747,11.264c-0.003,3.711,0.197,7.387,0.584,11.027
		c0.171,1.664,0.384,3.319,0.639,4.963c1.959,12.77,6.289,24.947,12.764,36.017c0.787,1.337,1.606,2.66,2.451,3.963
		c3.918,6.048,8.481,11.743,13.693,16.958c3.57,3.576,7.363,6.856,11.338,9.826c0.77,0.576,1.558,1.122,2.344,1.672
		c17.19,12.127,37.636,18.689,59.104,18.689H325.04c0.524,0,0.951-0.425,0.951-0.951v-9.51
		C325.991,269.508,325.564,269.084,325.04,269.084"/>
</g>
</svg>
