<?xml version="1.0" encoding="iso-8859-1"?>
<!-- Generator: Adobe Illustrator 25.4.1, SVG Export Plug-In . SVG Version: 6.00 Build 0)  -->
<svg version="1.1" id="Calque_1" xmlns="http://www.w3.org/2000/svg" xmlns:xlink="http://www.w3.org/1999/xlink" x="0px" y="0px"
	 viewBox="0 0 368.5 368.5" style="enable-background:new 0 0 368.5 368.5;" xml:space="preserve">
<polygon style="fill:#FFFFFF;" points="221.597,287.763 219.015,287.763 217.524,295.672 221.597,295.672 "/>
<g>
	<path style="fill:#FFFFFF;" d="M262.589,92.384h-6.726l-19.09,101.226c3.077,1.489,6.481,3.375,10.047,5.737l14.391-76.298
		c0.134-0.709,0.753-1.223,1.474-1.223h0.007c0.723,0.004,1.341,0.523,1.469,1.236l21.4,119.121
		c4.276,5.791,8.497,10.995,13.381,15.413c0.197,0.18,0.397,0.349,0.595,0.526L269.192,89.207
		C267.638,91.141,265.257,92.384,262.589,92.384"/>
	<polygon style="fill:#FFFFFF;" points="221.597,274.073 220.72,278.72 221.597,278.72 	"/>
	<path style="fill:#FFFFFF;" d="M224.597,261.996h2.478c-0.849-1.063-1.674-2.123-2.478-3.18V261.996z"/>
	<path style="fill:#FFFFFF;" d="M235.071,271.092c-1.107-1.132-2.174-2.275-3.207-3.429c-0.512,1.935-2.261,3.371-4.354,3.371
		h-2.914v7.686h2.914c2.493,0,4.521,2.029,4.521,4.522c0,2.493-2.028,4.52-4.521,4.52h-2.914v8.08h10.475V271.092z"/>
	<path style="fill:#FFFFFF;" d="M193.934,229.684v3.041h11.093c-0.887-1.03-1.799-2.04-2.729-3.041H193.934z"/>
	<path style="fill:#FFFFFF;" d="M193.934,250.38h24.48l-0.496-0.693c-0.562-0.788-1.12-1.568-1.678-2.347h-22.306V250.38z"/>
	<path style="fill:#FFFFFF;" d="M227.511,268.035c0.839,0,1.52-0.681,1.52-1.521c0-0.836-0.681-1.518-1.52-1.518h-33.577v3.039
		H227.511z"/>
	<path style="fill:#FFFFFF;" d="M227.511,284.763c0.839,0,1.52-0.682,1.52-1.52c0-0.838-0.681-1.521-1.52-1.521h-33.577v3.041
		H227.511z"/>
	<path style="fill:#FFFFFF;" d="M190.934,219.675c-3.835-2.667-7.445-4.56-10.474-5.883v82.051h10.474V219.675z"/>
	<path style="fill:#FFFFFF;" d="M128.676,236.772c0,0.829,0.672,1.5,1.5,1.5c0.828,0,1.5-0.671,1.5-1.5v-3.146h-3V236.772z"/>
	<path style="fill:#FFFFFF;" d="M131.676,74.158c0-0.828-0.672-1.5-1.5-1.5c-0.828,0-1.5,0.672-1.5,1.5v1.288h3V74.158z"/>
	<rect x="128.676" y="92.384" style="fill:#FFFFFF;" width="3" height="129.413"/>
	<path style="fill:#FFFFFF;" d="M166.985,74.158c0-0.828-0.672-1.5-1.5-1.5c-0.828,0-1.5,0.672-1.5,1.5v1.288h3V74.158z"/>
	<rect x="163.985" y="92.384" style="fill:#FFFFFF;" width="3" height="129.413"/>
	<path style="fill:#FFFFFF;" d="M163.985,236.772c0,0.829,0.672,1.5,1.5,1.5c0.828,0,1.5-0.671,1.5-1.5v-3.146h-3V236.772z"/>
	<path style="fill:#FFFFFF;" d="M171.642,224.797h-46.345c-0.204,0-0.401,0.022-0.593,0.062l1.036,5.767h45.902
		c1.606,0,2.914-1.308,2.914-2.915C174.556,226.104,173.248,224.797,171.642,224.797"/>
	<path style="fill:#FFFFFF;" d="M315.768,295.735c-7.898-3.352-20.409-9.794-32.565-20.766c-8.628-7.834-14.989-16.696-20.6-24.515
		l-0.525-0.735c-5.655-7.922-10.997-15.405-17.638-22.134c-8.044-8.18-16.342-12.477-21.887-14.641
		c-0.243-0.095-0.44-0.258-0.6-0.45h-3.657c7.27,7.626,12.965,15.555,18.005,22.599l1.228,1.714
		c5.695,7.977,10.924,15.047,17.275,20.788c9.833,8.958,20.528,14.236,26.029,16.584c0.553,0.237,0.912,0.78,0.912,1.38v20.176
		H315.768z"/>
	<path style="fill:#FFFFFF;" d="M241.077,272.745c15.769,14.231,32.121,20.63,37.667,22.517v-18.718
		c-5.89-2.595-16.32-7.948-25.956-16.727c-6.569-5.94-11.902-13.145-17.699-21.263l-1.228-1.715
		c-5.277-7.376-11.259-15.736-19.001-23.606c-13.805-13.956-28.203-19.365-34.4-21.169v18.468
		c5.791,2.38,14.014,6.848,21.978,14.948c6.798,6.888,12.202,14.453,17.921,22.464l0.546,0.763
		C226.424,256.399,232.68,265.12,241.077,272.745"/>
	<path style="fill:#FFFFFF;" d="M296.926,259.817c-6.573-5.945-11.904-13.146-17.698-21.264l-1.239-1.731
		c-5.275-7.37-11.253-15.726-18.991-23.588c-13.806-13.958-28.204-19.366-34.4-21.17v18.467c5.79,2.381,14.013,6.848,21.978,14.949
		c6.808,6.897,12.217,14.474,17.944,22.496l0.522,0.732c5.523,7.695,11.784,16.421,20.173,24.037
		c15.771,14.233,32.122,20.63,37.668,22.516v-18.717C316.993,273.949,306.563,268.596,296.926,259.817"/>
	<path style="fill:#FFFFFF;" d="M45.617,295.672h11.131l32.557-172.623c0.133-0.708,0.752-1.222,1.473-1.222h0.007
		c0.724,0.003,1.342,0.522,1.47,1.236l31.008,172.609h11.112L97.635,91.15c-0.079-0.437,0.041-0.886,0.326-1.228
		c0.285-0.34,0.706-0.538,1.15-0.538h163.478c3.016,0,5.47-2.454,5.47-5.47c0-3.015-2.454-5.468-5.47-5.468H91.612
		c-1.915,0-3.658,0.981-4.664,2.626c-0.042,0.068-0.091,0.134-0.144,0.197c-0.628,0.727-1.055,1.612-1.234,2.56L45.617,295.672z"/>
</g>
</svg>
