<?xml version="1.0" encoding="iso-8859-1"?>
<!-- Generator: Adobe Illustrator 25.4.1, SVG Export Plug-In . SVG Version: 6.00 Build 0)  -->
<svg version="1.1" id="Calque_1" xmlns="http://www.w3.org/2000/svg" xmlns:xlink="http://www.w3.org/1999/xlink" x="0px" y="0px"
	 viewBox="0 0 368.5 368.5" style="enable-background:new 0 0 368.5 368.5;" xml:space="preserve">
<g>
	<path style="fill:#FFFFFF;" d="M110.198,183.473c5.079,0.414,10.138-0.035,15.055-1.361c18.068-4.869,30.682-20.551,33.981-39.366
		c-7.297,19.586-25.011,33.45-45.666,33.45c-3.671,0-7.273-0.439-10.769-1.28C104.935,178.092,107.42,180.97,110.198,183.473"/>
	<path style="fill:#FFFFFF;" d="M132.629,61.155l5.349,5.35c0.53,0.048,1.052,0.211,1.523,0.502l39.388,24.38l-4.197-4.194
		L132.629,61.155z"/>
	<path style="fill:#FFFFFF;" d="M72.854,107.93c0-0.023,0.004-0.046,0.004-0.07L56.144,91.146v68.931l16.71,16.698V107.93z"/>
	<path style="fill:#FFFFFF;" d="M126.554,186.94c-3.131,0.844-6.314,1.373-9.523,1.584c2.627,1.564,5.419,2.829,8.336,3.775
		c2.621-0.24,5.221-0.681,7.767-1.369c12.98-3.498,23.687-12.398,30.146-25.064c6.501-12.75,7.926-27.774,4.01-42.303
		c-1.446-5.366-3.561-10.431-6.298-15.118c0.412,1.6,0.752,3.229,1.026,4.879c0.035,0.08,0.076,0.155,0.103,0.241
		c0.265,0.842,0.513,1.697,0.746,2.561C171.322,147.499,155.031,179.264,126.554,186.94"/>
	<path style="fill:#FFFFFF;" d="M175.162,129.541c-1.127-4.186-2.646-8.205-4.523-12.024c0.543,1.557,1.045,3.135,1.479,4.744
		c4.238,15.727,2.682,32.02-4.385,45.876c-6.303,12.359-16.317,21.461-28.515,26.066c10.124-0.404,19.365-4.639,26.559-11.418
		C176.736,168.195,180.266,148.473,175.162,129.541"/>
	<polygon style="fill:#FFFFFF;" points="76.063,103.994 133.095,68.691 114.743,50.34 57.711,85.642 	"/>
	<path style="fill:#FFFFFF;" d="M113.568,171.195c24.392,0,44.235-21.694,44.235-48.359c0-6.969-1.369-13.685-3.874-19.797
		c-5.036-2.256-10.539-3.509-16.307-3.509c-1.118,0-2.222,0.061-3.319,0.153c5.694,5.927,9.06,14.173,9.06,23.153
		c0,17.756-13.366,32.203-29.795,32.203c-7.295,0-13.982-2.853-19.168-7.574c0.084,7.605,1.814,14.783,4.814,21.129
		C103.781,170.307,108.607,171.195,113.568,171.195"/>
	<path style="fill:#FFFFFF;" d="M137.66,217.655l57.805-35.78v-48.991c0.356-0.177,0.674-0.438,0.921-0.783
		c0.804-1.122,0.544-2.685-0.578-3.487l-0.343-0.246V109.88L137.66,74.098L79.854,109.88v71.995l43.026,26.631
		c0.017,0.563,0.212,1.123,0.615,1.578l1.324,1.499c0.494,0.56,1.182,0.845,1.874,0.845c0.562,0,1.124-0.195,1.589-0.578
		L137.66,217.655z M179.687,117.227c-1.013-0.338-2.165-0.008-2.818,0.906c-0.804,1.123-0.545,2.684,0.578,3.489l1.626,1.164
		c0.44,0.315,0.949,0.466,1.453,0.466c0.717,0,1.412-0.32,1.901-0.899c3.464,7.377,5.431,15.71,5.431,24.536
		c0,29.975-22.535,54.359-50.235,54.359c-6.992,0-13.652-1.557-19.706-4.362c-0.059-0.485-0.258-0.959-0.606-1.352l-1.323-1.5
		c-0.915-1.036-2.493-1.135-3.528-0.219c-0.021,0.017-0.036,0.039-0.055,0.058c-3.152-1.989-6.09-4.33-8.759-6.988
		c0.177,0.039,0.357,0.061,0.538,0.061c0.588,0,1.179-0.206,1.654-0.626c1.035-0.914,1.133-2.494,0.219-3.529l-1.324-1.5
		c-0.914-1.033-2.494-1.132-3.529-0.217c-0.668,0.591-0.94,1.457-0.807,2.276c-8.079-9.65-13.009-22.443-13.009-36.461
		c0-29.973,22.535-54.358,50.235-54.358C155.213,92.531,170.71,102.372,179.687,117.227"/>
	<path style="fill:#FFFFFF;" d="M205.096,141.41l1.627,1.163c0.44,0.316,0.948,0.466,1.452,0.466c0.779,0,1.548-0.363,2.035-1.045
		c0.804-1.123,0.544-2.686-0.579-3.488l-1.627-1.164c-1.122-0.803-2.685-0.545-3.487,0.58
		C203.713,139.045,203.973,140.606,205.096,141.41"/>
	<path style="fill:#FFFFFF;" d="M232.743,161.197l1.627,1.164c0.441,0.314,0.949,0.467,1.453,0.467c0.779,0,1.547-0.363,2.035-1.046
		c0.804-1.122,0.544-2.685-0.578-3.487l-1.627-1.164c-1.125-0.805-2.685-0.545-3.488,0.578
		C231.361,158.833,231.621,160.394,232.743,161.197"/>
	<path style="fill:#FFFFFF;" d="M264.929,178.082l-1.626-1.164c-1.118-0.803-2.674-0.546-3.479,0.568
		c2.014,0.446,3.994,1,5.938,1.643C265.587,178.725,265.313,178.357,264.929,178.082"/>
	<path style="fill:#FFFFFF;" d="M218.919,151.303l1.627,1.164c0.441,0.315,0.949,0.467,1.453,0.467c0.779,0,1.547-0.363,2.035-1.045
		c0.804-1.123,0.544-2.686-0.578-3.488l-1.627-1.164c-1.125-0.803-2.685-0.545-3.488,0.578
		C217.537,148.938,217.797,150.5,218.919,151.303"/>
	<path style="fill:#FFFFFF;" d="M246.568,171.092l1.627,1.163c0.44,0.316,0.948,0.466,1.452,0.466c0.779,0,1.548-0.363,2.035-1.045
		c0.804-1.123,0.544-2.685-0.579-3.488l-1.627-1.164c-1.122-0.802-2.685-0.544-3.487,0.58
		C245.185,168.727,245.445,170.288,246.568,171.092"/>
	<path style="fill:#FFFFFF;" d="M168.158,108.826l-1.626-1.164c-1.122-0.806-2.685-0.547-3.488,0.577
		c-0.804,1.122-0.545,2.685,0.578,3.487l1.626,1.164c0.44,0.317,0.949,0.468,1.453,0.468c0.779,0,1.547-0.362,2.035-1.045
		C169.54,111.191,169.281,109.629,168.158,108.826"/>
	<path style="fill:#FFFFFF;" d="M201.789,298.437c0.104,0.299,0.264,0.582,0.486,0.834l1.325,1.5
		c0.384,0.436,0.888,0.699,1.419,0.797C203.908,300.566,202.838,299.515,201.789,298.437"/>
	<path style="fill:#FFFFFF;" d="M149.751,232.256c-0.914-1.034-2.494-1.134-3.529-0.219c-1.035,0.914-1.133,2.494-0.219,3.53
		l1.324,1.499c0.494,0.559,1.183,0.844,1.875,0.844c0.588,0,1.179-0.207,1.654-0.627c1.035-0.914,1.133-2.494,0.219-3.528
		L149.751,232.256z"/>
	<path style="fill:#FFFFFF;" d="M191.021,286.531l1.324,1.498c0.441,0.498,1.035,0.766,1.649,0.822
		c-1.147-1.695-2.232-3.443-3.239-5.248C190.216,284.512,190.284,285.695,191.021,286.531"/>
	<path style="fill:#FFFFFF;" d="M183.515,270.478c-0.914-1.033-2.494-1.133-3.529-0.217c-1.034,0.914-1.133,2.494-0.219,3.528
		l1.324,1.5c0.494,0.558,1.183,0.845,1.875,0.845c0.588,0,1.179-0.207,1.654-0.627c1.035-0.914,1.133-2.494,0.219-3.529
		L183.515,270.478z"/>
	<path style="fill:#FFFFFF;" d="M172.26,257.738c-0.915-1.035-2.494-1.135-3.529-0.219c-1.035,0.914-1.133,2.494-0.219,3.53
		l1.324,1.498c0.494,0.559,1.183,0.845,1.875,0.845c0.588,0,1.179-0.207,1.654-0.627c1.035-0.914,1.133-2.494,0.219-3.529
		L172.26,257.738z"/>
	<path style="fill:#FFFFFF;" d="M161.004,244.997c-0.914-1.035-2.493-1.132-3.528-0.218c-1.036,0.914-1.133,2.494-0.218,3.529
		l1.324,1.499c0.494,0.558,1.183,0.843,1.874,0.843c0.588,0,1.179-0.206,1.654-0.626c1.036-0.915,1.133-2.494,0.218-3.528
		L161.004,244.997z"/>
	<path style="fill:#FFFFFF;" d="M138.496,219.515c-0.914-1.034-2.494-1.134-3.529-0.218c-1.035,0.914-1.133,2.494-0.219,3.529
		l1.324,1.498c0.494,0.559,1.183,0.845,1.875,0.845c0.588,0,1.179-0.206,1.654-0.626c1.035-0.914,1.133-2.494,0.219-3.529
		L138.496,219.515z"/>
	<path style="fill:#FFFFFF;" d="M186.597,252.759c-0.001-0.179-0.013-0.354-0.013-0.534c0-39.018,29.192-70.772,65.125-70.926
		c-1.64-0.146-3.295-0.242-4.97-0.242c-33.297,0-60.387,29.578-60.387,65.935C186.352,248.937,186.446,250.857,186.597,252.759"/>
	<path style="fill:#FFFFFF;" d="M295.377,247.245c-0.126,28.688-21.505,52.02-47.916,52.442c1.483,0.168,2.987,0.254,4.51,0.254
		c24.065,0,43.644-21.404,43.644-47.716C295.615,250.543,295.533,248.883,295.377,247.245"/>
	<path style="fill:#FFFFFF;" d="M251.97,186.291c-33.296,0-60.386,29.579-60.386,65.934c0,36.357,27.09,65.935,60.386,65.935
		c33.297,0,60.386-29.578,60.386-65.935C312.356,215.87,285.267,186.291,251.97,186.291 M300.615,252.225
		c0,29.068-21.822,52.716-48.645,52.716c-26.822,0-48.644-23.648-48.644-52.716s21.822-52.717,48.644-52.717
		C278.793,199.508,300.615,223.157,300.615,252.225"/>
</g>
</svg>
