<?xml version="1.0" encoding="iso-8859-1"?>
<!-- Generator: Adobe Illustrator 25.4.1, SVG Export Plug-In . SVG Version: 6.00 Build 0)  -->
<svg version="1.1" id="Calque_1" xmlns="http://www.w3.org/2000/svg" xmlns:xlink="http://www.w3.org/1999/xlink" x="0px" y="0px"
	 viewBox="0 0 368.5 368.5" style="enable-background:new 0 0 368.5 368.5;" xml:space="preserve">
<g>
	<path style="fill:#FFFFFF;" d="M52.932,236.366c-0.081,0-0.16-0.011-0.241-0.013c-3.331,0.891-5.787,3.921-5.787,7.533v73.291
		c0,4.311,3.494,7.806,7.804,7.806h73.291c4.312,0,7.808-3.495,7.808-7.806v-73.291c0-4.311-3.496-7.805-7.808-7.805h-32.42
		c-1.643,0.186-3.294,0.283-4.952,0.283L52.932,236.366z"/>
	<path style="fill:#FFFFFF;" d="M164.125,236.081c-4.311,0-7.805,3.494-7.805,7.805v73.291c0,4.311,3.494,7.806,7.805,7.806h73.293
		c4.31,0,7.805-3.495,7.805-7.806v-73.291c0-4.311-3.495-7.805-7.805-7.805H164.125z"/>
	<path style="fill:#FFFFFF;" d="M133.236,209.549c0,1.208-0.206,2.381-0.581,3.493c1.91-1.424,3.151-3.691,3.151-6.255v-2.28
		c-1.09,0.65-2.191,1.043-3.287,1.168C132.983,206.898,133.236,208.202,133.236,209.549"/>
	<path style="fill:#FFFFFF;" d="M100.515,212.299c4.443-2.027,9.192-5.548,14.109-10.462c2.056-2.058,4.794-3.191,7.707-3.191
		c0.837,0,1.656,0.103,2.452,0.286c-0.06-1.77,0.555-3.632,1.861-5.353c0.051-0.067,0.106-0.133,0.163-0.193l8.999-9.649v-50.242
		c0-4.31-3.495-7.805-7.807-7.805H54.708c-4.31,0-7.804,3.495-7.804,7.805v73.292c0,4.062,3.104,7.398,7.069,7.769h36.538
		C94.016,214.538,97.105,213.843,100.515,212.299"/>
	<path style="fill:#FFFFFF;" d="M261.305,69.271c1.272,1.284,2.43,2.592,3.483,3.906l3.081-3.08
		c5.123-5.127,5.122-13.473-0.002-18.603l-7.087-7.086c-0.574-0.574-1.337-0.891-2.148-0.891c-0.809,0-1.569,0.315-2.141,0.888
		c-0.575,0.573-0.891,1.335-0.891,2.143c0,0.811,0.317,1.575,0.891,2.149l7.086,7.087c2.758,2.764,2.758,7.259,0.002,10.021
		l-2.878,2.878C260.903,68.879,261.106,69.071,261.305,69.271"/>
	<path style="fill:#FFFFFF;" d="M270.504,93.85c3.002,3.061,5.814,6.532,8.353,10.349c7.584,11.383,11.694,21.539,11.865,21.965
		c0.015,0.037,0.029,0.074,0.042,0.113c0.572,1.408,1.919,2.316,3.438,2.316c0.466,0,0.924-0.088,1.362-0.261
		c0.479-0.19,0.9-0.465,1.254-0.821c1.047-1.047,1.371-2.613,0.825-3.989c-0.786-1.939-5.014-11.991-12.62-23.429
		c-2.944-4.422-6.214-8.44-9.72-11.944c-0.006-0.006-0.011-0.011-0.017-0.017l-4.002,4.001
		C271.09,92.747,270.828,93.319,270.504,93.85"/>
	<path style="fill:#FFFFFF;" d="M267.815,77.474c1.892,3.085,3.13,6.098,3.643,8.829l8.251-8.25
		c0.383-0.384,0.894-0.586,1.415-0.586c0.275,0,0.552,0.057,0.814,0.173c0.518,0.232,1.065,0.482,1.678,0.781
		c3.194,1.557,8.152,4.368,13.641,8.92c3.214,2.666,6.39,5.566,9.439,8.617c4.646,4.646,7.62,8.27,8.169,8.949
		c0.115,0.139,0.145,0.182,0.145,0.182c0.682,0.863,1.745,1.377,2.889,1.377c0.838,0,1.629-0.275,2.289-0.796
		c0.11-0.088,0.229-0.192,0.336-0.299c1.316-1.319,1.437-3.432,0.275-4.909c-0.591-0.739-3.752-4.629-8.863-9.742
		c-3.232-3.23-6.579-6.284-9.947-9.076c-11.077-9.187-20.317-12.152-21.692-12.559c-0.024-0.006-0.048-0.012-0.072-0.019
		c-0.643-0.182-1.319-0.182-1.972-0.006c-0.144,0.04-0.293,0.062-0.442,0.069c-1.11,0.046-2.151,0.501-2.933,1.283L267.815,77.474z"
		/>
	<path style="fill:#FFFFFF;" d="M241.496,63.641c-1.159,0-2.023,0.274-2.567,0.813l-75.314,74.641
		c0.079,0.016,0.16,0.039,0.239,0.057c0.142,0.031,0.285,0.065,0.427,0.1c0.231,0.058,0.463,0.119,0.696,0.186
		c0.145,0.042,0.289,0.082,0.434,0.127c0.251,0.077,0.503,0.163,0.756,0.251c0.129,0.045,0.257,0.086,0.387,0.133
		c0.376,0.138,0.755,0.285,1.137,0.446c0.069,0.029,0.138,0.062,0.206,0.093c0.32,0.136,0.64,0.281,0.963,0.433
		c0.147,0.071,0.296,0.146,0.444,0.219c0.246,0.122,0.493,0.246,0.741,0.377c0.164,0.086,0.328,0.176,0.492,0.266
		c0.237,0.13,0.474,0.264,0.711,0.402c0.166,0.096,0.331,0.191,0.497,0.291c0.249,0.149,0.497,0.305,0.746,0.463
		c0.152,0.096,0.303,0.188,0.455,0.287c0.351,0.229,0.702,0.467,1.053,0.712c0.118,0.082,0.235,0.167,0.352,0.251
		c0.317,0.225,0.633,0.455,0.948,0.693c0.156,0.117,0.311,0.24,0.467,0.362c0.241,0.186,0.482,0.375,0.722,0.569
		c0.168,0.136,0.335,0.274,0.502,0.413c0.23,0.191,0.458,0.385,0.687,0.582c0.165,0.144,0.331,0.287,0.496,0.434
		c0.238,0.211,0.474,0.427,0.71,0.646c0.15,0.139,0.3,0.274,0.449,0.416c0.318,0.301,0.633,0.609,0.946,0.922
		c0.058,0.059,0.118,0.113,0.176,0.172c4.323,4.363,7.618,9.282,9.278,13.853c0.005,0.012,0.007,0.024,0.012,0.035
		c0.211,0.586,0.388,1.158,0.541,1.719c0.052,0.188,0.089,0.369,0.134,0.553c0.062,0.257,0.136,0.518,0.185,0.768l75.314-74.637
		c2.225-2.205,0.195-10.461-8.165-18.899C251.49,66.47,245.075,63.641,241.496,63.641"/>
	<path style="fill:#FFFFFF;" d="M163.297,154.266c1.1-1.095,2.552-1.637,4.265-1.637c2.582,0,5.747,1.304,7.527,3.099
		c2.615,2.643,4.519,8.67,1.43,11.736l-2.434,2.231c3.362,1.994,6.357,2.933,8.413,2.933h0.001c1.158,0,2.022-0.273,2.567-0.813
		c1.132-1.12,1.119-3.685-0.033-6.857c-1.418-3.906-4.305-8.181-8.13-12.041c-6.266-6.32-12.681-9.148-16.259-9.148
		c-1.159,0-2.023,0.273-2.568,0.814c-1.132,1.122-1.119,3.684,0.034,6.856c0.637,1.756,1.586,3.586,2.769,5.419L163.297,154.266z"/>
	<path style="fill:#FFFFFF;" d="M131.748,200.724c0.554,0,1.237-0.284,1.979-0.823l39.275-35.993c0.4-0.538-0.128-3.311-1.466-4.662
		c-0.757-0.764-2.576-1.617-3.974-1.617c-0.406,0-0.615,0.078-0.67,0.114l-36.335,38.953c-0.692,0.948-1.248,2.266-0.176,3.346
		C130.986,200.654,131.451,200.724,131.748,200.724"/>
	<path style="fill:#FFFFFF;" d="M52.932,231.366l37.695-0.002c5.736,0,11.405-1.268,16.851-3.767
		c6.383-2.911,12.605-7.448,19.027-13.872c1.116-1.116,1.731-2.598,1.731-4.175c0-1.578-0.615-3.06-1.73-4.175
		c-1.115-1.115-2.598-1.729-4.175-1.729c-1.577,0-3.058,0.614-4.171,1.728c-5.342,5.338-10.582,9.199-15.576,11.477
		c-4.089,1.852-7.807,2.685-12.061,2.705H52.932c-3.255,0-5.904,2.649-5.904,5.905C47.028,228.717,49.677,231.366,52.932,231.366"/>
</g>
</svg>
