<?xml version="1.0" encoding="iso-8859-1"?>
<!-- Generator: Adobe Illustrator 25.4.1, SVG Export Plug-In . SVG Version: 6.00 Build 0)  -->
<svg version="1.1" id="Calque_1" xmlns="http://www.w3.org/2000/svg" xmlns:xlink="http://www.w3.org/1999/xlink" x="0px" y="0px"
	 viewBox="0 0 368.5 368.5" style="enable-background:new 0 0 368.5 368.5;" xml:space="preserve">
<g>
	<path style="fill:#FFFFFF;" d="M314.543,108.604h-18.126c0.008-0.099,0.029-0.192,0.029-0.293c0-7.682-6.25-13.934-13.933-13.934
		h-75.338c-7.682,0-13.933,6.252-13.933,13.934v0.057c0,0.081,0.019,0.156,0.024,0.236H96.822V52.708
		c0-6.707,5.456-12.162,12.163-12.162c6.706,0,12.162,5.455,12.162,12.162c0,3.037,2.463,5.5,5.5,5.5c3.038,0,5.5-2.463,5.5-5.5
		c0-12.772-10.39-23.162-23.162-23.162s-23.163,10.39-23.163,23.162v55.896H53.957c-6.285,0-11.379,5.096-11.379,11.379
		c0,6.285,5.094,11.379,11.379,11.379h203.017c0.12-3.27,0.479-5.948,1.115-8.281c1.096-3.952,2.967-6.813,5.726-8.763
		c2.027-1.439,4.557-2.234,7.116-2.234h0.116c4.16,0.073,7.276,1.682,9.873,3.185l0.484,0.308l18.121,12.416
		c1.325,1.029,2.561,2.154,3.712,3.369h11.306c6.283,0,11.378-5.094,11.378-11.379C325.921,113.7,320.826,108.604,314.543,108.604
		 M200.213,108.604c0.008-0.099,0.029-0.192,0.029-0.293c0-3.823,3.111-6.934,6.933-6.934h75.338c3.823,0,6.933,3.111,6.933,6.991
		c0,0.081,0.019,0.156,0.024,0.236H200.213z"/>
	<path style="fill:#FFFFFF;" d="M151.242,139.839H82.795c-8.982,0-16.261,7.279-16.261,16.259v142.957
		c0,8.98,7.279,16.26,16.261,16.26h68.447c8.983,0,16.26-7.28,16.26-16.26V156.098C167.502,147.118,160.225,139.839,151.242,139.839
		"/>
	<path style="fill:#FFFFFF;" d="M207.358,305.543c-7.734,0-14.027-6.293-14.027-14.027V164.02c0-7.734,6.293-14.025,14.027-14.025
		h49.566v-10h-49.566c-13.248,0-24.027,10.778-24.027,24.025v127.496c0,13.249,10.779,24.027,24.027,24.027h49.566v-10H207.358z"/>
	<path style="fill:#FFFFFF;" d="M201.021,262.959c0,2.762,2.239,5,5,5h0.408c-0.001,0.03-0.009,0.06-0.009,0.09v15.201
		c0,7.19,5.363,13.039,11.956,13.039h23.083c6.593,0,11.957-5.849,11.957-13.039v-15.201c0-0.03-0.008-0.06-0.009-0.09h3.518v-10
		h-50.904C203.26,257.959,201.021,260.197,201.021,262.959 M243.416,268.049v15.201c0,1.739-1.033,3.039-1.957,3.039h-23.083
		c-0.923,0-1.956-1.3-1.956-3.039v-15.201c0-0.03-0.008-0.06-0.009-0.09h27.014C243.424,267.989,243.416,268.019,243.416,268.049"/>
	<path style="fill:#FFFFFF;" d="M201.02,224.959c0,2.762,2.239,5,5,5h50.904v-10H206.02
		C203.259,219.959,201.02,222.197,201.02,224.959"/>
	<path style="fill:#FFFFFF;" d="M201.02,185.959c0,2.762,2.239,5,5,5h50.904v-10H206.02
		C203.259,180.959,201.02,183.197,201.02,185.959"/>
	<path style="fill:#FFFFFF;" d="M277.591,332.443l0.102-0.101l17.648-16.72c3.065-2.967,6.228-6.332,8.405-10.657
		c2.195-4.336,3.255-9.431,3.244-15.582V162.659c-0.005-5.9-0.858-11.268-2.534-15.954c-1.973-5.513-5.062-9.937-9.181-13.151
		l-0.2-0.144l-17.726-12.119c-2.373-1.369-4.188-2.168-6.397-2.207c-1.108,0.001-2.256,0.354-3.091,0.947
		c-1.412,0.998-2.371,2.556-3.022,4.905c-0.615,2.257-0.907,5.072-0.915,8.844v186.344c0.016,4.729,0.643,8.231,1.973,11.01
		c0.66,1.348,1.458,2.382,2.424,3.133c0.949,0.748,2.186,1.187,3.328,1.187l0.064,3.5l-0.046-3.5
		C273.709,335.427,275.647,334.443,277.591,332.443"/>
	<path style="fill:#FFFFFF;" d="M126.687,85.868c-2.698,0-4.892,2.194-4.892,4.891c0,2.698,2.194,4.892,4.892,4.892
		c2.698,0,4.892-2.194,4.892-4.892C131.579,88.062,129.385,85.868,126.687,85.868 M126.687,94.868c-2.265,0-4.108-1.844-4.108-4.109
		c0-2.265,1.843-4.108,4.108-4.108c2.265,0,4.108,1.843,4.108,4.108C130.795,93.024,128.952,94.868,126.687,94.868"/>
	<path style="fill:#FFFFFF;" d="M126.687,66.868c-2.698,0-4.892,2.194-4.892,4.891c0,2.698,2.194,4.892,4.892,4.892
		c2.698,0,4.892-2.194,4.892-4.892C131.579,69.062,129.385,66.868,126.687,66.868 M126.687,75.868c-2.265,0-4.108-1.844-4.108-4.109
		c0-2.265,1.843-4.108,4.108-4.108c2.265,0,4.108,1.843,4.108,4.108C130.795,74.024,128.952,75.868,126.687,75.868"/>
	<path style="fill:#FFFFFF;" d="M259.723,77.921c-1.526,1.186-1.8,3.386-0.614,4.912c0.69,0.887,1.722,1.351,2.765,1.351
		c0.751,0,1.508-0.241,2.147-0.738c0.239-0.185,5.849-4.661,5.849-14.357c0-5.211-1.576-8.296-2.843-10.775
		c-0.903-1.768-1.555-3.044-1.555-4.917c0-4.252,2.195-6.733,2.336-6.887c1.319-1.39,1.277-3.585-0.101-4.922
		c-1.388-1.347-3.604-1.313-4.949,0.074c-0.439,0.452-4.286,4.622-4.286,11.735c0,3.557,1.233,5.971,2.322,8.101
		c1.114,2.181,2.076,4.065,2.076,7.591C262.87,75.207,259.805,77.85,259.723,77.921"/>
	<path style="fill:#FFFFFF;" d="M240.723,77.921c-1.526,1.186-1.8,3.386-0.614,4.912c0.69,0.887,1.722,1.351,2.765,1.351
		c0.751,0,1.508-0.241,2.147-0.738c0.239-0.185,5.849-4.661,5.849-14.357c0-5.211-1.576-8.296-2.843-10.775
		c-0.903-1.768-1.555-3.044-1.555-4.917c0-4.252,2.195-6.733,2.336-6.887c1.319-1.39,1.277-3.585-0.101-4.922
		c-1.388-1.347-3.604-1.313-4.949,0.074c-0.439,0.452-4.286,4.622-4.286,11.735c0,3.557,1.233,5.971,2.322,8.101
		c1.114,2.181,2.076,4.065,2.076,7.591C243.87,75.207,240.805,77.85,240.723,77.921"/>
	<path style="fill:#FFFFFF;" d="M221.723,77.921c-1.526,1.186-1.8,3.386-0.614,4.912c0.69,0.887,1.722,1.351,2.765,1.351
		c0.751,0,1.508-0.241,2.147-0.738c0.239-0.185,5.849-4.661,5.849-14.357c0-5.211-1.576-8.296-2.843-10.775
		c-0.903-1.768-1.555-3.044-1.555-4.917c0-4.252,2.195-6.733,2.336-6.887c1.319-1.39,1.277-3.585-0.101-4.922
		c-1.387-1.347-3.604-1.313-4.949,0.074c-0.439,0.452-4.286,4.622-4.286,11.735c0,3.557,1.233,5.971,2.322,8.101
		c1.114,2.181,2.076,4.065,2.076,7.591C224.87,75.207,221.805,77.85,221.723,77.921"/>
</g>
</svg>
