<?xml version="1.0" encoding="iso-8859-1"?>
<!-- Generator: Adobe Illustrator 25.4.1, SVG Export Plug-In . SVG Version: 6.00 Build 0)  -->
<svg version="1.1" id="Calque_1" xmlns="http://www.w3.org/2000/svg" xmlns:xlink="http://www.w3.org/1999/xlink" x="0px" y="0px"
	 viewBox="0 0 368.5 368.5" style="enable-background:new 0 0 368.5 368.5;" xml:space="preserve">
<g>
	<path style="fill:#FFFFFF;" d="M100.946,257.255c-3.217-39.952-2.392-102.017-1.314-151.616
		c0.629-28.952,0.332-50.589,0.004-63.121h-5.317c0.389,25.373,0.298,78.135-5.189,134.823
		c-5.594,57.794-11.678,71.952-14.498,75.399v22.18c3.622-9.969,12-29.964,18.229-21.072c5.279,7.522,8.199,45.144,9.644,72.129
		h2.754c0.011,0,0.021-0.006,0.031-0.006v-0.449l0.001-36.028C103.88,283.667,102.284,273.875,100.946,257.255"/>
	<path style="fill:#FFFFFF;" d="M105.292,276.8l0.007-234.283h-4.416c0.333,14.152,0.564,36.46-0.065,65.402
		c-0.946,43.572-1.864,105.738,1.094,142.464C102.941,263.183,104.162,271.446,105.292,276.8"/>
	<path style="fill:#FFFFFF;" d="M92.679,265.101c-6.123-8.713-14.725,12.511-18.047,21.741v39.14l26.477-0.006
		C99.683,301.795,97.058,271.34,92.679,265.101"/>
	<path style="fill:#FFFFFF;" d="M79.82,93.875c1.531-15.658,1.639-37.027,1.487-51.356h-6.674v65.919
		C75.906,110.595,78.135,111.095,79.82,93.875"/>
	<path style="fill:#FFFFFF;" d="M80.711,101.581c-1.504,15.38-3.336,19.307-4.814,19.307c-0.466,0-0.891-0.407-1.264-0.952v35.375
		c1.897-2.58,5.728-10.32,7.963-32.132c2.277-22.215,2.393-62.288,2.314-80.661h-2.383C82.686,59.016,82.518,83.115,80.711,101.581"
		/>
	<path style="fill:#FFFFFF;" d="M83.468,131.085c-2.58,25.183-6.853,33.29-8.835,35.771v74.192
		c2.697-3.754,8.421-17.827,13.602-71.368c5.254-54.276,5.212-104.925,4.851-127.161h-6.961
		C86.217,62.759,86.064,105.758,83.468,131.085"/>
	<path style="fill:#FFFFFF;" d="M116.894,111.245c3.217,39.952,2.393,102.017,1.313,151.616
		c-0.629,28.952-0.332,50.589-0.004,63.122h5.318c-0.389-25.373-0.299-78.136,5.189-134.824
		c5.594-57.794,11.678-71.952,14.497-75.399V93.58c-3.621,9.969-12,29.964-18.228,21.073c-5.28-7.523-8.198-45.145-9.643-72.129
		h-2.754c-0.012,0-0.022,0.005-0.032,0.005v0.449l-0.001,36.028C113.959,84.833,115.556,94.625,116.894,111.245"/>
	<path style="fill:#FFFFFF;" d="M112.549,91.7l-0.007,234.283h4.416c-0.333-14.152-0.565-36.46,0.064-65.402
		c0.947-43.571,1.865-105.737-1.092-142.464C114.9,105.318,113.68,97.055,112.549,91.7"/>
	<path style="fill:#FFFFFF;" d="M125.161,103.399c6.123,8.713,14.726-12.511,18.047-21.741v-39.14l-26.478,0.006
		C118.157,66.706,120.783,97.16,125.161,103.399"/>
	<path style="fill:#FFFFFF;" d="M138.02,274.625c-1.532,15.658-1.637,37.027-1.487,51.357h6.676v-65.92
		C141.934,257.906,139.705,257.406,138.02,274.625"/>
	<path style="fill:#FFFFFF;" d="M137.128,266.919c1.504-15.38,3.336-19.306,4.816-19.306c0.465,0,0.89,0.406,1.265,0.951V213.19
		c-1.899,2.58-5.73,10.32-7.964,32.133c-2.279,22.214-2.394,62.287-2.314,80.66h2.382
		C135.155,309.484,135.323,285.385,137.128,266.919"/>
	<path style="fill:#FFFFFF;" d="M134.373,237.415c2.58-25.183,6.853-33.29,8.836-35.771v-74.192
		c-2.698,3.754-8.422,17.827-13.604,71.368c-5.253,54.276-5.211,104.925-4.849,127.161h6.959
		C131.625,305.741,131.777,262.743,134.373,237.415"/>
	<path style="fill:#FFFFFF;" d="M176.527,257.255c-3.217-39.952-2.39-102.017-1.313-151.616c0.629-28.952,0.332-50.589,0.005-63.121
		h-5.318c0.388,25.373,0.298,78.135-5.19,134.823c-5.593,57.794-11.678,71.952-14.497,75.399v22.18
		c3.621-9.969,12-29.964,18.229-21.072c5.28,7.522,8.2,45.144,9.643,72.129h2.754c0.012,0,0.021-0.006,0.031-0.006v-0.449
		l0.001-36.028C179.462,283.667,177.865,273.875,176.527,257.255"/>
	<path style="fill:#FFFFFF;" d="M180.873,276.8l0.007-234.283h-4.416c0.333,14.152,0.565,36.46-0.064,65.402
		c-0.947,43.572-1.865,105.738,1.093,142.464C178.522,263.183,179.743,271.446,180.873,276.8"/>
	<path style="fill:#FFFFFF;" d="M168.26,265.101c-6.124-8.713-14.725,12.511-18.047,21.741v39.14l26.476-0.006
		C175.264,301.795,172.638,271.34,168.26,265.101"/>
	<path style="fill:#FFFFFF;" d="M155.402,93.875c1.53-15.658,1.637-37.027,1.486-51.356h-6.675v65.919
		C151.488,110.595,153.716,111.095,155.402,93.875"/>
	<path style="fill:#FFFFFF;" d="M156.292,101.581c-1.503,15.38-3.335,19.307-4.815,19.307c-0.466,0-0.89-0.407-1.265-0.952v35.375
		c1.898-2.58,5.73-10.32,7.963-32.132c2.28-22.215,2.395-62.288,2.315-80.661h-2.382C158.266,59.016,158.098,83.115,156.292,101.581
		"/>
	<path style="fill:#FFFFFF;" d="M159.049,131.085c-2.58,25.183-6.853,33.29-8.836,35.771v74.192
		c2.699-3.754,8.422-17.827,13.603-71.368c5.254-54.276,5.211-104.925,4.85-127.161h-6.959
		C161.797,62.759,161.644,105.758,159.049,131.085"/>
	<path style="fill:#FFFFFF;" d="M192.222,111.245c3.217,39.952,2.392,102.017,1.312,151.616
		c-0.628,28.952-0.332,50.589-0.003,63.122h5.318c-0.39-25.373-0.3-78.136,5.189-134.824c5.593-57.794,11.677-71.952,14.496-75.399
		V93.58c-3.621,9.969-11.999,29.964-18.228,21.073c-5.28-7.523-8.199-45.145-9.643-72.129h-2.754c-0.011,0-0.022,0.005-0.032,0.005
		v0.449l-0.001,36.028C189.286,84.833,190.883,94.625,192.222,111.245"/>
	<path style="fill:#FFFFFF;" d="M187.876,91.7l-0.007,234.283h4.416c-0.334-14.152-0.565-36.46,0.064-65.402
		c0.948-43.571,1.865-105.737-1.094-142.464C190.226,105.318,189.005,97.055,187.876,91.7"/>
	<path style="fill:#FFFFFF;" d="M200.488,103.399c6.122,8.713,14.725-12.511,18.047-21.741v-39.14l-26.477,0.006
		C193.484,66.706,196.11,97.16,200.488,103.399"/>
	<path style="fill:#FFFFFF;" d="M213.347,274.625c-1.532,15.658-1.639,37.027-1.487,51.357h6.674v-65.92
		C217.26,257.906,215.033,257.406,213.347,274.625"/>
	<path style="fill:#FFFFFF;" d="M212.457,266.919c1.503-15.38,3.335-19.306,4.814-19.306c0.467,0,0.891,0.406,1.264,0.951V213.19
		c-1.898,2.58-5.728,10.32-7.963,32.133c-2.278,22.214-2.393,62.287-2.313,80.66h2.382
		C210.482,309.484,210.65,285.385,212.457,266.919"/>
	<path style="fill:#FFFFFF;" d="M209.701,237.415c2.58-25.183,6.852-33.29,8.834-35.771v-74.192
		c-2.697,3.754-8.42,17.827-13.603,71.368c-5.253,54.276-5.21,104.925-4.849,127.161h6.959
		C206.951,305.741,207.104,262.743,209.701,237.415"/>
	<path style="fill:#FFFFFF;" d="M251.854,257.255c-3.217-39.952-2.392-102.017-1.313-151.616
		c0.629-28.952,0.332-50.589,0.003-63.121h-5.316c0.388,25.373,0.298,78.135-5.189,134.823
		c-5.595,57.794-11.679,71.952-14.498,75.399v22.18c3.621-9.969,12-29.964,18.229-21.072c5.279,7.522,8.199,45.144,9.644,72.129
		h2.754c0.011,0,0.021-0.006,0.03-0.006v-0.449l0.001-36.028C254.789,283.667,253.192,273.875,251.854,257.255"/>
	<path style="fill:#FFFFFF;" d="M256.2,276.8l0.006-234.283h-4.416c0.333,14.152,0.565,36.46-0.065,65.402
		c-0.945,43.572-1.863,105.738,1.095,142.464C253.849,263.183,255.07,271.446,256.2,276.8"/>
	<path style="fill:#FFFFFF;" d="M243.588,265.101c-6.123-8.713-14.725,12.511-18.047,21.741v39.14l26.477-0.006
		C250.592,301.795,247.966,271.34,243.588,265.101"/>
	<path style="fill:#FFFFFF;" d="M230.728,93.875c1.533-15.658,1.64-37.027,1.488-51.356h-6.675v65.919
		C226.816,110.595,229.044,111.095,230.728,93.875"/>
	<path style="fill:#FFFFFF;" d="M231.619,101.581c-1.504,15.38-3.336,19.307-4.814,19.307c-0.466,0-0.891-0.407-1.264-0.952v35.375
		c1.897-2.58,5.728-10.32,7.963-32.132c2.277-22.215,2.393-62.288,2.314-80.661h-2.383
		C233.593,59.016,233.426,83.115,231.619,101.581"/>
	<path style="fill:#FFFFFF;" d="M234.376,131.085c-2.58,25.183-6.853,33.29-8.835,35.771v74.192
		c2.697-3.754,8.421-17.827,13.603-71.368c5.253-54.276,5.21-104.925,4.85-127.161h-6.961
		C237.125,62.759,236.972,105.758,234.376,131.085"/>
	<path style="fill:#FFFFFF;" d="M267.553,111.245c3.217,39.952,2.392,102.017,1.313,151.616
		c-0.629,28.952-0.332,50.589-0.004,63.122h5.318c-0.389-25.373-0.299-78.136,5.189-134.824
		c5.593-57.794,11.678-71.952,14.497-75.399V93.58c-3.621,9.969-12,29.964-18.228,21.073c-5.28-7.523-8.199-45.145-9.645-72.129
		h-2.753c-0.011,0-0.022,0.005-0.031,0.005v0.449v36.028C264.618,84.833,266.215,94.625,267.553,111.245"/>
	<path style="fill:#FFFFFF;" d="M263.208,91.7l-0.007,234.283h4.417c-0.335-14.152-0.567-36.46,0.063-65.402
		c0.947-43.571,1.865-105.737-1.093-142.464C265.558,105.318,264.338,97.055,263.208,91.7"/>
	<path style="fill:#FFFFFF;" d="M275.82,103.399c6.122,8.713,14.724-12.511,18.047-21.741v-39.14l-26.477,0.006
		C268.815,66.706,271.441,97.16,275.82,103.399"/>
	<path style="fill:#FFFFFF;" d="M288.678,274.625c-1.53,15.658-1.638,37.027-1.487,51.357h6.676v-65.92
		C292.592,257.906,290.363,257.406,288.678,274.625"/>
	<path style="fill:#FFFFFF;" d="M287.788,266.919c1.504-15.38,3.336-19.306,4.815-19.306c0.466,0,0.89,0.406,1.265,0.951V213.19
		c-1.899,2.58-5.73,10.32-7.964,32.133c-2.278,22.214-2.395,62.287-2.314,80.66h2.383
		C285.814,309.484,285.982,285.385,287.788,266.919"/>
	<path style="fill:#FFFFFF;" d="M285.032,237.415c2.58-25.183,6.853-33.29,8.836-35.771v-74.192
		c-2.7,3.754-8.422,17.827-13.605,71.368c-5.254,54.276-5.21,104.925-4.849,127.161h6.96
		C282.283,305.741,282.435,262.743,285.032,237.415"/>
</g>
</svg>
