<?xml version="1.0" encoding="iso-8859-1"?>
<!-- Generator: Adobe Illustrator 25.4.1, SVG Export Plug-In . SVG Version: 6.00 Build 0)  -->
<svg version="1.1" id="Calque_1" xmlns="http://www.w3.org/2000/svg" xmlns:xlink="http://www.w3.org/1999/xlink" x="0px" y="0px"
	 viewBox="0 0 368.5 368.5" style="enable-background:new 0 0 368.5 368.5;" xml:space="preserve">
<polygon style="fill:#FFFFFF;" points="316.767,196.073 311.811,192.484 104.161,192.484 109.119,196.073 "/>
<polygon style="fill:#FFFFFF;" points="309.276,190.648 304.319,187.059 96.669,187.059 101.624,190.648 "/>
<g>
	<path style="fill:#FFFFFF;" d="M88.413,180.17c-0.139,0.438,0.015,0.918,0.391,1.194l5.328,3.859h207.651l-7.72-5.591
		c-0.182-0.133-0.402-0.205-0.625-0.205H89.428C88.969,179.427,88.557,179.731,88.413,180.17"/>
	<path style="fill:#FFFFFF;" d="M325.023,202.964c0.147-0.437-0.012-0.92-0.385-1.193l-5.331-3.858H111.656l7.718,5.587
		c0.188,0.135,0.402,0.205,0.629,0.205h204.012C324.473,203.705,324.884,203.408,325.023,202.964"/>
	<path style="fill:#FFFFFF;" d="M114.334,219.811c0.156,0,0.312-0.036,0.458-0.111c0.335-0.171,0.545-0.518,0.545-0.892v-12
		c0-0.321-0.153-0.624-0.415-0.814l-27.83-20.139c-0.173-0.129-0.379-0.191-0.588-0.191c-0.155,0-0.311,0.037-0.458,0.109
		c-0.335,0.169-0.545,0.519-0.545,0.895v11.999c0,0.321,0.154,0.624,0.415,0.812l27.83,20.14
		C113.919,219.746,114.126,219.811,114.334,219.811"/>
	<path style="fill:#FFFFFF;" d="M72.438,189.44c0.156,0,0.312-0.036,0.456-0.108c0.337-0.172,0.549-0.518,0.549-0.894v-11.996
		c0-0.326-0.155-0.628-0.415-0.816l-27.831-20.14c-0.174-0.127-0.38-0.193-0.588-0.193c-0.154,0-0.312,0.038-0.457,0.111
		c-0.337,0.173-0.547,0.518-0.547,0.893v12.001c0,0.319,0.154,0.624,0.416,0.815l27.829,20.136
		C72.024,189.378,72.23,189.44,72.438,189.44"/>
	<path style="fill:#FFFFFF;" d="M326.066,207.233H121.805c-0.558,0-1.005,0.453-1.005,1.005v12.001c0,0.554,0.447,1.002,1.005,1.002
		h204.261c0.555,0,1.003-0.448,1.003-1.002v-12.001C327.069,207.686,326.621,207.233,326.066,207.233"/>
	<polygon style="fill:#FFFFFF;" points="272.702,163.934 267.746,160.344 60.095,160.344 65.047,163.934 	"/>
	<path style="fill:#FFFFFF;" d="M75.934,171.563h204.011c0.46,0,0.872-0.294,1.013-0.738c0.144-0.437-0.014-0.918-0.388-1.196
		l-5.33-3.857H67.585l7.719,5.589C75.492,171.493,75.707,171.563,75.934,171.563"/>
	<path style="fill:#FFFFFF;" d="M44.346,148.029c-0.14,0.438,0.014,0.918,0.391,1.194l5.328,3.859h207.652l-7.721-5.589
		c-0.182-0.132-0.401-0.203-0.625-0.203H45.361C44.902,147.29,44.49,147.59,44.346,148.029"/>
	<polygon style="fill:#FFFFFF;" points="265.211,158.507 260.252,154.918 52.602,154.918 57.558,158.507 	"/>
</g>
</svg>
