<?xml version="1.0" encoding="iso-8859-1"?>
<!-- Generator: Adobe Illustrator 25.4.1, SVG Export Plug-In . SVG Version: 6.00 Build 0)  -->
<svg version="1.1" id="Calque_1" xmlns="http://www.w3.org/2000/svg" xmlns:xlink="http://www.w3.org/1999/xlink" x="0px" y="0px"
	 viewBox="0 0 368.5 368.5" style="enable-background:new 0 0 368.5 368.5;" xml:space="preserve">
<g>
	<path style="fill:#FFFFFF;" d="M74.682,210.816c3.494-6.157,20.154-35.705,28.474-53.69c5.353-11.567-1.699-22.288-7.796-28.74
		l-49.5,82.43H74.682z"/>
	<path style="fill:#FFFFFF;" d="M107.076,158.94c-7.653,16.548-22.262,42.716-27.431,51.876h22.568
		c1.629-5.474,6.773-19.906,18.757-32.855c14.339-15.504,33.551-43.288,33.743-43.566c0.677-0.981,2.021-1.232,3.004-0.553
		c0.984,0.677,1.231,2.023,0.553,3.005c-0.194,0.282-19.58,28.322-34.126,44.047c-10.457,11.303-15.488,24.079-17.389,29.922h57.604
		l10.956-94.261h-3.691c0.186,6.739-0.468,20.787-7.532,35.291c-9.196,18.878-13.916,43.527-13.962,43.774
		c-0.196,1.038-1.102,1.759-2.12,1.759c-0.134,0-0.269-0.012-0.404-0.037c-1.173-0.222-1.943-1.351-1.721-2.524
		c0.194-1.032,4.876-25.47,14.32-44.862c6.648-13.65,7.235-27.16,7.077-33.401h-5.649c-5.106,9.546-22.177,39.148-38.008,40.068
		c-0.235,0.015-0.465,0.021-0.684,0.021c-3.435,0-5.032-1.607-5.773-3.004c-3.718-7.016,8.453-26.054,16.276-37.085h-30.98
		l-4.819,8.026C104.679,131.77,113.697,144.63,107.076,158.94"/>
	<path style="fill:#FFFFFF;" d="M123.374,152.311c11.637-0.68,26.233-22.859,33.356-35.756h-17.96
		c-10.663,14.677-19.888,31.089-17.785,35.062C121.27,152.151,122.076,152.374,123.374,152.311"/>
	<path style="fill:#FFFFFF;" d="M237.839,159.681c-3.205-0.234-4.346,0.954-4.923,1.853c-4.72,7.378,6.586,34.061,14.882,49.282
		h48.069C286.183,198.329,255.725,160.888,237.839,159.681"/>
	<path style="fill:#FFFFFF;" d="M263.667,116.555h-35.108c1.349,3.971,5.429,11.466,17.851,21.454
		c20.126,16.194,47.974,44.2,48.252,44.482c0.84,0.847,0.836,2.214-0.012,3.056c-0.42,0.417-0.971,0.626-1.521,0.626
		c-0.556,0-1.113-0.213-1.534-0.639c-0.277-0.278-27.955-28.115-47.895-44.157c-14.383-11.567-18.533-20.243-19.698-24.822h-16.606
		c-0.63,3.422-0.998,11.354,4.741,23.76c8.567,18.52,9.584,43.578,9.622,44.635c0.044,1.192-0.886,2.194-2.078,2.238
		c-0.028,0.002-0.055,0.002-0.083,0.002c-1.156,0-2.114-0.915-2.156-2.08c-0.011-0.251-1.03-25.261-9.225-42.98
		c-5.798-12.531-5.876-21.07-5.203-25.575h-9.219l12.323,94.261h36.781c-4.902-9.322-20.516-40.832-13.625-51.61
		c1.239-1.939,3.761-4.169,8.856-3.838c21.515,1.454,56.505,46.573,63.189,55.448h25.016L263.667,116.555z"/>
	<polygon style="fill:#FFFFFF;" points="164.254,243.081 164.254,251.968 43.591,251.968 43.591,217.7 164.25,217.7 164.25,225.56 	
		"/>
	<polygon style="fill:#FFFFFF;" points="327.056,243.081 327.056,251.968 206.393,251.968 206.393,217.7 327.052,217.7 
		327.052,225.56 	"/>
	<polygon style="fill:#FFFFFF;" points="203.297,251.791 203.297,210.803 191.344,119.092 192.399,158.614 	"/>
	<polygon style="fill:#FFFFFF;" points="167.81,251.791 167.81,210.803 177.653,119.092 176.598,158.614 	"/>
</g>
</svg>
