<?xml version="1.0" encoding="iso-8859-1"?>
<!-- Generator: Adobe Illustrator 25.4.1, SVG Export Plug-In . SVG Version: 6.00 Build 0)  -->
<svg version="1.1" id="Calque_1" xmlns="http://www.w3.org/2000/svg" xmlns:xlink="http://www.w3.org/1999/xlink" x="0px" y="0px"
	 viewBox="0 0 368.5 368.5" style="enable-background:new 0 0 368.5 368.5;" xml:space="preserve">
<g>
	<path style="fill:#FFFFFF;" d="M177.744,309.296H117.63c-4.615,0-8.345,3.729-8.345,8.343c0,4.605,3.73,8.345,8.345,8.345h134.176
		c4.603,0,8.336-3.74,8.336-8.345c0-4.614-3.733-8.343-8.336-8.343h-57.372v-0.391h-16.69V309.296z"/>
	<path style="fill:#FFFFFF;" d="M100.272,185.12h77.472v114.25h16.69V185.12h75.982c1.582,0,3.08-0.697,4.099-1.897
		c1.019-1.202,1.46-2.795,1.2-4.347L253.892,47.01c-0.426-2.591-2.664-4.49-5.293-4.49H122.082c-2.626,0-4.869,1.899-5.293,4.49
		L94.973,178.876c-0.258,1.552,0.174,3.145,1.197,4.347C97.191,184.423,98.69,185.12,100.272,185.12"/>
</g>
</svg>
