<?xml version="1.0" encoding="iso-8859-1"?>
<!-- Generator: Adobe Illustrator 25.4.1, SVG Export Plug-In . SVG Version: 6.00 Build 0)  -->
<svg version="1.1" id="Calque_1" xmlns="http://www.w3.org/2000/svg" xmlns:xlink="http://www.w3.org/1999/xlink" x="0px" y="0px"
	 viewBox="0 0 368.5 368.5" style="enable-background:new 0 0 368.5 368.5;" xml:space="preserve">
<g>
	<path style="fill:#FFFFFF;" d="M217.35,107.766c-0.086,0.268-0.13,0.549-0.133,0.838c0.003,0.711,0.281,1.387,0.782,1.891
		l41.095,40.972c1.042,1.033,4.508,1.274,3.776-0.017c-18.316-32.356-44.872-44.739-44.872-44.739
		C217.699,107.008,217.481,107.373,217.35,107.766"/>
	<path style="fill:#FFFFFF;" d="M71.016,317.772c2.466,0.686,5,1.061,7.543,1.082l-0.009-0.029
		c7.462,0.049,14.942-2.77,20.625-8.475l99.166-99.166c0.199,0.199-6.819-6.818-15.087-15.086l-6.473,6.475
		c-2.917,2.916-7.692,2.918-10.61,0c-2.915-2.92-2.916-7.694,0.002-10.61l6.473-6.474c-8.151-8.153-15.091-15.09-15.091-15.09
		l-99.239,99.238c-5.692,5.725-8.475,13.235-8.384,20.715l-0.064-0.021c0.092,7.283,2.914,14.533,8.478,20.078
		c3.176,3.166,6.911,5.406,10.879,6.789c0.433,0.152,0.86,0.322,1.299,0.451C70.684,317.696,70.852,317.725,71.016,317.772"/>
	<path style="fill:#FFFFFF;" d="M179.197,178.938l4.455-4.455c2.919-2.918,7.69-2.918,10.606,0c2.92,2.918,2.921,7.691,0.003,10.607
		l-4.435,4.438l15.353,15.299l4.678-4.69l0.016,0.049l14.096-14.178c2.289,0.307,4.609,0.434,6.933,0.407
		c12.121-0.118,24.203-4.776,33.416-14.018c0.373-0.369,0.633-0.805,0.828-1.26c0.035-0.076,0.075-0.15,0.107-0.226
		c0.009-0.036,0.035-0.067,0.045-0.102c0.015-0.043,0.011-0.09,0.024-0.135c0.129-0.4,0.213-0.812,0.211-1.24
		c-0.002-1.068-0.43-2.096-1.191-2.848l-42.821-42.558l-19.27-19.215c-0.627-0.627-1.445-1.008-2.314-1.123
		c-0.145-0.023-0.289-0.037-0.434-0.043c-0.036-0.002-0.069-0.01-0.103-0.01c-0.024,0-0.045,0.006-0.067,0.008
		c-0.431,0-0.857,0.059-1.269,0.197c-0.58,0.192-1.126,0.52-1.584,0.987c-6.622,6.66-10.852,14.796-12.738,23.351
		c-1.28,5.697-1.512,11.479-0.725,17.096l-14.116,14.162l0.048,0.016l-4.629,4.662L179.197,178.938z"/>
	<path style="fill:#FFFFFF;" d="M313.63,128.407h-16.499c-2.764,0-5,2.236-5,5c0,2.762,2.236,5,5,5h16.499
		c2.763,0,5.001-2.238,5.001-5C318.631,130.643,316.393,128.407,313.63,128.407"/>
	<path style="fill:#FFFFFF;" d="M290.401,107.665l14.701-7.488c2.462-1.254,3.44-4.264,2.187-6.727
		c-1.254-2.459-4.264-3.437-6.725-2.185l-14.703,7.49c-2.461,1.252-3.439,4.264-2.187,6.725
		C284.928,107.94,287.939,108.919,290.401,107.665"/>
	<path style="fill:#FFFFFF;" d="M239.87,71.145v-16.5c0-2.762-2.238-4.999-5.001-4.999s-5,2.237-5,4.999v16.5c0,2.762,2.237,5,5,5
		S239.87,73.907,239.87,71.145"/>
	<path style="fill:#FFFFFF;" d="M269.522,82.415l7.488-14.703c1.253-2.461,0.276-5.471-2.184-6.725
		c-2.463-1.254-5.473-0.275-6.727,2.188l-7.488,14.701c-1.253,2.461-0.277,5.473,2.186,6.725
		C265.256,85.855,268.269,84.876,269.522,82.415"/>
</g>
</svg>
