<?xml version="1.0" encoding="iso-8859-1"?>
<!-- Generator: Adobe Illustrator 25.4.1, SVG Export Plug-In . SVG Version: 6.00 Build 0)  -->
<svg version="1.1" id="Calque_1" xmlns="http://www.w3.org/2000/svg" xmlns:xlink="http://www.w3.org/1999/xlink" x="0px" y="0px"
	 viewBox="0 0 368.5 368.5" style="enable-background:new 0 0 368.5 368.5;" xml:space="preserve">
<g>
	<path style="fill:#FFFFFF;" d="M131.974,150.063v-10.07c0-2.419-1.864-4.388-4.155-4.388h-23.71c-2.287,0-4.146,1.969-4.146,4.388
		v10.07H131.974z"/>
	<rect x="91.395" y="166.287" style="fill:#FFFFFF;" width="49.13" height="149.764"/>
	<path style="fill:#FFFFFF;" d="M89.382,156.823c-0.744,0-1.349,0.605-1.349,1.351c0,0.745,0.605,1.352,1.349,1.352h53.554
		c0.743,0,1.349-0.607,1.349-1.352c0-0.746-0.606-1.351-1.349-1.351H89.382z"/>
	<path style="fill:#FFFFFF;" d="M142.935,322.811H89.381c-0.743,0-1.349,0.605-1.349,1.349c0,0.748,0.606,1.357,1.349,1.357h53.554
		c0.744,0,1.349-0.609,1.349-1.357C144.284,323.416,143.679,322.811,142.935,322.811"/>
	<path style="fill:#FFFFFF;" d="M238.456,75.803h-26.771c-0.929,0-1.825-0.135-2.692-0.341
		c-12.354,15.519-41.326,78.459-41.817,85.309l0.002,155.271c0,5.391,6.261,9.945,13.673,9.945h88.12
		c7.537,0,13.671-4.461,13.671-9.945V160.72c-0.489-6.793-29.366-69.526-41.752-85.177C240.104,75.711,239.29,75.803,238.456,75.803
		 M274.653,206.025H174.509c-1.866,0-3.381-1.514-3.381-3.381c0-1.868,1.515-3.38,3.381-3.38h100.144c1.866,0,3.38,1.512,3.38,3.38
		C278.033,204.511,276.519,206.025,274.653,206.025 M274.653,193.671H174.509c-1.866,0-3.381-1.513-3.381-3.38
		c0-1.867,1.515-3.38,3.381-3.38h100.144c1.866,0,3.38,1.513,3.38,3.38C278.033,192.158,276.519,193.671,274.653,193.671
		 M278.033,177.94c0,1.867-1.514,3.381-3.38,3.381H174.509c-1.866,0-3.381-1.514-3.381-3.381c0-1.868,1.515-3.38,3.381-3.38h100.144
		C276.519,174.56,278.033,176.072,278.033,177.94 M263.709,158.854c-5.213,0-19.126,0.27-19.126,0.27
		c-10.427,0-11.827-5.703-12.168-10.596c-0.352-4.889-0.697-45.365-0.697-57.047c0-11.678,6.258-4.89,20.862,25.539
		C267.186,147.447,268.922,158.854,263.709,158.854"/>
	<path style="fill:#FFFFFF;" d="M211.685,42.523c-2.826,0-5.125,2.417-5.125,5.389V63.65c0,2.974,2.299,5.393,5.125,5.393h26.771
		c2.826,0,5.124-2.419,5.124-5.393V47.912c0-2.972-2.298-5.389-5.124-5.389H211.685z"/>
</g>
</svg>
