<?xml version="1.0" encoding="iso-8859-1"?>
<!-- Generator: Adobe Illustrator 25.4.1, SVG Export Plug-In . SVG Version: 6.00 Build 0)  -->
<svg version="1.1" id="Calque_1" xmlns="http://www.w3.org/2000/svg" xmlns:xlink="http://www.w3.org/1999/xlink" x="0px" y="0px"
	 viewBox="0 0 368.5 368.5" style="enable-background:new 0 0 368.5 368.5;" xml:space="preserve">
<g>
	<path style="fill:#FFFFFF;" d="M226.521,110.825c0.569,1.991,2.415,3.383,4.489,3.383c0.44,0,0.874-0.062,1.314-0.188
		c1.203-0.353,2.193-1.152,2.793-2.251c0.597-1.098,0.73-2.358,0.382-3.533c-0.695-2.409-3.335-3.906-5.8-3.186
		C227.229,105.775,225.807,108.373,226.521,110.825"/>
	<path style="fill:#FFFFFF;" d="M231.01,96.124c0.44,0,0.877-0.062,1.301-0.183c1.203-0.348,2.197-1.145,2.8-2.246
		c0.6-1.099,0.736-2.365,0.388-3.543c-0.576-1.986-2.418-3.374-4.486-3.374c-0.443,0-0.883,0.063-1.311,0.188
		c-2.467,0.721-3.895,3.317-3.178,5.783C227.093,94.736,228.939,96.124,231.01,96.124"/>
	<path style="fill:#FFFFFF;" d="M153.796,206.865c-0.857-0.216-1.712-0.442-2.564-0.677l-5.006,108.52c0,0,0,11.279,10.027,11.279
		h22.559h12.533h22.56c10.026,0,10.026-11.279,10.026-11.279l-5.013-108.69C188.044,215.693,161.839,209.32,153.796,206.865"/>
	<path style="fill:#FFFFFF;" d="M297.609,131.845c0-4.349-3.526-7.876-7.876-7.876h-99.785V71.326c0-9.8,7.975-17.776,17.774-17.776
		c9.803,0,17.778,7.976,17.778,17.776c0,3.045,2.467,5.513,5.513,5.513c3.045,0,5.514-2.468,5.514-5.513
		c0-15.882-12.923-28.803-28.805-28.803s-28.801,12.921-28.801,28.803v52.643H78.826c-4.351,0-7.877,3.527-7.877,7.876
		c0,4.349,3.526,7.876,7.877,7.876h210.907C294.083,139.721,297.609,136.194,297.609,131.845"/>
	<path style="fill:#FFFFFF;" d="M279.579,157.186c1.783-2.388,2.064-5.577,0.729-8.242c-1.335-2.661-4.061-4.346-7.039-4.346H95.292
		c-2.981,0-5.706,1.685-7.043,4.346c-1.335,2.665-1.052,5.852,0.73,8.24c10.834,14.519,25.063,26.552,41.139,34.802
		c13.82,7.089,28.552,11.31,43.917,12.606v7.41c0,5.655,4.584,10.239,10.239,10.239s10.24-4.584,10.24-10.239v-7.41
		c15.366-1.296,30.102-5.517,43.923-12.606C254.513,183.736,268.74,171.704,279.579,157.186"/>
</g>
</svg>
