<?xml version="1.0" encoding="iso-8859-1"?>
<!-- Generator: Adobe Illustrator 25.4.1, SVG Export Plug-In . SVG Version: 6.00 Build 0)  -->
<svg version="1.1" id="Calque_1" xmlns="http://www.w3.org/2000/svg" xmlns:xlink="http://www.w3.org/1999/xlink" x="0px" y="0px"
	 viewBox="0 0 368.5 368.5" style="enable-background:new 0 0 368.5 368.5;" xml:space="preserve">
<g>
	<path style="fill:#FFFFFF;" d="M281.773,223.824c0.887-1.946,0.724-4.204-0.431-6.001c-1.155-1.797-3.146-2.884-5.281-2.884H79.477
		c-3.47,0-6.279,2.812-6.279,6.279v98.491c0,3.467,2.809,6.279,6.279,6.279c45.8,0,89.387-9.868,126.039-28.534
		C241.894,278.93,268.263,253.468,281.773,223.824"/>
	<path style="fill:#FFFFFF;" d="M67.328,206.078h234.009c5.777,0,10.465-4.687,10.465-10.465c0-5.779-4.688-10.465-10.465-10.465
		H90.046c0-0.027,0.006-0.051,0.006-0.076V81.86c0-13.387,10.89-24.279,24.275-24.279c13.387,0,24.281,10.892,24.281,24.279
		c0,4.161,3.37,7.532,7.528,7.532c4.159,0,7.532-3.371,7.532-7.532c0-21.689-17.649-39.337-39.341-39.337
		c-21.693,0-39.34,17.648-39.34,39.337v103.212c0,0.025,0.006,0.049,0.008,0.076h-7.667c-5.781,0-10.465,4.686-10.465,10.465
		C56.863,201.391,61.547,206.078,67.328,206.078"/>
	<path style="fill:#FFFFFF;" d="M138.91,143.947c0.913,3.195,3.867,5.423,7.192,5.423c0.701,0,1.398-0.098,2.103-0.299
		c1.93-0.568,3.521-1.849,4.477-3.611c0.959-1.756,1.175-3.78,0.612-5.662c-1.11-3.859-5.346-6.259-9.295-5.104
		C140.044,135.855,137.757,140.02,138.91,143.947"/>
	<path style="fill:#FFFFFF;" d="M146.101,119.432c0.703,0,1.402-0.098,2.085-0.29c1.933-0.558,3.522-1.836,4.489-3.602
		c0.961-1.76,1.181-3.785,0.62-5.676c-0.919-3.186-3.879-5.41-7.19-5.41c-0.711,0-1.414,0.102-2.101,0.3
		c-3.954,1.155-6.24,5.319-5.095,9.27C139.826,117.21,142.781,119.432,146.101,119.432"/>
	<path style="fill:#FFFFFF;" d="M259.301,83.063c-1.912,0-3.593,1.227-4.181,3.052c-0.733,2.299,0.542,4.783,2.85,5.529
		l17.148,7.474c0.909,0.397,1.415,1.378,1.214,2.345c-0.205,0.971-1.058,1.666-2.051,1.666l-16.608,0.018
		c-0.08,0.006-0.159,0.01-0.239,0.01h-59.136c-3.132,0-5.777,2.012-5.777,4.391c0,2.381,2.645,4.397,5.777,4.397h48.981
		c1.157,0,2.094,0.936,2.094,2.093v2.315c0,1.151-0.937,2.093-2.094,2.093H192.26c-3.238,0-5.974,2.004-5.974,4.385
		c0,2.379,2.736,4.388,5.974,4.388h55.019c1.157,0,2.094,0.938,2.094,2.093v2.232c0,1.155-0.937,2.093-2.094,2.093h-48.472
		c-3.188,0-5.777,1.967-5.777,4.389c0,2.42,2.589,4.392,5.777,4.392h48.472c1.157,0,2.094,0.934,2.094,2.093v1.948
		c0,1.155-0.937,2.093-2.094,2.093h-27.7c-2.327,0-4.22,1.966-4.22,4.386c0,2.425,1.893,4.397,4.22,4.397h85.932
		c4.584,0,8.312-4.865,8.314-10.843v-32.524c0-4.431-2.049-8.376-5.222-10.052c-0.019-0.012-0.038-0.021-0.052-0.031l-48.092-20.681
		C260.21,83.137,259.756,83.063,259.301,83.063"/>
</g>
</svg>
