<?xml version="1.0" encoding="iso-8859-1"?>
<!-- Generator: Adobe Illustrator 25.4.1, SVG Export Plug-In . SVG Version: 6.00 Build 0)  -->
<svg version="1.1" id="Calque_1" xmlns="http://www.w3.org/2000/svg" xmlns:xlink="http://www.w3.org/1999/xlink" x="0px" y="0px"
	 viewBox="0 0 368.5 368.5" style="enable-background:new 0 0 368.5 368.5;" xml:space="preserve">
<g>
	<path style="fill:#FFFFFF;" d="M45.403,175.8c-0.122,0.106-0.385,0.613-0.385,0.959v18.328l13.245-7.647
		c0.092-0.079,0.254-0.372,0.335-0.658c-0.005-0.087-0.022-0.166-0.022-0.257v-18.332L45.403,175.8z"/>
	<path style="fill:#FFFFFF;" d="M76.82,176.727c0.123-0.106,0.385-0.611,0.385-0.958v-18.33l-13.242,7.646
		c-0.125,0.108-0.387,0.613-0.387,0.959v18.33L76.82,176.727z"/>
	<path style="fill:#FFFFFF;" d="M58.598,236.543c-0.005-0.089-0.022-0.167-0.022-0.258v-18.332l-13.173,7.606
		c-0.121,0.105-0.384,0.612-0.384,0.959v18.331l13.242-7.646C58.353,237.124,58.516,236.831,58.598,236.543"/>
	<path style="fill:#FFFFFF;" d="M76.82,226.489c0.123-0.107,0.385-0.613,0.385-0.961v-18.329l-13.243,7.647
		c-0.125,0.107-0.386,0.612-0.386,0.959v18.332L76.82,226.489z"/>
	<path style="fill:#FFFFFF;" d="M58.598,211.641c-0.005-0.089-0.022-0.167-0.022-0.259v-18.331l-13.173,7.607
		c-0.122,0.107-0.385,0.614-0.385,0.961v18.328l13.243-7.646C58.353,212.222,58.517,211.929,58.598,211.641"/>
	<path style="fill:#FFFFFF;" d="M76.82,201.586c0.124-0.107,0.385-0.613,0.385-0.962v-18.328l-13.243,7.647
		c-0.124,0.107-0.386,0.614-0.386,0.961v18.327L76.82,201.586z"/>
	<path style="fill:#FFFFFF;" d="M101.44,143.444c-0.122,0.106-0.384,0.613-0.384,0.959v18.332l13.246-7.648
		c0.089-0.079,0.252-0.372,0.333-0.658c-0.005-0.088-0.022-0.165-0.022-0.256v-18.334L101.44,143.444z"/>
	<path style="fill:#FFFFFF;" d="M119.613,133.695v18.326l13.248-7.648c0.121-0.107,0.383-0.613,0.383-0.96v-18.328l-13.245,7.645
		C119.877,132.837,119.614,133.346,119.613,133.695"/>
	<path style="fill:#FFFFFF;" d="M82.412,155.169v18.33l13.246-7.647c0.123-0.107,0.385-0.615,0.385-0.96v-18.328l-13.244,7.645
		C82.674,154.317,82.412,154.821,82.412,155.169"/>
	<path style="fill:#FFFFFF;" d="M114.636,204.186c-0.004-0.088-0.021-0.165-0.021-0.255v-18.33l-13.175,7.605
		c-0.121,0.106-0.384,0.613-0.384,0.959v18.331l13.245-7.646C114.39,204.772,114.556,204.476,114.636,204.186"/>
	<path style="fill:#FFFFFF;" d="M119.615,183.452v18.326l13.244-7.645c0.124-0.108,0.385-0.613,0.385-0.958v-18.33l-13.245,7.647
		C119.876,182.598,119.615,183.104,119.615,183.452"/>
	<path style="fill:#FFFFFF;" d="M96.042,214.651v-18.326l-13.244,7.644c-0.124,0.108-0.386,0.613-0.386,0.959v18.331l13.245-7.646
		C95.779,215.506,96.042,215,96.042,214.651"/>
	<path style="fill:#FFFFFF;" d="M101.44,168.306c-0.123,0.107-0.384,0.612-0.384,0.959v18.33l13.245-7.649
		c0.091-0.079,0.255-0.374,0.335-0.662c-0.004-0.089-0.021-0.171-0.021-0.261v-18.322L101.44,168.306z"/>
	<path style="fill:#FFFFFF;" d="M119.615,158.546v18.334l13.244-7.647c0.123-0.107,0.385-0.615,0.385-0.962v-18.327l-13.245,7.646
		C119.877,157.696,119.614,158.2,119.615,158.546"/>
	<path style="fill:#FFFFFF;" d="M82.413,180.028v18.329l13.245-7.648c0.124-0.108,0.385-0.614,0.385-0.96v-18.326l-13.244,7.646
		C82.674,179.176,82.413,179.681,82.413,180.028"/>
	<polygon style="fill:#FFFFFF;" points="163.795,146.423 183.449,147.8 183.45,127.862 163.795,126.487 	"/>
	<polygon style="fill:#FFFFFF;" points="188.451,128.214 188.45,148.15 207.836,149.509 207.834,129.571 	"/>
	<polygon style="fill:#FFFFFF;" points="139.024,124.751 139.024,144.687 158.776,146.071 158.776,126.135 	"/>
	<polygon style="fill:#FFFFFF;" points="183.45,177.841 163.796,176.464 163.796,196.402 183.451,197.778 	"/>
	<polygon style="fill:#FFFFFF;" points="207.833,179.55 188.449,178.193 188.45,198.128 207.835,199.487 	"/>
	<polygon style="fill:#FFFFFF;" points="158.776,196.05 158.776,176.113 139.024,174.73 139.025,194.666 	"/>
	<polygon style="fill:#FFFFFF;" points="163.794,171.39 183.449,172.767 183.449,152.831 163.794,151.454 	"/>
	<polygon style="fill:#FFFFFF;" points="188.45,153.181 188.45,173.117 207.834,174.476 207.834,154.538 	"/>
	<polygon style="fill:#FFFFFF;" points="139.024,149.718 139.024,169.654 158.775,171.038 158.775,151.103 	"/>
	<path style="fill:#FFFFFF;" d="M81.699,145.856c0,0.299,0.023,0.543,0.056,0.734l47.882-27.646
		c1.557-0.899,3.369-4.044,3.368-6.749V48.103c0-0.298-0.024-0.542-0.056-0.733L85.068,75.017c-1.591,0.918-3.369,3.998-3.369,6.747
		V145.856z"/>
	<path style="fill:#FFFFFF;" d="M140.458,49.571v64.371c0.001,1.947,1.624,3.707,3.546,3.842l63.862,4.474
		c1.717,0.116,2.934-1.03,3.037-2.667c-0.001-0.075-0.01-0.148-0.01-0.222l0.001-64.372c0-0.069,0.008-0.135,0.009-0.202
		c-0.109-1.864-1.673-3.507-3.528-3.639l-63.859-4.474c-0.079-0.006-0.157-0.007-0.234-0.007
		C141.645,46.675,140.458,47.893,140.458,49.571"/>
	<path style="fill:#FFFFFF;" d="M133.005,203.042c0-0.298-0.023-0.541-0.056-0.733l-47.881,27.646
		c-1.591,0.918-3.37,3.999-3.37,6.749v64.092c0,0.297,0.024,0.539,0.055,0.73l47.883-27.642c1.558-0.901,3.369-4.046,3.368-6.751
		L133.005,203.042z"/>
	<path style="fill:#FFFFFF;" d="M207.869,277.877c0.873,0.055,1.669-0.226,2.237-0.798c0.481-0.483,0.752-1.145,0.799-1.875
		c-0.001-0.073-0.011-0.144-0.011-0.219l-0.001-64.369c0-0.071,0.009-0.139,0.011-0.211c-0.113-1.859-1.673-3.499-3.525-3.629
		l-63.863-4.475c-0.077-0.005-0.154-0.008-0.231-0.008c-1.638,0-2.826,1.218-2.826,2.897v64.372c0,1.948,1.624,3.708,3.547,3.842
		L207.869,277.877z"/>
	<path style="fill:#FFFFFF;" d="M217.894,54.997l-0.001,64.371c0.001,1.947,1.624,3.706,3.546,3.841l63.864,4.475
		c1.769,0.116,3.057-1.131,3.057-2.888l0.001-64.372c-0.001-1.947-1.626-3.706-3.548-3.842l-63.862-4.474
		c-0.079-0.006-0.158-0.007-0.236-0.007C219.081,52.101,217.894,53.318,217.894,54.997"/>
	<polygon style="fill:#FFFFFF;" points="237.604,151.593 257.259,152.971 257.259,133.034 237.604,131.656 	"/>
	<polygon style="fill:#FFFFFF;" points="262.259,133.384 262.259,153.32 282.011,154.704 282.011,134.769 	"/>
	<polygon style="fill:#FFFFFF;" points="212.833,129.921 212.835,149.858 232.585,151.241 232.585,131.305 	"/>
	<polygon style="fill:#FFFFFF;" points="257.259,183.013 237.604,181.636 237.604,201.574 257.259,202.95 	"/>
	<polygon style="fill:#FFFFFF;" points="282.011,184.746 262.259,183.364 262.259,203.301 282.011,204.683 	"/>
	<polygon style="fill:#FFFFFF;" points="232.585,181.282 212.833,179.899 212.835,199.838 232.585,201.219 	"/>
	<polygon style="fill:#FFFFFF;" points="237.604,176.559 257.259,177.939 257.258,158.003 237.603,156.626 	"/>
	<polygon style="fill:#FFFFFF;" points="282.011,179.673 282.011,159.736 262.258,158.353 262.259,178.289 	"/>
	<polygon style="fill:#FFFFFF;" points="232.584,156.272 212.833,154.889 212.833,174.825 232.585,176.208 	"/>
	<polygon style="fill:#FFFFFF;" points="287.288,155.074 307.04,156.458 307.04,136.521 287.288,135.137 	"/>
	<polygon style="fill:#FFFFFF;" points="307.039,186.499 287.286,185.116 287.288,205.055 307.039,206.436 	"/>
	<polygon style="fill:#FFFFFF;" points="287.287,180.041 307.039,181.427 307.039,161.489 287.288,160.106 	"/>
	<path style="fill:#FFFFFF;" d="M285.305,283.303c1.756,0.108,3.056-1.132,3.056-2.891l-0.001-64.371
		c0-1.946-1.623-3.705-3.545-3.84l-63.865-4.474c-0.079-0.005-0.158-0.008-0.235-0.008c-1.635,0-2.822,1.219-2.822,2.899
		l0.001,64.368c0,1.948,1.624,3.707,3.546,3.841L285.305,283.303z"/>
	<path style="fill:#FFFFFF;" d="M46.329,167.041l24.956-14.409c1.56-0.9,3.369-4.043,3.367-6.746V81.792
		c0-0.297-0.023-0.54-0.054-0.732L46.329,97.381V167.041z"/>
	<polygon style="fill:#FFFFFF;" points="312.057,206.788 323.482,207.589 323.482,187.652 312.057,186.851 	"/>
	<path style="fill:#FFFFFF;" d="M298.244,213.148c-1.637,0-2.824,1.219-2.824,2.897l0.001,64.372
		c-0.001,1.948,1.622,3.706,3.544,3.84l23.517,1.65v-71.068l-24.008-1.683C298.398,213.151,298.32,213.148,298.244,213.148"/>
	<polygon style="fill:#FFFFFF;" points="312.056,181.777 323.482,182.577 323.482,162.641 312.057,161.842 	"/>
	<polygon style="fill:#FFFFFF;" points="312.058,156.809 323.482,157.609 323.482,137.674 312.058,136.874 	"/>
	<path style="fill:#FFFFFF;" d="M295.419,60.429v64.369c0,1.947,1.625,3.709,3.548,3.845l23.514,1.645V59.222l-24.005-1.681
		c-0.081-0.005-0.16-0.009-0.238-0.009C296.605,57.532,295.419,58.751,295.419,60.429"/>
	<path style="fill:#FFFFFF;" d="M74.652,300.824l0.004-64.093c0-0.299-0.024-0.542-0.056-0.734l-28.27,16.321v69.507l25.316-14.501
		C73.122,306.183,74.655,303.362,74.652,300.824"/>
</g>
</svg>
