<?xml version="1.0" encoding="iso-8859-1"?>
<!-- Generator: Adobe Illustrator 25.4.1, SVG Export Plug-In . SVG Version: 6.00 Build 0)  -->
<svg version="1.1" id="Calque_1" xmlns="http://www.w3.org/2000/svg" xmlns:xlink="http://www.w3.org/1999/xlink" x="0px" y="0px"
	 viewBox="0 0 368.504 368.504" style="enable-background:new 0 0 368.504 368.504;" xml:space="preserve">
<g>
	<path style="fill:#FFFFFF;" d="M255.87,128.414l-23.085-45.563c-1.966,4.189-1.293,14.324,4.736,26.222
		C243.27,120.421,251.058,127.505,255.87,128.414"/>
	<path style="fill:#FFFFFF;" d="M288.593,241.641c-1.752-3.422-5.233-5.547-9.083-5.547c-1.619,0-3.177,0.377-4.632,1.122
		l-16.343,8.369c-1.372,0.704-3.045,0.424-4.115-0.686l-34.451-35.754c-1.89-1.939-4.555-3.061-7.295-3.061
		c-1.185,0-2.349,0.205-3.461,0.608l-63.399,22.767c-1.368,0.492-2.9,0.086-3.846-1.022l-40.114-47.01
		c-1.952-2.314-4.793-3.633-7.805-3.633c-2.398,0-4.731,0.854-6.568,2.404c-2.08,1.756-3.351,4.216-3.581,6.927
		c-0.229,2.712,0.611,5.352,2.366,7.431l46.258,54.291c1.954,2.315,4.79,3.635,7.792,3.635c0.44,0,0.876-0.038,1.31-0.095
		l18.843-6.508l47.392-17.021c0.386-0.139,0.786-0.206,1.183-0.206c0.934,0,1.849,0.374,2.52,1.071l2.988,3.101
		c1.726,0.884,3.314,2.042,4.665,3.472l30.652,32.175c1.345,0.628,2.824,0.978,4.332,0.978c1.605,0,3.207-0.386,4.634-1.116
		l25.334-12.976C289.17,252.795,291.155,246.642,288.593,241.641"/>
	<path style="fill:#FFFFFF;" d="M73.533,165.167c11.169,0,20.257-9.087,20.257-20.256c0-11.17-9.088-20.258-20.257-20.258
		c-11.17,0-20.257,9.088-20.257,20.258C53.276,156.08,62.363,165.167,73.533,165.167"/>
	<path style="fill:#FFFFFF;" d="M268.534,298.212l-54.396-57.1c-1.93-2.044-4.631-3.209-7.422-3.209
		c-1.151,0-2.287,0.194-3.377,0.577l-66.357,22.918c-1.355,0.464-2.854,0.062-3.79-1.02l-58.925-68.144
		c-1.936-2.239-4.747-3.523-7.711-3.523c-2.444,0-4.811,0.882-6.664,2.484c-4.248,3.675-4.714,10.123-1.039,14.373l61.331,70.923
		c0.882,1.02,1.1,2.456,0.559,3.692l-9.583,21.914c-0.948,2.168-0.996,4.574-0.133,6.778c0.862,2.203,2.53,3.939,4.697,4.886
		c1.131,0.494,2.322,0.745,3.542,0.745c3.522,0,6.71-2.085,8.123-5.313l11.169-25.538c0.392-0.895,1.141-1.587,2.064-1.906
		l61.095-21.101c0.374-0.129,0.76-0.192,1.142-0.192c0.941,0,1.861,0.38,2.533,1.084l48.307,50.647
		c1.958,2.076,4.59,3.211,7.427,3.211c2.611,0,5.093-0.987,6.991-2.779C272.202,308.762,272.389,302.299,268.534,298.212"/>
	<path style="fill:#FFFFFF;" d="M311.384,72.647c-6.107-12.053-18.302-19.541-31.824-19.541c-5.618,0-11.027,1.298-16.078,3.857
		l-28.619,14.5l32.217,63.587l28.618-14.5C313.23,111.669,320.266,90.178,311.384,72.647"/>
	<path style="fill:#FFFFFF;" d="M224.713,177.864c0.974,0.559,2.036,0.826,3.083,0.826c2.15,0,4.239-1.119,5.385-3.115
		l12.363-21.529c1.705-2.971,0.679-6.764-2.291-8.469c-2.971-1.705-6.762-0.68-8.469,2.289l-12.361,21.531
		C220.716,172.368,221.742,176.159,224.713,177.864"/>
	<path style="fill:#FFFFFF;" d="M179.659,84.48l24.658,2.887c0.245,0.029,0.489,0.043,0.73,0.043c3.103,0,5.783-2.325,6.152-5.483
		c0.398-3.402-2.036-6.484-5.441-6.883l-24.655-2.886c-3.403-0.399-6.485,2.037-6.883,5.439
		C173.821,80.999,176.257,84.081,179.659,84.48"/>
	<path style="fill:#FFFFFF;" d="M186.96,127.068c-3.059,1.541-4.292,5.271-2.75,8.33c1.091,2.166,3.276,3.416,5.544,3.416
		c0.939,0,1.891-0.215,2.787-0.666l22.172-11.164c3.061-1.541,4.292-5.273,2.75-8.33c-1.54-3.061-5.271-4.291-8.33-2.75
		L186.96,127.068z"/>
</g>
</svg>
