<?xml version="1.0" encoding="iso-8859-1"?>
<!-- Generator: Adobe Illustrator 25.4.1, SVG Export Plug-In . SVG Version: 6.00 Build 0)  -->
<svg version="1.1" id="Calque_1" xmlns="http://www.w3.org/2000/svg" xmlns:xlink="http://www.w3.org/1999/xlink" x="0px" y="0px"
	 viewBox="0 0 368.5 368.5" style="enable-background:new 0 0 368.5 368.5;" xml:space="preserve">
<g>
	<path style="fill:#FFFFFF;" d="M137.95,52.487l19.509,13.503c0.915,0.63,1.998,0.969,3.111,0.969h37.477
		c1.113,0,2.198-0.339,3.114-0.969l19.51-13.503c1.964-1.358,2.821-3.84,2.105-6.128c-0.712-2.283-2.827-3.836-5.218-3.836h-76.494
		c-2.396,0-4.507,1.553-5.226,3.836C135.13,48.647,135.98,51.129,137.95,52.487"/>
	<path style="fill:#FFFFFF;" d="M157.511,144.773h3.752V124.99h-3.752c-5.464,0-9.889,4.428-9.889,9.893
		C147.622,140.345,152.047,144.773,157.511,144.773"/>
	<path style="fill:#FFFFFF;" d="M171.768,144.773h29.338c5.464,0,9.895-4.429,9.895-9.89c0-5.465-4.431-9.892-9.895-9.892h-29.338
		V144.773z"/>
	<path style="fill:#FFFFFF;" d="M171.768,119.401h29.338c5.464,0,9.895-4.433,9.895-9.896c0-5.463-4.431-9.892-9.895-9.892h-29.338
		V119.401z"/>
	<path style="fill:#FFFFFF;" d="M157.511,119.402h3.752V99.614h-3.752c-5.464,0-9.889,4.428-9.889,9.892
		C147.622,114.969,152.047,119.402,157.511,119.402"/>
	<path style="fill:#FFFFFF;" d="M157.511,94.024h3.752V74.24h-3.752c-5.464,0-9.889,4.429-9.889,9.89
		C147.622,89.594,152.047,94.024,157.511,94.024"/>
	<path style="fill:#FFFFFF;" d="M211.001,84.129c0-5.46-4.431-9.889-9.895-9.889h-29.338v19.784h29.338
		C206.57,94.024,211.001,89.594,211.001,84.129"/>
	<path style="fill:#FFFFFF;" d="M159.894,323.42c0.788,1.199,2.139,1.995,3.677,1.995h24.532c-0.652-1.46-1.021-3.071-1.021-4.769
		V293.54c0-6.482,5.272-11.753,11.752-11.753c0.208,0,0.41,0.021,0.616,0.033v-124.3c0-2.426-1.977-4.401-4.404-4.401h-31.475
		c-2.427,0-4.402,1.975-4.402,4.401v133.287c0.68,1.486,1.069,3.131,1.069,4.869v24.97
		C160.238,321.603,160.111,322.528,159.894,323.42"/>
	<path style="fill:#FFFFFF;" d="M148.486,290.334c-2.945,0-5.342,2.396-5.342,5.342v24.969c0,2.946,2.397,5.342,5.342,5.342
		c2.945,0,5.342-2.396,5.342-5.342v-24.969C153.828,292.73,151.431,290.334,148.486,290.334"/>
	<path style="fill:#FFFFFF;" d="M124.23,325.988c2.946,0,5.342-2.397,5.342-5.342V299.95c0-2.945-2.396-5.342-5.342-5.342
		c-2.945,0-5.342,2.397-5.342,5.342v20.696C118.888,323.591,121.285,325.988,124.23,325.988"/>
	<path style="fill:#FFFFFF;" d="M72.763,325.974c2.945,0,5.342-2.397,5.342-5.342v-14.289c0-2.945-2.397-5.342-5.342-5.342
		c-2.945,0-5.342,2.397-5.342,5.342v14.289C67.421,323.577,69.818,325.974,72.763,325.974"/>
	<path style="fill:#FFFFFF;" d="M97.654,325.974c2.946,0,5.342-2.397,5.342-5.342V302.07c0-2.946-2.396-5.342-5.342-5.342
		c-2.945,0-5.342,2.396-5.342,5.342v18.562C92.312,323.577,94.709,325.974,97.654,325.974"/>
	<path style="fill:#FFFFFF;" d="M271.48,325.988c2.947,0,5.346-2.397,5.346-5.342v-24.969c0-2.946-2.399-5.342-5.346-5.342
		c-2.943,0-5.338,2.396-5.338,5.342v24.969C266.142,323.591,268.537,325.988,271.48,325.988"/>
	<path style="fill:#FFFFFF;" d="M295.736,325.988c2.947,0,5.346-2.397,5.346-5.342V299.95c0-2.945-2.399-5.342-5.346-5.342
		c-2.943,0-5.338,2.397-5.338,5.342v20.696C290.398,323.591,292.793,325.988,295.736,325.988"/>
	<path style="fill:#FFFFFF;" d="M222.334,288.197c-2.943,0-5.338,2.396-5.338,5.342v27.106c0,2.946,2.395,5.342,5.338,5.342
		c2.947,0,5.346-2.396,5.346-5.342v-27.106C227.68,290.593,225.281,288.197,222.334,288.197"/>
	<path style="fill:#FFFFFF;" d="M246.59,325.988c2.947,0,5.346-2.397,5.346-5.342V293.54c0-2.946-2.399-5.342-5.346-5.342
		c-2.943,0-5.338,2.396-5.338,5.342v27.106C241.252,323.591,243.647,325.988,246.59,325.988"/>
	<path style="fill:#FFFFFF;" d="M198.834,288.197c-2.945,0-5.342,2.396-5.342,5.342v27.106c0,2.946,2.397,5.342,5.342,5.342
		c2.945,0,5.342-2.396,5.342-5.342v-27.106C204.176,290.593,201.779,288.197,198.834,288.197"/>
</g>
</svg>
