<?xml version="1.0" encoding="iso-8859-1"?>
<!-- Generator: Adobe Illustrator 25.4.1, SVG Export Plug-In . SVG Version: 6.00 Build 0)  -->
<svg version="1.1" id="Calque_1" xmlns="http://www.w3.org/2000/svg" xmlns:xlink="http://www.w3.org/1999/xlink" x="0px" y="0px"
	 viewBox="0 0 368.5 368.5" style="enable-background:new 0 0 368.5 368.5;" xml:space="preserve">
<g>
	<path style="fill:#FFFFFF;" d="M300.32,243.12c-1.651,0-3.259-0.189-4.808-0.533c-0.276,13.841-5.781,26.821-15.598,36.651
		c-10.087,10.073-23.484,15.622-37.725,15.626c-14.149-0.004-27.484-5.492-37.551-15.453c-1.115-1.103-1.359-2.814-0.598-4.187
		c0.762-1.372,2.342-2.073,3.869-1.707c2.726,0.648,5.513,0.976,8.285,0.976c18.354-0.004,33.52-13.899,35.551-31.722
		c-1.262,0.225-2.559,0.349-3.884,0.349c-1.578,0-3.116-0.17-4.6-0.485c-1.936,13.209-13.34,23.404-27.061,23.428
		c-15.069-0.026-27.339-12.298-27.365-27.353v-134.46c-1.798,0.041-3.608,0.063-5.432,0.063c-1.247,0-2.486-0.012-3.721-0.032
		v134.423c-0.025,15.061-12.296,27.333-27.352,27.359c-13.735-0.024-25.141-10.221-27.075-23.428
		c-1.484,0.316-3.021,0.485-4.598,0.485c-1.326,0-2.622-0.124-3.884-0.349c2.03,17.822,17.196,31.718,35.551,31.722
		c2.771,0,5.559-0.328,8.284-0.976c1.528-0.367,3.108,0.335,3.869,1.707c0.762,1.373,0.517,3.084-0.598,4.187
		c-10.067,9.961-23.402,15.449-37.548,15.453c-14.243-0.004-27.639-5.553-37.724-15.623c-9.822-9.834-15.326-22.814-15.602-36.654
		c-1.549,0.344-3.157,0.533-4.808,0.533c-1.231,0-2.437-0.107-3.614-0.301c0.704,33.458,28.123,60.469,61.747,60.475
		c23.124-0.004,44.132-12.767,54.824-33.308c0.603-1.157,1.799-1.884,3.105-1.884c1.305,0,2.502,0.727,3.104,1.884
		c10.692,20.541,31.7,33.304,54.825,33.308c33.621-0.006,61.041-27.017,61.746-60.475C302.758,243.014,301.551,243.12,300.32,243.12
		"/>
	<path style="fill:#FFFFFF;" d="M300.32,175.288c-8.317,0-15.084,6.767-15.084,15.084v30.662c0,8.318,6.767,15.086,15.084,15.086
		c8.317,0,15.084-6.768,15.084-15.086v-30.662C315.404,182.056,308.637,175.288,300.32,175.288"/>
	<path style="fill:#FFFFFF;" d="M68.197,236.12c8.317,0,15.084-6.768,15.084-15.086v-30.662c0-8.317-6.767-15.084-15.084-15.084
		s-15.084,6.767-15.084,15.084v30.662C53.113,229.353,59.88,236.12,68.197,236.12"/>
	<path style="fill:#FFFFFF;" d="M183.403,97.314c46.178,0,85.959-14.363,91.094-32.098H92.309
		C97.445,82.951,137.225,97.314,183.403,97.314"/>
	<path style="fill:#FFFFFF;" d="M247.861,236.12c8.317,0,15.083-6.768,15.083-15.086v-30.662c0-8.317-6.766-15.084-15.083-15.084
		c-8.318,0-15.085,6.767-15.085,15.084v30.662C232.776,229.353,239.543,236.12,247.861,236.12"/>
	<path style="fill:#FFFFFF;" d="M120.657,236.12c8.317,0,15.084-6.768,15.084-15.086v-30.662c0-8.317-6.767-15.084-15.084-15.084
		c-8.317,0-15.084,6.767-15.084,15.084v30.662C105.573,229.353,112.34,236.12,120.657,236.12"/>
</g>
</svg>
