<?xml version="1.0" encoding="iso-8859-1"?>
<!-- Generator: Adobe Illustrator 25.4.1, SVG Export Plug-In . SVG Version: 6.00 Build 0)  -->
<svg version="1.1" id="Calque_1" xmlns="http://www.w3.org/2000/svg" xmlns:xlink="http://www.w3.org/1999/xlink" x="0px" y="0px"
	 viewBox="0 0 368.5 368.5" style="enable-background:new 0 0 368.5 368.5;" xml:space="preserve">
<g>
	<path style="fill:#FFFFFF;" d="M92.363,297.272c3.934,3.916,9.084,5.885,14.221,5.885c5.167,0,10.308-1.969,14.227-5.885
		L274.464,143.61c7.859-7.851,7.859-20.585-0.021-28.447l-43.901-43.92c-3.914-3.916-9.083-5.889-14.224-5.889
		c-5.146,0-10.29,1.973-14.228,5.889L48.458,224.894c-7.879,7.857-7.879,20.594-0.02,28.454L92.363,297.272z M113.917,287.289
		c-3.41,3.412-8.953,3.441-12.389,0c-3.414-3.426-3.414-8.95,0.026-12.377c3.41-3.401,8.953-3.401,12.363,0
		C117.332,278.339,117.332,283.884,113.917,287.289 M184.303,126.305l28.161-28.168c1.926-1.924,5.012-1.924,6.917-0.021
		l28.187,28.189c1.905,1.917,1.905,5.016,0,6.918l-28.167,28.18c-1.925,1.905-5.011,1.905-6.937,0l-28.188-28.18
		C182.394,131.321,182.394,128.222,184.303,126.305 M140.047,170.568l28.169-28.175c1.903-1.904,5.008-1.904,6.911,0l28.165,28.175
		c1.93,1.919,1.949,4.999,0.026,6.922l-28.191,28.173c-1.903,1.923-5.008,1.923-6.911,0.02l-28.193-28.193
		C138.121,175.59,138.121,172.487,140.047,170.568 M95.775,214.83l28.187-28.187c1.909-1.906,4.991-1.906,6.893,0l28.191,28.187
		c1.923,1.909,1.923,5.008,0.019,6.912l-28.186,28.181c-1.903,1.913-5.008,1.926-6.941,0l-28.187-28.181
		C93.85,219.838,93.872,216.739,95.775,214.83"/>
	<path style="fill:#FFFFFF;" d="M314.033,214.325c17.223-8.965,10.81-25.526,10.81-25.526l-7.002-15.76
		c-2.977,8.931-10.853,14.829-10.853,14.829l-119.756,82.169L314.033,214.325z"/>
	<path style="fill:#FFFFFF;" d="M297.529,176.365c14.007-11.726,5.251-26.087,5.251-26.087l-8.577-12.779
		c-2.798,10.855-8.753,15.932-8.753,15.932l-98.567,98.568L297.529,176.365z"/>
</g>
</svg>
