<?xml version="1.0" encoding="iso-8859-1"?>
<!-- Generator: Adobe Illustrator 25.4.1, SVG Export Plug-In . SVG Version: 6.00 Build 0)  -->
<svg version="1.1" id="Calque_1" xmlns="http://www.w3.org/2000/svg" xmlns:xlink="http://www.w3.org/1999/xlink" x="0px" y="0px"
	 viewBox="0 0 368.5 368.5" style="enable-background:new 0 0 368.5 368.5;" xml:space="preserve">
<g>
	<path style="fill:#FFFFFF;" d="M322.806,274.582l-81.526-88.337c-0.5,2.863-1.869,5.586-4.13,7.718l-12.465,11.744
		c-2.099,1.976-4.733,3.217-7.562,3.62c4.842,4.855,11.208,11.243,19.327,19.396c2.445,2.205,5.599,3.146,9.594,4.34
		c4.812,1.436,10.802,3.226,17.141,8.247c14.676,11.986,15.927,13.4,18.421,16.219c0.678,0.767,1.454,1.643,2.676,2.916
		c15.808,16.452,21.002,27.794,22.097,30.503c2.169,2.088,5.002,3.232,8.036,3.232h0.001c2.993,0,5.834-1.138,8.002-3.205
		c2.241-2.137,3.516-5.021,3.59-8.118C326.081,279.76,324.944,276.82,322.806,274.582"/>
	<path style="fill:#FFFFFF;" d="M206.114,194.917c-0.046,2.359,0.831,4.614,2.469,6.355c1.707,1.81,4.093,2.849,6.548,2.849
		c2.203,0,4.29-0.823,5.877-2.317l12.464-11.744c3.483-3.282,3.578-8.861,0.211-12.435c-1.707-1.81-4.093-2.849-6.548-2.849
		c-2.204,0-4.291,0.823-5.877,2.317l-12.467,11.745C207.111,190.42,206.16,192.579,206.114,194.917"/>
	<path style="fill:#FFFFFF;" d="M212.571,156.659c0.531,0.604,1.272,0.913,2.017,0.913c0.628,0,1.258-0.218,1.767-0.665
		c1.114-0.976,1.224-2.671,0.249-3.785l-2.358-2.688c-0.979-1.114-2.671-1.228-3.784-0.248c-1.114,0.976-1.225,2.671-0.249,3.785
		L212.571,156.659z"/>
	<path style="fill:#FFFFFF;" d="M202.799,144.133c0.627,0,1.258-0.218,1.767-0.665c1.113-0.976,1.224-2.671,0.248-3.785
		l-2.357-2.688c-0.979-1.114-2.672-1.228-3.784-0.248c-1.114,0.976-1.225,2.671-0.249,3.785l2.358,2.688
		C201.312,143.824,202.054,144.133,202.799,144.133"/>
	<path style="fill:#FFFFFF;" d="M226.376,171.01c0.628,0,1.258-0.218,1.767-0.665c0.272-0.239,0.482-0.522,0.634-0.828
		c0.466-0.944,0.351-2.116-0.385-2.957l-2.358-2.688c-0.979-1.114-2.671-1.226-3.784-0.248c-1.114,0.975-1.225,2.671-0.249,3.784
		l2.064,2.355l0.294,0.334C224.89,170.702,225.631,171.01,226.376,171.01"/>
	<path style="fill:#FFFFFF;" d="M168.997,160.164c0.524,0.534,1.218,0.801,1.911,0.801c0.679,0,1.359-0.256,1.881-0.77
		c0.625-0.614,0.839-1.456,0.73-2.262c-1.663,0.763-3.439,1.259-5.267,1.475L168.997,160.164z"/>
	<path style="fill:#FFFFFF;" d="M195.393,179.333c-1.04-1.053-2.736-1.068-3.793-0.028c-1.054,1.039-1.067,2.736-0.028,3.792
		l2.508,2.547c0.526,0.532,1.218,0.799,1.911,0.799c0.679,0,1.359-0.256,1.882-0.771c1.054-1.039,1.067-2.736,0.029-3.792
		L195.393,179.333z"/>
	<path style="fill:#FFFFFF;" d="M183.449,173.704c0.679,0,1.359-0.257,1.881-0.77c1.055-1.039,1.069-2.737,0.03-3.792l-2.509-2.548
		c-1.038-1.056-2.735-1.067-3.792-0.032c-1.055,1.039-1.069,2.737-0.029,3.792l2.508,2.549
		C182.063,173.437,182.756,173.704,183.449,173.704"/>
	<path style="fill:#FFFFFF;" d="M98.107,222.699c2.062-5.05,8.45-19.294,20.507-34.665c11.412-14.551,27.135-28.627,33.962-34.496
		c-12.897-12.954-21.843-22.149-27.924-28.503c-6.753,6.586-18.646,16.864-33.46,24.117c-11.346,5.557-29.49,11.136-46.053,15.604
		c1.056,6.545,4.954,23.904,18.002,38.895C76.525,219.031,92.74,222.095,98.107,222.699"/>
	<path style="fill:#FFFFFF;" d="M84.154,138.162c-9.443,7.028-26.162,15.047-41.608,21.712
		c16.679-4.466,35.128-10.073,46.288-15.539c14.091-6.901,25.612-16.883,32.106-23.203c-0.886-0.936-1.691-1.793-2.406-2.556
		c-1.699-1.002-3.245-2.278-4.564-3.804c-0.62-0.717-1.159-1.482-1.655-2.271C107.406,118.063,97.874,127.955,84.154,138.162"/>
	<path style="fill:#FFFFFF;" d="M157.692,101.205l-17.852,15.443c-3.217,2.781-7.297,4.341-11.534,4.448
		c6.094,6.375,15.136,15.672,28.268,28.861c0.16,0.077,0.312,0.169,0.451,0.279c0.01,0.007,0.152,0.101,0.161,0.107
		c0.132,0.09,0.256,0.192,0.369,0.303c2.311,2.28,5.377,3.535,8.633,3.535c2.94,0,5.787-1.061,8.015-2.99l17.069-14.762
		c5.126-4.431,5.69-12.208,1.256-17.335c-0.12-0.14-0.225-0.288-0.315-0.444l-28.257-29.711
		C163.537,93.714,161.327,98.061,157.692,101.205"/>
	<path style="fill:#FFFFFF;" d="M118.026,111.264c2.467,2.853,6.048,4.49,9.823,4.49c3.112,0,6.125-1.124,8.483-3.163l17.852-15.443
		c2.624-2.268,4.208-5.422,4.458-8.879c0.251-3.457-0.861-6.805-3.13-9.429c-2.467-2.854-6.046-4.49-9.821-4.49
		c-3.112,0-6.126,1.124-8.487,3.165l-17.853,15.443c-2.623,2.266-4.204,5.419-4.455,8.877
		C114.647,105.294,115.758,108.642,118.026,111.264 M122.911,95.507l16.505-14.277c3.579-3.1,8.994-2.706,12.091,0.873
		c3.097,3.582,2.705,8.998-0.877,12.095l-16.503,14.276c-3.581,3.094-8.993,2.703-12.092-0.879
		C118.938,104.012,119.33,98.602,122.911,95.507"/>
</g>
</svg>
