<?xml version="1.0" encoding="iso-8859-1"?>
<!-- Generator: Adobe Illustrator 25.4.1, SVG Export Plug-In . SVG Version: 6.00 Build 0)  -->
<svg version="1.1" id="Calque_1" xmlns="http://www.w3.org/2000/svg" xmlns:xlink="http://www.w3.org/1999/xlink" x="0px" y="0px"
	 viewBox="0 0 368.5 368.5" style="enable-background:new 0 0 368.5 368.5;" xml:space="preserve">
<g>
	<path style="fill:#FFFFFF;" d="M126.71,255.189c16.64,17.422,40.056,28.09,65.544,28.09c4.431,0,8.876-0.33,13.228-0.967
		l26.266,26.266c-6.598-9.036-10.505-20.155-10.505-32.174c0-30.157,24.533-54.69,54.687-54.69c11.882,0,22.882,3.821,31.861,10.282
		l-25.959-25.957c0.646-4.375,0.975-8.854,0.975-13.313c0-26.342-11.31-50.09-29.324-66.65c-0.063-0.077-0.115-0.157-0.185-0.227
		l-80.41-80.412c-0.657-0.656-1.547-1.025-2.476-1.025H98.709c-0.017,0-0.034,0.003-0.052,0.003H48.49c-1.934,0-3.5,1.569-3.5,3.5
		v102.532c-0.066,0.267-0.109,0.543-0.109,0.826v20.769c0,0.93,0.369,1.819,1.025,2.475l80.193,80.193
		C126.284,254.895,126.492,255.051,126.71,255.189 M97.263,51.414l61.286,61.288c0.028,0.058,0.055,0.115,0.085,0.172l6.869,25.306
		L78.735,51.414H97.263z M107.5,205.443l-55.51-55.51v-36.936l85.372,85.375L107.5,205.443z M192.254,276.279
		c-23.78,0-45.612-10.055-60.995-26.446c-0.019-0.021-0.032-0.046-0.052-0.068c-1.241-1.326-2.431-2.693-3.578-4.09
		c-0.116-0.142-0.236-0.283-0.351-0.426c-0.512-0.632-1.011-1.271-1.503-1.916c-0.131-0.171-0.261-0.343-0.39-0.515
		c-0.496-0.66-0.984-1.324-1.459-1.998c-0.076-0.108-0.149-0.217-0.224-0.324c-1.539-2.202-2.965-4.471-4.28-6.801
		c-0.073-0.129-0.148-0.256-0.22-0.387c-0.371-0.664-0.727-1.338-1.079-2.012c-0.145-0.279-0.29-0.558-0.432-0.838
		c-0.322-0.634-0.637-1.273-0.943-1.916c-0.157-0.332-0.308-0.668-0.461-1.002c-0.288-0.625-0.575-1.248-0.846-1.88
		c-0.176-0.413-0.34-0.83-0.51-1.247c-0.387-0.941-0.755-1.888-1.106-2.843c-0.212-0.578-0.425-1.155-0.624-1.739
		c-0.156-0.455-0.304-0.912-0.452-1.371c-0.208-0.644-0.409-1.291-0.602-1.943c-0.12-0.404-0.239-0.809-0.353-1.213
		c-0.239-0.855-0.464-1.717-0.676-2.582c-0.053-0.213-0.111-0.422-0.162-0.635c-0.019-0.084-0.035-0.172-0.054-0.256l30.339-7.183
		c1.904,9.932,6.528,19.015,13.526,26.478l0.023,0.075c0.119,0.394,0.334,0.754,0.626,1.045l43.743,43.744
		C196.865,276.176,194.558,276.279,192.254,276.279 M275.807,192.725c0,2.332-0.107,4.666-0.299,6.988l-43.4-43.4
		c-0.275-0.276-0.602-0.475-0.951-0.596c-10.049-9.672-23.221-14.986-37.21-14.986c-6.762,0-13.303,1.24-19.503,3.664l-8.415-31.002
		c3.751-1.242,7.572-2.225,11.451-2.918c0.02-0.002,0.04-0.006,0.06-0.008c1.189-0.213,2.382-0.398,3.58-0.558
		c0.2-0.028,0.401-0.041,0.601-0.067c1.022-0.129,2.046-0.25,3.075-0.342c0.477-0.041,0.958-0.06,1.436-0.093
		c0.758-0.055,1.515-0.117,2.276-0.151c1.245-0.054,2.493-0.084,3.745-0.084h0.006c1.371,0,2.734,0.039,4.09,0.104
		c0.496,0.025,0.989,0.07,1.484,0.103c0.856,0.057,1.713,0.114,2.562,0.196c0.587,0.058,1.17,0.134,1.755,0.205
		c0.754,0.088,1.508,0.178,2.255,0.287c0.604,0.088,1.204,0.193,1.804,0.295c0.73,0.123,1.459,0.248,2.183,0.39
		c0.58,0.114,1.158,0.239,1.735,0.366c0.751,0.164,1.5,0.334,2.243,0.519c0.525,0.129,1.048,0.268,1.569,0.406
		c0.811,0.219,1.618,0.448,2.419,0.69c0.437,0.131,0.873,0.266,1.307,0.404c0.909,0.289,1.81,0.596,2.704,0.916
		c0.316,0.114,0.632,0.225,0.946,0.342c1.05,0.391,2.09,0.801,3.12,1.232c0.151,0.063,0.304,0.123,0.455,0.188
		C254.79,128.551,275.807,158.23,275.807,192.725"/>
	<path style="fill:#FFFFFF;" d="M275.93,228.714c-26.295,0-47.687,21.394-47.687,47.689c0,26.295,21.392,47.686,47.687,47.686
		c26.296,0,47.688-21.391,47.688-47.686C323.618,250.108,302.226,228.714,275.93,228.714 M275.93,316.753
		c-22.249,0-40.35-18.1-40.35-40.35s18.101-40.351,40.35-40.351c22.25,0,40.351,18.101,40.351,40.351S298.18,316.753,275.93,316.753
		"/>
</g>
</svg>
