<?xml version="1.0" encoding="iso-8859-1"?>
<!-- Generator: Adobe Illustrator 25.4.1, SVG Export Plug-In . SVG Version: 6.00 Build 0)  -->
<svg version="1.1" id="Calque_1" xmlns="http://www.w3.org/2000/svg" xmlns:xlink="http://www.w3.org/1999/xlink" x="0px" y="0px"
	 viewBox="0 0 368.5 368.5" style="enable-background:new 0 0 368.5 368.5;" xml:space="preserve">
<g>
	<path style="fill:#FFFFFF;" d="M191.032,219.095L191.032,219.095c-4.515,0-9.285-0.873-13.986-2.466
		c1.282,2.592,2.189,5.571,2.63,8.911c0.058,0.437-0.177,0.859-0.577,1.041l-27.009,12.268c-0.133,0.06-0.273,0.09-0.414,0.09
		c-0.189,0-0.378-0.054-0.541-0.16c-0.286-0.184-0.459-0.501-0.459-0.84v-29.977c0-0.434,0.279-0.817,0.692-0.951
		c2.318-0.75,4.596-1.177,6.801-1.308c-0.986-0.867-1.949-1.758-2.859-2.69l-6.446-6.606l-8.012,3.339
		c-0.311,0.13-0.637,0.193-0.961,0.193c-0.66,0-1.31-0.262-1.789-0.754l-3.704-3.796l-39.136,58.409v70.704h104.232V217.87
		C196.94,218.679,194.106,219.095,191.032,219.095 M144.747,281.409c0,0.445-0.294,0.836-0.72,0.96
		c-2.496,0.729-4.952,1.098-7.3,1.098h-0.001c-11.139,0-18.895-7.986-20.243-20.84c-0.045-0.429,0.19-0.837,0.581-1.015
		l26.269-11.931c0.309-0.142,0.669-0.116,0.955,0.069s0.459,0.501,0.459,0.841V281.409z M144.747,241.542
		c0,0.393-0.23,0.748-0.586,0.91l-26.164,11.884c-0.131,0.061-0.272,0.09-0.413,0.09c-0.209,0-0.415-0.066-0.589-0.193
		c-0.292-0.212-0.447-0.566-0.404-0.924c1.956-16.546,12.906-34.011,26.631-42.474c0.309-0.188,0.696-0.198,1.012-0.021
		c0.316,0.176,0.513,0.51,0.513,0.873V241.542z M152.181,278.794c-0.156,0.091-0.331,0.137-0.505,0.137
		c-0.172,0-0.344-0.044-0.498-0.133c-0.31-0.178-0.502-0.509-0.502-0.867v-30.944c0-0.392,0.23-0.748,0.586-0.91l27.114-12.314
		c0.326-0.15,0.704-0.112,0.995,0.097c0.29,0.207,0.448,0.553,0.415,0.909C178.118,252.164,166.767,270.268,152.181,278.794"/>
	<polygon style="fill:#FFFFFF;" points="95.262,222.731 113.662,195.269 95.263,203.627 	"/>
	<polygon style="fill:#FFFFFF;" points="196.431,176.566 199.494,179.704 199.494,175.291 	"/>
	<path style="fill:#FFFFFF;" d="M76.195,282.257c-1.608,2.4-4.296,3.834-7.189,3.834c-1.715,0-3.377-0.506-4.805-1.463
		c-1.919-1.285-3.222-3.241-3.67-5.507c-0.448-2.265,0.013-4.57,1.298-6.489l3.431-5.121l-7.963,3.685v24.735l21.51-9.955v-7.617
		L76.195,282.257z"/>
	<path style="fill:#FFFFFF;" d="M130.829,191.732l-5.205-5.333l-59.642,89.016c-0.542,0.808-0.736,1.78-0.547,2.736
		c0.189,0.956,0.738,1.78,1.547,2.322c0.603,0.404,1.303,0.617,2.023,0.617c1.222,0,2.357-0.604,3.035-1.617L130.829,191.732z"/>
	<path style="fill:#FFFFFF;" d="M235.939,219.326c-1.607,2.401-4.295,3.835-7.186,3.835c-1.717,0-3.38-0.507-4.808-1.467
		c-1.916-1.282-3.22-3.237-3.668-5.504c-0.448-2.265,0.013-4.57,1.298-6.489l3.431-5.121l-7.964,3.686v24.736l21.511-9.957v-7.62
		L235.939,219.326z"/>
	<path style="fill:#FFFFFF;" d="M244.7,197.269c-0.464,0.02-0.935,0.029-1.41,0.029h-0.001c-2.268,0-4.6-0.22-6.955-0.64
		l-10.604,15.827c-0.543,0.808-0.736,1.781-0.548,2.736c0.189,0.955,0.739,1.779,1.548,2.32c0.605,0.408,1.303,0.621,2.023,0.621
		c1.22,0,2.354-0.605,3.032-1.619L244.7,197.269z"/>
	<path style="fill:#FFFFFF;" d="M260.809,160.126l-3.041,4.538c1.717,2.322,3.077,4.683,4.067,7.029l4.561-6.805
		C264.418,163.423,262.548,161.83,260.809,160.126"/>
	<path style="fill:#FFFFFF;" d="M73.915,119.61c-0.579-0.593-0.826-1.434-0.661-2.246c0.166-0.812,0.723-1.488,1.488-1.808
		l42.602-17.771c0.944-0.396,2.036-0.173,2.751,0.561l72.578,74.369l4.687-1.954l-71.188-72.947
		c-0.579-0.593-0.826-1.433-0.661-2.246c0.166-0.812,0.723-1.488,1.488-1.808l42.604-17.77c0.945-0.396,2.036-0.173,2.752,0.562
		l72.577,74.367l4.87-2.031l-71.19-72.948c-0.579-0.593-0.826-1.434-0.661-2.246c0.166-0.811,0.723-1.488,1.487-1.808l42.603-17.767
		c0.355-0.149,0.73-0.21,1.097-0.19c0.613,0.034,1.208,0.292,1.655,0.751l53.414,54.733l19.162,19.634l5.13-2.139l-81.011-82.91
		L59.554,111.542l80.942,82.936l4.609-1.921L73.915,119.61z"/>
	<path style="fill:#FFFFFF;" d="M277.081,115.416l-6.351,19.943c-0.135,0.425-0.529,0.697-0.953,0.697
		c-0.099,0-0.203-0.015-0.303-0.047c-0.527-0.168-0.818-0.731-0.65-1.257l6.674-20.957l-5.356-5.487l-11.603,36.466
		c-0.136,0.426-0.529,0.698-0.953,0.698c-0.1,0-0.202-0.015-0.303-0.047c-0.527-0.168-0.818-0.731-0.65-1.257l11.927-37.482
		l-30.923-31.687l-4.512,14.182c-0.136,0.425-0.529,0.697-0.953,0.697c-0.1,0-0.202-0.015-0.303-0.047
		c-0.527-0.168-0.818-0.73-0.65-1.256l4.835-15.197l-4.946-5.067l-10.353,32.525c-0.136,0.425-0.529,0.696-0.952,0.696
		c-0.102,0-0.203-0.014-0.305-0.047c-0.525-0.168-0.816-0.73-0.649-1.256l10.676-33.54l-7.125-7.301l-37.637,15.696l54.858,56.213
		l3.403-10.683c0.168-0.525,0.732-0.817,1.257-0.649c0.526,0.168,0.818,0.73,0.649,1.257l-3.726,11.696l22.382,22.935
		c7.63,7.818,18.805,13.321,28.764,14.375l7.48-23.507c0.168-0.526,0.73-0.817,1.256-0.65c0.526,0.168,0.817,0.731,0.65,1.257
		l-7.336,23.054c0.444,0.018,0.89,0.044,1.328,0.044h0.002c3.167,0,5.986-0.506,8.377-1.504c3.767-1.57,6.139-4.265,6.858-7.792
		c1.162-5.694-1.961-13.005-8.356-19.556L277.081,115.416z"/>
	<polygon style="fill:#FFFFFF;" points="159.875,85.466 132.323,96.958 150.342,115.423 	"/>
	<path style="fill:#FFFFFF;" d="M197.914,185.244l-2.764-2.832l-3.838,12.054c-0.135,0.424-0.529,0.696-0.952,0.696
		c-0.101,0-0.203-0.015-0.303-0.047c-0.527-0.168-0.818-0.73-0.65-1.257l4.16-13.068l-11.883-12.176l-9.714,30.52
		c-0.136,0.424-0.53,0.696-0.952,0.696c-0.101,0-0.204-0.015-0.304-0.047c-0.527-0.168-0.818-0.73-0.65-1.257l10.037-31.535
		l-44.389-45.483l-4.183,13.143c-0.136,0.425-0.53,0.697-0.953,0.697c-0.101,0-0.203-0.015-0.304-0.047
		c-0.526-0.168-0.817-0.731-0.65-1.257l4.507-14.158l-16.426-16.832l-37.636,15.7l31.924,32.712l10.792-33.904
		c0.168-0.525,0.734-0.817,1.257-0.649c0.526,0.168,0.816,0.73,0.649,1.257l-11.116,34.917l25.214,25.836l8.396-26.376
		c0.167-0.527,0.732-0.819,1.256-0.65c0.526,0.168,0.817,0.731,0.65,1.257l-8.719,27.392l18.519,18.974
		c0.499,0.512,1.015,1.011,1.544,1.502l7.786-24.46c0.168-0.525,0.732-0.817,1.256-0.649c0.526,0.168,0.817,0.73,0.65,1.257
		l-8.054,25.302c8.341,7.06,19.504,11.623,28.961,11.623c3.169,0,5.988-0.506,8.38-1.504c3.767-1.571,6.138-4.266,6.857-7.792
		C207.432,199.104,204.308,191.795,197.914,185.244"/>
	<path style="fill:#FFFFFF;" d="M250.171,163.446l-58.019-59.451l-5.831,18.317c-0.136,0.425-0.53,0.696-0.954,0.696
		c-0.1,0-0.202-0.014-0.303-0.046c-0.526-0.168-0.817-0.731-0.65-1.257l6.154-19.332l-20.605-21.115l-7.667,3.198l-10.371,32.589
		l30.377,31.128l5.417-17.021c0.168-0.526,0.732-0.818,1.256-0.649c0.527,0.168,0.817,0.73,0.65,1.256l-5.74,18.037l7.533,7.717
		l10.237-32.172c0.168-0.527,0.73-0.819,1.257-0.651c0.526,0.168,0.817,0.731,0.65,1.257l-10.562,33.188l18.142,18.59
		c2.936,3.007,6.403,5.662,10.118,7.866L226.223,170c0.166-0.526,0.73-0.817,1.255-0.65c0.527,0.168,0.818,0.731,0.65,1.257
		l-5.092,15.993c6.592,3.573,13.817,5.697,20.252,5.698h0.001c3.168,0,5.989-0.507,8.382-1.505c3.766-1.571,6.136-4.265,6.855-7.792
		C259.688,177.307,256.564,169.997,250.171,163.446"/>
</g>
</svg>
