<?xml version="1.0" encoding="iso-8859-1"?>
<!-- Generator: Adobe Illustrator 25.4.1, SVG Export Plug-In . SVG Version: 6.00 Build 0)  -->
<svg version="1.1" id="Calque_1" xmlns="http://www.w3.org/2000/svg" xmlns:xlink="http://www.w3.org/1999/xlink" x="0px" y="0px"
	 viewBox="0 0 368.5 368.5" style="enable-background:new 0 0 368.5 368.5;" xml:space="preserve">
<polygon style="fill:#FFFFFF;" points="129.293,153.491 129.293,156.571 165.998,119.865 162.92,119.865 "/>
<polygon style="fill:#FFFFFF;" points="171.654,119.865 129.293,162.227 129.293,169.975 179.404,119.865 "/>
<polygon style="fill:#FFFFFF;" points="106.111,119.342 98.127,113.838 98.127,318.395 106.111,318.395 "/>
<g>
	<path style="fill:#FFFFFF;" d="M125.293,123.934h-11.287c-0.006,0-0.01,0.002-0.016,0.002c-0.013,0-0.027-0.006-0.041-0.006
		c-0.164-0.004-0.32-0.03-0.472-0.07c-0.047-0.014-0.094-0.028-0.141-0.045c-0.164-0.057-0.322-0.127-0.463-0.222
		c-0.004-0.003-0.008-0.003-0.012-0.006l-2.75-1.88v196.689h15.182V123.934z"/>
	<path style="fill:#FFFFFF;" d="M304.721,123.934c-0.006,0-0.01,0.002-0.016,0.002c-0.013,0-0.027-0.006-0.041-0.006
		c-0.164-0.004-0.32-0.03-0.472-0.07c-0.047-0.014-0.094-0.028-0.141-0.045c-0.164-0.057-0.322-0.127-0.463-0.222
		c-0.004-0.003-0.008-0.003-0.012-0.006l-2.248-1.537v196.346h15.178V123.934H304.721z"/>
	<path style="fill:#FFFFFF;" d="M297.328,119.865h-7.988v28.613l6.91,6.91c0.375,0.375,0.586,0.884,0.586,1.415v13.406
		c0,0.096-0.029,0.185-0.043,0.279c-0.006,0.055-0.012,0.108-0.024,0.161c-0.023,0.1-0.052,0.195-0.089,0.288
		c-0.024,0.06-0.053,0.116-0.081,0.172c-0.068,0.132-0.148,0.254-0.244,0.368c-0.05,0.064-0.103,0.126-0.164,0.183
		c-0.058,0.055-0.119,0.105-0.185,0.153c-0.1,0.073-0.203,0.135-0.315,0.189c-0.031,0.015-0.056,0.041-0.09,0.054
		c-0.248,0.103-0.507,0.153-0.765,0.153c-0.002,0-0.006-0.001-0.008-0.001c-0.002,0-0.004,0.001-0.006,0.001h-5.482v146.185h7.988
		V119.865z"/>
	<polygon style="fill:#FFFFFF;" points="286.928,168.209 290.008,168.209 241.662,119.865 238.584,119.865 	"/>
	<polygon style="fill:#FFFFFF;" points="255.068,119.865 247.318,119.865 292.836,165.381 292.836,157.631 	"/>
	<rect x="306.705" y="98.956" style="fill:#FFFFFF;" width="17.277" height="20.978"/>
	<path style="fill:#FFFFFF;" d="M236.041,57.5l50.951,35.045h1.608c0.39,0,0.773,0.114,1.099,0.329l10.477,6.898
		c0.703,0.299,1.195,0.99,1.215,1.797c0,0.009,0.002,0.017,0.002,0.025c0,0.007,0.002,0.013,0.002,0.019v15.635l1.31,0.897v-20.19
		l-2.975-2.032l-64.496-44.072v5.346C235.521,57.245,235.799,57.334,236.041,57.5"/>
	<polygon style="fill:#FFFFFF;" points="239.768,50.104 305.405,94.957 319.555,94.957 254.461,50.104 	"/>
	<polygon style="fill:#FFFFFF;" points="86.822,61.147 132.39,92.544 279.933,92.544 234.287,61.147 	"/>
	<rect x="137.268" y="103.652" style="fill:#FFFFFF;" width="160.127" height="12.213"/>
	<path style="fill:#FFFFFF;" d="M137.225,96.545c0.021,0.105,0.029,0.214,0.033,0.323c0.002,0.022,0.008,0.042,0.008,0.065
		c0,0.008,0.002,0.014,0.002,0.022v2.697h155.451L288,96.545H137.225z"/>
	<rect x="115.991" y="98.956" style="fill:#FFFFFF;" width="17.277" height="20.978"/>
	<polygon style="fill:#FFFFFF;" points="111.99,118.146 111.99,97.956 44.517,51.85 44.517,72.006 	"/>
	<polygon style="fill:#FFFFFF;" points="63.746,50.104 49.053,50.104 114.689,94.957 128.84,94.957 	"/>
</g>
</svg>
