<?xml version="1.0" encoding="iso-8859-1"?>
<!-- Generator: Adobe Illustrator 25.4.1, SVG Export Plug-In . SVG Version: 6.00 Build 0)  -->
<svg version="1.1" id="Calque_1" xmlns="http://www.w3.org/2000/svg" xmlns:xlink="http://www.w3.org/1999/xlink" x="0px" y="0px"
	 viewBox="0 0 368.5 368.5" style="enable-background:new 0 0 368.5 368.5;" xml:space="preserve">
<g>
	<path style="fill:#FFFFFF;" d="M116.757,136.698l92.402,92.398l0.071-0.071c1.134-5.442,3.79-10.63,8.005-14.847l1.152-1.15
		c3.831-3.832,8.539-6.449,13.662-7.737l-91.961-91.959L116.757,136.698z"/>
	<path style="fill:#FFFFFF;" d="M179.867,64.762c4.165-4.164,4.194-10.885,0.083-14.997c-1.972-1.973-4.601-3.058-7.403-3.058
		c-2.221,0-4.352,0.677-6.165,1.959l-2.006,1.419l-0.112-0.1c-9.113,5.464-19.515,8.339-30.23,8.339
		c-7.796,0-15.639-1.578-22.819-4.581l-65.418,65.401c-1.226,1.146-3.167,3.342-3.248,5.984c-0.056,1.851,0.825,3.751,2.62,5.645
		l29.373,29.354c0.977,0.911,2.78,1.498,4.749,1.498c2.321,0,4.532-0.783,5.915-2.096l94.453-94.587l2.295,2.101l0.001-0.001
		L179.867,64.762z M80.327,99.823c-0.605,0.604-1.398,0.907-2.191,0.907s-1.586-0.303-2.191-0.907
		c-1.21-1.211-1.21-3.173,0.001-4.383l23.555-23.548c1.211-1.208,3.172-1.21,4.383,0.001c1.209,1.21,1.209,3.172-0.001,4.382
		L80.327,99.823z"/>
	<path style="fill:#FFFFFF;" d="M319.159,280.724l-63.311-63.316c-4.418-4.417-10.293-6.85-16.541-6.85s-12.121,2.433-16.538,6.85
		l-1.151,1.151c-9.117,9.123-9.117,23.961,0,33.078l63.31,63.318c4.42,4.415,10.294,6.848,16.54,6.848
		c6.249,0,12.124-2.434,16.545-6.853l1.141-1.145c4.422-4.423,6.855-10.296,6.856-16.543S323.578,285.142,319.159,280.724"/>
</g>
</svg>
