<?xml version="1.0" encoding="iso-8859-1"?>
<!-- Generator: Adobe Illustrator 25.4.1, SVG Export Plug-In . SVG Version: 6.00 Build 0)  -->
<svg version="1.1" id="Calque_1" xmlns="http://www.w3.org/2000/svg" xmlns:xlink="http://www.w3.org/1999/xlink" x="0px" y="0px"
	 viewBox="0 0 368.5 368.5" style="enable-background:new 0 0 368.5 368.5;" xml:space="preserve">
<g>
	<path style="fill:#FFFFFF;" d="M150.713,196.084c-26.988-7.285-47.887-19.493-58.521-34.482l-0.067,34.745L150.713,196.084z"/>
	<path style="fill:#FFFFFF;" d="M92.057,138.737c0,31.475,52.716,57.082,117.51,57.082s117.509-25.607,117.509-57.082
		c0-31.476-52.715-57.083-117.509-57.083S92.057,107.261,92.057,138.737 M209.952,104.977c33.919,0,60.49,14.171,60.49,32.262
		c0,18.089-26.571,32.259-60.49,32.259c-33.912,0-60.475-14.17-60.475-32.259C149.477,119.148,176.04,104.977,209.952,104.977"/>
	<path style="fill:#FFFFFF;" d="M61.309,276.945c0,1.304-0.666,2.517-1.765,3.218L49.143,286.8h176.483
		c0.189,0,0.368,0.029,0.55,0.056c56.955-3.934,100.9-27.767,100.9-56.501l-0.266-68.58c-17.526,24.488-62.473,41.531-116.573,41.67
		l-0.01-0.06c-0.208,0.038-0.422,0.068-0.643,0.069l-157.475,0.709l-8.498,8.497l15.933,10.168c1.099,0.702,1.765,1.915,1.765,3.218
		c0,1.304-0.666,2.518-1.765,3.219l-14.896,9.506l14.896,9.506c1.099,0.702,1.765,1.915,1.765,3.219
		c0,1.303-0.666,2.517-1.765,3.218l-14.896,9.506l14.896,9.506C60.643,274.429,61.309,275.641,61.309,276.945"/>
</g>
</svg>
