<?xml version="1.0" encoding="iso-8859-1"?>
<!-- Generator: Adobe Illustrator 25.4.1, SVG Export Plug-In . SVG Version: 6.00 Build 0)  -->
<svg version="1.1" id="Calque_1" xmlns="http://www.w3.org/2000/svg" xmlns:xlink="http://www.w3.org/1999/xlink" x="0px" y="0px"
	 viewBox="0 0 368.5 368.5" style="enable-background:new 0 0 368.5 368.5;" xml:space="preserve">
<g>
	<path style="fill:#FFFFFF;" d="M142.469,196.03c-0.586,0.586-0.586,1.535,0,2.121l30.836,30.836h4.242L144.59,196.03
		C144.004,195.444,143.055,195.444,142.469,196.03"/>
	<path style="fill:#FFFFFF;" d="M92.135,103.154c0.385,0,0.768-0.146,1.061-0.439c0.585-0.586,0.585-1.536,0-2.122L64.391,71.787
		v4.242l26.683,26.686C91.367,103.008,91.752,103.154,92.135,103.154"/>
	<polygon style="fill:#FFFFFF;" points="161.83,64.437 189.195,91.802 189.195,87.56 166.072,64.437 	"/>
	<path style="fill:#FFFFFF;" d="M96.678,217.297c0.383,0,0.768-0.146,1.061-0.439c0.585-0.586,0.585-1.536,0-2.122l-25.606-25.604
		v4.242l23.484,23.484C95.91,217.151,96.293,217.297,96.678,217.297"/>
	<path style="fill:#FFFFFF;" d="M94.482,140.345c-0.586,0.586-0.586,1.535,0,2.121l24.396,24.396v-4.243l-22.275-22.274
		C96.017,139.759,95.068,139.759,94.482,140.345"/>
	<path style="fill:#FFFFFF;" d="M180.746,192.688l-47.209-47.212v4.242l47.195,47.199
		C180.738,195.459,180.742,194.049,180.746,192.688"/>
	<polygon style="fill:#FFFFFF;" points="118.879,109.808 73.508,64.437 69.266,64.437 118.879,114.05 	"/>
	<path style="fill:#FFFFFF;" d="M148.639,115.931c0.385,0,0.768-0.146,1.061-0.439c0.585-0.586,0.585-1.536,0-2.122l-16.163-16.163
		v4.243l14.041,14.042C147.871,115.785,148.256,115.931,148.639,115.931"/>
	<path style="fill:#FFFFFF;" d="M123.879,121.527c0,1.381-1.119,2.5-2.5,2.5H72.133v4.66h49.246c1.381,0,2.5,1.119,2.5,2.5V220.3
		h4.658v-89.113c0-1.381,1.119-2.5,2.5-2.5h58.158v-4.66h-58.158c-1.381,0-2.5-1.119-2.5-2.5v-57.09h-4.658V121.527z"/>
	<path style="fill:#FFFFFF;" d="M55.205,249.313h125.359c0.016-5.06,0.034-10.208,0.049-15.326h-28.898
		c-1.565,2.096-4.055,3.461-6.865,3.461l-66.116,0.002c-7.892,0-14.97-3.275-18.933-8.759c-3.205-4.356-4.785-9.698-4.817-16.315
		v-107.98c0.002-3.215,1.783-6.018,4.407-7.485V68.873c0-5.204,4.232-9.436,9.435-9.436h115.932c5.203,0,9.437,4.232,9.437,9.436
		v86.416c3.801-1.744,8.233-3.266,13.1-4.57V55.675c0-5.491-4.467-9.959-9.957-9.959H55.205c-5.492,0-9.959,4.468-9.959,9.959
		v183.679C45.246,244.845,49.713,249.313,55.205,249.313"/>
	<path style="fill:#FFFFFF;" d="M187.012,170.668c0,0.541,0.139,1.099,0.389,1.666c0.017,0.033,0.041,0.062,0.058,0.096
		c0.489,1.008,1.317,2.018,2.453,3.018c0.147,0.126,0.299,0.253,0.457,0.38c0.108,0.089,0.215,0.177,0.329,0.265
		c5.8,4.455,18.257,8.91,35.953,11.312c0.162,0.022,0.332,0.041,0.496,0.064c0.799,0.105,1.607,0.209,2.429,0.306
		c0.575,0.069,1.159,0.131,1.743,0.195c0.429,0.047,0.857,0.096,1.291,0.139c0.66,0.069,1.332,0.131,2.002,0.193
		c0.382,0.035,0.763,0.071,1.15,0.104c0.684,0.059,1.377,0.115,2.072,0.167c0.403,0.031,0.805,0.061,1.211,0.089
		c0.682,0.049,1.369,0.094,2.063,0.136c0.451,0.027,0.906,0.053,1.363,0.077c0.658,0.036,1.318,0.07,1.984,0.102
		c0.539,0.023,1.084,0.045,1.629,0.065c0.604,0.024,1.205,0.047,1.815,0.065c0.695,0.022,1.402,0.037,2.107,0.051
		c0.483,0.01,0.959,0.024,1.445,0.031c1.213,0.019,2.436,0.03,3.678,0.03c1.227,0,2.438-0.012,3.639-0.03
		c0.75-0.011,1.492-0.031,2.234-0.048c0.397-0.01,0.797-0.018,1.19-0.03c1.066-0.032,2.125-0.071,3.171-0.117
		c0.012-0.001,0.022-0.001,0.034-0.002c32.086-1.43,54.451-9.408,57.527-16.85c0.022-0.052,0.053-0.096,0.076-0.147
		c0.16-0.45,0.254-0.893,0.254-1.327c0-7.029-21.365-16.577-56.887-18.276c-1.459,1.605-2.974,3.133-4.537,4.576
		c27.688,0.723,49.192,6.116,49.192,12.677c0,7.046-24.858,12.765-55.535,12.765c-30.662,0-55.528-5.719-55.528-12.765
		c0-4.792,11.479-8.959,28.448-11.142c0.099-1.603,0.287-3.224,0.533-4.853C202.471,156.895,187.012,164.691,187.012,170.668"/>
	<path style="fill:#FFFFFF;" d="M255.129,196.219c-25.092,0-53.836-4.311-67.348-13.624c-0.103,30.801-0.388,120.217-0.388,121.194
		c0,7.932,25.826,18.994,67.886,18.994c42.061,0,67.887-11.062,67.887-18.994c0-0.162-0.346-89.984-0.471-121.333
		C309.326,191.861,280.545,196.219,255.129,196.219"/>
	<path style="fill:#FFFFFF;" d="M247.207,127.542c-8.336,11.709-12.619,25.238-11.83,36.945
		c11.322-3.086,22.703-11.562,31.037-23.272c7.078-9.943,11.285-21.242,11.844-31.818c0.035-0.664,0.259-1.303,0.644-1.844
		l6.444-9.052c-0.743-0.375-1.459-0.806-2.147-1.295c-0.586-0.418-1.125-0.877-1.639-1.355l-6.193,8.7
		c-0.392,0.552-0.935,0.976-1.564,1.225C263.84,109.716,254.394,117.445,247.207,127.542"/>
	<path style="fill:#FFFFFF;" d="M287.26,91.503c1.621,1.154,3.521,1.764,5.5,1.764c3.074,0,5.973-1.493,7.754-3.993l19.889-27.943
		c3.037-4.268,2.037-10.212-2.231-13.251c-1.619-1.151-3.521-1.762-5.5-1.762c-3.074,0-5.973,1.494-7.752,3.995l-19.89,27.939
		C281.99,82.52,282.992,88.465,287.26,91.503"/>
	<path style="fill:#FFFFFF;" d="M148.424,228.874c0-1.97-1.604-3.572-3.574-3.572l-2.5-0.001c-5.608,0-22.094-0.001-63.229-0.001
		c-5.422-0.119-7.707-1.586-9.49-3.751c-1.627-2.081-2.523-5.417-2.498-9.202v-107.95c0-1.971-1.602-3.575-3.572-3.575
		c-1.971,0-3.575,1.604-3.575,3.575l-0.001,107.967c0.025,5.509,1.287,9.89,3.857,13.382c3.037,4.204,8.602,6.704,14.893,6.704
		l0.347-0.002h65.768C146.82,232.448,148.424,230.845,148.424,228.874"/>
</g>
</svg>
