<?xml version="1.0" encoding="iso-8859-1"?>
<!-- Generator: Adobe Illustrator 25.4.1, SVG Export Plug-In . SVG Version: 6.00 Build 0)  -->
<svg version="1.1" id="Calque_1" xmlns="http://www.w3.org/2000/svg" xmlns:xlink="http://www.w3.org/1999/xlink" x="0px" y="0px"
	 viewBox="0 0 368.5 368.5" style="enable-background:new 0 0 368.5 368.5;" xml:space="preserve">
<g>
	<path style="fill:#FFFFFF;" d="M213.557,212.26h55.522c10.781,0,19.551-8.771,19.551-19.553V74.15
		c0-10.78-8.77-19.551-19.551-19.551h-27.242c-0.224,1.507-0.04,4.569,2.911,9.798c3.153,5.592,8.285,8.284,13.246,10.889
		c7.568,3.97,15.394,8.076,15.024,21.794c-0.32,11.834-9.528,17.104-15.812,18.677v12.1c7.116-0.231,15.088-3.616,20.615-6.5
		c0.943-0.491,2.073-0.455,2.983,0.096c0.908,0.551,1.464,1.537,1.464,2.6v66.014c0,11.094-4.735,15.827-15.833,15.827h-49.921
		c-11.097,0-15.832-4.733-15.832-15.827v-65.691c0-1.353,0.893-2.544,2.192-2.92c4.453-1.293,9.444-1.949,14.835-1.949l0.727,0.004
		c3.896,0.039,7.246,0.409,10.227,0.965v-12.622c0-7.683,6.249-13.932,13.931-13.932h0.679c7.683,0,13.933,6.249,13.933,13.932
		v3.669c4.11-1.277,11.499-4.903,11.76-14.552c0.301-11.192-5.505-14.24-12.856-18.096c-5.227-2.744-11.151-5.852-14.894-12.486
		c-3.073-5.446-3.664-9.27-3.444-11.79h-24.215c-10.782,0-19.554,8.771-19.554,19.551v118.557
		C194.003,203.489,202.775,212.26,213.557,212.26"/>
	<path style="fill:#FFFFFF;" d="M115.102,300.845c1.121,0.479,1.848,1.578,1.848,2.797v22.349h114.974v-11.403
		c0-1.681,1.361-3.041,3.04-3.041h69.981c4.578-0.003,9.7-9.637,9.7-22.525c0-12.892-5.122-22.528-9.703-22.532h-26.669
		c-1.078,0-2.075-0.57-2.621-1.498c-0.546-0.929-0.56-2.079-0.036-3.019c6.886-12.377,10.599-25.925,11.056-40.311H60.534
		C61.667,256.717,82.357,286.875,115.102,300.845 M303.734,271.781c3.547,0,6.423,7.718,6.423,17.241
		c0,9.515-2.876,17.233-6.423,17.233c-3.551,0-6.425-7.718-6.425-17.233C297.309,279.499,300.183,271.781,303.734,271.781"/>
	<path style="fill:#FFFFFF;" d="M249.083,48.518c3.119-0.61,5.141-1.573,5.141-2.659c0-1.84-5.799-3.333-12.961-3.333
		c-7.154,0-12.954,1.493-12.954,3.333c0,1.086,2.022,2.049,5.14,2.659c2.173,0.425,4.875,0.681,7.814,0.681
		C244.206,49.199,246.909,48.943,249.083,48.518"/>
	<path style="fill:#FFFFFF;" d="M243.273,100.003h-0.679c-4.329,0-7.85,3.521-7.85,7.85v33.957h16.381v-33.957
		C251.125,103.524,247.603,100.003,243.273,100.003"/>
	<rect x="228.474" y="147.89" style="fill:#FFFFFF;" width="28.673" height="43.324"/>
	<path style="fill:#FFFFFF;" d="M53.86,209.457c0,2.799,2.268,5.067,5.067,5.067h127.617c2.799,0,5.068-2.268,5.068-5.067
		c0-2.8-2.269-5.067-5.068-5.067H58.927C56.128,204.39,53.86,206.657,53.86,209.457"/>
</g>
</svg>
