<?xml version="1.0" encoding="iso-8859-1"?>
<!-- Generator: Adobe Illustrator 25.4.1, SVG Export Plug-In . SVG Version: 6.00 Build 0)  -->
<svg version="1.1" id="Calque_1" xmlns="http://www.w3.org/2000/svg" xmlns:xlink="http://www.w3.org/1999/xlink" x="0px" y="0px"
	 viewBox="0 0 368.5 368.5" style="enable-background:new 0 0 368.5 368.5;" xml:space="preserve">
<g>
	<path style="fill:#FFFFFF;" d="M307.082,42.661c4.358,4.134,7.094,9.963,7.094,16.428v249.714c0,6.467-2.736,12.297-7.095,16.43
		c8.179-1.007,14.536-7.984,14.536-16.43V59.089C321.617,50.645,315.26,43.668,307.082,42.661"/>
	<path style="fill:#FFFFFF;" d="M308.072,308.803V59.089c0-9.134-7.433-16.566-16.568-16.566c-0.018,0-0.036,0.003-0.054,0.003
		c4.444,4.141,7.243,10.024,7.243,16.563v249.714c0,6.541-2.799,12.424-7.243,16.565c0.018,0,0.036,0.003,0.054,0.003
		C300.639,325.371,308.072,317.938,308.072,308.803"/>
	<path style="fill:#FFFFFF;" d="M292.589,308.803V59.089c0-9.134-7.431-16.566-16.565-16.566c-0.018,0-0.036,0.003-0.054,0.003
		c4.444,4.141,7.243,10.024,7.243,16.563v247.848c0.574,6.711-1.832,13.556-6.976,18.422
		C285.272,325.244,292.589,317.867,292.589,308.803"/>
	<path style="fill:#FFFFFF;" d="M254.821,251.236c1.686,0,3.052,1.366,3.052,3.052c0,1.686-1.366,3.052-3.052,3.052h-5.627
		l27.916,35.805V59.089c0-9.134-7.431-16.566-16.567-16.566c-9.135,0-16.567,7.432-16.567,16.566v17.993h10.845
		c1.686,0,3.052,1.366,3.052,3.051c0,1.686-1.366,3.052-3.052,3.052h-10.845v13.249h10.845c1.686,0,3.052,1.365,3.052,3.051
		c0,1.685-1.366,3.052-3.052,3.052h-10.845v13.243h10.845c1.686,0,3.052,1.366,3.052,3.052c0,1.686-1.366,3.052-3.052,3.052h-10.845
		v13.247h10.845c1.686,0,3.052,1.367,3.052,3.052c0,1.687-1.366,3.052-3.052,3.052h-10.845v13.25h10.845
		c1.686,0,3.052,1.365,3.052,3.052c0,1.685-1.366,3.052-3.052,3.052h-10.845v13.244h10.845c1.686,0,3.052,1.367,3.052,3.052
		c0,1.686-1.366,3.051-3.052,3.051h-10.845v13.249h10.845c1.686,0,3.052,1.365,3.052,3.051s-1.366,3.052-3.052,3.052h-10.845v13.249
		h10.845c1.686,0,3.052,1.365,3.052,3.051c0,1.685-1.366,3.052-3.052,3.052h-10.845v13.246h10.845c1.686,0,3.052,1.365,3.052,3.052
		c0,1.685-1.366,3.052-3.052,3.052h-10.845v12.656l0.46,0.59H254.821z M250.72,59.365c0-5.213,4.24-9.454,9.452-9.454
		c5.213,0,9.453,4.241,9.453,9.454c0,5.211-4.24,9.451-9.453,9.451C254.96,68.816,250.72,64.576,250.72,59.365"/>
	<path style="fill:#FFFFFF;" d="M247.594,319.102c3.16,4.049,7.923,6.371,13.069,6.371h0.001c3.722,0,7.244-1.214,10.187-3.511
		c7.197-5.623,8.48-16.056,2.857-23.253l-2.919-3.736L88.31,60.927v33.407c1.328-1.018,3.236-0.777,4.268,0.553
		c1.032,1.331,0.789,3.248-0.543,4.281l-3.725,2.889v12.75l1.949,2.499l9.889-7.669c1.333-1.031,3.249-0.791,4.283,0.541
		c1.032,1.332,0.79,3.25-0.541,4.283l-9.878,7.661l8.146,10.446l9.85-7.64c1.332-1.034,3.249-0.789,4.282,0.54
		c1.033,1.333,0.79,3.25-0.541,4.282l-9.839,7.631l8.145,10.447l9.811-7.608c1.331-1.031,3.248-0.79,4.282,0.543
		c1.032,1.331,0.79,3.248-0.542,4.281l-9.799,7.597l8.147,10.448l9.771-7.578c1.331-1.032,3.247-0.79,4.282,0.541
		c1.033,1.333,0.79,3.25-0.541,4.283l-9.758,7.568l8.144,10.447l9.731-7.546c1.328-1.033,3.248-0.789,4.282,0.542
		c1.032,1.331,0.79,3.249-0.542,4.282l-9.718,7.535l8.145,10.446l9.693-7.515c1.332-1.033,3.246-0.788,4.281,0.543
		c1.033,1.333,0.79,3.248-0.542,4.281l-9.679,7.505l8.145,10.446l9.651-7.482c1.332-1.032,3.249-0.791,4.282,0.543
		c1.032,1.331,0.79,3.248-0.543,4.281l-9.637,7.473l8.145,10.446l9.611-7.452c1.33-1.031,3.247-0.791,4.281,0.542
		c1.032,1.331,0.79,3.249-0.542,4.282l-9.598,7.443l8.146,10.446l9.571-7.423c1.333-1.033,3.25-0.79,4.283,0.542
		c1.032,1.332,0.79,3.249-0.542,4.283l-9.558,7.413l8.146,10.446l9.529-7.389c1.331-1.032,3.248-0.79,4.282,0.542
		c1.032,1.332,0.79,3.249-0.541,4.282l-9.516,7.38l8.144,10.446l9.49-7.359c1.332-1.031,3.248-0.789,4.282,0.542
		c1.032,1.331,0.789,3.249-0.543,4.282l-9.476,7.347l8.145,10.447l9.445-7.326c1.331-1.035,3.25-0.788,4.282,0.54
		c1.033,1.331,0.792,3.25-0.54,4.283l-9.434,7.317l8.144,10.445l9.409-7.296c1.331-1.035,3.249-0.79,4.282,0.541
		c1.033,1.331,0.79,3.248-0.541,4.28l-9.398,7.289L247.594,319.102z M259.942,300.147c5.212,0,9.452,4.24,9.452,9.453
		c0,5.212-4.24,9.452-9.452,9.452c-5.212,0-9.452-4.24-9.452-9.452C250.49,304.387,254.73,300.147,259.942,300.147"/>
	<path style="fill:#FFFFFF;" d="M82.206,59.706c0-9.134-7.432-16.565-16.567-16.565c-9.136,0-16.568,7.431-16.568,16.565v17.251
		h12.066c1.686,0,3.052,1.365,3.052,3.052c0,1.685-1.366,3.052-3.052,3.052H49.071v13.248h12.066c1.686,0,3.052,1.365,3.052,3.052
		c0,1.687-1.366,3.052-3.052,3.052H49.071v13.246h12.066c1.686,0,3.052,1.367,3.052,3.052c0,1.686-1.366,3.052-3.052,3.052H49.071
		v13.25h12.066c1.686,0,3.052,1.366,3.052,3.052c0,1.685-1.366,3.051-3.052,3.051H49.071v13.245h12.066
		c1.686,0,3.052,1.365,3.052,3.051c0,1.687-1.366,3.052-3.052,3.052H49.071v13.247h12.066c1.686,0,3.052,1.366,3.052,3.051
		s-1.366,3.052-3.052,3.052H49.071v13.248h12.066c1.686,0,3.052,1.367,3.052,3.052c0,1.687-1.366,3.052-3.052,3.052H49.071v13.246
		h12.066c1.686,0,3.052,1.365,3.052,3.052s-1.366,3.052-3.052,3.052H49.071v13.246h12.066c1.686,0,3.052,1.365,3.052,3.052
		c0,1.686-1.366,3.052-3.052,3.052H49.071v13.25h12.066c1.686,0,3.052,1.366,3.052,3.052c0,1.685-1.366,3.051-3.052,3.051H49.071
		v13.245h12.066c1.686,0,3.052,1.367,3.052,3.051c0,1.687-1.366,3.052-3.052,3.052H49.071v13.25h12.066
		c1.686,0,3.052,1.365,3.052,3.052c0,1.685-1.366,3.052-3.052,3.052H49.071v13.244h12.066c1.686,0,3.052,1.367,3.052,3.052
		c0,1.687-1.366,3.052-3.052,3.052H49.071v10.719h33.135V59.706z M56.366,59.789c0-5.211,4.24-9.451,9.45-9.451
		c5.214,0,9.456,4.24,9.456,9.451c0,5.213-4.242,9.453-9.456,9.453C60.606,69.242,56.366,65.002,56.366,59.789"/>
	<path style="fill:#FFFFFF;" d="M65.816,65.173c2.97,0,5.386-2.415,5.386-5.384c0-2.969-2.416-5.383-5.386-5.383
		c-2.967,0-5.381,2.414-5.381,5.383C60.435,62.758,62.849,65.173,65.816,65.173"/>
	<path style="fill:#FFFFFF;" d="M265.325,309.6c0-2.969-2.415-5.384-5.383-5.384c-2.969,0-5.384,2.415-5.384,5.384
		c0,2.967,2.415,5.382,5.384,5.382C262.91,314.982,265.325,312.567,265.325,309.6"/>
	<path style="fill:#FFFFFF;" d="M260.172,53.98c-2.968,0-5.383,2.417-5.383,5.385c0,2.969,2.415,5.382,5.383,5.382
		c2.968,0,5.383-2.413,5.383-5.382C265.555,56.397,263.14,53.98,260.172,53.98"/>
</g>
</svg>
