<?xml version="1.0" encoding="iso-8859-1"?>
<!-- Generator: Adobe Illustrator 25.4.1, SVG Export Plug-In . SVG Version: 6.00 Build 0)  -->
<svg version="1.1" id="Calque_1" xmlns="http://www.w3.org/2000/svg" xmlns:xlink="http://www.w3.org/1999/xlink" x="0px" y="0px"
	 viewBox="0 0 368.5 368.5" style="enable-background:new 0 0 368.5 368.5;" xml:space="preserve">
<g>
	<path style="fill:#FFFFFF;" d="M266.547,314.55c-15.47,0-30.013-6.023-40.951-16.962l-74.029-74.026
		c-15.258-15.26-20.189-36.982-14.826-56.435c-14.929,19.928-13.349,48.392,4.76,66.502l74.027,74.026
		c9.616,9.617,22.401,14.913,36,14.913c11.126,0,21.704-3.548,30.451-10.103C277.013,313.829,271.837,314.55,266.547,314.55"/>
	<path style="fill:#FFFFFF;" d="M322.562,251.534c0-13.599-5.296-26.385-14.911-36.001l-74.029-74.027
		c-9.615-9.615-22.4-14.911-36.001-14.911c-8.524,0-16.728,2.083-24.033,6.004l2.689,2.689c3.667,3.665,5.686,8.541,5.686,13.728
		c0,5.186-2.02,10.063-5.687,13.731c-3.667,3.668-8.543,5.688-13.729,5.688h-0.001c-5.186,0-10.062-2.02-13.729-5.688l-2.181-2.181
		c-9.078,18.941-5.79,42.371,9.882,58.046l74.028,74.027c9.616,9.615,22.402,14.911,36.002,14.911c13.599,0,26.385-5.296,36-14.911
		l5.103-5.102C317.267,277.921,322.562,265.135,322.562,251.534 M198.859,235.151c-1.566,0-3.039-0.61-4.146-1.717l-29.049-29.048
		c-2.285-2.287-2.284-6.007,0.001-8.292l46.515-46.516c1.107-1.107,2.58-1.717,4.146-1.717c1.566,0,3.039,0.61,4.146,1.717
		l29.048,29.049c2.285,2.286,2.285,6.006-0.001,8.292l-46.514,46.515C201.897,234.541,200.425,235.151,198.859,235.151
		 M228.229,255.09l-0.486-0.486c-7.062-7.061-7.062-18.547-0.003-25.607l17.229-17.228c3.419-3.418,7.965-5.301,12.801-5.301
		s9.383,1.883,12.803,5.3l0.492,0.495c3.415,3.415,5.298,7.961,5.299,12.797c0,4.836-1.883,9.382-5.303,12.802l-17.227,17.228
		c-3.42,3.42-7.966,5.302-12.803,5.302C236.195,260.392,231.649,258.51,228.229,255.09 M284.405,285.66
		c-3.419,3.42-7.965,5.304-12.802,5.304c-4.836,0-9.383-1.884-12.803-5.304l-0.485-0.482c-7.061-7.064-7.061-18.551-0.004-25.611
		l17.229-17.225c3.42-3.42,7.966-5.303,12.803-5.303c4.835,0,9.382,1.883,12.802,5.303l0.489,0.489
		c7.057,7.058,7.057,18.544-0.001,25.602l-10.255,10.254c0,0.001-0.001,0.001-0.001,0.001v0.001L284.405,285.66z"/>
	<path style="fill:#FFFFFF;" d="M274.642,283.537c-3.252-0.719-6.346-2.323-8.87-4.849l-0.487-0.486
		c-2.463-2.463-4.114-5.515-4.854-8.833c-1.043,3.739-0.104,7.92,2.83,10.855l0.484,0.483c2.101,2.101,4.891,3.257,7.858,3.257
		C272.646,283.964,273.665,283.813,274.642,283.537"/>
	<path style="fill:#FFFFFF;" d="M296.682,247.779l-0.489-0.489c-2.096-2.096-4.885-3.251-7.851-3.251
		c-2.967,0-5.756,1.155-7.853,3.252l-10.251,10.25c-0.002,0.001-0.003,0.003-0.005,0.005c-2.097,2.097-3.252,4.886-3.252,7.853
		c0,2.966,1.155,5.754,3.252,7.852l0.488,0.486c4.329,4.331,11.37,4.329,15.701,0.007l10.26-10.26
		C301.012,259.154,301.012,252.109,296.682,247.779"/>
	<path style="fill:#FFFFFF;" d="M235.201,248.117l-0.488-0.488c-2.463-2.462-4.114-5.515-4.853-8.833
		c-1.044,3.739-0.106,7.921,2.83,10.856l0.486,0.485c2.1,2.1,4.888,3.255,7.855,3.255c1.033,0,2.042-0.148,3.01-0.42
		C240.72,252.234,237.665,250.582,235.201,248.117"/>
	<path style="fill:#FFFFFF;" d="M239.663,226.977c-2.098,2.097-3.253,4.885-3.253,7.85c0,2.966,1.156,5.755,3.254,7.853l0.488,0.488
		c2.097,2.098,4.885,3.253,7.851,3.253c2.967,0,5.756-1.155,7.853-3.253c0,0,0.002-0.002,0.003-0.003l10.252-10.252
		c2.098-2.097,3.253-4.886,3.253-7.853c0-2.966-1.155-5.754-3.252-7.852l-0.492-0.493c-2.094-2.093-4.883-3.247-7.85-3.247
		c-2.966,0-5.755,1.154-7.852,3.251l-10.241,10.24C239.672,226.965,239.668,226.971,239.663,226.977"/>
	<polygon style="fill:#FFFFFF;" points="201.626,212.551 188.628,199.553 185.957,202.223 186.734,211.179 190.522,211.602 
		190.139,207.196 198.559,215.616 	"/>
	<path style="fill:#FFFFFF;" d="M203.579,209.555c0.152,0.119,0.287,0.253,0.402,0.369c0.948,0.947,1.588,2.314,1.561,3.307
		l0.695,0.695c1.653-2.039,1.192-5.401-1.029-7.623c-1.43-1.43-3.231-1.714-4.318-0.625c-0.874,0.873-0.836,2.264,0.149,3.248
		C201.85,209.739,202.652,209.979,203.579,209.555"/>
	<path style="fill:#FFFFFF;" d="M216.647,197.528l-3.186-3.187l-3.908,3.908c0.607-5.163-0.015-7.632-1.773-9.39
		c-2.569-2.568-6.252-2.594-9.006,0.16c-1.467,1.467-2.686,3.844-2.376,6.625c1.427,0.274,2.633,0.457,4.079,0.749
		c0.014-1.636,0.471-3.057,1.607-4.195c0.793-0.792,1.83-0.941,2.563-0.207c1.062,1.061,1.126,2.081,0.383,11.361l2.896,2.898
		L216.647,197.528z"/>
	<path style="fill:#FFFFFF;" d="M227.631,176.192l5.176,5.177l2.703-2.704l-6.682-6.683c-1.603-1.603-3.685-2.07-5.418-0.339
		c-1.631,1.632-1.652,3.392-1.365,4.767c-1.318-0.692-2.789-0.613-4.059,0.657c-1.368,1.368-1.681,3.034-1.416,4.354l-1.216-1.217
		l-2.704,2.704l9.309,9.308l2.703-2.703l-4.693-4.693c-1.391-1.391-1.349-2.668-0.608-3.41c0.809-0.809,1.745-0.895,2.845,0.207
		l5.177,5.176l2.703-2.705l-4.692-4.692c0,0-2.075-1.943-0.608-3.41C225.594,175.177,226.529,175.091,227.631,176.192"/>
	<path style="fill:#FFFFFF;" d="M167.527,136.438c-2.095,1.538-4.074,3.236-5.907,5.069l-5.102,5.102
		c-2.343,2.343-4.452,4.906-6.294,7.648l3.542,3.54c2.345,2.346,5.463,3.638,8.78,3.638c3.316,0,6.434-1.291,8.779-3.637
		c2.346-2.345,3.637-5.464,3.637-8.782c0.001-3.316-1.291-6.433-3.636-8.777L167.527,136.438z"/>
	<polygon style="fill:#FFFFFF;" points="138.217,108.501 108.506,138.212 140.065,140.059 	"/>
	<polygon style="fill:#FFFFFF;" points="45.938,45.933 46.505,76.21 76.216,46.499 	"/>
	<path style="fill:#FFFFFF;" d="M118.021,117.992c1.869-1.87,1.869-4.901-0.001-6.771l-7.004-7.003c-1.871-1.872-4.901-1.871-6.77,0
		c-1.871,1.869-1.871,4.9-0.001,6.77l7.004,7.004C113.119,119.863,116.151,119.863,118.021,117.992"/>
	<path style="fill:#FFFFFF;" d="M91.799,85.001c-1.87-1.87-4.901-1.87-6.771-0.002c-1.87,1.871-1.87,4.902,0,6.774l7.005,7.003
		c1.87,1.871,4.901,1.871,6.771,0c1.87-1.869,1.87-4.901,0-6.771L91.799,85.001z"/>
	<path style="fill:#FFFFFF;" d="M72.584,65.784c-1.871-1.87-4.902-1.87-6.771,0c-1.871,1.869-1.871,4.901,0,6.772l7.004,7.004
		c1.87,1.869,4.902,1.871,6.772,0c1.87-1.87,1.869-4.902-0.001-6.771L72.584,65.784z"/>
</g>
</svg>
