<?xml version="1.0" encoding="iso-8859-1"?>
<!-- Generator: Adobe Illustrator 25.4.1, SVG Export Plug-In . SVG Version: 6.00 Build 0)  -->
<svg version="1.1" id="Calque_1" xmlns="http://www.w3.org/2000/svg" xmlns:xlink="http://www.w3.org/1999/xlink" x="0px" y="0px"
	 viewBox="0 0 368.5 368.5" style="enable-background:new 0 0 368.5 368.5;" xml:space="preserve">
<g>
	<path style="fill:#FFFFFF;" d="M85.847,293.619c7.484,0,9-6.068,9-13.559v-18.132h-18v18.132
		C76.847,287.551,78.353,293.619,85.847,293.619"/>
	<path style="fill:#FFFFFF;" d="M293.794,280.061v-18.132h-18v18.132c0,7.491,1.511,13.559,8.998,13.559
		C292.283,293.62,293.794,287.552,293.794,280.061"/>
	<path style="fill:#FFFFFF;" d="M181.25,74.891H47.83c-2.34,0-4.245,1.903-4.245,4.24v171.663c0,2.34,1.905,4.247,4.245,4.247
		h133.42V74.891z M144.318,173.103c-4.494,0-8.137-3.642-8.137-8.137s3.643-8.136,8.137-8.136c4.494,0,8.137,3.641,8.137,8.136
		S148.812,173.103,144.318,173.103"/>
	<path style="fill:#FFFFFF;" d="M327.05,250.793v-81.761H189.387v86.009h133.42C325.147,255.041,327.05,253.133,327.05,250.793
		 M253.449,200.213c-4.496,0-8.137-3.643-8.137-8.137c0-4.496,3.641-8.136,8.137-8.136c4.487,0,8.137,3.64,8.137,8.136
		C261.586,196.57,257.936,200.213,253.449,200.213"/>
	<path style="fill:#FFFFFF;" d="M189.387,160.896H327.05V79.132c0-2.337-1.903-4.241-4.243-4.241h-133.42V160.896z M253.449,94.223
		c4.487,0,8.137,3.643,8.137,8.134c0,4.494-3.65,8.137-8.137,8.137c-4.496,0-8.137-3.643-8.137-8.137
		C245.312,97.866,248.953,94.223,253.449,94.223"/>
</g>
</svg>
