<?xml version="1.0" encoding="iso-8859-1"?>
<!-- Generator: Adobe Illustrator 25.4.1, SVG Export Plug-In . SVG Version: 6.00 Build 0)  -->
<svg version="1.1" id="Calque_1" xmlns="http://www.w3.org/2000/svg" xmlns:xlink="http://www.w3.org/1999/xlink" x="0px" y="0px"
	 viewBox="0 0 368.5 368.5" style="enable-background:new 0 0 368.5 368.5;" xml:space="preserve">
<g>
	<path style="fill:#FFFFFF;" d="M98.036,325.991c6.567,0,11.9-5.324,11.9-11.897v-15.911h-23.8v15.911
		C86.136,320.667,91.461,325.991,98.036,325.991"/>
	<path style="fill:#FFFFFF;" d="M284.505,314.094v-15.911h-23.799v15.911c0,6.573,5.328,11.897,11.897,11.897
		C279.177,325.991,284.505,320.667,284.505,314.094"/>
	<path style="fill:#FFFFFF;" d="M181.749,134.064H64.677c-2.053,0-3.725,1.67-3.725,3.721v150.628c0,2.053,1.672,3.727,3.725,3.727
		h117.072V134.064z M149.342,220.242c-3.943,0-7.14-3.196-7.14-7.14s3.197-7.139,7.14-7.139c3.943,0,7.14,3.195,7.14,7.139
		S153.285,220.242,149.342,220.242"/>
	<path style="fill:#FFFFFF;" d="M309.683,288.413v-71.744H188.889v75.47h117.072C308.014,292.139,309.683,290.466,309.683,288.413
		 M245.101,244.03c-3.945,0-7.14-3.197-7.14-7.14c0-3.945,3.195-7.139,7.14-7.139c3.937,0,7.14,3.194,7.14,7.139
		C252.241,240.833,249.038,244.03,245.101,244.03"/>
	<path style="fill:#FFFFFF;" d="M188.889,209.53h120.794v-71.745c0-2.05-1.669-3.721-3.722-3.721H188.889V209.53z M245.101,151.027
		c3.937,0,7.14,3.196,7.14,7.138c0,3.943-3.203,7.139-7.14,7.139c-3.945,0-7.14-3.196-7.14-7.139
		C237.961,154.223,241.156,151.027,245.101,151.027"/>
	<path style="fill:#FFFFFF;" d="M123.084,61.638v34.065c0,3.284,2.664,5.948,5.948,5.948c3.288,0,5.952-2.664,5.952-5.948V61.638
		c0-3.979,3.237-7.216,7.218-7.216c3.979,0,7.218,3.237,7.218,7.216c0,3.289,2.666,5.952,5.952,5.952
		c3.281,0,5.948-2.663,5.948-5.952c0-10.538-8.578-19.112-19.118-19.112C131.66,42.526,123.084,51.1,123.084,61.638"/>
	<path style="fill:#FFFFFF;" d="M101.479,126.394h82.319h3.044h82.317c3.725,0,6.745-3.02,6.745-6.745v-5.383
		c0-3.729-3.02-6.746-6.745-6.746h-167.68c-3.723,0-6.745,3.017-6.745,6.746v5.383C94.733,123.374,97.755,126.394,101.479,126.394"
		/>
</g>
</svg>
