<?xml version="1.0" encoding="iso-8859-1"?>
<!-- Generator: Adobe Illustrator 25.4.1, SVG Export Plug-In . SVG Version: 6.00 Build 0)  -->
<svg version="1.1" id="Calque_1" xmlns="http://www.w3.org/2000/svg" xmlns:xlink="http://www.w3.org/1999/xlink" x="0px" y="0px"
	 viewBox="0 0 368.5 368.5" style="enable-background:new 0 0 368.5 368.5;" xml:space="preserve">
<g>
	<path style="fill:#FFFFFF;" d="M195.84,170.249v5.897h102.11c0.182-0.029,0.367-0.047,0.555-0.054
		c14.654-0.515,26.131-12.201,26.131-26.604v-2.274c0-14.404-11.477-26.09-26.131-26.603c-0.19-0.007-0.377-0.026-0.56-0.055
		l-102.105,0.017v32.46V170.249z M270.247,160.372c-0.442,1.597-1.893,2.643-3.474,2.643c-0.318,0-0.644-0.042-0.967-0.132
		c-1.92-0.533-3.044-2.522-2.51-4.442l6.767-24.378c0.532-1.919,2.524-3.043,4.441-2.511c1.92,0.534,3.044,2.522,2.51,4.442
		L270.247,160.372z M284.149,160.372c-0.444,1.597-1.894,2.643-3.474,2.643c-0.319,0-0.645-0.042-0.967-0.132
		c-1.92-0.534-3.044-2.523-2.511-4.442l6.772-24.378c0.534-1.919,2.521-3.038,4.442-2.511c1.92,0.534,3.044,2.523,2.51,4.442
		L284.149,160.372z M304.828,135.994l-6.772,24.378c-0.444,1.597-1.894,2.643-3.474,2.643c-0.319,0-0.645-0.042-0.967-0.132
		c-1.921-0.534-3.045-2.523-2.511-4.442l6.772-24.378c0.534-1.919,2.521-3.038,4.442-2.511
		C304.238,132.086,305.362,134.075,304.828,135.994"/>
	<path style="fill:#FFFFFF;" d="M112.504,120.586c-1.337-0.219-2.697-0.369-4.077-0.456c-0.591,0.286-1.247,0.461-1.948,0.461
		c-19.879,0-36.051,16.12-36.051,35.935v16.741c10.661-3.751,23.427-5.922,36.904-5.922c12.768,0,24.892,1.952,35.198,5.345v-16.164
		c0-8.793-3.218-17.254-9.062-23.823c-1.654-1.861-1.488-4.712,0.374-6.368c1.86-1.655,4.711-1.487,6.367,0.373
		c7.314,8.224,11.341,18.812,11.341,29.818v19.62h38.878v-5.818v-17.373v-32.379L112.504,120.586z"/>
	<path style="fill:#FFFFFF;" d="M91.352,206.75c-0.998-0.62-1.855-1.312-2.589-2.054c-4.435,1.489-8.13,3.593-10.373,6.276
		c3.493,2.379,7.923,4.334,12.962,5.657V206.75z"/>
	<path style="fill:#FFFFFF;" d="M133.53,185.454c-6.694-4.173-16.417-6.854-27.04-6.854c-11.171,0-21.351,2.965-28.054,7.514
		c8.787-2.28,18.611-3.576,28.897-3.576C116.579,182.538,125.448,183.588,133.53,185.454"/>
	<path style="fill:#FFFFFF;" d="M120.682,216.885c5.3-1.288,9.967-3.27,13.637-5.715c-2.193-2.739-5.891-4.886-10.351-6.408
		c-0.901,0.9-1.998,1.722-3.286,2.437V216.885z"/>
	<path style="fill:#FFFFFF;" d="M94.96,203.094v15.943c0,6.098,4.959,11.058,11.055,11.058c6.099,0,11.06-4.96,11.06-11.058v-16.04
		c-3.491-0.633-7.176-0.957-10.804-0.957C102.466,202.04,98.6,202.398,94.96,203.094"/>
	<path style="fill:#FFFFFF;" d="M142.531,175.599c-7.284-2.488-15.55-4.245-24.284-5.054c-3.573-0.331-7.222-0.507-10.914-0.507
		c-5.148,0-10.212,0.34-15.099,0.972c-7.866,1.018-15.266,2.803-21.806,5.192c-8.71,3.181-15.892,7.428-20.585,12.359
		c5.813-3.948,12.796-7.196,20.585-9.66c1.535-0.486,3.092-0.95,4.687-1.373c9.834-2.606,20.774-4.009,32.218-4.009
		c10.33,0,20.242,1.152,29.309,3.291c2.005,0.473,3.972,0.99,5.889,1.559c8.482,2.518,16.056,5.957,22.292,10.193
		C159.827,183.313,152.011,178.837,142.531,175.599"/>
	<path style="fill:#FFFFFF;" d="M138.575,189.476c-9.289-2.687-19.974-4.245-31.242-4.245c-12.222,0-23.76,1.831-33.571,4.951
		c-17.806,5.662-29.898,15.585-29.898,26.618c0,17.113,29.065,31.57,63.469,31.57s63.469-14.457,63.469-31.57
		C170.802,205.292,157.648,194.993,138.575,189.476 M106.271,234.729c-16.354,0-32.91-6.076-32.91-17.689
		c0-2.912,1.042-5.476,2.859-7.684c2.433-2.954,6.26-5.267,10.842-6.923c2.449-0.885,5.113-1.58,7.898-2.086
		c3.639-0.66,7.479-0.998,11.311-0.998c3.654,0,7.316,0.305,10.803,0.906c3.051,0.525,5.962,1.28,8.616,2.256
		c4.605,1.694,8.425,4.059,10.81,7.076c1.704,2.156,2.682,4.64,2.682,7.453C139.182,228.653,122.625,234.729,106.271,234.729"/>
</g>
</svg>
