<?xml version="1.0" encoding="iso-8859-1"?>
<!-- Generator: Adobe Illustrator 25.4.1, SVG Export Plug-In . SVG Version: 6.00 Build 0)  -->
<svg version="1.1" id="Calque_1" xmlns="http://www.w3.org/2000/svg" xmlns:xlink="http://www.w3.org/1999/xlink" x="0px" y="0px"
	 viewBox="0 0 368.5 368.5" style="enable-background:new 0 0 368.5 368.5;" xml:space="preserve">
<g>
	<path style="fill:#FFFFFF;" d="M78.057,51.935v264.64c0,5.202,4.215,9.416,9.409,9.416h57.256c0.002-0.02,0.005-0.034,0.006-0.054
		h-0.043v-60.854c0-9.164,7.434-16.59,16.597-16.59h42.046c9.164,0,16.592,7.426,16.592,16.59v39.163h-4.309
		c-4.001,0-7.43,2.282-9.155,5.603h-9.137c-4.326,0-7.843,3.515-7.843,7.844l-0.005,8.298h4.745l0.002-8.298
		c0-1.712,1.387-3.101,3.101-3.101h7.939c0,5.705,4.635,10.345,10.353,10.345h45.681c5.713,0,10.35-4.64,10.35-10.345h7.941
		c1.709,0,3.101,1.384,3.101,3.101l0.005,8.132c4.41-0.778,7.772-4.608,7.772-9.25V51.935c0-5.194-4.216-9.409-9.408-9.409H87.466
		C82.272,42.526,78.057,46.741,78.057,51.935 M197.454,240.005c0,1.971-1.612,3.572-3.578,3.572h-21.832
		c-1.969,0-3.572-1.601-3.572-3.572v-0.519c0-1.971,1.603-3.573,3.572-3.573h21.832c1.966,0,3.578,1.602,3.578,3.573V240.005z
		 M173.639,232.183v-5.29c0-0.86,0.697-1.554,1.553-1.554h15.531c0.864,0,1.558,0.694,1.558,1.554v5.29H173.639z M267.809,314.592
		c0,3.597-2.92,6.517-6.517,6.517h-45.681c-3.605,0-6.523-2.92-6.523-6.517c0-3.603,2.918-6.523,6.523-6.523h45.681
		C264.889,308.069,267.809,310.989,267.809,314.592 M228.448,229.53c0,2.292-1.856,4.155-4.148,4.155
		c-2.291,0-4.148-1.863-4.148-4.155c0-5.158-4.201-9.365-9.364-9.365h-46.904c-2.294,0-4.149-1.858-4.149-4.15
		c0-2.292,1.855-4.147,4.149-4.147h46.904C220.524,211.868,228.448,219.792,228.448,229.53 M122.366,141.027l53.183-65.704
		c2.095-2.589,5.898-2.988,8.485-0.896c2.59,2.098,2.991,5.9,0.895,8.488l-53.183,65.705c-1.197,1.475-2.937,2.237-4.698,2.237
		c-1.332,0-2.674-0.438-3.792-1.341C120.667,147.416,120.266,143.616,122.366,141.027 M95.776,221.684l53.19-65.696
		c2.1-2.595,5.896-2.987,8.488-0.897c2.595,2.1,2.99,5.901,0.894,8.491l-53.185,65.695c-1.19,1.472-2.935,2.239-4.691,2.239
		c-1.34,0-2.681-0.44-3.797-1.345C94.084,228.075,93.685,224.273,95.776,221.684"/>
	<path style="fill:#FFFFFF;" d="M158.152,296.051c2.287,0,4.147-1.849,4.147-4.148v-25.201c0-2.291-1.86-4.147-4.147-4.147
		c-2.292,0-4.155,1.856-4.155,4.147v25.201C153.997,294.202,155.86,296.051,158.152,296.051"/>
</g>
</svg>
