<?xml version="1.0" encoding="iso-8859-1"?>
<!-- Generator: Adobe Illustrator 25.4.1, SVG Export Plug-In . SVG Version: 6.00 Build 0)  -->
<svg version="1.1" id="Calque_1" xmlns="http://www.w3.org/2000/svg" xmlns:xlink="http://www.w3.org/1999/xlink" x="0px" y="0px"
	 viewBox="0 0 368.5 368.5" style="enable-background:new 0 0 368.5 368.5;" xml:space="preserve">
<g>
	<path style="fill:#FFFFFF;" d="M170.78,325.987h79.693V135.502l-33.166,40.983c-0.91,1.125-2.242,1.709-3.586,1.709
		c-1.018,0-2.042-0.335-2.896-1.027c-1.979-1.6-2.285-4.502-0.683-6.482l39.965-49.384c0.112-0.137,0.243-0.249,0.366-0.37V42.523
		h-35.79c-0.131,0.243-0.279,0.479-0.459,0.702l-39.976,49.387c-0.911,1.125-2.242,1.709-3.586,1.709
		c-1.018,0-2.043-0.334-2.897-1.026c-1.978-1.601-2.284-4.504-0.682-6.483l35.848-44.289h-82.729v283.464h38.718l30.318-37.455
		c1.604-1.979,4.506-2.284,6.483-0.683c1.978,1.603,2.284,4.505,0.683,6.485L170.78,325.987z M166.745,143.262
		c-0.911,1.125-2.243,1.709-3.586,1.709c-1.019,0-2.044-0.335-2.897-1.026c-1.978-1.602-2.284-4.504-0.683-6.484l39.98-49.387
		c1.604-1.979,4.507-2.284,6.483-0.682c1.978,1.602,2.284,4.505,0.683,6.482L166.745,143.262z"/>
</g>
</svg>
