<?xml version="1.0" encoding="iso-8859-1"?>
<!-- Generator: Adobe Illustrator 25.4.1, SVG Export Plug-In . SVG Version: 6.00 Build 0)  -->
<svg version="1.1" id="Calque_1" xmlns="http://www.w3.org/2000/svg" xmlns:xlink="http://www.w3.org/1999/xlink" x="0px" y="0px"
	 viewBox="0 0 368.5 368.5" style="enable-background:new 0 0 368.5 368.5;" xml:space="preserve">
<g>
	<path style="fill:#FFFFFF;" d="M287.017,307.284V61.225c0-10.31-8.507-18.702-18.962-18.702H100.504
		c-10.457,0-18.964,8.392-18.964,18.702v246.059c0,10.313,8.507,18.704,18.964,18.704h167.551
		C278.51,325.987,287.017,317.596,287.017,307.284 M268.055,317.87H100.504c-5.981,0-10.847-4.749-10.847-10.587V61.225
		c0-5.836,4.866-10.585,10.847-10.585h167.551c5.98,0,10.845,4.749,10.845,10.585v246.059
		C278.9,313.121,274.035,317.87,268.055,317.87"/>
	<path style="fill:#FFFFFF;" d="M159.119,289.796h89.401V152.477l-34.179,34.178c-0.791,0.794-1.831,1.189-2.869,1.189
		c-1.039,0-2.078-0.395-2.87-1.189c-1.585-1.584-1.585-4.154,0-5.739l39.859-39.859c0.018-0.017,0.04-0.029,0.059-0.047V78.266
		h-36.622c-0.172,0.297-0.372,0.583-0.626,0.838l-39.859,39.858c-0.792,0.794-1.831,1.19-2.87,1.19c-1.038,0-2.077-0.396-2.869-1.19
		c-1.585-1.584-1.585-4.154,0-5.738l34.958-34.958h-82.815v211.53h29.872c0.075-0.09,0.136-0.186,0.22-0.27l39.855-39.863
		c1.585-1.585,4.155-1.584,5.74,0c1.585,1.585,1.585,4.154,0.001,5.739L159.119,289.796z M163.936,159.838
		c-0.792,0.793-1.831,1.19-2.87,1.19c-1.038,0-2.076-0.397-2.869-1.19c-1.585-1.584-1.585-4.155,0-5.739l39.857-39.859
		c1.583-1.585,4.153-1.585,5.739,0c1.585,1.585,1.585,4.156,0,5.738L163.936,159.838z"/>
</g>
</svg>
