<?xml version="1.0" encoding="iso-8859-1"?>
<!-- Generator: Adobe Illustrator 25.4.1, SVG Export Plug-In . SVG Version: 6.00 Build 0)  -->
<svg version="1.1" id="Calque_1" xmlns="http://www.w3.org/2000/svg" xmlns:xlink="http://www.w3.org/1999/xlink" x="0px" y="0px"
	 viewBox="0 0 368.5 368.5" style="enable-background:new 0 0 368.5 368.5;" xml:space="preserve">
<g>
	<path style="fill:#FFFFFF;" d="M277.572,202.359l-11.39-15.613h-16.353l19.865,27.229
		C272.336,210.291,274.985,206.405,277.572,202.359"/>
	<path style="fill:#FFFFFF;" d="M308.212,262.159c1.415,0,2.765-0.443,3.905-1.282c1.422-1.044,2.352-2.58,2.618-4.323
		c0.267-1.745-0.161-3.488-1.206-4.908l-23.382-32.05c-2.698,3.973-5.41,7.759-8.084,11.332l20.821,28.542
		c1.236,1.681,3.228,2.689,5.323,2.689v1.5L308.212,262.159z"/>
	<path style="fill:#FFFFFF;" d="M314.921,177.487c0-0.909-0.199-1.77-0.547-2.55c-1.185,2.809-2.435,5.643-3.745,8.486
		C313.119,182.595,314.921,180.249,314.921,177.487"/>
	<path style="fill:#FFFFFF;" d="M239.877,183.746h48.38c2.13-4.173,4.114-8.372,5.944-12.524h-54.324
		c-3.454,0-6.264,2.81-6.264,6.265C233.613,180.937,236.423,183.746,239.877,183.746"/>
	<path style="fill:#FFFFFF;" d="M325.316,103.686c-0.432-0.082-0.875-0.124-1.31-0.124c-3.354,0-6.244,2.398-6.869,5.7l-0.084,0.416
		c-0.053,0.272-0.145,0.717-0.265,1.299c-0.245,1.161-0.616,2.877-1.132,5.066c-0.929,3.974-2.514,10.334-4.789,18.047
		c-3.979,13.511-10.847,33.679-20.963,53.026c-18.987,36.408-48.634,65.198-48.931,65.485l-0.22,0.215l-0.001-0.001
		c-0.022,0.023-0.043,0.045-0.066,0.067c-1.35,1.292-2.116,3.032-2.158,4.902c-0.04,1.869,0.649,3.642,1.941,4.991
		c1.335,1.395,3.131,2.162,5.059,2.162c1.812,0,3.53-0.69,4.839-1.945c0.045-0.045,0.11-0.109,0.195-0.192
		c5.32-5.218,32.816-33.075,51.749-69.199c18.863-36.159,27.076-74.236,28.531-81.503c0.039-0.188,0.061-0.294,0.066-0.317
		C331.61,108.077,329.109,104.407,325.316,103.686 M279.411,219.238c-1.192,0-2.162-0.97-2.162-2.161
		c0-1.193,0.97-2.162,2.162-2.162c1.191,0,2.16,0.969,2.16,2.162C281.571,218.268,280.602,219.238,279.411,219.238 M303.739,177.746
		c0,1.244-1.015,2.257-2.259,2.257c-1.245,0-2.258-1.013-2.258-2.257c0-1.247,1.013-2.259,2.258-2.259
		C302.724,175.487,303.739,176.499,303.739,177.746"/>
	<path style="fill:#FFFFFF;" d="M102.305,186.746l-11.391,15.613c2.588,4.048,5.238,7.934,7.879,11.617l19.865-27.23H102.305z"/>
	<path style="fill:#FFFFFF;" d="M78.34,219.596l-23.379,32.046c-1.049,1.425-1.476,3.168-1.21,4.912
		c0.267,1.743,1.196,3.279,2.617,4.322c1.142,0.84,2.493,1.283,3.906,1.283h0.005c2.096,0,4.087-1.007,5.328-2.693l20.818-28.536
		C83.751,227.356,81.036,223.57,78.34,219.596"/>
	<path style="fill:#FFFFFF;" d="M57.857,183.423c-1.309-2.843-2.558-5.676-3.743-8.484c-0.35,0.779-0.547,1.64-0.547,2.548
		C53.567,180.249,55.369,182.595,57.857,183.423"/>
	<path style="fill:#FFFFFF;" d="M128.61,171.222H74.286c1.829,4.152,3.814,8.351,5.943,12.524h48.381
		c3.454,0,6.265-2.808,6.265-6.258C134.875,174.033,132.064,171.222,128.61,171.222"/>
	<path style="fill:#FFFFFF;" d="M78.582,187.115c-10.114-19.343-16.981-39.512-20.962-53.025c-2.267-7.682-3.856-14.055-4.79-18.05
		c-0.515-2.187-0.887-3.903-1.129-5.061c-0.122-0.58-0.214-1.024-0.268-1.314l-0.08-0.389c-0.629-3.316-3.517-5.713-6.871-5.713
		c-0.437,0-0.878,0.042-1.311,0.124c-3.791,0.72-6.291,4.387-5.574,8.175c0.006,0.03,0.023,0.113,0.047,0.228
		c1.452,7.263,9.653,45.323,28.534,81.515c18.931,36.121,46.427,63.977,51.747,69.195c0.085,0.083,0.15,0.148,0.195,0.192
		c1.309,1.255,3.028,1.946,4.839,1.946c1.928,0,3.725-0.768,5.059-2.162c1.292-1.35,1.981-3.122,1.94-4.991
		c-0.041-1.871-0.807-3.611-2.156-4.903c-0.012-0.011-0.025-0.024-0.036-0.035l-0.263-0.257
		C127.218,252.315,97.579,223.54,78.582,187.115 M64.748,177.746c0-1.246,1.014-2.258,2.259-2.258c1.246,0,2.259,1.012,2.259,2.258
		c0,1.245-1.013,2.257-2.259,2.257C65.762,180.003,64.748,178.991,64.748,177.746 M86.916,217.077c0-1.192,0.969-2.162,2.16-2.162
		c1.193,0,2.163,0.97,2.163,2.162c0,1.192-0.97,2.161-2.163,2.161C87.885,219.238,86.916,218.269,86.916,217.077"/>
	<path style="fill:#FFFFFF;" d="M208.303,250.119l-15.219-4.38c-0.099,0.021-0.205,0.033-0.311,0.033h-18.214
		c-0.199,0-0.389-0.041-0.563-0.111l-15.272,4.468c-4.537,1.516-6.409,3.273-6.409,6.05c0,3.303,2.686,5.988,5.989,5.988h50.453
		c3.303,0,5.989-2.685,5.989-5.988C214.746,253.332,212.879,251.577,208.303,250.119"/>
	<rect x="176.059" y="147.688" style="fill:#FFFFFF;" width="15.214" height="95.084"/>
	<path style="fill:#FFFFFF;" d="M120.672,144.688h125.7c3.668,0,6.654-2.983,6.654-6.651c0-3.668-2.986-6.653-6.654-6.653h-125.7
		c-3.669,0-6.654,2.985-6.654,6.653C114.018,141.705,117.003,144.688,120.672,144.688"/>
</g>
</svg>
