<?xml version="1.0" encoding="iso-8859-1"?>
<!-- Generator: Adobe Illustrator 25.4.1, SVG Export Plug-In . SVG Version: 6.00 Build 0)  -->
<svg version="1.1" id="Calque_1" xmlns="http://www.w3.org/2000/svg" xmlns:xlink="http://www.w3.org/1999/xlink" x="0px" y="0px"
	 viewBox="0 0 368.5 368.5" style="enable-background:new 0 0 368.5 368.5;" xml:space="preserve">
<g>
	<path style="fill:#FFFFFF;" d="M115.326,165.869h1.324l-12.227-40.551c-1.772,1.19-3.753,2.132-5.906,2.771
		c-1.837,0.545-3.729,0.829-5.634,0.871l11.954,39.641C107.946,166.867,111.52,165.869,115.326,165.869"/>
	<path style="fill:none;stroke:#FFFFFF;stroke-width:1.965;stroke-miterlimit:10;" d="M115.326,165.869h1.324l-12.227-40.551
		c-1.772,1.19-3.753,2.132-5.906,2.771c-1.837,0.545-3.729,0.829-5.634,0.871l11.954,39.641
		C107.946,166.867,111.52,165.869,115.326,165.869z"/>
	<path style="fill:#FFFFFF;" d="M96.07,119.803c6.862-2.03,10.783-9.237,8.753-16.104L89.483,51.825
		c-1.669-5.637-6.826-9.289-12.421-9.289c-1.217,0-2.456,0.171-3.684,0.536c-3.862,1.138-6.789,3.92-8.251,7.358
		c-1.14,2.673-1.389,5.743-0.503,8.742l15.34,51.878c1.667,5.637,6.83,9.288,12.425,9.288
		C93.605,120.338,94.841,120.168,96.07,119.803"/>
	<path style="fill:none;stroke:#FFFFFF;stroke-width:1.965;stroke-miterlimit:10;" d="M96.07,119.803
		c6.862-2.03,10.783-9.237,8.753-16.104L89.483,51.825c-1.669-5.637-6.826-9.289-12.421-9.289c-1.217,0-2.456,0.171-3.684,0.536
		c-3.862,1.138-6.789,3.92-8.251,7.358c-1.14,2.673-1.389,5.743-0.503,8.742l15.34,51.878c1.667,5.637,6.83,9.288,12.425,9.288
		C93.605,120.338,94.841,120.168,96.07,119.803z"/>
	<path style="fill:#FFFFFF;" d="M228.921,209.068l-41.346,26.479l11.218,7.18l37.858-24.242c2.812-1.803,3.633-5.545,1.833-8.358
		c-0.258-0.395-0.556-0.741-0.879-1.059H228.921z"/>
	<path style="fill:none;stroke:#FFFFFF;stroke-width:1.965;stroke-miterlimit:10;" d="M228.921,209.068l-41.346,26.479l11.218,7.18
		l37.858-24.242c2.812-1.803,3.633-5.545,1.833-8.358c-0.258-0.395-0.556-0.741-0.879-1.059H228.921z"/>
	<path style="fill:#FFFFFF;" d="M160.34,252.988l-60.632,38.824l0.397,0.833c1.567-0.885,3.37-1.395,5.293-1.395
		c3.957,0,7.415,2.145,9.297,5.327l2.456-1.572c0.123-0.284,0.274-0.556,0.475-0.785c1.57-4.033,5.495-6.9,10.076-6.9
		c0.445,0,0.881,0.035,1.311,0.089l42.54-27.243L160.34,252.988z"/>
	<path style="fill:none;stroke:#FFFFFF;stroke-width:1.965;stroke-miterlimit:10;" d="M160.34,252.988l-60.632,38.824l0.397,0.833
		c1.567-0.885,3.37-1.395,5.293-1.395c3.957,0,7.415,2.145,9.297,5.327l2.456-1.572c0.123-0.284,0.274-0.556,0.475-0.785
		c1.57-4.033,5.495-6.9,10.076-6.9c0.445,0,0.881,0.035,1.311,0.089l42.54-27.243L160.34,252.988z"/>
	<path style="fill:#FFFFFF;" d="M259.515,291.876l-129.307-82.808h-8.672c-0.323,0.318-0.633,0.66-0.887,1.063
		c-1.803,2.809-0.982,6.551,1.832,8.354l111.636,71.167c1.841-1.454,4.159-2.331,6.681-2.331c4.583,0,8.509,2.864,10.08,6.898
		c0.454,0.52,0.731,1.199,0.731,1.943v4.64l0.731,0.466C252.656,296.915,255.557,293.277,259.515,291.876"/>
	<path style="fill:none;stroke:#FFFFFF;stroke-width:1.965;stroke-miterlimit:10;" d="M259.515,291.876l-129.307-82.808h-8.672
		c-0.323,0.318-0.633,0.66-0.887,1.063c-1.803,2.809-0.982,6.551,1.832,8.354l111.636,71.167c1.841-1.454,4.159-2.331,6.681-2.331
		c4.583,0,8.509,2.864,10.08,6.898c0.454,0.52,0.731,1.199,0.731,1.943v4.64l0.731,0.466
		C252.656,296.915,255.557,293.277,259.515,291.876z"/>
	<path style="fill:#FFFFFF;" d="M102.433,186.146c-0.047,0.434-0.071,0.873-0.071,1.322c0,7.157,5.8,12.961,12.964,12.961h134.528
		c7.156,0,12.959-5.804,12.959-12.961c0-1.343-0.203-2.634-0.582-3.851c-1.638-5.279-6.563-9.106-12.377-9.106H115.326
		C108.614,174.511,103.095,179.609,102.433,186.146"/>
	<path style="fill:none;stroke:#FFFFFF;stroke-width:1.965;stroke-miterlimit:10;" d="M102.433,186.146
		c-0.047,0.434-0.071,0.873-0.071,1.322c0,7.157,5.8,12.961,12.964,12.961h134.528c7.156,0,12.959-5.804,12.959-12.961
		c0-1.343-0.203-2.634-0.582-3.851c-1.638-5.279-6.563-9.106-12.377-9.106H115.326C108.614,174.511,103.095,179.609,102.433,186.146
		z"/>
	<path style="fill:#FFFFFF;" d="M127.702,293.215c-2.708,0-4.912,2.203-4.912,4.912v22.962c0,2.709,2.204,4.912,4.912,4.912
		c2.708,0,4.912-2.203,4.912-4.912v-22.962C132.614,295.418,130.41,293.215,127.702,293.215"/>
	<path style="fill:none;stroke:#FFFFFF;stroke-width:1.965;stroke-miterlimit:10;" d="M127.702,293.215
		c-2.708,0-4.912,2.203-4.912,4.912v22.962c0,2.709,2.204,4.912,4.912,4.912c2.708,0,4.912-2.203,4.912-4.912v-22.962
		C132.614,295.418,130.41,293.215,127.702,293.215z"/>
	<path style="fill:#FFFFFF;" d="M105.399,297.145c-2.708,0-4.912,2.203-4.912,4.912v19.032c0,2.71,2.204,4.912,4.912,4.912
		c2.708,0,4.912-2.202,4.912-4.912v-19.032C110.311,299.348,108.107,297.145,105.399,297.145"/>
	<path style="fill:none;stroke:#FFFFFF;stroke-width:1.965;stroke-miterlimit:10;" d="M105.399,297.145
		c-2.708,0-4.912,2.203-4.912,4.912v19.032c0,2.71,2.204,4.912,4.912,4.912c2.708,0,4.912-2.202,4.912-4.912v-19.032
		C110.311,299.348,108.107,297.145,105.399,297.145z"/>
	<path style="fill:#FFFFFF;" d="M58.074,325.986c2.708,0,4.912-2.203,4.912-4.912v-13.136c0-2.709-2.204-4.912-4.912-4.912
		c-2.708,0-4.912,2.203-4.912,4.912v13.136C53.162,323.783,55.366,325.986,58.074,325.986"/>
	<path style="fill:none;stroke:#FFFFFF;stroke-width:1.965;stroke-miterlimit:10;" d="M58.074,325.986
		c2.708,0,4.912-2.203,4.912-4.912v-13.136c0-2.709-2.204-4.912-4.912-4.912c-2.708,0-4.912,2.203-4.912,4.912v13.136
		C53.162,323.783,55.366,325.986,58.074,325.986z"/>
	<path style="fill:#FFFFFF;" d="M80.961,299.096c-2.708,0-4.912,2.203-4.912,4.912v17.065c0,2.71,2.204,4.912,4.912,4.912
		c2.708,0,4.912-2.202,4.912-4.912v-17.065C85.873,301.299,83.669,299.096,80.961,299.096"/>
	<path style="fill:none;stroke:#FFFFFF;stroke-width:1.965;stroke-miterlimit:10;" d="M80.961,299.096
		c-2.708,0-4.912,2.203-4.912,4.912v17.065c0,2.71,2.204,4.912,4.912,4.912c2.708,0,4.912-2.202,4.912-4.912v-17.065
		C85.873,301.299,83.669,299.096,80.961,299.096z"/>
	<path style="fill:#FFFFFF;" d="M240.798,293.215c-2.707,0-4.908,2.203-4.908,4.912v22.962c0,2.709,2.201,4.912,4.908,4.912
		c2.71,0,4.916-2.203,4.916-4.912v-22.962C245.714,295.418,243.508,293.215,240.798,293.215"/>
	<path style="fill:none;stroke:#FFFFFF;stroke-width:1.965;stroke-miterlimit:10;" d="M240.798,293.215
		c-2.707,0-4.908,2.203-4.908,4.912v22.962c0,2.709,2.201,4.912,4.908,4.912c2.71,0,4.916-2.203,4.916-4.912v-22.962
		C245.714,295.418,243.508,293.215,240.798,293.215z"/>
	<path style="fill:#FFFFFF;" d="M263.102,297.145c-2.706,0-4.908,2.203-4.908,4.912v19.032c0,2.71,2.202,4.912,4.908,4.912
		c2.71,0,4.916-2.202,4.916-4.912v-19.032C268.018,299.348,265.812,297.145,263.102,297.145"/>
	<path style="fill:none;stroke:#FFFFFF;stroke-width:1.965;stroke-miterlimit:10;" d="M263.102,297.145
		c-2.706,0-4.908,2.203-4.908,4.912v19.032c0,2.71,2.202,4.912,4.908,4.912c2.71,0,4.916-2.202,4.916-4.912v-19.032
		C268.018,299.348,265.812,297.145,263.102,297.145z"/>
	<path style="fill:#FFFFFF;" d="M195.607,291.25c-2.707,0-4.908,2.203-4.908,4.912v24.927c0,2.709,2.201,4.912,4.908,4.912
		c2.71,0,4.916-2.203,4.916-4.912v-24.927C200.523,293.453,198.317,291.25,195.607,291.25"/>
	<path style="fill:none;stroke:#FFFFFF;stroke-width:1.965;stroke-miterlimit:10;" d="M195.607,291.25
		c-2.707,0-4.908,2.203-4.908,4.912v24.927c0,2.709,2.201,4.912,4.908,4.912c2.71,0,4.916-2.203,4.916-4.912v-24.927
		C200.523,293.453,198.317,291.25,195.607,291.25z"/>
	<path style="fill:#FFFFFF;" d="M217.911,291.25c-2.706,0-4.908,2.203-4.908,4.912v24.927c0,2.709,2.202,4.912,4.908,4.912
		c2.71,0,4.916-2.203,4.916-4.912v-24.927C222.827,293.453,220.621,291.25,217.911,291.25"/>
	<path style="fill:none;stroke:#FFFFFF;stroke-width:1.965;stroke-miterlimit:10;" d="M217.911,291.25
		c-2.706,0-4.908,2.203-4.908,4.912v24.927c0,2.709,2.202,4.912,4.908,4.912c2.71,0,4.916-2.203,4.916-4.912v-24.927
		C222.827,293.453,220.621,291.25,217.911,291.25z"/>
	<path style="fill:#FFFFFF;" d="M151.695,291.25c-2.708,0-4.912,2.203-4.912,4.912v24.927c0,2.709,2.204,4.912,4.912,4.912
		c2.708,0,4.912-2.203,4.912-4.912v-24.927C156.606,293.453,154.402,291.25,151.695,291.25"/>
	<path style="fill:none;stroke:#FFFFFF;stroke-width:1.965;stroke-miterlimit:10;" d="M151.695,291.25
		c-2.708,0-4.912,2.203-4.912,4.912v24.927c0,2.709,2.204,4.912,4.912,4.912c2.708,0,4.912-2.203,4.912-4.912v-24.927
		C156.606,293.453,154.402,291.25,151.695,291.25z"/>
	<path style="fill:#FFFFFF;" d="M173.998,291.25c-2.708,0-4.912,2.203-4.912,4.912v24.927c0,2.709,2.204,4.912,4.912,4.912
		c2.708,0,4.912-2.203,4.912-4.912v-24.927C178.91,293.453,176.706,291.25,173.998,291.25"/>
	<path style="fill:none;stroke:#FFFFFF;stroke-width:1.965;stroke-miterlimit:10;" d="M173.998,291.25
		c-2.708,0-4.912,2.203-4.912,4.912v24.927c0,2.709,2.204,4.912,4.912,4.912c2.708,0,4.912-2.203,4.912-4.912v-24.927
		C178.91,293.453,176.706,291.25,173.998,291.25z"/>
	<path style="fill:#FFFFFF;" d="M310.426,325.986c2.71,0,4.916-2.203,4.916-4.912v-13.136c0-2.709-2.206-4.912-4.916-4.912
		c-2.707,0-4.908,2.203-4.908,4.912v13.136C305.518,323.783,307.719,325.986,310.426,325.986"/>
	<path style="fill:none;stroke:#FFFFFF;stroke-width:1.965;stroke-miterlimit:10;" d="M310.426,325.986
		c2.71,0,4.916-2.203,4.916-4.912v-13.136c0-2.709-2.206-4.912-4.916-4.912c-2.707,0-4.908,2.203-4.908,4.912v13.136
		C305.518,323.783,307.719,325.986,310.426,325.986z"/>
	<path style="fill:#FFFFFF;" d="M287.539,325.986c2.71,0,4.916-2.203,4.916-4.912v-17.065c0-2.71-2.206-4.912-4.916-4.912
		c-2.706,0-4.908,2.202-4.908,4.912v17.065C282.631,323.783,284.833,325.986,287.539,325.986"/>
	<path style="fill:none;stroke:#FFFFFF;stroke-width:1.965;stroke-miterlimit:10;" d="M287.539,325.986
		c2.71,0,4.916-2.203,4.916-4.912v-17.065c0-2.71-2.206-4.912-4.916-4.912c-2.706,0-4.908,2.202-4.908,4.912v17.065
		C282.631,323.783,284.833,325.986,287.539,325.986z"/>
</g>
</svg>
