<?xml version="1.0" encoding="iso-8859-1"?>
<!-- Generator: Adobe Illustrator 25.4.1, SVG Export Plug-In . SVG Version: 6.00 Build 0)  -->
<svg version="1.1" id="Calque_1" xmlns="http://www.w3.org/2000/svg" xmlns:xlink="http://www.w3.org/1999/xlink" x="0px" y="0px"
	 viewBox="0 0 368.5 368.5" style="enable-background:new 0 0 368.5 368.5;" xml:space="preserve">
<g>
	<path style="fill:#FFFFFF;" d="M111.951,147.565v-3.2c0-2.092-1.969-3.794-4.39-3.794c-2.419,0-4.388,1.702-4.388,3.794v5.055
		c2.179,0.366,4.059,1.484,5.365,3.05C108.987,150.464,110.241,148.742,111.951,147.565"/>
	<path style="fill:#FFFFFF;" d="M155.033,142.585c0.48-2.001,1.765-3.707,3.5-4.862v-3.218c0-2.092-1.969-3.793-4.39-3.793
		c-2.421,0-4.391,1.701-4.391,3.793v5.052C151.886,139.943,153.751,141.04,155.033,142.585"/>
	<path style="fill:#FFFFFF;" d="M170.54,139.337c0.463-2.018,1.743-3.742,3.48-4.911v-3.076c0-2.092-1.969-3.794-4.389-3.794
		c-2.421,0-4.39,1.702-4.39,3.794v4.986C167.378,136.712,169.249,137.799,170.54,139.337"/>
	<path style="fill:#FFFFFF;" d="M139.48,145.868c0.469-2.035,1.767-3.769,3.528-4.938v-3.104c0-2.09-1.968-3.792-4.387-3.792
		c-2.422,0-4.392,1.702-4.392,3.792v5.053C136.346,143.262,138.199,144.343,139.48,145.868"/>
	<path style="fill:#FFFFFF;" d="M186.063,136.016c0.497-1.963,1.769-3.635,3.479-4.773v-3.218c0-2.09-1.969-3.791-4.39-3.791
		c-2.421,0-4.39,1.701-4.39,3.791v4.988C182.9,133.388,184.772,134.478,186.063,136.016"/>
	<path style="fill:#FFFFFF;" d="M123.999,149.024c0.498-1.961,1.769-3.632,3.477-4.766v-3.216c0-2.09-1.97-3.79-4.391-3.79
		c-2.421,0-4.39,1.7-4.39,3.79v5.048C120.825,146.448,122.697,147.51,123.999,149.024"/>
	<path style="fill:#FFFFFF;" d="M96.538,150.806v-3.211c0-2.09-1.968-3.791-4.387-3.791c-2.421,0-4.39,1.701-4.39,3.791v5.05
		c2.149,0.388,3.996,1.523,5.279,3.085C93.51,153.707,94.788,151.971,96.538,150.806"/>
	<path style="fill:#FFFFFF;" d="M201.549,132.855c0.468-2.035,1.767-3.771,3.527-4.94v-3.1c0-2.092-1.968-3.795-4.387-3.795
		c-2.421,0-4.39,1.703-4.39,3.795v5.049C198.416,130.248,200.268,131.329,201.549,132.855"/>
	<path style="fill:#FFFFFF;" d="M226.441,175.725v-1.282c0-2.305-1.846-4.11-4.203-4.11c-2.433,0-4.199,1.607-4.199,3.821v5.749
		c1.186,0.482,2.245,1.212,3.1,2.138C221.611,179.077,223.63,176.739,226.441,175.725"/>
	<path style="fill:#FFFFFF;" d="M196.805,184.65v-1.272c0-2.315-1.884-4.197-4.199-4.197s-4.198,1.882-4.198,4.197v6.196
		c1.188,0.485,2.228,1.233,3.083,2.161C191.827,188.515,193.91,185.816,196.805,184.65"/>
	<path style="fill:#FFFFFF;" d="M211.625,178.621c0-2.314-1.886-4.196-4.205-4.196c-2.314,0-4.196,1.882-4.196,4.196v6.052
		c1.167,0.476,2.217,1.179,3.063,2.086c0.403-3.131,2.502-5.732,5.338-6.871V178.621z"/>
	<path style="fill:#FFFFFF;" d="M181.991,189.564v-1.272c0-2.315-1.884-4.197-4.199-4.197c-2.317,0-4.202,1.882-4.202,4.197v5.622
		c0,0.21-0.049,0.408-0.097,0.607c1.224,0.481,2.298,1.238,3.174,2.19C176.982,193.462,179.075,190.737,181.991,189.564"/>
	<path style="fill:#FFFFFF;" d="M234.713,185.41v-1.726c0-2.798-2.233-4.989-5.085-4.989c-2.894,0-5.075,2.021-5.075,4.701v7.296
		c1.165,0.485,2.181,1.234,3.022,2.15C228.035,189.038,230.955,186.01,234.713,185.41"/>
	<path style="fill:#FFFFFF;" d="M256.076,165.778c0-2.315-1.888-4.197-4.208-4.197c-2.313,0-4.194,1.882-4.194,4.197v5.481
		c1.203,0.49,2.276,1.234,3.137,2.18c0.544-2.919,2.573-5.308,5.265-6.391V165.778z"/>
	<path style="fill:#FFFFFF;" d="M232.854,175.821c1.16,0.468,2.205,1.157,3.049,2.047c0.364-3.089,2.454-5.605,5.353-6.681v-1.211
		c0-2.316-1.886-4.198-4.205-4.198c-2.432,0-4.197,1.607-4.197,3.821V175.821z"/>
	<path style="fill:#FFFFFF;" d="M321.805,172.185c-2.316,0-4.2,1.884-4.2,4.2v5.53c0,0.806-0.368,1.567-1,2.069
		c-0.631,0.5-1.458,0.689-2.242,0.5l-0.565-0.132c-1.194-0.279-2.037-1.344-2.037-2.57v-8.025c0-2.315-1.884-4.197-4.2-4.197
		c-2.315,0-4.198,1.882-4.198,4.197v4.858c0,0.806-0.367,1.567-0.999,2.067c-0.631,0.502-1.455,0.686-2.241,0.504l-0.655-0.153
		c-1.195-0.28-2.04-1.344-2.04-2.571v-8.57c0-2.317-1.882-4.201-4.194-4.201c-2.316,0-4.201,1.884-4.201,4.201v5.404
		c0,0.734-0.316,1.419-0.846,1.916c0.577,1.153,0.932,2.437,0.932,3.814v3.86c0,0.973-0.788,1.76-1.76,1.76
		c-0.972,0-1.76-0.787-1.76-1.76v-3.86c0-2.8-2.28-5.079-5.082-5.079c-0.971,0-1.76-0.787-1.76-1.76c0-0.973,0.789-1.76,1.76-1.76
		c1.095,0,2.134,0.225,3.099,0.6v-6.189c0-2.314-1.883-4.196-4.198-4.196s-4.198,1.882-4.198,4.196v5.261
		c0,0.818-0.38,1.591-1.028,2.09c-0.648,0.5-1.492,0.663-2.283,0.464c-1.16-0.306-2.087-1.385-2.087-2.585v-8.489
		c0-2.315-1.883-4.198-4.198-4.198c-2.314,0-4.197,1.883-4.197,4.198v3.15c3.692,0.966,6.438,4.299,6.438,8.288v1.918
		c3.692,0.966,6.437,4.297,6.437,8.287c0,0.972-0.789,1.76-1.76,1.76c-0.973,0-1.76-0.788-1.76-1.76c0-2.799-2.28-5.076-5.082-5.076
		c-2.894,0-5.076,2.021-5.076,4.701c0,0.968-0.78,1.748-1.744,1.756c0.381,0.961,0.607,1.996,0.607,3.087
		c0,0.098-0.04,0.183-0.055,0.277c0.813-0.237,1.665-0.402,2.571-0.402c4.745,0,8.605,3.855,8.605,8.594
		c0,0.973-0.788,1.76-1.76,1.76c-0.972,0-1.76-0.787-1.76-1.76c0-2.798-2.281-5.074-5.085-5.074c-2.895,0-5.077,2.021-5.077,4.703
		c0,0.972-0.788,1.76-1.76,1.76c-0.972,0-1.761-0.788-1.761-1.76c0-2.744,1.357-5.112,3.455-6.599
		c-0.524-0.304-0.893-0.847-0.893-1.499c0-2.796-2.232-4.988-5.083-4.988c-2.895,0-5.079,2.02-5.079,4.7v8.386
		c0,0.893-0.67,1.646-1.559,1.748l-1.133,0.13c-0.067,0.009-0.134,0.012-0.201,0.012c-0.43,0-0.848-0.158-1.172-0.447
		c-0.374-0.333-0.589-0.811-0.589-1.313v-4.049c0-2.798-2.279-5.076-5.083-5.076c-2.8,0-5.077,2.278-5.077,5.076
		c0,0.954-0.761,1.72-1.708,1.749c0.226,0.6,0.373,1.231,0.459,1.888c0.078-0.004,0.151-0.023,0.23-0.023
		c4.744,0,8.605,3.856,8.605,8.594c0,0.973-0.788,1.76-1.76,1.76s-1.76-0.787-1.76-1.76c0-2.798-2.281-5.074-5.085-5.074
		c-2.895,0-5.078,2.022-5.078,4.703c0,0.973-0.787,1.76-1.76,1.76c-0.971,0-1.76-0.787-1.76-1.76c0-3.343,1.999-6.138,4.926-7.436
		c-0.186-2.631-2.366-4.721-5.049-4.721c-2.799,0-5.076,2.278-5.076,5.076c0,0.972-0.788,1.76-1.76,1.76s-1.76-0.788-1.76-1.76
		c0-4.277,3.148-7.805,7.242-8.459v-2.301c0-2.8-2.28-5.079-5.083-5.079c-2.8,0-5.077,2.279-5.077,5.079v8.145
		c0,0.765-0.494,1.441-1.221,1.676l-1.137,0.366c-0.177,0.057-0.358,0.085-0.539,0.085c-0.368,0-0.732-0.116-1.037-0.337
		c-0.454-0.332-0.723-0.862-0.723-1.423v-3.756c0-2.802-2.28-5.081-5.082-5.081c-2.8,0-5.077,2.279-5.077,5.081
		c0,0.971-0.786,1.756-1.757,1.76c0.389,0.978,0.618,2.037,0.618,3.152c0,0.973-0.788,1.76-1.76,1.76s-1.76-0.787-1.76-1.76
		c0-2.8-2.28-5.077-5.081-5.077c-2.8,0-5.078,2.277-5.078,5.077c0,0.973-0.788,1.76-1.76,1.76c-0.008,0-0.016-0.005-0.025-0.005
		c0.404,0.995,0.638,2.078,0.638,3.216c0,0.973-0.788,1.76-1.76,1.76s-1.76-0.787-1.76-1.76c0-2.798-2.28-5.076-5.083-5.076
		c-2.801,0-5.079,2.278-5.079,5.076v2.045c0,0.973-0.788,1.76-1.76,1.76s-1.76-0.787-1.76-1.76v-2.045
		c0-3.623,2.259-6.714,5.438-7.975c-0.008-0.083-0.029-0.162-0.029-0.244v-1.021c0-2.315-1.885-4.198-4.202-4.198
		c-2.315,0-4.199,1.883-4.199,4.198v4.451c0,1.035-0.619,1.925-1.524,2.355c0.018,0.101,0.061,0.196,0.061,0.303
		c0,0.972-0.788,1.76-1.76,1.76c-2.801,0-5.081,2.277-5.081,5.077c0,0.417-0.148,0.82-0.418,1.138l-1.133,1.337
		c-0.342,0.402-0.836,0.622-1.343,0.622c-0.202,0-0.408-0.034-0.606-0.108c-0.557-0.205-0.965-0.671-1.102-1.231
		c-0.72-0.737-3.812-2.078-5.134-2.078c-0.972,0-1.76-0.787-1.76-1.76c0-0.973,0.788-1.76,1.76-1.76
		c1.289,0,4.286,0.825,6.377,2.174c0.587-2.975,2.717-5.4,5.517-6.416c-0.176-0.357-0.271-0.751-0.271-1.158
		c0-2.315-1.883-4.199-4.198-4.199c-2.317,0-4.202,1.884-4.202,4.199c0,0.625-0.223,1.232-0.629,1.71l-1.133,1.334
		c-0.511,0.601-1.252,0.929-2.013,0.929c-0.304,0-0.613-0.053-0.91-0.161c-0.735-0.27-1.295-0.846-1.561-1.55
		c-0.868-0.688-3.422-1.705-4.371-1.705c-1.459,0-2.64-1.183-2.64-2.64c0-1.458,1.181-2.641,2.64-2.641
		c1.186,0,3.691,0.595,5.829,1.706c1.264-3.752,4.817-6.461,8.99-6.461c2.166,0,4.165,0.73,5.762,1.957
		c1.202-3.855,4.806-6.662,9.052-6.662c2.142,0,4.12,0.714,5.709,1.915c1.131-3.97,4.792-6.885,9.121-6.885
		c2.143,0,4.123,0.715,5.712,1.918c1.148-3.943,4.794-6.832,9.103-6.832c2.16,0,4.155,0.727,5.751,1.949
		c1.188-3.878,4.801-6.705,9.063-6.705c2.202,0,4.231,0.754,5.844,2.016c1.261-3.591,4.755-6.108,8.973-6.108
		c2.15,0,4.134,0.711,5.726,1.909c1.151-3.779,4.733-6.464,9.088-6.464c2.23,0,4.283,0.773,5.903,2.064
		c1.32-3.647,4.817-6.262,8.913-6.262c2.218,0,4.234,0.796,5.851,2.075c0.869-1.316,2.072-2.372,3.468-3.119
		c-0.33-1.755-1.583-3.139-3.225-3.318l-8.699-1.024c-1.254-0.146-2.229-1.164-2.323-2.424c-0.095-1.259,0.716-2.411,1.935-2.744
		l8.32-2.276c0.876-0.335,1.574-1.032,1.972-1.97c0.443-1.048,0.463-2.257,0.057-3.405c-0.406-1.146-1.183-2.073-2.188-2.607
		c-0.926-0.49-1.939-0.586-2.854-0.261c-0.096,0.034-0.195,0.061-0.295,0.084l-5.461,1.248c-1.179,0.282-2.401-0.301-2.947-1.387
		c-0.546-1.087-0.28-2.405,0.644-3.194l5.915-5.053c0.589-0.703,0.862-1.628,0.772-2.623c-0.103-1.134-0.655-2.21-1.554-3.028
		c-0.899-0.822-2.017-1.274-3.151-1.274h-0.006c-1.049,0.002-1.987,0.397-2.642,1.114c-0.13,0.142-0.275,0.27-0.432,0.38
		l-3.703,2.598c-0.889,0.626-2.067,0.64-2.974,0.042l-0.612-0.404c-0.235-0.093-0.457-0.219-0.651-0.377
		c-0.62-0.5-1.06-1.237-1.06-2.035v-3.014c0-2.09-1.968-3.792-4.388-3.792c-2.42,0-4.389,1.702-4.389,3.792v6.039
		c0,1.245-0.87,2.321-2.088,2.582l-1.365,0.292c-0.78,0.167-1.594-0.029-2.213-0.529c-0.62-0.5-0.98-1.255-0.98-2.053v-3.145
		c0-2.09-1.969-3.791-4.39-3.791c-2.422,0-4.393,1.701-4.393,3.791v5.046c4.048,0.733,7.117,4.053,7.117,8.037
		c0,0.973-0.788,1.76-1.76,1.76s-1.76-0.787-1.76-1.76c0-2.578-2.365-4.675-5.27-4.675c-2.907,0-5.271,2.097-5.271,4.675v5.028
		c0,0.828-0.579,1.547-1.389,1.72l-1.461,0.315c-0.519,0.11-1.063-0.017-1.477-0.351c-0.413-0.335-0.654-0.838-0.654-1.37v-2.021
		c0-2.576-2.364-4.672-5.27-4.672c-2.907,0-5.273,2.096-5.273,4.672v5.703c0,0.829-0.578,1.545-1.389,1.721l-1.425,0.307
		c-0.521,0.108-1.064-0.017-1.477-0.35c-0.414-0.336-0.655-0.839-0.655-1.37v-2.852c0-2.578-2.363-4.675-5.268-4.675
		c-2.906,0-5.27,2.097-5.27,4.675v6.934c0,0.83-0.58,1.547-1.39,1.72l-1.463,0.315c-0.52,0.111-1.062-0.019-1.476-0.351
		c-0.413-0.335-0.654-0.839-0.654-1.37v-3.927c0-2.577-2.365-4.673-5.271-4.673c-2.906,0-5.269,2.096-5.269,4.673v8.367
		c0,0.83-0.58,1.547-1.39,1.72l-1.477,0.318c-0.521,0.109-1.062-0.017-1.477-0.35c-0.413-0.335-0.654-0.839-0.654-1.37v-5.471
		c0-2.578-2.363-4.675-5.269-4.675c-2.906,0-5.271,2.097-5.271,4.675v6.59c0,0.828-0.578,1.545-1.389,1.72l-1.459,0.315
		c-0.522,0.108-1.064-0.019-1.477-0.351c-0.414-0.335-0.654-0.839-0.654-1.37v-3.583c0-2.577-2.365-4.672-5.272-4.672
		c-2.905,0-5.27,2.095-5.27,4.672v5.165c0,0.828-0.578,1.545-1.388,1.72l-1.355,0.292c-0.123,0.026-0.247,0.04-0.371,0.04
		c-0.399,0-0.79-0.136-1.105-0.39c-0.414-0.336-0.655-0.839-0.655-1.37v-2.223c0-2.578-2.363-4.675-5.268-4.675
		c-2.906,0-5.27,2.097-5.27,4.675c0,0.929-0.723,1.666-1.633,1.735c0.109,0.514,0.172,1.041,0.172,1.584
		c0,0.973-0.788,1.76-1.76,1.76s-1.76-0.787-1.76-1.76c0-2.574-2.365-4.669-5.271-4.669c-2.904,0-5.267,2.095-5.267,4.669
		c0,0.93-0.728,1.673-1.642,1.736c0.095,0.482,0.161,0.973,0.161,1.48c0,0.973-0.788,1.76-1.76,1.76s-1.76-0.787-1.76-1.76
		c0-2.576-2.364-4.671-5.268-4.671c-2.906,0-5.269,2.095-5.269,4.671c0,0.973-0.788,1.76-1.76,1.76s-1.76-0.787-1.76-1.76
		c0-2.757,1.478-5.187,3.723-6.672v-3.087c0-3.049-0.861-3.793-4.389-3.793c-2.422,0-4.392,1.701-4.392,3.793v6.762
		c0,1.244-0.87,2.32-2.087,2.581l-1.477,0.317c-0.779,0.164-1.594-0.03-2.212-0.53c-0.62-0.5-0.98-1.255-0.98-2.052v-3.866
		c0-2.091-1.969-3.793-4.388-3.793c-2.42,0-4.389,1.702-4.389,3.793v6.743c12.441-1.244,24.011,12.341,25.858,30.364
		c1.848,18.045-6.75,33.71-19.201,34.984c-0.585,0.06-1.165,0.055-1.746,0.052l100.212,27.723c0,0,115.653-44.954,159.292-63.058
		c3.209-1.375,4.185-2.516,4.266-3.369l0.619,0.177v-11.363C326.004,174.069,324.12,172.185,321.805,172.185 M110.604,213.229
		c-1.459,0-2.64-1.182-2.64-2.64c0-2.315-1.886-4.197-4.204-4.197c-2.315,0-4.198,1.882-4.198,4.197c0,1.458-1.182,2.64-2.641,2.64
		c-1.458,0-2.64-1.182-2.64-2.64c0-5.225,4.253-9.477,9.479-9.477c5.23,0,9.484,4.252,9.484,9.477
		C113.244,212.047,112.062,213.229,110.604,213.229 M125.354,208.43c-1.458,0-2.64-1.182-2.64-2.64c0-2.312-1.884-4.194-4.201-4.194
		c-1.459,0-2.64-1.182-2.64-2.64c0-1.457,1.181-2.64,2.64-2.64c5.228,0,9.481,4.251,9.481,9.474
		C127.994,207.248,126.813,208.43,125.354,208.43 M179.135,222.411c-0.972,0-1.76-0.787-1.76-1.76c0-2.798-2.28-5.076-5.084-5.076
		c-2.895,0-5.079,2.021-5.079,4.703c0,0.973-0.788,1.76-1.76,1.76s-1.76-0.787-1.76-1.76c0-4.612,3.777-8.223,8.599-8.223
		c4.744,0,8.604,3.855,8.604,8.596C180.895,221.624,180.107,222.411,179.135,222.411 M212.515,213.956
		c-0.972,0-1.76-0.787-1.76-1.76c0-2.798-2.28-5.076-5.083-5.076c-2.896,0-5.081,2.022-5.081,4.703c0,0.973-0.788,1.76-1.76,1.76
		s-1.76-0.787-1.76-1.76c0-4.611,3.778-8.223,8.601-8.223c4.743,0,8.603,3.856,8.603,8.596
		C214.275,213.169,213.487,213.956,212.515,213.956"/>
	<path style="fill:#FFFFFF;" d="M62.698,217.962c9.603-0.979,16.231-13.059,14.811-26.974
		c-1.429-13.915-10.368-24.397-19.971-23.413c-9.599,0.984-16.232,13.062-14.805,26.974
		C44.159,208.464,53.096,218.945,62.698,217.962 M58.8,179.912c4.902-0.502,9.464,4.85,10.185,11.949
		c0.733,7.1-2.651,13.262-7.548,13.76c-4.904,0.506-9.464-4.845-10.193-11.943C50.521,186.579,53.902,180.419,58.8,179.912"/>
	<path style="fill:#FFFFFF;" d="M264.345,176.749v-1.733c0-2.799-2.28-5.077-5.082-5.077c-2.8,0-5.077,2.278-5.077,5.077v6.736
		c0,0.03-0.012,0.054-0.013,0.081c1.163,0.478,2.18,1.214,3.02,2.118C257.593,180.156,260.447,177.295,264.345,176.749"/>
	<path style="fill:#FFFFFF;" d="M249.529,181.297v-2.081c0-2.799-2.28-5.076-5.083-5.076c-2.896,0-5.079,2.019-5.079,4.699v7.099
		c1.157,0.484,2.192,1.203,3.029,2.112C242.981,184.528,245.836,181.835,249.529,181.297"/>
</g>
</svg>
