<?xml version="1.0" encoding="iso-8859-1"?>
<!-- Generator: Adobe Illustrator 25.4.1, SVG Export Plug-In . SVG Version: 6.00 Build 0)  -->
<svg version="1.1" id="Calque_1" xmlns="http://www.w3.org/2000/svg" xmlns:xlink="http://www.w3.org/1999/xlink" x="0px" y="0px"
	 viewBox="0 0 368.5 368.5" style="enable-background:new 0 0 368.5 368.5;" xml:space="preserve">
<g>
	<path style="fill:#FFFFFF;" d="M43.605,226.458c0,1.393,1.129,2.519,2.519,2.519h35.908c1.387,0,2.519-1.126,2.519-2.519v-35.902
		c0-1.398-1.132-2.52-2.519-2.52H46.124c-1.39,0-2.519,1.122-2.519,2.52V226.458z"/>
	<path style="fill:#FFFFFF;" d="M130.536,188.036h-35.91c-1.392,0-2.519,1.122-2.519,2.519v35.903c0,1.392,1.127,2.519,2.519,2.519
		h35.91c1.393,0,2.519-1.127,2.519-2.519v-35.903C133.055,189.158,131.929,188.036,130.536,188.036"/>
	<path style="fill:#FFFFFF;" d="M140.614,226.458c0,1.393,1.127,2.519,2.519,2.519h35.908c1.395,0,2.519-1.126,2.519-2.519v-35.902
		c0-1.398-1.124-2.52-2.519-2.52h-35.908c-1.392,0-2.519,1.122-2.519,2.52V226.458z"/>
	<path style="fill:#FFFFFF;" d="M230.062,190.555c0-1.398-1.127-2.519-2.519-2.519H191.64c-1.395,0-2.519,1.121-2.519,2.519v35.902
		c0,1.393,1.124,2.52,2.519,2.52h35.903c1.392,0,2.519-1.127,2.519-2.52V190.555z"/>
	<path style="fill:#FFFFFF;" d="M43.605,274.962c0,1.393,1.129,2.519,2.519,2.519h35.908c1.387,0,2.519-1.126,2.519-2.519v-35.907
		c0-1.391-1.132-2.52-2.519-2.52H46.124c-1.39,0-2.519,1.129-2.519,2.52V274.962z"/>
	<path style="fill:#FFFFFF;" d="M181.561,274.962v-35.907c0-1.391-1.124-2.52-2.519-2.52h-35.908c-1.392,0-2.519,1.129-2.519,2.52
		v35.907c0,1.393,1.127,2.519,2.519,2.519h35.908C180.436,277.481,181.561,276.355,181.561,274.962"/>
	<path style="fill:#FFFFFF;" d="M230.062,239.055c0-1.39-1.127-2.519-2.519-2.519H191.64c-1.395,0-2.519,1.129-2.519,2.519v35.907
		c0,1.393,1.124,2.52,2.519,2.52h35.903c1.392,0,2.519-1.127,2.519-2.52V239.055z"/>
	<path style="fill:#FFFFFF;" d="M43.605,323.467c0,1.393,1.129,2.519,2.519,2.519h35.908c1.387,0,2.519-1.126,2.519-2.519V287.56
		c0-1.393-1.132-2.52-2.519-2.52H46.124c-1.39,0-2.519,1.127-2.519,2.52V323.467z"/>
	<path style="fill:#FFFFFF;" d="M133.056,323.467V287.56c0-1.393-1.127-2.52-2.519-2.52h-35.91c-1.393,0-2.52,1.127-2.52,2.52
		v35.907c0,1.393,1.127,2.519,2.52,2.519h35.91C131.929,325.986,133.056,324.86,133.056,323.467"/>
	<path style="fill:#FFFFFF;" d="M230.062,323.467V287.56c0-1.393-1.127-2.52-2.519-2.52H191.64c-1.395,0-2.519,1.127-2.519,2.52
		v35.907c0,1.393,1.124,2.519,2.519,2.519h35.903C228.935,325.986,230.062,324.86,230.062,323.467"/>
	<path style="fill:#FFFFFF;" d="M327.069,190.555c0-1.398-1.127-2.519-2.519-2.519h-35.905c-1.391,0-2.52,1.121-2.52,2.519v35.902
		c0,1.393,1.129,2.52,2.52,2.52h35.905c1.392,0,2.519-1.127,2.519-2.52V190.555z"/>
	<path style="fill:#FFFFFF;" d="M278.567,239.055c0-1.39-1.127-2.519-2.519-2.519H240.14c-1.395,0-2.519,1.129-2.519,2.519v35.907
		c0,1.393,1.124,2.52,2.519,2.52h35.908c1.392,0,2.519-1.127,2.519-2.52V239.055z"/>
	<path style="fill:#FFFFFF;" d="M324.55,236.535h-35.905c-1.39,0-2.519,1.129-2.519,2.519v35.908c0,1.392,1.129,2.519,2.519,2.519
		h35.905c1.392,0,2.519-1.127,2.519-2.519v-35.908C327.069,237.664,325.942,236.535,324.55,236.535"/>
	<path style="fill:#FFFFFF;" d="M278.567,323.467V287.56c0-1.393-1.127-2.52-2.519-2.52H240.14c-1.395,0-2.519,1.127-2.519,2.52
		v35.907c0,1.393,1.124,2.519,2.519,2.519h35.908C277.44,325.986,278.567,324.86,278.567,323.467"/>
	<path style="fill:#FFFFFF;" d="M288.645,325.986h35.905c1.392,0,2.519-1.127,2.519-2.519v-35.908c0-1.392-1.127-2.519-2.519-2.519
		h-35.905c-1.39,0-2.519,1.127-2.519,2.519v35.908C286.126,324.859,287.255,325.986,288.645,325.986"/>
	<path style="fill:#FFFFFF;" d="M43.605,177.958c0,1.388,1.129,2.519,2.519,2.519h35.908c1.387,0,2.519-1.131,2.519-2.519v-35.907
		c0-1.395-1.132-2.52-2.519-2.52H46.124c-1.39,0-2.519,1.125-2.519,2.52V177.958z"/>
	<path style="fill:#FFFFFF;" d="M133.056,142.051c0-1.395-1.127-2.519-2.519-2.519h-35.91c-1.393,0-2.52,1.124-2.52,2.519v35.907
		c0,1.388,1.127,2.52,2.52,2.52h35.91c1.392,0,2.519-1.132,2.519-2.52V142.051z"/>
	<path style="fill:#FFFFFF;" d="M140.614,177.958c0,1.388,1.127,2.519,2.519,2.519h35.908c1.395,0,2.519-1.131,2.519-2.519v-35.907
		c0-1.395-1.124-2.52-2.519-2.52h-35.908c-1.392,0-2.519,1.125-2.519,2.52V177.958z"/>
	<path style="fill:#FFFFFF;" d="M230.062,142.051c0-1.395-1.127-2.519-2.519-2.519H191.64c-1.395,0-2.519,1.124-2.519,2.519v35.907
		c0,1.388,1.124,2.52,2.519,2.52h35.903c1.392,0,2.519-1.132,2.519-2.52V142.051z"/>
	<path style="fill:#FFFFFF;" d="M278.567,142.051c0-1.395-1.127-2.519-2.519-2.519H240.14c-1.395,0-2.519,1.124-2.519,2.519v35.907
		c0,1.388,1.124,2.52,2.519,2.52h35.908c1.392,0,2.519-1.132,2.519-2.52V142.051z"/>
	<path style="fill:#FFFFFF;" d="M327.069,142.051c0-1.395-1.127-2.519-2.519-2.519h-35.905c-1.391,0-2.52,1.124-2.52,2.519v35.907
		c0,1.388,1.129,2.52,2.52,2.52h35.905c1.392,0,2.519-1.132,2.519-2.52V142.051z"/>
	<path style="fill:#FFFFFF;" d="M43.605,45.044v35.902c0,1.395,1.129,2.52,2.519,2.52h35.908c1.387,0,2.519-1.125,2.519-2.52V45.044
		c0-1.395-1.132-2.519-2.519-2.519H46.124C44.734,42.525,43.605,43.649,43.605,45.044"/>
	<path style="fill:#FFFFFF;" d="M140.614,45.044v35.902c0,1.395,1.127,2.52,2.519,2.52h35.908c1.395,0,2.519-1.125,2.519-2.52
		V45.044c0-1.395-1.124-2.519-2.519-2.519h-35.908C141.741,42.525,140.614,43.649,140.614,45.044"/>
	<path style="fill:#FFFFFF;" d="M230.062,45.044c0-1.395-1.127-2.519-2.519-2.519H191.64c-1.395,0-2.519,1.124-2.519,2.519v35.902
		c0,1.395,1.124,2.52,2.519,2.52h35.903c1.392,0,2.519-1.125,2.519-2.52V45.044z"/>
	<path style="fill:#FFFFFF;" d="M133.056,93.543c0-1.392-1.127-2.519-2.519-2.519h-35.91c-1.393,0-2.52,1.127-2.52,2.519v35.907
		c0,1.39,1.127,2.52,2.52,2.52h35.91c1.392,0,2.519-1.13,2.519-2.52V93.543z"/>
	<path style="fill:#FFFFFF;" d="M140.614,129.451c0,1.39,1.127,2.519,2.519,2.519h35.908c1.395,0,2.519-1.129,2.519-2.519V93.544
		c0-1.393-1.124-2.52-2.519-2.52h-35.908c-1.392,0-2.519,1.127-2.519,2.52V129.451z"/>
	<path style="fill:#FFFFFF;" d="M278.567,45.044c0-1.395-1.127-2.519-2.519-2.519H240.14c-1.395,0-2.519,1.124-2.519,2.519v35.902
		c0,1.395,1.124,2.52,2.519,2.52h35.908c1.392,0,2.519-1.125,2.519-2.52V45.044z"/>
	<path style="fill:#FFFFFF;" d="M327.069,45.044c0-1.395-1.127-2.519-2.519-2.519h-35.905c-1.391,0-2.52,1.124-2.52,2.519v35.902
		c0,1.395,1.129,2.52,2.52,2.52h35.905c1.392,0,2.519-1.125,2.519-2.52V45.044z"/>
	<path style="fill:#FFFFFF;" d="M278.567,93.543c0-1.392-1.127-2.519-2.519-2.519H240.14c-1.395,0-2.519,1.127-2.519,2.519v35.907
		c0,1.39,1.124,2.52,2.519,2.52h35.908c1.392,0,2.519-1.13,2.519-2.52V93.543z"/>
	<path style="fill:#FFFFFF;" d="M327.069,93.543c0-1.392-1.127-2.519-2.519-2.519h-35.905c-1.391,0-2.52,1.127-2.52,2.519v35.907
		c0,1.39,1.129,2.52,2.52,2.52h35.905c1.392,0,2.519-1.13,2.519-2.52V93.543z"/>
</g>
</svg>
