<?xml version="1.0" encoding="iso-8859-1"?>
<!-- Generator: Adobe Illustrator 25.4.1, SVG Export Plug-In . SVG Version: 6.00 Build 0)  -->
<svg version="1.1" id="Calque_1" xmlns="http://www.w3.org/2000/svg" xmlns:xlink="http://www.w3.org/1999/xlink" x="0px" y="0px"
	 viewBox="0 0 368.5 368.5" style="enable-background:new 0 0 368.5 368.5;" xml:space="preserve">
<g>
	<path style="fill:#FFFFFF;" d="M191.314,79.454c1.058-0.382,2.196-0.587,3.377-0.587c2.286,0,4.565,0.782,6.418,2.203
		c2.053,1.572,3.42,3.792,3.918,6.261l2.63-4.291c0.184-0.299,0.509-0.484,0.86-0.486c1.008-0.008,1.943-0.115,2.86-0.326
		c0.703-0.171,1.399-0.404,2.058-0.691l16.937-7.407c3.903-1.958,6.743-4.31,8.722-7.211c2.36-3.372,3.159-7.771,2.143-11.778
		c-0.943-3.866-3.194-7.293-6.342-9.66c-2.518-1.9-5.531-2.945-8.485-2.945c-0.99,0-1.981,0.115-2.947,0.346
		c-0.621,0.143-1.235,0.341-1.884,0.607l-16.813,7.354c-4.236,1.765-7.425,4.204-9.493,7.256c-2.303,3.331-3.057,7.744-2.023,11.815
		c0.281,1.148,0.703,2.296,1.258,3.422c0.155,0.312,0.138,0.684-0.045,0.983L191.314,79.454z M203.561,63.728
		c0.892-1.377,2.748-2.7,5.109-3.665l16.769-7.33c0.036-0.016,0.194-0.07,0.233-0.082c0.31-0.083,0.516-0.107,0.729-0.107
		c0.784,0,1.622,0.32,2.489,0.951c1.241,0.901,2.266,2.463,2.61,3.976c0.339,1.758,0.076,2.558-0.682,3.808
		c-0.878,1.343-2.653,2.759-4.767,3.814l-16.581,7.248c-0.141,0.062-0.275,0.106-0.422,0.143c-0.167,0.05-0.389,0.08-0.628,0.08
		c-0.847,0-1.817-0.364-2.731-1.021c-1.293-0.921-2.381-2.515-2.7-3.967C202.614,65.712,202.864,64.884,203.561,63.728"/>
	<path style="fill:#FFFFFF;" d="M153.54,149.5c0.075-0.038,0.143-0.084,0.219-0.119l35.59-46.208
		c-1.435-1.62-2.332-3.761-2.332-6.128c0-5.008,3.921-9.083,8.742-9.083h3.135c-0.281-0.79-0.795-1.498-1.502-2.042
		c-0.792-0.606-1.751-0.941-2.7-0.941c-1.144,0-2.167,0.48-2.806,1.314l-42.232,54.829
		C151.133,143.664,152.444,146.452,153.54,149.5"/>
	<path style="fill:#FFFFFF;" d="M75.325,291.697c-3.725,0-6.429-4.003-6.429-9.517c0-5.513,2.704-9.514,6.429-9.514h14.367
		l12.85-20.301l-6.828-10.796l-17.303,27.352c-0.56,0.886-1.535,1.423-2.583,1.423c-1.047,0-2.022-0.537-2.582-1.423l-17.299-27.343
		l-6.828,10.787l18.85,29.788c0.632,0.996,0.632,2.27,0,3.267l-18.85,29.787l6.828,10.788l17.299-27.342
		c0.56-0.886,1.535-1.423,2.582-1.423c1.048,0,2.023,0.537,2.583,1.423l17.303,27.348l6.826-10.786l-14.88-23.518H75.325z"/>
	<path style="fill:#FFFFFF;" d="M102.643,285.585c-0.03-0.422-0.065-0.842-0.065-1.27v-5.537H75.795
		c-0.302,0.45-0.786,1.616-0.786,3.403c0,1.788,0.485,2.954,0.786,3.404H102.643z"/>
	<path style="fill:#FFFFFF;" d="M195.759,94.074c-1.45,0-2.63,1.333-2.63,2.971c0,1.637,1.18,2.968,2.63,2.968h56.573l4.574-5.939
		H195.759z"/>
	<path style="fill:#FFFFFF;" d="M155.369,155.644c0.101,0.412,0.22,0.804,0.315,1.222l0.04,0.21l0.484,3.106
		c0.418,0.225,0.889,0.365,1.396,0.365h48.102l4.575-5.94h-52.677C156.709,154.607,155.914,155.015,155.369,155.644"/>
	<path style="fill:#FFFFFF;" d="M293.28,81.538l16.937-7.408c3.903-1.955,6.741-4.307,8.721-7.21
		c2.362-3.372,3.161-7.774,2.145-11.779c-0.943-3.866-3.194-7.292-6.34-9.66c-2.519-1.9-5.534-2.944-8.486-2.944
		c-0.99,0-1.983,0.117-2.949,0.346c-0.616,0.141-1.246,0.344-1.879,0.605l-16.82,7.355c-4.237,1.767-7.424,4.207-9.489,7.257
		c-2.305,3.33-3.061,7.743-2.025,11.814c0.283,1.154,0.694,2.273,1.259,3.423c0.155,0.314,0.137,0.684-0.045,0.983l-2.921,4.763
		c0.658-0.136,1.338-0.215,2.033-0.215c2.287,0,4.566,0.782,6.417,2.202c2.14,1.64,3.563,3.974,4.002,6.57
		c0.067,0.396,0.062,0.786,0.081,1.18c0.1-0.141,0.209-0.276,0.3-0.426l3.281-5.354c0.184-0.298,0.509-0.483,0.861-0.485
		c1.006-0.008,1.941-0.116,2.857-0.327C291.922,82.059,292.62,81.824,293.28,81.538 M288.893,72.485
		c-0.166,0.05-0.389,0.08-0.629,0.08c-0.847,0-1.816-0.364-2.73-1.023c-1.292-0.919-2.38-2.515-2.7-3.965
		c-0.374-1.863-0.125-2.69,0.572-3.848c0.892-1.375,2.746-2.7,5.107-3.665l16.77-7.33c0.037-0.016,0.194-0.07,0.232-0.082
		c0.313-0.083,0.519-0.107,0.732-0.107c0.785,0,1.623,0.32,2.491,0.951c1.242,0.905,2.265,2.467,2.605,3.979
		c0.34,1.749,0.08,2.549-0.674,3.8c-0.886,1.351-2.662,2.766-4.774,3.819l-16.579,7.248
		C289.174,72.403,289.04,72.447,288.893,72.485"/>
	<path style="fill:#FFFFFF;" d="M127.807,291.697c-3.725,0-6.428-4.003-6.428-9.517c0-5.513,2.703-9.514,6.428-9.514h4.493v-19.334
		c-0.212-0.63-0.212-1.303,0-1.934v-16.635h-23.61v49.552c0,6.51,5.296,11.807,11.805,11.807c3.717,0,7.034-1.731,9.198-4.425
		H127.807z"/>
	<path style="fill:#FFFFFF;" d="M158.456,214.332l-7.528-48.331H87.105l-7.526,48.331H158.456z M149.127,202.75
		c-0.325,0.111-0.657,0.163-0.983,0.163c-1.273,0-2.461-0.8-2.894-2.073l-6.578-19.369c-0.543-1.598,0.313-3.335,1.911-3.876
		c1.597-0.547,3.333,0.312,3.876,1.91l6.579,19.369C151.58,200.472,150.725,202.209,149.127,202.75 M131.905,179.505l6.576,19.369
		c0.543,1.598-0.313,3.335-1.91,3.876c-0.327,0.111-0.658,0.163-0.983,0.163c-1.274,0-2.463-0.802-2.894-2.073l-6.577-19.369
		c-0.542-1.598,0.313-3.335,1.911-3.876C129.631,177.048,131.364,177.909,131.905,179.505 M119.35,179.505l6.579,19.369
		c0.542,1.598-0.314,3.335-1.911,3.876c-0.325,0.111-0.658,0.163-0.983,0.163c-1.274,0-2.461-0.8-2.894-2.073l-6.579-19.369
		c-0.542-1.598,0.313-3.335,1.911-3.876C117.075,177.048,118.807,177.907,119.35,179.505"/>
	<path style="fill:#FFFFFF;" d="M88.057,159.888h61.919l-0.274-1.763c-1.534-6.645-7.934-27.722-27.126-27.722h-7.119
		c-16.254,0-24.667,14.306-27.121,27.694L88.057,159.888z"/>
	<path style="fill:#FFFFFF;" d="M233.131,196.54c-13.425,0-24.347,15.911-24.347,35.467c0,19.555,10.922,35.464,24.347,35.464
		c13.425,0,24.347-15.909,24.347-35.464C257.478,212.451,246.556,196.54,233.131,196.54 M233.131,250.332
		c-7.798,0-14.143-8.221-14.143-18.325c0-10.28,6.212-18.332,14.143-18.332c7.798,0,14.141,8.223,14.141,18.332
		C247.272,242.111,240.929,250.332,233.131,250.332"/>
	<path style="fill:#FFFFFF;" d="M150.31,285.585l1.138-1.799l-3.168-5.008h-20.003c-0.301,0.45-0.785,1.616-0.785,3.403
		c0,1.788,0.484,2.954,0.785,3.404H150.31z"/>
	<path style="fill:#FFFFFF;" d="M168.087,268.922c-0.56,0.885-1.535,1.423-2.583,1.423c-1.047,0-2.022-0.538-2.582-1.423
		l-17.297-27.344l-6.827,10.788l18.849,29.787c0.632,0.997,0.632,2.27,0,3.267l-18.849,29.787l6.828,10.788l17.296-27.342
		c0.56-0.885,1.535-1.422,2.582-1.422c1.048,0,2.023,0.537,2.583,1.422l17.306,27.348l6.825-10.786l-18.852-29.795
		c-0.632-0.997-0.632-2.27,0-3.267l18.852-29.787l-6.826-10.796L168.087,268.922z"/>
	<path style="fill:#FFFFFF;" d="M277.199,91.331c0.561-0.734,0.781-1.683,0.615-2.67c-0.181-1.068-0.783-2.041-1.693-2.738
		c-0.793-0.609-1.751-0.943-2.699-0.943c-1.144,0-2.167,0.478-2.805,1.311l-98.623,128.041h10.47L277.199,91.331z"/>
	<path style="fill:#FFFFFF;" d="M53.242,220.444c-2.262,0-4.103,1.842-4.103,4.107c0,2.26,1.841,4.1,4.103,4.1h133.343
		c2.263,0,4.105-1.84,4.105-4.1c0-2.265-1.842-4.107-4.105-4.107H53.242z"/>
</g>
</svg>
