<?xml version="1.0" encoding="iso-8859-1"?>
<!-- Generator: Adobe Illustrator 25.4.1, SVG Export Plug-In . SVG Version: 6.00 Build 0)  -->
<svg version="1.1" id="Calque_1" xmlns="http://www.w3.org/2000/svg" xmlns:xlink="http://www.w3.org/1999/xlink" x="0px" y="0px"
	 viewBox="0 0 368.5 368.5" style="enable-background:new 0 0 368.5 368.5;" xml:space="preserve">
<g>
	<path style="fill:#FFFFFF;" d="M285.004,134.801c0.369,0.369,0.69,0.768,0.976,1.184l24.185-24.409
		c0.068-0.066,0.137-0.13,0.209-0.193c0.051-0.043,0.103-0.086,0.156-0.127c0.464-0.551,0.437-1.381-0.082-1.898l-0.519-0.52
		l-25.445,25.445L285.004,134.801z"/>
	<path style="fill:#FFFFFF;" d="M265.147,81.127c2.44,0.846,4.799,1.937,7.009,3.289l25.258-25.26
		c-2.372-1.263-4.908-2.207-7.527-2.769L265.147,81.127z"/>
	<path style="fill:#FFFFFF;" d="M320.083,83.293h-2.838c-0.125,0.187-0.267,0.365-0.433,0.531l-23.634,23.631
		c1.348,0.619,2.505,1.582,3.356,2.781l13.749-13.75c0.012-0.011,0.026-0.019,0.036-0.031c0.116-0.162,0.244-0.314,0.385-0.457
		l10.029-10.027c0.074-0.073,0.15-0.143,0.229-0.207c0.195-0.164,0.523-0.522,0.523-1.067
		C321.485,83.922,320.856,83.293,320.083,83.293"/>
	<path style="fill:#FFFFFF;" d="M309.456,57.641c-0.217,0-0.635,0.053-0.992,0.41l-2.971,2.971c-0.084,0.084-0.18,0.15-0.27,0.224
		l-21.326,21.327c0.389,0.275,0.762,0.58,1.106,0.923c0.344,0.344,0.642,0.713,0.914,1.098l21.439-21.441
		c0.042-0.047,0.077-0.102,0.122-0.147l2.971-2.97c0.357-0.358,0.41-0.776,0.41-0.993c0-0.216-0.053-0.634-0.411-0.992
		C310.091,57.694,309.673,57.641,309.456,57.641"/>
	<path style="fill:#FFFFFF;" d="M233.696,83.496l0.428,0.428l25.444-25.446l-0.427-0.427c-0.357-0.358-0.774-0.41-0.992-0.41
		c-0.202,0-0.577,0.044-0.917,0.339c-0.06,0.079-0.109,0.141-0.159,0.201c-0.07,0.085-0.145,0.167-0.223,0.243L232.6,82.58
		C232.985,82.853,233.354,83.154,233.696,83.496"/>
	<path style="fill:#FFFFFF;" d="M274.753,55.527l-16.459,16.459c1.186,0.852,2.14,2.002,2.754,3.342l24.16-24.16v-2.75
		c0-0.776-0.63-1.405-1.404-1.405c-0.531,0-0.881,0.311-1.042,0.494c-0.17,0.198-0.359,0.37-0.559,0.518l-7.232,7.236
		C274.898,55.349,274.836,55.443,274.753,55.527"/>
	<path style="fill:#FFFFFF;" d="M312.125,78.66c-0.562-2.643-1.512-5.199-2.788-7.59l-25.259,25.26
		c1.357,2.217,2.45,4.582,3.298,7.029l24.486-24.484C311.944,78.793,312.038,78.732,312.125,78.66"/>
	<path style="fill:#FFFFFF;" d="M218.245,113.688h-1.117c-0.774,0-1.403,0.629-1.403,1.404c0,0.313,0.108,0.6,0.282,0.834
		L218.245,113.688z"/>
	<path style="fill:#FFFFFF;" d="M253.902,152.682c0.378-0.143,0.675-0.441,0.817-0.818L253.902,152.682z"/>
	<path style="fill:#FFFFFF;" d="M278.069,141.738c0.357,0.355,0.775,0.41,0.992,0.41c0.218,0,0.636-0.055,0.993-0.412
		c0.546-0.545,0.547-1.437-0.001-1.984l-2.968-2.969c-0.682-0.682-1.016-1.582-1.012-2.488c-0.001-0.036,0-0.069,0-0.102
		c0.006-0.148,0.02-0.295,0.043-0.441c0.016-0.106,0.034-0.211,0.06-0.317c0.014-0.056,0.032-0.113,0.049-0.17
		c0.127-0.431,0.339-0.84,0.636-1.207c2.698-3.726,4.489-8.072,5.173-12.59c0.26-1.71,1.73-2.974,3.461-2.974h4.193
		c0.774,0,1.403-0.629,1.403-1.402c0-0.776-0.629-1.405-1.403-1.405h-4.193c-1.731,0-3.201-1.265-3.461-2.976
		c-0.695-4.588-2.525-9-5.294-12.762c-1.026-1.393-0.88-3.328,0.345-4.551l2.97-2.969c0.545-0.544,0.546-1.437-0.002-1.984
		c-0.357-0.357-0.775-0.41-0.992-0.41c-0.217,0-0.635,0.053-0.992,0.41l-2.971,2.971c-1.222,1.224-3.155,1.371-4.549,0.344
		c-3.761-2.768-8.173-4.598-12.76-5.292c-1.711-0.259-2.976-1.73-2.976-3.46v-4.196c0-0.775-0.63-1.404-1.404-1.404
		c-0.283,0-0.547,0.086-0.769,0.23l-0.055,0.057c-0.063,0.063-0.135,0.107-0.201,0.164c-0.234,0.25-0.379,0.584-0.379,0.953v4.196
		c0,1.73-1.265,3.201-2.976,3.46c-4.588,0.694-9,2.524-12.762,5.292c-1.393,1.023-3.326,0.878-4.549-0.344l-2.971-2.971
		c-0.358-0.357-0.775-0.41-0.992-0.41c-0.217,0-0.635,0.053-0.993,0.41c-0.547,0.547-0.546,1.44,0.001,1.986l2.97,2.969
		c1.224,1.225,1.37,3.156,0.345,4.551c-1.804,2.451-3.202,5.184-4.154,8.057l7.231-7.231c4.983-4.984,11.611-7.73,18.662-7.73
		s13.679,2.746,18.662,7.73c4.986,4.983,7.732,11.611,7.731,18.664c0,7.051-2.745,13.678-7.73,18.662l-5.531,5.531
		c1.974-0.859,3.859-1.931,5.6-3.212c1.392-1.024,3.327-0.879,4.549,0.345L278.069,141.738z"/>
	<path style="fill:#FFFFFF;" d="M182.904,159.098c-0.059,0-0.117,0.004-0.176,0.004l-59.232,59.232v0.112
		c3.638,0.877,7.139,2.328,10.343,4.287l2.255-2.256c0.831-0.83,1.971-1.149,3.046-0.971c0.524-0.101,1.06-0.154,1.605-0.154
		c2.245,0,4.354,0.873,5.941,2.461c1.587,1.586,2.462,3.695,2.462,5.941c0,2.244-0.874,4.354-2.461,5.942l-0.935,0.935
		c1.967,3.211,3.424,6.723,4.303,10.373h1.317c0.099,0,0.195,0.012,0.294,0.014l61.586-61.584
		C210.128,169.555,197.704,159.125,182.904,159.098"/>
	<path style="fill:#FFFFFF;" d="M265.531,131.154c3.662-3.662,5.679-8.533,5.679-13.713c0-5.181-2.017-10.053-5.68-13.715
		c-3.662-3.662-8.532-5.679-13.713-5.679c-5.181,0-10.051,2.017-13.712,5.679l-34.712,34.711
		c12.44,4.942,22.688,14.235,28.858,25.996L265.531,131.154z"/>
	<path style="fill:#FFFFFF;" d="M106.041,224.238l-16.459,16.459c1.186,0.852,2.141,2.002,2.754,3.342l24.16-24.16v-2.75
		c0-0.776-0.63-1.405-1.403-1.405c-0.533,0-0.882,0.311-1.044,0.496c-0.166,0.192-0.349,0.36-0.545,0.506l-7.247,7.248
		C106.185,224.062,106.123,224.156,106.041,224.238"/>
	<path style="fill:#FFFFFF;" d="M64.985,252.205l0.43,0.43l25.443-25.446l-0.428-0.427c-0.357-0.358-0.775-0.41-0.992-0.41
		c-0.203,0-0.582,0.046-0.923,0.345l-0.135,0.174c-0.076,0.092-0.156,0.18-0.241,0.264l-24.25,24.156
		C64.274,251.564,64.643,251.865,64.985,252.205"/>
	<path style="fill:#FFFFFF;" d="M116.293,303.512c0.368,0.369,0.69,0.768,0.975,1.184l24.184-24.409
		c0.076-0.076,0.155-0.148,0.237-0.216c0.045-0.039,0.092-0.077,0.138-0.112c0.456-0.539,0.431-1.371-0.09-1.89l-0.519-0.52
		l-25.445,25.443L116.293,303.512z"/>
	<path style="fill:#FFFFFF;" d="M128.703,227.867c-2.371-1.264-4.907-2.207-7.526-2.77l-24.742,24.741
		c2.441,0.845,4.799,1.937,7.009,3.289L128.703,227.867z"/>
	<path style="fill:#FFFFFF;" d="M143.151,247.584c0.082-0.082,0.175-0.143,0.263-0.215c-0.564-2.64-1.513-5.197-2.789-7.588
		l-25.258,25.26c1.355,2.217,2.45,4.582,3.298,7.029L143.151,247.584z"/>
	<path style="fill:#FFFFFF;" d="M138.768,231.717l2.971-2.971c0.356-0.357,0.41-0.775,0.41-0.992c0-0.217-0.054-0.635-0.411-0.992
		c-0.358-0.357-0.776-0.41-0.993-0.41c-0.216,0-0.634,0.053-0.992,0.41l-2.97,2.971c-0.085,0.084-0.181,0.152-0.273,0.226
		l-21.324,21.324c0.39,0.276,0.763,0.58,1.106,0.924c0.341,0.34,0.643,0.709,0.916,1.096l21.437-21.44
		C138.688,231.817,138.722,231.762,138.768,231.717"/>
	<path style="fill:#FFFFFF;" d="M152.774,253.408c0-0.775-0.629-1.404-1.402-1.404h-2.839c-0.125,0.185-0.268,0.363-0.433,0.529
		l-23.634,23.633c1.349,0.619,2.504,1.582,3.357,2.781l13.749-13.75c0.013-0.014,0.028-0.021,0.041-0.033
		c0.114-0.162,0.241-0.313,0.381-0.453l10.029-10.03c0.073-0.074,0.15-0.144,0.23-0.211
		C152.448,254.308,152.774,253.953,152.774,253.408"/>
	<path style="fill:#FFFFFF;" d="M83.294,315.887v4.195c0,0.774,0.63,1.405,1.404,1.405c0.774,0,1.404-0.631,1.404-1.405v-4.193
		c0-1.731,1.264-3.201,2.974-3.461c4.589-0.697,9.002-2.527,12.763-5.295c1.392-1.023,3.326-0.879,4.549,0.346l2.97,2.971
		c0.358,0.355,0.776,0.41,0.993,0.41c0.217,0,0.635-0.055,0.993-0.412c0.546-0.545,0.547-1.438-0.001-1.985l-2.969-2.969
		c-0.679-0.677-1.014-1.576-1.013-2.48c-0.001-0.039,0.001-0.08,0.002-0.121c0.005-0.141,0.018-0.279,0.04-0.418
		c0.016-0.113,0.036-0.225,0.063-0.338c0.014-0.049,0.029-0.1,0.045-0.148c0.127-0.44,0.342-0.854,0.644-1.225
		c2.695-3.725,4.483-8.066,5.168-12.582c0.259-1.711,1.73-2.975,3.46-2.975h4.195c0.773,0,1.402-0.631,1.402-1.404
		c0-0.775-0.629-1.404-1.402-1.404h-4.195c-1.73,0-3.201-1.266-3.46-2.977c-0.696-4.588-2.527-9.002-5.294-12.762
		c-1.025-1.392-0.88-3.326,0.344-4.548l2.971-2.971c0.356-0.358,0.41-0.775,0.41-0.992c0-0.217-0.054-0.635-0.411-0.992
		c-0.358-0.358-0.776-0.411-0.992-0.411c-0.217,0-0.635,0.053-0.993,0.411l-2.97,2.97c-1.223,1.223-3.156,1.369-4.549,0.344
		c-3.761-2.768-8.174-4.598-12.762-5.291c-1.711-0.26-2.975-1.731-2.975-3.461v-4.195c0-0.776-0.63-1.405-1.404-1.405
		c-0.283,0-0.547,0.086-0.768,0.231l-0.056,0.057c-0.062,0.062-0.135,0.107-0.201,0.164c-0.234,0.25-0.379,0.584-0.379,0.953v4.195
		c0,1.73-1.265,3.201-2.976,3.461c-4.587,0.693-9,2.523-12.761,5.291c-1.394,1.023-3.326,0.879-4.549-0.344l-2.972-2.97
		c-0.357-0.358-0.775-0.411-0.992-0.411s-0.635,0.053-0.992,0.411c-0.358,0.357-0.411,0.775-0.411,0.992
		c0,0.217,0.053,0.634,0.41,0.992l2.972,2.973c1.223,1.222,1.369,3.156,0.344,4.548c-2.767,3.762-4.597,8.174-5.292,12.76
		c-0.26,1.711-1.73,2.977-3.461,2.977h-4.197c-0.773,0-1.402,0.629-1.402,1.404c0,0.773,0.629,1.404,1.402,1.404h4.197
		c1.731,0,3.201,1.264,3.461,2.975c0.208,1.375,0.531,2.73,0.937,4.06l17.395-17.396c0.657-0.656,1.546-1.025,2.475-1.025h14.366
		c1.933,0,3.5,1.566,3.5,3.5v14.365c0,0.928-0.369,1.818-1.025,2.474l-17.361,17.362c1.297,0.39,2.618,0.701,3.956,0.904
		C82.029,312.686,83.294,314.157,83.294,315.887"/>
	<polygon style="fill:#FFFFFF;" points="87.748,290.236 87.748,285.769 71.356,302.16 71.356,306.627 	"/>
	<polygon style="fill:#FFFFFF;" points="61.94,297.213 66.405,297.213 82.798,280.82 78.332,280.82 	"/>
	<rect x="56.992" y="304.213" style="fill:#FFFFFF;" width="7.364" height="7.365"/>
	<path style="fill:#FFFFFF;" d="M182.91,141.514c-26.841,0.006-48.684,21.848-48.689,48.691c0,2.043,0.128,4.086,0.386,6.116
		l10.463-10.463c2.195-19,18.565-33.725,37.834-33.76c20.985,0.039,38.076,17.131,38.112,38.102c0,5.976-1.346,11.697-4.002,17.011
		c-0.818,1.639-2.763,2.366-4.456,1.674l-1.804-0.738l1.365,22.279l18.641-14.096l-1.907-0.779
		c-0.886-0.361-1.586-1.072-1.934-1.965c-0.349-0.892-0.317-1.89,0.09-2.758c3.047-6.509,4.592-13.447,4.592-20.623
		C231.597,163.362,209.754,141.52,182.91,141.514"/>
</g>
</svg>
