<?xml version="1.0" encoding="iso-8859-1"?>
<!-- Generator: Adobe Illustrator 25.4.1, SVG Export Plug-In . SVG Version: 6.00 Build 0)  -->
<svg version="1.1" id="Calque_1" xmlns="http://www.w3.org/2000/svg" xmlns:xlink="http://www.w3.org/1999/xlink" x="0px" y="0px"
	 viewBox="0 0 368.5 368.5" style="enable-background:new 0 0 368.5 368.5;" xml:space="preserve">
<g>
	<path style="fill:#FFFFFF;" d="M60.202,203.537L182.411,79.065c-7.965-3.42-13.552-11.308-13.552-20.493v-1.475L50.046,176.581
		c-0.103,0.104-0.236,0.147-0.349,0.233c-2.285,2.723-3.536,6.128-3.536,9.731v1.885C46.161,196.413,52.365,202.96,60.202,203.537"
		/>
	<path style="fill:#FFFFFF;" d="M298.308,203.226c-0.246,0.046-0.498,0.07-0.757,0.07h-0.041h-39.482
		c-0.16,0-0.311-0.028-0.466-0.046L134.333,325.994h32.686c0.204-0.046,0.413-0.07,0.626-0.07h29.128l122.698-122.698H298.308z"/>
	<path style="fill:#FFFFFF;" d="M253.937,186.518L138.252,303.127c-0.247,0.248-0.541,0.414-0.839,0.559l-6.177,9.123v7.612
		l122.701-122.22V186.518z"/>
	<path style="fill:#FFFFFF;" d="M177.039,58.573c0,7.797,6.344,14.139,14.142,14.139c2.258,0,4.137,1.831,4.137,4.09v7.023h4.045
		c28.718,0,54.262,20.357,60.738,48.401c0.479,2.071-0.709,4.162-2.731,4.814l-0.477,0.154l-6.072,2.148
		c-7.35,2.599-11.216,10.695-8.617,18.049l0.749,2.113c1.996,5.645,7.353,9.434,13.334,9.434c1.6,0,3.188-0.273,4.716-0.815
		l3.227-1.139c1.665-0.587,3.521-0.041,4.6,1.357c1.079,1.397,1.139,3.33,0.149,4.794l-6.862,10.132v11.849h34.632
		c0.246-0.046,0.498-0.07,0.753-0.07h27.011v-15.35h-40.265c-2.259,0-4.091-1.832-4.091-4.09v-43.738l-41.086-56.727h-31.53
		c-2.258,0-4.09-1.831-4.09-4.09V42.53l-12.266,0.014c-7.802,0-14.146,6.344-14.146,14.144V58.573z"/>
	<path style="fill:#FFFFFF;" d="M125.908,252.112L236.21,141.559c2.565-4.467,6.66-8.083,11.884-9.931l3.093-1.092
		c-6.863-22.532-28.097-38.531-51.824-38.531h-7.408l-122.703,122.7h0.253C94.191,214.705,116.317,229.57,125.908,252.112"/>
	<path style="fill:#FFFFFF;" d="M134.713,297.804c0.071-0.026,0.144-0.02,0.216-0.04l119.754-120.709
		c-8.783-0.635-16.473-6.427-19.441-14.823l-0.749-2.112c-0.805-2.278-1.204-4.598-1.259-6.891l-114.99,115.253l-4.734,5.001
		c-3.018,4.066-3.815,9.327-2.129,14.106l0.749,2.113c1.352,3.82,4.109,6.886,7.764,8.629c3.658,1.746,7.773,1.961,11.591,0.611
		L134.713,297.804z"/>
	<path style="fill:#FFFFFF;" d="M187.138,87.915V83.01l-122.7,124.97v2.864L187.159,88.126
		C187.155,88.055,187.138,87.987,187.138,87.915"/>
</g>
</svg>
