<?xml version="1.0" encoding="iso-8859-1"?>
<!-- Generator: Adobe Illustrator 25.4.1, SVG Export Plug-In . SVG Version: 6.00 Build 0)  -->
<svg version="1.1" id="Calque_1" xmlns="http://www.w3.org/2000/svg" xmlns:xlink="http://www.w3.org/1999/xlink" x="0px" y="0px"
	 viewBox="0 0 368.5 368.5" style="enable-background:new 0 0 368.5 368.5;" xml:space="preserve">
<g>
	<path style="fill:#FFFFFF;" d="M59.117,203.534L181.326,79.062c-7.965-3.42-13.552-11.308-13.552-20.493v-1.475L48.961,176.578
		c-0.103,0.104-0.236,0.147-0.349,0.233c-2.285,2.723-3.536,6.128-3.536,9.731v1.885C45.076,196.41,51.28,202.957,59.117,203.534"/>
	<path style="fill:#FFFFFF;" d="M297.222,203.223c-0.246,0.046-0.498,0.07-0.757,0.07h-0.041h-39.482
		c-0.16,0-0.311-0.028-0.466-0.046L133.247,325.991h32.686c0.204-0.046,0.413-0.07,0.626-0.07h29.128l122.698-122.698H297.222z"/>
	<path style="fill:#FFFFFF;" d="M252.852,186.514L137.167,303.123c-0.247,0.248-0.541,0.414-0.839,0.559l-6.177,9.123v7.612
		l122.701-122.22V186.514z"/>
	<path style="fill:#FFFFFF;" d="M175.954,58.569c0,7.797,6.344,14.139,14.142,14.139c2.258,0,4.137,1.831,4.137,4.09v7.023h4.045
		c28.718,0,54.262,20.357,60.738,48.401c0.479,2.071-0.709,4.162-2.731,4.814l-0.477,0.154l-6.072,2.148
		c-7.35,2.599-11.216,10.695-8.617,18.049l0.749,2.113c1.996,5.645,7.353,9.434,13.334,9.434c1.6,0,3.188-0.273,4.716-0.815
		l3.227-1.139c1.665-0.587,3.521-0.041,4.6,1.357c1.079,1.397,1.139,3.33,0.149,4.794l-6.862,10.132v11.849h34.632
		c0.246-0.046,0.498-0.07,0.753-0.07h27.011v-15.35h-40.265c-2.259,0-4.091-1.832-4.091-4.09v-43.738l-41.086-56.727h-31.53
		c-2.259,0-4.09-1.831-4.09-4.09V42.526L190.1,42.54c-7.802,0-14.146,6.344-14.146,14.144V58.569z"/>
	<path style="fill:#FFFFFF;" d="M124.823,252.109l110.302-110.553c2.565-4.467,6.66-8.083,11.884-9.931l3.093-1.092
		c-6.863-22.532-28.097-38.531-51.824-38.531h-7.408l-122.703,122.7h0.253C93.106,214.702,115.232,229.567,124.823,252.109"/>
	<path style="fill:#FFFFFF;" d="M133.627,297.801c0.071-0.026,0.144-0.02,0.216-0.04l119.754-120.709
		c-8.783-0.635-16.473-6.427-19.441-14.823l-0.749-2.112c-0.805-2.278-1.204-4.598-1.259-6.891l-114.99,115.253l-4.734,5.001
		c-3.018,4.066-3.815,9.327-2.129,14.106l0.749,2.113c1.352,3.82,4.109,6.886,7.764,8.629c3.658,1.746,7.773,1.961,11.591,0.611
		L133.627,297.801z"/>
	<path style="fill:#FFFFFF;" d="M186.053,87.911v-4.905l-122.7,124.97v2.864L186.074,88.122
		C186.07,88.051,186.053,87.983,186.053,87.911"/>
</g>
</svg>
