<?xml version="1.0" encoding="iso-8859-1"?>
<!-- Generator: Adobe Illustrator 25.4.1, SVG Export Plug-In . SVG Version: 6.00 Build 0)  -->
<svg version="1.1" id="Calque_1" xmlns="http://www.w3.org/2000/svg" xmlns:xlink="http://www.w3.org/1999/xlink" x="0px" y="0px"
	 viewBox="0 0 368.5 368.5" style="enable-background:new 0 0 368.5 368.5;" xml:space="preserve">
<polygon style="fill:#FFFFFF;" points="77.441,237.083 94.265,264.818 97.773,264.818 77.441,231.299 "/>
<polygon style="fill:#FFFFFF;" points="86.09,79.701 104.401,109.886 104.401,104.1 89.6,79.701 "/>
<polygon style="fill:#FFFFFF;" points="104.4,231.45 77.441,187.006 77.441,192.79 104.4,237.234 "/>
<g>
	<path style="fill:#FFFFFF;" d="M87.406,137.564c0.266,0,0.535-0.07,0.777-0.218c0.709-0.43,0.934-1.351,0.504-2.06l-11.246-18.539
		v5.783l8.682,14.312C86.406,137.307,86.9,137.564,87.406,137.564"/>
	<rect x="118.674" y="58.711" style="fill:#FFFFFF;" width="25.186" height="228.645"/>
	<path style="fill:#FFFFFF;" d="M298.315,240.208c-0.406-0.373-1.039-0.348-1.414,0.058c-0.373,0.406-0.348,1.039,0.059,1.413
		l15.214,14.018l-5.414,4.988l-9.312-8.581c-0.405-0.373-1.037-0.348-1.412,0.058c-0.375,0.406-0.35,1.039,0.056,1.413l9.194,8.469
		l-13.643,12.567h2.951l12.166-11.207l5.067,4.666l-7.102,6.541h2.953l5.623-5.181l0.518,0.476v-3.672l-0.518,0.477l-5.064-4.667
		l5.414-4.987l0.168,0.154v-3.028l-0.168,0.154L298.315,240.208z"/>
	<path style="fill:#FFFFFF;" d="M280.676,253.802c0.193,0.177,0.436,0.265,0.678,0.265c0.269,0,0.539-0.109,0.736-0.323
		c0.373-0.406,0.348-1.039-0.059-1.413l-3.035-2.797l2.686-2.474c0.406-0.374,0.431-1.007,0.059-1.413
		c-0.375-0.406-1.008-0.431-1.415-0.058l-2.806,2.586l-5.778-5.323l14.293-13.165c0.407-0.374,0.432-1.007,0.057-1.413
		c-0.373-0.406-1.006-0.431-1.412-0.058l-14.412,13.276l-3.504-3.228v2.72l2.027,1.868l-2.027,1.868v2.72l3.504-3.228l5.777,5.322
		l-9.281,8.551v2.72l10.756-9.91L280.676,253.802z"/>
	<path style="fill:#FFFFFF;" d="M275.937,263.69c-0.375-0.405-1.006-0.431-1.414-0.058l-7.76,7.15v2.72l9.115-8.399
		C276.285,264.729,276.31,264.096,275.937,263.69"/>
	<path style="fill:#FFFFFF;" d="M300.045,85.092l-9.658-8.898c-0.406-0.372-1.039-0.348-1.414,0.057
		c-0.373,0.407-0.348,1.039,0.058,1.413l9.537,8.787l-5.777,5.324l-4.941-4.553c-0.407-0.373-1.039-0.349-1.414,0.057
		c-0.373,0.407-0.348,1.04,0.058,1.414l4.821,4.441l-5.415,4.988l-5.064-4.666l2.303-2.122c0.406-0.374,0.431-1.007,0.056-1.413
		c-0.373-0.405-1.005-0.43-1.412-0.058l-2.424,2.233l-12.595-11.603v2.719l11.119,10.244l-5.414,4.989l-5.705-5.257v2.72
		l4.228,3.896l-4.228,3.897v2.719l5.705-5.257l5.064,4.666l-5.777,5.324l-1.316-1.213c-0.407-0.373-1.038-0.349-1.413,0.057
		c-0.375,0.407-0.349,1.039,0.057,1.413l1.195,1.102l-3.515,3.239v2.72l4.992-4.6l5.416,4.99l-10.408,9.587v2.72l4.992-4.599
		l5.777,5.322l-10.769,9.922v2.719l12.246-11.282l5.414,4.989l-17.66,16.269v2.72l19.136-17.63l5.416,4.989l-12.669,11.672
		l-0.229-0.211c-0.406-0.373-1.039-0.349-1.414,0.058c-0.373,0.406-0.348,1.039,0.059,1.413l0.107,0.099l-5.412,4.987l-4.994-4.602
		v2.72l3.517,3.241l-3.517,3.241v2.72l4.994-4.601l5.777,5.323l-5.416,4.991l-4.582-4.221c-0.219-0.2-0.5-0.276-0.773-0.25v2.256
		l3.879,3.574l-3.879,3.574v2.72l5.355-4.933l5.414,4.987l-10.769,9.922v2.72l12.246-11.282l5.414,4.989l-5.777,5.322l-3.131-2.884
		c-0.405-0.373-1.037-0.348-1.412,0.058c-0.375,0.406-0.35,1.039,0.056,1.413l3.012,2.773l-10.408,9.588v2.72l11.883-10.948
		l5.777,5.322l-17.66,16.271v2.72l19.136-17.632l5.415,4.988l-24.551,22.62v2.719l26.027-23.978l6.395,5.889
		c0.191,0.177,0.435,0.265,0.677,0.265c0.27,0,0.537-0.108,0.735-0.322c0.375-0.406,0.349-1.039-0.057-1.413l-13.164-12.127
		l5.775-5.322l6.034,5.556c0.191,0.177,0.435,0.265,0.677,0.265c0.27,0,0.537-0.109,0.735-0.322
		c0.375-0.407,0.349-1.039-0.057-1.414l-5.912-5.446l5.912-5.446c0.406-0.374,0.432-1.007,0.057-1.413
		c-0.373-0.406-1.006-0.431-1.412-0.058l-6.034,5.558l-5.775-5.322l5.416-4.991l4.219,3.886c0.191,0.177,0.435,0.265,0.678,0.265
		c0.269,0,0.537-0.109,0.734-0.323c0.375-0.406,0.35-1.039-0.057-1.413l-4.097-3.774l5.414-4.987l8.207,7.56
		c0.191,0.177,0.435,0.265,0.677,0.265c0.27,0,0.538-0.109,0.735-0.322c0.375-0.407,0.349-1.039-0.057-1.414l-8.088-7.45
		l5.778-5.321l5.306,4.889c0.192,0.176,0.436,0.264,0.678,0.264c0.27,0,0.537-0.108,0.734-0.322c0.075-0.08,0.121-0.175,0.164-0.269
		v-0.839c-0.052-0.112-0.125-0.216-0.22-0.305l-5.186-4.778l1.559-1.437c0.406-0.374,0.431-1.007,0.058-1.413
		c-0.375-0.405-1.005-0.43-1.414-0.058l-1.679,1.548l-5.414-4.989l5.416-4.989l6.88,6.34v-2.72l-5.406-4.98l5.406-4.979v-2.735
		l-5.406-4.982l5.406-4.98v-3.404l-5.406-4.98l5.406-4.981v-2.736l-5.406-4.98l5.406-4.981v-2.733l-5.406-4.982l5.406-4.98v-2.719
		l-6.882,6.34l-5.778-5.322l5.778-5.323l4.582,4.221c0.191,0.177,0.435,0.265,0.677,0.265c0.27,0,0.538-0.109,0.735-0.323
		c0.375-0.406,0.349-1.039-0.057-1.413l-4.461-4.109l5.406-4.98v-2.719l-6.882,6.339l-5.414-4.99l12.037-11.089h-2.951l-3.672,3.382
		l-3.67-3.382h-2.953l5.146,4.742L300.045,85.092z M292.791,94.494l5.416,4.989l-5.416,4.988l-5.414-4.989L292.791,94.494z
		 M292.791,130.53l-5.414-4.987l5.777-5.323l5.414,4.988L292.791,130.53z M300.045,126.568l5.416,4.989l-5.779,5.322l-5.414-4.988
		L300.045,126.568z M285.9,124.183l-5.777-5.322l5.777-5.323l5.778,5.323L285.9,124.183z M294.631,118.861l5.414-4.989l5.414,4.988
		l-5.414,4.988L294.631,118.861z M293.154,117.5l-5.777-5.322l5.414-4.987l5.777,5.321L293.154,117.5z M285.9,110.819l-5.414-4.99
		l5.414-4.987l5.416,4.988L285.9,110.819z M273.945,99.804l5.414-4.988l5.065,4.666l-5.414,4.988L273.945,99.804z M273.233,112.512
		l5.777-5.322l5.416,4.988l-5.777,5.323L273.233,112.512z M273.233,125.209l5.416-4.989l5.775,5.323l-5.414,4.988L273.233,125.209z
		 M280.486,131.891l5.414-4.988l5.415,4.988l-5.415,4.988L280.486,131.891z M287.377,138.239l5.414-4.989l5.416,4.989l-5.416,4.988
		L287.377,138.239z M299.682,139.599l5.777,5.322l-5.414,4.988l-5.777-5.322L299.682,139.599z M292.791,145.946l5.779,5.323
		l-12.67,11.673l-5.777-5.324L292.791,145.946z M273.234,163.964l5.413-4.986l5.777,5.323l-5.412,4.986L273.234,163.964z
		 M285.9,165.66l5.416,4.989l-5.414,4.986l-5.414-4.988L285.9,165.66z M273.596,176.997l5.416-4.99l5.414,4.988l-5.416,4.991
		L273.596,176.997z M291.678,196.375l-5.778,5.322l-5.777-5.321l5.777-5.323L291.678,196.375z M285.9,188.334l-5.416-4.989
		l5.418-4.99l5.416,4.989L285.9,188.334z M292.793,181.984l-5.414-4.989l5.412-4.987l5.416,4.988L292.793,181.984z M305.459,170.315
		l-5.775,5.322l-5.416-4.988l5.777-5.323L305.459,170.315z M300.045,162.607l-3.492-3.219c-0.406-0.373-1.039-0.348-1.414,0.058
		c-0.373,0.406-0.348,1.039,0.058,1.413l3.373,3.107l-5.779,5.323l-5.414-4.988l12.668-11.672l5.416,4.988L300.045,162.607z
		 M312.352,151.27l-5.414,4.988l-5.416-4.989l5.414-4.988L312.352,151.27z M312.713,138.239l-5.777,5.323l-5.778-5.323l5.778-5.323
		L312.713,138.239z M312.352,125.208l-5.416,4.989l-5.414-4.989l5.414-4.988L312.352,125.208z M312.35,112.512l-5.414,4.988
		l-5.414-4.988l5.414-4.987L312.35,112.512z M305.459,106.164l-5.414,4.989l-5.777-5.323l5.414-4.988L305.459,106.164z
		 M305.461,92.801l-5.779,5.322l-5.414-4.989l5.777-5.322L305.461,92.801z"/>
	<path style="fill:#FFFFFF;" d="M256.69,287.929h68.043V60.368H256.69V287.929z M264.264,70.363h52.055c1.381,0,2.5,1.119,2.5,2.5
		v204.249c0,1.381-1.119,2.5-2.5,2.5h-52.055c-1.381,0-2.5-1.119-2.5-2.5V72.863C261.764,71.482,262.883,70.363,264.264,70.363"/>
	<rect x="243.256" y="60.367" style="fill:#FFFFFF;" width="8.434" height="227.561"/>
	<path style="fill:#FFFFFF;" d="M157.262,282.329h-3.357c-1.161,0-2.1,0.939-2.1,2.1c0,1.158,0.939,2.099,2.1,2.099h3.357
		c1.16,0,2.098-0.941,2.098-2.099C159.36,283.268,158.422,282.329,157.262,282.329"/>
	<path style="fill:#FFFFFF;" d="M214.352,286.528h3.357c1.161,0,2.1-0.941,2.1-2.1c0-1.16-0.939-2.099-2.1-2.099h-3.357
		c-1.16,0-2.1,0.939-2.1,2.099C212.251,285.587,213.191,286.528,214.352,286.528"/>
	<path style="fill:#FFFFFF;" d="M172.373,282.329h-3.357c-1.161,0-2.1,0.939-2.1,2.1c0,1.158,0.939,2.099,2.1,2.099h3.357
		c1.16,0,2.1-0.941,2.1-2.099C174.473,283.268,173.533,282.329,172.373,282.329"/>
	<path style="fill:#FFFFFF;" d="M232.824,286.528c1.156,0,2.096-0.941,2.096-2.1c0-1.16-0.94-2.099-2.096-2.099h-3.361
		c-1.159,0-2.1,0.939-2.1,2.099c0,1.159,0.941,2.1,2.1,2.1H232.824z"/>
	<path style="fill:#FFFFFF;" d="M199.24,286.528h3.357c1.161,0,2.1-0.941,2.1-2.1c0-1.16-0.939-2.099-2.1-2.099h-3.357
		c-1.16,0-2.1,0.939-2.1,2.099C197.14,285.587,198.08,286.528,199.24,286.528"/>
	<path style="fill:#FFFFFF;" d="M184.127,286.528h3.359c1.161,0,2.098-0.941,2.098-2.1c0-1.16-0.937-2.099-2.098-2.099h-3.359
		c-1.16,0-2.098,0.939-2.098,2.099C182.029,285.587,182.967,286.528,184.127,286.528"/>
	<path style="fill:#FFFFFF;" d="M214.352,63.832h3.357c1.161,0,2.1-0.94,2.1-2.1s-0.939-2.097-2.1-2.097h-3.357
		c-1.16,0-2.1,0.937-2.1,2.097S213.191,63.832,214.352,63.832"/>
	<path style="fill:#FFFFFF;" d="M232.824,59.634h-3.361c-1.159,0-2.1,0.937-2.1,2.098c0,1.159,0.941,2.099,2.1,2.099h3.361
		c1.156,0,2.096-0.94,2.096-2.099C234.92,60.571,233.98,59.634,232.824,59.634"/>
	<path style="fill:#FFFFFF;" d="M172.373,59.634h-3.357c-1.161,0-2.1,0.937-2.1,2.098c0,1.159,0.939,2.099,2.1,2.099h3.357
		c1.16,0,2.1-0.94,2.1-2.099C174.473,60.571,173.533,59.634,172.373,59.634"/>
	<path style="fill:#FFFFFF;" d="M199.24,63.832h3.357c1.161,0,2.1-0.94,2.1-2.1s-0.939-2.097-2.1-2.097h-3.357
		c-1.16,0-2.1,0.937-2.1,2.097S198.08,63.832,199.24,63.832"/>
	<path style="fill:#FFFFFF;" d="M184.127,63.832h3.359c1.161,0,2.098-0.94,2.098-2.1s-0.937-2.097-2.098-2.097h-3.359
		c-1.16,0-2.098,0.937-2.098,2.097S182.967,63.832,184.127,63.832"/>
	<path style="fill:#FFFFFF;" d="M157.262,59.634h-3.357c-1.161,0-2.1,0.937-2.1,2.098c0,1.159,0.939,2.099,2.1,2.099h3.357
		c1.16,0,2.098-0.94,2.098-2.099C159.36,60.571,158.422,59.634,157.262,59.634"/>
	<path style="fill:#FFFFFF;" d="M164.221,292.356H79.905c1.957,2.372,3.134,5.41,3.134,8.719c0,3.306-1.177,6.344-3.132,8.715
		h84.314c4.807,0,8.717-3.91,8.717-8.715C172.938,296.267,169.028,292.356,164.221,292.356"/>
	<path style="fill:#FFFFFF;" d="M78.039,301.075c0-4.808-3.91-8.719-8.717-8.719h-3.058H48.881v17.434h19.422h1.019
		C74.129,309.79,78.039,305.881,78.039,301.075"/>
	<path style="fill:#FFFFFF;" d="M49,287.137v0.219h17.263h3.059h44.351V58.711H82.209H49v0.216h-5h-0.233v228.21H44H49z
		 M109.4,84.979v174.562c0,5.763-3.172,10.278-7.219,10.278h-52.58v-5v-84.061l10.949,18.051v-5.785l-10.949-18.051v-17.621v-5
		H63.05c1.381,0,2.5,1.119,2.5,2.5v109.967h6.891V154.852c0-1.381,1.119-2.5,2.5-2.5H104.4v-5.831H74.941
		c-1.381,0-2.5-1.119-2.5-2.5v-64.32H65.55v64.32c0,1.381-1.119,2.5-2.5,2.5H49.601v-5v-20.146l5.352,8.631
		c0.283,0.458,0.773,0.71,1.275,0.71c0.27,0,0.543-0.072,0.789-0.225c0.703-0.437,0.92-1.361,0.485-2.065l-7.901-12.742V79.701v-5
		h52.58C106.228,74.701,109.4,79.215,109.4,84.979"/>
</g>
</svg>
