<?xml version="1.0" encoding="iso-8859-1"?>
<!-- Generator: Adobe Illustrator 25.4.1, SVG Export Plug-In . SVG Version: 6.00 Build 0)  -->
<svg version="1.1" id="Calque_1" xmlns="http://www.w3.org/2000/svg" xmlns:xlink="http://www.w3.org/1999/xlink" x="0px" y="0px"
	 viewBox="0 0 368.5 368.5" style="enable-background:new 0 0 368.5 368.5;" xml:space="preserve">
<g>
	<path style="fill:#FFFFFF;" d="M51.324,113.167l37.195,25.344v-32.345L50.916,80.49v32.451
		C51.058,113.004,51.195,113.079,51.324,113.167"/>
	<polygon style="fill:#FFFFFF;" points="215.657,270.303 215.122,305.426 215.122,307.63 262.403,300.058 262.403,262.817 	"/>
	<path style="fill:#FFFFFF;" d="M56.65,75.929l156.31,106.729l102.341-16.389L158.992,59.539L56.65,75.929z M166.867,81.684
		l88.455,60.398c0.844,0.577,1.253,1.609,1.031,2.607c-0.221,0.997-1.028,1.76-2.037,1.925l-51.599,8.45
		c-0.134,0.022-0.269,0.033-0.404,0.033c-0.52,0-1.03-0.162-1.458-0.469l-85.214-61.182c-0.823-0.592-1.208-1.621-0.974-2.608
		c0.234-0.986,1.04-1.734,2.041-1.892l48.358-7.666C165.696,81.176,166.34,81.325,166.867,81.684"/>
	<path style="fill:#FFFFFF;" d="M93.519,141.918l49.341,33.62c0.39,0.266,0.678,0.638,0.864,1.057l3.901,2.663v-32.735
		l-54.106-36.944V141.918z"/>
	<polygon style="fill:#FFFFFF;" points="143.42,217.303 210.122,262.752 210.122,227.985 143.875,182.751 143.42,212.564 	"/>
	<polygon style="fill:#FFFFFF;" points="251.457,217.505 295.389,210.47 295.389,176.546 251.457,183.582 	"/>
	<polygon style="fill:#FFFFFF;" points="215.122,223.324 246.457,218.306 246.457,184.383 215.122,189.4 	"/>
	<path style="fill:#FFFFFF;" d="M152.625,182.385c0,0.092-0.017,0.179-0.027,0.268l57.524,39.278v-32.735l-57.497-39.258V182.385z"
		/>
	<polygon style="fill:#FFFFFF;" points="107.107,210.446 102.6,207.383 102.6,232.621 107.107,235.698 	"/>
	<path style="fill:#FFFFFF;" d="M264.521,257.336l14.084-2.179l42.431-6.795v-36.935l-105.914,16.961v36.936l48.828-7.819
		C264.13,257.43,264.318,257.367,264.521,257.336"/>
	<polygon style="fill:#FFFFFF;" points="300.389,209.669 321.035,206.362 321.035,172.44 300.389,175.745 	"/>
	<polygon style="fill:#FFFFFF;" points="97.6,203.987 50.916,172.269 50.916,197.331 97.6,229.207 	"/>
	<polygon style="fill:#FFFFFF;" points="202.93,149.962 236.961,144.389 165.103,95.324 133.752,100.293 	"/>
	<polygon style="fill:#FFFFFF;" points="163.957,92.468 163.957,86.518 123.498,92.931 130.287,97.806 	"/>
	<polygon style="fill:#FFFFFF;" points="166.957,92.958 241.251,143.687 247.344,142.688 166.957,87.8 	"/>
	<polygon style="fill:#FFFFFF;" points="210.087,307.709 210.647,270.95 203.609,272.07 203.048,308.961 	"/>
	<path style="fill:#FFFFFF;" d="M206.753,266.507l-65.37-44.541c-0.094,0.021-0.188,0.049-0.287,0.059l-4.911,0.558l65.619,44.712
		L206.753,266.507z"/>
	<path style="fill:#FFFFFF;" d="M198.075,307.146l0.548-35.968l-70.05-47.73l-1.201,0.135c-0.094,0.011-0.188,0.016-0.282,0.016
		c-0.705,0-1.383-0.299-1.86-0.83l-0.023-0.025l-13.1-8.901v35.117L198.075,307.146z"/>
	<polygon style="fill:#FFFFFF;" points="41.921,118.874 128.118,176.768 134.701,176.028 49.306,117.843 	"/>
	<polygon style="fill:#FFFFFF;" points="129.32,218.33 138.347,217.305 138.907,180.589 129.864,181.603 	"/>
	<polygon style="fill:#FFFFFF;" points="124.352,216.118 124.878,180.615 38.366,122.509 38.366,157.697 	"/>
	<polygon style="fill:#FFFFFF;" points="271.175,268.185 267.403,265.341 267.403,302.314 271.175,305.112 	"/>
	<polygon style="fill:#FFFFFF;" points="322.917,253.363 270.561,261.461 273.787,263.893 326.062,255.857 	"/>
	<polygon style="fill:#FFFFFF;" points="276.175,268.585 276.175,307.25 330.133,298.21 329.6,260.372 	"/>
</g>
</svg>
