<?xml version="1.0" encoding="iso-8859-1"?>
<!-- Generator: Adobe Illustrator 25.4.1, SVG Export Plug-In . SVG Version: 6.00 Build 0)  -->
<svg version="1.1" id="Calque_1" xmlns="http://www.w3.org/2000/svg" xmlns:xlink="http://www.w3.org/1999/xlink" x="0px" y="0px"
	 viewBox="0 0 368.5 368.5" style="enable-background:new 0 0 368.5 368.5;" xml:space="preserve">
<g>
	<path style="fill:#FFFFFF;" d="M200.56,136.82c6.001,0.01,11.731,1.202,16.981,3.337c3.041-3.15,6.257-6.157,9.639-9.004
		c-7.968-4.17-17.018-6.543-26.615-6.543c-31.77,0.002-57.619,25.848-57.623,57.616l-0.09,99.177
		c-0.029,15.995-13.063,29.031-29.056,29.063c-16.006-0.032-29.044-13.068-29.076-29.057l0.004-51.918L72.513,231.7v49.703
		c0.005,22.754,18.522,41.267,41.277,41.271c22.752-0.004,41.267-18.517,41.273-41.271l0.091-99.179
		C155.199,157.229,175.569,136.862,200.56,136.82"/>
	<path style="fill:#FFFFFF;" d="M241.16,289.213c0-25.89,21.063-46.953,46.952-46.953c6.862,0,13.379,1.491,19.261,4.15V104.601
		c-0.011-0.107-0.017-0.212-0.017-0.32l-0.002-9.598c-0.005-12.583-10.25-22.825-22.836-22.831h-18.109
		c-12.586,0.006-22.832,10.248-22.837,22.831v30.268c0,1.023-0.512,1.977-1.364,2.543c-33.952,22.559-54.223,60.317-54.223,101.001
		v71.052h54.335C241.569,296.22,241.16,292.764,241.16,289.213 M253.964,94.683c0.011-6.847,5.59-12.426,12.438-12.442h0.007h18.11
		c6.851,0.016,12.431,5.594,12.447,12.434v10.548c0,1.542-1.15,2.842-2.681,3.03c-12.516,1.537-24.623,4.987-35.985,10.255
		c-0.408,0.189-0.846,0.282-1.284,0.282c-0.573,0-1.144-0.161-1.642-0.48c-0.878-0.559-1.41-1.53-1.41-2.572V94.683z"/>
	<path style="fill:#FFFFFF;" d="M288.113,252.434c-20.28,0-36.778,16.499-36.778,36.779c0,20.28,16.498,36.778,36.778,36.778
		c20.28,0,36.779-16.498,36.779-36.778C324.892,268.933,308.393,252.434,288.113,252.434 M269.294,289.213
		c0-10.374,8.442-18.815,18.819-18.815c10.377,0,18.819,8.441,18.819,18.815c0,10.377-8.442,18.821-18.819,18.821
		C277.736,308.034,269.294,299.59,269.294,289.213"/>
	<path style="fill:#FFFFFF;" d="M78.859,183.911c1.356-0.244,2.737-0.369,4.104-0.369c2.565,0,5.039,0.441,7.36,1.23l0.59-103.688
		c-1.305,0.376-2.678,0.593-4.102,0.594h-0.02c-2.156,0-4.202-0.47-6.054-1.299l-0.512,90.127l-16.281,2.943
		c-9.109,1.655-15.612,9.267-16.267,18.092c2.554-1.724,5.483-2.976,8.702-3.56L78.859,183.911z"/>
	<path style="fill:#FFFFFF;" d="M86.802,75.573c4.851-0.007,8.791-3.962,8.785-8.816l-0.033-24.231l-17.598,0.026l0.035,24.231
		c0.005,4.846,3.953,8.79,8.8,8.79v3.052L86.802,75.573z"/>
	<path style="fill:#FFFFFF;" d="M85.944,223.068c9.134-1.66,15.225-10.441,13.576-19.574c-1.458-8.023-8.421-13.847-16.558-13.847
		c-1.005,0-2.02,0.091-3.018,0.272l-22.476,4.07c-9.132,1.656-15.222,10.437-13.573,19.571l0.068,0.373
		c1.602,7.827,8.472,13.473,16.478,13.473c1.007,0,2.025-0.093,3.025-0.274L85.944,223.068z M61.654,217.125
		c-0.399,0.073-0.798,0.107-1.191,0.107h-0.001c-3.224,0-5.982-2.306-6.559-5.483c-0.653-3.614,1.759-7.089,5.375-7.747l22.481-4.07
		c3.696-0.663,7.096,1.809,7.748,5.364c0.649,3.625-1.76,7.101-5.369,7.76L61.654,217.125z"/>
</g>
</svg>
