<?xml version="1.0" encoding="iso-8859-1"?>
<!-- Generator: Adobe Illustrator 25.4.1, SVG Export Plug-In . SVG Version: 6.00 Build 0)  -->
<svg version="1.1" id="Calque_1" xmlns="http://www.w3.org/2000/svg" xmlns:xlink="http://www.w3.org/1999/xlink" x="0px" y="0px"
	 viewBox="0 0 368.5 368.5" style="enable-background:new 0 0 368.5 368.5;" xml:space="preserve">
<g>
	<path style="fill:#FFFFFF;" d="M102.747,303.329l-23.773-4.008c0.465,4.526,4.301,8.069,8.951,8.071l7.306-0.002
		C98.37,307.39,101.136,305.772,102.747,303.329"/>
	<polygon style="fill:#FFFFFF;" points="98.394,270.673 104.232,271.657 104.232,270.673 	"/>
	<polygon style="fill:#FFFFFF;" points="47.719,137.548 73.333,218.859 110.982,218.859 136.329,137.548 	"/>
	<path style="fill:#FFFFFF;" d="M46.191,131.571c0.079-0.006,0.153-0.023,0.231-0.023h90.682c0.254,0,0.497,0.041,0.732,0.101
		c0.52-2.795,0.791-5.643,0.791-8.494c0-12.451-4.847-24.154-13.651-32.957c-8.801-8.803-20.504-13.65-32.95-13.65h-0.004
		c-25.699,0-46.606,20.906-46.606,46.603C45.415,125.971,45.678,128.788,46.191,131.571"/>
	<path style="fill:#FFFFFF;" d="M111.368,224.859H71.701c-4.964,0-9.001,4.037-9.001,9.002v21.814c0,4.963,4.037,8.998,9,8.998
		h39.667c2.404,0,4.664-0.935,6.364-2.634c1.7-1.701,2.636-3.961,2.636-6.366l0.001-21.812
		C120.367,228.896,116.33,224.859,111.368,224.859"/>
	<path style="fill:#FFFFFF;" d="M108.897,278.528l-32.591-5.494c-0.185-0.031-0.373-0.047-0.557-0.047
		c-1.619,0-2.99,1.162-3.26,2.764c-0.303,1.8,0.916,3.515,2.716,3.818l32.592,5.492c1.81,0.301,3.518-0.931,3.82-2.717
		C111.92,280.546,110.7,278.833,108.897,278.528"/>
	<path style="fill:#FFFFFF;" d="M111.618,295.378c0.146-0.871-0.055-1.748-0.567-2.469c-0.513-0.72-1.277-1.197-2.15-1.344
		l-32.596-5.498c-0.185-0.031-0.373-0.046-0.557-0.046c-1.618,0-2.988,1.162-3.259,2.761c-0.147,0.875,0.056,1.752,0.568,2.475
		c0.513,0.721,1.276,1.197,2.148,1.346l32.594,5.494C109.6,298.396,111.317,297.163,111.618,295.378"/>
	<path style="fill:#FFFFFF;" d="M295.38,114.43h-55.842c-16.055,0-27.704,13.696-27.704,28.707v142.639
		c0,13.09,10.609,23.703,23.704,23.703h63.842c13.091,0,23.704-10.613,23.704-23.703V143.137
		C323.084,128.874,309.607,114.43,295.38,114.43 M272.506,303.643h-10.182c-4.524,0-8.206-3.681-8.206-8.207
		c0-4.523,3.682-8.205,8.206-8.205h10.182c4.524,0,8.206,3.682,8.206,8.205C280.712,299.962,277.03,303.643,272.506,303.643
		 M309.243,259.2c0,11.998-9.73,21.73-21.728,21.73h-40.999c-12.002,0-21.729-9.732-21.729-21.73V145.971
		c0-12,6.604-18.607,18.607-18.607h47.866c12.001,0,17.983,5.982,17.983,17.982V259.2z"/>
	<path style="fill:#FFFFFF;" d="M272.506,294.232h-10.182c-0.665,0-1.206,0.541-1.206,1.205c0,0.666,0.541,1.207,1.206,1.207h10.182
		c0.665,0,1.206-0.541,1.206-1.207C273.712,294.772,273.171,294.232,272.506,294.232"/>
	<path style="fill:#FFFFFF;" d="M220.35,68.2c2.534,0.035,4.614-1.994,4.649-4.525c0.032-2.536-1.993-4.618-4.526-4.649
		c-35.747-0.48-65.225,28.213-65.706,63.963c-0.035,2.533,1.993,4.613,4.526,4.648c2.535,0.034,4.615-1.992,4.647-4.525
		C164.353,92.419,189.661,67.79,220.35,68.2"/>
	<path style="fill:#FFFFFF;" d="M220.097,87.075c2.533,0.035,4.612-1.994,4.647-4.525c0.035-2.534-1.991-4.618-4.524-4.649
		c-25.343-0.342-46.238,20-46.578,45.34c-0.034,2.535,1.991,4.615,4.528,4.648c2.534,0.036,4.614-1.992,4.648-4.525
		C183.09,103.081,199.812,86.802,220.097,87.075"/>
	<path style="fill:#FFFFFF;" d="M224.491,101.421c0.032-2.533-1.992-4.615-4.525-4.65c-14.937-0.202-27.25,11.787-27.451,26.722
		c-0.033,2.535,1.994,4.618,4.526,4.651c2.535,0.035,4.615-1.992,4.65-4.528c0.132-9.877,8.277-17.804,18.151-17.672
		C222.376,105.98,224.456,103.954,224.491,101.421"/>
</g>
</svg>
