<?xml version="1.0" encoding="iso-8859-1"?>
<!-- Generator: Adobe Illustrator 25.4.1, SVG Export Plug-In . SVG Version: 6.00 Build 0)  -->
<svg version="1.1" id="Calque_1" xmlns="http://www.w3.org/2000/svg" xmlns:xlink="http://www.w3.org/1999/xlink" x="0px" y="0px"
	 viewBox="0 0 368.5 368.5" style="enable-background:new 0 0 368.5 368.5;" xml:space="preserve">
<g>
	<path style="fill:#FFFFFF;" d="M52.364,70.395c-5.154,0-9.33,4.175-9.33,9.33v209.088c0,5.151,4.176,9.33,9.33,9.33
		s9.33-4.179,9.33-9.33V79.725C61.694,74.57,57.518,70.395,52.364,70.395"/>
	<path style="fill:#FFFFFF;" d="M175.42,288.812c0,5.152,4.175,9.33,9.33,9.33c5.154,0,9.331-4.178,9.331-9.33V79.725
		c0-5.156-4.177-9.331-9.331-9.331c-5.155,0-9.33,4.175-9.33,9.331V288.812z"/>
	<path style="fill:#FFFFFF;" d="M306.836,79.725v209.087c0,5.152,4.175,9.331,9.33,9.331c5.154,0,9.331-4.179,9.331-9.331V79.725
		c0-5.155-4.177-9.33-9.331-9.33C311.011,70.395,306.836,74.57,306.836,79.725"/>
</g>
<path style="fill:#FFFFFF;" d="M297.468,87.044h-24.485c-0.782,0-1.42,0.634-1.42,1.418v21.271h21.946c0.828,0,1.5,0.671,1.5,1.5
	s-0.672,1.5-1.5,1.5h-21.946v19.184h21.946c0.828,0,1.5,0.671,1.5,1.5s-0.672,1.5-1.5,1.5h-21.946v19.783h21.946
	c0.828,0,1.5,0.671,1.5,1.5s-0.672,1.5-1.5,1.5h-21.946v20.383h21.946c0.828,0,1.5,0.671,1.5,1.5s-0.672,1.5-1.5,1.5h-21.946v19.184
	h21.946c0.828,0,1.5,0.672,1.5,1.5s-0.672,1.5-1.5,1.5h-21.946v28.776h21.946c0.828,0,1.5,0.672,1.5,1.5s-0.672,1.5-1.5,1.5h-21.946
	v23.381h21.946c0.828,0,1.5,0.672,1.5,1.5s-0.672,1.5-1.5,1.5h-21.946v18.653c0,0.783,0.638,1.417,1.42,1.417h24.485
	c0.782,0,1.418-0.634,1.418-1.417V88.462C298.886,87.678,298.25,87.044,297.468,87.044z"/>
<g>
	<rect x="236.797" y="157.699" style="fill:#FFFFFF;" width="27.315" height="20.383"/>
	<rect x="236.797" y="134.916" style="fill:#FFFFFF;" width="27.315" height="19.783"/>
	<rect x="236.797" y="203.266" style="fill:#FFFFFF;" width="27.315" height="28.776"/>
	<rect x="236.797" y="181.082" style="fill:#FFFFFF;" width="27.315" height="19.184"/>
	<path style="fill:#FFFFFF;" d="M264.112,109.732V88.462c0-0.784-0.634-1.418-1.418-1.418h-24.481c-0.784,0-1.416,0.634-1.416,1.418
		v21.271H264.112z"/>
	<path style="fill:#FFFFFF;" d="M236.797,261.423v18.653c0,0.783,0.632,1.417,1.416,1.417h24.481c0.784,0,1.418-0.634,1.418-1.417
		v-18.653H236.797z"/>
	<rect x="236.797" y="235.042" style="fill:#FFFFFF;" width="27.315" height="23.381"/>
	<rect x="236.797" y="112.732" style="fill:#FFFFFF;" width="27.315" height="19.184"/>
</g>
<path style="fill:#FFFFFF;" d="M207.4,261.423c-0.828,0-1.5-0.672-1.5-1.5s0.672-1.5,1.5-1.5h21.939v-23.381H207.4
	c-0.828,0-1.5-0.672-1.5-1.5s0.672-1.5,1.5-1.5h21.939v-28.776H207.4c-0.828,0-1.5-0.672-1.5-1.5s0.672-1.5,1.5-1.5h21.939v-19.184
	H207.4c-0.828,0-1.5-0.671-1.5-1.5s0.672-1.5,1.5-1.5h21.939v-20.383H207.4c-0.828,0-1.5-0.671-1.5-1.5s0.672-1.5,1.5-1.5h21.939
	v-19.783H207.4c-0.828,0-1.5-0.671-1.5-1.5s0.672-1.5,1.5-1.5h21.939v-19.184H207.4c-0.828,0-1.5-0.671-1.5-1.5s0.672-1.5,1.5-1.5
	h21.939V88.462c0-0.784-0.634-1.418-1.418-1.418H203.44c-0.785,0-1.421,0.634-1.421,1.418v191.614c0,0.783,0.636,1.417,1.421,1.417
	h24.481c0.784,0,1.418-0.634,1.418-1.417v-18.653H207.4z"/>
<path style="fill:#FFFFFF;" d="M166.19,87.044h-24.485c-0.782,0-1.42,0.634-1.42,1.418v21.271h21.945c0.829,0,1.5,0.671,1.5,1.5
	s-0.671,1.5-1.5,1.5h-21.945v19.184h21.945c0.829,0,1.5,0.671,1.5,1.5s-0.671,1.5-1.5,1.5h-21.945v19.783h21.945
	c0.829,0,1.5,0.671,1.5,1.5s-0.671,1.5-1.5,1.5h-21.945v20.383h21.945c0.829,0,1.5,0.671,1.5,1.5s-0.671,1.5-1.5,1.5h-21.945v19.184
	h21.945c0.829,0,1.5,0.672,1.5,1.5s-0.671,1.5-1.5,1.5h-21.945v28.776h21.945c0.829,0,1.5,0.672,1.5,1.5s-0.671,1.5-1.5,1.5h-21.945
	v23.381h21.945c0.829,0,1.5,0.672,1.5,1.5s-0.671,1.5-1.5,1.5h-21.945v18.653c0,0.783,0.638,1.417,1.42,1.417h24.485
	c0.782,0,1.418-0.634,1.418-1.417V88.462C167.607,87.678,166.971,87.044,166.19,87.044z"/>
<g>
	<rect x="105.518" y="134.916" style="fill:#FFFFFF;" width="27.315" height="19.783"/>
	<rect x="105.518" y="157.699" style="fill:#FFFFFF;" width="27.315" height="20.383"/>
	<rect x="105.518" y="181.082" style="fill:#FFFFFF;" width="27.315" height="19.184"/>
	<rect x="105.518" y="203.266" style="fill:#FFFFFF;" width="27.315" height="28.776"/>
	<path style="fill:#FFFFFF;" d="M132.833,109.732V88.462c0-0.784-0.634-1.418-1.418-1.418h-24.481c-0.784,0-1.416,0.634-1.416,1.418
		v21.271H132.833z"/>
	<rect x="105.518" y="112.732" style="fill:#FFFFFF;" width="27.315" height="19.184"/>
	<path style="fill:#FFFFFF;" d="M105.518,261.423v18.653c0,0.783,0.632,1.417,1.416,1.417h24.481c0.784,0,1.418-0.634,1.418-1.417
		v-18.653H105.518z"/>
	<rect x="105.518" y="235.042" style="fill:#FFFFFF;" width="27.315" height="23.381"/>
</g>
<path style="fill:#FFFFFF;" d="M76.121,261.423c-0.829,0-1.5-0.672-1.5-1.5s0.671-1.5,1.5-1.5h21.94v-23.381h-21.94
	c-0.829,0-1.5-0.672-1.5-1.5s0.671-1.5,1.5-1.5h21.94v-28.776h-21.94c-0.829,0-1.5-0.672-1.5-1.5s0.671-1.5,1.5-1.5h21.94v-19.184
	h-21.94c-0.829,0-1.5-0.671-1.5-1.5s0.671-1.5,1.5-1.5h21.94v-20.383h-21.94c-0.829,0-1.5-0.671-1.5-1.5s0.671-1.5,1.5-1.5h21.94
	v-19.783h-21.94c-0.829,0-1.5-0.671-1.5-1.5s0.671-1.5,1.5-1.5h21.94v-19.184h-21.94c-0.829,0-1.5-0.671-1.5-1.5s0.671-1.5,1.5-1.5
	h21.94V88.462c0-0.784-0.634-1.418-1.418-1.418H72.162c-0.785,0-1.421,0.634-1.421,1.418v191.614c0,0.783,0.636,1.417,1.421,1.417
	h24.481c0.784,0,1.418-0.634,1.418-1.417v-18.653H76.121z"/>
</svg>
