<?xml version="1.0" encoding="iso-8859-1"?>
<!-- Generator: Adobe Illustrator 25.4.1, SVG Export Plug-In . SVG Version: 6.00 Build 0)  -->
<svg version="1.1" id="Calque_1" xmlns="http://www.w3.org/2000/svg" xmlns:xlink="http://www.w3.org/1999/xlink" x="0px" y="0px"
	 viewBox="0 0 368.5 368.5" style="enable-background:new 0 0 368.5 368.5;" xml:space="preserve">
<g>
	<path style="fill:#FFFFFF;" d="M260.583,155.616c2.118,5.308,3.298,11.091,3.298,17.144l0.006,14.343
		c0,5.722-4.656,10.377-10.378,10.377c-5.724,0-10.379-4.655-10.379-10.377v-14.342c-0.012-6.59-2.546-12.593-6.658-17.145H126.315
		c-4.114,4.552-6.648,10.558-6.658,17.151v14.336c0,5.722-4.656,10.377-10.377,10.377c-5.722,0-10.378-4.655-10.378-10.377v-14.342
		c0.002-6.054,1.18-11.837,3.3-17.145h-7.386c-5.219,0-11.363,3.217-12.458,5.237L44.7,227.388
		c-1.279,2.289-1.456,4.364-0.503,5.989c0.918,1.565,2.865,2.577,4.959,2.577h272.668c2.094,0,4.037-1.077,4.834-2.678
		c0.873-1.759,0.302-4.12-1.612-6.65l-44.566-65.505c-1.718-2.622-7.462-5.505-12.619-5.505H260.583z"/>
	<path style="fill:#FFFFFF;" d="M105.128,172.762v14.341c0,2.289,1.861,4.151,4.151,4.151c2.289,0,4.151-1.862,4.151-4.151v-14.342
		c0.028-17.557,14.333-31.86,31.887-31.891h72.15c17.555,0.031,31.858,14.333,31.889,31.886v14.347c0,2.289,1.862,4.151,4.153,4.151
		c2.215,0,4.031-1.745,4.144-3.933v-14.56c-0.004-22.16-18.03-40.193-40.186-40.197h-72.145
		C123.165,132.568,105.134,150.601,105.128,172.762"/>
</g>
</svg>
