<?xml version="1.0" encoding="iso-8859-1"?>
<!-- Generator: Adobe Illustrator 25.4.1, SVG Export Plug-In . SVG Version: 6.00 Build 0)  -->
<svg version="1.1" id="Calque_1" xmlns="http://www.w3.org/2000/svg" xmlns:xlink="http://www.w3.org/1999/xlink" x="0px" y="0px"
	 viewBox="0 0 368.5 368.5" style="enable-background:new 0 0 368.5 368.5;" xml:space="preserve">
<g>
	<path style="fill:#FFFFFF;" d="M59.711,46.901v273.652h8.451l25.217-98.65v-73.756L68.145,46.901H59.711z M81.26,207.141
		c0,3.125-2.543,5.668-5.666,5.668c-3.125,0-5.666-2.543-5.666-5.668v-19c0-3.125,2.541-5.667,5.666-5.667
		c3.123,0,5.666,2.542,5.666,5.667V207.141z M80.594,157.101c3.125,0,5.666,2.542,5.666,5.666c0,3.125-2.541,5.667-5.666,5.667h-10
		c-3.125,0-5.668-2.542-5.668-5.667c0-3.124,2.543-5.666,5.668-5.666H80.594z"/>
	<rect x="47.072" y="46.899" style="fill:#FFFFFF;" width="5.639" height="273.653"/>
	<path style="fill:#FFFFFF;" d="M79.047,163.148c0-1.858-1.508-3.367-3.367-3.367c-1.862,0-3.367,1.509-3.367,3.367
		c0,1.861,1.505,3.369,3.367,3.369C77.539,166.517,79.047,165.009,79.047,163.148"/>
	<path style="fill:#FFFFFF;" d="M75.418,201.122c1.859,0,3.367-1.508,3.367-3.368c0-1.861-1.508-3.368-3.367-3.368
		c-1.861,0-3.369,1.507-3.369,3.368C72.049,199.614,73.557,201.122,75.418,201.122"/>
	<path style="fill:#FFFFFF;" d="M111.221,86.881c0,7.624,4.711,13.134,13.268,15.514l95.902,25.484v-27.192h-5.514
		c-5.924,0-10.744-4.82-10.744-10.745c0-5.924,4.82-10.744,10.744-10.744h5.514V49.62l-93.809,21.529
		C119.586,72.807,111.221,76.887,111.221,86.881"/>
	<path style="fill:#FFFFFF;" d="M243.146,86.198h-28.27c-2.064,0-3.744,1.68-3.744,3.744c0,2.065,1.68,3.744,3.744,3.744h28.114
		c-0.129-0.911-0.219-1.835-0.219-2.781v-0.903C242.771,88.7,242.906,87.431,243.146,86.198"/>
	<path style="fill:#FFFFFF;" d="M308.654,77.228h-46.109c-7.043,0-12.774,5.73-12.774,12.773v0.904
		c0,7.044,5.731,12.774,12.774,12.774h46.109c7.043,0,12.774-5.73,12.774-12.774v-0.904
		C321.428,82.958,315.697,77.228,308.654,77.228"/>
	<polygon style="fill:#FFFFFF;" points="284.426,173.459 284.426,155.075 151.299,288.201 169.684,288.201 	"/>
	<path style="fill:#FFFFFF;" d="M132.34,313.489c0-1.105,0.896-2,2-2c1.105,0,2,0.895,2,2v8.046h10.174v-8.046c0-1.105,0.896-2,2-2
		c1.105,0,2,0.895,2,2v8.046h10.174v-8.046c0-1.105,0.896-2,2-2c1.105,0,2,0.895,2,2v8.046h10.173v-8.046c0-1.105,0.895-2,2-2
		c1.104,0,2,0.895,2,2v8.046h10.174v-8.046c0-1.105,0.895-2,2-2c1.104,0,2,0.895,2,2v8.046h10.172v-8.046c0-1.105,0.897-2,2-2
		c1.106,0,2,0.895,2,2v8.046h10.174v-8.046c0-1.105,0.897-2,2-2c1.105,0,2,0.895,2,2v8.046h10.174v-8.046c0-1.105,0.894-2,2-2
		c1.103,0,2,0.895,2,2v8.046h10.174v-8.046c0-1.105,0.894-2,2-2c1.103,0,2,0.895,2,2v8.046h10.172v-8.046c0-1.105,0.896-2,2-2
		c1.105,0,2,0.895,2,2v8.046h10.173v-8.046c0-1.105,0.897-2,2-2c1.106,0,2,0.895,2,2v8.046h9.852c0.109,0,0.215,0.021,0.322,0.031
		v-8.077c0-1.105,0.895-2,2-2c1.104,0,2,0.895,2,2v8.111h10.174v-8.111c0-1.105,0.895-2,2-2c1.104,0,2,0.895,2,2v8.111h11.338
		v-30.87h-7.17c-1.105,0-2-0.895-2-2c0-1.104,0.895-2,2-2h7.17v-10.175h-7.17c-1.105,0-2-0.895-2-2c0-1.104,0.895-2,2-2h7.17
		v-10.171h-7.17c-1.105,0-2-0.896-2-2c0-1.105,0.895-2,2-2h7.17V248.21h-7.17c-1.105,0-2-0.896-2-2c0-1.105,0.895-2,2-2h7.17
		v-10.173h-7.17c-1.105,0-2-0.896-2-2c0-1.105,0.895-2,2-2h7.17v-10.174h-7.17c-1.105,0-2-0.895-2-2c0-1.104,0.895-2,2-2h7.17
		v-10.174h-7.17c-1.105,0-2-0.895-2-2c0-1.104,0.895-2,2-2h7.17v-10.174h-7.17c-1.105,0-2-0.895-2-2c0-1.104,0.895-2,2-2h7.17
		v-10.172h-7.17c-1.105,0-2-0.896-2-2c0-1.105,0.895-2,2-2h7.17v-10.174h-7.17c-1.105,0-2-0.896-2-2c0-1.105,0.895-2,2-2h7.17
		v-10.172h-7.17c-1.105,0-2-0.896-2-2c0-1.105,0.895-2,2-2h7.17v-10.175h-7.17c-1.105,0-2-0.895-2-2c0-1.104,0.895-2,2-2h7.17V124.6
		h-26.334v22.025v28.284v116.792c0,1.933-1.566,3.5-3.5,3.5H171.133H142.85h-23.428v26.334h12.918V313.489z"/>
</g>
</svg>
