<?xml version="1.0" encoding="iso-8859-1"?>
<!-- Generator: Adobe Illustrator 25.4.1, SVG Export Plug-In . SVG Version: 6.00 Build 0)  -->
<svg version="1.1" id="Calque_1" xmlns="http://www.w3.org/2000/svg" xmlns:xlink="http://www.w3.org/1999/xlink" x="0px" y="0px"
	 viewBox="0 0 368.5 368.5" style="enable-background:new 0 0 368.5 368.5;" xml:space="preserve">
<g>
	<path style="fill:#FFFFFF;" d="M72.698,261.086l12.967-8.73l-12.967-8.385l12.967-8.738l-12.967-8.379l12.967-8.737l-12.967-8.38
		l12.967-8.731l-12.967-8.384l3.348-2.256h-8.555v87.172c0,1.329,1.078,2.409,2.414,2.409c0.924,0,1.74-0.63,2.27-0.988l13.49-9.49
		L72.698,261.086z"/>
	<path style="fill:#FFFFFF;" d="M57.599,165.946h103.055c0.132,0,0.259,0.016,0.39,0.02l23.373-0.036
		c5.659,0,10.852-3.09,13.561-8.063c0.613-1.126,1.793-1.826,3.074-1.826h13.734c2.25,0,4.081-1.831,4.081-4.082
		c0-2.249-1.831-4.079-4.081-4.079h-12.48c-1.496,0-2.826-0.95-3.311-2.364c-2.14-6.235-7.996-10.423-14.572-10.423h-61.459
		c-1.933,0-3.5-1.568-3.5-3.5V98.448c0-9.031-7.347-16.379-16.379-16.379H73.976c-9.029,0-16.377,7.348-16.377,16.379V165.946z
		 M179.773,137.648c1.863,0.518,2.953,2.447,2.435,4.31l-5.279,18.994c-0.43,1.549-1.836,2.564-3.369,2.564
		c-0.311,0-0.627-0.043-0.94-0.129c-1.863-0.518-2.953-2.447-2.435-4.31l5.279-18.994
		C175.982,138.22,177.911,137.133,179.773,137.648 M168.937,137.648c1.861,0.518,2.953,2.447,2.435,4.309l-5.277,18.994
		c-0.43,1.55-1.836,2.565-3.369,2.565c-0.311,0-0.625-0.043-0.94-0.129c-1.861-0.518-2.953-2.447-2.435-4.309l5.277-18.994
		C165.144,138.22,167.074,137.133,168.937,137.648 M148.515,159.077l5.279-18.994c0.518-1.863,2.448-2.95,4.309-2.435
		c1.863,0.518,2.953,2.447,2.435,4.31l-5.279,18.994c-0.43,1.549-1.836,2.564-3.369,2.564c-0.311,0-0.627-0.043-0.939-0.129
		C149.087,162.869,147.997,160.94,148.515,159.077"/>
	<path style="fill:#FFFFFF;" d="M160.653,183.366c2.871,0,5.207-2.336,5.207-5.207c0-2.874-2.336-5.213-5.207-5.213H51.124
		c-2.875,0-5.213,2.339-5.213,5.213c0,2.871,2.338,5.207,5.213,5.207H160.653z"/>
	<path style="fill:#FFFFFF;" d="M303.583,259.267h-11.91c-0.395,0-0.752-0.233-0.915-0.592c-3.523-7.89-11.371-12.987-19.992-12.987
		H160.674c-21.603,0-47.793,14.026-50.502,53.556c-0.035,0.504-0.439,0.904-0.945,0.931l-1.178,0.062l-12.062,0.001
		c-1.645,0-2.982,1.339-2.982,2.985s1.337,2.986,2.982,2.986h140.301c1.642,0,2.98-1.34,2.98-2.986s-1.338-2.985-2.98-2.985h-12.209
		c-0.268,0-0.524-0.107-0.713-0.297c-0.188-0.191-0.291-0.448-0.287-0.715l0.111-8.625c0.008-0.548,0.453-0.988,1-0.988h46.576
		c9.024,0,17.012-5.43,20.348-13.835c0.152-0.38,0.519-0.63,0.93-0.63h11.539c4.379,0,7.941-3.56,7.941-7.935
		C311.524,262.831,307.962,259.267,303.583,259.267 M245.76,257.337l-5.728,20.609c-0.307,1.106-1.313,1.831-2.406,1.831
		c-0.223,0-0.448-0.03-0.672-0.092c-1.33-0.369-2.108-1.747-1.739-3.078l5.729-20.61c0.369-1.33,1.744-2.109,3.078-1.738
		C245.352,254.628,246.131,256.006,245.76,257.337 M257.516,257.337l-5.728,20.609c-0.307,1.106-1.313,1.831-2.407,1.831
		c-0.222,0-0.447-0.03-0.671-0.092c-1.33-0.369-2.108-1.747-1.739-3.078l5.729-20.61c0.369-1.33,1.746-2.109,3.078-1.738
		C257.108,254.628,257.887,256.006,257.516,257.337 M269.276,257.337l-5.728,20.609c-0.307,1.106-1.313,1.831-2.407,1.831
		c-0.222,0-0.447-0.03-0.672-0.092c-1.33-0.369-2.107-1.747-1.738-3.078l5.729-20.61c0.369-1.33,1.746-2.109,3.078-1.738
		C268.868,254.628,269.647,256.006,269.276,257.337"/>
	<path style="fill:#FFFFFF;" d="M253.148,305.742c-2.131,0-3.865,1.732-3.865,3.862c-0.006,2.461-2.014,4.467-4.479,4.473H89.937
		c-2.467-0.006-4.475-2.012-4.48-4.471c0-2.132-1.733-3.864-3.862-3.864c-2.131,0-3.863,1.732-3.863,3.862
		c0.006,6.721,5.482,12.193,12.205,12.199h154.863c6.727-0.006,12.199-5.478,12.199-12.199
		C256.999,307.474,255.27,305.742,253.148,305.742"/>
	<path style="fill:#FFFFFF;" d="M156.733,221.845c-11.936,0.835-21.041,10.982-20.713,22.839c2.543-1.253,5.213-2.303,7.961-3.13
		c1.148-6.514,6.639-11.508,13.289-11.983l39.996-2.801c7.707-0.535,14.346,5.067,15.405,12.482h7.8
		c-1.037-11.398-10.687-20.265-22.166-20.265c-0.523,0-1.051,0.018-1.58,0.055L156.733,221.845z"/>
	<path style="fill:#FFFFFF;" d="M167.114,67.733h-11.375l-7.758-2.449c-0.07-0.024-0.146-0.028-0.221-0.019l-11.23,1.622
		c-0.246,0.036-0.43,0.247-0.43,0.495v7.269c0,0.248,0.184,0.459,0.43,0.495l11.227,1.627c0.023,0.003,0.046,0.005,0.07,0.005
		c0.049,0,0.098-0.007,0.146-0.022l7.762-2.358h11.379V67.733z"/>
	<path style="fill:#FFFFFF;" d="M200.681,86.928V55.377h-15.73c-4.03,0-7.913,1.566-10.836,4.334v22.887
		c2.923,2.766,6.806,4.33,10.836,4.33H200.681z"/>
	<path style="fill:#FFFFFF;" d="M312.878,165.158c0.437,0,0.867,0.032,1.295,0.065l-17.568-63.485
		c-0.856,0.072-1.717,0.117-2.59,0.117h-26.916c0.064,1.284,0.262,2.653,0.699,4.009c0.748,2.324,2.318,3.732,4.135,5.36
		c1.97,1.768,4.203,3.771,5.05,7.009c0.684,2.612-0.451,4.949-1.453,7.012c-0.562,1.162-1.336,2.753-1.099,3.371
		c0.388,1.022,1.273,1.599,2.801,2.528c1.757,1.072,4.166,2.538,5.16,5.528c0.939,2.804-0.002,5.626-0.832,8.115
		c-0.641,1.921-1.303,3.906-0.836,5.156c0.472,1.258,1.705,1.977,3.676,3.044c2.191,1.189,4.919,2.667,5.923,5.855
		c0.602,1.903,0.28,4.219-0.32,6.316H312.878z"/>
	<path style="fill:#FFFFFF;" d="M294.015,94.855c13.195,0,23.931-10.734,23.931-23.929v-0.297c0-13.196-10.736-23.932-23.931-23.932
		H207.68v48.158H294.015z M283.266,82.976l6.934-24.962c0.518-1.865,2.449-2.952,4.309-2.436c1.863,0.518,2.953,2.446,2.435,4.309
		l-6.933,24.962c-0.43,1.549-1.838,2.564-3.371,2.564c-0.311,0-0.625-0.042-0.938-0.129
		C283.839,86.767,282.749,84.838,283.266,82.976 M269.024,82.974l6.936-24.961c0.517-1.863,2.449-2.951,4.31-2.435
		c1.862,0.518,2.952,2.446,2.434,4.31l-6.936,24.961c-0.431,1.549-1.838,2.564-3.371,2.564c-0.31,0-0.625-0.042-0.939-0.129
		C269.597,86.767,268.507,84.838,269.024,82.974 M258.157,87.413c-0.31,0-0.625-0.042-0.937-0.129
		c-1.864-0.517-2.954-2.446-2.436-4.308l6.936-24.962c0.517-1.865,2.443-2.952,4.308-2.436c1.863,0.518,2.953,2.446,2.436,4.309
		l-6.936,24.962C261.097,86.398,259.69,87.413,258.157,87.413"/>
	<path style="fill:#FFFFFF;" d="M322.589,181.863c0-5.352-4.355-9.705-9.711-9.705h-40.359c-5.354,0-9.709,4.354-9.709,9.706v30.824
		c0,5.353,4.355,9.707,9.709,9.707l40.359-0.002c5.356,0,9.711-4.353,9.711-9.705V181.863z"/>
</g>
</svg>
