<?xml version="1.0" encoding="iso-8859-1"?>
<!-- Generator: Adobe Illustrator 25.4.1, SVG Export Plug-In . SVG Version: 6.00 Build 0)  -->
<svg version="1.1" id="Calque_1" xmlns="http://www.w3.org/2000/svg" xmlns:xlink="http://www.w3.org/1999/xlink" x="0px" y="0px"
	 viewBox="0 0 368.5 368.5" style="enable-background:new 0 0 368.5 368.5;" xml:space="preserve">
<g>
	<path style="fill:#FFFFFF;" d="M91.894,62.906c-1.034-1.038-2.411-1.612-3.876-1.615c-1.467-0.003-2.846,0.564-3.885,1.598
		c-1.038,1.035-1.612,2.412-1.615,3.879l-0.259,121.734c1.743-0.628,3.596-0.971,5.505-0.966c1.898,0.004,3.738,0.35,5.471,0.978
		l0.259-121.723C93.496,65.325,92.929,63.945,91.894,62.906"/>
	<path style="fill:#FFFFFF;" d="M87.755,191.889c-3.149-0.007-6.111,1.213-8.34,3.433c-2.23,2.22-3.46,5.175-3.465,8.322
		l-0.052,22.334c-0.002,1.202-0.978,2.174-2.181,2.172l-13.497-0.029c-2.695-0.007-5.23,1.038-7.139,2.939s-2.963,4.432-2.97,7.127
		l-0.003,1.873c0.069,0.197,0.108,0.407,0.11,0.625c0.07,4.802,0.099,9.521,0.092,14.426c-0.031,14.148-0.241,27.587-2.451,36.549
		c-1.006,4.074-1.845,7.277-2.674,9.671c-0.4,1.148-0.724,2.017-0.946,2.588c-0.158,0.401-0.257,0.638-0.303,0.75l-0.001-0.001
		c-0.013,0.035-0.027,0.069-0.043,0.104c-0.297,0.682-0.374,1.341-0.208,1.761c0.062,0.157,0.182,0.357,0.567,0.526
		c0.095,0.04,0.095,0.04,0.472,0.04c0.656,0.001,1.367-0.657,1.726-1.463c0.49-0.944,10.537-20.466,10.608-50.509
		c0.008-4.834,0.057-9.553,0.15-14.426c0.023-1.186,0.991-2.138,2.181-2.136l10.739,0.023c1.189,0.003,2.155,0.957,2.172,2.145
		c0.071,4.888,0.1,9.607,0.089,14.426c-0.03,14.149-0.239,27.591-2.45,36.548c-1.007,4.081-1.845,7.288-2.674,9.671
		c-0.393,1.145-0.722,2.017-0.946,2.592c-0.145,0.37-0.241,0.598-0.291,0.718l-0.001,0.001c-0.015,0.043-0.032,0.086-0.051,0.129
		c-0.264,0.609-0.357,1.201-0.251,1.626c0.056,0.23,0.168,0.468,0.61,0.661c0.097,0.041,0.097,0.041,0.47,0.043
		c0.651,0,1.364-0.656,1.724-1.463l0.001,0.001c0.019-0.045,0.04-0.09,0.063-0.132c0.427-0.824,10.475-20.52,10.546-50.38
		c0.01-4.81,0.06-9.529,0.15-14.428c0.024-1.187,0.993-2.14,2.181-2.136l11.584,0.028c1.189,0.003,2.155,0.957,2.172,2.145
		c0.07,4.817,0.1,9.535,0.09,14.425c-0.032,14.153-0.241,27.599-2.449,36.549c-1.011,4.089-1.853,7.297-2.674,9.667
		c-0.396,1.148-0.723,2.016-0.946,2.59c-0.174,0.443-0.277,0.686-0.318,0.783c-0.009,0.023-0.019,0.046-0.03,0.069
		c-0.297,0.682-0.375,1.34-0.208,1.761c0.062,0.157,0.182,0.357,0.568,0.526c0.096,0.042,0.096,0.042,0.465,0.042
		c0.666,0.003,1.372-0.65,1.73-1.461c0.022-0.048,0.044-0.096,0.07-0.143c0.156-0.295,10.468-20.22,10.54-50.368
		c0.011-4.826,0.06-9.545,0.151-14.427c0.023-1.186,0.991-2.138,2.181-2.136l11.757,0.025c1.189,0.003,2.155,0.957,2.172,2.145
		c0.07,4.753,0.1,9.471,0.09,14.427c-0.03,14.153-0.241,27.597-2.449,36.549c-1.009,4.083-1.85,7.289-2.675,9.67
		c-0.394,1.143-0.723,2.012-0.945,2.587c-0.151,0.382-0.247,0.612-0.296,0.729c-0.016,0.042-0.032,0.084-0.05,0.126
		c-0.297,0.68-0.375,1.337-0.209,1.758c0.061,0.157,0.181,0.357,0.568,0.525c0.099,0.043,0.099,0.043,0.471,0.045
		c0.648,0.002,1.365-0.654,1.723-1.463c0.02-0.043,0.042-0.089,0.064-0.131c0.427-0.816,10.474-20.338,10.545-50.381
		c0.013-4.841,0.063-9.558,0.152-14.426c0.002-0.093,0.01-0.185,0.023-0.276l0.009-1.419c-0.004-0.06-0.007-0.119-0.007-0.18
		l0.004-0.627c0.005-2.688-1.039-5.224-2.939-7.133c-1.902-1.91-4.433-2.965-7.127-2.97l-13.64-0.032
		c-1.203-0.003-2.175-0.979-2.172-2.181l0.048-22.331c0.006-3.148-1.215-6.108-3.436-8.339
		C93.855,193.127,90.901,191.895,87.755,191.889"/>
	<path style="fill:#FFFFFF;" d="M291.986,62.795c-0.952-0.967-2.217-1.501-3.563-1.503c-1.334-0.002-2.594,0.519-3.547,1.467
		c-0.976,0.973-1.515,2.273-1.518,3.662l-0.291,136.131c1.607-0.576,3.314-0.891,5.071-0.887c1.748,0.003,3.442,0.321,5.04,0.897
		l0.289-136.121C293.47,65.063,292.944,63.769,291.986,62.795"/>
	<path style="fill:#FFFFFF;" d="M287.577,205.727c2.905-0.005,5.639,1.119,7.696,3.168c2.058,2.049,3.194,4.778,3.2,7.682
		l0.08,37.032l27.462,27.342c1.412,1.47,1.398,3.812-0.048,5.263l-19.84,19.925c-1.465,1.471-3.854,1.477-5.324,0.013
		c-1.471-1.464-1.476-3.854-0.011-5.325l17.18-17.254l-13.243-13.187l-17.181,17.253c-1.464,1.472-3.853,1.478-5.324,0.013
		c-1.471-1.465-1.476-3.855-0.012-5.326l17.181-17.254l-13.213-13.156L269,269.169c-1.465,1.471-3.855,1.476-5.327,0.01
		c-1.47-1.464-1.474-3.853-0.009-5.324l17.18-17.253l-13.214-13.158l-17.181,17.253c-1.464,1.471-3.854,1.476-5.325,0.011
		c-1.471-1.464-1.476-3.853-0.011-5.324l17.181-17.254l-13.214-13.157l-17.18,17.253c-1.465,1.471-3.855,1.477-5.326,0.012
		s-1.475-3.854-0.01-5.325l19.668-19.76c0.06-0.069,0.116-0.141,0.171-0.213c1.234-1.243,3.232-1.445,4.721-0.455
		c0.187,0.123,0.36,0.26,0.523,0.412l25.113,25.011l-0.032-15.287c-0.005-2.903,1.119-5.636,3.168-7.694
		C281.946,206.869,284.674,205.732,287.577,205.727"/>
	<path style="fill:#FFFFFF;" d="M182.62,305.778c0.94,0.945,2.193,1.466,3.527,1.468c1.333,0.004,2.586-0.513,3.531-1.453
		c0.944-0.94,1.465-2.193,1.469-3.525l0.237-111.069c-1.586,0.566-3.271,0.876-5.006,0.872c-1.724-0.003-3.397-0.318-4.974-0.886
		l-0.236,111.061C181.164,303.58,181.68,304.834,182.62,305.778"/>
	<path style="fill:#FFFFFF;" d="M186.386,188.062c2.868,0.007,5.567-1.103,7.598-3.126c2.031-2.022,3.153-4.716,3.157-7.584
		l0.044-20.042c0,0,0.091-18.877,0.104-25.255c0.031-14.232-5.285-19.34-5.338-19.39c-0.804-0.749-0.865-2.013-0.126-2.824
		c0.023-0.027,0.047-0.051,0.071-0.075c0.746-0.742,1.941-0.791,2.736-0.083c0.274,0.244,6.702,6.145,6.667,22.38
		c-0.011,4.996-0.068,17.648-0.093,22.912l17.869,0.037c2.455,0.005,4.764-0.946,6.503-2.678c1.738-1.73,2.699-4.036,2.705-6.49
		l0.06-28.634c0.031-14.503-5.2-28.752-14.726-40.122c-8.024-9.575-18.25-15.773-26.055-15.789l-2.877-0.007
		c-5.796-0.012-13.374,4.082-20.272,10.95c-12.373,12.32-19.781,29.762-19.816,46.655l-0.057,26.769
		c-0.005,2.453,0.945,4.762,2.677,6.501c1.732,1.74,4.036,2.699,6.489,2.704l17.953,0.041c-0.001-5.264-0.004-17.915,0.006-22.91
		c0.033-14.908,5.471-21.08,6.574-22.178c0.098-0.098,0.161-0.156,0.184-0.175c0.831-0.733,2.097-0.653,2.83,0.177
		c0.732,0.83,0.658,2.083-0.178,2.83c-0.024,0.018-5.37,5.11-5.4,19.355c-0.011,5.72-0.006,21.478-0.005,24.674
		c0.01,0.083,0.048,0.156,0.048,0.241l-0.042,20.38c-0.006,2.867,1.105,5.565,3.127,7.596
		C180.826,186.933,183.519,188.056,186.386,188.062"/>
</g>
</svg>
