<?xml version="1.0" encoding="iso-8859-1"?>
<!-- Generator: Adobe Illustrator 25.4.1, SVG Export Plug-In . SVG Version: 6.00 Build 0)  -->
<svg version="1.1" id="Calque_1" xmlns="http://www.w3.org/2000/svg" xmlns:xlink="http://www.w3.org/1999/xlink" x="0px" y="0px"
	 viewBox="0 0 368.5 368.5" style="enable-background:new 0 0 368.5 368.5;" xml:space="preserve">
<g>
	<path style="fill:#FFFFFF;" d="M226.991,195.858c-9.474-14.403-21.8-16.345-32.609-16.345H107.54
		c-12.789,0-21.965,1.134-32.57,16.286l-24.676,39.098l-0.113,0.199c-3.598,7.064-3.418,15.08,0.482,21.441
		c3.096,5.052,8.174,8.302,13.877,8.995c0.758,0.093,1.526,0.144,2.301,0.144h2.781l4.684,30.304
		c2.351,9.084,8.41,18.813,16.219,18.813h126.302c7.327,0,13.987-7.706,16.213-18.748l4.699-30.408
		c1.809-0.104,3.557-0.44,5.211-0.989c4.635-1.536,8.536-4.738,10.983-9.197c3.775-6.881,3.371-15.167-1.137-22.242L226.991,195.858
		z M249.55,253.046c-2.623,4.777-7.49,7.63-13.02,7.63H66.841c-4.941,0-9.285-2.461-11.914-6.751
		c-2.967-4.838-3.092-10.984-0.342-16.46l24.514-38.848c8.953-12.768,15.547-14.104,28.441-14.104h86.842
		c13.611,0,21.848,4.083,28.465,14.14l25.785,37.32C252.091,241.406,252.435,247.789,249.55,253.046"/>
	<path style="fill:#FFFFFF;" d="M238.577,245.59c2.182-3.978,1.246-9.871-2.519-15.785l-11.491-17.617
		c-0.753-1.157-2.304-1.484-3.459-0.728c-1.156,0.754-1.482,2.303-0.728,3.46l11.477,17.594c2.671,4.198,3.589,8.387,2.335,10.67
		c-0.734,1.342-2.32,2.021-4.71,2.021h-2.668c-2.331-9.181-11.84-16.038-22.936-16.038c-2.654,0-5.303,0.404-7.871,1.199
		l-3.092,0.958l-0.144-3.234c-0.827-18.361-16.598-32.745-35.907-32.745c-13.548,0-25.818,7.15-32.019,18.661l-0.899,1.668
		l-1.849-0.414c-2.584-0.579-5.156-0.872-7.651-0.872c-16.824,0-31.541,12.092-32.134,26.403l-0.043,0.897
		c-0.012,0.212-0.024,0.482-0.037,0.775c-0.004,0.076-0.008,0.151-0.01,0.231c-0.006,0.112-0.01,0.229-0.014,0.346
		c-0.004,0.098-0.006,0.197-0.01,0.297c-0.004,0.116-0.005,0.234-0.007,0.353c-0.004,0.104-0.006,0.209-0.006,0.314
		c-0.002,0.115-0.004,0.231-0.004,0.345c0,0.114,0,0.226,0.002,0.337c0,0.101,0.002,0.204,0.004,0.301
		c0.002,0.077,0.006,0.145,0.009,0.218h-8.681c-2.033,0-3.461-0.692-4.241-2.057c-1.497-2.622-0.708-7.294,2.003-11.895
		l18.128-30.469c0.707-1.187,0.317-2.721-0.869-3.427c-1.183-0.704-2.72-0.319-3.427,0.87l-18.133,30.478
		c-3.725,6.317-4.489,12.643-2.043,16.923c1.687,2.951,4.734,4.577,8.582,4.577h155.967
		C235.191,250.205,237.63,247.314,238.577,245.59 M176.558,210.867c2.197,0,3.984,1.747,3.984,3.894
		c0,2.147-1.787,3.894-3.984,3.894c-2.194,0-3.979-1.747-3.979-3.894C172.579,212.614,174.364,210.867,176.558,210.867
		 M159.997,200.596c2.199,0,3.986,1.747,3.986,3.896c0,2.148-1.787,3.895-3.986,3.895c-2.193,0-3.978-1.747-3.978-3.895
		C156.019,202.343,157.804,200.596,159.997,200.596 M148.286,206.934c2.27,0,4.115,1.803,4.115,4.019
		c0,2.218-1.845,4.022-4.115,4.022c-2.269,0-4.115-1.804-4.115-4.022C144.171,208.737,146.017,206.934,148.286,206.934
		 M101.357,226.67c0-2.636,2.209-4.781,4.923-4.781c2.715,0,4.922,2.145,4.922,4.781c0,2.637-2.207,4.781-4.922,4.781
		C103.566,231.451,101.357,229.307,101.357,226.67 M133.401,227.937c0-2.915,2.45-5.287,5.461-5.287
		c3.012,0,5.461,2.372,5.461,5.287c0,2.914-2.449,5.285-5.461,5.285C135.851,233.222,133.401,230.851,133.401,227.937
		 M165.712,233.513c0-3.475,2.934-6.301,6.541-6.301c3.605,0,6.541,2.826,6.541,6.301c0,3.476-2.936,6.304-6.541,6.304
		C168.646,239.817,165.712,236.989,165.712,233.513"/>
	<path style="fill:#FFFFFF;" d="M284.048,161.508c-2.291-0.005-4.498-0.564-6.467-1.61l0.102,157.761
		c0.002,3.453,2.808,6.252,6.263,6.249c3.454,0,6.25-2.802,6.25-6.257l-0.107-157.524c-1.816,0.875-3.844,1.381-5.992,1.381H284.048
		z"/>
	<path style="fill:#FFFFFF;" d="M284.097,156.508c4.887,0,8.871-3.977,8.879-8.866l0.047-18.223c0-0.006,0.002-0.011,0.002-0.016
		c0.011-2.325,0.088-17.01,0.101-22.254c0.031-12.403-4.467-16.756-4.511-16.796c-1.032-0.919-1.123-2.499-0.206-3.531
		c0.918-1.03,2.498-1.121,3.532-0.204c0.254,0.227,6.222,5.714,6.185,20.543c-0.009,4.254-0.062,14.721-0.088,19.772l15.266,0.039
		c4.154,0,7.518-3.356,7.523-7.481l0.069-25.603c0.072-28.909-23.139-49.259-35.735-49.292l-2.568-0.004
		c-13.217,0-35.088,23.731-35.154,50.775l-0.063,23.932c-0.004,2.006,0.772,3.893,2.186,5.314c1.414,1.422,3.297,2.208,5.301,2.211
		l15.341,0.042c0-5.048,0-15.521,0.018-19.78c0.033-14.822,6.029-20.28,6.285-20.505c1.031-0.913,2.613-0.815,3.528,0.222
		c0.914,1.035,0.814,2.615-0.221,3.528c-0.018,0.017-4.565,4.435-4.592,16.771c-0.02,4.98-0.018,18.452-0.018,21.808
		c0.03,0.155,0.045,0.311,0.045,0.47l-0.049,18.221c-0.007,2.375,0.913,4.609,2.586,6.292c1.674,1.681,3.903,2.61,6.276,2.615
		l0.035,2.5V156.508z"/>
	<polygon style="fill:#FFFFFF;" points="52.925,143.187 52.759,148.041 231.005,148.041 230.886,143.425 	"/>
	<polygon style="fill:#FFFFFF;" points="99.497,80.368 99.497,78.298 80.083,78.298 76.183,87.243 	"/>
	<polygon style="fill:#FFFFFF;" points="183.835,78.298 183.835,79.929 206.431,86.619 202.673,78.298 	"/>
	<path style="fill:#FFFFFF;" d="M219.391,115.321c-0.324,1.003-1.256,1.733-2.367,1.733h-28.373v10.579
		c0,4.966-4.039,9.006-9.006,9.006c-4.965,0-9.004-4.04-9.004-9.006v-10.579h-57.293v10.579c0,4.966-4.041,9.006-9.006,9.006
		c-4.965,0-9.006-4.04-9.006-9.006v-10.579h-29.15c-0.666,0-1.303-0.264-1.774-0.736c-0.238-0.24-0.421-0.523-0.544-0.832
		l-9.879,22.655h175.709L219.391,115.321z"/>
	<rect x="113.348" y="97.619" style="fill:#FFFFFF;" width="57.293" height="14.436"/>
	<polygon style="fill:#FFFFFF;" points="95.337,101.715 68.946,108.713 68.71,109.655 68.698,112.055 95.337,112.055 	"/>
	<polygon style="fill:#FFFFFF;" points="214.524,108.431 188.651,101.517 188.651,112.055 214.524,112.055 	"/>
	<path style="fill:#FFFFFF;" d="M70.335,103.172l26.861-7.122c0.748-0.202,1.551-0.039,2.166,0.435
		c0.616,0.473,0.975,1.205,0.975,1.981v29.167c0,2.209,1.797,4.007,4.006,4.007s4.006-1.798,4.006-4.007V95.118
		c0-1.381,1.119-2.5,2.5-2.5h62.293c1.381,0,2.5,1.119,2.5,2.5v32.515c0,2.209,1.797,4.007,4.004,4.007
		c2.209,0,4.005-1.798,4.005-4.007V98.261c0-0.777,0.362-1.51,0.979-1.982c0.615-0.474,1.418-0.633,2.168-0.433l26.683,7.131
		l-2.654-9.841l-27.056-8.011c-0.514,4.698-4.35,7.468-10.491,7.468c-6.607,0-10.552-3.204-10.552-8.572v-1.78h-42.123l0.001,1.78
		c0,5.368-3.947,8.572-10.556,8.572c-5.953,0-9.735-2.607-10.428-7.049l-26.855,7.92L70.335,103.172z"/>
	<path style="fill:#FFFFFF;" d="M104.497,84.021c0,0.977,0,3.572,5.553,3.572c5.123,0,5.521-2.207,5.552-3.316v-9.556
		c0.008-4.546,3.709-8.245,8.25-8.251h35.625c4.543,0.006,8.243,3.705,8.25,8.247v9.304c0,0.977,0,3.572,5.553,3.572
		c5.555,0,5.555-2.595,5.555-3.572l-0.002-9.299c-0.004-10.667-8.688-19.351-19.357-19.359h-35.62
		c-10.668,0.008-19.353,8.692-19.359,19.359V84.021z"/>
</g>
</svg>
