<?xml version="1.0" encoding="iso-8859-1"?>
<!-- Generator: Adobe Illustrator 25.4.1, SVG Export Plug-In . SVG Version: 6.00 Build 0)  -->
<svg version="1.1" id="Calque_1" xmlns="http://www.w3.org/2000/svg" xmlns:xlink="http://www.w3.org/1999/xlink" x="0px" y="0px"
	 viewBox="0 0 368.5 368.5" style="enable-background:new 0 0 368.5 368.5;" xml:space="preserve">
<g>
	<path style="fill:#FFFFFF;" d="M103.78,116.546c-2.995,0-5.977-0.078-8.939-0.217v197.936c0,3.778,3.074,6.851,6.851,6.851
		c3.779,0,6.853-3.073,6.853-6.851V116.482C106.964,116.521,105.378,116.546,103.78,116.546"/>
	<path style="fill:#FFFFFF;" d="M53.631,101.964c14,4.877,31.84,7.581,50.148,7.581c16.17,0,32.006-2.119,45.198-6.006
		c-3.3-5.992-4.304-17.863-4.304-25.079c0-7.236,1.01-19.152,4.331-25.129c-13.195-3.892-29.044-6.013-45.225-6.013
		c-18.043,0-35.793,2.711-50.012,7.638c-1.45,1.487-4.789,10.131-4.789,23.44C48.978,92.167,52.19,100.549,53.631,101.964"/>
	<path style="fill:#FFFFFF;" d="M158.929,78.461c0-16.554-3.722-24.546-5.136-24.79c-1.399,0.244-5.12,8.236-5.12,24.79
		c0,16.523,3.708,24.518,5.128,24.788C155.221,102.979,158.929,94.984,158.929,78.461"/>
	<path style="fill:#FFFFFF;" d="M182.363,147.728l-15.575,15.576c-2.247,2.246-3.484,5.232-3.484,8.407
		c0,3.176,1.237,6.162,3.483,8.407c0.167,0.167,0.346,0.316,0.52,0.472l15.056-15.425V147.728z"/>
	<polygon style="fill:#FFFFFF;" points="182.363,170.891 153.743,200.214 172.892,200.214 182.363,190.511 	"/>
	<path style="fill:#FFFFFF;" d="M229.952,243.94V47.539c-23.221,3.858-40.589,20.671-40.589,40.398v115.606
		C189.363,223.27,206.731,240.083,229.952,243.94"/>
	<rect x="236.952" y="118.838" style="fill:#FFFFFF;" width="15.162" height="125.453"/>
	<polygon style="fill:#FFFFFF;" points="236.952,47.307 236.952,109.852 252.114,91.155 252.114,47.307 	"/>
	<polygon style="fill:#FFFFFF;" points="271.155,94.16 254.827,94.16 238.058,114.839 254.387,114.839 	"/>
	<path style="fill:#FFFFFF;" d="M303.221,211.919c1.187,0,2.354,0.091,3.493,0.263v-5.855h-9.397v5.952
		c1.317-0.232,2.671-0.36,4.054-0.36H303.221z"/>
	<path style="fill:#FFFFFF;" d="M303.221,218.919h-1.85c-8.987,0-16.298,7.312-16.298,16.299v69.676
		c0,8.987,7.311,16.299,16.298,16.299h1.85c8.988,0,16.301-7.312,16.301-16.299v-69.676
		C319.522,226.231,312.209,218.919,303.221,218.919"/>
	<path style="fill:#FFFFFF;" d="M306.579,199.327h5.331V52.321l-5.352,22.813c0.007,0.07,0.021,0.137,0.021,0.21V199.327z"/>
	<polygon style="fill:#FFFFFF;" points="293.702,73.343 302.869,73.343 308.808,48.026 297.981,48.026 	"/>
	<path style="fill:#FFFFFF;" d="M298.524,199.327h4.055V77.782c-0.103-0.136-0.192-0.281-0.256-0.438h-9.051v121.983H298.524z"/>
	<path style="fill:#FFFFFF;" d="M143.878,283.653c0-1.134-0.412-2.251-0.792-3.048l-6.395,2.804l6.503,2.83
		C143.559,285.472,143.878,284.543,143.878,283.653"/>
	<path style="fill:#FFFFFF;" d="M156.108,291.858h2.911l-5.141-4.604c-0.43-0.386-0.672-0.938-0.666-1.514
		c0.007-0.577,0.263-1.123,0.702-1.498l4.934-4.212c0.004-0.065,0.01-0.128,0.019-0.192l-4.277-4.277l-7.836,3.436
		c0.554,1.191,1.124,2.853,1.124,4.656c0,1.575-0.477,3.038-1.009,4.185L156.108,291.858z"/>
	<path style="fill:#FFFFFF;" d="M163.321,278.635c0.394,0.395,0.605,0.936,0.584,1.493c-0.022,0.558-0.276,1.08-0.701,1.443
		l-0.246,0.21c-0.063,0.086-0.126,0.171-0.203,0.249c-0.153,0.152-0.328,0.265-0.509,0.359l-3.995,3.41l6.132,5.492
		c0.179,0.162,0.315,0.358,0.424,0.567h97.418v-16.965H159.579L163.321,278.635z"/>
</g>
</svg>
