<?xml version="1.0" encoding="iso-8859-1"?>
<!-- Generator: Adobe Illustrator 25.4.1, SVG Export Plug-In . SVG Version: 6.00 Build 0)  -->
<svg version="1.1" id="Calque_1" xmlns="http://www.w3.org/2000/svg" xmlns:xlink="http://www.w3.org/1999/xlink" x="0px" y="0px"
	 viewBox="0 0 368.5 368.5" style="enable-background:new 0 0 368.5 368.5;" xml:space="preserve">
<g>
	<path style="fill:#FFFFFF;" d="M170.031,82.622c-4.803-3.188-39.243-31.204-42.851-34.234s-12.432-7.966-21.344-4.895
		l13.714,39.796l31.64-10.698l3.156,20.279l2.189-0.754l0.384,1.113c0.289,0.84,1.108,1.327,1.818,1.083
		c0.711-0.245,1.056-1.133,0.766-1.974l-0.384-1.113l2.766-0.953l0.384,1.113c0.29,0.84,1.108,1.327,1.819,1.083
		c0.711-0.245,1.055-1.133,0.766-1.974l-0.384-1.113l2.766-0.953l0.384,1.113c0.289,0.84,1.108,1.328,1.819,1.083
		s1.055-1.133,0.765-1.974l-0.383-1.113l1.702-0.586C171.522,86.951,174.832,85.81,170.031,82.622"/>
	<path style="fill:#FFFFFF;" d="M312.951,284.513L173.22,146.064c0,0-11.052-14.709-15.177-26.677
		c-4.124-11.969-5.177-15.025-5.177-15.025s-4.316-22.443-4.535-27.211L82.887,99.704c0,0-8.706,2.431-11.471-5.59
		c-2.764-8.022-11.013-31.959-11.013-31.959s-1.452-4.627-5.475,1.887c0,0-12.656,26.455-6.649,43.885
		c6.469,18.773,12.915,19.765,21.467,23.086c8.551,3.32,56.955,13.989,71.87,31.64c14.915,17.652,139.825,156.08,139.825,156.08
		s17.285,16.265,33.646,0.086C331.448,302.64,312.951,284.513,312.951,284.513 M153.665,126.521c0.97,2.816-0.54,5.914-3.356,6.885
		l-22.355,7.704c-2.816,0.97-5.914-0.54-6.884-3.356l-9.315-27.028c-0.97-2.817,0.54-5.915,3.356-6.885l22.355-7.704
		c2.816-0.97,5.914,0.54,6.884,3.356L153.665,126.521z M303.397,319.313c-9.228,3.18-19.286-1.723-22.466-10.95
		c-3.18-9.228,1.723-19.286,10.95-22.466c9.228-3.18,19.286,1.723,22.466,10.95C317.527,306.075,312.625,316.133,303.397,319.313"/>
	<path style="fill:#FFFFFF;" d="M127.177,136.223l-0.442,0.152c-0.722,0.249-1.517-0.138-1.766-0.86l-8.811-25.567
		c-0.249-0.723,0.139-1.517,0.861-1.766l0.442-0.153c0.722-0.249,1.517,0.139,1.766,0.861l8.811,25.567
		C128.287,135.18,127.899,135.975,127.177,136.223"/>
	<path style="fill:#FFFFFF;" d="M149.458,128.545l-0.442,0.152c-0.722,0.249-1.517-0.138-1.766-0.86l-8.811-25.567
		c-0.249-0.723,0.139-1.517,0.861-1.766l0.442-0.153c0.722-0.249,1.517,0.139,1.766,0.861l8.811,25.567
		C150.568,127.501,150.18,128.296,149.458,128.545"/>
	<path style="fill:#FFFFFF;" d="M134.602,133.665l-0.442,0.152c-0.722,0.249-1.517-0.138-1.766-0.86l-8.811-25.567
		c-0.249-0.723,0.139-1.517,0.861-1.766l0.442-0.153c0.722-0.249,1.517,0.139,1.766,0.861l8.811,25.567
		C135.712,132.621,135.324,133.416,134.602,133.665"/>
	<path style="fill:#FFFFFF;" d="M142.033,131.104l-0.442,0.152c-0.722,0.249-1.517-0.138-1.766-0.86l-8.811-25.567
		c-0.249-0.723,0.139-1.517,0.861-1.766l0.442-0.153c0.722-0.249,1.517,0.139,1.766,0.861l8.811,25.567
		C143.143,130.06,142.755,130.855,142.033,131.104"/>
</g>
</svg>
