<?xml version="1.0" encoding="iso-8859-1"?>
<!-- Generator: Adobe Illustrator 25.4.1, SVG Export Plug-In . SVG Version: 6.00 Build 0)  -->
<svg version="1.1" id="Calque_1" xmlns="http://www.w3.org/2000/svg" xmlns:xlink="http://www.w3.org/1999/xlink" x="0px" y="0px"
	 viewBox="0 0 368.5 368.5" style="enable-background:new 0 0 368.5 368.5;" xml:space="preserve">
<g>
	<path style="fill:#FFFFFF;" d="M297.955,57.333c-0.212-0.008-0.42-0.029-0.625-0.061L183.542,57.29v36.175
		c9.071,0.845,15.942,4.815,15.942,9.592c0,4.782-6.871,8.75-15.942,9.594v6.571h113.794c0.202-0.032,0.409-0.052,0.619-0.06
		c16.33-0.574,29.121-13.597,29.121-29.648v-2.535C327.076,70.927,314.285,57.905,297.955,57.333 M266.464,101.643
		c-0.493,1.78-2.111,2.946-3.872,2.946c-0.355,0-0.719-0.047-1.078-0.147c-2.14-0.594-3.392-2.811-2.797-4.951l7.541-27.167
		c0.592-2.139,2.813-3.391,4.949-2.798c2.14,0.594,3.393,2.81,2.798,4.95L266.464,101.643z M281.956,101.643
		c-0.495,1.78-2.111,2.946-3.872,2.946c-0.355,0-0.718-0.047-1.078-0.147c-2.14-0.595-3.392-2.812-2.797-4.951l7.547-27.167
		c0.595-2.139,2.809-3.385,4.949-2.798c2.14,0.594,3.393,2.811,2.798,4.95L281.956,101.643z M305.001,74.476l-7.547,27.167
		c-0.495,1.78-2.111,2.946-3.871,2.946c-0.356,0-0.719-0.047-1.078-0.147c-2.14-0.595-3.393-2.812-2.798-4.951l7.547-27.167
		c0.595-2.139,2.809-3.385,4.949-2.798C304.343,70.12,305.596,72.337,305.001,74.476"/>
	<path style="fill:#FFFFFF;" d="M177.511,119.223v-6.483c-9.632-0.601-17.094-4.699-17.094-9.682c0-4.978,7.462-9.079,17.094-9.68
		V57.294l-86.84,0.012c-1.49-0.244-3.006-0.411-4.543-0.509c-0.66,0.319-1.39,0.515-2.171,0.515
		c-22.154,0-40.177,17.964-40.177,40.046v27.138c9.133-7.699,23.603-12.589,40.188-12.589c16.573,0,31.03,4.881,40.165,12.567
		V97.358c0-9.799-3.587-19.228-10.099-26.549c-1.843-2.074-1.659-5.25,0.416-7.096c2.074-1.845,5.25-1.658,7.096,0.415
		c8.151,9.165,12.639,20.965,12.639,33.23v21.865H177.511z"/>
	<path style="fill:#FFFFFF;" d="M124.33,144.217c0-12.065-18.482-22.259-40.361-22.259c-21.877,0-40.357,10.194-40.357,22.259
		c0,8.765,9.769,16.52,23.486,20.121v-11.009c-3.62-2.249-5.791-5.276-5.791-8.708c0-7.285,9.694-12.781,22.55-12.781
		s22.548,5.496,22.548,12.781c0,3.691-2.493,6.918-6.62,9.208v10.794C114.064,161.153,124.33,153.208,124.33,144.217"/>
	<path style="fill:#FFFFFF;" d="M95.764,167.023v-26.12c0-0.629-0.053-1.269-0.157-1.91c-3.267-1.375-7.394-2.126-11.748-2.126
		c-4.748,0-9.291,0.915-12.646,2.528c-0.063,0.503-0.094,1.008-0.094,1.508v26.12c0,6.795,5.526,12.323,12.319,12.323
		C90.235,179.346,95.764,173.818,95.764,167.023"/>
	<path style="fill:#FFFFFF;" d="M289.183,164.882c13.598,14.234,22.531,40.309,22.531,70.739c0,30.431-8.933,56.505-22.531,70.738
		c16.543-6.857,29.41-36.47,29.41-70.738S305.726,171.74,289.183,164.882"/>
	<path style="fill:#FFFFFF;" d="M301.662,235.621c0-39.154-16.798-72.232-36.682-72.232c-19.885,0-36.682,33.078-36.682,72.232
		s16.797,72.231,36.682,72.231C284.864,307.852,301.662,274.775,301.662,235.621 M282.928,234.437
		c0,17.481-6.257,35.177-18.215,35.177c-11.957,0-18.214-17.696-18.214-35.177c0-17.48,6.257-35.176,18.214-35.176
		C276.671,199.261,282.928,216.957,282.928,234.437"/>
	<path style="fill:#FFFFFF;" d="M49.523,248.565c0.084,0.136,0.196,0.305,0.289,0.451c9.211-8.613,24.28-20.507,44.085-28.635
		c25.959-10.657,64.307-12.115,79.103-12.259v-4.997c-12.54,0.143-50.759,1.435-75.286,11.505
		C72.658,224.912,55.393,242.13,49.523,248.565"/>
	<path style="fill:#FFFFFF;" d="M96.039,299.703c29.108,10.008,64.296,11.728,76.961,12.017v-15.05v-78.494
		c-12.528,0.143-50.757,1.433-75.286,11.505c-25.056,10.281-42.321,27.5-48.191,33.934C53.97,270.81,68.043,290.078,96.039,299.703
		 M140.178,237.692c7.069,0,12.608,3.951,12.608,8.997c0,5.045-5.539,8.999-12.608,8.999c-7.072,0-12.611-3.954-12.611-8.999
		C127.567,241.643,133.106,237.692,140.178,237.692 M140.178,270.304c7.069,0,12.608,3.95,12.608,8.994
		c0,5.048-5.539,9.002-12.608,9.002c-7.072,0-12.611-3.954-12.611-9.002C127.567,274.254,133.106,270.304,140.178,270.304
		 M99.685,253.296c7.07,0,12.606,3.954,12.606,9.002c0,5.046-5.536,8.998-12.606,8.998c-7.072,0-12.61-3.952-12.61-8.998
		C87.075,257.25,92.613,253.296,99.685,253.296"/>
</g>
</svg>
