<?xml version="1.0" encoding="iso-8859-1"?>
<!-- Generator: Adobe Illustrator 25.4.1, SVG Export Plug-In . SVG Version: 6.00 Build 0)  -->
<svg version="1.1" id="Calque_1" xmlns="http://www.w3.org/2000/svg" xmlns:xlink="http://www.w3.org/1999/xlink" x="0px" y="0px"
	 viewBox="0 0 368.5 368.5" style="enable-background:new 0 0 368.5 368.5;" xml:space="preserve">
<g>
	<path style="fill:#FFFFFF;" d="M124.206,312.132l4.709,4.71l13.91-13.907l-4.712-4.71l14.658-14.658l4.71,4.71l13.909-13.909
		l-4.711-4.707l14.658-14.662l4.713,4.713l13.909-13.91l-4.711-4.712l14.657-14.66l4.714,4.714l13.906-13.907l-4.713-4.712
		l14.662-14.659l4.711,4.713l13.902-13.907l-4.709-4.709l14.662-14.664l4.709,4.709l13.909-13.906l-4.709-4.71l14.656-14.66
		l4.711,4.712l13.906-13.909l-4.708-4.71l13.976-13.978l-7.062-7.065l9.583-9.584l-7.457-7.454l-9.582,9.582l-7.857-7.855
		l9.583-9.587l-7.456-7.456l-9.583,9.587l-7.861-7.86l9.584-9.585l-7.455-7.454l-9.582,9.585l-7.862-7.86l9.586-9.586l-7.455-7.454
		l-9.584,9.582l-7.617-7.615L196.879,103.3l19.046,19.126c0.079,0.077,0.144,0.163,0.22,0.242l8.851-8.851
		c3.488-3.484,8.121-5.402,13.049-5.402c4.931,0,9.566,1.92,13.054,5.406l2.159,2.158L105.365,263.87l-2.158-2.158
		c-3.487-3.486-5.408-8.12-5.408-13.051c0.001-4.93,1.922-9.566,5.41-13.052l92.898-92.902c-0.084-0.081-0.175-0.151-0.257-0.234
		l-19.036-19.109L42.546,257.628l68.081,68.081L124.206,312.132z"/>
	<path style="fill:#FFFFFF;" d="M215.916,142.487c-2.681,2.679-6.241,4.153-10.027,4.153c-1.512,0-2.985-0.244-4.383-0.697
		l-93.981,93.983c-2.335,2.335-3.621,5.437-3.621,8.736c0,2.255,0.601,4.419,1.727,6.309l138.724-138.724
		c-1.888-1.126-4.054-1.727-6.31-1.727c-3.299,0-6.4,1.284-8.734,3.615l-9.943,9.942
		C220.95,132.988,219.808,138.596,215.916,142.487"/>
	<path style="fill:#FFFFFF;" d="M164.604,110.248c2.597,0,5.117,0.525,7.489,1.558c2.129,0.93,4.048,2.242,5.706,3.897l22.375,22.46
		c1.525,1.528,3.556,2.373,5.716,2.373c2.156,0,4.184-0.841,5.711-2.367c3.151-3.15,3.152-8.279,0.002-11.431l-22.374-22.468
		c-3.075-3.08-6.657-5.53-10.645-7.277c-4.419-1.937-9.123-2.921-13.981-2.921c-9.264,0-17.961,3.579-24.488,10.079l-2.684,2.609
		c1.818,1.101,3.529,2.403,5.07,3.943l0.856,0.855c2.125,2.124,3.79,4.53,5.044,7.09l3.065-2.979
		C154.938,112.186,159.616,110.248,164.604,110.248"/>
	<path style="fill:#FFFFFF;" d="M139.042,115.876l-0.857-0.854c-3.872-3.874-9.019-6.004-14.493-6.004s-10.621,2.13-14.492,6.001
		l-39.285,39.284c-3.872,3.872-6.006,9.02-6.005,14.495c0,5.475,2.133,10.622,6.005,14.493l0.857,0.859
		c3.869,3.869,9.017,6.001,14.492,6.001c5.474,0,10.621-2.132,14.493-6.003l39.285-39.286c3.871-3.871,6.003-9.018,6.003-14.493
		C145.045,124.894,142.913,119.747,139.042,115.876"/>
</g>
</svg>
