<?xml version="1.0" encoding="iso-8859-1"?>
<!-- Generator: Adobe Illustrator 25.4.1, SVG Export Plug-In . SVG Version: 6.00 Build 0)  -->
<svg version="1.1" id="Calque_1" xmlns="http://www.w3.org/2000/svg" xmlns:xlink="http://www.w3.org/1999/xlink" x="0px" y="0px"
	 viewBox="0 0 368.5 368.5" style="enable-background:new 0 0 368.5 368.5;" xml:space="preserve">
<g>
	<path style="fill:#FFFFFF;" d="M48.294,58.439v181.666c0,7.081,5.742,12.821,12.824,12.821h15.538v-5.761
		c0-3.877,3.155-7.032,7.033-7.032h0.318c3.879,0,7.035,3.155,7.035,7.032v5.761h61.329v-5.761c0-3.877,3.155-7.032,7.033-7.032
		h0.322c3.879,0,7.035,3.155,7.035,7.032v5.761h17.971c7.079,0,12.822-5.74,12.822-12.821V58.439
		c0-7.079-5.743-12.822-12.822-12.822H61.118C54.036,45.617,48.294,51.36,48.294,58.439 M172.078,63.237
		c5.826,0,10.552,4.721,10.552,10.555c0,5.83-4.726,10.553-10.552,10.553c-5.831,0-10.554-4.723-10.554-10.553
		C161.524,67.958,166.247,63.237,172.078,63.237 M172.078,93.028c5.826,0,10.552,4.719,10.552,10.55
		c0,5.832-4.726,10.554-10.552,10.554c-5.831,0-10.554-4.722-10.554-10.554C161.524,97.747,166.247,93.028,172.078,93.028
		 M172.078,122.811c5.826,0,10.552,4.723,10.552,10.552c0,5.836-4.726,10.555-10.552,10.555c-5.831,0-10.554-4.719-10.554-10.555
		C161.524,127.534,166.247,122.811,172.078,122.811 M172.078,152.6c5.826,0,10.552,4.722,10.552,10.553
		c0,5.829-4.726,10.554-10.552,10.554c-5.831,0-10.554-4.725-10.554-10.554C161.524,157.322,166.247,152.6,172.078,152.6
		 M172.078,182.384c5.826,0,10.552,4.722,10.552,10.551c0,5.836-4.726,10.554-10.552,10.554c-5.831,0-10.554-4.718-10.554-10.554
		C161.524,187.106,166.247,182.384,172.078,182.384 M172.078,212.173c5.826,0,10.552,4.723,10.552,10.555
		c0,5.831-4.726,10.551-10.552,10.551c-5.831,0-10.554-4.72-10.554-10.551C161.524,216.896,166.247,212.173,172.078,212.173
		 M146.759,78.136c5.826,0,10.552,4.722,10.552,10.548c0,5.831-4.726,10.559-10.552,10.559c-5.828,0-10.552-4.728-10.552-10.559
		C136.207,82.858,140.931,78.136,146.759,78.136 M146.759,107.917c5.826,0,10.552,4.721,10.552,10.557
		c0,5.826-4.726,10.551-10.552,10.551c-5.828,0-10.552-4.725-10.552-10.551C136.207,112.638,140.931,107.917,146.759,107.917
		 M146.759,137.705c5.826,0,10.552,4.719,10.552,10.558c0,5.827-4.726,10.548-10.552,10.548c-5.828,0-10.552-4.721-10.552-10.548
		C136.207,142.424,140.931,137.705,146.759,137.705 M146.759,167.492c5.826,0,10.552,4.721,10.552,10.552
		c0,5.83-4.726,10.554-10.552,10.554c-5.828,0-10.552-4.724-10.552-10.554C136.207,172.213,140.931,167.492,146.759,167.492
		 M146.759,197.282c5.826,0,10.552,4.719,10.552,10.55c0,5.831-4.726,10.558-10.552,10.558c-5.828,0-10.552-4.727-10.552-10.558
		C136.207,202.001,140.931,197.282,146.759,197.282 M122.929,63.237c5.833,0,10.552,4.721,10.552,10.555
		c0,5.83-4.719,10.553-10.552,10.553c-5.826,0-10.556-4.723-10.556-10.553C112.373,67.958,117.103,63.237,122.929,63.237
		 M122.929,93.028c5.833,0,10.552,4.719,10.552,10.55c0,5.832-4.719,10.554-10.552,10.554c-5.826,0-10.556-4.722-10.556-10.554
		C112.373,97.747,117.103,93.028,122.929,93.028 M122.929,122.811c5.833,0,10.552,4.723,10.552,10.552
		c0,5.836-4.719,10.555-10.552,10.555c-5.826,0-10.556-4.719-10.556-10.555C112.373,127.534,117.103,122.811,122.929,122.811
		 M122.929,152.6c5.833,0,10.552,4.722,10.552,10.553c0,5.829-4.719,10.554-10.552,10.554c-5.826,0-10.556-4.725-10.556-10.554
		C112.373,157.322,117.103,152.6,122.929,152.6 M122.929,182.384c5.833,0,10.552,4.722,10.552,10.551
		c0,5.836-4.719,10.554-10.552,10.554c-5.826,0-10.556-4.718-10.556-10.554C112.373,187.106,117.103,182.384,122.929,182.384
		 M122.929,212.173c5.833,0,10.552,4.723,10.552,10.555c0,5.831-4.719,10.551-10.552,10.551c-5.826,0-10.556-4.72-10.556-10.551
		C112.373,216.896,117.103,212.173,122.929,212.173 M97.609,78.136c5.833,0,10.557,4.722,10.557,10.548
		c0,5.831-4.724,10.559-10.557,10.559c-5.828,0-10.556-4.728-10.556-10.559C87.053,82.858,91.781,78.136,97.609,78.136
		 M97.609,107.917c5.833,0,10.557,4.721,10.557,10.557c0,5.826-4.724,10.551-10.557,10.551c-5.828,0-10.556-4.725-10.556-10.551
		C87.053,112.638,91.781,107.917,97.609,107.917 M97.609,137.705c5.833,0,10.557,4.719,10.557,10.558
		c0,5.827-4.724,10.548-10.557,10.548c-5.828,0-10.556-4.721-10.556-10.548C87.053,142.424,91.781,137.705,97.609,137.705
		 M97.609,167.492c5.833,0,10.557,4.721,10.557,10.552c0,5.83-4.724,10.554-10.557,10.554c-5.828,0-10.556-4.724-10.556-10.554
		C87.053,172.213,91.781,167.492,97.609,167.492 M97.609,197.282c5.833,0,10.557,4.719,10.557,10.55
		c0,5.831-4.724,10.558-10.557,10.558c-5.828,0-10.556-4.727-10.556-10.558C87.053,202.001,91.781,197.282,97.609,197.282
		 M73.784,63.237c5.828,0,10.552,4.721,10.552,10.555c0,5.83-4.724,10.553-10.552,10.553c-5.831,0-10.559-4.723-10.559-10.553
		C63.225,67.958,67.953,63.237,73.784,63.237 M73.784,93.028c5.828,0,10.552,4.719,10.552,10.55c0,5.832-4.724,10.554-10.552,10.554
		c-5.831,0-10.559-4.722-10.559-10.554C63.225,97.747,67.953,93.028,73.784,93.028 M73.784,122.811
		c5.828,0,10.552,4.723,10.552,10.552c0,5.836-4.724,10.555-10.552,10.555c-5.831,0-10.559-4.719-10.559-10.555
		C63.225,127.534,67.953,122.811,73.784,122.811 M73.784,152.6c5.828,0,10.552,4.722,10.552,10.553
		c0,5.829-4.724,10.554-10.552,10.554c-5.831,0-10.559-4.725-10.559-10.554C63.225,157.322,67.953,152.6,73.784,152.6
		 M73.784,182.384c5.828,0,10.552,4.722,10.552,10.551c0,5.836-4.724,10.554-10.552,10.554c-5.831,0-10.559-4.718-10.559-10.554
		C63.225,187.106,67.953,182.384,73.784,182.384 M73.784,212.173c5.828,0,10.552,4.723,10.552,10.555
		c0,5.831-4.724,10.551-10.552,10.551c-5.831,0-10.559-4.72-10.559-10.551C63.225,216.896,67.953,212.173,73.784,212.173"/>
	<path style="fill:#FFFFFF;" d="M87.575,247.166c0-1.964-1.601-3.564-3.567-3.564H83.69c-1.966,0-3.566,1.6-3.566,3.564v17.913
		c0,1.966,1.6,3.566,3.566,3.566h0.318c1.966,0,3.567-1.6,3.567-3.566V247.166z"/>
	<path style="fill:#FFFFFF;" d="M163.293,247.166c0-1.964-1.601-3.564-3.567-3.564h-0.322c-1.965,0-3.565,1.6-3.565,3.564v17.913
		c0,1.966,1.6,3.566,3.565,3.566h0.322c1.966,0,3.567-1.6,3.567-3.566V247.166z"/>
	<path style="fill:#FFFFFF;" d="M314.018,63.071v7.199c1.208,0.431,2.224,1.015,3.022,1.812c1.977,1.973,2.937,5.298,2.937,10.163
		c-0.006,8.509,0.136,16.674,0.137,16.692c0,7.175-3.331,8.73-33.661,20.694l-9.279,3.652c-22.622,8.881-24.47,9.607-24.533,18.548
		l-0.018,1.53l0.187,35.601c0.735-0.101,1.48-0.173,2.244-0.173h0.847c1.327,0,2.611,0.177,3.847,0.478l-0.19-35.848l0.019-1.54
		c0.023-3.135,0.046-3.153,1.322-4.03c2.464-1.693,8.27-3.972,18.809-8.108l9.29-3.658c31.497-12.424,38.052-15.01,38.052-27.206
		c-0.001-0.012-0.143-8.09-0.137-16.63c0-6.803-1.626-11.734-4.973-15.075C319.908,65.147,317.229,63.773,314.018,63.071"/>
	<path style="fill:#FFFFFF;" d="M255.901,183.413h-0.848c-6.421,0-11.645,5.222-11.645,11.64v47.17
		c0,6.419,5.224,11.64,11.645,11.64h0.848c6.422,0,11.648-5.221,11.648-11.64v-47.17
		C267.549,188.635,262.323,183.413,255.901,183.413"/>
	<path style="fill:#FFFFFF;" d="M309.393,51.213c0-4.076-3.037-7.392-6.771-7.392h-77.398c-3.735,0-6.774,3.316-6.774,7.392v27.691
		c0,4.077,3.039,7.391,6.774,7.391h77.398c3.734,0,6.771-3.314,6.771-7.391V51.213z M273.743,54.327h-41.079
		c-1.277,0-2.312-1.034-2.312-2.312c0-1.277,1.035-2.312,2.312-2.312h41.079c1.277,0,2.312,1.035,2.312,2.312
		C276.055,53.293,275.02,54.327,273.743,54.327"/>
	<path style="fill:#FFFFFF;" d="M251.682,289.916c-5.937,0-11.641,1.481-15.979,3.021v28.362c0.55,0.287,1.105,0.574,1.668,0.856
		c3.322,1.663,7.507,2.541,12.104,2.541c6.005,0,12.418-1.49,18.547-4.308c7.555-3.471,15.996-4.479,22.344-4.649
		c-2.141-2.447-4.712-5.249-7.135-7.529l-1.147-1.084c-6.679-6.325-17.86-16.91-29.523-17.198L251.682,289.916z"/>
	<path style="fill:#FFFFFF;" d="M196.563,296.053v21.264c2.475,2.071,5.535,3.206,8.805,3.206h23.4v-27.658h-23.4
		C202.11,292.865,199.039,293.989,196.563,296.053"/>
	<path style="fill:#FFFFFF;" d="M51.961,314.92h137.666v-16.752H51.961c-4.618,0-8.376,3.756-8.376,8.373
		C43.585,311.161,47.343,314.92,51.961,314.92"/>
</g>
</svg>
