<?xml version="1.0" encoding="iso-8859-1"?>
<!-- Generator: Adobe Illustrator 25.4.1, SVG Export Plug-In . SVG Version: 6.00 Build 0)  -->
<svg version="1.1" id="Calque_1" xmlns="http://www.w3.org/2000/svg" xmlns:xlink="http://www.w3.org/1999/xlink" x="0px" y="0px"
	 viewBox="0 0 368.5 368.5" style="enable-background:new 0 0 368.5 368.5;" xml:space="preserve">
<g>
	<path style="fill:#FFFFFF;" d="M107.313,201.952c0.903,0,1.63-0.729,1.63-1.629v-5.025c0-0.901-0.727-1.63-1.63-1.63
		c-0.9,0-1.629,0.729-1.629,1.63v5.025C105.684,201.224,106.413,201.952,107.313,201.952"/>
	<path style="fill:#FFFFFF;" d="M57.213,162.291v-5.029c0-0.899-0.729-1.631-1.629-1.631c-0.904,0-1.631,0.732-1.631,1.631v5.029
		c0,0.899,0.727,1.628,1.631,1.628C56.484,163.919,57.213,163.19,57.213,162.291"/>
	<path style="fill:#FFFFFF;" d="M61.874,165.747v-5.025c0-0.903-0.726-1.632-1.628-1.632c-0.9,0-1.63,0.729-1.63,1.632v5.025
		c0,0.899,0.73,1.626,1.63,1.626C61.148,167.373,61.874,166.646,61.874,165.747"/>
	<path style="fill:#FFFFFF;" d="M66.583,169.204v-5.027c0-0.9-0.729-1.63-1.629-1.63c-0.902,0-1.632,0.73-1.632,1.63v5.027
		c0,0.9,0.73,1.629,1.632,1.629C65.854,170.833,66.583,170.104,66.583,169.204"/>
	<path style="fill:#FFFFFF;" d="M68.03,172.664c0,0.899,0.728,1.629,1.63,1.629c0.9,0,1.628-0.73,1.628-1.629v-5.028
		c0-0.899-0.728-1.629-1.628-1.629c-0.902,0-1.63,0.73-1.63,1.629V172.664z"/>
	<path style="fill:#FFFFFF;" d="M74.366,169.463c-0.9,0-1.629,0.731-1.629,1.631v5.025c0,0.9,0.729,1.63,1.629,1.63
		c0.901,0,1.631-0.73,1.631-1.63v-5.025C75.997,170.194,75.267,169.463,74.366,169.463"/>
	<path style="fill:#FFFFFF;" d="M79.074,172.92c-0.903,0-1.631,0.73-1.631,1.63v5.027c0,0.9,0.728,1.629,1.631,1.629
		c0.9,0,1.628-0.729,1.628-1.629v-5.027C80.702,173.65,79.974,172.92,79.074,172.92"/>
	<path style="fill:#FFFFFF;" d="M83.78,176.38c-0.9,0-1.63,0.731-1.63,1.629v5.028c0,0.899,0.73,1.627,1.63,1.627
		c0.9,0,1.628-0.728,1.628-1.627v-5.028C85.408,177.111,84.68,176.38,83.78,176.38"/>
	<path style="fill:#FFFFFF;" d="M88.487,188.123c0.899,0,1.629-0.73,1.629-1.63v-5.026c0-0.9-0.73-1.63-1.629-1.63
		c-0.901,0-1.629,0.73-1.629,1.63v5.026C86.857,187.393,87.586,188.123,88.487,188.123"/>
	<path style="fill:#FFFFFF;" d="M93.192,191.581c0.901,0,1.629-0.732,1.629-1.63v-5.027c0-0.9-0.728-1.631-1.629-1.631
		c-0.899,0-1.629,0.731-1.629,1.631v5.027C91.563,190.849,92.293,191.581,93.192,191.581"/>
	<path style="fill:#FFFFFF;" d="M97.9,195.04c0.9,0,1.629-0.732,1.629-1.632v-5.025c0-0.9-0.729-1.631-1.629-1.631
		c-0.901,0-1.63,0.731-1.63,1.631v5.025C96.27,194.308,96.999,195.04,97.9,195.04"/>
	<path style="fill:#FFFFFF;" d="M102.606,198.496c0.9,0,1.629-0.729,1.629-1.629v-5.027c0-0.9-0.729-1.63-1.629-1.63
		c-0.901,0-1.631,0.73-1.631,1.63v5.027C100.975,197.767,101.705,198.496,102.606,198.496"/>
	<path style="fill:#FFFFFF;" d="M69.66,163.918c0.9,0,1.628-0.729,1.628-1.628v-5.029c0-0.899-0.728-1.631-1.628-1.631
		c-0.903,0-1.63,0.732-1.63,1.631v5.029C68.03,163.189,68.757,163.918,69.66,163.918"/>
	<path style="fill:#FFFFFF;" d="M74.322,159.09c-0.9,0-1.629,0.729-1.629,1.632v5.025c0,0.899,0.729,1.627,1.629,1.627
		c0.903,0,1.63-0.728,1.63-1.627v-5.025C75.952,159.819,75.225,159.09,74.322,159.09"/>
	<path style="fill:#FFFFFF;" d="M79.029,162.547c-0.901,0-1.629,0.73-1.629,1.63v5.027c0,0.9,0.728,1.629,1.629,1.629
		c0.901,0,1.629-0.729,1.629-1.629v-5.027C80.658,163.277,79.93,162.547,79.029,162.547"/>
	<path style="fill:#FFFFFF;" d="M82.106,172.664c0,0.899,0.729,1.629,1.629,1.629c0.902,0,1.631-0.73,1.631-1.629v-5.028
		c0-0.899-0.729-1.629-1.631-1.629c-0.9,0-1.629,0.73-1.629,1.629V172.664z"/>
	<path style="fill:#FFFFFF;" d="M88.442,177.749c0.9,0,1.629-0.73,1.629-1.63v-5.026c0-0.9-0.729-1.63-1.629-1.63
		c-0.901,0-1.631,0.73-1.631,1.63v5.026C86.811,177.02,87.541,177.749,88.442,177.749"/>
	<path style="fill:#FFFFFF;" d="M93.148,181.206c0.903,0,1.632-0.729,1.632-1.629v-5.027c0-0.9-0.729-1.63-1.632-1.63
		c-0.901,0-1.628,0.73-1.628,1.63v5.027C91.52,180.477,92.247,181.206,93.148,181.206"/>
	<path style="fill:#FFFFFF;" d="M97.856,184.663c0.9,0,1.629-0.728,1.629-1.626v-5.028c0-0.899-0.729-1.63-1.629-1.63
		c-0.901,0-1.631,0.731-1.631,1.63v5.028C96.225,183.935,96.955,184.663,97.856,184.663"/>
	<path style="fill:#FFFFFF;" d="M102.563,188.123c0.901,0,1.631-0.73,1.631-1.63v-5.026c0-0.9-0.73-1.63-1.631-1.63
		c-0.903,0-1.63,0.73-1.63,1.63v5.026C100.933,187.393,101.66,188.123,102.563,188.123"/>
	<path style="fill:#FFFFFF;" d="M107.27,191.581c0.9,0,1.629-0.732,1.629-1.63v-5.027c0-0.9-0.729-1.631-1.629-1.631
		c-0.901,0-1.632,0.731-1.632,1.631v5.027C105.638,190.849,106.369,191.581,107.27,191.581"/>
	<path style="fill:#FFFFFF;" d="M111.978,195.04c0.9,0,1.626-0.732,1.626-1.632v-5.025c0-0.9-0.726-1.631-1.626-1.631
		c-0.904,0-1.632,0.731-1.632,1.631v5.025C110.346,194.308,111.074,195.04,111.978,195.04"/>
	<path style="fill:#FFFFFF;" d="M116.684,198.496c0.9,0,1.629-0.729,1.629-1.629v-5.027c0-0.9-0.729-1.63-1.629-1.63
		c-0.901,0-1.631,0.73-1.631,1.63v5.027C115.053,197.767,115.783,198.496,116.684,198.496"/>
	<path style="fill:#FFFFFF;" d="M121.391,201.952c0.9,0,1.628-0.729,1.628-1.629v-5.025c0-0.901-0.728-1.63-1.628-1.63
		c-0.903,0-1.631,0.729-1.631,1.63v5.025C119.76,201.224,120.488,201.952,121.391,201.952"/>
	<path style="fill:#FFFFFF;" d="M83.736,155.631c-0.9,0-1.629,0.732-1.629,1.63v5.03c0,0.898,0.729,1.628,1.629,1.628
		c0.901,0,1.631-0.73,1.631-1.628v-5.03C85.367,156.363,84.637,155.631,83.736,155.631"/>
	<path style="fill:#FFFFFF;" d="M86.769,160.722v5.025c0,0.899,0.728,1.627,1.631,1.627c0.901,0,1.627-0.728,1.627-1.627v-5.025
		c0-0.903-0.726-1.632-1.627-1.632C87.497,159.09,86.769,159.819,86.769,160.722"/>
	<path style="fill:#FFFFFF;" d="M93.106,170.833c0.9,0,1.629-0.729,1.629-1.629v-5.027c0-0.9-0.729-1.63-1.629-1.63
		c-0.901,0-1.632,0.73-1.632,1.63v5.027C91.474,170.104,92.205,170.833,93.106,170.833"/>
	<path style="fill:#FFFFFF;" d="M96.183,172.664c0,0.899,0.728,1.629,1.631,1.629c0.898,0,1.627-0.73,1.627-1.629v-5.028
		c0-0.899-0.729-1.629-1.627-1.629c-0.903,0-1.631,0.73-1.631,1.629V172.664z"/>
	<path style="fill:#FFFFFF;" d="M102.52,177.749c0.899,0,1.629-0.73,1.629-1.63v-5.026c0-0.9-0.73-1.63-1.629-1.63
		c-0.901,0-1.632,0.73-1.632,1.63v5.026C100.888,177.02,101.619,177.749,102.52,177.749"/>
	<path style="fill:#FFFFFF;" d="M107.226,181.206c0.9,0,1.629-0.729,1.629-1.629v-5.027c0-0.9-0.729-1.63-1.629-1.63
		c-0.901,0-1.63,0.73-1.63,1.63v5.027C105.596,180.477,106.325,181.206,107.226,181.206"/>
	<path style="fill:#FFFFFF;" d="M111.933,184.663c0.899,0,1.631-0.728,1.631-1.626v-5.028c0-0.899-0.732-1.63-1.631-1.63
		c-0.9,0-1.629,0.731-1.629,1.63v5.028C110.304,183.935,111.033,184.663,111.933,184.663"/>
	<path style="fill:#FFFFFF;" d="M116.638,188.123c0.901,0,1.631-0.73,1.631-1.63v-5.026c0-0.9-0.73-1.63-1.631-1.63
		c-0.9,0-1.629,0.73-1.629,1.63v5.026C115.009,187.393,115.738,188.123,116.638,188.123"/>
	<path style="fill:#FFFFFF;" d="M121.346,191.581c0.897,0,1.631-0.732,1.631-1.63v-5.027c0-0.9-0.734-1.631-1.631-1.631
		c-0.9,0-1.63,0.731-1.63,1.631v5.027C119.716,190.849,120.446,191.581,121.346,191.581"/>
	<path style="fill:#FFFFFF;" d="M126.052,195.04c0.9,0,1.631-0.732,1.631-1.632v-5.025c0-0.9-0.731-1.631-1.631-1.631
		c-0.9,0-1.629,0.731-1.629,1.631v5.025C124.423,194.308,125.152,195.04,126.052,195.04"/>
	<path style="fill:#FFFFFF;" d="M130.759,198.496c0.9,0,1.629-0.729,1.629-1.629v-5.027c0-0.9-0.729-1.63-1.629-1.63
		c-0.901,0-1.629,0.73-1.629,1.63v5.027C129.13,197.767,129.858,198.496,130.759,198.496"/>
	<path style="fill:#FFFFFF;" d="M135.464,201.952c0.903,0,1.632-0.729,1.632-1.629v-5.025c0-0.901-0.729-1.63-1.632-1.63
		c-0.901,0-1.628,0.729-1.628,1.63v5.025C133.836,201.224,134.563,201.952,135.464,201.952"/>
	<path style="fill:#FFFFFF;" d="M97.813,163.918c0.899,0,1.628-0.729,1.628-1.628v-5.029c0-0.899-0.729-1.631-1.628-1.631
		c-0.903,0-1.631,0.732-1.631,1.631v5.029C96.182,163.189,96.91,163.918,97.813,163.918"/>
	<path style="fill:#FFFFFF;" d="M102.475,167.374c0.901,0,1.631-0.728,1.631-1.626v-5.026c0-0.903-0.73-1.632-1.631-1.632
		c-0.9,0-1.629,0.729-1.629,1.632v5.026C100.846,166.646,101.575,167.374,102.475,167.374"/>
	<path style="fill:#FFFFFF;" d="M107.183,170.833c0.897,0,1.628-0.729,1.628-1.629v-5.027c0-0.9-0.731-1.63-1.628-1.63
		c-0.903,0-1.631,0.73-1.631,1.63v5.027C105.552,170.104,106.28,170.833,107.183,170.833"/>
	<path style="fill:#FFFFFF;" d="M110.259,172.664c0,0.899,0.726,1.629,1.629,1.629c0.9,0,1.631-0.73,1.631-1.629v-5.028
		c0-0.899-0.731-1.629-1.631-1.629c-0.903,0-1.629,0.73-1.629,1.629V172.664z"/>
	<path style="fill:#FFFFFF;" d="M116.595,177.749c0.899,0,1.629-0.73,1.629-1.63v-5.026c0-0.9-0.73-1.63-1.629-1.63
		c-0.901,0-1.629,0.73-1.629,1.63v5.026C114.966,177.02,115.694,177.749,116.595,177.749"/>
	<path style="fill:#FFFFFF;" d="M121.301,181.206c0.903,0,1.632-0.729,1.632-1.629v-5.027c0-0.9-0.729-1.63-1.632-1.63
		c-0.901,0-1.628,0.73-1.628,1.63v5.027C119.673,180.477,120.4,181.206,121.301,181.206"/>
	<path style="fill:#FFFFFF;" d="M126.009,184.663c0.9,0,1.629-0.728,1.629-1.626v-5.028c0-0.899-0.729-1.63-1.629-1.63
		c-0.901,0-1.63,0.731-1.63,1.63v5.028C124.379,183.935,125.108,184.663,126.009,184.663"/>
	<path style="fill:#FFFFFF;" d="M130.715,188.123c0.903,0,1.632-0.73,1.632-1.63v-5.026c0-0.9-0.729-1.63-1.632-1.63
		c-0.901,0-1.628,0.73-1.628,1.63v5.026C129.087,187.393,129.814,188.123,130.715,188.123"/>
	<path style="fill:#FFFFFF;" d="M135.423,191.581c0.901,0,1.629-0.732,1.629-1.63v-5.027c0-0.9-0.728-1.631-1.629-1.631
		c-0.901,0-1.631,0.731-1.631,1.631v5.027C133.792,190.849,134.522,191.581,135.423,191.581"/>
	<path style="fill:#FFFFFF;" d="M140.13,195.04c0.901,0,1.631-0.732,1.631-1.632v-5.025c0-0.9-0.73-1.631-1.631-1.631
		c-0.903,0-1.63,0.731-1.63,1.631v5.025C138.5,194.308,139.227,195.04,140.13,195.04"/>
	<path style="fill:#FFFFFF;" d="M144.837,198.496c0.9,0,1.629-0.729,1.629-1.629v-5.027c0-0.9-0.729-1.63-1.629-1.63
		c-0.901,0-1.632,0.73-1.632,1.63v5.027C143.205,197.767,143.936,198.496,144.837,198.496"/>
	<path style="fill:#FFFFFF;" d="M149.544,201.952c0.901,0,1.628-0.729,1.628-1.629v-5.025c0-0.901-0.727-1.63-1.628-1.63
		c-0.903,0-1.63,0.729-1.63,1.63v5.025C147.913,201.224,148.64,201.952,149.544,201.952"/>
	<path style="fill:#FFFFFF;" d="M111.889,163.918c0.9,0,1.63-0.729,1.63-1.628v-5.029c0-0.899-0.73-1.631-1.63-1.631
		c-0.903,0-1.629,0.732-1.629,1.631v5.029C110.26,163.189,110.986,163.918,111.889,163.918"/>
	<path style="fill:#FFFFFF;" d="M116.553,167.374c0.901,0,1.631-0.728,1.631-1.626v-5.026c0-0.903-0.73-1.632-1.631-1.632
		c-0.903,0-1.629,0.729-1.629,1.632v5.026C114.924,166.646,115.65,167.374,116.553,167.374"/>
	<path style="fill:#FFFFFF;" d="M121.26,170.833c0.9,0,1.629-0.729,1.629-1.629v-5.027c0-0.9-0.729-1.63-1.629-1.63
		c-0.901,0-1.631,0.73-1.631,1.63v5.027C119.629,170.104,120.359,170.833,121.26,170.833"/>
	<path style="fill:#FFFFFF;" d="M124.336,172.664c0,0.899,0.728,1.629,1.631,1.629c0.901,0,1.627-0.73,1.627-1.629v-5.028
		c0-0.899-0.726-1.629-1.627-1.629c-0.903,0-1.631,0.73-1.631,1.629V172.664z"/>
	<path style="fill:#FFFFFF;" d="M130.672,177.749c0.901,0,1.628-0.73,1.628-1.63v-5.026c0-0.9-0.727-1.63-1.628-1.63
		c-0.9,0-1.631,0.73-1.631,1.63v5.026C129.041,177.02,129.772,177.749,130.672,177.749"/>
	<path style="fill:#FFFFFF;" d="M135.38,181.206c0.9,0,1.628-0.729,1.628-1.629v-5.027c0-0.9-0.728-1.63-1.628-1.63
		c-0.903,0-1.631,0.73-1.631,1.63v5.027C133.749,180.477,134.477,181.206,135.38,181.206"/>
	<path style="fill:#FFFFFF;" d="M140.086,184.663c0.901,0,1.628-0.728,1.628-1.626v-5.028c0-0.899-0.727-1.63-1.628-1.63
		c-0.9,0-1.631,0.731-1.631,1.63v5.028C138.455,183.935,139.186,184.663,140.086,184.663"/>
	<path style="fill:#FFFFFF;" d="M144.794,188.123c0.899,0,1.628-0.73,1.628-1.63v-5.026c0-0.9-0.729-1.63-1.628-1.63
		c-0.903,0-1.632,0.73-1.632,1.63v5.026C143.162,187.393,143.891,188.123,144.794,188.123"/>
	<path style="fill:#FFFFFF;" d="M149.499,191.581c0.9,0,1.628-0.732,1.628-1.63v-5.027c0-0.9-0.728-1.631-1.628-1.631
		c-0.9,0-1.631,0.731-1.631,1.631v5.027C147.868,190.849,148.599,191.581,149.499,191.581"/>
	<path style="fill:#FFFFFF;" d="M154.205,195.04c0.9,0,1.631-0.732,1.631-1.632v-5.025c0-0.9-0.731-1.631-1.631-1.631
		c-0.9,0-1.629,0.731-1.629,1.631v5.025C152.576,194.308,153.305,195.04,154.205,195.04"/>
	<path style="fill:#FFFFFF;" d="M158.913,198.496c0.899,0,1.628-0.729,1.628-1.629v-5.027c0-0.9-0.729-1.63-1.628-1.63
		c-0.903,0-1.631,0.73-1.631,1.63v5.027C157.282,197.767,158.01,198.496,158.913,198.496"/>
	<path style="fill:#FFFFFF;" d="M163.617,201.952c0.903,0,1.632-0.729,1.632-1.629v-5.025c0-0.901-0.729-1.63-1.632-1.63
		c-0.901,0-1.629,0.729-1.629,1.63v5.025C161.988,201.224,162.716,201.952,163.617,201.952"/>
	<path style="fill:#FFFFFF;" d="M125.966,163.918c0.901,0,1.628-0.729,1.628-1.628v-5.029c0-0.899-0.727-1.631-1.628-1.631
		c-0.903,0-1.631,0.732-1.631,1.631v5.029C124.335,163.189,125.063,163.918,125.966,163.918"/>
	<path style="fill:#FFFFFF;" d="M130.629,167.374c0.9,0,1.629-0.728,1.629-1.626v-5.026c0-0.903-0.729-1.632-1.629-1.632
		c-0.901,0-1.632,0.729-1.632,1.632v5.026C128.997,166.646,129.728,167.374,130.629,167.374"/>
	<path style="fill:#FFFFFF;" d="M135.336,170.833c0.899,0,1.628-0.729,1.628-1.629v-5.027c0-0.9-0.729-1.63-1.628-1.63
		c-0.9,0-1.63,0.73-1.63,1.63v5.027C133.706,170.104,134.436,170.833,135.336,170.833"/>
	<path style="fill:#FFFFFF;" d="M138.412,172.664c0,0.899,0.729,1.629,1.629,1.629c0.9,0,1.631-0.73,1.631-1.629v-5.028
		c0-0.899-0.731-1.629-1.631-1.629c-0.9,0-1.629,0.73-1.629,1.629V172.664z"/>
	<path style="fill:#FFFFFF;" d="M144.75,177.749c0.899,0,1.63-0.73,1.63-1.63v-5.026c0-0.9-0.731-1.63-1.63-1.63
		c-0.903,0-1.631,0.73-1.631,1.63v5.026C143.119,177.02,143.847,177.749,144.75,177.749"/>
	<path style="fill:#FFFFFF;" d="M149.455,181.206c0.901,0,1.631-0.729,1.631-1.629v-5.027c0-0.9-0.73-1.63-1.631-1.63
		c-0.903,0-1.629,0.73-1.629,1.63v5.027C147.826,180.477,148.552,181.206,149.455,181.206"/>
	<path style="fill:#FFFFFF;" d="M154.162,184.663c0.899,0,1.629-0.728,1.629-1.626v-5.028c0-0.899-0.73-1.63-1.629-1.63
		c-0.901,0-1.629,0.731-1.629,1.63v5.028C152.533,183.935,153.261,184.663,154.162,184.663"/>
	<path style="fill:#FFFFFF;" d="M158.869,188.123c0.901,0,1.63-0.73,1.63-1.63v-5.026c0-0.9-0.729-1.63-1.63-1.63
		c-0.903,0-1.629,0.73-1.629,1.63v5.026C157.24,187.393,157.966,188.123,158.869,188.123"/>
	<path style="fill:#FFFFFF;" d="M163.576,191.581c0.9,0,1.629-0.732,1.629-1.63v-5.027c0-0.9-0.729-1.631-1.629-1.631
		c-0.901,0-1.63,0.731-1.63,1.631v5.027C161.946,190.849,162.675,191.581,163.576,191.581"/>
	<path style="fill:#FFFFFF;" d="M168.281,195.04c0.901,0,1.632-0.732,1.632-1.632v-5.025c0-0.9-0.731-1.631-1.632-1.631
		c-0.901,0-1.629,0.731-1.629,1.631v5.025C166.652,194.308,167.38,195.04,168.281,195.04"/>
	<path style="fill:#FFFFFF;" d="M172.99,198.496c0.9,0,1.629-0.729,1.629-1.629v-5.027c0-0.9-0.729-1.63-1.629-1.63
		c-0.901,0-1.631,0.73-1.631,1.63v5.027C171.359,197.767,172.089,198.496,172.99,198.496"/>
	<path style="fill:#FFFFFF;" d="M177.695,201.952c0.901,0,1.629-0.729,1.629-1.629v-5.025c0-0.901-0.728-1.63-1.629-1.63
		c-0.901,0-1.632,0.729-1.632,1.63v5.025C176.063,201.224,176.794,201.952,177.695,201.952"/>
	<path style="fill:#FFFFFF;" d="M140.042,163.918c0.9,0,1.631-0.729,1.631-1.628v-5.029c0-0.899-0.731-1.631-1.631-1.631
		c-0.9,0-1.629,0.732-1.629,1.631v5.029C138.413,163.189,139.142,163.918,140.042,163.918"/>
	<path style="fill:#FFFFFF;" d="M144.706,167.374c0.9,0,1.631-0.728,1.631-1.626v-5.026c0-0.903-0.731-1.632-1.631-1.632
		c-0.903,0-1.629,0.729-1.629,1.632v5.026C143.077,166.646,143.803,167.374,144.706,167.374"/>
	<path style="fill:#FFFFFF;" d="M149.413,170.833c0.899,0,1.629-0.729,1.629-1.629v-5.027c0-0.9-0.73-1.63-1.629-1.63
		c-0.901,0-1.631,0.73-1.631,1.63v5.027C147.782,170.104,148.512,170.833,149.413,170.833"/>
	<path style="fill:#FFFFFF;" d="M152.488,172.664c0,0.899,0.729,1.629,1.631,1.629c0.901,0,1.629-0.73,1.629-1.629v-5.028
		c0-0.899-0.728-1.629-1.629-1.629c-0.902,0-1.631,0.73-1.631,1.629V172.664z"/>
	<path style="fill:#FFFFFF;" d="M158.826,177.749c0.899,0,1.629-0.73,1.629-1.63v-5.026c0-0.9-0.73-1.63-1.629-1.63
		c-0.901,0-1.631,0.73-1.631,1.63v5.026C157.195,177.02,157.925,177.749,158.826,177.749"/>
	<path style="fill:#FFFFFF;" d="M163.532,181.206c0.901,0,1.629-0.729,1.629-1.629v-5.027c0-0.9-0.728-1.63-1.629-1.63
		c-0.901,0-1.631,0.73-1.631,1.63v5.027C161.901,180.477,162.631,181.206,163.532,181.206"/>
	<path style="fill:#FFFFFF;" d="M168.24,184.663c0.899,0,1.629-0.728,1.629-1.626v-5.028c0-0.899-0.73-1.63-1.629-1.63
		c-0.901,0-1.632,0.731-1.632,1.63v5.028C166.608,183.935,167.339,184.663,168.24,184.663"/>
	<path style="fill:#FFFFFF;" d="M172.946,188.123c0.901,0,1.629-0.73,1.629-1.63v-5.026c0-0.9-0.728-1.63-1.629-1.63
		c-0.901,0-1.629,0.73-1.629,1.63v5.026C171.317,187.393,172.045,188.123,172.946,188.123"/>
	<path style="fill:#FFFFFF;" d="M177.652,191.581c0.9,0,1.628-0.732,1.628-1.63v-5.027c0-0.9-0.728-1.631-1.628-1.631
		c-0.9,0-1.631,0.731-1.631,1.631v5.027C176.021,190.849,176.752,191.581,177.652,191.581"/>
	<path style="fill:#FFFFFF;" d="M182.359,195.04c0.9,0,1.629-0.732,1.629-1.632v-5.025c0-0.9-0.729-1.631-1.629-1.631
		c-0.901,0-1.631,0.731-1.631,1.631v5.025C180.728,194.308,181.458,195.04,182.359,195.04"/>
	<path style="fill:#FFFFFF;" d="M187.066,198.496c0.9,0,1.628-0.729,1.628-1.629v-5.027c0-0.9-0.728-1.63-1.628-1.63
		c-0.9,0-1.631,0.73-1.631,1.63v5.027C185.435,197.767,186.166,198.496,187.066,198.496"/>
	<path style="fill:#FFFFFF;" d="M191.772,201.952c0.901,0,1.63-0.729,1.63-1.629v-5.025c0-0.901-0.729-1.63-1.63-1.63
		c-0.9,0-1.629,0.729-1.629,1.63v5.025C190.143,201.224,190.872,201.952,191.772,201.952"/>
	<path style="fill:#FFFFFF;" d="M154.118,163.918c0.901,0,1.629-0.729,1.629-1.628v-5.029c0-0.899-0.728-1.631-1.629-1.631
		c-0.901,0-1.631,0.732-1.631,1.631v5.029C152.487,163.189,153.217,163.918,154.118,163.918"/>
	<path style="fill:#FFFFFF;" d="M158.782,167.374c0.901,0,1.629-0.728,1.629-1.626v-5.026c0-0.903-0.728-1.632-1.629-1.632
		c-0.901,0-1.63,0.729-1.63,1.632v5.026C157.152,166.646,157.881,167.374,158.782,167.374"/>
	<path style="fill:#FFFFFF;" d="M163.489,170.833c0.9,0,1.628-0.729,1.628-1.629v-5.027c0-0.9-0.728-1.63-1.628-1.63
		c-0.9,0-1.631,0.73-1.631,1.63v5.027C161.858,170.104,162.589,170.833,163.489,170.833"/>
	<path style="fill:#FFFFFF;" d="M166.564,172.664c0,0.899,0.731,1.629,1.632,1.629c0.9,0,1.629-0.73,1.629-1.629v-5.028
		c0-0.899-0.729-1.629-1.629-1.629c-0.901,0-1.632,0.73-1.632,1.629V172.664z"/>
	<path style="fill:#FFFFFF;" d="M172.903,177.749c0.899,0,1.628-0.73,1.628-1.63v-5.026c0-0.9-0.729-1.63-1.628-1.63
		c-0.9,0-1.63,0.73-1.63,1.63v5.026C171.273,177.02,172.003,177.749,172.903,177.749"/>
	<path style="fill:#FFFFFF;" d="M177.608,181.206c0.901,0,1.631-0.729,1.631-1.629v-5.027c0-0.9-0.73-1.63-1.631-1.63
		c-0.9,0-1.629,0.73-1.629,1.63v5.027C175.979,180.477,176.708,181.206,177.608,181.206"/>
	<path style="fill:#FFFFFF;" d="M182.317,184.663c0.897,0,1.628-0.728,1.628-1.626v-5.028c0-0.899-0.731-1.63-1.628-1.63
		c-0.903,0-1.63,0.731-1.63,1.63v5.028C180.687,183.935,181.414,184.663,182.317,184.663"/>
	<path style="fill:#FFFFFF;" d="M187.022,188.123c0.9,0,1.631-0.73,1.631-1.63v-5.026c0-0.9-0.731-1.63-1.631-1.63
		c-0.903,0-1.629,0.73-1.629,1.63v5.026C185.393,187.393,186.119,188.123,187.022,188.123"/>
	<path style="fill:#FFFFFF;" d="M191.729,191.581c0.899,0,1.629-0.732,1.629-1.63v-5.027c0-0.9-0.73-1.631-1.629-1.631
		c-0.901,0-1.631,0.731-1.631,1.631v5.027C190.098,190.849,190.828,191.581,191.729,191.581"/>
	<path style="fill:#FFFFFF;" d="M196.434,195.04c0.903,0,1.632-0.732,1.632-1.632v-5.025c0-0.9-0.729-1.631-1.632-1.631
		c-0.901,0-1.628,0.731-1.628,1.631v5.025C194.806,194.308,195.533,195.04,196.434,195.04"/>
	<path style="fill:#FFFFFF;" d="M201.141,198.496c0.901,0,1.631-0.729,1.631-1.629v-5.027c0-0.9-0.73-1.63-1.631-1.63
		c-0.9,0-1.629,0.73-1.629,1.63v5.027C199.512,197.767,200.241,198.496,201.141,198.496"/>
	<path style="fill:#FFFFFF;" d="M205.85,201.952c0.9,0,1.631-0.729,1.631-1.629v-5.025c0-0.901-0.731-1.63-1.631-1.63
		c-0.903,0-1.629,0.729-1.629,1.63v5.025C204.221,201.224,204.947,201.952,205.85,201.952"/>
	<path style="fill:#FFFFFF;" d="M168.196,163.918c0.9,0,1.629-0.729,1.629-1.628v-5.029c0-0.899-0.729-1.631-1.629-1.631
		c-0.901,0-1.632,0.732-1.632,1.631v5.029C166.564,163.189,167.295,163.918,168.196,163.918"/>
	<path style="fill:#FFFFFF;" d="M172.859,167.374c0.9,0,1.631-0.728,1.631-1.626v-5.026c0-0.903-0.731-1.632-1.631-1.632
		c-0.903,0-1.629,0.729-1.629,1.632v5.026C171.23,166.646,171.956,167.374,172.859,167.374"/>
	<path style="fill:#FFFFFF;" d="M177.564,170.833c0.901,0,1.63-0.729,1.63-1.629v-5.027c0-0.9-0.729-1.63-1.63-1.63
		c-0.897,0-1.629,0.73-1.629,1.63v5.027C175.935,170.104,176.667,170.833,177.564,170.833"/>
	<path style="fill:#FFFFFF;" d="M180.643,172.664c0,0.899,0.726,1.629,1.628,1.629c0.901,0,1.632-0.73,1.632-1.629v-5.028
		c0-0.899-0.731-1.629-1.632-1.629c-0.902,0-1.628,0.73-1.628,1.629V172.664z"/>
	<path style="fill:#FFFFFF;" d="M186.978,177.749c0.901,0,1.631-0.73,1.631-1.63v-5.026c0-0.9-0.73-1.63-1.631-1.63
		c-0.9,0-1.629,0.73-1.629,1.63v5.026C185.349,177.02,186.078,177.749,186.978,177.749"/>
	<path style="fill:#FFFFFF;" d="M191.686,181.206c0.9,0,1.631-0.729,1.631-1.629v-5.027c0-0.9-0.731-1.63-1.631-1.63
		c-0.903,0-1.632,0.73-1.632,1.63v5.027C190.054,180.477,190.783,181.206,191.686,181.206"/>
	<path style="fill:#FFFFFF;" d="M196.39,184.663c0.901,0,1.632-0.728,1.632-1.626v-5.028c0-0.899-0.731-1.63-1.632-1.63
		c-0.899,0-1.629,0.731-1.629,1.63v5.028C194.761,183.935,195.491,184.663,196.39,184.663"/>
	<path style="fill:#FFFFFF;" d="M201.099,188.123c0.901,0,1.629-0.73,1.629-1.63v-5.026c0-0.9-0.728-1.63-1.629-1.63
		c-0.901,0-1.631,0.73-1.631,1.63v5.026C199.468,187.393,200.198,188.123,201.099,188.123"/>
	<path style="fill:#FFFFFF;" d="M205.805,191.581c0.9,0,1.628-0.732,1.628-1.63v-5.027c0-0.9-0.728-1.631-1.628-1.631
		c-0.9,0-1.63,0.731-1.63,1.631v5.027C204.175,190.849,204.905,191.581,205.805,191.581"/>
	<path style="fill:#FFFFFF;" d="M210.512,195.04c0.901,0,1.629-0.732,1.629-1.632v-5.025c0-0.9-0.728-1.631-1.629-1.631
		c-0.901,0-1.632,0.731-1.632,1.631v5.025C208.88,194.308,209.611,195.04,210.512,195.04"/>
	<path style="fill:#FFFFFF;" d="M215.219,198.496c0.9,0,1.628-0.729,1.628-1.629v-5.027c0-0.9-0.728-1.63-1.628-1.63
		c-0.9,0-1.63,0.73-1.63,1.63v5.027C213.589,197.767,214.319,198.496,215.219,198.496"/>
	<path style="fill:#FFFFFF;" d="M219.926,201.952c0.9,0,1.629-0.729,1.629-1.629v-5.025c0-0.901-0.729-1.63-1.629-1.63
		c-0.901,0-1.631,0.729-1.631,1.63v5.025C218.295,201.224,219.025,201.952,219.926,201.952"/>
	<path style="fill:#FFFFFF;" d="M182.271,163.918c0.901,0,1.632-0.729,1.632-1.628v-5.029c0-0.899-0.731-1.631-1.632-1.631
		c-0.901,0-1.628,0.732-1.628,1.631v5.029C180.643,163.189,181.37,163.918,182.271,163.918"/>
	<path style="fill:#FFFFFF;" d="M186.935,167.374c0.901,0,1.629-0.728,1.629-1.626v-5.026c0-0.903-0.728-1.632-1.629-1.632
		c-0.901,0-1.631,0.729-1.631,1.632v5.026C185.304,166.646,186.034,167.374,186.935,167.374"/>
	<path style="fill:#FFFFFF;" d="M191.642,170.833c0.9,0,1.628-0.729,1.628-1.629v-5.027c0-0.9-0.728-1.63-1.628-1.63
		c-0.9,0-1.631,0.73-1.631,1.63v5.027C190.011,170.104,190.742,170.833,191.642,170.833"/>
	<path style="fill:#FFFFFF;" d="M196.349,174.293c0.901,0,1.629-0.731,1.629-1.629v-5.028c0-0.899-0.728-1.629-1.629-1.629
		c-0.901,0-1.629,0.73-1.629,1.629v5.028C194.72,173.562,195.448,174.293,196.349,174.293"/>
	<path style="fill:#FFFFFF;" d="M201.056,177.749c0.9,0,1.628-0.73,1.628-1.629v-5.027c0-0.9-0.728-1.63-1.628-1.63
		c-0.9,0-1.631,0.73-1.631,1.63v5.027C199.425,177.02,200.156,177.749,201.056,177.749"/>
	<path style="fill:#FFFFFF;" d="M205.763,181.206c0.9,0,1.629-0.729,1.629-1.629v-5.025c0-0.902-0.729-1.631-1.629-1.631
		c-0.901,0-1.631,0.729-1.631,1.631v5.025C204.132,180.477,204.862,181.206,205.763,181.206"/>
	<path style="fill:#FFFFFF;" d="M210.47,184.663c0.899,0,1.628-0.728,1.628-1.626v-5.028c0-0.901-0.729-1.63-1.628-1.63
		c-0.9,0-1.631,0.729-1.631,1.63v5.028C208.839,183.935,209.57,184.663,210.47,184.663"/>
	<path style="fill:#FFFFFF;" d="M215.175,188.123c0.9,0,1.631-0.73,1.631-1.629v-5.027c0-0.9-0.731-1.63-1.631-1.63
		c-0.9,0-1.629,0.73-1.629,1.63v5.027C213.546,187.393,214.275,188.123,215.175,188.123"/>
	<path style="fill:#FFFFFF;" d="M219.883,191.579c0.899,0,1.628-0.731,1.628-1.629v-5.025c0-0.902-0.729-1.632-1.628-1.632
		c-0.903,0-1.63,0.73-1.63,1.632v5.025C218.253,190.848,218.98,191.579,219.883,191.579"/>
	<path style="fill:#FFFFFF;" d="M224.589,195.039c0.9,0,1.628-0.73,1.628-1.629v-5.028c0-0.899-0.728-1.629-1.628-1.629
		c-0.9,0-1.631,0.73-1.631,1.629v5.028C222.958,194.309,223.689,195.039,224.589,195.039"/>
	<path style="fill:#FFFFFF;" d="M229.296,198.496c0.9,0,1.629-0.728,1.629-1.629v-5.027c0-0.9-0.729-1.63-1.629-1.63
		c-0.901,0-1.629,0.73-1.629,1.63v5.027C227.667,197.768,228.395,198.496,229.296,198.496"/>
	<path style="fill:#FFFFFF;" d="M234.001,201.952c0.901,0,1.629-0.729,1.629-1.629v-5.025c0-0.901-0.728-1.63-1.629-1.63
		c-0.899,0-1.629,0.729-1.629,1.63v5.025C232.372,201.224,233.102,201.952,234.001,201.952"/>
	<path style="fill:#FFFFFF;" d="M247.274,201.952c0.901,0,1.629-0.729,1.629-1.629v-5.025c0-0.901-0.728-1.63-1.629-1.63
		c-0.901,0-1.631,0.729-1.631,1.63v5.025C245.643,201.224,246.373,201.952,247.274,201.952"/>
	<path style="fill:#FFFFFF;" d="M197.173,162.291v-5.029c0-0.899-0.726-1.631-1.629-1.631c-0.902,0-1.629,0.732-1.629,1.631v5.029
		c0,0.899,0.727,1.628,1.629,1.628C196.447,163.919,197.173,163.19,197.173,162.291"/>
	<path style="fill:#FFFFFF;" d="M200.207,167.374c0.901,0,1.631-0.728,1.631-1.626v-5.026c0-0.903-0.73-1.632-1.631-1.632
		c-0.9,0-1.63,0.729-1.63,1.632v5.026C198.577,166.646,199.307,167.374,200.207,167.374"/>
	<path style="fill:#FFFFFF;" d="M206.543,169.204v-5.027c0-0.9-0.729-1.63-1.629-1.63c-0.902,0-1.631,0.73-1.631,1.63v5.027
		c0,0.9,0.729,1.629,1.631,1.629C205.814,170.833,206.543,170.104,206.543,169.204"/>
	<path style="fill:#FFFFFF;" d="M207.992,172.664c0,0.899,0.726,1.629,1.629,1.629c0.901,0,1.631-0.73,1.631-1.629v-5.028
		c0-0.899-0.73-1.629-1.631-1.629c-0.903,0-1.629,0.73-1.629,1.629V172.664z"/>
	<path style="fill:#FFFFFF;" d="M214.327,177.749c0.899,0,1.629-0.73,1.629-1.63v-5.026c0-0.9-0.73-1.63-1.629-1.63
		c-0.901,0-1.631,0.73-1.631,1.63v5.026C212.696,177.02,213.426,177.749,214.327,177.749"/>
	<path style="fill:#FFFFFF;" d="M219.034,181.206c0.9,0,1.63-0.729,1.63-1.629v-5.027c0-0.9-0.73-1.63-1.63-1.63
		c-0.903,0-1.631,0.73-1.631,1.63v5.027C217.403,180.477,218.131,181.206,219.034,181.206"/>
	<path style="fill:#FFFFFF;" d="M223.741,184.663c0.9,0,1.629-0.728,1.629-1.626v-5.028c0-0.899-0.729-1.63-1.629-1.63
		c-0.901,0-1.63,0.731-1.63,1.63v5.028C222.111,183.935,222.84,184.663,223.741,184.663"/>
	<path style="fill:#FFFFFF;" d="M228.447,188.123c0.903,0,1.629-0.73,1.629-1.63v-5.026c0-0.9-0.726-1.63-1.629-1.63
		c-0.901,0-1.629,0.73-1.629,1.63v5.026C226.818,187.393,227.546,188.123,228.447,188.123"/>
	<path style="fill:#FFFFFF;" d="M233.155,191.581c0.9,0,1.629-0.732,1.629-1.63v-5.027c0-0.9-0.729-1.631-1.629-1.631
		c-0.901,0-1.631,0.731-1.631,1.631v5.027C231.524,190.849,232.254,191.581,233.155,191.581"/>
	<path style="fill:#FFFFFF;" d="M237.862,195.04c0.9,0,1.628-0.732,1.628-1.632v-5.025c0-0.9-0.728-1.631-1.628-1.631
		c-0.903,0-1.631,0.731-1.631,1.631v5.025C236.231,194.308,236.959,195.04,237.862,195.04"/>
	<path style="fill:#FFFFFF;" d="M242.569,198.496c0.899,0,1.629-0.729,1.629-1.629v-5.027c0-0.9-0.73-1.63-1.629-1.63
		c-0.901,0-1.631,0.73-1.631,1.63v5.027C240.938,197.767,241.668,198.496,242.569,198.496"/>
	<path style="fill:#FFFFFF;" d="M209.621,163.918c0.901,0,1.63-0.729,1.63-1.628v-5.029c0-0.899-0.729-1.631-1.63-1.631
		c-0.903,0-1.629,0.732-1.629,1.631v5.029C207.992,163.189,208.718,163.918,209.621,163.918"/>
	<path style="fill:#FFFFFF;" d="M214.285,167.374c0.9,0,1.628-0.728,1.628-1.626v-5.026c0-0.903-0.728-1.632-1.628-1.632
		c-0.903,0-1.63,0.729-1.63,1.632v5.026C212.655,166.646,213.382,167.374,214.285,167.374"/>
	<path style="fill:#FFFFFF;" d="M218.992,170.833c0.899,0,1.629-0.729,1.629-1.629v-5.027c0-0.9-0.73-1.63-1.629-1.63
		c-0.901,0-1.631,0.73-1.631,1.63v5.027C217.361,170.104,218.091,170.833,218.992,170.833"/>
	<path style="fill:#FFFFFF;" d="M222.067,172.664c0,0.899,0.729,1.629,1.631,1.629c0.901,0,1.629-0.73,1.629-1.629v-5.028
		c0-0.899-0.728-1.629-1.629-1.629c-0.902,0-1.631,0.73-1.631,1.629V172.664z"/>
	<path style="fill:#FFFFFF;" d="M228.403,177.749c0.901,0,1.632-0.73,1.632-1.63v-5.026c0-0.9-0.731-1.63-1.632-1.63
		c-0.899,0-1.628,0.73-1.628,1.63v5.026C226.775,177.02,227.504,177.749,228.403,177.749"/>
	<path style="fill:#FFFFFF;" d="M233.111,181.206c0.9,0,1.629-0.729,1.629-1.629v-5.027c0-0.9-0.729-1.63-1.629-1.63
		c-0.901,0-1.631,0.73-1.631,1.63v5.027C231.48,180.477,232.21,181.206,233.111,181.206"/>
	<path style="fill:#FFFFFF;" d="M237.818,184.663c0.899,0,1.628-0.728,1.628-1.626v-5.028c0-0.899-0.729-1.63-1.628-1.63
		c-0.903,0-1.631,0.731-1.631,1.63v5.028C236.187,183.935,236.915,184.663,237.818,184.663"/>
	<path style="fill:#FFFFFF;" d="M242.523,188.123c0.901,0,1.63-0.73,1.63-1.63v-5.026c0-0.9-0.729-1.63-1.63-1.63
		c-0.9,0-1.631,0.73-1.631,1.63v5.026C240.892,187.393,241.623,188.123,242.523,188.123"/>
	<path style="fill:#FFFFFF;" d="M247.232,191.581c0.899,0,1.628-0.732,1.628-1.63v-5.027c0-0.9-0.729-1.631-1.628-1.631
		c-0.903,0-1.631,0.731-1.631,1.631v5.027C245.6,190.849,246.328,191.581,247.232,191.581"/>
	<path style="fill:#FFFFFF;" d="M251.937,195.04c0.901,0,1.63-0.732,1.63-1.632v-5.025c0-0.9-0.729-1.631-1.63-1.631
		c-0.903,0-1.629,0.731-1.629,1.631v5.025C250.308,194.308,251.034,195.04,251.937,195.04"/>
	<path style="fill:#FFFFFF;" d="M256.644,198.496c0.9,0,1.629-0.729,1.629-1.629v-5.027c0-0.9-0.729-1.63-1.629-1.63
		c-0.901,0-1.63,0.73-1.63,1.63v5.027C255.014,197.767,255.743,198.496,256.644,198.496"/>
	<path style="fill:#FFFFFF;" d="M261.351,201.952c0.9,0,1.631-0.729,1.631-1.629v-5.025c0-0.901-0.731-1.63-1.631-1.63
		c-0.903,0-1.629,0.729-1.629,1.63v5.025C259.722,201.224,260.448,201.952,261.351,201.952"/>
	<path style="fill:#FFFFFF;" d="M223.697,163.918c0.901,0,1.629-0.729,1.629-1.628v-5.029c0-0.899-0.728-1.631-1.629-1.631
		c-0.901,0-1.631,0.732-1.631,1.631v5.029C222.066,163.189,222.796,163.918,223.697,163.918"/>
	<path style="fill:#FFFFFF;" d="M228.359,167.374c0.903,0,1.632-0.728,1.632-1.626v-5.026c0-0.903-0.729-1.632-1.632-1.632
		c-0.901,0-1.629,0.729-1.629,1.632v5.026C226.729,166.646,227.458,167.374,228.359,167.374"/>
	<path style="fill:#FFFFFF;" d="M233.068,170.833c0.899,0,1.628-0.729,1.628-1.629v-5.027c0-0.9-0.729-1.63-1.628-1.63
		c-0.903,0-1.63,0.73-1.63,1.63v5.027C231.438,170.104,232.165,170.833,233.068,170.833"/>
	<path style="fill:#FFFFFF;" d="M236.145,172.664c0,0.899,0.726,1.629,1.629,1.629c0.9,0,1.631-0.73,1.631-1.629v-5.028
		c0-0.899-0.731-1.629-1.631-1.629c-0.903,0-1.629,0.73-1.629,1.629V172.664z"/>
	<path style="fill:#FFFFFF;" d="M242.481,177.749c0.9,0,1.629-0.73,1.629-1.63v-5.026c0-0.9-0.729-1.63-1.629-1.63
		c-0.901,0-1.632,0.73-1.632,1.63v5.026C240.849,177.02,241.58,177.749,242.481,177.749"/>
	<path style="fill:#FFFFFF;" d="M247.187,181.206c0.9,0,1.631-0.729,1.631-1.629v-5.027c0-0.9-0.731-1.63-1.631-1.63
		c-0.903,0-1.629,0.73-1.629,1.63v5.027C245.558,180.477,246.284,181.206,247.187,181.206"/>
	<path style="fill:#FFFFFF;" d="M251.894,184.663c0.9,0,1.629-0.728,1.629-1.626v-5.028c0-0.899-0.729-1.63-1.629-1.63
		c-0.901,0-1.631,0.731-1.631,1.63v5.028C250.263,183.935,250.993,184.663,251.894,184.663"/>
	<path style="fill:#FFFFFF;" d="M256.601,188.123c0.901,0,1.63-0.73,1.63-1.63v-5.026c0-0.9-0.729-1.63-1.63-1.63
		c-0.903,0-1.631,0.73-1.631,1.63v5.026C254.97,187.393,255.698,188.123,256.601,188.123"/>
	<path style="fill:#FFFFFF;" d="M261.308,191.581c0.899,0,1.629-0.732,1.629-1.63v-5.027c0-0.9-0.73-1.631-1.629-1.631
		c-0.901,0-1.631,0.731-1.631,1.631v5.027C259.677,190.849,260.407,191.581,261.308,191.581"/>
	<path style="fill:#FFFFFF;" d="M266.016,195.04c0.901,0,1.626-0.732,1.626-1.632v-5.025c0-0.9-0.725-1.631-1.626-1.631
		c-0.903,0-1.631,0.731-1.631,1.631v5.025C264.385,194.308,265.113,195.04,266.016,195.04"/>
	<path style="fill:#FFFFFF;" d="M270.719,198.496c0.904,0,1.631-0.729,1.631-1.629v-5.027c0-0.9-0.727-1.63-1.631-1.63
		c-0.897,0-1.628,0.73-1.628,1.63v5.027C269.091,197.767,269.822,198.496,270.719,198.496"/>
	<path style="fill:#FFFFFF;" d="M275.427,201.952c0.903,0,1.631-0.729,1.631-1.629v-5.025c0-0.901-0.728-1.63-1.631-1.63
		c-0.9,0-1.628,0.729-1.628,1.63v5.025C273.799,201.224,274.527,201.952,275.427,201.952"/>
	<path style="fill:#FFFFFF;" d="M237.774,163.918c0.9,0,1.631-0.729,1.631-1.628v-5.029c0-0.899-0.731-1.631-1.631-1.631
		c-0.903,0-1.629,0.732-1.629,1.631v5.029C236.145,163.189,236.871,163.918,237.774,163.918"/>
	<path style="fill:#FFFFFF;" d="M242.436,167.374c0.903,0,1.632-0.728,1.632-1.626v-5.026c0-0.903-0.729-1.632-1.632-1.632
		c-0.9,0-1.629,0.729-1.629,1.632v5.026C240.807,166.646,241.536,167.374,242.436,167.374"/>
	<path style="fill:#FFFFFF;" d="M247.142,170.833c0.901,0,1.632-0.729,1.632-1.629v-5.027c0-0.9-0.731-1.63-1.632-1.63
		c-0.897,0-1.629,0.73-1.629,1.63v5.027C245.513,170.104,246.245,170.833,247.142,170.833"/>
	<path style="fill:#FFFFFF;" d="M250.221,172.664c0,0.899,0.728,1.629,1.63,1.629c0.9,0,1.628-0.73,1.628-1.629v-5.028
		c0-0.899-0.728-1.629-1.628-1.629c-0.902,0-1.63,0.73-1.63,1.629V172.664z"/>
	<path style="fill:#FFFFFF;" d="M256.556,177.749c0.901,0,1.629-0.73,1.629-1.63v-5.026c0-0.9-0.728-1.63-1.629-1.63
		c-0.899,0-1.629,0.73-1.629,1.63v5.026C254.927,177.02,255.657,177.749,256.556,177.749"/>
	<path style="fill:#FFFFFF;" d="M261.264,181.206c0.901,0,1.629-0.729,1.629-1.629v-5.027c0-0.9-0.728-1.63-1.629-1.63
		c-0.901,0-1.631,0.73-1.631,1.63v5.027C259.633,180.477,260.363,181.206,261.264,181.206"/>
	<path style="fill:#FFFFFF;" d="M265.972,184.663c0.9,0,1.628-0.728,1.628-1.626v-5.028c0-0.899-0.728-1.63-1.628-1.63
		c-0.901,0-1.631,0.731-1.631,1.63v5.028C264.341,183.935,265.071,184.663,265.972,184.663"/>
	<path style="fill:#FFFFFF;" d="M270.678,188.123c0.901,0,1.629-0.73,1.629-1.63v-5.026c0-0.9-0.728-1.63-1.629-1.63
		c-0.901,0-1.629,0.73-1.629,1.63v5.026C269.049,187.393,269.777,188.123,270.678,188.123"/>
	<path style="fill:#FFFFFF;" d="M275.386,191.581c0.899,0,1.628-0.732,1.628-1.63v-5.027c0-0.9-0.729-1.631-1.628-1.631
		c-0.903,0-1.63,0.731-1.63,1.631v5.027C273.756,190.849,274.483,191.581,275.386,191.581"/>
	<path style="fill:#FFFFFF;" d="M280.091,195.04c0.901,0,1.629-0.732,1.629-1.632v-5.025c0-0.9-0.728-1.631-1.629-1.631
		c-0.901,0-1.628,0.731-1.628,1.631v5.025C278.463,194.308,279.19,195.04,280.091,195.04"/>
	<path style="fill:#FFFFFF;" d="M284.8,198.496c0.899,0,1.628-0.729,1.628-1.629v-5.027c0-0.9-0.729-1.63-1.628-1.63
		c-0.904,0-1.631,0.73-1.631,1.63v5.027C283.169,197.767,283.896,198.496,284.8,198.496"/>
	<path style="fill:#FFFFFF;" d="M289.505,201.952c0.901,0,1.629-0.729,1.629-1.629v-5.025c0-0.901-0.728-1.63-1.629-1.63
		c-0.904,0-1.629,0.729-1.629,1.63v5.025C287.876,201.224,288.601,201.952,289.505,201.952"/>
	<path style="fill:#FFFFFF;" d="M251.852,163.918c0.9,0,1.628-0.729,1.628-1.628v-5.029c0-0.899-0.728-1.631-1.628-1.631
		c-0.903,0-1.63,0.732-1.63,1.631v5.029C250.221,163.189,250.948,163.918,251.852,163.918"/>
	<path style="fill:#FFFFFF;" d="M256.512,167.374c0.903,0,1.632-0.728,1.632-1.626v-5.026c0-0.903-0.729-1.632-1.632-1.632
		c-0.899,0-1.628,0.729-1.628,1.632v5.026C254.884,166.646,255.613,167.374,256.512,167.374"/>
	<path style="fill:#FFFFFF;" d="M261.22,170.833c0.9,0,1.629-0.729,1.629-1.629v-5.027c0-0.9-0.729-1.63-1.629-1.63
		c-0.901,0-1.629,0.73-1.629,1.63v5.027C259.591,170.104,260.319,170.833,261.22,170.833"/>
	<path style="fill:#FFFFFF;" d="M264.299,172.664c0,0.899,0.725,1.629,1.626,1.629c0.904,0,1.632-0.73,1.632-1.629v-5.028
		c0-0.899-0.728-1.629-1.632-1.629c-0.901,0-1.626,0.73-1.626,1.629V172.664z"/>
	<path style="fill:#FFFFFF;" d="M270.636,177.749c0.899,0,1.628-0.73,1.628-1.63v-5.026c0-0.9-0.729-1.63-1.628-1.63
		c-0.904,0-1.631,0.73-1.631,1.63v5.026C269.005,177.02,269.732,177.749,270.636,177.749"/>
	<path style="fill:#FFFFFF;" d="M275.342,181.206c0.901,0,1.629-0.729,1.629-1.629v-5.027c0-0.9-0.728-1.63-1.629-1.63
		c-0.903,0-1.631,0.73-1.631,1.63v5.027C273.711,180.477,274.439,181.206,275.342,181.206"/>
	<path style="fill:#FFFFFF;" d="M280.047,184.663c0.901,0,1.63-0.728,1.63-1.626v-5.028c0-0.899-0.729-1.63-1.63-1.63
		c-0.9,0-1.631,0.731-1.631,1.63v5.028C278.416,183.935,279.147,184.663,280.047,184.663"/>
	<path style="fill:#FFFFFF;" d="M284.756,188.123c0.9,0,1.629-0.73,1.629-1.63v-5.026c0-0.9-0.729-1.63-1.629-1.63
		c-0.903,0-1.629,0.73-1.629,1.63v5.026C283.127,187.393,283.853,188.123,284.756,188.123"/>
	<path style="fill:#FFFFFF;" d="M289.461,191.581c0.9,0,1.629-0.732,1.629-1.63v-5.027c0-0.9-0.729-1.631-1.629-1.631
		c-0.9,0-1.629,0.731-1.629,1.631v5.027C287.832,190.849,288.561,191.581,289.461,191.581"/>
	<path style="fill:#FFFFFF;" d="M294.167,195.04c0.903,0,1.63-0.732,1.63-1.632v-5.025c0-0.9-0.727-1.631-1.63-1.631
		c-0.9,0-1.629,0.731-1.629,1.631v5.025C292.538,194.308,293.267,195.04,294.167,195.04"/>
	<path style="fill:#FFFFFF;" d="M298.875,198.496c0.9,0,1.629-0.729,1.629-1.629v-5.027c0-0.9-0.729-1.63-1.629-1.63
		c-0.901,0-1.629,0.73-1.629,1.63v5.027C297.246,197.767,297.974,198.496,298.875,198.496"/>
	<path style="fill:#FFFFFF;" d="M303.58,201.952c0.903,0,1.631-0.729,1.631-1.629v-5.025c0-0.901-0.728-1.63-1.631-1.63
		c-0.901,0-1.629,0.729-1.629,1.63v5.025C301.951,201.224,302.679,201.952,303.58,201.952"/>
	<path style="fill:#FFFFFF;" d="M265.925,163.918c0.904,0,1.632-0.729,1.632-1.628v-5.029c0-0.899-0.728-1.631-1.632-1.631
		c-0.901,0-1.626,0.732-1.626,1.631v5.029C264.299,163.189,265.024,163.918,265.925,163.918"/>
	<path style="fill:#FFFFFF;" d="M270.589,167.374c0.903,0,1.631-0.728,1.631-1.626v-5.026c0-0.903-0.728-1.632-1.631-1.632
		c-0.901,0-1.631,0.729-1.631,1.632v5.026C268.958,166.646,269.688,167.374,270.589,167.374"/>
	<path style="fill:#FFFFFF;" d="M275.298,170.833c0.9,0,1.631-0.729,1.631-1.629v-5.027c0-0.9-0.731-1.63-1.631-1.63
		c-0.901,0-1.629,0.73-1.629,1.63v5.027C273.669,170.104,274.397,170.833,275.298,170.833"/>
	<path style="fill:#FFFFFF;" d="M280.003,174.293c0.903,0,1.631-0.731,1.631-1.629v-5.028c0-0.899-0.728-1.629-1.631-1.629
		c-0.901,0-1.629,0.73-1.629,1.629v5.028C278.374,173.562,279.102,174.293,280.003,174.293"/>
	<path style="fill:#FFFFFF;" d="M284.711,177.749c0.9,0,1.629-0.73,1.629-1.63v-5.026c0-0.9-0.729-1.63-1.629-1.63
		c-0.901,0-1.631,0.73-1.631,1.63v5.026C283.08,177.02,283.81,177.749,284.711,177.749"/>
	<path style="fill:#FFFFFF;" d="M289.417,181.206c0.903,0,1.629-0.729,1.629-1.629v-5.027c0-0.9-0.726-1.63-1.629-1.63
		c-0.901,0-1.629,0.73-1.629,1.63v5.027C287.788,180.477,288.516,181.206,289.417,181.206"/>
	<path style="fill:#FFFFFF;" d="M294.125,184.663c0.9,0,1.626-0.728,1.626-1.626v-5.028c0-0.899-0.726-1.63-1.626-1.63
		c-0.901,0-1.631,0.731-1.631,1.63v5.028C292.494,183.935,293.224,184.663,294.125,184.663"/>
	<path style="fill:#FFFFFF;" d="M298.831,188.123c0.903,0,1.63-0.73,1.63-1.63v-5.026c0-0.9-0.727-1.63-1.63-1.63
		c-0.901,0-1.629,0.73-1.629,1.63v5.026C297.202,187.393,297.93,188.123,298.831,188.123"/>
	<path style="fill:#FFFFFF;" d="M303.536,191.581c0.903,0,1.631-0.732,1.631-1.63v-5.027c0-0.9-0.728-1.631-1.631-1.631
		c-0.899,0-1.628,0.731-1.628,1.631v5.027C301.908,190.849,302.637,191.581,303.536,191.581"/>
	<path style="fill:#FFFFFF;" d="M306.615,188.383v5.025c0,0.9,0.728,1.632,1.629,1.632c0.902,0,1.629-0.732,1.629-1.632v-5.025
		c0-0.9-0.727-1.631-1.629-1.631C307.343,186.752,306.615,187.483,306.615,188.383"/>
	<path style="fill:#FFFFFF;" d="M311.322,196.867c0,0.9,0.726,1.629,1.631,1.629c0.898,0,1.627-0.729,1.627-1.629v-5.027
		c0-0.9-0.729-1.63-1.627-1.63c-0.905,0-1.631,0.73-1.631,1.63V196.867z"/>
	<path style="fill:#FFFFFF;" d="M319.287,200.323v-5.025c0-0.9-0.728-1.629-1.629-1.629c-0.902,0-1.631,0.729-1.631,1.629v5.025
		c0,0.9,0.729,1.629,1.631,1.629C318.559,201.952,319.287,201.223,319.287,200.323"/>
	<path style="fill:#FFFFFF;" d="M323.273,205.271H102.064l-52.396-38.526c-1.693-1.247-4.074-0.882-5.318,0.81
		c-1.243,1.693-0.882,4.075,0.811,5.318l53.402,39.265c0.655,0.479,1.443,0.741,2.251,0.741h222.459
		c2.099,0,3.803-1.705,3.803-3.805C327.076,206.977,325.372,205.271,323.273,205.271"/>
</g>
</svg>
