<?xml version="1.0" encoding="iso-8859-1"?>
<!-- Generator: Adobe Illustrator 25.4.1, SVG Export Plug-In . SVG Version: 6.00 Build 0)  -->
<svg version="1.1" id="Calque_1" xmlns="http://www.w3.org/2000/svg" xmlns:xlink="http://www.w3.org/1999/xlink" x="0px" y="0px"
	 viewBox="0 0 368.5 368.5" style="enable-background:new 0 0 368.5 368.5;" xml:space="preserve">
<g>
	<path style="fill:#FFFFFF;" d="M268.936,276.701c-1.812,2.53-3.98,4.85-6.547,6.82l-6.362,6.28h3.561
		c5.015,0,9.093-4.015,9.093-8.949L268.936,276.701z"/>
	<path style="fill:#FFFFFF;" d="M227.825,304.352c-0.002,0.043-0.148,1.612-0.528,3.983l30.337-29.949
		c0.11-0.107,0.226-0.209,0.349-0.3c6.223-4.707,9.791-11.83,9.791-19.543l10.175-156.677c-5.682,4.374-10.339,7.985-11.98,9.323
		l-0.882,0.723c-4.062,3.351-9.245,7.601-19.104,9.628L227.825,304.352z"/>
	<path style="fill:#FFFFFF;" d="M212.295,325.991c3.98-1.027,7.963-13.735,8.562-22.231l18.002-181.255
		c-1.746,0.132-3.581,0.216-5.567,0.216c-13.56,0-98.457-0.174-138.639-0.257l17.577,192.649c0.777,5.322,3.188,10.878,6.779,10.878
		h12.986c1.435,0,4.37-3.356,6.287-8.172c0.531-1.33,1.817-2.205,3.25-2.205h49.955c1.434,0,2.723,0.875,3.251,2.209
		c0.465,1.175,0.681,2.377,0.888,3.541c0.604,3.368,0.829,4.627,5.393,4.627H212.295z M197.143,159.824
		c3.179,0,5.766,2.573,5.766,5.734c0,3.162-2.587,5.734-5.766,5.734c-3.181,0-5.768-2.572-5.768-5.734
		C191.375,162.397,193.962,159.824,197.143,159.824 M140.088,229.9c-3.181,0-5.77-2.573-5.77-5.735c0-3.16,2.589-5.73,5.77-5.73
		c3.179,0,5.766,2.57,5.766,5.73C145.854,227.327,143.267,229.9,140.088,229.9 M140.088,171.292c-3.181,0-5.77-2.572-5.77-5.734
		c0-3.161,2.589-5.734,5.77-5.734c3.179,0,5.766,2.573,5.766,5.734C145.854,168.72,143.267,171.292,140.088,171.292
		 M154.349,258.029c-3.178,0-5.765-2.571-5.765-5.732c0-3.162,2.587-5.736,5.765-5.736c3.182,0,5.768,2.574,5.768,5.736
		C160.117,255.458,157.531,258.029,154.349,258.029 M154.349,199.423c-3.178,0-5.765-2.572-5.765-5.733
		c0-3.164,2.587-5.737,5.765-5.737c3.182,0,5.768,2.573,5.768,5.737C160.117,196.851,157.531,199.423,154.349,199.423
		 M168.615,229.9c-3.181,0-5.767-2.573-5.767-5.735c0-3.16,2.586-5.73,5.767-5.73c3.179,0,5.766,2.57,5.766,5.73
		C174.381,227.327,171.794,229.9,168.615,229.9 M168.615,171.292c-3.181,0-5.767-2.572-5.767-5.734c0-3.161,2.586-5.734,5.767-5.734
		c3.179,0,5.766,2.573,5.766,5.734C174.381,168.72,171.794,171.292,168.615,171.292 M182.879,258.029
		c-3.181,0-5.768-2.571-5.768-5.732c0-3.162,2.587-5.736,5.768-5.736c3.179,0,5.766,2.574,5.766,5.736
		C188.645,255.458,186.058,258.029,182.879,258.029 M182.879,199.423c-3.181,0-5.768-2.572-5.768-5.733
		c0-3.164,2.587-5.737,5.768-5.737c3.179,0,5.766,2.573,5.766,5.737C188.645,196.851,186.058,199.423,182.879,199.423
		 M191.375,224.165c0-3.16,2.587-5.73,5.768-5.73c3.179,0,5.766,2.57,5.766,5.73c0,3.162-2.587,5.735-5.766,5.735
		C193.962,229.9,191.375,227.327,191.375,224.165"/>
	<path style="fill:#FFFFFF;" d="M197.143,222.904c-0.679,0-1.23,0.566-1.23,1.26c0,0.698,0.551,1.265,1.23,1.265
		c0.676,0,1.227-0.567,1.227-1.265C198.37,223.471,197.819,222.904,197.143,222.904"/>
	<path style="fill:#FFFFFF;" d="M168.616,222.904c-0.679,0-1.23,0.566-1.23,1.26c0,0.698,0.551,1.265,1.23,1.265
		c0.676,0,1.227-0.567,1.227-1.265C169.843,223.471,169.292,222.904,168.616,222.904"/>
	<path style="fill:#FFFFFF;" d="M140.088,222.904c-0.679,0-1.23,0.566-1.23,1.26c0,0.698,0.551,1.265,1.23,1.265
		c0.676,0,1.225-0.567,1.225-1.265C141.313,223.471,140.764,222.904,140.088,222.904"/>
	<path style="fill:#FFFFFF;" d="M182.88,251.033c-0.679,0-1.23,0.567-1.23,1.264c0,0.694,0.551,1.259,1.23,1.259
		c0.676,0,1.227-0.565,1.227-1.259C184.107,251.6,183.556,251.033,182.88,251.033"/>
	<path style="fill:#FFFFFF;" d="M154.35,251.033c-0.676,0-1.227,0.567-1.227,1.264c0,0.694,0.551,1.259,1.227,1.259
		c0.679,0,1.23-0.565,1.23-1.259C155.58,251.6,155.029,251.033,154.35,251.033"/>
	<path style="fill:#FFFFFF;" d="M197.143,166.819c0.676,0,1.227-0.566,1.227-1.261c0-0.695-0.551-1.262-1.227-1.262
		c-0.679,0-1.23,0.567-1.23,1.262C195.913,166.253,196.464,166.819,197.143,166.819"/>
	<path style="fill:#FFFFFF;" d="M168.616,164.296c-0.679,0-1.23,0.567-1.23,1.261c0,0.696,0.551,1.262,1.23,1.262
		c0.676,0,1.227-0.566,1.227-1.262C169.843,164.863,169.292,164.296,168.616,164.296"/>
	<path style="fill:#FFFFFF;" d="M140.088,164.296c-0.679,0-1.23,0.567-1.23,1.261c0,0.696,0.551,1.262,1.23,1.262
		c0.676,0,1.225-0.566,1.225-1.262C141.313,164.863,140.764,164.296,140.088,164.296"/>
	<path style="fill:#FFFFFF;" d="M182.88,192.428c-0.679,0-1.23,0.567-1.23,1.261c0,0.695,0.551,1.26,1.23,1.26
		c0.676,0,1.227-0.565,1.227-1.26C184.107,192.995,183.556,192.428,182.88,192.428"/>
	<path style="fill:#FFFFFF;" d="M154.35,192.428c-0.676,0-1.227,0.567-1.227,1.261c0,0.695,0.551,1.26,1.227,1.26
		c0.679,0,1.23-0.565,1.23-1.26C155.58,192.995,155.029,192.428,154.35,192.428"/>
	<path style="fill:#FFFFFF;" d="M120.751,114.859h0.007c0.843,0,1.624-0.236,2.307-0.627c1.498-8.918,8.125-15.605,15.91-15.605
		h28.99c7.931,0,14.678,6.938,16.003,16.109c0.456,0.15,0.934,0.248,1.44,0.249c22.461,0.042,40.958,0.072,46.721,0.072
		c18.699,0,26.278-6.249,31.809-10.812l0.874-0.719c5.372-4.384,12.645-9.883,12.857-10.047l23.773-19.399
		c0.985-0.804,1.568-1.981,1.673-3.238c0.009-0.125,0.041-0.248,0.041-0.375c0-15.407-14.89-27.94-33.193-27.94H169.16
		c-21.771,0-35.076,4.745-48.356,11.868c-7.43,3.985-15.555,8.869-31.741,18.6l-5.776,3.472
		c-19.278,11.574-15.569,33.53-15.403,34.459c0.276,1.532,1.289,2.76,2.626,3.385c0.601,0.281,1.259,0.452,1.956,0.452
		L120.751,114.859z M93.868,80.988c16.056-9.652,24.114-14.497,31.344-18.374c12.383-6.641,24.056-10.76,43.948-10.76h100.803
		c12.253,0,22.379,7.238,23.716,16.52l-21.769,17.77c-0.303,0.23-7.487,5.659-12.996,10.158l-0.911,0.748
		c-4.934,4.069-10.524,8.68-25.874,8.68c-5.426,0-22.143-0.026-42.823-0.065c-2.457-8.332-10.245-14.365-19.351-14.365h-33.737
		c-9.029,0-16.801,5.975-19.31,14.224l-40.1-0.079c0.025-5.385,1.544-15.137,11.281-20.982L93.868,80.988z"/>
</g>
</svg>
