<?xml version="1.0" encoding="iso-8859-1"?>
<!-- Generator: Adobe Illustrator 25.4.1, SVG Export Plug-In . SVG Version: 6.00 Build 0)  -->
<svg version="1.1" id="Calque_1" xmlns="http://www.w3.org/2000/svg" xmlns:xlink="http://www.w3.org/1999/xlink" x="0px" y="0px"
	 viewBox="0 0 368.5 368.5" style="enable-background:new 0 0 368.5 368.5;" xml:space="preserve">
<g>
	<path style="fill:#FFFFFF;" d="M73.603,94.389v201.992l65.381-17.052V93.105c-3.636-1.289-6.49-4.45-7.425-8.555
		c-0.406-1.785-0.391-3.574-0.044-5.265L73.603,94.389z"/>
	<path style="fill:#FFFFFF;" d="M138.984,286.563l-72.902,19.013c-2.432,0.633-3.907,3.359-3.289,6.075
		c0.503,2.204,2.259,3.744,4.272,3.744c0.333,0,0.669-0.043,0.999-0.13l70.92-18.496V286.563z"/>
	<path style="fill:#FFFFFF;" d="M68.065,88.599l83.299-21.726c2.431-0.634,3.907-3.359,3.289-6.073
		c-0.503-2.205-2.26-3.746-4.275-3.746c-0.332,0-0.667,0.044-0.997,0.13L66.082,78.909c-2.432,0.634-3.907,3.36-3.289,6.075
		c0.502,2.205,2.26,3.745,4.273,3.745C67.398,88.729,67.735,88.685,68.065,88.599"/>
	<path style="fill:#FFFFFF;" d="M145.984,93.236v201.991l70.149-18.294V91.596c-4.424-0.81-8.036-4.286-9.111-9.006
		c-0.406-1.785-0.392-3.572-0.046-5.261L145.984,93.236z"/>
	<path style="fill:#FFFFFF;" d="M216.133,284.167l-74.461,19.42c-2.431,0.635-3.906,3.36-3.288,6.076
		c0.585,2.569,2.938,4.228,5.272,3.614l72.477-18.902V284.167z"/>
	<path style="fill:#FFFFFF;" d="M138.385,82.995c0.585,2.569,2.938,4.227,5.271,3.614l83.299-21.724
		c2.432-0.634,3.907-3.359,3.289-6.074c-0.502-2.205-2.26-3.746-4.274-3.746c-0.332,0-0.668,0.044-0.998,0.13L141.673,76.92
		C139.242,77.555,137.766,80.279,138.385,82.995"/>
	<path style="fill:#FFFFFF;" d="M298.917,71.072l-75.784,19.764v201.993l75.535-19.7c0.082-0.022,0.166-0.03,0.249-0.048V71.072z"/>
	<path style="fill:#FFFFFF;" d="M301.434,279.772c-0.333,0-0.669,0.044-0.999,0.13l-83.298,21.725
		c-2.432,0.634-3.908,3.36-3.289,6.076c0.585,2.568,2.94,4.219,5.271,3.613l83.299-21.725c2.433-0.634,3.908-3.358,3.289-6.073
		C305.204,281.312,303.446,279.772,301.434,279.772"/>
	<path style="fill:#FFFFFF;" d="M301.432,53.104c-0.332,0-0.668,0.044-0.998,0.13l-83.298,21.725
		c-2.433,0.634-3.907,3.36-3.289,6.076c0.502,2.204,2.259,3.743,4.272,3.743c0.333,0,0.669-0.043,0.999-0.13l83.3-21.724
		c2.432-0.634,3.907-3.359,3.288-6.074C305.204,54.645,303.446,53.104,301.432,53.104"/>
</g>
</svg>
