<?xml version="1.0" encoding="iso-8859-1"?>
<!-- Generator: Adobe Illustrator 25.4.1, SVG Export Plug-In . SVG Version: 6.00 Build 0)  -->
<svg version="1.1" id="Calque_1" xmlns="http://www.w3.org/2000/svg" xmlns:xlink="http://www.w3.org/1999/xlink" x="0px" y="0px"
	 viewBox="0 0 368.5 368.5" style="enable-background:new 0 0 368.5 368.5;" xml:space="preserve">
<g>
	<path style="fill:#FFFFFF;" d="M53.067,96.693c-5.226,0-9.462,4.234-9.462,9.462v156.228c0,5.225,4.236,9.462,9.462,9.462
		s9.462-4.237,9.462-9.462V106.155C62.529,100.927,58.293,96.693,53.067,96.693"/>
	<path style="fill:#FFFFFF;" d="M175.874,262.383c0,5.225,4.234,9.462,9.462,9.462c5.227,0,9.462-4.237,9.462-9.462V106.155
		c0-5.228-4.235-9.462-9.462-9.462c-5.228,0-9.462,4.234-9.462,9.462V262.383z"/>
	<path style="fill:#FFFFFF;" d="M73.024,109.971v24.831c0,0.793,0.643,1.439,1.438,1.439h89.477c0.794,0,1.437-0.646,1.437-1.439
		v-24.831c0-0.793-0.643-1.438-1.437-1.438H74.462C73.667,108.533,73.024,109.178,73.024,109.971"/>
	<path style="fill:#FFFFFF;" d="M73.024,170.063c0,0.795,0.643,1.436,1.438,1.436h89.477c0.794,0,1.437-0.641,1.437-1.436v-24.827
		c0-0.795-0.643-1.438-1.437-1.438H74.462c-0.795,0-1.438,0.643-1.438,1.438V170.063z"/>
	<path style="fill:#FFFFFF;" d="M73.024,205.327c0,0.797,0.643,1.441,1.438,1.441h89.477c0.794,0,1.437-0.644,1.437-1.441V180.5
		c0-0.795-0.643-1.438-1.437-1.438H74.462c-0.795,0-1.438,0.643-1.438,1.438V205.327z"/>
	<path style="fill:#FFFFFF;" d="M165.377,240.592v-24.827c0-0.795-0.643-1.44-1.438-1.44H74.462c-0.794,0-1.437,0.645-1.437,1.44
		v24.827c0,0.793,0.643,1.436,1.437,1.436h89.477C164.734,242.028,165.377,241.385,165.377,240.592"/>
	<path style="fill:#FFFFFF;" d="M308.145,106.155v156.228c0,5.224,4.234,9.462,9.462,9.462c5.227,0,9.462-4.238,9.462-9.462V106.155
		c0-5.228-4.235-9.462-9.462-9.462C312.379,96.693,308.145,100.927,308.145,106.155"/>
	<path style="fill:#FFFFFF;" d="M205.296,109.973v24.829c0,0.795,0.643,1.44,1.438,1.44h89.475c0.796,0,1.439-0.645,1.439-1.44
		v-24.829c0-0.795-0.643-1.44-1.439-1.44h-89.475C205.938,108.533,205.296,109.178,205.296,109.973"/>
	<path style="fill:#FFFFFF;" d="M297.648,145.236c0-0.795-0.643-1.438-1.438-1.438h-89.477c-0.794,0-1.437,0.643-1.437,1.438v24.827
		c0,0.795,0.643,1.436,1.437,1.436h89.477c0.795,0,1.438-0.641,1.438-1.436V145.236z"/>
	<path style="fill:#FFFFFF;" d="M297.648,180.5c0-0.795-0.643-1.438-1.438-1.438h-89.477c-0.794,0-1.437,0.643-1.437,1.438v24.827
		c0,0.797,0.643,1.442,1.437,1.442h89.477c0.795,0,1.438-0.645,1.438-1.442V180.5z"/>
	<path style="fill:#FFFFFF;" d="M297.648,240.592v-24.827c0-0.795-0.643-1.438-1.438-1.438h-89.477
		c-0.794,0-1.437,0.643-1.437,1.438v24.827c0,0.793,0.643,1.436,1.437,1.436h89.477
		C297.005,242.028,297.648,241.385,297.648,240.592"/>
</g>
</svg>
