<?xml version="1.0" encoding="iso-8859-1"?>
<!-- Generator: Adobe Illustrator 25.4.1, SVG Export Plug-In . SVG Version: 6.00 Build 0)  -->
<svg version="1.1" id="Calque_1" xmlns="http://www.w3.org/2000/svg" xmlns:xlink="http://www.w3.org/1999/xlink" x="0px" y="0px"
	 viewBox="0 0 368.5 368.5" style="enable-background:new 0 0 368.5 368.5;" xml:space="preserve">
<g>
	<path style="fill:#FFFFFF;" d="M315.715,79.282c-5.688,0-10.296,4.611-10.296,10.296v11.107h-6.178h-18.446V89.578
		c0-3.155-2.56-5.715-5.718-5.715c-2.409,0-4.46,1.492-5.299,3.602c0.457,0.585,0.747,1.311,0.747,2.113v11.107h-6.862h-18.746
		V89.578c0-3.155-2.56-5.715-5.717-5.715c-2.407,0-4.458,1.492-5.301,3.602c0.462,0.583,0.75,1.311,0.75,2.113v11.107h-6.861
		h-18.749V89.578c0-3.155-2.559-5.715-5.717-5.715c-2.409,0-4.46,1.492-5.3,3.602c0.459,0.585,0.748,1.311,0.748,2.113v11.107
		h-6.862h-18.747V89.578c0-3.155-2.562-5.715-5.718-5.715c-2.407,0-4.46,1.492-5.301,3.602c0.463,0.583,0.75,1.311,0.75,2.113
		v11.107h-6.861h-18.748V89.578c0-3.155-2.559-5.715-5.719-5.715c-2.407,0-4.458,1.492-5.299,3.602
		c0.462,0.583,0.749,1.311,0.749,2.113v11.107h-6.862h-18.747V89.578c0-3.155-2.56-5.715-5.718-5.715
		c-2.407,0-4.46,1.492-5.301,3.602c0.462,0.585,0.75,1.311,0.75,2.113v11.107h-6.861H63.139V89.578
		c0-5.685-4.606-10.296-10.297-10.296c-5.684,0-10.296,4.611-10.296,10.296V278.96c0,5.685,4.612,10.296,10.296,10.296
		c5.691,0,10.297-4.611,10.297-10.296v-17.632H52.721c-1.895,0-3.43-1.536-3.43-3.431c0-1.894,1.535-3.43,3.43-3.43H310.06
		c1.894,0,3.431,1.536,3.431,3.43c0,1.895-1.537,3.431-3.431,3.431h-4.641v17.632c0,5.687,4.608,10.296,10.296,10.296
		c5.687,0,10.296-4.609,10.296-10.296V89.578C326.011,83.893,321.402,79.282,315.715,79.282 M310.06,225.452h-4.641v18.743h-6.178
		h-18.446v-18.743h-10.27v18.743h-6.862h-18.746v-18.743h-10.268v18.743h-6.861h-18.749v-18.743H198.77v18.743h-6.862h-18.747
		v-18.743h-10.269v18.743h-6.861h-18.748v-18.743h-10.269v18.743h-6.862h-18.747v-18.743H91.136v18.743h-6.861H63.139v-18.743
		H52.721c-1.895,0-3.43-1.538-3.43-3.43c0-1.897,1.535-3.431,3.43-3.431H310.06c1.894,0,3.431,1.534,3.431,3.431
		C313.491,223.914,311.954,225.452,310.06,225.452 M310.06,189.573h-4.641v18.744h-6.178h-18.446v-18.744h-10.27v18.744h-6.862
		h-18.746v-18.744h-10.268v18.744h-6.861h-18.749v-18.744H198.77v18.744h-6.862h-18.747v-18.744h-10.269v18.744h-6.861h-18.748
		v-18.744h-10.269v18.744h-6.862h-18.747v-18.744H91.136v18.744h-6.861H63.139v-18.744H52.721c-1.895,0-3.43-1.536-3.43-3.431
		c0-1.896,1.535-3.43,3.43-3.43H310.06c1.894,0,3.431,1.534,3.431,3.43C313.491,188.037,311.954,189.573,310.06,189.573
		 M310.06,153.694h-4.641v18.746h-6.178h-18.446v-18.746h-10.27v18.746h-6.862h-18.746v-18.746h-10.268v18.746h-6.861h-18.749
		v-18.746H198.77v18.746h-6.862h-18.747v-18.746h-10.269v18.746h-6.861h-18.748v-18.746h-10.269v18.746h-6.862h-18.747v-18.746
		H91.136v18.746h-6.861H63.139v-18.746H52.721c-1.895,0-3.43-1.535-3.43-3.431c0-1.895,1.535-3.431,3.43-3.431H310.06
		c1.894,0,3.431,1.536,3.431,3.431C313.491,152.159,311.954,153.694,310.06,153.694 M310.06,117.816h-4.641v18.748h-6.178h-18.446
		v-18.748h-10.27v18.748h-6.862h-18.746v-18.748h-10.268v18.748h-6.861h-18.749v-18.748H198.77v18.748h-6.862h-18.747v-18.748
		h-10.269v18.748h-6.861h-18.748v-18.748h-10.269v18.748h-6.862h-18.747v-18.748H91.136v18.748h-6.861H63.139v-18.748H52.721
		c-1.895,0-3.43-1.534-3.43-3.429c0-1.898,1.535-3.43,3.43-3.43H310.06c1.894,0,3.431,1.532,3.431,3.43
		C313.491,116.282,311.954,117.816,310.06,117.816"/>
	<path style="fill:#FFFFFF;" d="M91.135,278.957c0,0.805-0.288,1.53-0.748,2.116c0.841,2.109,2.892,3.601,5.301,3.601
		c3.157,0,5.716-2.56,5.716-5.717v-17.63H91.135V278.957z"/>
	<path style="fill:#FFFFFF;" d="M137.281,278.957v-17.63h-10.267v17.63c0,0.805-0.289,1.532-0.75,2.116
		c0.843,2.109,2.894,3.601,5.301,3.601C134.722,284.674,137.281,282.115,137.281,278.957"/>
	<path style="fill:#FFFFFF;" d="M162.892,278.957c0,0.805-0.288,1.532-0.75,2.116c0.841,2.109,2.894,3.601,5.301,3.601
		c3.157,0,5.716-2.56,5.716-5.717v-17.63h-10.267V278.957z"/>
	<path style="fill:#FFFFFF;" d="M198.769,278.957c0,0.805-0.289,1.53-0.748,2.116c0.84,2.109,2.892,3.601,5.301,3.601
		c3.157,0,5.716-2.56,5.716-5.717v-17.63h-10.269V278.957z"/>
	<path style="fill:#FFFFFF;" d="M234.649,278.957c0,0.805-0.288,1.532-0.75,2.116c0.842,2.109,2.894,3.601,5.301,3.601
		c3.157,0,5.716-2.56,5.716-5.717v-17.63h-10.267V278.957z"/>
	<path style="fill:#FFFFFF;" d="M270.524,278.957c0,0.805-0.292,1.53-0.748,2.116c0.84,2.109,2.892,3.601,5.301,3.601
		c3.157,0,5.716-2.56,5.716-5.717v-17.63h-10.269V278.957z"/>
</g>
</svg>
