<?xml version="1.0" encoding="iso-8859-1"?>
<!-- Generator: Adobe Illustrator 25.4.1, SVG Export Plug-In . SVG Version: 6.00 Build 0)  -->
<svg version="1.1" id="Calque_1" xmlns="http://www.w3.org/2000/svg" xmlns:xlink="http://www.w3.org/1999/xlink" x="0px" y="0px"
	 viewBox="0 0 368.5 368.5" style="enable-background:new 0 0 368.5 368.5;" xml:space="preserve">
<g>
	<path style="fill:#FFFFFF;" d="M119.04,252.275c-2.581,1.073-5.551,0.486-7.535-1.483c-7.369-7.333-17.989-11.537-29.134-11.537
		c-21.378,0-38.77,15.19-38.77,33.861c0,18.673,17.392,33.865,38.77,33.865l244.685,0.312V117.545h-90.985v24.427h35.068
		c20.198,0,36.629,16.433,36.629,36.631c0,13.196-7.038,24.75-17.534,31.197l16.43,32.106c1.16,2.267,0.264,5.047-2.004,6.206
		c-0.673,0.345-1.389,0.51-2.096,0.51c-1.678,0-3.295-0.92-4.11-2.514l-16.62-32.478c-2.225,0.682-4.538,1.162-6.918,1.406
		l13.748,26.87c1.16,2.267,0.264,5.047-2.004,6.206c-0.673,0.345-1.389,0.51-2.097,0.51c-1.677,0-3.294-0.92-4.11-2.514
		l-15.8-30.877h-7.631l13.651,26.675c1.16,2.267,0.263,5.047-2.004,6.206c-0.674,0.345-1.39,0.51-2.097,0.51
		c-1.678,0-3.294-0.92-4.11-2.514l-15.8-30.877h-7.638l13.651,26.675c1.16,2.267,0.264,5.047-2.004,6.206
		c-0.673,0.345-1.39,0.51-2.097,0.51c-1.677,0-3.294-0.919-4.11-2.514l-15.802-30.877h-7.634l13.649,26.675
		c1.16,2.267,0.264,5.047-2.004,6.206c-0.673,0.345-1.39,0.51-2.097,0.51c-1.677,0-3.294-0.92-4.109-2.514l-15.8-30.877h-7.635
		l13.65,26.675c1.159,2.267,0.263,5.047-2.004,6.206c-0.674,0.345-1.39,0.51-2.097,0.51c-1.678,0-3.295-0.92-4.11-2.514
		l-15.8-30.877h-7.634l13.651,26.675c1.16,2.267,0.264,5.047-2.004,6.206c-0.673,0.345-1.389,0.51-2.097,0.51
		c-1.677,0-3.294-0.919-4.109-2.514l-15.803-30.877h-7.634l13.652,26.675c1.159,2.267,0.263,5.047-2.005,6.206
		c-0.673,0.345-1.389,0.51-2.096,0.51c-1.678,0-3.295-0.92-4.11-2.514l-16.66-32.556c-14.859-4.674-25.666-18.571-25.666-34.949
		c0-20.198,16.433-36.631,36.631-36.631h28.724v-24.427h-72.208v128.342C123.303,248.683,121.621,251.202,119.04,252.275"/>
	<path style="fill:#FFFFFF;" d="M43.592,240.919c9.625-9.52,23.445-15.499,38.779-15.499c9.621,0,18.987,2.405,27.096,6.814V70.884
		c-7.222-6.167-16.941-9.66-27.096-9.66c-21.378,0-38.77,15.19-38.77,33.863L43.592,240.919z"/>
	<path style="fill:#FFFFFF;" d="M298.544,178.604c0-15.111-12.293-27.407-27.404-27.407h-35.068v6.7
		c0,11.182-9.098,20.279-20.279,20.279c-11.184,0-20.282-9.097-20.282-20.279v-6.7h-28.724c-15.113,0-27.407,12.296-27.407,27.407
		c0,15.11,12.294,27.403,27.407,27.403H271.14C286.251,206.007,298.544,193.714,298.544,178.604"/>
	<path style="fill:#FFFFFF;" d="M204.735,157.897c0,6.096,4.961,11.055,11.057,11.055c6.096,0,11.055-4.959,11.055-11.055V72.782
		c0-6.095-4.959-11.054-11.055-11.054c-6.096,0-11.057,4.959-11.057,11.054V157.897z"/>
</g>
</svg>
