<?xml version="1.0" encoding="iso-8859-1"?>
<!-- Generator: Adobe Illustrator 25.4.1, SVG Export Plug-In . SVG Version: 6.00 Build 0)  -->
<svg version="1.1" id="Calque_1" xmlns="http://www.w3.org/2000/svg" xmlns:xlink="http://www.w3.org/1999/xlink" x="0px" y="0px"
	 viewBox="0 0 368.5 368.5" style="enable-background:new 0 0 368.5 368.5;" xml:space="preserve">
<g>
	<path style="fill:#FFFFFF;" d="M113.791,118.893c0.375-0.512,0.867-0.937,1.427-1.229c8.747-4.505,15.596-16.154,15.566-30.104
		c0.007-9.204-2.952-17.461-7.519-23.259c-3.084-3.903-6.793-6.66-10.846-8.058c-1.53-0.28-3.095-0.434-4.693-0.433
		C91.438,55.822,78.197,71.001,78.21,89.649l-0.123,213.433l151.98-0.108l-19.695-19.667c-3.266-3.26-5.066-7.598-5.07-12.211
		c0-0.172,0.019-0.338,0.024-0.508c-0.004-0.164-0.024-0.326-0.024-0.492c-0.002-2.102,0.369-4.143,1.045-6.068
		c-0.063-0.054-0.119-0.101-0.158-0.131h-0.001c-0.286,0-1.129,0.052-2.781,0.527c-4.527,1.258-12.751,4.918-28.367,12.144
		c-7.721,3.565-13.444,6.153-18.123,8.043c-4.625,1.854-8.485,3.192-12.311,3.711c-0.958,0.129-1.905,0.193-2.816,0.195
		c-1.707,0-3.337-0.23-4.849-0.683c-2.774-0.822-5.34-2.444-7.841-4.951c-0.008-0.008-0.08-0.082-0.088-0.09l0.002-0.002
		c-0.054-0.055-0.118-0.117-0.189-0.192c-3.249-3.347-6.475-6.621-9.328-9.47l-0.167-0.166c-0.025-0.026-0.049-0.049-0.072-0.074
		c-3.291-3.311-5.352-6.462-6.487-9.912c-1.371-4.038-1.097-8.616,0.757-12.541c0.218-0.474,0.461-0.942,0.721-1.408
		c-5.184-6.66-8.338-14.232-5.133-18.826c0.143-0.243,0.318-0.471,0.525-0.68l0.159-0.159c0.032-0.034,0.066-0.068,0.1-0.102
		l73.385-73.485c0.018-0.02,0.036-0.038,0.052-0.055c0.938-0.938,2.64-2.058,5.416-2.058c5.225,0,12.587,4.111,19.213,10.73
		c8.027,8.014,14.175,19.136,8.703,24.616c-0.008,0.009-0.017,0.018-0.026,0.027c-0.007,0.007-0.015,0.015-0.022,0.022
		l-73.402,73.505c-0.033,0.033-0.066,0.065-0.1,0.098l-0.141,0.14c-0.217,0.218-0.457,0.401-0.71,0.549
		c-1.23,0.846-2.771,1.289-4.492,1.289c-1.825,0-3.914-0.512-6.14-1.447c3.969,3.98,7.486,7.601,8.538,8.685
		c0.842,0.832,1.159,0.974,1.235,0.998c0.178,0.053,0.774,0.099,2.301-0.24c4.185-0.901,12.93-4.745,24.778-10.238
		c8.616-3.977,15.112-6.96,20.293-9.154c4.985-2.103,9.079-3.665,12.872-4.459c2.865-0.588,5.287-0.651,7.581-0.215
		c3.423,0.626,6.069,2.476,7.8,4.067c2.241-0.958,4.671-1.469,7.181-1.469c4.877,0,9.465,1.899,12.916,5.347l6.441,6.432
		l-0.028-39.344l-0.024-35.38l-0.043-61.201H116.01c-1.593,0-3.042-0.906-3.739-2.338c-0.698-1.432-0.519-3.132,0.463-4.385
		C113.083,119.85,113.433,119.382,113.791,118.893"/>
	<path style="fill:#FFFFFF;" d="M290.413,91.942c-0.004-11.438-3.231-21.412-9.657-28.469c-6.434-7.04-16.19-11.576-30.639-11.612
		l-128.076-0.008c2.913,1.971,5.531,4.451,7.766,7.307c5.822,7.421,9.293,17.429,9.298,28.4c-0.023,12.37-4.412,23.58-11.689,31.141
		h149.786C285.796,111.234,290.41,101.713,290.413,91.942"/>
	<path style="fill:#FFFFFF;" d="M118.526,235.1c1.085-1.087,2.587-1.662,4.343-1.662c3.34,0,7.399,2.061,10.856,5.513
		c5.434,5.426,7.098,11.958,3.87,15.193c-1.086,1.088-2.588,1.663-4.343,1.663c-0.315,0-0.641-0.036-0.968-0.072
		c2.272,1.255,4.209,1.904,5.492,1.904c0.319,0,0.478-0.044,0.528-0.062c0.006-0.006,0.011-0.011,0.017-0.016l73.217-73.319
		c0.043-0.049,0.088-0.096,0.134-0.142c0.482-1.268-1.39-7.503-8.652-14.754c-5.707-5.701-11.496-8.683-14.266-8.683
		c-0.284,0-0.441,0.035-0.507,0.055c-0.015,0.015-0.029,0.029-0.043,0.042c-0.024,0.024-0.048,0.047-0.073,0.069l-73.259,73.36
		c-0.007,0.009-0.014,0.017-0.021,0.026c-0.298,0.64,0.201,3.034,2.1,6.36C116.656,238.342,117.187,236.44,118.526,235.1
		 M137.71,218.393l51.541-51.614c1.562-1.563,4.094-1.564,5.657-0.004c1.563,1.561,1.565,4.094,0.004,5.658l-51.541,51.613
		c-0.781,0.783-1.806,1.174-2.83,1.174c-1.023,0-2.046-0.39-2.828-1.17C136.151,222.489,136.149,219.957,137.71,218.393"/>
	<path style="fill:#FFFFFF;" d="M133.252,250.807c0.382,0,0.683-0.073,0.804-0.195c0.619-0.619,0.03-4.234-3.864-8.123
		c-2.803-2.798-5.697-4.05-7.323-4.05c-0.383,0-0.683,0.073-0.805,0.195c-0.212,0.212-0.354,1.046,0.121,2.478
		c0.033,0.099,0.077,0.202,0.115,0.303c0.569-0.131,1.152-0.205,1.744-0.205c2.253,0,4.397,0.973,5.879,2.671
		c1.65,1.888,2.226,4.351,1.776,6.645C132.288,250.71,132.818,250.807,133.252,250.807"/>
	<path style="fill:#FFFFFF;" d="M210.647,257.169l0.636-0.638c0.401-0.401,0.82-0.777,1.25-1.135
		c-1.13-0.836-2.55-1.607-4.215-1.912c-1.697-0.322-3.443-0.257-5.65,0.196c-3.39,0.709-7.226,2.179-11.94,4.169
		c-5.11,2.164-11.571,5.131-20.14,9.085c-14.943,6.931-21.698,9.701-25.809,10.586c-2.078,0.461-3.558,0.513-4.804,0.144
		c-1.102-0.332-2.038-0.967-3.354-2.269c-1.181-1.219-5.251-5.409-9.626-9.776l-0.111-0.112c-0.022-0.021-0.042-0.042-0.063-0.064
		l-0.001,0.001c-3.428-3.41-4.223-5.926-4.287-7.437c-0.061-1.053,0.125-1.995,0.624-3.111c0.558-1.233,1.502-2.52,2.809-3.834
		c1.106-1.071,1.176-2.766,0.192-3.892c-0.979-1.12-2.832-1.249-3.957-0.267l-0.149,0.137c-0.01,0.01-0.021,0.021-0.031,0.031
		c-1.809,1.815-3.104,3.605-3.959,5.474c-1.299,2.75-1.499,6.046-0.548,8.847c0.896,2.724,2.59,5.265,5.341,8.022
		c0.019,0.02,0.038,0.039,0.056,0.059l0.147,0.146c2.844,2.838,6.088,6.133,9.355,9.498l0.17,0.174
		c0.005,0.006,0.012,0.014,0.018,0.02c1.962,1.97,3.783,3.144,5.769,3.732c1.644,0.492,3.522,0.602,5.567,0.324
		c2.837-0.385,6.057-1.367,11.115-3.394c4.578-1.85,10.24-4.41,17.89-7.944c16.192-7.492,24.237-11.064,29.104-12.417
		c2.289-0.659,4.1-0.873,5.281-0.602c0.52,0.129,0.924,0.281,1.34,0.53C209.259,258.706,209.91,257.907,210.647,257.169"/>
	<path style="fill:#FFFFFF;" d="M231.891,261.76c-2.2-2.198-5.088-3.445-8.176-3.568c-2.825,0.123-5.466,1.269-7.477,3.284
		l-0.637,0.638c-2.131,2.134-3.301,4.965-3.299,7.976c0.002,3.012,1.177,5.844,3.309,7.971l35.336,35.287
		c2.129,2.127,4.957,3.299,7.964,3.299c3.013,0,5.848-1.176,7.98-3.311l0.637-0.638c2.068-2.071,3.149-4.752,3.269-7.469
		c-0.12-2.977-1.301-5.92-3.57-8.186L231.891,261.76z"/>
</g>
</svg>
