<?xml version="1.0" encoding="iso-8859-1"?>
<!-- Generator: Adobe Illustrator 25.4.1, SVG Export Plug-In . SVG Version: 6.00 Build 0)  -->
<svg version="1.1" id="Calque_1" xmlns="http://www.w3.org/2000/svg" xmlns:xlink="http://www.w3.org/1999/xlink" x="0px" y="0px"
	 viewBox="0 0 368.5 368.5" style="enable-background:new 0 0 368.5 368.5;" xml:space="preserve">
<g>
	<path style="fill:#FFFFFF;" d="M267.254,171.615c0.328-1.679-0.58-3.356-2.159-4.002l-82.329-33.631h-54.602l-82.328,33.631
		c-1.582,0.646-2.487,2.323-2.158,4.002c0.331,1.677,1.801,2.888,3.51,2.888h216.553
		C265.451,174.503,266.925,173.292,267.254,171.615"/>
	<path style="fill:none;stroke:#FFFFFF;stroke-width:1.789;stroke-miterlimit:10;" d="M267.254,171.615
		c0.328-1.679-0.58-3.356-2.159-4.002l-82.329-33.631h-54.602l-82.328,33.631c-1.582,0.646-2.487,2.323-2.158,4.002
		c0.331,1.677,1.801,2.888,3.51,2.888h216.553C265.451,174.503,266.925,173.292,267.254,171.615z"/>
	<path style="fill:#FFFFFF;" d="M156.283,110.987c-0.261-0.107-0.537-0.162-0.818-0.162c-0.276,0-0.554,0.055-0.814,0.162
		l-32.98,13.469c-0.954,0.391-1.505,1.402-1.304,2.416c0.2,1.015,1.085,1.743,2.121,1.743h65.954c1.035,0,1.923-0.728,2.122-1.743
		c0.198-1.014-0.346-2.025-1.303-2.416L156.283,110.987z"/>
	<path style="fill:none;stroke:#FFFFFF;stroke-width:1.789;stroke-miterlimit:10;" d="M156.283,110.987
		c-0.261-0.107-0.537-0.162-0.818-0.162c-0.276,0-0.554,0.055-0.814,0.162l-32.98,13.469c-0.954,0.391-1.505,1.402-1.304,2.416
		c0.2,1.015,1.085,1.743,2.121,1.743h65.954c1.035,0,1.923-0.728,2.122-1.743c0.198-1.014-0.346-2.025-1.303-2.416L156.283,110.987z
		"/>
	<path style="fill:#FFFFFF;" d="M327.076,287.554c0-4.939-4.006-8.944-8.944-8.944h-79.984c-4.939,0-8.945,4.005-8.945,8.944
		c0,4.937,4.006,8.944,8.945,8.944h79.984C323.07,296.498,327.076,292.491,327.076,287.554"/>
	<path style="fill:none;stroke:#FFFFFF;stroke-width:1.789;stroke-miterlimit:10;" d="M327.076,287.554
		c0-4.939-4.006-8.944-8.944-8.944h-79.984c-4.939,0-8.945,4.005-8.945,8.944c0,4.937,4.006,8.944,8.945,8.944h79.984
		C323.07,296.498,327.076,292.491,327.076,287.554z"/>
	<path style="fill:#FFFFFF;" d="M285.866,121.204v144.054c0,3.459,2.803,6.261,6.261,6.261c3.46,0,6.261-2.802,6.261-6.261V121.204
		c0-17.226-13.465-32.805-30.659-35.471l-85.947-13.311c-8.671-1.338-16.86,0.851-23.073,6.177
		c-6.128,5.251-9.504,12.866-9.504,21.44c0,2.646,1.648,4.898,3.968,5.813c0.711,0.28,1.481,0.448,2.293,0.448
		c0.811,0,1.586-0.168,2.297-0.448c2.319-0.919,3.964-3.169,3.964-5.813c0-4.86,1.821-9.095,5.131-11.932
		c3.391-2.91,8.014-4.082,13.005-3.31l85.949,13.311C276.684,99.792,285.866,110.372,285.866,121.204"/>
	<path style="fill:none;stroke:#FFFFFF;stroke-width:1.789;stroke-miterlimit:10;" d="M285.866,121.204v144.054
		c0,3.459,2.803,6.261,6.261,6.261c3.46,0,6.261-2.802,6.261-6.261V121.204c0-17.226-13.465-32.805-30.659-35.471l-85.947-13.311
		c-8.671-1.338-16.86,0.851-23.073,6.177c-6.128,5.251-9.504,12.866-9.504,21.44c0,2.646,1.648,4.898,3.968,5.813
		c0.711,0.28,1.481,0.448,2.293,0.448c0.811,0,1.586-0.168,2.297-0.448c2.319-0.919,3.964-3.169,3.964-5.813
		c0-4.86,1.821-9.095,5.131-11.932c3.391-2.91,8.014-4.082,13.005-3.31l85.949,13.311
		C276.684,99.792,285.866,110.372,285.866,121.204z"/>
</g>
</svg>
