<?xml version="1.0" encoding="iso-8859-1"?>
<!-- Generator: Adobe Illustrator 25.4.1, SVG Export Plug-In . SVG Version: 6.00 Build 0)  -->
<svg version="1.1" id="Calque_1" xmlns="http://www.w3.org/2000/svg" xmlns:xlink="http://www.w3.org/1999/xlink" x="0px" y="0px"
	 viewBox="0 0 368.5 368.5" style="enable-background:new 0 0 368.5 368.5;" xml:space="preserve">
<g>
	<path style="fill:#FFFFFF;" d="M65.371,114.393v45.126c0,3.012,2.442,5.45,5.454,5.45c3.013,0,5.454-2.438,5.454-5.45v-45.126
		c0-10.734,8.733-19.464,19.466-19.464c10.732,0,19.462,8.73,19.462,19.464c0,3.012,2.442,5.454,5.455,5.454
		s5.454-2.442,5.454-5.454c0-16.748-13.624-30.372-30.371-30.372S65.371,97.646,65.371,114.393"/>
	<path style="fill:#FFFFFF;" d="M81.017,277.412l-5.201,5.201c-3.292,3.291-3.292,8.626-0.002,11.919
		c1.643,1.645,3.804,2.468,5.957,2.468c2.158,0,4.317-0.823,5.963-2.468l12.67-12.672C93.574,281.473,87.044,279.926,81.017,277.412
		"/>
	<path style="fill:#FFFFFF;" d="M50.958,187.19h97.602v-16.854H50.958c-4.653,0-8.425,3.775-8.425,8.428
		C42.533,183.421,46.305,187.19,50.958,187.19"/>
	<path style="fill:#FFFFFF;" d="M148.56,194.54H56.015c-2.79,0-5.057,2.267-5.057,5.053v22.986c0,29.135,23.7,52.838,52.842,52.838
		h44.76V194.54z"/>
	<path style="fill:#FFFFFF;" d="M155.105,80.606v205.566c0,5.018,4.08,9.098,9.096,9.098h62.97c5.015,0,9.095-4.08,9.095-9.098
		V80.606c0-5.013-4.08-9.095-9.095-9.095h-62.97C159.185,71.511,155.105,75.593,155.105,80.606 M226.486,286.543h-62.654V80.239
		h62.654V286.543z"/>
	<rect x="170.374" y="86.784" style="fill:#FFFFFF;" width="49.565" height="193.214"/>
	<path style="fill:#FFFFFF;" d="M244.834,80.606v205.566c0,5.018,4.08,9.098,9.099,9.098h62.969c5.017,0,9.096-4.08,9.096-9.098
		V80.606c0-5.013-4.079-9.095-9.096-9.095h-62.969C248.914,71.511,244.834,75.593,244.834,80.606 M316.119,286.543h-62.653V80.239
		h62.653V286.543z"/>
	<rect x="260.013" y="86.784" style="fill:#FFFFFF;" width="49.564" height="193.214"/>
</g>
</svg>
