<?xml version="1.0" encoding="iso-8859-1"?>
<!-- Generator: Adobe Illustrator 25.4.1, SVG Export Plug-In . SVG Version: 6.00 Build 0)  -->
<svg version="1.1" id="Calque_1" xmlns="http://www.w3.org/2000/svg" xmlns:xlink="http://www.w3.org/1999/xlink" x="0px" y="0px"
	 viewBox="0 0 368.5 368.5" style="enable-background:new 0 0 368.5 368.5;" xml:space="preserve">
<g>
	<path style="fill:#FFFFFF;" d="M287.006,316.193H81.494c-5.357,0-9.701,4.345-9.701,9.703c0,5.36,4.344,9.701,9.701,9.701h205.512
		c5.359,0,9.701-4.341,9.701-9.701C296.707,320.538,292.365,316.193,287.006,316.193"/>
	<path style="fill:#FFFFFF;" d="M160.181,48.903l36.006,36.005c-11.379,7.472-18.914,20.339-18.914,34.938v3.142
		c-5.758,1.266-11.039,3.806-15.547,7.298L88.929,57.488v-0.085c0-4.687,3.813-8.5,8.5-8.5h2.166v-7h-2.166
		c-8.546,0-15.5,6.953-15.5,15.5v236.665c0,8.547,6.954,15.501,15.5,15.501h176c8.547,0,15.5-6.954,15.5-15.501V57.403
		c0-8.547-6.953-15.5-15.5-15.5h-4.5v7h4.5c4.686,0,8.5,3.813,8.5,8.5V78.07h-62.878c-7.702,0-14.918,2.104-21.12,5.754
		l-34.922-34.921h81.586v-7H123.929v7H160.181z M193.822,122.926v-3.08c0-10.068,5.93-18.777,14.48-22.821l72.419,72.419
		c0.195,0.195,0.451,0.292,0.707,0.292c0.175,0,0.345-0.063,0.501-0.156v80.908l-70.57-70.569c-0.539-1.373-1.625-2.514-3.074-3.075
		l-11.065-11.065h23.032c2.515,0,4.564-2.049,4.564-4.572C224.816,142.418,211.506,126.691,193.822,122.926 M172.008,302.568
		l-83.079-83.079v-29.172l112.25,112.251H172.008z M88.929,294.068v-71.751l80.25,80.251h-71.75
		C92.742,302.568,88.929,298.755,88.929,294.068 M273.429,302.568h-69.421L88.929,187.488v-69.171l72.459,72.459
		c0.196,0.195,0.452,0.293,0.707,0.293c0.256,0,0.512-0.098,0.707-0.293c0.391-0.391,0.391-1.024,0-1.415l-73.873-73.873V60.317
		l71.241,71.24c-8.348,7.178-13.649,17.801-13.649,29.65c0,2.523,2.047,4.572,4.567,4.572h43.304l10.832,10.833
		c-1.886,0.421-3.537,1.83-4.093,3.746c-0.411,1.39-0.256,2.855,0.445,4.13c0.695,1.27,1.85,2.194,3.244,2.598
		c0.492,0.146,0.998,0.211,1.506,0.211h0.002c2.394,0,4.531-1.603,5.199-3.91c0.035-0.128,0.063-0.255,0.09-0.383l70.312,70.312
		v40.752C281.929,298.755,278.115,302.568,273.429,302.568 M281.929,155.156l-60.541-60.541h60.541V155.156z M218.572,94.628
		l63.357,63.357v9.838l-71.636-71.637C212.879,95.225,215.668,94.682,218.572,94.628"/>
	<path style="fill:#FFFFFF;" d="M106.596,57.402c0,2.849,2.318,5.166,5.166,5.166c2.85,0,5.168-2.317,5.168-5.166V38.07
		c0-2.85-2.318-5.168-5.168-5.168c-2.848,0-5.166,2.318-5.166,5.168V57.402z"/>
	<path style="fill:#FFFFFF;" d="M251.596,57.402c0,2.849,2.318,5.166,5.166,5.166c2.85,0,5.168-2.317,5.168-5.166V38.07
		c0-2.85-2.318-5.168-5.168-5.168c-2.848,0-5.166,2.318-5.166,5.168V57.402z"/>
	<path style="fill:#FFFFFF;" d="M204.82,232.008c0.492,0.144,0.998,0.211,1.506,0.211c2.394,0,4.533-1.604,5.201-3.905
		c0.822-2.855-0.824-5.863-3.689-6.707c-2.803-0.818-5.903,0.899-6.707,3.672c-0.413,1.391-0.256,2.856,0.445,4.131
		C202.273,230.68,203.425,231.607,204.82,232.008"/>
	<path style="fill:#FFFFFF;" d="M204.82,209.545c0.492,0.145,0.998,0.215,1.506,0.215c2.396,0,4.537-1.606,5.201-3.903
		c0.824-2.855-0.818-5.861-3.689-6.709c-2.795-0.814-5.901,0.897-6.707,3.67c-0.411,1.385-0.256,2.848,0.441,4.122
		C202.267,208.217,203.42,209.137,204.82,209.545"/>
	<path style="fill:#FFFFFF;" d="M207.838,244.067c-0.494-0.146-1.002-0.218-1.516-0.218c-2.392,0-4.529,1.608-5.191,3.887
		c-0.41,1.383-0.256,2.846,0.437,4.115c0.696,1.277,1.848,2.205,3.247,2.611c0.492,0.146,1.003,0.217,1.515,0.217
		c2.393,0,4.529-1.607,5.197-3.905C212.354,247.908,210.701,244.901,207.838,244.067"/>
	<path style="fill:#FFFFFF;" d="M184.164,187.084c0.494,0.141,1,0.213,1.506,0.213h0.002c2.396,0,4.531-1.604,5.199-3.91
		c0.826-2.861-0.83-5.864-3.682-6.697c-2.808-0.829-5.912,0.896-6.709,3.665c-0.414,1.389-0.257,2.854,0.436,4.128
		C181.615,185.758,182.766,186.68,184.164,187.084"/>
	<path style="fill:#FFFFFF;" d="M163.51,209.574c0.492,0.141,0.998,0.213,1.504,0.213c2.404,0,4.541-1.609,5.199-3.899
		c0.834-2.853-0.81-5.861-3.683-6.716c-0.493-0.143-1.002-0.217-1.51-0.217c-2.397,0-4.535,1.61-5.194,3.879
		c-0.416,1.386-0.263,2.851,0.43,4.123C160.947,208.236,162.1,209.162,163.51,209.574"/>
	<path style="fill:#FFFFFF;" d="M187.184,199.147c-2.801-0.816-5.904,0.903-6.701,3.668c-0.416,1.384-0.264,2.847,0.43,4.123
		c0.699,1.272,1.849,2.198,3.251,2.606c0.495,0.146,1,0.215,1.506,0.215h0.002c2.397,0,4.532-1.605,5.198-3.903
		C191.697,203.001,190.05,199.994,187.184,199.147"/>
	<path style="fill:#FFFFFF;" d="M166.529,244.096c-2.803-0.814-5.912,0.908-6.703,3.66c-0.416,1.387-0.266,2.851,0.428,4.119
		c0.693,1.278,1.845,2.207,3.248,2.617c0.492,0.145,1.056,0.26,1.517,0.217c2.399,0,4.533-1.611,5.196-3.902
		C171.047,247.943,169.396,244.932,166.529,244.096"/>
	<path style="fill:#FFFFFF;" d="M163.506,232.033c0.492,0.143,1.002,0.215,1.514,0.215c2.398,0,4.535-1.61,5.195-3.908
		c0.83-2.861-0.822-5.871-3.68-6.703c-2.802-0.82-5.914,0.902-6.709,3.656c-0.418,1.397-0.261,2.865,0.438,4.138
		C160.961,230.709,162.117,231.633,163.506,232.033"/>
	<path style="fill:#FFFFFF;" d="M187.184,244.067c-2.801-0.819-5.91,0.905-6.701,3.664c-0.414,1.382-0.264,2.847,0.428,4.118
		c0.697,1.276,1.847,2.207,3.244,2.613c0.496,0.144,1.008,0.217,1.519,0.217c2.395,0,4.53-1.607,5.198-3.905
		C191.699,247.908,190.046,244.901,187.184,244.067"/>
	<path style="fill:#FFFFFF;" d="M184.164,232.008c0.494,0.144,0.998,0.211,1.504,0.211h0.002c2.396,0,4.533-1.604,5.201-3.905
		c0.824-2.857-0.824-5.863-3.687-6.707c-2.809-0.82-5.907,0.905-6.704,3.666c-0.416,1.389-0.257,2.858,0.436,4.133
		C181.615,230.678,182.769,231.607,184.164,232.008"/>
	<path style="fill:#FFFFFF;" d="M166.529,176.713c-0.494-0.145-1.002-0.219-1.516-0.219c-2.394,0-4.531,1.611-5.187,3.877
		c-0.418,1.391-0.262,2.861,0.433,4.133c0.696,1.279,1.854,2.207,3.256,2.611c0.487,0.141,0.993,0.209,1.498,0.209
		c2.399,0,4.537-1.605,5.204-3.902C171.045,180.561,169.392,177.555,166.529,176.713"/>
</g>
</svg>
