<?xml version="1.0" encoding="iso-8859-1"?>
<!-- Generator: Adobe Illustrator 25.4.1, SVG Export Plug-In . SVG Version: 6.00 Build 0)  -->
<svg version="1.1" id="Calque_1" xmlns="http://www.w3.org/2000/svg" xmlns:xlink="http://www.w3.org/1999/xlink" x="0px" y="0px"
	 viewBox="0 0 368.5 368.5" style="enable-background:new 0 0 368.5 368.5;" xml:space="preserve">
<g>
	<path style="fill:#FFFFFF;" d="M187.938,130.537l2.314,89.227c2.474-1.637,5.468-2.604,8.697-2.604
		c0.044,0,2.662,0.002,4.957,0.018v-4.273c0-0.071,0.016-0.139,0.02-0.207l-11.448-87.571c-2.49,0.064-4.668,1.945-4.666,4.297
		c0,0.226,0.044,0.446,0.082,0.661C187.92,130.233,187.936,130.385,187.938,130.537"/>
	<path style="fill:#FFFFFF;" d="M72.013,209.448c3.315-5.84,19.119-33.87,27.011-50.931c5.078-10.973-1.611-21.143-7.396-27.263
		l-46.956,78.194H72.013z"/>
	<path style="fill:#FFFFFF;" d="M102.742,160.238c-7.259,15.698-21.118,40.521-26.022,49.21h21.409
		c1.545-5.192,6.424-18.883,17.793-31.166c13.603-14.707,31.827-41.064,32.009-41.328c0.642-0.931,1.917-1.169,2.85-0.524
		c0.933,0.642,1.167,1.919,0.525,2.85c-0.185,0.268-18.575,26.867-32.373,41.784c-9.92,10.722-14.692,22.842-16.495,28.384h54.644
		l10.392-89.417h-3.501c0.176,6.393-0.444,19.719-7.145,33.478c-8.723,17.908-13.2,41.29-13.244,41.524
		c-0.187,0.985-1.045,1.669-2.012,1.669c-0.126,0-0.254-0.012-0.382-0.036c-1.113-0.21-1.844-1.281-1.633-2.394
		c0.184-0.978,4.625-24.16,13.584-42.557c6.307-12.948,6.863-25.763,6.713-31.684h-5.358c-4.844,9.055-21.038,37.137-36.056,38.009
		c-0.222,0.014-0.44,0.02-0.648,0.02c-3.259,0-4.774-1.525-5.477-2.85c-3.526-6.655,8.019-24.715,15.44-35.179H98.367l-4.572,7.614
		C100.468,134.464,109.023,146.664,102.742,160.238"/>
	<path style="fill:#FFFFFF;" d="M118.202,153.949c11.039-0.645,24.885-21.685,31.642-33.918h-17.037
		c-10.116,13.923-18.866,29.491-16.871,33.259C116.207,153.797,116.971,154.009,118.202,153.949"/>
	<path style="fill:#FFFFFF;" d="M239.794,160.941c-3.04-0.222-4.123,0.905-4.67,1.757c-4.477,7,6.247,32.311,14.117,46.75h45.599
		C285.653,197.603,256.761,162.086,239.794,160.941"/>
	<path style="fill:#FFFFFF;" d="M264.295,120.031h-33.304c1.279,3.767,5.15,10.876,16.933,20.352
		c19.093,15.362,45.509,41.928,45.774,42.196c0.796,0.803,0.792,2.1-0.012,2.899c-0.399,0.396-0.921,0.594-1.443,0.594
		c-0.527,0-1.055-0.202-1.456-0.607c-0.262-0.264-26.518-26.67-45.433-41.888c-13.644-10.972-17.581-19.203-18.686-23.546h-15.752
		c-0.599,3.247-0.947,10.77,4.497,22.539c8.127,17.568,9.091,41.338,9.127,42.341c0.042,1.131-0.84,2.082-1.971,2.124
		c-0.026,0.002-0.052,0.002-0.078,0.002c-1.097,0-2.006-0.869-2.046-1.974c-0.01-0.238-0.977-23.962-8.751-40.771
		c-5.5-11.887-5.574-19.988-4.935-24.261h-8.745l11.689,89.417h34.891c-4.65-8.843-19.461-38.734-12.924-48.958
		c1.175-1.839,3.567-3.955,8.4-3.641c20.41,1.38,53.602,44.181,59.943,52.599h23.73L264.295,120.031z"/>
	<path style="fill:#FFFFFF;" d="M156.982,240.056h-10.016c-4.551,0-8.24-3.717-8.24-8.308c0-4.594,3.689-8.313,8.24-8.313h10.012
		v-7.456H42.52v32.508h114.462V240.056z"/>
	<path style="fill:#FFFFFF;" d="M198.948,240.28c0.638,0,6.531-0.022,7.103-0.044c0.873-0.056,1.676,0.27,2.28,0.851
		c0.605,0.58,0.969,1.381,0.969,2.217v5.182h116.684v-32.507h-115.93v4.31c0,0.866-0.366,1.693-1.008,2.275
		c-0.639,0.583-1.497,0.875-2.362,0.785c-0.522-0.02-6.923-0.04-7.736-0.04c-5.052,0-9.161,3.807-9.161,8.486
		C189.787,236.473,193.896,240.28,198.948,240.28"/>
</g>
</svg>
