<?xml version="1.0" encoding="iso-8859-1"?>
<!-- Generator: Adobe Illustrator 25.4.1, SVG Export Plug-In . SVG Version: 6.00 Build 0)  -->
<svg version="1.1" id="Calque_1" xmlns="http://www.w3.org/2000/svg" xmlns:xlink="http://www.w3.org/1999/xlink" x="0px" y="0px"
	 viewBox="0 0 368.5 368.5" style="enable-background:new 0 0 368.5 368.5;" xml:space="preserve">
<g>
	<path style="fill:#FFFFFF;" d="M116.166,81.116c1.576,0.141,3.245,0.319,4.994,0.536c-0.051-0.188-0.097-0.371-0.149-0.56
		c-3.33-12.088-6.963-17.915-13.172-26.99c1.121,3.721,2.878,9.067,5.57,16.704C114.597,74.177,115.489,77.682,116.166,81.116"/>
	<path style="fill:#FFFFFF;" d="M81.682,81.722c-2.653-3.561-5.757-6.605-9.816-9.592c2.254,3.281,4.73,6.924,6.269,10.063
		C79.352,82.011,80.531,81.857,81.682,81.722"/>
	<path style="fill:#FFFFFF;" d="M87.936,81.159c2.881-0.183,5.598-0.257,8.236-0.287c-0.26-0.578-0.539-1.159-0.834-1.744
		c-5.319-6.39-12.643-13.487-21.719-20.962c-0.135-0.11-0.266-0.219-0.397-0.325c1.192,1.374,2.62,2.953,4.32,4.753
		C82.771,68.124,85.967,74.828,87.936,81.159"/>
	<path style="fill:#FFFFFF;" d="M87.59,60.444c3.632,3.819,7.66,8.509,10.631,13.522c1.38,2.328,2.485,4.633,3.374,6.875
		c2.018-0.005,4.08-0.018,6.17-0.069c-0.855-1.682-1.796-3.321-2.841-4.854C99.856,68.487,94.402,64.235,87.59,60.444"/>
	<path style="fill:#FFFFFF;" d="M214.266,251.045c0.226-5.056,1.547-10.773,3.196-15.899c-1.026,1.434-2.087,2.975-3.143,4.589
		c-1.724,2.634-3.114,5.974-4.222,9.372C211.519,249.734,212.91,250.382,214.266,251.045"/>
	<path style="fill:#FFFFFF;" d="M167.338,235.702c3.584,0.805,7.166,1.68,10.718,2.613c1.629-7.025,4.521-13.983,10.168-21.989
		c0.755-1.069,1.361-1.967,1.847-2.718c-0.366,0.198-0.766,0.417-1.203,0.661C182.597,217.78,173.878,225.167,167.338,235.702"/>
	<path style="fill:#FFFFFF;" d="M188.897,228.962c-2.116,3.256-4.088,6.957-5.863,10.709c2.083,0.588,4.154,1.187,6.192,1.814
		c1.105,0.34,2.224,0.694,3.35,1.057c1.029-2.646,2.342-5.322,4.042-7.934c0.609-0.936,1.183-1.808,1.729-2.629
		c2.852-8.492,5.574-14.181,13.737-29.518C205.21,208.863,194.019,221.084,188.897,228.962"/>
	<path style="fill:#FFFFFF;" d="M200.809,237.334c-1.452,2.232-2.594,4.521-3.494,6.795c2.457,0.852,4.921,1.758,7.346,2.714
		c-0.144-5.532,0.192-11.172,1.496-15.832c0.256-0.915,0.47-1.722,0.648-2.432C205.409,230.457,203.476,233.233,200.809,237.334"/>
	<path style="fill:#FFFFFF;" d="M112.122,229.802c0.16-0.013,0.317-0.02,0.478-0.033c2.16-0.186,4.562-0.279,7.143-0.279
		c0.524,0,1.078,0.017,1.616,0.024c-5.215-18.516-10.983-26.917-21.314-41.947l-1.506-2.192c-0.031-0.046-0.062-0.091-0.092-0.135
		c1.245,5.053,4.093,14.32,9.949,30.937C109.966,220.629,111.179,225.249,112.122,229.802"/>
	<path style="fill:#FFFFFF;" d="M60.559,222.656c0.436,0.64,0.876,1.279,1.294,1.888c2.861,4.16,6.104,8.875,8.024,12.853
		c0.051,0.105,0.096,0.216,0.146,0.321c1.559-0.836,3.056-1.575,4.507-2.239C70.871,230.708,66.483,226.702,60.559,222.656"/>
	<path style="fill:#FFFFFF;" d="M80.668,233.022c3.243-1.103,6.214-1.799,8.99-2.235c-7.952-9.091-17.668-17.642-24.545-23.306
		c-1.719-1.415-3.156-2.536-4.352-3.424c1.845,2.344,4.543,5.486,8.384,9.551C74.631,219.41,78.263,226.298,80.668,233.022"/>
	<path style="fill:#FFFFFF;" d="M78.944,208.572c4.906,4.968,10.928,11.569,15.157,18.705c0.573,0.968,1.094,1.931,1.592,2.89
		c2.367-0.124,4.617-0.126,6.812-0.126h1.223c-0.209-0.324-0.413-0.652-0.628-0.968C96.177,218.924,88.681,213.639,78.944,208.572"
		/>
	<path style="fill:#FFFFFF;" d="M296.439,138.997c-0.263-8.521,2.531-19.211,5.641-27.694c-2.126,2.801-4.49,6.111-6.854,9.725
		c-2.857,4.365-5.012,10.201-6.594,15.789C291.38,137.425,293.98,138.159,296.439,138.997"/>
	<path style="fill:#FFFFFF;" d="M239.982,135.384c0.292-0.947,0.605-1.884,0.944-2.804c-0.279-1.975-0.523-3.988-0.706-6.028
		c-1.573-17.574,1.173-27.404,4.781-39.354c-2.992,3.957-7.167,11.044-9.951,19.954c-2.455,7.86-3.167,18.454-3.198,27.826
		C234.614,135.136,237.332,135.276,239.982,135.384"/>
	<path style="fill:#FFFFFF;" d="M247.937,129.179c-1.085,1.927-1.993,4.104-2.754,6.371c1.88,0.045,3.731,0.076,5.523,0.076h0.001
		c1.874,0,3.612-0.029,5.257-0.084c0.807-1.98,1.685-4.014,2.623-6.041c1.482-6.549,4.134-13.018,9.397-20.48
		c0.464-0.657,0.866-1.242,1.214-1.763c-0.113,0.063-0.227,0.126-0.345,0.193C262.714,110.886,253.994,118.4,247.937,129.179"/>
	<path style="fill:#FFFFFF;" d="M270.161,134.869c0.374,0,0.736,0.016,1.107,0.021c1.017-3.031,2.426-6.135,4.387-9.15
		c0.552-0.848,1.073-1.641,1.569-2.388c2.539-7.553,4.973-12.701,11.986-25.906c-6.277,5.972-15.714,16.378-20.256,23.365
		c-2.83,4.355-5.362,9.514-7.454,14.421C264.43,134.993,267.343,134.869,270.161,134.869"/>
	<path style="fill:#FFFFFF;" d="M279.846,128.467c-1.415,2.176-2.501,4.411-3.344,6.624c2.222,0.153,4.373,0.384,6.452,0.687
		c-0.051-4.663,0.297-9.342,1.395-13.268c0.112-0.401,0.216-0.779,0.311-1.136C283.458,123.037,281.89,125.324,279.846,128.467"/>
	<path style="fill:#FFFFFF;" d="M193.691,293.805c-22.327,4.541-44.051,6.844-64.568,6.844c-37.454,0-67.577-7.771-80.653-20.06
		v6.347c0,0.041-0.001,0.082-0.002,0.123c-0.144,4.098,3.047,7.686,5.749,9.975c18.334,15.527,71.65,24.175,138.075,10.666
		c31.354-6.379,34.693-13.392,34.927-15.546v-9.898C220.728,286.77,209.666,290.556,193.691,293.805"/>
	<path style="fill:#FFFFFF;" d="M187.168,248.176c-22.726-6.99-49.822-11.686-67.425-11.686c-2.38,0-4.582,0.084-6.543,0.253
		c-3.198,0.275-6.156,0.297-9.157,0.297h-1.538c-11.496,0-23.383,0-47.641,19.369c-5.418,4.326-7.404,8.691-5.903,12.976
		c4.119,11.763,33.614,24.264,80.163,24.264c20.049,0,41.304-2.255,63.173-6.703c33.244-6.761,35.138-14.135,34.927-16.234
		C226.734,265.85,215.95,257.03,187.168,248.176"/>
	<path style="fill:#FFFFFF;" d="M255.962,188.916c-1.856,0.038-3.674,0.057-5.448,0.057c-20.017,0-36.625-2.415-48.028-6.984
		c-4.218-1.69-7.395-3.53-9.788-5.388v4.845c0,2.135,1.494,4.047,2.748,5.275c3.147,3.084,16.806,13.074,60.373,12.187
		c62.416-1.273,64.217-12.387,64.217-13.65v-6.589C309.9,184.872,288.689,188.247,255.962,188.916"/>
	<path style="fill:#FFFFFF;" d="M192.698,164.455c0,3.802,4.632,7.928,12.391,11.036c7.38,2.957,21.252,6.482,45.425,6.482
		c1.727,0,3.497-0.018,5.305-0.055c62.415-1.276,64.217-12.389,64.217-13.652c0-2.748-3.11-9.37-11.455-15.444
		c-6.865-4.997-19.104-10.953-38.42-10.953c-2.684,0-5.464,0.118-8.263,0.352c-3.284,0.272-6.945,0.405-11.192,0.405
		c-9.233,0-19.601-0.642-30.3-1.356c-0.306-0.02-0.613-0.03-0.921-0.03C207.158,141.24,192.698,156.585,192.698,164.455"/>
	<path style="fill:#FFFFFF;" d="M159.564,115.33c-19.152,4.731-34.645,7.031-47.362,7.031c-11.245,0-19.01-1.722-26.52-3.387
		c-2.376-0.526-4.621-1.024-6.981-1.471c-6.785-1.285-14.069-4.7-19.237-9.105v4.74c0.047,4.552,9.727,12.196,20.54,14.245
		c2.466,0.466,4.869,1,7.193,1.514c14.534,3.223,29.561,6.554,70.688-3.605c10.616-2.623,12.511-4.912,12.764-5.3
		c-0.001-0.016-0.001-0.031-0.001-0.047v-8.303C167.368,113.227,163.357,114.393,159.564,115.33"/>
	<path style="fill:#FFFFFF;" d="M59.466,96.409c0.152,4.58,9.853,12.192,20.538,14.217c2.466,0.467,4.869,1,7.193,1.514
		c7.142,1.584,14.527,3.221,25.005,3.221c12.144,0,27.087-2.232,45.683-6.826c10.05-2.483,12.285-4.668,12.709-5.223
		c-0.784-1.43-6.44-5.551-25.166-10.093c-12.854-3.118-28.399-5.468-36.159-5.468c-0.29,0-0.572,0.003-0.836,0.011
		c-2.641,0.071-5.212,0.077-7.698,0.083c-10.077,0.025-19.594,0.048-34.938,4.027C63.397,92.494,59.383,93.911,59.466,96.409"/>
</g>
</svg>
