<?xml version="1.0" encoding="iso-8859-1"?>
<!-- Generator: Adobe Illustrator 25.4.1, SVG Export Plug-In . SVG Version: 6.00 Build 0)  -->
<svg version="1.1" id="Calque_1" xmlns="http://www.w3.org/2000/svg" xmlns:xlink="http://www.w3.org/1999/xlink" x="0px" y="0px"
	 viewBox="0 0 368.5 368.5" style="enable-background:new 0 0 368.5 368.5;" xml:space="preserve">
<g>
	<path style="fill:#FFFFFF;" d="M269.235,96.095c3.845,0,8.228-1.969,9.768-4.39c0.717-1.125,0.755-2.227,0.125-3.577
		l-17.313-34.379c-3.834-7.433-8.643-11.22-14.277-11.22H121.173c-4.19,0-9.166,1.339-14.3,11.257L89.53,88.227
		c-0.892,1.619-0.575,2.547-0.155,3.258c1.449,2.457,6.17,4.61,10.103,4.61H269.235z M185.181,85.547
		c-25.777,0-46.673-7.276-46.673-16.258c0-8.979,20.896-16.257,46.673-16.257c25.771,0,46.669,7.278,46.669,16.257
		C231.85,78.271,210.952,85.547,185.181,85.547 M265.657,85.978c0,1.721-3.995,3.109-8.922,3.109c-4.931,0-8.926-1.388-8.926-3.109
		c0-1.715,3.995-3.107,8.926-3.107C261.662,82.871,265.657,84.263,265.657,85.978 M243.029,46.176c4.932,0,8.923,1.393,8.923,3.107
		c0,1.716-3.991,3.107-8.923,3.107c-4.928,0-8.921-1.391-8.921-3.107C234.108,47.569,238.101,46.176,243.029,46.176 M125.896,46.176
		c4.93,0,8.923,1.393,8.923,3.107c0,1.716-3.993,3.107-8.923,3.107c-4.932,0-8.923-1.391-8.923-3.107
		C116.973,47.569,120.964,46.176,125.896,46.176 M112.189,82.871c4.932,0,8.925,1.392,8.925,3.107c0,1.721-3.993,3.109-8.925,3.109
		c-4.926,0-8.921-1.388-8.921-3.109C103.268,84.263,107.263,82.871,112.189,82.871"/>
	<path style="fill:#FFFFFF;" d="M228.227,304.679v-7.424v-10.867c0-0.895-0.135-1.754-0.346-2.592V103.541h-85.63v180.155
		c-0.228,0.87-0.38,1.759-0.38,2.692v10.843v7.448c0,11.554,19.776,21.315,43.184,21.315
		C208.457,325.994,228.227,316.233,228.227,304.679 M185.055,318.549c-20.732,0-35.739-8.284-35.739-13.87v-3.478v-8.245
		c7.245,3.708,19.703,7.102,35.755,7.102c16.022,0,28.462-3.382,35.711-7.085v8.243v3.463
		C220.782,310.265,205.78,318.549,185.055,318.549"/>
</g>
</svg>
