<?xml version="1.0" encoding="iso-8859-1"?>
<!-- Generator: Adobe Illustrator 25.4.1, SVG Export Plug-In . SVG Version: 6.00 Build 0)  -->
<svg version="1.1" id="Calque_1" xmlns="http://www.w3.org/2000/svg" xmlns:xlink="http://www.w3.org/1999/xlink" x="0px" y="0px"
	 viewBox="0 0 368.5 368.5" style="enable-background:new 0 0 368.5 368.5;" xml:space="preserve">
<polygon style="fill:#FFFFFF;" points="183.094,135.535 152.44,113.32 88.325,113.362 118.971,135.576 "/>
<g>
	<path style="fill:#FFFFFF;" d="M121.569,182.803c1.232,3.569,2.266,6.959,3.165,10.167h1.837v-15.3c0-1.116,0.362-2.214,1.03-3.152
		c-0.581-1.381-0.655-2.938-0.19-4.365c0.839-2.582,3.228-4.317,5.944-4.317h50.867v-23.414h-63.22v38.808
		C121.19,181.756,121.383,182.26,121.569,182.803"/>
	<path style="fill:#FFFFFF;" d="M203.525,168.155l27.202,19.715v-17.671c0-0.342,0.037-0.687,0.111-1.043l-27.313-19.8V168.155z"/>
	<path style="fill:#FFFFFF;" d="M299.293,164.251l-30.652-22.213l-6.2,0.04c-0.521,0.133-1.032,0.2-1.518,0.2h-56.122l30.377,22.016
		L299.293,164.251z"/>
	<polygon style="fill:#FFFFFF;" points="260.235,135.801 229.589,113.588 165.468,113.629 196.118,135.842 	"/>
	<path style="fill:#FFFFFF;" d="M133.049,229.624l27.2,19.682v-48.879c0-0.339,0.038-0.685,0.113-1.043l-27.313-19.8V229.624z"/>
	<polygon style="fill:#FFFFFF;" points="228.807,194.482 198.165,172.269 134.049,172.311 164.695,194.525 	"/>
	<path style="fill:#FFFFFF;" d="M242.579,196.672c4.947-11.982,15.326-24.189,20.568-24.189c1.265,0,2.382,0.578,3.065,1.586
		c1.293,1.908,0.512,4.526-0.315,6.594l-0.194,0.486c-4.253,10.634-7.351,18.44-5.959,32.562
		c7.722-9.616,18.188-16.398,25.716-19.585c4.241-1.795,6.267-2.432,7.748-2.432c1.545,0,2.799,0.761,3.355,2.035
		c0.175,0.404,0.244,0.816,0.26,1.237c1.368-1.169,2.764-2.334,4.16-3.468v-20.306h-63.341v50.771h0.797
		C238.563,213.307,239.575,203.956,242.579,196.672"/>
	<path style="fill:#FFFFFF;" d="M96.876,178.091c-0.641-1.835-1.352-3.658-2.142-5.449c-3.442-7.796-6.045-13.945-8.001-18.84
		v15.204C90.269,171.556,93.617,174.513,96.876,178.091"/>
	<path style="fill:#FFFFFF;" d="M92.964,138.031l1.799,2.09c8.104,9.414,14.131,16.434,19.173,25.382v-22.957
		c0-0.34,0.037-0.687,0.113-1.043l-27.315-19.8v10.748C88.158,133.058,89.986,134.567,92.964,138.031"/>
	<rect x="165.735" y="200.514" style="fill:#FFFFFF;" width="65.572" height="54.71"/>
	<path style="fill:#FFFFFF;" d="M116.207,184.653c-6.289-18.231-13.201-26.259-25.744-40.831l-1.802-2.094
		c-0.194-0.225-0.38-0.44-0.558-0.641c1.489,4.764,4.866,13.514,11.82,29.265c3.1,7.022,5.063,14.474,6.3,21.366
		c3.591,7.024,5.72,13.852,6.773,17.809h9.779C121.628,203.254,119.632,194.581,116.207,184.653"/>
	<path style="fill:#FFFFFF;" d="M61.464,209.527h5.109c-0.24-3.759-0.991-9.474-3.08-15.704
		c-5.009-6.395-10.981-11.271-19.908-16.185c0.167,0.194,0.332,0.386,0.493,0.573c3.439,3.992,7.338,8.518,9.66,12.36
		C57.394,196.618,59.896,203.886,61.464,209.527"/>
	<path style="fill:#FFFFFF;" d="M72.255,209.527h14.639c0.033-5.336-1.119-13.511-6.681-22.304
		c-7.725-7.406-18.368-15.638-31.569-24.318c-1.614-1.061-3.023-1.951-4.25-2.698c2.079,2.006,4.823,4.491,8.392,7.508
		C68.695,181.156,71.733,200.671,72.255,209.527"/>
	<path style="fill:#FFFFFF;" d="M82.729,180.842c8.265,11.142,9.873,21.888,9.842,28.685h2.487h12.058
		c-1.78-6.252-5.75-17.519-12.989-25.995c-7.98-9.345-16.625-14.382-27.706-19.083C71.906,168.993,78.175,174.708,82.729,180.842"/>
	<path style="fill:#FFFFFF;" d="M310.594,227.069c0.246,3.431,0.77,6.749,1.304,9.471h9.433c-0.129-2.512-0.306-5.571-0.543-8.773
		c-0.559-7.611,2.602-17.259,6.262-25.075c-2.524,2.516-5.342,5.504-8.178,8.783C315.168,215.757,312.479,221.655,310.594,227.069"
		/>
	<path style="fill:#FFFFFF;" d="M255.046,221.029c-0.305-1.677-0.573-3.381-0.777-5.107c-1.845-15.601,1.229-24.462,5.388-34.928
		c-3.609,3.593-8.677,10.192-11.834,17.842c-4.587,11.12-3.926,28.563-3.164,37.704h5.797
		C251.242,231.776,252.618,226.138,255.046,221.029"/>
	<path style="fill:#FFFFFF;" d="M276.059,218.008c1.782-5.92,4.952-11.766,11.19-18.478c-7.242,3.156-17.293,9.792-24.284,19.207
		c-3.859,5.194-5.799,12.508-6.754,17.802h2.949H267C268.366,232.514,271.663,225.204,276.059,218.008"/>
	<path style="fill:#FFFFFF;" d="M288.124,236.54c0.059-5.73,1.52-14.262,8.256-22.101c0.629-0.733,1.22-1.41,1.789-2.06
		c2.873-6.454,5.65-10.981,13.099-21.641c-7.427,5.397-18.232,14.445-23.469,20.544c-7.046,8.206-12.534,19.65-14.772,25.258h0.399
		H288.124z"/>
	<path style="fill:#FFFFFF;" d="M306.118,236.54c-1.455-7.844-2.258-17.536,0.406-24.747c0.033-0.09,0.067-0.179,0.098-0.266
		c-1.448,1.505-3.375,3.625-5.94,6.609c-5.442,6.334-6.86,13.138-6.9,18.404h0.092H306.118z"/>
</g>
</svg>
