<?xml version="1.0" encoding="iso-8859-1"?>
<!-- Generator: Adobe Illustrator 25.4.1, SVG Export Plug-In . SVG Version: 6.00 Build 0)  -->
<svg version="1.1" id="Calque_1" xmlns="http://www.w3.org/2000/svg" xmlns:xlink="http://www.w3.org/1999/xlink" x="0px" y="0px"
	 viewBox="0 0 368.5 368.5" style="enable-background:new 0 0 368.5 368.5;" xml:space="preserve">
<g>
	<path style="fill:#FFFFFF;" d="M92.475,189.214H73.286c-7.639,0-13.623,5.985-13.623,13.627v109.528
		c0,6.298,5.95,13.621,13.623,13.621h19.189h74.382c7.21,0,13.624-7.617,13.624-13.621V202.841c0-7.26-6.366-13.627-13.624-13.627
		H92.475z M163.541,195.434c6.242,0.008,9.406,3.573,9.406,10.598V309.18c0,7.027-3.165,10.59-9.406,10.59H89.159H76.6
		c-6.238,0-9.401-3.563-9.401-10.59V206.032c0-7.025,3.162-10.59,9.397-10.598H76.6h12.559H163.541z"/>
	<path style="fill:#FFFFFF;" d="M155.656,223.818l-68.071,68.071c-0.286,0.286-0.754,0.286-1.04,0l-2.058-2.058
		c-0.285-0.286-0.285-0.753,0-1.039l68.072-68.071c0.285-0.286,0.753-0.286,1.039,0l2.058,2.058
		C155.942,223.064,155.942,223.533,155.656,223.818"/>
	<path style="fill:#FFFFFF;" d="M151.116,248.371l-46.987,46.987c-0.286,0.286-0.754,0.286-1.04,0l-2.058-2.057
		c-0.286-0.286-0.286-0.754,0-1.04l46.988-46.987c0.285-0.286,0.753-0.286,1.039,0l2.058,2.058
		C151.402,247.617,151.402,248.085,151.116,248.371"/>
	<path style="fill:#FFFFFF;" d="M138.726,222.944l-46.987,46.987c-0.286,0.286-0.754,0.286-1.04,0l-2.058-2.057
		c-0.286-0.286-0.286-0.754,0-1.04l46.988-46.987c0.285-0.286,0.753-0.286,1.039,0l2.058,2.058
		C139.012,222.19,139.012,222.658,138.726,222.944"/>
	<path style="fill:#FFFFFF;" d="M273.333,251.072c0.381,0.377,0.879,0.566,1.376,0.566c0.505,0,1.01-0.193,1.392-0.581
		l21.465-21.708v-5.566l-24.248,24.521C272.557,249.072,272.565,250.311,273.333,251.072"/>
	<path style="fill:#FFFFFF;" d="M250.449,256.598c0.381,0.379,0.879,0.566,1.376,0.566c0.505,0,1.01-0.193,1.392-0.581
		l44.349-44.851v-5.566l-47.132,47.664C249.673,254.599,249.681,255.837,250.449,256.598"/>
	<path style="fill:#FFFFFF;" d="M258.169,233.228c0.381,0.379,0.879,0.566,1.376,0.566c0.505,0,1.01-0.193,1.392-0.581
		l31.546-31.906h-5.505l-28.824,29.153C257.393,231.229,257.401,232.469,258.169,233.228"/>
	<path style="fill:#FFFFFF;" d="M222.966,189.214h-19.189c-7.639,0-13.623,5.985-13.623,13.627v109.528
		c0,6.298,5.95,13.621,13.623,13.621h19.189h74.382c7.21,0,13.624-7.617,13.624-13.621V202.841c0-7.26-6.366-13.627-13.624-13.627
		H222.966z M294.032,195.434c6.242,0.008,9.406,3.573,9.406,10.598V309.18c0,7.027-3.165,10.59-9.406,10.59H219.65h-12.559
		c-6.238,0-9.401-3.563-9.401-10.59V206.032c0-7.025,3.162-10.59,9.397-10.598h0.004h12.559H294.032z"/>
	<path style="fill:#FFFFFF;" d="M142.842,104.384c0.381,0.377,0.879,0.566,1.376,0.566c0.505,0,1.01-0.193,1.392-0.581
		l21.465-21.708v-5.566l-24.248,24.521C142.066,102.385,142.074,103.623,142.842,104.384"/>
	<path style="fill:#FFFFFF;" d="M119.958,109.91c0.381,0.379,0.879,0.566,1.376,0.566c0.505,0,1.01-0.193,1.392-0.581l44.349-44.851
		v-5.566l-47.132,47.664C119.182,107.911,119.19,109.149,119.958,109.91"/>
	<path style="fill:#FFFFFF;" d="M127.678,86.54c0.381,0.379,0.879,0.566,1.376,0.566c0.505,0,1.01-0.193,1.392-0.581l31.546-31.906
		h-5.505l-28.824,29.153C126.902,84.541,126.91,85.781,127.678,86.54"/>
	<path style="fill:#FFFFFF;" d="M92.475,42.526H73.286c-7.639,0-13.623,5.985-13.623,13.627v109.528
		c0,6.298,5.95,13.621,13.623,13.621h19.189h74.382c7.21,0,13.624-7.617,13.624-13.621V56.153c0-7.26-6.366-13.627-13.624-13.627
		H92.475z M163.541,48.746c6.242,0.008,9.406,3.573,9.406,10.598v103.148c0,7.027-3.165,10.59-9.406,10.59H89.159H76.6
		c-6.238,0-9.401-3.563-9.401-10.59V59.344c0-7.025,3.162-10.59,9.397-10.598H76.6h12.559H163.541z"/>
</g>
</svg>
