<?xml version="1.0" encoding="iso-8859-1"?>
<!-- Generator: Adobe Illustrator 25.4.1, SVG Export Plug-In . SVG Version: 6.00 Build 0)  -->
<svg version="1.1" id="Calque_1" xmlns="http://www.w3.org/2000/svg" xmlns:xlink="http://www.w3.org/1999/xlink" x="0px" y="0px"
	 viewBox="0 0 368.5 368.5" style="enable-background:new 0 0 368.5 368.5;" xml:space="preserve">
<g>
	<path style="fill:#FFFFFF;" d="M207.948,167.428v44.299c0,3.054-2.474,5.527-5.526,5.527c-3.053,0-5.527-2.473-5.527-5.527v-42.555
		c-2.345,0.313-4.725,0.596-7.132,0.852v22.821c0,3.052-2.474,5.526-5.527,5.526s-5.527-2.474-5.527-5.526v-21.862
		c-7.397,0.503-14.923,0.754-22.36,0.754c-30.261,0-62.024-4.108-80.291-12.84c-4.304-1.765-8.106-3.715-11.304-5.839
		c-0.142,39.117-0.53,146.407-0.53,147.708c0,10.283,35.853,25.216,92.034,25.216c56.182,0,92.035-14.933,92.035-25.216
		c0-1.138-0.474-108.933-0.644-147.905c-2.25,1.518-4.811,2.946-7.641,4.286C232.105,161.628,220.869,165.038,207.948,167.428"/>
	<path style="fill:#FFFFFF;" d="M218.097,118.081c-1.082,1.006-2.272,1.909-3.586,2.663l-5.867,3.362
		c15.252,3.006,24.826,7.344,24.826,12.172c0,9.073-33.89,16.438-75.711,16.438c-41.801,0-75.701-7.365-75.701-16.438
		c0-7.753,24.713-14.241,57.947-15.975c0.612-0.717,1.204-1.451,1.752-2.219c1.783-2.503,3.756-4.796,5.853-6.867
		c-52.884,1.367-85.009,15.385-85.009,25.584c0,10.738,35.554,25.716,93.453,25.716c57.907,0,93.463-14.978,93.463-25.716
		C249.517,130.762,238.259,123.382,218.097,118.081"/>
	<path style="fill:#FFFFFF;" d="M147.158,121.933c-4.6,6.448-11.126,11.248-16.01,14.237c2.874,0.988,6.243,2.056,9.255,2.776
		l1.455,0.351c5.197,1.255,12.316,2.976,19.377,2.976c5.095,0,9.392-0.928,12.774-2.759c5.145-2.783,9.358-6.887,12.323-10.341
		l-13.252-23.104c-0.582,0.022-1.176,0.041-1.737,0.072C163.027,106.61,153.762,112.662,147.158,121.933"/>
	<path style="fill:#FFFFFF;" d="M304.86,46.448c-1.389-2.423-3.997-3.93-6.81-3.93c-1.361,0-2.709,0.359-3.896,1.041l-80.338,46.073
		l7.809,13.618l80.337-46.085C305.714,55.016,307.012,50.209,304.86,46.448"/>
	<path style="fill:#FFFFFF;" d="M179.199,103.409l12.922,22.526l19.089-10.945c2.648-1.519,4.571-3.904,5.629-6.753l-9.906-17.276
		c-2.943-0.503-6.032,0.007-8.646,1.504L179.199,103.409z M211.649,106.09c0.92,1.585,0.38,3.613-1.202,4.532l-14.99,8.696
		c-0.524,0.302-1.096,0.449-1.661,0.449c-1.144,0-2.255-0.593-2.871-1.654c-0.92-1.585-0.381-3.614,1.203-4.533l14.989-8.693
		C208.703,103.961,210.729,104.507,211.649,106.09"/>
</g>
</svg>
