<?xml version="1.0" encoding="iso-8859-1"?>
<!-- Generator: Adobe Illustrator 25.4.1, SVG Export Plug-In . SVG Version: 6.00 Build 0)  -->
<svg version="1.1" id="Calque_1" xmlns="http://www.w3.org/2000/svg" xmlns:xlink="http://www.w3.org/1999/xlink" x="0px" y="0px"
	 viewBox="0 0 368.5 368.5" style="enable-background:new 0 0 368.5 368.5;" xml:space="preserve">
<polygon style="fill:#FFFFFF;" points="241.634,89.687 241.634,42.53 218.032,42.53 218.032,73.363 "/>
<g>
	<path style="fill:#FFFFFF;" d="M162.14,64.754l-92.119,62.91v125.668c0,6.237,6.572,11.312,14.65,11.312h56.252v-46.412
		c0-1.158,0.939-2.097,2.097-2.097h47.795c1.158,0,2.097,0.939,2.097,2.097v46.412h46.658c0.271,0,0.535-0.021,0.804-0.032
		l-0.016-2.162l0.02-1.647c0.063-8.984,2.228-11.978,13.843-17.05v-33.94h-38.543c-7.507,0-13.615-6.396-13.615-14.258V166.83
		c0-7.863,6.108-14.259,13.615-14.259h38.543v-24.935L162.14,64.754z M138.922,181.625c0,1.158-0.939,2.097-2.097,2.097h-36.794
		c-1.158,0-2.097-0.939-2.097-2.097v-40.089c0-1.158,0.939-2.097,2.097-2.097h36.794c1.158,0,2.097,0.939,2.097,2.097V181.625z"/>
	<path style="fill:#FFFFFF;" d="M51.62,125.547c2.668,2.167,7.692,2.17,10.369-0.002c0.066-0.054,0.136-0.106,0.206-0.153
		l98.171-67.045c0.535-0.365,1.154-0.549,1.774-0.549c0.619,0,1.239,0.184,1.773,0.549l98.174,67.045
		c0.072,0.047,0.142,0.099,0.209,0.154c2.673,2.169,7.695,2.171,10.372-0.001c1.162-0.945,1.804-2.146,1.804-3.38
		c0-1.202-0.612-2.373-1.723-3.309l-105.216-72.77c-0.067-0.046-0.132-0.095-0.195-0.144c-1.355-1.103-3.19-1.709-5.169-1.709
		c-2.035,0-3.874,0.607-5.237,1.711c-0.061,0.049-0.125,0.097-0.189,0.141L51.535,118.856c-1.112,0.936-1.722,2.107-1.723,3.309
		C49.812,123.399,50.454,124.6,51.62,125.547"/>
	<path style="fill:#FFFFFF;" d="M307.483,186.004c1.535,0.472,2.783,1.186,3.756,2.156c2.139,2.136,3.179,5.689,3.179,10.861
		c-0.008,8.82,0.139,17.29,0.14,17.319c0,7.734-3.48,9.366-35.168,21.867l-9.627,3.79c-23.71,9.303-25.129,9.86-25.193,18.836
		c-0.003,0.465-0.006,0.963-0.018,1.587l0.086,12.355c0.675-0.1,1.36-0.171,2.062-0.171h0.718c1.215,0,2.389,0.173,3.513,0.468
		l-0.089-12.606c0.012-0.568,0.016-1.095,0.019-1.588c0.024-3.231,0.025-3.494,1.572-4.556c2.603-1.787,8.65-4.162,19.628-8.469
		l9.638-3.793c32.407-12.785,39.15-15.446,39.15-27.775c-0.001-0.084-0.148-8.499-0.14-17.26c0-6.932-1.644-11.942-5.026-15.318
		c-2.092-2.088-4.849-3.467-8.2-4.16V186.004z"/>
	<path style="fill:#FFFFFF;" d="M295.965,158.862h-80.287c-4.038,0-7.324,3.575-7.324,7.968v28.725c0,4.393,3.286,7.967,7.324,7.967
		h80.287c4.038,0,7.324-3.574,7.324-7.967V166.83C303.289,162.437,300.003,158.862,295.965,158.862 M220.252,167.663
		c0-1.736,1.408-3.146,3.146-3.146h42.609c1.737,0,3.145,1.41,3.145,3.146c0,1.738-1.408,3.146-3.145,3.146h-42.609
		C221.66,170.809,220.252,169.401,220.252,167.663"/>
	<path style="fill:#FFFFFF;" d="M247.418,278.798H246.7c-5.33,0-9.667,4.335-9.667,9.664v27.866c0,5.33,4.337,9.666,9.667,9.666
		h0.718c5.333,0,9.671-4.336,9.671-9.666v-27.866C257.089,283.133,252.751,278.798,247.418,278.798"/>
</g>
</svg>
