<?xml version="1.0" encoding="iso-8859-1"?>
<!-- Generator: Adobe Illustrator 25.4.1, SVG Export Plug-In . SVG Version: 6.00 Build 0)  -->
<svg version="1.1" id="Calque_1" xmlns="http://www.w3.org/2000/svg" xmlns:xlink="http://www.w3.org/1999/xlink" x="0px" y="0px"
	 viewBox="0 0 368.5 368.5" style="enable-background:new 0 0 368.5 368.5;" xml:space="preserve">
<rect x="66.569" y="201.16" style="fill:#FFFFFF;" width="39.378" height="11.078"/>
<rect x="66.569" y="175.002" style="fill:#FFFFFF;" width="39.378" height="11.08"/>
<rect x="66.569" y="188.082" style="fill:#FFFFFF;" width="39.378" height="11.078"/>
<g>
	<path style="fill:#FFFFFF;" d="M190.147,148.846h-24.346v11.08h28.539l-4.765-6.957c-0.49-0.715-0.574-1.633-0.222-2.426
		C189.393,150.451,189.668,149.834,190.147,148.846"/>
	<polygon style="fill:#FFFFFF;" points="185.57,107.611 172.649,96.533 96.574,96.533 83.653,107.611 	"/>
	<rect x="66.569" y="148.846" style="fill:#FFFFFF;" width="39.378" height="11.08"/>
	<rect x="66.569" y="161.926" style="fill:#FFFFFF;" width="39.378" height="11.076"/>
	<rect x="66.569" y="214.238" style="fill:#FFFFFF;" width="39.378" height="11.078"/>
	<rect x="66.569" y="135.768" style="fill:#FFFFFF;" width="39.378" height="11.078"/>
	<path style="fill:#FFFFFF;" d="M73.297,250.035h32.65v-9.641H66.569v2.914C66.569,247.017,69.587,250.035,73.297,250.035"/>
	<path style="fill:#FFFFFF;" d="M165.801,175.002v5.217c2.253-1.947,5.257-3.69,8.838-5.217H165.801z"/>
	<rect x="66.569" y="227.316" style="fill:#FFFFFF;" width="39.378" height="11.078"/>
	<path style="fill:#FFFFFF;" d="M165.801,135.768v11.078h25.344c1.473-2.873,3.776-7.027,6.635-11.078H165.801z"/>
	<path style="fill:#FFFFFF;" d="M195.711,161.926h-29.91v11.076h14.226c5.922-1.926,12.862-3.396,20.265-4.389L195.711,161.926z"/>
	<path style="fill:#FFFFFF;" d="M105.947,133.768v-3.289c0-0.828,0.671-1.5,1.5-1.5h56.854c0.829,0,1.5,0.672,1.5,1.5v3.289h33.455
		c0.938-1.213,1.942-2.361,2.975-3.428v-7.65H66.569v11.078H105.947z"/>
	<polygon style="fill:#FFFFFF;" points="200.826,120.689 187.903,109.612 81.319,109.612 68.396,120.689 	"/>
	<polygon style="fill:#FFFFFF;" points="170.316,94.533 157.392,83.455 111.83,83.455 98.906,94.533 	"/>
	<polygon style="fill:#FFFFFF;" points="155.059,81.455 142.137,70.377 127.084,70.377 114.163,81.455 	"/>
	<polygon style="fill:#FFFFFF;" points="139.804,68.377 134.611,63.924 129.417,68.377 	"/>
	<rect x="117.091" y="187.924" style="fill:#FFFFFF;" width="11.078" height="62.344"/>
	<rect x="130.169" y="187.924" style="fill:#FFFFFF;" width="11.079" height="62.344"/>
	<rect x="143.248" y="187.924" style="fill:#FFFFFF;" width="11.078" height="62.344"/>
	<rect x="108.947" y="187.924" style="fill:#FFFFFF;" width="6.145" height="62.344"/>
	<path style="fill:#FFFFFF;" d="M108.948,131.979v53.945H129c0.057-0.01,0.11-0.035,0.17-0.035c0.06,0,0.112,0.025,0.169,0.035
		h25.817c0.058-0.01,0.11-0.035,0.17-0.035c0.06,0,0.112,0.025,0.169,0.035h6.218c0.258-0.793,0.621-1.562,1.088-2.306v-51.639
		H108.948z M153.71,182.936h-15.813c-0.828,0-1.5-0.672-1.5-1.5v-19.318c0-0.829,0.672-1.5,1.5-1.5h19.244
		c0.829,0,1.5,0.671,1.5,1.5v15.888C158.641,180.725,156.429,182.936,153.71,182.936 M136.397,138.059c0-0.828,0.672-1.5,1.5-1.5
		h15.813c2.719,0,4.931,2.213,4.931,4.932v14.476c0,0.828-0.671,1.5-1.5,1.5h-19.244c-0.828,0-1.5-0.672-1.5-1.5V138.059z
		 M133.245,181.436c0,0.828-0.671,1.5-1.5,1.5h-14.55c-2.719,0-4.931-2.211-4.931-4.93v-15.888c0-0.829,0.672-1.5,1.5-1.5h17.981
		c0.829,0,1.5,0.671,1.5,1.5V181.436z M117.195,136.559h14.55c0.829,0,1.5,0.672,1.5,1.5v17.908c0,0.828-0.671,1.5-1.5,1.5h-17.981
		c-0.828,0-1.5-0.672-1.5-1.5v-14.476C112.264,138.772,114.476,136.559,117.195,136.559"/>
	<path style="fill:#FFFFFF;" d="M161.911,192.125c-0.425-1.08-0.667-2.199-0.667-3.369c0-0.281,0.034-0.557,0.06-0.832h-4.978
		v62.344h5.402C161.805,225.164,161.885,199.328,161.911,192.125"/>
	<path style="fill:#FFFFFF;" d="M132.984,58.733c0.204-0.174,0.432-0.305,0.669-0.402V46.829l-88.13,75.584l5.583,6.513
		L132.984,58.733z"/>
	<path style="fill:#FFFFFF;" d="M135.653,58.369c0.206,0.094,0.405,0.209,0.585,0.363l74.897,64.209
		c1.097-0.742,1.825-1.179,1.922-1.236c0.278-0.164,0.575-0.27,0.877-0.318l4.747-3.278l-83.028-71.193V58.369z"/>
	<path style="fill:#FFFFFF;" d="M228.867,172.143c-0.387,0.424-0.768,0.854-1.132,1.289c-1.348,1.606-2.569,3.332-3.649,5.027
		c0.273-0.002,0.543-0.005,0.818-0.005c24.47,0,44.299,4.457,44.299,9.966c0,5.504-19.829,9.973-44.299,9.973
		c-24.456,0-44.292-4.469-44.292-9.973c0-4.125,11.116-7.658,26.964-9.175l-4.137-6.04c-22.647,2.624-37.196,9.364-37.196,15.551
		c0,0.549,0.126,1.102,0.351,1.657c0.026,0.048,0.059,0.091,0.083,0.142c2.779,5.938,17.999,12.039,40.425,14.131
		c0.083,0.008,0.167,0.014,0.25,0.021c0.742,0.069,1.494,0.133,2.252,0.192c0.225,0.017,0.452,0.033,0.678,0.051
		c0.65,0.047,1.305,0.093,1.966,0.134c0.344,0.022,0.692,0.039,1.038,0.059c0.572,0.033,1.143,0.064,1.722,0.092
		c0.46,0.021,0.926,0.039,1.391,0.056c0.489,0.02,0.976,0.041,1.471,0.057c0.598,0.018,1.203,0.031,1.808,0.043
		c0.383,0.01,0.761,0.022,1.145,0.027c1,0.016,2.008,0.024,3.027,0.024h0.007c1.009,0,2.009-0.008,3.001-0.024
		c0.816-0.013,1.624-0.033,2.428-0.056c0.141-0.004,0.285-0.006,0.426-0.012c28.576-0.894,48.714-8.238,51.44-15.076
		c0.025-0.063,0.06-0.119,0.09-0.18c0.148-0.447,0.233-0.894,0.233-1.338C281.475,181.26,260.114,172.955,228.867,172.143"/>
	<path style="fill:#FFFFFF;" d="M281.001,198.053c-9.473,7.326-29.9,11.529-50.584,12.268c-0.102,0.003-0.204,0.007-0.306,0.011
		c-0.464,0.016-0.926,0.028-1.389,0.041c-0.461,0.012-0.921,0.024-1.382,0.032c-0.331,0.005-0.661,0.013-0.992,0.017
		c-0.833,0.012-1.664,0.02-2.492,0.02h-0.002c-0.95,0-1.892-0.008-2.831-0.022c-0.016,0-0.033,0-0.049-0.002
		c-19.62-0.281-36.644-3.427-47.433-8.394c-2.565-1.164-4.811-2.446-6.65-3.842c-0.084,25.877-0.328,105.574-0.328,106.416
		c0,8.076,23.581,17.074,57.418,17.074c33.838,0,57.419-8.998,57.419-17.074C281.4,303.68,281.097,223.16,281.001,198.053"/>
	<path style="fill:#FFFFFF;" d="M213.354,127.486c-2.665,1.861-7.155,5.342-10.41,9.678c-4.062,5.408-7.193,11.568-8.437,14.156
		l13.292,19.402c0.922-2.002,2.25-4.586,3.997-7.218c3.847-5.793,8.083-8.832,8.262-8.959c1.126-0.797,2.687-0.534,3.485,0.595
		c0.798,1.125,0.533,2.686-0.594,3.485c-0.031,0.023-3.685,2.67-6.987,7.644c-2.674,4.03-4.29,7.992-4.807,9.352l4.832,7.053
		c1.661-3.368,4.368-8.225,7.916-12.456c3.849-4.591,8.855-8.603,11.665-10.699L213.354,127.486z"/>
	<path style="fill:#FFFFFF;" d="M321.323,76.623c-2.159-3.158-5.896-4.281-8.672-4.281c-1.665,0-3.198,0.4-4.207,1.099
		l-51.952,35.899l11.348,16.392l51.848-35.846C322.552,87.912,324.543,81.328,321.323,76.623 M316.97,84.113
		c-0.249,1.367-1.015,2.557-2.159,3.346c-0.875,0.605-1.899,0.925-2.961,0.925c-1.709,0-3.309-0.837-4.28-2.244
		c-0.79-1.144-1.088-2.525-0.84-3.89c0.248-1.371,1.015-2.561,2.161-3.35c0.871-0.603,1.896-0.924,2.959-0.924
		c1.709,0,3.309,0.838,4.279,2.242C316.919,81.359,317.219,82.744,316.97,84.113"/>
	<path style="fill:#FFFFFF;" d="M255.051,137.617c-0.378-0.545-0.523-1.219-0.404-1.871c0.119-0.652,0.492-1.231,1.038-1.609
		l8.042-5.561l-11.348-16.395l-7.779,5.375c-1.137,0.788-2.692,0.5-3.477-0.632c-1.329-1.92-3.094-2.893-5.247-2.893
		c-1.559,0-3.251,0.525-4.525,1.406l-13.706,9.463l21.77,31.393l13.506-9.33C255.003,145.517,257.501,141.156,255.051,137.617"/>
</g>
</svg>
