<?xml version="1.0" encoding="iso-8859-1"?>
<!-- Generator: Adobe Illustrator 25.4.1, SVG Export Plug-In . SVG Version: 6.00 Build 0)  -->
<svg version="1.1" id="Calque_1" xmlns="http://www.w3.org/2000/svg" xmlns:xlink="http://www.w3.org/1999/xlink" x="0px" y="0px"
	 viewBox="0 0 368.5 368.5" style="enable-background:new 0 0 368.5 368.5;" xml:space="preserve">
<g>
	<path style="fill:#FFFFFF;" d="M182.74,121.387c5.225,7.541,9.604,16.518,9.541,23.664c-0.039,4.129-1.223,7.576-4.475,10.777
		c-2.66,2.598-6.931,5.008-13.332,6.795v0.082c0.012,2.614,0.022,5.026,0.032,7.211c8.164-2.023,14.105-5.047,18.214-9.021
		c4.67-4.487,6.655-10.219,6.616-15.844c-0.092-11.195-6.793-22.324-13.182-31.023c-4.994-6.717-9.926-11.871-11.932-13.893
		c0.014,3.35,0.028,6.84,0.041,10.41C176.82,113.465,179.879,117.215,182.74,121.387"/>
	<path style="fill:#FFFFFF;" d="M61.656,107.273c-2.484,0-5.252,4.25-5.252,10.35c0,6.097,2.768,10.347,5.252,10.347
		c1.012,0,2.068-0.715,2.967-1.961c-4.045-4.302-6.27-7.117-6.324-7.181h0.002c-1.209-1.53-0.95-3.748,0.578-4.955
		c1.531-1.207,3.75-0.95,4.957,0.58c0.002,0.002,0.131,0.168,0.431,0.529c0.297,0.363,0.748,0.9,1.344,1.592
		c0.371,0.429,0.803,0.926,1.285,1.467c0.002-0.141,0.012-0.276,0.012-0.418C66.908,111.523,64.14,107.273,61.656,107.273"/>
	<path style="fill:#FFFFFF;" d="M109.566,210.418c31.432,0,57.988-12.961,57.988-28.301c0-0.217-0.017-4.314-0.043-10.818
		c-4.238,0.652-8.422,0.971-12.533,0.971c-27.576-0.032-51.674-13.518-68.894-26.788c-7.676-5.921-13.998-11.826-18.666-16.568
		c-1.571,1.916-3.563,3.057-5.762,3.057c-5.19,0-9.252-6.301-9.252-14.348c0-8.047,4.062-14.35,9.252-14.35
		c5.187,0,9.252,6.303,9.252,14.35c0,1.514-0.145,2.965-0.412,4.324c0.125,0.131,0.244,0.26,0.373,0.393
		c4.584,4.785,11.258,11.18,19.521,17.557c16.545,12.781,39.405,25.341,64.588,25.314c4.1,0,8.276-0.352,12.504-1.063
		c-0.002-0.466-0.004-0.933-0.006-1.414c-0.072-17.441-0.183-44.328-0.264-65c-13.156,6.582-35.546,9.975-57.775,9.975
		c-22.121,0-44.4-3.361-57.582-9.879c-0.06,19.166-0.143,43.533-0.203,61.141c-0.045,13.238-0.076,22.65-0.076,23.146
		C51.576,197.457,78.132,210.418,109.566,210.418"/>
	<path style="fill:#FFFFFF;" d="M46.9,83.879c0,1.309,0.828,2.715,2.424,4.137v-6.039c0-0.866,0.703-1.567,1.57-1.567
		c0.865,0,1.567,0.701,1.567,1.567v8.273c1.91,1.133,4.296,2.246,7.127,3.303v-7.629c0-0.867,0.701-1.567,1.568-1.567
		c0.865,0,1.566,0.7,1.566,1.567v8.709c2.998,0.965,6.385,1.861,10.153,2.654v-7.943c0-0.865,0.701-1.567,1.568-1.567
		c0.867,0,1.566,0.702,1.566,1.567v8.558c3.653,0.676,7.614,1.252,11.864,1.705v-8.025c0-0.867,0.701-1.568,1.568-1.568
		c0.867,0,1.566,0.701,1.566,1.568v8.33c4.922,0.44,10.202,0.711,15.811,0.776v-8.186c0-0.867,0.701-1.566,1.568-1.566
		c0.866,0,1.567,0.699,1.567,1.566v8.203c5.885-0.014,11.426-0.25,16.584-0.672v-8.451c0-0.867,0.699-1.568,1.566-1.568
		c0.867,0,1.568,0.701,1.568,1.568v8.168c4.241-0.42,8.198-0.965,11.864-1.607v-8.799c0-0.865,0.699-1.567,1.566-1.567
		c0.867,0,1.569,0.702,1.569,1.567v8.211c3.736-0.744,7.13-1.588,10.152-2.504v-9.127c0-0.867,0.699-1.567,1.566-1.567
		c0.867,0,1.569,0.7,1.569,1.567v8.105c2.763-0.966,5.152-1.988,7.127-3.035v-9.017c0-0.866,0.701-1.567,1.566-1.567
		c0.867,0,1.57,0.701,1.57,1.567v7.089c2.457-1.773,3.756-3.556,3.756-5.187v-9.977c-0.109,0.077-0.226,0.151-0.336,0.225
		c-0.133,0.092-0.269,0.182-0.406,0.273c-0.389,0.258-0.791,0.512-1.205,0.762c-0.104,0.063-0.203,0.127-0.309,0.188
		c-0.519,0.306-1.056,0.605-1.611,0.898c-0.119,0.065-0.244,0.125-0.365,0.188c-0.455,0.234-0.92,0.464-1.397,0.691
		c-0.164,0.078-0.328,0.156-0.496,0.234c-0.549,0.254-1.109,0.502-1.687,0.746c-0.057,0.024-0.11,0.049-0.166,0.073
		c-0.639,0.267-1.297,0.527-1.967,0.781c-0.168,0.064-0.342,0.127-0.514,0.191c-0.531,0.198-1.072,0.391-1.623,0.58
		c-0.178,0.061-0.355,0.124-0.535,0.184c-0.709,0.238-1.43,0.473-2.168,0.699c-0.051,0.016-0.105,0.032-0.156,0.047
		c-0.688,0.209-1.387,0.412-2.096,0.61c-0.209,0.058-0.42,0.115-0.629,0.173c-0.621,0.168-1.25,0.334-1.887,0.495
		c-0.166,0.042-0.33,0.085-0.498,0.127c-0.793,0.197-1.599,0.388-2.416,0.574c-0.158,0.035-0.318,0.068-0.478,0.103
		c-0.674,0.151-1.356,0.295-2.043,0.436c-0.233,0.049-0.465,0.095-0.697,0.142c-0.741,0.147-1.489,0.289-2.243,0.428
		c-0.111,0.02-0.218,0.041-0.33,0.063c-0.863,0.154-1.736,0.302-2.615,0.445c-0.223,0.037-0.447,0.07-0.672,0.105
		c-0.691,0.11-1.386,0.215-2.088,0.317c-0.24,0.035-0.478,0.07-0.718,0.103c-0.903,0.127-1.811,0.25-2.727,0.364
		c-0.037,0.003-0.076,0.009-0.113,0.013c-0.877,0.108-1.762,0.209-2.651,0.307c-0.261,0.027-0.523,0.057-0.785,0.084
		c-0.726,0.076-1.457,0.148-2.191,0.217c-0.227,0.021-0.453,0.043-0.68,0.064c-0.935,0.084-1.873,0.162-2.818,0.233
		c-0.182,0.013-0.364,0.025-0.547,0.039c-0.777,0.056-1.559,0.109-2.34,0.158c-0.281,0.017-0.56,0.033-0.842,0.051
		c-0.799,0.044-1.599,0.087-2.402,0.125c-0.168,0.007-0.334,0.015-0.502,0.023c-0.955,0.043-1.914,0.078-2.873,0.107
		c-0.248,0.008-0.498,0.012-0.746,0.02c-0.746,0.019-1.494,0.037-2.242,0.049c-0.276,0.006-0.551,0.01-0.827,0.013
		c-0.966,0.014-1.935,0.022-2.902,0.022c-0.969,0-1.935-0.008-2.902-0.022c-0.278-0.003-0.551-0.007-0.828-0.013
		c-0.746-0.012-1.494-0.03-2.241-0.049c-0.248-0.008-0.498-0.012-0.746-0.02c-0.959-0.029-1.918-0.064-2.873-0.107
		c-0.168-0.008-0.336-0.016-0.504-0.023c-0.8-0.038-1.601-0.081-2.4-0.125c-0.281-0.018-0.561-0.034-0.842-0.051
		c-0.781-0.049-1.56-0.102-2.338-0.158c-0.183-0.014-0.367-0.026-0.55-0.039c-0.942-0.071-1.881-0.149-2.815-0.233
		c-0.23-0.021-0.457-0.045-0.685-0.066c-0.733-0.067-1.459-0.139-2.184-0.215c-0.264-0.027-0.529-0.057-0.793-0.084
		c-0.883-0.098-1.764-0.197-2.635-0.305c-0.043-0.006-0.086-0.01-0.127-0.015c-0.914-0.114-1.82-0.237-2.72-0.364
		c-0.245-0.033-0.487-0.068-0.729-0.103c-0.695-0.102-1.389-0.207-2.076-0.315c-0.227-0.037-0.455-0.07-0.68-0.107
		c-0.879-0.143-1.748-0.291-2.609-0.445c-0.115-0.022-0.231-0.043-0.346-0.065c-0.75-0.137-1.49-0.279-2.223-0.426
		c-0.238-0.047-0.474-0.095-0.711-0.142c-0.681-0.141-1.357-0.285-2.025-0.432c-0.164-0.037-0.33-0.072-0.494-0.109
		c-0.815-0.184-1.617-0.373-2.408-0.571c-0.172-0.043-0.342-0.087-0.512-0.13c-0.631-0.161-1.254-0.323-1.869-0.491
		c-0.213-0.058-0.428-0.117-0.641-0.177c-0.701-0.196-1.392-0.395-2.07-0.602c-0.059-0.018-0.121-0.035-0.182-0.055
		c-0.734-0.224-1.451-0.457-2.156-0.695c-0.185-0.062-0.369-0.125-0.553-0.189c-0.543-0.188-1.078-0.379-1.603-0.573
		c-0.176-0.066-0.354-0.131-0.529-0.197c-0.667-0.254-1.323-0.512-1.958-0.777c-0.062-0.028-0.121-0.053-0.181-0.08
		c-0.57-0.241-1.127-0.489-1.67-0.739c-0.17-0.08-0.338-0.158-0.506-0.238c-0.473-0.225-0.932-0.453-1.381-0.685
		c-0.127-0.065-0.256-0.127-0.379-0.194c-0.552-0.291-1.088-0.59-1.605-0.894c-0.11-0.065-0.213-0.131-0.321-0.196
		c-0.41-0.248-0.808-0.498-1.193-0.754c-0.139-0.091-0.275-0.183-0.41-0.277c-0.111-0.074-0.227-0.146-0.334-0.223V83.879z"/>
	<path style="fill:#FFFFFF;" d="M109.437,79.672c38.746,0,62.539-9.803,62.539-16.83c0-7.026-23.793-16.824-62.539-16.824
		S46.9,55.816,46.9,62.842C46.9,69.869,70.691,79.672,109.437,79.672 M109.437,48.621c25.844,0,52.008,4.885,52.008,14.221
		c0,9.34-26.164,14.226-52.008,14.226s-52.004-4.886-52.004-14.226C57.433,53.506,83.593,48.621,109.437,48.621"/>
	<path style="fill:#FFFFFF;" d="M109.437,73.068c29.305,0,48.008-6.057,48.008-10.227c0-4.166-18.703-10.22-48.008-10.22
		s-48.004,6.054-48.004,10.22C61.433,67.011,80.132,73.068,109.437,73.068"/>
	<path style="fill:#FFFFFF;" d="M220.988,307.869c-0.316-0.635-0.617-1.279-0.9-1.934l-39.194-84.404
		c-0.301-0.689-0.578-1.385-0.838-2.084H47.045v101.936h185.048C227.519,317.851,223.691,313.287,220.988,307.869"/>
	<path style="fill:#FFFFFF;" d="M285.81,155.871c-1.48-0.303-2.914-0.734-4.287-1.287c-0.75,2.521-1.483,5.004-1.936,6.574
		c-0.336,1.219-1.097,2.574-2.027,3.582c-1.23,1.317-2.633,2.152-4.428,2.643c-2.574,0.681-5.554,0.492-9.023-0.522
		c-6.178-1.816-14.539-3.929-21.903-5.758c-1.988-0.492-3.906-0.962-5.687-1.4l-4.293-1.059c-3.094-0.765-5.096-1.279-5.947-1.525
		c-1.768-0.516-3.59-0.557-5.239-0.115c-1.97,0.513-3.834,1.769-5.267,3.543c-1.377,1.693-2.469,3.828-3.332,6.504
		c1.375-0.147,2.769-0.227,4.183-0.227c0.217,0,0.43,0.02,0.647,0.024c0.691-1.696,1.414-2.799,1.967-3.467
		c0.898-1.059,1.697-1.639,2.703-1.977c0.096-0.033,0.219-0.07,0.316-0.094c0.881-0.21,1.746-0.179,2.76,0.104
		c1.248,0.355,3.352,0.885,6.131,1.57l4.043,0.998c8.478,2.086,20.09,4.946,27.654,7.172c4.227,1.246,8.129,1.438,11.41,0.563
		c2.569-0.676,4.918-2.086,6.625-3.977c1.42-1.57,2.432-3.369,3.01-5.353C284.275,161.053,284.933,158.818,285.81,155.871"/>
	<path style="fill:#FFFFFF;" d="M284.588,276.207c0-0.002,0-0.002-0.002-0.004c-1.846-3.701-4.334-6.914-7.277-9.565
		c-5.762-5.189-13.301-8.183-21.393-8.183c-16.549,0-30.205,12.621-31.848,28.744c-0.109,1.074-0.166,2.164-0.166,3.267
		c0,0.588,0.018,1.172,0.049,1.754c0.012,0.217,0.033,0.43,0.049,0.645c0.025,0.361,0.055,0.72,0.092,1.078
		c0.029,0.267,0.064,0.531,0.099,0.797c0.041,0.301,0.082,0.601,0.131,0.902c0.047,0.287,0.098,0.572,0.153,0.86
		c0.052,0.273,0.107,0.544,0.168,0.818c0.064,0.295,0.13,0.59,0.203,0.885c0.066,0.261,0.136,0.521,0.209,0.781
		c0.08,0.293,0.16,0.588,0.25,0.879c0.084,0.271,0.177,0.541,0.267,0.812c0.092,0.27,0.18,0.541,0.278,0.811
		c0.15,0.41,0.314,0.816,0.482,1.221c0.051,0.123,0.096,0.246,0.147,0.367l0.667,1.437c0.086,0.143,0.159,0.291,0.223,0.447
		c5.498,10.813,16.408,17.522,28.547,17.522c17.652,0,32.016-14.361,32.016-32.016C287.932,285.457,286.807,280.658,284.588,276.207
		 M255.916,315.652c-13.887,0-25.184-11.297-25.184-25.186c0-13.886,11.297-25.183,25.184-25.183
		c13.887,0,25.186,11.297,25.186,25.183C281.102,304.355,269.803,315.652,255.916,315.652"/>
	<path style="fill:#FFFFFF;" d="M216.625,173.824c-17.654,0-32.016,14.361-32.016,32.014c0,4.457,0.897,8.769,2.668,12.816
		l30.209,65.059c3.209-18.305,19.221-32.26,38.43-32.26c7.065,0,13.789,1.863,19.617,5.246l-29.73-64.051
		C240.607,181.201,229.16,173.824,216.625,173.824"/>
	<path style="fill:#FFFFFF;" d="M255.916,272.283c-10.027,0-18.184,8.158-18.184,18.184c0,10.027,8.157,18.185,18.184,18.185
		c10.027,0,18.186-8.158,18.186-18.185C274.102,280.441,265.943,272.283,255.916,272.283"/>
	<path style="fill:#FFFFFF;" d="M307.427,47.764c-1.139-0.225-2.299-0.34-3.449-0.34c-8.356,0-15.606,5.961-17.238,14.174
		l-13.258,66.752c-0.914,4.611,0.019,9.303,2.633,13.211c2.611,3.906,6.589,6.562,11.201,7.478c1.14,0.227,2.302,0.34,3.453,0.34
		c8.355,0,15.603-5.959,17.236-14.172l13.256-66.754C323.15,58.938,316.945,49.657,307.427,47.764"/>
</g>
</svg>
