<?xml version="1.0" encoding="iso-8859-1"?>
<!-- Generator: Adobe Illustrator 25.4.1, SVG Export Plug-In . SVG Version: 6.00 Build 0)  -->
<svg version="1.1" id="Calque_1" xmlns="http://www.w3.org/2000/svg" xmlns:xlink="http://www.w3.org/1999/xlink" x="0px" y="0px"
	 viewBox="0 0 368.5 368.5" style="enable-background:new 0 0 368.5 368.5;" xml:space="preserve">
<g>
	<path style="fill:#FFFFFF;" d="M237.155,237.543h-3.575V109.379l2.918,3.187c4.516,4.938,8.31,10.2,11.387,15.709V113.1
		c-16.395-21.234-43.146-36.578-74.543-40.445l-0.279-0.059c-0.642-0.193-1.227-0.285-1.789-0.285l-0.597,0.057l-0.146-0.015
		c-1.585-0.159-3.218-0.294-4.873-0.402V80l0.164,1.548v155.995h-0.164v9.066h71.467
		C237.135,243.597,237.145,240.556,237.155,237.543 M194.251,237.543h-17.522V81.258l1.983,0.367
		c4.867,0.898,9.704,2.123,14.379,3.639l1.16,0.376V237.543z M222.681,237.543h-17.527V89.936l2.419,1.192
		c5.06,2.49,9.907,5.384,14.407,8.6l0.701,0.503V237.543z"/>
	<path style="fill:#FFFFFF;" d="M65.812,114.984v14.302c3.404-6.314,7.76-12.308,13.039-17.878l2.897-3.055v129.19H66.672
		c-0.29,0-0.572,0.01-0.86,0.014v9.038c0.288,0.004,0.564,0.014,0.86,0.014h82.295V71.988c-1.434,0.096-2.867,0.214-4.28,0.355
		l-0.113,0.012l-0.115-0.004c-0.121-0.005-0.243-0.018-0.364-0.033c-0.577-0.014-1.1,0.075-1.732,0.25l-0.25,0.049
		C109.633,76.535,82.105,92.699,65.812,114.984 M121.078,85.273l1.177-0.368c4.69-1.465,9.53-2.64,14.384-3.489l1.968-0.346v156.473
		h-17.529V85.273z M92.65,99.452l0.72-0.502c4.419-3.077,9.266-5.887,14.406-8.346l2.403-1.151v148.09H92.65V99.452z"/>
	<path style="fill:#FFFFFF;" d="M60.777,105.681c0-3.997-3.855-7.251-8.596-7.251c-4.74,0-8.596,3.254-8.596,7.251v159.567h17.192
		V105.681z"/>
	<path style="fill:#FFFFFF;" d="M252.92,184.018c5.004-1.762,10.904-3.047,17.195-3.84v-74.497c0-3.997-3.857-7.25-8.599-7.25
		c-4.741,0-8.596,3.253-8.596,7.25V184.018z"/>
	<path style="fill:#FFFFFF;" d="M285.818,218.073c-15.039,0-30.846-2.567-39.265-8.028c-0.316-0.172-0.616-0.351-0.918-0.529
		c-0.07,22.301-0.234,74.427-0.234,75.091c0,4.061,14.251,11.966,40.374,11.966c26.129,0,40.381-7.905,40.381-11.966
		c0-0.616-0.2-52.754-0.285-75.074C317.675,215.352,301.326,218.073,285.818,218.073"/>
	<path style="fill:#FFFFFF;" d="M282.538,185.996c-23.417,0.584-38.211,7.551-38.211,12.425c0,5.088,16.112,12.479,41.358,12.479
		c25.25,0,41.365-7.391,41.365-12.479c0-3.285-6.741-7.518-18.287-10.115c-0.475,1.022-1.043,1.994-1.692,2.907
		c8.472,1.575,13.983,4.086,13.983,6.928c0,4.77-15.484,8.643-34.589,8.643c-0.64,0-1.267-0.015-1.899-0.024
		c-0.033,0.014-0.066,0.028-0.076,0.032c-0.319,0.137-0.657,0.204-0.99,0.204c-0.379,0-0.742-0.111-1.085-0.277
		c-17.185-0.501-30.538-4.149-30.538-8.578c0-4.473,13.612-8.151,31.045-8.594c-0.01-0.057-0.014-0.116-0.023-0.173
		C282.708,188.241,282.602,187.115,282.538,185.996"/>
	<path style="fill:#FFFFFF;" d="M305.596,176.102l-14.031-3.802c-0.141,0.156-0.282,0.301-0.423,0.458
		c-3.08,3.441-4.334,9.487-3.277,15.784c0.675,4.034,0.205,8.153-0.451,11.311c1.253-0.634,2.567-1.343,3.715-2.048l0.723-0.442
		c4.186-2.556,11.193-6.832,12.931-12.673C305.67,181.715,305.755,178.594,305.596,176.102"/>
	<path style="fill:#FFFFFF;" d="M296.679,155.968l-3.16,11.646l13.265,3.594l3.159-11.645c0.397-1.468,0.272-2.982-0.297-4.371
		l-10.515-2.851C297.941,153.245,297.077,154.491,296.679,155.968"/>
	<path style="fill:#FFFFFF;" d="M309.563,149.952l13.793-50.908c0.566-2.08-0.672-4.234-2.756-4.802
		c-2.045-0.555-4.241,0.721-4.797,2.756l-13.793,50.906L309.563,149.952z"/>
</g>
</svg>
