<?xml version="1.0" encoding="iso-8859-1"?>
<!-- Generator: Adobe Illustrator 25.4.1, SVG Export Plug-In . SVG Version: 6.00 Build 0)  -->
<svg version="1.1" id="Calque_1" xmlns="http://www.w3.org/2000/svg" xmlns:xlink="http://www.w3.org/1999/xlink" x="0px" y="0px"
	 viewBox="0 0 368.5 368.5" style="enable-background:new 0 0 368.5 368.5;" xml:space="preserve">
<g>
	<path style="fill:#FFFFFF;" d="M63.869,211.727h16.126c0.917-8.139,1.844-18.385,2.224-28.99
		c-3.008-15.639-7.384-32.945-13.479-45.5c-5.989-12.332-12.252-23.75-17.319-32.231c7.786,24.791,14.291,57.352,13.36,79.981
		C64.435,193.415,64.13,202.391,63.869,211.727"/>
	<path style="fill:#FFFFFF;" d="M157.865,54.079c6.814,30.352,12.197,54.324,9.282,98.221c-0.349,5.252-0.816,10.437-1.359,15.511
		c3.994,14.311,6.179,30.516,7.367,43.916h4.949c-0.371-2.169-0.567-4.371-0.567-6.603c0-8.193,2.545-15.799,6.878-22.08
		c0.297-25.354-0.683-56.594-5.889-79.047c-6.06-26.141-16.07-47.15-21.757-55.342c0.174,1.104,0.428,2.447,0.793,4.076
		L157.865,54.079z"/>
	<path style="fill:#FFFFFF;" d="M133.826,160.974c6.99,20.34,12.062,40.945,13.962,50.754h18.338
		c-1.389-15.195-4.494-38.15-11.249-54.326c-11.216-26.901-27.339-45.631-38.689-54.194c-2.01-1.513-3.547-2.605-4.724-3.39
		c0.922,2.34,2.587,6.004,5.575,11.709C126.473,129.552,131.197,145.16,133.826,160.974"/>
	<path style="fill:#FFFFFF;" d="M100.031,146.294c0.946,1.916,1.941,3.953,3.004,6.156c9.959,20.625,12.173,42.752,12.006,59.278
		h25.648c-2.809-13.821-11.828-49.498-24.135-75.01c-9.216-19.108-31.318-51.531-42.373-64.231c0.074,0.192,0.151,0.387,0.23,0.588
		C90.231,112.976,94.987,125.993,100.031,146.294"/>
	<path style="fill:#FFFFFF;" d="M87.038,211.727h20.997c0.118-14.006-1.589-36.111-11.304-56.234
		c-5.678-11.766-9.406-18.762-11.844-22.92c0.392,2.642,1.026,6.222,2.033,11.07C91.136,163.96,89.11,193.027,87.038,211.727"/>
	<path style="fill:#FFFFFF;" d="M220.898,307.106l-0.001-0.002c-0.005-0.012-0.01-0.021-0.015-0.031
		c-0.313-0.631-0.611-1.27-0.892-1.918l-39.167-84.346c-0.301-0.689-0.577-1.383-0.837-2.082H47.043V320.61h184.951
		C227.423,317.079,223.599,312.518,220.898,307.106"/>
	<path style="fill:#FFFFFF;" d="M285.685,155.185c-1.489-0.307-2.917-0.742-4.279-1.293c-0.876,2.945-1.539,5.197-1.937,6.572
		c-0.333,1.221-1.096,2.578-2.029,3.584c-1.232,1.319-2.635,2.153-4.426,2.643c-2.557,0.678-5.545,0.492-9.015-0.522
		c-6.136-1.802-14.511-3.922-21.894-5.755c-2.135-0.53-4.189-1.034-6.08-1.499l-3.894-0.959c-3.09-0.765-5.089-1.279-5.942-1.523
		c-1.77-0.518-3.59-0.559-5.24-0.117c-1.965,0.514-3.827,1.769-5.263,3.543c-1.373,1.687-2.464,3.82-3.329,6.496
		c1.374-0.147,2.768-0.227,4.18-0.227c0.216,0,0.428,0.02,0.645,0.024c0.693-1.699,1.415-2.803,1.968-3.469
		c0.893-1.053,1.692-1.635,2.699-1.973c0.094-0.031,0.214-0.068,0.31-0.091c0.871-0.213,1.738-0.184,2.755,0.097
		c1.343,0.383,3.743,0.983,6.139,1.573l3.963,0.978c8.498,2.092,20.136,4.957,27.718,7.188c4.226,1.246,8.126,1.437,11.405,0.564
		c2.565-0.676,4.912-2.086,6.621-3.977c1.419-1.568,2.431-3.367,3.008-5.349C284.211,160.152,284.938,157.693,285.685,155.185"/>
	<path style="fill:#FFFFFF;" d="M284.463,275.454c-4.094-8.207-11.294-14.082-19.791-16.506c-2.833-0.808-5.81-1.234-8.864-1.234
		c-17.643,0-31.996,14.354-31.996,31.998c0,0.586,0.019,1.17,0.049,1.752c0.011,0.215,0.033,0.428,0.049,0.643
		c0.026,0.361,0.053,0.722,0.092,1.08c0.028,0.265,0.064,0.527,0.099,0.789c0.04,0.303,0.082,0.605,0.131,0.908
		c0.046,0.285,0.097,0.57,0.151,0.854c0.053,0.275,0.109,0.548,0.168,0.822c0.065,0.295,0.131,0.588,0.203,0.879
		c0.065,0.263,0.137,0.523,0.209,0.785c0.08,0.293,0.16,0.586,0.249,0.875c0.083,0.269,0.175,0.537,0.266,0.805
		c0.092,0.273,0.18,0.548,0.279,0.82c0.146,0.396,0.305,0.789,0.467,1.18c0.054,0.13,0.102,0.263,0.157,0.394l0.674,1.449
		c0.085,0.143,0.158,0.293,0.222,0.448c5.495,10.808,16.401,17.515,28.531,17.515c17.643,0,31.996-14.355,31.996-31.998
		C287.804,284.699,286.68,279.902,284.463,275.454 M255.808,314.886c-13.881,0-25.174-11.293-25.174-25.174
		s11.293-25.174,25.174-25.174c13.881,0,25.174,11.293,25.174,25.174S269.689,314.886,255.808,314.886"/>
	<path style="fill:#FFFFFF;" d="M216.536,173.128c-17.644,0-31.998,14.354-31.998,31.996c0,4.451,0.896,8.762,2.666,12.811
		l30.193,65.017c3.21-18.291,19.213-32.238,38.41-32.238c7.06,0,13.779,1.863,19.603,5.242l-29.711-64.016
		C240.505,180.501,229.063,173.128,216.536,173.128"/>
	<path style="fill:#FFFFFF;" d="M255.808,271.538c-10.021,0-18.174,8.152-18.174,18.174c0,10.021,8.153,18.174,18.174,18.174
		c10.021,0,18.174-8.153,18.174-18.174C273.982,279.69,265.829,271.538,255.808,271.538"/>
	<path style="fill:#FFFFFF;" d="M307.293,47.13c-1.138-0.225-2.297-0.34-3.446-0.34c-8.351,0-15.597,5.957-17.23,14.166
		l-13.25,66.719c-1.888,9.512,4.314,18.787,13.826,20.676c1.139,0.226,2.299,0.341,3.45,0.341c8.349,0,15.595-5.957,17.228-14.166
		l13.248-66.72C323.007,58.296,316.805,49.021,307.293,47.13"/>
</g>
</svg>
