<?xml version="1.0" encoding="iso-8859-1"?>
<!-- Generator: Adobe Illustrator 25.4.1, SVG Export Plug-In . SVG Version: 6.00 Build 0)  -->
<svg version="1.1" id="Calque_1" xmlns="http://www.w3.org/2000/svg" xmlns:xlink="http://www.w3.org/1999/xlink" x="0px" y="0px"
	 viewBox="0 0 368.5 368.5" style="enable-background:new 0 0 368.5 368.5;" xml:space="preserve">
<g>
	<path style="fill:#FFFFFF;" d="M272.787,271.433c-0.029,0.033-0.088,0.09-0.119,0.123c-1.463,1.463-3.408,2.268-5.479,2.268
		c-0.009,0-0.019-0.002-0.029-0.002c-0.437,1.205-0.68,2.488-0.678,3.808c0.002,2.967,1.159,5.754,3.258,7.85l34.918,34.869
		c2.096,2.094,4.881,3.246,7.842,3.246c2.969,0,5.76-1.156,7.857-3.26l0.629-0.629c4.326-4.334,4.323-11.375-0.008-15.699
		l-34.918-34.87c-2.097-2.094-4.884-3.248-7.847-3.248c-1.135,0-2.24,0.171-3.293,0.498
		C274.848,268.276,274.105,270.054,272.787,271.433"/>
	<path style="fill:#FFFFFF;" d="M174.736,242.77c1.078-1.081,2.57-1.652,4.312-1.652c3.309,0,7.329,2.039,10.75,5.455
		c2.321,2.318,4.061,4.993,4.905,7.532c1.035,3.12,0.65,5.793-1.082,7.527c-1.076,1.079-2.567,1.651-4.311,1.651
		c-0.26,0-0.531-0.035-0.801-0.06c2.18,1.188,4.034,1.8,5.27,1.8c0.291,0,0.443-0.038,0.5-0.056l72.371-72.471
		c0.039-0.043,0.078-0.085,0.119-0.126c0.477-1.291-1.312-7.309-8.545-14.531c-5.629-5.625-11.336-8.567-14.064-8.567
		c-0.272,0-0.422,0.033-0.487,0.052c-0.027,0.027-0.054,0.053-0.082,0.079l-72.416,72.516c-0.002,0.001-0.002,0.003-0.004,0.005
		c-0.003,0.005-0.009,0.01-0.013,0.016c-0.289,0.647,0.17,2.932,1.992,6.141C172.894,245.918,173.431,244.076,174.736,242.77
		 M199.357,240.785l50.379-50.379c1.756-1.757,4.607-1.757,6.363,0c1.758,1.757,1.758,4.607,0,6.364l-50.379,50.379
		c-0.877,0.879-2.029,1.318-3.181,1.318c-1.151,0-2.303-0.439-3.182-1.318C197.599,245.392,197.599,242.542,199.357,240.785"/>
	<path style="fill:#FFFFFF;" d="M186.045,251.446c1.629,1.867,2.203,4.301,1.764,6.569c0.57,0.176,1.08,0.267,1.502,0.267
		c0.369,0,0.658-0.068,0.771-0.183c0.199-0.198,0.336-1.028-0.125-2.421c-0.594-1.787-1.939-3.816-3.691-5.568
		c-2.764-2.758-5.616-3.993-7.217-3.993c-0.369,0-0.658,0.069-0.774,0.184c-0.197,0.197-0.335,1.027,0.127,2.419
		c0.032,0.09,0.071,0.184,0.104,0.275c0.557-0.126,1.127-0.198,1.705-0.198C182.447,248.797,184.572,249.762,186.045,251.446"/>
	<path style="fill:#FFFFFF;" d="M179.307,262.341c0.555-1.225,1.488-2.498,2.783-3.799c1.082-1.048,1.151-2.705,0.19-3.806
		c-0.957-1.093-2.772-1.221-3.871-0.261l-0.129,0.119c0.037-0.036,0.125-0.132,0.224-0.272c-0.082,0.114-0.172,0.221-0.269,0.319
		c-1.785,1.788-3.065,3.555-3.908,5.401c-1.28,2.709-1.477,5.96-0.54,8.722c0.883,2.686,2.555,5.194,5.27,7.915
		c0.018,0.017,0.035,0.035,0.053,0.055l0.123,0.121c2.787,2.783,5.875,5.918,9.178,9.316l0.253,0.26
		c0.022,0.021,0.043,0.043,0.063,0.066c1.898,1.906,3.693,3.063,5.65,3.643c1.617,0.482,3.471,0.588,5.491,0.318
		c2.804-0.381,5.986-1.351,10.974-3.351c4.541-1.836,10.131-4.366,17.68-7.848c15.992-7.402,23.941-10.932,28.764-12.274
		c2.25-0.647,4.056-0.861,5.224-0.599c1.053,0.265,1.625,0.613,2.746,1.64c1.117,1.066,2.84,1.012,3.862,0.009
		c0.023-0.025,0.044-0.049,0.058-0.061c0.504-0.527,0.776-1.222,0.758-1.955c-0.016-0.732-0.316-1.414-0.846-1.919
		c-1.211-1.184-3.142-2.664-5.601-3.114c-1.678-0.318-3.399-0.252-5.571,0.194c-3.349,0.7-7.138,2.152-11.795,4.119
		c-5.054,2.139-11.437,5.069-19.902,8.976c-14.773,6.851-21.451,9.589-25.514,10.461c-2.056,0.459-3.525,0.511-4.761,0.142
		c-1.088-0.326-2.018-0.955-3.324-2.248c-0.223-0.23-4.653-4.807-9.514-9.662l-0.108-0.107c-0.021-0.022-0.043-0.043-0.062-0.065
		c-3.397-3.377-4.184-5.87-4.246-7.369C178.629,264.38,178.813,263.445,179.307,262.341"/>
	<path style="fill:#FFFFFF;" d="M138.426,220.49c9.607,9.605,13.875-1.982,16.974-4.364c2.528-1.942,11.289,3.501,13.418,0.573
		c2.594-3.569-3.433-12.14-1.779-14.637c2.209-3.333,8.523-2.653,9.213-6.304c0.318-1.685,3.129-2.134,4.584-4.074
		c1.455-1.941,0.994-5.382,2.691-5.14c3.395,0.485,6.615-0.657,5.647-3.567c-0.971-2.909-2.739-7.587,2.597-6.617
		s9.787,0.854,11.155-2.424c1.088-2.61,5.287-2.952,7.261-4.693l-5.781-5.781c-1.049-1.051-1.049-2.754,0-3.804
		c1.051-1.051,2.754-1.051,3.805,0l4.894,4.894c1.36-1.294,2.924-2.318,3.047-3.892c0.026-0.33,0-0.677-0.049-1.028
		c-0.019,0-0.039,0.005-0.058,0.005c-0.69,0-1.377-0.262-1.903-0.786l-9.222-9.223c-1.053-1.051-1.053-2.754,0-3.805
		c1.049-1.051,2.754-1.051,3.804,0l6.372,6.37c2.419-0.989,5.46-2.583,3.347-6.386c-1.797-3.233-66.976-67.722-100.611-100.902
		h-0.803l1.514,1.514c1.049,1.05,1.049,2.753,0,3.803c-0.526,0.526-1.215,0.789-1.903,0.789c-0.689,0-1.378-0.263-1.904-0.789
		l-5.316-5.317H97.558l6.381,6.381c1.051,1.05,1.051,2.754,0,3.805c-0.525,0.524-1.215,0.787-1.902,0.787
		c-0.689,0-1.377-0.263-1.902-0.787L89.949,44.905H78.088l1,1c1.051,1.051,1.051,2.754,0,3.805
		c-0.526,0.525-1.215,0.788-1.903,0.788c-0.689,0-1.377-0.263-1.902-0.788l-4.805-4.805h-8.275l1,1.001
		c1.051,1.05,1.051,2.753,0,3.805c-0.525,0.525-1.213,0.788-1.902,0.788c-0.688,0-1.377-0.263-1.903-0.788l-4.804-4.806H44.271
		v4.613L69.351,74.6c1.053,1.051,1.053,2.753,0,3.805c-0.523,0.525-1.212,0.787-1.902,0.787c-0.687,0-1.377-0.262-1.902-0.787
		L44.271,57.128v8.274l8.43,8.429c1.049,1.051,1.049,2.755,0,3.806c-0.525,0.525-1.215,0.788-1.902,0.788
		c-0.69,0-1.377-0.263-1.905-0.788l-4.623-4.624v1.102L57.566,87.41c1.053,1.05,1.053,2.754,0,3.804
		c-0.525,0.526-1.213,0.788-1.902,0.788c-0.688,0-1.377-0.262-1.902-0.788l-9.491-9.491v11.349L85.75,134.55
		c1.051,1.05,1.051,2.753,0,3.804c-0.526,0.525-1.215,0.788-1.902,0.788c-0.688,0-1.377-0.263-1.903-0.788l-37.674-37.673v10.326
		l22.52,22.517c1.051,1.051,1.051,2.755,0,3.806c-0.526,0.525-1.215,0.788-1.904,0.788c-0.688,0-1.375-0.263-1.901-0.788
		l-18.715-18.714v7.719C74.015,156.08,125.828,207.892,138.426,220.49 M189.764,161.707c1.05,1.05,1.05,2.754,0,3.805
		c-0.526,0.525-1.213,0.787-1.901,0.787c-0.689,0-1.379-0.262-1.904-0.787l-3.072-3.076c-1.051-1.049-1.051-2.753,0-3.804
		c1.05-1.05,2.752-1.05,3.804,0L189.764,161.707z M185.154,140.187c1.049,1.049,1.049,2.753,0,3.804
		c-0.525,0.525-1.215,0.788-1.902,0.788c-0.69,0-1.377-0.263-1.903-0.788l-4.611-4.612c-1.051-1.05-1.051-2.755,0-3.804
		c1.051-1.05,2.754-1.05,3.803,0L185.154,140.187z M171.101,116.616c1.051-1.049,2.754-1.049,3.805,0l3.842,3.844
		c1.051,1.049,1.051,2.754,0,3.803c-0.525,0.526-1.213,0.789-1.902,0.789c-0.688,0-1.377-0.263-1.901-0.789l-3.844-3.843
		C170.051,119.37,170.051,117.666,171.101,116.616 M90.654,93.558c1.053-1.049,2.756-1.049,3.805,0l10.248,10.248
		c1.049,1.052,1.049,2.755,0,3.805c-0.526,0.525-1.215,0.787-1.902,0.787c-0.688,0-1.377-0.262-1.903-0.787L90.654,97.363
		C89.605,96.313,89.605,94.609,90.654,93.558 M89.117,71.743c-1.049-1.05-1.049-2.754,0-3.804c1.051-1.051,2.754-1.051,3.805,0
		l17.677,17.678c1.051,1.05,1.051,2.754,0,3.803c-0.525,0.526-1.212,0.788-1.902,0.788c-0.687,0-1.377-0.262-1.902-0.788
		L89.117,71.743z M112.65,181.138c-0.525,0.526-1.213,0.789-1.902,0.789c-0.69,0-1.377-0.263-1.902-0.789l-16.655-16.651
		c-1.049-1.052-1.049-2.755,0-3.805c1.051-1.051,2.754-1.051,3.807,0l16.652,16.653C113.701,178.386,113.701,180.089,112.65,181.138
		 M119.568,135.792c-0.525,0.525-1.215,0.788-1.904,0.788c-0.688,0-1.375-0.263-1.9-0.788l-8.711-8.711
		c-1.051-1.049-1.051-2.754,0-3.803c1.05-1.051,2.754-1.051,3.804,0l8.711,8.711C120.617,133.038,120.617,134.742,119.568,135.792
		 M113.199,109.956c1.053-1.051,2.756-1.051,3.805,0l12.554,12.552c1.051,1.051,1.051,2.755,0,3.805
		c-0.525,0.526-1.212,0.788-1.902,0.788c-0.689,0-1.377-0.262-1.902-0.788l-12.555-12.554
		C112.15,112.709,112.15,111.007,113.199,109.956 M121.398,167.343c1.051-1.051,2.754-1.051,3.805,0l6.406,6.405
		c1.049,1.05,1.049,2.754,0,3.804c-0.525,0.525-1.215,0.788-1.904,0.788c-0.688,0-1.375-0.263-1.9-0.788l-6.407-6.404
		C120.349,170.096,120.349,168.394,121.398,167.343 M134.937,202.917c-0.523,0.525-1.213,0.787-1.9,0.787
		c-0.689,0-1.377-0.262-1.902-0.787l-5.637-5.638c-1.051-1.05-1.051-2.753,0-3.803c1.051-1.051,2.754-1.051,3.805,0l5.634,5.636
		C135.99,200.162,135.99,201.865,134.937,202.917 M144.457,135.793c-1.051-1.051-1.051-2.755,0-3.805
		c1.051-1.051,2.752-1.051,3.805,0l2.818,2.817c1.051,1.051,1.051,2.755,0,3.806c-0.525,0.526-1.215,0.788-1.902,0.788
		c-0.69,0-1.377-0.262-1.903-0.788L144.457,135.793z M144.969,109.956c1.05-1.051,2.754-1.051,3.804,0l5.381,5.379
		c1.051,1.05,1.051,2.753,0,3.804c-0.525,0.525-1.215,0.788-1.902,0.788c-0.69,0-1.377-0.263-1.903-0.788l-5.38-5.379
		C143.92,112.708,143.92,111.005,144.969,109.956 M156.717,162.693c-0.526,0.526-1.215,0.788-1.905,0.788
		c-0.687,0-1.377-0.262-1.9-0.788l-5.383-5.38c-1.049-1.05-1.049-2.754,0-3.803c1.053-1.052,2.756-1.052,3.807,0l5.381,5.379
		C157.765,159.939,157.765,161.643,156.717,162.693 M160.303,110.43c-0.526,0.524-1.215,0.787-1.903,0.787
		c-0.689,0-1.377-0.263-1.902-0.787l-21.777-21.778c-1.051-1.051-1.051-2.753,0-3.804c1.05-1.049,2.753-1.049,3.802,0l21.78,21.777
		C161.351,107.676,161.351,109.379,160.303,110.43 M131.646,66.914c1.051-1.05,2.754-1.05,3.805,0l15.629,15.628
		c1.051,1.051,1.051,2.754,0,3.804c-0.525,0.525-1.215,0.788-1.902,0.788c-0.69,0-1.377-0.263-1.903-0.788l-15.629-15.628
		C130.596,69.667,130.596,67.964,131.646,66.914 M111.152,55.642c1.049-1.051,2.754-1.051,3.803,0l9.478,9.478
		c1.051,1.051,1.051,2.755,0,3.805c-0.525,0.525-1.212,0.788-1.9,0.788c-0.689,0-1.377-0.263-1.904-0.788l-9.477-9.479
		C110.101,58.396,110.101,56.692,111.152,55.642 M83.482,50.518c1.051-1.05,2.754-1.05,3.805,0l52.52,52.52
		c1.05,1.051,1.05,2.754,0,3.804c-0.526,0.525-1.213,0.788-1.903,0.788c-0.687,0-1.377-0.263-1.902-0.788l-52.52-52.52
		C82.432,53.272,82.432,51.569,83.482,50.518 M66.791,63.033c-0.526,0.525-1.215,0.788-1.904,0.788
		c-0.688,0-1.375-0.263-1.901-0.788l-7.174-7.173c-1.048-1.052-1.048-2.755,0-3.806c1.051-1.049,2.754-1.049,3.807,0l7.172,7.173
		C67.842,60.279,67.842,61.982,66.791,63.033 M68.621,55.346c-1.049-1.05-1.049-2.753,0-3.804c1.053-1.05,2.756-1.05,3.805,0
		l7.685,7.685c1.051,1.052,1.051,2.755,0,3.805c-0.523,0.525-1.213,0.788-1.9,0.788c-0.69,0-1.377-0.263-1.904-0.788L68.621,55.346z
		 M83.187,121.446c-0.525,0.526-1.213,0.787-1.902,0.787c-0.689,0-1.377-0.261-1.902-0.787l-14.86-14.86
		c-1.05-1.051-1.05-2.754,0-3.805c1.051-1.05,2.754-1.05,3.805,0l14.859,14.86C84.236,118.692,84.236,120.396,83.187,121.446
		 M83.699,102.998c-0.525,0.526-1.213,0.79-1.902,0.79c-0.688,0-1.377-0.264-1.903-0.79l-15.371-15.37
		c-1.05-1.052-1.05-2.754,0-3.804c1.051-1.051,2.754-1.051,3.805,0l15.371,15.371C84.75,100.245,84.75,101.948,83.699,102.998
		 M73.744,69.182c-1.047-1.05-1.047-2.754,0-3.806c1.053-1.05,2.758-1.05,3.807,0L94.203,82.03c1.051,1.05,1.051,2.753,0,3.804
		c-0.525,0.525-1.213,0.787-1.902,0.787c-0.688,0-1.377-0.262-1.901-0.787L73.744,69.182z"/>
</g>
</svg>
