<?xml version="1.0" encoding="iso-8859-1"?>
<!-- Generator: Adobe Illustrator 25.4.1, SVG Export Plug-In . SVG Version: 6.00 Build 0)  -->
<svg version="1.1" id="Calque_1" xmlns="http://www.w3.org/2000/svg" xmlns:xlink="http://www.w3.org/1999/xlink" x="0px" y="0px"
	 viewBox="0 0 368.5 368.5" style="enable-background:new 0 0 368.5 368.5;" xml:space="preserve">
<g>
	<path style="fill:#FFFFFF;" d="M72.89,240.793h82.046c0.016-5.2,0.034-10.2,0.047-14.751c-0.181,0.037-0.369,0.056-0.562,0.056
		c-1.557,0-2.815-1.257-2.815-2.81c0-1.553,1.258-2.811,2.815-2.811c0.199,0,0.392,0.023,0.582,0.062
		c0.021-6.702,0.039-11.929,0.049-14.588c-0.379-1-0.594-2.04-0.594-3.126c0-12.542,26.283-19.351,53.361-19.9l-6.429-9.385
		c-0.686-1.002-0.803-2.288-0.311-3.398c0.125-0.283,2.865-6.404,7.012-12.401c-0.725-0.508-1.201-1.346-1.201-2.299
		c0-1.555,1.257-2.81,2.814-2.81c0.707,0,1.346,0.27,1.84,0.701c4.635-5.083,10.135-8.367,10.4-8.526
		c0.287-0.169,0.588-0.292,0.895-0.373l8.607-5.944c-0.332,0.14-0.699,0.218-1.082,0.218c-1.556,0-2.814-1.258-2.814-2.81
		c0-1.555,1.258-2.811,2.814-2.811c1.551,0,2.807,1.256,2.811,2.811c-0.002,0.756-0.305,1.44-0.791,1.945l2.726-1.883
		c1.627-1.123,3.608-1.854,5.606-2.103v-60.89c0-10.952-8.91-19.863-19.864-19.863H119.237c0.354,0.47,0.571,1.049,0.572,1.682
		c-0.003,1.554-1.259,2.81-2.81,2.81c-1.557,0-2.815-1.256-2.815-2.81c0-0.633,0.217-1.212,0.571-1.682H72.89
		c-3.118,0-6.059,0.742-8.686,2.028c0.107-0.003,0.219-0.013,0.322-0.013c1.42,0,3.332,0.263,4.377,1.519
		c0.239,0.286,0.869,0.723,1.481,1.146c1.988,1.377,4.992,3.456,6.17,7.697c0.599,2.154-0.077,3.659-0.746,4.542
		c-1.219,1.603-3.469,2.522-6.172,2.522c-2.426,0-4.637-0.763-5.916-2.043c-0.426-0.427-1-0.851-1.608-1.3
		c-1.838-1.359-4.353-3.22-5.34-7.168c-0.043-0.167-0.072-0.333-0.099-0.499c-2.287,3.237-3.647,7.176-3.647,11.432v4.51
		c0.78-0.42,1.668-0.658,2.612-0.658c3.041,0,5.517,2.475,5.517,5.518c0,3.042-2.476,5.518-5.517,5.518
		c-0.944,0-1.832-0.239-2.612-0.659v3.215c0.582-0.4,1.285-0.635,2.043-0.635c1.998,0,3.623,1.626,3.623,3.624
		c0,1.998-1.625,3.623-3.623,3.623c-0.758,0-1.461-0.235-2.043-0.634V220.93C53.026,231.882,61.936,240.793,72.89,240.793
		 M235.669,124.431c1.551,0,2.806,1.257,2.81,2.81c-0.004,1.555-1.259,2.811-2.81,2.811c-1.557,0-2.815-1.256-2.815-2.811
		C232.854,125.688,234.112,124.431,235.669,124.431 M217.858,76.714c1.551,0,2.807,1.255,2.811,2.81
		c-0.004,1.553-1.26,2.81-2.811,2.81c-1.556,0-2.814-1.257-2.814-2.81C215.044,77.969,216.302,76.714,217.858,76.714
		 M216.962,140.626c1.551,0,2.806,1.256,2.81,2.811c-0.004,1.552-1.259,2.81-2.81,2.81c-1.557,0-2.815-1.258-2.815-2.81
		C214.147,141.882,215.405,140.626,216.962,140.626 M163.354,175.841c-1.554,0-2.812-1.256-2.812-2.81s1.258-2.81,2.812-2.81
		c1.551,0,2.809,1.256,2.811,2.81C166.163,174.585,164.905,175.841,163.354,175.841 M178.433,148.759
		c-1.557,0-2.815-1.256-2.815-2.811c0-1.553,1.258-2.81,2.815-2.81c1.55,0,2.806,1.257,2.81,2.81
		C181.239,147.503,179.983,148.759,178.433,148.759 M184.017,181.425c-1.557,0-2.815-1.256-2.815-2.81s1.258-2.81,2.815-2.81
		c1.55,0,2.806,1.256,2.81,2.81C186.823,180.169,185.567,181.425,184.017,181.425 M193.358,113.214c1.551,0,2.807,1.255,2.811,2.81
		c-0.004,1.553-1.26,2.81-2.811,2.81c-1.556,0-2.814-1.257-2.814-2.81C190.544,114.469,191.802,113.214,193.358,113.214
		 M192.37,159.995c1.436,1.195,3.963,4.114,3.262,6.612c-0.166,0.592-0.78,2.002-2.867,2.311c-0.393,0.057-0.836,0.201-1.307,0.354
		c-0.799,0.259-1.701,0.551-2.723,0.551c-1.093,0-2.113-0.344-3.029-1.023c-1.297-0.96-2.219-2.297-2.594-3.763
		c-0.406-1.593-0.115-3.212,0.797-4.443c0.809-1.093,1.953-2.641,4.045-2.641C189.294,157.953,190.696,158.601,192.37,159.995
		 M179.563,81.361c0.457-0.131,0.93-0.197,1.405-0.197c2.599,0,4.968,1.947,5.763,4.735c0.957,3.356-0.701,6.78-3.695,7.634
		c-0.457,0.131-0.93,0.197-1.404,0.197c-2.598,0-4.969-1.947-5.764-4.734C174.913,85.639,176.571,82.215,179.563,81.361
		 M163.358,65.714c1.551,0,2.807,1.255,2.811,2.81c-0.004,1.553-1.26,2.81-2.811,2.81c-1.556,0-2.814-1.257-2.814-2.81
		C160.544,66.969,161.802,65.714,163.358,65.714 M157.888,109.609c1.097,0,2.156,0.401,3.144,1.194
		c0.309,0.246,0.613,0.478,0.906,0.702c2.416,1.843,5.424,4.136,2.705,9.572c-0.462,0.924-1.667,2.473-4.552,2.473h-0.002
		c-4,0-9.821-3.217-10.522-6.634c-0.144-0.704-0.375-3.105,2.727-4.435c0.312-0.134,0.785-0.511,1.242-0.875
		C154.651,110.717,156.042,109.609,157.888,109.609 M149.64,90.116c1.519,0,2.918,1.288,3.482,3.206
		c0.26,0.887,0.303,1.773,0.127,2.564c-0.262,1.183-1,2.032-2.022,2.331c-0.242,0.071-0.498,0.108-0.753,0.108
		c-1.522,0-2.92-1.289-3.481-3.207c-0.668-2.278,0.147-4.383,1.895-4.894C149.13,90.153,149.384,90.116,149.64,90.116
		 M138.694,64.989c1.205-1.567,2.967-2.503,4.711-2.503c0.998,0,1.928,0.307,2.686,0.89c2.17,1.671,2.318,4.993,0.34,7.565
		c-1.205,1.568-2.967,2.504-4.711,2.504c-1,0-1.928-0.309-2.688-0.892C136.864,70.882,136.716,67.56,138.694,64.989 M121.903,77.6
		c1.549,0,2.811,1.261,2.811,2.812s-1.262,2.812-2.811,2.812c-1.551,0-2.812-1.261-2.812-2.812S120.352,77.6,121.903,77.6
		 M120.278,106.01c3.043,0,5.518,2.476,5.518,5.518s-2.475,5.518-5.518,5.518s-5.517-2.476-5.517-5.518
		S117.235,106.01,120.278,106.01 M105.667,229.066c-2.744,0-4.977-2.233-4.977-4.977c0-2.745,2.233-4.977,4.977-4.977
		s4.976,2.232,4.976,4.977C110.643,226.833,108.411,229.066,105.667,229.066 M101.544,98.524c0-1.555,1.258-2.81,2.814-2.81
		c1.551,0,2.807,1.255,2.811,2.81c-0.004,1.553-1.26,2.81-2.811,2.81C102.802,101.334,101.544,100.077,101.544,98.524
		 M111.727,132.888c-0.003,1.553-1.259,2.81-2.81,2.81c-1.557,0-2.815-1.257-2.815-2.81c0-1.553,1.258-2.811,2.815-2.811
		C110.468,130.077,111.724,131.335,111.727,132.888 M102.962,63.8c3.041,0,5.517,2.261,5.517,5.041c0,2.778-2.476,5.039-5.517,5.039
		c-3.043,0-5.518-2.261-5.518-5.039C97.444,66.061,99.919,63.8,102.962,63.8 M95.622,128.975c1.551,0,2.809,1.258,2.811,2.811
		c-0.002,1.554-1.26,2.81-2.811,2.81c-1.555,0-2.813-1.256-2.813-2.81C92.809,130.233,94.067,128.975,95.622,128.975
		 M95.509,193.954c1.55,0,2.806,1.256,2.81,2.81c-0.004,1.553-1.26,2.81-2.81,2.81c-1.557,0-2.815-1.257-2.815-2.81
		C92.694,195.21,93.952,193.954,95.509,193.954 M88.809,90.786c-0.003,1.554-1.259,2.81-2.81,2.81c-1.557,0-2.815-1.256-2.815-2.81
		c0-1.553,1.258-2.811,2.815-2.811C87.55,87.975,88.806,89.233,88.809,90.786 M81.856,74.836c-1.55,0-2.81-1.262-2.81-2.812
		c0-1.551,1.26-2.812,2.81-2.812c1.551,0,2.813,1.261,2.813,2.812C84.669,73.574,83.407,74.836,81.856,74.836 M81.858,59.214
		c1.551,0,2.807,1.255,2.811,2.81c-0.004,1.553-1.26,2.81-2.811,2.81c-1.556,0-2.814-1.257-2.814-2.81
		C79.044,60.469,80.302,59.214,81.858,59.214 M75.52,105.054c0.846-1.61,2.903-2.61,5.366-2.61c3.158,0,5.72,1.564,6.525,3.984
		c0.514,1.538,0.336,3.024-0.5,4.183c-0.951,1.319-2.644,2.075-4.646,2.075h-0.002c-2.518,0-4.899-1.187-6.213-3.097
		C74.612,107.499,75.1,105.85,75.52,105.054 M81.169,152.524c-0.004,1.553-1.26,2.81-2.811,2.81c-1.556,0-2.814-1.257-2.814-2.81
		c0-1.555,1.258-2.81,2.814-2.81C79.909,149.714,81.165,150.969,81.169,152.524 M78.774,168.443c6.121,0,7.227,4.373,7.528,7.662
		c0.142,1.582-0.354,3.046-1.44,4.234c-2.064,2.261-5.908,3.067-8.814,3.067c-1.608,0-4.498-0.243-5.801-1.871
		c-1.443-1.804-2.465-5.133-1.299-8.181c0.932-2.435,3.074-4.048,6.031-4.541C76.475,168.564,77.716,168.443,78.774,168.443
		 M70.358,77.214c1.551,0,2.807,1.255,2.811,2.81c-0.004,1.553-1.26,2.81-2.811,2.81c-1.556,0-2.814-1.257-2.814-2.81
		C67.544,78.469,68.802,77.214,70.358,77.214 M70.358,208.214c1.551,0,2.807,1.255,2.811,2.81c-0.004,1.553-1.26,2.81-2.811,2.81
		c-1.556,0-2.814-1.257-2.814-2.81C67.544,209.469,68.802,208.214,70.358,208.214 M61.835,103.034c1.549,0,2.81,1.262,2.81,2.812
		s-1.261,2.811-2.81,2.811c-1.551,0-2.813-1.261-2.813-2.811S60.284,103.034,61.835,103.034 M54.163,119.424
		c0-1.554,1.258-2.81,2.814-2.81c1.551,0,2.807,1.256,2.811,2.81c-0.004,1.553-1.26,2.81-2.811,2.81
		C55.421,122.234,54.163,120.977,54.163,119.424"/>
	<path style="fill:#FFFFFF;" d="M81.857,70.836c-0.656,0-1.187,0.533-1.187,1.188c0,0.656,0.531,1.188,1.187,1.188
		c0.656,0,1.189-0.532,1.189-1.188C83.046,71.369,82.513,70.836,81.857,70.836"/>
	<path style="fill:#FFFFFF;" d="M61.835,107.035c0.654,0,1.187-0.533,1.187-1.188c0-0.656-0.533-1.189-1.187-1.189
		c-0.656,0-1.19,0.533-1.19,1.189C60.645,106.502,61.179,107.035,61.835,107.035"/>
	<path style="fill:#FFFFFF;" d="M121.904,81.6c0.654,0,1.187-0.533,1.187-1.188s-0.533-1.188-1.187-1.188
		c-0.656,0-1.189,0.533-1.189,1.188S121.248,81.6,121.904,81.6"/>
	<path style="fill:#FFFFFF;" d="M120.279,113.046c0.836,0,1.518-0.681,1.518-1.518s-0.682-1.518-1.518-1.518
		c-0.836,0-1.518,0.681-1.518,1.518S119.443,113.046,120.279,113.046"/>
	<path style="fill:#FFFFFF;" d="M179.716,87.9c0.391,1.372,1.477,1.998,2.223,1.787c0.859-0.245,1.293-1.477,0.945-2.691
		c-0.338-1.19-1.24-1.831-1.916-1.831c-0.104,0-0.207,0.014-0.307,0.043C179.802,85.452,179.37,86.685,179.716,87.9"/>
	<path style="fill:#FFFFFF;" d="M143.261,68.503c0.666-0.865,0.631-1.771,0.391-1.956c-0.051-0.04-0.135-0.06-0.246-0.06
		c-0.407,0-1.041,0.291-1.541,0.942c-0.667,0.865-0.631,1.77-0.391,1.955C141.72,69.573,142.624,69.331,143.261,68.503"/>
	<path style="fill:#FFFFFF;" d="M102.962,69.88c0.895,0,1.518-0.547,1.518-1.039c0-0.492-0.623-1.04-1.518-1.04
		c-0.895,0-1.518,0.548-1.518,1.04C101.444,69.333,102.067,69.88,102.962,69.88"/>
	<path style="fill:#FFFFFF;" d="M186.99,164.047c0.145,0.569,0.545,1.13,1.098,1.539c0.265,0.197,0.451,0.238,0.648,0.238
		c0.389,0,0.924-0.173,1.488-0.357c0.393-0.127,0.823-0.266,1.282-0.375c-0.33-0.593-0.957-1.408-1.694-2.023
		c-1.326-1.103-1.836-1.116-1.857-1.116c-0.131,0.076-0.522,0.603-0.778,0.951C186.859,163.332,186.926,163.8,186.99,164.047"/>
	<path style="fill:#FFFFFF;" d="M105.667,223.112c-0.539,0-0.977,0.439-0.977,0.977c0,0.539,0.438,0.977,0.977,0.977
		c0.539,0,0.977-0.438,0.977-0.977C106.644,223.551,106.206,223.112,105.667,223.112"/>
	<path style="fill:#FFFFFF;" d="M57.156,82.337c0-0.837-0.682-1.518-1.518-1.518c-0.837,0-1.517,0.681-1.517,1.518
		c0,0.837,0.68,1.518,1.517,1.518C56.474,83.855,57.156,83.174,57.156,82.337"/>
	<path style="fill:#FFFFFF;" d="M55.447,93.4c0-0.208-0.17-0.377-0.377-0.377s-0.377,0.169-0.377,0.377
		c0,0.207,0.17,0.376,0.377,0.376S55.447,93.607,55.447,93.4"/>
	<path style="fill:#FFFFFF;" d="M72.685,174.784c-0.531,1.385-0.088,3.224,0.635,4.186c0.263,0.156,1.195,0.437,2.728,0.437
		c2.502,0,4.912-0.726,5.862-1.765c0.328-0.36,0.451-0.711,0.408-1.174c-0.33-3.627-1.383-4.024-3.543-4.024
		c-0.836,0-1.861,0.103-3.137,0.315C74.072,173.02,73.105,173.682,72.685,174.784"/>
	<path style="fill:#FFFFFF;" d="M79.347,107.323c0.691,1.006,2.004,1.363,2.916,1.363h0.002c0.805,0,1.285-0.254,1.4-0.413
		c0.061-0.083,0.041-0.311-0.048-0.58c-0.272-0.82-1.58-1.249-2.731-1.249c-0.988,0-1.584,0.278-1.777,0.433
		C79.136,106.964,79.204,107.116,79.347,107.323"/>
	<path style="fill:#FFFFFF;" d="M160.091,119.551c0.389,0,0.877-0.068,0.975-0.262c1.238-2.475,0.757-2.842-1.553-4.604
		c-0.317-0.242-0.647-0.493-0.979-0.758c-0.179-0.145-0.439-0.317-0.646-0.317c-0.447,0-1.231,0.623-1.858,1.124
		c-0.664,0.53-1.351,1.077-2.16,1.424c-0.134,0.058-0.234,0.112-0.306,0.155C154.148,117.402,157.525,119.551,160.091,119.551"/>
	<path style="fill:#FFFFFF;" d="M64.492,65.986c0.697,0.516,1.42,1.05,2.057,1.687c0.42,0.42,1.566,0.872,3.088,0.872
		c1.56,0,2.642-0.488,2.986-0.942c0.082-0.107,0.271-0.357,0.078-1.051c-0.791-2.847-2.811-4.246-4.594-5.48
		c-0.855-0.593-1.603-1.11-2.176-1.758c-0.166-0.069-0.628-0.195-1.404-0.195c-1.603,0-3.223,0.523-3.764,1.217
		c-0.111,0.144-0.212,0.318-0.109,0.728C61.292,63.62,62.845,64.769,64.492,65.986"/>
	<path style="fill:#FFFFFF;" d="M235.783,191.773c-0.336,0.421-0.664,0.848-0.98,1.28c9.923,1.435,19.371,4.192,19.371,9.488
		c0,10.921-40.157,11.046-41.866,11.046s-41.859-0.125-41.859-11.046c0-10.919,40.15-11.044,41.859-11.044
		c0.157,0,0.643,0.001,1.393,0.011l-1.105-1.613c-0.407-0.003-0.807-0.01-1.217-0.01c-30.01,0-49.92,7.789-49.92,12.941
		c0,0.254,0.062,0.515,0.158,0.78c0.027,0.05,0.061,0.093,0.086,0.144c0.51,1.052,1.59,2.119,3.166,3.161
		c6.041,3.856,19.764,7.755,38.332,8.664c0.006,0,0.014,0,0.019,0.001c0.776,0.037,1.563,0.068,2.356,0.095
		c0.139,0.005,0.273,0.011,0.412,0.015c0.703,0.023,1.414,0.038,2.129,0.052c0.191,0.004,0.381,0.01,0.574,0.012
		c0.887,0.014,1.781,0.022,2.688,0.022c16.65,0,30.185-2.4,38.943-5.416c6.174-2.162,9.918-4.638,10.801-6.772
		c0.023-0.059,0.06-0.111,0.088-0.168c0.054-0.2,0.091-0.397,0.091-0.59C261.302,199.249,251.697,194.403,235.783,191.773"/>
	<path style="fill:#FFFFFF;" d="M258.013,214.757c-0.121,0.06-0.24,0.12-0.363,0.179c-0.418,0.198-0.846,0.391-1.283,0.581
		c-0.334,0.146-0.68,0.288-1.026,0.43c-0.088,0.036-0.176,0.073-0.264,0.108c-1.107,0.447-2.267,0.872-3.478,1.274v21.446
		c0,4.349-3.541,7.888-7.893,7.888c-4.351,0-7.89-3.539-7.89-7.888v-17.791c-0.389,0.06-0.776,0.123-1.168,0.18v11.422
		c0,4.35-3.541,7.889-7.891,7.889c-4.349,0-7.889-3.539-7.889-7.889v-9.977c-1.093,0.046-2.191,0.081-3.291,0.107
		c-0.361,0.01-0.72,0.019-1.08,0.025c-0.297,0.005-0.591,0.01-0.888,0.014c-0.746,0.01-1.491,0.017-2.231,0.017
		c-0.728,0-1.463-0.007-2.199-0.017c-0.318-0.004-0.637-0.009-0.953-0.015c-0.277-0.005-0.557-0.012-0.836-0.019
		c-16.594-0.377-32.828-3.108-42.85-8.068c-0.275-0.136-0.545-0.273-0.81-0.411c-0.143-0.075-0.289-0.149-0.428-0.225
		c-0.437-0.236-0.865-0.474-1.275-0.72c-0.082,24.31-0.284,88.132-0.284,88.821c0,2.182,4.065,5.664,13.147,8.526
		c9.725,3.064,22.723,4.752,36.6,4.752s26.875-1.688,36.599-4.752c9.082-2.862,13.147-6.344,13.147-8.526
		c0-0.109-0.246-64.214-0.346-88.917c-0.459,0.28-0.941,0.551-1.436,0.819c-0.095,0.05-0.191,0.102-0.287,0.153
		C258.792,214.371,258.408,214.566,258.013,214.757"/>
	<path style="fill:#FFFFFF;" d="M243.706,241.663c1.594,0,2.893-1.296,2.893-2.889v-19.972c-1.852,0.479-3.786,0.914-5.784,1.307
		v18.665C240.815,240.367,242.112,241.663,243.706,241.663"/>
	<path style="fill:#FFFFFF;" d="M223.868,232.585c0,1.593,1.295,2.889,2.889,2.889c1.593,0,2.89-1.296,2.89-2.889v-10.787
		c-1.898,0.207-3.828,0.379-5.775,0.52L223.868,232.585z"/>
	<path style="fill:#FFFFFF;" d="M212.308,196.496c-21.965,0-35.096,3.78-36.777,6.043c1.685,2.265,14.82,6.048,36.777,6.048
		c21.961,0,35.098-3.783,36.783-6.048c-1.097-1.479-7.088-3.605-17.236-4.901c-1.938,3.407-3.053,6.188-3.07,6.232
		c-0.479,1.202-1.581,2.044-2.866,2.188c-0.131,0.015-0.259,0.021-0.39,0.021c-1.145,0-2.229-0.561-2.887-1.52l-5.479-7.997
		C215.595,196.52,213.98,196.496,212.308,196.496"/>
	<path style="fill:#FFFFFF;" d="M314.314,108.1c-1.553-2.271-4.373-3.077-6.314-3.077c-1.158,0-2.192,0.255-2.834,0.7
		l-44.233,30.568l8.182,11.819l44.146-30.521C315.24,116.224,316.523,111.328,314.314,108.1 M311.07,113.637
		c-0.182,1.003-0.744,1.875-1.582,2.457c-0.643,0.444-1.393,0.679-2.172,0.679c-1.252,0-2.428-0.615-3.141-1.644
		c-1.197-1.733-0.763-4.115,0.963-5.312c0.645-0.445,1.395-0.679,2.172-0.679c1.254,0,2.428,0.614,3.141,1.643
		C311.033,111.619,311.254,112.634,311.07,113.637"/>
	<path style="fill:#FFFFFF;" d="M258.404,155.515l6.598-4.562l-8.182-11.82l-6.375,4.405c-1.59,1.098-3.768,0.702-4.867-0.887
		c-0.883-1.276-1.99-1.895-3.383-1.895c-1.262,0-2.43,0.497-3.106,0.963l-11.451,7.91l17.112,24.674l11.283-7.796
		c1.097-0.76,3.156-3.701,1.482-6.122c-0.527-0.764-0.73-1.705-0.564-2.619C257.117,156.853,257.64,156.043,258.404,155.515"/>
	<path style="fill:#FFFFFF;" d="M223.372,152.253c-2.229,1.581-5.75,4.37-8.316,7.787c-3.082,4.102-5.539,8.748-6.752,11.205
		l10.275,14.998c0.713-1.416,1.604-3.015,2.68-4.638c3.334-5.022,7.017-7.663,7.172-7.773c1.127-0.798,2.687-0.533,3.486,0.594
		c0.797,1.127,0.531,2.687-0.596,3.486c-0.023,0.017-3.107,2.256-5.896,6.457c-1.684,2.541-2.879,5.065-3.563,6.666l3.121,4.556
		c1.453-2.703,3.451-5.975,5.91-8.906c3.268-3.9,7.475-7.314,9.979-9.199L223.372,152.253z"/>
</g>
</svg>
