<?xml version="1.0" encoding="iso-8859-1"?>
<!-- Generator: Adobe Illustrator 25.4.1, SVG Export Plug-In . SVG Version: 6.00 Build 0)  -->
<svg version="1.1" id="Calque_1" xmlns="http://www.w3.org/2000/svg" xmlns:xlink="http://www.w3.org/1999/xlink" x="0px" y="0px"
	 viewBox="0 0 368.5 368.5" style="enable-background:new 0 0 368.5 368.5;" xml:space="preserve">
<g>
	<path style="fill:#FFFFFF;" d="M71.654,194.259c-0.828,0-1.5,0.672-1.5,1.5v20.988h-9.895v-67.859l-2.56-2.561
		c-0.281-0.281-0.44-0.662-0.44-1.06v72.98c0,0.828,0.672,1.5,1.5,1.5h12.895c0.828,0,1.5-0.672,1.5-1.5v-20.988h125.373l-2.055-3
		H71.654z"/>
	<polygon style="fill:#FFFFFF;" points="245.417,204.329 248.417,204.329 248.417,185.776 245.417,187.849 	"/>
	<path style="fill:#FFFFFF;" d="M231.859,198.907v5.422h3v-8.137C233.882,197.026,232.867,197.938,231.859,198.907"/>
	<path style="fill:#FFFFFF;" d="M230.866,136.48c0.967-0.359,1.979-0.623,3-0.772V68.119c0-0.828-0.672-1.5-1.5-1.5h-33.762
		c0.985,0.976,1.996,1.982,3.02,3h29.242V122.8h-24.643c-1.109,1.051-3.013,2.492-5.115,2.492c-0.535,0-1.054-0.093-1.543-0.275
		c-0.01-0.004-0.019-0.008-0.027-0.012c-0.1,0.16-0.188,0.446-0.258,0.795h31.586V136.48z"/>
	<path style="fill:#FFFFFF;" d="M187.448,178.835c0.012-0.041,0.059-0.201,0.139-0.447h-41.022
		c-0.002,0.017-0.006,0.035-0.008,0.052c-0.005,0.065-0.015,0.129-0.025,0.196c-0.031,0.232-0.088,0.48-0.168,0.74
		c-0.012,0.041-0.023,0.082-0.037,0.123c-0.041,0.123-0.086,0.25-0.137,0.379c-0.193,0.494-0.445,1.002-0.736,1.51h42.26
		C187.311,180.601,187.2,179.694,187.448,178.835"/>
	<path style="fill:#FFFFFF;" d="M136.29,180.944c-0.006-0.006-0.012-0.01-0.018-0.016c-0.853-0.882-1.666-1.722-2.459-2.541h-30.382
		c0.201,0.674,0.168,1.379-0.125,2.065c-0.141,0.328-0.34,0.638-0.579,0.935h33.993C136.577,181.239,136.435,181.092,136.29,180.944
		"/>
	<path style="fill:#FFFFFF;" d="M71.325,181.388h21.434l-0.436-0.436c-0.002-0.001-0.004-0.001-0.006-0.003l-2.56-2.561H72.825
		v-16.934l-3-3v21.434C69.825,180.716,70.497,181.388,71.325,181.388"/>
	<path style="fill:#FFFFFF;" d="M164.909,122.8h-28.277c-0.274,0.697-0.571,1.463-0.785,2.041c-0.096,0.262-0.176,0.484-0.231,0.645
		c-0.027,0.082-0.061,0.183-0.135,0.314h32.348C166.843,124.784,165.866,123.782,164.909,122.8"/>
	<path style="fill:#FFFFFF;" d="M196.628,144.993c-4.41,0-7.998,3.588-7.998,7.998c0,4.41,3.588,7.996,7.998,7.996
		c0.463,0,0.912-0.047,1.354-0.123c2.074-2.277,4.361-4.414,6.476-6.246c0.109-0.526,0.168-1.07,0.168-1.627
		C204.626,148.581,201.038,144.993,196.628,144.993 M196.628,157.987c-2.756,0-4.998-2.24-4.998-4.996
		c0-2.756,2.242-4.998,4.998-4.998c2.756,0,4.998,2.242,4.998,4.998C201.626,155.747,199.384,157.987,196.628,157.987"/>
	<path style="fill:#FFFFFF;" d="M211.855,48.044l0.395-0.168c0.009-0.004,0.019-0.012,0.029-0.016
		c-0.012,0.006-0.024,0.012-0.033,0.016L211.855,48.044c-0.902,0.381-2.137,0.906-2.285,1.307
		C209.718,48.95,210.953,48.427,211.855,48.044"/>
	<path style="fill:#FFFFFF;" d="M209.28,54.267c-0.014,0.018-0.025,0.035-0.039,0.051c0.047-0.059,0.096-0.117,0.139-0.18
		C209.348,54.183,209.313,54.224,209.28,54.267"/>
	<path style="fill:#FFFFFF;" d="M212.566,47.712c0.031-0.018,0.061-0.037,0.092-0.057C212.627,47.675,212.597,47.694,212.566,47.712
		"/>
	<path style="fill:#FFFFFF;" d="M209.716,53.612c-0.004,0.006-0.004,0.012-0.008,0.018c-0.013,0.027-0.035,0.054-0.051,0.082
		c0.022-0.038,0.045-0.075,0.065-0.112C209.72,53.604,209.718,53.608,209.716,53.612"/>
	<path style="fill:#FFFFFF;" d="M213.345,47.056c0.025-0.027,0.047-0.059,0.072-0.088C213.392,46.997,213.37,47.029,213.345,47.056"
		/>
	<path style="fill:#FFFFFF;" d="M213.929,44.11c0.285,0.375,0.377,0.859,0.252,1.311c-0.131,0.47-0.307,0.849-0.5,1.168
		c0.016-0.026,0.033-0.045,0.049-0.071h49.336v8.688h-17.264h-37.377c0.039-0.037,0.074-0.076,0.111-0.113
		c-1.669,1.605-4.091,2.691-4.709,2.951c-0.185,0.078-0.382,0.117-0.582,0.117h-13.173c0.013,0.014,0.031,0.031,0.045,0.045h54.773
		c0.346,0.793,0.527,1.644,0.527,2.506v76.656l3-2.074V60.712c0-0.85-0.121-1.692-0.349-2.506h16.498c0.828,0,1.5-0.672,1.5-1.5
		V45.018c0-0.828-0.672-1.5-1.5-1.5h-51.83C213.204,43.518,213.646,43.737,213.929,44.11"/>
	<path style="fill:#FFFFFF;" d="M208.818,54.81c0.061-0.062,0.119-0.127,0.176-0.191C208.936,54.683,208.878,54.748,208.818,54.81"
		/>
	<path style="fill:#FFFFFF;" d="M213.005,47.401c-0.016,0.014-0.031,0.023-0.047,0.037
		C212.974,47.424,212.989,47.415,213.005,47.401"/>
	<path style="fill:#FFFFFF;" d="M141.446,181.97c0.146-0.195,0.287-0.389,0.422-0.582h-0.983
		C141.075,181.585,141.255,181.771,141.446,181.97"/>
	<path style="fill:#FFFFFF;" d="M182.775,58.206H60.781c-0.334,0.77-0.522,1.615-0.522,2.506v81.785v2.148l9.567,9.567v-2.979
		V68.118c0-0.828,0.672-1.5,1.5-1.5h118.929h4.088c-4.029-3.996-7.31-7.242-8.494-8.412H182.775z"/>
	<path style="fill:#FFFFFF;" d="M97.22,181.606c0.158-0.07,0.309-0.146,0.459-0.219h-0.678L97.22,181.606z"/>
	<path style="fill:#FFFFFF;" d="M210.528,97.399c0.272-1.965,3.305-5.537,6.598-5.068c0.426,0.062,0.742-0.069,0.885-0.381
		c0.201-0.445,0.107-1.34-0.822-2.402c-1.073-1.225-8.106-8.297-19.823-19.93h-3.537H72.825V122.8h59.967
		c0.205,0,0.398,0.041,0.576,0.117c0.518-1.352,1.147-2.922,1.186-3.02c0.277-0.697,1.031-1.078,1.758-0.898
		c0.25,0.064,0.531,0.096,0.836,0.096c2.121,0,4.505-1.502,4.818-2.116c0.08-0.16,0.224-0.707,0.33-1.105
		c0.514-1.951,1.375-5.217,4.258-5.217c0.781,0,1.611,0.277,2.467,0.82c0.109,0.071,0.203,0.125,0.283,0.166
		c0.066-0.359,0.099-0.875,0.121-1.306c0.006-0.143,0.012-0.278,0.015-0.393c0.008-0.18,0.014-0.357,0.024-0.531
		c0.06-1.217,0.205-2.246,1.074-2.824c0.246-0.164,0.58-0.264,0.875-0.264c0.647,0,1.748,0.012,17.723,16.475h28.351
		c0.807-0.807,1.944-1.038,3.131-0.594c0.967,0.363,2.377-0.547,3.322-1.389l-9.117-9.117c-0.416-0.416-0.55-1.037-0.343-1.588
		s0.716-0.93,1.304-0.969c1.102-0.078,4.393-0.703,4.987-2.482c1.296-3.893,3.046-6.088,5.505-6.906
		C208.138,99.134,210.083,97.938,210.528,97.399 M105.743,103.325c-4.41,0-7.998-3.588-7.998-7.998c0-4.408,3.588-7.996,7.998-7.996
		c4.408,0,7.996,3.588,7.996,7.996C113.739,99.737,110.151,103.325,105.743,103.325 M196.628,103.325
		c-4.41,0-7.998-3.588-7.998-7.998c0-4.408,3.588-7.996,7.998-7.996c4.41,0,7.998,3.588,7.998,7.996
		C204.626,99.737,201.038,103.325,196.628,103.325"/>
	<path style="fill:#FFFFFF;" d="M195.292,130.009c0.281-0.473,0.613-1.264,0.836-2.014c-0.018-0.461-0.014-1.297,0.115-2.195
		h-24.207c3.27,3.395,7.061,7.365,11.488,12.045c2.252-0.164,4.506-0.619,5.231-1.055c-0.106-1.859,1.041-4.558,2.246-5.982
		c0.814-0.963,1.695-1.451,2.615-1.451C194.226,129.357,194.808,129.585,195.292,130.009"/>
	<path style="fill:#FFFFFF;" d="M125.948,130.804c-0.336-0.334-0.492-0.809-0.424-1.278c0.069-0.469,0.356-0.879,0.774-1.103
		c1.529-0.825,3.216-1.805,4.511-2.623H72.825v29.002v2.41l21.174,21.176h6.269c-0.246-1.188-0.062-2.381,0.559-3.465
		c0.941-1.639,2.73-2.772,4.787-3.03c1.973-0.246,3.494-2.55,3.6-3.14c-0.004-1.766,1.509-4.356,4.877-4.356
		c0.466,0,0.961,0.053,1.47,0.155c0.055,0.009,0.106,0.017,0.155,0.021c0.185-0.48,0.076-1.74-0.328-3.754
		c-0.131-0.662-0.219-1.099-0.219-1.459c0-0.828,0.699-1.531,1.529-1.531c0.883,0,1.42,0.002,21.291,20.559h5.555
		c0.037-0.139,0.037-0.202,0.037-0.207c-0.234-1.165-0.02-2.938,0.805-4.297c0.117-0.196,0.248-0.381,0.39-0.555
		c1.155-1.406,2.914-1.781,4.75-0.967c0.504,0.225,0.987,0.338,1.432,0.338c0.744,0,1.199-0.324,1.361-0.518
		c-0.158-0.619-0.332-1.859,0.418-2.898c0.315-0.437,1.059-1.17,2.514-1.17c0.844,0,1.826,0.238,3.004,0.729
		c0.242,0.101,0.459,0.154,0.627,0.154c0.81,0,1.365-2.065,1.48-3.777L125.948,130.804z M105.743,144.993
		c4.408,0,7.996,3.588,7.996,7.998c0,4.41-3.588,7.996-7.996,7.996c-4.41,0-7.998-3.586-7.998-7.996
		C97.745,148.581,101.333,144.993,105.743,144.993"/>
	<path style="fill:#FFFFFF;" d="M182.279,55.206h3.777c0.118-0.029,0.241-0.045,0.366-0.045h16.509
		c1.578-0.711,3.846-2.105,4.231-3.144c0.056-0.157,0.035-0.219,0-0.291c-0.645-1.29-0.778-2.407-0.406-3.413
		c0.283-0.771,0.816-1.337,1.474-1.795H44.951v8.688H182.279z"/>
	<path style="fill:#FFFFFF;" d="M105.743,157.987c2.754,0,4.996-2.24,4.996-4.996c0-2.756-2.242-4.998-4.996-4.998
		c-2.756,0-4.998,2.242-4.998,4.998C100.745,155.747,102.987,157.987,105.743,157.987"/>
	<path style="fill:#FFFFFF;" d="M105.743,90.331c-2.756,0-4.998,2.24-4.998,4.996c0,2.756,2.242,4.998,4.998,4.998
		c2.754,0,4.996-2.242,4.996-4.998C110.739,92.571,108.497,90.331,105.743,90.331"/>
	<path style="fill:#FFFFFF;" d="M196.628,90.331c-2.756,0-4.998,2.24-4.998,4.996c0,2.756,2.242,4.998,4.998,4.998
		c2.756,0,4.998-2.242,4.998-4.998C201.626,92.571,199.384,90.331,196.628,90.331"/>
	<path style="fill:#FFFFFF;" d="M161.267,282.685l2.301,34.494c0.006,0.104,0.01,0.209,0.006,0.313
		c-0.049,2.172,0.595,4.007,1.867,5.31c1.394,1.426,3.498,2.18,6.084,2.18h131.429c2.585,0,4.688-0.754,6.083-2.18
		c1.271-1.303,1.917-3.138,1.867-5.31c-0.002-0.104,0-0.209,0.008-0.313l2.298-34.494H161.267z"/>
	<path style="fill:#FFFFFF;" d="M321.569,259.956c-0.336,0.115-0.689,0.201-1.039,0.293c-0.209,0.055-0.41,0.125-0.623,0.17
		c-0.356,0.078-0.727,0.123-1.094,0.176c-0.219,0.033-0.432,0.08-0.654,0.103c-0.598,0.063-1.211,0.094-1.838,0.094h-6.998H165.11
		h-6.996c-0.627,0-1.24-0.031-1.838-0.094c-0.205-0.021-0.396-0.064-0.596-0.094c-0.39-0.054-0.781-0.105-1.156-0.185
		c-0.187-0.041-0.363-0.104-0.549-0.151c-0.377-0.095-0.754-0.191-1.115-0.314c-0.135-0.047-0.258-0.109-0.391-0.158
		c-0.4-0.152-0.796-0.311-1.175-0.496c-0.012-0.006-0.024-0.008-0.036-0.014v9.885c-0.044,1.953,0.506,3.531,1.592,4.642
		c1.196,1.223,3.016,1.872,5.264,1.872h158.207c4.287,0,6.852-2.325,6.859-6.215v-10.186c-0.015,0.008-0.031,0.012-0.045,0.02
		c-0.357,0.173-0.732,0.322-1.109,0.466C321.872,259.829,321.725,259.901,321.569,259.956"/>
	<path style="fill:#FFFFFF;" d="M298.318,211.329h-75.816c-2.026,3.684-3.176,6.555-3.196,6.604
		c-0.474,1.203-1.576,2.046-2.863,2.191c-0.131,0.016-0.262,0.021-0.393,0.021c-1.144,0-2.228-0.562-2.886-1.521l-4.996-7.295
		h-32.049c-6.69,0-14.422,5.719-16.885,12.488l-7.236,19.883c-1.084,2.977-0.969,5.738,0.318,7.576
		c1.137,1.623,3.195,2.516,5.799,2.516h4.545l2.738-7.52c3.012-8.283,11.928-14.773,20.299-14.773H288.74
		c8.365,0,17.281,6.49,20.299,14.773l2.736,7.52h4.547c2.601,0,4.662-0.893,5.799-2.516c1.285-1.838,1.402-4.599,0.318-7.576
		l-7.238-19.883C312.737,217.048,305.004,211.329,298.318,211.329"/>
	<path style="fill:#FFFFFF;" d="M304.325,253.792l-1.865-5.125c-2.008-5.512-8.291-10.168-13.721-10.168H185.696
		c-5.433,0-11.717,4.656-13.721,10.168l-1.867,5.125h25.524c-0.569-1.049-0.866-2.164-0.866-3.322c0-1.699,0.668-3.375,1.932-4.846
		c0.721-0.838,1.983-0.932,2.82-0.213c0.838,0.721,0.934,1.983,0.213,2.82c-0.64,0.747-0.965,1.5-0.965,2.239
		c0,1.123,0.79,2.281,2.157,3.322h7.324c-1.863-0.871-2.898-2.16-2.898-3.707c0-3.35,4.673-4.877,9.015-4.877
		c1.217,0,2.383,0.111,3.465,0.328c1.082,0.219,1.783,1.274,1.566,2.356c-0.218,1.084-1.279,1.781-2.355,1.566
		c-0.813-0.164-1.736-0.25-2.676-0.25c-2.211,0-3.822,0.467-4.611,0.875c0.347,0.182,0.887,0.398,1.672,0.574
		c1.076,0.244,1.752,1.315,1.509,2.393c-0.064,0.279-0.187,0.527-0.347,0.742h14.955c0.996-0.76,2.142-1.93,2.142-3.322
		c0-3.248-6.349-6.867-15.459-6.867c-1.105,0-2-0.897-2-2c0-1.106,0.895-2,2-2c10.911,0,19.459,4.773,19.459,10.867
		c0,1.146-0.318,2.263-0.896,3.322H304.325z"/>
	<path style="fill:#FFFFFF;" d="M267.808,152.755l52.818-36.516c2.618-1.807,4.293-7.98,1.42-12.18
		c-1.988-2.906-5.459-3.941-8.045-3.941c-1.505,0-2.867,0.344-3.74,0.947l-52.92,36.571L267.808,152.755z M310.769,106.7
		c0.713-0.496,1.549-0.758,2.416-0.758c1.398,0,2.705,0.686,3.5,1.834c0.646,0.932,0.891,2.063,0.687,3.18
		c-0.201,1.117-0.828,2.09-1.761,2.736c-0.717,0.494-1.553,0.756-2.42,0.756c-1.395,0-2.703-0.684-3.498-1.83
		C308.359,110.686,308.843,108.032,310.769,106.7"/>
	<path style="fill:#FFFFFF;" d="M222.925,198.186c4.006-4.777,9.211-8.935,12.1-11.088l-21.43-30.898
		c-2.84,2.181-7.775,6.215-11.434,10.504c-4.263,4.998-6.535,10.115-7.468,12.572l13.074,19.084c0.902-1.869,2.099-4.1,3.603-6.367
		c3.91-5.895,8.219-8.983,8.401-9.112c1.125-0.796,2.685-0.533,3.484,0.594c0.799,1.127,0.533,2.688-0.594,3.486
		c-0.033,0.022-3.759,2.723-7.125,7.795c-2.183,3.293-3.681,6.561-4.459,8.436l4.399,6.42
		C217.21,206.273,219.741,201.986,222.925,198.186"/>
	<path style="fill:#FFFFFF;" d="M245.271,145.977c-1.59,1.098-3.77,0.703-4.869-0.887c-1.18-1.705-2.67-2.533-4.555-2.533
		c-1.65,0-3.181,0.653-4.064,1.262l-14.114,9.478l21.198,30.567l13.789-9.524c1.508-1.045,4.209-4.886,1.926-8.185
		c-0.528-0.764-0.731-1.705-0.565-2.619s0.69-1.723,1.453-2.252l8.225-5.686l-10.467-15.119L245.271,145.977z"/>
</g>
</svg>
