<?xml version="1.0" encoding="iso-8859-1"?>
<!-- Generator: Adobe Illustrator 25.4.1, SVG Export Plug-In . SVG Version: 6.00 Build 0)  -->
<svg version="1.1" id="Calque_1" xmlns="http://www.w3.org/2000/svg" xmlns:xlink="http://www.w3.org/1999/xlink" x="0px" y="0px"
	 viewBox="0 0 368.5 368.5" style="enable-background:new 0 0 368.5 368.5;" xml:space="preserve">
<g>
	<path style="fill:#FFFFFF;" d="M59.092,181.342v51.092c0.008,4.455,3.611,8.058,8.066,8.066h93.276
		c0.066-21.545,0.129-41.484,0.15-47.701c-0.433-1.098-0.679-2.236-0.679-3.426c0-6.978,7.818-12.385,19.4-16.097H67.158
		C62.703,173.283,59.1,176.887,59.092,181.342"/>
	<path style="fill:#FFFFFF;" d="M67.158,242.807c-5.728-0.002-10.371-4.645-10.371-10.373v-51.092
		c0-5.727,4.643-10.371,10.371-10.371l120.742-0.002c3.731-0.83,7.69-1.52,11.789-2.066l-7.341-10.717h-6.549v-5.936
		c1.326,2.596,3.592,4.617,6.349,5.645l-3.41-4.977c-0.49-0.717-0.574-1.635-0.222-2.428c0.025-0.056,0.154-0.343,0.357-0.779
		c-0.328-0.865-0.516-1.799-0.518-2.779c-0.003-3.262,1.985-6.059,4.811-7.258c0.977-0.414,1.434-1.539,1.019-2.518
		c-0.412-0.974-1.539-1.433-2.515-1.019c-2.543,1.074-4.621,3.023-5.871,5.469v-28.569c0.123,0.344,0.254,0.682,0.406,1.01
		c0.111,0.231,0.15,0.285,0.303,0.557c1.027,1.802,5.14,8.853,9.043,15.537c0.822,1.41,1.633,2.799,2.406,4.121
		c0.107-0.147,0.211-0.293,0.32-0.44c0.717-0.955,1.483-1.871,2.27-2.74c-1.301-2.23-2.686-4.601-4.018-6.885
		c-1.799-3.082-3.5-6.001-4.765-8.179c-0.633-1.088-1.157-1.992-1.53-2.637c-0.183-0.322-0.332-0.58-0.433-0.76
		c-0.051-0.09-0.092-0.162-0.117-0.205h-0.002c-0.45-0.978-0.704-2.058-0.704-3.211c0.008-4.236,3.436-7.662,7.668-7.668
		c4.235,0.006,7.661,3.432,7.668,7.668c0.006,3.567-2.439,6.567-5.736,7.424c-1.025,0.266-1.641,1.315-1.375,2.342
		c0.268,1.027,1.315,1.641,2.344,1.377c3.681-0.959,6.638-3.69,7.92-7.223v11.612c2.82-2.188,4.986-3.479,5.162-3.582
		c0.15-0.09,0.306-0.159,0.465-0.213V54.09c0.584-0.033,1.129-0.324,1.468-0.807c0.364-0.521,0.448-1.191,0.221-1.785l-2.471-6.496
		c-0.283-0.74-0.986-1.23-1.781-1.234c-0.795-0.008-1.504,0.47-1.799,1.209l-2.552,6.422c-0.233,0.586-0.162,1.254,0.187,1.777
		c0.307,0.461,0.807,0.752,1.35,0.824v7.184c-7.436,0.058-14.752,0.349-21.918,0.865v-7.244c0.586-0.033,1.131-0.32,1.469-0.805
		c0.365-0.521,0.447-1.191,0.222-1.785l-2.471-6.496c-0.283-0.742-0.986-1.231-1.781-1.236c-0.797-0.006-1.506,0.472-1.799,1.211
		l-2.554,6.422c-0.233,0.585-0.162,1.253,0.187,1.775c0.309,0.463,0.807,0.752,1.35,0.826v7.766
		c-7.518,0.662-14.858,1.572-21.983,2.711v-6.807c0.584-0.033,1.127-0.32,1.465-0.805c0.365-0.521,0.449-1.191,0.223-1.785
		l-2.471-6.494c-0.281-0.742-0.986-1.232-1.781-1.238c-0.793-0.006-1.504,0.472-1.799,1.211l-2.553,6.422
		c-0.232,0.585-0.162,1.253,0.188,1.775c0.308,0.463,0.807,0.752,1.351,0.824v7.805c-7.609,1.359-14.951,2.982-21.986,4.846v-6.879
		c0.584-0.034,1.127-0.323,1.467-0.807c0.365-0.521,0.447-1.191,0.223-1.785l-2.471-6.494c-0.283-0.742-0.988-1.233-1.783-1.239
		c-0.793-0.006-1.504,0.473-1.797,1.211l-2.553,6.424c-0.234,0.582-0.164,1.252,0.186,1.776c0.308,0.462,0.806,0.75,1.349,0.822
		v8.457c-7.761,2.244-15.109,4.791-21.982,7.605V73.33c0.584-0.033,1.127-0.322,1.467-0.806c0.365-0.52,0.447-1.19,0.222-1.786
		l-2.472-6.494c-0.282-0.742-0.985-1.23-1.78-1.236c-0.795-0.006-1.508,0.473-1.799,1.211l-2.554,6.422
		c-0.233,0.584-0.162,1.252,0.187,1.775c0.309,0.461,0.807,0.752,1.35,0.822v9.106c-1.387,0.617-2.758,1.246-4.1,1.889
		c-6.509,3.119-12.496,6.502-17.884,10.125v-6.854c0.583-0.033,1.128-0.322,1.466-0.805c0.366-0.521,0.45-1.191,0.223-1.785
		L75.57,78.42c-0.283-0.742-0.986-1.232-1.781-1.238c-0.795-0.006-1.506,0.473-1.799,1.211l-2.553,6.422
		c-0.232,0.586-0.162,1.252,0.188,1.775c0.307,0.461,0.805,0.75,1.348,0.824v10.803c-4.696,3.582-8.844,7.367-12.364,11.35
		c-3.011,3.402-5.56,6.961-7.611,10.644v-10.426c0.586-0.033,1.129-0.324,1.469-0.806c0.363-0.52,0.445-1.19,0.22-1.783
		l-2.472-6.497c-0.281-0.742-0.985-1.232-1.78-1.238c-0.794-0.004-1.505,0.475-1.798,1.211l-2.555,6.424
		c-0.23,0.584-0.16,1.252,0.189,1.775c0.309,0.461,0.805,0.75,1.348,0.823v26.027c-0.279,1.93-0.433,3.881-0.433,5.851v16.614
		v96.935h115.203c0.011-4.093,0.025-8.224,0.037-12.316L67.158,242.807z M185.799,67.426c7.082-0.518,14.314-0.814,21.668-0.871
		v38.756c-1.6-4.438-5.832-7.615-10.821-7.615c-5.015,0-9.271,3.214-10.847,7.693V67.426z M180.422,158.186h-7.252
		c3.183-0.916,5.805-3.143,7.252-6.063V158.186z M180.422,141.721c-1.242-2.498-3.348-4.494-5.932-5.584
		c-0.976-0.414-2.103,0.043-2.515,1.019c-0.414,0.979,0.043,2.106,1.021,2.518c2.826,1.199,4.813,3.996,4.811,7.258
		c-0.008,4.348-3.53,7.869-7.877,7.877c-4.35-0.008-7.868-3.528-7.875-7.877c0-1.322,0.318-2.555,0.888-3.641
		c0.371-0.658,4.553-7.814,8.645-14.824c2.055-3.52,4.094-7.016,5.635-9.668c0.771-1.326,1.42-2.441,1.882-3.244
		c0.233-0.402,0.418-0.727,0.555-0.963c0.147-0.266,0.184-0.316,0.297-0.545c0.176-0.381,0.33-0.773,0.465-1.174V141.721z
		 M158.439,70.635c7.114-1.16,14.455-2.094,21.983-2.772v37.696c-1.526-4.568-5.828-7.863-10.908-7.863
		c-5.282,0-9.719,3.558-11.075,8.406V70.635z M158.439,112.321c1.102,3.919,4.217,6.998,8.176,8.027
		c1.026,0.264,2.074-0.35,2.342-1.377c0.268-1.027-0.348-2.076-1.375-2.34c-3.295-0.859-5.74-3.859-5.736-7.426
		c0.007-4.236,3.433-7.662,7.668-7.668c4.232,0.006,7.66,3.432,7.666,7.668c0,1.158-0.252,2.244-0.707,3.223
		c0,0.002-0.008,0.008-0.008,0.008c-0.571,1.025-4.748,8.189-8.783,15.099c-2.018,3.461-4.012,6.871-5.514,9.45
		c-0.752,1.287-1.383,2.367-1.832,3.144c-0.465,0.801-0.693,1.19-0.797,1.383c-0.508,0.971-0.881,2.025-1.1,3.133V112.321z
		 M158.439,149.221c0.854,4.312,4.075,7.764,8.25,8.965h-8.25V149.221z M153.062,158.186h-8.043
		c3.901-1.121,6.959-4.211,8.043-8.129V158.186z M153.062,143.78c-0.222-0.793-0.519-1.555-0.894-2.27
		c-0.106-0.195-0.348-0.609-0.84-1.457c-1.67-2.871-5.654-9.691-9.252-15.856c-1.799-3.082-3.5-6.001-4.765-8.179
		c-0.633-1.088-1.157-1.992-1.528-2.637c-0.185-0.322-0.334-0.58-0.435-0.76c-0.051-0.09-0.092-0.162-0.118-0.205
		c-0.451-0.978-0.703-2.058-0.703-3.211c0.006-4.236,3.434-7.662,7.666-7.668c4.235,0.006,7.662,3.432,7.67,7.668
		c0.004,3.565-2.439,6.567-5.736,7.424c-1.027,0.266-1.643,1.315-1.375,2.342c0.266,1.027,1.314,1.641,2.342,1.377
		c3.726-0.969,6.713-3.75,7.968-7.348V143.78z M131.076,76.522c7.01-1.903,14.358-3.563,21.986-4.955v33.873
		c-1.562-4.506-5.832-7.744-10.869-7.744c-5.341,0-9.82,3.646-11.117,8.582V76.522z M131.076,112.125
		c0.174,0.664,0.391,1.311,0.676,1.922c0.113,0.231,0.15,0.281,0.303,0.557c1.029,1.802,5.142,8.853,9.043,15.537
		c1.949,3.34,3.845,6.584,5.269,9.025c0.711,1.219,1.305,2.238,1.727,2.967c0.213,0.365,0.381,0.654,0.5,0.861
		c0.058,0.106,0.107,0.186,0.138,0.241c0.016,0.029,0.03,0.05,0.036,0.064c0.566,1.088,0.886,2.316,0.886,3.633
		c-0.008,4.349-3.527,7.869-7.875,7.877c-4.349-0.008-7.869-3.529-7.877-7.877c-0.004-3.262,1.985-6.059,4.811-7.258
		c0.976-0.414,1.433-1.539,1.021-2.518c-0.414-0.974-1.541-1.433-2.517-1.019c-2.737,1.154-4.936,3.328-6.141,6.039V112.125z
		 M131.076,151.688c1.395,3.133,4.119,5.537,7.463,6.498h-7.463V151.688z M125.697,158.186h-6.98c2.99-0.86,5.488-2.871,6.98-5.532
		V158.186z M125.697,141.203c-1.267-2.256-3.256-4.052-5.658-5.066c-0.978-0.414-2.103,0.043-2.518,1.019
		c-0.412,0.979,0.045,2.106,1.022,2.518c2.826,1.199,4.812,3.996,4.81,7.258c-0.005,4.348-3.529,7.869-7.876,7.877
		c-4.348-0.008-7.868-3.528-7.875-7.877c0-1.322,0.322-2.555,0.888-3.641c0.371-0.658,4.553-7.814,8.645-14.824
		c2.054-3.52,4.093-7.016,5.636-9.668c0.772-1.326,1.418-2.441,1.883-3.244c0.231-0.402,0.416-0.727,0.553-0.963
		c0.146-0.266,0.184-0.316,0.297-0.545c0.072-0.158,0.127-0.322,0.193-0.482V141.203z M103.715,85.871
		c6.82-2.886,14.172-5.505,21.982-7.82v26.762c-1.726-4.178-5.836-7.117-10.636-7.117c-5.721,0-10.454,4.177-11.346,9.648V85.871z
		 M103.715,111.139c0.76,4.478,4.099,8.078,8.449,9.209c1.025,0.264,2.072-0.35,2.34-1.377c0.267-1.027-0.348-2.076-1.375-2.34
		c-3.297-0.859-5.742-3.859-5.736-7.426c0.007-4.236,3.433-7.662,7.668-7.668c4.234,0.006,7.66,3.432,7.667,7.668
		c0,1.158-0.253,2.244-0.709,3.225l-0.007,0.006c-0.571,1.025-4.746,8.189-8.784,15.099c-2.017,3.461-4.009,6.871-5.511,9.45
		c-0.754,1.287-1.383,2.367-1.834,3.142c-0.465,0.803-0.694,1.192-0.797,1.385c-0.848,1.621-1.328,3.471-1.326,5.42
		c0.002,5.346,3.584,9.846,8.476,11.254h-8.521V111.139z M98.336,158.186h-7.865c3.703-1.065,6.648-3.903,7.865-7.541V158.186z
		 M98.336,143.203c-0.199-0.586-0.434-1.152-0.717-1.693c-0.105-0.195-0.348-0.609-0.84-1.457c-1.67-2.871-5.654-9.691-9.252-15.856
		c-1.799-3.082-3.5-6.001-4.765-8.179c-0.633-1.088-1.159-1.992-1.53-2.637c-0.183-0.322-0.332-0.58-0.433-0.76
		c-0.051-0.09-0.09-0.162-0.115-0.205h-0.002c-0.452-0.978-0.704-2.058-0.704-3.211c0.008-4.236,3.434-7.662,7.668-7.668
		c4.235,0.006,7.661,3.432,7.668,7.668c0.004,3.565-2.441,6.567-5.736,7.424c-1.027,0.266-1.644,1.315-1.377,2.342
		c0.268,1.027,1.317,1.641,2.342,1.377c3.57-0.928,6.451-3.524,7.793-6.897V143.203z M76.352,100.899
		c6.33-4.567,13.712-8.809,21.984-12.643v16.701c-1.692-4.252-5.834-7.261-10.69-7.261c-5.607,0-10.271,4.009-11.294,9.32V100.899z
		 M76.352,111.348c0.177,0.943,0.457,1.853,0.851,2.699c0.113,0.231,0.15,0.281,0.303,0.557c1.029,1.802,5.14,8.853,9.043,15.537
		c1.949,3.34,3.845,6.584,5.267,9.025c0.711,1.219,1.307,2.238,1.729,2.967c0.211,0.365,0.381,0.654,0.5,0.861
		c0.06,0.106,0.105,0.186,0.139,0.241c0.017,0.029,0.029,0.05,0.035,0.064c0.568,1.088,0.886,2.316,0.886,3.633
		c-0.007,4.349-3.527,7.869-7.875,7.877c-4.347-0.008-7.869-3.529-7.877-7.877c-0.001-3.262,1.985-6.059,4.811-7.258
		c0.979-0.414,1.434-1.539,1.02-2.518c-0.411-0.974-1.538-1.433-2.516-1.019c-2.873,1.213-5.156,3.541-6.316,6.439V111.348z
		 M76.352,151.27c1.332,3.336,4.148,5.914,7.638,6.916h-7.638V151.27z M62.637,113.125c2.431-2.767,5.222-5.457,8.336-8.058v37.986
		c-0.131-0.34-0.276-0.676-0.436-1v-0.004c-1.764-3.627-4.529-5.975-6.898-7.988c-2.405-2.012-4.348-3.721-5.121-5.684
		c-0.274-0.668-0.428-1.273-0.428-1.861c0.006-2.334,1.896-4.225,4.23-4.229c2.336,0.004,4.225,1.895,4.231,4.229
		c0,0.562-0.11,1.09-0.305,1.578c-0.394,0.984,0.084,2.103,1.068,2.498c0.985,0.395,2.104-0.08,2.498-1.066l-0.002-0.002
		c0.375-0.93,0.583-1.95,0.581-3.008c0-4.459-3.612-8.07-8.071-8.07c-1.929,0-3.701,0.679-5.09,1.81
		C58.777,117.84,60.578,115.461,62.637,113.125 M50.998,136.061c0.566-3.588,1.686-7.117,3.324-10.578
		c-0.043,0.338-0.072,0.683-0.072,1.033c0,1.262,0.328,2.375,0.711,3.312c1.322,3.178,3.865,5.166,6.195,7.166
		c2.367,1.994,4.59,3.971,5.924,6.731c0.002,0.004,0.002,0.004,0.004,0.008c0.535,1.113,0.814,2.134,0.818,3.298
		c-0.006,3.885-3.152,7.03-7.037,7.038c-3.885-0.008-7.031-3.155-7.037-7.038c-0.004-2.916,1.772-5.416,4.297-6.488
		c0.977-0.41,1.434-1.537,1.021-2.514c-0.414-0.976-1.539-1.433-2.515-1.023c-2.488,1.051-4.498,3.004-5.633,5.445V136.061z
		 M50.998,151.592c1.727,3.727,5.488,6.316,9.867,6.318c4.594-0.002,8.514-2.853,10.108-6.877v7.153H50.998V151.592z"/>
	<path style="fill:#FFFFFF;" d="M228.682,172.416c-0.4,0.437-0.793,0.879-1.168,1.328c-1.381,1.645-2.631,3.414-3.734,5.149
		c0.297-0.002,0.59-0.006,0.888-0.006c24.91,0,45.096,4.535,45.096,10.146c0,5.604-20.186,10.151-45.096,10.151
		c-24.898,0-45.09-4.547-45.09-10.151c0-4.205,11.338-7.804,27.5-9.346l-4.24-6.189c-23.095,2.674-37.933,9.557-37.933,15.875
		c0,0.572,0.134,1.15,0.373,1.729c0.023,0.041,0.05,0.08,0.072,0.123c2.834,6.048,18.32,12.267,41.139,14.404
		c0.121,0.012,0.244,0.021,0.365,0.033c0.726,0.067,1.461,0.129,2.201,0.188c0.254,0.019,0.512,0.037,0.768,0.056
		c0.64,0.047,1.285,0.092,1.937,0.133c0.367,0.023,0.74,0.043,1.113,0.065c0.567,0.031,1.133,0.064,1.707,0.089
		c0.479,0.024,0.965,0.041,1.45,0.061c0.488,0.019,0.976,0.039,1.47,0.055c0.614,0.019,1.235,0.033,1.856,0.045
		c0.387,0.009,0.767,0.021,1.156,0.027c1.022,0.015,2.051,0.025,3.09,0.025c1.029,0,2.049-0.01,3.06-0.025
		c0.813-0.014,1.616-0.033,2.416-0.057c0.163-0.004,0.329-0.006,0.493-0.012c29.105-0.914,49.619-8.404,52.398-15.376
		c0.027-0.069,0.065-0.129,0.096-0.194c0.152-0.457,0.238-0.914,0.238-1.369C282.303,181.721,260.528,173.242,228.682,172.416"/>
	<path style="fill:#FFFFFF;" d="M281.819,198.75c-9.594,7.482-30.42,11.775-51.516,12.531c-0.109,0.004-0.218,0.008-0.328,0.012
		c-0.474,0.018-0.951,0.029-1.428,0.043c-0.464,0.012-0.927,0.023-1.392,0.031c-0.338,0.008-0.678,0.014-1.016,0.02
		c-0.847,0.011-1.693,0.019-2.537,0.019c-0.969,0-1.93-0.01-2.887-0.023h-0.037c-19.002-0.272-35.605-3.182-46.627-7.815
		c-3.341-1.384-6.218-2.945-8.486-4.679c-0.086,26.244-0.334,107.541-0.334,108.416c0,8.242,24.023,17.427,58.498,17.427
		s58.498-9.185,58.498-17.427C282.227,307.17,281.924,225.549,281.819,198.75"/>
	<path style="fill:#FFFFFF;" d="M212.92,126.939c-2.711,1.889-7.312,5.447-10.645,9.887c-4.142,5.513-7.343,11.816-8.605,14.443
		l13.592,19.838c0.937-2.047,2.301-4.707,4.097-7.416c3.913-5.891,8.219-8.979,8.399-9.106c1.127-0.798,2.687-0.535,3.486,0.592
		s0.533,2.688-0.594,3.487c-0.031,0.023-3.757,2.722-7.125,7.793c-2.74,4.13-4.39,8.193-4.906,9.552l4.977,7.264
		c1.685-3.428,4.451-8.408,8.086-12.742c3.931-4.692,9.05-8.785,11.902-10.91L212.92,126.939z"/>
	<path style="fill:#FFFFFF;" d="M255.393,137.289c-0.377-0.545-0.521-1.217-0.404-1.871c0.119-0.653,0.492-1.231,1.039-1.608
		l8.224-5.687l-11.601-16.764l-7.959,5.498c-1.135,0.786-2.692,0.5-3.477-0.633c-1.361-1.968-3.172-2.966-5.379-2.966
		c-1.595,0-3.326,0.539-4.63,1.439l-13.991,9.66l22.213,32.032l13.785-9.524C255.348,145.385,257.907,140.918,255.393,137.289"/>
	<path style="fill:#FFFFFF;" d="M322.862,75.193c-2.207-3.226-6.028-4.375-8.868-4.375c-1.703,0-3.273,0.411-4.306,1.125
		l-52.924,36.573l11.602,16.763l52.818-36.517C324.116,86.74,326.153,80.006,322.862,75.193 M318.348,82.834
		c-0.252,1.383-1.025,2.582-2.18,3.381c-0.885,0.611-1.92,0.934-2.99,0.934c-1.725,0-3.338-0.846-4.318-2.262
		c-1.649-2.389-1.049-5.666,1.332-7.309c0.879-0.611,1.914-0.933,2.988-0.933c1.725,0,3.34,0.845,4.318,2.265
		C318.293,80.055,318.598,81.451,318.348,82.834"/>
</g>
</svg>
