<?xml version="1.0" encoding="iso-8859-1"?>
<!-- Generator: Adobe Illustrator 25.4.1, SVG Export Plug-In . SVG Version: 6.00 Build 0)  -->
<svg version="1.1" id="Calque_1" xmlns="http://www.w3.org/2000/svg" xmlns:xlink="http://www.w3.org/1999/xlink" x="0px" y="0px"
	 viewBox="0 0 368.5 368.5" style="enable-background:new 0 0 368.5 368.5;" xml:space="preserve">
<g>
	<path style="fill:#FFFFFF;" d="M48.252,80.402V307.18c0,6.151,4.987,11.139,11.139,11.139s11.139-4.988,11.139-11.139v-92.452
		l-14.815-6.747c-1.192-0.542-1.957-1.731-1.957-3.041c0-1.309,0.765-2.499,1.957-3.041l14.815-6.746V80.402
		c0-8.601,6.996-15.595,15.595-15.595h102.673l6.479-14.233c0.543-1.193,1.732-1.957,3.041-1.957c1.31,0,2.499,0.764,3.042,1.957
		l6.48,14.233h103.444c6.152,0,11.139-4.989,11.139-11.139c0-6.153-4.987-11.139-11.139-11.139H86.125
		C65.241,42.529,48.252,59.516,48.252,80.402"/>
	<path style="fill:#FFFFFF;" d="M65.164,204.94l26.707,12.163v-5.655c0-1.847,1.496-3.341,3.342-3.341h37.029v-6.639H95.213
		c-1.846,0-3.342-1.498-3.342-3.342v-5.345L65.164,204.94z"/>
	<path style="fill:#FFFFFF;" d="M198.318,60.024L186.16,86.728h5.651c1.846,0,3.341,1.496,3.341,3.342v37.028h6.641V90.07
		c0-1.846,1.495-3.342,3.341-3.342h5.343L198.318,60.024z"/>
	<path style="fill:#FFFFFF;" d="M265.46,179.561c2.272,2.269,3.378,6.044,3.378,11.536c-0.009,9.372,0.149,18.371,0.15,18.4
		c0,8.218-3.7,9.953-37.386,23.242l-10.211,4.02c-25.179,9.881-26.686,10.472-26.759,20.003c-0.003,0.495-0.007,1.025-0.021,1.691
		l0.093,13.127c0.718-0.108,1.446-0.182,2.193-0.182h0.759c1.291,0,2.538,0.183,3.734,0.498l-0.096-13.393
		c0.013-0.604,0.017-1.166,0.022-1.69c0.026-3.43,0.028-3.71,1.67-4.839c2.766-1.898,9.188-4.419,20.847-8.994l10.222-4.023
		c34.448-13.591,41.616-16.419,41.616-29.521c-0.002-0.089-0.159-9.023-0.15-18.336c0-7.361-1.747-12.682-5.34-16.266
		c-2.221-2.221-5.149-3.687-8.708-4.424v6.86C263.103,177.772,264.428,178.53,265.46,179.561"/>
	<path style="fill:#FFFFFF;" d="M197.656,275.853h-0.759c-5.663,0-10.271,4.606-10.271,10.268v29.607
		c0,5.66,4.608,10.266,10.271,10.266h0.759c5.664,0,10.272-4.606,10.272-10.266v-29.607
		C207.928,280.459,203.32,275.853,197.656,275.853"/>
	<path style="fill:#FFFFFF;" d="M257.018,156.901c0-4.668-3.492-8.465-7.784-8.465h-85.293c-4.291,0-7.783,3.797-7.783,8.465v30.516
		c0,4.664,3.492,8.462,7.783,8.462h85.293c4.292,0,7.784-3.798,7.784-8.462V156.901z M217.409,161.126h-45.27
		c-1.846,0-3.342-1.495-3.342-3.342c0-1.843,1.496-3.341,3.342-3.341h45.27c1.846,0,3.342,1.498,3.342,3.341
		C220.751,159.631,219.255,161.126,217.409,161.126"/>
</g>
</svg>
