<?xml version="1.0" encoding="iso-8859-1"?>
<!-- Generator: Adobe Illustrator 25.4.1, SVG Export Plug-In . SVG Version: 6.00 Build 0)  -->
<svg version="1.1" id="Calque_1" xmlns="http://www.w3.org/2000/svg" xmlns:xlink="http://www.w3.org/1999/xlink" x="0px" y="0px"
	 viewBox="0 0 368.5 368.5" style="enable-background:new 0 0 368.5 368.5;" xml:space="preserve">
<g>
	<path style="fill:#FFFFFF;" d="M73.323,240.793h82.047c0.051-15.844,0.096-29.855,0.115-34.842c-0.379-1-0.594-2.039-0.594-3.126
		c0-12.41,25.735-19.207,52.51-19.881l-6.443-9.404c-0.592-0.862-0.766-1.943-0.477-2.947c0.086-0.299,2.178-7.399,8.016-14.244
		c5.107-5.988,12.478-11.177,12.789-11.395l13.43-9.02c1.826-1.262,4.15-2.034,6.433-2.154V72.968
		c0-10.953-8.91-19.864-19.863-19.864H73.323c-10.953,0-19.863,8.911-19.863,19.864v147.963
		C53.46,231.883,62.37,240.793,73.323,240.793"/>
	<path style="fill:#FFFFFF;" d="M235.448,191.649c-0.344,0.425-0.676,0.855-0.998,1.293c10.205,1.402,20.156,4.163,20.156,9.598
		c0,10.921-40.156,11.046-41.865,11.046s-41.859-0.125-41.859-11.046c0-10.919,40.15-11.044,41.859-11.044
		c0.084,0,0.262,0,0.52,0.002l-1.104-1.611c-0.115-0.001-0.229-0.003-0.346-0.003c-30.009,0-49.92,7.789-49.92,12.941
		c0,0.254,0.063,0.515,0.159,0.781c0.027,0.049,0.06,0.092,0.085,0.143c0.51,1.052,1.59,2.119,3.167,3.161
		c6.041,3.856,19.763,7.755,38.332,8.664c0.005,0,0.013,0,0.019,0.001c0.775,0.037,1.563,0.068,2.356,0.095
		c0.138,0.005,0.273,0.011,0.412,0.015c0.703,0.023,1.414,0.038,2.129,0.052c0.191,0.004,0.38,0.01,0.574,0.013
		c0.887,0.013,1.781,0.021,2.687,0.021c16.651,0,30.186-2.4,38.944-5.416c6.173-2.162,9.918-4.638,10.8-6.772
		c0.024-0.059,0.061-0.111,0.088-0.168c0.055-0.2,0.092-0.397,0.092-0.59C261.735,199.191,251.819,194.248,235.448,191.649"/>
	<path style="fill:#FFFFFF;" d="M258.446,214.757c-0.121,0.06-0.24,0.12-0.363,0.179c-0.418,0.198-0.846,0.391-1.284,0.581
		c-0.333,0.146-0.679,0.288-1.025,0.43c-0.088,0.036-0.176,0.073-0.264,0.108c-1.107,0.447-2.267,0.872-3.478,1.274v21.446
		c0,4.349-3.541,7.888-7.893,7.888c-4.351,0-7.89-3.539-7.89-7.888v-17.791c-0.389,0.06-0.776,0.123-1.168,0.18v11.422
		c0,4.35-3.541,7.889-7.891,7.889c-4.349,0-7.889-3.539-7.889-7.889v-9.977c-1.093,0.046-2.191,0.081-3.291,0.107
		c-0.361,0.01-0.72,0.019-1.08,0.025c-0.297,0.005-0.591,0.01-0.888,0.014c-0.746,0.01-1.491,0.017-2.231,0.017
		c-0.728,0-1.463-0.007-2.199-0.017c-0.318-0.004-0.637-0.009-0.953-0.015c-0.277-0.005-0.557-0.012-0.836-0.019
		c-16.594-0.377-32.828-3.108-42.85-8.068c-0.275-0.136-0.545-0.273-0.81-0.411c-0.143-0.075-0.289-0.149-0.428-0.225
		c-0.437-0.236-0.865-0.474-1.275-0.72c-0.082,24.31-0.284,88.132-0.284,88.821c0,2.182,4.065,5.664,13.147,8.526
		c9.725,3.064,22.723,4.752,36.6,4.752s26.875-1.688,36.599-4.752c9.082-2.862,13.147-6.344,13.147-8.526
		c0-0.109-0.246-64.214-0.346-88.917c-0.459,0.28-0.941,0.551-1.436,0.819c-0.095,0.05-0.191,0.102-0.287,0.153
		C259.225,214.371,258.841,214.566,258.446,214.757"/>
	<path style="fill:#FFFFFF;" d="M244.14,241.663c1.594,0,2.893-1.296,2.893-2.889v-19.972c-1.852,0.479-3.786,0.914-5.784,1.307
		v18.665C241.249,240.367,242.546,241.663,244.14,241.663"/>
	<path style="fill:#FFFFFF;" d="M224.302,232.585c0,1.593,1.295,2.889,2.889,2.889c1.593,0,2.89-1.296,2.89-2.889v-10.787
		c-1.898,0.207-3.828,0.379-5.775,0.52L224.302,232.585z"/>
	<path style="fill:#FFFFFF;" d="M212.741,196.496c-21.965,0-35.096,3.78-36.777,6.043c1.685,2.265,14.82,6.048,36.777,6.048
		c21.961,0,35.098-3.783,36.783-6.048c-1.125-1.518-7.408-3.716-18.047-5c-1.972,3.452-3.109,6.286-3.127,6.331
		c-0.476,1.202-1.578,2.044-2.863,2.188c-0.131,0.015-0.262,0.022-0.391,0.022c-1.146,0-2.23-0.562-2.886-1.521l-5.496-8.02
		C215.425,196.511,214.098,196.496,212.741,196.496"/>
	<path style="fill:#FFFFFF;" d="M313.882,108.1c-1.555-2.271-4.373-3.076-6.316-3.076c-1.157,0-2.19,0.254-2.834,0.699
		l-44.231,30.568l8.182,11.819l44.146-30.52C314.806,116.224,316.089,111.328,313.882,108.1 M309.054,116.094
		c-0.643,0.444-1.393,0.679-2.172,0.679c-1.252,0-2.426-0.615-3.14-1.644c-1.196-1.732-0.764-4.115,0.964-5.312
		c0.643-0.445,1.393-0.679,2.172-0.679c1.252,0,2.426,0.614,3.141,1.643C311.216,112.513,310.784,114.896,309.054,116.094"/>
	<path style="fill:#FFFFFF;" d="M257.97,155.515l6.6-4.562l-8.184-11.82l-6.373,4.405c-1.59,1.098-3.77,0.702-4.869-0.887
		c-0.883-1.276-1.988-1.895-3.381-1.895c-1.262,0-2.432,0.498-3.107,0.963l-11.555,7.761l17.215,24.823l11.283-7.796
		c1.099-0.76,3.158-3.701,1.482-6.122c-0.527-0.764-0.73-1.705-0.564-2.619C256.683,156.853,257.206,156.043,257.97,155.515"/>
	<path style="fill:#FFFFFF;" d="M213.823,160.892c-3.363,3.942-5.248,8.032-6.086,10.16l10.408,15.191
		c0.715-1.415,1.606-3.015,2.682-4.637c3.332-5.023,7.016-7.663,7.172-7.774c1.125-0.797,2.685-0.532,3.484,0.595
		c0.799,1.127,0.533,2.687-0.594,3.485c-0.025,0.018-3.109,2.256-5.896,6.458c-1.686,2.541-2.881,5.064-3.565,6.665l3.124,4.557
		c1.451-2.704,3.449-5.975,5.908-8.906c3.269-3.899,7.474-7.313,9.978-9.198l-17.408-25.102
		C220.624,154.254,216.735,157.478,213.823,160.892"/>
</g>
</svg>
