<?xml version="1.0" encoding="iso-8859-1"?>
<!-- Generator: Adobe Illustrator 25.4.1, SVG Export Plug-In . SVG Version: 6.00 Build 0)  -->
<svg version="1.1" id="Calque_1" xmlns="http://www.w3.org/2000/svg" xmlns:xlink="http://www.w3.org/1999/xlink" x="0px" y="0px"
	 viewBox="0 0 368.5 368.5" style="enable-background:new 0 0 368.5 368.5;" xml:space="preserve">
<g>
	<path style="fill:#FFFFFF;" d="M207.949,167.44v44.299c0,3.054-2.474,5.527-5.527,5.527c-3.052,0-5.526-2.473-5.526-5.527v-42.555
		c-2.345,0.313-4.725,0.596-7.132,0.852v22.821c0,3.052-2.474,5.526-5.527,5.526s-5.527-2.474-5.527-5.526v-21.862
		c-7.397,0.503-14.923,0.754-22.36,0.754c-30.262,0-62.024-4.108-80.29-12.84c-4.305-1.765-8.107-3.715-11.306-5.839
		c-0.141,39.117-0.528,146.407-0.528,147.708c0,10.283,35.852,25.216,92.033,25.216c56.182,0,92.035-14.933,92.035-25.216
		c-0.001-1.138-0.474-108.933-0.644-147.905c-2.25,1.518-4.811,2.946-7.641,4.285C232.106,161.64,220.87,165.05,207.949,167.44"/>
	<path style="fill:#FFFFFF;" d="M218.099,118.093c-1.083,1.006-2.273,1.909-3.587,2.663l-5.867,3.362
		c15.252,3.005,24.827,7.344,24.827,12.172c0,9.073-33.89,16.438-75.712,16.438c-41.8,0-75.701-7.365-75.701-16.438
		c0-7.753,24.713-14.241,57.948-15.975c0.611-0.717,1.204-1.451,1.752-2.219c1.783-2.503,3.755-4.796,5.852-6.867
		c-52.883,1.367-85.008,15.386-85.008,25.584c0,10.738,35.553,25.716,93.453,25.716c57.907,0,93.463-14.978,93.463-25.716
		C249.519,130.774,238.261,123.394,218.099,118.093"/>
	<path style="fill:#FFFFFF;" d="M147.159,121.945c-4.6,6.448-11.126,11.248-16.01,14.237c2.874,0.988,6.243,2.056,9.255,2.776
		l1.455,0.351c5.197,1.255,12.316,2.976,19.377,2.976c5.095,0,9.392-0.928,12.775-2.759c5.144-2.783,9.357-6.886,12.322-10.341
		l-13.253-23.104c-0.581,0.022-1.175,0.04-1.736,0.072C163.028,106.622,153.762,112.674,147.159,121.945"/>
	<path style="fill:#FFFFFF;" d="M304.861,46.46c-1.389-2.423-3.998-3.93-6.81-3.93c-1.361,0-2.709,0.359-3.897,1.042l-80.337,46.072
		l7.809,13.619l80.338-46.086C305.715,55.029,307.013,50.221,304.861,46.46"/>
	<path style="fill:#FFFFFF;" d="M179.2,103.422l12.922,22.525l19.089-10.944c2.648-1.52,4.571-3.905,5.629-6.753l-9.906-17.276
		c-2.943-0.503-6.032,0.006-8.646,1.503L179.2,103.422z M211.65,106.102c0.92,1.585,0.38,3.614-1.204,4.533l-14.988,8.694
		c-0.524,0.304-1.096,0.45-1.661,0.45c-1.144,0-2.256-0.593-2.871-1.653c-0.92-1.585-0.38-3.614,1.204-4.533l14.987-8.694
		C208.703,103.974,210.73,104.518,211.65,106.102"/>
</g>
</svg>
