<?xml version="1.0" encoding="iso-8859-1"?>
<!-- Generator: Adobe Illustrator 25.4.1, SVG Export Plug-In . SVG Version: 6.00 Build 0)  -->
<svg version="1.1" id="Calque_1" xmlns="http://www.w3.org/2000/svg" xmlns:xlink="http://www.w3.org/1999/xlink" x="0px" y="0px"
	 viewBox="0 0 368.5 368.5" style="enable-background:new 0 0 368.5 368.5;" xml:space="preserve">
<g>
	<path style="fill:#FFFFFF;" d="M91.417,84.953l-0.006,2.654c0.283-0.021,0.568-0.033,0.854-0.033c0.279,0,0.557,0.013,0.834,0.033
		l0.008-3.424c0-0.225-0.086-0.438-0.246-0.598c-0.158-0.16-0.372-0.248-0.598-0.248"/>
	<path style="fill:#FFFFFF;" d="M93.101,84.953l0.006,2.654c-0.283-0.021-0.568-0.033-0.854-0.033c-0.279,0-0.557,0.013-0.834,0.033
		l-0.008-3.424c0-0.225,0.086-0.438,0.246-0.598c0.158-0.16,0.372-0.248,0.598-0.248"/>
	<polygon style="fill:#FFFFFF;" points="77.575,101.957 75.012,103.647 109.509,103.647 106.949,101.957 	"/>
	<path style="fill:#FFFFFF;" d="M114.908,101.359L98.724,90.687c-2.088-1.393-4.26-2.1-6.459-2.101
		c-2.187,0.001-4.299,0.688-6.456,2.1l-16.197,10.673c-0.89,0.587-1.137,1.789-0.55,2.679c0.359,0.545,0.963,0.87,1.617,0.87
		c0.378,0,0.745-0.111,1.062-0.319l16.19-10.669c1.513-0.986,2.928-1.465,4.328-1.465c1.442,0,2.854,0.476,4.328,1.456
		l16.191,10.677c0.318,0.209,0.685,0.32,1.063,0.32c0.653,0,1.257-0.325,1.616-0.869
		C116.044,103.149,115.797,101.946,114.908,101.359"/>
	<path style="fill:#FFFFFF;" d="M143.035,84.953l-0.006,2.654c0.283-0.021,0.568-0.033,0.854-0.033c0.279,0,0.557,0.013,0.834,0.033
		l0.008-3.424c0-0.225-0.086-0.438-0.246-0.598c-0.158-0.16-0.372-0.248-0.598-0.248"/>
	<path style="fill:#FFFFFF;" d="M144.719,84.953l0.006,2.654c-0.283-0.021-0.568-0.033-0.854-0.033
		c-0.279,0-0.557,0.013-0.834,0.033l-0.008-3.424c0-0.225,0.086-0.438,0.246-0.598c0.158-0.16,0.372-0.248,0.598-0.248"/>
	<polygon style="fill:#FFFFFF;" points="129.193,101.957 126.63,103.647 161.127,103.647 158.567,101.957 	"/>
	<path style="fill:#FFFFFF;" d="M166.526,101.359l-16.184-10.672c-2.088-1.393-4.26-2.1-6.459-2.101
		c-2.187,0.001-4.299,0.688-6.456,2.1l-16.197,10.673c-0.89,0.587-1.137,1.789-0.55,2.679c0.359,0.545,0.963,0.87,1.617,0.87
		c0.378,0,0.745-0.111,1.062-0.319l16.19-10.669c1.513-0.986,2.928-1.465,4.328-1.465c1.442,0,2.854,0.476,4.328,1.456
		l16.191,10.677c0.318,0.209,0.685,0.32,1.063,0.32c0.653,0,1.257-0.325,1.616-0.869
		C167.662,103.149,167.415,101.946,166.526,101.359"/>
	<path style="fill:#FFFFFF;" d="M90.584,274.858v24.539c0,1.962,1.592,3.555,3.555,3.555h74.598v-31.649H94.139
		C92.176,271.303,90.584,272.895,90.584,274.858 M115.805,281.548H151.1c0,5.531-4.483,10.016-10.014,10.016h-15.265
		C120.29,291.564,115.805,287.079,115.805,281.548"/>
	<path style="fill:#FFFFFF;" d="M90.584,237.302v24.539c0,1.962,1.592,3.555,3.555,3.555h74.598v-31.649H94.139
		C92.176,233.747,90.584,235.339,90.584,237.302 M115.805,243.992H151.1c0,5.531-4.483,10.016-10.014,10.016h-15.265
		C120.29,254.008,115.805,249.523,115.805,243.992"/>
	<path style="fill:#FFFFFF;" d="M63.266,225.049v79.856c0,2.911,3.24,5.369,7.077,5.369h98.393v6.355c0,1.93,0.343,3.772,0.94,5.494
		H70.343c-10.435,0-18.926-7.725-18.926-17.218V63.525c0-9.493,8.491-17.216,18.926-17.216h99.361
		c-0.616,1.743-0.968,3.611-0.968,5.568v6.281H70.343c-3.837,0-7.077,2.458-7.077,5.367v12.583h105.47v4.845H63.266v77.251V225.049z
		"/>
	<path style="fill:#FFFFFF;" d="M184.808,325.987h123.351c4.945,0,8.967-4.198,8.967-9.359V51.877c0-5.159-4.022-9.354-8.967-9.354
		H184.808c-4.943,0-8.963,4.195-8.963,9.354v264.751C175.845,321.789,179.865,325.987,184.808,325.987 M187.338,163.459
		c0-3.272,2.652-5.925,5.925-5.925c3.272,0,5.924,2.653,5.924,5.925v33.809c0,3.273-2.652,5.925-5.924,5.925
		c-3.273,0-5.925-2.652-5.925-5.925V163.459z"/>
</g>
</svg>
