<?xml version="1.0" encoding="iso-8859-1"?>
<!-- Generator: Adobe Illustrator 25.4.1, SVG Export Plug-In . SVG Version: 6.00 Build 0)  -->
<svg version="1.1" id="Calque_1" xmlns="http://www.w3.org/2000/svg" xmlns:xlink="http://www.w3.org/1999/xlink" x="0px" y="0px"
	 viewBox="0 0 368.5 368.5" style="enable-background:new 0 0 368.5 368.5;" xml:space="preserve">
<g>
	<path style="fill:#FFFFFF;" d="M239.174,183.084h-12.205l-0.08,24.416c1.861-0.04,4.943-0.345,7.532-1.745
		c3.173-1.717,4.716-4.578,4.716-8.747C239.137,191.341,239.154,186.681,239.174,183.084"/>
	<polygon style="fill:#FFFFFF;" points="76.504,141.809 69.978,141.809 76.188,153.711 82.713,153.711 	"/>
	<polygon style="fill:#FFFFFF;" points="87.896,141.809 81.369,141.809 87.579,153.711 94.105,153.711 	"/>
	<path style="fill:#FFFFFF;" d="M47.26,141.933l6.145,11.777h6.529l-6.208-11.901h-5.257
		C48.055,141.809,47.651,141.853,47.26,141.933"/>
	<path style="fill:#FFFFFF;" d="M104.549,148.865v-1.5c0-1.929,0.289-3.789,0.798-5.557H92.762l6.209,11.902h6.192
		C104.777,152.155,104.549,150.538,104.549,148.865"/>
	<path style="fill:#FFFFFF;" d="M48.469,153.71h0.07l-4.902-9.396c-0.698,0.974-1.117,2.158-1.117,3.445
		C42.52,151.04,45.188,153.71,48.469,153.71"/>
	<polygon style="fill:#FFFFFF;" points="65.113,141.809 58.592,141.809 64.799,153.711 71.324,153.711 	"/>
	<path style="fill:#FFFFFF;" d="M124.679,164.678h27.265v-33.129h-27.265c-8.721,0-15.816,7.095-15.816,15.816v1.5
		C108.863,157.584,115.958,164.678,124.679,164.678"/>
	<path style="fill:#FFFFFF;" d="M322.923,237.201c3.072-5.383,3.864-11.638,2.23-17.616l-17.766-65.023
		c-2.102,15.561-14.916,27.64-31.01,28.444c-0.179,0.05-0.367,0.078-0.56,0.078h-5.318c1.978,1.402,4.148,3.095,5.354,7.503
		c1.366,5.007-0.254,7.761-1.557,9.973c-1.219,2.068-2.181,3.702-1.123,7.574c1.131,4.136,3.159,5.411,5.507,6.888
		c2.287,1.44,4.879,3.07,6.011,7.207c1.126,4.121-0.358,6.12-1.55,7.727c-1.226,1.652-2.386,3.214-0.823,8.902
		c1.779,6.515,8.381,10.561,17.23,10.561c2.946,0,6.09-0.45,9.343-1.339C314.867,246.447,319.851,242.585,322.923,237.201"/>
	<path style="fill:#FFFFFF;" d="M275.33,178.771c0.131-0.031,0.269-0.049,0.41-0.054c15.517-0.556,27.671-13.139,27.671-28.65
		v-2.257c0-15.515-12.154-28.1-27.671-28.651c-0.141-0.006-0.279-0.023-0.41-0.054h-98.15c-0.092,0.016-0.185,0.025-0.281,0.029
		c-7.953,0.283-15.433,3.865-20.642,9.859v39.887c5.209,5.999,12.688,9.582,20.642,9.862c0.096,0.003,0.191,0.013,0.285,0.029
		H275.33z M280.814,136.513l-6.706,24.142c-0.354,1.274-1.51,2.108-2.769,2.108c-0.254,0-0.514-0.036-0.771-0.106
		c-1.53-0.426-2.426-2.011-2.001-3.541l6.706-24.142c0.426-1.529,2.01-2.422,3.54-2.001
		C280.344,133.398,281.24,134.984,280.814,136.513 M254.798,159.116l6.706-24.142c0.426-1.529,2.01-2.422,3.54-2.001
		c1.531,0.425,2.426,2.011,2.001,3.54l-6.706,24.142c-0.354,1.274-1.51,2.108-2.769,2.108c-0.254,0-0.514-0.036-0.771-0.106
		C255.268,162.231,254.373,160.646,254.798,159.116 M241.029,159.116l6.706-24.142c0.426-1.529,2.01-2.422,3.54-2.001
		c1.531,0.425,2.427,2.011,2.001,3.54l-6.706,24.142c-0.354,1.274-1.51,2.108-2.769,2.108c-0.254,0-0.514-0.036-0.771-0.106
		C241.499,162.231,240.604,160.646,241.029,159.116"/>
</g>
</svg>
