<?xml version="1.0" encoding="iso-8859-1"?>
<!-- Generator: Adobe Illustrator 25.4.1, SVG Export Plug-In . SVG Version: 6.00 Build 0)  -->
<svg version="1.1" id="Calque_1" xmlns="http://www.w3.org/2000/svg" xmlns:xlink="http://www.w3.org/1999/xlink" x="0px" y="0px"
	 viewBox="0 0 368.5 368.5" style="enable-background:new 0 0 368.5 368.5;" xml:space="preserve">
<g>
	<path style="fill:#FFFFFF;" d="M288.265,176.533h-27.587c0.15,1.312,0.46,2.615,0.961,3.876l22.326,56.123
		c2.291,5.761,7.776,9.483,13.974,9.483c1.9,0,3.768-0.36,5.553-1.07l3.622-1.439c3.731-1.485,6.661-4.333,8.251-8.022
		c1.589-3.689,1.647-7.775,0.162-11.507l-19.234-48.355C293.71,176.211,291.025,176.533,288.265,176.533"/>
	<path style="fill:#FFFFFF;" d="M162.567,167.543v18.854c0.969-0.188,1.966-0.293,2.989-0.293h2.93c1.282,0,2.522,0.171,3.716,0.462
		v-19.023H162.567z"/>
	<polygon style="fill:#FFFFFF;" points="57.096,146.016 64.748,146.016 54.252,135.52 49.463,139.386 	"/>
	<polygon style="fill:#FFFFFF;" points="78.114,133.249 70.181,133.249 82.948,146.017 90.881,146.017 	"/>
	<polygon style="fill:#FFFFFF;" points="64.524,133.249 57.637,133.249 70.404,146.017 77.291,146.017 	"/>
	<polygon style="fill:#FFFFFF;" points="105.292,133.249 97.359,133.249 110.126,146.017 118.059,146.017 	"/>
	<polygon style="fill:#FFFFFF;" points="118.881,133.249 110.948,133.249 123.716,146.017 131.648,146.017 	"/>
	<polygon style="fill:#FFFFFF;" points="144.158,133.249 124.537,133.249 137.304,146.017 144.158,146.017 	"/>
	<polygon style="fill:#FFFFFF;" points="91.703,133.249 83.77,133.249 96.538,146.017 104.47,146.017 	"/>
	<rect x="149.158" y="118.809" style="fill:#FFFFFF;" width="35.286" height="43.734"/>
	<path style="fill:#FFFFFF;" d="M319.037,141.077c0-16.796-13.804-30.46-30.772-30.46h-98.821v60.916h98.821
		C305.233,171.533,319.037,157.871,319.037,141.077 M293.819,126.1c0.366-1.331,1.744-2.112,3.072-1.749
		c1.332,0.366,2.115,1.741,1.749,3.074l-6.603,24.052c-0.304,1.11-1.311,1.839-2.409,1.839c-0.219,0-0.442-0.029-0.663-0.09
		c-1.331-0.366-2.115-1.741-1.749-3.073L293.819,126.1z M285.891,124.351c1.332,0.366,2.115,1.741,1.749,3.074l-6.603,24.052
		c-0.304,1.11-1.311,1.839-2.409,1.839c-0.219,0-0.442-0.029-0.663-0.09c-1.331-0.366-2.115-1.741-1.749-3.073l6.603-24.053
		C283.184,124.769,284.562,123.988,285.891,124.351 M265.216,150.153l6.603-24.053c0.366-1.331,1.744-2.112,3.072-1.749
		c1.332,0.366,2.115,1.741,1.749,3.074l-6.603,24.052c-0.304,1.11-1.311,1.839-2.409,1.839c-0.219,0-0.442-0.029-0.663-0.09
		C265.634,152.86,264.85,151.485,265.216,150.153"/>
	<path style="fill:#FFFFFF;" d="M168.486,191.104h-2.93c-5.891,0-10.683,4.793-10.683,10.684v45.41
		c0,5.891,4.792,10.685,10.683,10.685h2.93c5.891,0,10.684-4.794,10.684-10.685v-45.41
		C179.17,195.897,174.377,191.104,168.486,191.104"/>
</g>
</svg>
