<?xml version="1.0" encoding="iso-8859-1"?>
<!-- Generator: Adobe Illustrator 25.4.1, SVG Export Plug-In . SVG Version: 6.00 Build 0)  -->
<svg version="1.1" id="Calque_1" xmlns="http://www.w3.org/2000/svg" xmlns:xlink="http://www.w3.org/1999/xlink" x="0px" y="0px"
	 viewBox="0 0 368.5 368.5" style="enable-background:new 0 0 368.5 368.5;" xml:space="preserve">
<g>
	<path style="fill:#FFFFFF;" d="M134.148,106.161v10.648h0.034c4.507,0,8.173,3.666,8.173,8.173c0,4.507-3.666,8.174-8.173,8.174
		h-0.034v11.174c3.786,0.712,6.662,4.037,6.662,8.027c0,3.99-2.876,7.315-6.662,8.027v12.212h0.035c4.506,0,8.171,3.666,8.171,8.172
		c0,4.507-3.665,8.173-8.171,8.173h-0.035v11.073h0.033c4.507,0,8.174,3.667,8.174,8.174c0,4.507-3.667,8.173-8.174,8.173h-0.033
		v13.266h0.817c4.507,0,8.174,3.666,8.174,8.172c0,4.507-3.667,8.174-8.174,8.174h-0.817v2.39c0,3.31,2.692,6.002,6.001,6.002
		s6.001-2.692,6.001-6.002V109.809L134.148,106.161z"/>
	<path style="fill:#FFFFFF;" d="M134.965,240.973c1.75,0,3.174-1.424,3.174-3.174c0-1.749-1.424-3.172-3.174-3.172h-25.489v-23.265
		h24.705c1.75,0,3.174-1.423,3.174-3.173c0-1.751-1.424-3.175-3.174-3.175h-24.705v-21.072h24.707c1.748,0,3.171-1.423,3.171-3.173
		s-1.423-3.173-3.171-3.173h-24.707V155.53h23.161c1.749,0,3.172-1.423,3.172-3.172c0-1.75-1.423-3.173-3.172-3.173h-23.161v-21.028
		h24.706c1.75,0,3.173-1.424,3.173-3.174s-1.423-3.173-3.173-3.173h-24.706V98.799h0.456l-20.873-6.346h-6.553v6.346h20.623v23.011
		H82.506v6.347h20.623v21.028H82.506v6.345h20.623v22.066H82.506v6.346h20.623v21.072H82.506v6.348h20.623v23.265H82.506v6.346
		H134.965z"/>
	<path style="fill:#FFFFFF;" d="M77.505,88.94l-11.982-3.643c-0.008,0.132-0.02,0.264-0.02,0.398v162.668
		c0,3.309,2.692,6.002,6.001,6.002c3.309,0,6.001-2.693,6.001-6.002V88.94z"/>
	<path style="fill:#FFFFFF;" d="M289.885,133.512c-0.003,0.073-0.011,0.145-0.011,0.219v1.903c3.786,0.712,6.661,4.038,6.661,8.028
		s-2.875,7.315-6.661,8.027v13.158h0.035c4.506,0,8.172,3.665,8.172,8.171c0,4.507-3.666,8.174-8.172,8.174h-0.035v11.175
		c3.786,0.712,6.661,4.037,6.661,8.025c0,3.99-2.875,7.315-6.661,8.027v12.212h0.035c4.506,0,8.171,3.666,8.171,8.173
		s-3.665,8.173-8.171,8.173h-0.035v11.072h0.033c4.507,0,8.174,3.667,8.174,8.175c0,4.507-3.667,8.173-8.174,8.173h-0.033v13.265
		h0.817c4.507,0,8.174,3.666,8.174,8.172c0,4.508-3.667,8.176-8.174,8.176h-0.817v2.389c0,3.309,2.692,6.002,6.001,6.002
		s6.001-2.693,6.001-6.002V137.157L289.885,133.512z"/>
	<path style="fill:#FFFFFF;" d="M290.691,289.01c1.75,0,3.174-1.425,3.174-3.176c0-1.749-1.424-3.172-3.174-3.172h-25.489v-23.265
		h24.705c1.75,0,3.174-1.423,3.174-3.173c0-1.751-1.424-3.175-3.174-3.175h-24.705v-21.072h24.707c1.748,0,3.171-1.423,3.171-3.173
		s-1.423-3.173-3.171-3.173h-24.707v-22.066h23.161c1.749,0,3.172-1.423,3.172-3.173c0-1.748-1.423-3.17-3.172-3.17h-23.161v-21.03
		h24.707c1.749,0,3.172-1.424,3.172-3.174c0-1.748-1.423-3.171-3.172-3.171h-24.707v-23.013h23.161c1.749,0,3.172-1.423,3.172-3.172
		c0-1.75-1.423-3.173-3.172-3.173h-27.744c-1.579,1.248-3.563,1.974-5.701,1.974c-0.905,0-1.806-0.135-2.678-0.4l-5.178-1.574
		h-8.831v6.345h20.624v23.013h-20.624v6.345h20.624v21.03h-20.624v6.343h20.624v22.066h-20.624v6.346h20.624v21.072h-20.624v6.348
		h20.624v23.265h-20.624v6.348H290.691z"/>
	<path style="fill:#FFFFFF;" d="M233.232,136.284l-11.901-3.619c-0.063,0.347-0.101,0.701-0.101,1.065v162.668
		c0,3.31,2.692,6.002,6.001,6.002s6.001-2.692,6.001-6.002V136.284z"/>
	<path style="fill:#FFFFFF;" d="M321.91,129.246L114.803,66.283c-0.402-0.122-0.813-0.183-1.226-0.183
		c-1.83,0-3.479,1.224-4.012,2.978c-0.674,2.215,0.581,4.564,2.797,5.238l4.879,1.484h25.324c4.097,0,7.43,3.332,7.43,7.428
		c0,0.843-0.147,1.65-0.407,2.406l10.421,3.168h25.998c4.097,0,7.43,3.332,7.43,7.427c0,0.913-0.173,1.783-0.475,2.591l10.328,3.14
		h25.9c4.097,0,7.43,3.332,7.43,7.429c0,0.901-0.17,1.762-0.465,2.562l9.877,3.003h26.043c4.098,0,7.431,3.332,7.431,7.429
		c0,0.916-0.175,1.791-0.48,2.602l40.441,12.294c0.4,0.121,0.812,0.184,1.224,0.184c1.83,0,3.48-1.226,4.013-2.98
		c0.327-1.072,0.216-2.207-0.313-3.197C323.864,130.297,322.982,129.572,321.91,129.246"/>
	<path style="fill:#FFFFFF;" d="M272.075,119.954h-29.314l14.831,4.509c0.325,0.098,0.64,0.218,0.949,0.349h13.534
		c1.34,0,2.43-1.089,2.43-2.429C274.505,121.044,273.415,119.954,272.075,119.954"/>
	<path style="fill:#FFFFFF;" d="M229.19,106.96h-29.171L216,111.818h13.19c1.34,0,2.43-1.09,2.43-2.429S230.53,106.96,229.19,106.96
		"/>
	<path style="fill:#FFFFFF;" d="M186.007,93.802h-29.27l15.978,4.857h13.292c1.34,0,2.43-1.089,2.43-2.429
		C188.437,94.891,187.347,93.802,186.007,93.802"/>
	<path style="fill:#FFFFFF;" d="M129.95,85.658h12.614c1.34,0,2.43-1.09,2.43-2.43c0-1.338-1.09-2.428-2.43-2.428h-28.595
		L129.95,85.658z"/>
	<path style="fill:#FFFFFF;" d="M253.695,137.279c0.4,0.121,0.812,0.184,1.224,0.184c1.83,0,3.481-1.226,4.014-2.98
		c0.326-1.072,0.215-2.207-0.313-3.197c-0.528-0.989-1.409-1.714-2.482-2.04L49.031,66.283c-0.401-0.122-0.813-0.184-1.225-0.184
		c-1.83,0-3.479,1.225-4.012,2.979c-0.673,2.215,0.581,4.564,2.796,5.238L253.695,137.279z"/>
</g>
</svg>
