<?xml version="1.0" encoding="iso-8859-1"?>
<!-- Generator: Adobe Illustrator 25.4.1, SVG Export Plug-In . SVG Version: 6.00 Build 0)  -->
<svg version="1.1" id="Calque_1" xmlns="http://www.w3.org/2000/svg" xmlns:xlink="http://www.w3.org/1999/xlink" x="0px" y="0px"
	 viewBox="0 0 368.5 368.5" style="enable-background:new 0 0 368.5 368.5;" xml:space="preserve">
<g>
	<path style="fill:#FFFFFF;" d="M96.198,275.501l1.409,1.342c8.003,7.63,16.908,14.167,26.468,19.43l3.733,2.055l-10.109,10.98
		c9.514,5.187,19.538,9.246,29.874,12.1l11.23-12.2l1.837,0.361c12.461,2.456,25.254,3.031,37.798,1.756l3.932-0.4l-0.96,14.643
		c10.539-1.184,20.837-3.516,30.694-6.951l1.042-15.892l1.894-0.805c12.206-5.182,23.542-12.283,33.697-21.104l3.089-2.685
		l7.297,12.914c7.945-7.018,15.102-14.931,21.328-23.585l-7.951-14.062l1.045-1.684c6.725-10.838,11.757-22.558,14.957-34.834
		l1.105-4.24l13.016,7.494c2.707-10.529,4.195-21.354,4.433-32.265l-14.562-8.384l-0.098-1.808
		c-0.629-11.558-2.858-23.017-6.625-34.057l-1.392-4.086l14.986-1.135c-3.519-10.164-8.238-19.959-14.067-29.191l-16.606,1.264
		l-1.098-1.482c-5.641-7.603-12.207-14.632-19.517-20.893l-3.275-2.807l12.309-8.602c-8.222-6.987-17.25-13.031-26.908-18.008
		l-13.636,9.524l-1.701-0.718c-9.566-4.049-19.644-6.905-29.954-8.495l-4.174-0.644l5.591-13.789
		c-7.025-1.05-14.062-1.581-20.973-1.581c-3.626,0-7.285,0.15-11.128,0.457l-6.167,15.213l-1.883,0.285
		c-9.789,1.479-19.466,4.148-28.762,7.934l-3.935,1.601l-2.212-14.778c-9.954,4.114-19.408,9.35-28.172,15.607l2.446,16.331
		l-1.449,1.204c-8.649,7.183-16.356,15.548-22.904,24.861l-2.377,3.383l-10.091-10.901c-6.07,8.771-11.13,18.211-15.08,28.127
		l11.052,11.934l-0.592,1.856c-3.12,9.79-5.037,20.021-5.701,30.411l-0.268,4.191l-14.276-4.262
		c-0.179,2.876-0.266,5.621-0.266,8.31c0,7.825,0.677,15.788,2.013,23.696l15.696,4.684l0.455,1.862
		c2.678,10.986,6.818,21.568,12.305,31.447l2.014,3.626l-14.215,4.284c5.245,9.285,11.532,17.963,18.74,25.864L96.198,275.501z
		 M228.66,211.335c8.483,0,15.383,6.9,15.383,15.382c0,8.483-6.9,15.383-15.383,15.383c-8.482,0-15.384-6.9-15.384-15.383
		C213.276,218.235,220.178,211.335,228.66,211.335 M185.755,152.374c17.337,0,31.441,14.102,31.441,31.436
		c0,17.337-14.104,31.442-31.441,31.442s-31.44-14.105-31.44-31.442C154.315,166.476,168.418,152.374,185.755,152.374
		 M141.887,124.558c8.481,0,15.382,6.901,15.382,15.383c0,8.484-6.901,15.385-15.382,15.385c-8.483,0-15.385-6.901-15.385-15.385
		C126.502,131.459,133.404,124.558,141.887,124.558"/>
</g>
</svg>
