<?xml version="1.0" encoding="iso-8859-1"?>
<!-- Generator: Adobe Illustrator 25.4.1, SVG Export Plug-In . SVG Version: 6.00 Build 0)  -->
<svg version="1.1" id="Calque_1" xmlns="http://www.w3.org/2000/svg" xmlns:xlink="http://www.w3.org/1999/xlink" x="0px" y="0px"
	 viewBox="0 0 368.5 368.5" style="enable-background:new 0 0 368.5 368.5;" xml:space="preserve">
<g>
	<path style="fill:#FFFFFF;" d="M214.714,96.095c3.845,0,8.228-1.969,9.768-4.39c0.717-1.125,0.755-2.227,0.125-3.577
		l-17.313-34.379c-3.834-7.433-8.643-11.22-14.277-11.22H66.652c-4.19,0-9.166,1.339-14.3,11.257L35.009,88.227
		c-0.892,1.619-0.575,2.547-0.155,3.258c1.449,2.457,6.17,4.61,10.103,4.61H214.714z M130.66,85.547
		c-25.777,0-46.673-7.276-46.673-16.258c0-8.979,20.896-16.257,46.673-16.257c25.771,0,46.669,7.278,46.669,16.257
		C177.329,78.271,156.431,85.547,130.66,85.547 M211.136,85.978c0,1.721-3.995,3.109-8.922,3.109c-4.931,0-8.926-1.388-8.926-3.109
		c0-1.715,3.995-3.107,8.926-3.107C207.141,82.871,211.136,84.263,211.136,85.978 M188.508,46.176c4.932,0,8.923,1.393,8.923,3.107
		c0,1.716-3.991,3.107-8.923,3.107c-4.928,0-8.921-1.391-8.921-3.107C179.587,47.569,183.58,46.176,188.508,46.176 M71.375,46.176
		c4.93,0,8.923,1.393,8.923,3.107c0,1.716-3.993,3.107-8.923,3.107c-4.932,0-8.923-1.391-8.923-3.107
		C62.452,47.569,66.443,46.176,71.375,46.176 M57.668,82.871c4.932,0,8.925,1.392,8.925,3.107c0,1.721-3.993,3.109-8.925,3.109
		c-4.926,0-8.921-1.388-8.921-3.109C48.747,84.263,52.742,82.871,57.668,82.871"/>
	<path style="fill:#FFFFFF;" d="M330.17,140.409H146.811c-2.51,0-4.552,2.043-4.552,4.554c0,2.51,2.042,4.552,4.552,4.552H330.17
		c2.512,0,4.555-2.042,4.555-4.552C334.725,142.452,332.682,140.409,330.17,140.409z"/>
	<path style="fill:#FFFFFF;" d="M239.312,234.28c-9.611,0-17.429,7.817-17.429,17.427c0,9.612,7.818,17.431,17.429,17.431
		c9.611,0,17.431-7.819,17.431-17.431C256.743,242.097,248.923,234.28,239.312,234.28"/>
	<path style="fill:#FFFFFF;" d="M204.249,251.161c5.013,23.59,16.811,35.555,35.065,35.555c18.821,0,29.963-11.298,35.064-35.556
		l17.808-92.338H184.87L204.249,251.161z M239.312,274.452c-12.54,0-22.744-10.203-22.744-22.745
		c0-12.54,10.204-22.742,22.744-22.742c12.542,0,22.746,10.202,22.746,22.742C262.058,264.249,251.854,274.452,239.312,274.452"/>
</g>
<path style="fill:#FFFFFF;" d="M166.524,251.707c0.008,40.128,32.663,72.78,72.792,72.787c40.122-0.007,72.774-32.659,72.789-72.788
	c-0.007-19.383-7.453-37.438-21.029-51.145l-5.118,26.537c3.983,7.531,6.094,16.026,6.109,24.605
	c-0.05,29.042-23.713,52.708-52.748,52.761c-29.044-0.053-52.712-23.719-52.765-52.755c0.016-8.336,2.023-16.622,5.809-24.006
	l-5.541-26.396C173.715,214.93,166.528,232.721,166.524,251.707z"/>
<g>
	<path style="fill:#FFFFFF;" d="M173.36,214.352v-61.837h-26.549c-4.164,0-7.552-3.388-7.552-7.552c0-4.166,3.388-7.554,7.552-7.554
		h26.549v-33.868H87.73v180.155c-0.228,0.87-0.38,1.759-0.38,2.692v10.843v7.448c0,11.554,19.776,21.315,43.184,21.315
		c23.402,0,43.172-9.761,43.172-21.315v-7.424v-7.694c-6.459-11.148-10.179-24.071-10.182-37.854
		C163.527,238.368,166.952,225.606,173.36,214.352z M166.261,292.973v8.243v3.463c0,5.586-15.002,13.87-35.727,13.87
		c-20.732,0-35.739-8.284-35.739-13.87v-3.478v-8.245c7.245,3.708,19.703,7.102,35.755,7.102
		C146.572,300.058,159.012,296.676,166.261,292.973z"/>
</g>
</svg>
