<?xml version="1.0" encoding="iso-8859-1"?>
<!-- Generator: Adobe Illustrator 25.4.1, SVG Export Plug-In . SVG Version: 6.00 Build 0)  -->
<svg version="1.1" id="Calque_1" xmlns="http://www.w3.org/2000/svg" xmlns:xlink="http://www.w3.org/1999/xlink" x="0px" y="0px"
	 viewBox="0 0 368.5 368.5" style="enable-background:new 0 0 368.5 368.5;" xml:space="preserve">
<g>
	<path style="fill:#FFFFFF;" d="M191.16,277.035c3.178,0,6.312,0.064,9.404,0.187l0.191-145.129l-18.78-0.025l-0.19,145.153
		C184.868,277.099,187.994,277.035,191.16,277.035"/>
	<polygon style="fill:#FFFFFF;" points="205.161,62.467 205.164,60.139 179.878,56.629 179.875,58.957 	"/>
	<polygon style="fill:#FFFFFF;" points="188.008,72.82 204.934,72.842 179.862,69.362 179.859,71.688 	"/>
	<polygon style="fill:#FFFFFF;" points="205.152,68.832 205.156,66.506 179.869,62.996 179.867,65.322 	"/>
	<polygon style="fill:#FFFFFF;" points="205.17,56.1 205.174,53.143 183.659,53.115 	"/>
	<path style="fill:#FFFFFF;" d="M178.51,125.064l26.27,0.033c4.685-3.894,7.355-9.556,7.363-15.7l0.022-17.37l-40.953-0.055
		l-0.022,17.372C171.182,115.485,173.836,121.154,178.51,125.064"/>
	<path style="fill:#FFFFFF;" d="M191.16,284.035c-25.105,0-46.419,3.886-62.073,9.734c3.306,2.898,4.29,7.808,2.096,11.824
		c-1.685,3.081-4.916,4.995-8.429,4.995c-1.069,0-2.121-0.178-3.129-0.528c-0.503-0.175-0.986-0.39-1.451-0.641l-0.096-0.053
		c-1.062-0.599-4.15-2.44-7.975-5.602c-4.814,3.704-7.949,7.664-9.152,11.632H281.37
		C276.598,299.651,241.492,284.035,191.16,284.035"/>
	<path style="fill:#FFFFFF;" d="M222.663,85.04c1.425,0,2.587-1.159,2.588-2.584c0.001-1.428-1.157-2.59-2.582-2.592l-61.409-0.08
		c-1.43,0-2.588,1.158-2.59,2.582c-0.001,0.693,0.267,1.343,0.755,1.832c0.487,0.489,1.137,0.759,1.828,0.76l61.407,0.082l0.003,3.5
		V85.04z"/>
	<path style="fill:#FFFFFF;" d="M116.375,186.53c0.082,2.155-0.072,4.292-0.356,6.336l5.018,1.74
		c0.756-4.67,0.897-9.994-0.51-15.568c-1.365-5.374-4.244-10.372-8.322-14.447c-4.742-4.754-11.293-8.601-19.475-11.439
		c-0.277-0.096-0.563-0.144-0.851-0.144c-1.106,0-2.094,0.703-2.457,1.75c-0.227,0.654-0.186,1.359,0.118,1.983
		c0.303,0.624,0.831,1.094,1.487,1.321c7.438,2.583,13.323,6.012,17.493,10.19C113.557,173.359,116.049,179.162,116.375,186.53"/>
	<path style="fill:#FFFFFF;" d="M110.805,294.988c5.02,4.912,9.466,7.578,10.709,8.278c0.129,0.071,0.273,0.135,0.418,0.186
		c0.255,0.088,0.537,0.136,0.822,0.136c0.954,0,1.83-0.519,2.287-1.354c0.687-1.256,0.225-2.838-1.031-3.524l-0.17-0.096
		c-2.129-1.187-9.599-6.225-15.106-13.978c-3.585-5.019-5.939-10.435-6.988-16.089c-0.938-5.107-0.837-10.288,0.278-15.694
		l-4.964-1.722c-1.439,6.557-1.538,12.942-0.288,19.054C98.639,279.34,103.361,287.684,110.805,294.988"/>
	<path style="fill:#FFFFFF;" d="M93.284,239.592c-0.233,0.672-0.19,1.396,0.12,2.035c0.311,0.641,0.852,1.122,1.524,1.355
		l13.562,4.705c1.383,0.481,2.924-0.292,3.393-1.643l13.744-39.614c0.482-1.388-0.256-2.911-1.646-3.393l-13.561-4.703
		c-0.285-0.1-0.58-0.15-0.875-0.15c-1.133,0-2.145,0.721-2.516,1.794L93.284,239.592z M106.951,237.277
		c-0.819,0-1.631-0.136-2.412-0.403c-3.881-1.327-5.96-5.569-4.633-9.452l4.647-13.57c1.031-3.012,3.861-5.035,7.044-5.035
		c0.818,0,1.628,0.135,2.409,0.401c1.882,0.645,3.4,1.984,4.275,3.769c0.875,1.786,1.002,3.806,0.358,5.686l-4.645,13.568
		C112.963,235.254,110.133,237.277,106.951,237.277"/>
	<path style="fill:#FFFFFF;" d="M114.69,214.747c-0.406-0.826-1.108-1.445-1.979-1.744c-0.361-0.123-0.737-0.186-1.114-0.186
		c-1.472,0-2.782,0.937-3.261,2.33l-4.644,13.569c-0.614,1.797,0.348,3.76,2.144,4.374c0.363,0.125,0.739,0.187,1.116,0.187
		c1.472,0,2.781-0.936,3.259-2.331l4.644-13.568C115.153,216.508,115.094,215.573,114.69,214.747"/>
</g>
</svg>
