<?xml version="1.0" encoding="iso-8859-1"?>
<!-- Generator: Adobe Illustrator 25.4.1, SVG Export Plug-In . SVG Version: 6.00 Build 0)  -->
<svg version="1.1" id="Calque_1" xmlns="http://www.w3.org/2000/svg" xmlns:xlink="http://www.w3.org/1999/xlink" x="0px" y="0px"
	 viewBox="0 0 368.5 368.5" style="enable-background:new 0 0 368.5 368.5;" xml:space="preserve">
<g>
	<path style="fill:#FFFFFF;" d="M50.952,236.394c9.535,3.405,37.037,5.146,71.246,6.602c6.335,0.268,12.899,0.528,19.623,0.787
		c10.464,0.402,20.757,1.036,30.712,1.649c11.593,0.715,22.625,1.395,31.916,1.558c1.373,0.024,2.71,0.037,4.003,0.037
		c12.186,0,17.67-1.212,20.136-2.358c1.203-0.559,1.691-1.103,1.88-1.482l0.061-0.121c0.079-0.16,0.157-0.315,0.236-0.474
		c2.338-4.678,4.49-8.99,6.467-12.965c-2.947-3.591-6.077-7.398-9.305-11.319c-2.14,4.058-4.487,8.313-6.604,12.149
		c-2.533,4.589-4.722,8.554-5.664,10.573c-1.768,3.788-6.779,4.273-10.947,4.273c-6.531,0-15.608-1.392-25.218-2.867
		c-6.711-1.029-13.649-2.094-19.295-2.574c-14.564-1.239-26.591-3.176-43.235-5.857c-4.814-0.774-10.006-1.611-15.746-2.507
		c-15.431-2.412-36.425-5.701-50.532-7.911c-2.522,3.493-3.603,6.586-3.382,8.824c0.002,0.015,0.007,0.029,0.009,0.045
		C47.44,233.634,47.955,235.326,50.952,236.394"/>
	<path style="fill:#FFFFFF;" d="M242.098,235.561c-1.655,3.321-3.419,6.857-5.309,10.636l-0.061,0.121
		c-0.342,0.684-0.769,1.318-1.289,1.903c-3.639,4.096-11.809,5.806-26.987,5.806c-10.26,0-22.933-0.78-36.35-1.608
		c-9.914-0.611-20.166-1.242-30.55-1.642c-2.823-0.109-5.608-0.217-8.353-0.325c-41.167-1.631-73.111-3.361-84.601-7.465
		c-0.437-0.156-0.859-0.326-1.266-0.511v11.06c0,0.119-0.005,0.238-0.018,0.356c-0.271,2.651,0.85,4.276,3.638,5.272
		c11.292,4.031,47.834,5.73,90.87,7.386c10.46,0.403,20.752,1.036,30.705,1.65c13.306,0.82,25.876,1.594,35.92,1.594
		c18.141,0,21.443-2.686,22.02-3.84l0.548-1.097c5.171-10.331,9.504-19.181,13.141-26.78
		C243.486,237.257,242.801,236.419,242.098,235.561"/>
	<path style="fill:#FFFFFF;" d="M102.299,224.581c5.752,0.898,10.955,1.736,15.778,2.513c16.494,2.656,28.412,4.575,42.717,5.793
		c5.88,0.5,12.937,1.583,19.762,2.63c8.928,1.37,18.16,2.786,24.156,2.786c3.147,0,4.376-0.394,4.762-0.566
		c1.099-2.289,3.249-6.185,5.721-10.664c2.567-4.651,5.484-9.937,7.9-14.633c-0.506-0.612-1.012-1.227-1.52-1.842
		c-0.082,0.149-0.166,0.302-0.248,0.451c-2.535,4.593-4.724,8.56-5.666,10.579c-1.769,3.789-6.78,4.274-10.948,4.274h-0.001
		c-1.122,0-2.324-0.044-3.587-0.119c-6.084-0.364-13.673-1.527-21.632-2.748c-5.59-0.857-11.331-1.735-16.359-2.283
		c-1.005-0.109-1.993-0.211-2.935-0.291c-6.973-0.593-13.367-1.348-19.963-2.267c-1.15-0.16-2.304-0.323-3.471-0.493
		c-0.139-0.02-0.28-0.042-0.419-0.062c-4.117-0.604-8.371-1.269-12.94-1.998c-2.075-0.332-4.211-0.676-6.433-1.034
		c-3.896-0.627-8.056-1.296-12.536-2.003c-1.06-0.167-2.12-0.334-3.219-0.505c-20.537-3.209-50.931-7.975-61.818-9.683
		c-2.58-0.404-4.068-0.638-4.068-0.638c-0.001,0-0.003-0.001-0.005-0.001c-0.268-0.04-0.627-0.095-1.034-0.172v12.187
		c0.402,0.138,1.063,0.312,2.101,0.469C36.417,214.264,76.899,220.612,102.299,224.581"/>
	<path style="fill:#FFFFFF;" d="M35.266,194.654c0.314,0.069,0.687,0.139,1.128,0.205c0.023,0.003,40.505,6.355,65.904,10.323
		c5.758,0.9,10.966,1.738,15.794,2.515c16.489,2.654,28.402,4.572,42.702,5.789c5.88,0.5,12.936,1.583,19.761,2.63
		c5.175,0.794,10.449,1.602,15.139,2.143c-0.38-0.386-0.609-0.919-0.579-1.502c0.055-1.103,0.986-1.983,2.097-1.897l7.87,0.395
		c1.103,0.054,1.953,0.994,1.898,2.097c-0.032,0.63-0.356,1.172-0.831,1.515c2.087-0.097,3.005-0.388,3.325-0.53
		c1.1-2.29,3.251-6.19,5.725-10.671c0.516-0.936,1.048-1.901,1.586-2.877c-10.33-12.522-20.618-24.961-28.23-34.156l-3.731-0.17
		c-1.103-0.051-1.957-0.986-1.906-2.089c0.05-1.104,0.982-1.945,2.089-1.907l0.103,0.005c-0.469-0.567-0.927-1.121-1.364-1.649
		c-0.137,0.931-0.916,1.664-1.89,1.706l-4.525,0.197c-0.029,0.001-0.059,0.002-0.089,0.002c-1.064,0-1.949-0.839-1.996-1.913
		c-0.049-1.103,0.807-2.037,1.911-2.085l4.525-0.197c0.061-0.001,0.12,0.01,0.179,0.015c-1.736-2.097-3.11-3.754-4.051-4.89
		c-8.945-1.071-18.928-2.203-29.962-3.395l-0.825-0.09c-14.497-1.566-32.525-1.566-39.312-1.566
		c-5.277,0-15.457,5.792-21.035,10.971c-4.48,4.16-12.616,8.672-21.229,13.448c-2.668,1.48-5.427,3.01-7.978,4.482
		c-1.73,0.998-3.854,2.138-6.103,3.345C46.919,187.24,38.362,191.834,35.266,194.654 M198.293,208.955h7.278c1.105,0,2,0.895,2,2
		c0,1.104-0.895,2-2,2h-7.278c-1.105,0-2-0.896-2-2C196.293,209.85,197.188,208.955,198.293,208.955 M129.028,174.355
		c0.115-1.097,1.096-1.882,2.198-1.78l3.737,0.393c1.099,0.115,1.895,1.099,1.78,2.198c-0.107,1.027-0.976,1.791-1.986,1.791
		c-0.071,0-0.14-0.004-0.212-0.011l-3.737-0.392C129.71,176.438,128.913,175.454,129.028,174.355 M138.098,198.203h-4.131
		c-1.105,0-2-0.896-2-2c0-1.105,0.895-2,2-2h4.131c1.105,0,2,0.895,2,2C140.098,197.307,139.203,198.203,138.098,198.203
		 M150.882,184.826c-1.015,0-1.885-0.77-1.989-1.801c-0.109-1.099,0.693-2.079,1.792-2.189c0.673-0.068,4.077-0.404,4.921-0.404
		c1.105,0,2,0.896,2,2c0,1.105-0.895,2-2,2c-0.43,0-2.638,0.196-4.523,0.384C151.015,184.823,150.948,184.826,150.882,184.826
		 M159.933,191.515h-6.098c-1.105,0-2-0.895-2-2c0-1.104,0.895-2,2-2h6.098c1.105,0,2,0.896,2,2
		C161.933,190.62,161.038,191.515,159.933,191.515 M162.856,181.786c-0.078-1.102,0.752-2.059,1.854-2.137l2.754-0.195
		c1.102-0.072,2.058,0.752,2.137,1.853c0.078,1.102-0.752,2.059-1.854,2.137l-2.754,0.195c-0.048,0.003-0.097,0.005-0.144,0.005
		C163.809,183.644,162.931,182.84,162.856,181.786 M174.294,191.055c1.105,0,2,0.896,2,2c0,1.105-0.895,2-2,2h-5.903
		c-1.104,0-2-0.895-2-2c0-1.104,0.896-2,2-2H174.294z M172.097,171.739c0.04-1.104,0.992-1.984,2.071-1.928l5.509,0.198
		c1.103,0.04,1.966,0.966,1.926,2.07c-0.038,1.08-0.925,1.929-1.997,1.929c-0.024,0-0.049,0-0.073-0.001l-5.509-0.198
		C172.921,173.769,172.058,172.843,172.097,171.739 M172.161,201.996c-0.048,1.073-0.934,1.91-1.997,1.91
		c-0.03,0-0.061-0.001-0.091-0.002l-4.329-0.195c-1.103-0.05-1.957-0.985-1.907-2.088c0.05-1.105,0.979-1.928,2.088-1.908
		l4.328,0.195C171.357,199.958,172.211,200.892,172.161,201.996 M191.243,207.219c0,1.104-0.896,2-2,2h-5.704c-1.105,0-2-0.896-2-2
		c0-1.105,0.895-2,2-2h5.704C190.347,205.219,191.243,206.114,191.243,207.219 M188.119,195.58c1.104,0.03,1.975,0.95,1.943,2.055
		c-0.029,1.085-0.919,1.944-1.997,1.944c-0.019,0-0.038,0-0.056-0.001l-7.082-0.196c-1.105-0.031-1.975-0.951-1.945-2.055
		c0.031-1.104,0.96-1.975,2.055-1.943L188.119,195.58z M181.769,190.529c-0.193,0-0.782,0-7.068-1.214
		c-1.084-0.21-1.794-1.259-1.584-2.343c0.21-1.084,1.256-1.792,2.343-1.584c2.745,0.53,5.886,1.103,6.392,1.144
		c1.105,0,1.959,0.894,1.959,1.998C183.811,189.635,182.874,190.529,181.769,190.529 M183.769,179.482c0,1.105-0.895,2-2,2
		c-0.613,0-5.081-0.178-5.589-0.199c-1.103-0.044-1.962-0.975-1.918-2.078c0.044-1.104,0.985-1.961,2.079-1.918
		c1.886,0.075,5.027,0.195,5.428,0.195C182.874,177.482,183.769,178.378,183.769,179.482 M165.276,166.427
		c0.04,1.103-0.823,2.03-1.927,2.07l-5.507,0.197c-0.024,0.001-0.049,0.001-0.073,0.001c-1.072,0-1.959-0.848-1.997-1.929
		c-0.04-1.103,0.823-2.03,1.927-2.07l5.507-0.197C164.298,164.447,165.237,165.322,165.276,166.427 M135.425,157.617l6.688-0.393
		c1.107-0.068,2.048,0.777,2.113,1.879c0.065,1.103-0.777,2.049-1.879,2.114l-6.688,0.392c-0.04,0.003-0.08,0.004-0.119,0.004
		c-1.051,0-1.932-0.82-1.995-1.883C133.48,158.628,134.322,157.681,135.425,157.617 M106.64,161.948l2.163-0.196
		c1.098-0.094,2.074,0.711,2.173,1.811c0.1,1.1-0.71,2.073-1.811,2.173l-2.164,0.196c-0.061,0.005-0.122,0.008-0.183,0.008
		c-1.023,0-1.895-0.78-1.989-1.819C104.728,163.021,105.54,162.049,106.64,161.948"/>
	<path style="fill:#FFFFFF;" d="M300.984,262.419c0.619-0.315,1.277-0.655,1.939-1.052c-11.328-1.606-23.921-12.828-32.324-23.386
		c-13.663-17.168-78.549-95.441-79.203-96.23c-0.034-0.04-0.066-0.081-0.098-0.123c-1.919-2.54-3.206-5.374-3.797-8.179
		c-2.267,2.246-4.659,4.643-6.523,6.523c-0.065,0.065-0.133,0.128-0.202,0.187c-0.075,0.066-0.149,0.133-0.219,0.201
		c-2.294,2.226-1.741,7.028,1.284,11.193c2.454,2.96,65.716,79.283,79.223,96.256c9.951,12.504,19.332,18.844,27.883,18.844
		c3.477,0,6.778-1.034,10.09-3.162C299.637,263.105,300.292,262.773,300.984,262.419"/>
	<path style="fill:#FFFFFF;" d="M267.129,118.264c-3.937-5.663-7.047-10.136-9.629-13.234c-4.372-5.249-6.629-6.324-8.671-6.324
		c-2.503,0-5.962,1.609-11.47,4.578c-1.982,1.069-5.495,3.13-9.563,5.517c-10.798,6.335-24.236,14.219-30.024,16.11
		c-1.783,0.582-2.887,1.622-3.376,3.179c-0.805,2.571,0.153,6.198,2.442,9.258c2.186,2.638,65.701,79.263,79.238,96.273
		c10.127,12.726,21.722,20.949,29.539,20.949h0.001c3.169,0,5.518-1.343,7.391-4.227c5.307-8.177,10.212-19.305,14.153-28.246
		c0.552-1.253,1.075-2.437,1.581-3.575l-4.355-5.428c-0.691-0.862-0.553-2.121,0.309-2.813c0.86-0.69,2.12-0.552,2.811,0.31
		l3.085,3.845c1.159-2.497,2.188-4.557,3.108-6.049c2.924-4.738-6.766-18.98-28.796-42.33
		C287.618,147.735,275.776,130.701,267.129,118.264 M292.97,212.078c-0.354,0.256-0.764,0.379-1.171,0.379
		c-0.62,0-1.231-0.287-1.622-0.829l-2.275-3.148c-0.647-0.895-0.445-2.146,0.449-2.792c0.895-0.647,2.146-0.448,2.793,0.45
		l2.275,3.148C294.066,210.181,293.864,211.432,292.97,212.078 M278.542,170.356c-0.369,0.297-0.812,0.44-1.25,0.44
		c-0.586,0-1.166-0.256-1.562-0.748l-3.643-4.54c-0.691-0.861-0.553-2.12,0.309-2.811c0.861-0.694,2.119-0.554,2.811,0.307
		l3.643,4.54C279.541,168.406,279.403,169.664,278.542,170.356 M252.803,173.093c0.807-0.756,2.073-0.71,2.827,0.098l3.603,3.861
		c0.754,0.808,0.709,2.073-0.099,2.826c-0.384,0.36-0.874,0.538-1.363,0.538c-0.535,0-1.069-0.214-1.463-0.635l-3.603-3.862
		C251.952,175.112,251.996,173.846,252.803,173.093 M222.912,155.76c-0.634-0.903-0.416-2.151,0.488-2.785
		c0.905-0.637,2.153-0.415,2.786,0.488l1.755,2.5c0.634,0.903,0.416,2.151-0.488,2.785c-0.35,0.246-0.751,0.364-1.148,0.364
		c-0.629,0-1.25-0.297-1.638-0.852L222.912,155.76z M252.087,198.479c-0.615,0-1.221-0.282-1.613-0.815l-5.589-7.595
		c-0.655-0.89-0.464-2.142,0.425-2.797c0.888-0.653,2.141-0.464,2.797,0.425l5.589,7.596c0.655,0.89,0.464,2.142-0.426,2.797
		C252.914,198.352,252.498,198.479,252.087,198.479 M277.532,216.648c-0.361,0.276-0.788,0.409-1.21,0.409
		c-0.603,0-1.199-0.272-1.592-0.788l-4.704-6.176c-0.67-0.879-0.5-2.134,0.379-2.803c0.878-0.671,2.132-0.5,2.802,0.379l4.704,6.176
		C278.581,214.724,278.411,215.979,277.532,216.648 M283.237,198.213c-0.369,0.297-0.811,0.441-1.25,0.441
		c-0.586,0-1.166-0.256-1.561-0.748c-0.718-0.894-3.613-5.076-3.94-5.549c-0.629-0.909-0.402-2.155,0.507-2.783
		c0.909-0.629,2.155-0.401,2.783,0.507c1.254,1.814,3.293,4.728,3.769,5.321C284.237,196.263,284.099,197.522,283.237,198.213
		 M292.292,238.207c-0.36,0.272-0.783,0.403-1.201,0.403c-0.607,0-1.207-0.276-1.6-0.797l-3.836-5.096
		c-0.664-0.883-0.488-2.137,0.394-2.801c0.883-0.665,2.137-0.487,2.801,0.395l3.836,5.095
		C293.351,236.289,293.174,237.543,292.292,238.207 M288.474,224.914c-0.713-0.843-0.607-2.105,0.237-2.818
		c0.843-0.713,2.105-0.607,2.818,0.236l5.011,5.93c0.714,0.844,0.608,2.105-0.237,2.818c-0.375,0.318-0.833,0.473-1.29,0.473
		c-0.568,0-1.132-0.241-1.527-0.709L288.474,224.914z M302.203,243.757c-0.377,0.323-0.84,0.481-1.3,0.481
		c-0.564,0-1.125-0.237-1.52-0.699l-3.969-4.633c-0.719-0.837-0.622-2.1,0.217-2.819c0.839-0.719,2.102-0.621,2.82,0.218
		l3.969,4.633C303.139,241.776,303.042,243.038,302.203,243.757 M304.002,228.815c-0.369,0.296-0.811,0.439-1.249,0.439
		c-0.587,0-1.168-0.257-1.563-0.75c-0.412-0.515-3.73-4.422-4.974-5.884c-0.716-0.841-0.615-2.103,0.227-2.819
		c0.842-0.716,2.104-0.613,2.819,0.228c0.184,0.216,4.517,5.309,5.05,5.975C305.003,226.865,304.863,228.124,304.002,228.815
		 M307.999,212.106c-0.369,0.296-0.811,0.439-1.25,0.439c-0.586,0-1.167-0.256-1.562-0.749l-5.203-6.487
		c-0.691-0.862-0.553-2.12,0.309-2.812c0.862-0.69,2.12-0.552,2.811,0.31l5.203,6.487
		C308.999,210.156,308.86,211.414,307.999,212.106 M308.489,201.766l-3.966-4.633c-0.72-0.839-0.621-2.102,0.218-2.82
		c0.839-0.717,2.101-0.62,2.82,0.218l3.967,4.633c0.718,0.839,0.62,2.102-0.219,2.821c-0.377,0.322-0.839,0.48-1.3,0.48
		C309.445,202.465,308.884,202.228,308.489,201.766 M323.699,224.383c-0.374,0.312-0.829,0.465-1.281,0.465
		c-0.573,0-1.14-0.244-1.536-0.718l-6.396-7.661c-0.708-0.849-0.595-2.109,0.253-2.817c0.848-0.708,2.109-0.595,2.817,0.252
		l6.396,7.662C324.66,222.414,324.547,223.675,323.699,224.383"/>
</g>
</svg>
