<?xml version="1.0" encoding="iso-8859-1"?>
<!-- Generator: Adobe Illustrator 25.4.1, SVG Export Plug-In . SVG Version: 6.00 Build 0)  -->
<svg version="1.1" id="Calque_1" xmlns="http://www.w3.org/2000/svg" xmlns:xlink="http://www.w3.org/1999/xlink" x="0px" y="0px"
	 viewBox="0 0 368.5 368.5" style="enable-background:new 0 0 368.5 368.5;" xml:space="preserve">
<g>
	<path style="fill:#FFFFFF;" d="M231.126,274.444c-1.259,0.712-1.026-2.669-0.017-3.687l39.985-40.104
		c0.493-0.49,1.154-0.76,1.845-0.764c0.282,0.004,0.559,0.047,0.817,0.132c0.384,0.126,0.743,0.339,1.03,0.63
		C274.786,230.651,262.701,256.569,231.126,274.444"/>
	<path style="fill:#FFFFFF;" d="M181.236,190.427c-2.847-2.847-2.847-7.505,0-10.352c2.847-2.847,7.506-2.847,10.352,0l6.319,6.318
		l14.728-14.728L91.745,50.775c-5.587-5.554-12.918-8.27-20.218-8.179l0.021-0.066c-7.105,0.091-14.182,2.844-19.594,8.274
		c-3.09,3.099-5.277,6.745-6.625,10.618c-0.148,0.422-0.314,0.839-0.441,1.266c-0.047,0.159-0.075,0.321-0.119,0.481
		c-0.67,2.406-1.036,4.881-1.056,7.361l0.027-0.01c-0.046,7.285,2.706,14.582,8.272,20.131L172.83,211.469l14.724-14.724
		L181.236,190.427z"/>
	<path style="fill:#FFFFFF;" d="M257.888,234.091l18.751-18.806c0.612-0.612,0.984-1.41,1.098-2.258
		c0.021-0.141,0.035-0.283,0.041-0.425c0.001-0.034,0.01-0.067,0.009-0.1c0.001-0.023-0.006-0.044-0.006-0.066
		c-0.001-0.419-0.06-0.837-0.193-1.238c-0.188-0.566-0.508-1.1-0.963-1.547c-6.5-6.461-14.441-10.591-22.79-12.431
		c-5.561-1.248-11.202-1.474-16.684-0.707l-13.819-13.776l-0.016,0.048l-4.549-4.519l-14.467,14.519l4.348,4.349
		c2.847,2.847,2.847,7.505,0,10.352s-7.505,2.847-10.352,0l-4.33-4.329l-14.931,14.985l4.577,4.565l-0.048,0.016l13.838,13.757
		c-0.302,2.235-0.424,4.496-0.398,6.767c0.114,11.828,4.66,23.618,13.679,32.61c0.361,0.364,0.786,0.617,1.23,0.808
		c0.074,0.035,0.146,0.073,0.222,0.103c0.034,0.011,0.064,0.033,0.099,0.044c0.042,0.015,0.088,0.012,0.131,0.025
		c0.389,0.125,0.794,0.207,1.21,0.206c1.043-0.002,2.045-0.42,2.779-1.161L257.888,234.091z"/>
	<path style="fill:#FFFFFF;" d="M256.691,321.339c-0.034,2.534,1.991,4.616,4.525,4.65c35.747,0.479,65.226-28.215,65.706-63.961
		c0.034-2.535-1.993-4.616-4.527-4.65c-2.534-0.034-4.614,1.992-4.648,4.527c-0.412,30.689-25.72,55.319-56.408,54.908
		C258.805,316.779,256.725,318.807,256.691,321.339"/>
	<path style="fill:#FFFFFF;" d="M256.944,302.463c-0.034,2.534,1.991,4.617,4.525,4.651c25.341,0.34,46.237-20.001,46.577-45.34
		c0.034-2.534-1.991-4.616-4.528-4.65c-2.534-0.034-4.614,1.993-4.648,4.527c-0.272,20.28-16.994,36.559-37.278,36.287
		C259.058,297.904,256.978,299.931,256.944,302.463"/>
	<path style="fill:#FFFFFF;" d="M261.846,279.068c-2.534-0.034-4.614,1.992-4.648,4.526c-0.034,2.531,1.991,4.614,4.525,4.648
		c14.936,0.201,27.249-11.786,27.45-26.721c0.034-2.534-1.993-4.616-4.527-4.65s-4.614,1.993-4.648,4.527
		C279.866,271.274,271.721,279.201,261.846,279.068"/>
</g>
</svg>
