<?xml version="1.0" encoding="iso-8859-1"?>
<!-- Generator: Adobe Illustrator 25.4.1, SVG Export Plug-In . SVG Version: 6.00 Build 0)  -->
<svg version="1.1" id="Calque_1" xmlns="http://www.w3.org/2000/svg" xmlns:xlink="http://www.w3.org/1999/xlink" x="0px" y="0px"
	 viewBox="0 0 368.5 368.5" style="enable-background:new 0 0 368.5 368.5;" xml:space="preserve">
<g>
	<path style="fill:#FFFFFF;" d="M130.272,311.842l181.119-181.117c-11.752-2.195-28.625-13.082-44.53-28.984
		c-10.736-10.736-19.472-22.256-24.599-32.438c-2.432-4.826-3.775-8.799-4.388-12.093L51.427,243.657
		c-3.845,3.844-4.085,11.416-0.66,20.777c3.787,10.348,11.462,21.637,21.612,31.787c14.674,14.674,31.249,23.789,43.258,23.791
		h0.003c4.291,0,7.677-1.211,10.066-3.597L130.272,311.842z M226.158,107.885c2.65-1.986,6.411-1.451,8.4,1.2
		c2.245,2.992,4.74,5.966,7.415,8.894l7.5-7.5c2.343-2.342,6.142-2.342,8.485,0.002c2.344,2.342,2.344,6.141,0,8.484l-7.507,7.508
		c2.985,2.737,6.017,5.282,9.064,7.567c2.65,1.99,3.186,5.75,1.198,8.4c-1.179,1.572-2.981,2.4-4.804,2.4
		c-1.253,0-2.517-0.39-3.597-1.201c-3.492-2.619-6.957-5.533-10.356-8.672l-7.438,7.438c-1.171,1.172-2.707,1.758-4.242,1.758
		c-1.536,0-3.071-0.586-4.243-1.758c-2.343-2.344-2.343-6.143,0-8.486l7.445-7.446c-3.077-3.342-5.941-6.75-8.519-10.187
		C222.971,113.635,223.507,109.876,226.158,107.885 M119.181,257.399l-21.206,21.205c-1.171,1.172-2.708,1.758-4.243,1.758
		c-1.535,0-3.071-0.586-4.242-1.758c-2.344-2.344-2.344-6.142,0-8.486l21.206-21.205c2.343-2.342,6.143-2.342,8.485,0.002
		C121.524,251.256,121.524,255.055,119.181,257.399"/>
	<path style="fill:#FFFFFF;" d="M249.087,48.487c-1.652,0-2.849,0.361-3.558,1.07c-1.65,1.649-1.858,6.985,2.984,16.598
		c4.802,9.533,13.075,20.414,23.298,30.637c18.793,18.791,35.816,27.349,43.679,27.349c1.651,0,2.846-0.359,3.554-1.066
		c2.402-2.404,0.886-9.947-4.892-20.082l-7.208,7.209c-0.817,0.816-2.297,1.791-4.707,1.791h-0.001
		c-7.434-0.002-19.649-9.578-27.85-17.779c-2.484-2.485-24.033-24.502-15.986-32.557l7.234-7.233
		C258.588,50.411,252.81,48.487,249.087,48.487"/>
	<path style="fill:#FFFFFF;" d="M309.544,97.702c-7.085-2.906-15.85-10.072-22.211-16.432c-1.724-1.724-12.624-12.853-16.448-22.197
		l-7.289,7.287c-0.194,2.485,4.689,11.852,15.741,22.904c10.848,10.848,19.922,15.729,22.9,15.729h0.017L309.544,97.702z"/>
	<path style="fill:#FFFFFF;" d="M276.565,53.96c0.415,3.115,5.354,11.998,15.718,22.361c10.289,10.287,18.98,15.207,22.388,15.686
		c-0.415-3.113-5.354-11.994-15.718-22.358C288.664,59.36,279.974,54.44,276.565,53.96"/>
</g>
</svg>
