<?xml version="1.0" encoding="iso-8859-1"?>
<!-- Generator: Adobe Illustrator 25.4.1, SVG Export Plug-In . SVG Version: 6.00 Build 0)  -->
<svg version="1.1" id="Calque_1" xmlns="http://www.w3.org/2000/svg" xmlns:xlink="http://www.w3.org/1999/xlink" x="0px" y="0px"
	 viewBox="0 0 368.5 368.5" style="enable-background:new 0 0 368.5 368.5;" xml:space="preserve">
<polygon style="fill:#FFFFFF;" points="186.521,186.925 213.405,170.256 213.405,140.477 186.521,157.146 "/>
<g>
	<path style="fill:#FFFFFF;" d="M217.405,138.228v29.549l24.509-15.197v-29.779l-24.53,15.21
		C217.391,138.083,217.405,138.154,217.405,138.228"/>
	<polygon style="fill:#FFFFFF;" points="186.521,191.632 186.521,219.44 241.914,185.094 241.914,157.287 	"/>
	<polygon style="fill:#FFFFFF;" points="186.521,291.146 186.521,320.098 213.405,303.143 213.405,274.477 	"/>
	<polygon style="fill:#FFFFFF;" points="241.913,224.287 186.52,258.633 186.52,286.439 241.913,252.094 	"/>
	<path style="fill:#FFFFFF;" d="M217.405,205.228v29.549l24.509-15.197v-29.779l-24.53,15.21
		C217.391,205.083,217.405,205.154,217.405,205.228"/>
	<polygon style="fill:#FFFFFF;" points="186.521,224.146 186.521,253.926 213.405,237.257 213.405,207.478 	"/>
	<path style="fill:#FFFFFF;" d="M217.383,272.011c0.008,0.072,0.021,0.144,0.021,0.218v28.392l24.509-15.457v-28.363
		L217.383,272.011z"/>
	<polygon style="fill:#FFFFFF;" points="186.521,147.831 186.521,152.438 241.914,118.094 241.914,113.101 	"/>
	<polygon style="fill:#FFFFFF;" points="181.521,291.28 126.129,256.934 126.129,285.164 181.521,320.098 	"/>
	<polygon style="fill:#FFFFFF;" points="126.129,150.741 181.521,185.087 181.521,157.279 126.129,122.934 	"/>
	<polygon style="fill:#FFFFFF;" points="151.206,133.776 151.206,128.536 126.129,112.813 126.129,118.227 	"/>
	<path style="fill:#FFFFFF;" d="M151.206,238.229c0-0.074,0.014-0.145,0.023-0.217l-25.1-15.563v29.779l25.077,15.549V238.229z"/>
	<polygon style="fill:#FFFFFF;" points="181.521,152.572 181.521,147.543 155.207,131.044 155.207,136.257 	"/>
	<polygon style="fill:#FFFFFF;" points="181.521,256.794 155.207,240.478 155.207,270.257 181.521,286.573 	"/>
	<polygon style="fill:#FFFFFF;" points="155.206,203.257 181.52,219.573 181.52,189.794 155.206,173.478 	"/>
	<path style="fill:#FFFFFF;" d="M126.129,185.228l25.077,15.549v-29.549c0-0.074,0.014-0.145,0.023-0.217l-25.1-15.562V185.228z"/>
	<polygon style="fill:#FFFFFF;" points="181.521,252.087 181.521,224.28 126.129,189.935 126.129,217.741 	"/>
	<path style="fill:#FFFFFF;" d="M184.251,140.992l64.516-40.451v-11.61l-62.658,39.286c-0.568,0.355-1.213,0.534-1.859,0.534
		c-0.645,0-1.291-0.178-1.859-0.534l-62.658-39.286v11.61L184.251,140.992z"/>
	<polygon style="fill:#FFFFFF;" points="181.99,60.113 181.99,48.702 129.842,78.793 	"/>
	<polygon style="fill:#FFFFFF;" points="185.99,120.029 242.167,84.807 185.99,64.684 	"/>
	<polygon style="fill:#FFFFFF;" points="240.983,80.135 185.99,48.402 185.99,60.436 	"/>
	<polygon style="fill:#FFFFFF;" points="181.99,64.362 125.818,84.483 181.99,119.702 	"/>
</g>
</svg>
