<?xml version="1.0" encoding="iso-8859-1"?>
<!-- Generator: Adobe Illustrator 25.4.1, SVG Export Plug-In . SVG Version: 6.00 Build 0)  -->
<svg version="1.1" id="Calque_1" xmlns="http://www.w3.org/2000/svg" xmlns:xlink="http://www.w3.org/1999/xlink" x="0px" y="0px"
	 viewBox="0 0 368.5 368.5" style="enable-background:new 0 0 368.5 368.5;" xml:space="preserve">
<g>
	<path style="fill:#FFFFFF;" d="M161.827,115.745h121.297c2.845-20.328-1.209-28.821-2.438-39.449
		c-1.224-10.623,2.438-21.364,2.438-21.364h-29.46v31.55c0,1.933-1.567,3.5-3.5,3.5s-3.5-1.567-3.5-3.5v-31.55h-84.837
		c0,0-2.392,12.376-0.758,23.001C162.704,88.558,167.081,97.871,161.827,115.745"/>
	<path style="fill:#FFFFFF;" d="M280.242,121.031H165.315c-3.842,0-6.957,3.116-6.957,6.958c0,3.837,3.115,6.948,6.957,6.948
		h114.927c3.837,0,6.947-3.111,6.947-6.948C287.189,124.147,284.079,121.031,280.242,121.031"/>
	<path style="fill:#FFFFFF;" d="M208.484,184.504h2.789v117.181c0,6.539,5.301,11.835,11.834,11.835
		c6.537,0,11.834-5.296,11.834-11.835V184.504h1.779c24.995,0,43.564-19.339,45.394-43.867H163.09
		C164.919,165.165,183.489,184.504,208.484,184.504"/>
	<path style="fill:#FFFFFF;" d="M114.65,55.484c-3.294,2.835-7.356,6.498-10.578,9.924l-1.334,1.411
		c-7.873,8.314-21.05,22.229-21.415,36.898c-0.198,8.017,1.87,15.82,3.954,21.565h35.955c0.429-0.815,0.857-1.643,1.277-2.484
		c4.979-9.96,4.149-24.69-2.166-38.439C115.719,74.294,114.716,62.928,114.65,55.484"/>
	<path style="fill:#FFFFFF;" d="M91.482,302.471c0,6.119,4.977,11.098,11.095,11.098c2.967,0,5.754-1.155,7.85-3.25
		c2.095-2.096,3.248-4.882,3.246-7.846l0.005-121.955l-22.196-0.002V302.471z"/>
	<path style="fill:#FFFFFF;" d="M84.949,161.893c0,4.322,1.536,8.389,4.343,11.622l26.934,0.004c2.814-3.234,4.35-7.291,4.35-11.626
		l0.003-29.61h-35.63V161.893z"/>
</g>
</svg>
