<?xml version="1.0" encoding="iso-8859-1"?>
<!-- Generator: Adobe Illustrator 25.4.1, SVG Export Plug-In . SVG Version: 6.00 Build 0)  -->
<svg version="1.1" id="Calque_1" xmlns="http://www.w3.org/2000/svg" xmlns:xlink="http://www.w3.org/1999/xlink" x="0px" y="0px"
	 viewBox="0 0 368.5 368.5" style="enable-background:new 0 0 368.5 368.5;" xml:space="preserve">
<g>
	<path style="fill:#FFFFFF;" d="M139.139,135.956c0.612-5.295,1.017-8.794-3.466-13.724c-8.975-9.875-18.736-5.561-18.834-5.517
		l-1.929,0.884L46.907,49.675c-6.22,7.712-5.219,18.471,1.426,26.531l60.092,71.482c0.951,5.579,1.783,12.591,2.174,21.266
		c0.254,5.56,0.801,11.297,1.608,17.12l29.908-6.453c-0.505-4.077-0.852-8.101-1.022-12.032c-0.308-6.963-0.886-13.106-1.608-18.561
		C138.262,143.823,138.726,139.531,139.139,135.956 M128.243,138.056c-1.534,1.538-3.579,2.386-5.754,2.386
		c-2.175,0-4.22-0.848-5.758-2.386c-3.17-3.176-3.17-8.338-0.002-11.512c3.083-3.079,8.444-3.075,11.515-0.001
		C131.418,129.717,131.418,134.88,128.243,138.056"/>
	<path style="fill:#FFFFFF;" d="M168.728,110.827c-8.002-0.361-14.59-1.095-19.945-1.949L76.462,48.081
		c-7.431-6.15-17.443-7.484-25.034-2.519l64.927,64.851c5.542-1.596,15.458-1.508,23.836,7.711
		c6.348,6.982,5.67,12.855,5.013,18.532c-0.113,0.977-0.224,1.964-0.304,2.971l0.397-0.397c6.26,0.955,13.581,1.716,22.066,2.088
		c4.458,0.195,9.042,0.625,13.682,1.251l6.452-29.908C181.103,111.717,174.814,111.106,168.728,110.827"/>
	<path style="fill:#FFFFFF;" d="M154.68,277.203c0.53,0.546,1.073,1.107,1.634,1.662c15.401,15.354,33.673,26.592,48.223,34.302
		c14.548,7.669,25.403,11.701,25.838,11.871c5.779,2.142,12.024,0.564,16.113-3.522c1.507-1.508,2.718-3.352,3.506-5.479
		c2.93-7.907-1.101-16.688-9.003-19.62c-0.002,0-0.047-0.018-0.297-0.115c-3.711-1.284-40.335-16.29-62.797-39.015
		c-0.415-0.417-0.84-0.848-1.266-1.293c-19.204-19.769-29.59-45.715-33.637-70.317l-29.848,6.44
		C118.147,221.193,130.567,252.143,154.68,277.203"/>
	<path style="fill:#FFFFFF;" d="M278.638,156.546c-0.556-0.568-1.117-1.11-1.662-1.637c-24.591-23.662-54.852-36.065-83.45-41.247
		l-6.437,29.846c24.109,4.235,49.344,14.573,68.678,33.351c0.444,0.427,0.875,0.85,1.29,1.266
		c22.727,22.46,37.73,59.083,39.019,62.796c0.094,0.251,0.109,0.295,0.114,0.297c2.932,7.904,11.713,11.932,19.619,9.005
		c2.126-0.787,3.972-2.002,5.476-3.506c4.091-4.092,5.665-10.336,3.522-16.117c-0.167-0.435-4.198-11.289-11.868-25.834
		C305.229,190.217,293.992,171.943,278.638,156.546"/>
</g>
</svg>
