<?xml version="1.0" encoding="iso-8859-1"?>
<!-- Generator: Adobe Illustrator 25.4.1, SVG Export Plug-In . SVG Version: 6.00 Build 0)  -->
<svg version="1.1" id="Calque_1" xmlns="http://www.w3.org/2000/svg" xmlns:xlink="http://www.w3.org/1999/xlink" x="0px" y="0px"
	 viewBox="0 0 368.5 368.5" style="enable-background:new 0 0 368.5 368.5;" xml:space="preserve">
<g>
	<path style="fill:#FFFFFF;" d="M146.224,170.868c32.841,12.12,36.639,14.012,36.74,18.311c1.731-0.528,3.564-0.816,5.465-0.816
		h1.009c1.489,0,2.93,0.19,4.319,0.52c-0.294-12.087-7.833-14.871-43.794-28.145c-30.869-11.394-31.944-12.88-31.946-17.93
		c0.002-0.076,0.134-7.697,0.131-15.636c0-3.867,0.705-6.531,2.095-7.921c0.309-0.309,0.683-0.577,1.115-0.807V107.16
		c-3.543,0.716-6.482,2.194-8.744,4.452c-3.543,3.537-5.265,8.628-5.263,15.564c0.003,7.839-0.128,15.368-0.13,15.539
		C107.221,156.472,116.264,159.81,146.224,170.868"/>
	<path style="fill:#FFFFFF;" d="M189.438,192.991h-1.009c-7.806,0-14.156,6.35-14.156,14.156v55.667
		c0,7.803,6.35,14.152,14.156,14.152h1.009c7.806,0,14.156-6.349,14.156-14.152v-55.667
		C203.594,199.341,197.244,192.991,189.438,192.991"/>
	<path style="fill:#FFFFFF;" d="M125.985,124.061c0,3.704,2.758,6.718,6.148,6.718h123.009c3.386,0,6.141-3.014,6.141-6.718V98.283
		c0-3.704-2.755-6.719-6.141-6.719H132.133c-3.39,0-6.148,3.015-6.148,6.719V124.061z M159.02,95.175h89.194
		c2.13,0,3.856,1.726,3.856,3.856s-1.726,3.856-3.856,3.856H159.02c-2.13,0-3.856-1.726-3.856-3.856S156.89,95.175,159.02,95.175"/>
</g>
</svg>
