<?xml version="1.0" encoding="iso-8859-1"?>
<!-- Generator: Adobe Illustrator 25.4.1, SVG Export Plug-In . SVG Version: 6.00 Build 0)  -->
<svg version="1.1" id="Calque_1" xmlns="http://www.w3.org/2000/svg" xmlns:xlink="http://www.w3.org/1999/xlink" x="0px" y="0px"
	 viewBox="0 0 368.5 368.5" style="enable-background:new 0 0 368.5 368.5;" xml:space="preserve">
<g>
	<path style="fill:#FFFFFF;" d="M256.366,273.382c4.978-2.756,10.466-2.407,14.47-1.496c-0.708-3.611-0.947-7.451,0.233-11.31
		c-2.708-2.924-13.95-15.001-29.521-30.803c-7.721-7.836-14.164-14.828-19.848-20.996c-7.407-8.039-13.258-14.388-17.82-18.038
		c-8.188-6.548-17.212-20.017-17.592-20.587c-0.46-0.69-0.274-1.621,0.416-2.081c0.688-0.459,1.62-0.274,2.08,0.416
		c0.091,0.136,9.147,13.653,16.97,19.911c4.74,3.791,10.659,10.213,18.152,18.345c5.668,6.152,12.093,13.123,19.778,20.924
		c14.188,14.398,24.787,25.708,28.638,29.85c0.067-0.128,0.128-0.257,0.198-0.386c1.693-3.079,5.45-5.38,8.226-6.215
		c1.009-0.303,2.054-0.499,3.112-0.608L82.582,49.03c-0.071-0.072-0.146-0.14-0.223-0.204c-0.398-0.467-0.809-0.914-1.23-1.338
		c-2.382-2.379-5.204-4.153-8.276-5.295c2.368,2.617,5.159,6.359,8.234,11.706c8.523,14.826,20.324,25.009,28.941,32.445
		l0.684,0.591c8.418,7.269,16.944,15.016,17.029,15.093c0.613,0.558,0.658,1.507,0.102,2.12c-0.297,0.326-0.704,0.491-1.111,0.491
		c-0.36,0-0.721-0.129-1.009-0.39c-0.085-0.077-8.584-7.8-16.972-15.045l-0.684-0.589c-8.284-7.149-20.803-17.953-29.582-33.22
		c-4.863-8.458-8.922-12.588-11.467-14.566c-0.752-0.072-1.51-0.11-2.275-0.11c-3.624,0-7.123,0.823-10.293,2.373
		c8.533,10.281,45.678,54.608,64.734,70.372c23.304,19.275,44.937,40.811,59.351,59.085c14.812,18.781,26.892,28.273,27.013,28.367
		c0.653,0.509,0.77,1.451,0.261,2.105c-0.296,0.379-0.738,0.579-1.184,0.579c-0.323,0-0.647-0.104-0.92-0.317
		c-0.502-0.39-12.466-9.782-27.526-28.877c-14.289-18.115-35.759-39.485-58.907-58.629C97.757,99.633,59.688,54.111,51.805,44.604
		c-1.312,0.87-2.549,1.877-3.69,3.017c-3.132,3.131-5.269,6.99-6.263,11.187c11.069,9.865,54.348,48.317,87.52,76.153
		c22.142,18.581,30.368,29.905,38.323,40.857c6.163,8.483,11.984,16.497,23.848,27.784c27.454,26.122,60.073,53.121,60.4,53.39
		c0.638,0.528,0.728,1.474,0.2,2.113c-0.297,0.358-0.725,0.544-1.157,0.544c-0.336,0-0.675-0.113-0.955-0.344
		c-0.326-0.271-33.027-27.336-60.557-53.53c-12.061-11.475-18.235-19.975-24.206-28.195c-7.848-10.805-15.964-21.976-37.824-40.32
		c-31.907-26.774-73.142-63.351-86.146-74.928c-0.048,0.598-0.08,1.198-0.083,1.804c-0.029,6.241,2.377,12.1,6.774,16.498
		c0.443,0.441,0.916,0.875,1.412,1.294c0.044,0.05,0.09,0.098,0.138,0.145l200.814,200.814c0.094-0.696,0.217-1.39,0.405-2.068
		C251.671,277.521,253.662,274.879,256.366,273.382"/>
	<path style="fill:#FFFFFF;" d="M282.184,255.705c-2.133,0.642-4.453,2.325-5.281,3.833c-2.517,4.586-1.73,9.525-0.494,14.258
		l50.877,49.717c-0.073-0.323-0.183-0.639-0.35-0.939l-36.701-65.703c-0.157-0.281-0.353-0.54-0.581-0.768l-0.396-0.395
		C286.87,255.05,284.404,255.038,282.184,255.705"/>
	<path style="fill:#FFFFFF;" d="M273.473,277.917c-0.035-0.012-0.071-0.012-0.105-0.025c-2.589-1.036-9.189-3.118-14.581-0.136
		c-1.947,1.078-2.821,2.986-3.211,4.397c-0.545,1.969-0.49,4.15,0.104,6.061l0.933,0.932c0.214,0.215,0.455,0.401,0.717,0.553
		l64.793,37.61c0.548,0.317,1.154,0.472,1.756,0.472c0.19,0,0.378-0.023,0.566-0.053L273.473,277.917z"/>
</g>
</svg>
