<?xml version="1.0" encoding="iso-8859-1"?>
<!-- Generator: Adobe Illustrator 25.4.1, SVG Export Plug-In . SVG Version: 6.00 Build 0)  -->
<svg version="1.1" id="Calque_1" xmlns="http://www.w3.org/2000/svg" xmlns:xlink="http://www.w3.org/1999/xlink" x="0px" y="0px"
	 viewBox="0 0 368.5 368.5" style="enable-background:new 0 0 368.5 368.5;" xml:space="preserve">
<g>
	<path style="fill:#FFFFFF;" d="M97.117,234.363c23.959,8.257,55.29,12.803,88.222,12.803c32.931,0,64.262-4.546,88.221-12.803
		c6.307-2.173,11.522-4.406,15.822-6.618c-20.235-14.954-59.228-25.086-104.043-25.086s-83.809,10.132-104.045,25.086
		C85.595,229.957,90.81,232.19,97.117,234.363"/>
	<path style="fill:#FFFFFF;" d="M327.069,211.537c0-36.721-73.022-56.537-141.73-56.537c-10.002,0-20.094,0.424-30.04,1.255v16.115
		c9.564-0.828,19.6-1.29,30.04-1.29c60.679,0,108.411,15.206,121.848,31.431c2.489,3.001,3.802,6.041,3.802,9.026
		c0,2.982-1.313,6.024-3.802,9.026c-13.437,16.222-61.169,31.427-121.848,31.427c-60.681,0-108.415-15.205-121.849-31.427
		c-2.492-3.002-3.805-6.044-3.805-9.026c0-2.985,1.313-6.025,3.805-9.026c5.328-6.442,16.089-12.715,30.893-17.945v-16.975
		c-29.913,9.526-50.779,24.318-50.779,43.946c0,36.719,73.027,56.534,141.735,56.534S327.069,248.256,327.069,211.537"/>
	<path style="fill:#FFFFFF;" d="M116.895,178.184c5.041-1.135,10.349-2.158,15.893-3.051v-16.248
		c-5.417,0.824-10.731,1.776-15.893,2.856V178.184z"/>
	<path style="fill:#FFFFFF;" d="M58.077,177.621c3.555,0,6.432-2.88,6.432-6.432v-40.504c0-9.565,7.786-17.347,17.352-17.347
		c9.563,0,17.346,7.782,17.346,17.347v71.975c0,3.552,2.876,6.432,6.432,6.432c3.549,0,6.432-2.88,6.432-6.432v-71.975
		c0-16.66-13.554-30.212-30.21-30.212c-16.663,0-30.216,13.552-30.216,30.212v40.504C51.645,174.741,54.528,177.621,58.077,177.621"
		/>
	<path style="fill:#FFFFFF;" d="M113.83,106.905c0,3.552,2.88,6.432,6.432,6.432c9.567,0,17.349,7.783,17.349,17.348v62.964
		c0,3.55,2.88,6.432,6.432,6.432s6.432-2.882,6.432-6.432v-62.964c0-16.66-13.553-30.212-30.213-30.212
		C116.71,100.473,113.83,103.354,113.83,106.905"/>
</g>
</svg>
