<?xml version="1.0" encoding="iso-8859-1"?>
<!-- Generator: Adobe Illustrator 25.4.1, SVG Export Plug-In . SVG Version: 6.00 Build 0)  -->
<svg version="1.1" id="Calque_1" xmlns="http://www.w3.org/2000/svg" xmlns:xlink="http://www.w3.org/1999/xlink" x="0px" y="0px"
	 viewBox="0 0 368.5 368.5" style="enable-background:new 0 0 368.5 368.5;" xml:space="preserve">
<g>
	<path style="fill:#FFFFFF;" d="M289.181,160.407H83.701c-4.894,0-9.375,2.764-11.57,7.144c-2.196,4.378-1.733,9.62,1.198,13.546
		c12.859,17.229,29.745,31.509,48.823,41.298c19.737,10.127,41.966,15.481,64.283,15.481c22.322,0,44.551-5.354,64.292-15.481
		c19.08-9.789,35.961-24.069,48.827-41.294c2.931-3.929,3.396-9.171,1.198-13.55C298.559,163.171,294.078,160.407,289.181,160.407
		 M186.435,223.035c-33.688,0-64.594-15.515-84.783-42.565c-1.081-1.448-0.785-3.496,0.662-4.575
		c1.445-1.079,3.488-0.78,4.573,0.665c18.948,25.383,47.941,39.944,79.548,39.944c1.804,0,3.269,1.458,3.269,3.266
		C189.704,221.572,188.239,223.035,186.435,223.035"/>
	<path style="fill:#FFFFFF;" d="M53.421,152.41h261.685c6.014,0,10.892-4.869,10.892-10.885c0-6.014-4.878-10.89-10.892-10.89
		H53.421c-6.014,0-10.888,4.876-10.888,10.89C42.533,147.541,47.407,152.41,53.421,152.41"/>
</g>
</svg>
