<?xml version="1.0" encoding="iso-8859-1"?>
<!-- Generator: Adobe Illustrator 25.4.1, SVG Export Plug-In . SVG Version: 6.00 Build 0)  -->
<svg version="1.1" id="Calque_1" xmlns="http://www.w3.org/2000/svg" xmlns:xlink="http://www.w3.org/1999/xlink" x="0px" y="0px"
	 viewBox="0 0 368.5 368.5" style="enable-background:new 0 0 368.5 368.5;" xml:space="preserve">
<g>
	<path style="fill:#FFFFFF;" d="M73.608,210.805c3.494-6.158,20.154-35.705,28.474-53.691c5.353-11.567-1.698-22.288-7.796-28.741
		l-49.5,82.432H73.608z"/>
	<path style="fill:#FFFFFF;" d="M106.002,158.928c-7.653,16.549-22.262,42.717-27.431,51.877h22.568
		c1.629-5.475,6.773-19.906,18.757-32.856c14.34-15.503,33.551-43.287,33.743-43.566c0.677-0.98,2.021-1.232,3.004-0.553
		c0.984,0.678,1.231,2.024,0.553,3.006c-0.194,0.281-19.58,28.321-34.126,44.047c-10.457,11.303-15.488,24.078-17.389,29.922h57.604
		l10.956-94.262h-3.691c0.186,6.739-0.468,20.787-7.532,35.291c-9.196,18.879-13.916,43.528-13.962,43.774
		c-0.196,1.039-1.101,1.759-2.12,1.759c-0.134,0-0.269-0.011-0.404-0.037c-1.173-0.222-1.943-1.351-1.721-2.523
		c0.194-1.033,4.876-25.469,14.32-44.863c6.648-13.649,7.235-27.161,7.077-33.401h-5.649c-5.106,9.547-22.177,39.149-38.009,40.069
		c-0.234,0.015-0.464,0.021-0.683,0.021c-3.435,0-5.032-1.607-5.773-3.004c-3.718-7.017,8.453-26.055,16.276-37.086h-30.98
		l-4.819,8.026C103.605,131.758,112.623,144.617,106.002,158.928"/>
	<path style="fill:#FFFFFF;" d="M122.3,152.299c11.637-0.68,26.233-22.859,33.356-35.756h-17.96
		c-10.663,14.678-19.888,31.088-17.785,35.063C120.196,152.139,121.002,152.361,122.3,152.299"/>
	<path style="fill:#FFFFFF;" d="M236.765,159.668c-3.205-0.233-4.346,0.955-4.922,1.854c-4.721,7.378,6.585,34.06,14.881,49.283
		h48.069C285.109,198.316,254.651,160.875,236.765,159.668"/>
	<path style="fill:#FFFFFF;" d="M262.593,116.543h-35.108c1.348,3.971,5.429,11.467,17.851,21.455
		c20.127,16.193,47.974,44.199,48.252,44.483c0.84,0.845,0.836,2.212-0.012,3.054c-0.42,0.416-0.971,0.627-1.521,0.627
		c-0.556,0-1.113-0.215-1.535-0.64c-0.276-0.278-27.954-28.116-47.894-44.157c-14.383-11.566-18.533-20.242-19.698-24.822h-16.606
		c-0.63,3.422-0.998,11.354,4.741,23.76c8.567,18.519,9.584,43.578,9.622,44.635c0.044,1.193-0.886,2.195-2.078,2.238
		c-0.028,0.002-0.055,0.002-0.083,0.002c-1.156,0-2.114-0.914-2.156-2.08c-0.011-0.25-1.03-25.26-9.225-42.981
		c-5.798-12.529-5.876-21.068-5.203-25.574h-9.219l12.323,94.262h36.781c-4.902-9.323-20.516-40.832-13.625-51.612
		c1.239-1.937,3.761-4.168,8.856-3.837c21.515,1.454,56.505,46.574,63.189,55.449h25.016L262.593,116.543z"/>
	<polygon style="fill:#FFFFFF;" points="163.18,243.07 163.18,251.957 42.517,251.957 42.517,217.689 163.176,217.689 
		163.176,225.549 	"/>
	<polygon style="fill:#FFFFFF;" points="325.983,243.07 325.983,251.957 205.32,251.957 205.32,217.689 325.979,217.689 
		325.979,225.549 	"/>
	<polygon style="fill:#FFFFFF;" points="202.223,251.779 202.223,210.791 190.27,119.08 191.325,158.601 	"/>
	<polygon style="fill:#FFFFFF;" points="166.736,251.779 166.736,210.791 176.579,119.08 175.524,158.601 	"/>
</g>
</svg>
