<?xml version="1.0" encoding="iso-8859-1"?>
<!-- Generator: Adobe Illustrator 25.4.1, SVG Export Plug-In . SVG Version: 6.00 Build 0)  -->
<svg version="1.1" id="Calque_1" xmlns="http://www.w3.org/2000/svg" xmlns:xlink="http://www.w3.org/1999/xlink" x="0px" y="0px"
	 viewBox="0 0 368.5 368.5" style="enable-background:new 0 0 368.5 368.5;" xml:space="preserve">
<g>
	<path style="fill:#FFFFFF;" d="M111.253,207.271c39.952-2.271,102.017-1.688,151.616-0.927c28.953,0.444,50.589,0.235,63.122,0.003
		v-3.753c-25.373,0.274-78.135,0.21-134.824-3.663c-57.794-3.948-71.952-8.243-75.399-10.233h-22.18
		c9.969,2.556,29.964,8.471,21.073,12.866c-7.523,3.727-45.145,5.788-72.129,6.807v1.945c0,0.007,0.005,0.014,0.005,0.021
		c0.145,0,0.295,0,0.451,0l36.026,0.001C84.841,209.344,94.633,208.217,111.253,207.271"/>
	<path style="fill:#FFFFFF;" d="M91.708,210.339l234.283,0.005v-3.117c-14.152,0.235-36.46,0.399-65.402-0.045
		c-43.572-0.669-105.737-1.317-142.464,0.771C105.325,208.68,97.063,209.541,91.708,210.339"/>
	<path style="fill:#FFFFFF;" d="M103.408,201.437c8.713-4.322-12.511-10.393-21.741-12.738h-39.14l0.006,18.688
		C66.714,206.381,97.168,204.527,103.408,201.437"/>
	<path style="fill:#FFFFFF;" d="M274.635,192.36c15.658,1.081,37.027,1.156,51.356,1.05v-4.712h-65.919
		C257.915,189.598,257.414,191.171,274.635,192.36"/>
	<path style="fill:#FFFFFF;" d="M266.928,192.989c-15.38-1.061-19.306-2.355-19.306-3.399c0-0.328,0.406-0.628,0.951-0.892h-35.375
		c2.58,1.34,10.32,4.044,32.133,5.621c22.214,1.607,62.288,1.69,80.66,1.633v-1.681
		C309.493,194.382,285.394,194.264,266.928,192.989"/>
	<path style="fill:#FFFFFF;" d="M237.425,194.934c-25.183-1.821-33.29-4.837-35.771-6.236h-74.192
		c3.754,1.904,17.827,5.944,71.368,9.601c54.275,3.709,104.925,3.679,127.161,3.424v-4.913
		C305.751,196.874,262.752,196.767,237.425,194.934"/>
	<path style="fill:#FFFFFF;" d="M133.146,178.288c0.482,0.485,3.154,0.34,6.333-1.655c1.959-1.229,20.889-16.069,23.221-17.699
		h-8.578c-1.058,1.116-18.658,15.558-19.95,17.092C132.985,177.435,132.982,178.121,133.146,178.288"/>
	<path style="fill:#FFFFFF;" d="M143.949,185.36h-27.297c1.224-1.298,2.913-3.008,5.001-4.925c2.3-2.11,3.886-3.352,5.161-4.351
		c1.3-1.018,2.326-1.822,3.471-3.044c0.279-0.297,16.621-13.83,16.328-14.106h5.38c-0.843,0.916-18.132,15.04-19.081,16.166
		c-1.086,1.289-1.454,2.249-1.454,2.958c0,0.56,0.229,0.963,0.512,1.248c1.528,1.537,5.47,0.41,8.403-1.43
		c2.478-1.554,22.264-17.014,24.992-18.942h14.38l-17.173,15.477c-0.128,0.035-10.294,10.861-10.394,10.957L143.949,185.36z"/>
</g>
<g>
	<path style="fill:#FFFFFF;" d="M72.392,170.606c-0.273,0.325-0.423,0.561-0.506,0.72c0.547-0.037,1.78-0.215,3.328-1.187
		c0.713-0.447,5.248-3.98,9.249-7.097c2.08-1.621,3.977-3.098,5.291-4.108h-3.763c-0.754,0.67-2.474,2.124-4.966,4.226
		C77.583,166.064,72.869,170.041,72.392,170.606z"/>
	<path style="fill:#FFFFFF;" d="M91.696,158.934c-1.095,0.817-3.734,2.873-6.511,5.036c-4.22,3.287-8.583,6.686-9.347,7.165
		c-1.396,0.876-2.883,1.371-3.914,1.371c-0.482,0-0.865-0.108-1.092-0.336l-0.004-0.004c-0.259-0.264-0.516-0.917,0.664-2.318
		c0.503-0.596,3.954-3.521,8.774-7.587c1.445-1.219,2.906-2.452,3.929-3.327H76.81c-0.815,0.016-1.292,0.301-1.969,0.766
		l-32.315,25.66h72c1.241-1.361,3.276-3.49,6.003-5.992c2.345-2.151,3.957-3.415,5.253-4.43s18.602-14.84,19.665-15.975
		c0.012-0.012,0.029-0.017,0.041-0.029H91.696z"/>
</g>
<g>
	<path style="fill:#FFFFFF;" d="M293.304,170.139c1.539,0.967,2.762,1.187,3.319,1.187h0.009c-0.082-0.159-0.232-0.396-0.507-0.72
		c-0.477-0.566-5.198-4.548-8.646-7.457c-2.485-2.097-4.201-3.547-4.953-4.215h-3.763c1.313,1.01,3.211,2.487,5.291,4.108
		C288.056,166.159,292.591,169.692,293.304,170.139z"/>
	<path style="fill:#FFFFFF;" d="M293.676,159.7c-0.677-0.465-1.153-0.75-1.969-0.766h-7.385c1.021,0.873,2.477,2.102,3.917,3.316
		c4.827,4.072,8.283,7.001,8.786,7.597c1.182,1.403,0.922,2.056,0.662,2.32l-0.002,0.003c-0.228,0.228-0.61,0.336-1.092,0.336
		c-1.031,0-2.519-0.495-3.914-1.371c-0.764-0.479-5.127-3.878-9.348-7.166c-2.776-2.163-5.416-4.219-6.51-5.036h-45.228
		c0.249,1.221,0.988,4.248,1.709,7.199c1.597,6.532,2.729,11.237,2.762,12.292c0.07,2.248-0.529,2.924-1.045,3.096l-0.003,0.001
		c-0.112,0.037-0.232,0.055-0.358,0.055c-1.197,0-2.952-1.647-4.041-4.682c-0.626-1.743-4.086-13.3-5.223-17.098l-0.259-0.863
		h-51.574c0.012,0.012-0.012,0.017,0,0.029l-26.347,26.397h178.777L293.676,159.7z"/>
	<path style="fill:#FFFFFF;" d="M234.405,179.902c0.062-0.25,0.124-0.692,0.102-1.428c-0.03-0.974-1.584-7.331-2.719-11.971
		c-0.854-3.497-1.454-5.964-1.706-7.187l-3.158,0.161c1.171,3.911,4.554,15.207,5.159,16.892
		C232.848,178.5,233.875,179.563,234.405,179.902z"/>
</g>
</svg>
