<?xml version="1.0" encoding="iso-8859-1"?>
<!-- Generator: Adobe Illustrator 25.4.1, SVG Export Plug-In . SVG Version: 6.00 Build 0)  -->
<svg version="1.1" id="Calque_1" xmlns="http://www.w3.org/2000/svg" xmlns:xlink="http://www.w3.org/1999/xlink" x="0px" y="0px"
	 viewBox="0 0 368.5 368.5" style="enable-background:new 0 0 368.5 368.5;" xml:space="preserve">
<g>
	<path style="fill:#FFFFFF;" d="M329.652,201.553c-0.047-0.157-0.108-0.305-0.182-0.448c-0.026-0.046-0.049-0.093-0.076-0.138
		c-0.106-0.171-0.225-0.335-0.367-0.476c-0.008-0.009-0.02-0.016-0.028-0.024c-0.14-0.133-0.297-0.247-0.465-0.345
		c-0.021-0.014-0.039-0.034-0.062-0.047l-92.592-50.95v7.207c0.002,2.213-0.926,4.128-2.611,5.39
		c-1.407,1.054-3.27,1.612-5.389,1.612c-4.785,0-8-2.814-8-7.002V140.32l-32.264-17.753c-1.093,2.635-3.824,4.276-7.474,4.276
		c-4.785,0-8.002-2.813-8.002-7l-0.004-0.604c-0.004-0.367-0.008-0.829-0.01-1.351c0.004-1.134,0.029-2.409,0.102-3.79l-9.18-5.05
		c-0.629-0.346-1.379-0.407-2.053-0.162L40.386,152.367c-0.016,0.006-0.027,0.016-0.043,0.022c-0.19,0.073-0.369,0.164-0.535,0.278
		c-0.024,0.017-0.045,0.04-0.069,0.057c-0.134,0.102-0.257,0.216-0.369,0.342c-0.039,0.043-0.074,0.086-0.107,0.131
		c-0.1,0.128-0.188,0.266-0.26,0.413c-0.016,0.032-0.037,0.062-0.053,0.096c-0.08,0.181-0.138,0.375-0.173,0.576
		c-0.002,0.014-0.01,0.025-0.012,0.039c-0.006,0.035,0.002,0.069-0.002,0.105c-0.012,0.096-0.029,0.192-0.029,0.292v16.353
		c0,0.768,0.351,1.493,0.957,1.967l147.218,115.487c0.45,0.353,0.994,0.533,1.543,0.533c0.375,0,0.75-0.084,1.1-0.255
		l138.814-67.941c0.858-0.419,1.401-1.291,1.401-2.245v-16.352c0-0.2-0.03-0.391-0.074-0.577
		C329.683,201.641,329.665,201.598,329.652,201.553 M259.677,202.01c-0.4,9.526-7.049,17.984-18.719,23.818
		c-0.092,0.046-0.185,0.088-0.277,0.134c-5.358-0.543-31.6-4.243-56.959-26.021c-28.147-24.171-33.131-55.081-33.178-55.389
		c-0.205-1.364-1.473-2.3-2.844-2.101c-1.365,0.205-2.304,1.478-2.101,2.844c0.201,1.335,5.248,33.006,34.865,58.439
		c20.061,17.227,40.373,23.612,51.76,25.962c-13.039,5.085-27.651,7.924-41.322,7.924c-16.581,0-30.895-4.115-41.395-11.9
		c-28.391-21.047-51.082-38.372-63.893-48.782c-3.117-2.532-4.345-5.978-3.654-10.242c1.678-10.321,13.848-22.214,28.313-27.663
		c10.595-3.993,22.179-6.104,33.498-6.104c14.213,0,27.322,3.323,37.906,9.608c0.545,0.324,54.648,32.503,68.252,40.797
		C256.167,187.137,259.993,194.468,259.677,202.01 M43.734,159.857l142.439,111.737v9.998L43.734,169.855V159.857z M191.173,282.444
		v-10.787l133.594-65.385v10.785L191.173,282.444z"/>
	<path style="fill:#FFFFFF;" d="M201.206,168.678c-3.779,0-6.738,5.754-6.738,13.1c0,7.345,2.959,13.1,6.738,13.1
		c3.775,0,6.734-5.755,6.734-13.1C207.94,174.432,204.981,168.678,201.206,168.678"/>
	<path style="fill:#FFFFFF;" d="M180.142,121.844c1.367,0,3-0.347,3-2l-0.006-0.794c-0.006-0.352-0.01-0.736-0.01-1.167
		c-0.013-4.153,0.432-10.302,2.639-15.952c1.902-4.746,5.533-11.438,15.148-14.99c2.737-0.995,5.301-1.498,7.635-1.501
		c2.838,0.017,5.184,0.689,7.405,2.115c2.791,1.794,5.207,4.975,6.806,8.955c1.584,3.881,2.135,7.933,2.121,10.425v49.397
		c0,1.655,1.631,2.002,3,2.002s3.002-0.347,3.002-2.002l-0.002-49.412c-0.037-5.832-1.765-12.05-4.74-17.042
		c-1.875-3.103-4.199-5.577-6.896-7.34c-3.081-2.027-6.748-3.096-10.614-3.096c-3.113,0-6.367,0.624-9.748,1.853
		c-11.797,4.212-16.781,13.368-18.703,18.452c-2.703,7.003-3.037,13.709-3.053,18.145l0.014,1.952
		C177.14,121.497,178.773,121.844,180.142,121.844"/>
</g>
</svg>
