<?xml version="1.0" encoding="iso-8859-1"?>
<!-- Generator: Adobe Illustrator 25.4.1, SVG Export Plug-In . SVG Version: 6.00 Build 0)  -->
<svg version="1.1" id="Calque_1" xmlns="http://www.w3.org/2000/svg" xmlns:xlink="http://www.w3.org/1999/xlink" x="0px" y="0px"
	 viewBox="0 0 368.5 368.5" style="enable-background:new 0 0 368.5 368.5;" xml:space="preserve">
<g>
	<path style="fill:#FFFFFF;" d="M239.181,175.577v88.011c2.295-0.511,4.676-0.789,7.121-0.789c2.178,0,4.304,0.217,6.363,0.626
		v-87.848H239.181z"/>
	<path style="fill:#FFFFFF;" d="M213.542,295.559c0-2.032,0.195-4.019,0.551-5.949h-80.666v13.484h81
		C213.854,300.673,213.542,298.153,213.542,295.559"/>
	<path style="fill:#FFFFFF;" d="M314.459,140.39h-45.872c0.021,0.328,0.05,0.654,0.05,0.987v12.498h45.822
		c3.718,0,6.743-3.024,6.743-6.742S318.177,140.39,314.459,140.39"/>
	<path style="fill:#FFFFFF;" d="M54.041,153.875h43.308v-12.498c0-0.333,0.027-0.659,0.049-0.987H54.041
		c-3.718,0-6.743,3.025-6.743,6.743C47.298,150.85,50.323,153.875,54.041,153.875"/>
	<path style="fill:#FFFFFF;" d="M128.427,175.577h-13.483V317.23c0,3.719,3.024,6.744,6.742,6.744c3.717,0,6.741-3.025,6.741-6.744
		V175.577z"/>
	<path style="fill:#FFFFFF;" d="M259.019,111.074H107.28c-4.293-0.007-7.789-3.501-7.796-7.788V82.269c0-2.756-2.243-5-5-5
		c-2.758,0-5.001,2.244-5.001,5v21.013c0.004,9.806,7.988,17.789,17.798,17.794h151.733c9.809-0.005,17.793-7.988,17.799-17.796
		V82.269c0-2.756-2.242-5-4.999-5s-5,2.244-5,5l-0.003,21.013C266.804,107.573,263.308,111.067,259.019,111.074"/>
	<path style="fill:#FFFFFF;" d="M263.636,161.078v-19.7c0-5.239-4.261-9.5-9.5-9.5H111.848c-5.238,0-9.5,4.261-9.5,9.5v19.7
		c0,5.238,4.262,9.5,9.5,9.5h142.288C259.375,170.578,263.636,166.316,263.636,161.078 M199.964,165.418
		c-7.455,0-13.519-6.065-13.519-13.52c0-7.454,6.064-13.518,13.519-13.518c7.454,0,13.518,6.064,13.518,13.518
		C213.482,159.353,207.418,165.418,199.964,165.418 M223.445,151.898c0-7.454,6.064-13.518,13.519-13.518
		c7.454,0,13.518,6.064,13.518,13.518c0,7.455-6.064,13.52-13.518,13.52C229.509,165.418,223.445,159.353,223.445,151.898"/>
	<path style="fill:#FFFFFF;" d="M246.302,268.799c-14.756,0-26.76,12.004-26.76,26.759c0,14.754,12.004,26.758,26.76,26.758
		c14.756,0,26.76-12.004,26.76-26.758C273.062,280.803,261.058,268.799,246.302,268.799 M246.302,309.7
		c-7.809,0-14.141-6.33-14.141-14.142c0-7.81,6.332-14.14,14.141-14.14c7.81,0,14.141,6.33,14.141,14.14
		C260.443,303.37,254.112,309.7,246.302,309.7"/>
	<path style="fill:#FFFFFF;" d="M199.964,143.379c-4.697,0-8.519,3.821-8.519,8.518c0,4.698,3.822,8.52,8.519,8.52
		c4.697,0,8.518-3.822,8.518-8.52C208.482,147.2,204.661,143.379,199.964,143.379"/>
	<path style="fill:#FFFFFF;" d="M236.964,160.417c4.697,0,8.518-3.822,8.518-8.52c0-4.697-3.821-8.518-8.518-8.518
		c-4.697,0-8.519,3.821-8.519,8.518C228.445,156.595,232.267,160.417,236.964,160.417"/>
	<path style="fill:#FFFFFF;" d="M208.641,51.676c0.336-0.342,0.611-0.606,0.795-0.778c0.185-0.175,0.25-0.229,0.25-0.229
		c1.458-1.267,1.615-3.476,0.349-4.937c-1.269-1.46-3.477-1.615-4.938-0.349c-0.117,0.105-2.275,1.978-4.515,4.955
		c-2.204,2.984-4.66,7.094-4.707,12.107c0,0.756,0.062,1.545,0.207,2.344c0.783,4.52,2.447,7.602,4.301,9.61
		c1.831,1.97,3.693,2.949,3.949,3.261c1.369,1.182,4.066,3.625,4.017,6.922c-0.008,1.529-0.488,3.515-2.386,6.216
		c-1.116,1.579-0.74,3.763,0.837,4.878c0.614,0.435,1.321,0.644,2.02,0.644c1.098,0,2.178-0.515,2.861-1.48
		c2.545-3.588,3.676-7.094,3.669-10.258c-0.049-7.084-5.237-11.079-6.329-12.119c-1.534-1.302-2.529-1.732-3.472-2.791
		c-0.913-1.018-1.932-2.578-2.577-6.115c-0.066-0.364-0.096-0.731-0.098-1.112c-0.046-2.451,1.504-5.548,3.311-7.906
		C207.067,53.356,207.972,52.361,208.641,51.676"/>
	<path style="fill:#FFFFFF;" d="M186.714,51.676c0.335-0.342,0.612-0.606,0.796-0.781c0.183-0.171,0.249-0.225,0.249-0.225
		c1.46-1.266,1.614-3.479,0.348-4.938c-1.268-1.46-3.477-1.617-4.936-0.347h-0.003c-0.114,0.105-2.274,1.975-4.512,4.953
		c-2.204,2.985-4.659,7.096-4.709,12.104c0,0.759,0.062,1.546,0.206,2.348c0.784,4.521,2.448,7.603,4.307,9.608
		c1.827,1.97,3.69,2.95,3.942,3.26c1.371,1.184,4.067,3.622,4.018,6.922c-0.008,1.526-0.489,3.517-2.387,6.217
		c-1.117,1.576-0.742,3.762,0.834,4.881c0.615,0.432,1.32,0.642,2.018,0.642c1.099,0,2.179-0.517,2.862-1.48
		c2.549-3.588,3.681-7.097,3.673-10.26c-0.049-7.081-5.235-11.076-6.327-12.117c-1.533-1.303-2.529-1.732-3.472-2.791
		c-0.91-1.021-1.928-2.58-2.575-6.116c-0.066-0.366-0.099-0.73-0.099-1.114c-0.045-2.446,1.504-5.545,3.309-7.903
		C185.142,53.36,186.045,52.36,186.714,51.676"/>
	<path style="fill:#FFFFFF;" d="M165.542,51.678c0.335-0.344,0.61-0.608,0.796-0.78c0.183-0.174,0.25-0.228,0.25-0.23
		c1.458-1.264,1.614-3.477,0.347-4.935c-1.269-1.461-3.477-1.618-4.936-0.35h-0.002c-0.117,0.107-2.275,1.975-4.513,4.955
		c-2.203,2.984-4.661,7.093-4.708,12.103c0,0.76,0.062,1.549,0.205,2.348c0.786,4.522,2.448,7.604,4.306,9.609
		c1.829,1.971,3.691,2.951,3.943,3.262c1.371,1.182,4.068,3.623,4.019,6.92c-0.008,1.528-0.489,3.517-2.388,6.215
		c-1.116,1.579-0.742,3.766,0.839,4.883c0.613,0.433,1.319,0.642,2.017,0.642c1.096,0,2.179-0.515,2.862-1.48
		c2.545-3.588,3.679-7.096,3.669-10.26c-0.046-7.082-5.235-11.077-6.327-12.117c-1.533-1.301-2.529-1.732-3.47-2.791
		c-0.913-1.018-1.932-2.578-2.58-6.116c-0.063-0.365-0.095-0.729-0.095-1.115c-0.046-2.448,1.502-5.546,3.308-7.904
		C163.969,53.358,164.872,52.361,165.542,51.678"/>
</g>
</svg>
