<?xml version="1.0" encoding="iso-8859-1"?>
<!-- Generator: Adobe Illustrator 25.4.1, SVG Export Plug-In . SVG Version: 6.00 Build 0)  -->
<svg version="1.1" id="Calque_1" xmlns="http://www.w3.org/2000/svg" xmlns:xlink="http://www.w3.org/1999/xlink" x="0px" y="0px"
	 viewBox="0 0 368.5 368.5" style="enable-background:new 0 0 368.5 368.5;" xml:space="preserve">
<g>
	<path style="fill:#FFFFFF;" d="M322.152,182.009c1.469,0,2.713-0.907,2.713-1.98v-43.472c0-1.076-1.244-1.983-2.713-1.983h-59.977
		c-1.471,0-2.713,0.907-2.713,1.983v43.472c0,1.073,1.242,1.98,2.713,1.98H322.152z"/>
	<path style="fill:#FFFFFF;" d="M240.972,188.962c0,4.266-3.798,7.733-8.463,7.733H131.58v36.521c0,1.074,1.242,1.981,2.712,1.981
		h50.122h127.733c1.467,0,2.711-0.907,2.711-1.981v-43.472c0-1.075-1.244-1.984-2.711-1.984h-49.975h-21.2V188.962z"/>
	<path style="fill:#FFFFFF;" d="M45.959,188.962c0,4.266,3.798,7.733,8.463,7.733h70.91v36.521c0,1.074-1.242,1.981-2.712,1.981
		H72.498H35.822c-1.467,0-2.711-0.907-2.711-1.981v-43.472c0-1.075,1.244-1.984,2.711-1.984h8.949h1.188V188.962z"/>
	<path style="fill:#FFFFFF;" d="M187.127,286.399v-43.466c0-1.077-1.24-1.986-2.715-1.986h-50.119h-11.176H73.148h-2.055
		c-1.472,0-2.714,0.909-2.714,1.986v43.466c0,1.077,1.242,1.982,2.714,1.982h113.319
		C185.887,288.381,187.127,287.476,187.127,286.399"/>
	<path style="fill:#FFFFFF;" d="M334.406,285.81v-43.468c0-1.075-1.242-1.982-2.711-1.982H195.179c-1.471,0-2.713,0.907-2.713,1.982
		v43.468c0,1.075,1.242,1.984,2.713,1.984h136.516C333.164,287.794,334.406,286.885,334.406,285.81"/>
	<path style="fill:#FFFFFF;" d="M335.406,82.12c0-1.074-1.242-1.984-2.711-1.984H197.642c-1.468,0-2.71,0.91-2.71,1.984v43.47
		c0,1.075,1.242,1.982,2.71,1.982h135.053c1.469,0,2.711-0.907,2.711-1.982V82.12z"/>
	<path style="fill:#FFFFFF;" d="M68.379,91.125v43.47c0,1.075,1.242,1.982,2.715,1.982h113.321c1.472,0,2.712-0.907,2.712-1.982
		v-43.47c0-1.074-1.24-1.984-2.712-1.984H71.094C69.621,89.141,68.379,90.051,68.379,91.125"/>
	<path style="fill:#FFFFFF;" d="M51.942,145.494v43.47c0,1.073,1.242,1.982,2.713,1.982h177.854c1.469,0,2.711-0.909,2.711-1.982
		v-43.47c0-1.075-1.242-1.984-2.711-1.984H54.655C53.184,143.51,51.942,144.419,51.942,145.494"/>
</g>
</svg>
