<?xml version="1.0" encoding="iso-8859-1"?>
<!-- Generator: Adobe Illustrator 25.4.1, SVG Export Plug-In . SVG Version: 6.00 Build 0)  -->
<svg version="1.1" id="Calque_1" xmlns="http://www.w3.org/2000/svg" xmlns:xlink="http://www.w3.org/1999/xlink" x="0px" y="0px"
	 viewBox="0 0 368.5 368.5" style="enable-background:new 0 0 368.5 368.5;" xml:space="preserve">
<g>
	<path style="fill:#FFFFFF;" d="M49.057,72.686h268.114c2.315-0.003,4.432-1.051,6.062-2.895c1.617-1.841,2.67-4.457,2.667-7.396
		c0.003-2.938-1.05-5.555-2.667-7.395c-1.63-1.845-3.747-2.893-6.062-2.896H49.057c-2.314,0.003-4.43,1.051-6.059,2.896
		c-1.618,1.84-2.669,4.457-2.666,7.395c-0.003,2.939,1.048,5.555,2.666,7.396C44.627,71.635,46.743,72.683,49.057,72.686
		 M123.575,102.791h-3.665l-8.564,33.557l17.393,68.152h4.071c5.715,0.002,10.355,4.633,10.357,10.357
		c-0.002,5.317-4.006,9.689-9.16,10.285l21.353,83.667c1.158,4.554,5.265,7.584,9.75,7.587c0.824-0.003,1.658-0.103,2.498-0.319
		c4.554-1.159,7.585-5.267,7.585-9.749c0-0.826-0.1-1.663-0.314-2.499L123.575,102.791z M327.853,303.83L274.715,95.609
		l-10.399,40.74l17.393,68.15h4.073c5.719,0.003,10.355,4.634,10.36,10.359c0,0.044-0.001,0.087-0.004,0.13
		c-0.068,5.258-4.048,9.563-9.16,10.154l21.338,83.613c0.005,0.017,0.01,0.035,0.015,0.053v0.001l0.002,0.001
		c0.007,0.027,0.013,0.052,0.019,0.077c1.188,4.511,5.272,7.507,9.729,7.509c0.824-0.002,1.659-0.101,2.501-0.318
		c4.552-1.16,7.586-5.27,7.586-9.753C328.168,305.503,328.065,304.667,327.853,303.83 M270.93,90.218
		c0.214-0.838,0.314-1.675,0.314-2.503c-0.002-4.49-3.028-8.595-7.582-9.752c-0.013-0.002-0.026-0.006-0.039-0.01v0.001
		c-0.047-0.008-0.148-0.025-0.3-0.057l-0.227-0.062c-0.181-0.057-0.353-0.098-0.519-0.126c-0.211-0.038-0.416-0.062-0.621-0.062
		l-154.58-0.003c-0.367,0.003-0.741,0.065-1.135,0.193l-0.237,0.067c-3.591,0.808-6.6,3.529-7.566,7.327L42.652,303.83
		c-0.218,0.84-0.319,1.673-0.319,2.496c0,4.482,3.03,8.592,7.589,9.752c0.842,0.215,1.682,0.316,2.501,0.316
		c4.487,0,8.59-3.03,9.749-7.584l22.749-89.139l2.596-10.171l21.249-83.263v0.001l6.779-26.566c0.282-1.104,1.282-1.881,2.424-1.881
		h4.33h122.69c0.768,0,1.503,0.361,1.974,0.968c0.471,0.607,0.637,1.407,0.448,2.152L195.626,303.83
		c-0.216,0.84-0.317,1.676-0.317,2.499c0,4.481,3.028,8.589,7.587,9.749c0.841,0.215,1.681,0.316,2.499,0.316
		c4.486,0,8.592-3.03,9.749-7.584l24.142-94.601l1.202-4.708l21.249-83.263L270.93,90.218z M291.141,214.858
		c-0.006-2.96-2.403-5.352-5.358-5.359h-2.797l-37.337,0.002l-2.734,10.716l42.868-0.003
		C288.737,220.21,291.134,217.816,291.141,214.858 M138.167,214.857c-0.005-2.958-2.401-5.352-5.357-5.357h-2.795H92.676
		l-2.735,10.716h42.808h0.06C135.762,220.212,138.161,217.815,138.167,214.857"/>
</g>
</svg>
