<?xml version="1.0" encoding="iso-8859-1"?>
<!-- Generator: Adobe Illustrator 25.4.1, SVG Export Plug-In . SVG Version: 6.00 Build 0)  -->
<svg version="1.1" id="Calque_1" xmlns="http://www.w3.org/2000/svg" xmlns:xlink="http://www.w3.org/1999/xlink" x="0px" y="0px"
	 viewBox="0 0 368.5 368.5" style="enable-background:new 0 0 368.5 368.5;" xml:space="preserve">
<g>
	<path style="fill:#FFFFFF;" d="M63.384,314.129h3.479c-1.535-2.939-1.645-6.997-1.51-10.413
		c0.724-18.549,13.554-35.033,31.113-42.917V126.028c0-3.508-3.816-7.431-8.647-12.398c-5.313-5.462-11.926-12.259-16.763-21.937
		c-0.786-1.576-0.148-3.493,1.429-4.28c1.575-0.785,3.492-0.149,4.279,1.428c4.394,8.793,10.363,14.927,15.629,20.341
		c5.84,6.004,10.453,10.747,10.453,16.846v132.364c5.209-1.617,10.716-2.512,16.37-2.512c3.373,0,6.831,0.342,10.31,1.017
		c10.579-18.947,30.191-30.613,51.757-30.613c5.3,0,10.434,0.714,15.327,2.027v-7.969l-31.736-78.337
		c-1.433-3.868-1.155-7.453,0.747-10.183c1.87-2.687,5.247-4.357,8.812-4.357h22.177v-1.437c0-3.264-3.418-6.962-7.746-11.643
		c-6.075-6.568-14.239-15.405-19.376-29.705H77.017c-7.157,0-12.763-8.098-12.763-18.438c0-1.761,1.428-3.19,3.19-3.19
		s3.19,1.429,3.19,3.19c0,7.106,3.364,12.058,6.383,12.058h92.222c0.187-0.187,0.374-0.376,0.611-0.513
		c2.257-1.327,4.687-5.505,4.687-11.545c0-7.105-3.362-12.056-6.38-12.056H72.679c-1.896,0-3.917,2.03-5.149,5.173
		c-0.135,0.344-0.33,0.663-0.573,0.94C55.573,73.266,42.54,115.025,42.54,126.028v167.258
		C42.54,304.779,51.891,314.129,63.384,314.129"/>
	<path style="fill:#FFFFFF;" d="M273.288,255.402c-1.668,0.68-3.423,1.025-5.217,1.025c-6.48,0-9.188-4.614-10.823-8.635
		c-1.732-4.237-1.898-8.639-0.454-12.073c1.144-2.726,3.239-4.774,6.058-5.921l22.048-8.988l-33.108-81.273
		c-0.535-1.519-1.993-5.691-8.976-5.691h-68.382c-1.487,0-2.891,0.637-3.577,1.622c-0.693,0.995-0.706,2.419-0.033,4.232
		l37.799,93.301c17.232,9.029,29.541,26.353,31.736,46.968c3.203-0.739,6.455-1.113,9.714-1.113c21.275,0,39.29,15.577,41.08,35.483
		h25.475c1.08,0,2.639-0.73,3.535-2.127c0.857-1.341,0.876-2.926,0.051-4.708l-24.882-61.087L273.288,255.402z"/>
	<path style="fill:#FFFFFF;" d="M293.68,174.547l-0.829-2.108c-2.783-7.097,0.727-15.132,7.824-17.915
		c1.62-0.633,3.312-0.955,5.038-0.955c5.732,0,10.785,3.451,12.875,8.789l0.104,0.266c0.544-2.989,0.293-6.156-0.929-9.172
		l-16.405-40.509c-2.55-6.305-8.592-10.378-15.391-10.378c-2.133,0-4.229,0.412-6.227,1.219l-0.764,0.31
		c-4.11,1.663-7.325,4.831-9.055,8.914c-1.73,4.085-1.765,8.596-0.098,12.706l16.403,40.509
		C287.707,169.88,290.384,172.751,293.68,174.547"/>
	<path style="fill:#FFFFFF;" d="M305.148,235.526c12.496-4.917,20.864-17.236,20.856-30.667c0-4.118-0.764-8.158-2.27-12.004
		l-11.085-28.164c-1.127-2.883-3.85-4.742-6.936-4.742c-0.926,0-1.838,0.175-2.71,0.516c-3.82,1.498-5.712,5.825-4.214,9.644
		l11.076,28.166c0.828,2.119,1.248,4.331,1.248,6.582c-0.009,7.403-4.63,14.172-11.5,16.845l-34.355,14.005
		c-1.25,0.508-2.096,1.322-2.584,2.484c-0.781,1.856-0.6,4.544,0.482,7.193c1.614,3.966,2.87,4.662,4.914,4.662
		c0.964,0,1.909-0.186,2.808-0.551L305.148,235.526z"/>
	<path style="fill:#FFFFFF;" d="M284.307,311.547c-3.099-15.006-17.466-26.311-34.235-26.311c-3.907,0-7.813,0.631-11.608,1.879
		c-0.951,0.314-1.989,0.162-2.811-0.407c-0.823-0.569-1.33-1.49-1.373-2.489c-1.219-28.909-24.499-51.555-52.998-51.555
		c-19.964,0-38.063,11.228-47.229,29.303c-0.667,1.315-2.146,2.006-3.585,1.659c-3.809-0.905-7.595-1.366-11.252-1.366
		c-24.859,0-46.606,19.098-47.488,41.705c-0.262,6.636,0.958,7.545,1.01,7.58L284.307,311.547z M107.264,288.789
		c-3.714,0-6.737-3.023-6.737-6.737c0-3.714,3.023-6.735,6.737-6.735c3.714,0,6.736,3.021,6.736,6.735
		C114,285.766,110.978,288.789,107.264,288.789 M215.455,263.535c0,2.955-2.403,5.356-5.358,5.356c-2.954,0-5.354-2.401-5.354-5.356
		c0-2.954,2.4-5.357,5.354-5.357C213.052,258.178,215.455,260.581,215.455,263.535 M203.796,283.59c5.017,0,9.1,4.082,9.1,9.097
		c0,5.02-4.083,9.103-9.1,9.103c-5.02,0-9.103-4.083-9.103-9.103C194.693,287.672,198.776,283.59,203.796,283.59 M154.939,291.543
		c-4.148,0-7.523-3.376-7.523-7.524s3.375-7.523,7.523-7.523c4.148,0,7.523,3.375,7.523,7.523S159.087,291.543,154.939,291.543
		 M168.728,263.175c-3.061,0-5.551-2.492-5.551-5.555c0-3.06,2.49-5.551,5.551-5.551c3.061,0,5.553,2.491,5.553,5.551
		C174.281,260.683,171.789,263.175,168.728,263.175 M180.51,247.574c0-2.952,2.403-5.354,5.356-5.354c2.956,0,5.36,2.402,5.36,5.354
		c0,2.955-2.404,5.357-5.36,5.357C182.913,252.931,180.51,250.529,180.51,247.574"/>
	<path style="fill:#FFFFFF;" d="M168.728,256.795c-0.455,0-0.827,0.37-0.827,0.825c0,0.458,0.372,0.829,0.827,0.829
		c0.457,0,0.829-0.371,0.829-0.829C169.557,257.165,169.185,256.795,168.728,256.795"/>
	<path style="fill:#FFFFFF;" d="M185.866,248.6c0.565,0,1.024-0.461,1.024-1.026c0-0.563-0.459-1.023-1.024-1.023
		c-0.563,0-1.02,0.46-1.02,1.023C184.846,248.139,185.303,248.6,185.866,248.6"/>
	<path style="fill:#FFFFFF;" d="M210.097,262.51c-0.563,0-1.022,0.46-1.022,1.024c0,0.565,0.459,1.024,1.022,1.024
		c0.565,0,1.026-0.459,1.026-1.024C211.123,262.971,210.662,262.51,210.097,262.51"/>
</g>
</svg>
