<?xml version="1.0" encoding="iso-8859-1"?>
<!-- Generator: Adobe Illustrator 25.4.1, SVG Export Plug-In . SVG Version: 6.00 Build 0)  -->
<svg version="1.1" id="Calque_1" xmlns="http://www.w3.org/2000/svg" xmlns:xlink="http://www.w3.org/1999/xlink" x="0px" y="0px"
	 viewBox="0 0 368.5 368.5" style="enable-background:new 0 0 368.5 368.5;" xml:space="preserve">
<g>
	<path style="fill:#FFFFFF;" d="M118.961,67.142H50.846c-2.662,0-4.828,2.165-4.828,4.826V205.51c0,0.165,0.032,0.322,0.048,0.483
		l72.895-36.58V67.142z"/>
	<path style="fill:#FFFFFF;" d="M122.961,67.142v101.673l198.928,13.771V71.969c0-2.661-2.166-4.826-4.828-4.826H122.961z"/>
	<path style="fill:#FFFFFF;" d="M92.341,259.782c9.004-5.32,17.494-21.612,21.003-31.265c2.698-7.417,9.344-17.681,12.43-22.255
		v-11.299c-3.191,1.993-8.562,4.611-16.003,5.674c-10.39,1.485-36.67,14.326-42.822,17.382c0.025,0.101,0.042,0.204,0.064,0.307
		c0.064,0.296,0.117,0.597,0.159,0.9c0.019,0.131,0.04,0.26,0.054,0.392c0.047,0.43,0.077,0.864,0.077,1.307v11.496
		c5.458-1.848,20.905-7.274,25.741-11.067c6.214-4.874,10.5-6.67,13.1-5.495c0.765,0.347,2.071,1.287,2.205,3.69
		c0.336,6.028-6.904,18.233-15.521,23.356c-13.479,8.016-25.361,22.025-25.479,22.166c-0.014,0.017-0.031,0.027-0.046,0.043v17.281
		C72.617,276.758,84.825,264.223,92.341,259.782"/>
	<path style="fill:#FFFFFF;" d="M118.655,252.292c-3.523,6.164-12.006,14.68-12.365,15.039c-0.293,0.293-0.677,0.44-1.061,0.44
		s-0.767-0.147-1.06-0.44c-0.586-0.585-0.586-1.535,0-2.121c0.085-0.085,8.557-8.592,11.881-14.406
		c2.528-4.426,7.153-9.176,9.724-11.651v-27.422c-3.268,5.091-7.632,12.372-9.609,17.812c-3.148,8.655-11.858,26.653-22.298,32.821
		c-8.488,5.017-24.008,21.661-26.564,24.431v5.435c5.865-4.891,18.057-14.992,24.467-19.798c0.665-0.495,1.603-0.363,2.101,0.299
		c0.497,0.664,0.362,1.604-0.3,2.101c-7.181,5.385-21.735,17.513-26.268,21.307v2.165l58.471-39.763v-15.144
		C123.371,245.874,120.411,249.219,118.655,252.292"/>
	<path style="fill:#FFFFFF;" d="M259.996,255.514c-6.495,2.911-10.939,6.407-13.674,9.026l64.673,4.216l0.096-0.467v-16.271
		C300.073,251.652,269.856,251.092,259.996,255.514"/>
	<path style="fill:#FFFFFF;" d="M94.896,223.716c-5.603,4.394-23.147,10.393-27.593,11.871v25.015
		c4.135-4.513,13.46-14.012,23.992-20.275c7.984-4.747,14.314-16.036,14.059-20.611c-0.024-0.431-0.121-0.976-0.446-1.123
		C104.681,218.492,102.484,217.765,94.896,223.716"/>
	<path style="fill:#FFFFFF;" d="M258.768,252.777c10.522-4.717,41.019-4.156,52.322-3.766v-9.59l-17.595-1.099
		c-0.826-0.052-1.455-0.764-1.403-1.591c0.051-0.826,0.737-1.455,1.59-1.403l17.408,1.087v-17.544
		c-9.917-1.02-38.365-3.453-53.952,0.358c-9.673,2.365-21.82,5.617-31.58,8.231c-13.287,3.558-18.024,4.803-19.005,4.803
		c-0.828,0-1.5-0.672-1.5-1.5c0-0.816,0.652-1.479,1.463-1.5c1.095-0.102,9.437-2.337,18.267-4.701
		c9.773-2.617,21.937-5.874,31.642-8.247c16.081-3.932,44.312-1.542,54.665-0.467v-9.658c0-2.223,0.371-4.552,1.038-6.841
		c-0.007,0-0.015,0.002-0.022,0.001c-0.315-0.02-31.604-2.131-45.132-0.014c-7.564,1.182-20.24,2.159-33.607,2.159
		c-10.457,0-21.335-0.597-30.529-2.163c-16.961-2.886-57.641-8.252-70.219-9.893c0.098,1.351,0.155,2.781,0.155,4.307v5.732
		c6.421,0.563,40.779,3.692,50.439,6.913c11.985,3.994,19.909,7.526,19.622,11.778c-0.195,2.863-3.769,4.797-11.591,6.273
		c-19.183,3.619-49.174,4.535-58.47,4.737v17.463c9.601,0.36,62.696,2.155,81.298-1.334c8.118-1.521,15.981-3.216,23.586-4.853
		c11.845-2.552,22.074-4.756,29.795-5.555c0.822-0.081,1.56,0.514,1.646,1.338c0.085,0.824-0.513,1.561-1.338,1.646
		c-7.557,0.781-17.712,2.97-29.471,5.503c-7.624,1.643-15.508,3.341-23.665,4.87c-9.068,1.7-25.704,2.187-41.759,2.187
		c-17.747,0-34.773-0.594-40.092-0.797v7.492l109.595,7.145C244.957,261.428,250.182,256.625,258.768,252.777 M210.031,223.307
		c-0.427-0.71-0.196-1.632,0.515-2.058c0.037-0.022,3.9-2.38,4.996-5.302c0.588-1.568-2.599-5.035-5.125-6.934
		c-0.662-0.497-0.796-1.437-0.299-2.099c0.497-0.663,1.433-0.798,2.099-0.3c1.307,0.98,7.746,6.088,6.133,10.385
		c-1.466,3.91-6.066,6.706-6.261,6.823c-0.242,0.145-0.508,0.214-0.771,0.214C210.809,224.036,210.312,223.776,210.031,223.307"/>
	<path style="fill:#FFFFFF;" d="M132.774,202.489v23.689c9.286-0.203,38.983-1.113,57.913-4.684c8.927-1.685,9.153-3.51,9.154-3.529
		c0.057-0.843-1.542-3.384-17.578-8.729C173.172,206.205,139.693,203.106,132.774,202.489"/>
	<path style="fill:#FFFFFF;" d="M129.527,176.286c1.143,2.474,2.199,5.769,2.779,10.087c11.702,1.525,53.693,7.05,71.035,10.002
		c20.62,3.509,49.884,2.073,63.17-0.004c13.863-2.166,44.501-0.103,45.8-0.014c0.285,0.02,0.543,0.122,0.76,0.276
		c1.079-2.683,2.548-5.219,4.3-7.342L129.527,176.286z"/>
	<path style="fill:#FFFFFF;" d="M59.375,208.704c0.055,0.029,0.111,0.055,0.166,0.085c0.364,0.196,0.722,0.409,1.073,0.637
		c0.067,0.043,0.129,0.09,0.196,0.134c0.277,0.186,0.55,0.38,0.817,0.584c0.097,0.075,0.191,0.15,0.287,0.227
		c0.243,0.194,0.48,0.396,0.711,0.606c0.083,0.075,0.167,0.147,0.249,0.224c0.605,0.571,1.166,1.191,1.673,1.857
		c0.072,0.095,0.14,0.193,0.211,0.291c0.178,0.246,0.348,0.496,0.511,0.753c0.07,0.112,0.139,0.223,0.207,0.336
		c0.146,0.247,0.283,0.5,0.414,0.756c6.762-3.365,32.64-15.981,43.457-17.528c8.331-1.189,13.914-4.526,16.373-6.285
		c-0.412-9.354-3.202-13.748-4.473-15.282l-63.494,31.862c0.129,0.05,0.254,0.108,0.382,0.162c0.102,0.043,0.206,0.085,0.307,0.131
		C58.757,208.392,59.067,208.543,59.375,208.704"/>
	<path style="fill:#FFFFFF;" d="M60.303,276.462V263.61c-2.584-1.314-5.935-2.768-7.469-2.768c-1.163,0-3.126,0.868-4.93,1.862
		v13.801c2.044-1.002,4.572-1.985,6.959-2.203C57.024,274.108,58.853,275.112,60.303,276.462"/>
	<path style="fill:#FFFFFF;" d="M60.303,260.266v-20.41c-2.322,1.715-4.96,3.232-7.037,3.232c-2.143,0-3.968-1.436-5.362-3.084
		v19.322c1.666-0.808,3.486-1.484,4.93-1.484C54.805,257.841,57.926,259.129,60.303,260.266"/>
	<polygon style="fill:#FFFFFF;" points="322.482,212.883 318.09,216.835 318.09,232.987 322.482,229.246 	"/>
	<path style="fill:#FFFFFF;" d="M55.183,223.643c1.008,0.129,2.974-1.981,4.754-4.607c-1.047-2.743-4.158-4.923-6.712-4.972
		l-5.321-0.094v5.399C49.238,220.554,52.81,223.347,55.183,223.643"/>
	<polygon style="fill:#FFFFFF;" points="322.482,245.842 318.09,250.033 318.09,264.494 322.482,260.76 	"/>
	<path style="fill:#FFFFFF;" d="M60.303,293.117c-1.889-1.929-3.552-3.26-4.232-3.281c-1.388,0.234-5.392,2.832-8.167,4.856v6.455
		l12.399,0.21V293.117z"/>
	<polygon style="fill:#FFFFFF;" points="318.09,245.888 322.482,241.697 322.482,233.187 318.09,236.928 	"/>
	<path style="fill:#FFFFFF;" d="M55.134,277.29c-2.475,0.226-5.279,1.523-7.23,2.594v11.128c2.394-1.655,5.813-3.822,7.713-4.139
		c1.329-0.221,3.002,0.712,4.686,2.108v-7.784C59.111,279.282,57.224,277.116,55.134,277.29"/>
	<path style="fill:#FFFFFF;" d="M53.266,240.088c1.558,0,4.449-1.925,7.037-4.062v-12.49c-1.54,1.737-3.314,3.11-5.079,3.11
		c-0.138,0-0.275-0.008-0.413-0.026c-2.366-0.295-5.067-2.011-6.907-3.389v11.237C48.904,236.538,51.216,240.088,53.266,240.088"/>
	<path style="fill:#FFFFFF;" d="M318.09,206.189v6.609l4.373-3.936c0.006-0.005,0.013-0.006,0.019-0.011v-14.056
		C319.758,198.353,318.09,202.564,318.09,206.189"/>
</g>
</svg>
