<?xml version="1.0" encoding="iso-8859-1"?>
<!-- Generator: Adobe Illustrator 25.4.1, SVG Export Plug-In . SVG Version: 6.00 Build 0)  -->
<svg version="1.1" id="Calque_1" xmlns="http://www.w3.org/2000/svg" xmlns:xlink="http://www.w3.org/1999/xlink" x="0px" y="0px"
	 viewBox="0 0 368.5 368.5" style="enable-background:new 0 0 368.5 368.5;" xml:space="preserve">
<g>
	<path style="fill:#FFFFFF;" d="M118.961,67.143H50.846c-2.662,0-4.828,2.165-4.828,4.826v133.542c0,0.165,0.032,0.321,0.048,0.483
		l72.895-36.579V67.143z"/>
	<path style="fill:#FFFFFF;" d="M122.961,67.143v101.673l198.928,13.771V71.969c0-2.661-2.166-4.826-4.828-4.826H122.961z"/>
	<path style="fill:#FFFFFF;" d="M311.09,206.189c0-5.785,2.488-12.304,6.28-16.898l-187.844-13.005
		c1.722,3.727,3.248,9.32,3.248,17.459v63.393l178.22,11.618l0.096-0.466V206.189z"/>
	<path style="fill:#FFFFFF;" d="M125.773,193.745c0-11.094-3.181-16.062-4.51-17.654l-63.511,31.87
		c0.125,0.048,0.249,0.106,0.374,0.158c0.107,0.045,0.215,0.09,0.323,0.138c0.305,0.134,0.607,0.281,0.906,0.438
		c0.063,0.033,0.127,0.063,0.19,0.097c0.361,0.195,0.715,0.406,1.062,0.631c0.074,0.048,0.145,0.1,0.219,0.149
		c0.269,0.181,0.533,0.369,0.792,0.567c0.102,0.078,0.203,0.158,0.303,0.239c0.236,0.189,0.466,0.387,0.692,0.59
		c0.088,0.079,0.178,0.156,0.264,0.238c0.303,0.285,0.598,0.58,0.877,0.89c0.003,0.003,0.007,0.008,0.011,0.012
		c0.273,0.303,0.529,0.62,0.778,0.946c0.075,0.098,0.146,0.201,0.219,0.302c0.175,0.242,0.342,0.488,0.501,0.741
		c0.072,0.114,0.145,0.228,0.214,0.345c0.165,0.279,0.318,0.564,0.463,0.854c0.043,0.086,0.091,0.168,0.131,0.255
		c0.179,0.375,0.339,0.759,0.481,1.152c0.033,0.094,0.06,0.191,0.092,0.286c0.103,0.305,0.195,0.614,0.274,0.929
		c0.035,0.136,0.065,0.272,0.094,0.409c0.064,0.296,0.116,0.596,0.158,0.899c0.019,0.13,0.04,0.26,0.055,0.392
		c0.046,0.43,0.076,0.864,0.076,1.307v77.379l58.472-39.764V193.745z"/>
	<path style="fill:#FFFFFF;" d="M60.302,220.925c0-3.56-3.958-6.801-7.077-6.86l-5.321-0.094v87.177l12.398,0.21V220.925z"/>
	<path style="fill:#FFFFFF;" d="M322.48,194.797c-2.723,3.558-4.391,7.767-4.391,11.392v58.306l4.393-3.735L322.48,194.797z"/>
</g>
</svg>
