<?xml version="1.0" encoding="iso-8859-1"?>
<!-- Generator: Adobe Illustrator 25.4.1, SVG Export Plug-In . SVG Version: 6.00 Build 0)  -->
<svg version="1.1" id="Calque_1" xmlns="http://www.w3.org/2000/svg" xmlns:xlink="http://www.w3.org/1999/xlink" x="0px" y="0px"
	 viewBox="0 0 368.5 368.5" style="enable-background:new 0 0 368.5 368.5;" xml:space="preserve">
<g>
	<path style="fill:#FFFFFF;" d="M118.961,67.142H50.846c-2.662,0-4.828,2.165-4.828,4.826V205.51c0,0.165,0.032,0.322,0.048,0.483
		l72.895-36.579V67.142z"/>
	<path style="fill:#FFFFFF;" d="M122.961,67.142v101.673l198.928,13.771V71.969c0-2.661-2.166-4.826-4.828-4.826H122.961z"/>
	<path style="fill:#FFFFFF;" d="M94.897,223.716c-5.603,4.394-23.146,10.393-27.594,11.871v25.016
		c4.135-4.514,13.459-14.013,23.992-20.276c7.984-4.747,14.314-16.036,14.059-20.611c-0.024-0.431-0.121-0.976-0.446-1.123
		C104.683,218.492,102.483,217.765,94.897,223.716"/>
	<path style="fill:#FFFFFF;" d="M258.768,252.777c10.522-4.718,41.02-4.156,52.322-3.766v-9.59l-17.595-1.099
		c-0.826-0.052-1.455-0.764-1.403-1.591c0.051-0.827,0.757-1.442,1.59-1.403l17.408,1.087v-17.544
		c-9.916-1.02-38.362-3.453-53.953,0.358c-9.672,2.365-21.818,5.617-31.577,8.23c-13.288,3.559-18.026,4.804-19.007,4.804
		c-0.828,0-1.5-0.672-1.5-1.5c0-0.816,0.653-1.479,1.463-1.5c1.094-0.102,9.438-2.337,18.268-4.701
		c9.773-2.617,21.936-5.874,31.641-8.247c16.082-3.932,44.313-1.543,54.665-0.467v-9.658c0-2.223,0.371-4.552,1.038-6.841
		c-0.008,0-0.014,0.002-0.022,0.001c-0.315-0.022-31.601-2.131-45.132-0.014c-7.564,1.182-20.241,2.159-33.608,2.159
		c-10.456,0-21.335-0.597-30.527-2.163c-16.963-2.886-57.643-8.252-70.22-9.893c0.098,1.35,0.155,2.781,0.155,4.307v5.732
		c6.421,0.563,40.78,3.692,50.439,6.913c11.985,3.994,19.909,7.525,19.622,11.778c-0.194,2.863-3.769,4.797-11.591,6.273
		c-19.183,3.619-49.175,4.535-58.47,4.737v17.463c9.602,0.36,62.697,2.155,81.298-1.334c8.118-1.521,15.981-3.215,23.585-4.853
		c11.846-2.552,22.074-4.756,29.797-5.555c0.814-0.081,1.56,0.514,1.645,1.338c0.085,0.824-0.512,1.561-1.337,1.646
		c-7.558,0.781-17.714,2.97-29.472,5.503c-7.624,1.643-15.508,3.341-23.665,4.87c-9.068,1.7-25.704,2.187-41.759,2.187
		c-17.747,0-34.773-0.594-40.092-0.797v7.492l109.596,7.145C244.957,261.428,250.182,256.625,258.768,252.777 M210.031,223.307
		c-0.426-0.71-0.196-1.632,0.515-2.058c0.036-0.022,3.9-2.38,4.996-5.302c0.588-1.568-2.6-5.035-5.126-6.934
		c-0.661-0.497-0.795-1.437-0.298-2.099c0.497-0.663,1.437-0.797,2.098-0.3c1.308,0.98,7.746,6.088,6.134,10.385
		c-1.465,3.91-6.066,6.706-6.261,6.823c-0.242,0.145-0.508,0.214-0.77,0.214C210.809,224.036,210.312,223.776,210.031,223.307"/>
	<path style="fill:#FFFFFF;" d="M259.995,255.514c-6.495,2.911-10.938,6.407-13.673,9.026l64.673,4.216l0.096-0.467v-16.27
		C300.073,251.652,269.858,251.092,259.995,255.514"/>
	<path style="fill:#FFFFFF;" d="M118.655,252.292c-3.523,6.164-12.006,14.68-12.365,15.039c-0.293,0.293-0.677,0.44-1.061,0.44
		s-0.767-0.147-1.06-0.44c-0.586-0.585-0.586-1.535,0-2.121c0.085-0.085,8.558-8.592,11.881-14.406
		c2.529-4.426,7.153-9.177,9.724-11.652v-27.421c-3.268,5.091-7.631,12.372-9.61,17.812c-3.147,8.655-11.857,26.653-22.296,32.821
		c-8.49,5.017-24.01,21.663-26.565,24.431v5.435c5.864-4.891,18.057-14.992,24.467-19.798c0.662-0.495,1.604-0.363,2.101,0.299
		c0.497,0.664,0.362,1.604-0.3,2.101c-7.182,5.385-21.734,17.513-26.268,21.307v2.165l58.471-39.763v-15.144
		C123.371,245.873,120.411,249.219,118.655,252.292"/>
	<path style="fill:#FFFFFF;" d="M92.34,259.782c9.005-5.32,17.494-21.612,21.004-31.265c2.697-7.417,9.344-17.681,12.43-22.255
		v-11.299c-3.191,1.993-8.562,4.611-16.003,5.674c-10.388,1.484-36.67,14.326-42.822,17.382c0.026,0.102,0.042,0.205,0.065,0.307
		c0.064,0.297,0.116,0.597,0.158,0.9c0.019,0.131,0.04,0.26,0.055,0.392c0.046,0.43,0.076,0.864,0.076,1.307v11.496
		c5.459-1.848,20.906-7.274,25.742-11.067c6.214-4.874,10.498-6.669,13.1-5.495c0.765,0.347,2.07,1.287,2.204,3.69
		c0.337,6.028-6.904,18.233-15.521,23.356c-13.492,8.023-25.361,22.025-25.479,22.165c-0.014,0.017-0.031,0.028-0.046,0.044v17.28
		C72.617,276.757,84.825,264.223,92.34,259.782"/>
	<path style="fill:#FFFFFF;" d="M59.362,208.697c0.061,0.032,0.123,0.06,0.184,0.094c0.361,0.195,0.716,0.407,1.064,0.632
		c0.072,0.046,0.142,0.098,0.213,0.146c0.271,0.182,0.538,0.372,0.799,0.571c0.1,0.077,0.199,0.156,0.299,0.236
		c0.238,0.191,0.47,0.389,0.697,0.594c0.087,0.078,0.175,0.154,0.26,0.234c0.303,0.287,0.599,0.582,0.879,0.892
		c0.001,0.002,0.003,0.004,0.004,0.005c0.275,0.306,0.535,0.626,0.785,0.953c0.074,0.098,0.144,0.2,0.216,0.299
		c0.176,0.243,0.344,0.49,0.504,0.744c0.073,0.115,0.143,0.228,0.212,0.344c0.146,0.246,0.282,0.498,0.411,0.753
		c6.764-3.365,32.642-15.981,43.457-17.528c8.332-1.189,13.914-4.526,16.373-6.285c-0.412-9.353-3.201-13.749-4.471-15.283
		l-63.495,31.863c0.127,0.048,0.251,0.107,0.377,0.159c0.106,0.045,0.212,0.089,0.318,0.136
		C58.757,208.392,59.06,208.54,59.362,208.697"/>
	<path style="fill:#FFFFFF;" d="M129.526,176.286c1.144,2.474,2.199,5.769,2.781,10.087c11.702,1.525,53.692,7.05,71.033,10.002
		c20.621,3.509,49.884,2.073,63.171-0.004c13.863-2.166,44.503-0.103,45.8-0.014c0.285,0.02,0.543,0.121,0.76,0.276
		c1.078-2.683,2.547-5.219,4.299-7.342L129.526,176.286z"/>
	<path style="fill:#FFFFFF;" d="M132.774,202.489v23.689c9.287-0.203,38.983-1.113,57.913-4.684c8.928-1.685,9.153-3.51,9.154-3.529
		c0.057-0.844-1.541-3.384-17.577-8.729C173.172,206.205,139.693,203.106,132.774,202.489"/>
	<path style="fill:#FFFFFF;" d="M53.266,240.088c1.559,0,4.449-1.925,7.037-4.062v-12.49c-1.539,1.737-3.314,3.11-5.078,3.11
		c-0.139,0-0.275-0.008-0.413-0.026c-2.366-0.295-5.067-2.011-6.907-3.389v11.24C48.905,236.542,51.217,240.088,53.266,240.088"/>
	<path style="fill:#FFFFFF;" d="M55.133,277.29c-2.48,0.226-5.281,1.521-7.229,2.591v11.131c2.395-1.656,5.813-3.822,7.713-4.139
		c1.324-0.223,2.999,0.712,4.686,2.11v-7.797C59.117,279.272,57.242,277.112,55.133,277.29"/>
	<path style="fill:#FFFFFF;" d="M60.303,293.117c-1.89-1.929-3.553-3.26-4.232-3.281c-1.388,0.234-5.392,2.832-8.166,4.856v6.455
		l12.398,0.21V293.117z"/>
	<path style="fill:#FFFFFF;" d="M60.303,276.443V263.61c-2.584-1.314-5.934-2.769-7.469-2.769c-1.162,0-3.125,0.869-4.929,1.862
		v13.801c2.044-1.001,4.571-1.985,6.958-2.203C57.027,274.097,58.854,275.095,60.303,276.443"/>
	<path style="fill:#FFFFFF;" d="M60.303,260.266v-20.41c-2.322,1.715-4.96,3.232-7.037,3.232c-2.143,0-3.967-1.436-5.361-3.083
		v19.321c1.665-0.809,3.485-1.484,4.929-1.484C54.805,257.841,57.926,259.129,60.303,260.266"/>
	<polygon style="fill:#FFFFFF;" points="318.09,245.887 322.482,241.696 322.482,233.187 318.09,236.928 	"/>
	<polygon style="fill:#FFFFFF;" points="322.482,212.882 318.09,216.835 318.09,232.988 322.482,229.246 	"/>
	<polygon style="fill:#FFFFFF;" points="322.482,245.842 318.09,250.033 318.09,264.495 322.482,260.76 	"/>
	<path style="fill:#FFFFFF;" d="M55.184,223.643c0.992,0.105,2.967-1.998,4.751-4.614c-1.049-2.738-4.158-4.916-6.71-4.965
		l-5.32-0.094v5.4C49.239,220.555,52.811,223.347,55.184,223.643"/>
	<path style="fill:#FFFFFF;" d="M318.09,206.189v6.609l4.373-3.936c0.006-0.005,0.014-0.006,0.019-0.011v-14.056
		C319.758,198.352,318.09,202.564,318.09,206.189"/>
</g>
</svg>
