<?xml version="1.0" encoding="iso-8859-1"?>
<!-- Generator: Adobe Illustrator 25.4.1, SVG Export Plug-In . SVG Version: 6.00 Build 0)  -->
<svg version="1.1" id="Calque_1" xmlns="http://www.w3.org/2000/svg" xmlns:xlink="http://www.w3.org/1999/xlink" x="0px" y="0px"
	 viewBox="0 0 368.5 368.5" style="enable-background:new 0 0 368.5 368.5;" xml:space="preserve">
<g>
	<path style="fill:#FFFFFF;" d="M122.961,67.142v101.673l198.928,13.771V71.969c0-2.661-2.166-4.826-4.828-4.826H122.961z"/>
	<path style="fill:#FFFFFF;" d="M118.961,67.142H50.846c-2.662,0-4.828,2.165-4.828,4.826V205.51c0,0.165,0.032,0.322,0.048,0.483
		l72.895-36.579V67.142z"/>
	<path style="fill:#FFFFFF;" d="M94.896,223.716c-5.603,4.394-23.146,10.393-27.593,11.871v25.015
		c4.135-4.513,13.46-14.012,23.993-20.275c7.983-4.746,14.313-16.036,14.058-20.611c-0.024-0.431-0.121-0.976-0.446-1.123
		C104.68,218.492,102.483,217.765,94.896,223.716"/>
	<path style="fill:#FFFFFF;" d="M92.341,259.782c9.004-5.32,17.494-21.612,21.003-31.265c2.698-7.417,9.344-17.681,12.43-22.255
		v-11.299c-3.191,1.993-8.561,4.611-16.003,5.674c-10.39,1.485-36.67,14.325-42.822,17.382c0.026,0.102,0.042,0.205,0.065,0.308
		c0.064,0.296,0.116,0.596,0.158,0.898c0.019,0.131,0.04,0.261,0.055,0.393c0.046,0.43,0.076,0.864,0.076,1.307v11.496
		c5.459-1.848,20.905-7.274,25.741-11.067c6.215-4.874,10.499-6.67,13.1-5.495c0.766,0.347,2.071,1.287,2.205,3.69
		c0.336,6.028-6.903,18.233-15.52,23.356c-13.48,8.016-25.362,22.025-25.48,22.166c-0.014,0.017-0.031,0.027-0.046,0.043v17.281
		C72.617,276.758,84.825,264.223,92.341,259.782"/>
	<path style="fill:#FFFFFF;" d="M258.767,252.777c10.523-4.717,41.02-4.154,52.323-3.766v-9.59l-17.596-1.099
		c-0.826-0.052-1.455-0.764-1.403-1.591c0.051-0.826,0.742-1.455,1.59-1.403l17.409,1.087v-17.544
		c-9.918-1.02-38.367-3.453-53.952,0.358c-9.673,2.365-21.818,5.617-31.577,8.23c-13.29,3.559-18.028,4.804-19.008,4.804
		c-0.829,0-1.5-0.672-1.5-1.5c0-0.816,0.651-1.479,1.462-1.5c1.094-0.102,9.438-2.337,18.27-4.702
		c9.773-2.616,21.936-5.873,31.64-8.246c16.081-3.932,44.311-1.542,54.665-0.467v-9.658c0-2.223,0.37-4.552,1.037-6.841
		c-0.007,0-0.014,0.002-0.022,0.001c-0.314-0.02-31.603-2.131-45.132-0.014c-7.564,1.182-20.24,2.159-33.608,2.159
		c-10.456,0-21.334-0.597-30.528-2.163c-16.962-2.886-57.641-8.252-70.219-9.893c0.099,1.351,0.155,2.781,0.155,4.307v5.732
		c6.421,0.563,40.78,3.692,50.439,6.913c11.986,3.994,19.91,7.525,19.622,11.777c-0.194,2.864-3.769,4.798-11.591,6.274
		c-19.183,3.619-49.175,4.535-58.47,4.737v17.463c9.602,0.359,62.697,2.155,81.298-1.334c8.117-1.521,15.98-3.215,23.585-4.853
		c11.845-2.552,22.075-4.756,29.797-5.555c0.818-0.081,1.56,0.514,1.646,1.338c0.085,0.824-0.513,1.561-1.337,1.646
		c-7.559,0.781-17.715,2.97-29.474,5.503c-7.624,1.643-15.507,3.341-23.664,4.87c-9.068,1.7-25.704,2.187-41.759,2.187
		c-17.747,0-34.773-0.594-40.092-0.797v7.492l109.595,7.145C244.955,261.428,250.18,256.625,258.767,252.777 M210.03,223.307
		c-0.427-0.71-0.196-1.632,0.515-2.058c0.037-0.022,3.9-2.38,4.996-5.302c0.588-1.568-2.599-5.035-5.125-6.934
		c-0.662-0.497-0.796-1.437-0.299-2.099c0.496-0.663,1.434-0.798,2.1-0.3c1.306,0.98,7.745,6.088,6.132,10.385
		c-1.465,3.91-6.066,6.706-6.261,6.823c-0.242,0.145-0.508,0.214-0.771,0.214C210.808,224.036,210.311,223.776,210.03,223.307"/>
	<path style="fill:#FFFFFF;" d="M259.995,255.514c-6.469,2.899-10.918,6.402-13.663,9.026l64.662,4.216l0.096-0.467v-16.271
		C300.073,251.652,269.857,251.092,259.995,255.514"/>
	<path style="fill:#FFFFFF;" d="M118.654,252.292c-3.523,6.164-12.006,14.68-12.365,15.039c-0.293,0.293-0.677,0.44-1.061,0.44
		s-0.767-0.147-1.06-0.44c-0.586-0.585-0.586-1.535,0-2.121c0.085-0.085,8.558-8.592,11.881-14.406
		c2.529-4.426,7.153-9.176,9.724-11.651v-27.421c-3.269,5.09-7.631,12.371-9.61,17.811c-3.147,8.655-11.857,26.653-22.297,32.821
		c-8.489,5.017-24.008,21.661-26.564,24.431v5.435c5.864-4.891,18.057-14.992,24.467-19.798c0.665-0.495,1.604-0.363,2.101,0.299
		c0.497,0.664,0.362,1.604-0.3,2.101c-7.182,5.385-21.734,17.513-26.268,21.307v2.165l58.471-39.763v-15.144
		C123.37,245.874,120.41,249.219,118.654,252.292"/>
	<path style="fill:#FFFFFF;" d="M59.367,208.7c0.059,0.031,0.118,0.058,0.176,0.09c0.363,0.196,0.719,0.408,1.068,0.634
		c0.07,0.046,0.137,0.095,0.207,0.142c0.274,0.183,0.541,0.374,0.805,0.575c0.099,0.077,0.197,0.155,0.296,0.234
		c0.238,0.191,0.471,0.389,0.699,0.596c0.086,0.078,0.174,0.153,0.259,0.233c0.303,0.286,0.598,0.581,0.879,0.892
		c0.002,0.002,0.003,0.003,0.004,0.005c0.275,0.305,0.535,0.625,0.784,0.953c0.075,0.098,0.145,0.2,0.218,0.3
		c0.175,0.242,0.343,0.49,0.502,0.742c0.073,0.115,0.145,0.229,0.213,0.345c0.146,0.246,0.282,0.498,0.412,0.753
		c6.763-3.365,32.641-15.981,43.457-17.528c8.332-1.189,13.914-4.526,16.373-6.285c-0.413-9.353-3.202-13.747-4.471-15.283
		l-63.495,31.863c0.128,0.049,0.253,0.108,0.38,0.161c0.103,0.043,0.208,0.086,0.312,0.133
		C58.756,208.391,59.062,208.541,59.367,208.7"/>
	<path style="fill:#FFFFFF;" d="M132.773,202.489v23.689c9.287-0.203,38.983-1.113,57.913-4.684c8.928-1.685,9.153-3.51,9.154-3.529
		c0.058-0.844-1.541-3.384-17.578-8.729C173.17,206.205,139.692,203.106,132.773,202.489"/>
	<path style="fill:#FFFFFF;" d="M129.525,176.286c1.144,2.474,2.199,5.769,2.781,10.087c11.701,1.525,53.692,7.05,71.035,10.002
		c20.618,3.509,49.883,2.073,63.169-0.004c13.863-2.166,44.502-0.103,45.8-0.014c0.285,0.02,0.543,0.122,0.76,0.276
		c1.079-2.683,2.548-5.219,4.3-7.342L129.525,176.286z"/>
	<polygon style="fill:#FFFFFF;" points="322.483,245.841 318.09,250.032 318.09,264.495 322.483,260.76 	"/>
	<polygon style="fill:#FFFFFF;" points="322.483,212.882 318.09,216.835 318.09,232.987 322.483,229.246 	"/>
	<path style="fill:#FFFFFF;" d="M55.184,223.643c1,0.129,2.97-1.982,4.753-4.609c-1.047-2.741-4.159-4.921-6.712-4.97l-5.32-0.094
		v5.4C49.239,220.555,52.811,223.347,55.184,223.643"/>
	<polygon style="fill:#FFFFFF;" points="318.09,245.887 322.483,241.696 322.483,233.187 318.09,236.928 	"/>
	<path style="fill:#FFFFFF;" d="M55.134,277.29c-2.475,0.225-5.278,1.523-7.229,2.593v11.128c2.394-1.655,5.812-3.821,7.711-4.138
		c1.329-0.223,3.003,0.71,4.687,2.106v-7.782C59.108,279.276,57.216,277.102,55.134,277.29"/>
	<path style="fill:#FFFFFF;" d="M53.266,240.088c1.559,0,4.449-1.925,7.037-4.062v-12.489c-1.539,1.736-3.313,3.109-5.078,3.109
		c-0.138,0-0.275-0.008-0.413-0.026c-2.366-0.295-5.067-2.011-6.907-3.389v11.241C48.906,236.543,51.218,240.088,53.266,240.088"/>
	<path style="fill:#FFFFFF;" d="M60.303,293.117c-1.89-1.93-3.553-3.261-4.233-3.281c-1.387,0.234-5.391,2.831-8.165,4.855v6.456
		l12.398,0.21V293.117z"/>
	<path style="fill:#FFFFFF;" d="M60.303,260.266v-20.41c-2.322,1.715-4.96,3.232-7.037,3.232c-2.142,0-3.967-1.436-5.361-3.083
		v19.32c1.666-0.808,3.486-1.483,4.929-1.483C54.806,257.841,57.926,259.129,60.303,260.266"/>
	<path style="fill:#FFFFFF;" d="M60.303,276.448V263.61c-2.584-1.314-5.934-2.768-7.469-2.768c-1.162,0-3.125,0.868-4.929,1.861
		v13.801c2.044-1.001,4.571-1.985,6.958-2.202C57.03,274.108,58.856,275.105,60.303,276.448"/>
	<path style="fill:#FFFFFF;" d="M318.09,206.189v6.609l4.373-3.936c0.006-0.005,0.014-0.007,0.02-0.012v-14.055
		C319.758,198.352,318.09,202.564,318.09,206.189"/>
</g>
</svg>
