<?xml version="1.0" encoding="iso-8859-1"?>
<!-- Generator: Adobe Illustrator 25.4.1, SVG Export Plug-In . SVG Version: 6.00 Build 0)  -->
<svg version="1.1" id="Calque_1" xmlns="http://www.w3.org/2000/svg" xmlns:xlink="http://www.w3.org/1999/xlink" x="0px" y="0px"
	 viewBox="0 0 368.5 368.5" style="enable-background:new 0 0 368.5 368.5;" xml:space="preserve">
<g>
	<path style="fill:#FFFFFF;" d="M118.961,67.143H50.846c-2.662,0-4.828,2.165-4.828,4.826v133.542c0,0.165,0.032,0.321,0.048,0.483
		l72.895-36.579V67.143z"/>
	<path style="fill:#FFFFFF;" d="M122.961,67.143v101.673l198.928,13.771V71.969c0-2.661-2.166-4.826-4.828-4.826H122.961z"/>
	<path style="fill:#FFFFFF;" d="M169.082,197.423c0-6.009,3.16-12.797,8.264-17.825l-47.82-3.311
		c1.722,3.728,3.247,9.321,3.247,17.458v63.393l36.309,2.366V197.423z"/>
	<path style="fill:#FFFFFF;" d="M97.305,201.392c0-4.048-4.312-7.598-7.843-7.664l-3.231-0.057l-28.48,14.29
		c0.129,0.05,0.256,0.11,0.384,0.163c0.104,0.043,0.205,0.085,0.307,0.13c0.315,0.14,0.626,0.29,0.933,0.452
		c0.055,0.029,0.112,0.054,0.166,0.084c0.364,0.197,0.721,0.41,1.072,0.636c0.068,0.045,0.133,0.094,0.202,0.139
		c0.274,0.184,0.544,0.377,0.808,0.579c0.1,0.075,0.197,0.153,0.294,0.231c0.24,0.193,0.473,0.392,0.702,0.598
		c0.085,0.077,0.172,0.152,0.257,0.232c0.304,0.287,0.599,0.582,0.879,0.892c0.003,0.004,0.007,0.009,0.011,0.013
		c0.271,0.302,0.529,0.62,0.776,0.944c0.077,0.1,0.148,0.203,0.222,0.305c0.174,0.241,0.34,0.486,0.499,0.738
		c0.073,0.115,0.146,0.23,0.215,0.347c0.164,0.277,0.316,0.56,0.461,0.849c0.044,0.087,0.093,0.171,0.134,0.26
		c0.177,0.375,0.337,0.759,0.48,1.152c0.033,0.093,0.06,0.19,0.092,0.285c0.102,0.305,0.194,0.614,0.273,0.928
		c0.035,0.136,0.065,0.273,0.095,0.41c0.063,0.296,0.116,0.595,0.158,0.898c0.019,0.131,0.04,0.261,0.054,0.393
		c0.047,0.429,0.077,0.864,0.077,1.306v77.379l30.003-20.403V201.392z"/>
	<path style="fill:#FFFFFF;" d="M241.695,201.177c0-5.545,2.693-11.754,7.119-16.632l-66.017-4.57l-2.397,2.221
		c-4.436,4.241-7.318,10.226-7.318,15.227v62.342l68.613,4.474V201.177z"/>
	<path style="fill:#FFFFFF;" d="M125.773,193.745c0-10.987-3.151-15.985-4.525-17.646l-28.422,14.262
		c4.416,1.563,8.478,5.867,8.478,11.03v73.79l24.469-16.641V193.745z"/>
	<path style="fill:#FFFFFF;" d="M311.09,206.19c0-5.784,2.488-12.303,6.28-16.899l-63.235-4.378l-1.121,1.038
		c-4.437,4.24-7.319,10.225-7.319,15.225v63.323l65.299,4.256l0.096-0.465V206.19z"/>
	<path style="fill:#FFFFFF;" d="M60.302,220.925c0-3.559-3.958-6.801-7.078-6.86l-5.32-0.095v87.178l12.398,0.21V220.925z"/>
	<path style="fill:#FFFFFF;" d="M322.482,194.796c-2.725,3.557-4.392,7.768-4.392,11.395v58.303l4.392-3.734V194.796z"/>
</g>
</svg>
