<?xml version="1.0" encoding="iso-8859-1"?>
<!-- Generator: Adobe Illustrator 25.4.1, SVG Export Plug-In . SVG Version: 6.00 Build 0)  -->
<svg version="1.1" id="Calque_1" xmlns="http://www.w3.org/2000/svg" xmlns:xlink="http://www.w3.org/1999/xlink" x="0px" y="0px"
	 viewBox="0 0 368.5 368.5" style="enable-background:new 0 0 368.5 368.5;" xml:space="preserve">
<g>
	<path style="fill:#FFFFFF;" d="M122.229,66.182v103.674l199.928,13.841V72.008c0-3.213-2.595-5.826-5.785-5.826H122.229z"/>
	<path style="fill:#FFFFFF;" d="M118.229,66.182H51.535c-3.191,0-5.785,2.613-5.785,5.826v133.541c0,0.453,0.056,0.893,0.154,1.317
		l72.326-36.293V66.182z"/>
	<polygon style="fill:#FFFFFF;" points="123.042,218.739 57.104,255.309 57.104,275.097 123.042,237.445 	"/>
	<path style="fill:#FFFFFF;" d="M317.301,206.18c0-3.341,0.236-8.218,1.363-12.525c0.022-0.081,0.047-0.161,0.076-0.24
		c0.645-1.731,1.394-3.335,2.22-4.789l-58.689-4.063c5.961,2.98,10.458,7.206,10.307,13.183c0,0.008-0.001,0.016-0.002,0.024
		c0,0.01,0.003,0.017,0.003,0.027v68.779l44.919,2.833L317.301,206.18z"/>
	<polygon style="fill:#FFFFFF;" points="57.104,278.552 57.104,300.031 123.043,258.769 123.043,240.9 	"/>
	<path style="fill:#FFFFFF;" d="M234.408,243.762c0.388,0.031,9.702,0.804,18.916,3.493v-18.869
		c-9.179-2.805-19.082-3.628-19.182-3.636l-4.831-0.471l-101.269-7v18.848l101.519,7.162L234.408,243.762z"/>
	<path style="fill:#FFFFFF;" d="M229.561,221.29l4.848,0.473c0.384,0.031,9.698,0.803,18.916,3.493v-9.417
		c0-1.072,0.682-2.024,1.697-2.367c0.23-0.08,2.904-1.033,5.726-3.184c-10.204-5.161-26.435-6.523-26.605-6.537l-4.831-0.472
		l-101.269-7.119v18.112L229.561,221.29z"/>
	<path style="fill:#FFFFFF;" d="M128.037,193.153l101.525,7.137l4.846,0.472c0.719,0.058,18.048,1.51,28.726,7.394
		c2.352-2.474,4.33-5.913,4.446-10.534c0.249-9.926-24.743-14.171-33.518-14.875c-0.262-0.022-0.506-0.093-0.738-0.188
		l-107.934-7.471C126.645,178.411,127.977,184.072,128.037,193.153"/>
	<path style="fill:#FFFFFF;" d="M57.104,222.104v7.07l65.938-34.799v-0.591c0-11.162-2.022-16.542-3.02-18.517l-68.1,34.172
		C55.188,211.85,57.104,217.148,57.104,222.104"/>
	<polygon style="fill:#FFFFFF;" points="123.042,215.309 123.042,197.766 57.104,232.566 57.104,251.879 	"/>
	<path style="fill:#FFFFFF;" d="M52.104,222.104c0-5.076-2.472-8.959-4.075-9l-1.857-0.074v89.153l5.932,0.135V222.104z"/>
	<path style="fill:#FFFFFF;" d="M322.477,262.292l0.274-0.509v-62.949c-0.357,2.663-0.45,5.309-0.45,7.338L322.477,262.292z"/>
	<path style="fill:#FFFFFF;" d="M267.579,210.893c-3.165,3.694-7.061,5.845-9.254,6.85v81.378c3.662-2.137,9.061-6.598,9.255-14.386
		L267.579,210.893z"/>
	<path style="fill:#FFFFFF;" d="M234.463,264.2c0.434,0.035,9.654,0.8,18.861,3.451v-17.263c-9.191-2.809-19.08-3.628-19.181-3.637
		l-4.832-0.472l-101.269-7.143v18.326l106.221,6.699v0.046C234.33,264.206,234.396,264.196,234.463,264.2"/>
</g>
</svg>
