<?xml version="1.0" encoding="iso-8859-1"?>
<!-- Generator: Adobe Illustrator 25.4.1, SVG Export Plug-In . SVG Version: 6.00 Build 0)  -->
<svg version="1.1" id="Calque_1" xmlns="http://www.w3.org/2000/svg" xmlns:xlink="http://www.w3.org/1999/xlink" x="0px" y="0px"
	 viewBox="0 0 368.5 368.5" style="enable-background:new 0 0 368.5 368.5;" xml:space="preserve">
<g>
	<path style="fill:#FFFFFF;" d="M254.415,87.637c9.521,0,17.268-7.746,17.268-17.266s-7.746-17.266-17.268-17.266
		c-9.521,0-17.267,7.746-17.267,17.266S244.895,87.637,254.415,87.637z"/>
	<path style="fill:#FFFFFF;" d="M306.287,117.796c5.456,0,9.895-4.438,9.895-9.892c0-5.456-4.438-9.894-9.895-9.894H202.874
		c-5.455,0-9.894,4.438-9.894,9.894c0,5.455,4.438,9.892,9.894,9.892h36.254v38.07l-0.228,0.601L215.229,218.8
		c-0.901,2.446-0.794,5.134,0.313,7.533c1.108,2.399,3.084,4.224,5.563,5.137c5.125,1.883,10.818-0.748,12.703-5.865l20.473-53.911
		l20.461,53.878c1.896,5.15,7.591,7.781,12.714,5.898c5.119-1.885,7.751-7.584,5.867-12.703l-24.277-63.929v-37.042H306.287z"/>
</g>
<g>
	<path style="fill:#FFFFFF;" d="M127.514,170.747l-6.075,3.825l22.245,12.843c0.862,0.498,2.496,1.227,3.744,0.504
		c1.115-0.643,1.838-2.297,2.009-4.515L127.514,170.747z"/>
	<path style="fill:#FFFFFF;" d="M126.471,270.397l-12.249-50.075l-6.338,3.352l12.594,51.489c1.701,7.139,6.655,12.43,10.04,12.723
		c0.9,0.073,1.587-0.196,2.161-0.861c0.639-0.74,1.191-2.141,1.329-4.1C130.678,280.333,127.717,275.628,126.471,270.397z"/>
	<path style="fill:#FFFFFF;" d="M89.721,256.725c-4.947-5.284-7.481-14.064-5.66-19.607l17.147-50.302v-31.257l-24.045-13.884
		c-5.175-2.986-9.376-10.908-9.529-17.845l-0.141-0.082c-0.862-0.499-2.497-1.223-3.745-0.504c-1.283,0.741-2.049,2.817-2.049,5.554
		c0,6.117,3.798,13.476,8.293,16.069l25.295,14.606v33.114l-17.281,50.695c-1.528,4.652,0.811,12.491,5.118,17.09
		c2.042,2.182,4.277,3.316,5.84,2.978c1.234-0.272,1.885-1.521,2.213-2.52l0.732-2.149
		C91.178,258.147,90.444,257.497,89.721,256.725z"/>
	<path style="fill:#FFFFFF;" d="M159.928,99.003L76.541,53.777c-6.595-3.298-11.459-2.139-14.656,0.92
		c2.137,0.171,4.585,0.817,7.354,2.202l83.529,45.302c6.272,3.659,16.795,13.014,16.795,34.563l-0.002,167.232
		c0,2.606-0.553,5.774-1.877,8.705c5.227-2.221,7.797-8.585,7.797-14.063V277.26c0-0.003,0.002-0.009,0.002-0.014V131.408
		C175.483,114.061,168.27,103.87,159.928,99.003z"/>
	<path style="fill:#FFFFFF;" d="M150.282,106.54L66.929,61.333c-2.254-1.126-4.331-1.693-6.199-1.693
		c-1.532,0-2.924,0.38-4.163,1.146c-3.625,2.241-5.248,7.27-5.248,11.26v167.232c0,19.049,8.967,27.126,14.312,30.245l83.321,45.188
		c4.102,2.048,7.612,2.247,10.361,0.547c3.625-2.24,5.248-7.27,5.248-11.261l0.002-167.232
		C164.563,117.754,155.631,109.672,150.282,106.54z M94.775,92.047c3.492-2.015,7.817-1.738,12.18,0.781
		c8.999,5.194,16.048,18.564,16.048,30.438c0,6.646-2.32,11.796-6.364,14.132c-1.543,0.891-3.249,1.334-5.048,1.334
		c-2.274,0-4.699-0.708-7.136-2.115c-8.998-5.194-16.046-18.563-16.046-30.437C88.409,99.534,90.729,94.382,94.775,92.047z
		 M149.928,192.249c-2.537,1.464-5.643,1.286-8.744-0.505l-19.59-11.31v27.604l16.797,68.672c1.328,5.571,0.606,10.643-1.925,13.579
		c-1.463,1.697-3.455,2.607-5.666,2.607c-0.235,0-0.472-0.01-0.712-0.031c-6.029-0.521-12.385-7.782-14.47-16.53l-10.212-41.749
		l-9.487,27.833c-1.029,3.131-3.119,5.205-5.876,5.813c-3.373,0.746-7.227-0.873-10.568-4.441
		c-5.59-5.971-8.318-15.676-6.209-22.095l17.022-49.937V162.36l-22.795-13.162c-6.052-3.492-10.794-12.453-10.794-20.4
		c0-4.612,1.658-8.215,4.549-9.884c2.537-1.465,5.643-1.287,8.745,0.504l73.691,42.547c6.051,3.492,10.793,12.453,10.794,20.399
		C154.478,186.978,152.819,190.58,149.928,192.249z"/>
	<path style="fill:#FFFFFF;" d="M106.955,132.287c1.947,1.124,4.773,2.172,7.184,0.781c1.017-0.587,1.842-1.561,2.474-2.821
		c-0.809-0.284-1.639-0.663-2.487-1.153c-8.172-4.717-14.797-17.376-14.797-28.271c0-1.896,0.222-3.589,0.597-5.107
		c-0.029,0-0.058-0.004-0.087-0.004c-0.869,0-1.74,0.19-2.563,0.666c-2.457,1.418-3.866,4.991-3.866,9.803
		C93.409,116.093,99.612,128.048,106.955,132.287z"/>
</g>
</svg>
