<?xml version="1.0" encoding="iso-8859-1"?>
<!-- Generator: Adobe Illustrator 25.4.1, SVG Export Plug-In . SVG Version: 6.00 Build 0)  -->
<svg version="1.1" id="Calque_1" xmlns="http://www.w3.org/2000/svg" xmlns:xlink="http://www.w3.org/1999/xlink" x="0px" y="0px"
	 viewBox="0 0 368.5 368.5" style="enable-background:new 0 0 368.5 368.5;" xml:space="preserve">
<g>
	<path style="fill:#FFFFFF;" d="M299.747,274.828h-11.053l10.775,25.029c0.802,1.866,2.634,3.071,4.666,3.071h0.001
		c0.688,0,1.362-0.141,2.004-0.416c2.568-1.106,3.759-4.098,2.653-6.67L299.747,274.828z"/>
	<path style="fill:#FFFFFF;" d="M66.245,274.828l-9.046,21.014c-1.106,2.572,0.085,5.564,2.655,6.672
		c0.64,0.273,1.314,0.414,2.003,0.414c2.032,0,3.864-1.205,4.666-3.071l10.774-25.029H66.245z"/>
	<path style="fill:#FFFFFF;" d="M60.145,85.996v180.109c0,2.053,1.671,3.723,3.725,3.723h239.478c2.054,0,3.724-1.67,3.724-3.723
		V85.996H60.145z M97.225,248.656c-8.182,0-14.838-6.656-14.838-14.838v-6.365c-1.982-1.358-3.287-3.637-3.287-6.215v-25.117
		c0-2.578,1.305-4.856,3.287-6.211v-38.547c-1.982-1.357-3.287-3.635-3.287-6.213v-25.119c0-2.578,1.305-4.855,3.287-6.211v-5.416
		c0-8.182,6.656-14.84,14.838-14.84h174.256c8.183,0,14.841,6.658,14.841,14.84v59.656l12.12,12.744
		c1.385,1.456,2.12,3.366,2.069,5.375c-0.051,2.01-0.881,3.879-2.337,5.264c-1.405,1.336-3.245,2.072-5.183,2.072
		c-2.053,0-4.041-0.853-5.455-2.341l-1.214-1.278v43.922c0,8.182-6.658,14.838-14.841,14.838H97.225z"/>
	<path style="fill:#FFFFFF;" d="M314.359,65.572H54.141c-4.252,0-7.711,3.461-7.711,7.713c0,4.252,3.459,7.711,7.711,7.711h260.218
		c4.252,0,7.711-3.459,7.711-7.711C322.07,69.033,318.611,65.572,314.359,65.572"/>
	<path style="fill:#FFFFFF;" d="M281.322,184.638l-11.093-11.668c-1.385-1.455-2.12-3.363-2.07-5.373
		c0.051-2.009,0.88-3.879,2.337-5.263c1.405-1.334,3.246-2.071,5.184-2.071c2.051,0,4.038,0.852,5.452,2.338l0.19,0.201v-54.398
		c0-5.426-4.415-9.84-9.841-9.84H97.225c-5.425,0-9.838,4.414-9.838,9.84v4.143c3.791,0.382,6.76,3.593,6.76,7.484v25.119
		c0,3.891-2.969,7.102-6.76,7.485v36.001c3.791,0.383,6.76,3.594,6.76,7.485v25.117c0,3.893-2.969,7.104-6.76,7.486v5.094
		c0,5.426,4.413,9.838,9.838,9.838h174.256c5.426,0,9.841-4.412,9.841-9.838V184.638z M116.862,237.531
		c-7.283,0-13.208-5.926-13.208-13.209V116.818c0-7.281,5.925-13.207,13.208-13.207h134.61c7.282,0,13.207,5.926,13.207,13.207
		v107.504c0,7.283-5.925,13.209-13.207,13.209H116.862z"/>
	<path style="fill:#FFFFFF;" d="M89.147,221.238v-25.117c0-1.391-1.132-2.524-2.523-2.524c-1.392,0-2.524,1.133-2.524,2.524v25.117
		c0,1.393,1.132,2.525,2.524,2.525C88.015,223.763,89.147,222.631,89.147,221.238"/>
	<path style="fill:#FFFFFF;" d="M89.147,145.15v-25.119c0-1.391-1.132-2.524-2.523-2.524c-1.392,0-2.524,1.133-2.524,2.524v25.119
		c0,1.393,1.132,2.523,2.524,2.523C88.015,147.673,89.147,146.543,89.147,145.15"/>
	<path style="fill:#FFFFFF;" d="M277.509,166.047c-0.481-0.506-1.13-0.783-1.829-0.783c-0.649,0-1.267,0.246-1.739,0.695
		c-0.488,0.463-0.766,1.09-0.783,1.764s0.229,1.314,0.694,1.803l17.309,18.203c0.93,0.978,2.59,1.021,3.568,0.091
		c0.488-0.464,0.767-1.091,0.784-1.767c0.017-0.674-0.229-1.315-0.693-1.801L277.509,166.047z"/>
	<path style="fill:#FFFFFF;" d="M185.588,187.447c0.605,0.609,1.197,1.146,1.867,1.699c0.17,0.149,0.383,0.219,0.596,0.219
		c0.159,0,0.319-0.039,0.462-0.123c0.339-0.193,0.523-0.574,0.462-0.955c-1.11-7.072,1.247-14.307,6.301-19.365l9.486-9.479
		l3.24-3.246c10.516-10.516,11.209-27.625,1.577-38.951c-0.449-0.526-1.006-1.172-1.577-1.746c-0.623-0.623-1.266-1.209-1.91-1.748
		c-0.174-0.139-0.382-0.215-0.598-0.215c-0.158,0-0.32,0.039-0.463,0.127c-0.34,0.187-0.523,0.572-0.461,0.957
		c1.125,7.092-1.215,14.347-6.268,19.4l-9.482,9.481l-3.243,3.246c-11.178,11.17-11.211,29.39-0.078,40.615L185.588,187.447z"/>
	<path style="fill:#FFFFFF;" d="M213.937,167l-1.55,1.547c-5.327,5.334-5.345,14.021-0.035,19.375
		c0.331,0.33,0.616,0.592,0.933,0.851c0.082,0.067,0.182,0.102,0.283,0.102c0.078,0,0.153-0.02,0.223-0.053
		c0.16-0.094,0.248-0.279,0.219-0.463c-0.528-3.367,0.597-6.818,3.005-9.234l4.525-4.521l1.544-1.546
		c5.018-5.019,5.345-13.177,0.752-18.579c-0.236-0.278-0.488-0.573-0.752-0.837c-0.291-0.288-0.596-0.57-0.914-0.83
		c-0.082-0.066-0.18-0.103-0.282-0.103c-0.076,0-0.154,0.021-0.222,0.058c-0.162,0.092-0.25,0.276-0.218,0.462
		c0.539,3.38-0.58,6.837-2.991,9.251L213.937,167z"/>
	<path style="fill:#FFFFFF;" d="M153.677,188.775c0.081,0.064,0.183,0.1,0.285,0.1c0.075,0,0.151-0.016,0.221-0.057
		c0.161-0.092,0.248-0.275,0.219-0.455c-0.529-3.369,0.595-6.822,3.004-9.238l4.524-4.524l1.546-1.545
		c5.017-5.015,5.345-13.176,0.753-18.58c-0.238-0.277-0.49-0.57-0.753-0.834c-0.294-0.291-0.594-0.57-0.914-0.832
		c-0.081-0.068-0.179-0.101-0.283-0.101c-0.075,0-0.153,0.019-0.221,0.058c-0.158,0.092-0.248,0.274-0.217,0.459
		c0.535,3.383-0.581,6.844-2.993,9.252l-4.52,4.526l-1.549,1.546c-5.331,5.33-5.343,14.018-0.035,19.368
		C153.073,188.254,153.358,188.509,153.677,188.775"/>
	<path style="fill:#FFFFFF;" d="M150.646,225.539h32.688c2.606,0,4.72-2.115,4.72-4.721c0-2.607-2.114-4.717-4.72-4.717h-32.688
		c-2.608,0-4.719,2.11-4.719,4.717C145.927,223.424,148.038,225.539,150.646,225.539"/>
	<path style="fill:#FFFFFF;" d="M184.871,204.186c-0.931,2.439,0.287,5.166,2.723,6.092l39.094,14.949
		c0.556,0.213,1.124,0.314,1.683,0.314c1.901,0,3.692-1.156,4.412-3.039c0.931-2.429-0.288-5.162-2.724-6.091l-39.095-14.948
		C188.52,200.532,185.803,201.756,184.871,204.186"/>
</g>
</svg>
