<?xml version="1.0" encoding="iso-8859-1"?>
<!-- Generator: Adobe Illustrator 25.4.1, SVG Export Plug-In . SVG Version: 6.00 Build 0)  -->
<svg version="1.1" id="Calque_1" xmlns="http://www.w3.org/2000/svg" xmlns:xlink="http://www.w3.org/1999/xlink" x="0px" y="0px"
	 viewBox="0 0 368.5 368.5" style="enable-background:new 0 0 368.5 368.5;" xml:space="preserve">
<g>
	<path style="fill:#FFFFFF;" d="M309.539,266.283V102.234c0-32.977-26.73-59.708-59.71-59.708c-25.356,0-47.003,15.81-55.662,38.104
		h20.429c8.329-10.55,21.027-16.76,34.571-16.76c24.271,0,44.016,19.746,44.016,44.017c0,24.276-19.745,44.027-44.016,44.027
		c-13.031,0-25.442-5.877-33.783-15.855h-25.263v130.224c0,32.976,26.731,59.708,59.708,59.708
		C282.809,325.991,309.539,299.259,309.539,266.283 M266.927,272.775c0,9.146-7.411,16.552-16.552,16.552
		c-9.142,0-16.552-7.406-16.552-16.552v-53.796c0-9.138,7.41-16.552,16.552-16.552c9.141,0,16.552,7.414,16.552,16.552V272.775z"/>
	<path style="fill:#FFFFFF;" d="M74.885,124.236h143.386c1.898,0,3.679,0.911,4.791,2.449c6.065,8.395,15.825,13.406,26.105,13.406
		c17.752,0,32.193-14.449,32.193-32.204c0-17.752-14.441-32.194-32.193-32.194c-10.695,0-20.67,5.296-26.685,14.166
		c-1.1,1.623-2.932,2.594-4.893,2.594H74.885c-8.763,0-15.893,7.133-15.893,15.899C58.992,117.111,66.122,124.236,74.885,124.236"/>
</g>
</svg>
