<?xml version="1.0" encoding="iso-8859-1"?>
<!-- Generator: Adobe Illustrator 25.4.1, SVG Export Plug-In . SVG Version: 6.00 Build 0)  -->
<svg version="1.1" id="Calque_1" xmlns="http://www.w3.org/2000/svg" xmlns:xlink="http://www.w3.org/1999/xlink" x="0px" y="0px"
	 viewBox="0 0 368.5 368.5" style="enable-background:new 0 0 368.5 368.5;" xml:space="preserve">
<g>
	<path style="fill:#FFFFFF;" d="M91.982,292.206c-0.447,0-0.891-0.035-1.334-0.065c-0.719,4.088,1.521,8.258,5.534,9.809
		c1.029,0.399,2.102,0.6,3.194,0.6c3.639,0,6.965-2.283,8.276-5.678l1.804-4.666H91.982z"/>
	<path style="fill:#FFFFFF;" d="M216.695,285.496l-1.925,4.983c-1.761,4.562,0.516,9.71,5.078,11.47
		c1.031,0.399,2.104,0.6,3.194,0.6c3.639,0,6.965-2.283,8.276-5.678l4.394-11.375H216.695z"/>
	<path style="fill:#FFFFFF;" d="M197.048,161.119h-6.831c1.139,1.535,2.224,3.202,3.261,4.979L197.048,161.119z"/>
	<path style="fill:#FFFFFF;" d="M283.668,161.139l-3.112-0.02h-46.127l-8.385,11.696h47.339c4.202,0,7.62,3.417,7.62,7.619
		c0,4.205-3.418,7.626-7.62,7.626h-58.266l-7.156,9.984h76.39c4.204,0,7.624,3.42,7.624,7.624s-3.42,7.624-7.624,7.624h-78.684
		c0.112,2.35,0.173,4.735,0.173,7.154c0,0.949-0.018,1.889-0.034,2.828h79.092c4.204,0,7.624,3.421,7.624,7.626
		c0,4.202-3.42,7.622-7.624,7.622h-80.174c-0.486,3.836-1.132,7.532-1.911,11.079h71.664c4.204,0,7.624,3.422,7.624,7.626
		c0,4.205-3.42,7.624-7.624,7.624h-76.234c-2.171,5.524-4.747,10.374-7.65,14.4h54.023c1.138-4.642,4.44-8.679,9.228-10.531
		c1.75-0.677,3.582-1.021,5.444-1.021c6.199,0,11.867,3.889,14.105,9.675l0.726,1.877h9.559c15.644-0.059,33.83-25.866,33.83-59.057
		C317.508,186.999,299.316,161.19,283.668,161.139"/>
	<path style="fill:#FFFFFF;" d="M90.254,285.836c15.516-2.029,28.312-31.142,28.312-65.39c0-34.246-12.796-63.359-28.312-65.39
		c-7.146,0.936-13.711,7.616-18.716,17.893h15.888c0.069,0,0.136,0.002,0.203,0.006c0.151-0.012,0.295-0.02,0.442-0.02
		c8.276,0,12.606,12.659,12.606,25.164c0,12.507-4.33,25.167-12.606,25.167c-0.2,0-0.397-0.014-0.594-0.034h-0.051H61.971
		C62.642,256.26,75.157,283.862,90.254,285.836 M90.931,237.678c4.479,0,8.114,7.496,8.114,16.744
		c0,9.246-3.635,16.742-8.114,16.742c-4.481,0-8.116-7.496-8.116-16.742C82.815,245.174,86.45,237.678,90.931,237.678"/>
	<path style="fill:#FFFFFF;" d="M199.595,220.446c0-4.92-0.272-9.726-0.77-14.369c-1.611,0.571-3.32,0.886-5.067,0.886
		c-3.192,0-6.249-0.984-8.845-2.846c-6.805-4.878-8.372-14.386-3.497-21.192l7.996-11.153
		c-5.339-10.412-12.326-16.838-19.857-16.838h-0.766h-12.462v0.657c0.016,7.294-5.904,12.247-14.734,12.318h-0.213
		c-7.953,0-14.861-3.273-20.711-6.341c-3.193-1.673-9.146-2.421-13.257-2.706c10.505,12.436,17.399,35.124,17.399,61.584
		c0,29.566-8.612,54.407-21.247,65.514h17.291c-1.517-7.13,2.311-14.528,9.323-17.242c1.75-0.675,3.582-1.019,5.444-1.019
		c6.199,0,11.867,3.889,14.103,9.675l3.318,8.586h16.512C185.838,285.96,199.595,255.959,199.595,220.446"/>
	<path style="fill:#FFFFFF;" d="M53.18,198.099c0,11.918,4.066,18.631,6.246,18.889c0.026,0.002,0.055,0.006,0.081,0.01
		c0.014,0,0.026,0.002,0.038,0.002c0.1-0.01,0.202-0.014,0.303-0.014h27.125c0.156-0.025,0.313-0.037,0.473-0.037
		c0.159,0,0.32,0.012,0.478,0.039c0,0,0.138,0.02,0.204,0.03c2.252-0.116,6.304-7.278,6.304-18.919
		c0-11.736-4.119-18.919-6.361-18.919c-0.313,0.053-0.637,0.055-0.956,0.014H59.682c-0.031,0-0.063,0-0.098-0.002
		c-0.053,0.01-0.106,0.016-0.161,0.022C57.244,179.471,53.18,186.184,53.18,198.099 M61.493,183.315c2.787,0,5.04,6.5,5.04,14.518
		c0,8.016-2.253,14.518-5.04,14.518c-2.787,0-5.042-6.502-5.042-14.518C56.451,189.815,58.706,183.315,61.493,183.315"/>
	<path style="fill:#FFFFFF;" d="M156.327,148.689h9.518l25.533-30.959l44.277,0.25l-49.162,68.582
		c-2.871,4.009-1.948,9.608,2.059,12.481c1.529,1.095,3.328,1.675,5.207,1.675c2.878,0,5.601-1.397,7.278-3.735l59.238-82.642
		c1.954-2.732,2.222-6.286,0.695-9.274c-1.523-2.993-4.554-4.861-7.915-4.879l-65.82-0.371c-2.729,0-5.247,1.186-6.953,3.253
		l-23.955,29.04V148.689z"/>
	<path style="fill:#FFFFFF;" d="M107.249,152.586c4.239,0.252,11.704,1.033,16.319,3.45c5.193,2.724,11.277,5.627,17.812,5.627
		v3.123l0.166-3.123c2.003-0.016,8.547-0.5,8.535-6.066v-28.395c-1.647-1.287-9.157-3.477-21.381-3.477
		c-12.41,0-19.96,2.257-21.451,3.536V152.586z M129.271,125.856c8.998,0,16.292,1.275,16.292,2.848
		c0,1.574-7.294,2.847-16.292,2.847c-8.996,0-16.291-1.273-16.291-2.847C112.98,127.131,120.275,125.856,129.271,125.856"/>
	<path style="fill:#FFFFFF;" d="M267.567,279.627c-1.313-3.399-4.641-5.682-8.278-5.682c-1.09,0-2.163,0.201-3.192,0.599
		c-4.564,1.765-6.843,6.913-5.079,11.473l13.256,34.309c1.311,3.397,4.637,5.678,8.274,5.678c1.09,0,2.165-0.201,3.194-0.6
		c4.562-1.762,6.841-6.912,5.08-11.476L267.567,279.627z"/>
	<path style="fill:#FFFFFF;" d="M143.899,279.627c-1.313-3.399-4.639-5.682-8.276-5.682c-1.09,0-2.163,0.201-3.192,0.599
		c-4.564,1.765-6.843,6.913-5.081,11.473l13.256,34.309c1.311,3.397,4.639,5.678,8.278,5.678c1.09,0,2.163-0.201,3.192-0.6
		c4.562-1.762,6.841-6.912,5.078-11.476L143.899,279.627z"/>
	<path style="fill:#FFFFFF;" d="M127.903,109.987c0.086,0.01,4.727,0.573,7.947-4.912c2.131-3.629,2.283-9.406-1.846-14.326
		c-3.602-4.292-6.152-11.074-6.152-11.074s-2.449,6.782-6.05,11.074c-4.131,4.92-3.977,10.697-1.846,14.326
		C123.176,110.56,127.818,109.997,127.903,109.987"/>
	<path style="fill:#FFFFFF;" d="M148.264,84.399c0.083,0.014,4.725,0.571,7.947-4.914c2.129-3.627,2.283-9.405-1.848-14.324
		c-3.6-4.294-6.152-11.074-6.152-11.074s-2.448,6.78-6.048,11.074c-4.133,4.919-3.979,10.697-1.848,14.324
		C143.535,84.97,148.179,84.413,148.264,84.399"/>
	<path style="fill:#FFFFFF;" d="M118.202,72.852c0.083,0.01,4.727,0.573,7.947-4.91c2.129-3.631,2.283-9.406-1.846-14.328
		c-3.602-4.29-6.156-11.074-6.156-11.074s-2.446,6.784-6.046,11.074c-4.133,4.922-3.979,10.697-1.846,14.328
		C113.475,73.425,118.117,72.862,118.202,72.852"/>
</g>
</svg>
