<?xml version="1.0" encoding="iso-8859-1"?>
<!-- Generator: Adobe Illustrator 25.4.1, SVG Export Plug-In . SVG Version: 6.00 Build 0)  -->
<svg version="1.1" id="Calque_1" xmlns="http://www.w3.org/2000/svg" xmlns:xlink="http://www.w3.org/1999/xlink" x="0px" y="0px"
	 viewBox="0 0 368.5 368.5" style="enable-background:new 0 0 368.5 368.5;" xml:space="preserve">
<g>
	<path style="fill:#FFFFFF;" d="M275.79,153.357H143.44c-21.266,0-58.266,12.35-61.91,65.506l-1.416,0.078H65.68
		c-2.645,0-4.788,2.145-4.788,4.79c0,2.645,2.143,4.79,4.788,4.79h168.66c2.641,0,4.787-2.145,4.787-4.79
		c0-2.645-2.146-4.79-4.787-4.79h-14.676l0.136-10.368h55.99c11.62,0,21.535-7.209,25.578-17.392h13.871
		c5.937,0,10.752-4.811,10.752-10.743c0-5.94-4.815-10.754-10.752-10.754h-14.318C296.625,160.069,286.998,153.357,275.79,153.357
		 M246.231,168.705l-6.883,24.779c-0.434,1.561-1.852,2.584-3.397,2.584c-0.311,0-0.63-0.042-0.945-0.129
		c-1.877-0.521-2.976-2.467-2.454-4.343l6.884-24.777c0.521-1.877,2.464-2.975,4.341-2.457
		C245.655,164.884,246.753,166.829,246.231,168.705 M260.364,168.706l-6.885,24.778c-0.434,1.561-1.852,2.584-3.397,2.584
		c-0.311,0-0.63-0.042-0.945-0.13c-1.877-0.52-2.976-2.466-2.454-4.343l6.885-24.778c0.522-1.875,2.468-2.978,4.342-2.454
		C259.787,164.884,260.886,166.829,260.364,168.706 M274.5,168.705l-6.884,24.779c-0.434,1.561-1.851,2.584-3.396,2.584
		c-0.312,0-0.63-0.042-0.945-0.129c-1.878-0.521-2.976-2.467-2.455-4.343l6.884-24.777c0.522-1.877,2.466-2.975,4.342-2.457
		C273.923,164.884,275.022,166.829,274.5,168.705"/>
	<path style="fill:#FFFFFF;" d="M58.404,247.268h186.173c8.766-0.007,15.866-7.102,15.866-15.868c0-3.229-2.614-5.842-5.836-5.842
		c-3.231,0-5.849,2.613-5.849,5.842c-0.003,2.306-1.87,4.171-4.181,4.178H58.404c-2.311-0.007-4.178-1.872-4.185-4.178
		c0-3.229-2.614-5.842-5.845-5.842c-3.229,0-5.847,2.613-5.847,5.842C42.536,240.166,49.631,247.261,58.404,247.268"/>
	<path style="fill:#FFFFFF;" d="M112.662,154.578c0.012,0.224,0.072,0.438,0.112,0.655c3.873-2.05,7.819-3.591,11.672-4.703
		c0.976-7.532,7.128-13.579,14.99-14.14l48.079-3.37c8.932-0.609,16.664,6.09,17.357,15.011h11.678
		c0.014-0.243,0.038-0.483,0.021-0.734c-1.085-15.423-14.458-27.042-29.876-25.966l-48.076,3.37
		C123.2,125.782,111.582,139.154,112.662,154.578"/>
</g>
</svg>
