<?xml version="1.0" encoding="iso-8859-1"?>
<!-- Generator: Adobe Illustrator 25.4.1, SVG Export Plug-In . SVG Version: 6.00 Build 0)  -->
<svg version="1.1" id="Calque_1" xmlns="http://www.w3.org/2000/svg" xmlns:xlink="http://www.w3.org/1999/xlink" x="0px" y="0px"
	 viewBox="0 0 368.5 368.5" style="enable-background:new 0 0 368.5 368.5;" xml:space="preserve">
<g>
	<path style="fill:#FFFFFF;" d="M276.855,153.354h-132.35c-21.266,0-58.266,12.35-61.91,65.506l-1.416,0.078H66.745
		c-2.645,0-4.788,2.145-4.788,4.79c0,2.645,2.143,4.79,4.788,4.79h168.66c2.641,0,4.787-2.145,4.787-4.79
		c0-2.645-2.146-4.79-4.787-4.79h-14.676l0.136-10.368h55.99c11.62,0,21.535-7.209,25.579-17.392h13.87
		c5.937,0,10.752-4.811,10.752-10.743c0-5.94-4.815-10.754-10.752-10.754h-14.318C297.69,160.066,288.063,153.354,276.855,153.354
		 M247.296,168.702l-6.883,24.779c-0.434,1.561-1.852,2.584-3.397,2.584c-0.311,0-0.63-0.042-0.945-0.129
		c-1.877-0.521-2.976-2.467-2.454-4.343l6.884-24.777c0.521-1.877,2.464-2.975,4.341-2.457
		C246.72,164.881,247.818,166.826,247.296,168.702 M261.429,168.703l-6.885,24.778c-0.434,1.561-1.852,2.584-3.397,2.584
		c-0.311,0-0.63-0.042-0.945-0.13c-1.877-0.52-2.976-2.466-2.454-4.343l6.885-24.778c0.522-1.875,2.468-2.978,4.342-2.454
		C260.852,164.881,261.951,166.826,261.429,168.703 M275.565,168.702l-6.884,24.779c-0.434,1.561-1.851,2.584-3.396,2.584
		c-0.312,0-0.63-0.042-0.945-0.129c-1.878-0.521-2.976-2.467-2.455-4.343l6.884-24.777c0.522-1.877,2.466-2.975,4.342-2.457
		C274.988,164.881,276.087,166.826,275.565,168.702"/>
	<path style="fill:#FFFFFF;" d="M59.469,247.265h186.173c8.766-0.007,15.866-7.101,15.866-15.868c0-3.229-2.614-5.842-5.836-5.842
		c-3.231,0-5.849,2.613-5.849,5.842c-0.003,2.306-1.87,4.171-4.181,4.178H59.469c-2.311-0.007-4.178-1.872-4.185-4.178
		c0-3.229-2.614-5.842-5.845-5.842c-3.229,0-5.847,2.613-5.847,5.842C43.6,240.164,50.696,247.258,59.469,247.265"/>
	<path style="fill:#FFFFFF;" d="M113.728,154.575c0.012,0.224,0.072,0.438,0.112,0.655c3.873-2.05,7.819-3.591,11.672-4.703
		c0.976-7.532,7.128-13.579,14.99-14.14l48.079-3.37c8.932-0.609,16.664,6.09,17.357,15.011h11.678
		c0.014-0.243,0.038-0.483,0.021-0.734c-1.085-15.423-14.458-27.042-29.876-25.966l-48.076,3.37
		C124.265,125.779,112.647,139.151,113.728,154.575"/>
</g>
</svg>
