<?xml version="1.0" encoding="iso-8859-1"?>
<!-- Generator: Adobe Illustrator 25.4.1, SVG Export Plug-In . SVG Version: 6.00 Build 0)  -->
<svg version="1.1" id="Calque_1" xmlns="http://www.w3.org/2000/svg" xmlns:xlink="http://www.w3.org/1999/xlink" x="0px" y="0px"
	 viewBox="0 0 368.5 368.5" style="enable-background:new 0 0 368.5 368.5;" xml:space="preserve">
<g>
	<path style="fill:#FFFFFF;" d="M228.8,69.078v27.743c1.016,0.385,2.16,0.607,3.354,0.607c1.263,0,2.46-0.244,3.509-0.663V69.078
		H228.8z"/>
	<path style="fill:#FFFFFF;" d="M258.401,172.508v-52.182c0-9.475-5.268-18.2-13.416-22.721c-2.32,4.05-7.219,6.822-12.832,6.822
		c-5.551,0-10.353-2.63-12.715-6.573c-0.445,0.255-0.877,0.528-1.301,0.807c7.371,7.398,11.799,17.564,11.799,28.362v45.485H258.401
		z"/>
	<path style="fill:#FFFFFF;" d="M186.173,69.079v29.905c1.033,0.269,2.137,0.422,3.283,0.422c1.256,0,2.465-0.184,3.582-0.511
		V69.079H186.173z"/>
	<path style="fill:#FFFFFF;" d="M222.937,192.741v-65.718c0-12.382-7.049-23.761-17.877-29.4c-2.543,5.174-8.603,8.783-15.603,8.783
		c-6.928,0-12.87-3.429-15.477-8.477c-0.982,0.533-1.918,1.124-2.828,1.744c8.594,8.47,13.764,20.206,13.764,32.677v60.391H222.937z
		"/>
	<path style="fill:#FFFFFF;" d="M135.454,69.08v31.565c1.031,0.217,2.111,0.337,3.227,0.337c1.261,0,2.484-0.16,3.638-0.443V69.08
		H135.454z"/>
	<path style="fill:#FFFFFF;" d="M106.53,208.843h71.385V132.35c0-14.703-8.479-28.198-21.455-34.716
		c-2.692,6.064-9.676,10.348-17.78,10.348c-8.025,0-14.869-4.072-17.648-9.998c-6.002,3.141-10.939,7.726-14.504,13.212
		L106.53,208.843z"/>
	<path style="fill:#FFFFFF;" d="M239.813,293.391c-5.504,0-9.982-4.479-9.982-9.983v-13.267
		c-6.284,3.197-10.735,11.106-10.735,20.365c0,12.086,7.58,21.884,16.93,21.884c9.349,0,16.93-9.798,16.93-21.884
		c0-4.745-1.172-9.134-3.159-12.719l0.002,5.621C249.799,288.912,245.319,293.391,239.813,293.391"/>
	<path style="fill:#FFFFFF;" d="M236.831,269.466v13.941c0,1.646,1.338,2.984,2.982,2.984c1.602,0,2.916-1.269,2.983-2.853v-14.073
		c0.004-2.602,0.75-5.027,2.015-7.104h-6.63C237.321,264.568,236.831,266.959,236.831,269.466"/>
	<path style="fill:#FFFFFF;" d="M309.036,268.623c-0.449-10.468-9.082-18.856-19.66-18.859h-7.314
		c-0.572,2.461-2.051,4.576-4.072,5.967l11.388-0.001c7.563,0.016,13.721,6.175,13.735,13.728v0.553
		c-2.743,1.329-5.145,3.551-7,6.392c-2.487,3.809-3.989,8.728-3.989,14.103c0,12.086,7.58,21.884,16.93,21.884
		s16.928-9.798,16.928-21.884c0-8.844-4.061-16.458-9.903-19.909c-2.14-1.265-4.517-1.975-7.025-1.975
		C309.048,268.622,309.042,268.623,309.036,268.623 M318.263,290.18c0,5.814-3.789,10.528-8.463,10.528
		c-4.676,0-8.465-4.714-8.465-10.528s3.789-10.529,8.465-10.529C314.474,279.651,318.263,284.366,318.263,290.18"/>
	<path style="fill:#FFFFFF;" d="M96.54,242.361h2.988V75.813c0.012-7.562,6.172-13.72,13.731-13.733l142.365-0.002
		c7.562,0.015,13.721,6.175,13.734,13.728v167.661c2.444,1.254,4.303,3.481,5.067,6.17c0.556-0.543,0.904-1.296,0.904-2.133
		l-0.002-171.691c-0.004-10.859-8.844-19.698-19.705-19.703H113.265c-10.862,0.005-19.702,8.844-19.704,19.704v166.95h0.192
		C94.64,242.507,95.573,242.361,96.54,242.361"/>
	<path style="fill:#FFFFFF;" d="M264.812,249.361H130.335c1.987,1.734,3.715,3.756,5.12,6.001h129.357c1.654,0,3-1.347,3-3.001
		C267.812,250.707,266.466,249.361,264.812,249.361"/>
	<path style="fill:#FFFFFF;" d="M59.446,312.39c9.35,0,16.93-9.798,16.93-21.884c0-4.746-1.172-9.135-3.159-12.721v5.623
		c0.002,2.665-1.037,5.172-2.923,7.059c-1.885,1.886-4.393,2.924-7.059,2.924c-5.504,0-9.982-4.479-9.982-9.983V270.14
		c-6.286,3.197-10.735,11.106-10.735,20.366C42.518,302.592,50.096,312.39,59.446,312.39"/>
	<path style="fill:#FFFFFF;" d="M132.458,268.623c-0.449-10.468-9.082-18.856-19.658-18.859H79.955
		c-10.86,0.003-19.698,8.842-19.702,19.702v13.942c0,1.645,1.338,2.983,2.983,2.983c1.646,0,2.984-1.338,2.984-2.983l-0.002-13.942
		c0.012-7.562,6.172-13.722,13.731-13.734l32.851-0.002c7.561,0.016,13.719,6.174,13.735,13.727v0.553
		c-2.743,1.329-5.145,3.551-7,6.392c-2.487,3.809-3.989,8.729-3.989,14.104c0,12.086,7.578,21.884,16.928,21.884
		c9.35,0,16.93-9.798,16.93-21.884c0-8.844-4.061-16.457-9.903-19.908c-2.14-1.265-4.519-1.976-7.027-1.976L132.458,268.623z
		 M141.685,290.18c0,5.814-3.789,10.528-8.463,10.528c-4.676,0-8.465-4.714-8.465-10.528s3.789-10.529,8.465-10.529
		C137.896,279.651,141.685,284.366,141.685,290.18"/>
</g>
</svg>
