<?xml version="1.0" encoding="iso-8859-1"?>
<!-- Generator: Adobe Illustrator 25.4.1, SVG Export Plug-In . SVG Version: 6.00 Build 0)  -->
<svg version="1.1" id="Calque_1" xmlns="http://www.w3.org/2000/svg" xmlns:xlink="http://www.w3.org/1999/xlink" x="0px" y="0px"
	 viewBox="0 0 368.5 368.5" style="enable-background:new 0 0 368.5 368.5;" xml:space="preserve">
<g>
	<path style="fill:#FFFFFF;" d="M85.707,48.736v246.173c0,3.43,2.78,6.212,6.209,6.212h186.858c3.427,0,6.206-2.782,6.206-6.212
		V97.517h-66.253c-13.912,0-25.23,11.32-25.23,25.23v3.081c17.684,3.762,30.994,19.491,30.994,38.281
		c0,2.52-2.048,4.572-4.564,4.572h-69.164c-2.519,0-4.566-2.052-4.566-4.572c0-18.702,13.189-34.36,30.752-38.22v-3.142
		c0-23.033,18.74-41.775,41.778-41.775h66.253V48.736c0-3.43-2.779-6.21-6.206-6.21H91.916
		C88.487,42.526,85.707,45.306,85.707,48.736 M159.503,228.195c0.795-2.755,3.906-4.478,6.708-3.657
		c2.858,0.833,4.509,3.843,3.679,6.704c-0.658,2.298-2.796,3.907-5.195,3.907c-0.512,0-1.02-0.072-1.513-0.214
		c-1.389-0.4-2.546-1.325-3.242-2.602C159.24,231.06,159.085,229.591,159.503,228.195 M159.503,205.735
		c0.658-2.27,2.796-3.879,5.192-3.879c0.509,0,1.019,0.074,1.51,0.218c2.874,0.855,4.517,3.862,3.683,6.716
		c-0.656,2.29-2.794,3.899-5.197,3.899c-0.508,0-1.014-0.072-1.505-0.214c-1.409-0.411-2.562-1.338-3.254-2.617
		C159.238,208.587,159.087,207.122,159.503,205.735 M169.889,253.707c-0.659,2.293-2.796,3.904-5.195,3.904
		c-0.46,0.043-1.024-0.072-1.517-0.218c-1.401-0.409-2.554-1.34-3.248-2.617c-0.693-1.27-0.843-2.732-0.427-4.119
		c0.791-2.752,3.9-4.474,6.702-3.659C169.072,247.833,170.721,250.842,169.889,253.707 M211.203,253.675
		c-0.668,2.299-2.805,3.907-5.197,3.907c-0.513,0-1.024-0.074-1.517-0.218c-1.397-0.405-2.549-1.334-3.246-2.611
		c-0.691-1.269-0.847-2.732-0.437-4.115c0.662-2.28,2.8-3.887,5.192-3.887c0.513,0,1.021,0.072,1.514,0.216
		C210.376,247.801,212.029,250.81,211.203,253.675 M200.807,183.258c0.807-2.776,3.912-4.491,6.712-3.668
		c2.856,0.831,4.509,3.837,3.685,6.698c-0.668,2.306-2.805,3.911-5.199,3.911h-0.002c-0.509,0-1.014-0.068-1.505-0.212
		c-1.395-0.404-2.55-1.327-3.246-2.598C200.552,186.114,200.396,184.649,200.807,183.258 M200.807,205.72
		c0.807-2.774,3.912-4.485,6.706-3.672c2.872,0.85,4.515,3.856,3.691,6.709c-0.664,2.299-2.805,3.905-5.201,3.905
		c-0.509,0-1.014-0.072-1.505-0.215c-1.402-0.408-2.554-1.329-3.25-2.606C200.552,208.568,200.396,207.105,200.807,205.72
		 M200.807,228.18c0.805-2.772,3.904-4.489,6.706-3.673c2.866,0.846,4.513,3.853,3.691,6.706c-0.668,2.303-2.807,3.908-5.201,3.908
		c-0.509,0-1.014-0.071-1.505-0.211c-1.395-0.403-2.548-1.328-3.246-2.599C200.552,231.037,200.395,229.571,200.807,228.18
		 M190.546,253.675c-0.666,2.299-2.802,3.907-5.197,3.907c-0.512,0-1.024-0.075-1.519-0.218c-1.397-0.405-2.547-1.337-3.245-2.613
		c-0.69-1.271-0.841-2.736-0.428-4.119c0.792-2.757,3.9-4.483,6.702-3.665C189.721,247.801,191.374,250.81,190.546,253.675
		 M180.156,183.254c0.798-2.767,3.9-4.491,6.71-3.664c2.852,0.831,4.507,3.837,3.681,6.698c-0.666,2.306-2.802,3.911-5.199,3.911
		h-0.002c-0.506,0-1.012-0.072-1.505-0.214c-1.398-0.404-2.55-1.325-3.249-2.602C179.898,186.11,179.742,184.645,180.156,183.254
		 M190.544,208.757c-0.664,2.299-2.8,3.905-5.197,3.905h-0.002c-0.506,0-1.012-0.072-1.505-0.215
		c-1.403-0.408-2.554-1.334-3.253-2.609c-0.692-1.274-0.845-2.737-0.43-4.123c0.798-2.763,3.9-4.482,6.702-3.667
		C189.727,202.895,191.372,205.904,190.544,208.757 M180.156,228.172c0.798-2.759,3.896-4.483,6.704-3.665
		c2.862,0.846,4.511,3.851,3.687,6.706c-0.666,2.303-2.804,3.908-5.201,3.908h-0.002c-0.506,0-1.01-0.071-1.503-0.211
		c-1.396-0.403-2.55-1.33-3.249-2.603C179.898,231.033,179.74,229.563,180.156,228.172 M159.503,183.273
		c0.656-2.268,2.792-3.877,5.188-3.877c0.513,0,1.021,0.074,1.514,0.218c2.864,0.842,4.515,3.847,3.687,6.71
		c-0.663,2.297-2.803,3.902-5.201,3.902c-0.508,0-1.013-0.069-1.499-0.21c-1.403-0.403-2.56-1.331-3.256-2.61
		C159.24,186.131,159.085,184.664,159.503,183.273 M101.38,151.828c0-4.569,3.706-8.273,8.276-8.273
		c4.569,0,8.271,3.704,8.271,8.273v41.928c0,4.566-3.702,8.271-8.271,8.271c-4.57,0-8.276-3.705-8.276-8.271V151.828z"/>
	<path style="fill:#FFFFFF;" d="M297.801,316.289c0-5.359-4.342-9.702-9.702-9.702H82.588c-5.358,0-9.702,4.343-9.702,9.702
		c0,5.361,4.344,9.702,9.702,9.702h205.511C293.459,325.991,297.801,321.65,297.801,316.289"/>
</g>
</svg>
