<?xml version="1.0" encoding="iso-8859-1"?>
<!-- Generator: Adobe Illustrator 25.4.1, SVG Export Plug-In . SVG Version: 6.00 Build 0)  -->
<svg version="1.1" id="Calque_1" xmlns="http://www.w3.org/2000/svg" xmlns:xlink="http://www.w3.org/1999/xlink" x="0px" y="0px"
	 viewBox="0 0 368.5 368.5" style="enable-background:new 0 0 368.5 368.5;" xml:space="preserve">
<g>
	<path style="fill:#FFFFFF;" d="M83.916,325.997h73.53c-2.184-2.209-3.946-4.781-5.184-7.512H87.918
		c-7.534,0-11.354-4.303-11.354-12.79V62.841c0-8.486,3.82-12.792,11.353-12.794h0.001h63.999c1.132-2.833,2.791-5.375,4.865-7.515
		H83.916c-9.225,0-16.451,7.231-16.451,16.461v250.553C67.465,317.153,74.652,325.997,83.916,325.997"/>
	<path style="fill:#FFFFFF;" d="M303.21,58.991c0-8.769-7.688-16.459-16.454-16.459h-89.833h-23.175
		c-9.226,0-16.452,7.229-16.452,16.459v250.555c0,7.607,7.187,16.451,16.452,16.451h23.175h89.833c8.706,0,16.454-9.2,16.454-16.451
		V58.991z M284.602,205.579c0,3.264-2.646,5.91-5.91,5.91c-3.264,0-5.91-2.646-5.91-5.91v-27.297c0-3.265,2.646-5.91,5.91-5.91
		c3.264,0,5.91,2.645,5.91,5.91V205.579z"/>
	<path style="fill:#FFFFFF;" d="M135.357,89.749c-0.012-0.012-0.015-0.028-0.026-0.039l-7.244-7.242
		c-1.385-1.386-3.631-1.386-5.014,0c-1.385,1.385-1.385,3.629,0,5.014l0.829,0.829h-18.631c-1.959,0-3.546,1.588-3.546,3.546
		c0,1.958,1.587,3.546,3.546,3.546h19.494l-1.624,1.623c-1.385,1.383-1.385,3.629-0.001,5.014c0.692,0.693,1.601,1.039,2.508,1.039
		c0.907,0,1.814-0.346,2.507-1.039l7.248-7.244c1.385-1.383,1.385-3.63,0.001-5.015C135.391,89.767,135.371,89.763,135.357,89.749"
		/>
</g>
</svg>
