<?xml version="1.0" encoding="iso-8859-1"?>
<!-- Generator: Adobe Illustrator 25.4.1, SVG Export Plug-In . SVG Version: 6.00 Build 0)  -->
<svg version="1.1" id="Calque_1" xmlns="http://www.w3.org/2000/svg" xmlns:xlink="http://www.w3.org/1999/xlink" x="0px" y="0px"
	 viewBox="0 0 368.5 368.5" style="enable-background:new 0 0 368.5 368.5;" xml:space="preserve">
<polygon style="fill:#FFFFFF;" points="187.109,217.685 184.478,217.685 184.478,232.324 165.099,232.324 165.099,234.958 
	184.478,234.958 184.478,252.261 187.109,252.261 187.109,234.958 205.397,234.958 205.397,232.324 187.109,232.324 "/>
<g>
	<path style="fill:#FFFFFF;" d="M248.938,42.532H121.744c-5.16,0.003-9.359,4.206-9.359,9.366v264.738
		c0,5.162,4.199,9.361,9.359,9.361h127.197c5.162,0,9.361-4.199,9.361-9.361V51.898C258.302,46.738,254.1,42.535,248.938,42.532
		 M130.369,66.278c0-1.958,1.589-3.547,3.547-3.547h102.405c1.958,0,3.547,1.589,3.547,3.547v88.872
		c0,1.959-1.589,3.548-3.547,3.548H133.916c-1.958,0-3.547-1.589-3.547-3.548V66.278z M252.084,201.221
		c0,5.765-4.691,10.454-10.456,10.454s-10.453-4.689-10.453-10.454v-1.633c-0.95,0.118-1.915,0.194-2.904,0.194l-0.33-0.002h-85.59
		c-1.295,0-2.561-0.113-3.792-0.319v1.76c0,5.765-4.691,10.454-10.456,10.454s-10.454-4.689-10.454-10.454v-26.545
		c0-5.765,4.689-10.454,10.454-10.454s10.456,4.689,10.456,10.454v7.021c0.023,0.019,0.792,1.516,3.801,1.527h85.639
		c1.646-0.044,2.628-0.376,3.176-0.73v-7.818c0-5.765,4.688-10.454,10.453-10.454s10.456,4.689,10.456,10.454V201.221z"/>
	<path style="fill:#FFFFFF;" d="M207.722,271.658v1.582c0,0.783,0.637,1.42,1.42,1.42c0.783,0,1.421-0.637,1.421-1.42v-3.956
		C209.838,270.269,208.868,271.082,207.722,271.658"/>
	<path style="fill:#FFFFFF;" d="M159.722,268.805v4.436c0,0.783,0.637,1.419,1.42,1.419c0.783,0,1.421-0.636,1.421-1.419v-1.795
		C161.399,270.79,160.423,269.889,159.722,268.805"/>
	<path style="fill:#FFFFFF;" d="M167.156,270.631h36.223l0.115,0.001c3.189,0,5.805-1.864,6.358-4.533l0.962-4.382
		c0.086-0.392,0.014-0.792-0.202-1.129c-0.216-0.337-0.551-0.569-0.942-0.655c-0.816-0.171-1.614,0.353-1.786,1.142l-0.964,4.394
		c-0.105,0.486-0.669,2.089-3.516,2.162h-36.238c-2.248-0.009-3.359-1.329-3.557-2.215l-0.949-4.341
		c-0.174-0.789-0.992-1.317-1.786-1.142c-0.809,0.177-1.322,0.977-1.146,1.784l0.963,4.396
		C161.346,268.763,164.008,270.631,167.156,270.631"/>
</g>
</svg>
