<?xml version="1.0" encoding="iso-8859-1"?>
<!-- Generator: Adobe Illustrator 25.4.1, SVG Export Plug-In . SVG Version: 6.00 Build 0)  -->
<svg version="1.1" id="Calque_1" xmlns="http://www.w3.org/2000/svg" xmlns:xlink="http://www.w3.org/1999/xlink" x="0px" y="0px"
	 viewBox="0 0 368.5 368.5" style="enable-background:new 0 0 368.5 368.5;" xml:space="preserve">
<g>
	<path style="fill:#FFFFFF;" d="M84.082,228.992V87.956c0-0.776,0.359-1.507,0.974-1.98c0.613-0.473,1.411-0.635,2.162-0.438
		l3.241,0.852v-2.441c-4.676,1.604-11.212,1.728-13.09,1.728s-8.415-0.124-13.091-1.728v143.325
		c1.221,0.82,5.874,2.144,13.091,2.144C79.95,229.418,82.197,229.247,84.082,228.992"/>
	<path style="fill:#FFFFFF;" d="M89.303,79.079c-2.053-0.756-6.178-1.598-11.934-1.598c-5.756,0-9.881,0.842-11.935,1.598
		c2.054,0.756,6.179,1.598,11.935,1.598C83.125,80.677,87.249,79.835,89.303,79.079"/>
	<path style="fill:#FFFFFF;" d="M273.04,140.878c0-0.029,0.008-0.056,0.008-0.085c-0.001-0.038-0.008-0.074-0.008-0.112
		c0-0.374,0.056-0.723,0.157-1.055l-89.019-23.402v77.539l0.254-0.118c0.672-0.305,1.384-0.461,2.115-0.461
		c1.992,0,3.812,1.171,4.638,2.984c1.166,2.556,0.035,5.585-2.521,6.752l-0.298,0.136c-0.391,0.178-1.141,0.522-1.989,0.915
		c-0.718,0.333-1.51,0.703-2.199,1.03v1.023c3.512,1.238,8.142,2.655,11.494,3.647c3.261,0.965,5.876,1.698,6.606,1.902
		c0.081,0.023,0.146,0.041,0.201,0.057c1.312,0.363,2.403,1.216,3.073,2.399c0.671,1.185,0.841,2.56,0.476,3.872
		c-0.608,2.2-2.626,3.737-4.907,3.737c-0.459,0-0.919-0.064-1.366-0.189c-2.435-0.679-9.486-2.672-15.577-4.663v37.748
		l88.862,23.361V140.878z M201.063,186.222c0,3.941-2.888,7.148-6.438,7.148c-3.549,0-6.437-3.207-6.437-7.148v-53.079
		c0-3.941,2.888-7.148,6.437-7.148c3.55,0,6.438,3.207,6.438,7.148V186.222z M218.124,191.222c0,3.941-2.888,7.148-6.437,7.148
		c-3.55,0-6.438-3.207-6.438-7.148v-53.079c0-3.941,2.888-7.148,6.438-7.148c3.549,0,6.437,3.207,6.437,7.148V191.222z
		 M235.526,196.222c0,3.941-2.887,7.148-6.436,7.148c-3.55,0-6.438-3.207-6.438-7.148v-53.079c0-3.941,2.888-7.148,6.438-7.148
		c3.549,0,6.436,3.207,6.436,7.148V196.222z M252.588,201.222c0,3.941-2.888,7.148-6.437,7.148c-3.549,0-6.437-3.207-6.437-7.148
		v-53.079c0-3.941,2.888-7.148,6.437-7.148c3.549,0,6.437,3.207,6.437,7.148V201.222z M263.213,213.37
		c-3.55,0-6.438-3.207-6.438-7.148v-53.079c0-3.941,2.888-7.148,6.438-7.148c3.549,0,6.437,3.207,6.437,7.148v53.079
		C269.65,210.163,266.762,213.37,263.213,213.37"/>
	<path style="fill:#FFFFFF;" d="M179.178,253.194v-38.187c-1.959-0.828-3.537-1.838-4.754-3.094
		c-1.662-1.696-2.607-3.951-2.586-6.181c0.004-2.588,1.168-4.578,2.144-5.79c1.125-1.393,2.599-2.553,4.382-3.451
		c0.237-0.118,0.517-0.254,0.814-0.397v-81.211L89.082,91.198v138.31L179.178,253.194z M161.775,128.143
		c0-3.941,2.888-7.148,6.438-7.148c3.549,0,6.437,3.207,6.437,7.148v53.078c0,3.942-2.888,7.149-6.437,7.149
		c-3.55,0-6.438-3.207-6.438-7.149V128.143z M144.714,123.143c0-3.941,2.887-7.148,6.437-7.148c3.549,0,6.437,3.207,6.437,7.148
		v53.078c0,3.942-2.888,7.149-6.437,7.149c-3.55,0-6.437-3.207-6.437-7.149V123.143z M127.652,118.143
		c0-3.941,2.888-7.148,6.438-7.148c3.549,0,6.436,3.207,6.436,7.148v53.078c0,3.942-2.887,7.149-6.436,7.149
		c-3.55,0-6.438-3.207-6.438-7.149V118.143z M110.249,113.143c0-3.941,2.888-7.148,6.438-7.148c3.549,0,6.437,3.207,6.437,7.148
		v53.078c0,3.942-2.888,7.149-6.437,7.149c-3.55,0-6.438-3.207-6.438-7.149V113.143z M93.188,108.143
		c0-3.941,2.888-7.148,6.437-7.148c3.55,0,6.438,3.207,6.438,7.148v53.078c0,3.942-2.888,7.149-6.438,7.149
		c-3.549,0-6.437-3.207-6.437-7.149V108.143z"/>
	<path style="fill:#FFFFFF;" d="M291.131,147.281c-1.878,0-8.415-0.124-13.091-1.727v143.324c1.221,0.818,5.874,2.141,13.091,2.141
		c7.217,0,11.869-1.323,13.091-2.141V145.554C299.546,147.157,293.01,147.281,291.131,147.281"/>
	<path style="fill:#FFFFFF;" d="M303.066,140.681c-2.054-0.755-6.179-1.597-11.935-1.597c-5.757,0-9.882,0.842-11.936,1.597
		c2.054,0.757,6.179,1.6,11.936,1.6C296.888,142.281,301.012,141.438,303.066,140.681"/>
	<path style="fill:#FFFFFF;" d="M185.469,196.471c-3.468,1.588-5.046,2.346-5.76,2.702c-1.395,0.702-2.537,1.596-3.391,2.653
		c-0.673,0.834-1.477,2.195-1.479,3.922c-0.014,1.432,0.634,2.95,1.735,4.072c1.111,1.147,2.632,2.059,4.658,2.793
		c6.654,2.384,17.189,5.349,19.233,5.92l0.148,0.042c0.133,0.036,0.321,0.062,0.508,0.062c0.937,0,1.766-0.632,2.017-1.537
		c0.149-0.54,0.08-1.106-0.196-1.593s-0.724-0.838-1.265-0.987l-0.207-0.059c-0.735-0.206-3.367-0.943-6.65-1.914
		c-3.553-1.053-8.548-2.58-12.173-3.881c-1.357-0.484-2.471-1.124-3.054-1.756c-0.144-0.15-0.237-0.279-0.294-0.365l-0.444-0.671
		l0.313-0.741c0.124-0.293,0.33-0.6,0.596-0.889c0.433-0.481,1.085-0.956,1.824-1.323c0.772-0.388,2.265-1.086,3.527-1.673
		c1.299-0.6,1.944-0.898,2.308-1.047l-0.005-0.01c1.052-0.481,1.517-1.727,1.037-2.779c-0.464-1.02-1.743-1.508-2.774-1.038
		c0.017-0.008,0.024-0.012,0.024-0.012C185.704,196.362,185.611,196.407,185.469,196.471"/>
</g>
</svg>
