<?xml version="1.0" encoding="iso-8859-1"?>
<!-- Generator: Adobe Illustrator 25.4.1, SVG Export Plug-In . SVG Version: 6.00 Build 0)  -->
<svg version="1.1" id="Calque_1" xmlns="http://www.w3.org/2000/svg" xmlns:xlink="http://www.w3.org/1999/xlink" x="0px" y="0px"
	 viewBox="0 0 368.5 368.5" style="enable-background:new 0 0 368.5 368.5;" xml:space="preserve">
<g>
	<path style="fill:#FFFFFF;" d="M82.685,115.322h61.193c-3.366-13.786-15.786-24.067-30.595-24.067
		C98.47,91.255,86.05,101.536,82.685,115.322"/>
	<path style="fill:#FFFFFF;" d="M144.807,274.832v-2.904v-3.877v-122h-63.05v122v3.877v2.904c0,3.702,2.998,6.703,6.7,6.703h49.647
		C141.804,281.535,144.807,278.534,144.807,274.832"/>
	<path style="fill:#FFFFFF;" d="M130.573,55.15c0,4.568,3.707,8.273,8.273,8.273h141.102c16.263,0,29.492,13.232,29.492,29.494
		c0,13.723-9.432,25.254-22.141,28.531c0.016,0.446,0.067,0.882,0.067,1.33v15.527c21.863-3.566,38.619-22.53,38.619-45.388
		c0-25.386-20.652-46.04-46.037-46.04H138.846C134.28,46.877,130.573,50.582,130.573,55.15"/>
	<path style="fill:#FFFFFF;" d="M50.792,90.16c-4.563,0-8.273,3.705-8.273,8.273v32.252c0,4.568,3.71,8.272,8.273,8.272h94.181
		v-16.18c0-0.122-0.009-0.242-0.014-0.365H59.065V98.433C59.065,93.865,55.364,90.16,50.792,90.16"/>
	<path style="fill:#FFFFFF;" d="M281.222,291.82v-62.963v-106.08c0-19.151-15.527-34.68-34.678-34.68h-21.771h-73.655h-22.754
		c13.371,5.839,22.754,19.178,22.754,34.68v106.08v62.963c0,16.471,13.353,29.827,29.832,29.827h70.445
		C267.867,321.647,281.222,308.291,281.222,291.82"/>
</g>
</svg>
