<?xml version="1.0" encoding="iso-8859-1"?>
<!-- Generator: Adobe Illustrator 25.4.1, SVG Export Plug-In . SVG Version: 6.00 Build 0)  -->
<svg version="1.1" id="Calque_1" xmlns="http://www.w3.org/2000/svg" xmlns:xlink="http://www.w3.org/1999/xlink" x="0px" y="0px"
	 viewBox="0 0 368.5 368.5" style="enable-background:new 0 0 368.5 368.5;" xml:space="preserve">
<g>
	<path style="fill:#FFFFFF;" d="M262.938,59.784c0-9.51-8.638-17.248-19.257-17.248H124.819c-10.437,0-19.253,7.898-19.253,17.248
		v248.969c0,8.543,9.717,17.248,19.253,17.248h118.862c8.723,0,19.257-7.694,19.257-17.248V59.784z M256.914,305.36
		c0,1.316-0.186,2.585-0.506,3.803c-0.154,2.392-1.63,4.81-3.788,6.708c-2.739,2.811-6.557,4.562-10.783,4.562H125.301
		c-8.311,0-15.073-6.762-15.073-15.073V62.798c0-8.313,6.76-15.077,15.073-15.08h116.536c3.794,0.003,7.259,1.422,9.912,3.747
		c2.61,1.8,4.351,4.452,4.638,7.447c0.333,1.242,0.527,2.541,0.527,3.886V305.36z"/>
	<polygon style="fill:#FFFFFF;" points="181.406,175.12 187.111,175.12 187.111,127.717 229.494,127.717 229.494,122.01 
		187.111,122.01 187.111,75.145 181.406,75.145 181.406,122.01 137.646,122.01 137.646,127.717 181.406,127.717 	"/>
	<path style="fill:#FFFFFF;" d="M241.834,54.217H125.301c-4.728,0.002-8.575,3.852-8.575,8.582v242.562
		c0,4.727,3.847,8.575,8.575,8.575h116.535c4.73,0,8.58-3.848,8.58-8.575V62.799C250.416,58.069,246.566,54.219,241.834,54.217
		 M131.148,178.369V71.896c0-1.793,1.455-3.249,3.249-3.249h98.346c1.794,0,3.249,1.456,3.249,3.249v106.473
		c0,1.794-1.455,3.249-3.249,3.249h-98.346C132.603,181.618,131.148,180.163,131.148,178.369 M233.039,295.034
		c0,1.197-0.969,2.166-2.166,2.166h-95.119c-1.197,0-2.166-0.969-2.166-2.166v-92.276c0-1.197,0.969-2.166,2.166-2.166h95.119
		c1.197,0,2.166,0.969,2.166,2.166V295.034z M246.566,203.414c0,2.392-1.94,4.332-4.332,4.332c-2.392,0-4.332-1.94-4.332-4.332
		v-10.24h-15.401c-1.794,0-3.249-1.455-3.249-3.249c0-1.794,1.455-3.249,3.249-3.249h15.401v-8.275c0-2.392,1.94-4.332,4.332-4.332
		c2.392,0,4.332,1.94,4.332,4.332V203.414z"/>
	<rect x="137.921" y="204.923" style="fill:#FFFFFF;" width="90.787" height="87.944"/>
</g>
</svg>
