<?xml version="1.0" encoding="iso-8859-1"?>
<!-- Generator: Adobe Illustrator 25.4.1, SVG Export Plug-In . SVG Version: 6.00 Build 0)  -->
<svg version="1.1" id="Calque_1" xmlns="http://www.w3.org/2000/svg" xmlns:xlink="http://www.w3.org/1999/xlink" x="0px" y="0px"
	 viewBox="0 0 368.5 368.5" style="enable-background:new 0 0 368.5 368.5;" xml:space="preserve">
<g>
	<path style="fill:#FFFFFF;" d="M71.537,229.174V123.686c0-15.078,6.626-28.362,16.628-36.054h-0.522
		c-16.317,0-29.591,16.174-29.591,36.054v105.488c0,19.88,13.274,36.053,29.591,36.053h0.522
		C78.163,257.534,71.537,244.251,71.537,229.174"/>
	<path style="fill:#FFFFFF;" d="M100.145,154.667c0-7.277,5.92-13.197,13.197-13.197c7.276,0,13.196,5.92,13.196,13.197v63.027
		c-0.006,11.231,2.082,22.034,6.023,31.786c3.25-5.787,5.155-12.78,5.155-20.306V123.685c0-19.88-13.273-36.053-29.587-36.053
		c-16.318,0-29.593,16.173-29.593,36.053v105.489c0,19.879,13.275,36.052,29.593,36.052c0.846,0,1.683-0.053,2.512-0.138
		c-6.831-14.356-10.49-30.562-10.496-47.393V154.667z M109.508,105.196c5.714,0,10.191,6.033,10.191,13.735
		c0,7.701-4.477,13.735-10.191,13.735c-5.716,0-10.193-6.034-10.193-13.735C99.315,111.229,103.792,105.196,109.508,105.196"/>
	<path style="fill:#FFFFFF;" d="M109.508,125.666c1.27,0,3.191-2.686,3.191-6.734c0-4.049-1.921-6.736-3.191-6.736
		c-1.272,0-3.193,2.687-3.193,6.736C106.315,122.98,108.236,125.666,109.508,125.666"/>
	<path style="fill:#FFFFFF;" d="M249.682,171.602v46.093c0.009,21.212-6.889,41.102-19.424,56.008
		c-12.307,14.587-28.516,22.626-45.645,22.637c-17.137-0.011-33.346-8.05-45.648-22.634c-12.54-14.911-19.438-34.801-19.427-56.013
		v-63.026c0-3.417-2.779-6.196-6.196-6.196c-3.417,0-6.197,2.779-6.197,6.196v63.028c0.009,24.109,7.938,46.831,22.328,63.978
		c14.396,17.198,34.478,27.059,55.098,27.059v3.499l0.037-3.499c20.663,0,40.743-9.861,55.135-27.055
		c14.394-17.152,22.323-39.874,22.33-63.983v-46.047c-1.962,0.189-3.949,0.294-5.959,0.294
		C253.941,171.941,251.797,171.824,249.682,171.602"/>
	<path style="fill:#FFFFFF;" d="M256.114,56.27c-29.962,0-54.338,24.375-54.338,54.335c0,29.961,24.376,54.336,54.338,54.336
		c29.961,0,54.335-24.375,54.335-54.336C310.449,80.645,286.075,56.27,256.114,56.27"/>
</g>
</svg>
