<?xml version="1.0" encoding="iso-8859-1"?>
<!-- Generator: Adobe Illustrator 25.4.1, SVG Export Plug-In . SVG Version: 6.00 Build 0)  -->
<svg version="1.1" id="Calque_1" xmlns="http://www.w3.org/2000/svg" xmlns:xlink="http://www.w3.org/1999/xlink" x="0px" y="0px"
	 viewBox="0 0 368.5 368.5" style="enable-background:new 0 0 368.5 368.5;" xml:space="preserve">
<g>
	<path style="fill:#FFFFFF;" d="M70.631,291.893v22.011c0,5.475,5.317,12.087,11.92,12.087h203.363
		c6.313,0,11.929-6.76,11.929-12.087v-22.011c0-6.442-5.574-12.092-11.929-12.092h-10.341l-55.184,16.395
		c-0.102,0.031-0.205,0.057-0.31,0.077c-1.171,0.232-2.334,0.349-3.453,0.349c-6.97,0-12.027-4.575-12.027-10.875v-5.946h-35.113
		c-0.109,0.003-0.214,0.02-0.323,0.02H82.604c-0.054,0-0.106-0.009-0.16-0.009C75.812,279.87,70.631,285.151,70.631,291.893
		 M194.346,285.749c0,4.349-3.527,7.873-7.871,7.873H174.47c-4.347,0-7.869-3.524-7.869-7.873H194.346z"/>
	<path style="fill:#FFFFFF;" d="M204.599,66.453V55.15h-21.033c2.559,3.126,4.14,7.067,4.277,11.303H204.599z"/>
	<path style="fill:#FFFFFF;" d="M182.084,273.909h22.515v-11.303h-16.828C187.302,266.542,185.207,270.675,182.084,273.909"/>
	<rect x="187.872" y="209.874" style="fill:#FFFFFF;" width="16.727" height="11.303"/>
	<rect x="187.872" y="155.944" style="fill:#FFFFFF;" width="16.727" height="11.303"/>
	<rect x="187.872" y="107.587" style="fill:#FFFFFF;" width="16.727" height="11.303"/>
	<path style="fill:#FFFFFF;" d="M211.381,285.747c-0.001,2.98,3.087,4.667,7.239,3.901l73.063-21.706
		c0.077-0.024,0.156-0.044,0.235-0.062c3.729-0.823,5.956-2.916,5.956-5.601V69.926c0-2.418-2.474-4.661-5.883-5.334
		c-0.11-0.022-0.218-0.048-0.326-0.082l-72.024-21.84c-0.824-0.095-1.599-0.144-2.309-0.144c-4.955,0-5.951,2.097-5.951,5.482
		V285.747z M222.638,148.217c0-3.122,2.53-5.652,5.652-5.652c3.121,0,5.651,2.53,5.651,5.652v26.572c0,3.121-2.53,5.651-5.651,5.651
		c-3.122,0-5.652-2.53-5.652-5.651V148.217z"/>
	<path style="fill:#FFFFFF;" d="M82.604,273.039h86.559c6.312,0,11.927-6.76,11.927-12.087V67.039
		c0-6.442-5.573-12.092-11.927-12.092H82.604c-6.687,0-11.925,5.312-11.925,12.092v193.914
		C70.679,266.427,75.999,273.039,82.604,273.039 M174.945,174.074c0,3.122-2.53,5.652-5.652,5.652c-3.121,0-5.651-2.53-5.651-5.652
		v-26.57c0-3.121,2.53-5.651,5.651-5.651c3.122,0,5.652,2.53,5.652,5.651V174.074z"/>
</g>
</svg>
