<?xml version="1.0" encoding="iso-8859-1"?>
<!-- Generator: Adobe Illustrator 25.4.1, SVG Export Plug-In . SVG Version: 6.00 Build 0)  -->
<svg version="1.1" id="Calque_1" xmlns="http://www.w3.org/2000/svg" xmlns:xlink="http://www.w3.org/1999/xlink" x="0px" y="0px"
	 viewBox="0 0 368.5 368.5" style="enable-background:new 0 0 368.5 368.5;" xml:space="preserve">
<g>
	<path style="fill:#FFFFFF;" d="M44.721,46.329v252.143c0,2.096,1.7,3.796,3.796,3.796c2.096,0,3.796-1.7,3.796-3.796V159.698
		h240.82v27.723c2.516,0.225,4.962,0.736,7.3,1.517c0.188-0.449,0.292-0.941,0.292-1.458V46.329c0-2.096-1.7-3.796-3.796-3.796
		H48.517C46.421,42.533,44.721,44.233,44.721,46.329 M52.313,74.417h240.82v5.061H52.313V74.417z M293.133,95.334H52.313v-5.061
		h240.82V95.334z M52.313,61.206h240.82v5.061H52.313V61.206z M52.313,111.412h240.82v5.061H52.313V111.412z M293.133,55.697H52.313
		v-5.061h240.82V55.697z M179.969,153.777h-14.24c-2.362,0-4.275-1.913-4.275-4.273c0-2.358,1.913-4.27,4.275-4.27h14.24
		c2.355,0,4.27,1.912,4.27,4.27C184.239,151.864,182.324,153.777,179.969,153.777 M52.313,135.198h240.82v5.061H52.313V135.198z"/>
	<path style="fill:#FFFFFF;" d="M156.655,292.008v22.012c0,6.615,5.363,11.978,11.973,11.978c6.618,0,11.978-5.363,11.978-11.978
		v-11.744h-2.426C169.5,302.276,161.746,298.264,156.655,292.008"/>
	<path style="fill:#FFFFFF;" d="M302.66,302.276h-2.775v11.743c0,6.616,5.36,11.979,11.976,11.979
		c6.618,0,11.975-5.363,11.975-11.979v-21.601C318.743,298.438,311.144,302.276,302.66,302.276"/>
	<path style="fill:#FFFFFF;" d="M308.037,202.649c-4.475-4.958-10.885-7.787-17.605-7.787h-99.869h-0.002
		c-7.001,0-13.486,2.755-17.989,7.562c-4.369,4.616-7.275,10.864-8.649,18.584l-5.907,36.542c-0.036,0.228-0.029,0.509,0.02,0.89
		l0.045,0.326l-0.059,1.073v14.687c0,11.115,9.042,20.158,20.158,20.158h124.48c11.113,0,20.156-9.043,20.156-20.158v-14.687
		c0-0.257-0.02-0.512-0.037-0.769l-0.037-0.593l0.017-0.245c0.017-0.264,0.012-0.477-0.017-0.652l-5.951-36.735
		C315.113,213.292,312.165,207.159,308.037,202.649 M170.015,222.041c1.107-6.339,3.598-11.776,7.023-15.357
		c3.702-3.798,7.977-5.585,13.483-5.647h99.674c5.462,0.074,9.537,1.849,13.268,5.751c3.307,3.558,5.877,8.958,7.273,15.245
		l3.257,20.119l-5.758-1.668c-1.843-0.534-3.719-0.804-5.575-0.804H178.18c-1.891,0-3.789,0.277-5.642,0.821l-5.776,1.695
		L170.015,222.041z M181.783,284.119c-9.89,0-17.937-8.046-17.937-17.936c0-9.893,8.047-17.94,17.937-17.94
		c9.895,0,17.946,8.047,17.946,17.94C199.729,276.073,191.678,284.119,181.783,284.119 M297.537,284.119
		c-9.892,0-17.941-8.046-17.941-17.936c0-9.893,8.049-17.94,17.941-17.94c9.893,0,17.942,8.047,17.942,17.94
		C315.479,276.073,307.43,284.119,297.537,284.119"/>
</g>
</svg>
