<?xml version="1.0" encoding="iso-8859-1"?>
<!-- Generator: Adobe Illustrator 25.4.1, SVG Export Plug-In . SVG Version: 6.00 Build 0)  -->
<svg version="1.1" id="Calque_1" xmlns="http://www.w3.org/2000/svg" xmlns:xlink="http://www.w3.org/1999/xlink" x="0px" y="0px"
	 viewBox="0 0 368.5 368.5" style="enable-background:new 0 0 368.5 368.5;" xml:space="preserve">
<g>
	<path style="fill:#FFFFFF;" d="M124.085,42.536c-9.204,0-11.724,2.521-11.724,11.73v260.011c0,8.436,3.287,11.723,11.724,11.723
		h122.464c7.998,0,11.723-3.726,11.723-11.723V54.266c0-8.771-2.959-11.73-11.723-11.73H124.085z M250.303,167.37v33.032
		c0,3.918-3.175,7.092-7.092,7.092c-3.917,0-7.092-3.174-7.092-7.092v-21.556h-21.304c-1.959,0-3.546-1.588-3.546-3.546
		c0-1.958,1.587-3.546,3.546-3.546h21.304v-4.384c0-3.918,3.175-7.092,7.092-7.092C247.128,160.278,250.303,163.452,250.303,167.37"
		/>
	<path style="fill:#FFFFFF;" d="M243.193,188.536c-1.305,0-2.364,1.057-2.364,2.364v7.187c0,1.306,1.059,2.364,2.364,2.364
		c1.306,0,2.364-1.058,2.364-2.364V190.9C245.557,189.593,244.499,188.536,243.193,188.536"/>
</g>
</svg>
