<?xml version="1.0" encoding="iso-8859-1"?>
<!-- Generator: Adobe Illustrator 25.4.1, SVG Export Plug-In . SVG Version: 6.00 Build 0)  -->
<svg version="1.1" id="Calque_1" xmlns="http://www.w3.org/2000/svg" xmlns:xlink="http://www.w3.org/1999/xlink" x="0px" y="0px"
	 viewBox="0 0 368.5 368.5" style="enable-background:new 0 0 368.5 368.5;" xml:space="preserve">
<g>
	<path style="fill:#FFFFFF;" d="M127.913,214.547c0.36,0,0.722-0.129,1.009-0.391c0.613-0.558,0.657-1.507,0.099-2.119
		l-34.136-37.484v4.455l31.919,35.049C127.099,214.382,127.505,214.547,127.913,214.547"/>
	<path style="fill:#FFFFFF;" d="M119.43,175.311c0.36,0,0.722-0.129,1.009-0.391c0.613-0.558,0.657-1.507,0.099-2.119l-25.653-28.17
		v4.455l23.436,25.735C118.617,175.146,119.022,175.311,119.43,175.311"/>
	<polygon style="fill:#FFFFFF;" points="104.5,65.366 170.514,137.855 170.514,133.4 108.557,65.366 	"/>
	<path style="fill:#FFFFFF;" d="M154.132,106.154c0.36,0,0.722-0.129,1.009-0.391c0.613-0.558,0.657-1.506,0.099-2.119
		l-34.859-38.278h-4.057l36.699,40.298C153.318,105.989,153.724,106.154,154.132,106.154"/>
	<polygon style="fill:#FFFFFF;" points="197.17,140.027 272.799,223.074 272.799,218.62 197.17,135.572 	"/>
	<polygon style="fill:#FFFFFF;" points="202.696,65.366 272.799,142.346 272.799,137.89 206.753,65.366 	"/>
	<polygon style="fill:#FFFFFF;" points="238.684,65.366 272.799,102.827 272.799,98.372 242.741,65.366 	"/>
	<polygon style="fill:#FFFFFF;" points="247.422,65.366 272.799,93.23 272.799,88.775 251.479,65.366 	"/>
	<path style="fill:#FFFFFF;" d="M206.334,219.559c-0.613,0.559-0.657,1.507-0.099,2.119l10.171,11.168h4.057l-12.01-13.187
		C207.895,219.045,206.946,219.001,206.334,219.559"/>
	<path style="fill:#FFFFFF;" d="M154.749,253.691H103.27c-3.561,0-6.459,3.27-6.459,7.289v40.182c0,4.019,2.898,7.289,6.459,7.289
		h51.479c3.561,0,6.459-3.27,6.459-7.289V260.98C161.208,256.961,158.31,253.691,154.749,253.691"/>
	<path style="fill:#FFFFFF;" d="M284.012,45.018h-98.091v122.62c0.042,0,0.084-0.006,0.126-0.006c2.084,0,4.043,0.81,5.516,2.284
		l0.607,0.606V62.866c0-1.381,1.119-2.5,2.5-2.5h80.629c1.38,0,2.5,1.119,2.5,2.5v172.48c0,1.38-1.12,2.5-2.5,2.5H194.67
		c-1.381,0-2.5-1.12-2.5-2.5V192.59l-6.249-6.25v137.142h98.091c3.912,0,7.093-3.733,7.093-8.322V53.342
		C291.105,48.752,287.924,45.018,284.012,45.018 M274.445,301.162c0,6.225-4.692,11.289-10.459,11.289h-51.48
		c-5.767,0-10.459-5.064-10.459-11.289V260.98c0-6.224,4.692-11.289,10.459-11.289h51.48c5.767,0,10.459,5.065,10.459,11.289
		V301.162z"/>
	<path style="fill:#FFFFFF;" d="M263.986,253.691h-51.48c-3.562,0-6.459,3.27-6.459,7.289v40.182c0,4.019,2.897,7.289,6.459,7.289
		h51.48c3.561,0,6.459-3.27,6.459-7.289V260.98C270.445,256.961,267.547,253.691,263.986,253.691"/>
	<path style="fill:#FFFFFF;" d="M84.488,323.482h97.433V182.34l-1.391-1.391c-1.473-1.474-2.284-3.433-2.284-5.517
		c0-2.083,0.812-4.043,2.285-5.516c0.425-0.425,0.894-0.787,1.39-1.099v-123.8H84.488c-3.911,0-7.093,3.735-7.093,8.325V315.16
		C77.395,319.749,80.577,323.482,84.488,323.482 M165.208,301.162c0,6.225-4.692,11.289-10.459,11.289H103.27
		c-5.767,0-10.459-5.064-10.459-11.289V260.98c0-6.224,4.692-11.289,10.459-11.289h51.479c5.767,0,10.459,5.065,10.459,11.289
		V301.162z M92.385,60.366h80.629c1.381,0,2.5,1.119,2.5,2.5v172.48c0,1.38-1.119,2.5-2.5,2.5H92.385c-1.381,0-2.5-1.12-2.5-2.5
		V62.866C89.885,61.485,91.004,60.366,92.385,60.366"/>
	<path style="fill:#FFFFFF;" d="M188.028,173.451c-0.528-0.528-1.232-0.819-1.98-0.819c-0.749,0-1.453,0.291-1.981,0.819
		c-0.53,0.529-0.821,1.233-0.821,1.981c0,0.75,0.291,1.453,0.82,1.982l16.245,16.246c1.056,1.055,2.905,1.057,3.963-0.002
		c1.091-1.092,1.091-2.869-0.001-3.961L188.028,173.451z"/>
</g>
</svg>
