<?xml version="1.0" encoding="iso-8859-1"?>
<!-- Generator: Adobe Illustrator 25.4.1, SVG Export Plug-In . SVG Version: 6.00 Build 0)  -->
<svg version="1.1" id="Calque_1" xmlns="http://www.w3.org/2000/svg" xmlns:xlink="http://www.w3.org/1999/xlink" x="0px" y="0px"
	 viewBox="0 0 368.5 368.5" style="enable-background:new 0 0 368.5 368.5;" xml:space="preserve">
<g>
	<path style="fill:#FFFFFF;" d="M189.964,186.653c1.005,1.77,1.319,3.84,0.841,5.847l-1.386,5.836
		c-0.192,0.803-0.601,1.504-1.153,2.063c0.236,0.748,0.296,1.55,0.111,2.331l-15.525,65.427c-0.155,0.651-0.405,1.25-0.698,1.825
		h113.463c2.345,0,4.388-1.615,4.933-3.898l21.322-89.874H199.515C199.246,181.56,195.186,185.923,189.964,186.653"/>
	<path style="fill:#FFFFFF;" d="M310.275,156.346H199.544v14.253h113.762l1.901-8.014c0.359-1.508,0.004-3.098-0.955-4.31
		C313.289,157.059,311.825,156.346,310.275,156.346"/>
	<path style="fill:#FFFFFF;" d="M317.804,98.568H128.098c-5.1,0-9.245,4.149-9.245,9.245v32.358h69.563
		c5.868,0,10.679,4.57,11.088,10.335h118.3c5.098,0,9.245-4.149,9.245-9.243v-33.45C327.049,102.717,322.902,98.568,317.804,98.568"
		/>
	<path style="fill:#FFFFFF;" d="M164.985,269.98c1.708,0,3.194-1.173,3.589-2.836l15.524-65.43H54.631l15.531,65.43
		c0.396,1.663,1.88,2.836,3.589,2.836h86.541H164.985z"/>
	<path style="fill:#FFFFFF;" d="M184.098,197.32h1.044l1.384-5.835c0.261-1.1,0.004-2.254-0.696-3.141
		c-0.699-0.882-1.767-1.4-2.893-1.4H55.795c-1.129,0-2.194,0.518-2.896,1.402c-0.698,0.885-0.954,2.039-0.695,3.139l1.387,5.835
		h1.042H184.098z"/>
	<path style="fill:#FFFFFF;" d="M195.148,175.648v-24.35c0-3.708-3.022-6.73-6.73-6.73H50.314c-3.711,0-6.729,3.022-6.729,6.73
		v24.35c0,3.71,3.018,6.73,6.729,6.73h138.104C192.126,182.378,195.148,179.358,195.148,175.648"/>
</g>
</svg>
