<?xml version="1.0" encoding="iso-8859-1"?>
<!-- Generator: Adobe Illustrator 25.4.1, SVG Export Plug-In . SVG Version: 6.00 Build 0)  -->
<svg version="1.1" id="Calque_1" xmlns="http://www.w3.org/2000/svg" xmlns:xlink="http://www.w3.org/1999/xlink" x="0px" y="0px"
	 viewBox="0 0 368.5 368.5" style="enable-background:new 0 0 368.5 368.5;" xml:space="preserve">
<g>
	<path style="fill:#FFFFFF;" d="M259.354,319.703V155.13c0-3.474-2.811-6.291-6.288-6.291H117.568c-3.471,0-6.291,2.817-6.291,6.291
		v164.574c0,3.476,2.82,6.291,6.291,6.291h135.498C256.543,325.995,259.354,323.18,259.354,319.703 M150.055,296.678
		c0,4.289-3.478,7.767-7.767,7.767c-4.289,0-7.766-3.478-7.766-7.767V178.689c0-4.289,3.477-7.767,7.766-7.767
		c4.289,0,7.767,3.478,7.767,7.767V296.678z"/>
	<path style="fill:#FFFFFF;" d="M258.957,139.628c4.29,0,7.767-3.474,7.767-7.767c0-4.29-3.477-7.766-7.767-7.766h-147.28
		c-4.287,0-7.767,3.476-7.767,7.766c0,4.293,3.48,7.767,7.767,7.767H258.957z"/>
	<path style="fill:#FFFFFF;" d="M112.27,107.047c0,3.675,2.982,6.657,6.657,6.657h132.777c3.681,0,6.657-2.982,6.657-6.657
		c0-25.382-16.683-47.38-40.866-57.908v40.043c0,8.772-7.137,15.91-15.908,15.91h-32.536c-8.772,0-15.908-7.138-15.908-15.91V49.139
		C128.956,59.669,112.27,81.665,112.27,107.047"/>
	<path style="fill:#FFFFFF;" d="M159.8,89.182c0,5.101,4.147,9.251,9.251,9.251h32.535c5.102,0,9.252-4.15,9.252-9.251V46.595
		c-7.951-2.626-16.543-4.065-25.517-4.065c-8.975,0-17.576,1.439-25.521,4.065V89.182z"/>
</g>
</svg>
