<?xml version="1.0" encoding="iso-8859-1"?>
<!-- Generator: Adobe Illustrator 25.4.1, SVG Export Plug-In . SVG Version: 6.00 Build 0)  -->
<svg version="1.1" id="Calque_1" xmlns="http://www.w3.org/2000/svg" xmlns:xlink="http://www.w3.org/1999/xlink" x="0px" y="0px"
	 viewBox="0 0 368.5 368.5" style="enable-background:new 0 0 368.5 368.5;" xml:space="preserve">
<g>
	<path style="fill:#FFFFFF;" d="M42.526,146.295v75.934c0,10.878,8.819,19.696,19.694,19.696h75.939
		c10.875,0,19.693-8.818,19.693-19.696v-75.934c0-10.878-8.818-19.696-19.693-19.696H62.22
		C51.345,126.599,42.526,135.417,42.526,146.295 M100.188,140.845c23.98,0,43.418,19.438,43.418,43.419
		c0,23.977-19.438,43.416-43.418,43.416s-43.417-19.439-43.417-43.416C56.771,160.283,76.208,140.845,100.188,140.845"/>
	<path style="fill:#FFFFFF;" d="M100.188,207.793c4.458,0,8.072-3.618,8.072-8.075c0-4.453-3.614-8.074-8.072-8.074
		s-8.073,3.621-8.073,8.074C92.115,204.175,95.73,207.793,100.188,207.793"/>
	<path style="fill:#FFFFFF;" d="M100.188,176.884c4.458,0,8.072-3.615,8.072-8.075c0-4.458-3.614-8.075-8.072-8.075
		s-8.073,3.617-8.073,8.075C92.115,173.269,95.73,176.884,100.188,176.884"/>
	<path style="fill:#FFFFFF;" d="M318.333,179.144c-2.53-2.515-5.81-5.095-9.999-6.795c-6.491-2.632-12.838-1.417-17.894,0.37
		c-5.122,1.815-9.618,4.243-13.341,5.569c-1.643,0.616-3.834,0.917-6.083,0.991c0.263,1.769,0.405,3.582,0.405,5.425
		c0,2.448-0.249,4.832-0.707,7.143c3.352-0.039,7.008-0.464,10.651-1.751c4.949-1.811,9.371-4.206,13.222-5.52
		c3.913-1.349,6.604-1.573,9.032-0.592c2.134,0.862,4.157,2.364,5.834,4.045c1.521,1.517,2.737,3.154,3.541,4.368
		c0.403,0.61,0.698,1.105,0.882,1.435c0.093,0.164,0.157,0.281,0.191,0.352c0.025,0.036,0.025,0.04,0.025,0.04
		c1.548,3.101,5.323,4.361,8.424,2.809c3.101-1.546,4.363-5.321,2.81-8.419C325.137,188.257,322.905,183.752,318.333,179.144"/>
	<path style="fill:#FFFFFF;" d="M175.023,169.447c0,3.296,2.676,5.967,5.972,5.967h18.41h5.889v18.588h-5.889h-18.41
		c-3.296,0-5.972,2.673-5.972,5.97c0,3.301,2.676,5.972,5.972,5.972h18.41h5.889v7.179c0,1.26,1.02,2.275,2.27,2.275h27.279
		c16.921,0,30.684-13.766,30.684-30.692c0-16.919-13.763-30.679-30.684-30.679h-27.279c-1.25,0-2.27,1.021-2.27,2.272v7.176h-5.889
		h-18.41C177.699,163.475,175.023,166.142,175.023,169.447"/>
</g>
</svg>
