<?xml version="1.0" encoding="iso-8859-1"?>
<!-- Generator: Adobe Illustrator 25.4.1, SVG Export Plug-In . SVG Version: 6.00 Build 0)  -->
<svg version="1.1" id="Calque_1" xmlns="http://www.w3.org/2000/svg" xmlns:xlink="http://www.w3.org/1999/xlink" x="0px" y="0px"
	 viewBox="0 0 368.5 368.5" style="enable-background:new 0 0 368.5 368.5;" xml:space="preserve">
<g>
	<path style="fill:#FFFFFF;" d="M232.466,142.132c-1.074,0.416-2.13,0.771-3.165,1.086v3.553c3.207-0.604,6.523-1.104,9.924-1.502
		v-6.282C237.092,140.124,234.782,141.237,232.466,142.132"/>
	<path style="fill:#FFFFFF;" d="M189.237,194.626v-11.279H61.63c-1.381,0-2.5-1.119-2.5-2.5V66.21c0-1.381,1.119-2.5,2.5-2.5
		h165.171c1.381,0,2.5,1.119,2.5,2.5v21.693l5.59-4.064c1.218-0.883,2.729-1.547,4.334-1.947V58.614
		c0-0.545-0.083-1.088-0.244-1.607h-59.258H51.482c-0.156,0.508-0.241,1.047-0.241,1.607v159.077h8.226v-20.565
		c0-1.381,1.12-2.5,2.5-2.5H189.237z"/>
	<path style="fill:#FFFFFF;" d="M64.129,68.71v52.623h131.64l-8.007-10.92c-0.766-1.043-0.893-2.424-0.331-3.59
		c0.563-1.166,1.723-1.926,3.016-1.977c0.083-0.003,8.633-0.378,16.028-3.164c6.861-2.584,13.734-7.656,13.803-7.707
		c0.466-0.345,1.007-0.566,1.57-0.65l2.453-1.785V68.71H64.129z M96.93,103.282c-5.053,0-9.164-4.111-9.164-9.164
		c0-5.053,4.111-9.164,9.164-9.164c5.054,0,9.164,4.111,9.164,9.164C106.094,99.171,101.984,103.282,96.93,103.282 M190.147,103.282
		c-5.054,0-9.166-4.111-9.166-9.164c0-5.053,4.112-9.164,9.166-9.164c5.053,0,9.164,4.111,9.164,9.164
		C199.311,99.171,195.2,103.282,190.147,103.282"/>
	<path style="fill:#FFFFFF;" d="M209.539,152.378c4.466-1.805,9.435-3.326,14.762-4.555v-3.379
		c-3.768,0.711-6.796,0.829-8.313,0.829c-0.714,0-1.106-0.026-1.106-0.026c-1.037-0.062-2.008-0.586-2.622-1.424l-12.825-17.49
		H64.129v52.014H188.12c-0.285-1.162-0.442-2.34-0.442-3.535c0-4.821,2.357-9.393,6.808-13.485c-1.292,0.7-2.77,1.096-4.339,1.096
		c-5.054,0-9.166-4.111-9.166-9.164c0-5.053,4.112-9.162,9.166-9.162c5.053,0,9.164,4.109,9.164,9.162
		c0,2.209-0.785,4.236-2.091,5.82C200.529,156.614,204.642,154.357,209.539,152.378 M96.93,162.423
		c-5.053,0-9.164-4.111-9.164-9.164c0-5.053,4.111-9.162,9.164-9.162c5.053,0,9.164,4.109,9.164,9.162
		C106.094,158.312,101.983,162.423,96.93,162.423"/>
	<polygon style="fill:#FFFFFF;" points="204.294,52.007 240.582,52.007 245.799,52.007 245.799,45.019 45.529,45.019 45.529,52.007 
			"/>
	<path style="fill:#FFFFFF;" d="M96.93,149.097c-2.296,0-4.164,1.867-4.164,4.162c0,2.297,1.868,4.164,4.164,4.164
		c2.296,0,4.164-1.867,4.164-4.164C101.094,150.964,99.226,149.097,96.93,149.097"/>
	<path style="fill:#FFFFFF;" d="M96.93,89.954c-2.296,0-4.164,1.867-4.164,4.164c0,2.297,1.868,4.164,4.164,4.164
		c2.296,0,4.164-1.867,4.164-4.164C101.094,91.821,99.226,89.954,96.93,89.954"/>
	<path style="fill:#FFFFFF;" d="M190.147,89.954c-2.298,0-4.166,1.867-4.166,4.164c0,2.297,1.868,4.164,4.166,4.164
		c2.296,0,4.164-1.867,4.164-4.164C194.311,91.821,192.443,89.954,190.147,89.954"/>
	<path style="fill:#FFFFFF;" d="M185.981,153.259c0,2.297,1.868,4.164,4.166,4.164c2.296,0,4.164-1.867,4.164-4.164
		c0-2.295-1.868-4.162-4.164-4.162C187.849,149.097,185.981,150.964,185.981,153.259"/>
	<path style="fill:#FFFFFF;" d="M322.447,188.058c-3.666,3.449-8.801,6.562-15.301,9.189c-13.092,5.29-30.424,8.204-48.803,8.204
		c-18.38,0-35.712-2.914-48.804-8.204c-6.5-2.627-11.635-5.742-15.302-9.189v72.555c4.193,0.838,6.489,2.845,7.721,4.599
		c0.001,0.002,0.002,0.002,0.002,0.004c0.002,0.002,0.003,0.004,0.005,0.006l7.947,11.315c1.658,2.357,2.171,5.32,1.483,8.566
		c-1.324,6.248-7.1,13.381-15.44,19.305c6.337,9.966,29.817,19.074,62.388,19.074c38.345,0,64.104-12.623,64.104-24.41V188.058z"/>
	<path style="fill:#FFFFFF;" d="M280.576,152.735c5.04,2.316,8.376,5.574,8.376,9.711c0,0.002-0.001,0.006-0.001,0.008v11.892
		c0,9-15.77,13.858-30.608,13.858c-14.839,0-30.61-4.858-30.61-13.858v-11.892c0-0.002-0.001-0.006-0.001-0.008
		c0-4.137,3.336-7.395,8.377-9.711c-25.212,3.682-41.431,13.271-41.431,22.076c0,11.18,26.147,23.639,63.665,23.639
		s63.664-12.459,63.664-23.639C322.007,166.006,305.787,156.417,280.576,152.735"/>
	<path style="fill:#FFFFFF;" d="M283.506,170.585c-0.064,0.039-0.133,0.078-0.196,0.117c-0.122,0.076-0.246,0.149-0.37,0.223
		c-0.07,0.041-0.136,0.084-0.207,0.125c-5.045,2.947-12.781,4.818-21.315,5.183c-0.217,0.01-0.433,0.018-0.65,0.026
		c-0.266,0.01-0.532,0.019-0.799,0.025c-0.543,0.012-1.085,0.022-1.627,0.022h-0.001h-0.003c-0.54,0-1.081-0.01-1.621-0.022
		c-0.272-0.006-0.54-0.015-0.81-0.025c-0.212-0.008-0.423-0.016-0.635-0.026c-8.535-0.363-16.271-2.234-21.317-5.181
		c-0.073-0.043-0.142-0.086-0.214-0.129c-0.125-0.072-0.249-0.147-0.371-0.223c-0.062-0.039-0.131-0.076-0.192-0.115
		c-0.017-0.012-0.029-0.027-0.046-0.039c-0.086-0.055-0.174-0.111-0.259-0.166c-0.045-0.031-0.096-0.059-0.14-0.09v4.057
		c0,3.699,9.742,8.857,25.609,8.857c15.866,0,25.608-5.158,25.608-8.857v-4.057c-0.043,0.029-0.091,0.057-0.135,0.086
		c-0.086,0.057-0.174,0.113-0.262,0.17C283.536,170.558,283.524,170.573,283.506,170.585"/>
	<path style="fill:#FFFFFF;" d="M232.732,162.446c0,0.963,0.667,2.025,1.926,3.07c5.675-3.058,14.348-4.859,23.683-4.859
		c9.335,0,18.01,1.801,23.686,4.859c1.258-1.045,1.925-2.107,1.925-3.07c0-3.697-9.743-8.855-25.61-8.855
		S232.732,158.749,232.732,162.446"/>
	<path style="fill:#FFFFFF;" d="M204.547,283.651c0.278-1.312,0.156-2.354-0.363-3.092l-2.059-2.931
		c-0.031,0.066-0.068,0.132-0.099,0.199c-0.072,0.15-0.151,0.303-0.228,0.453c-0.147,0.293-0.301,0.586-0.464,0.881
		c-0.091,0.162-0.183,0.324-0.278,0.488c-0.172,0.295-0.354,0.59-0.541,0.887c-0.097,0.152-0.191,0.304-0.292,0.457
		c-0.232,0.351-0.476,0.703-0.729,1.054c-0.067,0.094-0.13,0.19-0.198,0.284c-0.326,0.443-0.669,0.888-1.027,1.332
		c-0.095,0.115-0.197,0.232-0.293,0.349c-0.271,0.328-0.548,0.657-0.836,0.983c-0.139,0.156-0.283,0.314-0.426,0.47
		c-0.262,0.29-0.53,0.577-0.805,0.866c-0.156,0.162-0.313,0.324-0.472,0.486c-0.289,0.293-0.587,0.584-0.889,0.875
		c-0.151,0.146-0.299,0.293-0.453,0.438c-0.396,0.371-0.802,0.74-1.218,1.107c-0.067,0.059-0.13,0.119-0.197,0.178
		c-0.486,0.423-0.986,0.843-1.497,1.259c-0.153,0.125-0.31,0.247-0.465,0.37c-0.366,0.293-0.737,0.584-1.116,0.871
		c-0.198,0.15-0.397,0.297-0.596,0.445c-0.355,0.262-0.714,0.523-1.079,0.781c-0.208,0.147-0.416,0.295-0.628,0.442
		c-0.389,0.267-0.784,0.531-1.183,0.795c-0.189,0.125-0.376,0.25-0.566,0.373c-0.592,0.38-1.191,0.757-1.804,1.125
		c-1.598,0.959-3.217,1.841-4.84,2.642c-0.212,0.104-0.424,0.201-0.636,0.303c-0.329,0.158-0.659,0.318-0.988,0.471
		c-0.245,0.111-0.49,0.214-0.735,0.324c-0.296,0.131-0.592,0.267-0.888,0.392c-0.33,0.141-0.659,0.272-0.988,0.405
		c-0.21,0.084-0.42,0.175-0.63,0.258c-0.509,0.199-1.016,0.386-1.522,0.57c-0.03,0.01-0.058,0.021-0.087,0.031
		c-0.491,0.176-0.98,0.342-1.468,0.5c-0.044,0.014-0.089,0.031-0.133,0.045c-0.496,0.16-0.989,0.311-1.48,0.453
		c-0.035,0.01-0.072,0.022-0.107,0.031c-0.495,0.143-0.987,0.276-1.476,0.401c-0.031,0.008-0.062,0.017-0.093,0.023
		c-0.437,0.112-0.871,0.211-1.303,0.305c-0.081,0.019-0.165,0.041-0.246,0.058c-0.443,0.096-0.881,0.178-1.317,0.258
		c-0.069,0.012-0.138,0.03-0.206,0.041c-0.387,0.069-0.767,0.123-1.148,0.18c-0.116,0.016-0.235,0.039-0.35,0.055
		c-0.357,0.049-0.707,0.084-1.058,0.121c-0.135,0.015-0.273,0.035-0.408,0.047c-0.283,0.027-0.56,0.043-0.839,0.06
		c-0.198,0.014-0.399,0.033-0.595,0.043c-0.23,0.012-0.454,0.012-0.681,0.018c-0.235,0.006-0.472,0.017-0.704,0.017l1.611,2.291
		c0.906,1.289,3.211,2.03,6.324,2.03c5.999,0,13.978-2.639,21.343-7.057C198.173,295.149,203.619,288.028,204.547,283.651"/>
	<path style="fill:#FFFFFF;" d="M168.565,274.265c-10.075,6.045-15.521,13.166-16.45,17.541c-0.279,1.313-0.156,2.354,0.363,3.092
		c0.677,0.965,2.136,1.621,4.129,1.89c3.191-5.623,9.417-11.531,17.133-16.162c7.68-4.605,15.908-7.437,22.735-7.851
		c0.04-0.149,0.089-0.301,0.119-0.444c0.279-1.314,0.156-2.355-0.364-3.095c-0.905-1.287-3.209-2.028-6.321-2.028
		C183.91,267.208,175.931,269.847,168.565,274.265"/>
	<path style="fill:#FFFFFF;" d="M176.311,284.913c-5.768,3.463-10.569,7.619-13.622,11.689c5.336-0.826,11.589-3.21,17.456-6.728
		c6.336-3.803,10.839-8.029,13.541-11.732C188.302,279.04,182.175,281.397,176.311,284.913"/>
	<path style="fill:#FFFFFF;" d="M314.294,46.925c-1.431,0-2.759,0.344-3.55,0.92l-48.043,34.916l9.723,13.395l48.12-34.987
		c1.097-0.796,2.004-2.585,2.31-4.552c0.364-2.342-0.134-4.649-1.366-6.327C319.664,47.81,316.576,46.925,314.294,46.925
		 M317.603,56.642c-0.17,1.072-0.748,2.012-1.626,2.647c-0.694,0.503-1.517,0.771-2.376,0.771c-1.296,0-2.522-0.625-3.281-1.672
		c-1.314-1.808-0.91-4.348,0.898-5.662c0.7-0.506,1.522-0.771,2.379-0.771c1.295,0,2.524,0.627,3.283,1.675
		C317.515,54.501,317.773,55.572,317.603,56.642"/>
	<path style="fill:#FFFFFF;" d="M261.271,104.265l7.11-5.17L258.656,85.7l-7.356,5.346c-0.751,0.547-1.688,0.77-2.606,0.627
		c-0.917-0.146-1.739-0.65-2.284-1.4c-0.871-1.199-2.155-1.807-3.819-1.807c-1.49,0-2.875,0.52-3.588,1.037l-12.422,9.035
		l19.948,27.534l12.451-9.309c0.083-0.063,4.571-3.398,1.515-7.611C259.361,107.589,259.707,105.402,261.271,104.265"/>
	<path style="fill:#FFFFFF;" d="M242.442,128.952l-20.167-27.836c-2.816,1.891-7.989,5.106-13.332,7.117
		c-4.152,1.565-8.512,2.457-11.926,2.965l4.004,5.461c1.9-0.117,5.101-0.451,8.525-1.318c5.434-1.377,8.921-3.793,8.956-3.817
		c1.128-0.793,2.686-0.523,3.48,0.604c0.794,1.127,0.53,2.681-0.594,3.478c-0.17,0.121-4.226,2.961-10.615,4.582
		c-2.291,0.58-4.473,0.936-6.314,1.159l12.4,16.912c2.556-0.077,7.577-0.526,13.084-2.657
		C234.703,133.764,239.621,130.784,242.442,128.952"/>
</g>
</svg>
