<?xml version="1.0" encoding="iso-8859-1"?>
<!-- Generator: Adobe Illustrator 25.4.1, SVG Export Plug-In . SVG Version: 6.00 Build 0)  -->
<svg version="1.1" id="Calque_1" xmlns="http://www.w3.org/2000/svg" xmlns:xlink="http://www.w3.org/1999/xlink" x="0px" y="0px"
	 viewBox="0 0 368.5 368.5" style="enable-background:new 0 0 368.5 368.5;" xml:space="preserve">
<g>
	<path style="fill:#FFFFFF;" d="M227.601,223.629h4.66v-29.518c-1.699,1.018-3.308,2.127-4.81,3.327
		c0.091,0.259,0.15,0.535,0.15,0.826V223.629z"/>
	<path style="fill:#FFFFFF;" d="M222.601,202.043c-1.463,1.639-2.779,3.369-3.889,5.193l-0.002,16.393h3.891V202.043z"/>
	<path style="fill:#FFFFFF;" d="M242.245,189.637c-1.715,0.547-3.383,1.172-4.984,1.883v32.109h4.984V189.637z"/>
	<path style="fill:#FFFFFF;" d="M189.248,155.156v144.309c0,9.41,7.921,17.068,17.66,17.068h98.273
		c9.738,0,17.66-7.658,17.66-17.068V155.156c0-9.412-7.922-17.068-17.66-17.068h-98.273
		C197.169,138.088,189.248,145.744,189.248,155.156 M213.187,226.129c0-0.549,0.193-1.078,0.523-1.514v-18.064
		c0-0.438,0.12-0.885,0.34-1.26c8.082-13.814,24.799-23.068,43.998-23.08c19.196,0.012,35.912,9.266,43.994,23.08
		c0.219,0.375,0.342,0.822,0.342,1.26v18.762c0.09,0.259,0.147,0.531,0.147,0.816v42.174c0,0.664-0.26,1.293-0.733,1.765
		c-0.472,0.473-1.099,0.731-1.767,0.731h-0.127c-0.008,0-0.014,0.002-0.02,0.002h-83.672c-0.007,0-0.013-0.002-0.019-0.002h-0.506
		c-0.668,0-1.295-0.258-1.768-0.731c-0.472-0.472-0.732-1.101-0.732-1.765V226.129z"/>
	<path style="fill:#FFFFFF;" d="M253.089,187.463c-1.994,0.184-3.943,0.477-5.844,0.875v35.291h5.844V187.463z"/>
	<path style="fill:#FFFFFF;" d="M297.382,207.234c-1.652-2.713-3.732-5.234-6.146-7.521v23.916h6.146V207.234z"/>
	<path style="fill:#FFFFFF;" d="M286.235,195.758c0-0.033,0.008-0.064,0.01-0.098c-2.071-1.427-4.311-2.693-6.682-3.795v31.764
		h6.672V195.758z"/>
	<path style="fill:#FFFFFF;" d="M258.089,223.629h5.67v-36.1c-1.861-0.199-3.754-0.316-5.684-0.316
		c0.004,0.045,0.014,0.086,0.014,0.131V223.629z"/>
	<path style="fill:#FFFFFF;" d="M274.563,189.881c-1.873-0.627-3.81-1.152-5.803-1.562v35.31h5.803V189.881z"/>
	<rect x="221.388" y="116.742" style="fill:#FFFFFF;" width="3.406" height="16.113"/>
	<path style="fill:#FFFFFF;" d="M237.761,116.742v16.113h1.406c0.412,0,0.748-0.336,0.748-0.748v-14.619
		c0-0.412-0.336-0.746-0.748-0.746H237.761z"/>
	<rect x="213.46" y="116.742" style="fill:#FFFFFF;" width="2.928" height="16.113"/>
	<path style="fill:#FFFFFF;" d="M206.274,132.855h2.186v-16.113h-2.186c-0.412,0-0.748,0.334-0.748,0.746v14.619
		C205.526,132.519,205.862,132.855,206.274,132.855"/>
	<rect x="229.794" y="116.742" style="fill:#FFFFFF;" width="2.967" height="16.113"/>
	<path style="fill:#FFFFFF;" d="M109.292,81.381v13.75c3.088-0.582,6.266-0.898,9.52-0.898c3.584,0,7.082,0.371,10.46,1.074V81.381
		H109.292z"/>
	<rect x="154.735" y="60.741" style="fill:#FFFFFF;" width="112.406" height="7.9"/>
	<path style="fill:#FFFFFF;" d="M45.659,131.494c0.002,4.064,0.262,6.673,0.342,7.377c0.365,2.996,3.549,3.228,4.516,3.228
		c0.187,0,0.375-0.012,0.564-0.035c2.489-0.305,4.27-2.58,3.969-5.07c-0.004-0.024-0.006-0.045-0.008-0.067
		c-0.039-0.355-0.267-2.605-0.267-6.217c-0.006-7.162,0.922-21.552,7.211-37.42c1.775-4.482,3.791-8.798,5.99-12.83
		c0.586-1.076,1.869-1.566,3.019-1.164c1.157,0.405,1.85,1.586,1.639,2.791l-0.049,0.266c-0.029,0.162-0.058,0.324-0.082,0.49
		c-0.144,1.049-0.213,2.147-0.213,3.356c0.006,3.199,0.489,6.722,1.473,10.761c0.619,2.51,1.232,4.356,1.469,5.032
		c0.453,1.269,1.644,2.109,2.97,2.109c0.36,0,0.715-0.063,1.057-0.184c0.791-0.283,1.426-0.857,1.785-1.617
		c0.36-0.76,0.403-1.611,0.119-2.402c-0.007-0.024-0.017-0.049-0.025-0.072c-0.467-1.274-2.607-8.166-2.557-13.651
		c-0.002-0.863,0.049-1.711,0.155-2.486c0.246-1.863,0.845-3.838,1.783-5.86c0.408-0.884,1.295-1.449,2.267-1.449h60.981
		c3.291,0,5.969-2.677,5.969-5.967V57.938c0-3.293-2.678-5.971-5.969-5.971h-63.01c-0.047,0.002-0.094,0.004-0.135,0.004
		l-0.168-0.002c-0.578,0-1.138,0.104-1.664,0.311c-1.265,0.445-2.267,1.197-2.982,2.203l-0.031,0.049
		c-0.096,0.14-0.205,0.271-0.327,0.39c-3.955,3.852-14.007,14.977-21.939,35.014C46.691,107.181,45.665,123.374,45.659,131.494
		 M124.042,68.211c0,2.897-2.349,5.248-5.248,5.248c-2.896,0-5.246-2.351-5.246-5.248c0-2.898,2.35-5.248,5.246-5.248
		C121.693,62.962,124.042,65.313,124.042,68.211 M76.761,72.224c2.049,0,3.715,1.666,3.715,3.713c0,2.047-1.666,3.713-3.715,3.713
		c-2.047,0-3.713-1.666-3.713-3.713C73.048,73.891,74.714,72.224,76.761,72.224"/>
	<path style="fill:#FFFFFF;" d="M118.812,99.232c-25.549,0-46.334,20.783-46.334,46.332v170.699h92.666V145.564
		C165.144,120.015,144.359,99.232,118.812,99.232"/>
</g>
</svg>
