<?xml version="1.0" encoding="iso-8859-1"?>
<!-- Generator: Adobe Illustrator 25.4.1, SVG Export Plug-In . SVG Version: 6.00 Build 0)  -->
<svg version="1.1" id="Calque_1" xmlns="http://www.w3.org/2000/svg" xmlns:xlink="http://www.w3.org/1999/xlink" x="0px" y="0px"
	 viewBox="0 0 368.5 368.5" style="enable-background:new 0 0 368.5 368.5;" xml:space="preserve">
<g>
	<path style="fill:#FFFFFF;" d="M239.792,206.518c2.225,0,3.531,1.236,4.232,1.9c0.065,0.061,0.143,0.133,0.209,0.194
		c0.325-0.073,0.877-0.387,1.33-0.647c1.096-0.625,2.596-1.48,4.52-1.48c0.459,0,0.924,0.049,1.377,0.148
		c2.279,0.498,3.734,2.106,4.807,3.395c0.763-0.551,1.816-1.049,3.216-1.049c0.662,0,1.348,0.117,2.039,0.35
		c1.28,0.433,2.674,1.359,3.162,3.33c0.803-0.707,1.973-1.444,3.62-1.444c0.691,0,1.402,0.137,2.113,0.407
		c2.662,1.007,3.412,3.326,3.695,5.001c0.01-0.005,0.018-0.013,0.028-0.021c1.109-0.877,2.787-2.203,5.199-2.203
		c0.875,0,1.767,0.18,2.65,0.531c2.578,1.026,3.477,2.846,3.758,4.404c1.098-0.539,2.449-1.181,4.022-1.181
		c0.761,0,1.496,0.15,2.181,0.445c1.25,0.537,1.92,1.373,2.277,2.08c0.817-0.449,1.868-0.84,3.182-0.84
		c0.729,0,1.486,0.123,2.254,0.366c1.367,0.431,2.906,1.316,3.641,3.128c0.841-0.505,2.072-1.101,3.752-1.101
		c0.677,0,1.371,0.111,2.099,0.303v-29.707h-70.279v13.765C239.183,206.545,239.491,206.518,239.792,206.518"/>
	<rect x="238.876" y="122.186" style="fill:#FFFFFF;" width="70.279" height="65.641"/>
	<path style="fill:#FFFFFF;" d="M238.876,91.855v25.33h70.279v-25.33c0-6.689-1.23-10.012-8.515-16.453l-13.194-10.938h-26.634
		l-11.916,9.895C241.765,80.063,238.876,85.12,238.876,91.855"/>
	<rect x="261.532" y="46.567" style="fill:#FFFFFF;" width="25.57" height="10.898"/>
	<rect x="102.865" y="47.264" style="fill:#FFFFFF;" width="3.734" height="16.418"/>
	<rect x="95.128" y="47.264" style="fill:#FFFFFF;" width="3.736" height="16.418"/>
	<rect x="110.599" y="47.264" style="fill:#FFFFFF;" width="1.197" height="16.418"/>
	<rect x="79.656" y="47.264" style="fill:#FFFFFF;" width="3.736" height="16.418"/>
	<rect x="66.642" y="47.264" style="fill:#FFFFFF;" width="1.277" height="16.418"/>
	<rect x="87.392" y="47.264" style="fill:#FFFFFF;" width="3.736" height="16.418"/>
	<rect x="71.919" y="47.264" style="fill:#FFFFFF;" width="3.736" height="16.418"/>
	<path style="fill:#FFFFFF;" d="M57.671,257.386h68.334v-1.662v-0.013v-7.819c0-0.785,0.262-1.521,0.713-2.117l0.565-1.603
		c0.158-0.45,0.408-0.862,0.73-1.211c3.346-3.619,4.731-3.881,5.397-4.006c0.74-0.139,1.707-0.071,3.06,0.045
		c0.922,0.078,1.969,0.168,2.832,0.168c0.344,0,0.57-0.016,0.711-0.03c0.109-0.115,0.264-0.292,0.385-0.433
		c0.457-0.529,1.099-1.26,2.031-1.895h-66.41c-4.578,0-8.303-3.724-8.303-8.302V112.052c0-4.58,3.725-8.304,8.303-8.304h60.252
		c0.572,0,1.127,0.195,1.57,0.554l40.695,32.85c0.588,0.475,0.93,1.19,0.93,1.945v85.866c0.524-0.297,1.108-0.508,1.779-0.579
		c0.157-0.015,0.311-0.023,0.467-0.023c1.907,0,3.239,1.154,4.209,1.998c0.149,0.127,0.336,0.289,0.508,0.43
		c0.711-0.651,1.371-1.682,1.92-2.541c0.994-1.549,2.02-3.151,4.055-3.471c0.213-0.033,0.433-0.051,0.658-0.051
		c1.318,0,2.297,0.584,3.012,1.012c0.484,0.289,0.795,0.467,1.031,0.467c0.105,0,0.244-0.027,0.4-0.08
		c0.809-0.27,1.684-1.153,2.531-2.006c0.454-0.455,0.93-0.932,1.448-1.375v-86.678c0-0.803,0.277-1.582,0.783-2.205l10.529-12.976
		c3.614-4.452,5.276-10.041,4.682-15.741c-0.594-5.699-3.371-10.828-7.82-14.437l-44.024-35.723
		c-3.81-3.094-8.605-4.797-13.502-4.797c-6.504,0-12.582,2.893-16.674,7.938l-12.386,15.263c-0.664,0.819-1.662,1.295-2.717,1.295
		H57.671c-6.052,0-10.976,4.924-10.976,10.977v164.75C46.695,252.463,51.619,257.386,57.671,257.386 M138.515,67.322
		c3.535-4.371,8.791-6.877,14.418-6.877c4.225,0,8.361,1.465,11.65,4.125l31.17,25.221c7.948,6.429,9.182,18.125,2.752,26.07
		c-3.537,4.369-8.793,6.877-14.42,6.877c-4.222,0-8.359-1.465-11.648-4.127L141.265,93.39
		C133.32,86.961,132.087,75.267,138.515,67.322"/>
	<path style="fill:#FFFFFF;" d="M76.019,108.748c-1.82,0-3.303,1.482-3.303,3.305v116.455c0,1.822,1.483,3.303,3.303,3.303h87.949
		c0.696-1.247,1.799-2.674,3.828-3.059c0.323-0.061,0.659-0.092,1.002-0.092c1.412,0,2.795,0.496,4.26,1.022
		c0.289,0.103,0.652,0.232,1.016,0.355c0.242-0.459,0.392-0.975,0.392-1.529v-88.217l-39.078-31.543H76.019z"/>
	<path style="fill:#FFFFFF;" d="M245.241,285.08c5.73,0,10.506-4.898,11.525-11.346l-19.707,7.387
		C239.175,283.566,242.059,285.08,245.241,285.08"/>
	<path style="fill:#FFFFFF;" d="M236.872,307.924c-1.687-4.682-4.529-7.873-7.437-7.873c-2.696,0-5.583,2.859-7.344,7.545
		c1.582-0.385,3.414-0.576,5.529-0.576C230.698,307.02,233.993,307.428,236.872,307.924"/>
	<path style="fill:#FFFFFF;" d="M143.63,274.098c2.113,0,4.43-3.053,5.127-7.459l-10.41-3.889c-0.028,0.393-0.059,0.784-0.059,1.198
		C138.288,269.758,141.109,274.098,143.63,274.098"/>
	<path style="fill:#FFFFFF;" d="M169.573,286.227c0,1.166,0.209,2.076,0.445,2.707c0.239-0.631,0.446-1.541,0.446-2.707
		c0-1.164-0.207-2.074-0.446-2.705C169.782,284.153,169.573,285.063,169.573,286.227"/>
	<path style="fill:#FFFFFF;" d="M275.706,283.232c-0.479,0-0.861,0.115-1.203,0.365c-0.389,0.285-0.723,0.768-0.986,1.399
		c0.527-0.047,1.08-0.078,1.691-0.078c1.51,0,3.199,0.152,4.904,0.382C278.468,283.934,276.892,283.232,275.706,283.232"/>
	<path style="fill:#FFFFFF;" d="M199.183,309.121c-0.725-8.488-5.008-14.215-8.896-14.215c-2.735,0-5.715,2.877-7.471,7.623
		c1-0.219,2.062-0.361,3.197-0.361c2.453,0,4.83,0.629,7.061,1.867C195.357,305.303,197.404,307.133,199.183,309.121"/>
	<path style="fill:#FFFFFF;" d="M303.942,262.783c-0.037-0.014-0.07-0.02-0.109-0.02c-0.752,0-2.487,1.512-3.268,4.522
		c-0.912,3.502,0.178,6.312,1.053,6.615c0.039,0.014,0.072,0.02,0.111,0.02c0.75,0,2.483-1.512,3.266-4.522
		C305.905,265.896,304.815,263.084,303.942,262.783"/>
	<path style="fill:#FFFFFF;" d="M304.552,255.824c0.57,0.057,1.135,0.154,1.678,0.344c4.855,1.68,7.289,8.266,5.541,14.992
		c-1.494,5.746-5.623,9.76-10.041,9.76c-0.818,0-1.627-0.137-2.4-0.404c-4.856-1.68-7.29-8.266-5.54-14.995
		c0.774-2.974,2.258-5.478,4.12-7.207l-33.94,12.721c0,0.045,0.006,0.086,0.006,0.131c0,11.533-8.404,20.914-18.734,20.914
		c-6.129,0-11.563-3.316-14.983-8.41l-16.693,6.258c-0.397,0.148-0.813,0.222-1.229,0.222s-0.83-0.074-1.224-0.222l-55.692-20.801
		c-1.547,7.01-6.173,11.971-11.791,11.971c-4.574,0-8.492-3.291-10.625-8.299v13.023l3.418,1.572
		c2.172-1.648,4.846-2.845,7.742-3.443c1.336-0.277,2.682-0.416,4-0.416c6.711,0,11.965,3.652,12.78,8.881
		c0.301,1.949-0.037,3.945-0.946,5.82l14.877,6.84c1.887-10.072,8.012-17.17,15.411-17.17c8.98,0,16.015,10.428,16.015,23.738
		c0,2.592-0.267,5.11-0.799,7.516l6.86,3.152l1.302-0.576c-0.162-1.422-0.244-2.865-0.244-4.314
		c0-13.666,7.036-24.371,16.014-24.371c6.74,0,12.479,6.019,14.855,15.107l23.321-10.34c-3.071-8.322-2.072-16.332,2.758-19.867
		c1.535-1.125,3.38-1.719,5.338-1.719c5.386,0,11.142,4.325,15.08,11.309l31.019-13.752v-24.432L304.552,255.824z M170.019,296.789
		c-4.244,0-7.445-4.541-7.445-10.563c0-6.019,3.201-10.56,7.445-10.56c4.244,0,7.445,4.541,7.445,10.56
		C177.464,292.248,174.263,296.789,170.019,296.789"/>
	<path style="fill:#FFFFFF;" d="M205.731,224.334c-0.248,0.234-0.513,0.502-0.728,0.717c-1.221,1.23-2.895,2.918-5.281,3.715
		c-0.875,0.291-1.754,0.439-2.617,0.439c-1.284,0-2.34-0.316-3.178-0.687c-0.961,1.48-2.256,3.312-4.235,4.558
		c-1.009,0.637-2.089,0.961-3.211,0.961c-1.839,0-3.246-0.853-4.296-1.679c-0.012,0.019-0.026,0.039-0.036,0.058
		c-1.058,1.723-2.257,3.678-4.275,4.545c-0.695,0.301-1.477,0.453-2.316,0.453c-1.672,0-3.368-0.607-4.864-1.144
		c-0.287-0.102-0.64-0.229-0.974-0.342c-0.676,1.392-1.701,3.451-4.076,4.486c-0.754,0.33-1.553,0.496-2.377,0.496
		c-1.762,0.002-3.217-0.771-4.278-1.336c-0.238-0.125-0.556-0.295-0.806-0.408c-0.215,0.268-0.487,0.715-0.666,1.012
		c-0.682,1.125-1.618,2.662-3.516,3.174c-1.273,0.347-2.832,0.043-4.459-0.35c-0.953-0.23-2.033-0.49-2.76-0.49
		c-0.17,0-0.246,0.015-0.254,0.017c-0.177,0.039-0.254,0.079-0.828,0.746c-0.631,0.733-1.494,1.733-2.951,2.346
		c-0.166,0.071-0.348,0.125-0.529,0.182v4.137c0,1.105-0.895,2-2,2c-1.106,0-2.002-0.895-2.002-2v-3.801
		c-0.824-0.037-1.645-0.106-2.344-0.164c-0.289-0.026-0.596-0.051-0.863-0.071c-0.371,0.317-0.887,0.803-1.375,1.303l-0.311,0.877
		c-0.035,0.422-0.146,0.826-0.32,1.197v4.002l79.33,29.629l109.471-41.029v-4.104c-0.125-0.293-0.211-0.603-0.252-0.927
		c-0.033-0.252-0.076-0.483-0.127-0.69c-0.674,0.342-1.438,0.602-2.309,0.602c-0.504,0-0.992-0.088-1.453-0.262
		c-1.695-0.644-2.318-1.996-2.545-3.369c-0.803,0.416-1.705,0.738-2.705,0.818c-0.146,0.012-0.287,0.016-0.42,0.016
		c-1.402,0-3.865-0.567-4.586-4.359c-0.017-0.098-0.041-0.219-0.064-0.331c-0.182-0.044-0.27-0.046-0.289-0.046
		c-0.026,0.019-0.283,0.183-0.473,0.304c-0.934,0.596-2.519,1.629-5.06,1.479c-1.008-0.055-4.018-0.494-4.667-3.682
		c-1.037,0.754-2.734,1.883-5.396,1.592c-1.799-0.201-3.088-0.951-3.828-2.229c-0.08-0.14-0.151-0.279-0.213-0.416
		c-1.223,0.516-2.764,0.946-4.42,0.735c-1.32-0.166-4.265-1.008-4.199-5.17c-0.111,0.086-0.223,0.174-0.319,0.248
		c-1.169,0.928-2.941,2.326-5.572,2.353c-0.379,0.014-0.697-0.045-1.031-0.142l-1.25-0.371c-0.451-0.133-0.871-0.358-1.234-0.658
		c-1.266-1.045-1.721-2.434-1.936-3.631c-1.053,0.765-2.527,1.449-4.66,1.341c-1.729-0.082-3.07-0.683-3.99-1.789
		c-0.444-0.535-0.717-1.097-0.879-1.65c-0.631,0.254-1.389,0.406-2.278,0.311c-2.193-0.231-3.5-1.817-4.552-3.092
		c-0.313-0.381-0.807-0.981-1.119-1.237c-0.215,0.1-0.643,0.346-0.946,0.518c-1.17,0.668-2.771,1.582-4.9,1.582
		c-2.221,0-3.645-0.99-4.481-1.721c-0.314,0.301-0.673,0.674-0.953,0.965c-1.383,1.438-3.103,3.227-5.525,4.035
		c-0.666,0.223-1.322,0.336-1.944,0.336c-0.728,0-1.568-0.142-2.371-0.611c-0.81,1.24-2.166,2.557-4.578,3.129
		c-0.676,0.158-1.328,0.24-1.943,0.24c-1.879,0-3.172-0.738-3.996-1.371c-0.174,0.248-0.365,0.539-0.518,0.77
		c-0.976,1.48-2.314,3.507-4.965,4.541c-0.812,0.316-1.63,0.478-2.431,0.478C208.155,226.418,206.669,225.193,205.731,224.334
		 M278.435,253.106c0,1.093-0.897,1.978-2.002,1.978c-1.106,0-2-0.885-2-1.978v-4.454c0-1.093,0.894-1.98,2-1.98
		c1.105,0,2.002,0.887,2.002,1.98V253.106z M246.956,263.434v-4.453c0-1.092,0.895-1.981,2-1.981c1.106,0,2,0.889,2,1.981v4.453
		c0,1.093-0.894,1.98-2,1.98C247.851,265.414,246.956,264.527,246.956,263.434 M168.642,259.779c0,1.106-0.895,2-2,2
		c-1.106,0-2.002-0.894-2.002-2v-4.5c0-1.105,0.896-2,2.002-2c1.105,0,2,0.895,2,2V259.779z M155.306,255.867v-4.5
		c0-1.103,0.894-2,2-2c1.105,0,2,0.897,2,2v4.5c0,1.106-0.895,2.002-2,2.002C156.2,257.869,155.306,256.973,155.306,255.867
		 M257.624,262.473c-1.105,0-2-0.889-2-1.983v-4.451c0-1.096,0.895-1.98,2-1.98c1.106,0,2,0.884,2,1.98v4.451
		C259.624,261.584,258.73,262.473,257.624,262.473 M267.099,258.955c-1.106,0-2-0.885-2-1.978v-4.453c0-1.094,0.894-1.981,2-1.981
		c1.105,0,2,0.887,2,1.981v4.453C269.099,258.07,268.204,258.955,267.099,258.955 M146.782,248.356c0-1.106,0.897-2,2.002-2
		c1.106,0,2,0.894,2,2v4.5c0,1.103-0.894,2-2,2c-1.105,0-2.002-0.897-2.002-2V248.356z M176.116,265.332
		c-1.105,0-2.002-0.894-2.002-2.002v-4.5c0-1.103,0.897-2,2.002-2c1.106,0,2,0.897,2,2v4.5
		C178.116,264.438,177.222,265.332,176.116,265.332 M184.784,268.307c-1.105,0-2.002-0.897-2.002-2.002v-4.5
		c0-1.104,0.897-2,2.002-2c1.106,0,2,0.896,2,2v4.5C186.784,267.41,185.89,268.307,184.784,268.307 M195.53,269.766
		c0,1.107-0.894,2.002-2,2.002c-1.105,0-2.002-0.895-2.002-2.002v-4.5c0-1.104,0.897-2,2.002-2c1.106,0,2,0.896,2,2V269.766z
		 M204.642,273.229c0,1.105-0.895,2-2,2c-1.106,0-2.002-0.895-2.002-2v-4.5c0-1.104,0.896-2,2.002-2c1.105,0,2,0.896,2,2V273.229z
		 M214.116,276.779c0,1.106-0.894,2.002-2,2.002c-1.105,0-2.002-0.896-2.002-2.002v-4.5c0-1.103,0.897-2,2.002-2
		c1.106,0,2,0.897,2,2V276.779z M223.624,273.801c0,1.094-0.894,1.978-2,1.978c-1.105,0-2-0.884-2-1.978v-4.453
		c0-1.092,0.895-1.981,2-1.981c1.106,0,2,0.889,2,1.981V273.801z M233.099,270.287c0,1.092-0.895,1.979-2,1.979
		c-1.106,0-2-0.887-2-1.979v-4.455c0-1.094,0.894-1.978,2-1.978c1.105,0,2,0.884,2,1.978V270.287z M240.21,268.838
		c-1.105,0-2-0.883-2-1.979v-4.453c0-1.093,0.895-1.978,2-1.978c1.105,0,2,0.885,2,1.978v4.453
		C242.21,267.955,241.315,268.838,240.21,268.838"/>
</g>
</svg>
