<?xml version="1.0" encoding="iso-8859-1"?>
<!-- Generator: Adobe Illustrator 25.4.1, SVG Export Plug-In . SVG Version: 6.00 Build 0)  -->
<svg version="1.1" id="Calque_1" xmlns="http://www.w3.org/2000/svg" xmlns:xlink="http://www.w3.org/1999/xlink" x="0px" y="0px"
	 viewBox="0 0 368.5 368.5" style="enable-background:new 0 0 368.5 368.5;" xml:space="preserve">
<rect x="267.971" y="45.722" style="fill:#FFFFFF;" width="3.12" height="12.789"/>
<rect x="260.317" y="45.722" style="fill:#FFFFFF;" width="3.654" height="12.789"/>
<rect x="238.323" y="45.722" style="fill:#FFFFFF;" width="2.686" height="12.789"/>
<rect x="252.665" y="45.722" style="fill:#FFFFFF;" width="3.652" height="12.789"/>
<rect x="245.01" y="45.722" style="fill:#FFFFFF;" width="3.655" height="12.789"/>
<g>
	<path style="fill:#FFFFFF;" d="M280.918,64.511h-48.174c-3.009,0-5.456,2.448-5.456,5.457v112.926l10.96,9.196v-60.612
		c0-5.418,4.408-9.826,9.826-9.826h12.16c11.326,0,19.367,19.721,24.118,36.266c5.325,18.547,8.904,41.628,8.904,57.436v10.563
		c0,5.418-4.408,9.825-9.826,9.825h-34.796c-0.307,0.449-0.645,0.875-1.02,1.259c-0.111,0.115-0.231,0.215-0.348,0.322
		c2.083,3.536,4.413,7.519,6.713,11.498h63.548c3.009,0,5.456-2.448,5.456-5.457v-82.153c0-38.788-9.018-62.248-16.584-75.097
		C297.611,71.191,287.269,64.511,280.918,64.511 M312.322,132.471c0.295,2.681,1.203,10.954-6.925,13.976l-2.09,0.775
		c-1.284,0.477-2.626,0.719-3.987,0.719c-4.766,0-9.084-3.003-10.742-7.471l-16.881-45.458c-2.2-5.919,0.828-12.526,6.751-14.728
		l2.09-0.776c1.215-0.451,2.448-0.68,3.665-0.68c3.903,0,7.501,2.265,10.691,6.732c0.241,0.311,7.272,9.583,11.678,21.452
		C310.959,118.827,312.268,131.919,312.322,132.471"/>
	<path style="fill:#FFFFFF;" d="M283.43,231.742c3.212,0,5.825-2.613,5.825-5.825v-10.564c0-29.537-13.433-89.702-29.021-89.702
		h-12.16c-3.213,0-5.827,2.614-5.827,5.826v63.975c4.35,3.711,8.991,8.88,8.033,13.47l0.001,21.833
		c0.007,0.32-0.022,0.651-0.065,0.987H283.43z"/>
	<path style="fill:#FFFFFF;" d="M130.412,298.651c-7.596,0-14.262-1.234-19.83-3.67c-6.994-3.034-12.512-8.086-16.396-15.014
		c-2.262-4.012-3.669-7.937-4.797-11.09c-0.421-1.173-0.784-2.186-1.136-3.053c-1.69-4.236-5.637-15.383-12.071-34.091
		c-2.716-7.9-5.274-15.401-6.973-20.397l-3.109-2.609l4.721,71.26c0.651,6.255,1.9,9.114,5.785,13.267l18.042,18.958
		c6.884,5.728,17.283,10.552,22.87,10.61c0.091-0.004,0.179-0.003,0.282,0.001h98.428c9.616,0,9.99-4.107,10.169-6.082l2.089-18.09
		H130.412z"/>
	<path style="fill:#FFFFFF;" d="M117.453,239.7c-7.527,0-19.895-5.339-29.145-12.422c1.199,3.483,2.45,7.11,3.686,10.677
		c4.202,12.105,7.054,20.08,8.249,23.06c0.43,1.101,0.84,2.232,1.259,3.388c1.633,4.505,3.32,9.163,6.459,12.92
		c2.157,2.586,4.634,4.436,7.796,5.823c3.93,1.716,8.862,2.587,14.655,2.587h99.564l5.315-46.033H117.453z"/>
	<path style="fill:#FFFFFF;" d="M65.473,200.369l1.499,1.258c0.112-0.461,0.271-0.913,0.486-1.349
		c0.766-1.546,2.087-2.701,3.722-3.253c0.668-0.226,1.366-0.342,2.071-0.342c2.769,0,5.225,1.764,6.112,4.389h-0.002
		c0.043,0.124,0.123,0.355,0.234,0.683l2.502,7.354c0.651,1.915,1.504,4.418,2.486,7.294l5.538,4.648
		c8.172,6.856,20.687,12.649,27.331,12.649h123.599c0.94,0,1.684-0.293,2.272-0.895c0.748-0.764,0.964-1.721,0.959-1.983
		l-0.001-17.111c-0.532,0.067-1.106,0.106-1.734,0.106H117.578c-0.036,0-0.083-0.004-0.126-0.002
		c-8.096,0-21.795-6.172-31.187-14.051l-24.649-20.681c-0.401-0.337-0.768-0.671-1.113-1.003v14.472
		C60.723,195.156,62.394,197.786,65.473,200.369"/>
	<path style="fill:#FFFFFF;" d="M67.62,166.433c-2.124,0-4.474,1.334-5.026,2.855c-0.676,1.854,1.514,4.053,2.88,5.2l24.648,20.68
		c5.828,4.89,13.858,9.226,20.399,11.318v-19.553l-5.469-3.936c-3.044-2.19-3.738-6.449-1.549-9.495
		c1.274-1.771,3.34-2.828,5.522-2.828c1.434,0,2.807,0.444,3.972,1.282l9.172,6.601c1.801-2.412,4.036-5.886,6.423-10.732
		c0.221-0.445,0.431-0.913,0.637-1.392H68.307H67.62z"/>
	<path style="fill:#FFFFFF;" d="M238.059,199.764l-22.691-19.039l-0.016,0.001c-0.25,0-0.5-0.016-0.749-0.044
		c0.168,1.416-0.106,2.895-0.89,4.208c-1.069,1.779-2.859,2.943-4.912,3.199c-0.274,0.035-0.556,0.053-0.838,0.053
		c-1.207,0-2.392-0.33-3.428-0.954c-0.127-0.078-0.299-0.187-0.496-0.315c-0.213,1.457-0.904,2.792-1.997,3.813
		c-1.011,0.944-2.27,1.534-3.642,1.705c-0.271,0.034-0.541,0.051-0.812,0.051c-1.176,0-2.325-0.327-3.324-0.918
		c-0.261,1.333-0.921,2.6-1.987,3.596c-1.035,0.968-2.324,1.574-3.728,1.75c-0.278,0.036-0.556,0.052-0.834,0.052
		c-0.733,0-1.456-0.127-2.139-0.359c-0.678,0.595-1.474,1.05-2.36,1.326c-0.366,0.115-0.747,0.198-1.131,0.247
		c-1.294,0.166-2.519-0.057-3.591-0.558c-0.836,1.433-2.151,2.492-3.744,2.991c-0.383,0.119-0.775,0.204-1.164,0.252
		c-0.269,0.033-0.544,0.049-0.814,0.049c-2.055,0-3.911-0.941-5.142-2.464c-0.568,0.306-1.192,0.533-1.859,0.661
		c-0.418,0.075-0.788,0.112-1.154,0.118h-0.079c-2.574,0-4.835-1.526-5.888-3.777c-0.045,0.129-0.088,0.249-0.125,0.348
		c-0.995,2.589-3.443,4.27-6.122,4.27c-0.157,0-0.308-0.032-0.464-0.043l10.887,7.835h79.721c1.009,0,1.591-0.148,1.854-0.256
		C244.296,206.754,243.139,204.027,238.059,199.764"/>
	<path style="fill:#FFFFFF;" d="M116.003,208.811l0.27,0.006h24.655l-18.573-13.367c-0.136,0.026-0.272,0.057-0.412,0.075
		c-0.27,0.034-0.541,0.051-0.809,0.051c-2.247,0-4.306-1.131-5.509-3.025c-0.521-0.819-0.828-1.717-0.949-2.627l-0.155-0.112v18.905
		c0.528,0.061,1.013,0.093,1.454,0.097L116.003,208.811z"/>
	<path style="fill:#FFFFFF;" d="M126.263,193.335l21.512,15.482h9.593l-10.239-7.369c-1.119,0.826-2.476,1.305-3.905,1.306
		c-0.816,0-1.618-0.15-2.385-0.445c-2.117-0.816-3.576-2.608-4.064-4.665c-0.369,0.064-0.744,0.108-1.128,0.108
		c-1.043,0-2.087-0.257-3.016-0.741c-2.436-1.274-3.73-3.879-3.467-6.46C128.01,191.79,127.024,192.698,126.263,193.335"/>
	<path style="fill:#FFFFFF;" d="M119.613,181.645l-8.953-6.443c-1.219-0.875-3.044-0.569-3.91,0.635
		c-0.902,1.254-0.616,3.01,0.638,3.913l8.19,5.894c0.48-0.79,1.129-1.491,1.944-2.031c0.021-0.016,0.04-0.03,0.058-0.042
		c0.017-0.015,0.17-0.132,0.385-0.318C118.338,182.932,118.903,182.406,119.613,181.645"/>
	<path style="fill:#FFFFFF;" d="M256.998,262.222c-4.129-7.431-9.691-16.961-13.964-24.202c-0.759,0.331-1.575,0.545-2.43,0.633
		l-0.382,4.282c3.63,6.169,8.629,14.747,12.479,21.677c2.317,4.167,4.016,7.627,5.192,10.579c1.379,3.411,2.126,6.478,2.101,8.628
		c0,0.961-0.141,1.815-0.418,2.515c-0.291,0.706-0.628,1.175-1.174,1.646c-0.704,0.635-2.599,1.754-6.989,1.754H130.412
		c-6.348,0-11.818-0.984-16.26-2.923c-3.702-1.625-6.73-3.889-9.26-6.925c-3.59-4.295-5.482-9.515-7.151-14.119
		c-0.407-1.125-0.805-2.226-1.218-3.279c-1.531-3.822-5.363-14.739-8.307-23.222c-3.86-11.127-7.863-22.862-9.905-28.868
		c-2.04-5.989-2.577-7.563-2.731-8.045l-0.004,0.001c-0.424-1.252-1.847-1.969-3.112-1.539c-0.626,0.211-1.129,0.65-1.421,1.239
		c-0.291,0.588-0.336,1.255-0.125,1.877l-0.004,0.002c0.03,0.081,0.066,0.183,0.107,0.303c0.681,2.007,4.612,13.597,8.944,26.197
		c6.413,18.646,10.338,29.734,11.998,33.897c0.38,0.934,0.773,2.034,1.19,3.199c1.079,3.01,2.422,6.757,4.521,10.478
		c3.448,6.152,8.327,10.628,14.504,13.308c5.066,2.215,11.193,3.337,18.216,3.337l64.861-0.001l56.089,0.001
		c3.424-0.008,6.035-0.514,8.214-1.592c2.094-1.018,3.803-2.849,4.583-4.905c0.522-1.32,0.771-2.738,0.771-4.36
		c-0.018-2.953-0.774-6.175-2.454-10.435C261.196,270.2,259.459,266.658,256.998,262.222"/>
	<path style="fill:#FFFFFF;" d="M109.229,79.886c0.657-1.124,1.419-2.168,2.259-3.133L56.92,45.677H45.517v5.12l61.38,34.954
		C107.361,83.739,108.131,81.761,109.229,79.886"/>
	<path style="fill:#FFFFFF;" d="M132.177,169.598c-3.53,7.168-6.81,11.572-8.937,14.004c-1.165,1.323-2.091,2.189-2.665,2.683
		c-0.318,0.274-0.541,0.444-0.657,0.531c-0.017,0.013-0.107,0.076-0.125,0.089c-1.198,0.79-1.529,2.343-0.793,3.501
		c0.522,0.82,1.467,1.271,2.445,1.151c0.372-0.047,0.721-0.174,1.039-0.376c0.078-0.049,5.138-3.275,11.261-13.809
		c1.411-5.297,2.823-12.868,2.721-21.721l-0.021-1.858C135.768,159.204,134.497,164.927,132.177,169.598"/>
	<path style="fill:#FFFFFF;" d="M164.566,195.184c0.152-0.002,0.312-0.021,0.474-0.051c0.35-0.067,0.669-0.21,0.946-0.405
		c-0.76-2.499-2.246-7.48-3.989-13.793c-0.308,2.228-0.67,4.249-1.047,6.041c0.659,3.791,1.102,6.106,1.11,6.148
		c0.23,1.198,1.272,2.06,2.479,2.06v2L164.566,195.184z"/>
	<path style="fill:#FFFFFF;" d="M136.992,180.602c-0.933,3.128-1.868,5.559-2.489,7.047c-0.341,0.82-0.625,1.44-0.815,1.839
		c-0.099,0.213-0.177,0.373-0.229,0.472c-0.007,0.013-0.029,0.057-0.047,0.094c-0.646,1.235-0.165,2.765,1.07,3.41
		c0.901,0.469,1.99,0.312,2.749-0.286c0.132-0.391,0.312-0.955,0.529-1.693c0.429-1.478,1.059-3.902,1.617-7.032
		c0.908-5.099,1.742-12.911,0.886-22.078C139.736,169.956,138.277,176.279,136.992,180.602"/>
	<path style="fill:#FFFFFF;" d="M181.583,194.168c0.147-0.02,0.295-0.052,0.442-0.098c0.042-0.012,0.079-0.034,0.117-0.048
		c-0.865-1.026-2.451-3.041-4.332-6.033c0.686,2.307,1.144,3.791,1.263,4.177c0.011,0.033,0.019,0.065,0.028,0.095h0.002
		c0.102,0.328,0.17,0.66,0.221,0.994C179.859,193.911,180.695,194.277,181.583,194.168"/>
	<path style="fill:#FFFFFF;" d="M154.759,194.407c0.797-2.172,3.97-11.656,4.11-25.289c-3.229-12.785-5.399-23.497-6.455-31.9
		c-0.885-7.06-2.376-12.749-3.943-17.183c1.058,8.458,2.741,21.925,4.695,37.527c0.339,2.703,0.527,5.306,0.605,7.781
		c0.691,13.773-1.694,24.459-3.262,29.809c0.267,0.306,0.598,0.553,0.987,0.703C152.768,196.343,154.276,195.663,154.759,194.407"/>
	<path style="fill:#FFFFFF;" d="M185.903,166.545c-1.533-2.748-2.888-5.529-4.103-8.299c4.481,19.13,13.5,28.923,13.939,29.39
		c0.559,0.599,1.349,0.884,2.166,0.786c0.529-0.066,1.017-0.295,1.407-0.66c1.017-0.95,1.071-2.552,0.119-3.571
		c-0.129-0.141-0.984-1.109-2.224-2.87C193.738,177.974,189.595,173.138,185.903,166.545"/>
	<path style="fill:#FFFFFF;" d="M200.516,156.47c-5.656-8.535-10.201-19.115-13.891-32.342c-1.837-6.529-3.922-11.922-6.378-16.442
		c2.467,5.293,4.399,11.535,5.919,19.055c2.711,13.525,6.443,24.41,11.407,33.279c1.184,2.124,2.43,4.008,3.67,5.676
		c6.264,7.112,12.174,10.34,12.981,10.76c0.512,0.257,1.078,0.33,1.632,0.22c0.768-0.155,1.41-0.645,1.761-1.344
		c0.616-1.229,0.128-2.733-1.084-3.368c-0.02-0.009-0.039-0.018-0.057-0.027C216.389,171.892,207.713,167.374,200.516,156.47"/>
	<path style="fill:#FFFFFF;" d="M143.96,159.344c1.348,10.759,0.393,19.975-0.646,25.811c-0.588,3.302-1.258,5.875-1.714,7.451
		c-0.257,0.873-0.469,1.531-0.616,1.957c-0.076,0.225-0.132,0.389-0.169,0.489c-0.014,0.037-0.063,0.165-0.079,0.201
		c-0.489,1.276,0.187,2.802,1.54,3.323c1.334,0.516,2.899-0.201,3.404-1.509c0.64-1.73,6.118-17.325,3.503-38.377l-5.687-45.415
		c-0.169-1.202-0.096-2.692,0.221-4.399c0.152-0.815,0.79-1.453,1.607-1.602c0.815-0.148,1.639,0.221,2.07,0.93
		c2.546,4.2,7.102,13.488,8.989,28.517c1.207,9.608,3.91,22.345,8.032,37.855c2.832,10.643,5.354,18.863,5.83,20.403
		c0.393,1.256,1.589,2.038,2.85,1.872c0.157-0.02,0.306-0.052,0.461-0.101c0.672-0.21,1.22-0.668,1.548-1.291
		c0.326-0.622,0.389-1.334,0.179-2.005c-0.002-0.008-0.005-0.016-0.008-0.025c-0.171-0.556-0.799-2.591-1.728-5.754
		c-2.873-9.747-9.788-34.292-11.942-51.608c-1.479-11.847-4.536-20.406-7.242-26.027c-0.454-0.67-0.918-1.32-1.407-1.93
		c-2.087-2.598-4.454-4.523-7.036-5.72c-1.794-0.83-3.034-0.978-3.046-0.98c-0.746-0.054-1.453-0.242-2.109-0.528
		c-0.313,0.717-0.654,1.559-0.989,2.503c-0.949,2.754-1.984,6.456-1.5,10.557l0.057,0.457c0.063,0.199,0.125,0.398,0.193,0.599
		c0.18,0.523,0.194,1.072,0.082,1.597L143.96,159.344z"/>
	<path style="fill:#FFFFFF;" d="M189.546,192.197c1.081-1.01,1.14-2.709,0.132-3.79c-0.497-0.548-11.803-13.23-14.816-37.344
		c-1.673-13.33-3.484-23.033-5.696-30.538c-2.105-7.153-4.687-12.64-8.051-17.156c-3.497-3.204-7.668-5.128-13.012-6.061
		c-1.552-0.26-2.889-1.048-3.865-2.145c-0.531,0.645-1.058,1.358-1.581,2.152c0.185,0.057,0.377,0.098,0.577,0.113
		c0.256,0.025,1.998,0.235,4.369,1.332c3.146,1.458,5.997,3.762,8.474,6.845c3.326,4.148,5.849,9.371,7.94,16.439
		c2.133,7.225,3.886,16.659,5.517,29.689c3.301,26.314,15.689,39.775,16.214,40.334c0.592,0.635,1.448,0.94,2.304,0.834
		C188.61,192.83,189.128,192.587,189.546,192.197"/>
	<path style="fill:#FFFFFF;" d="M182.245,127.531c-2.282-11.288-5.486-19.487-10.083-25.801
		c-4.562-6.315-10.89-10.669-18.458-12.766c-2.465,0.873-4.617,1.827-6.606,3.379c0.399,0.522,0.982,0.905,1.678,1.022
		c8.338,1.456,14.208,5.01,19.044,11.525c4.095,5.577,7.091,13.328,9.161,23.703c1.878,9.268,5.209,23.089,12.413,35.999
		c7.139,12.745,16.194,18.548,17.203,19.169c0.513,0.309,1.12,0.432,1.706,0.359c0.829-0.104,1.55-0.572,1.979-1.287
		c0.754-1.262,0.342-2.913-0.92-3.677c-0.03-0.018-0.059-0.036-0.088-0.055c-0.017-0.009-8.599-5.306-15.194-17.131
		C188.911,152.734,185.039,141.468,182.245,127.531"/>
	<path style="fill:#FFFFFF;" d="M136.579,95.725c3.401-5.812,6.973-8.744,10.952-10.701l-12.712-7.442
		c-2.288-1.339-4.889-2.047-7.523-2.047c-5.284,0-10.224,2.829-12.89,7.382c-4.156,7.099-1.762,16.256,5.336,20.413l11.909,7.067
		C131.614,106.008,133.187,101.515,136.579,95.725"/>
</g>
</svg>
