<?xml version="1.0" encoding="iso-8859-1"?>
<!-- Generator: Adobe Illustrator 25.4.1, SVG Export Plug-In . SVG Version: 6.00 Build 0)  -->
<svg version="1.1" id="Calque_1" xmlns="http://www.w3.org/2000/svg" xmlns:xlink="http://www.w3.org/1999/xlink" x="0px" y="0px"
	 viewBox="0 0 368.5 368.5" style="enable-background:new 0 0 368.5 368.5;" xml:space="preserve">
<g>
	<path style="fill:#FFFFFF;" d="M198.426,189.437c0-1.712,1.388-3.101,3.101-3.101h91.878c1.713,0,3.102,1.389,3.102,3.101
		c0,1.715-1.389,3.101-3.102,3.101h-91.657l14.999,13.973c1.837,1.641,4.413,4.579,4.476,10.114l-0.02,71.656l6.835,14.321h4.21
		l12.678-26.569c1.109-2.332,3.499-3.842,6.086-3.842c2.582,0,4.971,1.506,6.088,3.838l12.683,26.573h4.21l12.678-26.569
		c1.109-2.332,3.501-3.842,6.091-3.842c2.577,0,4.964,1.506,6.083,3.834l1.89,3.962V150.973
		c-0.448-6.232-26.941-63.788-38.303-78.145c-0.723,0.154-1.469,0.239-2.235,0.239h-24.562c-0.852,0-1.673-0.124-2.469-0.314
		c-11.333,14.239-37.914,71.981-38.364,78.268v35.047l3.625,3.376C198.427,189.442,198.426,189.44,198.426,189.437 M273.156,110.881
		c13.4,27.915,14.992,38.381,10.21,38.381c-4.783,0-17.547,0.247-17.547,0.247c-9.566,0-10.85-5.232-11.165-9.72
		c-0.322-4.487-0.638-41.621-0.638-52.338C254.016,76.735,259.757,82.963,273.156,110.881 M201.527,163.67h91.878
		c1.713,0,3.102,1.39,3.102,3.101c0,1.715-1.389,3.102-3.102,3.102h-91.878c-1.713,0-3.101-1.387-3.101-3.102
		C198.426,165.06,199.814,163.67,201.527,163.67 M201.527,175.003h91.878c1.713,0,3.102,1.388,3.102,3.101
		c0,1.713-1.389,3.102-3.102,3.102h-91.878c-1.713,0-3.101-1.389-3.101-3.102C198.426,176.391,199.814,175.003,201.527,175.003"/>
	<path style="fill:#FFFFFF;" d="M235.635,42.533c-2.592,0-4.702,2.217-4.702,4.945v14.44c0,2.727,2.11,4.947,4.702,4.947h24.562
		c2.592,0,4.701-2.22,4.701-4.947v-14.44c0-2.728-2.109-4.945-4.701-4.945H235.635z"/>
	<path style="fill:#FFFFFF;" d="M163.38,181.653c13.386,9.94,22.711,19.424,22.804,19.518c0.799,0.817,0.784,2.125-0.031,2.924
		c-0.403,0.393-0.925,0.59-1.447,0.59c-0.536,0-1.072-0.207-1.477-0.62c-0.091-0.092-9.204-9.358-22.314-19.093
		c-6.926-5.142-13.144-11.216-17.626-15.995H84.147l40.31,39.26h4.635l-36.739-33.369c-0.845-0.767-0.908-2.076-0.141-2.921
		c0.766-0.843,2.075-0.908,2.921-0.14l40.109,36.43h25.534l-29.805-31.634c-0.782-0.83-0.744-2.138,0.088-2.922
		c0.83-0.781,2.139-0.745,2.922,0.088l32.476,34.468H200.4l-40.504-37.731c-0.116-0.107-0.228-0.221-0.335-0.336
		c-0.589-0.641-1.097-1.193-3.4-1.193h-7.112C153.072,173.065,158.035,177.685,163.38,181.653"/>
	<path style="fill:#FFFFFF;" d="M75.111,279.466c-5.946-6.049-9.438-10.209-12.244-13.551c-2.802-3.34-4.828-5.752-7.962-8.495
		c-0.034-0.031-0.047-0.073-0.079-0.104v10.794c0.043,2.106,0.83,3.333,2.117,5.079l34.722,41.118v-19.361
		C87.906,291.746,82.025,286.497,75.111,279.466"/>
	<path style="fill:#FFFFFF;" d="M72.128,246.932c1.34-1.243,0.94-8.134-4.572-16.331c-3.396-5.054-8.226-11.653-12.73-17.667v22.121
		c3.085,2.729,6.816,5.897,11.053,9.231C69.771,247.349,71.667,247.363,72.128,246.932"/>
	<path style="fill:#FFFFFF;" d="M165.716,301.467c-20.926-3.175-50.302,4.54-61.646,7.896v14.21h76.42l5.498-11.52
		C180.981,307.014,174.347,302.774,165.716,301.467"/>
	<path style="fill:#FFFFFF;" d="M70.988,228.294c5.085,7.564,8.198,17.729,3.952,21.67c-0.788,0.73-1.902,1.318-3.447,1.319
		c-1.96,0-4.613-0.947-8.172-3.748c-3.113-2.449-5.966-4.818-8.496-6.992v13.873c0.764-0.758,1.981-0.827,2.804-0.107
		c3.373,2.952,5.594,5.597,8.405,8.947c2.76,3.287,6.194,7.38,12.026,13.311c5.296,5.385,10.019,9.74,13.605,12.898v-70.392
		c0.094-6.071,4.927-10.79,11.004-10.836h15.862l-39.374-38.346c-0.266-0.262-0.416-0.581-0.512-0.914h-23.82v37.086
		C60.153,213.095,66.694,221.905,70.988,228.294"/>
	<path style="fill:#FFFFFF;" d="M153.59,269.602c-19.107,20.988-39.891,26.128-49.52,27.381v8.051
		c12.367-3.619,40.99-10.877,62.265-7.656c9.13,1.384,16.185,5.576,21.577,10.644l5.129-10.746
		c-9.874-14.532-7.151-36.241-3.574-53.714c2.148-10.512,1.134-18.37,0.013-22.92h-18.164
		C172.646,229.854,172.337,249.015,153.59,269.602"/>
	<path style="fill:#FFFFFF;" d="M121.79,239.294c5.233-5.687,5.597-13.449,5.083-18.652h-22.804v23.94
		C108.423,245.366,116.036,245.549,121.79,239.294"/>
	<path style="fill:#FFFFFF;" d="M124.833,242.092c-5.134,5.583-11.391,7.009-16.444,7.009c-1.591,0-3.04-0.148-4.32-0.345v12.846
		c6.483-0.941,19.571-3.747,27.203-11.67c7.778-8.067,8.176-22.62,7.902-29.29h-8.136
		C131.578,226.633,131.006,235.389,124.833,242.092"/>
	<path style="fill:#FFFFFF;" d="M134.249,252.802c-8.813,9.147-23.408,12.089-30.18,12.991l0.001,26.978
		c9.213-1.355,28.761-6.506,46.464-25.953c17.947-19.71,17.802-38.102,16.568-46.176h-23.773
		C143.637,227.991,143.118,243.605,134.249,252.802"/>
	<path style="fill:#FFFFFF;" d="M193.735,220.642c1.136,5.139,1.931,13.239-0.218,23.749c-2.986,14.595-5.861,34.92,1.638,48.455
		l8.026-16.813c1.046-2.192,3.221-3.638,5.621-3.808l0.014-51.583H193.735z"/>
	<path style="fill:#FFFFFF;" d="M315.823,325.997l-22.572-47.293c-0.182-0.375-0.805-0.374-0.98-0.003l-20.383,42.714
		l-20.384-42.711c-0.178-0.37-0.8-0.374-0.978-0.003l-20.383,42.714l-20.382-42.711c-0.181-0.37-0.799-0.382-0.982,0l-22.572,47.293
		H315.823z"/>
</g>
</svg>
