<?xml version="1.0" encoding="iso-8859-1"?>
<!-- Generator: Adobe Illustrator 25.4.1, SVG Export Plug-In . SVG Version: 6.00 Build 0)  -->
<svg version="1.1" id="Calque_1" xmlns="http://www.w3.org/2000/svg" xmlns:xlink="http://www.w3.org/1999/xlink" x="0px" y="0px"
	 viewBox="0 0 368.5 368.5" style="enable-background:new 0 0 368.5 368.5;" xml:space="preserve">
<g>
	<path style="fill:#FFFFFF;" d="M106.76,263.969c0-0.111,0.006-0.223,0.016-0.332V162.004L26.141,81.371v128.721l80.619,80.621
		V263.969z"/>
	<polygon style="fill:#FFFFFF;" points="173.584,197.43 153.348,197.43 216.387,260.469 236.623,260.469 	"/>
	<polygon style="fill:#FFFFFF;" points="209.109,197.43 179.24,197.43 242.279,260.469 272.15,260.469 	"/>
	<path style="fill:#FFFFFF;" d="M249.254,197.43h-34.488l63.041,63.039h48.65l-70.351-64.24
		C253.959,196.993,251.66,197.43,249.254,197.43"/>
	<polygon style="fill:#FFFFFF;" points="146.855,244.58 146.855,249.92 157.408,260.469 162.744,260.469 	"/>
	<path style="fill:#FFFFFF;" d="M147.691,197.43h-0.836v12.84c0.068,0.053,0.139,0.101,0.199,0.162l50.037,50.037h13.639
		L147.691,197.43z"/>
	<polygon style="fill:#FFFFFF;" points="146.855,255.574 146.855,260.469 151.751,260.469 	"/>
	<polygon style="fill:#FFFFFF;" points="146.855,215.889 146.855,226.635 180.689,260.469 191.436,260.469 	"/>
	<polygon style="fill:#FFFFFF;" points="146.855,232.291 146.855,238.924 168.4,260.469 175.033,260.469 	"/>
	<path style="fill:#FFFFFF;" d="M328.74,267.469H143.355c-1.931,0-3.5-1.566-3.5-3.5V193.93c0-1.932,1.569-3.5,3.5-3.5h105.899
		c7.453,0,13.517-6.064,13.517-13.52c0-4.507-2.228-8.498-5.631-10.955c-0.246-0.177-0.498-0.345-0.754-0.505
		c-0.064-0.042-0.132-0.081-0.199-0.122c-0.254-0.152-0.51-0.298-0.771-0.433c-0.076-0.041-0.156-0.074-0.233-0.113
		c-0.422-0.207-0.851-0.389-1.289-0.551c-0.166-0.061-0.33-0.129-0.5-0.184c-0.17-0.055-0.343-0.097-0.513-0.144
		c-0.229-0.065-0.457-0.127-0.69-0.178c-0.158-0.037-0.32-0.067-0.48-0.098c-0.266-0.049-0.532-0.088-0.801-0.121
		c-0.139-0.017-0.275-0.037-0.414-0.051c-0.408-0.037-0.822-0.062-1.242-0.062H113.775v100.576c0,0.113-0.004,0.225-0.015,0.334
		v31.357h214.98c7.51,0,13.619-6.109,13.619-13.621v-0.949C342.359,273.58,336.25,267.469,328.74,267.469"/>
	<polygon style="fill:#FFFFFF;" points="132.699,72.84 27.51,72.84 111.062,156.393 246.465,156.393 153.291,72.84 	"/>
</g>
</svg>
