<?xml version="1.0" encoding="iso-8859-1"?>
<!-- Generator: Adobe Illustrator 25.4.1, SVG Export Plug-In . SVG Version: 6.00 Build 0)  -->
<svg version="1.1" id="Calque_1" xmlns="http://www.w3.org/2000/svg" xmlns:xlink="http://www.w3.org/1999/xlink" x="0px" y="0px"
	 viewBox="0 0 368.5 368.5" style="enable-background:new 0 0 368.5 368.5;" xml:space="preserve">
<g>
	<path style="fill:#FFFFFF;" d="M44.976,80.302c0.359,0.054,0.718,0.133,1.073,0.27l0.105,0.04c0.005,0.002,0.011,0.002,0.015,0.004
		l10.596,4.053c1.846,0.708,3.378,2.43,4.25,4.528c0.024,0.06,0.052,0.116,0.076,0.176c0.01,0.027,0.019,0.055,0.029,0.083
		c0.493,1.286,0.741,2.698,0.659,4.101l-0.016,0.312c-0.001,0.006-0.002,0.011-0.003,0.016c-0.008,0.13-0.019,0.247-0.033,0.362
		c-0.005,0.055-0.023,0.108-0.035,0.162c-0.377,3.064-2.321,5.167-4.897,5.167c-0.593,0-1.193-0.115-1.784-0.341l-10.035-3.838
		v20.589l259.064,91.971l12.248,4.348v-34.77c0-1.687,0.656-3.301,1.724-4.558L44.976,76.039V80.302z M283.844,178.843l0.019-0.322
		c0.195-3.353,2.237-5.697,4.966-5.697c0.591,0,1.192,0.115,1.784,0.341l0.123,0.047l0.142,0.054l10.451,3.998
		c0.569,0.218,1.109,0.533,1.609,0.924c0.556,0.436,1.059,0.973,1.503,1.576c1.283,1.745,2.038,4.079,1.904,6.387l-0.018,0.318
		c0,0.004-0.001,0.009-0.002,0.015c-0.009,0.144-0.023,0.278-0.038,0.411c-0.006,0.054-0.024,0.106-0.036,0.16
		c-0.39,3.035-2.327,5.116-4.889,5.116c-0.593,0-1.194-0.115-1.786-0.341l-10.717-4.1
		C285.826,186.569,283.623,182.665,283.844,178.843 M256.826,168.578l0.019-0.319c0.193-3.355,2.235-5.699,4.964-5.699
		c0.593,0,1.193,0.116,1.785,0.341l0.114,0.044c0.003,0.001,0.006,0.001,0.009,0.002l9.131,3.494l1.464,0.56
		c3.034,1.16,5.237,5.063,5.015,8.887l-0.013,0.224l-0.006,0.092c-0.012,0.182-0.029,0.339-0.048,0.498
		c-0.006,0.052-0.024,0.1-0.036,0.149c-0.406,3-2.334,5.056-4.88,5.056h-0.001c-0.593,0-1.194-0.115-1.786-0.343l-10.718-4.099
		C258.807,176.306,256.604,172.402,256.826,168.578 M229.079,158.278l0.019-0.321c0.194-3.349,2.235-5.691,4.962-5.691
		c0.275,0,0.555,0.026,0.833,0.076c0.514,0.03,1.019,0.139,1.505,0.325l5.358,2.05l5.361,2.049c2.066,0.791,3.744,2.855,4.535,5.296
		c0.008,0.024,0.017,0.047,0.025,0.071c0.021,0.065,0.036,0.132,0.055,0.198c0.314,1.067,0.463,2.197,0.398,3.322l-0.016,0.31
		c-0.001,0.007-0.002,0.013-0.003,0.02c-0.009,0.135-0.021,0.263-0.035,0.388c-0.006,0.053-0.025,0.104-0.037,0.157
		c-0.385,3.049-2.323,5.138-4.89,5.138c-0.275,0-0.555-0.026-0.833-0.075c-0.51-0.03-1.015-0.138-1.503-0.325l-10.72-4.1
		C231.06,166.008,228.857,162.103,229.079,158.278 M202.061,148.014l0.019-0.321c0.193-3.352,2.234-5.697,4.964-5.697
		c0.593,0,1.193,0.115,1.784,0.341l10.719,4.099c1.328,0.509,2.496,1.542,3.371,2.864c1.126,1.698,1.769,3.874,1.643,6.024
		l-0.019,0.32c-0.009,0.165-0.027,0.327-0.047,0.493c-0.007,0.055-0.026,0.108-0.039,0.162c-0.408,2.993-2.334,5.044-4.878,5.044
		c-0.592,0-1.193-0.115-1.785-0.341l-10.719-4.101C204.041,155.741,201.839,151.838,202.061,148.014 M174.864,137.781l0.019-0.322
		c0.195-3.353,2.237-5.696,4.965-5.696c0.592,0,1.194,0.115,1.787,0.342l0.103,0.039c0.006,0.002,0.012,0.003,0.018,0.005
		l10.594,4.053c1.707,0.652,3.15,2.174,4.047,4.06c0.698,1.467,1.065,3.156,0.968,4.829l-0.017,0.312
		c-0.01,0.142-0.022,0.263-0.035,0.383c-0.006,0.056-0.025,0.109-0.037,0.165c-0.377,3.058-2.32,5.157-4.894,5.157
		c-0.593,0-1.194-0.114-1.786-0.341l-10.717-4.098C176.847,145.509,174.644,141.605,174.864,137.781 M147.846,127.514l0.019-0.319
		c0.194-3.353,2.235-5.698,4.964-5.698c0.592,0,1.194,0.115,1.786,0.343l0.117,0.045c0.002,0,0.003,0,0.005,0.001l8.075,3.088
		l2.52,0.964c3.033,1.16,5.236,5.064,5.016,8.886l-0.008,0.129l-0.011,0.193c-0.01,0.145-0.024,0.273-0.038,0.401
		c-0.006,0.053-0.025,0.105-0.036,0.159c-0.38,3.043-2.321,5.138-4.892,5.138c-0.593,0-1.194-0.115-1.786-0.341l-10.717-4.1
		C149.827,135.243,147.624,131.34,147.846,127.514 M120.595,117.093l0.018-0.317c0.194-3.358,2.236-5.703,4.964-5.703
		c0.593,0,1.194,0.115,1.786,0.343l0.118,0.045c0.001,0.001,0.002,0,0.004,0.001l4.567,1.747l6.029,2.305
		c0.568,0.218,1.108,0.532,1.607,0.924c2.166,1.698,3.587,4.857,3.408,7.965l-0.009,0.129l-0.011,0.192
		c0,0.006-0.002,0.012-0.002,0.018c-0.008,0.146-0.025,0.299-0.043,0.451c-0.006,0.052-0.024,0.1-0.036,0.151
		c-0.399,3.011-2.33,5.077-4.883,5.077c-0.593,0-1.194-0.115-1.786-0.343l-10.717-4.099
		C122.575,124.819,120.372,120.916,120.595,117.093 M93.512,106.427c0.195-3.356,2.237-5.7,4.966-5.7
		c0.592,0,1.192,0.116,1.784,0.341l0.112,0.043c0.004,0.002,0.008,0.002,0.011,0.003l10.594,4.055
		c0.135,0.052,0.269,0.12,0.405,0.184c0.275,0.132,0.551,0.284,0.837,0.477c2.479,1.569,4.104,5,3.911,8.315l-0.01,0.179
		l-0.007,0.133c-0.011,0.162-0.027,0.306-0.043,0.448c-0.006,0.054-0.025,0.105-0.036,0.157c-0.396,3.028-2.33,5.102-4.889,5.102
		c-0.591,0-1.191-0.115-1.783-0.341l-10.719-4.101c-0.41-0.157-0.816-0.374-1.242-0.663c-2.477-1.568-4.102-4.998-3.91-8.314
		L93.512,106.427z M66.494,96.16c0.193-3.353,2.234-5.697,4.965-5.697c0.592,0,1.192,0.115,1.784,0.34l0.122,0.047h0.001l5.358,2.05
		l5.237,2.003c2.6,0.997,4.584,4.008,4.96,7.253c0.063,0.542,0.086,1.089,0.055,1.636l-0.019,0.316
		c-0.012,0.184-0.029,0.346-0.05,0.509c-0.004,0.029-0.017,0.055-0.023,0.083c-0.066,0.517-0.163,1.02-0.321,1.488
		c-0.722,2.297-2.493,3.742-4.611,3.742h-0.001c-0.592,0-1.192-0.116-1.784-0.342l-10.716-4.099
		c-1.369-0.523-2.632-1.643-3.554-3.155c-0.105-0.173-0.174-0.363-0.203-0.562c-0.892-1.639-1.324-3.503-1.219-5.291L66.494,96.16z"
		/>
	<path style="fill:#FFFFFF;" d="M241.588,269.682l26.334-4.643l-35.949-12.746v4.433l10.595,3.752
		c2.895,1.025,3.482,2.681,3.575,3.576c0.082,0.804-0.094,2.343-2.201,3.622c-0.682,0.414-1.502,0.748-2.404,1.001
		c-0.057,0.017-0.114,0.032-0.171,0.047c-0.751,0.2-1.557,0.34-2.396,0.416c-0.068,0.007-0.136,0.013-0.204,0.018
		c-0.415,0.032-0.835,0.054-1.261,0.054c-1.633,0-3.189-0.245-4.498-0.709l-0.953-0.338l-8.048-2.848
		c-2.047,0.592-4.636,1.189-7.928,1.769l-3.89,0.686l23.645,8.386C236.058,273.021,238.502,270.226,241.588,269.682"/>
	<path style="fill:#FFFFFF;" d="M54.512,177.912c4.471,0,7.818,0.342,9.949,1.015l63.925,20.953c3.142,0.994,3.5,2.873,3.432,3.904
		c-0.007,0.103-0.015,0.216-0.03,0.337c0.001,0.018,0.006,0.035,0.006,0.053v8.357l3.723,1.32c6.387-1.046,13.29-1.647,19.166-1.647
		c4.475,0,7.826,0.342,9.957,1.016l63.925,20.953c3.141,0.994,3.5,2.873,3.432,3.903c-0.007,0.102-0.015,0.214-0.029,0.334
		c0,0.02,0.006,0.037,0.006,0.057v9.584l42.025,14.9v-16.817L44.975,164.931v13.43C48.326,178.07,51.585,177.912,54.512,177.912"/>
	<polygon style="fill:#FFFFFF;" points="44.975,160.686 275.793,242.525 294.217,220.165 44.975,131.732 	"/>
	<path style="fill:#FFFFFF;" d="M297.067,216.93c0.263-0.159,0.553-0.272,0.861-0.327l12.368-2.182l-265.321-94.19v7.257
		L297.067,216.93z"/>
	<path style="fill:#FFFFFF;" d="M323.708,176.226c0-0.561-0.307-0.793-0.774-0.708c-0.862,0.152-1.646,1.113-1.646,2.017v37.927
		c0,1.213-0.871,2.251-2.066,2.462l-19.517,3.443l-20.706,25.129v19.57c0,1.213-0.871,2.251-2.066,2.462l-34.477,6.078
		c-0.86,0.151-1.644,1.114-1.644,2.018c0,0.564,0.305,0.792,0.776,0.71l39.675-6.997v-22.888c0-0.577,0.199-1.135,0.564-1.581
		l17.482-21.403c0.379-0.465,0.912-0.777,1.502-0.881l22.898-4.038L323.708,176.226z"/>
	<path style="fill:#FFFFFF;" d="M231.369,261.549l10.635,3.768c0.133-0.066,0.263-0.133,0.382-0.205
		c0.652-0.397,0.777-0.709,0.773-0.75c-0.011-0.102-0.327-0.609-1.592-1.056l-9.612-3.404c-0.01,0.194-0.027,0.387-0.082,0.574
		C231.796,260.739,231.686,261.108,231.369,261.549"/>
	<path style="fill:#FFFFFF;" d="M115.032,206.17c0.549-0.097,1.073-0.194,1.578-0.291c0.214-0.042,0.412-0.083,0.619-0.124
		c0.281-0.057,0.566-0.112,0.833-0.168c0.228-0.049,0.441-0.096,0.659-0.144c0.222-0.048,0.448-0.097,0.66-0.145
		c0.223-0.052,0.433-0.102,0.646-0.152c0.187-0.045,0.377-0.09,0.555-0.134c0.209-0.052,0.407-0.104,0.604-0.154
		c0.162-0.043,0.326-0.086,0.481-0.127c0.19-0.051,0.37-0.101,0.549-0.152c0.145-0.041,0.29-0.082,0.428-0.122
		c0.168-0.05,0.329-0.099,0.487-0.146c0.13-0.04,0.257-0.08,0.38-0.119c0.148-0.046,0.291-0.093,0.428-0.139
		c0.118-0.039,0.231-0.078,0.342-0.116c0.071-0.025,0.14-0.049,0.209-0.074l-61.56-20.177c-0.898-0.285-3.226-0.775-8.418-0.775
		c-2.834,0-6.001,0.152-9.267,0.439v35.125L115.032,206.17z"/>
	<path style="fill:#FFFFFF;" d="M57.319,231.784c0.706-3.758,5.816-5.177,11.246-6.144c9.812-1.75,43.272-7.639,58.229-10.27v-7.029
		c-2.6,1.011-6.239,1.932-10.894,2.754l-70.655,12.457v11.897c0.109,0.045,0.22,0.084,0.321,0.143l5.986,3.472l5.59-0.985
		l0.029-5.506C57.173,232.299,57.233,232.037,57.319,231.784"/>
	<path style="fill:#FFFFFF;" d="M215.211,262.163c7.357-1.297,10.683-2.658,11.762-3.317v-16.212
		c-0.074,0.029-0.158,0.056-0.233,0.086c-0.105,0.039-0.216,0.079-0.326,0.119c-0.313,0.114-0.64,0.226-0.979,0.339
		c-0.122,0.04-0.242,0.08-0.369,0.12c-0.193,0.061-0.393,0.122-0.596,0.182c-0.15,0.045-0.303,0.091-0.46,0.136
		c-0.198,0.058-0.397,0.114-0.604,0.172c-0.225,0.062-0.462,0.123-0.699,0.186c-0.268,0.069-0.541,0.138-0.821,0.207
		c-0.262,0.065-0.528,0.129-0.804,0.194c-0.182,0.042-0.369,0.084-0.556,0.126c-0.275,0.062-0.556,0.124-0.845,0.185
		c-0.181,0.04-0.364,0.079-0.549,0.117c-0.327,0.068-0.666,0.135-1.01,0.203c-0.156,0.03-0.308,0.061-0.467,0.092
		c-0.508,0.096-1.03,0.193-1.575,0.29l-43.192,7.615l-43.192,7.615l-1.068,0.166c-0.713,0.109-1.411,0.212-2.094,0.308
		c-4.781,0.67-8.841,0.997-12.364,0.997h-0.001c-7.481,0-11.51-1.492-15.308-3.155c-0.004,0-0.008-0.003-0.011-0.004
		c-4.281-1.875-19.751-9.864-31.066-16.183c-2.155-1.204-4.064-2.358-5.648-3.497l-0.031,5.937l24.107,13.986
		c2.906,1.021,3.241,2.818,3.175,3.818c-0.006,0.103-0.015,0.216-0.03,0.337c0.001,0.018,0.006,0.035,0.006,0.053v5.626
		c5.405,3.458,10.198,6.478,11.501,7.048c3.419,1.497,6.78,2.735,13.305,2.735c3.769,0,8.248-0.407,13.693-1.245l1.014-0.157
		L215.211,262.163z"/>
	<path style="fill:#FFFFFF;" d="M154.683,217.204c-5.938,0-13.3,0.674-19.694,1.801c-0.529,0.093-52.851,9.294-65.546,11.557
		c-5.028,0.897-6.627,1.788-7.105,2.166c0.364,0.612,1.848,2.282,7.885,5.654c12.088,6.752,26.923,14.344,30.643,15.972
		c3.419,1.496,6.779,2.735,13.304,2.735c2.355,0,4.988-0.159,7.961-0.484c1.784-0.194,3.689-0.447,5.731-0.761l1.012-0.158
		l86.338-15.222c4.56-0.805,7.572-1.635,9.459-2.306l-61.562-20.179C162.209,217.695,159.88,217.204,154.683,217.204"/>
	<path style="fill:#FFFFFF;" d="M74.233,265.075c0.194-0.038,0.376-0.075,0.564-0.112c0.332-0.067,0.661-0.134,0.973-0.2
		c0.205-0.044,0.402-0.086,0.598-0.13c0.275-0.061,0.544-0.121,0.804-0.181c0.191-0.044,0.379-0.089,0.562-0.133
		c0.248-0.059,0.485-0.119,0.718-0.178c0.164-0.042,0.331-0.083,0.488-0.125c0.251-0.065,0.487-0.131,0.72-0.196
		c0.116-0.032,0.241-0.065,0.352-0.097c0.326-0.093,0.63-0.185,0.917-0.275c0.11-0.034,0.206-0.067,0.31-0.101
		c0.18-0.058,0.357-0.116,0.521-0.171c0.111-0.039,0.212-0.075,0.316-0.112c0.139-0.05,0.274-0.098,0.401-0.146
		c0.047-0.018,0.091-0.035,0.136-0.053l-37.369-21.681v29.576l27.308-5.374C73.14,265.283,73.696,265.178,74.233,265.075"/>
	<path style="fill:#FFFFFF;" d="M84.363,267.547c-2.6,1.013-6.239,1.933-10.894,2.754l-28.225,5.555v16.605l27.308-5.374
		c7.4-1.306,10.731-2.669,11.811-3.329V267.547z"/>
	<path style="fill:#FFFFFF;" d="M208.146,154.098l10.719,4.101c0.248,0.095,0.488,0.143,0.714,0.143c0.725,0,1.326-0.56,1.669-1.45
		l-9.375-3.587c-2.873-1.099-4.997-4.659-5.025-8.282c-0.963,0.138-1.682,1.262-1.773,2.845l-0.019,0.323
		C204.911,150.696,206.326,153.403,208.146,154.098"/>
	<path style="fill:#FFFFFF;" d="M262.911,174.662l10.719,4.101c0.249,0.095,0.489,0.144,0.714,0.144c0.726,0,1.327-0.561,1.67-1.451
		l-9.374-3.586c-2.875-1.099-4.999-4.66-5.026-8.282c-0.963,0.138-1.682,1.261-1.774,2.844l-0.018,0.32
		C259.676,171.261,261.091,173.967,262.911,174.662"/>
	<path style="fill:#FFFFFF;" d="M126.68,123.176l10.718,4.1c0.249,0.095,0.489,0.144,0.714,0.144c0.725,0,1.326-0.56,1.67-1.45
		l-9.374-3.587c-2.874-1.099-4.998-4.66-5.026-8.283c-0.963,0.137-1.682,1.262-1.774,2.847l-0.018,0.317
		C123.444,119.774,124.859,122.48,126.68,123.176"/>
	<path style="fill:#FFFFFF;" d="M153.932,133.6l10.717,4.1c0.249,0.095,0.489,0.143,0.714,0.143c0.726,0,1.327-0.56,1.671-1.451
		l-9.374-3.585c-2.874-1.099-4.998-4.66-5.026-8.283c-0.963,0.137-1.682,1.262-1.774,2.847l-0.019,0.32
		C150.696,130.197,152.111,132.905,153.932,133.6"/>
	<path style="fill:#FFFFFF;" d="M235.165,164.363l10.719,4.101c0.218,0.083,0.433,0.128,0.656,0.134
		c0.085,0.003,0.17,0.013,0.253,0.03c0.869,0.181,1.578-0.333,1.979-1.278l-9.879-3.78c-2.872-1.097-4.996-4.655-5.026-8.277
		c-0.976,0.132-1.681,1.232-1.773,2.841l-0.019,0.321C231.929,160.961,233.344,163.668,235.165,164.363"/>
	<path style="fill:#FFFFFF;" d="M180.951,143.866l10.718,4.099c0.249,0.095,0.489,0.143,0.714,0.143c0.725,0,1.326-0.56,1.67-1.45
		l-9.374-3.585c-2.873-1.102-4.997-4.662-5.025-8.283c-0.963,0.137-1.683,1.261-1.775,2.846l-0.019,0.321
		C177.715,140.463,179.13,143.171,180.951,143.866"/>
	<path style="fill:#FFFFFF;" d="M289.931,184.928l10.718,4.099c0.248,0.095,0.489,0.143,0.713,0.143c0.726,0,1.327-0.56,1.671-1.45
		l-9.374-3.585c-2.873-1.099-4.998-4.66-5.026-8.284c-0.963,0.139-1.682,1.262-1.775,2.847l-0.019,0.321
		C286.694,181.523,288.11,184.231,289.931,184.928"/>
	<path style="fill:#FFFFFF;" d="M70.652,101.071c0.544,0.791,1.199,1.359,1.87,1.615l10.718,4.1c1.038,0.399,1.93-0.118,2.385-1.307
		l-9.376-3.586c-2.903-1.112-5.039-4.738-5.024-8.397c-0.944,0.161-1.646,1.276-1.736,2.84l-0.019,0.322
		c-0.076,1.3,0.287,2.73,0.997,3.922C70.557,100.732,70.62,100.898,70.652,101.071"/>
	<path style="fill:#FFFFFF;" d="M99.05,112.552c0.271,0.183,0.476,0.294,0.667,0.367l10.719,4.101
		c0.248,0.095,0.488,0.143,0.712,0.143c0.726,0,1.328-0.56,1.673-1.45l-9.375-3.586c-0.417-0.161-0.835-0.384-1.245-0.665
		c-2.325-1.471-3.88-4.588-3.902-7.71c-0.971,0.128-1.699,1.256-1.791,2.849l-0.019,0.318
		C96.361,109.123,97.462,111.545,99.05,112.552"/>
	<path style="fill:#FFFFFF;" d="M45.367,92.333l10.716,4.099c0.248,0.095,0.488,0.143,0.713,0.143c0.726,0,1.328-0.56,1.672-1.451
		l-9.375-3.586c-1.88-0.719-3.439-2.492-4.302-4.647v5.134C44.986,92.159,45.178,92.262,45.367,92.333"/>
</g>
</svg>
