<?xml version="1.0" encoding="iso-8859-1"?>
<!-- Generator: Adobe Illustrator 25.4.1, SVG Export Plug-In . SVG Version: 6.00 Build 0)  -->
<svg version="1.1" id="Calque_1" xmlns="http://www.w3.org/2000/svg" xmlns:xlink="http://www.w3.org/1999/xlink" x="0px" y="0px"
	 viewBox="0 0 368.5 368.5" style="enable-background:new 0 0 368.5 368.5;" xml:space="preserve">
<g>
	<path style="fill:#FFFFFF;" d="M100.918,134.784c-2.235,0.768-4.384,1.91-6.427,3.375c10.166,10.234,16.393,28.613,16.393,48.85
		c0,19.845-6.264,38.406-16.179,48.619c2.062,1.449,4.23,2.572,6.483,3.314c10.414-11.775,16.696-30.978,16.696-51.933
		C117.884,165.952,111.481,146.544,100.918,134.784"/>
	<path style="fill:#FFFFFF;" d="M211.928,184.165h24.013c0.125-5.818,0.665-11.52,1.592-17.02h-25.605
		c-4.692,0-8.51,3.817-8.51,8.51C203.418,180.347,207.236,184.165,211.928,184.165"/>
	<path style="fill:#FFFFFF;" d="M166.725,253.525l-19.935-15.653l19.935-15.06V96.087c0-11.978-10.77-21.723-24.007-21.723H70.735
		c-13.239,0-24.009,9.745-24.009,21.723v176.326c0,11.977,10.77,21.723,24.009,21.723h71.983c13.237,0,24.007-9.746,24.007-21.723
		V253.525z M107.743,247.009c-21.971,0-39.846-27.004-39.846-60.193c0-33.192,17.875-60.194,39.846-60.194
		s39.846,27.002,39.846,60.194C147.589,220.005,129.714,247.009,107.743,247.009"/>
	<path style="fill:#FFFFFF;" d="M282.337,119.448c-21.745,0-39.436,30.221-39.436,67.367c0,37.145,17.691,67.365,39.436,67.365
		c21.746,0,39.437-30.22,39.437-67.365C321.774,149.669,304.083,119.448,282.337,119.448"/>
	<path style="fill:#FFFFFF;" d="M92.183,165.489c-3.587,0-6.398,4.85-6.398,11.043c0,6.191,2.811,11.043,6.398,11.043
		c3.587,0,6.398-4.852,6.398-11.043C98.581,170.339,95.77,165.489,92.183,165.489"/>
	<path style="fill:#FFFFFF;" d="M228.294,230.005h-44.986v-10.949L158.26,237.98l25.048,19.666v-11.157h44.986
		c1.011,0,1.833-0.822,1.833-1.832v-12.822C230.127,230.825,229.305,230.005,228.294,230.005"/>
</g>
</svg>
