<?xml version="1.0" encoding="iso-8859-1"?>
<!-- Generator: Adobe Illustrator 25.4.1, SVG Export Plug-In . SVG Version: 6.00 Build 0)  -->
<svg version="1.1" id="Calque_1" xmlns="http://www.w3.org/2000/svg" xmlns:xlink="http://www.w3.org/1999/xlink" x="0px" y="0px"
	 viewBox="0 0 368.5 368.5" style="enable-background:new 0 0 368.5 368.5;" xml:space="preserve">
<g>
	<path style="fill:#FFFFFF;" d="M63.159,227.593c0.778,0,1.537,0.075,2.288,0.179c-0.083-0.613-0.14-1.233-0.14-1.868
		c0-2.152,0.501-4.186,1.369-6.012l-0.002-108.43c-0.911,0.218-1.858,0.346-2.836,0.346c-1.105,0-2.173-0.161-3.193-0.438v116.437
		C61.466,227.679,62.303,227.593,63.159,227.593"/>
	<path style="fill:#FFFFFF;" d="M53.13,51.224c1.404,2.627,3.387,7.124,4.964,13.661c1.714-0.915,3.668-1.439,5.744-1.439
		c0.055,0,0.106,0.008,0.159,0.008c-1.911-7.959-4.416-13.2-6.025-15.998L53.13,51.224z"/>
	<path style="fill:#FFFFFF;" d="M84.944,238.823l16.968,26.582c0.643,1.008,2.088,1.334,3.109,0.682
		c1.041-0.666,1.349-2.06,0.681-3.107l-16.978-26.588C87.607,237.389,86.336,238.22,84.944,238.823"/>
	<path style="fill:#FFFFFF;" d="M209.016,136.484l-0.002-20.214c-0.039-21.948-17.805-39.814-39.6-39.822
		c-21.832,0.008-39.598,17.872-39.598,39.822l-0.125,169.908c-0.006,17.495-14.162,31.755-31.557,31.784
		c-15.297-0.025-28.073-11.043-30.945-25.588c-1.293,0.329-2.638,0.524-4.03,0.524c-1.414,0-2.781-0.2-4.088-0.54
		c2.996,19.02,19.356,33.64,39.059,33.65c21.795-0.012,39.563-17.88,39.602-39.834l0.126-169.902
		c0.035-17.495,14.189-31.749,31.552-31.783c17.407,0.034,31.557,14.29,31.557,31.781v20.214H209.016z"/>
	<rect x="239.972" y="99.855" style="fill:#FFFFFF;" width="21.502" height="5.685"/>
	<rect x="227.329" y="48.829" style="fill:#FFFFFF;" width="46.272" height="16.087"/>
	<path style="fill:#FFFFFF;" d="M315.669,196.602c0-27.641-17.504-51.266-42.009-60.383c-1.294,0.871-2.85,1.382-4.523,1.382
		h-36.489c-1.545,0-2.977-0.457-4.208-1.21c-2.519,0.959-4.962,2.066-7.321,3.321c0.933,1.282,1.499,2.845,1.499,4.55v5.797
		c0.145-0.155,0.286-0.312,0.438-0.464c4.942-4.94,11.098-5.728,11.358-5.759c1.665-0.216,3.157,0.982,3.353,2.635
		c0.199,1.65-0.974,3.146-2.619,3.352c-0.12,0.018-4.436,0.648-7.827,4.037c-3.641,3.643-5.42,8.959-5.438,9.012
		c-0.3,0.936-1.021,1.618-1.887,1.918c-1.375,1.228-3.167,1.997-5.151,1.997h-20.64c-4.68,8.921-7.344,19.06-7.344,29.815v128.82
		h128.808V196.602z"/>
	<path style="fill:#FFFFFF;" d="M269.138,131.568c1.151,0,2.085-0.937,2.085-2.089v-15.82c0-1.151-0.934-2.087-2.085-2.087h-36.489
		c-1.151,0-2.088,0.936-2.088,2.087v15.82c0,1.152,0.937,2.089,2.088,2.089H269.138z"/>
	<path style="fill:#FFFFFF;" d="M192.202,159.013c0,0.96,0.781,1.742,1.742,1.742h20.901c0.96,0,1.74-0.782,1.74-1.742v-14.751
		c0-0.963-0.78-1.746-1.74-1.746h-20.901c-0.961,0-1.742,0.783-1.742,1.746V159.013z"/>
	<path style="fill:#FFFFFF;" d="M231.999,93.822h36.937c12.546-0.008,22.759-10.221,22.767-22.767v-22.48
		c0-3.327-2.706-6.033-6.032-6.033c-3.327,0-6.033,2.706-6.033,6.033l-0.004,22.482c-0.006,5.889-4.801,10.686-10.69,10.698h-36.947
		c-5.895-0.012-10.692-4.809-10.7-10.694V48.575c0-3.327-2.706-6.033-6.033-6.033c-3.326,0-6.032,2.706-6.032,6.033v22.482
		C209.238,83.601,219.451,93.814,231.999,93.822"/>
	<path style="fill:#FFFFFF;" d="M63.159,286.865c5.675,0,10.294-4.621,10.294-10.3v-32.644c0-2.7-1.067-5.139-2.773-6.977
		c-0.477-0.379-0.933-0.783-1.359-1.219c-1.724-1.3-3.843-2.1-6.162-2.1c-5.679,0-10.298,4.619-10.298,10.296v32.644
		C52.861,282.244,57.48,286.865,63.159,286.865"/>
	<path style="fill:#FFFFFF;" d="M71.339,225.904c0,4.432,3.607,8.039,8.039,8.039c4.43,0,8.036-3.607,8.036-8.039
		c0-4.432-3.606-8.037-8.036-8.037C74.946,217.867,71.339,221.472,71.339,225.904"/>
	<path style="fill:#FFFFFF;" d="M63.838,69.479c-3.409,0-6.182,2.771-6.182,6.176v23.941c0,3.407,2.773,6.18,6.182,6.18
		c3.407,0,6.178-2.773,6.178-6.18V75.655C70.016,72.25,67.245,69.479,63.838,69.479"/>
</g>
</svg>
