<?xml version="1.0" encoding="iso-8859-1"?>
<!-- Generator: Adobe Illustrator 25.4.1, SVG Export Plug-In . SVG Version: 6.00 Build 0)  -->
<svg version="1.1" id="Calque_1" xmlns="http://www.w3.org/2000/svg" xmlns:xlink="http://www.w3.org/1999/xlink" x="0px" y="0px"
	 viewBox="0 0 368.5 368.5" style="enable-background:new 0 0 368.5 368.5;" xml:space="preserve">
<g>
	<path style="fill:#FFFFFF;" d="M252.59,105.02c0,1.381-1.119,2.5-2.5,2.5h-91.468h-0.001c-0.219,0-0.427-0.037-0.629-0.09
		c-0.05-0.013-0.098-0.027-0.146-0.045c-0.181-0.058-0.353-0.135-0.513-0.23c-0.02-0.012-0.04-0.02-0.059-0.031
		c-0.176-0.114-0.333-0.252-0.475-0.405c-0.033-0.035-0.062-0.072-0.093-0.109c-0.127-0.154-0.24-0.32-0.328-0.5
		c-0.006-0.014-0.016-0.022-0.022-0.035c-0.001-0.002-0.01-0.02-0.015-0.032c-0.001-0.003-0.003-0.005-0.004-0.009
		c-0.374-0.795-7.528-15.895-17.113-28.287c-6.201-8.016-12.028-13.373-15.485-16.241h-11.655
		c7.463,5.116,17.233,13.567,26.205,26.846c17.28,25.578,17.895,51.609,17.913,52.705v174.236h110.234V141.114
		c-0.003-0.176-0.568-22.002-13.838-44.309L252.59,105.02z M235.518,219.436c-0.628,1.68-1.426,3.328-2.364,4.889
		c-0.241,0.392-0.474,0.748-0.714,1.113c-5.024,7.504-13.099,11.967-21.62,11.967c-0.302,0-0.605-0.006-0.909-0.018
		c-8.879-0.334-16.939-5.404-21.565-13.564c-0.227-0.416-0.424-0.785-0.62-1.164c-0.672-1.323-1.196-2.567-1.612-3.828
		c-1.212-3.518-1.763-7.26-1.623-11.077c0.229-6.173,2.704-12.89,6.792-18.431c0.941-1.278,2.055-2.744,3.261-4.332
		c4.93-6.49,11.682-15.381,13.701-20.791c0.604-1.662,1-3.44,1.004-3.457c0.367-1.661,1.863-2.805,3.558-2.745
		c0.027,0,0.053,0,0.08,0.003c1.732,0.029,3.181,1.322,3.409,3.039c0.002,0.015,0.243,1.789,0.734,3.476
		c1.617,5.582,7.716,14.99,12.168,21.859c1.062,1.637,2.042,3.151,2.872,4.469c3.714,5.928,5.627,12.637,5.39,18.897
		C237.343,213.079,236.689,216.344,235.518,219.436"/>
	<path style="fill:#FFFFFF;" d="M149.202,311.069V141.114c-0.004-0.188-0.645-25.059-16.713-48.844
		c-11.156-16.512-23.763-25.031-30.426-28.695v206.142L149.202,311.069z M134.438,270.563c-0.019,0.014-0.039,0.027-0.058,0.041
		c-0.241,0.182-0.496,0.35-0.763,0.502c-0.019,0.012-0.036,0.025-0.057,0.037c-0.009,0.006-0.021,0.008-0.031,0.014
		c-0.456,0.254-0.945,0.465-1.467,0.627c-0.04,0.015-0.076,0.037-0.117,0.05c-0.029,0.008-0.062,0.01-0.092,0.02
		c-0.351,0.1-0.718,0.174-1.096,0.232c-0.09,0.014-0.181,0.024-0.273,0.036c-0.403,0.05-0.815,0.084-1.244,0.084
		c-1.913,0-4.002-0.489-6.21-1.452c-0.013-0.005-0.026-0.013-0.04-0.019c-0.421-0.186-0.835-0.385-1.243-0.594
		c-0.09-0.047-0.177-0.098-0.267-0.144c-0.346-0.182-0.688-0.373-1.024-0.573c-0.058-0.033-0.114-0.068-0.171-0.103
		c-4.555-2.75-8.081-6.908-9.414-11.18c-0.016-0.049-0.034-0.099-0.05-0.148c-0.078-0.262-0.143-0.524-0.205-0.787
		c-0.032-0.135-0.071-0.27-0.098-0.403c-0.001-0.004-0.002-0.008-0.003-0.011c-0.001-0.006,0-0.012-0.002-0.018
		c-0.151-0.74-0.234-1.477-0.234-2.199V112.604c0-5.678,4.159-9.961,9.675-9.961c1.454,0,2.985,0.283,4.548,0.842
		c8.566,3.381,12.877,9.232,12.877,17.414v143.152c0,0.366-0.024,0.719-0.06,1.065c-0.009,0.08-0.02,0.158-0.031,0.238
		c-0.037,0.283-0.085,0.561-0.146,0.83c-0.013,0.061-0.025,0.123-0.041,0.184c-0.166,0.681-0.408,1.314-0.719,1.894
		c-0.003,0.004-0.006,0.01-0.008,0.014c-0.154,0.285-0.326,0.555-0.512,0.812c-0.018,0.026-0.035,0.049-0.053,0.075
		C135.417,269.69,134.959,270.161,134.438,270.563"/>
	<path style="fill:#FFFFFF;" d="M143.179,74.688c5.292,6.842,9.79,14.32,12.933,20.014c-0.001-2.465-0.003-4.41-0.003-4.463
		c0-14.697,14.53-26.656,32.391-26.656h31.632c-15.613-6.881-36.18-10.375-61.322-10.375c-19.757,0-28.713,2.359-32.493,3.937
		C129.92,60.065,136.321,65.823,143.179,74.688"/>
	<path style="fill:#FFFFFF;" d="M220.212,68.582H188.5c-15.103,0-27.391,9.715-27.391,21.656c0,0.08,0.006,8.096,0.01,12.281h86.474
		l0.011-12.281C247.604,78.297,235.316,68.582,220.212,68.582 M176.756,81.5c0-3.516,2.934-6.377,6.542-6.377h22.224
		c3.607,0,6.542,2.861,6.542,6.377v9.236c0,3.518-2.935,6.379-6.542,6.379h-22.224c-3.608,0-6.542-2.861-6.542-6.379V81.5z
		 M216.572,91.527v-9.984c0-3.245,2.714-5.885,6.051-5.885c3.337,0,6.052,2.64,6.052,5.885v9.984c0,3.248-2.715,5.889-6.052,5.889
		C219.286,97.416,216.572,94.775,216.572,91.527"/>
	<path style="fill:#FFFFFF;" d="M225.676,84.762v-3.219c0-1.59-1.369-2.884-3.052-2.884c-1.682,0-3.051,1.294-3.051,2.884v3.219
		H225.676z"/>
	<path style="fill:#FFFFFF;" d="M222.623,94.416c1.683,0,3.052-1.295,3.052-2.889v-3.765h-6.103v3.765
		C219.572,93.121,220.941,94.416,222.623,94.416"/>
	<path style="fill:#FFFFFF;" d="M118.145,177.019c3.126,0,5.669,2.545,5.669,5.67c0,3.127-2.543,5.67-5.669,5.67
		c-1.494,0-2.852-0.586-3.866-1.533v6.197c2.355,0.5,4.128,2.592,4.128,5.094s-1.773,4.594-4.128,5.096v18.351
		c2.12,0.899,3.573,2.957,3.573,5.385c0,2.428-1.453,4.488-3.573,5.387v5.859c1.319-0.695,2.796-1.09,4.325-1.09
		c4.08,0,7.639,2.702,8.872,6.448c2.076-0.147,4.101,0.293,5.904,1.191v-11.957c-0.956,0.617-2.091,0.979-3.31,0.979
		c-3.379,0-6.128-2.749-6.128-6.127c0-3.379,2.749-6.129,6.128-6.129c1.219,0,2.354,0.363,3.31,0.978v-17.926
		c-0.622,0.196-1.27,0.309-1.934,0.309c-3.632,0-6.587-2.953-6.587-6.586c0-3.633,2.955-6.588,6.587-6.588
		c0.664,0,1.312,0.115,1.934,0.309v-22.418c-0.328,2.56-2.497,4.553-5.145,4.553c-2.873,0-5.21-2.338-5.21-5.211
		s2.337-5.211,5.21-5.211c2.648,0,4.817,1.994,5.145,4.554v-47.375c0-6.554-3.268-10.9-10.285-13.67
		c-1.068-0.381-2.146-0.586-3.141-0.586c-3.899,0-5.675,3.09-5.675,5.961v2.782c0.73-0.391,1.551-0.633,2.435-0.633
		c2.873,0,5.21,2.338,5.21,5.211s-2.337,5.211-5.21,5.211c-0.884,0-1.705-0.242-2.435-0.631v54.012
		C115.293,177.605,116.651,177.019,118.145,177.019 M125.649,212.273c0,3-2.44,5.44-5.44,5.44c-2.999,0-5.44-2.44-5.44-5.44
		c0-2.998,2.441-5.439,5.44-5.439C123.209,206.834,125.649,209.275,125.649,212.273 M124.107,140.328
		c2.115,0,3.835,1.721,3.835,3.834c0,2.115-1.72,3.836-3.835,3.836c-2.114,0-3.834-1.721-3.834-3.836
		C120.273,142.049,121.993,140.328,124.107,140.328"/>
	<path style="fill:#FFFFFF;" d="M226.141,194.566c-0.812-1.291-1.774-2.775-2.817-4.385c-3.751-5.787-8.199-12.646-10.961-18.49
		c-3.182,5.6-8.097,12.072-12.245,17.533c-1.183,1.559-2.276,2.998-3.202,4.252c-3.273,4.438-5.252,9.735-5.43,14.535
		c-0.108,2.95,0.317,5.838,1.261,8.582c0.319,0.965,0.709,1.891,1.207,2.869c0.16,0.309,0.331,0.631,0.508,0.956
		c3.394,5.984,9.276,9.73,15.708,9.974c0.214,0.008,0.432,0.012,0.65,0.012c6.18,0,12.081-3.303,15.785-8.834
		c0.184-0.279,0.376-0.57,0.564-0.879c0.705-1.17,1.315-2.43,1.798-3.723c0.905-2.388,1.407-4.902,1.498-7.484
		C230.647,204.676,229.071,199.243,226.141,194.566"/>
	<path style="fill:#FFFFFF;" d="M114.28,198.658c0.081-0.162,0.127-0.346,0.127-0.541c0-0.193-0.046-0.377-0.127-0.541V198.658z"/>
	<path style="fill:#FFFFFF;" d="M119.814,182.689c0-0.92-0.748-1.67-1.669-1.67c-0.92,0-1.669,0.75-1.669,1.67
		c0,0.922,0.749,1.67,1.669,1.67C119.066,184.36,119.814,183.612,119.814,182.689"/>
	<path style="fill:#FFFFFF;" d="M133.379,264.051v-14.516c-1.834-1.685-4.341-2.431-6.984-1.773
		c-0.568,0.143-1.171,0.027-1.648-0.315c-0.476-0.341-0.779-0.873-0.828-1.457c-0.232-2.74-2.567-4.884-5.315-4.884
		c-1.711,0-3.326,0.838-4.324,2.218v6.223c0.682,0.955,1.642,1.658,2.746,1.998c0.871,0.268,1.45,1.088,1.41,1.998
		s-0.689,1.678-1.579,1.869c-0.88,0.188-1.663,0.672-2.229,1.364c1.175,3.988,5.248,8.226,10.006,10.312
		c1.84,0.805,3.517,1.168,4.946,1.109c0.158-0.41,0.45-0.763,0.839-0.996c0.579-0.347,1.292-0.377,1.896-0.086
		C133.176,266.246,133.379,265.016,133.379,264.051"/>
	<path style="fill:#FFFFFF;" d="M120.209,210.834c-0.794,0-1.44,0.646-1.44,1.439c0,0.795,0.646,1.44,1.44,1.44
		c0.794,0,1.44-0.645,1.44-1.44C121.649,211.48,121.003,210.834,120.209,210.834"/>
	<path style="fill:#FFFFFF;" d="M124.273,144.162c0-0.09-0.075-0.164-0.166-0.164c-0.091,0-0.165,0.074-0.165,0.164
		C123.942,144.346,124.273,144.346,124.273,144.162"/>
	<path style="fill:#FFFFFF;" d="M127.025,168.93c0,0.668,0.543,1.211,1.21,1.211c0.667,0,1.211-0.543,1.211-1.211
		c0-0.668-0.544-1.211-1.211-1.211C127.568,167.719,127.025,168.262,127.025,168.93"/>
	<path style="fill:#FFFFFF;" d="M130.07,225.51c-1.173,0-2.128,0.955-2.128,2.129c0,1.174,0.955,2.127,2.128,2.127
		c1.173,0,2.128-0.953,2.128-2.127C132.198,226.465,131.243,225.51,130.07,225.51"/>
	<path style="fill:#FFFFFF;" d="M116.714,121.174c0.667,0,1.21-0.543,1.21-1.211s-0.543-1.211-1.21-1.211
		c-0.667,0-1.211,0.543-1.211,1.211S116.047,121.174,116.714,121.174"/>
	<path style="fill:#FFFFFF;" d="M128.859,198.285c0,1.426,1.161,2.586,2.587,2.586c0.752,0,1.446-0.326,1.933-0.891v-3.39
		c-0.487-0.567-1.181-0.893-1.933-0.893C130.02,195.697,128.859,196.859,128.859,198.285"/>
</g>
</svg>
