<?xml version="1.0" encoding="iso-8859-1"?>
<!-- Generator: Adobe Illustrator 25.4.1, SVG Export Plug-In . SVG Version: 6.00 Build 0)  -->
<svg version="1.1" id="Calque_1" xmlns="http://www.w3.org/2000/svg" xmlns:xlink="http://www.w3.org/1999/xlink" x="0px" y="0px"
	 viewBox="0 0 368.5 368.5" style="enable-background:new 0 0 368.5 368.5;" xml:space="preserve">
<g>
	<path style="fill:#FFFFFF;" d="M232.599,214.474c-0.217-0.121-0.42-0.25-0.605-0.391l-14.727,4.62v21.15
		c0,4.226,3.437,7.666,7.666,7.666c4.227,0,7.666-3.44,7.666-7.666V214.474z"/>
	<polygon style="fill:#FFFFFF;" points="220.948,200.077 220.948,197.501 145.635,172.395 145.635,176.612 218.425,200.876 	"/>
	<polygon style="fill:#FFFFFF;" points="46.331,69.032 89.095,86.284 131.894,102.288 226.061,72.753 137.304,44.962 	"/>
	<path style="fill:#FFFFFF;" d="M137.944,243.581l-6.91,2.168c-0.186,0.076-0.375,0.127-0.572,0.158
		c-0.086,0.018-0.17,0.029-0.256,0.037c-0.041,0.002-0.082,0.02-0.123,0.02c-0.018,0-0.035-0.006-0.053-0.006
		c-0.022,0.002-0.043,0.006-0.065,0.006c-0.46,0-0.912-0.135-1.308-0.379l-6.043-2.44v25.456c0,4.226,3.437,7.666,7.666,7.666
		c4.226,0,7.664-3.44,7.664-7.666V243.581z"/>
	<path style="fill:#FFFFFF;" d="M52.407,214.823l-15.334-6.186v23.502c0,4.229,3.439,7.668,7.666,7.668
		c4.229,0,7.668-3.439,7.668-7.668V214.823z"/>
	<polygon style="fill:#FFFFFF;" points="127.466,239.712 127.466,107.155 36.954,70.64 36.954,203.198 	"/>
	<path style="fill:#FFFFFF;" d="M243.962,77.354l5.885,2.002c2.152,0.646,3.537,2.35,3.529,4.338v124.92
		c0,0.881-0.26,1.693-0.75,2.349c-0.408,0.559-1.01,0.953-1.684,1.162l83.311,28.112v-132.67l-90.291-30.469V77.354z"/>
	<path style="fill:#FFFFFF;" d="M222.622,211.78c-0.359-0.221-0.687-0.49-0.937-0.836c-0.475-0.633-0.735-1.443-0.737-2.328v-3.295
		l-77.058,24.381c-0.248,0.078-0.502,0.117-0.754,0.117c-0.526,0-1.043-0.166-1.479-0.484c-0.642-0.471-1.021-1.219-1.021-2.016
		V114.001c0-1.09,0.705-2.055,1.746-2.385l78.566-24.859v-3.069c-0.006-1.982,1.369-3.681,3.504-4.324l6.367-2.162v-0.701
		l-98.353,30.849v132.709L222.622,211.78z"/>
	<path style="fill:#FFFFFF;" d="M237.39,73.761c-1.51,0-2.635,0.307-3.221,0.586c0.016,0.008,0.035,0.016,0.053,0.023
		c0.115,0.053,0.254,0.106,0.406,0.159c0.045,0.015,0.09,0.031,0.139,0.047c0.193,0.058,0.406,0.117,0.646,0.168
		c0.026,0.005,0.055,0.007,0.081,0.013c0.218,0.043,0.46,0.08,0.716,0.109c0.075,0.008,0.151,0.016,0.229,0.024
		c0.299,0.027,0.611,0.047,0.951,0.047c0.342,0,0.654-0.02,0.953-0.047c0.078-0.008,0.152-0.016,0.227-0.024
		c0.257-0.031,0.502-0.066,0.724-0.111c0.022-0.004,0.049-0.008,0.071-0.011c0.244-0.051,0.459-0.11,0.654-0.171
		c0.045-0.013,0.088-0.029,0.131-0.042c0.154-0.053,0.295-0.108,0.412-0.161c0.016-0.007,0.035-0.015,0.051-0.023
		C240.025,74.068,238.902,73.761,237.39,73.761"/>
	<path style="fill:#FFFFFF;" d="M240.962,211.714v-2.238l-0.674-0.229c-0.881-0.25-1.486-1.047-1.486-1.969V78.458
		c0-0.211,0.043-0.414,0.107-0.611c-1.16,0.136-2.375,0.117-3.515-0.063c0.076,0.215,0.129,0.442,0.129,0.674v128.82
		c0,0.922-0.608,1.721-1.489,1.969l-0.215,0.072v2.395c0.372,0.307,1.663,0.797,3.571,0.797S240.591,212.021,240.962,211.714"/>
	<path style="fill:#FFFFFF;" d="M250.212,209.182c0.145-0.193,0.164-0.439,0.164-0.568V83.688c0.002-0.767-0.716-1.256-1.392-1.459
		l-7.182-2.441v126.804l7.934,2.686c0.062,0.012,0.121,0.018,0.179,0.018h0.016C250.124,209.296,250.205,209.194,250.212,209.182
		 M245.726,205.424c-1.773,0-3.215-1.734-3.215-3.865c0-2.133,1.442-3.867,3.215-3.867c1.771,0,3.213,1.734,3.213,3.867
		C248.939,203.69,247.497,205.424,245.726,205.424 M245.726,175.419c-1.773,0-3.215-1.735-3.215-3.868
		c0-2.132,1.442-3.867,3.215-3.867c1.771,0,3.213,1.735,3.213,3.867C248.939,173.684,247.497,175.419,245.726,175.419
		 M245.726,145.969c-1.773,0-3.215-1.734-3.215-3.865c0-2.133,1.442-3.867,3.215-3.867c1.771,0,3.213,1.734,3.213,3.867
		C248.939,144.235,247.497,145.969,245.726,145.969 M245.726,117.725c-1.773,0-3.215-1.734-3.215-3.867
		c0-2.131,1.442-3.865,3.215-3.865c1.771,0,3.213,1.734,3.213,3.865C248.939,115.991,247.497,117.725,245.726,117.725
		 M245.726,91.606c-1.773,0-3.215-1.734-3.215-3.865c0-2.131,1.442-3.865,3.215-3.865c1.771,0,3.213,1.734,3.213,3.865
		C248.939,89.872,247.497,91.606,245.726,91.606"/>
	<path style="fill:#FFFFFF;" d="M224.386,209.296h0.015c0.065,0,0.125-0.006,0.188-0.017l7.934-2.686V79.789l-7.122,2.423
		c-0.748,0.225-1.455,0.709-1.453,1.471v124.932c0,0.158,0.028,0.384,0.153,0.55C224.142,209.224,224.235,209.296,224.386,209.296
		 M228.386,117.726c-1.774,0-3.215-1.734-3.215-3.867c0-2.131,1.441-3.865,3.215-3.865c1.771,0,3.215,1.734,3.215,3.865
		C231.601,115.992,230.157,117.726,228.386,117.726 M231.601,142.105c0,2.131-1.444,3.865-3.215,3.865
		c-1.774,0-3.215-1.734-3.215-3.865c0-2.133,1.441-3.867,3.215-3.867C230.157,138.238,231.601,139.972,231.601,142.105
		 M228.386,167.685c1.771,0,3.215,1.734,3.215,3.867s-1.444,3.867-3.215,3.867c-1.774,0-3.215-1.734-3.215-3.867
		S226.612,167.685,228.386,167.685 M228.386,83.876c1.771,0,3.215,1.735,3.215,3.866c0,2.13-1.444,3.865-3.215,3.865
		c-1.774,0-3.215-1.735-3.215-3.865C225.171,85.611,226.612,83.876,228.386,83.876 M225.171,201.56c0-2.133,1.441-3.867,3.215-3.867
		c1.771,0,3.215,1.734,3.215,3.867c0,2.131-1.444,3.865-3.215,3.865C226.612,205.425,225.171,203.691,225.171,201.56"/>
	<path style="fill:#FFFFFF;" d="M245.726,169.685c-0.648,0-1.215,0.871-1.215,1.867c0,0.994,0.567,1.867,1.215,1.867
		c0.646,0,1.213-0.873,1.213-1.867C246.939,170.556,246.372,169.685,245.726,169.685"/>
	<path style="fill:#FFFFFF;" d="M228.386,173.419c0.646,0,1.215-0.873,1.215-1.867c0-0.996-0.569-1.867-1.215-1.867
		c-0.648,0-1.215,0.871-1.215,1.867C227.171,172.546,227.738,173.419,228.386,173.419"/>
	<path style="fill:#FFFFFF;" d="M245.726,140.237c-0.648,0-1.215,0.871-1.215,1.867c0,0.992,0.567,1.865,1.215,1.865
		c0.646,0,1.213-0.873,1.213-1.865C246.939,141.108,246.372,140.237,245.726,140.237"/>
	<path style="fill:#FFFFFF;" d="M228.386,140.237c-0.648,0-1.215,0.871-1.215,1.867c0,0.992,0.567,1.865,1.215,1.865
		c0.646,0,1.215-0.873,1.215-1.865C229.601,141.108,229.032,140.237,228.386,140.237"/>
	<path style="fill:#FFFFFF;" d="M245.726,111.993c-0.648,0-1.215,0.871-1.215,1.865s0.567,1.867,1.215,1.867
		c0.646,0,1.213-0.873,1.213-1.867S246.372,111.993,245.726,111.993"/>
	<path style="fill:#FFFFFF;" d="M228.386,111.993c-0.648,0-1.215,0.871-1.215,1.865s0.567,1.867,1.215,1.867
		c0.646,0,1.215-0.873,1.215-1.867S229.032,111.993,228.386,111.993"/>
	<path style="fill:#FFFFFF;" d="M245.726,85.876c-0.648,0-1.215,0.871-1.215,1.865c0,0.992,0.567,1.865,1.215,1.865
		c0.646,0,1.213-0.873,1.213-1.865C246.939,86.747,246.372,85.876,245.726,85.876"/>
	<path style="fill:#FFFFFF;" d="M245.726,199.692c-0.648,0-1.215,0.871-1.215,1.867c0,0.992,0.567,1.865,1.215,1.865
		c0.646,0,1.213-0.873,1.213-1.865C246.939,200.563,246.372,199.692,245.726,199.692"/>
	<path style="fill:#FFFFFF;" d="M228.386,89.606c0.646,0,1.215-0.873,1.215-1.865c0-0.994-0.569-1.865-1.215-1.865
		c-0.648,0-1.215,0.871-1.215,1.865C227.171,88.733,227.738,89.606,228.386,89.606"/>
	<path style="fill:#FFFFFF;" d="M228.386,203.425c0.646,0,1.215-0.873,1.215-1.865c0-0.996-0.569-1.867-1.215-1.867
		c-0.648,0-1.215,0.871-1.215,1.867C227.171,202.552,227.738,203.425,228.386,203.425"/>
	<path style="fill:#FFFFFF;" d="M226.335,290.782c-3.311,0-6.236-0.832-8.283-2.174v1.606c0,1.83,3.541,3.879,8.283,3.879
		c4.74,0,8.283-2.049,8.283-3.879v-1.606C232.571,289.95,229.645,290.782,226.335,290.782"/>
	<path style="fill:#FFFFFF;" d="M226.335,287.782c4.74,0,8.283-2.049,8.283-3.879c0-1.832-3.543-3.881-8.283-3.881
		c-4.742,0-8.283,2.049-8.283,3.881C218.052,285.733,221.593,287.782,226.335,287.782"/>
	<path style="fill:#FFFFFF;" d="M44.739,280.966c-3.309,0-6.234-0.832-8.281-2.174v1.606c0,1.83,3.541,3.879,8.281,3.879
		s8.283-2.049,8.283-3.879v-1.606C50.975,280.134,48.05,280.966,44.739,280.966"/>
	<path style="fill:#FFFFFF;" d="M44.739,277.966c4.742,0,8.283-2.049,8.283-3.879c0-1.832-3.541-3.881-8.283-3.881
		c-4.738,0-8.281,2.049-8.281,3.881C36.458,275.917,40.001,277.966,44.739,277.966"/>
	<path style="fill:#FFFFFF;" d="M130.085,320.229c-3.311,0-6.236-0.834-8.283-2.174v1.602c0,1.832,3.543,3.881,8.283,3.881
		c4.738,0,8.281-2.049,8.281-3.881v-1.602C136.319,319.397,133.394,320.229,130.085,320.229"/>
	<path style="fill:#FFFFFF;" d="M130.085,317.229c4.738,0,8.281-2.049,8.281-3.881s-3.543-3.881-8.281-3.881
		c-4.74,0-8.283,2.049-8.283,3.881S125.345,317.229,130.085,317.229"/>
	<path style="fill:#FFFFFF;" d="M215.724,276.253c0,0.828,0.672,1.5,1.5,1.5c0.828,0,1.5-0.672,1.5-1.5v-2
		c0-0.828-0.672-1.5-1.5-1.5c-0.828,0-1.5,0.672-1.5,1.5V276.253z"/>
	<path style="fill:#FFFFFF;" d="M217.224,261.753c0.828,0,1.5-0.672,1.5-1.5v-2c0-0.828-0.672-1.5-1.5-1.5
		c-0.828,0-1.5,0.672-1.5,1.5v2C215.724,261.081,216.396,261.753,217.224,261.753"/>
	<path style="fill:#FFFFFF;" d="M215.724,268.253c0,0.828,0.672,1.5,1.5,1.5c0.828,0,1.5-0.672,1.5-1.5v-2
		c0-0.828-0.672-1.5-1.5-1.5c-0.828,0-1.5,0.672-1.5,1.5V268.253z"/>
	<path style="fill:#FFFFFF;" d="M217.224,248.86c-0.324,0-0.625,0.105-0.869,0.283c-0.381,0.272-0.631,0.715-0.631,1.217v1.893
		c0,0.828,0.672,1.5,1.5,1.5c0.828,0,1.5-0.672,1.5-1.5v-1.373v-0.52C218.724,249.532,218.052,248.86,217.224,248.86"/>
	<path style="fill:#FFFFFF;" d="M233.616,261.753c0.828,0,1.5-0.672,1.5-1.5v-2c0-0.828-0.672-1.5-1.5-1.5
		c-0.828,0-1.5,0.672-1.5,1.5v2C232.116,261.081,232.788,261.753,233.616,261.753"/>
	<path style="fill:#FFFFFF;" d="M232.116,276.253c0,0.828,0.672,1.5,1.5,1.5c0.828,0,1.5-0.672,1.5-1.5v-2
		c0-0.828-0.672-1.5-1.5-1.5c-0.828,0-1.5,0.672-1.5,1.5V276.253z"/>
	<path style="fill:#FFFFFF;" d="M232.116,268.253c0,0.828,0.672,1.5,1.5,1.5c0.828,0,1.5-0.672,1.5-1.5v-2
		c0-0.828-0.672-1.5-1.5-1.5c-0.828,0-1.5,0.672-1.5,1.5V268.253z"/>
	<path style="fill:#FFFFFF;" d="M232.126,250.265c-0.002,0.031-0.01,0.062-0.01,0.096v1.892c0,0.828,0.672,1.5,1.5,1.5
		s1.5-0.672,1.5-1.5v-1.892c0-0.766-0.574-1.389-1.312-1.483c-0.063-0.008-0.123-0.017-0.188-0.017
		C232.821,248.861,232.177,249.482,232.126,250.265"/>
	<path style="fill:#FFFFFF;" d="M120.343,298.476c0,0.828,0.672,1.5,1.5,1.5c0.828,0,1.5-0.672,1.5-1.5v-2
		c0-0.828-0.672-1.5-1.5-1.5c-0.828,0-1.5,0.672-1.5,1.5V298.476z"/>
	<path style="fill:#FFFFFF;" d="M120.343,290.476c0,0.828,0.672,1.5,1.5,1.5c0.828,0,1.5-0.672,1.5-1.5v-2
		c0-0.828-0.672-1.5-1.5-1.5c-0.828,0-1.5,0.672-1.5,1.5V290.476z"/>
	<path style="fill:#FFFFFF;" d="M121.843,283.976c0.828,0,1.5-0.672,1.5-1.5v-1.893c0-0.828-0.672-1.5-1.5-1.5
		c-0.828,0-1.5,0.672-1.5,1.5v1.893C120.343,283.304,121.015,283.976,121.843,283.976"/>
	<path style="fill:#FFFFFF;" d="M120.343,306.476c0,0.828,0.672,1.5,1.5,1.5c0.828,0,1.5-0.672,1.5-1.5v-2
		c0-0.828-0.672-1.5-1.5-1.5c-0.828,0-1.5,0.672-1.5,1.5V306.476z"/>
	<path style="fill:#FFFFFF;" d="M138.235,283.976c0.828,0,1.5-0.672,1.5-1.5v-1.893c0-0.828-0.672-1.5-1.5-1.5
		c-0.828,0-1.5,0.672-1.5,1.5v1.893C136.735,283.304,137.407,283.976,138.235,283.976"/>
	<path style="fill:#FFFFFF;" d="M136.735,306.476c0,0.828,0.672,1.5,1.5,1.5c0.828,0,1.5-0.672,1.5-1.5v-2
		c0-0.828-0.672-1.5-1.5-1.5c-0.828,0-1.5,0.672-1.5,1.5V306.476z"/>
	<path style="fill:#FFFFFF;" d="M136.735,298.476c0,0.828,0.672,1.5,1.5,1.5c0.828,0,1.5-0.672,1.5-1.5v-2
		c0-0.828-0.672-1.5-1.5-1.5c-0.828,0-1.5,0.672-1.5,1.5V298.476z"/>
	<path style="fill:#FFFFFF;" d="M136.735,290.476c0,0.828,0.672,1.5,1.5,1.5c0.828,0,1.5-0.672,1.5-1.5v-2
		c0-0.828-0.672-1.5-1.5-1.5c-0.828,0-1.5,0.672-1.5,1.5V290.476z"/>
	<path style="fill:#FFFFFF;" d="M34.247,260.521c0,0.828,0.672,1.5,1.5,1.5c0.828,0,1.5-0.672,1.5-1.5v-2c0-0.828-0.672-1.5-1.5-1.5
		c-0.828,0-1.5,0.672-1.5,1.5V260.521z"/>
	<path style="fill:#FFFFFF;" d="M35.747,254.021c0.828,0,1.5-0.672,1.5-1.5v-2c0-0.828-0.672-1.5-1.5-1.5
		c-0.828,0-1.5,0.672-1.5,1.5v2C34.247,253.349,34.919,254.021,35.747,254.021"/>
	<path style="fill:#FFFFFF;" d="M35.833,241.134c-0.029-0.002-0.057-0.008-0.086-0.008c-0.828,0-1.5,0.672-1.5,1.5v1.895
		c0,0.828,0.672,1.5,1.5,1.5s1.5-0.672,1.5-1.5v-1.895c0-0.111-0.014-0.221-0.037-0.324
		C37.067,241.657,36.511,241.173,35.833,241.134"/>
	<path style="fill:#FFFFFF;" d="M37.177,268.95c0.041-0.137,0.07-0.279,0.07-0.43v-2c0-0.828-0.672-1.5-1.5-1.5
		c-0.828,0-1.5,0.672-1.5,1.5v2c0,0.782,0.602,1.418,1.366,1.487c0.044,0.003,0.087,0.013,0.134,0.013
		C36.425,270.02,36.991,269.567,37.177,268.95"/>
	<path style="fill:#FFFFFF;" d="M50.638,260.521c0,0.828,0.672,1.5,1.5,1.5c0.828,0,1.5-0.672,1.5-1.5v-2c0-0.828-0.672-1.5-1.5-1.5
		c-0.828,0-1.5,0.672-1.5,1.5V260.521z"/>
	<path style="fill:#FFFFFF;" d="M52.138,254.021c0.828,0,1.5-0.672,1.5-1.5v-2c0-0.828-0.672-1.5-1.5-1.5
		c-0.828,0-1.5,0.672-1.5,1.5v2C50.638,253.349,51.31,254.021,52.138,254.021"/>
	<path style="fill:#FFFFFF;" d="M50.638,242.626v0.715v1.18c0,0.828,0.672,1.5,1.5,1.5c0.828,0,1.5-0.672,1.5-1.5v-1.895
		c0-0.42-0.174-0.801-0.453-1.072c-0.27-0.264-0.639-0.428-1.047-0.428C51.31,241.126,50.638,241.798,50.638,242.626"/>
	<path style="fill:#FFFFFF;" d="M52.138,270.021c0.44,0,0.83-0.193,1.105-0.492c0.243-0.268,0.395-0.619,0.395-1.008v-2
		c0-0.828-0.672-1.5-1.5-1.5c-0.828,0-1.5,0.672-1.5,1.5v1.68v0.32C50.638,269.349,51.31,270.021,52.138,270.021"/>
</g>
</svg>
