<?xml version="1.0" encoding="iso-8859-1"?>
<!-- Generator: Adobe Illustrator 25.4.1, SVG Export Plug-In . SVG Version: 6.00 Build 0)  -->
<svg version="1.1" id="Calque_1" xmlns="http://www.w3.org/2000/svg" xmlns:xlink="http://www.w3.org/1999/xlink" x="0px" y="0px"
	 viewBox="0 0 368.5 368.5" style="enable-background:new 0 0 368.5 368.5;" xml:space="preserve">
<g>
	<path style="fill:#FFFFFF;" d="M159.229,60.035c-3.125,0-5.667,2.543-5.667,5.668c0,3.123,2.542,5.664,5.667,5.664
		s5.667-2.541,5.667-5.664C164.896,62.578,162.354,60.035,159.229,60.035"/>
	<path style="fill:#FFFFFF;" d="M99.527,72.73V58.335c0-1.022-0.832-1.852-1.854-1.852H72.487c-1.022,0-1.854,0.83-1.854,1.852
		V72.73c0,1.022,0.832,1.854,1.854,1.854h25.186C98.695,74.585,99.527,73.753,99.527,72.73"/>
	<path style="fill:#FFFFFF;" d="M126.775,65.703c0,3.123,2.542,5.664,5.667,5.664c3.124,0,5.666-2.541,5.666-5.664
		c0-3.125-2.542-5.668-5.666-5.668C129.317,60.035,126.775,62.578,126.775,65.703"/>
	<path style="fill:#FFFFFF;" d="M66.439,204.455c0.538-1.502,2.027-2.447,3.617-2.305c2.246,0.217,5.163-1.107,7.702-3.416
		c4.337-3.943,6.133-9.221,5.665-12.394c-0.142-0.967,0.126-1.95,0.741-2.711c0.614-0.76,1.519-1.229,2.494-1.291l0.134-0.012
		c0.24-0.022,0.479-0.037,0.721-0.037c0.182,0,0.363,0.014,0.546,0.021c0.391-0.052,0.79-0.06,1.184,0.022l72.663,15.219
		c0.037,0.005,0.076,0.013,0.119,0.021l0.001-0.004l0.455,0.098c0.336,0.07,0.791,0.166,1.419,0.301
		c0.188,0.029,0.372,0.076,0.55,0.134c4.811,1.334,9.306,8.174,12.224,17.868h0.949c3.312-2.608,5.45-6.643,5.45-11.174V61.75
		c0-7.846-6.383-14.229-14.229-14.229H71.462c-7.845,0-14.228,6.383-14.228,14.229v143.045c0,4.724,2.326,8.908,5.882,11.496
		C64.025,212.072,65.135,208.094,66.439,204.455 M72.486,78.584c-3.228,0-5.854-2.627-5.854-5.854V58.334
		c0-3.227,2.626-5.852,5.854-5.852h25.186c3.228,0,5.854,2.625,5.854,5.852V72.73c0,3.227-2.626,5.854-5.854,5.854H72.486z
		 M142.108,65.703c0,5.328-4.336,9.664-9.666,9.664c-5.331,0-9.667-4.336-9.667-9.664c0-5.332,4.336-9.668,9.667-9.668
		C137.772,56.035,142.108,60.371,142.108,65.703 M120.57,187.406c-23.605,0-42.808-19.205-42.808-42.809
		c0-23.605,19.203-42.808,42.808-42.808c23.604,0,42.808,19.203,42.808,42.808C163.378,168.201,144.174,187.406,120.57,187.406
		 M159.229,75.367c-5.331,0-9.667-4.336-9.667-9.664c0-5.332,4.336-9.668,9.667-9.668c5.331,0,9.667,4.336,9.667,9.668
		C168.896,71.031,164.56,75.367,159.229,75.367"/>
	<path style="fill:#FFFFFF;" d="M120.57,105.789c-21.398,0-38.808,17.409-38.808,38.809c0,21.398,17.41,38.809,38.808,38.809
		c21.399,0,38.809-17.411,38.809-38.809C159.379,123.198,141.969,105.789,120.57,105.789 M120.57,176.387
		c-17.528,0-31.788-14.262-31.788-31.789s14.26-31.787,31.788-31.787s31.789,14.26,31.789,31.787S138.098,176.387,120.57,176.387"/>
	<path style="fill:#FFFFFF;" d="M305.41,210.01c-3.111-7.93-7.137-12.822-10.882-13.289c7.58,9.783,11.67,28.361,12.046,46.758
		c0.002,0.129,0.005,0.258,0.007,0.386c0.014,0.799,0.024,1.598,0.024,2.395c0,0.779-0.01,1.561-0.024,2.344
		c-0.003,0.172-0.006,0.343-0.01,0.517c-0.015,0.698-0.035,1.395-0.06,2.092c-0.004,0.09-0.006,0.18-0.01,0.27
		c-0.03,0.785-0.069,1.57-0.113,2.355c-0.008,0.149-0.018,0.295-0.027,0.443c-0.039,0.666-0.084,1.331-0.134,1.995
		c-0.011,0.148-0.021,0.296-0.033,0.447c-0.062,0.779-0.129,1.558-0.203,2.334c-0.009,0.09-0.019,0.18-0.028,0.269
		c-0.067,0.688-0.141,1.375-0.22,2.059c-0.019,0.17-0.039,0.34-0.059,0.51c-0.182,1.533-0.39,3.052-0.626,4.554
		c-0.025,0.164-0.051,0.327-0.078,0.489c-0.107,0.668-0.219,1.332-0.338,1.992c-0.015,0.086-0.029,0.172-0.045,0.26
		c-0.134,0.738-0.275,1.468-0.423,2.195c-0.029,0.143-0.058,0.283-0.088,0.426c-0.127,0.609-0.258,1.215-0.393,1.816
		c-0.032,0.141-0.063,0.279-0.095,0.42c-0.163,0.707-0.332,1.41-0.508,2.104c-0.022,0.086-0.045,0.17-0.067,0.255
		c-0.156,0.608-0.319,1.207-0.485,1.801c-0.044,0.158-0.087,0.317-0.132,0.473c-0.383,1.338-0.791,2.641-1.225,3.902
		c-0.051,0.151-0.103,0.297-0.155,0.446c-0.191,0.543-0.386,1.08-0.586,1.607c-0.033,0.088-0.065,0.178-0.099,0.264
		c-0.23,0.601-0.469,1.191-0.712,1.769c-0.053,0.127-0.108,0.25-0.162,0.375c-0.203,0.473-0.41,0.938-0.621,1.395
		c-0.058,0.125-0.115,0.252-0.173,0.375c-0.258,0.545-0.521,1.08-0.791,1.601c-0.043,0.08-0.086,0.158-0.129,0.239
		c-0.233,0.443-0.471,0.876-0.713,1.298c-0.074,0.129-0.148,0.258-0.222,0.385c-0.286,0.486-0.575,0.965-0.872,1.422l-0.001,0.002
		c-0.297,0.457-0.602,0.894-0.911,1.322c-0.083,0.114-0.167,0.227-0.25,0.34c-0.096,0.127-0.189,0.26-0.285,0.385
		c8.03-0.93,16.767-21.813,16.766-49.545C311.266,232.512,309.187,219.637,305.41,210.01"/>
	<path style="fill:#FFFFFF;" d="M282.283,295.84c8.177,0,17.322-21.203,17.322-49.58c0-28.373-9.145-49.574-17.322-49.574
		c-4.845,0-10.029,7.443-13.451,19.412c8.896,1.363,15.651,13.914,15.651,29.697c0,7.586-1.573,14.774-4.429,20.238
		c-2.938,5.618-6.971,8.934-11.467,9.495C272.001,288.018,277.318,295.84,282.283,295.84"/>
	<path style="fill:#FFFFFF;" d="M267.217,268.623c2.277,0,4.695-2.127,6.633-5.834c2.309-4.416,3.633-10.611,3.633-16.994
		c0-13.065-5.419-22.826-10.265-22.826h-2.583c-0.791,6.047-3.063,9.713-5.101,11.851c-2.786,2.926-6.577,4.535-10.674,4.535
		c-5.278,0-10.532-2.671-13.711-6.974c-0.393-0.531-0.844-1.209-1.348-1.973c-1.609-2.433-3.809-5.746-6.457-7.439H178.4
		c0.471,2.392,0.853,4.892,1.129,7.476c0.171,1.592-0.761,3.088-2.243,3.647c-0.794,0.763-2.239,4.453-2.238,10.119
		c-0.001,5.633,1.424,9.308,2.222,10.105c1.54,0.51,2.544,2.024,2.384,3.662c-0.372,3.823-0.904,7.379-1.576,10.645h11.58
		c2.466-1.76,4.52-4.863,6.045-7.17c0.504-0.762,0.953-1.439,1.346-1.971c3.18-4.302,8.434-6.974,13.712-6.974
		c4.098,0,7.888,1.611,10.674,4.535c2.007,2.107,4.238,5.699,5.061,11.58H267.217z"/>
	<path style="fill:#FFFFFF;" d="M202.723,309.277c-5.886-2.578-9.11-5.408-10.854-7.535c-0.873-0.248-1.726-0.514-2.533-0.815
		c-0.777-0.287-1.585-0.627-2.374-1.013v0.713c0.975,2.105,3.495,5.699,10.02,9.392c6.172,3.492,13.553,5.231,18.968,6.098
		c1.905-0.848,3.38-1.803,4.36-2.668C215.15,312.961,208.561,311.834,202.723,309.277"/>
	<path style="fill:#FFFFFF;" d="M219.141,300.961c0.828,0.104,1.676,0.184,2.547,0.242v-1.326c-0.811,0.402-1.648,0.754-2.448,1.051
		C219.208,300.94,219.173,300.949,219.141,300.961"/>
	<polygon style="fill:#FFFFFF;" points="204.278,319.947 204.276,319.947 204.276,320.978 	"/>
	<path style="fill:#FFFFFF;" d="M209.158,303.852c3.608,1.258,7.824,2.084,12.53,2.475v-3.121c-1.378-0.086-2.728-0.213-4.002-0.409
		c-1.011-0.158-1.978-0.349-2.918-0.558c-2.269,0.521-4.684,0.875-7.156,1.043C208.115,303.479,208.63,303.668,209.158,303.852"/>
	<path style="fill:#FFFFFF;" d="M205.977,318.426c2.255-0.121,4.31-0.477,6.146-0.971c-5.031-1.037-10.971-2.777-16.126-5.695
		c-4.571-2.586-7.347-5.172-9.034-7.342v3.037c0.679,1.379,2.163,3.397,5.427,5.606c4.388,2.97,10.108,4.478,13.128,5.111
		C205.701,318.211,205.849,318.309,205.977,318.426"/>
	<path style="fill:#FFFFFF;" d="M203.526,307.445c6.063,2.654,13.001,3.703,18.152,4.109c0.003-0.029,0.02-0.064,0.02-0.091
		c-0.023-0.182-0.026-0.364-0.009-0.543v-2.588c-4.941-0.399-9.379-1.264-13.188-2.592c-2.011-0.701-3.851-1.496-5.496-2.363
		c-2.566-0.069-5.101-0.336-7.506-0.787C197.263,304.121,199.82,305.822,203.526,307.445"/>
	<path style="fill:#FFFFFF;" d="M191.268,314.717c-1.948-1.318-3.329-2.598-4.331-3.768c-0.012,0.157-0.021,0.313-0.062,0.465
		c-0.005,1.336,3.562,4.408,9.506,6.026C194.632,316.697,192.872,315.803,191.268,314.717"/>
	<path style="fill:#FFFFFF;" d="M217.815,260.492c-2.35-2.467-5.133-2.984-7.054-2.984c-3.722,0-7.436,1.894-9.69,4.945
		c-0.351,0.475-0.748,1.078-1.197,1.758c-2.523,3.816-6.657,10.068-12.911,10.726v18.571c0.002,0.047,0,0.095,0,0.144v0.342
		c1.274,1.477,7.927,4.408,17.326,4.41c9.563-0.002,16.288-3.037,17.392-4.486c0-0.033,0.007-0.067,0.008-0.1v-17.021
		c0-0.063,0.002-0.125,0.007-0.188l0.026-0.328c0.021-0.277,0.044-0.553,0.058-0.848
		C222.106,268.722,220.735,263.556,217.815,260.492"/>
	<path style="fill:#FFFFFF;" d="M240.828,199.539c-6.581-2.834-9.841-5.979-11.419-8.117c-0.066-0.092-0.104-0.192-0.136-0.293
		c-0.152-0.063-0.306-0.123-0.456-0.188c-0.212-0.09-0.418-0.183-0.623-0.277c-0.38-0.176-0.749-0.357-1.107-0.545
		c-0.253-0.133-0.5-0.269-0.742-0.41c-0.29-0.166-0.568-0.34-0.84-0.516c-0.144-0.092-0.305-0.175-0.444-0.271v2.09
		c0.975,2.066,3.495,5.593,10.014,9.22c5.325,2.963,11.558,4.635,16.654,5.59c1.728-0.701,3.236-1.539,4.468-2.424
		C251.44,202.82,245.849,201.699,240.828,199.539"/>
	<path style="fill:#FFFFFF;" d="M234.103,201.98c-4.576-2.545-7.354-5.09-9.042-7.226v2.966c0.677,1.35,2.16,3.33,5.419,5.498
		c3.283,2.184,7.292,3.559,10.37,4.373c0.506,0.032,1.016,0.057,1.537,0.057c1.912,0,3.733-0.225,5.431-0.603
		C243.364,205.993,238.452,204.399,234.103,201.98"/>
	<path style="fill:#FFFFFF;" d="M256.087,191.191c1.18,0.178,2.428,0.295,3.7,0.377v-2.561c-1.184,0.807-2.56,1.508-4.063,2.118
		C255.847,191.146,255.962,191.172,256.087,191.191"/>
	<path style="fill:#FFFFFF;" d="M259.787,198.611c-4.937-0.393-9.372-1.244-13.183-2.549c-2.195-0.752-4.197-1.611-5.951-2.553
		c-0.027-0.015-0.044-0.041-0.069-0.058c-0.219-0.01-0.439-0.02-0.656-0.033c-0.065-0.004-0.129-0.008-0.194-0.014
		c-0.764-0.049-1.515-0.121-2.253-0.213c-0.092-0.01-0.183-0.023-0.275-0.035c-0.708-0.092-1.401-0.203-2.079-0.332
		c-0.103-0.02-0.205-0.039-0.307-0.059c-0.653-0.131-1.29-0.277-1.913-0.439c1.767,1.648,4.5,3.562,8.712,5.377
		c5.479,2.357,11.693,3.424,16.652,3.904c0.939-1.002,1.474-1.963,1.516-2.74V198.611z"/>
	<path style="fill:#FFFFFF;" d="M247.252,194.17c3.612,1.236,7.829,2.051,12.535,2.434v-3.034c-1.375-0.084-2.724-0.209-4.001-0.402
		c-1.381-0.211-2.681-0.482-3.922-0.787c-0.846,0.213-1.725,0.39-2.627,0.543c-0.39,0.068-0.787,0.131-1.187,0.187
		c-0.289,0.039-0.577,0.078-0.871,0.112c-0.613,0.072-1.236,0.129-1.868,0.172c-0.038,0.001-0.073,0.007-0.11,0.009
		C245.864,193.67,246.543,193.928,247.252,194.17"/>
	<path style="fill:#FFFFFF;" d="M237.971,227.65c0.45,0.68,0.848,1.285,1.199,1.76c2.254,3.051,5.967,4.945,9.689,4.945
		c1.922,0,4.705-0.518,7.054-2.982c2.92-3.067,4.291-8.233,3.965-14.944c-0.015-0.293-0.037-0.576-0.059-0.857l-0.025-0.318
		c-0.004-0.061-0.007-0.124-0.007-0.186v-8.119c-4.103,3.258-10.362,5.699-17.399,5.699c-6.995,0-13.222-2.41-17.327-5.641
		l-0.001,9.918C231.314,217.582,235.447,223.834,237.971,227.65"/>
	<path style="fill:#FFFFFF;" d="M242.449,188.499c10.036-0.002,17.536-4.155,17.537-7.864c-0.001-3.711-7.501-7.861-17.537-7.861
		c-10.036,0-17.534,4.15-17.534,7.861C224.916,184.344,232.415,188.497,242.449,188.499 M233.281,176.73
		c2.457-0.939,5.713-1.457,9.168-1.457c7.411,0,13.216,2.354,13.216,5.361c0,3.006-5.805,5.362-13.216,5.364
		c-3.456-0.002-6.712-0.52-9.169-1.459c-2.608-0.998-4.044-2.385-4.044-3.905C229.236,179.114,230.672,177.727,233.281,176.73"/>
	<path style="fill:#FFFFFF;" d="M172.319,260.572l-58.879,4.309c-1.932,13.793-5.686,24.961-10.612,32.402l59.703-12.522
		C165.451,283.97,170.243,276.884,172.319,260.572"/>
	<path style="fill:#FFFFFF;" d="M162.59,204.85l-0.722-0.156l-59.186-12.397c4.409,6.573,7.902,16.143,10.02,28.002l59.492,7.975
		C170.026,213.143,164.493,205.293,162.59,204.85"/>
	<path style="fill:#FFFFFF;" d="M170.066,255.725c-1.433-3.332-2.019-7.67-2.018-11.514c-0.001-3.693,0.549-7.894,1.893-11.195
		l-58.443-7.834c-0.15,0.104-0.309,0.199-0.478,0.279c-1.189,0.807-3.608,6.827-3.609,16.973c0,9.922,2.313,15.898,3.569,16.934
		c0.472,0.109,0.898,0.316,1.271,0.587L170.066,255.725z"/>
	<path style="fill:#FFFFFF;" d="M79.566,279.272c1.91,6.088,2.241,12.416,0.967,17.394c1.814,1.979,4.252,3.852,6.98,3.852
		c6.904,0,15.459-12.307,18.893-35.862c-4.362-3.851-5.995-13.746-5.995-22.222c0.001-7.699,1.433-17.184,5.294-21.508
		c-3.02-16.353-9.023-28.271-15.401-31.029c-0.743,4.929-3.591,10.156-7.838,14.019c-3.188,2.897-6.75,4.68-10.198,5.139
		c-3.263,10.111-5.048,22.73-5.048,35.848c0.001,6.675,0.456,13.193,1.353,19.408C73.169,266.403,77.243,271.867,79.566,279.272
		 M84.714,266.467L84.714,266.467v-2.5l-0.002,2.5h-0.001c-1.838,0-5.294-0.977-7.798-7.512c-1.565-4.088-2.428-9.468-2.428-15.152
		c0-11.266,3.513-22.668,10.226-22.668c6.715,0,10.227,11.402,10.227,22.666S91.426,266.467,84.714,266.467"/>
</g>
</svg>
