<?xml version="1.0" encoding="iso-8859-1"?>
<!-- Generator: Adobe Illustrator 25.4.1, SVG Export Plug-In . SVG Version: 6.00 Build 0)  -->
<svg version="1.1" id="Calque_1" xmlns="http://www.w3.org/2000/svg" xmlns:xlink="http://www.w3.org/1999/xlink" x="0px" y="0px"
	 viewBox="0 0 368.5 368.5" style="enable-background:new 0 0 368.5 368.5;" xml:space="preserve">
<g>
	<path style="fill:#FFFFFF;" d="M325.998,195.716c0-9.288-7.556-16.845-16.842-16.845h-27.635c-9.283,0-16.835,7.557-16.835,16.845
		v80.19c0,9.286,7.552,16.839,16.835,16.839h27.635c9.286,0,16.842-7.553,16.842-16.839V195.716z M317.77,275.906
		c0,4.749-3.864,8.611-8.614,8.611h-27.635c-4.746,0-8.607-3.862-8.607-8.611v-80.19c0-4.751,3.861-8.617,8.607-8.617h27.635
		c4.75,0,8.614,3.866,8.614,8.617V275.906z"/>
	<path style="fill:#FFFFFF;" d="M42.533,195.716v80.19c0,9.286,7.552,16.839,16.834,16.839h27.632
		c9.289,0,16.846-7.553,16.846-16.839v-80.19c0-9.287-7.557-16.844-16.846-16.844H59.367
		C50.085,178.872,42.533,186.429,42.533,195.716 M50.761,195.716c0-4.75,3.861-8.616,8.606-8.616h27.632
		c4.752,0,8.618,3.866,8.618,8.616v80.19c0,4.749-3.866,8.611-8.618,8.611H59.367c-4.745,0-8.606-3.862-8.606-8.611V195.716z"/>
	<path style="fill:#FFFFFF;" d="M253.718,273.091V195.64c0-2.272-1.841-4.114-4.114-4.114h-30.195
		c-2.937-4.62-6.844-8.517-11.471-11.444v-17.048c0-2.273-1.842-4.114-4.114-4.114h-36.061c-2.272,0-4.114,1.841-4.114,4.114v16.869
		c-4.767,2.948-8.782,6.907-11.783,11.623h-31.763c-2.272,0-4.114,1.842-4.114,4.114v77.451c0,2.273,1.842,4.114,4.114,4.114h29.62
		c6.122,12.902,18.936,21.088,33.39,21.088h5.045c14.455,0,27.271-8.186,33.392-21.088h28.054
		C251.877,277.205,253.718,275.364,253.718,273.091"/>
	<path style="fill:#FFFFFF;" d="M300.841,70.217c-7.404,0-14.32,3.734-18.418,9.838l-48.657-0.006c-0.792,0-1.545,0.343-2.066,0.941
		l-26.714,30.619h-52.772c-1.515,0-2.743,1.228-2.743,2.742v35.746c0,1.513,1.228,2.743,2.743,2.743h68.043
		c1.514,0,2.742-1.23,2.742-2.743v-21.6l20.736-23.764h38.684c4.098,6.11,11.015,9.843,18.422,9.843
		c12.228,0,22.177-9.947,22.177-22.174C323.018,80.17,313.069,70.217,300.841,70.217"/>
	<path style="fill:#FFFFFF;" d="M307.702,250.804h-24.996c-2.273,0-4.114,1.841-4.114,4.114c0,2.273,1.841,4.114,4.114,4.114h24.996
		c2.273,0,4.114-1.841,4.114-4.114C311.816,252.645,309.975,250.804,307.702,250.804"/>
	<path style="fill:#FFFFFF;" d="M307.702,206.922h-24.996c-2.273,0-4.114,1.841-4.114,4.114c0,2.273,1.841,4.114,4.114,4.114h24.996
		c2.273,0,4.114-1.841,4.114-4.114C311.816,208.763,309.975,206.922,307.702,206.922"/>
	<path style="fill:#FFFFFF;" d="M60.552,259.032h24.997c2.273,0,4.114-1.841,4.114-4.114c0-2.273-1.841-4.114-4.114-4.114H60.552
		c-2.273,0-4.114,1.841-4.114,4.114C56.438,257.191,58.279,259.032,60.552,259.032"/>
	<path style="fill:#FFFFFF;" d="M60.552,215.15h24.997c2.273,0,4.114-1.841,4.114-4.114c0-2.273-1.841-4.114-4.114-4.114H60.552
		c-2.273,0-4.114,1.841-4.114,4.114C56.438,213.309,58.279,215.15,60.552,215.15"/>
	<path style="fill:#FFFFFF;" d="M167.52,105.007h35.296c-0.672-7.226-8.306-12.918-17.653-12.918
		C175.827,92.089,168.193,97.781,167.52,105.007"/>
</g>
</svg>
