<?xml version="1.0" encoding="iso-8859-1"?>
<!-- Generator: Adobe Illustrator 25.4.1, SVG Export Plug-In . SVG Version: 6.00 Build 0)  -->
<svg version="1.1" id="Calque_1" xmlns="http://www.w3.org/2000/svg" xmlns:xlink="http://www.w3.org/1999/xlink" x="0px" y="0px"
	 viewBox="0 0 368.5 368.5" style="enable-background:new 0 0 368.5 368.5;" xml:space="preserve">
<g>
	<path style="fill:#FFFFFF;" d="M325.674,130.435c-0.86-1.079-2.434-1.258-3.513-0.396l-9.382,7.483
		c-1.08,0.86-1.256,2.433-0.395,3.513c0.493,0.619,1.221,0.941,1.956,0.941c0.546,0,1.097-0.179,1.557-0.546l9.382-7.482
		C326.359,133.087,326.535,131.514,325.674,130.435"/>
	<path style="fill:#FFFFFF;" d="M284.635,159.969l-9.382,7.482c-1.08,0.861-1.257,2.434-0.395,3.513
		c0.493,0.619,1.22,0.941,1.956,0.941c0.546,0,1.096-0.178,1.556-0.545l9.382-7.483c1.08-0.86,1.257-2.433,0.396-3.513
		C287.288,159.285,285.714,159.107,284.635,159.969"/>
	<path style="fill:#FFFFFF;" d="M303.397,145.004l-9.382,7.482c-1.08,0.861-1.257,2.434-0.395,3.513
		c0.493,0.619,1.22,0.942,1.956,0.942c0.546,0,1.096-0.179,1.556-0.546l9.382-7.483c1.08-0.86,1.257-2.433,0.396-3.512
		C306.05,144.32,304.476,144.142,303.397,145.004"/>
	<path style="fill:#FFFFFF;" d="M258.436,90.934l-9.816,6.903c-1.129,0.794-1.401,2.353-0.607,3.484
		c0.486,0.691,1.261,1.061,2.047,1.061c0.497,0,0.999-0.147,1.436-0.455l9.817-6.903c1.129-0.794,1.4-2.354,0.606-3.482v-0.001
		C261.125,90.412,259.566,90.14,258.436,90.934"/>
	<path style="fill:#FFFFFF;" d="M238.805,104.74l-9.816,6.902c-1.13,0.794-1.402,2.354-0.608,3.483
		c0.486,0.692,1.261,1.062,2.047,1.062c0.497,0,0.999-0.147,1.436-0.455l9.816-6.902c1.13-0.794,1.401-2.354,0.607-3.483
		l-0.001-0.001C241.493,104.217,239.932,103.946,238.805,104.74"/>
	<path style="fill:#FFFFFF;" d="M308.956,60.966c0.497,0,0.999-0.147,1.437-0.455l6.866-4.828c1.129-0.794,1.4-2.354,0.606-3.484
		c-0.794-1.129-2.354-1.401-3.483-0.606l-6.866,4.828c-1.129,0.794-1.401,2.354-0.607,3.483
		C307.396,60.596,308.17,60.966,308.956,60.966"/>
	<path style="fill:#FFFFFF;" d="M278.068,77.129l-9.816,6.902c-1.13,0.794-1.402,2.354-0.608,3.483h0.001
		c0.487,0.692,1.26,1.062,2.046,1.062c0.497,0,0.999-0.147,1.436-0.455l9.816-6.902c1.13-0.794,1.401-2.354,0.607-3.482
		C280.757,76.606,279.195,76.335,278.068,77.129"/>
	<path style="fill:#FFFFFF;" d="M297.699,63.323l-9.816,6.903c-1.128,0.794-1.4,2.353-0.607,3.483l0.001,0.001
		c0.486,0.691,1.261,1.061,2.047,1.061c0.497,0,0.999-0.147,1.436-0.455l9.816-6.903c1.129-0.794,1.4-2.353,0.606-3.483V63.93
		C300.388,62.802,298.829,62.529,297.699,63.323"/>
	<path style="fill:#FFFFFF;" d="M261.473,139.672c3.957,5.448,6.692,11.523,8.148,17.894l4.209-3.023
		c10.187-7.319,12.522-21.562,5.205-31.75c-4.264-5.935-11.18-9.478-18.5-9.478c-4.777,0-9.358,1.478-13.251,4.275l-7.396,5.312
		C248.464,126.29,255.924,132.031,261.473,139.672"/>
	<path style="fill:#FFFFFF;" d="M217.302,170.045c5.879,8.184,9.197,17.437,10.145,26.809c7.654-10.231,8.197-24.666,0.359-35.579
		c-5.637-7.847-14.779-12.532-24.457-12.532c-3.744,0-7.392,0.703-10.818,2.034C202.341,154.664,211.006,161.279,217.302,170.045"/>
	<path style="fill:#FFFFFF;" d="M238.041,208.632c7.934-6.537,13.188-15.723,14.797-25.866
		c3.632-22.912-12.054-44.509-34.966-48.144c-2.197-0.348-4.43-0.525-6.637-0.525c-0.935,0-1.867,0.038-2.796,0.099
		c-0.361,0.025-0.718,0.07-1.078,0.103c-0.549,0.052-1.098,0.103-1.643,0.177c-0.477,0.064-0.947,0.144-1.419,0.224
		c-0.405,0.069-0.811,0.139-1.214,0.219c-0.555,0.112-1.107,0.235-1.656,0.369c-0.284,0.07-0.567,0.142-0.85,0.216
		c-0.639,0.171-1.275,0.35-1.903,0.549c-0.127,0.04-0.253,0.085-0.38,0.126c-6.78,2.226-12.884,6.159-17.734,11.338
		c0.791,0.123,1.577,0.26,2.358,0.416c6.088-4.041,13.116-6.196,20.438-6.196c11.925,0,23.194,5.775,30.142,15.448
		c11.288,15.717,8.474,37.349-5.942,49.733c-0.232,2.919-0.696,5.814-1.378,8.66c4.126-1.546,7.952-3.716,11.348-6.42
		C237.679,208.969,237.848,208.791,238.041,208.632"/>
	<path style="fill:#FFFFFF;" d="M255.81,143.785c-6.605-9.093-16.355-15.069-27.453-16.829c-4.843-0.768-9.786-0.684-14.492,0.212
		c1.706,0.092,3.415,0.272,5.104,0.54c26.725,4.239,45.02,29.43,40.783,56.153c-0.253,1.601-0.585,3.181-0.992,4.736
		c2.249-4.151,3.799-8.699,4.561-13.5C265.081,163.998,262.413,152.879,255.81,143.785"/>
	<path style="fill:#FFFFFF;" d="M167.066,154.085c14.566,5.262,27.209,14.76,36.439,27.611
		c8.121,11.305,12.936,24.285,14.209,37.784c5.417-14.683,3.698-31.713-6.097-45.351c-9.131-12.712-23.941-20.301-39.616-20.301
		C170.342,153.828,168.697,153.92,167.066,154.085"/>
	<path style="fill:#FFFFFF;" d="M188.087,264.806c-0.529,2.242-1.154,4.447-1.872,6.614l17.005-12.216
		c1.286-2.497,2.435-5.071,3.416-7.722L188.087,264.806z"/>
	<path style="fill:#FFFFFF;" d="M197.833,267.999l-14.232,10.224c-1.064,2.415-2.234,4.777-3.536,7.062l1.636-1.176
		C188.013,279.575,193.423,274.127,197.833,267.999"/>
	<path style="fill:#FFFFFF;" d="M111.444,169.451c0.403-0.007,0.807-0.027,1.211-0.027c1.941,0,3.893,0.082,5.842,0.229
		l18.271-13.126c-2.949,0.156-5.867,0.495-8.744,1.014L111.444,169.451z"/>
	<path style="fill:#FFFFFF;" d="M103.913,169.936l13.249-9.518c-6.263,2.217-12.229,5.326-17.749,9.301l-1.573,1.13
		c0.417-0.081,0.841-0.14,1.26-0.214c0.082-0.014,0.164-0.027,0.246-0.042c0.999-0.175,2-0.334,3.006-0.468
		c0.25-0.035,0.502-0.06,0.752-0.091C103.374,170,103.643,169.966,103.913,169.936"/>
	<path style="fill:#FFFFFF;" d="M150.383,179.149l21.485-15.435c-4.165-2.055-8.551-3.703-13.108-4.91l-20.719,14.882
		C142.325,175.157,146.458,176.972,150.383,179.149"/>
	<path style="fill:#FFFFFF;" d="M209.503,212.098c-1.196-5.58-3.078-11.006-5.622-16.177l-22.083,15.863
		c2.603,5.092,4.601,10.423,6.004,15.902L209.503,212.098z"/>
	<path style="fill:#FFFFFF;" d="M210.294,216.454l-21.529,15.465c0.857,4.37,1.334,8.817,1.422,13.306l20.775-14.922
		C211.197,225.641,210.97,221.008,210.294,216.454"/>
	<path style="fill:#FFFFFF;" d="M188.648,175.327c-3.922-3.671-8.239-6.843-12.86-9.504l-21.66,15.56
		c4.459,2.817,8.62,6.102,12.438,9.807L188.648,175.327z"/>
	<path style="fill:#FFFFFF;" d="M202,192.348c-1.269-2.246-2.654-4.442-4.181-6.567c-1.938-2.699-4.049-5.226-6.301-7.591
		l-22.124,15.893c2.222,2.394,4.323,4.925,6.259,7.621c1.525,2.123,2.931,4.304,4.222,6.537L202,192.348z"/>
	<path style="fill:#FFFFFF;" d="M124.409,170.331c0.288,0.044,0.578,0.077,0.865,0.124c2.708,0.443,5.367,1.033,7.98,1.745
		l20.264-14.557c-0.509-0.094-1.013-0.204-1.526-0.288c-2.754-0.451-5.542-0.736-8.321-0.861L124.409,170.331z"/>
	<path style="fill:#FFFFFF;" d="M210.504,235.557l-20.384,14.642c-0.132,2.947-0.417,5.903-0.887,8.86l19.334-13.889
		c0.03-0.021,0.063-0.034,0.094-0.053c0.595-2.239,1.084-4.519,1.464-6.834C210.274,237.373,210.391,236.465,210.504,235.557"/>
	<path style="fill:#FFFFFF;" d="M101.347,316.423c3.801,0.623,7.665,0.939,11.485,0.939c34.626,0,63.83-24.844,69.442-59.072
		c3.045-18.571-1.325-37.217-12.305-52.503c-10.98-15.285-27.255-25.38-45.827-28.424c-3.802-0.623-7.666-0.939-11.486-0.939
		c-34.625,0-63.83,24.842-69.441,59.071C36.93,273.833,63.008,310.138,101.347,316.423 M53.344,237.156
		c4.794-29.241,29.747-50.464,59.333-50.464c3.262,0,6.561,0.27,9.805,0.801c15.866,2.6,29.769,11.225,39.15,24.283
		c9.38,13.059,13.113,28.988,10.513,44.855c-4.793,29.241-29.746,50.464-59.333,50.464c-3.262,0-6.561-0.27-9.805-0.801
		c-15.866-2.601-29.769-11.225-39.15-24.283C54.477,268.953,50.743,253.023,53.344,237.156"/>
	<path style="fill:#FFFFFF;" d="M91.631,198.608c-1.81,4.332-3.115,8.897-3.883,13.569c-5.394,32.919,16.996,64.091,49.914,69.488
		c3.273,0.536,6.57,0.803,9.859,0.803c2.32,0,4.636-0.133,6.937-0.4c1.921-0.223,3.296-1.96,3.073-3.88
		c-0.222-1.921-1.965-3.29-3.88-3.073c-4.918,0.57-9.918,0.45-14.857-0.359c-29.108-4.771-48.908-32.337-44.138-61.446
		c0.679-4.135,1.834-8.174,3.434-12.005c0.745-1.783-0.097-3.833-1.881-4.578C94.429,195.982,92.376,196.824,91.631,198.608"/>
</g>
</svg>
