<?xml version="1.0" encoding="iso-8859-1"?>
<!-- Generator: Adobe Illustrator 25.4.1, SVG Export Plug-In . SVG Version: 6.00 Build 0)  -->
<svg version="1.1" id="Calque_1" xmlns="http://www.w3.org/2000/svg" xmlns:xlink="http://www.w3.org/1999/xlink" x="0px" y="0px"
	 viewBox="0 0 368.5 368.5" style="enable-background:new 0 0 368.5 368.5;" xml:space="preserve">
<rect x="144.326" y="108.272" style="fill:#FFFFFF;" width="22.322" height="14.709"/>
<g>
	<path style="fill:#FFFFFF;" d="M94.695,114.86c0,2.822-0.427,5.545-1.192,8.121h10.919v-14.709H93.898
		C94.401,110.39,94.695,112.591,94.695,114.86"/>
	<rect x="268.759" y="108.272" style="fill:#FFFFFF;" width="22.329" height="14.709"/>
	<rect x="206.549" y="108.272" style="fill:#FFFFFF;" width="22.325" height="14.709"/>
	<path style="fill:#FFFFFF;" d="M171.639,80.316v208.017c0,6.056,3.617,11.474,9.213,13.807c0.931,0.387,1.537,1.296,1.537,2.303
		v5.162c0,2.645,2.151,4.794,4.794,4.794s4.794-2.149,4.794-4.794v-5.718c0-0.941,0.529-1.801,1.369-2.225
		c5.064-2.566,8.211-7.675,8.211-13.329V80.316c0-5.662-3.147-10.773-8.213-13.342c-0.838-0.424-1.367-1.284-1.367-2.225v-5.443
		c0-2.646-2.151-4.799-4.794-4.799s-4.794,2.153-4.794,4.799v4.887c0,1.007-0.606,1.916-1.537,2.304
		C175.256,68.829,171.639,74.252,171.639,80.316"/>
	<path style="fill:#FFFFFF;" d="M233.865,80.316v208.017c0,5.9,3.491,11.265,8.896,13.663c0.902,0.4,1.483,1.294,1.483,2.281v4.599
		c0,2.645,2.151,4.795,4.795,4.795c2.645,0,4.797-2.15,4.797-4.795v-4.811c0-0.96,0.552-1.838,1.42-2.252
		c5.17-2.471,8.511-7.763,8.511-13.48V80.316c0-5.808-3.261-10.978-8.512-13.491c-0.867-0.414-1.419-1.291-1.419-2.252v-5.998
		c0-2.644-2.152-4.796-4.797-4.796c-2.644,0-4.795,2.152-4.795,4.796v5.784c0,0.987-0.581,1.879-1.483,2.281
		C237.358,69.041,233.865,74.408,233.865,80.316"/>
	<path style="fill:#FFFFFF;" d="M296.08,80.316v208.017c0,5.888,3.487,11.245,8.883,13.651c0.9,0.399,1.48,1.294,1.48,2.279v4.613
		c0,2.645,2.151,4.795,4.795,4.795c2.643,0,4.794-2.15,4.794-4.795v-4.801c0-0.963,0.553-1.84,1.423-2.254
		c5.189-2.469,8.543-7.766,8.543-13.488V80.316c0-5.73-3.354-11.031-8.544-13.505c-0.869-0.412-1.422-1.29-1.422-2.252v-5.984
		c0-2.644-2.151-4.796-4.794-4.796c-2.644,0-4.795,2.152-4.795,4.796v5.796c0,0.985-0.578,1.877-1.478,2.279
		C299.568,69.058,296.08,74.422,296.08,80.316"/>
	<path style="fill:#FFFFFF;" d="M109.414,80.316v208.017c0,5.778,3.398,11.094,8.656,13.544c0.88,0.409,1.443,1.291,1.443,2.261
		v5.806c0,2.644,2.151,4.794,4.794,4.794c2.642,0,4.792-2.15,4.792-4.794v-5.74c0-0.977,0.57-1.864,1.46-2.271
		c5.331-2.43,8.775-7.768,8.775-13.6V80.316c0-5.84-3.444-11.182-8.774-13.61c-0.89-0.405-1.461-1.294-1.461-2.272v-4.789
		c0-2.647-2.15-4.799-4.792-4.799c-2.643,0-4.794,2.152-4.794,4.799v4.853c0,0.97-0.562,1.852-1.442,2.262
		C112.813,69.212,109.414,74.532,109.414,80.316"/>
	<path style="fill:#FFFFFF;" d="M66.125,138.443c13.002,0,23.578-10.58,23.578-23.583S79.127,91.279,66.125,91.279
		c-5.468,0-10.494,1.886-14.498,5.018l11.412,12.228c1.41,1.511,1.329,3.88-0.182,5.291c-0.722,0.673-1.639,1.007-2.553,1.007
		c-1.002,0-2.002-0.4-2.739-1.189l-11.059-11.851c-2.506,3.747-3.973,8.244-3.973,13.077
		C42.533,127.863,53.116,138.443,66.125,138.443"/>
</g>
</svg>
