<?xml version="1.0" encoding="iso-8859-1"?>
<!-- Generator: Adobe Illustrator 25.4.1, SVG Export Plug-In . SVG Version: 6.00 Build 0)  -->
<svg version="1.1" id="Calque_1" xmlns="http://www.w3.org/2000/svg" xmlns:xlink="http://www.w3.org/1999/xlink" x="0px" y="0px"
	 viewBox="0 0 368.5 368.5" style="enable-background:new 0 0 368.5 368.5;" xml:space="preserve">
<g>
	<path style="fill:#FFFFFF;" d="M300.921,121.37h-13.344c-0.627,0-1.139,0.509-1.139,1.136v15.677c0,0.627,0.512,1.136,1.139,1.136
		h13.344c0.623,0,1.133-0.509,1.133-1.136v-15.677C302.054,121.879,301.544,121.37,300.921,121.37"/>
	<path style="fill:#FFFFFF;" d="M55.225,307.404h16.198V107.122c0-2.309,1.874-4.183,4.183-4.183c2.308,0,4.182,1.874,4.182,4.183
		v200.282h44.935V107.122c0-2.309,1.873-4.183,4.182-4.183c2.309,0,4.182,1.874,4.182,4.183v200.282h47.268V107.122
		c0-2.309,1.873-4.183,4.182-4.183c2.309,0,4.183,1.874,4.183,4.183v200.282h47.257V107.122c0-2.309,1.873-4.183,4.182-4.183
		c2.309,0,4.182,1.874,4.182,4.183v200.282h71.099c6.409,0,11.623-5.214,11.623-11.624V72.742c0-6.412-5.214-11.629-11.623-11.629
		H55.225c-6.409,0-11.626,5.217-11.626,11.629v223.037C43.599,302.19,48.816,307.404,55.225,307.404 M307.631,174.429
		c0,3.7-3.009,6.711-6.709,6.711h-13.345c-3.703,0-6.714-3.011-6.714-6.711v-15.678c0-3.701,3.011-6.712,6.714-6.712h13.345
		c3.7,0,6.709,3.011,6.709,6.712V174.429z M307.631,138.184c0,3.7-3.009,6.711-6.709,6.711h-13.345
		c-3.703,0-6.714-3.011-6.714-6.711v-15.678c0-3.701,3.011-6.712,6.714-6.712h13.345c3.7,0,6.709,3.011,6.709,6.712V138.184z
		 M286.398,89.466h14.872c4.234,0,7.668,3.431,7.668,7.667c0,4.231-3.434,7.668-7.668,7.668h-14.872
		c-4.234,0-7.667-3.437-7.667-7.668C278.731,92.898,282.164,89.466,286.398,89.466"/>
	<path style="fill:#FFFFFF;" d="M300.921,157.616h-13.344c-0.627,0-1.139,0.509-1.139,1.136v15.677c0,0.627,0.512,1.136,1.139,1.136
		h13.344c0.623,0,1.133-0.509,1.133-1.136v-15.677C302.054,158.125,301.544,157.616,300.921,157.616"/>
</g>
</svg>
