<?xml version="1.0" encoding="iso-8859-1"?>
<!-- Generator: Adobe Illustrator 25.4.1, SVG Export Plug-In . SVG Version: 6.00 Build 0)  -->
<svg version="1.1" id="Calque_1" xmlns="http://www.w3.org/2000/svg" xmlns:xlink="http://www.w3.org/1999/xlink" x="0px" y="0px"
	 viewBox="0 0 368.5 368.5" style="enable-background:new 0 0 368.5 368.5;" xml:space="preserve">
<g>
	<path style="fill:#FFFFFF;" d="M144.57,110.973v32.388c3.793-9.414,9.124-17.365,15.606-22.949L144.57,110.973z"/>
	<path style="fill:#FFFFFF;" d="M273.296,289.376c-0.364,0-0.735-0.08-1.085-0.25l-22.277-10.755
		c0.35,12.994,11.022,23.459,24.099,23.459h2.863c13.298,0,24.116-10.818,24.116-24.115V160.234H277.46
		c-0.335,0-0.659-0.046-0.965-0.134h-49.063c-0.183,0.029-0.365,0.07-0.549,0.07c-0.11,0-0.221-0.012-0.331-0.022l17.849,8.617
		c1.244,0.599,1.765,2.094,1.165,3.338c-0.431,0.892-1.324,1.414-2.253,1.414c-0.365,0-0.735-0.08-1.085-0.25l-17.686-8.538
		c0.565,4.235,0.856,8.561,0.867,12.951l52.456,25.323c1.243,0.6,1.765,2.095,1.165,3.338c-0.431,0.892-1.324,1.414-2.254,1.414
		c-0.364,0-0.734-0.08-1.084-0.25l-50.427-24.343c-0.29,5.585-1.037,10.975-2.188,16.088l28.407,13.714
		c1.243,0.6,1.765,2.095,1.164,3.338c-0.431,0.893-1.323,1.414-2.253,1.414c-0.364,0-0.735-0.08-1.085-0.25l-27.489-13.272
		c-1.444,5.043-3.293,9.757-5.48,14.058l45.92,22.169c1.243,0.6,1.764,2.095,1.164,3.338c-0.431,0.893-1.323,1.414-2.253,1.414
		c-0.364,0-0.735-0.08-1.085-0.25l-46.171-22.29c-2.363,3.902-5.03,7.374-7.944,10.328l81.141,39.173
		c1.243,0.599,1.764,2.095,1.164,3.338c-0.431,0.892-1.323,1.414-2.253,1.414c-0.364,0-0.735-0.08-1.085-0.25l-82.843-39.994
		c-0.047-0.023-0.086-0.056-0.131-0.081c-1.209,0.961-2.449,1.838-3.721,2.627l49.753,25.166c0.077,0.039,0.145,0.089,0.217,0.134
		c0.074,0.044,0.148,0.085,0.218,0.134c0.123,0.087,0.234,0.184,0.343,0.283c0.045,0.042,0.094,0.077,0.137,0.121
		c0.149,0.152,0.284,0.314,0.402,0.488c0.016,0.023,0.027,0.05,0.043,0.076c0.097,0.151,0.184,0.308,0.257,0.474
		c0.03,0.067,0.051,0.138,0.077,0.208c0.048,0.131,0.092,0.264,0.125,0.401c0.017,0.076,0.031,0.154,0.043,0.232
		c0.024,0.144,0.039,0.288,0.044,0.436c0.002,0.046,0.014,0.089,0.014,0.136v5.335l24.468,11.812c1.243,0.6,1.764,2.095,1.164,3.338
		C275.118,288.856,274.226,289.376,273.296,289.376"/>
	<path style="fill:#FFFFFF;" d="M230.384,153.1h47.077c0.335,0,0.658,0.047,0.965,0.135h26.087c1.933,0,3.5,1.567,3.5,3.5v120.98
		c0,17.157-13.959,31.115-31.116,31.115h-2.863c-17.158,0-31.116-13.958-31.116-31.115v-6.738h-12.534v7.848
		c0,23.538,19.149,42.687,42.687,42.687h4.789c23.538,0,42.688-19.149,42.688-42.687V137.828h-90.164V153.1z"/>
	<path style="fill:#FFFFFF;" d="M229.327,131.828h85.247L164.138,46.484h-13.226h-6.342H84.647l144.012,84.828
		C228.905,131.458,229.127,131.633,229.327,131.828"/>
	<path style="fill:#FFFFFF;" d="M154.038,200.383h-8.177c1.363,5.447,3.204,10.51,5.445,15.064l41.609,21.045
		c15.89-7.585,27.498-30.958,27.498-58.552c0-7.883-0.955-15.536-2.819-22.797l-52.887-31.989
		c-9.154,7.183-15.995,19.581-19.315,34.317h7.799c4.093-7.513,10.354-12.33,17.363-12.33c12.3,0,22.308,14.825,22.308,33.049
		c0,18.223-10.008,33.048-22.308,33.048C164.013,211.238,158.122,207.047,154.038,200.383"/>
	<path style="fill:#FFFFFF;" d="M168.775,201.229c-1.463,0-2.869-0.319-4.195-0.905c-0.29,0.021-0.576,0.059-0.87,0.059h-3.722
		c2.926,3.666,6.59,5.856,10.566,5.856c9.544,0,17.308-12.583,17.308-28.049s-7.764-28.049-17.308-28.049
		c-4.485,0-8.576,2.779-11.654,7.33h3.282c1.977-1.487,4.21-2.32,6.593-2.32c8.323,0,14.842,10.12,14.842,23.039
		C183.617,191.109,177.098,201.229,168.775,201.229"/>
	<path style="fill:#FFFFFF;" d="M174.061,178.926c0-8.92-4.74-16.455-10.351-16.455h-32.725v32.912h32.725
		C169.321,195.383,174.061,187.847,174.061,178.926"/>
	<path style="fill:#FFFFFF;" d="M224.384,270.148l-93.398-45.898v30.74l103.002,52.942c-6.17-8.25-9.604-18.365-9.604-29.108
		V270.148z"/>
	<polygon style="fill:#FFFFFF;" points="231.744,263.977 130.985,213.012 130.985,216.45 227.697,263.977 	"/>
	<polygon style="fill:#FFFFFF;" points="47.952,322.016 92.731,322.016 92.731,119.562 47.952,93.353 	"/>
	<polygon style="fill:#FFFFFF;" points="47.952,75.059 47.952,85.242 97.11,114.014 114.506,114.014 	"/>
	<rect x="99.731" y="121.014" style="fill:#FFFFFF;" width="24.254" height="201.002"/>
	<polygon style="fill:#FFFFFF;" points="223.383,136.328 78.353,50.901 78.353,62.739 223.383,150.463 	"/>
</g>
</svg>
