<?xml version="1.0" encoding="iso-8859-1"?>
<!-- Generator: Adobe Illustrator 25.4.1, SVG Export Plug-In . SVG Version: 6.00 Build 0)  -->
<svg version="1.1" id="Calque_1" xmlns="http://www.w3.org/2000/svg" xmlns:xlink="http://www.w3.org/1999/xlink" x="0px" y="0px"
	 viewBox="0 0 368.5 368.5" style="enable-background:new 0 0 368.5 368.5;" xml:space="preserve">
<g>
	<path style="fill:#FFFFFF;" d="M327.057,166.849V66.594c0-13.046-11.123-24.068-24.288-24.068H202.95
		c-13.614,0-24.279,10.572-24.279,24.068v100.255c0,6.021,2.937,12.402,7.75,17.086c-0.436,0.399-0.856,0.81-1.259,1.239
		c-4.457-4.624-10.686-7.568-17.473-7.568H67.871c-13.615,0-24.28,10.571-24.28,24.068v100.254c0,11.358,10.384,24.063,24.28,24.063
		h99.818c6.994,0,13.174-3.391,17.555-8.184c4.353,4.811,10.559,8.184,17.706,8.184h99.819c13.678,0,24.288-12.935,24.288-24.063
		V201.674c0-6.901-3.13-13.217-8.011-17.653C323.986,179.287,327.057,172.816,327.057,166.849 M167.689,312.748H67.871
		c-5.944,0-11.037-5.949-11.037-10.82V201.674c0-6.172,4.745-10.825,11.037-10.825h99.818c5.647,0,10.764,4.928,11.001,10.437
		c-0.003,0.129-0.019,0.256-0.019,0.388v100.254c0,0.163,0.023,0.331,0.027,0.494C178.333,306.607,173.451,312.748,167.689,312.748
		 M313.813,201.674v100.254c0,4.175-5.054,10.82-11.044,10.82H202.95c-5.805,0-10.764-5.67-10.994-10.471
		c0.003-0.116,0.021-0.232,0.021-0.349V201.674c0-0.142-0.021-0.282-0.023-0.424c0.213-5.815,4.65-10.163,10.581-10.362
		c0.14,0.003,0.275,0.023,0.415,0.023h99.819c0.126,0,0.246-0.02,0.37-0.02C308.771,191.108,313.813,196.131,313.813,201.674
		 M302.769,177.606H202.95c-0.122,0-0.241,0.016-0.364,0.018c-5.784-0.24-10.672-6.006-10.672-10.775V66.594
		c0-6.171,4.745-10.825,11.036-10.825h99.819c5.781,0,11.044,5.161,11.044,10.825v100.255c0,4.053-4.767,10.416-10.527,10.783
		C303.113,177.629,302.944,177.606,302.769,177.606"/>
	<path style="fill:#FFFFFF;" d="M159.098,236.802H77.403c-3.657,0-6.621,2.964-6.621,6.621v57.468c0,3.658,2.964,6.622,6.621,6.622
		h81.695c3.657,0,6.622-2.964,6.622-6.622v-57.468C165.72,239.766,162.755,236.802,159.098,236.802 M101.682,245.803h33.35
		c0,5.225-4.242,9.461-9.464,9.461h-14.423C105.92,255.264,101.682,251.028,101.682,245.803"/>
</g>
</svg>
