<?xml version="1.0" encoding="iso-8859-1"?>
<!-- Generator: Adobe Illustrator 25.4.1, SVG Export Plug-In . SVG Version: 6.00 Build 0)  -->
<svg version="1.1" id="Calque_1" xmlns="http://www.w3.org/2000/svg" xmlns:xlink="http://www.w3.org/1999/xlink" x="0px" y="0px"
	 viewBox="0 0 368.5 368.5" style="enable-background:new 0 0 368.5 368.5;" xml:space="preserve">
<g>
	<path style="fill:#FFFFFF;" d="M58.05,212.452l0.095,0.078v76.55c0,4.408,3.573,7.984,7.98,7.984c4.408,0,7.981-3.576,7.981-7.984
		v-55.224L62.52,223.697c-1.256-1.101-1.381-3.011-0.279-4.267c1.099-1.251,3.01-1.378,4.26-0.279l7.605,6.429l19.349,15.821h0.032
		v76.606c0,4.408,3.575,7.984,7.982,7.984c4.408,0,7.981-3.576,7.981-7.984V71.475h185.072v0.007v0.791v76.987l-19.643-16.061
		h-0.011V77.505h-15.963v55.694H115.533v28.947h178.989v66.365l-19.643-16.059h-0.011v-44.223h-15.963v44.223H115.533v28.949
		h178.989v76.606c0,4.408,3.572,7.984,7.979,7.984c4.409,0,7.981-3.576,7.981-7.984V75.751c-0.011-2.645-0.653-4.535-4.131-7.514
		l-24.773-20.401c-5.629-4.514-7.411-5.29-15.38-5.31H66.12c-6.24,0.043-8.023,1.578-7.975,7.541v83.132H58.05l0.095,0.078v79.175
		H58.05z M62.241,49.261c1.099-1.254,3.01-1.383,4.26-0.279l26.954,22.493h0.032v61.724H74.106V63.684L62.52,53.527
		C61.264,52.424,61.139,50.515,62.241,49.261 M62.241,139.898c1.099-1.251,3.01-1.382,4.26-0.279l26.954,22.527h0.032v50.306H74.106
		v-58.13l-11.586-10.16C61.264,143.059,61.139,141.152,62.241,139.898"/>
	<path style="fill:#FFFFFF;" d="M258.905,289.08c0,4.408,3.573,7.984,7.98,7.984c4.408,0,7.983-3.576,7.983-7.984v-41.6h-15.963
		V289.08z"/>
</g>
</svg>
