<?xml version="1.0" encoding="iso-8859-1"?>
<!-- Generator: Adobe Illustrator 25.4.1, SVG Export Plug-In . SVG Version: 6.00 Build 0)  -->
<svg version="1.1" id="Calque_1" xmlns="http://www.w3.org/2000/svg" xmlns:xlink="http://www.w3.org/1999/xlink" x="0px" y="0px"
	 viewBox="0 0 368.5 368.5" style="enable-background:new 0 0 368.5 368.5;" xml:space="preserve">
<g>
	<path style="fill:#FFFFFF;" d="M122.727,105.358c-5.304,0-9,2.767-9,5.25c0,2.483,3.696,5.25,9,5.25c5.304,0,9-2.767,9-5.25
		C131.727,108.126,128.03,105.358,122.727,105.358"/>
	<path style="fill:#FFFFFF;" d="M315.374,276.474L277.677,74.027H89.837l-36.73,202.447H315.374z M75.378,241.521l19-140.27
		c1.615-13.027,10.61-21.469,22.909-21.469H248.12c12.022,0,21.013,8.414,22.905,21.436l19.004,140.303
		c0.826,5.724-0.594,10.909-4.109,14.968c-4.036,4.659-10.69,7.441-17.8,7.441H97.286c-6.967,0-13.258-2.526-17.26-6.932
		c-3.632-3.998-5.245-9.303-4.665-15.342C75.367,241.612,75.371,241.566,75.378,241.521"/>
	<path style="fill:#FFFFFF;" d="M117.286,89.282h130.833c4.97,0,9.382,1.553,12.916,4.339c-2.834-4.374-7.311-6.839-12.915-6.839
		H117.287c-5.633,0-10.096,2.361-12.9,6.575C107.874,90.726,112.256,89.282,117.286,89.282"/>
	<path style="fill:#FFFFFF;" d="M283.096,242.491l-18.531-136.806c-2.538-7.742-8.55-12.402-16.447-12.402H117.285
		c-8.027,0-13.884,4.343-16.367,11.832L82.324,242.391c-0.376,4.05,0.594,7.381,2.884,9.901c2.678,2.949,7.08,4.639,12.078,4.639
		h170.833c5.108,0,9.784-1.878,12.509-5.024C282.804,249.394,283.634,246.226,283.096,242.491 M256.596,156.57
		c-0.304,0.799-1.064,1.29-1.87,1.29c-0.237,0-0.477-0.043-0.711-0.132l-106.5-40.5c-1.032-0.393-1.551-1.548-1.158-2.58
		c0.392-1.033,1.549-1.552,2.58-1.158l106.5,40.5C256.47,154.382,256.988,155.538,256.596,156.57 M146.342,104.862l104,6
		c1.102,0.064,1.944,1.01,1.881,2.112c-0.061,1.064-0.943,1.885-1.995,1.885c-0.039,0-0.078-0.001-0.117-0.003l-104-6
		c-1.102-0.065-1.945-1.01-1.881-2.112C144.293,105.64,145.257,104.82,146.342,104.862 M111.717,244.057
		c-0.103,1.031-0.973,1.802-1.988,1.802c-0.067,0-0.134-0.003-0.201-0.01c-1.099-0.109-1.901-1.089-1.792-2.188l11-110.5
		c0.109-1.099,1.089-1.913,2.189-1.792c1.099,0.109,1.901,1.088,1.792,2.188L111.717,244.057z M106.726,110.609
		c0-6.869,7.028-12.25,16-12.25s16,5.381,16,12.25s-7.028,12.25-16,12.25S106.726,117.478,106.726,110.609 M167.846,246.76
		c-0.206,0.068-0.415,0.1-0.62,0.1c-0.842,0-1.626-0.537-1.901-1.381l-36.5-112c-0.342-1.051,0.231-2.18,1.282-2.522
		c1.046-0.344,2.178,0.232,2.521,1.282l36.5,112C169.47,245.289,168.896,246.418,167.846,246.76 M229.95,245.941
		c-0.365,0.282-0.795,0.418-1.222,0.418c-0.598,0-1.19-0.267-1.584-0.778l-88.5-114.499c-0.675-0.874-0.515-2.13,0.359-2.805
		c0.875-0.677,2.131-0.516,2.806,0.359l88.5,114.5C230.984,244.009,230.823,245.266,229.95,245.941 M264.824,211.062
		c-0.393,0.522-0.993,0.797-1.599,0.797c-0.419,0-0.841-0.131-1.202-0.403l-115.5-86.999c-0.882-0.666-1.059-1.919-0.394-2.801
		c0.664-0.884,1.918-1.061,2.8-0.395l115.5,87C265.312,208.926,265.488,210.18,264.824,211.062"/>
	<rect x="51.414" y="282.474" style="fill:#FFFFFF;" width="265.672" height="12"/>
</g>
</svg>
