<?xml version="1.0" encoding="iso-8859-1"?>
<!-- Generator: Adobe Illustrator 25.4.1, SVG Export Plug-In . SVG Version: 6.00 Build 0)  -->
<svg version="1.1" id="Calque_1" xmlns="http://www.w3.org/2000/svg" xmlns:xlink="http://www.w3.org/1999/xlink" x="0px" y="0px"
	 viewBox="0 0 368.5 368.5" style="enable-background:new 0 0 368.5 368.5;" xml:space="preserve">
<g>
	<path style="fill:#FFFFFF;" d="M250.904,56.854c-2.535-0.035-4.615,1.992-4.65,4.527c-0.033,2.534,1.992,4.614,4.527,4.647
		c30.69,0.412,55.319,25.721,54.909,56.408c-0.034,2.535,1.994,4.615,4.525,4.648c2.535,0.034,4.617-1.99,4.649-4.525
		C315.344,86.813,286.651,57.334,250.904,56.854"/>
	<path style="fill:#FFFFFF;" d="M250.65,75.729c-2.534-0.033-4.616,1.99-4.648,4.527c-0.036,2.535,1.991,4.616,4.524,4.649
		c20.282,0.271,36.561,16.994,36.288,37.279c-0.034,2.533,1.994,4.613,4.525,4.647c2.534,0.035,4.618-1.991,4.65-4.524
		C296.33,96.965,275.989,76.069,250.65,75.729"/>
	<path style="fill:#FFFFFF;" d="M250.398,94.602c-2.535-0.033-4.617,1.994-4.65,4.527c-0.036,2.535,1.992,4.616,4.527,4.649
		c9.875,0.133,17.803,8.277,17.67,18.152c-0.035,2.533,1.99,4.613,4.525,4.649c2.531,0.033,4.614-1.993,4.649-4.526
		C277.32,107.118,265.332,94.803,250.398,94.602"/>
	<path style="fill:#FFFFFF;" d="M227.658,122.457H77.791c-13.322,0-24.161,10.838-24.161,24.162v140.865
		c0,13.323,10.839,24.162,24.161,24.162h149.867c13.322,0,24.16-10.839,24.16-24.162V146.619
		C251.818,133.295,240.98,122.457,227.658,122.457 M225.583,262.914c0,12.404-10.092,22.496-22.496,22.496H102.362
		c-12.405,0-22.496-10.092-22.496-22.496v-91.725c0-12.404,10.091-22.496,22.496-22.496h100.725
		c12.404,0,22.496,10.092,22.496,22.496V262.914z"/>
	<path style="fill:#FFFFFF;" d="M203.087,155.694h-89.652c-8.545,0-15.496,6.951-15.496,15.496v91.725
		c0,8.545,6.951,15.496,15.496,15.496h89.652c8.544,0,15.496-6.951,15.496-15.496V171.19
		C218.583,162.645,211.631,155.694,203.087,155.694"/>
	<path style="fill:#FFFFFF;" d="M90.938,171.19c0-5.318,1.859-10.209,4.957-14.064c-5.32,2.457-9.029,7.83-9.029,14.064v91.725
		c0,6.234,3.709,11.607,9.028,14.062c-3.097-3.853-4.956-8.744-4.956-14.062V171.19z"/>
</g>
</svg>
