<?xml version="1.0" encoding="iso-8859-1"?>
<!-- Generator: Adobe Illustrator 25.4.1, SVG Export Plug-In . SVG Version: 6.00 Build 0)  -->
<svg version="1.1" id="Calque_1" xmlns="http://www.w3.org/2000/svg" xmlns:xlink="http://www.w3.org/1999/xlink" x="0px" y="0px"
	 viewBox="0 0 368.5 368.5" style="enable-background:new 0 0 368.5 368.5;" xml:space="preserve">
<g>
	<path style="fill:#FFFFFF;" d="M121.635,217.808h-0.002v-11.987c0.001-0.213-0.038-0.434-0.112-0.661
		c-0.179,0.16-0.364,0.312-0.556,0.452c-1.493,1.096-3.37,1.68-5.396,1.685c-2.025-0.005-3.903-0.589-5.395-1.685
		c-0.132-0.096-0.258-0.204-0.385-0.311c-0.046,0.178-0.069,0.351-0.069,0.52l-0.002,11.987c0,0.729,0.393,1.543,1.449,2.33
		c1.039,0.761,2.667,1.327,4.509,1.323c1.846,0.004,3.472-0.562,4.513-1.323C121.243,219.351,121.635,218.537,121.635,217.808
		 M137.76,206c1.444-0.754,2.267-2.225,2.27-3.749c0-0.655-0.151-1.312-0.477-1.94l-0.001,0.002
		c-0.752-1.451-2.216-2.271-3.745-2.275c-0.656,0.003-1.31,0.153-1.94,0.48l-7.983,4.157c0.466,0.956,0.75,2.011,0.751,3.146v5.971
		L137.76,206z M154.92,261.671c0.209,0.283,0.379,0.601,0.498,0.946c0.595,2.125,4.213,5.358,10.33,7.573
		c6.051,2.264,14.255,3.71,23.25,3.705c13.919,0.067,26.017-3.606,30.992-7.922c1.676-1.405,2.477-2.733,2.705-3.768
		c0.079-0.35,0.222-0.703,0.406-1.012c3.905-6.541,7.849-14.056,10.995-22c4.804-12.066,7.84-31.779,9.537-50.722
		c1.719-18.97,2.187-37.291,2.184-47.024c0.009-6.941,0.851-13.596,1.961-19.384c-2.928,2.008-6.295,3.82-10.052,5.433
		c-12.704,5.437-29.826,8.684-48.727,8.695c-14.175-0.003-27.356-1.841-38.413-5.042c-8.188-2.386-15.218-5.478-20.66-9.28
		c1.128,5.832,1.99,12.56,1.998,19.578c-0.002,8.669,0.373,24.157,1.668,40.841c1.513,1.698,2.385,3.902,2.384,6.204
		c0,1.043-0.179,2.1-0.54,3.124l-0.002,0.009c-0.187,0.522-0.424,1.012-0.688,1.479c0.353-0.043,0.708-0.065,1.061-0.065
		c3.32-0.003,6.535,1.811,8.181,4.959v0.003c0.704,1.354,1.042,2.816,1.042,4.25c0.002,3.323-1.812,6.536-4.959,8.181l-3.094,1.61
		c1.682,10.533,3.875,20.136,6.669,27.151C146.867,247.328,150.922,255.022,154.92,261.671 M112.541,226.104v6.492
		c-0.002,0.17,0.078,0.47,0.605,0.875c0.509,0.385,1.396,0.713,2.423,0.708c1.027,0.005,1.916-0.323,2.426-0.708
		c0.526-0.406,0.607-0.705,0.604-0.875l0.001-6.447c-0.935,0.201-1.914,0.31-2.924,0.313
		C114.59,226.458,113.54,226.336,112.541,226.104 M112.541,193.373v6.743h-0.003v0.597c0.003,0.174,0.081,0.471,0.607,0.877
		c0.51,0.385,1.399,0.711,2.424,0.706c1.027,0.005,1.915-0.321,2.425-0.706c0.529-0.406,0.605-0.703,0.607-0.877h-0.002v-5.182
		L112.541,193.373z M236.292,251.521c-2.215,4.561-4.577,8.874-6.926,12.833c-0.796,2.751-2.589,5.056-4.866,6.974
		c-2.453,2.061-5.535,3.751-9.114,5.156c-7.152,2.79-16.33,4.405-26.388,4.409c-9.74-0.004-18.654-1.522-25.701-4.147
		c-6.761-2.59-12.099-6.041-14.296-11.338c-3.289-5.463-6.628-11.633-9.576-18.234l-37.52,20.232l96.743,30.223l67.947-36.642
		L236.292,251.521z M143.029,121.064c11.53,4.957,27.89,8.136,45.97,8.125c13.561,0.002,26.147-1.775,36.464-4.764
		c10.318-2.97,18.343-7.234,22.742-11.73c2.955-3.016,4.251-5.903,4.255-8.718c-0.004-2.817-1.3-5.704-4.255-8.719
		c-2.937-2.987-7.474-5.903-13.238-8.367c-5.85-2.516-12.954-4.565-20.883-5.979c-1.772,1.865-4.212,3.059-6.926,3.059
		c-0.109,0-0.187-0.004-0.285-0.006c-3.411-0.107-6.324-2.073-7.985-4.875c-1.426-0.095-2.87-0.165-4.326-0.22
		c1.124,2.171,3.322,5.33,4.597,7.23c1.173,1.793,1.822,3.703,2.025,5.505c2.294,0.875,4.283,2.041,5.815,3.728
		c1.181,1.305,2.084,3.105,2.077,5.125h0.003c0.004,2.019-0.899,3.819-2.08,5.125c-1.193,1.327-2.681,2.313-4.36,3.112
		c-3.358,1.582-7.573,2.431-12.209,2.443c-3.474-0.005-6.718-0.492-9.537-1.393c-2.811-0.919-5.233-2.182-7.031-4.162
		c-1.184-1.306-2.086-3.106-2.079-5.125c-0.007-2.02,0.895-3.82,2.079-5.125c1.193-1.328,2.679-2.313,4.357-3.114
		c1.083-0.511,2.264-0.934,3.51-1.287c0.304-1.692,1.013-3.451,2.165-5.09c1.341-1.861,3.652-4.95,4.843-7.075
		c-13.463,0.02-25.954,1.791-36.203,4.76c-10.319,2.971-18.344,7.235-22.742,11.731c-2.956,3.015-4.251,5.902-4.256,8.719
		c0.005,2.815,1.3,5.702,4.254,8.718C132.726,115.683,137.264,118.6,143.029,121.064 M104.557,185.218l20.626,7.352
		c0.488,0.171,0.979,0.252,1.459,0.252c1.777-0.002,3.448-1.101,4.079-2.868h-0.002c0.175-0.496,0.255-0.985,0.255-1.462
		c-0.002-1.777-1.102-3.451-2.877-4.079l-20.638-7.355c-0.484-0.173-0.966-0.254-1.449-0.254c-1.775,0.003-3.451,1.104-4.082,2.891
		c-0.172,0.476-0.252,0.959-0.252,1.443C101.678,182.914,102.781,184.59,104.557,185.218 M202.121,76.688
		c0.06,0.112,0.116,0.216,0.159,0.292c1.043,1.799,2.769,2.924,4.656,2.987c0.108,0,0.181,0.002,0.222,0.002
		c1.889,0,3.62-1.006,4.727-2.672c0.071-0.106,0.131-0.201,0.176-0.274c0.215-0.359,0.398-0.742,0.55-1.154
		c0.264-0.708,0.42-1.481,0.444-2.236c0-0.133,0.004-0.217,0.004-0.256c0.004-1.273-0.416-2.92-1.382-4.432
		c-1.026-1.646-2.794-4.137-4.122-6.565c-1.479,2.337-3.401,4.712-4.528,6.291c-1.114,1.519-1.638,3.235-1.674,4.583
		c0,0.014-0.003,0.074-0.003,0.172c0.003,0.853,0.149,1.661,0.417,2.429C201.861,76.138,201.984,76.421,202.121,76.688
		 M96.431,273.031v16.383l100.307,31.334v-16.383l-86.823-27.123L96.431,273.031z M201.74,303.917v15.761l70.329-37.928v-15.762
		L201.74,303.917z M185.97,60.939c0.061,0.11,0.12,0.215,0.157,0.278c0.979,1.627,2.533,2.612,4.264,2.671h0.072h0.055
		c0.016,0.003,0.022,0.003,0.022,0.003c1.735-0.003,3.325-0.937,4.343-2.507c0.07-0.113,0.127-0.205,0.163-0.261
		c0.194-0.342,0.359-0.697,0.494-1.085c0.233-0.651,0.367-1.359,0.381-2.114c-0.001-0.088,0.001-0.121-0.001-0.121
		c0.007-1.178-0.406-2.779-1.364-4.229c-0.747-1.138-1.931-2.826-3.042-4.566c-0.263-0.42-0.524-0.838-0.775-1.256
		c-0.265,0.409-0.54,0.818-0.818,1.228c-1.165,1.702-2.408,3.349-3.192,4.461v0.001c-1.033,1.451-1.5,3.089-1.512,4.269
		l-0.002,0.056v0.054c0,0.833,0.149,1.62,0.425,2.368C185.728,60.44,185.844,60.701,185.97,60.939 M195.817,88.293
		c-1.052-1.63-2.856-4.096-4.22-6.502c-1.444,2.358-3.332,4.763-4.435,6.358c-1.091,1.534-1.588,3.259-1.605,4.546l-0.005,0.121
		h0.002c0.003,0.892,0.163,1.737,0.454,2.534c0.099,0.279,0.224,0.556,0.371,0.83c0.06,0.109,0.116,0.213,0.159,0.289
		c1.062,1.772,2.79,2.868,4.727,2.915c0.015,0,0.029-0.001,0.04-0.001c0.047,0,0.072,0.002,0.075,0.002
		c1.92-0.002,3.667-1.037,4.772-2.751c0.071-0.112,0.129-0.201,0.166-0.267c0.211-0.366,0.389-0.752,0.533-1.166
		c0.249-0.7,0.395-1.457,0.41-2.259c-0.003-0.102,0.001-0.147,0.001-0.147C197.266,91.512,196.825,89.826,195.817,88.293"/>
</g>
</svg>
