<?xml version="1.0" encoding="iso-8859-1"?>
<!-- Generator: Adobe Illustrator 25.4.1, SVG Export Plug-In . SVG Version: 6.00 Build 0)  -->
<svg version="1.1" id="Calque_1" xmlns="http://www.w3.org/2000/svg" xmlns:xlink="http://www.w3.org/1999/xlink" x="0px" y="0px"
	 viewBox="0 0 368.5 368.5" style="enable-background:new 0 0 368.5 368.5;" xml:space="preserve">
<g>
	<path style="fill:#FFFFFF;" d="M237.993,166.018c3.676,0,7.258,0.608,10.637,1.763v-37.512h-13.016v35.844
		C236.403,166.056,237.194,166.018,237.993,166.018"/>
	<path style="fill:#FFFFFF;" d="M124.339,167.781c3.379-1.154,6.961-1.763,10.637-1.763c0.799,0,1.592,0.038,2.381,0.095v-35.844
		h-13.018V167.781z"/>
	<path style="fill:#FFFFFF;" d="M91.526,123.26h187.158c20.076,0,36.41-12.203,36.41-27.203v-3.934H55.118v3.934
		C55.118,111.057,71.45,123.26,91.526,123.26"/>
	<path style="fill:#FFFFFF;" d="M297.292,258.307c7.012-7.012,8.537-16.911,3.525-22.292l-25.82,25.819
		c2.051,1.91,4.815,2.928,8.031,2.928C287.991,264.762,293.192,262.41,297.292,258.307"/>
	<path style="fill:#FFFFFF;" d="M281.893,204.159c-1.115,0.176-2.248-0.183-3.043-0.979l-22.602-22.6
		c-4.877-4.876-11.359-7.562-18.255-7.562c-6.897,0-13.379,2.686-18.256,7.562c-10.067,10.065-10.067,26.444,0,36.512l22.601,22.602
		c0.799,0.797,1.162,1.93,0.979,3.043c-1.938,11.786,0.687,23.841,7.226,33.651l65-65c-7.64-5.088-16.73-7.855-25.99-7.855
		C286.994,203.533,284.416,203.744,281.893,204.159 M241.391,193.162c3.303,0,5.988,2.688,5.988,5.99s-2.685,5.989-5.988,5.989
		c-3.303,0-5.99-2.687-5.99-5.989S238.088,193.162,241.391,193.162"/>
	<path style="fill:#FFFFFF;" d="M72.153,236.016c-5.012,5.381-3.488,15.28,3.521,22.291c4.104,4.103,9.303,6.455,14.266,6.455h0.002
		c3.217,0,5.979-1.018,8.029-2.928L72.153,236.016z"/>
	<path style="fill:#FFFFFF;" d="M153.231,180.58c-4.875-4.876-11.359-7.562-18.256-7.562c-6.896,0-13.379,2.686-18.256,7.562
		l-22.599,22.6c-0.797,0.797-1.928,1.158-3.043,0.979c-2.524-0.415-5.102-0.626-7.662-0.626c-9.258,0-18.348,2.767-25.991,7.855
		l65,65c6.541-9.812,9.166-21.865,7.227-33.651c-0.184-1.113,0.18-2.246,0.979-3.043l22.601-22.602
		C163.298,207.024,163.298,190.645,153.231,180.58 M130.944,193.162c3.303,0,5.988,2.688,5.988,5.99s-2.685,5.989-5.988,5.989
		c-3.303,0-5.99-2.687-5.99-5.989S127.641,193.162,130.944,193.162"/>
	<path style="fill:#FFFFFF;" d="M130.944,201.141c1.096,0,1.988-0.892,1.988-1.988c0-1.098-0.892-1.991-1.988-1.991
		c-1.098,0-1.99,0.893-1.99,1.991C128.954,200.249,129.846,201.141,130.944,201.141"/>
	<path style="fill:#FFFFFF;" d="M241.391,201.141c1.096,0,1.988-0.892,1.988-1.988c0-1.098-0.892-1.991-1.988-1.991
		c-1.098,0-1.99,0.893-1.99,1.991C239.401,200.249,240.293,201.141,241.391,201.141"/>
</g>
</svg>
