<?xml version="1.0" encoding="iso-8859-1"?>
<!-- Generator: Adobe Illustrator 25.4.1, SVG Export Plug-In . SVG Version: 6.00 Build 0)  -->
<svg version="1.1" id="Calque_1" xmlns="http://www.w3.org/2000/svg" xmlns:xlink="http://www.w3.org/1999/xlink" x="0px" y="0px"
	 viewBox="0 0 368.5 368.5" style="enable-background:new 0 0 368.5 368.5;" xml:space="preserve">
<g>
	<path style="fill:#FFFFFF;" d="M305.441,178.19c-2.3-8.31-10.401-13.26-25.468-15.601c-1.268-0.189-2.516-0.371-3.764-0.546
		c-6.164-0.843-10.366-1.544-12.612-3.352c1.281-2.651,6.299-7.291,8.579-9.382c0.769-0.694,1.491-1.383,2.178-2.037
		c7.804-7.378,16.147-18.372,11.756-28.745c-0.998-2.347-5.112-9.962-16.457-9.49c-1.673,0.061-3.412,0.297-5.355,0.708
		c-3.426,0.715-7.5,1.774-11.83,2.88c-4.519,1.16-10.785,2.779-14.818,3.507c0.155-2.542,1.073-5.672,2.084-8.936l0.473-1.605
		l0.606-2.017c1.558-5.106,3.319-10.893,3.238-17.57c-0.088-6.805-2.873-10.865-5.194-13.078c-3.061-2.886-7.088-4.377-11.358-4.201
		c-6.285,0.256-11.607,4.114-14.939,7.284c-3.217,3.068-5.861,6.522-8.424,9.853c-3.102,4.061-6.596,8.62-9.388,9.692
		c-1.835-2.671-3.548-9.833-4.215-12.699l-0.183-0.749l-0.478-2.024c-1.188-5.308-2.84-12.599-7.804-18.575
		c-4.708-5.692-10.293-6.339-13.199-6.231c-4.816,0.202-13.497,2.853-17.422,18.331c-0.931,3.636-1.409,7.332-1.895,10.913
		c-0.614,4.876-1.396,10.886-3.271,13.072c-2.86-1.35-7.918-6.779-9.962-8.917l-1.221-1.302l-1.16-1.268
		c-3.925-4.215-9.273-10.008-17.185-12.221c-1.835-0.52-3.669-0.742-5.45-0.667c-4.957,0.208-9.361,2.656-12.127,6.731
		c-3.945,5.847-3.885,13.589,0.196,25.076c0.695,1.969,1.572,4.06,2.475,6.225c1.47,3.541,4.142,9.969,3.575,12.363
		c-0.088,0-0.203,0.027-0.323,0.034c-3.279,0.128-8.364-1.45-12.478-2.725c-1.005-0.304-1.969-0.607-2.86-0.863l-1.43-0.439
		c-3.946-1.2-9.334-2.846-15.142-2.617c-2.137,0.095-4.202,0.439-6.117,1.025c-5.45,1.68-9.51,5.814-10.859,11.055
		c-1.639,6.468,0.89,13.199,7.541,19.977c2.94,3.015,6.245,5.531,9.415,7.966c4.047,3.123,8.62,6.623,9.658,9.375
		c-2.657,1.801-9.725,3.467-12.545,4.134l-0.978,0.25l-1.962,0.431c-5.328,1.228-12.639,2.894-18.629,7.892
		c-4.95,4.155-7.095,10.103-5.807,15.91c1.599,7.109,7.622,12.06,17.867,14.703c3.675,0.951,7.372,1.444,10.946,1.903
		c5.106,0.68,10.852,1.443,12.943,3.385c-1.268,2.806-6.528,7.777-8.903,9.996l-1.106,1.045
		c-11.722,11.115-15.863,20.962-12.329,29.312c0.985,2.354,5.099,9.948,16.437,9.484c1.666-0.068,3.419-0.297,5.382-0.722
		c4.964-1.039,9.422-2.887,13.738-4.674c4.398-1.808,8.539-3.514,11.682-3.636c0.358-0.033,0.702-0.033,1.046,0.014
		c0.073,0.175,0.148,0.351,0.195,0.519c0.202,2.752-0.917,6.461-2.091,10.346l-0.458,1.572l-0.641,2.064
		c-1.544,5.092-3.285,10.872-3.231,17.522c0.082,6.806,2.887,10.872,5.214,13.098c3.041,2.88,7.075,4.371,11.351,4.188
		c6.313-0.249,11.601-4.1,14.946-7.277c3.211-3.075,5.868-6.522,8.418-9.874c3.089-4.04,6.596-8.6,9.381-9.685
		c1.848,2.704,3.541,9.867,4.229,12.72l0.169,0.742l0.478,2.024c1.201,5.314,2.846,12.598,7.791,18.574
		c4.714,5.693,10.312,6.347,13.213,6.232c4.802-0.202,13.496-2.84,17.427-18.319c0.938-3.634,1.417-7.358,1.862-10.926
		c0.634-4.829,1.389-10.703,3.224-12.983c0.991,0.479,3.453,1.909,7.365,6.03c0.324,0.337,0.769,0.863,1.329,1.477
		c8.079,9.159,16.132,17.36,25.973,16.963c4.236-0.196,8.154-1.976,11.027-5.073c9.551-10.312,2.705-25.346-1.389-34.316
		c-0.567-1.255-1.065-2.347-1.409-3.204c-1.39-3.621-1.721-6.434-1.646-7.891c0.202-0.034,0.432-0.047,0.701-0.047
		c2.55-0.108,6.07,0.951,9.807,2.077l2.05,0.608c0.823,0.242,1.694,0.532,2.617,0.829c4.58,1.497,10.266,3.352,16.497,3.089
		c2.22-0.094,4.358-0.452,6.341-1.059c5.76-1.774,9.826-6.178,10.899-11.79c2.138-11.081-7.446-19.788-21.225-30.903
		c-0.87-0.709-1.545-1.235-1.923-1.572c-1.861-1.679-2.859-3.257-3.21-4.108c1.693-1.618,6.367-2.744,9.833-3.567
		c1.12-0.284,2.314-0.513,3.534-0.742c6.26-1.288,14.07-2.88,20.471-8.242C304.988,190.505,307.126,184.253,305.441,178.19
		 M291.236,184.806c-4.829,4.053-12.558,4.816-18.568,6.259c-6.562,1.558-13.806,3.345-17.9,9.206
		c-5.24,7.42-0.371,15.85,5.524,21.138c3.001,2.705,25.508,19.242,17.206,21.812c-0.965,0.29-1.997,0.452-3.029,0.493
		c-4.924,0.202-10.447-2.078-14.845-3.393c-5.213-1.545-10.676-3.453-16.139-3.224c-1.444,0.067-2.901,0.276-4.351,0.674
		c-11.648,3.15-9.854,16.505-6.462,25.239c2.112,5.456,9.855,19.006,5.443,23.761c-0.526,0.567-1.173,0.837-1.902,0.857
		c-5.166,0.222-14.622-11.608-17.157-14.293c-4.533-4.775-11.271-10.669-18.022-10.386c-2.28,0.094-4.56,0.897-6.731,2.63
		c-8.856,7.116-7.534,21.368-10.091,31.43c-0.573,2.253-2.434,8.276-5.173,8.39c-0.789,0.034-1.625-0.39-2.516-1.47
		c-3.412-4.12-4.376-10.17-5.583-15.236c-2.159-9.024-5.464-24.26-16.99-23.788c-0.722,0.027-1.491,0.128-2.3,0.29
		c-11.325,2.32-17.132,15.722-24.875,23.101c-1.793,1.712-4.377,3.567-6.38,3.641c-1.571,0.061-2.778-1.005-2.819-4.255
		c-0.061-5.342,1.827-10.589,3.332-15.662c1.672-5.706,3.675-11.472,2.981-17.522c-0.385-3.278-4.169-11.985-8.984-11.789
		c-0.405,0.02-0.789,0.094-1.201,0.236c-1.571-0.304-3.142-0.405-4.687-0.338c-9.429,0.392-18.582,6.704-27.612,8.599
		c-1.235,0.25-2.293,0.399-3.191,0.446c-9.806,0.391,1.457-12.16,5.531-16.018c7.338-6.981,20.193-18.137,11.317-28.787
		c-7.203-8.64-21.016-7.318-30.984-9.901c-2.901-0.755-11.824-3.568-6.873-7.723c4.066-3.412,10.103-4.397,15.169-5.604
		c9.536-2.286,26.168-5.74,23.605-19.094c-2.164-11.277-15.384-17.125-22.783-24.692c-1.74-1.794-7.149-7.682-2.253-9.186
		c0.891-0.27,1.821-0.412,2.793-0.459c4.094-0.162,8.714,1.477,12.288,2.529c5.45,1.612,13.058,4.371,19.627,4.094
		c4.499-0.175,8.525-1.78,11.048-6.164c5.423-9.416-1.672-21.003-4.883-30.048c-0.769-2.138-4.863-13.981,0.027-14.177
		c0.384-0.02,0.843,0.027,1.349,0.182c4.937,1.377,8.964,6.286,12.342,9.847c5.315,5.639,13.382,14.927,21.711,14.589
		c2.286-0.094,4.614-0.93,6.893-2.765c8.856-7.095,7.547-21.36,10.097-31.417c0.567-2.259,2.428-8.269,5.18-8.383
		c0.769-0.034,1.618,0.384,2.509,1.464c3.399,4.12,4.37,10.184,5.571,15.229c2.172,9.03,5.47,24.267,16.989,23.801
		c0.736-0.034,1.505-0.134,2.3-0.303c11.345-2.314,17.146-15.708,24.875-23.08c1.807-1.72,4.384-3.589,6.367-3.676
		c1.605-0.06,2.792,1.038,2.839,4.269c0.047,5.363-1.801,10.589-3.325,15.681c-1.699,5.687-3.669,11.48-2.981,17.503
		c0.404,3.507,4.033,8.289,8.228,10.09c0.54,0.236,1.403,0.297,2.509,0.263c6.758-0.283,22.723-5.146,31.733-7.048
		c1.228-0.257,2.267-0.405,3.164-0.439c9.551-0.398-0.755,11.527-4.917,15.473c-6.967,6.589-19.465,16.47-13.631,27.316
		c5.976,8.774,16.72,9.145,26.277,10.609C280.431,176.018,298.069,179.087,291.236,184.806"/>
	<path style="fill:#FFFFFF;" d="M171.533,121.777c-35.929,1.477-63.939,31.922-62.469,67.844
		c1.484,35.922,31.916,63.959,67.837,62.476c35.922-1.477,63.967-31.93,62.483-67.845C237.9,148.33,207.468,120.287,171.533,121.777
		 M176.355,238.911c-28.651,1.173-52.925-21.172-54.112-49.823c-1.173-28.678,21.185-52.945,49.829-54.125
		c28.652-1.18,52.932,21.164,54.12,49.836C227.372,213.463,205.027,237.724,176.355,238.911"/>
	<path style="fill:#FFFFFF;" d="M318.62,67.962l-10.522,0.432v-0.007c-1.005,0.04-1.227-0.25-1.247-1.153l-0.446-10.529
		c-0.155-3.912-3.433-6.946-7.365-6.785c-3.892,0.156-6.933,3.46-6.792,7.365l0.452,10.529c0.034,0.904-0.148,1.214-1.14,1.254
		v0.007l-10.542,0.445c-3.912,0.149-6.94,3.433-6.792,7.345c0.176,3.892,3.461,6.934,7.366,6.765l10.697-0.432
		c0.89,0.007,1.039,0.297,1.086,1.16l0.438,10.542c0.162,3.905,3.44,6.927,7.365,6.765c3.898-0.149,6.947-3.446,6.785-7.345
		l-0.438-10.535c-0.034-0.864,0.114-1.181,0.992-1.268l10.696-0.425c3.912-0.169,6.947-3.446,6.785-7.365
		C325.85,70.829,322.545,67.8,318.62,67.962"/>
</g>
</svg>
