<?xml version="1.0" encoding="iso-8859-1"?>
<!-- Generator: Adobe Illustrator 25.4.1, SVG Export Plug-In . SVG Version: 6.00 Build 0)  -->
<svg version="1.1" id="Calque_1" xmlns="http://www.w3.org/2000/svg" xmlns:xlink="http://www.w3.org/1999/xlink" x="0px" y="0px"
	 viewBox="0 0 368.5 368.5" style="enable-background:new 0 0 368.5 368.5;" xml:space="preserve">
<polygon style="fill:#FFFFFF;" points="109.761,118.682 118.622,118.682 142.269,45.518 133.405,45.518 "/>
<polygon style="fill:#FFFFFF;" points="131.163,178.203 123.616,163.437 131.729,149.082 103.573,121.564 128.151,45.517 
	47.8,45.517 47.8,225.918 113.909,225.918 "/>
<polygon style="fill:#FFFFFF;" points="139.478,160.35 144.685,151.137 136.312,151.137 131.105,160.35 "/>
<polygon style="fill:#FFFFFF;" points="135.872,146.137 142.833,146.137 119.856,123.682 112.893,123.682 "/>
<polygon style="fill:#FFFFFF;" points="135.755,180.207 120.142,223.383 134.712,207.426 144.554,180.207 "/>
<polygon style="fill:#FFFFFF;" points="143.749,175.207 138.71,165.35 130.208,165.35 135.247,175.207 "/>
<g>
	<path style="fill:#FFFFFF;" d="M214.89,215.662v-52.041c0-8.67,13.787-15.289,32.439-15.807V45.517h-75.164l-9.373,29.004
		c5.477,4.301,6.967,12.159,3.239,18.203c-0.028,0.049-0.057,0.096-0.088,0.143l-0.041,0.076c-0.129,0.221-0.319,0.549-0.555,0.992
		c-0.455,0.854-1.143,2.225-1.838,3.92c-1.238,2.971-2.547,7.42-2.515,11.024c0,0.502,0.021,0.984,0.062,1.445
		c0.08,0.744,0.176,0.92,0.367,1.272c0.166,0.289,0.574,0.843,1.496,1.675c0.885,0.842,2.217,1.811,3.762,2.934
		c1.859,1.352,4.176,3.035,6.639,5.154c4.138,3.643,7.033,7.549,8.863,11.959c1.283,3.075,2.051,6.551,2.217,10.049
		c0.029,0.633,0.041,1.244,0.041,1.828c0.068,6.742-2.184,12.116-3.156,14.112c-0.793,1.621-1.436,2.818-1.903,3.693
		c-0.053,0.098-0.105,0.195-0.156,0.291c0.234,0.213,0.492,0.445,0.771,0.699l1.004,0.91c1.422,1.328,3.248,3.151,4.965,5.662
		c2.551,3.651,4.24,8.401,4.627,13.016c0.08,0.881,0.123,1.797,0.123,2.709c-0.127,9.016-3.519,15.977-6.82,21.604
		c-1.902,3.127-4.129,6.195-6.287,8.662l-0.069,0.078c-2.656,2.959-6.425,4.637-10.365,4.637c-1.367,0-2.709-0.21-3.996-0.596
		l-4.789,5.246h44.061C204.978,222.053,209.247,218.584,214.89,215.662"/>
	<path style="fill:#FFFFFF;" d="M316.345,226.576v15.447c2.824-2.513,4.355-5.156,4.355-7.724
		C320.7,231.73,319.169,229.088,316.345,226.576"/>
	<path style="fill:#FFFFFF;" d="M284.479,254.055c1.291-0.199,2.549-0.42,3.783-0.652v-38.205c-1.234-0.233-2.492-0.452-3.783-0.651
		V254.055z"/>
	<path style="fill:#FFFFFF;" d="M206.806,234.299c0,3.535,2.891,7.209,8.084,10.49v-20.98
		C209.697,227.092,206.806,230.766,206.806,234.299"/>
	<path style="fill:#FFFFFF;" d="M249.683,152.779c-17.053,0-29.793,5.725-29.793,10.842c0,5.119,12.74,10.844,29.793,10.844
		c17.055,0,29.797-5.725,29.797-10.844C279.48,158.504,266.738,152.779,249.683,152.779"/>
	<path style="fill:#FFFFFF;" d="M249.683,179.465c-12.939,0-23.803-2.898-29.793-7.422v20.992c0,5.119,12.74,10.842,29.793,10.842
		c17.055,0,29.797-5.723,29.797-10.842v-20.992C273.49,176.567,262.624,179.465,249.683,179.465"/>
	<path style="fill:#FFFFFF;" d="M279.479,201.453c-5.99,4.524-16.854,7.424-29.797,7.424c-12.941,0-23.805-2.9-29.793-7.424v46.037
		c10.106,4.713,25.445,8.094,43.861,8.094c5.543,0,10.801-0.311,15.729-0.867V201.453z"/>
	<path style="fill:#FFFFFF;" d="M311.511,196.971c0.299,0,0.58,0.07,0.834,0.187v-1.742c-0.043,0.055-0.09,0.106-0.135,0.16
		c-0.187,0.233-0.379,0.463-0.574,0.692c-0.07,0.08-0.139,0.16-0.209,0.238c-0.168,0.192-0.338,0.379-0.51,0.567
		C311.105,197.012,311.302,196.971,311.511,196.971"/>
	<path style="fill:#FFFFFF;" d="M311.511,217.406c-1.104,0-2-0.894-2-2v-0.88c0-1.106,0.896-2,2-2c0.298,0,0.58,0.068,0.834,0.185
		v-3.578c-0.254,0.117-0.536,0.186-0.834,0.186c-1.104,0-2-0.895-2-2v-0.881c0-1.104,0.896-2,2-2c0.298,0,0.58,0.07,0.834,0.187
		v-2.957c-0.254,0.117-0.536,0.186-0.834,0.186c-1.104,0-2-0.895-2-2v-0.883c0-0.192,0.037-0.375,0.088-0.551
		c-0.233,0.225-0.467,0.445-0.704,0.662c-0.031,0.03-0.062,0.057-0.093,0.086c-0.262,0.24-0.528,0.475-0.793,0.705
		c-0.049,0.043-0.098,0.086-0.147,0.127c-0.262,0.227-0.525,0.447-0.789,0.662c-0.033,0.03-0.066,0.057-0.102,0.084
		c-0.91,0.742-1.818,1.424-2.685,2.039c-0.027,0.02-0.055,0.037-0.082,0.057c-0.264,0.186-0.523,0.365-0.777,0.539
		c-0.028,0.018-0.055,0.035-0.081,0.055c-0.833,0.562-1.611,1.056-2.302,1.476c-0.031,0.02-0.061,0.037-0.094,0.057
		c-0.186,0.113-0.365,0.221-0.537,0.322c-0.049,0.028-0.098,0.057-0.145,0.084c-0.158,0.092-0.306,0.178-0.449,0.26
		c-0.039,0.021-0.078,0.045-0.117,0.066c-0.172,0.1-0.338,0.192-0.486,0.274v44.728c5.255-1.642,9.681-3.607,13.129-5.746v-7.209
		c-0.254,0.117-0.536,0.186-0.834,0.186c-1.104,0-2-0.895-2-2v-0.881c0-1.104,0.896-2,2-2c0.298,0,0.58,0.07,0.834,0.187v-6.689
		c-0.254,0.117-0.536,0.186-0.834,0.186c-1.104,0-2-0.895-2-2v-0.883c0-1.104,0.896-2,2-2c0.298,0,0.58,0.07,0.834,0.187v-4.82
		C312.091,217.338,311.809,217.406,311.511,217.406 M304.534,203.949c0-1.103,0.895-2,2-2c1.104,0,2,0.897,2,2v0.881
		c0,1.106-0.896,2-2,2c-1.105,0-2-0.894-2-2V203.949z M306.534,209.412c1.104,0,2,0.897,2,2v0.883c0,1.106-0.896,2-2,2
		c-1.105,0-2-0.894-2-2v-0.883C304.534,210.309,305.429,209.412,306.534,209.412 M300.181,210.43v-0.883c0-1.103,0.894-2,2-2
		c1.103,0,2,0.897,2,2v0.883c0,1.105-0.897,2-2,2C301.075,212.43,300.181,211.535,300.181,210.43 M300.181,217.895v-0.883
		c0-1.104,0.894-2,2-2c1.103,0,2,0.896,2,2v0.883c0,1.105-0.897,2-2,2C301.075,219.895,300.181,219,300.181,217.895
		 M304.181,235.313c0,1.105-0.897,2-2,2c-1.106,0-2-0.895-2-2v-0.883c0-1.104,0.894-2,2-2c1.103,0,2,0.896,2,2V235.313z
		 M304.181,225.983c0,1.105-0.897,2-2,2c-1.106,0-2-0.895-2-2v-0.885c0-1.104,0.894-2,2-2c1.103,0,2,0.896,2,2V225.983z
		 M308.534,240.91c0,1.106-0.896,2-2,2c-1.105,0-2-0.894-2-2v-0.881c0-1.103,0.895-2,2-2c1.104,0,2,0.897,2,2V240.91z
		 M308.534,229.713c0,1.106-0.896,2-2,2c-1.105,0-2-0.894-2-2v-0.881c0-1.103,0.895-2,2-2c1.104,0,2,0.897,2,2V229.713z
		 M306.534,222.383c-1.105,0-2-0.896-2-2V219.5c0-1.103,0.895-2,2-2c1.104,0,2,0.897,2,2v0.883
		C308.534,221.487,307.638,222.383,306.534,222.383"/>
	<path style="fill:#FFFFFF;" d="M292.263,252.572c1.008-0.23,1.99-0.473,2.953-0.725v-47.074c0-0.756,0.428-1.449,1.104-1.787
		c0.172-0.086,17.111-8.703,16.037-18.602c-0.795-7.31-12.996-14.179-20.094-17.332V252.572z"/>
	<path style="fill:#FFFFFF;" d="M320.7,247.588c-10.408,9.066-31.494,14.996-56.949,14.996s-46.539-5.928-56.946-14.996v53.398
		c0,10.069,23.387,21.288,56.946,21.288c33.56,0,56.949-11.219,56.949-21.288V247.588z"/>
	<path style="fill:#FFFFFF;" d="M177.751,182.5c2.955,2.697,4.682,6.383,4.863,10.379c0.182,3.996-1.203,7.824-3.9,10.779
		l-12.391,13.571c0.282,0.025,0.567,0.039,0.852,0.039c2.806,0,5.49-1.196,7.363-3.28l0.059-0.068
		c2.011-2.301,4.093-5.17,5.865-8.082c3.174-5.408,6.141-11.545,6.254-19.578c0-0.764-0.037-1.559-0.108-2.332
		c-0.33-3.949-1.763-7.987-3.931-11.09c-1.51-2.207-3.135-3.828-4.385-4.996l-0.978-0.887c-0.829-0.748-1.469-1.328-1.893-1.725
		c-0.551-0.515-0.764-1.296-0.553-2.021c0.006-0.02,0.018-0.061,0.028-0.09c0.138-0.474,0.421-1.004,0.959-2.008
		c0.455-0.847,1.076-2.007,1.835-3.558c0.846-1.737,2.811-6.426,2.75-12.336c0-0.543-0.009-1.09-0.037-1.658
		c-0.144-3.041-0.806-6.049-1.914-8.704c-1.592-3.835-4.142-7.261-7.797-10.478c-2.322-1.998-4.468-3.561-6.365-4.938
		c-1.656-1.205-3.09-2.246-4.129-3.234c-1.033-0.934-1.787-1.816-2.267-2.66c-0.453-0.828-0.715-1.51-0.856-2.828
		c-0.056-0.613-0.082-1.215-0.082-1.822c-0.031-3.555,1.024-8.26,2.821-12.569c0.753-1.84,1.505-3.34,2.003-4.273
		c0.272-0.51,0.491-0.889,0.621-1.112l0.125-0.21c0.008-0.012,0.014-0.022,0.02-0.032l0.004-0.008
		c0.002-0.003,0.004-0.005,0.006-0.009c0.002-0.002,0.002-0.004,0.004-0.006c2.873-4.606,1.478-10.705-3.114-13.602
		c-1.584-0.998-3.404-1.527-5.267-1.527c-3.422,0-6.551,1.724-8.373,4.613c-0.539,0.867-2.434,4.033-4.344,8.688
		c-1.822,4.509-4.256,11.504-4.289,20.054c0,1.188,0.055,2.393,0.162,3.577c0.443,5.548,2.809,11.105,6.492,15.267
		c2.467,2.854,5.049,4.881,7.278,6.559l1.293,0.947c3.004,2.195,5.173,3.783,6.337,5.082c0.633,0.678,1.061,1.273,1.356,1.902
		c0.287,0.659,0.451,1.207,0.514,2.233c0.009,0.242,0.017,0.486,0.017,0.726c-0.015,1.393-0.185,2.063-0.388,2.739
		c-0.225,0.769-0.666,1.599-1.543,3.252c-0.278,0.517-0.598,1.121-0.967,1.83c-0.887,1.685-2.938,6.168-2.875,11.461
		c0,0.23,0.004,0.392,0.006,0.505l0.004,0.141c0.029,4.49,2.007,8.654,3.693,10.861c1.195,1.614,2.355,2.787,3.371,3.743
		c1.793-0.737,3.723-1.143,5.697-1.143C171.401,178.584,174.985,179.975,177.751,182.5"/>
	<path style="fill:#FFFFFF;" d="M118.548,267.498l-1.562-1.426c-1.426-1.303-1.528-3.517-0.225-4.945l56.783-62.19
		c1.438-1.572,2.176-3.611,2.078-5.74c-0.097-2.129-1.017-4.092-2.59-5.527c-1.474-1.346-3.382-2.086-5.375-2.086
		c-2.238,0-4.386,0.945-5.894,2.598l-56.783,62.189c-1.303,1.426-3.518,1.525-4.944,0.225l-1.562-1.426l-46.617,51.057
		c-2.45,2.679-3.705,6.154-3.541,9.781c0.164,3.627,1.732,6.972,4.412,9.42c2.509,2.291,5.763,3.554,9.16,3.554
		c3.812,0,7.474-1.613,10.045-4.427L118.548,267.498z"/>
</g>
</svg>
