<?xml version="1.0" encoding="iso-8859-1"?>
<!-- Generator: Adobe Illustrator 25.4.1, SVG Export Plug-In . SVG Version: 6.00 Build 0)  -->
<svg version="1.1" id="Calque_1" xmlns="http://www.w3.org/2000/svg" xmlns:xlink="http://www.w3.org/1999/xlink" x="0px" y="0px"
	 viewBox="0 0 368.5 368.5" style="enable-background:new 0 0 368.5 368.5;" xml:space="preserve">
<g>
	<path style="fill:#FFFFFF;" d="M45.956,253.846c0.273,0.059,0.539,0.166,0.752,0.379l68.4,68.4
		c0.176,0.176,0.282,0.387,0.352,0.608h46.674L68.579,229.68c-0.029-0.029-0.041-0.07-0.066-0.101H45.956V253.846z"/>
	<path style="fill:#FFFFFF;" d="M230.426,318.738c-0.764-0.685-1.502-1.4-2.211-2.146c-1.988-0.975-4.85-1.868-6.853-2.491
		c-2.311-0.718-4.493-1.398-6.043-2.187c-4.946-2.516-10.26-6.489-7.432-14.951c0.893-2.67-1.098-4.039-5.852-6.524
		c-2.181-1.14-4.435-2.318-6.134-3.922c-5.395-5.099-3.135-14.072,1.73-19.925c0.404-0.487,0.518-0.959,0.379-1.584
		c-0.703-3.178-7.275-8.043-12.961-10.729c-1.789-0.846-2.947-2.033-3.443-3.531c-0.91-2.744,0.662-5.695,2.181-8.549
		c0.823-1.545,1.674-3.141,2.09-4.604c0.211-0.742,0.121-1.355-0.295-1.992c-1.656-2.537-7.953-4.787-16.857-6.025H72.719
		l92.389,92.387c0.345,0.347,0.463,0.818,0.398,1.267h10.275l-66.8-66.801c-0.586-0.586-0.586-1.535,0-2.121s1.535-0.586,2.121,0
		l68.672,68.672c0.074,0.074,0.111,0.166,0.166,0.25h48.103c0.887-1.556,1.662-3.004,2.309-4.314
		C230.387,318.847,230.406,318.793,230.426,318.738"/>
	<polygon style="fill:#FFFFFF;" points="45.956,257.715 45.956,323.233 111.474,323.233 	"/>
	<path style="fill:#FFFFFF;" d="M48.013,118.871c8.184,11.279,36.648,19.871,69.395,19.871c32.746,0,61.21-8.592,69.394-19.871
		v-6.877c0-10.09-5.127-19.004-12.91-24.277c-2.301,13.133-30.176,20.199-56.484,20.199c-26.311,0-54.184-7.066-56.485-20.199
		c-7.785,5.273-12.91,14.187-12.91,24.277V118.871z"/>
	<path style="fill:#FFFFFF;" d="M186.801,171.359c-11.611,10.725-37.977,18.049-69.395,18.049s-57.783-7.324-69.394-18.049v8.66
		c0,12.979,8.701,24.553,21.162,28.151c0.199,0.056,0.395,0.132,0.582,0.224c11.609,5.75,29.211,9.049,48.289,9.049
		c20.527,0,39.506-3.875,50.77-10.363c0.113-0.067,0.232-0.125,0.351-0.178c3.412-1.484,6.436-3.568,8.977-6.094
		c0.762-7.91,3.887-15.138,8.658-20.972V171.359z"/>
	<path style="fill:#FFFFFF;" d="M117.407,185.408c32.746,0,61.211-8.594,69.395-19.871v-40.844
		c-11.612,10.725-37.977,18.049-69.395,18.049s-57.783-7.324-69.395-18.049v40.844C56.196,176.814,84.661,185.408,117.407,185.408"
		/>
	<path style="fill:#FFFFFF;" d="M67.76,60.297c0.146,6.217,19.104,14.889,49.646,14.889c30.766,0,49.657-8.713,49.657-14.959
		s-18.891-14.959-49.657-14.959c-30.742,0-49.628,8.701-49.656,14.945C67.752,60.242,67.76,60.268,67.76,60.297"/>
	<path style="fill:#FFFFFF;" d="M167.063,71.229c-0.088,0.06-0.184,0.121-0.273,0.182v15.863c0.175-0.447,0.273-0.889,0.273-1.318
		V71.229z"/>
	<path style="fill:#FFFFFF;" d="M162.79,73.744c-0.818,0.412-1.676,0.81-2.563,1.193v18.102c0.946-0.498,1.807-1.004,2.563-1.514
		V73.744z"/>
	<path style="fill:#FFFFFF;" d="M71.817,91.379c0.754,0.521,1.607,1.041,2.561,1.551V74.983c-0.891-0.389-1.743-0.793-2.561-1.211
		V91.379z"/>
	<path style="fill:#FFFFFF;" d="M67.751,85.955c0,0.209,0.023,0.42,0.066,0.635V71.4c-0.021-0.013-0.045-0.027-0.066-0.043V85.955z"
		/>
	<path style="fill:#FFFFFF;" d="M83.45,78.102c-1.768-0.482-3.457-1.01-5.072-1.576V94.78c1.535,0.621,3.23,1.215,5.072,1.773
		V78.102z"/>
	<path style="fill:#FFFFFF;" d="M156.227,76.488c-1.615,0.562-3.313,1.084-5.072,1.565v18.562c1.84-0.553,3.533-1.139,5.072-1.752
		V76.488z"/>
	<path style="fill:#FFFFFF;" d="M134.997,81.135c-3.057,0.371-6.178,0.643-9.316,0.818V100.7c3.277-0.176,6.38-0.458,9.316-0.819
		V81.135z"/>
	<path style="fill:#FFFFFF;" d="M147.155,79.055c-2.621,0.596-5.354,1.107-8.158,1.535v18.731c2.926-0.461,5.65-1.006,8.158-1.619
		V79.055z"/>
	<path style="fill:#FFFFFF;" d="M121.68,82.121c-1.426,0.041-2.852,0.065-4.273,0.065c-1.495,0-2.989-0.03-4.481-0.071v18.733
		c1.467,0.041,2.955,0.068,4.481,0.068c1.453,0,2.873-0.025,4.273-0.062V82.121z"/>
	<path style="fill:#FFFFFF;" d="M95.61,80.617c-2.818-0.422-5.543-0.938-8.16-1.527v18.558c2.506,0.619,5.23,1.172,8.16,1.639
		V80.617z"/>
	<path style="fill:#FFFFFF;" d="M108.926,81.947c-3.15-0.172-6.27-0.434-9.316-0.795v18.703c2.933,0.367,6.039,0.651,9.316,0.832
		V81.947z"/>
	<path style="fill:#FFFFFF;" d="M286.61,154.408c-1.496-0.305-2.943-0.742-4.332-1.301c-0.75,2.528-1.488,5.024-1.947,6.615
		c-0.342,1.229-1.104,2.584-2.032,3.59c-1.242,1.325-2.648,2.16-4.443,2.651c-2.58,0.685-5.57,0.494-9.051-0.524
		c-6.23-1.832-14.615-3.949-21.994-5.779c-2.131-0.529-4.182-1.033-6.07-1.498l-3.951-0.973c-3.231-0.801-5.129-1.287-5.973-1.533
		c-1.775-0.516-3.609-0.559-5.264-0.115c-1.982,0.515-3.855,1.779-5.299,3.562c-1.386,1.705-2.486,3.858-3.355,6.559
		c1.387-0.15,2.795-0.231,4.221-0.231c0.22,0,0.437,0.02,0.658,0.024c0.695-1.705,1.422-2.817,1.978-3.49
		c0.907-1.067,1.715-1.651,2.731-1.987c0.082-0.027,0.185-0.058,0.269-0.078c0.877-0.221,1.752-0.191,2.778,0.094
		c1.256,0.359,3.369,0.891,6.166,1.58l3.9,0.963c8.561,2.105,20.285,4.992,27.928,7.24c4.246,1.252,8.166,1.445,11.465,0.567
		c2.582-0.68,4.943-2.098,6.66-3.999c1.43-1.58,2.445-3.388,3.025-5.38C284.981,159.918,285.549,157.974,286.61,154.408"/>
	<path style="fill:#FFFFFF;" d="M285.376,275.243c-0.686-1.375-1.457-2.686-2.309-3.924c-5.955-8.678-15.748-13.908-26.492-13.908
		c-17.734,0-32.162,14.427-32.162,32.16c0,0.59,0.017,1.177,0.049,1.761c0.011,0.217,0.033,0.432,0.048,0.649
		c0.028,0.361,0.055,0.724,0.094,1.084c0.028,0.265,0.065,0.529,0.1,0.795c0.041,0.304,0.082,0.609,0.131,0.91
		c0.047,0.289,0.099,0.574,0.154,0.861c0.053,0.276,0.107,0.551,0.168,0.824c0.064,0.297,0.133,0.594,0.205,0.889
		c0.064,0.262,0.137,0.522,0.209,0.783c0.08,0.297,0.162,0.594,0.254,0.887c0.08,0.266,0.172,0.529,0.26,0.793
		c0.095,0.281,0.185,0.564,0.289,0.842c0.129,0.353,0.271,0.703,0.414,1.051c0.074,0.179,0.14,0.363,0.217,0.541l0.668,1.441
		c0.085,0.143,0.158,0.291,0.222,0.447c5.524,10.864,16.485,17.604,28.68,17.604c17.732,0,32.16-14.428,32.16-32.162
		C288.735,284.536,287.604,279.713,285.376,275.243 M256.575,314.846c-13.938,0-25.275-11.338-25.275-25.275
		c0-13.936,11.337-25.274,25.275-25.274c13.935,0,25.273,11.338,25.273,25.274C281.848,303.508,270.51,314.846,256.575,314.846"/>
	<path style="fill:#FFFFFF;" d="M217.12,172.432c-17.734,0-32.162,14.426-32.162,32.16c0,4.477,0.9,8.809,2.68,12.875l30.355,65.367
		c3.201-18.394,19.283-32.423,38.582-32.423c7.105,0,13.869,1.878,19.729,5.287l-29.872-64.358
		C241.214,179.844,229.712,172.432,217.12,172.432"/>
	<path style="fill:#FFFFFF;" d="M256.575,271.297c-10.078,0-18.275,8.197-18.275,18.273c0,10.079,8.197,18.276,18.275,18.276
		c10.076,0,18.273-8.197,18.273-18.276C274.848,279.494,266.651,271.297,256.575,271.297"/>
	<path style="fill:#FFFFFF;" d="M308.303,45.849c-1.147-0.227-2.313-0.342-3.467-0.342c-8.398,0-15.683,5.99-17.326,14.244
		l-13.31,67.03c-0.92,4.633,0.019,9.347,2.646,13.273c2.625,3.928,6.621,6.596,11.256,7.518c1.146,0.226,2.312,0.342,3.468,0.342
		c8.397,0,15.682-5.991,17.323-14.245l13.31-67.029C324.102,57.078,317.866,47.75,308.303,45.849"/>
</g>
</svg>
