<?xml version="1.0" encoding="iso-8859-1"?>
<!-- Generator: Adobe Illustrator 25.4.1, SVG Export Plug-In . SVG Version: 6.00 Build 0)  -->
<svg version="1.1" id="Calque_1" xmlns="http://www.w3.org/2000/svg" xmlns:xlink="http://www.w3.org/1999/xlink" x="0px" y="0px"
	 viewBox="0 0 368.5 368.5" style="enable-background:new 0 0 368.5 368.5;" xml:space="preserve">
<g>
	<path style="fill:#FFFFFF;" d="M106.257,172.774h51.809v106.321c0,4.165,3.375,7.547,7.544,7.547c4.167,0,7.545-3.382,7.545-7.547
		V172.774h52.314c-4.111-4.835-7.863-9.871-11.293-15.089h-41.021V51.365c0-4.166-3.378-7.546-7.545-7.546
		c-4.169,0-7.544,3.38-7.544,7.546v106.32h-40.515C114.12,162.903,110.368,167.939,106.257,172.774"/>
	<path style="fill:#FFFFFF;" d="M252.766,282.861c1.736,0.987,3.369,1.912,5.179,1.912c1.818,0,3.46-0.931,5.2-1.92
		c1.983-1.119,4-2.261,6.587-2.261c2.595,0,4.627,1.153,6.593,2.265c1.76,0.997,3.385,1.916,5.189,1.916
		c1.524,0,2.921-0.648,4.35-1.441v-52.971c-1.647,0.631-3.426,0.993-5.294,0.993h-25.303c-0.354,0-0.703-0.027-1.051-0.053
		c-14.58,9.956-22.538,27.824-22.978,52.656c0.975,0.461,2.027,0.816,3.145,0.816c1.817,0,3.455-0.931,5.189-1.916
		c1.959-1.117,3.988-2.265,6.596-2.265C248.762,280.592,250.802,281.745,252.766,282.861"/>
	<path style="fill:#FFFFFF;" d="M77.474,231.276c-0.496,0.053-1.007,0.08-1.522,0.08H50.644c-1.675,0-3.277-0.295-4.779-0.808
		v52.785c1.431,0.786,2.824,1.44,4.35,1.44c1.81,0,3.451-0.932,5.195-1.915c1.973-1.121,3.993-2.267,6.587-2.267
		c2.589,0,4.628,1.155,6.598,2.269c1.748,0.992,3.375,1.913,5.187,1.913c1.808,0,3.453-0.932,5.188-1.915
		c1.964-1.114,3.992-2.267,6.591-2.267c2.604,0,4.639,1.155,6.601,2.269c1.73,0.99,3.367,1.913,5.186,1.913
		c1.116,0,2.162-0.354,3.14-0.815C100.049,259.104,92.079,241.229,77.474,231.276"/>
	<path style="fill:#FFFFFF;" d="M45.698,202.685c1.551-0.553,3.209-0.871,4.945-0.871h12.226
		c49.949-32.549,74.308-78.26,74.308-139.156c0-6.528-0.309-13.297-0.908-20.132H45.698V202.685z"/>
	<path style="fill:#FFFFFF;" d="M42.342,216.586c0,4.579,3.723,8.303,8.301,8.303h25.309c4.578,0,8.305-3.724,8.305-8.303
		c0-4.581-3.727-8.305-8.305-8.305H50.643C46.065,208.281,42.342,212.005,42.342,216.586"/>
	<path style="fill:#FFFFFF;" d="M288.877,216.586c0-4.581-3.729-8.305-8.307-8.305h-25.304c-4.576,0-8.304,3.724-8.304,8.305
		c0,4.579,3.728,8.302,8.304,8.302h25.304C285.148,224.888,288.877,221.165,288.877,216.586"/>
</g>
<path style="fill:#FFFFFF;" d="M314.712,323.836c4.223,0.492,7.326-0.19,9.216-2.04c1.942-1.899,2.715-5.103,2.297-9.521
	c-0.231-2.452-0.685-4.629-1.258-7.387c-1.557-7.485-3.909-18.798-3.706-48.176c0.198-28.578,2.385-42.081,3.831-51.017
	c0.549-3.395,0.983-6.075,1.127-8.573c0.244-4.222-1.509-6.899-3.023-8.401c-2.205-2.191-5.501-3.418-8.587-3.224
	c-1.517,0.099-3.345,0.566-5.874,1.213c-7.378,1.886-21.109,5.396-51.817,5.396c-30.022,0-41.238-2.8-49.428-4.845
	c-3.026-0.756-5.641-1.408-8.65-1.775c-4.231-0.518-7.307,0.093-9.125,1.82c-1.905,1.809-2.705,5.103-2.377,9.791
	c0.158,2.248,0.816,4.391,1.727,7.355c2.343,7.628,6.263,20.394,6.264,52.548c0.001,33.63-3.841,43.541-6.383,50.1
	c-0.763,1.967-1.364,3.521-1.624,5.277c-0.466,3.161,0.358,6.074,2.321,8.203c2.162,2.343,5.474,3.505,9.309,3.244
	c2.924-0.19,7.195-1.45,11.717-2.784c3.175-0.938,6.626-1.956,10.106-2.757c-5.693-3.543-8.294-6.587-8.323-6.624
	c-1.712-1.933-1.526-5.011,0.477-6.789c0.896-0.79,2.039-1.223,3.223-1.223c1.392,0,2.72,0.596,3.643,1.636l0.031,0.035
	c0.094,0.097,0.195,0.201,0.332,0.333c0.322,0.313,0.853,0.805,1.615,1.43c1.394,1.14,3.753,2.87,7.07,4.636
	c8.757,4.644,19.225,7.093,31.11,7.278c0.528,0.011,1.048,0.028,1.567,0.012c26.358,0,42.09-10.134,43.797-11.289l0.1-0.068
	c1.059-0.754,2.346-1.05,3.628-0.835c0.498,0.084,0.972,0.241,1.409,0.464h1.593l-0.699,0.59c0.317,0.266,0.604,0.573,0.85,0.919
	c0.755,1.059,1.052,2.349,0.837,3.631c-0.216,1.28-0.917,2.398-1.974,3.15c-0.167,0.119-3.334,2.355-9.11,4.942
	c1.323,0.383,2.535,0.764,3.682,1.123C308.72,322.607,311.389,323.445,314.712,323.836z"/>
<g>
	<path style="fill:#FFFFFF;" d="M250.231,188.056c2.121,0.033,4.338,0.052,6.686,0.052c12.303,0,21.736-0.548,29.117-1.33V42.527
		h-90.571c-0.604,6.829-0.912,13.6-0.912,20.134C194.551,115.419,212.859,156.777,250.231,188.056z"/>
</g>
</svg>
