<?xml version="1.0" encoding="iso-8859-1"?>
<!-- Generator: Adobe Illustrator 25.4.1, SVG Export Plug-In . SVG Version: 6.00 Build 0)  -->
<svg version="1.1" id="Calque_1" xmlns="http://www.w3.org/2000/svg" xmlns:xlink="http://www.w3.org/1999/xlink" x="0px" y="0px"
	 viewBox="0 0 368.5 368.5" style="enable-background:new 0 0 368.5 368.5;" xml:space="preserve">
<g>
	<path style="fill:#FFFFFF;" d="M116.03,193.675h59.569v122.247c0,4.789,3.881,8.677,8.675,8.677c4.791,0,8.674-3.888,8.674-8.677
		V193.675H253.1c-4.728-5.559-9.042-11.35-12.986-17.349h-47.166V54.08c0-4.79-3.883-8.677-8.674-8.677
		c-4.794,0-8.675,3.887-8.675,8.677v122.246h-46.584C125.071,182.325,120.757,188.116,116.03,193.675"/>
	<path style="fill:#FFFFFF;" d="M284.483,320.253c1.997,1.135,3.874,2.199,5.955,2.199c2.09,0,3.978-1.071,5.978-2.209
		c2.28-1.286,4.6-2.599,7.575-2.599c2.983,0,5.32,1.326,7.58,2.604c2.024,1.147,3.892,2.204,5.966,2.204
		c1.753,0,3.359-0.746,5.002-1.658v-60.905c-1.894,0.726-3.939,1.142-6.087,1.142h-29.094c-0.406,0-0.808-0.031-1.208-0.062
		c-16.764,11.449-25.914,31.992-26.42,60.544c1.121,0.53,2.331,0.939,3.616,0.939c2.09,0,3.973-1.071,5.966-2.204
		c2.253-1.284,4.586-2.604,7.584-2.604C279.879,317.644,282.225,318.97,284.483,320.253"/>
	<path style="fill:#FFFFFF;" d="M217.549,67.068c0,70.012,28.017,122.574,85.441,159.997h13.464c2.219,0,4.337,0.442,6.281,1.223
		V43.918H218.597C217.904,51.77,217.549,59.555,217.549,67.068"/>
	<path style="fill:#FFFFFF;" d="M82.934,260.94c-0.57,0.06-1.158,0.092-1.75,0.092H52.086c-1.927,0-3.769-0.339-5.496-0.929v60.692
		c1.646,0.904,3.247,1.655,5.002,1.655c2.081,0,3.968-1.071,5.973-2.201c2.268-1.289,4.592-2.607,7.573-2.607
		c2.978,0,5.322,1.328,7.587,2.609c2.01,1.14,3.881,2.199,5.964,2.199c2.079,0,3.97-1.071,5.965-2.201
		c2.258-1.282,4.59-2.607,7.579-2.607c2.994,0,5.333,1.328,7.589,2.609c1.989,1.138,3.871,2.199,5.964,2.199
		c1.282,0,2.485-0.406,3.609-0.936C108.891,292.937,99.728,272.383,82.934,260.94"/>
	<path style="fill:#FFFFFF;" d="M46.399,228.067c1.784-0.635,3.69-1.002,5.685-1.002h14.058c57.431-37.424,85.438-89.982,85.438-160
		c0-7.506-0.354-15.289-1.043-23.148H46.399V228.067z"/>
	<path style="fill:#FFFFFF;" d="M42.54,244.05c0,5.264,4.28,9.547,9.545,9.547h29.099c5.265,0,9.55-4.283,9.55-9.547
		c0-5.267-4.285-9.549-9.55-9.549H52.085C46.82,234.501,42.54,238.783,42.54,244.05"/>
	<path style="fill:#FFFFFF;" d="M326.004,244.05c0-5.267-4.288-9.549-9.552-9.549h-29.094c-5.261,0-9.548,4.282-9.548,9.549
		c0,5.264,4.287,9.546,9.548,9.546h29.094C321.716,253.596,326.004,249.314,326.004,244.05"/>
</g>
</svg>
