<?xml version="1.0" encoding="iso-8859-1"?>
<!-- Generator: Adobe Illustrator 25.4.1, SVG Export Plug-In . SVG Version: 6.00 Build 0)  -->
<svg version="1.1" id="Calque_1" xmlns="http://www.w3.org/2000/svg" xmlns:xlink="http://www.w3.org/1999/xlink" x="0px" y="0px"
	 viewBox="0 0 368.5 368.5" style="enable-background:new 0 0 368.5 368.5;" xml:space="preserve">
<g>
	<path style="fill:#FFFFFF;" d="M150.826,274.028c4.267,1.664,8.472,3.062,13.492,3.062c5.832,0,10.582-1.894,15.601-3.905
		c4.86-1.942,9.882-3.957,15.85-3.957c5.97,0,10.992,2.015,15.845,3.955c5.037,2.017,9.776,3.907,15.601,3.907
		c5.819,0,10.549-1.888,15.56-3.883c4.905-1.964,9.921-3.979,15.889-3.979c5.972,0,10.989,2.015,15.842,3.955
		c5.046,2.017,9.787,3.907,15.61,3.907c5.011,0,9.221-1.4,13.493-3.064V74.129h-10.606v6.926c0,7.034-5.725,12.756-12.761,12.756
		c-7.037,0-12.759-5.722-12.759-12.756v-6.926h-27.505v6.926c0,7.034-5.728,12.756-12.763,12.756s-12.757-5.722-12.757-12.756
		v-6.926h-27.504v6.926c0,7.034-5.726,12.756-12.763,12.756c-7.035,0-12.757-5.722-12.757-12.756v-6.926h-10.608V274.028z"/>
	<path style="fill:#FFFFFF;" d="M174.193,54.449c-3.319,0-6.018,2.699-6.018,6.015v20.59c0,3.317,2.699,6.015,6.018,6.015
		c3.314,0,6.016-2.698,6.016-6.015v-20.59C180.209,57.148,177.507,54.449,174.193,54.449"/>
	<path style="fill:#FFFFFF;" d="M221.203,60.465v20.59c0,3.317,2.695,6.014,6.014,6.014c3.317,0,6.018-2.697,6.018-6.014v-20.59
		c0-3.317-2.701-6.015-6.018-6.015C223.898,54.45,221.203,57.148,221.203,60.465"/>
	<path style="fill:#FFFFFF;" d="M274.227,60.465v20.59c0,3.317,2.695,6.014,6.014,6.014c3.314,0,6.018-2.697,6.018-6.014v-20.59
		c0-3.317-2.704-6.015-6.018-6.015C276.922,54.45,274.227,57.148,274.227,60.465"/>
	<path style="fill:#FFFFFF;" d="M60.683,107.848v161.671c0,4.342,3.525,7.865,7.867,7.865c4.345,0,7.866-3.523,7.866-7.865V107.848
		c0-9.818,7.987-17.805,17.807-17.805c9.816,0,17.805,7.987,17.805,17.805c0,0.174,0.04,0.334,0.051,0.502
		c-6.387,2.619-10.841,8.32-10.841,14.944c0,0.939,0.76,1.699,1.699,1.699h33.915c0.942,0,1.701-0.76,1.701-1.699
		c0-6.624-4.453-12.325-10.842-14.945c0.011-0.167,0.05-0.33,0.05-0.501c0-18.494-15.044-33.538-33.538-33.538
		S60.683,89.354,60.683,107.848"/>
	<path style="fill:#FFFFFF;" d="M327.056,302.836c0-6.205-5.033-11.238-11.238-11.238H54.829c-6.207,0-11.238,5.033-11.238,11.238
		c0,6.207,5.031,11.238,11.238,11.238h260.989C322.023,314.074,327.056,309.043,327.056,302.836"/>
	<path style="fill:#FFFFFF;" d="M114.391,201.981c0.81,1.481,2.146,2.55,3.757,3.011c0.571,0.167,1.162,0.25,1.752,0.25
		c2.781,0,5.255-1.865,6.019-4.523c0.965-3.321-0.951-6.804-4.263-7.768c-3.246-0.951-6.846,1.041-7.772,4.236
		C113.402,198.8,113.584,200.504,114.391,201.981"/>
	<path style="fill:#FFFFFF;" d="M121.653,166.93c-3.244-0.944-6.839,1.048-7.768,4.242c-0.476,1.604-0.303,3.301,0.496,4.773
		c0.808,1.482,2.138,2.555,3.776,3.034c0.566,0.162,1.154,0.248,1.738,0.248c2.785,0,5.261-1.868,6.016-4.518
		C126.884,171.404,124.976,167.919,121.653,166.93"/>
	<path style="fill:#FFFFFF;" d="M121.651,140.912c-3.246-0.939-6.841,1.051-7.765,4.239c-0.481,1.611-0.303,3.311,0.504,4.793
		c0.808,1.475,2.145,2.546,3.769,3.016c0.566,0.166,1.15,0.247,1.738,0.247c2.777,0,5.257-1.862,6.021-4.523
		C126.879,145.37,124.97,141.889,121.651,140.912"/>
</g>
</svg>
