<?xml version="1.0" encoding="iso-8859-1"?>
<!-- Generator: Adobe Illustrator 25.4.1, SVG Export Plug-In . SVG Version: 6.00 Build 0)  -->
<svg version="1.1" id="Calque_1" xmlns="http://www.w3.org/2000/svg" xmlns:xlink="http://www.w3.org/1999/xlink" x="0px" y="0px"
	 viewBox="0 0 368.5 368.5" style="enable-background:new 0 0 368.5 368.5;" xml:space="preserve">
<g>
	<path style="fill:#FFFFFF;" d="M289.193,104.137c4.503,4.521,7.139,10.402,7.531,16.703c2.953-1.31,6.389-2.078,10.072-2.078h0.587
		c4.065,0,7.847,0.92,10.991,2.494c-0.299-12.258-5.197-23.727-13.893-32.407c-8.963-8.98-20.893-13.924-33.596-13.924
		c-12.732,0-24.664,4.944-33.624,13.922c-6.095,6.082-10.323,13.535-12.416,21.668c9.832,15.474,15.535,33.819,15.535,53.473
		c0,20.637-6.285,39.834-17.039,55.778v20.012c1.66-0.621,3.546-0.974,5.752-0.974h12.241c1.334,0,2.528,0.126,3.629,0.35V122.458
		c0.005-6.909,2.7-13.415,7.588-18.319c4.911-4.891,11.417-7.585,18.32-7.589C277.776,96.554,284.281,99.248,289.193,104.137"/>
	<path style="fill:#FFFFFF;" d="M241.334,243.804h-12.241c-4.983,0-7.537,1.897-11.881,8.828l-16.971,26.607
		c-1.283,2.323-1.499,4.439-0.606,5.962c0.842,1.435,2.65,2.257,4.962,2.257h62.843c2.328,0,4.173-0.865,4.938-2.313
		c0.798-1.514,0.404-3.565-1.108-5.775l-18.007-26.667C248.396,245.596,246.482,243.804,241.334,243.804"/>
	<path style="fill:#FFFFFF;" d="M272.868,272.713c0.402,0.625,1.296,0.826,1.929,0.417l34.935-22.544
		c0.315-0.203,0.532-0.516,0.611-0.882c0.077-0.364,0.01-0.737-0.191-1.05l-15.618-24.202c-0.258-0.4-0.699-0.638-1.178-0.638
		c-0.265,0-0.527,0.077-0.753,0.223l-34.935,22.545c-0.315,0.203-0.531,0.515-0.609,0.879c-0.079,0.365-0.011,0.739,0.192,1.053
		L272.868,272.713z"/>
	<path style="fill:#FFFFFF;" d="M197.403,272.714l15.619-24.201c0.417-0.647,0.231-1.513-0.416-1.93l-8.57-5.53
		c-9.155,7.577-19.682,13.554-31.144,17.505l22.581,14.571C196.109,273.541,197.002,273.337,197.403,272.714"/>
	<path style="fill:#FFFFFF;" d="M307.383,123.762h-0.587c-7.989,0-14.738,4.433-14.738,9.679v14.674
		c0,5.247,6.749,9.679,14.738,9.679h0.587c7.988,0,14.737-4.432,14.737-9.679v-14.674
		C322.12,128.195,315.371,123.762,307.383,123.762 M307.007,153.269c-4.727,0-8.557-1.74-8.557-3.889c0-2.147,3.83-3.89,8.557-3.89
		c4.727,0,8.557,1.743,8.557,3.89C315.564,151.529,311.734,153.269,307.007,153.269"/>
	<path style="fill:#FFFFFF;" d="M140.38,69.988c-15.484,0-30.105,3.767-43,10.428v25.531c10.842-4.711,25.623-7.574,42.155-7.574
		c15.388,0,29.255,2.481,39.845,6.623V78.468C167.493,73.026,154.286,69.988,140.38,69.988"/>
	<path style="fill:#FFFFFF;" d="M234.38,163.988c0-35.132-19.376-65.818-48-81.949v26.189c8.68,4.759,13.846,10.911,13.846,17.713
		v60.12v0.001c-0.002,13.385-20.003,24.254-47.465,26.928c0.392,0.579,0.763,1.135,1.095,1.639
		c2.733,4.165,4.193,8.927,4.117,13.415c-0.034,2.391-0.456,4.743-1.254,6.98c-0.418,1.197-0.965,2.396-1.62,3.538
		c-0.164,0.28-0.309,0.511-0.457,0.75c-0.008,0.012-0.049,0.076-0.056,0.087c-3.587,5.599-9.501,8.941-15.821,8.941l-0.288-0.001
		c-6.434-0.109-12.342-3.65-15.806-9.474c-0.18-0.316-0.318-0.563-0.458-0.819c-0.512-0.957-0.908-1.851-1.226-2.756
		c-0.914-2.481-1.365-5.155-1.32-7.898c0.074-4.486,1.696-9.195,4.568-13.259c0.278-0.394,0.586-0.822,0.905-1.263
		c-26.86-2.865-46.297-13.615-46.297-26.81c0-0.165,0.021-0.327,0.027-0.491c-0.016-0.124-0.027-0.249-0.027-0.376v-59.252
		c0-6.26,4.374-11.97,11.836-16.549c-0.19-0.43-0.299-0.904-0.299-1.404V84.424c-26.413,16.66-44,46.094-44,79.564
		c0,49.546,38.532,90.257,87.201,93.752c0.751-1.299,1.355-2.496,1.703-3.492c0.36-1.058,0.593-2.208,0.596-2.22
		c0.33-1.641,1.773-2.81,3.43-2.81c-0.005,0.029,0.06-0.001,0.092-0.001h0.016c1.728,0,3.196,1.259,3.46,2.967
		c0,0.007,0.179,1.135,0.509,2.192c0.309,0.986,0.865,2.189,1.562,3.5C194.667,255.484,234.38,214.288,234.38,163.988"/>
	<path style="fill:#FFFFFF;" d="M139.535,104.373c-32.231,0-54.692,11.367-54.692,21.568v47.892c8.85-8.412,26.74-14.244,48.38-15.2
		c0.028-0.001,0.057-0.002,0.086-0.003c0.893-0.039,1.793-0.069,2.698-0.091c0.215-0.005,0.429-0.011,0.645-0.015
		c0.955-0.019,1.916-0.032,2.883-0.032c0.95,0,1.892,0.013,2.83,0.031c0.265,0.006,0.528,0.013,0.792,0.02
		c0.743,0.018,1.482,0.043,2.216,0.074c0.212,0.009,0.425,0.016,0.636,0.026c0.913,0.042,1.818,0.092,2.718,0.152
		c0.204,0.014,0.406,0.029,0.609,0.044c0.72,0.051,1.432,0.107,2.142,0.17c0.259,0.022,0.517,0.045,0.774,0.068
		c0.837,0.078,1.668,0.162,2.491,0.255c0.051,0.006,0.104,0.011,0.155,0.017c0.863,0.098,1.716,0.209,2.564,0.323
		c0.252,0.034,0.5,0.07,0.752,0.106c0.651,0.092,1.297,0.19,1.938,0.292c0.217,0.034,0.437,0.068,0.654,0.104
		c0.813,0.134,1.618,0.275,2.413,0.425c0.198,0.037,0.392,0.076,0.588,0.114c0.622,0.12,1.24,0.245,1.85,0.374
		c0.251,0.054,0.501,0.106,0.75,0.161c0.683,0.149,1.357,0.304,2.025,0.465c0.103,0.024,0.208,0.048,0.311,0.073
		c0.747,0.183,1.48,0.374,2.207,0.57c0.234,0.063,0.467,0.128,0.698,0.193c0.545,0.151,1.082,0.306,1.615,0.466
		c0.208,0.062,0.418,0.123,0.624,0.186c0.694,0.213,1.378,0.432,2.05,0.657c0.173,0.058,0.34,0.119,0.51,0.177
		c0.524,0.18,1.042,0.363,1.551,0.551c0.22,0.081,0.438,0.161,0.655,0.243c0.548,0.208,1.088,0.419,1.618,0.636
		c0.111,0.044,0.224,0.088,0.333,0.133c0.617,0.254,1.219,0.516,1.811,0.783c0.193,0.087,0.383,0.175,0.573,0.263
		c0.441,0.204,0.872,0.41,1.297,0.619c0.174,0.085,0.349,0.17,0.52,0.256c0.558,0.282,1.105,0.568,1.638,0.861
		c0.123,0.068,0.243,0.139,0.366,0.208c0.424,0.238,0.84,0.479,1.247,0.724c0.165,0.1,0.329,0.199,0.49,0.299
		c0.427,0.264,0.843,0.533,1.248,0.804c0.082,0.054,0.168,0.106,0.248,0.162c0.471,0.32,0.925,0.647,1.367,0.978
		c0.13,0.096,0.255,0.195,0.383,0.293c0.336,0.258,0.662,0.519,0.98,0.783c0.115,0.095,0.23,0.189,0.343,0.285
		c0.383,0.327,0.757,0.657,1.11,0.993v-47.968C194.225,115.74,171.764,104.373,139.535,104.373"/>
	<path style="fill:#FFFFFF;" d="M194.226,186.06c0-6.694-9.673-13.892-25.432-18.048c-0.75-0.198-1.515-0.389-2.293-0.572
		c-2.332-0.552-4.786-1.037-7.349-1.447c-5.984-0.958-12.567-1.501-19.616-1.501c-32.232,0-54.693,11.367-54.693,21.568
		c0,4.058,3.557,8.301,9.868,11.939c-1.054-1.852-1.614-3.819-1.614-5.869c0-12.257,19.965-21.5,46.439-21.5
		c26.473,0,46.438,9.243,46.438,21.5c0,2.05-0.559,4.016-1.614,5.868C190.672,194.36,194.226,190.118,194.226,186.06"/>
	<path style="fill:#FFFFFF;" d="M139.206,261.978c-2.069,3.463-4.783,7.194-7.131,10.421c-0.783,1.078-1.509,2.074-2.121,2.942
		c-2.04,2.887-3.238,6.289-3.289,9.337c-0.03,1.874,0.276,3.697,0.909,5.417c0.215,0.611,0.47,1.183,0.799,1.798
		c0.104,0.19,0.222,0.402,0.342,0.613c2.187,3.673,5.888,5.936,9.878,6.005l0.175,0.001c3.92,0,7.63-2.138,9.925-5.717
		c0.108-0.174,0.229-0.365,0.347-0.568c0.427-0.744,0.795-1.547,1.079-2.359c0.545-1.534,0.831-3.13,0.855-4.765
		c0.053-3.061-1.03-6.505-2.967-9.459c-0.568-0.862-1.24-1.855-1.968-2.928C143.78,269.384,141.167,265.529,139.206,261.978"/>
	<path style="fill:#FFFFFF;" d="M166.416,205.636c3.571-1.498,6.515-3.289,8.637-5.386c2.115-2.084,3.438-4.565,3.438-7.27
		c0-2.707-1.323-5.189-3.438-7.273c-6.368-6.213-20.107-10.131-36.146-10.172c-10.69,0.002-20.371,1.801-27.511,4.785
		c-3.571,1.498-6.515,3.287-8.639,5.387c-2.114,2.084-3.438,4.566-3.438,7.273c0,2.705,1.324,5.186,3.438,7.27
		c4.786,4.668,13.729,8.039,24.686,9.446c0.648-0.897,1.322-1.834,1.996-2.789c-4.139-0.453-7.998-1.184-11.419-2.15l5.449-2.751
		c2.505,0.657,5.313,1.14,8.326,1.445c0.644-0.983,1.241-1.942,1.769-2.852c-2.053-0.164-4.018-0.411-5.843-0.74l4.16-2.102
		c0.955,0.117,1.968,0.204,3.018,0.272c0.146-0.332,0.28-0.654,0.385-0.953c0.36-1.057,0.593-2.209,0.595-2.221
		c0.331-1.642,1.774-2.81,3.431-2.81c0.035-0.001,0.07,0,0.109-0.002c1.727,0,3.196,1.259,3.459,2.968
		c0,0.007,0.179,1.136,0.509,2.193c0.077,0.244,0.171,0.504,0.276,0.773c0.869-0.069,1.719-0.149,2.52-0.254l4.144,2.095
		c-1.707,0.319-3.536,0.574-5.453,0.747c0.477,0.903,1.025,1.86,1.613,2.84c2.911-0.32,5.625-0.814,8.049-1.462l5.444,2.748
		c-3.387,0.973-7.21,1.719-11.311,2.188c0.627,0.963,1.255,1.907,1.856,2.801C156.558,208.887,161.978,207.491,166.416,205.636
		 M175.491,192.98c-0.002,1.695-0.807,3.406-2.547,5.139c-2,2.013-5.214,3.859-9.287,5.369l0.121-0.24l-5.212-2.631
		c2.016-0.813,3.731-1.746,5.035-2.863c1.492-1.274,2.542-2.893,2.547-4.774c-0.005-1.883-1.055-3.502-2.547-4.777
		c-1.55-1.299-3.674-2.412-6.222-3.321l5.416-2.736c0.855,0.299,1.679,0.613,2.462,0.942c3.32,1.385,5.956,3.033,7.687,4.75
		C174.684,189.57,175.489,191.283,175.491,192.98 M153.15,183.656c-4.143-0.965-9.002-1.498-14.243-1.52
		c-5.137,0.003-9.916,0.541-14.009,1.477l-5.489-2.772c5.58-1.437,12.175-2.306,19.242-2.306h0.256
		c7.259-0.002,14.029,0.871,19.722,2.353L153.15,183.656z M138.905,187.791c-1.854,0.002-3.625,0.084-5.28,0.23l-4.332-2.189
		c2.956-0.45,6.207-0.707,9.614-0.693c3.507-0.001,6.845,0.261,9.861,0.728l-4.307,2.176
		C142.734,187.886,140.87,187.8,138.905,187.791 M114.352,203.248l0.198,0.391c-0.688-0.248-1.357-0.503-1.997-0.77
		c-3.319-1.387-5.955-3.033-7.687-4.75c-1.739-1.733-2.545-3.444-2.547-5.139c0.002-1.697,0.808-3.41,2.547-5.142
		c2.172-2.186,5.779-4.172,10.358-5.749l5.406,2.731c-0.143,0.049-0.298,0.094-0.437,0.144c-2.444,0.889-4.473,1.952-5.982,3.239
		c-1.494,1.275-2.543,2.894-2.546,4.777c0.003,1.881,1.052,3.5,2.546,4.774c1.337,1.121,3.105,2.105,5.2,2.939L114.352,203.248z
		 M123.155,198.802c-0.677-0.199-1.33-0.408-1.939-0.629c-2.216-0.8-3.955-1.751-5.052-2.697c-1.111-0.962-1.503-1.801-1.498-2.496
		c-0.005-0.699,0.387-1.539,1.498-2.498c1.606-1.42,4.563-2.726,8.363-3.693l3.938,1.988c-0.208,0.045-0.422,0.088-0.622,0.137
		c-1.456,0.357-2.668,0.775-3.639,1.328c-0.91,0.541-1.883,1.303-1.941,2.736c0.058,1.434,1.031,2.195,1.941,2.735
		c0.771,0.428,1.735,0.801,2.851,1.121L123.155,198.802z M131.362,194.658c-1.031-0.151-1.982-0.326-2.809-0.529
		c-1.283-0.311-2.287-0.686-2.851-1.014c-0.086-0.049-0.159-0.096-0.222-0.142c0.586-0.372,2.089-1.007,4.056-1.362
		c1.041-0.211,2.227-0.388,3.509-0.521l2.692,1.359L131.362,194.658z M146.696,194.621l-4.302-2.172l2.634-1.33
		c1.6,0.178,3.04,0.42,4.231,0.711c1.284,0.308,2.288,0.683,2.851,1.013c0.086,0.048,0.16,0.096,0.224,0.139
		c-0.586,0.375-2.091,1.01-4.059,1.365C147.78,194.447,147.248,194.537,146.696,194.621 M150.965,196.777
		c1.02-0.299,1.903-0.641,2.641-1.064c0.912-0.54,1.885-1.301,1.943-2.735c-0.058-1.433-1.031-2.195-1.943-2.736
		c-1.029-0.572-2.398-1.047-4.027-1.422l3.921-1.979c1.102,0.288,2.15,0.598,3.097,0.942c2.213,0.801,3.953,1.752,5.052,2.699
		c0.971,0.839,1.393,1.587,1.48,2.229c0.013,0.092,0.017,0.182,0.017,0.269c0,0.087-0.004,0.176-0.017,0.268
		c-0.087,0.639-0.509,1.386-1.48,2.228c-1.379,1.217-3.757,2.352-6.804,3.262L150.965,196.777z"/>
	<path style="fill:#FFFFFF;" d="M139.206,204.806c-2.069,3.463-4.783,7.194-7.13,10.421c-0.784,1.078-1.51,2.074-2.122,2.942
		c-2.04,2.887-3.238,6.289-3.289,9.337c-0.03,1.874,0.276,3.696,0.909,5.415c0.216,0.615,0.472,1.188,0.799,1.8
		c0.106,0.195,0.228,0.411,0.352,0.63c2.177,3.658,5.879,5.921,9.866,5.988l0.174,0.001c3.922,0,7.633-2.138,9.928-5.717
		c0.127-0.207,0.242-0.388,0.354-0.579c0.42-0.733,0.788-1.536,1.071-2.348c0.546-1.535,0.832-3.129,0.856-4.763
		c0.053-3.061-1.03-6.507-2.967-9.461c-0.568-0.862-1.24-1.853-1.968-2.928C143.78,212.212,141.167,208.357,139.206,204.806"/>
</g>
</svg>
