<?xml version="1.0" encoding="iso-8859-1"?>
<!-- Generator: Adobe Illustrator 25.4.1, SVG Export Plug-In . SVG Version: 6.00 Build 0)  -->
<svg version="1.1" id="Calque_1" xmlns="http://www.w3.org/2000/svg" xmlns:xlink="http://www.w3.org/1999/xlink" x="0px" y="0px"
	 viewBox="0 0 368.5 368.5" style="enable-background:new 0 0 368.5 368.5;" xml:space="preserve">
<g>
	<path style="fill:#FFFFFF;" d="M176.555,318.442c0-4.169-3.38-7.546-7.546-7.546h-39.985c-4.167,0-7.545,3.377-7.545,7.546
		c0,4.166,3.378,7.546,7.545,7.546h39.985C173.175,325.988,176.555,322.608,176.555,318.442"/>
	<path style="fill:#FFFFFF;" d="M142.962,303.195h12.109c5.543,0,10.032-4.489,10.032-10.026v-42.366
		c0-5.541-4.489-10.03-10.032-10.03h-12.109c-5.536,0-10.029,4.489-10.029,10.03v9.786h-13.818c-2.524,0-4.572,2.044-4.572,4.571
		v13.653c0,2.524,2.048,4.571,4.572,4.571h13.818v9.785C132.933,298.706,137.426,303.195,142.962,303.195"/>
	<path style="fill:#FFFFFF;" d="M242.14,163.057c0,1.192,0.966,2.156,2.156,2.156h21.559c1.19,0,2.156-0.964,2.156-2.156v-54.575
		c0-36.373-29.591-65.959-65.964-65.959c-36.374,0-65.966,29.586-65.966,65.959v120.33c0,1.191,0.963,2.156,2.156,2.156h21.559
		c1.189,0,2.156-0.965,2.156-2.156v-120.33c0-22.109,17.984-40.093,40.095-40.093c22.107,0,40.093,17.984,40.093,40.093V163.057z"/>
	<path style="fill:#FFFFFF;" d="M104.884,232.526c0-3.571-2.898-6.468-6.468-6.468c-3.573,0-6.467,2.897-6.467,6.468v43.773
		c0,3.573,2.894,6.468,6.467,6.468c3.57,0,6.468-2.895,6.468-6.468V232.526z"/>
	<path style="fill:#FFFFFF;" d="M235.546,218.694h39.057c0.566,0,1.105-0.24,1.485-0.669c0.375-0.428,0.552-0.998,0.477-1.563
		l-4.957-38.73c-0.123-0.99-0.963-1.728-1.957-1.728h-29.149c-0.998,0-1.838,0.738-1.961,1.728l-4.957,38.73
		c-0.075,0.565,0.102,1.135,0.477,1.563C234.437,218.454,234.984,218.694,235.546,218.694"/>
	<path style="fill:#FFFFFF;" d="M252.31,295.138c0.601,0,1.201-0.086,1.78-0.253c1.647-0.473,3.009-1.564,3.834-3.071
		c0.819-1.506,1.004-3.236,0.531-4.847c-0.786-2.72-3.312-4.617-6.137-4.617c-0.609,0-1.218,0.086-1.793,0.255
		c-3.381,0.981-5.336,4.535-4.355,7.914C246.951,293.238,249.477,295.138,252.31,295.138"/>
	<path style="fill:#FFFFFF;" d="M246.166,265.759c0.779,2.726,3.308,4.63,6.145,4.63c0.601,0,1.196-0.085,1.798-0.257
		c1.647-0.484,3.003-1.577,3.822-3.082c0.817-1.504,0.998-3.23,0.524-4.834c-0.954-3.297-4.567-5.346-7.938-4.361
		C247.137,258.845,245.189,262.403,246.166,265.759"/>
	<path style="fill:#FFFFFF;" d="M252.309,245.641c0.604,0,1.201-0.084,1.783-0.251c1.644-0.476,3.006-1.566,3.831-3.073
		c0.821-1.506,1.007-3.236,0.531-4.849c-0.788-2.718-3.31-4.617-6.141-4.617c-0.605,0-1.207,0.086-1.794,0.257
		c-3.376,0.985-5.328,4.539-4.347,7.916C246.95,243.742,249.476,245.641,252.309,245.641"/>
</g>
</svg>
