<?xml version="1.0" encoding="iso-8859-1"?>
<!-- Generator: Adobe Illustrator 25.4.1, SVG Export Plug-In . SVG Version: 6.00 Build 0)  -->
<svg version="1.1" id="Calque_1" xmlns="http://www.w3.org/2000/svg" xmlns:xlink="http://www.w3.org/1999/xlink" x="0px" y="0px"
	 viewBox="0 0 368.5 368.5" style="enable-background:new 0 0 368.5 368.5;" xml:space="preserve">
<g>
	<path style="fill:#FFFFFF;" d="M259.137,133.648l-8.332,43.201c5.699,10.508,8.944,22.543,8.966,35.341
		c-0.069,41.055-33.284,74.259-74.325,74.335c-41.051-0.076-74.265-33.28-74.339-74.335c0.023-12.459,3.114-24.186,8.536-34.496
		l-9.02-42.976c-20.279,19.59-32.909,47.043-32.915,77.472c0.012,59.511,48.225,107.723,107.738,107.732
		c59.5-0.009,107.714-48.221,107.734-107.732C293.17,181.204,280.072,153.3,259.137,133.648"/>
	<path style="fill:#FFFFFF;" d="M42.52,57.388c0,4.845,3.931,8.777,8.776,8.777h265.91c4.847,0,8.779-3.932,8.779-8.777
		c0-4.852-3.932-8.78-8.779-8.78H51.296C46.451,48.608,42.52,52.536,42.52,57.388"/>
	<path style="fill:#FFFFFF;" d="M185.441,186.917c-13.937,0-25.275,11.337-25.275,25.273c0,13.939,11.338,25.278,25.275,25.278
		c13.939,0,25.279-11.339,25.279-25.278C210.72,198.254,199.38,186.917,185.441,186.917"/>
	<path style="fill:#FFFFFF;" d="M134.593,211.398c7.27,34.211,24.378,51.562,50.851,51.562c27.295,0,43.452-16.385,50.85-51.563
		l25.825-133.91H106.488L134.593,211.398z M185.441,245.176c-18.186,0-32.983-14.797-32.983-32.985
		c0-18.185,14.797-32.981,32.983-32.981c18.189,0,32.987,14.796,32.987,32.981C218.428,230.379,203.63,245.176,185.441,245.176"/>
</g>
</svg>
