<?xml version="1.0" encoding="iso-8859-1"?>
<!-- Generator: Adobe Illustrator 25.4.1, SVG Export Plug-In . SVG Version: 6.00 Build 0)  -->
<svg version="1.1" id="Calque_1" xmlns="http://www.w3.org/2000/svg" xmlns:xlink="http://www.w3.org/1999/xlink" x="0px" y="0px"
	 viewBox="0 0 368.5 368.5" style="enable-background:new 0 0 368.5 368.5;" xml:space="preserve">
<g>
	<path style="fill:#FFFFFF;" d="M259.135,133.633l-8.332,43.201c5.699,10.508,8.944,22.543,8.966,35.341
		c-0.069,41.055-33.284,74.259-74.325,74.335c-41.051-0.076-74.265-33.28-74.339-74.335c0.023-12.459,3.114-24.187,8.536-34.496
		l-9.02-42.977c-20.279,19.591-32.909,47.043-32.915,77.473c0.012,59.511,48.225,107.723,107.738,107.731
		c59.5-0.008,107.714-48.22,107.734-107.731C293.168,181.189,280.07,153.284,259.135,133.633"/>
	<path style="fill:#FFFFFF;" d="M42.518,57.374c0,4.845,3.931,8.777,8.776,8.777h265.91c4.847,0,8.779-3.932,8.779-8.777
		c0-4.852-3.932-8.78-8.779-8.78H51.294C46.449,48.594,42.518,52.522,42.518,57.374"/>
	<path style="fill:#FFFFFF;" d="M185.439,186.903c-13.937,0-25.275,11.337-25.275,25.273c0,13.939,11.338,25.278,25.275,25.278
		c13.939,0,25.279-11.339,25.279-25.278C210.718,198.24,199.378,186.903,185.439,186.903"/>
	<path style="fill:#FFFFFF;" d="M134.591,211.385c7.27,34.211,24.378,51.561,50.851,51.561c27.295,0,43.452-16.385,50.85-51.563
		l25.825-133.909H106.486L134.591,211.385z M185.439,245.161c-18.186,0-32.983-14.797-32.983-32.984
		c0-18.186,14.797-32.982,32.983-32.982c18.189,0,32.987,14.796,32.987,32.982C218.426,230.364,203.628,245.161,185.439,245.161"/>
</g>
</svg>
