<?xml version="1.0" encoding="iso-8859-1"?>
<!-- Generator: Adobe Illustrator 25.4.1, SVG Export Plug-In . SVG Version: 6.00 Build 0)  -->
<svg version="1.1" id="Calque_1" xmlns="http://www.w3.org/2000/svg" xmlns:xlink="http://www.w3.org/1999/xlink" x="0px" y="0px"
	 viewBox="0 0 368.5 368.5" style="enable-background:new 0 0 368.5 368.5;" xml:space="preserve">
<g>
	<path style="fill:#FFFFFF;" d="M279.243,52.104H104.926c-5.233,0-9.49,4.621-9.49,10.3v36.53c0,5.678,4.257,10.298,9.49,10.298
		h174.317c5.229,0,9.481-4.62,9.481-10.298v-36.53C288.725,56.725,284.472,52.104,279.243,52.104z M269.427,68.465H143.029
		c-2.761,0-5-2.239-5-5s2.239-5,5-5h126.398c2.762,0,5,2.239,5,5S272.188,68.465,269.427,68.465z"/>
</g>
<path style="fill:#FFFFFF;" d="M163.866,295.561c0,11.488,9.348,20.835,20.839,20.835h1.428c11.491,0,20.841-9.347,20.841-20.835
	v-78.886c0-11.491-9.35-20.841-20.841-20.841h-1.428c-11.491,0-20.839,9.35-20.839,20.841V295.561z"/>
<g>
	<path style="fill:#FFFFFF;" d="M177.693,171.364c-8.515-4.76-23.011-10.188-47.897-19.374
		c-44.371-16.381-46.014-18.663-46.021-26.571c0.015-0.887,0.189-11.276,0.185-22.076c-0.001-5.798,1.112-9.85,3.308-12.043
		c0.81-0.809,1.878-1.439,3.168-1.911V75.998c-5.046,0.926-9.197,2.953-12.353,6.104c-4.795,4.787-7.125,11.737-7.123,21.246
		c0.004,11.116-0.182,21.796-0.184,21.903c0,0.038-0.001,0.077-0.001,0.115c0,18.693,12.639,23.359,54.52,38.821
		c24.278,8.96,38.387,14.238,46.056,18.525c6.658,3.722,6.699,5.619,6.762,8.491c0.004,0.161,0.019,0.32,0.034,0.478
		c2.096-0.55,4.293-0.846,6.559-0.846h1.428c1.698,0,3.357,0.169,4.964,0.483c0.005-0.133,0.014-0.264,0.011-0.398
		C190.918,182.137,187.156,176.654,177.693,171.364z"/>
</g>
</svg>
