<?xml version="1.0" encoding="iso-8859-1"?>
<!-- Generator: Adobe Illustrator 25.4.1, SVG Export Plug-In . SVG Version: 6.00 Build 0)  -->
<svg version="1.1" id="Calque_1" xmlns="http://www.w3.org/2000/svg" xmlns:xlink="http://www.w3.org/1999/xlink" x="0px" y="0px"
	 viewBox="0 0 368.5 368.5" style="enable-background:new 0 0 368.5 368.5;" xml:space="preserve">
<g>
	<path style="fill:#FFFFFF;" d="M134.212,72.51l11.103,20.465h78.589l11.102-20.466c1.833-3.381,2.389-7.171,1.564-10.674
		c-0.789-3.354-2.765-6.038-5.564-7.555l-2.194-1.193c-1.584-0.859-3.323-1.295-5.166-1.295c-4.87,0-9.696,3.096-12.295,7.887
		l-6.403,11.801c-0.763,1.41-2.385,2.123-3.945,1.721c-1.554-0.398-2.639-1.802-2.631-3.407l0.037-8.037
		c0.035-7.783-5.413-14.141-12.144-14.173l-2.494-0.011c-6.752,0-12.237,6.308-12.272,14.063l-0.043,9.316
		c-0.008,1.598-1.097,2.989-2.646,3.378c-1.549,0.39-3.167-0.32-3.93-1.725l-7.013-12.926c-2.599-4.791-7.426-7.887-12.295-7.887
		c-1.843,0-3.582,0.436-5.168,1.296l-2.191,1.191C132.295,57.488,130.501,65.666,134.212,72.51"/>
	<path style="fill:#FFFFFF;" d="M109.863,320.928h148.773c14.749,0,26.748-11.999,26.748-26.747V191.6
		c0-31.627-7.325-49.721-26.127-64.534l-31.142-23.61h-87.121l-34.32,25.413c-17.61,13.207-23.559,29.332-23.559,63.891v101.421
		C83.115,308.929,95.114,320.928,109.863,320.928 M204.841,112.751c1.358-0.819,2.914-1.253,4.497-1.253
		c3.041,0,5.905,1.619,7.473,4.222l8.082,13.413c2.479,4.12,1.147,9.489-2.97,11.971c-1.36,0.818-2.914,1.252-4.496,1.252
		c-3.042,0-5.907-1.618-7.475-4.221l-8.08-13.414C199.392,120.601,200.723,115.232,204.841,112.751 M184.356,114.674h0.002
		c4.807,0,8.72,3.91,8.723,8.717l0.006,15.663c0.002,4.807-3.908,8.721-8.717,8.724c-4.809,0-8.723-3.911-8.725-8.717l-0.006-15.661
		C175.639,118.591,179.549,114.677,184.356,114.674 M144.122,129.135l8.082-13.415c1.569-2.605,4.433-4.222,7.474-4.222
		c1.583,0,3.138,0.434,4.498,1.254c4.117,2.481,5.448,7.851,2.967,11.97l-8.08,13.412c-1.569,2.605-4.434,4.222-7.475,4.222
		c-1.582,0-3.137-0.434-4.496-1.252C142.975,138.623,141.643,133.254,144.122,129.135"/>
</g>
</svg>
