<?xml version="1.0" encoding="iso-8859-1"?>
<!-- Generator: Adobe Illustrator 25.4.1, SVG Export Plug-In . SVG Version: 6.00 Build 0)  -->
<svg version="1.1" id="Calque_1" xmlns="http://www.w3.org/2000/svg" xmlns:xlink="http://www.w3.org/1999/xlink" x="0px" y="0px"
	 viewBox="0 0 368.5 368.5" style="enable-background:new 0 0 368.5 368.5;" xml:space="preserve">
<g>
	<path style="fill:#FFFFFF;" d="M118.865,154.432c3.012-12.775,10.078-24.338,20.55-33.303l25.07-21.463
		c-1.206,0.518-2.428,1.026-3.668,1.514c-27.181,10.73-50.66,12.982-65.57,12.982H48.202v42.096h47.044
		C101.618,156.258,109.632,155.823,118.865,154.432"/>
	<path style="fill:#FFFFFF;" d="M138.285,168.135c-0.556,11.437,3.384,22.154,11.094,30.175
		c8.356,8.698,20.276,13.489,33.562,13.489c13.781,0,27.324-5.098,38.136-14.354l66.055-56.547
		c11.39-9.752,18.301-23.127,18.962-36.697c0.556-11.437-3.383-22.154-11.092-30.176c-8.358-8.697-20.279-13.486-33.567-13.486
		c-13.78,0-27.322,5.096-38.133,14.351l-66.055,56.549C145.856,141.189,138.945,154.564,138.285,168.135 M167.036,131.078
		l55.872-47.832c10.454-8.949,23.759-14.08,36.506-14.08c11.184,0,21.108,3.916,27.942,11.025c6.36,6.619,9.6,15.625,9.126,25.36
		c-0.624,12.814-7.417,25.672-18.636,35.277l-55.872,47.832c-10.454,8.949-23.759,14.082-36.506,14.082
		c-11.185,0-21.108-3.916-27.942-11.029c-6.359-6.617-9.6-15.621-9.127-25.356C149.022,153.543,155.815,140.683,167.036,131.078"/>
	<path style="fill:#FFFFFF;" d="M124.272,165.885c-0.044,0.914-0.064,1.824-0.062,2.735v0.148c0.001,0.361,0.022,0.721,0.031,1.082
		c0.233,9.232,2.827,18.187,7.522,26.156c0.028,0.049,0.058,0.096,0.086,0.145c0.411,0.691,0.837,1.375,1.278,2.051
		c0.072,0.111,0.148,0.218,0.221,0.328c0.409,0.617,0.828,1.23,1.263,1.834c0.133,0.183,0.274,0.363,0.408,0.545
		c0.393,0.529,0.788,1.058,1.2,1.576c0.223,0.281,0.459,0.552,0.688,0.83c0.347,0.42,0.69,0.844,1.05,1.256
		c0.398,0.455,0.815,0.898,1.23,1.343c0.211,0.227,0.412,0.461,0.627,0.684c5.525,5.75,12.202,10.303,19.546,13.486
		c7.86,3.407,16.483,5.245,25.306,5.245c6.835,0,13.537-1.094,19.865-3.168l7.323-6.913c3.318-3.13,7.714-4.853,12.378-4.853
		c0.396,0,0.787,0.029,1.179,0.055l37.521-32.121l37.608-32.196c0.04-0.035,0.076-0.07,0.116-0.103
		c0.736-0.635,1.457-1.284,2.157-1.948c0.046-0.045,0.089-0.091,0.136-0.136c8.828-8.45,14.616-19.301,16.592-30.928
		c0.001-0.002,0.001-0.006,0.002-0.01c0.142-0.834,0.254-1.674,0.356-2.515c0.022-0.188,0.051-0.372,0.071-0.559
		c0.074-0.67,0.123-1.342,0.172-2.016c0.023-0.33,0.056-0.658,0.074-0.99c0.034-0.65,0.045-1.301,0.056-1.953
		c0.247-14.443-5.235-28.232-15.577-38.994c-11.439-11.903-27.788-18.731-44.856-18.731c-15.066,0-29.504,5.258-40.657,14.805
		l-75.216,64.393C132.006,136.686,125.012,150.692,124.272,165.885 M153.995,127.641l66.055-56.549
		c11.716-10.029,26.414-15.553,41.385-15.553c14.661,0,27.862,5.334,37.172,15.022c8.673,9.025,13.105,21.059,12.48,33.885
		c-0.726,14.937-8.273,29.609-20.703,40.252l-66.055,56.547c-11.718,10.029-26.416,15.554-41.388,15.554
		c-14.66,0-27.859-5.336-37.167-15.023c-8.674-9.026-13.107-21.059-12.483-33.885C134.018,152.953,141.564,138.284,153.995,127.641"
		/>
	<path style="fill:#FFFFFF;" d="M153.394,166.599c-0.412,8.467,2.264,15.953,7.738,21.649c5.882,6.123,14.525,9.494,24.336,9.494
		c11.573,0,23.694-4.696,33.255-12.881l55.872-47.832c10.178-8.713,16.336-20.276,16.894-31.721
		c0.412-8.469-2.263-15.955-7.737-21.652c-5.883-6.119-14.526-9.49-24.337-9.49c-11.573,0-23.693,4.693-33.254,12.878
		l-55.872,47.832C160.108,143.591,153.951,155.154,153.394,166.599 M225.475,94.689c9.181-7.859,20.475-12.367,30.987-12.367
		c7.956,0,14.913,2.679,19.591,7.547c4.415,4.593,6.568,10.72,6.228,17.716c-0.503,10.329-6.577,21.438-16.249,29.717l-2.453,2.1
		c-0.005,0.004-0.009,0.01-0.015,0.015l-30.912,26.461l-11.883,10.174c-9.181,7.86-20.475,12.367-30.986,12.367
		c-1.848,0-3.64-0.15-5.365-0.435c-0.04-0.006-0.082-0.008-0.122-0.014c-0.009-0.002-0.015-0.006-0.024-0.008
		c-5.637-0.953-10.52-3.388-14.08-7.093c-4.415-4.594-6.568-10.719-6.228-17.715c0.502-10.326,6.577-21.436,16.25-29.717
		L225.475,94.689z"/>
	<path style="fill:#FFFFFF;" d="M177.648,277.783v-1.479c-1.011-0.623-1.965-1.345-2.84-2.171c-3.372-3.182-5.229-7.43-5.23-11.959
		c0-4.53,1.857-8.776,5.229-11.959l19.68-18.575c-3.233,0.45-6.512,0.688-9.821,0.688h-0.006c-18.96,0-37.143-7.609-49.893-20.879
		c-4.259-4.432-7.799-9.355-10.557-14.621l-0.001,24.463c-0.015,14.125,5.527,27.678,15.606,38.16
		C149.671,269.711,163.178,276.185,177.648,277.783"/>
	<path style="fill:#FFFFFF;" d="M320.297,156.988v-24.594c-3.724,7.133-8.855,13.619-15.204,19.055l-71.723,61.4
		c1.158,0.674,2.251,1.465,3.24,2.399c3.371,3.181,5.229,7.429,5.229,11.959c0,4.529-1.857,8.777-5.229,11.961l-2.9,2.738
		l20.659-3.395l46.172-39.527C313.079,188.252,320.279,172.945,320.297,156.988"/>
	<path style="fill:#FFFFFF;" d="M199.562,274.135c-0.469,0.443-0.963,0.85-1.473,1.234v1.391c0.347-0.074,0.691-0.154,1.035-0.234
		l6.577-6.207v-1.977L199.562,274.135z"/>
	<path style="fill:#FFFFFF;" d="M209.768,302.188c-0.189,0.029-0.379,0.045-0.567,0.045c-0.824,0-1.629-0.291-2.266-0.832
		c-0.783-0.664-1.234-1.641-1.234-2.668v-18.789l-7.612,7.183v21.176c0,5.428-4.585,9.842-10.221,9.842
		c-5.635,0-10.22-4.414-10.22-9.842v-1.146c-0.693,1.32-1.07,2.773-1.07,4.279c0,2.584,1.078,5.024,3.035,6.869
		c2.012,1.899,4.701,2.946,7.572,2.946s5.56-1.047,7.572-2.946l17.512-16.529L209.768,302.188z"/>
	<path style="fill:#FFFFFF;" d="M184.648,308.303c0,1.568,1.444,2.842,3.22,2.842s3.221-1.274,3.221-2.842v-29.744
		c-1.268,0.273-2.572,0.43-3.902,0.43h-0.002c-0.858,0-1.702-0.079-2.537-0.194V308.303z"/>
	<path style="fill:#FFFFFF;" d="M224.61,250.494l-11.909,11.24v32.877l47.643-7.826c13.193-2.26,23.16-12.582,23.16-24.006
		c0-10.703-8.172-18.471-19.43-18.471c-0.883,0-1.786,0.049-2.688,0.145L224.61,250.494z"/>
	<path style="fill:#FFFFFF;" d="M216.659,220.34l-37.047,34.965c-1.956,1.848-3.034,4.287-3.034,6.869
		c0,2.584,1.078,5.024,3.035,6.869c2.012,1.899,4.701,2.946,7.573,2.946h0.001c2.87,0,5.559-1.045,7.571-2.944l37.047-34.967
		c1.957-1.847,3.034-4.287,3.034-6.871c0-2.582-1.078-5.021-3.034-6.869c-2.012-1.898-4.702-2.943-7.572-2.943
		C221.362,217.395,218.672,218.44,216.659,220.34 M187.244,269.151c-4.947,0-8.822-2.992-8.822-6.813c0-3.818,3.875-6.81,8.822-6.81
		c4.946,0,8.82,2.992,8.82,6.81C196.064,266.159,192.19,269.151,187.244,269.151 M232.665,226.055c0,3.818-3.874,6.811-8.821,6.811
		c-4.946,0-8.821-2.993-8.821-6.811c0-3.818,3.875-6.811,8.821-6.811C228.791,219.244,232.665,222.237,232.665,226.055"/>
	<path style="fill:#FFFFFF;" d="M219.023,226.055c0,1.33,1.98,2.811,4.821,2.811c2.841,0,4.821-1.481,4.821-2.811
		c0-1.328-1.98-2.811-4.821-2.811C221.003,223.244,219.023,224.727,219.023,226.055"/>
	<path style="fill:#FFFFFF;" d="M187.243,265.15c2.841,0,4.821-1.483,4.821-2.813c0-1.328-1.98-2.81-4.821-2.81
		c-2.841,0-4.821,1.482-4.821,2.81C182.422,263.667,184.402,265.15,187.243,265.15"/>
	<path style="fill:#FFFFFF;" d="M183.465,137.236c-8.648,7.402-14.071,17.182-14.508,26.16c-0.272,5.588,1.402,10.432,4.84,14.008
		c2.48,2.582,5.724,4.348,9.54,5.27l42.137-36.077c9.184-7.859,20.479-12.365,30.989-12.365c1.719,0,3.403,0.131,5.026,0.375
		l1.29-1.103c8.647-7.403,14.07-17.182,14.507-26.161c0.272-5.588-1.401-10.431-4.84-14.009c-3.779-3.934-9.307-6.012-15.984-6.012
		c-9.338,0-19.447,4.07-27.736,11.166L183.465,137.236z"/>
</g>
</svg>
