<?xml version="1.0" encoding="iso-8859-1"?>
<!-- Generator: Adobe Illustrator 25.4.1, SVG Export Plug-In . SVG Version: 6.00 Build 0)  -->
<svg version="1.1" id="Calque_1" xmlns="http://www.w3.org/2000/svg" xmlns:xlink="http://www.w3.org/1999/xlink" x="0px" y="0px"
	 viewBox="0 0 368.5 368.5" style="enable-background:new 0 0 368.5 368.5;" xml:space="preserve">
<g>
	<path style="fill:#FFFFFF;" d="M218.748,216.191c10.918-19.349,28.52-33.897,37.843-40.981
		c-21.365-15.835-71.297-52.744-113.171-83.696c-33.908-25.062-63.191-46.707-64.571-47.751c-1.364-1.032-3.082-1.436-4.819-1.138
		c-2.673,0.455-7.146,1.215-28.217,32.965c-1.635,2.463-1.863,5.217-0.625,7.557c1.337,2.532,3.98,3.781,6.572,4.382l1.341,10.912
		c0.301,2.443,2.27,4.343,4.722,4.556l7.738,0.675l1.107,9.031c0.361,2.931,2.722,5.211,5.664,5.468l7.739,0.674l1.248,10.151
		c0.36,2.931,2.722,5.211,5.664,5.467l7.789,0.679l1.225,9.966c0.361,2.931,2.72,5.21,5.662,5.467l7.737,0.677l1.244,10.147
		c0.358,2.931,2.72,5.212,5.661,5.471l7.861,0.688l1.226,9.995c0.36,2.933,2.722,5.214,5.665,5.469l7.737,0.672l1.244,10.144
		c0.358,2.93,2.72,5.21,5.662,5.468l7.958,0.698l1.225,9.946c0.361,2.931,2.723,5.21,5.664,5.466l7.857,0.686l1.227,9.993
		c0.361,2.93,2.722,5.209,5.662,5.467l8.539,0.747l1.476,12.036c0.299,2.444,2.268,4.344,4.719,4.559l12.452,1.089
		C206.98,239.209,212.646,227,218.748,216.191 M91.494,88.169c-1.173,1.548-3.037,2.475-4.986,2.475
		c-1.372,0-2.675-0.438-3.772-1.266c-2.745-2.086-3.286-6.014-1.21-8.761c2.008-2.648,6.106-3.221,8.761-1.218
		C93.041,81.494,93.579,85.426,91.494,88.169"/>
	<path style="fill:#FFFFFF;" d="M316.929,208.505l-8.582-6.04c-11.631-8.179-26.108-18.358-34.361-24.47
		c-2.246-1.664-4.076-2.473-5.599-2.473c-1.222,0-2.435,0.527-4.184,1.811c-6.912,5.082-27.94,20.546-40.007,41.932
		c-9.691,17.164-18.278,37.964-22.688,50.56c-2.317,6.614-1.499,9.395,4.169,14.172c14.366,12.116,42.178,34.958,49.884,40.848
		c1.01,0.775,1.973,1.149,2.94,1.149c1.759,0,3.332-1.248,4.344-2.295c2.541-2.634,4.373-7.037,4.261-10.244
		c-0.268-7.943-0.012-21.511-0.002-22.084c0.012-0.56,0.173-1.108,0.467-1.584l33.702-54.523c0.38-0.615,0.963-1.078,1.647-1.315
		c0.124-0.042,12.616-4.33,16.69-5.983c2.311-0.934,4.1-3.622,4.454-6.686C324.374,218.608,323.857,213.396,316.929,208.505
		 M283.359,224.288l-33.055,53.609c-4.526,7.33-14.131,9.612-21.466,5.086c-7.329-4.521-9.604-14.127-5.086-21.459l33.059-53.605
		c4.52-7.33,14.129-9.611,21.456-5.087C285.601,207.349,287.879,216.96,283.359,224.288"/>
</g>
</svg>
