<?xml version="1.0" encoding="iso-8859-1"?>
<!-- Generator: Adobe Illustrator 25.4.1, SVG Export Plug-In . SVG Version: 6.00 Build 0)  -->
<svg version="1.1" id="Calque_1" xmlns="http://www.w3.org/2000/svg" xmlns:xlink="http://www.w3.org/1999/xlink" x="0px" y="0px"
	 viewBox="0 0 368.5 368.5" style="enable-background:new 0 0 368.5 368.5;" xml:space="preserve">
<g>
	<path style="fill:#FFFFFF;" d="M23.823,171.753v-9.162h-3.826v10.334l1.117-0.9c0.459-0.369,1.014-0.553,1.568-0.553
		C23.075,171.472,23.466,171.568,23.823,171.753"/>
	<path style="fill:#FFFFFF;" d="M65.739,163.464c0.244-0.348,0.543-0.629,0.863-0.873H48.825v9.148
		c0.16,0.08,0.314,0.17,0.459,0.286l4.547,3.661l4.433-3.573l6.793-6.794C65.128,164.673,65.339,164.034,65.739,163.464"/>
	<polygon style="fill:#FFFFFF;" points="222.331,137.774 202.515,157.59 262.757,157.59 269.989,150.358 266.526,137.774 	"/>
	<path style="fill:#FFFFFF;" d="M151.735,180.919c-0.914,0.736-2.221,0.736-3.135,0l-4.644-3.737l-4.737,3.815
		c-0.916,0.737-2.22,0.737-3.136,0l-4.737-3.815l-2.586,2.081v42.182l23.705-23.705c-0.005-0.083-0.025-0.162-0.025-0.247v-17.142
		L151.735,180.919z"/>
	<path style="fill:#FFFFFF;" d="M238.583,180.997c-0.918,0.736-2.223,0.735-3.137,0l-4.738-3.815l-4.545,3.661
		c-0.916,0.736-2.221,0.736-3.137,0l-4.547-3.661l-4.642,3.737c-0.914,0.736-2.221,0.736-3.135,0l-4.642-3.737l-4.643,3.737
		c-0.914,0.736-2.221,0.736-3.135,0l-4.738-3.815l-4.738,3.815c-0.914,0.736-2.221,0.736-3.135,0l-3.594-2.892L67.628,292.477h60.24
		l114.654-114.652L238.583,180.997z"/>
	<polygon style="fill:#FFFFFF;" points="121.76,228.445 121.76,151.142 91.356,181.547 91.356,258.849 	"/>
	<polygon style="fill:#FFFFFF;" points="160.44,112.464 160.44,157.591 192.616,157.591 218.604,131.602 218.604,103.674 
		169.231,103.673 	"/>
	<polygon style="fill:#FFFFFF;" points="152.44,120.464 128.76,144.143 128.76,157.591 152.44,157.591 	"/>
	<path style="fill:#FFFFFF;" d="M63.901,209.003v77.303l19.496-19.496c-0.013-0.133-0.041-0.262-0.041-0.399v-76.864L63.901,209.003
		z"/>
	<path style="fill:#FFFFFF;" d="M168.606,177.182l-4.547,3.661c-0.916,0.737-2.221,0.734-3.137,0l-0.482-0.388v9.311l10.613-10.613
		L168.606,177.182z"/>
	<polygon style="fill:#FFFFFF;" points="100.639,139.638 123.368,139.638 146.094,116.912 115.512,124.763 	"/>
	<polygon style="fill:#FFFFFF;" points="194.233,78.671 218.604,78.671 218.604,54.3 	"/>
	<polygon style="fill:#FFFFFF;" points="59.788,203.217 82.751,180.255 69.38,170.897 37.059,203.217 	"/>
	<polygon style="fill:#FFFFFF;" points="161.606,78.671 184.335,78.671 214.493,48.513 191.764,48.513 	"/>
	<path style="fill:#FFFFFF;" d="M267.97,177.182l-4.545,3.661c-0.916,0.737-2.221,0.737-3.137,0l-4.547-3.661l-4.642,3.737
		c-0.641,0.516-1.473,0.662-2.229,0.455L132.372,297.872v17.166L269.22,178.189L267.97,177.182z"/>
	<path style="fill:#FFFFFF;" d="M126.626,113.65l28.82-7.4c0.461-0.119,0.93-0.127,1.391-0.082l2.496-2.496h-22.729L126.626,113.65z
		"/>
	<polygon style="fill:#FFFFFF;" points="88.495,174.511 116.368,146.638 93.64,146.638 75.126,165.152 	"/>
	<path style="fill:#FFFFFF;" d="M125.372,319.987v-20.51H60.401c-1.933,0-3.5-1.567-3.5-3.5v-85.76H32.11v109.77H125.372z"/>
	<path style="fill:#FFFFFF;" d="M276.471,173.917l-3.117-11.326H127.839v10.994l1.94-1.561c0.914-0.736,2.22-0.736,3.136,0
		l4.737,3.816l4.736-3.816c0.916-0.735,2.221-0.737,3.137,0l4.642,3.739l4.645-3.739c0.914-0.737,2.219-0.736,3.135,0l4.544,3.662
		l4.547-3.662c0.916-0.736,2.223-0.736,3.137,0l4.643,3.738l4.642-3.738c0.914-0.736,2.221-0.736,3.135,0l4.643,3.738l4.642-3.738
		c0.484-0.389,1.078-0.571,1.664-0.55c0.59-0.019,1.18,0.161,1.662,0.55l4.643,3.738l4.642-3.738c0.915-0.736,2.221-0.736,3.135,0
		l4.645,3.738l4.642-3.738c0.914-0.737,2.219-0.736,3.135,0l4.547,3.662l4.545-3.662c0.916-0.737,2.221-0.736,3.137,0l4.738,3.816
		l4.738-3.816c0.916-0.736,2.221-0.736,3.135,0l4.643,3.738l4.642-3.738c0.914-0.736,2.221-0.736,3.137,0l4.547,3.662l4.545-3.662
		c0.914-0.735,2.22-0.737,3.134,0l4.645,3.738L276.471,173.917z"/>
	<path style="fill:#FFFFFF;" d="M295.202,176.565l-1.094-3.977c-1.285-1.109-2.488-2.333-3.578-3.664
		c-4.66-5.757-6.814-11.959-8.451-17.806c-0.797-2.929-1.982-7.086-3.238-11.487c-0.748-2.625-1.539-5.394-2.323-8.165
		c-2.099-7.438-4.212-15.06-5.437-20.434c-0.498-2.175-0.748-4.363-0.746-6.502c-0.01-1.243,0.08-2.485,0.254-3.713
		c-6.072-8.67-14.801-15.142-27.34-15.147H66.794c-19.826,0.007-35.963,16.144-35.971,35.97v54.509c0,3.033,2.469,5.501,5.502,5.501
		c3.033,0,5.5-2.468,5.5-5.501v-54.51c0.026-13.746,11.223-24.943,24.963-24.969l176.463,0.004
		c12.062,0.018,21.23,8.53,25.82,23.968l15.02,54.578c0.084,0.303,0.125,0.615,0.125,0.929c0,3.033,2.468,5.501,5.5,5.501
		C292.61,181.65,294.989,179.405,295.202,176.565"/>
	<path style="fill:#FFFFFF;" d="M347.935,148.993c-1.205-5.278-3.381-13.118-5.352-20.093c-0.797-2.82-1.599-5.638-2.359-8.302
		c-1.244-4.36-2.418-8.478-3.211-11.39c-1.656-5.903-3.506-10.768-7.133-15.248c-2.021-2.467-4.533-4.479-7.25-5.801
		c-2.928-1.439-6.348-2.197-9.896-2.197h-0.045l-4.037,0.001c-0.028,0-0.055,0-0.083-0.001l-12.31,0.001
		c-5.1,0-9.791,1.81-13.266,5.097c-3.591,3.341-5.699,8.359-5.658,13.446c-0.002,1.645,0.19,3.306,0.57,4.968
		c1.194,5.235,3.375,13.093,5.35,20.089c0.781,2.766,1.57,5.529,2.316,8.147c1.262,4.422,2.454,8.599,3.256,11.545
		c1.428,5.101,3.283,10.496,7.133,15.25c2.018,2.465,4.529,4.476,7.248,5.799c2.93,1.439,6.35,2.196,9.899,2.196h0.037h0.045h16.392
		h0.002c5.096,0,9.787-1.811,13.262-5.098c3.59-3.336,5.697-8.355,5.658-13.447C348.503,152.299,348.312,150.639,347.935,148.993
		 M287.72,91.278c2.344,0.002,4.242,1.903,4.242,4.238c0,2.337-1.9,4.238-4.238,4.238c-2.336,0-4.239-1.9-4.239-4.237
		C283.485,93.184,285.386,91.283,287.72,91.278 M301.706,165.346c-2.336,0-4.238-1.901-4.238-4.238c0-2.337,1.902-4.237,4.238-4.237
		c2.338,0,4.239,1.9,4.239,4.237C305.945,163.445,304.044,165.346,301.706,165.346 M323.007,160.688l-1.111,0.308
		c-1.211,0.334-2.457,0.503-3.703,0.503c-6.225,0-11.729-4.196-13.387-10.202l-10.442-37.848c-0.986-3.577-0.519-7.324,1.311-10.552
		c1.834-3.229,4.812-5.549,8.391-6.534l1.105-0.307c1.215-0.335,2.461-0.505,3.705-0.505c6.227,0,11.733,4.196,13.389,10.201
		l10.441,37.85C334.741,150.988,330.39,158.652,323.007,160.688"/>
	<path style="fill:#FFFFFF;" d="M315.516,107.614c-0.822-2.98-3.553-5.062-6.641-5.062c-0.617,0-1.236,0.085-1.839,0.251
		l-1.104,0.306c-1.783,0.491-3.26,1.643-4.17,3.243c-0.908,1.602-1.139,3.461-0.65,5.236l10.441,37.847
		c0.822,2.982,3.553,5.064,6.639,5.064c0.617,0,1.236-0.084,1.838-0.251l1.113-0.308c3.664-1.011,5.822-4.813,4.814-8.477
		L315.516,107.614z"/>
	<path style="fill:#FFFFFF;" d="M287.721,96.278c0.426-0.001,0.764-0.342,0.764-0.761c0-0.421-0.342-0.762-0.762-0.762
		s-0.762,0.341-0.762,0.761C286.961,95.936,287.303,96.278,287.721,96.278"/>
	<path style="fill:#FFFFFF;" d="M302.468,161.108c0-0.42-0.342-0.762-0.762-0.762c-0.42,0-0.761,0.342-0.761,0.762
		c0,0.421,0.341,0.763,0.761,0.763C302.126,161.871,302.468,161.529,302.468,161.108"/>
</g>
</svg>
