<?xml version="1.0" encoding="iso-8859-1"?>
<!-- Generator: Adobe Illustrator 25.4.1, SVG Export Plug-In . SVG Version: 6.00 Build 0)  -->
<svg version="1.1" id="Calque_1" xmlns="http://www.w3.org/2000/svg" xmlns:xlink="http://www.w3.org/1999/xlink" x="0px" y="0px"
	 viewBox="0 0 368.5 368.5" style="enable-background:new 0 0 368.5 368.5;" xml:space="preserve">
<g>
	<path style="fill:#FFFFFF;" d="M76.9,104.963c-0.301,0.038-0.605,0.064-0.918,0.064l-21.869-0.002
		c0.101,0.117,0.203,0.236,0.314,0.347c2.367,2.367,6.002,2.686,8.717,0.966l163.76,163.759c0.656-4.272,1.902-8.129,3.433-11.697
		L76.9,104.963z"/>
	<path style="fill:#FFFFFF;" d="M78.952,90.775l10.209-10.211c4.744-4.745,9.455-8.175,14-10.401
		c6.848-3.325,13.189-4.095,19.736-2.627c6.532,1.493,13.471,5.457,20.575,12.555L264.12,200.742
		c3.525-3.471,7.852-6.002,12.486-7.375L153.401,70.163c-5.646-5.646-11.588-10.013-17.828-12.977
		c-9.332-4.461-19.432-5.581-29.103-3.133c-9.69,2.42-18.805,8.152-27.239,16.58L59.712,90.154h16.267
		C77.02,90.154,78.026,90.371,78.952,90.775"/>
	<path style="fill:#FFFFFF;" d="M322.007,230.716c-1.289-3.787-3.598-7.41-6.676-10.489l-13.924-13.921
		c-4.398-4.419-10.074-6.941-15.988-7.106c-0.272-0.01-0.512-0.014-0.754-0.014c-5.848,0-11.645,2.479-15.904,6.802
		c-1.426,1.428-2.701,3.035-3.805,4.795c-3.414,5.43-8.014,13.56-12.478,21.536c-1.682,3.006-3.356,6.017-4.942,8.869
		c-2.668,4.794-5.185,9.324-6.992,12.485c-3.145,5.589-6.172,11.798-6.949,19.187c-0.389,3.891,0.047,7.814,1.26,11.327
		c1.289,3.778,3.585,7.39,6.65,10.459l3.59,3.592l10.359,10.36c4.399,4.419,10.074,6.939,15.99,7.103
		c0.272,0.01,0.514,0.015,0.756,0.015c5.844,0,11.641-2.48,15.903-6.803c1.427-1.43,2.703-3.037,3.804-4.793
		c3.432-5.461,8.233-13.952,12.477-21.539c1.699-3.035,3.388-6.074,4.988-8.95c2.648-4.762,5.15-9.258,6.947-12.402
		c3.143-5.588,6.17-11.797,6.948-19.188C323.655,238.148,323.22,234.226,322.007,230.716 M245.241,278.156
		c-0.865,0.865-2.013,1.341-3.236,1.341c-1.225,0-2.373-0.476-3.238-1.341c-1.784-1.783-1.784-4.687,0-6.472
		c0.865-0.867,2.013-1.342,3.238-1.342c1.223,0,2.371,0.475,3.236,1.341C247.024,273.469,247.024,276.373,245.241,278.156
		 M282.397,204.414c0.864-0.864,2.012-1.34,3.237-1.34c1.221,0,2.371,0.476,3.236,1.34c1.785,1.784,1.785,4.688,0.002,6.473
		c-0.867,0.866-2.016,1.342-3.238,1.342c-1.225,0-2.375-0.476-3.238-1.342c-0.866-0.864-1.34-2.013-1.34-3.236
		C281.056,206.428,281.532,205.278,282.397,204.414 M305.583,245.166l-23.168,40.82c-2.826,4.976-8.137,8.067-13.861,8.067
		c-2.741,0-5.455-0.719-7.85-2.078l-1.195-0.675c-7.643-4.34-10.328-14.08-5.996-21.716l23.172-40.822
		c2.822-4.975,8.132-8.066,13.859-8.066c2.742,0,5.457,0.719,7.852,2.08l1.195,0.677c3.703,2.102,6.363,5.516,7.494,9.616
		C308.218,237.17,307.683,241.466,305.583,245.166"/>
	<path style="fill:#FFFFFF;" d="M300.337,234.931c-0.633-2.299-2.123-4.212-4.197-5.389l-1.198-0.677
		c-1.347-0.766-2.867-1.169-4.398-1.169c-3.211,0-6.189,1.731-7.771,4.52l-23.172,40.822c-2.428,4.281-0.922,9.74,3.357,12.169
		l1.195,0.675c1.35,0.767,2.87,1.17,4.401,1.17c3.211,0,6.189-1.732,7.773-4.522l23.168-40.82
		C300.673,239.636,300.972,237.229,300.337,234.931"/>
	<path style="fill:#FFFFFF;" d="M62.456,95.154c0.449,0.102,0.873,0.313,1.209,0.649c0.48,0.481,0.746,1.121,0.746,1.8
		c-0.002,0.679-0.266,1.318-0.748,1.797c-0.301,0.301-0.668,0.506-1.064,0.625l13.378,0.001c1.344-0.001,2.438-1.095,2.438-2.437
		c0-1.343-1.092-2.435-2.434-2.435H62.456z"/>
	<path style="fill:#FFFFFF;" d="M61.134,100.025c-0.398-0.12-0.766-0.325-1.066-0.627c-0.991-0.991-0.991-2.603,0-3.595
		c0.336-0.337,0.761-0.548,1.211-0.649H47.53c-1.343,0-2.435,1.092-2.435,2.433c0,1.344,1.092,2.437,2.435,2.437L61.134,100.025z"/>
	<path style="fill:#FFFFFF;" d="M62.191,97.279c-0.086-0.085-0.203-0.135-0.324-0.135c-0.121,0-0.238,0.05-0.324,0.135
		c-0.082,0.083-0.131,0.201-0.131,0.322c0,0.12,0.047,0.239,0.133,0.323c0.166,0.168,0.474,0.169,0.644,0
		C62.369,97.745,62.369,97.457,62.191,97.279"/>
	<path style="fill:#FFFFFF;" d="M285.931,207.95c0.078-0.077,0.125-0.189,0.125-0.299s-0.047-0.221-0.125-0.299
		c-0.076-0.077-0.187-0.123-0.297-0.123c-0.109,0-0.221,0.046-0.299,0.123c-0.164,0.165-0.164,0.433,0,0.598
		C285.492,208.106,285.777,208.104,285.931,207.95"/>
	<path style="fill:#FFFFFF;" d="M242.005,274.497c-0.111,0-0.223,0.047-0.299,0.124c-0.166,0.164-0.166,0.432-0.002,0.596
		c0.156,0.155,0.444,0.155,0.598,0.001c0.166-0.165,0.166-0.433,0-0.597C242.226,274.544,242.114,274.497,242.005,274.497"/>
</g>
</svg>
