<?xml version="1.0" encoding="iso-8859-1"?>
<!-- Generator: Adobe Illustrator 25.4.1, SVG Export Plug-In . SVG Version: 6.00 Build 0)  -->
<svg version="1.1" id="Calque_1" xmlns="http://www.w3.org/2000/svg" xmlns:xlink="http://www.w3.org/1999/xlink" x="0px" y="0px"
	 viewBox="0 0 368.5 368.5" style="enable-background:new 0 0 368.5 368.5;" xml:space="preserve">
<g>
	<path style="fill:#FFFFFF;" d="M100.609,219.645c-6.573,6.919-17.985,8.709-21.7,9.12l0.133,18.928
		c5.585-0.657,20.114-3.736,33.116-18.223c13.243-14.751,11.916-28.439,10.924-33.131l-16.568,0.124
		C106.843,200.59,107.176,212.735,100.609,219.645"/>
	<path style="fill:#FFFFFF;" d="M46.098,235.715l27.178,31.72L73.15,249.61c-2.441-2.005-7.061-5.956-12.529-11.44
		c-4.091-4.105-6.496-6.929-8.434-9.201c-1.938-2.278-3.339-3.925-5.511-5.797c-0.491-0.425-0.55-1.173-0.119-1.665
		c0.423-0.496,1.169-0.55,1.663-0.123c2.309,1.987,3.836,3.784,5.769,6.053c1.907,2.241,4.28,5.027,8.305,9.064
		c4.424,4.437,8.271,7.847,10.834,10.017l-0.348-49.334c0.02-3.138,2.447-6.367,6.468-6.42l12.227-0.092l-28.622-27.487
		c-0.47-0.453-0.486-1.2-0.037-1.669c0.454-0.473,1.2-0.485,1.675-0.036l30.368,29.166l4.201-0.032l-25.194-24.136
		c-0.472-0.449-0.486-1.2-0.035-1.67c0.45-0.474,1.201-0.49,1.669-0.037l26.949,25.817l17.788-0.134l-21.9-22.921
		c-0.45-0.473-0.433-1.221,0.037-1.67c0.474-0.453,1.219-0.435,1.671,0.04l23.437,24.527l23.829-0.179
		c-0.361-0.663-0.614-1.392-0.71-2.176l-0.236-1.924l-9.662-8.875c-1.894-0.521-3.406-1.931-4.093-3.76l-13.014-11.954
		c-0.037-0.028-0.066-0.063-0.096-0.094c-0.914-0.978-1.911-1.583-4.059-1.583l-7.64,0.054c3.057,3.264,7.516,7.65,12.426,11.241
		c9.184,6.725,15.601,13.155,15.662,13.223c0.46,0.461,0.458,1.208-0.008,1.669c-0.226,0.227-0.527,0.341-0.832,0.341
		c-0.298,0-0.607-0.116-0.835-0.349c-0.062-0.062-6.354-6.369-15.384-12.977c-5.977-4.371-11.194-9.753-14.231-13.125l-54.034,0.383
		c-6.813,0.048-6.971,6.057-6.967,6.745l0.13,18.279c3.893,5.015,9.837,12.793,13.464,18.109c3.51,5.139,5.53,11.973,2.841,14.503
		c-0.502,0.473-1.222,0.852-2.227,0.852c-1.289,0-3.046-0.623-5.432-2.471c-3.308-2.566-6.184-4.998-8.476-7.02l0.148,20.983
		C44.109,232.883,44.938,234.172,46.098,235.715"/>
	<path style="fill:#FFFFFF;" d="M122.577,252.714c-15.198-2.195-36.818,4.003-43.457,6.079l0.085,12.03
		c0.144,0.006,0.276,0.018,0.428,0.018l0.325-0.004l63.925-0.453C140.923,264.185,134.457,254.428,122.577,252.714"/>
	<path style="fill:#FFFFFF;" d="M142.027,250.717c-7.535-9.799-5.72-25.161-3.294-37.452c1.637-8.286,0.417-14.217-0.463-17.039
		l-12.755,0.096c1.126,5.55,2.062,19.514-11.598,34.727c-13.836,15.413-29.049,18.45-34.858,19.045l0.044,6.221
		c7.485-2.325,28.427-8.158,43.809-5.94c13.589,1.959,20.612,13.441,23.56,19.992l5.586-0.04c2.169-0.056,2.529-0.421,2.523-2.589
		l-0.056-8.266C150.788,258.277,145.95,255.82,142.027,250.717"/>
	<path style="fill:#FFFFFF;" d="M58.415,216.26c1.155-1.086,0.489-6.086-3.175-11.452c-3.05-4.471-7.759-10.702-11.484-15.54
		l0.119,16.884c2.441,2.21,5.86,5.171,9.946,8.34C56.441,216.526,57.933,216.715,58.415,216.26"/>
	<path style="fill:#FFFFFF;" d="M153.631,196.109l-12.892,0.097c0.938,3.308,1.929,9.316,0.313,17.518
		c-2.147,10.877-4.191,26.404,2.847,35.554c3.287,4.277,7.335,6.51,10.609,7.679l-0.411-60.899
		C153.944,196.084,153.791,196.108,153.631,196.109"/>
	<path style="fill:#FFFFFF;" d="M92.365,210.782c4.051-4.467,3.816-10.74,3.271-14.235l-16.325,0.121
		c-0.56,0.008-0.622,0.365-0.624,0.517l0.12,17.105C81.382,214.941,87.75,215.867,92.365,210.782"/>
	<path style="fill:#FFFFFF;" d="M94.114,212.369c-3.471,3.832-7.745,4.796-11.176,4.796c-1.619,0-3.043-0.217-4.114-0.448
		l0.068,9.664c3.709-0.454,14.185-2.24,20.001-8.362c5.936-6.244,5.534-17.909,5.248-21.538l-6.102,0.046
		C98.623,200.515,98.72,207.291,94.114,212.369"/>
	<path style="fill:#FFFFFF;" d="M223.763,209.989c7.838-13.892,18.799-25.034,28.864-33.556
		c-21.684-16.064-67.897-50.222-106.859-79.023C115.46,75.007,90.56,56.602,82.864,50.897c-2.675,2.581-8.265,9.327-17.686,23.291
		c2.344,0.249,4.254,2.082,4.546,4.458l1.298,10.562l3.037,0.263c0.966-1.299,2.431-2.224,4.165-2.436
		c3.351-0.416,6.418,1.976,6.831,5.338l1.195,9.745l7.907,0.689c3.373,0.294,5.869,3.267,5.576,6.64
		c-0.018,0.207-0.073,0.401-0.111,0.6l0.989,8.044l7.9,0.688c3.373,0.293,5.87,3.265,5.577,6.638
		c-0.013,0.146-0.055,0.282-0.078,0.424l0.99,8.045l7.902,0.689c3.374,0.295,5.869,3.269,5.575,6.641
		c-0.018,0.206-0.073,0.399-0.11,0.599l0.987,8.043l7.907,0.691c3.373,0.296,5.867,3.269,5.573,6.643
		c-0.006,0.074-0.031,0.142-0.04,0.215l1.017,8.283l7.9,0.686c3.373,0.296,5.87,3.266,5.577,6.64
		c-0.018,0.204-0.072,0.393-0.109,0.591l0.988,8.048l7.905,0.692c3.279,0.288,5.708,3.111,5.569,6.367l1.077,8.734l7.903,0.688
		c3.374,0.294,5.869,3.268,5.575,6.64c-0.007,0.076-0.031,0.145-0.04,0.219l1.019,8.281l7.899,0.69
		c3.373,0.295,5.867,3.269,5.573,6.642c-0.097,1.11-0.498,2.111-1.093,2.963l1.062,8.665l7.906,0.69l4.178-0.99
		C216.069,224.549,219.822,216.971,223.763,209.989 M99.022,84.491c-1.149,1.519-2.977,2.428-4.886,2.428
		c-1.347,0-2.626-0.43-3.7-1.242c-2.689-2.043-3.22-5.893-1.19-8.586c1.974-2.6,5.992-3.156,8.591-1.194
		C100.536,77.949,101.064,81.802,99.022,84.491"/>
	<path style="fill:#FFFFFF;" d="M320.003,202.452l-8.218-5.783c-11.467-8.065-25.74-18.1-33.874-24.125
		c-2.202-1.628-3.998-2.42-5.491-2.42c-1.199,0-2.388,0.514-4.103,1.774c-11.758,8.65-28.619,22.324-39.214,41.104
		c-9.495,16.818-17.915,37.209-22.241,49.561c-2.271,6.484-1.469,9.21,4.087,13.89c14.035,11.843,41.289,34.227,48.897,40.046
		c0.991,0.759,1.934,1.128,2.883,1.128c1.723,0,3.265-1.223,4.256-2.249c2.494-2.583,4.291-6.899,4.182-10.045
		c-0.263-7.785-0.012-21.088-0.001-21.651c0.01-0.549,0.168-1.086,0.457-1.553l33.035-53.445c0.372-0.604,0.943-1.06,1.614-1.289
		c0.122-0.042,12.37-4.245,16.363-5.864c2.263-0.918,4.017-3.552,4.363-6.557C327.301,212.355,326.795,207.246,320.003,202.452
		 M287.967,218.463l-32.4,52.55c-2.997,4.854-8.193,7.75-13.9,7.75c-3.015,0-5.972-0.841-8.551-2.432
		c-7.651-4.717-10.038-14.785-5.32-22.44l32.408-52.549c2.992-4.853,8.186-7.749,13.893-7.749c3.014,0,5.97,0.841,8.546,2.433
		c3.707,2.281,6.303,5.875,7.309,10.114S290.253,214.756,287.967,218.463"/>
</g>
</svg>
