<?xml version="1.0" encoding="iso-8859-1"?>
<!-- Generator: Adobe Illustrator 25.4.1, SVG Export Plug-In . SVG Version: 6.00 Build 0)  -->
<svg version="1.1" id="Calque_1" xmlns="http://www.w3.org/2000/svg" xmlns:xlink="http://www.w3.org/1999/xlink" x="0px" y="0px"
	 viewBox="0 0 368.5 368.5" style="enable-background:new 0 0 368.5 368.5;" xml:space="preserve">
<g>
	<path style="fill:#FFFFFF;" d="M280.404,167.119c-0.919,0-1.75,0.361-2.381,0.937l0.002,20.074c0.63,0.576,1.46,0.936,2.379,0.936
		c1.954,0,3.544-1.59,3.544-3.543v-14.861C283.948,168.709,282.358,167.119,280.404,167.119"/>
	<path style="fill:#FFFFFF;" d="M90.771,168.364c-0.65-0.756-1.602-1.245-2.674-1.245c-1.955,0-3.545,1.59-3.545,3.543v14.861
		c0,1.953,1.59,3.543,3.545,3.543c1.072,0,2.024-0.489,2.674-1.245V168.364z"/>
	<path style="fill:#FFFFFF;" d="M264.537,171.874h-0.504c-0.503,0.701-1.034,1.391-1.595,2.066
		c-4.565,5.514-10.967,10.288-18.727,14.258c-15.52,7.928-36.547,12.697-59.742,12.707c-17.396-0.002-33.575-2.695-47.122-7.377
		c-13.539-4.695-24.49-11.324-31.347-19.588c-0.432-0.52-0.842-1.051-1.239-1.586v12.252h7.927l11.054,99.678
		c0.001,0.011,0.004,0.022,0.008,0.031c0.06,10.11,6.302,19.604,17.581,26.739c11.28,7.136,26.265,11.065,42.193,11.065
		c15.929,0,30.913-3.929,42.194-11.065c11.251-7.118,17.489-16.582,17.579-26.664c0.047-0.015,0.082-0.055,0.087-0.106
		l11.054-99.678h10.599V171.874z"/>
	<path style="fill:#FFFFFF;" d="M183.969,119.302c-43.425,0-77.44,16.48-77.44,37.52c0,4.209,1.381,8.23,3.907,11.979l0.011,0.1
		c0.152,0.193,0.289,0.388,0.447,0.581c3.758,4.552,9.398,8.845,16.519,12.488c14.242,7.297,34.332,11.945,56.555,11.936
		c16.667,0.003,32.132-2.6,44.834-6.993c12.697-4.374,22.592-10.581,28.221-17.411c2.838-3.945,4.387-8.209,4.387-12.68
		C261.41,135.782,227.394,119.302,183.969,119.302 M183.969,189.342c-39.267,0-72.44-14.893-72.44-32.52
		c0-17.628,33.173-32.52,72.44-32.52c39.268,0,72.441,14.892,72.441,32.52C256.41,174.449,223.237,189.342,183.969,189.342"/>
	<path style="fill:#FFFFFF;" d="M99.26,129.078c0-19.789,7.705-38.395,21.694-52.392c10.061-10.054,22.506-16.841,36.053-19.879
		c-0.342-1.085-0.527-2.239-0.541-3.433c-34.681,7.732-60.693,38.729-60.695,75.704v60.023c0,0.961,0.782,1.744,1.743,1.744
		c0.963,0,1.746-0.783,1.746-1.744V129.078z"/>
	<path style="fill:#FFFFFF;" d="M273.021,129.078c-0.004-37.459-26.695-68.802-62.055-76.015c0,0.063,0.009,0.122,0.009,0.185
		c0,1.136-0.17,2.231-0.47,3.272c14.043,2.888,26.953,9.795,37.331,20.165c13.995,14.002,21.701,32.609,21.701,52.393v61.371
		c0,0.963,0.782,1.746,1.744,1.746s1.744-0.783,1.744-1.746L273.021,129.078z"/>
	<path style="fill:#FFFFFF;" d="M161.46,53.248c0,3.788,3.081,6.869,6.868,6.869h30.777c3.788,0,6.87-3.081,6.87-6.869
		c0-3.786-3.082-6.867-6.87-6.867h-30.777C164.541,46.381,161.46,49.462,161.46,53.248"/>
</g>
</svg>
