<?xml version="1.0" encoding="iso-8859-1"?>
<!-- Generator: Adobe Illustrator 25.4.1, SVG Export Plug-In . SVG Version: 6.00 Build 0)  -->
<svg version="1.1" id="Calque_1" xmlns="http://www.w3.org/2000/svg" xmlns:xlink="http://www.w3.org/1999/xlink" x="0px" y="0px"
	 viewBox="0 0 368.5 368.5" style="enable-background:new 0 0 368.5 368.5;" xml:space="preserve">
<g>
	<path style="fill:#FFFFFF;" d="M72.355,155.174c8.975,4.487,22.641,6.445,34.699,7.257c-4.054-3.493-7.195-8.018-9.009-13.164
		c-11.04-1.303-23.86-3.837-32.852-8.763c-5.756-3.151-10.254-6.367-13.734-9.334C54.973,139.614,61.28,149.639,72.355,155.174"/>
	<path style="fill:#FFFFFF;" d="M96.532,135.259c0.478-3.895,1.673-7.568,3.464-10.879c-6.035-4.504-11.709-9.521-14.632-14.172
		c-5.358-8.524-5.885-17.888-5.618-23.302c-4.189-1.977-7.688-3.458-9.932-4.369c-1.036,6.124-2.357,21.394,6.876,34.217
		C82.308,124.558,89.687,130.697,96.532,135.259"/>
	<path style="fill:#FFFFFF;" d="M94.528,94.666c-4.112-2.407-8.145-4.523-11.804-6.322c-0.082,5.14,0.688,13.123,5.181,20.268
		c2.662,4.238,7.952,8.912,13.658,13.18c3.118-4.62,7.454-8.351,12.54-10.74C109.892,106.411,102.922,99.58,94.528,94.666"/>
	<path style="fill:#FFFFFF;" d="M314.46,181.358l-0.128-0.137c-4.603-4.953-29.647-30.568-70.709-48.452
		c-36.398-15.784-67.715-17.576-79.49-17.614c-0.128,0-0.254-0.008-0.379-0.021h-36.561c-13.177,0-23.898,10.719-23.898,23.896
		c0,13.176,10.721,23.895,23.898,23.895h33.284l-1.06-22.602c-0.044-0.957,0.306-1.891,0.967-2.583
		c0.661-0.69,1.575-1.081,2.529-1.081h0.008c10.496,0.021,38.466,1.617,71.402,15.941c20.94,9.087,37.281,20.549,47.302,28.565
		c5.659,4.525,9.914,8.424,12.485,10.897c1.417,1.361,2.479,2.44,3.12,3.106c0.255,0.265,0.458,0.48,0.606,0.636l0.108,0.116
		c0.162,0.169,1.134,1.142,1.27,1.278c0.057,0.054,0.109,0.109,0.161,0.167c1.674,1.863,2.848,2.128,6.309,2.128
		c2.03,0,5.696-1.754,8.005-3.831C317.838,191.929,318.184,185.517,314.46,181.358 M127.546,153.241
		c-7.602,0-13.785-6.184-13.785-13.785c0-7.603,6.183-13.787,13.785-13.787c7.602,0,13.785,6.184,13.785,13.787
		C141.331,147.057,135.148,153.241,127.546,153.241"/>
	<path style="fill:#FFFFFF;" d="M185.386,189.812c-3.276-4.117-6.33-7.506-9.335-10.36c-3.662-3.445-6.479-5.533-9.712-7.198
		c-1.561-0.791-3.25-1.195-5.002-1.195c-4.228,0-8.041,2.341-9.949,6.11c-1.345,2.654-1.575,5.671-0.648,8.498
		c0.926,2.828,2.898,5.124,5.553,6.468l-0.001,0.001c0.989,0.494,2.844,1.943,4.438,3.484c3.31,3.126,7.333,7.918,11.303,13.473
		c4.32,6.025,8.705,13.079,12.68,20.398c5,9.181,9.32,18.753,12.167,26.949c1.316,3.793,2.349,7.379,2.983,10.371
		c0.616,2.827,0.839,5.241,0.788,6.375c-0.004,0.176-0.019,0.335-0.025,0.406c-0.65,6.168,3.795,11.66,9.904,12.307
		c0.291,0.03,0.589,0.051,0.881,0.059l0.305,0.004c5.703,0,10.456-4.286,11.057-9.97c0.077-0.731,0.124-1.461,0.145-2.232
		c0.08-3.456-0.312-7.035-1.271-11.592c-2.645-12.24-8.652-27.226-17.368-43.324C198.349,207.943,191.815,197.902,185.386,189.812"
		/>
	<path style="fill:#FFFFFF;" d="M136.331,139.456c0-4.846-3.941-8.787-8.785-8.787c-4.844,0-8.785,3.941-8.785,8.787
		c0,4.844,3.941,8.785,8.785,8.785C132.39,148.241,136.331,144.3,136.331,139.456"/>
</g>
</svg>
