<?xml version="1.0" encoding="iso-8859-1"?>
<!-- Generator: Adobe Illustrator 25.4.1, SVG Export Plug-In . SVG Version: 6.00 Build 0)  -->
<svg version="1.1" id="Calque_1" xmlns="http://www.w3.org/2000/svg" xmlns:xlink="http://www.w3.org/1999/xlink" x="0px" y="0px"
	 viewBox="0 0 368.5 368.5" style="enable-background:new 0 0 368.5 368.5;" xml:space="preserve">
<g>
	<path style="fill:#FFFFFF;" d="M116.926,74.857c1.824,0,3.531,0.81,4.684,2.223c1.127,1.379,1.535,3.108,1.283,4.743h30.054
		l6.983-5.611c1.068-0.872,2.426-1.355,3.812-1.355c1.825,0,3.532,0.81,4.684,2.223c1.127,1.379,1.535,3.108,1.283,4.743h37.951
		l1.108-0.891l1.887-4.147c0.638-1.403,1.609-2.591,2.787-3.497H113.203c-2.353,0-4.267,1.914-4.267,4.267
		c0,0.613,0.135,1.193,0.367,1.719l3.81-3.062C114.182,75.34,115.539,74.857,116.926,74.857"/>
	<path style="fill:#FFFFFF;" d="M323.545,73.288h-98.842c1.641,1.264,2.856,3.069,3.358,5.183l0.796,3.352h30.131l6.983-5.61
		c1.068-0.872,2.424-1.356,3.81-1.356c1.826,0,3.534,0.81,4.686,2.223c1.125,1.379,1.533,3.108,1.283,4.743h25.795
		c0.404-0.326,0.746-0.606,0.998-0.823c1.789-1.529,4.357-2.407,7.049-2.407c1.043,0,2.09,0.141,3.115,0.402l3.463-2.782
		c1.068-0.872,2.426-1.356,3.812-1.356c1.825,0,3.532,0.81,4.684,2.223c0.943,1.153,1.383,2.553,1.357,3.937
		c1.081-0.775,1.792-2.034,1.792-3.461C327.815,75.202,325.898,73.288,323.545,73.288"/>
	<path style="fill:#FFFFFF;" d="M176.379,164.276c0.168-0.015,0.334-0.044,0.504-0.044c1.824,0,3.531,0.81,4.683,2.223
		c0.915,1.116,1.387,2.495,1.36,3.925l12.342-27.151h-9.323L176.379,164.276z"/>
	<polygon style="fill:#FFFFFF;" points="232.467,118.641 225.143,124.527 225.182,124.693 233.906,124.693 	"/>
	<path style="fill:#FFFFFF;" d="M180.938,174.754c-0.074,0.068-0.146,0.14-0.227,0.205l-9.15,7.353l2.041,8.587L180.938,174.754z"/>
	<path style="fill:#FFFFFF;" d="M229.588,143.229l10.758,45.273c0.789-0.366,1.648-0.581,2.529-0.581
		c1.826,0,3.533,0.81,4.686,2.223c1.019,1.247,1.494,2.82,1.334,4.427c-0.162,1.607-0.94,3.056-2.192,4.078l-3.312,2.662
		L252,237.542c0.455,1.921,2.15,3.263,4.121,3.263c0.332,0,0.662-0.039,0.985-0.115c2.277-0.542,3.689-2.833,3.15-5.108
		l-21.945-92.353H229.588z"/>
	<path style="fill:#FFFFFF;" d="M224.047,83.202c-0.369,0.901-0.961,1.725-1.766,2.383l-15.964,12.828l-11.946,26.279h9.321
		l14.113-31.049l4.244,17.861l7.324-5.886L224.047,83.202z"/>
	<polygon style="fill:#FFFFFF;" points="153.277,185.339 129.367,204.552 123.771,216.86 154.836,191.9 	"/>
	<path style="fill:#FFFFFF;" d="M179.916,170.583c0.08-0.81-0.158-1.602-0.672-2.23c-0.582-0.713-1.441-1.121-2.361-1.121
		c-0.709,0-1.373,0.238-1.924,0.687l-5.727,4.6l1.561,6.562l8.029-6.452C179.443,172.122,179.834,171.393,179.916,170.583"/>
	<path style="fill:#FFFFFF;" d="M244.814,196.318c0.621-0.508,1.014-1.236,1.094-2.047c0.082-0.808-0.157-1.6-0.672-2.228
		c-0.582-0.714-1.442-1.121-2.361-1.121c-0.707,0-1.372,0.237-1.922,0.686l-56.412,45.327l1.558,6.561L244.814,196.318z"/>
	<path style="fill:#FFFFFF;" d="M270.844,128.141l-6.316,5.075c0.019,0.247,0.037,0.494,0.037,0.746
		c0,3.032-1.469,5.718-3.725,7.411l0.053,1.707v24.22l9.861-8.386C270.797,145.839,270.838,132.524,270.844,128.141"/>
	<path style="fill:#FFFFFF;" d="M67.289,124.692l51.576-41.438c1.291-1.055,1.483-2.977,0.42-4.277
		c-0.58-0.713-1.439-1.12-2.359-1.12c-0.709,0-1.373,0.237-1.924,0.687l-57.436,46.148H67.289z"/>
	<path style="fill:#FFFFFF;" d="M220.393,83.254c1.291-1.055,1.484-2.976,0.422-4.276c-0.582-0.713-1.442-1.121-2.361-1.121
		c-0.707,0-1.372,0.238-1.922,0.687l-57.438,46.148h9.725L220.393,83.254z"/>
	<path style="fill:#FFFFFF;" d="M165.682,83.254c1.291-1.055,1.482-2.977,0.42-4.276c-0.58-0.713-1.44-1.121-2.359-1.121
		c-0.709,0-1.374,0.238-1.924,0.687l-57.436,46.148h9.723L165.682,83.254z"/>
	<path style="fill:#FFFFFF;" d="M269.781,77.857c-0.707,0-1.371,0.237-1.922,0.687l-57.437,46.148h9.724l51.574-41.438
		c1.291-1.055,1.485-2.976,0.422-4.277C271.56,78.264,270.701,77.857,269.781,77.857"/>
	<path style="fill:#FFFFFF;" d="M322.342,78.978c-0.58-0.713-1.44-1.12-2.359-1.12c-0.709,0-1.373,0.237-1.924,0.686l-2.182,1.752
		c1.686,0.986,3.195,2.407,4.369,4.304l1.676-1.346C323.213,82.2,323.404,80.278,322.342,78.978"/>
	<path style="fill:#FFFFFF;" d="M259.408,125.667c1.875,0.934,3.387,2.479,4.277,4.378l6.993-5.618
		c-0.493-3.503-2.008-4.064-3.627-4.064c-0.198,0-0.405,0.011-0.62,0.031c-0.201,0.018-0.404,0.061-0.613,0.124L259.408,125.667z"/>
	<path style="fill:#FFFFFF;" d="M309.592,81.593c-1.986,0-3.846,0.615-5.098,1.686c-3.47,2.971-20.521,15.764-32.972,25.105
		c-3.207,2.406-6.047,4.536-8.162,6.13c-2.702,2.035-3.54,4.65-3.739,6.614c2.049-1.803,4.178-3.508,6.539-3.722
		c0.309-0.029,0.608-0.043,0.891-0.043c6.795,0,6.795,7.373,6.795,9.794c0,5.124-0.139,46.486-0.18,58.601l46.59-40.723
		c-0.004-4.954-0.043-35.608-0.5-51.117C319.488,84.821,314.115,81.593,309.592,81.593"/>
	<path style="fill:#FFFFFF;" d="M255.297,138.229c2.354,0,4.268-1.914,4.268-4.268s-1.914-4.269-4.268-4.269h-96.924
		c0.664,0.941,1.162,2.016,1.44,3.184l1.273,5.353H255.297z"/>
	<path style="fill:#FFFFFF;" d="M142.404,131.189c0.242-0.532,0.537-1.03,0.867-1.497H44.953c-2.354,0-4.268,1.915-4.268,4.269
		c0,2.354,1.914,4.268,4.268,4.268h94.25L142.404,131.189z"/>
	<path style="fill:#FFFFFF;" d="M154.949,134.034c-0.42-1.764-1.916-3.068-3.721-3.244c-1.781-0.176-3.527,0.831-4.273,2.47
		L90.344,257.812c-0.971,2.131-0.026,4.653,2.105,5.622c0.557,0.253,1.145,0.381,1.75,0.381c1.662,0,3.182-0.976,3.869-2.489
		l51.486-113.276l34.196,143.898c0.533,2.24,2.812,3.699,5.105,3.147c2.28-0.542,3.692-2.834,3.153-5.109L154.949,134.034z"/>
</g>
</svg>
