<?xml version="1.0" encoding="iso-8859-1"?>
<!-- Generator: Adobe Illustrator 25.4.1, SVG Export Plug-In . SVG Version: 6.00 Build 0)  -->
<svg version="1.1" id="Calque_1" xmlns="http://www.w3.org/2000/svg" xmlns:xlink="http://www.w3.org/1999/xlink" x="0px" y="0px"
	 viewBox="0 0 368.5 368.5" style="enable-background:new 0 0 368.5 368.5;" xml:space="preserve">
<g>
	<path style="fill:#FFFFFF;" d="M198.265,222.283h15.129c3.854,0,6.989-3.137,6.989-6.993v-13.267
		c-0.019-0.243-0.021-0.492-0.031-0.736h-22.087V222.283z"/>
	<path style="fill:#FFFFFF;" d="M91.174,288.933h-0.875c-6.359,0-11.532-5.172-11.532-11.528c0-6.359,5.173-11.53,11.532-11.53
		h0.875v-7.181h-0.875c-6.359,0-11.532-5.172-11.532-11.53c0-6.359,5.173-11.53,11.532-11.53h0.875v-34.348h-0.875
		c-6.359,0-11.532-5.171-11.532-11.53c0-6.358,5.173-11.53,11.532-11.53h0.875v-28.949h-0.875c-6.359,0-11.532-5.173-11.532-11.532
		c0-6.358,5.173-11.53,11.532-11.53h0.875v-7.187h-0.875c-6.359,0-11.532-5.169-11.532-11.526c0-6.358,5.173-11.53,11.532-11.53
		h0.875v-8.279h-0.875c-6.359,0-11.532-5.172-11.532-11.53c0-6.359,5.173-11.531,11.532-11.531h0.875V54.023
		c0-6.339-5.156-11.497-11.493-11.497S68.19,47.684,68.19,54.023V314.5c0,6.336,5.154,11.491,11.491,11.491
		s11.493-5.155,11.493-11.491V288.933z"/>
	<path style="fill:#FFFFFF;" d="M90.299,70.648c-3.041,0-5.516,2.473-5.516,5.514c0,3.042,2.475,5.515,5.516,5.515h172.178V70.648
		H90.299z"/>
	<path style="fill:#FFFFFF;" d="M90.299,132.231c-3.041,0-5.516,2.473-5.516,5.514c0,3.042,2.475,5.517,5.516,5.517h172.178v-11.031
		H90.299z"/>
	<path style="fill:#FFFFFF;" d="M90.299,101.988c-3.041,0-5.516,2.473-5.516,5.514c0,3.04,2.475,5.511,5.516,5.511h172.178v-11.025
		H90.299z"/>
	<path style="fill:#FFFFFF;" d="M209.56,184.242c-6.031,0.237-10.9,5.029-11.26,11.029h64.177v-11.029H209.56z"/>
	<path style="fill:#FFFFFF;" d="M90.299,184.242c-3.041,0-5.516,2.473-5.516,5.514c0,3.042,2.475,5.515,5.516,5.515h17.303
		c0.01-5.869,0.018-7.647,0.025-8.207h-0.005c0-0.938,0.092-1.88,0.225-2.822H90.299z"/>
	<path style="fill:#FFFFFF;" d="M262.477,282.918v-11.027h-67.312c-2.386,2.771-5.91,4.533-9.844,4.533h-64.779
		c-3.936,0-7.463-1.762-9.85-4.533H90.299c-3.041,0-5.516,2.473-5.516,5.514c0,3.04,2.475,5.513,5.516,5.513H262.477z"/>
	<path style="fill:#FFFFFF;" d="M198.265,241.65v7.104c0,0.351,0.023,0.698,0.051,1.042l0.01,0.237v2.646h64.151V241.65H198.265z"/>
	<path style="fill:#FFFFFF;" d="M90.299,241.65c-3.041,0-5.516,2.473-5.516,5.514c0,3.042,2.475,5.515,5.516,5.515h17.242
		c0.004-3.899,0.006-7.579,0.008-11.029H90.299z"/>
	<path style="fill:#FFFFFF;" d="M290.926,314.576c-9.687,0-17.569-7.88-17.569-17.567c0-9.688,7.882-17.57,17.569-17.57
		c0.186,0,0.366,0.022,0.55,0.028V54.023c0-6.339-5.156-11.497-11.495-11.497c-6.334,0-11.489,5.158-11.489,11.497V314.5
		c0,6.337,5.155,11.491,11.489,11.491c6.324,0,11.466-5.129,11.493-11.442C291.29,314.555,291.11,314.576,290.926,314.576"/>
	<path style="fill:#FFFFFF;" d="M302.484,297.009c0-2.824-1.022-5.411-2.712-7.42l-4.651,6.737
		c-0.584,0.844-1.523,1.298-2.477,1.298c-0.59,0-1.185-0.172-1.708-0.533c-1.366-0.944-1.709-2.818-0.765-4.185l4.664-6.755
		c-1.222-0.443-2.536-0.696-3.909-0.696c-6.37,0-11.553,5.184-11.553,11.554s5.183,11.552,11.553,11.552
		C297.299,308.561,302.484,303.379,302.484,297.009"/>
	<path style="fill:#FFFFFF;" d="M192.31,263.417v-13.269c-0.035-0.46-0.061-0.924-0.061-1.394v-52.775
		c0-9.803,7.974-17.777,17.775-17.777h10.107c-1.41-4.531-5.662-7.85-10.616-7.85h-78.764c-10.236,0-17.113,8.642-17.113,16.711
		l-0.002,0.165c-0.022,2.612-0.067,50.734-0.088,76.191c0,3.854,3.137,6.989,6.994,6.989h64.779
		C189.175,270.408,192.31,267.273,192.31,263.417"/>
</g>
</svg>
