<?xml version="1.0" encoding="iso-8859-1"?>
<!-- Generator: Adobe Illustrator 25.4.1, SVG Export Plug-In . SVG Version: 6.00 Build 0)  -->
<svg version="1.1" id="Calque_1" xmlns="http://www.w3.org/2000/svg" xmlns:xlink="http://www.w3.org/1999/xlink" x="0px" y="0px"
	 viewBox="0 0 368.5 368.5" style="enable-background:new 0 0 368.5 368.5;" xml:space="preserve">
<g>
	<path style="fill:#FFFFFF;" d="M79.234,278.838h7.783c0.178,0,0.354,0.016,0.53,0.027V88.936c-0.176,0.011-0.352,0.025-0.53,0.025
		h-7.783c-0.31,0-0.614-0.025-0.914-0.06V278.9C78.62,278.863,78.924,278.838,79.234,278.838"/>
	<path style="fill:#FFFFFF;" d="M281.912,278.838c0.36,0,0.712,0.035,1.059,0.084V88.877c-0.347,0.051-0.699,0.084-1.059,0.084
		h-7.783c-0.129,0-0.255-0.012-0.383-0.019v189.916c0.128-0.006,0.254-0.02,0.383-0.02H281.912z"/>
	<rect x="257.75" y="83.229" style="fill:#FFFFFF;" width="6.894" height="201.791"/>
	<rect x="225.349" y="83.229" style="fill:#FFFFFF;" width="6.893" height="201.791"/>
	<rect x="192.947" y="83.229" style="fill:#FFFFFF;" width="6.893" height="201.791"/>
	<rect x="160.547" y="83.229" style="fill:#FFFFFF;" width="6.893" height="201.791"/>
	<path style="fill:#FFFFFF;" d="M135.04,88.777c-0.523,0.117-1.064,0.184-1.621,0.184h-5.273v196.058h6.894V88.777z"/>
	<path style="fill:#FFFFFF;" d="M102.639,88.961h-1.39c-2.182,0-4.142-0.949-5.505-2.451v198.51h6.895V88.961z"/>
	<path style="fill:#FFFFFF;" d="M63.627,302.701c-5.052,0-9.162-3.967-9.162-8.842c0-4.873,4.11-8.84,9.162-8.84h2.642
		c-1.852-5.263-5.241-8.886-9.029-8.886c-5.699,0-10.514,8.175-10.514,17.853c0,9.68,4.815,17.856,10.514,17.856
		c3.85,0,7.289-3.737,9.12-9.141H63.627z"/>
	<path style="fill:#FFFFFF;" d="M289.355,290.02v7.682h6.587c-0.129-1.207-0.198-2.446-0.198-3.715c0-1.358,0.081-2.68,0.228-3.967
		H289.355z"/>
	<rect x="94.462" y="290.02" style="fill:#FFFFFF;" width="172.223" height="7.682"/>
	<path style="fill:#FFFFFF;" d="M63.627,290.02c-2.295,0-4.162,1.723-4.162,3.84c0,2.119,1.867,3.842,4.162,3.842h8.163v-7.682
		H63.627z"/>
	<path style="fill:#FFFFFF;" d="M300.745,293.986c0,9.68,4.815,17.855,10.514,17.855c5.7,0,10.515-8.175,10.515-17.855
		c0-9.678-4.815-17.854-10.515-17.854C305.56,276.132,300.745,284.308,300.745,293.986"/>
	<path style="fill:#FFFFFF;" d="M63.627,83.228c-5.052,0-9.162-3.967-9.162-8.842c0-4.873,4.11-8.84,9.162-8.84h2.643
		c-1.852-5.265-5.241-8.888-9.03-8.888c-5.699,0-10.514,8.175-10.514,17.853c0,9.68,4.815,17.858,10.514,17.858
		c3.85,0,7.289-3.737,9.12-9.141H63.627z"/>
	<rect x="140.863" y="70.547" style="fill:#FFFFFF;" width="125.822" height="7.682"/>
	<path style="fill:#FFFFFF;" d="M289.355,70.547v7.682h6.587c-0.129-1.207-0.198-2.448-0.198-3.717c0-1.356,0.081-2.68,0.228-3.965
		H289.355z"/>
	<path style="fill:#FFFFFF;" d="M71.79,78.228v-7.682h-8.163c-2.295,0-4.163,1.723-4.163,3.84c0,2.119,1.868,3.842,4.163,3.842
		H71.79z"/>
	<path style="fill:#FFFFFF;" d="M300.745,74.512c0,9.68,4.815,17.857,10.514,17.857c5.7,0,10.515-8.177,10.515-17.857
		c0-9.678-4.815-17.854-10.515-17.854C305.56,56.658,300.745,64.834,300.745,74.512"/>
	<path style="fill:#FFFFFF;" d="M98.806,81.516c0,1.35,1.096,2.445,2.444,2.445h32.169c1.347,0,2.444-1.095,2.444-2.445V67.825
		c0-1.348-1.097-2.444-2.444-2.444H101.25c-1.348,0-2.444,1.096-2.444,2.444V81.516z"/>
	<path style="fill:#FFFFFF;" d="M271.685,81.516c0,1.35,1.096,2.445,2.444,2.445h7.783c1.348,0,2.444-1.095,2.444-2.445V67.825
		c0-1.348-1.096-2.444-2.444-2.444h-7.783c-1.348,0-2.444,1.096-2.444,2.444V81.516z"/>
	<path style="fill:#FFFFFF;" d="M284.355,299.973v-13.691c0-1.348-1.096-2.444-2.444-2.444h-7.783c-1.348,0-2.444,1.096-2.444,2.444
		v13.691c0,1.35,1.096,2.445,2.444,2.445h7.783C283.259,302.418,284.355,301.323,284.355,299.973"/>
	<path style="fill:#FFFFFF;" d="M76.79,81.516c0,1.35,1.096,2.445,2.444,2.445h7.783c1.347,0,2.444-1.095,2.444-2.445V67.825
		c0-1.348-1.097-2.444-2.444-2.444h-7.783c-1.348,0-2.444,1.096-2.444,2.444V81.516z"/>
	<path style="fill:#FFFFFF;" d="M89.461,299.973v-13.691c0-1.348-1.097-2.444-2.444-2.444h-7.783c-1.348,0-2.444,1.096-2.444,2.444
		v13.691c0,1.35,1.096,2.445,2.444,2.445h7.783C88.364,302.418,89.461,301.323,89.461,299.973"/>
</g>
</svg>
