<?xml version="1.0" encoding="iso-8859-1"?>
<!-- Generator: Adobe Illustrator 25.4.1, SVG Export Plug-In . SVG Version: 6.00 Build 0)  -->
<svg version="1.1" id="Calque_1" xmlns="http://www.w3.org/2000/svg" xmlns:xlink="http://www.w3.org/1999/xlink" x="0px" y="0px"
	 viewBox="0 0 368.5 368.5" style="enable-background:new 0 0 368.5 368.5;" xml:space="preserve">
<g>
	<path style="fill:#FFFFFF;" d="M325.984,231.059v-10.779h-24.559c-12.626,0-25.242,12.229-25.242,27.771v1.074
		c-4.315-6.817-14.685-11.171-22.723-11.171h-23.981v10.276c0,13.886,8.836,20.197,20.893,20.197h13.919
		c10.122,0,10.629,8.84,10.629,8.84v31.817v5.868v5.861c0,2.786,2.259,5.046,5.05,5.046c2.782,0,5.041-2.26,5.041-5.046v-5.861
		v-5.868v-43.622c0.281-3.737,1.674-9.368,7.575-9.368h5.631C312.07,256.094,325.984,247.257,325.984,231.059"/>
	<path style="fill:#FFFFFF;" d="M187.903,120.018c0,0-37.601,0.179-38.46,0.179c-5.753,0-11.341-2.554-15.542-6.485L97.523,79.757
		c-1.869-1.744-1.966-4.67-0.22-6.536c0.906-0.976,2.134-1.463,3.371-1.463c1.135,0,2.27,0.411,3.161,1.238l36.376,33.96
		c2.49,2.334,5.793,3.486,9.094,3.486c3.522,0,7.046-1.306,9.593-3.887c5.749-6.8,5.21-16.985-1.374-23.124L118.746,47.22
		c-3.111-2.908-7.212-4.033-11.472-4.523H47.465c-2.818,0.003-4.945,2.141-4.945,4.973v56.557c0,3.072,2.485,5.562,5.555,5.579
		l17.332,0.1c6.508,0.025,12.837,2.133,18.047,6.037l42.4,31.664c5.244,3.915,11.617,6.034,18.164,6.034h43.885
		c9.285,0,16.809-7.526,16.809-16.812C204.712,127.549,197.188,120.018,187.903,120.018"/>
	<path style="fill:#FFFFFF;" d="M162.366,297.493c1.986-0.58,3.63-1.896,4.629-3.711c0.992-1.819,1.222-3.911,0.643-5.887
		c-0.951-3.29-4.01-5.589-7.439-5.589c-0.729,0-1.458,0.105-2.166,0.308c-4.091,1.193-6.458,5.491-5.28,9.591
		c0.954,3.297,4.013,5.599,7.446,5.599C160.923,297.804,161.652,297.698,162.366,297.493"/>
	<path style="fill:#FFFFFF;" d="M160.209,229.712c-0.744,0-1.477,0.105-2.172,0.311c-4.09,1.183-6.456,5.481-5.277,9.595
		c0.952,3.288,4.01,5.587,7.439,5.587c0.729,0,1.453-0.105,2.151-0.31c1.992-0.571,3.638-1.884,4.639-3.701
		c0.997-1.818,1.228-3.919,0.651-5.9C166.686,232.009,163.628,229.712,160.209,229.712"/>
	<path style="fill:#FFFFFF;" d="M167.64,182.695c-0.954-3.285-4.012-5.582-7.431-5.582c-0.744,0-1.477,0.105-2.172,0.311
		c-4.09,1.184-6.461,5.481-5.282,9.586c0.955,3.297,4.01,5.596,7.444,5.596c0.724,0,1.453-0.098,2.172-0.31
		C166.471,191.097,168.832,186.787,167.64,182.695"/>
	<path style="fill:#FFFFFF;" d="M137.828,325.548c1.996-0.585,3.64-1.915,4.634-3.74c0.987-1.817,1.207-3.906,0.631-5.851
		c-0.949-3.294-4.008-5.594-7.437-5.594c-0.734,0-1.468,0.103-2.171,0.311c-4.091,1.189-6.455,5.494-5.275,9.588
		c0.949,3.295,4.013,5.597,7.446,5.597C136.38,325.859,137.104,325.757,137.828,325.548"/>
	<path style="fill:#FFFFFF;" d="M133.471,258.073c-4.081,1.204-6.44,5.506-5.26,9.584c0.944,3.297,4.008,5.603,7.441,5.603
		c0.728,0,1.457-0.105,2.176-0.313c1.996-0.589,3.64-1.918,4.634-3.742c0.987-1.813,1.208-3.902,0.632-5.854
		C141.939,259.364,137.668,256.877,133.471,258.073"/>
	<path style="fill:#FFFFFF;" d="M135.656,205.166c-0.734,0-1.467,0.103-2.171,0.311c-4.091,1.189-6.457,5.493-5.274,9.576
		c0.944,3.3,4.001,5.609,7.44,5.609c0.729,0,1.453-0.106,2.158-0.311c1.996-0.575,3.644-1.898,4.643-3.716
		c0.992-1.819,1.217-3.921,0.641-5.885C142.139,207.463,139.08,205.166,135.656,205.166"/>
	<path style="fill:#FFFFFF;" d="M184.752,310.364c-0.734,0-1.468,0.105-2.167,0.308c-4.095,1.187-6.461,5.489-5.28,9.603
		c0.955,3.288,4.018,5.585,7.442,5.585c0.729,0,1.453-0.103,2.166-0.311c1.981-0.58,3.627-1.898,4.624-3.706
		c0.997-1.82,1.228-3.918,0.651-5.885C191.239,312.663,188.181,310.364,184.752,310.364"/>
	<path style="fill:#FFFFFF;" d="M177.305,267.669c0.955,3.292,4.013,5.592,7.437,5.592c0.729,0,1.458-0.105,2.172-0.311
		c1.981-0.58,3.624-1.901,4.623-3.706c0.997-1.82,1.228-3.916,0.652-5.892c-1.156-3.987-5.491-6.467-9.614-5.279
		C178.48,259.272,176.119,263.575,177.305,267.669"/>
	<path style="fill:#FFFFFF;" d="M184.742,220.662c0.729,0,1.453-0.105,2.146-0.306c1.996-0.575,3.647-1.891,4.649-3.708
		c0.997-1.82,1.228-3.916,0.652-5.897c-0.955-3.288-4.013-5.585-7.437-5.585c-0.739,0-1.468,0.106-2.166,0.309
		c-4.101,1.186-6.467,5.493-5.281,9.595C178.255,218.363,181.318,220.662,184.742,220.662"/>
</g>
</svg>
