<?xml version="1.0" encoding="iso-8859-1"?>
<!-- Generator: Adobe Illustrator 25.4.1, SVG Export Plug-In . SVG Version: 6.00 Build 0)  -->
<svg version="1.1" id="Calque_1" xmlns="http://www.w3.org/2000/svg" xmlns:xlink="http://www.w3.org/1999/xlink" x="0px" y="0px"
	 viewBox="0 0 368.5 368.5" style="enable-background:new 0 0 368.5 368.5;" xml:space="preserve">
<polygon style="fill:#FFFFFF;" points="75.729,155.771 88.737,161.951 88.737,160.844 75.729,154.667 "/>
<polygon style="fill:#FFFFFF;" points="75.729,173.442 88.737,179.62 88.737,178.514 75.729,172.336 "/>
<polygon style="fill:#FFFFFF;" points="88.737,261.419 75.729,255.24 75.729,256.347 88.737,262.524 "/>
<polygon style="fill:#FFFFFF;" points="88.737,272.58 75.729,266.4 75.729,267.507 88.737,273.685 "/>
<polygon style="fill:#FFFFFF;" points="160.763,149.496 189.649,163.217 189.649,162.11 160.763,148.391 "/>
<polygon style="fill:#FFFFFF;" points="160.763,172.967 189.649,186.688 189.649,185.581 160.763,171.862 "/>
<polygon style="fill:#FFFFFF;" points="189.649,270.466 160.763,256.746 160.763,257.852 189.649,271.572 "/>
<polygon style="fill:#FFFFFF;" points="189.649,285.29 160.763,271.57 160.763,272.676 189.649,286.396 "/>
<polygon style="fill:#FFFFFF;" points="293.854,214.558 274.296,205.268 274.296,206.374 293.854,215.663 "/>
<polygon style="fill:#FFFFFF;" points="239.169,189.689 261.803,200.44 261.803,199.334 239.169,188.584 "/>
<polygon style="fill:#FFFFFF;" points="202.143,172.102 226.676,183.755 226.676,182.649 202.143,170.996 "/>
<polygon style="fill:#FFFFFF;" points="239.169,196.334 261.803,207.085 261.803,205.98 239.169,195.229 "/>
<polygon style="fill:#FFFFFF;" points="293.854,221.204 274.296,211.914 274.296,213.02 293.854,222.309 "/>
<polygon style="fill:#FFFFFF;" points="202.143,178.746 226.676,190.399 226.676,189.294 202.143,177.641 "/>
<polygon style="fill:#FFFFFF;" points="293.854,263.927 274.296,254.637 274.296,255.743 293.854,265.032 "/>
<polygon style="fill:#FFFFFF;" points="202.143,221.471 226.676,233.124 226.676,232.018 202.143,220.364 "/>
<polygon style="fill:#FFFFFF;" points="239.169,239.058 261.803,249.809 261.803,248.703 239.169,237.953 "/>
<polygon style="fill:#FFFFFF;" points="202.143,261.344 226.676,272.997 226.676,271.892 202.143,260.239 "/>
<polygon style="fill:#FFFFFF;" points="239.169,278.932 261.803,289.683 261.803,288.577 239.169,277.827 "/>
<polygon style="fill:#FFFFFF;" points="281.908,298.127 274.296,294.512 274.296,295.617 279.579,298.127 "/>
<g>
	<path style="fill:#FFFFFF;" d="M89.769,118.268h1.968v78.613H75.729v6.494h16.008v94.752h6.496V118.268h53.035v179.859h6.495
		v-94.752h34.886v94.752h6.493V159.952h-3.712c-0.956,0-1.888-0.149-2.781-0.404v37.333h-34.886v-78.03l-6.495-8.133v1.056H98.233
		v-4.104L89.769,118.268z"/>
	<rect x="229.676" y="159.951" style="fill:#FFFFFF;" width="6.493" height="138.176"/>
	<rect x="264.803" y="159.951" style="fill:#FFFFFF;" width="6.493" height="138.176"/>
	<polygon style="fill:#FFFFFF;" points="224.07,80.429 256.087,95.422 258.445,95.422 222.657,78.661 	"/>
	<polygon style="fill:#FFFFFF;" points="192.455,70.369 204.555,76.036 203.142,74.268 194.814,70.369 	"/>
	<polygon style="fill:#FFFFFF;" points="230.143,88.02 245.949,95.422 248.307,95.422 228.73,86.253 	"/>
	<polygon style="fill:#FFFFFF;" points="153.903,81.746 179.961,93.949 178.547,92.183 152.494,79.981 	"/>
	<polygon style="fill:#FFFFFF;" points="280.25,139.812 266.383,133.319 267.796,135.086 277.891,139.812 	"/>
	<polygon style="fill:#FFFFFF;" points="240.795,121.335 212.137,107.914 209.779,107.914 242.209,123.102 	"/>
	<polygon style="fill:#FFFFFF;" points="235.054,139.812 231.18,137.973 232.607,139.757 232.725,139.812 	"/>
	<polygon style="fill:#FFFFFF;" points="180.445,114.98 206.801,127.5 205.374,125.715 179.022,113.198 	"/>
	<polygon style="fill:#FFFFFF;" points="187.381,98.422 167.222,98.422 172.406,104.914 192.575,104.914 220.494,139.813 
		228.81,139.813 200.892,104.914 231.502,104.914 259.419,139.813 267.736,139.813 239.819,104.914 268.054,104.914 262.869,98.422 
		234.624,98.422 212.181,70.369 203.863,70.369 226.307,98.422 195.698,98.422 173.254,70.369 164.937,70.369 	"/>
	<path style="fill:#FFFFFF;" d="M309.995,159.951h-12.141v136.854c-0.004,2.934-2.391,5.32-5.322,5.322H77.051
		c-2.927-0.002-5.314-2.387-5.322-5.317V140.856l-12.139,15.2v140.749c0.005,9.623,7.838,17.457,17.463,17.464H292.53
		c9.624-0.007,17.459-7.841,17.465-17.464V159.951z"/>
	<path style="fill:#FFFFFF;" d="M321.598,146.094l-71.545-89.58c-1.157-1.452-2.884-2.284-4.741-2.284H123.89
		c-0.022,0.008-0.105,0.015-0.189,0.018c-0.059,0.003-0.118,0.002-0.179-0.002c-1.975-0.126-3.862,0.733-5.088,2.266l-71.541,89.584
		c-2.088,2.613-1.659,6.439,0.956,8.529c1.085,0.867,2.393,1.326,3.781,1.326c1.858,0,3.589-0.832,4.749-2.283l65.592-82.131
		c0.38-0.475,0.955-0.752,1.563-0.752s1.183,0.277,1.563,0.752l65.593,82.132c1.14,1.43,2.912,2.282,4.741,2.282h121.424
		c2.353,0,4.448-1.318,5.467-3.441C323.344,150.39,323.066,147.932,321.598,146.094 M138.858,67.502
		c0.333-0.692,1.034-1.133,1.802-1.133h100.767c0.608,0,1.183,0.277,1.563,0.752l58.656,73.444c0.48,0.6,0.572,1.422,0.239,2.115
		c-0.333,0.692-1.033,1.133-1.802,1.133H199.316c-0.608,0-1.183-0.277-1.563-0.752l-58.656-73.444
		C138.618,69.017,138.525,68.194,138.858,67.502"/>
</g>
</svg>
