<?xml version="1.0" encoding="iso-8859-1"?>
<!-- Generator: Adobe Illustrator 25.4.1, SVG Export Plug-In . SVG Version: 6.00 Build 0)  -->
<svg version="1.1" id="Calque_1" xmlns="http://www.w3.org/2000/svg" xmlns:xlink="http://www.w3.org/1999/xlink" x="0px" y="0px"
	 viewBox="0 0 368.5 368.5" style="enable-background:new 0 0 368.5 368.5;" xml:space="preserve">
<g>
	<path style="fill:#FFFFFF;" d="M187.699,46.045H180.8c-17.667,0-32.041,14.373-32.041,32.039v212.332
		c0,17.666,14.374,32.039,32.041,32.039h6.899c17.669,0,32.041-14.373,32.041-32.039V78.084
		C219.74,60.418,205.368,46.045,187.699,46.045 M184.251,64.58c5.009,0,9.086,4.076,9.086,9.086c0,5.01-4.077,9.088-9.086,9.088
		c-5.011,0-9.087-4.078-9.087-9.088C175.163,68.656,179.24,64.58,184.251,64.58 M184.251,303.254c-5.011,0-9.087-4.078-9.087-9.088
		s4.076-9.086,9.087-9.086c5.009,0,9.086,4.076,9.086,9.086S189.259,303.254,184.251,303.254 M195.641,242.916
		c0.062,0.699-0.172,1.393-0.646,1.91c-0.473,0.518-1.142,0.813-1.844,0.813H175.35c-0.702,0-1.372-0.295-1.845-0.813
		c-0.473-0.517-0.707-1.211-0.646-1.91l3.374-37.922c-3.627-2.578-5.821-6.763-5.821-11.281c0-7.631,6.208-13.84,13.839-13.84
		c7.631,0,13.838,6.209,13.838,13.84c0,4.518-2.195,8.703-5.823,11.281L195.641,242.916z M184.251,153.338
		c-11.314,0-20.518-9.203-20.518-20.516c0-11.314,9.204-20.517,20.518-20.517c11.312,0,20.516,9.203,20.516,20.517
		C204.766,144.135,195.562,153.338,184.251,153.338"/>
	<path style="fill:#FFFFFF;" d="M197.588,144.463v-3.754v-15.775v-3.149c0-1.105-0.895-2-2-2h-2.954h-16.768h-2.954
		c-1.105,0-2,0.895-2,2v3.147v15.779v3.752c0,1.103,0.895,2,2,2h3.948h14.779h3.949
		C196.693,146.463,197.588,145.566,197.588,144.463 M193.588,142.463h-18.677v-18.678h18.677V142.463z"/>
	<path style="fill:#FFFFFF;" d="M188.655,291.67l-6.902,6.9c0.741,0.422,1.586,0.684,2.498,0.684c2.804,0,5.086-2.283,5.086-5.088
		C189.337,293.254,189.076,292.41,188.655,291.67"/>
	<path style="fill:#FFFFFF;" d="M179.695,296.387l6.774-6.775c-0.673-0.331-1.42-0.532-2.219-0.532
		c-2.805,0-5.087,2.282-5.087,5.086C179.163,294.965,179.365,295.713,179.695,296.387"/>
	<path style="fill:#FFFFFF;" d="M188.655,71.17l-6.902,6.9c0.741,0.422,1.586,0.684,2.498,0.684c2.804,0,5.086-2.283,5.086-5.088
		C189.337,72.754,189.076,71.91,188.655,71.17"/>
	<path style="fill:#FFFFFF;" d="M179.695,75.887l6.774-6.775c-0.673-0.33-1.42-0.532-2.219-0.532c-2.805,0-5.087,2.282-5.087,5.086
		C179.163,74.465,179.365,75.213,179.695,75.887"/>
</g>
</svg>
