<?xml version="1.0" encoding="iso-8859-1"?>
<!-- Generator: Adobe Illustrator 25.4.1, SVG Export Plug-In . SVG Version: 6.00 Build 0)  -->
<svg version="1.1" id="Calque_1" xmlns="http://www.w3.org/2000/svg" xmlns:xlink="http://www.w3.org/1999/xlink" x="0px" y="0px"
	 viewBox="0 0 368.5 368.5" style="enable-background:new 0 0 368.5 368.5;" xml:space="preserve">
<g>
	<path style="fill:#FFFFFF;" d="M184.249,42.854c-77.967,0-141.396,63.43-141.396,141.398c0,77.965,63.429,141.395,141.396,141.395
		s141.398-63.43,141.398-141.395C325.647,106.284,262.216,42.854,184.249,42.854 M184.249,320.646
		c-75.209,0-136.396-61.186-136.396-136.395c0-75.21,61.187-136.398,136.396-136.398c75.211,0,136.398,61.188,136.398,136.398
		C320.647,259.461,259.46,320.646,184.249,320.646"/>
	<path style="fill:#FFFFFF;" d="M184.249,56.692c-70.448,0-127.559,57.111-127.559,127.56c0,70.448,57.111,127.559,127.559,127.559
		c70.449,0,127.56-57.111,127.56-127.559C311.809,113.803,254.698,56.692,184.249,56.692 M184.249,281.293
		c-53.594,0-97.043-43.445-97.043-97.041c0-21.31,6.875-41.011,18.517-57.017l135.543,135.543
		C225.26,274.42,205.559,281.293,184.249,281.293 M263.647,240.057L128.444,104.854c15.785-11.113,35.031-17.645,55.805-17.645
		c53.595,0,97.043,43.448,97.043,97.043C281.292,205.026,274.76,224.272,263.647,240.057"/>
</g>
</svg>
