<?xml version="1.0" encoding="iso-8859-1"?>
<!-- Generator: Adobe Illustrator 25.4.1, SVG Export Plug-In . SVG Version: 6.00 Build 0)  -->
<svg version="1.1" id="Calque_1" xmlns="http://www.w3.org/2000/svg" xmlns:xlink="http://www.w3.org/1999/xlink" x="0px" y="0px"
	 viewBox="0 0 368.5 368.5" style="enable-background:new 0 0 368.5 368.5;" xml:space="preserve">
<g>
	<path style="fill:#FFFFFF;" d="M46.818,218.439c8.288-1.011,14.009-13.49,12.783-27.865c-1.233-14.374-8.948-25.201-17.237-24.186
		c-8.285,1.018-14.011,13.494-12.779,27.865C30.816,208.628,38.53,219.455,46.818,218.439 M43.453,179.133
		c4.231-0.519,8.168,5.01,8.791,12.343c0.632,7.335-2.288,13.7-6.515,14.215c-4.233,0.522-8.169-5.005-8.798-12.338
		C36.307,186.02,39.225,179.657,43.453,179.133"/>
	<g>
		<path style="fill:#FFFFFF;" d="M66.45,189.819c1.171,11.43-1.965,21.875-7.634,28.126l181.36-58.618
			c5.672-4.359,9.026-13.497,7.99-23.637c-1.391-13.552-10.097-23.76-19.449-22.803l-187.451,47.36
			C53.383,159.035,64.651,172.266,66.45,189.819z"/>
		<polygon style="fill:#FFFFFF;" points="46.054,223.941 46.049,223.941 46.054,223.942 		"/>
		<path style="fill:#FFFFFF;" d="M242.994,163.273c-0.256,0.245-0.564,0.442-0.923,0.559L51.465,225.439l92.183,25.503
			c0,0,152.595-56.451,195.097-74.083C338.745,176.859,268.63,166.911,242.994,163.273z"/>
	</g>
	<path style="fill:#FFFFFF;" d="M143.252,255.699c-0.087,0-0.175-0.011-0.26-0.035l-93.463-25.845
		c-0.519-0.144-0.823-0.681-0.679-1.199c0.143-0.519,0.68-0.821,1.198-0.679l93.156,25.761l196.706-74.657
		c0.503-0.191,1.065,0.062,1.256,0.565c0.191,0.502-0.062,1.065-0.565,1.255l-197.003,74.77
		C143.486,255.678,143.369,255.699,143.252,255.699"/>
</g>
</svg>
