<?xml version="1.0" encoding="iso-8859-1"?>
<!-- Generator: Adobe Illustrator 25.4.1, SVG Export Plug-In . SVG Version: 6.00 Build 0)  -->
<svg version="1.1" id="Calque_1" xmlns="http://www.w3.org/2000/svg" xmlns:xlink="http://www.w3.org/1999/xlink" x="0px" y="0px"
	 viewBox="0 0 368.5 368.5" style="enable-background:new 0 0 368.5 368.5;" xml:space="preserve">
<g>
	<path style="fill:#FFFFFF;" d="M188.945,136.698l2.238,88.207c2.474-1.637,5.544-1.584,8.773-1.584
		c0.044,0,3.319,0.047,5.615,0.063l-0.658-4.318c0-0.071,0.016-0.139,0.02-0.207l-11.448-87.571
		c-2.49,0.064-4.668,1.945-4.666,4.297c0,0.226,0.044,0.446,0.082,0.661C188.927,136.394,188.943,136.546,188.945,136.698"/>
	<path style="fill:#FFFFFF;" d="M72.019,220.612c3.315-5.84,19.119-33.87,27.011-50.931c5.078-10.973-1.611-21.143-7.396-27.263
		l-46.956,78.194H72.019z"/>
	<path style="fill:#FFFFFF;" d="M98.135,220.612h58.953l10.393-89.417h-3.501c0.176,6.393-0.445,19.719-7.146,33.478
		c-8.722,17.908-13.2,41.29-13.244,41.524c-0.186,0.985-1.045,1.669-2.011,1.669c-0.127,0-0.255-0.012-0.383-0.036
		c-1.113-0.21-1.843-1.281-1.633-2.394c0.184-0.978,4.625-24.16,13.584-42.557c6.307-12.948,6.864-25.763,6.714-31.684h-5.359
		c-4.843,9.055-21.038,37.137-36.055,38.009c-0.223,0.014-0.441,0.02-0.649,0.02c-3.258,0-4.774-1.525-5.476-2.85
		c-3.527-6.655,8.018-24.715,15.44-35.179H98.373l-4.571,7.614c6.673,6.819,15.227,19.019,8.946,32.593
		c-7.259,15.698-21.118,40.521-26.021,49.21H98.135"/>
	<path style="fill:#FFFFFF;" d="M118.209,165.113c11.039-0.645,24.885-21.685,31.642-33.918h-17.037
		c-10.116,13.923-18.866,29.49-16.871,33.259C116.214,164.961,116.978,165.173,118.209,165.113"/>
	<path style="fill:#FFFFFF;" d="M239.801,172.105c-3.04-0.222-4.123,0.905-4.67,1.757c-4.477,7,6.247,32.311,14.117,46.75h45.599
		C285.659,208.767,256.767,173.25,239.801,172.105"/>
	<path style="fill:#FFFFFF;" d="M226.674,131.195h-15.752c-0.599,3.247-0.947,10.77,4.497,22.539
		c8.127,17.568,9.091,41.338,9.127,42.341c0.042,1.131-0.84,2.082-1.971,2.124c-0.026,0.002-0.052,0.002-0.078,0.002
		c-1.097,0-2.006-0.869-2.046-1.974c-0.01-0.238-0.977-23.962-8.751-40.771c-5.5-11.887-5.574-19.988-4.935-24.261h-8.745
		l11.689,89.417H244.6c-4.65-8.843-19.461-38.734-12.924-48.958c1.175-1.839,3.567-3.955,8.4-3.641
		c20.41,1.38,53.602,44.181,59.943,52.599h23.73l-59.448-89.417H226.674"/>
	<path style="fill:#FFFFFF;" d="M156.989,234.168h-10.016c-4.551,0-8.24-1.393-8.24-3.115s3.689-3.116,8.24-3.116h10.012v-2.795
		H42.527v12.187h114.462V234.168z"/>
	<path style="fill:#FFFFFF;" d="M198.955,234.252c0.638,0,6.531-0.008,7.103-0.017c0.873-0.021,1.676,0.102,2.28,0.319
		c0.605,0.218,0.969,0.518,0.969,0.832v1.942h116.684v-12.186h-115.93v1.615c0,0.325-0.366,0.635-1.008,0.853
		c-0.639,0.219-1.497,0.328-2.362,0.295c-0.522-0.008-6.923-0.015-7.736-0.015c-5.052,0-7.16,1.427-7.16,3.181
		C191.795,232.825,193.903,234.252,198.955,234.252"/>
</g>
</svg>
