<?xml version="1.0" encoding="iso-8859-1"?>
<!-- Generator: Adobe Illustrator 25.4.1, SVG Export Plug-In . SVG Version: 6.00 Build 0)  -->
<svg version="1.1" id="Calque_1" xmlns="http://www.w3.org/2000/svg" xmlns:xlink="http://www.w3.org/1999/xlink" x="0px" y="0px"
	 viewBox="0 0 368.5 368.5" style="enable-background:new 0 0 368.5 368.5;" xml:space="preserve">
<g>
	<path style="fill:#FFFFFF;" d="M306.13,187.348H62.371c-8.835,0-16.024,7.187-16.024,16.021v80.526
		c0,8.834,7.189,16.021,16.024,16.021H306.13c8.835,0,16.023-7.187,16.023-16.021v-80.526
		C322.153,194.535,314.965,187.348,306.13,187.348 M112.824,283.004h-12c-21.428,0-38.862-17.434-38.862-38.861
		c0-21.428,17.434-38.862,38.862-38.862h12c21.428,0,38.861,17.434,38.861,38.862C151.685,265.57,134.252,283.004,112.824,283.004
		 M299.982,269.715c0,3.318-2.575,6.018-5.74,6.018H177.794c-3.166,0-5.74-2.7-5.74-6.018v-53.824c0-3.321,2.574-6.02,5.74-6.02
		h116.448c3.165,0,5.74,2.699,5.74,6.02V269.715z"/>
	<rect x="179.054" y="216.871" style="fill:#FFFFFF;" width="113.928" height="51.861"/>
	<path style="fill:#FFFFFF;" d="M185.749,107.504v47.869c-3.297-0.828-7.477-0.07-11.212,2.348
		c-5.981,3.871-8.552,10.527-5.745,14.869c2.812,4.342,9.94,4.727,15.92,0.853c4.264-2.755,6.779-6.929,6.865-10.672
		c0.006-0.078,0.024-0.156,0.024-0.238v-55.029c0-1.613-1.311-2.924-2.926-2.924C187.06,104.58,185.749,105.891,185.749,107.504"/>
	<path style="fill:#FFFFFF;" d="M296.119,133.961c-6.041,3.91-8.638,10.633-5.8,15.019c2.838,4.387,10.035,4.774,16.076,0.864
		c4.306-2.785,6.847-7,6.935-10.781c0.006-0.079,0.023-0.157,0.023-0.239V72.033c0-0.515-0.145-0.992-0.374-1.412
		c-0.444-1.187-1.58-2.037-2.92-2.037h-66.424c-1.131,0-2.112,0.607-2.661,1.506c-0.457,0.519-0.744,1.195-0.744,1.943v59.557
		c-3.33-0.836-7.553-0.07-11.324,2.371c-6.042,3.91-8.638,10.633-5.8,15.019c2.838,4.387,10.037,4.774,16.077,0.864
		c4.306-2.785,6.847-7,6.934-10.781c0.006-0.079,0.023-0.157,0.023-0.239V92.033h61.303v39.557
		C304.111,130.754,299.89,131.52,296.119,133.961 M246.14,74.838h61.303v10.941H246.14V74.838z"/>
	<path style="fill:#FFFFFF;" d="M112.824,212.281h-0.809c-0.072,0.004-0.14,0.021-0.213,0.021c-17.556,0-31.839,14.284-31.839,31.84
		c0,17.557,14.283,31.84,31.839,31.84c0.073,0,0.141,0.018,0.213,0.022h0.809c17.568,0,31.861-14.293,31.861-31.862
		C144.685,226.574,130.392,212.281,112.824,212.281"/>
	<path style="fill:#FFFFFF;" d="M83.894,271.115c-6.76-6.994-10.932-16.502-10.932-26.973c0-10.47,4.172-19.98,10.932-26.972
		c-8.961,5.644-14.932,15.621-14.932,26.972C68.962,255.492,74.933,265.468,83.894,271.115"/>
</g>
</svg>
