<?xml version="1.0" encoding="iso-8859-1"?>
<!-- Generator: Adobe Illustrator 25.4.1, SVG Export Plug-In . SVG Version: 6.00 Build 0)  -->
<svg version="1.1" id="Calque_1" xmlns="http://www.w3.org/2000/svg" xmlns:xlink="http://www.w3.org/1999/xlink" x="0px" y="0px"
	 viewBox="0 0 368.5 368.5" style="enable-background:new 0 0 368.5 368.5;" xml:space="preserve">
<polygon style="fill:#FFFFFF;" points="143.826,115.386 82.016,115.386 82.016,133.788 143.868,133.788 "/>
<g>
	<path style="fill:#FFFFFF;" d="M192.129,182.375c-0.204,0-0.403-0.02-0.595-0.06c-0.287-0.012-0.567-0.064-0.852-0.086v10.878
		c4.177-1.066,8.55-1.636,13.055-1.636h3.556c4.294,0,8.464,0.528,12.462,1.499v-10.595H192.129z"/>
	<path style="fill:#FFFFFF;" d="M260.859,182.375h-7.979l-0.062,17.499c1.36-0.137,3.065-0.498,4.535-1.381
		c2.349-1.413,3.491-3.843,3.491-7.43C260.844,187.809,260.85,184.917,260.859,182.375"/>
	<path style="fill:#FFFFFF;" d="M301.703,147.501c-1.565,13.571-9.936,24.997-21.718,30.774c0.235,0.467,0.465,0.968,0.687,1.517
		c2.003,4.972,0.981,7.894,0.158,10.241c-0.707,2.015-1.217,3.472,0.192,6.968c1.518,3.769,3.26,4.771,5.465,6.041
		c2.163,1.244,4.852,2.792,6.513,6.915c1.688,4.172,0.59,6.478-0.212,8.164c-0.724,1.518-1.407,2.955,0.687,8.135
		c2.182,5.414,7.522,8.775,13.935,8.775c2.825,0,5.805-0.622,8.854-1.85c4.508-1.818,7.932-5.621,9.643-10.711
		c1.767-5.257,1.5-11.223-0.75-16.8L301.703,147.501z"/>
	<path style="fill:#FFFFFF;" d="M296.067,142.89v-2.667c0-18.139-14.21-32.85-32.352-33.492c-0.183-0.007-0.362-0.029-0.535-0.067
		H149.735l0.083,37.26l17.651,20.221c6.163,7.481,15.17,11.927,24.765,12.266c0.125,0.004,0.248,0.016,0.368,0.036h70.604
		c0.165-0.035,0.335-0.056,0.508-0.062C281.856,175.737,296.067,161.024,296.067,142.89 M254.713,153.454l7.936-28.568
		c0.584-2.104,2.765-3.332,4.865-2.752c2.104,0.585,3.335,2.763,2.751,4.866l-7.936,28.57c-0.486,1.748-2.075,2.894-3.806,2.894
		c-0.35,0-0.705-0.047-1.059-0.145C255.36,157.735,254.129,155.556,254.713,153.454 M237.675,127l-7.932,28.57
		c-0.486,1.748-2.076,2.894-3.807,2.894c-0.35,0-0.705-0.046-1.059-0.145c-2.102-0.583-3.334-2.762-2.751-4.865l7.932-28.568
		c0.586-2.104,2.763-3.337,4.866-2.752C237.026,122.718,238.259,124.896,237.675,127 M242.227,158.464
		c-0.35,0-0.706-0.047-1.061-0.145c-2.102-0.584-3.333-2.763-2.748-4.866l7.937-28.567c0.584-2.104,2.765-3.332,4.866-2.752
		c2.103,0.585,3.334,2.763,2.749,4.868l-7.938,28.568C245.547,157.318,243.958,158.464,242.227,158.464"/>
	<path style="fill:#FFFFFF;" d="M207.293,197.398h-3.556c-25.847,0-46.875,21.029-46.875,46.876v61.094h97.31v-61.094
		C254.172,218.427,233.142,197.398,207.293,197.398"/>
	<path style="fill:#FFFFFF;" d="M43.699,99.924c-0.92,15.94,4.593,22.068,12.874,22.374C64.848,122.606,70.4,117.04,70,106.83
		c-0.426-10.736-7.49-16.441-9.804-23.378c-2.017-6.046-1.171-20.31-1.171-20.31C55.037,68.66,44.617,83.986,43.699,99.924"/>
</g>
</svg>
