<?xml version="1.0" encoding="iso-8859-1"?>
<!-- Generator: Adobe Illustrator 25.4.1, SVG Export Plug-In . SVG Version: 6.00 Build 0)  -->
<svg version="1.1" id="Calque_1" xmlns="http://www.w3.org/2000/svg" xmlns:xlink="http://www.w3.org/1999/xlink" x="0px" y="0px"
	 viewBox="0 0 368.5 368.5" style="enable-background:new 0 0 368.5 368.5;" xml:space="preserve">
<rect x="160.367" y="220.922" transform="matrix(0.7071 -0.7071 0.7071 0.7071 -118.2582 185.0669)" style="fill:#FFFFFF;" width="7.798" height="28.723"/>
<polygon style="fill:#FFFFFF;" points="147.819,231.421 60.256,318.984 100.877,318.984 168.129,251.73 "/>
<rect x="160.908" y="191.333" transform="matrix(0.7071 -0.7071 0.7071 0.7071 -88.6691 197.3257)" style="fill:#FFFFFF;" width="65.895" height="28.722"/>
<g>
	<path style="fill:#FFFFFF;" d="M196.091,141.944l-23.828-0.002l-0.917-2.1c-0.625-1.432-1.491-2.709-2.573-3.793
		c-2.332-2.329-5.435-3.613-8.732-3.613c-3.298,0-6.402,1.285-8.739,3.617c-4.805,4.815-4.804,12.653,0.007,17.468
		c2.332,2.331,5.434,3.615,8.731,3.615s6.398-1.284,8.733-3.617c1.218-1.221,2.154-2.661,2.779-4.28l0.865-2.24h23.674V141.944z"/>
	<path style="fill:#FFFFFF;" d="M203.092,91.391l-0.001,52.205l11.705-11.705v-19.704c0-0.978,0.41-1.912,1.129-2.574
		c0.72-0.663,1.68-0.99,2.659-0.914c0.007,0,4.349,0.351,8.233-0.552c4.544-1.06,7.173-3.794,7.199-3.822
		c0.022-0.024,0.065-0.069,0.088-0.091l23.706-23.709c7.079-7.082,7.081-18.607,0.004-25.691c-3.433-3.428-7.997-5.318-12.848-5.318
		s-9.413,1.89-12.846,5.32l-23.707,23.707C204.981,81.979,203.091,86.542,203.092,91.391 M213.878,84.019l23.711-23.715
		c1.977-1.969,4.595-3.05,7.376-3.05c2.784,0,5.402,1.082,7.375,3.046c4.056,4.073,4.055,10.686,0.007,14.751l-23.713,23.714
		c-1.977,1.969-4.595,3.051-7.379,3.051c-2.782-0.001-5.398-1.08-7.368-3.041C209.827,94.698,209.827,88.084,213.878,84.019"/>
	<path style="fill:#FFFFFF;" d="M298.322,106.245c-6.408-6.407-14.929-9.936-23.991-9.936c-9.063,0-17.582,3.528-23.99,9.936
		l-49.72,49.721l47.982,47.982l49.719-49.72C311.551,140.999,311.551,119.475,298.322,106.245 M246.215,175.747
		c-10.071,0-18.264-8.192-18.264-18.261c0-10.071,8.193-18.264,18.264-18.264c10.07,0,18.263,8.193,18.263,18.264
		C264.478,167.555,256.285,175.747,246.215,175.747 M290.475,139.454c-0.165,1.818-1.692,3.184-3.482,3.184
		c-0.106,0-0.213-0.005-0.32-0.015c-1.926-0.174-3.345-1.877-3.17-3.801c0.431-4.749-1.251-9.404-4.617-12.77
		c-3.366-3.366-8.021-5.039-12.769-4.617c-1.938,0.178-3.628-1.244-3.803-3.168c-0.175-1.926,1.244-3.628,3.169-3.803
		c6.823-0.623,13.513,1.799,18.353,6.639C288.675,125.943,291.094,132.631,290.475,139.454 M295.993,133.638
		c-0.106,0-0.213-0.005-0.32-0.015c-1.926-0.174-3.345-1.877-3.17-3.801c0.431-4.749-1.251-9.404-4.617-12.77
		c-3.366-3.365-8.019-5.046-12.769-4.617c-1.938,0.179-3.628-1.245-3.803-3.168c-0.175-1.926,1.244-3.628,3.169-3.803
		c6.821-0.622,13.513,1.799,18.353,6.639c4.839,4.84,7.258,11.528,6.639,18.351C299.31,132.272,297.783,133.638,295.993,133.638"/>
	<path style="fill:#FFFFFF;" d="M246.215,146.222c-6.211,0-11.264,5.053-11.264,11.264c0,6.21,5.053,11.261,11.264,11.261
		c6.21,0,11.263-5.051,11.263-11.261C257.478,151.275,252.425,146.222,246.215,146.222"/>
</g>
</svg>
