<?xml version="1.0" encoding="iso-8859-1"?>
<!-- Generator: Adobe Illustrator 25.4.1, SVG Export Plug-In . SVG Version: 6.00 Build 0)  -->
<svg version="1.1" id="Calque_1" xmlns="http://www.w3.org/2000/svg" xmlns:xlink="http://www.w3.org/1999/xlink" x="0px" y="0px"
	 viewBox="0 0 368.5 368.5" style="enable-background:new 0 0 368.5 368.5;" xml:space="preserve">
<g>
	<path style="fill:#FFFFFF;" d="M163.049,119.549c-3.99,0-7.236,3.609-7.236,8.043c0,4.435,3.246,8.043,7.236,8.043
		c3.99,0,7.236-3.608,7.236-8.043C170.285,123.158,167.039,119.549,163.049,119.549 M163.049,131.635
		c-1.784,0-3.236-1.813-3.236-4.043c0-2.229,1.452-4.043,3.236-4.043c1.784,0,3.236,1.814,3.236,4.043
		C166.285,129.822,164.833,131.635,163.049,131.635"/>
	<polygon style="fill:#FFFFFF;" points="135.773,206.535 64.98,233.311 64.98,238.348 65.482,238.467 135.773,211.88 	"/>
	<path style="fill:#FFFFFF;" d="M206.897,229.466l13.487,3.164v-5.136l-12.472-2.926v-31.619l-5-1.145v33.952l-48.858,19.167v2.751
		c0,0.974-0.156,1.911-0.439,2.792l52.71-20.678C206.533,229.706,206.722,229.595,206.897,229.466"/>
	<path style="fill:#FFFFFF;" d="M205.143,161.744c0.819,0.19,1.752,0.312,2.77,0.379v-18.182v-5.81c0-1.381-1.12-2.5-2.5-2.5
		c-0.707,0-1.34,0.295-1.795,0.764c-0.176,0.039-0.35,0.091-0.522,0.163l-38.178,16.039l6.424,1.461l31.571-13.264v5.423v15.02
		L205.143,161.744z"/>
	<path style="fill:#FFFFFF;" d="M140.773,247.674c0,2.284,1.857,4.143,4.141,4.143c2.283,0,4.14-1.859,4.14-4.143v-68.21
		l-8.281-1.896V247.674z"/>
	<path style="fill:#FFFFFF;" d="M318.494,155.195v-13.967c0-8.48-4.451-10.14-11.781-11.865L186.446,104.49v3.591l86.7,18.34
		c6.54,1.501,10.492,4.512,10.886,8.273c0.235,2.255-0.713,5.513-6.569,8.225l-43.888,18.99c-4.839,2.18-15.507,5.273-23.97,5.273
		c-2.09,0-3.968-0.19-5.582-0.565l-55.708-12.668l-89.503-19.956c-0.648-0.145-1.125-0.698-1.17-1.361
		c-0.046-0.664,0.351-1.277,0.973-1.509l71.945-26.773c0.267-0.096,6.417-2.316,14.178-2.914c1.093-0.085,2.246-0.128,3.426-0.128
		c6.048,0,11.229,1.097,12.038,1.276c0.272,0.043,0.54,0.074,0.813,0.12c0.035,0.006,0.071,0.013,0.107,0.019l9.902,2.095V101.3
		l-5.585-1.155c-5.861-0.975-11.079-1.458-15.856-1.458c-10.751,0-17.382,2.43-25.061,5.243l-0.976,0.357L52.944,129.68
		c-1.071,0.562-1.834,1.234-2.157,1.902c-0.064,0.132-0.139,0.257-0.224,0.376c-0.388,0.537-0.593,1.17-0.593,1.828v143.108
		c0,0.439,0.09,0.863,0.267,1.261c0.021,0.048,0.042,0.097,0.059,0.146c0.725,1.954,2.607,3.265,4.683,3.265
		c2.758,0,5.002-2.243,5.002-5v-23.759c0-0.763,0.349-1.486,0.948-1.96c0.446-0.353,0.994-0.54,1.552-0.54
		c0.191,0,0.384,0.022,0.573,0.067l160.404,37.819c1.129,0.267,1.927,1.273,1.927,2.434v23.695c0,2.757,2.244,5,5.002,5
		c2.758,0,5.001-2.243,5.001-5V291.55c0-0.976,0.568-1.863,1.455-2.271l68.14-31.36c0.774-0.354,1.676-0.293,2.393,0.166
		c0.718,0.46,1.152,1.253,1.152,2.105v19.204c0,2.758,2.244,5.002,5.002,5.002c2.758,0,5.001-2.244,5.001-5.002V155.929
		c0-0.17-0.011-0.337-0.027-0.503C318.497,155.349,318.494,155.272,318.494,155.195 M224.437,280.109
		c-0.446,0.354-0.994,0.54-1.552,0.54c-0.191,0-0.384-0.021-0.574-0.066L61.907,242.761c-1.128-0.266-1.926-1.273-1.926-2.433
		v-83.264c0-0.761,0.347-1.48,0.942-1.955c0.595-0.475,1.372-0.653,2.116-0.481l160.405,36.75c1.136,0.259,1.941,1.27,1.941,2.436
		v84.335C225.385,278.913,225.036,279.635,224.437,280.109"/>
	<path style="fill:#FFFFFF;" d="M152.546,151.82l75.661-31.56l-41.872-8.993c-0.536,3.05-3.085,4.596-7.602,4.596
		c-5.116,0-7.709-1.981-7.709-5.888v-1.996l-11.373-2.443c-0.076-0.017-5.395-1.227-11.488-1.227c-1.103,0-2.178,0.04-3.195,0.118
		c-7.331,0.565-13.312,2.718-13.371,2.739L64.41,132.168L152.546,151.82z M193.585,119.721c1.394,0.144,3.896,1.166,4.07,4.138
		c0.169,2.933-2.008,4.426-3.184,4.805l-32.448,12.868c-0.516,0.25-3.826,1.792-7.907,2.209c-0.632,0.064-1.291,0.096-1.958,0.096
		c-3.402,0-6.206-0.835-6.761-1.011l-47.069-9.693c-1.243-0.149-3.44-1.191-3.518-4.217c-0.077-2.881,1.691-4.185,2.735-4.514
		l33.983-13.706c0.092-0.041,2.857-1.197,6.641-1.501c0.549-0.045,1.119-0.068,1.692-0.068c2.788,0,4.949,0.534,5.327,0.634
		L193.585,119.721z"/>
	<path style="fill:#FFFFFF;" d="M175.023,109.975c0,0.885,0,1.888,3.71,1.888c3.712,0,3.712-1.003,3.712-1.888V71.408
		c-0.004-12.255-9.756-22.228-21.74-22.23c-11.986,0.002-21.741,9.975-21.746,22.231c0,0.882,0,1.884,3.714,1.884
		c3.709,0,3.709-1.002,3.709-1.885c0.017-8.023,6.441-14.56,14.319-14.576c7.885,0.016,14.306,6.553,14.322,14.572V109.975z"/>
</g>
</svg>
