<?xml version="1.0" encoding="iso-8859-1"?>
<!-- Generator: Adobe Illustrator 25.4.1, SVG Export Plug-In . SVG Version: 6.00 Build 0)  -->
<svg version="1.1" id="Calque_1" xmlns="http://www.w3.org/2000/svg" xmlns:xlink="http://www.w3.org/1999/xlink" x="0px" y="0px"
	 viewBox="0 0 368.5 368.5" style="enable-background:new 0 0 368.5 368.5;" xml:space="preserve">
<polygon style="fill:#FFFFFF;" points="231.093,63.289 225.434,60.785 220.652,62.104 226.347,64.626 "/>
<polygon style="fill:#FFFFFF;" points="256.432,56.154 250.801,53.779 233.041,58.683 238.643,61.164 "/>
<polygon style="fill:#FFFFFF;" points="218.796,66.751 213.044,64.205 145.503,82.859 151.762,85.629 "/>
<polygon style="fill:#FFFFFF;" points="103.327,258.83 110.328,262.462 110.328,256.014 103.327,252.384 "/>
<polygon style="fill:#FFFFFF;" points="103.327,144.285 110.328,147.917 110.328,102.024 103.327,97.951 "/>
<polygon style="fill:#FFFFFF;" points="103.327,246.751 110.328,250.383 110.328,166.547 103.327,162.916 "/>
<polygon style="fill:#FFFFFF;" points="103.327,157.285 110.328,160.917 110.328,153.548 103.327,149.917 "/>
<polygon style="fill:#FFFFFF;" points="103.327,309.215 110.328,313.244 110.328,268.092 103.327,264.461 "/>
<polygon style="fill:#FFFFFF;" points="125.507,88.381 108.754,93.008 114.234,96.196 131.915,91.218 "/>
<polygon style="fill:#FFFFFF;" points="144.212,87.755 137.897,84.959 133.114,86.28 139.465,89.092 "/>
<g>
	<path style="fill:#FFFFFF;" d="M259.941,227.081h-0.001c-4.164,0-7.187-3.094-7.189-7.357c-0.003-4.627,3.59-9.218,8.181-10.451
		l2.742-0.736v-10.921l-22.49-10.906v65.698c0,1.567-1.042,2.944-2.551,3.369l-9.24,2.603l32.332,15.679l1.949-0.549v-47.126
		l-1.439,0.385C261.466,226.977,260.694,227.081,259.941,227.081"/>
	<path style="fill:#FFFFFF;" d="M139.816,124.299c0-1.567,1.043-2.944,2.551-3.369l46.744-13.163l-33.112-16.059l-0.767,0.216V95.7
		c0,4.752-3.502,9.413-7.972,10.613c-0.715,0.191-1.434,0.288-2.136,0.288c-4.131,0-7.13-3.205-7.13-7.621v-2.202l-20.666,5.82
		v46.331l3.11-0.835c0.769-0.206,1.541-0.312,2.295-0.312c4.164,0,7.186,3.096,7.188,7.36c0.001,1.876-0.597,3.742-1.605,5.384
		l11.5,5.578V124.299z"/>
	<path style="fill:#FFFFFF;" d="M194.911,106.134l41.824-11.777c1.054-0.297,2.189-0.083,3.062,0.579
		c0.874,0.661,1.387,1.694,1.387,2.79v30.848l22.49,10.908v-14.606c-0.752,0.196-1.503,0.299-2.236,0.299
		c-4.166,0-7.191-3.095-7.193-7.358c-0.001-4.627,3.593-9.217,8.182-10.45l1.247-0.335V61.387l-20.737,5.839v3.379
		c0,4.752-3.501,9.413-7.97,10.612c-0.715,0.192-1.433,0.288-2.136,0.288c-4.131,0-7.13-3.206-7.13-7.623V72.08l-63.903,17.995
		L194.911,106.134z"/>
	<path style="fill:#FFFFFF;" d="M139.816,170.55l-14.255-6.914c-1.135,0.897-2.431,1.582-3.821,1.955l-4.412,1.184v48.928
		l22.488,10.906V170.55z"/>
	<path style="fill:#FFFFFF;" d="M214.169,262.668l7.133,3.459c0.994,0.482,1.409,1.679,0.927,2.673
		c-0.345,0.712-1.059,1.127-1.801,1.127c-0.293,0-0.59-0.065-0.871-0.201l-11.188-5.425l-64.104,18.051
		c-0.312,0.088-0.631,0.131-0.949,0.131c-0.754,0-1.498-0.244-2.112-0.71c-0.874-0.661-1.388-1.694-1.388-2.79v-47.927
		l-22.488-10.907v30.286l1.613-0.433c0.77-0.207,1.542-0.312,2.294-0.312c4.164,0,7.188,3.095,7.191,7.359
		c0.002,4.627-3.591,9.218-8.181,10.45l-2.917,0.783v46.44l20.667-5.82v-3.721c0-4.751,3.501-9.413,7.97-10.612
		c0.716-0.191,1.434-0.288,2.137-0.288c4.131,0,7.13,3.205,7.13,7.621v2.146l70.47-19.844v-4.12c0-4.751,3.501-9.412,7.97-10.611
		c0.716-0.192,1.434-0.288,2.137-0.288c4.13,0,7.129,3.205,7.129,7.621v2.544l12.988-3.658l-32.333-15.678L214.169,262.668z"/>
	<polygon style="fill:#FFFFFF;" points="241.184,182.265 263.674,193.17 263.674,143.928 241.184,133.021 	"/>
	<polygon style="fill:#FFFFFF;" points="234.184,102.348 204.399,110.735 234.184,125.18 	"/>
	<polygon style="fill:#FFFFFF;" points="146.816,234.45 146.816,274.361 198.881,259.7 	"/>
	<path style="fill:#FFFFFF;" d="M189.619,157.26l44.565,21.61v-49.244l-35.586-17.258l-51.782,14.581v42.549l78.286,37.967
		c0.995,0.483,1.41,1.679,0.927,2.673c-0.345,0.712-1.058,1.127-1.801,1.127c-0.293,0-0.59-0.064-0.871-0.2l-76.541-37.12v56.059
		l57.865,28.062l9.424-2.654l-50.486-24.482c-0.994-0.482-1.409-1.679-0.927-2.673c0.482-0.993,1.678-1.406,2.672-0.927
		l54.541,26.449l14.279-4.021v-66.442l-46.31-22.456c-0.994-0.483-1.409-1.679-0.927-2.673
		C187.429,157.194,188.626,156.781,189.619,157.26"/>
	<path style="fill:#FFFFFF;" d="M235.808,274.184c-0.266,0-0.549,0.039-0.842,0.118c-2.272,0.61-4.265,3.311-4.265,5.781v3.892
		l7.236-2.038v-5.132C237.937,275.538,237.378,274.184,235.808,274.184"/>
	<path style="fill:#FFFFFF;" d="M257.75,219.722c0.001,1.478,0.819,2.359,2.19,2.359c0.315,0,0.651-0.046,0.998-0.139l4.235-1.137
		v-7.493l-2.945,0.79C259.841,214.743,257.749,217.37,257.75,219.722"/>
	<path style="fill:#FFFFFF;" d="M230.701,73.882c0,1.268,0.559,2.623,2.13,2.623c0.266,0,0.549-0.039,0.841-0.118
		c2.272-0.61,4.265-3.312,4.265-5.782v-2.87l-7.236,2.038V73.882z"/>
	<path style="fill:#FFFFFF;" d="M145.965,101.483c2.273-0.609,4.266-3.311,4.266-5.782v-3.266l-7.237,2.038v4.507
		c0,1.268,0.559,2.621,2.13,2.621C145.389,101.601,145.672,101.562,145.965,101.483"/>
	<path style="fill:#FFFFFF;" d="M124.921,155.144c-0.001-1.479-0.818-2.361-2.188-2.361c-0.315,0-0.651,0.047-0.998,0.14
		l-4.906,1.318v7.492l3.615-0.971C122.829,160.122,124.922,157.497,124.921,155.144"/>
	<path style="fill:#FFFFFF;" d="M123.425,257.05c-0.001-1.478-0.82-2.36-2.191-2.36c-0.315,0-0.65,0.046-0.997,0.14l-3.409,0.915
		v7.493l2.12-0.569C121.334,262.029,123.426,259.402,123.425,257.05"/>
	<path style="fill:#FFFFFF;" d="M259.245,117.815c0.001,1.479,0.821,2.36,2.193,2.36c0.315,0,0.651-0.046,0.998-0.139l2.737-0.736
		v-7.493l-1.45,0.389C261.337,112.838,259.245,115.463,259.245,117.815"/>
	<path style="fill:#FFFFFF;" d="M148.101,299.281c-0.266,0-0.549,0.039-0.842,0.118c-2.272,0.61-4.265,3.311-4.265,5.781v3.494
		l7.237-2.038v-4.734C150.231,300.635,149.672,299.281,148.101,299.281"/>
</g>
</svg>
