<?xml version="1.0" encoding="iso-8859-1"?>
<!-- Generator: Adobe Illustrator 25.4.1, SVG Export Plug-In . SVG Version: 6.00 Build 0)  -->
<svg version="1.1" id="Calque_1" xmlns="http://www.w3.org/2000/svg" xmlns:xlink="http://www.w3.org/1999/xlink" x="0px" y="0px"
	 viewBox="0 0 368.5 368.5" style="enable-background:new 0 0 368.5 368.5;" xml:space="preserve">
<g>
	<path style="fill:#FFFFFF;" d="M167.615,222.142c1.667,0.457,3.392,0.93,4.529,0.93c0.205,0,0.34-0.016,0.421-0.032
		c0.579-1.173-0.597-4.611-1.311-6.697c-1.163-3.398-2.167-6.332-0.706-8.539c1.54-2.326,4.155-3.262,6.256-4.014
		c1.741-0.623,2.983-1.113,3.099-1.726c0.39-2.061,2.049-3.067,3.383-3.877c0.771-0.467,1.5-0.91,1.912-1.459
		c0.351-0.469,0.573-1.369,0.769-2.164c0.368-1.494,1.054-4.276,3.899-4.276c0.168,0,0.343,0.012,0.527,0.04
		c0.413,0.058,0.821,0.087,1.213,0.087c1.219,0,1.856-0.277,2.069-0.418c-0.008-0.043-0.022-0.099-0.046-0.171l-0.117-0.348
		c-0.826-2.459-1.957-5.826-0.261-8.186c0.617-0.857,1.833-1.879,4.13-1.879c0.56,0,1.151,0.057,1.809,0.176
		c1.927,0.352,3.514,0.522,4.851,0.522c3.511,0,4.007-1.192,4.17-1.582c1.091-2.617,3.7-3.703,5.797-4.575
		c1.06-0.439,2.663-1.105,2.764-1.611c0.52-2.603,2.36-4.232,3.704-5.422c0.556-0.492,1.488-1.318,1.514-1.64
		c0.082-1.051-0.743-2.842-1.345-4.149c-0.858-1.863-1.535-3.334-0.937-4.836c0.303-0.759,0.892-1.347,1.657-1.654l0.396-0.156
		c1.074-0.424,3.075-1.215,3.359-2.008c0.103-0.287-0.044-0.824-0.403-1.471c-0.811-1.187-7.42-8.037-19.002-19.719
		c-0.022,0.024-0.042,0.045-0.064,0.071c-4.144,4.693-6.42,9.724-6.227,11.265c0.141,1.129,1.254,11.17-3.072,16.071
		c-1.506,1.707-3.516,2.609-5.813,2.609c-4.561,0-10.335-3.557-17.65-10.873l-49.493-49.492c0.126,1.225-0.179,2.371-0.892,3.314
		c-1.435,1.903-4.327,2.828-8.841,2.828c-2.386,0-5.21-0.275-7.951-0.773c-0.41-0.074-0.79-0.111-1.13-0.111
		c-1.076,0-1.474,0.361-1.701,0.675c-0.853,1.182-0.711,3.848-0.081,5.739c0.282,0.847,1.142,3.427-0.291,5.414
		c-1.378,1.912-3.846,1.912-4.657,1.912c-0.8,0-1.739-0.078-2.871-0.24c-0.047-0.008-0.094-0.01-0.142-0.01
		c-0.685,0-2.033,0.631-3.573,2.406c-2.145,2.473-3.214,5.436-3.009,6.873c0.3,2.102-0.46,4.274-2.201,6.281
		c-3.176,3.663-8.844,5.809-12.978,4.778h-0.004c-0.74,0-2.849,0.935-5.963,4.463c-0.868,0.982-1.649,1.978-2.348,2.957
		l79.43,79.427c2.142,2.143,4.035,3.229,5.626,3.229c2.418,0,4.439-2.629,6.223-4.949c0.975-1.268,1.817-2.364,2.779-3.102
		c0.839-0.644,1.925-0.97,3.229-0.97C163.735,221.08,165.62,221.595,167.615,222.142"/>
	<path style="fill:#FFFFFF;" d="M319.696,302.948l-35.183-35.133c-2.119-2.115-4.933-3.281-7.925-3.281
		c-1.149,0-2.27,0.176-3.337,0.506c-0.068,1.908-0.813,3.701-2.143,5.092l-0.153,0.154c-1.437,1.439-3.392,2.25-5.473,2.25
		c-0.017,0-0.034-0.002-0.051-0.002c-0.445,1.221-0.69,2.519-0.689,3.857c0.002,2.996,1.171,5.811,3.29,7.928l35.184,35.133
		c2.117,2.113,4.929,3.279,7.919,3.279c2.998,0,5.815-1.17,7.934-3.291l0.638-0.638C324.074,314.427,324.07,307.315,319.696,302.948
		"/>
	<path style="fill:#FFFFFF;" d="M172.343,241.28c1.083-1.084,2.581-1.658,4.331-1.658c3.329,0,7.372,2.053,10.817,5.49
		c2.337,2.334,4.09,5.025,4.937,7.582c1.041,3.137,0.655,5.822-1.085,7.565c-1.081,1.083-2.579,1.658-4.331,1.658
		c-0.294,0-0.599-0.035-0.903-0.069c2.237,1.231,4.143,1.866,5.409,1.866c0.305,0,0.461-0.041,0.515-0.059l72.926-73.027
		c0.04-0.043,0.081-0.086,0.123-0.127c0.494-1.293-1.292-7.364-8.613-14.674c-5.679-5.674-11.439-8.641-14.192-8.641
		c-0.281,0-0.436,0.035-0.501,0.055c-0.032,0.031-0.065,0.063-0.097,0.092l-72.956,73.058c-0.001,0.002-0.002,0.002-0.004,0.004
		c-0.005,0.006-0.01,0.014-0.015,0.02c-0.303,0.662,0.169,3.019,2.067,6.326C170.478,244.514,171.007,242.618,172.343,241.28
		 M192.501,225.7l51.318-51.393c0.975-0.978,2.558-0.978,3.536-0.002c0.977,0.977,0.977,2.559,0.002,3.536l-51.318,51.392
		c-0.488,0.49-1.129,0.735-1.769,0.735c-0.639,0-1.278-0.245-1.767-0.731C191.526,228.261,191.525,226.679,192.501,225.7"/>
	<path style="fill:#FFFFFF;" d="M187.012,256.917c0.377,0,0.673-0.072,0.792-0.191c0.203-0.204,0.346-1.047-0.122-2.457
		c-0.598-1.803-1.955-3.852-3.724-5.618c-2.788-2.783-5.667-4.029-7.284-4.029c-0.377,0-0.674,0.072-0.793,0.191
		c-0.202,0.202-0.345,1.045,0.123,2.458c0.031,0.095,0.074,0.193,0.11,0.291c0.564-0.129,1.144-0.204,1.731-0.204
		c2.248,0,4.384,0.971,5.862,2.664c1.643,1.881,2.218,4.334,1.77,6.618C186.059,256.821,186.582,256.917,187.012,256.917"/>
	<path style="fill:#FFFFFF;" d="M267.449,266.722c0.559-0.582,0.833-1.287,0.816-2.031c-0.017-0.742-0.322-1.434-0.859-1.946
		c-1.221-1.195-3.17-2.687-5.653-3.142c-1.691-0.32-3.43-0.256-5.618,0.195c-3.385,0.709-7.202,2.172-11.89,4.151
		c-5.127,2.171-11.545,5.119-20.053,9.046c-14.888,6.903-21.614,9.661-25.701,10.538c-2.063,0.459-3.538,0.513-4.781,0.148
		c-1.098-0.33-2.033-0.963-3.349-2.264c-0.518-0.535-4.866-5.023-9.586-9.734l-0.085-0.086c-0.031-0.031-0.062-0.063-0.092-0.094
		c-3.415-3.396-4.206-5.904-4.268-7.41c-0.063-1.043,0.123-1.984,0.623-3.1c0.555-1.228,1.495-2.509,2.796-3.818
		c1.099-1.064,1.168-2.746,0.193-3.863c-0.97-1.11-2.809-1.236-3.926-0.264l-0.122,0.111c-0.003,0.004-0.013,0.014-0.025,0.026
		c-0.01,0.01-0.02,0.021-0.031,0.031c-1.8,1.805-3.089,3.586-3.939,5.445c-1.292,2.735-1.491,6.016-0.546,8.803
		c0.89,2.707,2.577,5.237,5.316,7.983c0.022,0.021,0.043,0.043,0.063,0.064l0.151,0.152c2.817,2.813,6.048,6.092,9.301,9.442
		l0.171,0.176c0.013,0.011,0.026,0.025,0.038,0.039c1.934,1.941,3.745,3.109,5.719,3.695c1.634,0.488,3.505,0.594,5.539,0.32
		c2.824-0.383,6.03-1.363,11.064-3.379c4.559-1.843,10.197-4.392,17.814-7.908c16.117-7.459,24.127-11.014,28.978-12.363
		c2.268-0.652,4.083-0.867,5.257-0.604c1.049,0.262,1.625,0.612,2.757,1.649C264.658,267.814,266.418,267.755,267.449,266.722"/>
	<path style="fill:#FFFFFF;" d="M63.363,141.177c2.48-2.809,6.17-6.156,9.66-6.156c0.435,0,0.861,0.051,1.267,0.152
		c0.328,0.082,0.695,0.123,1.088,0.123c2.29,0,5.256-1.43,6.9-3.324c0.741-0.856,1.116-1.691,1.029-2.299
		c-0.511-3.578,1.732-8.031,4.182-10.857c2.58-2.975,5.535-4.449,8.199-4.069c1.152,0.164,2.071,0.213,2.571,0.176
		c-0.037-0.181-0.1-0.422-0.203-0.732c-0.964-2.895-1.342-7.317,0.769-10.242c0.905-1.256,2.639-2.752,5.757-2.752
		c0.639,0,1.32,0.064,2.024,0.191c2.456,0.447,4.962,0.693,7.057,0.693c3.175,0,4.375-0.539,4.731-0.757
		c-0.524-1.868-0.266-4.469,3.891-6.307c0.943-0.42,2.048-0.211,2.778,0.519l51.361,51.36c8.185,8.185,12.357,9.408,14.115,9.408
		c0.868,0,1.505-0.283,2.064-0.918c2.155-2.441,2.284-8.742,1.859-12.141c-0.509-4.076,3.501-10.734,7.441-15.197
		c2.481-2.809,6.171-6.158,9.662-6.158c0.435,0,0.861,0.051,1.267,0.152c0.329,0.082,0.696,0.123,1.09,0.123
		c2.289,0,5.255-1.427,6.899-3.324c0.74-0.853,1.115-1.691,1.028-2.297c-0.511-3.58,1.732-8.033,4.182-10.859
		c2.58-2.975,5.532-4.446,8.199-4.068c1.152,0.164,2.07,0.208,2.571,0.175c-0.037-0.181-0.1-0.422-0.203-0.732
		c-0.965-2.895-1.342-7.315,0.768-10.242c0.906-1.256,2.64-2.752,5.76-2.752c0.638,0,1.318,0.064,2.021,0.191
		c2.458,0.447,4.965,0.695,7.061,0.695c3.174,0,4.373-0.541,4.728-0.759c-1.288-4.58,3.637-6.299,6.583-7.326
		c1.217-0.424,4.066-1.417,4.203-2.1c0.703-3.522,0.958-6.981,1.183-10.031c0.435-5.909,0.749-10.178,4.162-11.539l0.483-0.192
		c1.528-0.603,4.084-1.615,4.531-2.861c0.243-0.68-0.161-1.641-0.542-2.326c-0.111-0.164-0.924-1.225-5.53-6.049H119.655H45.521
		v82.433v38.43c3.293,2.293,5.324,2.801,6.475,2.801c0.869,0,1.506-0.283,2.065-0.916c2.156-2.442,2.284-8.744,1.859-12.143
		C55.412,152.298,59.422,145.64,63.363,141.177"/>
</g>
</svg>
