<?xml version="1.0" encoding="iso-8859-1"?>
<!-- Generator: Adobe Illustrator 25.4.1, SVG Export Plug-In . SVG Version: 6.00 Build 0)  -->
<svg version="1.1" id="Calque_1" xmlns="http://www.w3.org/2000/svg" xmlns:xlink="http://www.w3.org/1999/xlink" x="0px" y="0px"
	 viewBox="0 0 368.5 368.5" style="enable-background:new 0 0 368.5 368.5;" xml:space="preserve">
<g>
	<path style="fill:#FFFFFF;" d="M85.175,178.5c18.451,0,37.462,3.535,41.568,9.579v-9.298c0-6.202-18.611-11.227-41.568-11.227
		c-22.959,0-41.57,5.025-41.57,11.227v9.298C47.713,182.035,66.722,178.5,85.175,178.5"/>
	<path style="fill:#FFFFFF;" d="M125.926,190.543c0-5.027-16.374-10.411-40.751-10.411c-24.379,0-40.754,5.384-40.754,10.411
		c0,5.03,16.375,10.413,40.754,10.413C109.552,200.956,125.926,195.573,125.926,190.543 M56.098,193.113
		c0-2.732,13.016-4.944,29.077-4.944c16.056,0,29.076,2.212,29.076,4.944c0,2.73-13.02,4.945-29.076,4.945
		C69.114,198.058,56.098,195.843,56.098,193.113"/>
	<path style="fill:#FFFFFF;" d="M79.577,192.153l-1.345-0.085c-0.447-0.024-0.827,0.311-0.856,0.754
		c-0.029,0.444,0.309,0.827,0.753,0.857l1.347,0.085c0.016,0.001,0.033,0.001,0.05,0.001c0.423,0,0.778-0.329,0.804-0.756
		C80.358,192.565,80.022,192.182,79.577,192.153"/>
	<path style="fill:#FFFFFF;" d="M82.897,189.225l-1.343-0.085c-0.451-0.026-0.828,0.312-0.855,0.754
		c-0.028,0.447,0.31,0.829,0.755,0.855l1.344,0.084c0.018,0.002,0.035,0.002,0.051,0.002c0.422,0,0.777-0.329,0.806-0.757
		C83.681,189.636,83.343,189.253,82.897,189.225"/>
	<path style="fill:#FFFFFF;" d="M87.148,191.043l1.346,0.085h0.051c0.423,0,0.778-0.328,0.804-0.757
		c0.029-0.445-0.31-0.824-0.755-0.853l-1.346-0.083c-0.451-0.024-0.826,0.311-0.854,0.754
		C86.367,190.634,86.705,191.017,87.148,191.043"/>
	<path style="fill:#FFFFFF;" d="M85.989,194.155c0.422,0,0.777-0.327,0.804-0.755c0.028-0.445-0.31-0.828-0.755-0.855l-1.346-0.087
		c-0.437-0.022-0.83,0.31-0.856,0.755c-0.029,0.447,0.31,0.828,0.755,0.855l1.346,0.087H85.989z"/>
	<path style="fill:#FFFFFF;" d="M90.771,194.266l1.346,0.086c0.017,0,0.033,0,0.051,0c0.423,0,0.778-0.327,0.803-0.754
		c0.03-0.445-0.311-0.828-0.751-0.855l-1.348-0.085c-0.44-0.026-0.827,0.31-0.854,0.755C89.99,193.857,90.328,194.24,90.771,194.266
		"/>
	<path style="fill:#FFFFFF;" d="M88.4,195.902l-1.348-0.085c-0.449-0.026-0.827,0.308-0.856,0.754
		c-0.027,0.444,0.31,0.827,0.755,0.855l1.346,0.085c0.019,0.001,0.036,0.001,0.052,0.001c0.423,0,0.778-0.329,0.804-0.755
		C89.183,196.313,88.845,195.93,88.4,195.902"/>
	<path style="fill:#FFFFFF;" d="M82.849,195.484l-1.346-0.085c-0.454-0.027-0.826,0.309-0.856,0.754
		c-0.028,0.444,0.31,0.827,0.754,0.855l1.345,0.086c0.018,0.002,0.035,0.002,0.052,0.002c0.423,0,0.778-0.33,0.804-0.758
		C83.63,195.894,83.294,195.514,82.849,195.484"/>
	<path style="fill:#FFFFFF;" d="M185.336,178.5c18.453,0,37.463,3.535,41.571,9.579v-9.298c0-6.202-18.612-11.227-41.571-11.227
		c-22.957,0-41.568,5.025-41.568,11.227v9.298C147.874,182.035,166.885,178.5,185.336,178.5"/>
	<path style="fill:#FFFFFF;" d="M226.09,190.542c0-5.027-16.373-10.411-40.754-10.411c-24.377,0-40.752,5.384-40.752,10.411
		c0,5.03,16.375,10.414,40.752,10.414C209.717,200.956,226.09,195.573,226.09,190.542 M185.336,198.057
		c-16.057,0-29.075-2.215-29.075-4.945c0-2.732,13.018-4.943,29.075-4.943c16.058,0,29.078,2.211,29.078,4.943
		C214.414,195.842,201.394,198.057,185.336,198.057"/>
	<path style="fill:#FFFFFF;" d="M179.741,192.153l-1.345-0.085c-0.448-0.024-0.827,0.311-0.856,0.754
		c-0.029,0.444,0.309,0.827,0.752,0.857l1.348,0.085c0.017,0.001,0.033,0.001,0.05,0.001c0.423,0,0.778-0.329,0.804-0.756
		C180.523,192.565,180.186,192.182,179.741,192.153"/>
	<path style="fill:#FFFFFF;" d="M183.062,189.225l-1.343-0.085c-0.454-0.026-0.829,0.312-0.857,0.754
		c-0.028,0.447,0.311,0.829,0.755,0.855l1.345,0.084c0.017,0.002,0.036,0.002,0.051,0.002c0.423,0,0.776-0.329,0.805-0.757
		C183.846,189.636,183.507,189.253,183.062,189.225"/>
	<path style="fill:#FFFFFF;" d="M188.758,189.518l-1.346-0.083c-0.451-0.023-0.826,0.311-0.855,0.754
		c-0.026,0.446,0.31,0.828,0.756,0.854l1.348,0.086h0.049c0.422,0,0.778-0.329,0.803-0.758
		C189.542,189.927,189.202,189.547,188.758,189.518"/>
	<path style="fill:#FFFFFF;" d="M186.956,193.4c0.028-0.445-0.31-0.828-0.755-0.856l-1.346-0.086
		c-0.438-0.022-0.829,0.31-0.856,0.755c-0.028,0.446,0.31,0.828,0.755,0.855l1.346,0.087h0.052
		C186.573,194.155,186.927,193.827,186.956,193.4"/>
	<path style="fill:#FFFFFF;" d="M192.381,192.743l-1.345-0.085c-0.44-0.026-0.829,0.309-0.855,0.754
		c-0.029,0.445,0.309,0.828,0.752,0.854l1.346,0.085c0.018,0.001,0.034,0.001,0.053,0.001c0.42,0,0.776-0.327,0.802-0.754
		C193.163,193.154,192.824,192.771,192.381,192.743"/>
	<path style="fill:#FFFFFF;" d="M188.565,195.902l-1.348-0.085c-0.452-0.026-0.828,0.308-0.856,0.754
		c-0.029,0.444,0.31,0.827,0.754,0.855l1.347,0.085c0.018,0.001,0.035,0.001,0.051,0.001c0.423,0,0.778-0.329,0.803-0.755
		C189.346,196.313,189.008,195.93,188.565,195.902"/>
	<path style="fill:#FFFFFF;" d="M183.012,195.484l-1.346-0.085c-0.454-0.027-0.826,0.309-0.856,0.754
		c-0.026,0.444,0.31,0.827,0.756,0.855l1.343,0.086c0.019,0.002,0.036,0.002,0.052,0.002c0.423,0,0.778-0.33,0.804-0.758
		C183.795,195.894,183.457,195.514,183.012,195.484"/>
	<path style="fill:#FFFFFF;" d="M285.501,178.5c18.451,0,37.462,3.535,41.568,9.579v-9.298c0-6.202-18.611-11.227-41.568-11.227
		c-22.958,0-41.568,5.025-41.568,11.227v9.298C248.039,182.035,267.05,178.5,285.501,178.5"/>
	<path style="fill:#FFFFFF;" d="M285.501,180.132c-24.378,0-40.753,5.384-40.753,10.411c0,5.03,16.375,10.414,40.753,10.414
		c24.377,0,40.752-5.384,40.752-10.414C326.253,185.516,309.878,180.132,285.501,180.132 M285.501,198.057
		c-16.061,0-29.075-2.215-29.075-4.945c0-2.732,13.014-4.943,29.075-4.943c16.057,0,29.076,2.211,29.076,4.943
		C314.577,195.842,301.558,198.057,285.501,198.057"/>
	<path style="fill:#FFFFFF;" d="M279.904,192.153l-1.345-0.085c-0.447-0.024-0.827,0.311-0.856,0.754
		c-0.029,0.444,0.31,0.827,0.753,0.857l1.347,0.085c0.018,0.001,0.033,0.001,0.052,0.001c0.421,0,0.776-0.329,0.802-0.756
		C280.688,192.565,280.349,192.182,279.904,192.153"/>
	<path style="fill:#FFFFFF;" d="M283.227,189.225l-1.345-0.085c-0.452-0.026-0.829,0.312-0.856,0.754
		c-0.028,0.447,0.31,0.829,0.755,0.855l1.344,0.084c0.018,0.002,0.035,0.002,0.051,0.002c0.425,0,0.778-0.329,0.806-0.757
		C284.008,189.636,283.671,189.253,283.227,189.225"/>
	<path style="fill:#FFFFFF;" d="M288.922,189.518l-1.348-0.083c-0.45-0.023-0.825,0.311-0.853,0.754
		c-0.027,0.446,0.31,0.828,0.753,0.854l1.348,0.086h0.051c0.421,0,0.778-0.329,0.802-0.758
		C289.705,189.927,289.365,189.547,288.922,189.518"/>
	<path style="fill:#FFFFFF;" d="M287.12,193.4c0.027-0.445-0.31-0.828-0.753-0.856l-1.348-0.086
		c-0.438-0.022-0.827,0.31-0.856,0.755c-0.029,0.446,0.31,0.828,0.755,0.855l1.346,0.087h0.052
		C286.737,194.155,287.092,193.827,287.12,193.4"/>
	<path style="fill:#FFFFFF;" d="M292.546,192.743l-1.348-0.085c-0.44-0.026-0.827,0.309-0.853,0.754
		c-0.029,0.445,0.309,0.828,0.752,0.854l1.346,0.085c0.018,0.001,0.035,0.001,0.051,0.001c0.423,0,0.778-0.327,0.805-0.754
		C293.327,193.154,292.989,192.771,292.546,192.743"/>
	<path style="fill:#FFFFFF;" d="M288.727,195.902l-1.348-0.085c-0.45-0.026-0.827,0.308-0.854,0.754
		c-0.029,0.444,0.31,0.827,0.753,0.855l1.347,0.085c0.018,0.001,0.035,0.001,0.053,0.001c0.423,0,0.776-0.329,0.802-0.755
		C289.509,196.313,289.17,195.93,288.727,195.902"/>
	<path style="fill:#FFFFFF;" d="M283.176,195.484l-1.346-0.085c-0.454-0.027-0.826,0.309-0.856,0.754
		c-0.027,0.444,0.31,0.827,0.754,0.855l1.345,0.086c0.018,0.002,0.036,0.002,0.052,0.002c0.423,0,0.778-0.33,0.804-0.758
		C283.96,195.894,283.621,195.514,283.176,195.484"/>
</g>
</svg>
