<?xml version="1.0" encoding="iso-8859-1"?>
<!-- Generator: Adobe Illustrator 25.4.1, SVG Export Plug-In . SVG Version: 6.00 Build 0)  -->
<svg version="1.1" id="Calque_1" xmlns="http://www.w3.org/2000/svg" xmlns:xlink="http://www.w3.org/1999/xlink" x="0px" y="0px"
	 viewBox="0 0 368.5 368.5" style="enable-background:new 0 0 368.5 368.5;" xml:space="preserve">
<g>
	<path style="fill:#FFFFFF;" d="M118.555,248.571l39.463,19.945c4.346,23.654,19.284,45.091,42.359,56.746
		c0.968,0.495,2.002,0.725,3.018,0.725c2.454,0,4.812-1.349,5.994-3.684l65.701-130.066c0.803-1.584,0.942-3.428,0.385-5.116
		c-0.559-1.691-1.762-3.089-3.35-3.888c-11.247-5.683-23.295-8.564-35.815-8.564c-12.46,0-24.404,2.851-35.107,8.09l-29.675-14.986
		v34.161c0,12.909-10.508,23.412-23.415,23.412c-12.912,0-23.416-10.503-23.416-23.412V160.3
		c-11.458,3.911-21.46,12.119-27.346,23.779C85.395,207.744,94.889,236.62,118.555,248.571"/>
	<path style="fill:#FFFFFF;" d="M273.799,273.322c5.936-11.754,1.203-26.15-10.55-32.086c-0.281-0.145-0.596-0.216-0.908-0.216
		c-0.21,0-0.424,0.035-0.632,0.1c-0.506,0.169-0.926,0.525-1.171,1.004l-19.721,39.045c-0.497,0.989-0.099,2.199,0.898,2.702
		c3.373,1.711,6.988,2.576,10.748,2.576C261.535,286.447,269.709,281.418,273.799,273.322"/>
	<path style="fill:#FFFFFF;" d="M148.114,216.856c8.222,0,14.918-6.694,14.918-14.922V90.436h-29.839v111.498
		C133.193,210.162,139.887,216.856,148.114,216.856"/>
	<path style="fill:#FFFFFF;" d="M118.448,81.825h59.335c13.374,0,24.258-14.922,24.258-33.257c0-3.34-1.974-6.045-4.415-6.045H98.6
		c-2.436,0-4.411,2.705-4.411,6.045C94.189,66.903,105.074,81.825,118.448,81.825"/>
</g>
</svg>
