<?xml version="1.0" encoding="iso-8859-1"?>
<!-- Generator: Adobe Illustrator 25.4.1, SVG Export Plug-In . SVG Version: 6.00 Build 0)  -->
<svg version="1.1" id="Calque_1" xmlns="http://www.w3.org/2000/svg" xmlns:xlink="http://www.w3.org/1999/xlink" x="0px" y="0px"
	 viewBox="0 0 368.5 368.5" style="enable-background:new 0 0 368.5 368.5;" xml:space="preserve">
<g>
	<path style="fill:#FFFFFF;" d="M109.216,323.171h5.323c-9.828-6.939-16.264-18.377-16.264-31.295V76.622
		c0-12.918,6.436-24.355,16.263-31.293h-5.322c-17.256,0-31.294,14.037-31.294,31.293v215.254
		C77.922,309.132,91.96,323.171,109.216,323.171"/>
	<path style="fill:#FFFFFF;" d="M259.284,45.329H136.569c-17.255,0-31.295,14.037-31.295,31.293v215.254
		c0,17.256,14.04,31.295,31.295,31.295h122.715c17.256,0,31.294-14.039,31.294-31.295V76.622
		C290.578,59.366,276.54,45.329,259.284,45.329 M150.599,303.468c-10.668,0-19.347-8.68-19.347-19.348s8.679-19.348,19.347-19.348
		c10.669,0,19.348,8.68,19.348,19.348S161.268,303.468,150.599,303.468 M245.599,303.468c-10.668,0-19.347-8.68-19.347-19.348
		s8.679-19.348,19.347-19.348c10.669,0,19.348,8.68,19.348,19.348S256.268,303.468,245.599,303.468 M275.793,214.864
		c0,19.518-15.879,35.396-35.396,35.396h-86.244c-19.517,0-35.395-15.878-35.395-35.396V88.126c0-19.582,11.23-30.813,30.811-30.813
		h96.328c19.558,0,29.896,10.336,29.896,29.895V214.864z"/>
	<path style="fill:#FFFFFF;" d="M245.599,271.772c-6.808,0-12.347,5.539-12.347,12.348c0,6.808,5.539,12.347,12.347,12.347
		c6.809,0,12.349-5.539,12.349-12.347C257.948,277.311,252.408,271.772,245.599,271.772"/>
	<path style="fill:#FFFFFF;" d="M150.599,271.772c-6.808,0-12.347,5.539-12.347,12.348c0,6.808,5.539,12.347,12.347,12.347
		c6.809,0,12.349-5.539,12.349-12.347C162.948,277.311,157.408,271.772,150.599,271.772"/>
	<path style="fill:#FFFFFF;" d="M236.827,147.192c-1.525,0-3.024,0.147-4.476,0.428c-4.825-8.049-13.643-13.43-23.707-13.434
		c-1.643,0-3.248,0.155-4.811,0.43c-0.876-1.496-1.895-2.899-3.045-4.186l10.135-13.062c1.297-1.672,0.992-4.078-0.678-5.373
		c-1.672-1.295-4.075-0.992-5.373,0.678l-9.967,12.853c-3.278-1.998-7.028-3.297-11.049-3.682l-0.433-10.671
		c-0.089-2.112-1.871-3.754-3.982-3.67c-2.114,0.085-3.756,1.869-3.671,3.982l0.438,10.732c-3.763,0.752-7.232,2.317-10.222,4.499
		l-11.933-13.792c-1.384-1.597-3.801-1.771-5.401-0.39c-1.598,1.385-1.773,3.805-0.389,5.402l12.256,14.162
		c-2.054,2.723-3.584,5.86-4.446,9.268l-15.116-1.846c-2.096-0.256-4.007,1.24-4.264,3.338c-0.255,2.098,1.238,4.008,3.337,4.266
		l15.29,1.865c0.165,3.605,1.062,7.019,2.55,10.1l-10.25,7.058c-1.741,1.197-2.181,3.58-0.982,5.324
		c0.742,1.08,1.939,1.659,3.157,1.659c0.747,0,1.504-0.219,2.166-0.674l10.215-7.033c1.386,1.505,2.942,2.847,4.644,3.992
		c1.847,10.283,10.821,18.09,21.637,18.092l2.068,0.019h53.23c9.18-0.002,16.619-7.416,16.66-16.586l0.008-0.295l0.003-0.205
		C260.189,157.569,249.729,147.198,236.827,147.192 M171.273,151.758l-0.081,0.102c-1.79,2.258-3.137,4.893-3.932,7.754
		c-2.698-3.201-4.327-7.324-4.327-11.84c0.019-10.166,8.244-18.392,18.41-18.41c6.184-0.004,11.642,3.053,14.982,7.727
		c-4.363,2.177-8.076,5.462-10.746,9.501c-0.941-0.189-1.912-0.289-2.903-0.289C178.075,146.303,173.942,148.442,171.273,151.758
		 M252.759,170.737l-0.003,0.135c-0.011,4.969-4.029,8.99-9.001,9h-53.194l-2.068-0.02c-7.959-0.015-14.371-6.426-14.384-14.347
		c0-3.375,1.15-6.442,3.086-8.895l0.056-0.072c1.274-1.567,3.215-2.578,5.425-2.578c1.089,0,2.099,0.244,3.011,0.679
		c1.801,0.86,3.965,0.19,4.966-1.539l0.038-0.068l0.102-0.193c3.296-6.524,10.044-11,17.851-10.998
		c8.128-0.002,15.115,4.855,18.235,11.82c0.778,1.742,2.704,2.638,4.539,2.123l0.112-0.037l0.192-0.059
		c1.601-0.543,3.312-0.836,5.105-0.84c8.666-0.006,15.739,6.963,15.94,15.651L252.759,170.737z"/>
</g>
</svg>
