<?xml version="1.0" encoding="iso-8859-1"?>
<!-- Generator: Adobe Illustrator 25.4.1, SVG Export Plug-In . SVG Version: 6.00 Build 0)  -->
<svg version="1.1" id="Calque_1" xmlns="http://www.w3.org/2000/svg" xmlns:xlink="http://www.w3.org/1999/xlink" x="0px" y="0px"
	 viewBox="0 0 368.5 368.5" style="enable-background:new 0 0 368.5 368.5;" xml:space="preserve">
<g>
	<path style="fill:#FFFFFF;" d="M248.439,194.518c-12.928-6.06-24.983-8.836-33.841-10.097l-16.997,17.769
		c-1.255,1.504-3.764,3.156-7.015,3.156c-0.571,0-1.154-0.05-1.734-0.15c-4.7-0.812-7.383-4.421-7.844-5.089l-18.013-25.439
		c-2.428-3.402-5.226-8.105-5.226-14.218c0-9.032,6.642-15.843,15.449-15.843c1.012,0,2.046,0.092,3.072,0.273
		c5.489,0.967,10.345,4.335,13.471,8.929c1.99-1.974,4.533-3.353,7.407-3.975c-0.141-7.553-0.636-15.698-1.796-23.307
		c-2.744-17.991-12.552-32.744-18.583-40.383c-18.725-10.977-38.949-19.608-59.474-25.208l-29.378-5.179l-11.126-0.625v220.347
		l214.877,37.889v-52.973c-0.86-5.015-1.953-10.346-3.268-15.891C286.355,239.575,271.297,205.231,248.439,194.518 M119.409,147.528
		c0-6.083,4.457-10.671,10.367-10.671c0.66,0,1.331,0.06,1.997,0.177l14.964,2.638c6.155,1.087,10.975,6.885,10.973,13.201
		c0.001,2.918-1.047,5.611-2.95,7.58c-1.631,1.687-3.769,2.733-6.119,3.013l-0.001,10.451c5.218,1.822,9.072,7.055,9.07,12.702
		c0,2.919-1.047,5.611-2.95,7.581c-1.925,1.992-4.558,3.09-7.414,3.09h-0.001c-0.66,0-1.332-0.06-1.998-0.177l-14.962-2.637
		c-6.156-1.087-10.976-6.886-10.976-13.201c0-5.009,3.027-9.002,7.401-10.252v-11.534
		C122.477,157.215,119.409,152.483,119.409,147.528 M186.289,268.857c-1.524,0-3.083-0.139-4.636-0.412l-41.923-7.394
		c-14.71-2.591-26.677-17.023-26.677-32.168c0-13.744,9.954-24.107,23.154-24.107c1.524,0,3.083,0.139,4.635,0.412l41.924,7.394
		c14.71,2.592,26.677,17.023,26.677,32.168C209.443,258.493,199.489,268.857,186.289,268.857"/>
	<path style="fill:#FFFFFF;" d="M175.5,76.072c3.489,1.931,6.922,3.944,10.302,6.027c0.777,0.477,1.54,0.967,2.309,1.451
		c0.674,0.425,1.355,0.842,2.024,1.273c18.992,12.197,35.669,26.444,49.737,42.479c0.122,0.139,0.248,0.277,0.37,0.415
		c1.023,1.174,2.031,2.358,3.027,3.55c0.12,0.144,0.246,0.285,0.366,0.43c1.25,1.505,2.471,3.039,3.678,4.587l0.009,0.011
		c0.023,0.029,0.046,0.059,0.068,0.088c0.911,1.169,1.812,2.349,2.699,3.541l0.078,0.106c0.175,0.234,0.344,0.47,0.517,0.704
		c0.677,0.92,1.352,1.843,2.015,2.774c0.048,0.068,0.095,0.133,0.143,0.2c0.306,0.431,0.607,0.867,0.909,1.302
		c0.497,0.71,0.995,1.42,1.484,2.137c0.055,0.081,0.111,0.161,0.166,0.242c0.402,0.592,0.793,1.186,1.186,1.779
		c0.376,0.565,0.757,1.128,1.128,1.697l0.16,0.242c0.415,0.639,0.818,1.283,1.227,1.925c0.356,0.56,0.719,1.116,1.07,1.68
		c0.03,0.046,0.061,0.093,0.09,0.14l0.488,0.795c0.312,0.505,0.618,1.014,0.927,1.522c0.403,0.662,0.806,1.324,1.203,1.99
		l0.516,0.874c0.216,0.367,0.429,0.737,0.645,1.106c0.455,0.78,0.907,1.561,1.353,2.345c0.102,0.18,0.205,0.358,0.306,0.538
		c0.199,0.352,0.393,0.704,0.589,1.056c0.471,0.843,0.94,1.685,1.401,2.532c0.063,0.115,0.126,0.229,0.189,0.344
		c0.17,0.313,0.333,0.625,0.501,0.937c0.48,0.894,0.959,1.786,1.428,2.684c0.053,0.101,0.107,0.201,0.16,0.303
		c0.187,0.358,0.367,0.717,0.552,1.076c0.445,0.864,0.892,1.728,1.328,2.595l0.13,0.256c0.189,0.375,0.368,0.751,0.554,1.126
		c8.091,16.323,14.446,33.114,19.157,48.893V91.684l-130.68-23.043C165.903,70.961,170.741,73.439,175.5,76.072"/>
	<path style="fill:#FFFFFF;" d="M213.712,176.161c0.227,0.034,0.446,0.093,0.66,0.164c9.611,1.262,23.058,4.197,37.463,10.949
		c10.492,4.918,19.336,13.848,26.309,23.136c-0.125-0.341-0.25-0.682-0.376-1.024l-0.597-1.614c-0.366-0.98-0.74-1.955-1.117-2.929
		l-0.583-1.498c-0.406-1.035-0.817-2.07-1.235-3.107l-0.623-1.511c-0.32-0.779-0.644-1.561-0.974-2.344l-0.695-1.631
		c-0.322-0.75-0.647-1.501-0.976-2.254l-0.725-1.638c-0.34-0.765-0.687-1.53-1.036-2.295c-0.24-0.528-0.476-1.046-0.717-1.564
		c-0.398-0.861-0.803-1.716-1.209-2.57l-0.605-1.275c-0.605-1.255-1.222-2.513-1.85-3.768l-0.46-0.9
		c-0.496-0.98-0.989-1.947-1.491-2.912l-0.731-1.381c-0.431-0.815-0.861-1.622-1.297-2.427c-0.266-0.489-0.538-0.984-0.811-1.478
		c-0.431-0.782-0.863-1.557-1.299-2.329c-0.277-0.491-0.557-0.984-0.838-1.474c-0.458-0.799-0.925-1.596-1.395-2.39l-0.79-1.341
		c-0.581-0.969-1.173-1.938-1.769-2.903l-0.467-0.76c-0.762-1.223-1.531-2.427-2.31-3.627l-0.66-0.994
		c-0.571-0.869-1.144-1.731-1.724-2.587c-0.252-0.37-0.512-0.745-0.771-1.119l-0.119-0.171c-0.525-0.762-1.047-1.511-1.575-2.256
		c-0.319-0.449-0.641-0.898-0.965-1.345c-0.535-0.739-1.069-1.467-1.606-2.19l-0.968-1.296c-0.58-0.767-1.172-1.533-1.766-2.293
		l-0.857-1.103c-0.877-1.104-1.769-2.21-2.676-3.303c-1.323-1.591-2.686-3.157-4.061-4.714c-0.595-0.671-1.194-1.34-1.799-2.005
		c-0.622-0.687-1.258-1.365-1.89-2.043c-10.724-11.467-23.033-22.007-36.413-31.327c4.328,7.961,8.302,17.718,9.962,28.602
		c2.898,19.008,1.896,40.528,1.242,49.828C206.784,175.293,209.836,175.583,213.712,176.161"/>
</g>
</svg>
