<?xml version="1.0" encoding="iso-8859-1"?>
<!-- Generator: Adobe Illustrator 25.4.1, SVG Export Plug-In . SVG Version: 6.00 Build 0)  -->
<svg version="1.1" id="Calque_1" xmlns="http://www.w3.org/2000/svg" xmlns:xlink="http://www.w3.org/1999/xlink" x="0px" y="0px"
	 viewBox="0 0 368.5 368.5" style="enable-background:new 0 0 368.5 368.5;" xml:space="preserve">
<g>
	<path style="fill:#FFFFFF;" d="M126.51,229.072c2.399-0.96,4.451-1.786,6.861-1.786c2.406,0,4.558,0.862,6.835,1.777
		c2.618,1.041,5.549,2.212,9.122,2.212c3.569,0,6.502-1.171,9.088-2.202c2.405-0.961,4.46-1.787,6.868-1.787
		c2.401,0,4.457,0.826,6.836,1.777c2.619,1.044,5.55,2.212,9.12,2.212c3.569,0,6.5-1.168,9.085-2.199
		c1.207-0.486,1.964-1.603,1.964-2.866v-5.981v-5.986v-17.476c0-1.692-1.378-3.071-3.07-3.071H45.603
		c-1.693,0-3.07,1.379-3.07,3.071v17.48v5.982v5.987c0,1.257,0.756,2.377,1.925,2.849c2.605,1.039,5.54,2.21,9.121,2.21
		c3.573,0,6.507-1.171,9.096-2.202c2.303-0.925,4.453-1.787,6.864-1.787c2.41,0,4.561,0.862,6.837,1.777
		c2.618,1.041,5.549,2.212,9.119,2.212c3.566,0,6.497-1.168,9.082-2.197c2.316-0.93,4.466-1.792,6.876-1.792
		c2.411,0,4.563,0.862,6.838,1.777c2.615,1.041,5.549,2.212,9.122,2.212C120.981,231.275,123.919,230.104,126.51,229.072"/>
	<path style="fill:#FFFFFF;" d="M44.609,181.041c0.121,0.73,0.754,1.263,1.494,1.263h146.993c0.169,0,0.336-0.027,0.496-0.081
		l121.091-41.995c0.7-0.244,1.12-0.954,0.998-1.683c-0.124-0.729-0.754-1.263-1.493-1.263H167.194c-0.169,0-0.337,0.027-0.497,0.085
		L45.606,179.36C44.908,179.604,44.485,180.312,44.609,181.041"/>
	<path style="fill:#FFFFFF;" d="M270.349,197.54c0-1.318,0.202-2.588,0.578-3.786h-23.563c-2.091,0-3.786,1.695-3.786,3.786
		c0,2.093,1.695,3.786,3.786,3.786h23.563C270.551,200.131,270.349,198.859,270.349,197.54"/>
	<path style="fill:#FFFFFF;" d="M290.584,197.538c0-4.176-3.387-7.561-7.563-7.561s-7.562,3.385-7.562,7.561
		c0,4.177,3.386,7.564,7.562,7.564S290.584,201.715,290.584,197.538"/>
	<path style="fill:#FFFFFF;" d="M320.698,217.784c2.928,0,5.3-2.371,5.3-5.3V155.14c0-1.716-0.828-3.323-2.227-4.318
		c-1.396-0.995-3.188-1.253-4.809-0.691l-113.266,39.281c-2.764,0.96-4.229,3.978-3.268,6.745c0.958,2.764,3.978,4.229,6.743,3.269
		l98.422-34.13l-18.819,20.966c2.3,1.177,4.197,3.029,5.418,5.302l21.206-23.633v44.553
		C315.397,215.413,317.771,217.784,320.698,217.784"/>
</g>
</svg>
