<?xml version="1.0" encoding="iso-8859-1"?>
<!-- Generator: Adobe Illustrator 25.4.1, SVG Export Plug-In . SVG Version: 6.00 Build 0)  -->
<svg version="1.1" id="Calque_1" xmlns="http://www.w3.org/2000/svg" xmlns:xlink="http://www.w3.org/1999/xlink" x="0px" y="0px"
	 viewBox="0 0 368.5 368.5" style="enable-background:new 0 0 368.5 368.5;" xml:space="preserve">
<g>
	<path style="fill:#FFFFFF;" d="M36.822,62.731v209.928c1.207-0.173,2.438-0.286,3.701-0.286c1.282,0,2.533,0.115,3.76,0.295V62.731
		c0-0.449-0.093-0.873-0.238-1.271H37.06C36.914,61.858,36.822,62.282,36.822,62.731"/>
	<path style="fill:#FFFFFF;" d="M40.523,279.833c-8.388,0-15.213,5.495-15.213,12.247v38.19c0,6.755,6.825,12.25,15.213,12.25
		c8.386,0,15.21-5.495,15.21-12.25v-38.19C55.733,285.328,48.909,279.833,40.523,279.833"/>
	<path style="fill:#FFFFFF;" d="M322.987,239.947c0.602-1.189,0.478-2.622-0.311-3.695l-10.635-14.417h-8.789l9.569,12.979H60.275
		c-1.953,0-3.539,1.587-3.539,3.539c0,1.956,1.586,3.542,3.539,3.542v-0.003H319.83
		C321.161,241.892,322.387,241.141,322.987,239.947"/>
	<path style="fill:#FFFFFF;" d="M322.676,209.502l-10.635-14.412h-8.789l9.569,12.976H60.274c-1.952,0-3.538,1.587-3.538,3.538
		c0,1.962,1.586,3.546,3.538,3.546v-0.006H319.83c1.33,0,2.557-0.748,3.157-1.942C323.589,212.012,323.465,210.583,322.676,209.502"
		/>
	<path style="fill:#FFFFFF;" d="M322.676,182.765l-10.635-14.417h-8.789l9.569,12.982H60.274c-1.952,0-3.538,1.582-3.538,3.536
		c0,1.955,1.586,3.542,3.538,3.542v-0.005H319.83c1.33,0,2.557-0.752,3.157-1.943C323.589,185.271,323.465,183.838,322.676,182.765"
		/>
	<path style="fill:#FFFFFF;" d="M322.676,156.016L312.041,141.6h-8.789l9.569,12.981H60.274c-1.952,0-3.538,1.582-3.538,3.538
		c0,1.956,1.586,3.542,3.538,3.542v-0.007H319.83c1.33,0,2.557-0.75,3.157-1.942C323.589,158.521,323.465,157.09,322.676,156.016"/>
	<path style="fill:#FFFFFF;" d="M322.676,129.273l-10.635-14.417h-8.789l9.569,12.979H60.274c-1.952,0-3.538,1.587-3.538,3.541
		c0,1.958,1.586,3.542,3.538,3.542v-0.002H319.83c1.33,0,2.557-0.754,3.157-1.948C323.589,131.779,323.465,130.347,322.676,129.273"
		/>
	<path style="fill:#FFFFFF;" d="M322.676,102.53l-10.635-14.414h-8.789l9.569,12.973H60.274c-1.952,0-3.538,1.585-3.538,3.538
		c0,1.96,1.586,3.547,3.538,3.547v-0.005H319.83c1.33,0,2.557-0.753,3.157-1.945C323.589,105.035,323.465,103.603,322.676,102.53"/>
	<path style="fill:#FFFFFF;" d="M312.821,74.35H60.275c-1.953,0-3.539,1.585-3.539,3.536c0,1.962,1.586,3.547,3.539,3.547v-0.007
		H319.83c1.331,0,2.557-0.752,3.157-1.946c0.602-1.186,0.479-2.622-0.311-3.695L312.11,61.459h-8.79L312.821,74.35z"/>
	<path style="fill:#FFFFFF;" d="M335.008,26.004h-301.5c-6.751,0-12.242,6.278-12.242,13.997s5.491,13.997,12.242,13.997h301.5
		c6.751,0,12.242-6.278,12.242-13.997S341.759,26.004,335.008,26.004"/>
</g>
</svg>
