<?xml version="1.0" encoding="iso-8859-1"?>
<!-- Generator: Adobe Illustrator 25.4.1, SVG Export Plug-In . SVG Version: 6.00 Build 0)  -->
<svg version="1.1" id="Calque_1" xmlns="http://www.w3.org/2000/svg" xmlns:xlink="http://www.w3.org/1999/xlink" x="0px" y="0px"
	 viewBox="0 0 368.5 368.5" style="enable-background:new 0 0 368.5 368.5;" xml:space="preserve">
<g>
	<path style="fill:#FFFFFF;" d="M122.611,80.335l-4.403-0.202c-0.225-0.024-0.444,0.111-0.551,0.314
		c-0.105,0.203-0.086,0.45,0.053,0.632l3.218,4.232L122.611,80.335z"/>
	<path style="fill:#FFFFFF;" d="M199.663,310.466l-143.306-0.202l-11.692-7.434c-0.181-0.115-0.412-0.123-0.599-0.019
		c-0.19,0.103-0.307,0.303-0.307,0.519v3.43c0,0.204,0.104,0.391,0.274,0.5l11.308,7.205c0.096,0.059,0.205,0.09,0.317,0.09
		l142.857,0.147h0.002c0.246,0,0.467-0.152,0.553-0.383l1.146-3.055c0.067-0.182,0.041-0.382-0.068-0.543
		C200.036,310.561,199.854,310.466,199.663,310.466"/>
	<path style="fill:#FFFFFF;" d="M95.477,170.553c-0.787-0.032-1.512-0.434-1.958-1.083c-0.446-0.648-0.56-1.47-0.308-2.216
		l26.625-78.715l-4.161-5.742c-0.129-0.176-0.344-0.265-0.557-0.239c-0.217,0.03-0.398,0.175-0.475,0.38l-4.328,11.622
		c-0.074,0.199-0.035,0.423,0.102,0.584l1.803,2.151L45.555,299.223c-0.084,0.254,0.016,0.535,0.243,0.682l10.291,6.644
		c0.097,0.063,0.209,0.096,0.32,0.096c0.066,0,0.135-0.012,0.199-0.035c0.172-0.061,0.305-0.2,0.363-0.373l44.25-135.449
		L95.477,170.553z"/>
	<path style="fill:#FFFFFF;" d="M243.304,176.622l-46.947,129.923c-0.053,0.09-0.086,0.195-0.086,0.305
		c0,0.328,0.265,0.59,0.592,0.59h0.011h3.532c0.25,0,0.47-0.155,0.554-0.39l47.063-130.235L243.304,176.622z"/>
	<path style="fill:#FFFFFF;" d="M122.767,263.057c0.225,0,0.449-0.062,0.649-0.193l26.742-17.614
		c0.545-0.358,0.695-1.089,0.338-1.634c-0.36-0.546-1.092-0.698-1.637-0.338l-26.742,17.613c-0.545,0.359-0.696,1.092-0.336,1.635
		C122.007,262.871,122.383,263.057,122.767,263.057"/>
	<path style="fill:#FFFFFF;" d="M141.212,231.971c-0.359-0.545-1.092-0.695-1.637-0.336l-26.739,17.611
		c-0.548,0.36-0.699,1.092-0.339,1.635c0.226,0.345,0.604,0.533,0.988,0.533c0.221,0,0.447-0.063,0.646-0.197l26.743-17.611
		C141.419,233.248,141.569,232.516,141.212,231.971"/>
	<path style="fill:#FFFFFF;" d="M158.167,230.267c-0.357-0.546-1.09-0.696-1.635-0.337l-26.744,17.611
		c-0.543,0.36-0.694,1.092-0.336,1.637c0.229,0.345,0.604,0.531,0.988,0.531c0.223,0,0.45-0.061,0.649-0.195l26.74-17.612
		C158.376,231.543,158.526,230.811,158.167,230.267"/>
	<polygon style="fill:#FFFFFF;" points="185.065,289.385 192.461,301.926 238.213,176.413 225.82,175.905 	"/>
	<path style="fill:#FFFFFF;" d="M64.54,300.887c-0.121,0.359-0.061,0.754,0.162,1.061c0.221,0.308,0.576,0.49,0.953,0.49
		l124.646,0.474l-7.171-12.157l-112.407-1.043l39.206-118.565l-2.454-0.102L64.54,300.887z"/>
	<path style="fill:#FFFFFF;" d="M178.903,193.225c0.811-0.144,1.64-0.232,2.49-0.232c0.858,0,1.694,0.088,2.51,0.235v-19.045
		l-5-0.205V193.225z"/>
	<path style="fill:#FFFFFF;" d="M99.017,165.694l164.427,6.751l19.036-57.683l-135.431-7.115c-0.241-0.012-0.469-0.068-0.687-0.144
		c-0.275,0.015-0.549,0.044-0.826,0.044c-2.891,0-5.687-0.833-8.311-2.476c-5.87-3.682-9.832-10.777-11.283-18.979L99.017,165.694z"
		/>
	<path style="fill:#FFFFFF;" d="M315.196,64.076c-1.66-1.041-3.396-1.613-5.163-1.701l-151.339-7.953
		c7.419,7.751,10.223,21.967,6.321,34.862c-1.784,5.894-4.785,10.664-8.471,13.855l151.437,7.957
		c0.182,0.01,0.359,0.015,0.534,0.015c6.223,0,11.991-5.774,14.695-14.711C327.037,83.744,323.442,69.243,315.196,64.076"/>
	<path style="fill:#FFFFFF;" d="M131.867,68.508c-3.826,12.654-0.231,27.156,8.013,32.326c1.815,1.137,3.718,1.713,5.656,1.713
		c6.221,0,11.989-5.775,14.693-14.71c3.829-12.654,0.235-27.155-8.012-32.325c-1.815-1.138-3.718-1.714-5.655-1.714
		C140.339,53.798,134.571,59.571,131.867,68.508 M146.221,66.619c1.291,0,2.529,0.366,3.681,1.09
		c4.038,2.53,5.849,8.982,4.123,14.686c-1.348,4.454-4.546,7.329-8.148,7.329c-1.29,0-2.529-0.365-3.68-1.087
		c-4.036-2.528-5.848-8.979-4.126-14.686C139.42,69.496,142.618,66.619,146.221,66.619"/>
	<path style="fill:#FFFFFF;" d="M181.393,197.993c-5.107,0-9.262,4.154-9.262,9.26s4.155,9.261,9.262,9.261
		c5.106,0,9.26-4.155,9.26-9.261S186.499,197.993,181.393,197.993"/>
</g>
</svg>
