<?xml version="1.0" encoding="iso-8859-1"?>
<!-- Generator: Adobe Illustrator 25.4.1, SVG Export Plug-In . SVG Version: 6.00 Build 0)  -->
<svg version="1.1" id="Calque_1" xmlns="http://www.w3.org/2000/svg" xmlns:xlink="http://www.w3.org/1999/xlink" x="0px" y="0px"
	 viewBox="0 0 368.5 368.5" style="enable-background:new 0 0 368.5 368.5;" xml:space="preserve">
<g>
	<path style="fill:#FFFFFF;" d="M94.816,242.368c-3.233,2.056-7.069,3.142-11.091,3.142c-5.748,0-11.086-2.215-14.644-6.078
		l-0.199-0.217c-3.101-3.365-4.498-7.576-3.938-11.857c0.581-4.445,3.299-8.512,7.457-11.156l23.613-15.016v-21.08
		c0-4.688-4.909-8.5-10.942-8.5H57.221c-6.034,0-10.942,3.812-10.942,8.5v106.338c0,4.685,4.908,8.5,10.942,8.5h27.851
		c6.033,0,10.942-3.815,10.942-8.5v-44.838L94.816,242.368z M85.62,180c1.849,0,3.243,2.414,3.243,5.615s-1.394,5.615-3.243,5.615
		c-1.849,0-3.243-2.414-3.243-5.615S83.771,180,85.62,180 M57.207,287.018c-1.85,0-3.244-2.414-3.244-5.615s1.394-5.615,3.244-5.615
		c1.849,0,3.243,2.414,3.243,5.615S59.056,287.018,57.207,287.018 M57.207,191.23c-1.85,0-3.244-2.414-3.244-5.615
		S55.357,180,57.207,180c1.849,0,3.243,2.414,3.243,5.615S59.056,191.23,57.207,191.23 M85.62,287.018
		c-1.849,0-3.243-2.414-3.243-5.615s1.394-5.615,3.243-5.615c1.849,0,3.243,2.414,3.243,5.615S87.469,287.018,85.62,287.018"/>
	<path style="fill:#FFFFFF;" d="M134.027,209.14l12.764-19.811l-5.373-8.339c-0.9,0.32-1.754,0.736-2.547,1.24l-62.713,39.879
		c-2.44,1.551-3.957,3.738-4.274,6.158c-0.286,2.189,0.474,4.393,2.141,6.203l0.199,0.215c2.209,2.398,5.759,3.826,9.501,3.826
		c2.69,0,5.226-0.709,7.335-2.051L134.027,209.14z"/>
	<path style="fill:#FFFFFF;" d="M201.225,231.126l-25.705-39.902c-0.743-1.155-0.743-2.637,0-3.791l25.705-39.903v-26.418
		c-0.014,0-0.028-0.004-0.042-0.004c-1.348,0-2.781,1.028-3.935,2.817l-29.601,45.947c-0.645,1-1.753,1.606-2.942,1.606
		c-1.19,0-2.298-0.606-2.943-1.606l-29.598-45.947c-1.153-1.789-2.586-2.817-3.933-2.817c-1.348,0-2.782,1.028-3.936,2.819
		c-3.067,4.76-3.067,12.801,0,17.558l29.601,45.948c0.743,1.154,0.743,2.636,0,3.791l-29.601,45.945
		c-3.066,4.76-3.066,12.801,0,17.56c1.154,1.791,2.588,2.817,3.935,2.817c1.348,0,2.781-1.026,3.934-2.817l29.598-45.945
		c0.645-1,1.753-1.603,2.943-1.603c1.189,0,2.297,0.603,2.942,1.603l29.601,45.945c1.154,1.791,2.587,2.819,3.934,2.819
		c0.015,0,0.028-0.004,0.043-0.004V231.126z"/>
	<path style="fill:#FFFFFF;" d="M219.675,297.204h7.284c-2.46-2.98-4.034-7.104-4.034-12.5V83.216c0-4.123,2.207-8.854,5.561-12.5
		h-8.811c-5.419,0-11.45,7.451-11.45,12.5v201.488C208.225,292.425,214.168,297.204,219.675,297.204"/>
	<path style="fill:#FFFFFF;" d="M310.771,70.716h-74.234c-4.625,2.293-8.612,8.113-8.612,12.5v201.488
		c0,7.031,3.214,10.854,7.221,12.5h75.625c5.282,0,11.45-3.273,11.45-12.5V83.216C322.221,77.155,318.208,70.716,310.771,70.716
		 M250.906,293.218h-7.971c-1.942,0-3.523-1.434-3.523-3.194c0-1.761,1.581-3.193,3.523-3.193h7.971
		c1.942,0,3.522,1.432,3.522,3.193C254.428,291.784,252.848,293.218,250.906,293.218 M313.769,273.79
		c0,9.135-6.273,9.135-8.953,9.135h-58.487h-0.021c-1.59,0-3.98-0.006-5.95-1.475c-2.982-2.223-2.982-6.316-2.982-7.66V87.13
		c0-6.725,3.268-10.135,9.713-10.135l57.727-0.002c2.68,0,8.953,0,8.953,9.137V273.79z"/>
	<path style="fill:#FFFFFF;" d="M244.398,91.466v52.496c0,4.557,4.248,8.25,9.486,8.25c5.241,0,9.489-3.693,9.489-8.25V91.466
		c0-4.557-4.248-8.25-9.489-8.25C248.646,83.216,244.398,86.909,244.398,91.466"/>
	<path style="fill:#FFFFFF;" d="M184.655,278.819h-35.599v-7.672l-17.29,13.063l17.29,13.574v-7.793h35.599
		c0.345,0,0.626-0.281,0.626-0.627v-9.92C185.281,279.098,185,278.819,184.655,278.819"/>
</g>
</svg>
