<?xml version="1.0" encoding="iso-8859-1"?>
<!-- Generator: Adobe Illustrator 25.4.1, SVG Export Plug-In . SVG Version: 6.00 Build 0)  -->
<svg version="1.1" id="Calque_1" xmlns="http://www.w3.org/2000/svg" xmlns:xlink="http://www.w3.org/1999/xlink" x="0px" y="0px"
	 viewBox="0 0 368.5 368.5" style="enable-background:new 0 0 368.5 368.5;" xml:space="preserve">
<g>
	<path style="fill:#FFFFFF;" d="M204.955,306.043c0.004-0.264-0.063-0.524-0.182-0.759c-0.077-0.157-0.182-0.303-0.308-0.432
		c-0.313-0.318-0.742-0.497-1.19-0.497l-36.596-0.072c-0.927,0-1.68,0.753-1.682,1.686c-0.012,3.164,0.703,6.191,2.115,9.002
		c3.412,6.78,10.243,10.999,17.828,11.017C195.956,326.007,204.935,317.061,204.955,306.043"/>
	<path style="fill:#FFFFFF;" d="M184.276,65.044c12.872,0,25.165-6.172,32.879-16.509c0.854-1.137,0.988-2.66,0.35-3.933
		c-0.637-1.274-1.94-2.08-3.365-2.08h-59.724c-1.427,0-2.73,0.806-3.369,2.08c-0.636,1.273-0.502,2.796,0.352,3.933
		C159.113,58.872,171.406,65.044,184.276,65.044"/>
	<path style="fill:#FFFFFF;" d="M191.045,197.445V71.779h-13.536v125.666c2.206-0.671,4.468-1.042,6.769-1.042
		C186.577,196.403,188.841,196.774,191.045,197.445"/>
	<path style="fill:#FFFFFF;" d="M99.909,296.924l168.74-0.004c1.306,0,2.489-0.788,2.991-1.999c0.5-1.211,0.223-2.604-0.702-3.528
		l-65.299-65.299h-42.724L97.62,291.393c-0.927,0.928-1.204,2.317-0.702,3.528C97.416,296.134,98.598,296.924,99.909,296.924"/>
	<path style="fill:#FFFFFF;" d="M162.055,220.294h44.446c-5.053-10.976-13.127-18.092-22.223-18.092
		C175.182,202.202,167.108,209.318,162.055,220.294"/>
</g>
</svg>
