<?xml version="1.0" encoding="iso-8859-1"?>
<!-- Generator: Adobe Illustrator 25.4.1, SVG Export Plug-In . SVG Version: 6.00 Build 0)  -->
<svg version="1.1" id="Calque_1" xmlns="http://www.w3.org/2000/svg" xmlns:xlink="http://www.w3.org/1999/xlink" x="0px" y="0px"
	 viewBox="0 0 368.5 368.5" style="enable-background:new 0 0 368.5 368.5;" xml:space="preserve">
<g>
	<path style="fill:#FFFFFF;" d="M279.056,239.454c0,0,15.572-22.027,16.328-44.437c0.758-22.406-24.307-46.718-31.143-60.772
		c-6.832-14.05-2.283-41.018-2.283-41.018H225.99c0,0,4.549,26.968-2.282,41.018c-6.835,14.054-31.907,38.366-31.145,60.772
		c0.761,22.41,16.331,44.437,16.331,44.437H279.056z"/>
	<path style="fill:#FFFFFF;" d="M173.846,241.762c0.329,0.06,0.656,0.087,0.98,0.087c2.582,0,4.875-1.842,5.352-4.472l16.169-88.964
		c0.537-2.96-1.426-5.796-4.387-6.334c-2.95-0.532-5.795,1.425-6.332,4.385l-16.169,88.964
		C168.922,238.387,170.885,241.224,173.846,241.762"/>
	<path style="fill:#FFFFFF;" d="M155.781,241.762c0.329,0.06,0.656,0.087,0.98,0.087c2.582,0,4.875-1.842,5.354-4.472l16.16-88.964
		c0.537-2.962-1.427-5.796-4.386-6.334c-2.953-0.532-5.794,1.425-6.334,4.385l-16.161,88.964
		C150.857,238.39,152.821,241.224,155.781,241.762"/>
	<path style="fill:#FFFFFF;" d="M137.716,241.762c0.329,0.06,0.656,0.087,0.98,0.087c2.582,0,4.875-1.842,5.353-4.472l16.163-88.964
		c0.537-2.96-1.427-5.796-4.386-6.334c-2.954-0.532-5.794,1.425-6.334,4.385l-16.163,88.964
		C132.792,238.387,134.756,241.224,137.716,241.762"/>
	<path style="fill:#FFFFFF;" d="M119.647,241.762c0.329,0.06,0.656,0.087,0.98,0.087c2.582,0,4.875-1.842,5.354-4.472l16.164-88.964
		c0.538-2.96-1.426-5.796-4.386-6.334c-2.95-0.532-5.795,1.425-6.333,4.385l-16.166,88.964
		C114.723,238.387,116.687,241.224,119.647,241.762"/>
	<path style="fill:#FFFFFF;" d="M101.582,241.762c0.329,0.06,0.656,0.087,0.98,0.087c2.582,0,4.875-1.842,5.352-4.472l16.169-88.964
		c0.537-2.96-1.426-5.796-4.387-6.334c-2.951-0.532-5.795,1.425-6.332,4.385l-16.169,88.964
		C96.658,238.387,98.621,241.224,101.582,241.762"/>
	<path style="fill:#FFFFFF;" d="M101.632,142.079c-2.961-0.532-5.796,1.426-6.334,4.385l-16.169,88.964
		c-0.538,2.96,1.425,5.796,4.385,6.334c0.329,0.06,0.657,0.088,0.981,0.088c2.582,0,4.874-1.843,5.352-4.473l16.169-88.964
		C106.554,145.454,104.592,142.617,101.632,142.079"/>
	<path style="fill:#FFFFFF;" d="M309.016,275.29c9.368,0,16.988-5.996,16.988-13.367c0-7.373-7.62-13.371-16.988-13.371H59.531
		c-9.368,0-16.991,5.998-16.991,13.371c0,7.371,7.623,13.367,16.991,13.367H309.016z"/>
</g>
</svg>
