<?xml version="1.0" encoding="iso-8859-1"?>
<!-- Generator: Adobe Illustrator 25.4.1, SVG Export Plug-In . SVG Version: 6.00 Build 0)  -->
<svg version="1.1" id="Calque_1" xmlns="http://www.w3.org/2000/svg" xmlns:xlink="http://www.w3.org/1999/xlink" x="0px" y="0px"
	 viewBox="0 0 368.5 368.5" style="enable-background:new 0 0 368.5 368.5;" xml:space="preserve">
<g>
	<path style="fill:#FFFFFF;" d="M280.122,239.464c0,0,15.572-22.027,16.328-44.437c0.758-22.406-24.307-46.718-31.143-60.772
		c-6.832-14.05-2.283-41.018-2.283-41.018h-35.968c0,0,4.549,26.968-2.282,41.018c-6.835,14.054-31.907,38.366-31.145,60.772
		c0.761,22.41,16.331,44.437,16.331,44.437H280.122z"/>
	<path style="fill:#FFFFFF;" d="M174.911,241.772c0.329,0.06,0.656,0.087,0.98,0.087c2.582,0,4.875-1.842,5.352-4.472l16.169-88.964
		c0.537-2.96-1.426-5.796-4.387-6.334c-2.95-0.532-5.795,1.425-6.332,4.385l-16.169,88.964
		C169.987,238.397,171.95,241.234,174.911,241.772"/>
	<path style="fill:#FFFFFF;" d="M156.846,241.772c0.329,0.06,0.656,0.087,0.98,0.087c2.582,0,4.875-1.842,5.354-4.472l16.16-88.964
		c0.537-2.962-1.427-5.796-4.386-6.334c-2.953-0.532-5.794,1.425-6.334,4.385l-16.161,88.964
		C151.922,238.4,153.886,241.234,156.846,241.772"/>
	<path style="fill:#FFFFFF;" d="M138.781,241.772c0.329,0.06,0.656,0.087,0.98,0.087c2.582,0,4.875-1.842,5.353-4.472l16.163-88.964
		c0.537-2.96-1.427-5.796-4.386-6.334c-2.954-0.532-5.794,1.425-6.334,4.385l-16.163,88.964
		C133.857,238.397,135.821,241.234,138.781,241.772"/>
	<path style="fill:#FFFFFF;" d="M120.712,241.772c0.329,0.06,0.656,0.087,0.98,0.087c2.582,0,4.875-1.842,5.354-4.472l16.164-88.964
		c0.538-2.96-1.426-5.796-4.386-6.334c-2.95-0.532-5.795,1.425-6.333,4.385l-16.166,88.964
		C115.788,238.397,117.752,241.234,120.712,241.772"/>
	<path style="fill:#FFFFFF;" d="M102.647,241.772c0.329,0.06,0.656,0.087,0.98,0.087c2.582,0,4.875-1.842,5.352-4.472l16.169-88.964
		c0.537-2.96-1.426-5.796-4.387-6.334c-2.951-0.532-5.795,1.425-6.332,4.385L98.26,235.438
		C97.723,238.397,99.686,241.234,102.647,241.772"/>
	<path style="fill:#FFFFFF;" d="M102.697,142.089c-2.961-0.532-5.796,1.426-6.334,4.385l-16.169,88.964
		c-0.538,2.96,1.425,5.796,4.385,6.334c0.329,0.06,0.657,0.088,0.981,0.088c2.582,0,4.874-1.843,5.352-4.473l16.169-88.964
		C107.62,145.464,105.657,142.627,102.697,142.089"/>
	<path style="fill:#FFFFFF;" d="M310.081,275.3c9.368,0,16.988-5.996,16.988-13.367c0-7.373-7.62-13.371-16.988-13.371H60.596
		c-9.368,0-16.991,5.998-16.991,13.371c0,7.371,7.623,13.367,16.991,13.367H310.081z"/>
</g>
</svg>
