<?xml version="1.0" encoding="iso-8859-1"?>
<!-- Generator: Adobe Illustrator 25.4.1, SVG Export Plug-In . SVG Version: 6.00 Build 0)  -->
<svg version="1.1" id="Calque_1" xmlns="http://www.w3.org/2000/svg" xmlns:xlink="http://www.w3.org/1999/xlink" x="0px" y="0px"
	 viewBox="0 0 368.5 368.5" style="enable-background:new 0 0 368.5 368.5;" xml:space="preserve">
<g>
	<path style="fill:#FFFFFF;" d="M278.072,210.137c4.088-5.374,44.112-45.515,47.91-48.994v-31.065l-66.403,66.594v3.598
		l26.525-28.511c0.61-0.656,1.65-0.705,2.322-0.109c0.671,0.594,0.721,1.61,0.111,2.266l-28.958,31.127v4.989l25.146-23.131
		c0.66-0.607,1.7-0.577,2.323,0.068c0.621,0.643,0.592,1.66-0.07,2.268l-27.399,25.204v26.342l29.994-31.437
		c0.086-0.09,35.373-35.494,35.465-35.577c0.507-0.455,0.944-0.847,0.944-2.625v-5.531c-3.249,3.122-42.117,42.291-45.272,46.437
		c-7.897,10.387-15.44,17.625-15.515,17.697c-0.649,0.619-1.69,0.608-2.324-0.025c-0.313-0.312-0.469-0.717-0.469-1.122
		c0-0.417,0.165-0.833,0.494-1.147C262.969,227.383,270.337,220.311,278.072,210.137"/>
	<path style="fill:#FFFFFF;" d="M230.928,164.585c-2.435,3.022-2.441,4.492-2.104,4.85c0.987,1.04,6.464,0.73,12.982-3.548
		c4.015-2.635,42.815-34.452,47.595-37.948h-17.583C269.65,130.333,233.576,161.297,230.928,164.585"/>
	<path style="fill:#FFFFFF;" d="M259.579,192.073l30.482-30.554c0.207-0.206,0.459-0.322,0.723-0.396l33.555-33.185h-29.476
		c-5.591,4.135-46.147,37.28-51.225,40.612c-6.012,3.946-14.092,6.362-17.223,3.067c-0.581-0.612-1.05-1.476-1.05-2.675
		c0-1.521,0.753-3.58,2.979-6.342c1.946-2.415,37.383-32.698,39.111-34.662h-11.028c0.601,0.592-32.895,29.607-33.468,30.244
		c-2.346,2.62-4.45,4.344-7.114,6.527c-2.613,2.141-5.864,4.805-10.578,9.329c-4.28,4.11-7.741,7.776-10.251,10.559h55.951
		c4.824,0.068,8.575,3.819,8.612,8.539V192.073z"/>
	<path style="fill:#FFFFFF;" d="M202.963,171.75c4.807-4.612,8.113-7.321,10.769-9.498c2.656-2.176,38.127-31.818,40.307-34.251
		c0.024-0.026,0.059-0.037,0.083-0.062h-110.27c-2.273,1.777-7.646,6.155-13.296,10.76c-8.649,7.047-17.593,14.335-19.159,15.363
		c-2.801,1.839-5.828,2.936-8.096,2.936H103.3c-1.031,0-1.785-0.243-2.24-0.721c-0.638-0.68-0.918-2.077,1.356-4.898
		c1.03-1.28,8.119-7.564,18.021-16.303c2.959-2.61,5.969-5.267,8.059-7.137h-15.143c-1.672,0.033-2.65,0.645-4.036,1.643
		L43.08,184.597h147.579C193.204,181.679,197.373,177.116,202.963,171.75"/>
	<path style="fill:#FFFFFF;" d="M152.029,216.306c-42.58-8.534-53.011-17.817-55.55-22.118H80.137
		c7.345,5.525,22.077,18.31,15.526,27.811c-5.543,8.055-33.261,12.509-53.141,14.712v4.203c0,0.016,0.003,0.031,0.003,0.046
		c0.107,0.001,0.218,0.001,0.332,0.001l26.543,0.002c4.293-2.151,11.507-4.588,23.752-6.629
		c29.434-4.909,75.161-3.649,111.704-2.003c21.331,0.959,37.271,0.506,46.505,0.005v-8.112
		C232.668,224.817,193.795,224.679,152.029,216.306"/>
	<path style="fill:#FFFFFF;" d="M203.176,234.139c-32.101-1.445-77.902-2.846-104.961,1.666c-9.43,1.572-15.518,3.433-19.462,5.158
		l172.608,0.01v-6.737C240.935,234.744,224.499,235.099,203.176,234.139"/>
	<path style="fill:#FFFFFF;" d="M87.372,221.722c6.419-9.342-9.218-22.465-16.018-27.534H42.518l0.004,40.395
		C60.338,232.407,82.776,228.401,87.372,221.722"/>
	<path style="fill:#FFFFFF;" d="M213.524,202.103c11.536,2.337,27.28,2.499,37.837,2.269v-10.184h-48.566
		C201.206,196.132,200.837,199.533,213.524,202.103"/>
	<path style="fill:#FFFFFF;" d="M207.846,203.462c-11.332-2.294-14.224-5.09-14.224-7.347c0-0.71,0.3-1.356,0.701-1.927H168.26
		c1.901,2.896,7.603,8.74,23.674,12.149c16.367,3.474,45.891,3.652,59.427,3.53v-3.635
		C239.206,206.474,221.451,206.218,207.846,203.462"/>
	<path style="fill:#FFFFFF;" d="M186.11,207.667c-18.554-3.936-24.527-10.454-26.354-13.479h-54.661
		c2.765,4.116,13.133,12.847,52.58,20.753c39.988,8.016,77.304,7.951,93.687,7.4v-10.618
		C236.45,211.861,204.77,211.628,186.11,207.667"/>
	<path style="fill:#FFFFFF;" d="M140.407,127.527h-7.8c-0.122,0.117-0.273,0.258-0.439,0.412h7.727
		C140.065,127.802,140.247,127.656,140.407,127.527"/>
	<path style="fill:#FFFFFF;" d="M104.336,152.926c-0.593,0.735-0.906,1.261-1.071,1.607h0.036c1.395,0,3.9-0.665,6.744-2.532
		c1.46-0.958,10.754-8.531,18.954-15.214c4.291-3.496,8.201-6.681,10.896-8.848h-7.727c-1.57,1.455-5.075,4.553-10.099,8.986
		C114.998,143.164,105.314,151.71,104.336,152.926"/>
</g>
</svg>
