<?xml version="1.0" encoding="iso-8859-1"?>
<!-- Generator: Adobe Illustrator 25.4.1, SVG Export Plug-In . SVG Version: 6.00 Build 0)  -->
<svg version="1.1" id="Calque_1" xmlns="http://www.w3.org/2000/svg" xmlns:xlink="http://www.w3.org/1999/xlink" x="0px" y="0px"
	 viewBox="0 0 368.5 368.5" style="enable-background:new 0 0 368.5 368.5;" xml:space="preserve">
<g>
	<path style="fill:#FFFFFF;" d="M301.02,326.612l11.726-7.186c3.483-2.383,5.399-6.432,5.399-11.408V104.725
		c0-10.82-8.843-21.993-19.714-24.906L99.967,28.504c-4.546-1.219-8.443-0.736-13.885,1.739l-9.416,4.664
		c-0.773-0.059-1.541-0.098-2.298-0.098c-6.463,0-11.967,2.094-16.071,5.789c-5.018,4.518-7.943,11.433-7.943,19.877V257.94
		c0,12.766,10.363,25.929,23.103,29.343l194.441,51.983c3.417,0.909,6.766,1.371,9.953,1.371h0.002c0.35,0,0.696-0.012,1.041-0.022
		c7.187-0.228,13.31-2.806,17.751-7.502C298.416,331.238,299.878,329.056,301.02,326.612 M277.853,336.637h-0.001
		c-2.841,0-5.843-0.416-8.922-1.235L74.491,283.419c-11.104-2.975-20.137-14.405-20.137-25.479V60.475
		c0-13.162,7.856-21.666,20.014-21.666c2.117,0,4.32,0.263,6.484,0.766l199.001,53.376c11.103,2.975,20.137,14.405,20.137,25.48
		v193.5c0,7.732-2.162,14.106-6.253,18.434C289.858,334.468,284.366,336.637,277.853,336.637"/>
	<path style="fill:#FFFFFF;" d="M266.727,100.596L84.756,51.836c-3.651-0.948-6.642-1.409-9.142-1.409
		c-11.007,0-12.419,9.244-12.419,17.297V249.68c0,11.355,9.215,23.061,20.541,26.096l181.96,48.757
		c3.644,0.968,6.641,1.44,9.161,1.44c11,0,12.411-9.259,12.411-17.325V126.691C287.268,115.335,278.053,103.63,266.727,100.596
		 M261.526,278.844c-0.41,1.537-1.802,2.598-3.38,2.598c-0.05,0-0.1-0.001-0.15-0.003l-109.646-4.654
		c-1.159-0.049-2.219-0.67-2.828-1.656c-0.611-0.986-0.692-2.211-0.219-3.269c0.08-0.18,8.077-18.333,7.608-36.342
		c-0.02-0.771-0.062-1.561-0.114-2.359c-0.352,0.116-0.714,0.197-1.088,0.197c-0.339,0-0.681-0.049-1.017-0.152l-79.074-24.019
		c-1.177-0.358-2.078-1.306-2.378-2.498c-0.299-1.193,0.051-2.454,0.919-3.325c0.191-0.192,19.239-19.445,27.433-42.696
		c8.281-23.504,8.829-62.414,8.834-62.805c0.013-1.074,0.518-2.082,1.37-2.736c0.853-0.653,1.957-0.88,2.999-0.613l71.868,18.41
		c1.571,0.402,2.661,1.833,2.631,3.456c-0.027,1.428-0.729,35.301-7.205,63.475c-0.492,2.142-1.045,4.246-1.637,6.315l9.974,0.259
		c1.391-1.528,3.078-2.738,4.994-3.486c0.282-0.112,0.57-0.202,0.858-0.291l5.813-2.388c1.494-0.601,3.034-0.9,4.603-0.9
		c5.066,0,9.485,3.149,11.81,7.793l34.558,0.897c1.06,0.027,2.049,0.533,2.692,1.376c0.365,0.478,8.972,12.042,12.005,40.346
		C266.835,258.483,261.744,278.026,261.526,278.844"/>
	<path style="fill:#FFFFFF;" d="M247.028,195.003l-30.802-0.8c0.004,0.135,0.018,0.266,0.018,0.402
		c0,6.611-3.743,12.432-9.315,14.483l-5.535,2.178c-0.365,0.181-0.736,0.35-1.119,0.497c-0.313,0.12-0.63,0.222-0.95,0.316
		l-0.39,0.153c-0.413,0.164-0.847,0.244-1.281,0.244c-0.048,0-0.096-0.016-0.144-0.018c-0.538,0.072-1.08,0.121-1.627,0.121
		c-7.472,0-13.551-6.837-13.551-15.241c0-1.376,0.173-2.717,0.484-4.002l-8.554-0.222c-4.764,13.809-11.099,25.272-15.294,32.081
		c0.515,3.49,0.857,6.921,0.941,10.142c0.365,14.026-3.803,27.705-6.343,34.664l101.795,4.32c1.228-6.193,3.724-22.461,1.439-43.8
		C254.558,209.601,249.131,198.596,247.028,195.003"/>
	<path style="fill:#FFFFFF;" d="M178.211,119.009l-64.9-16.625c-0.39,11.144-2.066,40.597-9.118,60.609
		C97.72,181.361,85.322,196.94,79,204.112l71.274,21.651c4.053-6.089,15.854-25.128,20.992-47.478
		C176.537,155.353,177.901,127.715,178.211,119.009 M145.583,144.705l-6.119,2.407c-0.396,0.198-0.8,0.383-1.217,0.543
		c-0.348,0.133-0.7,0.247-1.054,0.351l-0.425,0.167c-0.413,0.163-0.848,0.243-1.281,0.243c-0.057,0-0.112-0.019-0.17-0.022
		c-0.589,0.081-1.183,0.136-1.782,0.136c-8.037,0-14.576-7.375-14.576-16.439c0-7.005,3.933-13.247,9.787-15.534
		c0.314-0.123,0.632-0.225,0.953-0.324l6.405-2.63c1.598-0.643,3.251-0.964,4.937-0.964c8.037,0,14.576,7.375,14.576,16.44
		C155.617,136.217,151.585,142.496,145.583,144.705"/>
	<path style="fill:#FFFFFF;" d="M143.558,120.185c2.797,2.998,4.553,7.221,4.553,11.905c0,0.123-0.011,0.244-0.013,0.367
		c0.333-1.061,0.519-2.201,0.519-3.379C148.617,124.974,146.5,121.483,143.558,120.185"/>
	<path style="fill:#FFFFFF;" d="M133.535,122.65c-0.764,0-1.519,0.144-2.242,0.426c-3.141,1.227-5.334,4.933-5.334,9.015
		c0,5.205,3.398,9.439,7.576,9.439c0.752,0,1.494-0.139,2.205-0.411c3.162-1.213,5.371-4.926,5.371-9.028
		C141.111,126.885,137.713,122.65,133.535,122.65"/>
	<path style="fill:#FFFFFF;" d="M209.244,194.604c0-2.743-1.075-5.171-2.718-6.669c1.373,1.961,2.321,4.307,2.704,6.87
		C209.232,194.738,209.244,194.672,209.244,194.604"/>
	<path style="fill:#FFFFFF;" d="M195.883,205.579c0.642,0,1.276-0.118,1.885-0.352c2.747-1.054,4.666-4.298,4.666-7.889
		c0-4.544-2.939-8.241-6.551-8.241c-0.654,0-1.297,0.122-1.913,0.363c-2.732,1.067-4.638,4.306-4.638,7.878
		C189.332,201.882,192.271,205.579,195.883,205.579"/>
</g>
</svg>
