<?xml version="1.0" encoding="iso-8859-1"?>
<!-- Generator: Adobe Illustrator 25.4.1, SVG Export Plug-In . SVG Version: 6.00 Build 0)  -->
<svg version="1.1" id="Calque_1" xmlns="http://www.w3.org/2000/svg" xmlns:xlink="http://www.w3.org/1999/xlink" x="0px" y="0px"
	 viewBox="0 0 368.5 368.5" style="enable-background:new 0 0 368.5 368.5;" xml:space="preserve">
<g>
	<path style="fill:#FFFFFF;" d="M265.272,71.151H124.64c2.752,3.328,4.407,7.594,4.407,12.238v40.918h23.37
		c0.05-0.113,0.096-0.23,0.148-0.343c1.96-4.223,5.232-8.719,9.01-10.016c1.268,0.656,2.066,6.713-2.125,15.742
		c-0.711,1.533-1.521,2.998-2.381,4.363c-1.06-1.408-2.196-2.322-3.293-2.619c-0.114-0.031-0.218-0.084-0.327-0.127h-16.635
		c3.164,4.991,5.102,12.28,5.102,20.688c0,8.359-1.916,15.609-5.046,20.597h142.065c0.155-0.115,0.318-0.22,0.495-0.31
		c3.536-1.791,7.294-9.51,7.294-20.285c0-10.778-3.759-18.498-7.295-20.289c-0.219-0.112-0.417-0.25-0.603-0.401h-24.727
		c-0.86,1.758-1.867,3.41-2.948,4.801c-0.61,0.785-1.522,1.27-2.505,1.342c1.468,4.295,2.251,9.287,2.251,14.545l-0.007,0.562
		c-0.021,1.918-1.582,3.461-3.5,3.461h-18.468c-0.934,0-1.831-0.373-2.488-1.039c-0.658-0.664-1.022-1.564-1.012-2.5l0.008-0.484
		c0-5.424-0.994-10.596-2.763-14.535h-2.33c1.158-1.75,2.237-3.662,3.165-5.666c2.987-6.434,4.467-13.614,3.037-18.225l24.324-0.002
		h0.002c0.864,0,1.65,0.172,2.375,0.508c3.395,1.578,4.07,5.73,3.234,10.232h21.037V83.389
		C277.511,76.641,272.021,71.151,265.272,71.151 M144.332,98.194c-5.439,0-9.864-4.965-9.864-11.066
		c0-6.102,4.425-11.067,9.864-11.067c5.438,0,9.863,4.965,9.863,11.067C154.195,93.229,149.77,98.194,144.332,98.194
		 M218.967,129.69c-0.847,1.826-1.828,3.565-2.877,5.137c-1.206-1.85-2.547-3.043-3.835-3.393c-0.113-0.031-0.217-0.084-0.326-0.127
		h-16.308c-0.86,1.754-1.867,3.408-2.952,4.803c-0.61,0.783-1.521,1.268-2.502,1.34c1.466,4.295,2.251,9.287,2.251,14.545
		l-0.007,0.562c-0.022,1.918-1.582,3.461-3.5,3.461h-18.468c-0.935,0-1.831-0.373-2.488-1.039c-0.659-0.664-1.023-1.564-1.012-2.5
		l0.007-0.484c0-5.426-0.994-10.598-2.763-14.535h-3.006c-0.116,0-0.23-0.012-0.345-0.024c1.152-1.744,2.226-3.648,3.15-5.642
		c2.986-6.432,4.467-13.612,3.036-18.223l25.361-0.004h0.002c0.865,0,1.651,0.172,2.375,0.508c1.433,0.666,3.806,2.545,3.569,7.65
		c-0.038,0.821-0.152,1.69-0.32,2.582h12.888c0.05-0.111,0.095-0.228,0.146-0.34c0.173-0.375,0.352-0.736,0.535-1.093l0.119-0.225
		c0.003-0.006,0.048-0.09,0.051-0.096c0.128-0.244,0.258-0.484,0.391-0.722l0.202-0.35c0.145-0.246,0.272-0.461,0.402-0.67
		l0.209-0.332c0.138-0.217,0.268-0.41,0.398-0.605l0.246-0.356c0.131-0.189,0.275-0.383,0.417-0.576l0.239-0.314
		c0.155-0.204,0.326-0.414,0.5-0.623l0.164-0.198c0.466-0.547,0.947-1.052,1.42-1.492l0.163-0.146
		c0.191-0.174,0.383-0.34,0.574-0.496c0.067-0.055,0.153-0.122,0.24-0.188c0.165-0.129,0.345-0.264,0.522-0.387l0.281-0.187
		c0.233-0.149,0.416-0.26,0.596-0.358c0.093-0.052,0.193-0.107,0.291-0.158c0.184-0.092,0.368-0.178,0.551-0.254
		c0.106-0.047,0.213-0.092,0.318-0.131c0.249-0.093,0.468-0.158,0.689-0.216c0.063-0.018,0.127-0.036,0.19-0.051
		c0.102,0.066,0.204,0.135,0.317,0.187C222.35,114.526,223.183,120.606,218.967,129.69 M261.104,98.194
		c-5.438,0-9.862-4.965-9.862-11.066c0-6.102,4.424-11.067,9.862-11.067c5.439,0,9.863,4.965,9.863,11.067
		C270.967,93.229,266.543,98.194,261.104,98.194"/>
	<path style="fill:#FFFFFF;" d="M261.104,83.061c-1.552,0-2.862,1.863-2.862,4.066c0,2.205,1.31,4.067,2.862,4.067
		c1.552,0,2.863-1.862,2.863-4.067C263.967,84.924,262.656,83.061,261.104,83.061"/>
	<path style="fill:#FFFFFF;" d="M277.511,259.218H129.047v25.892c0,4.645-1.655,8.91-4.406,12.239h140.631
		c6.749,0,12.239-5.491,12.239-12.241V259.218z M144.332,293.126c-5.439,0-9.864-4.965-9.864-11.066
		c0-6.102,4.425-11.067,9.864-11.067c5.438,0,9.863,4.965,9.863,11.067C154.195,288.161,149.77,293.126,144.332,293.126
		 M261.104,293.126c-5.438,0-9.862-4.965-9.862-11.066c0-6.102,4.424-11.067,9.862-11.067c5.439,0,9.863,4.965,9.863,11.067
		C270.967,288.161,266.543,293.126,261.104,293.126"/>
	<path style="fill:#FFFFFF;" d="M144.332,83.061c-1.552,0-2.863,1.863-2.863,4.066c0,2.205,1.311,4.067,2.863,4.067
		c1.552,0,2.863-1.862,2.863-4.067C147.195,84.924,145.884,83.061,144.332,83.061"/>
	<path style="fill:#FFFFFF;" d="M279.429,211.474c-0.289-0.147-0.551-0.332-0.783-0.545h-24.683
		c-0.83,1.652-1.787,3.205-2.812,4.523c-0.61,0.785-1.521,1.27-2.504,1.342c1.467,4.295,2.25,9.287,2.25,14.545l-0.006,0.564
		c-0.022,1.918-1.582,3.461-3.5,3.461h-18.468c-0.935,0-1.831-0.375-2.488-1.039c-0.659-0.666-1.022-1.566-1.012-2.5l0.008-0.486
		c0-5.424-0.995-10.596-2.764-14.535h-2.549c1.243-1.838,2.396-3.877,3.385-6.01c2.911-6.269,4.403-13.26,3.151-17.879l24.209-0.004
		h0.002c0.865,0,1.651,0.172,2.375,0.508c3.466,1.609,4.101,5.902,3.185,10.51h21.087v-24.336H129.048v24.336h23.251
		c0.09-0.205,0.174-0.418,0.267-0.621c1.426-3.074,3.536-6.274,6.023-8.299c0.022-0.018,0.044-0.037,0.067-0.057
		c0.21-0.168,0.424-0.324,0.64-0.474c0.046-0.034,0.091-0.069,0.138-0.1c0.194-0.133,0.392-0.252,0.591-0.367
		c0.07-0.041,0.139-0.088,0.209-0.127c0.18-0.1,0.363-0.184,0.545-0.27c0.092-0.043,0.183-0.091,0.276-0.13
		c0.166-0.071,0.334-0.127,0.503-0.186c0.096-0.033,0.193-0.076,0.292-0.105c1.084,1.345,1.478,7.144-2.4,15.498
		c-0.745,1.607-1.596,3.136-2.503,4.554c-0.89-1.146-1.83-1.939-2.754-2.316h-17.468c3.216,4.994,5.191,12.344,5.191,20.832
		c0,8.281-1.88,15.474-4.958,20.457h142.187c0.093-0.059,0.185-0.119,0.286-0.17c3.536-1.791,7.294-9.51,7.294-20.287
		C286.725,220.985,282.966,213.267,279.429,211.474 M192.418,231.339l-0.007,0.564c-0.021,1.918-1.582,3.461-3.5,3.461h-18.468
		c-0.934,0-1.831-0.375-2.488-1.039c-0.658-0.666-1.021-1.566-1.012-2.5l0.007-0.486c0-5.426-0.994-10.598-2.762-14.535h-3.006
		h-0.001c-0.083,0-0.166-0.002-0.25-0.008c-0.021-0.002-0.04-0.01-0.061-0.012c-0.08-0.007-0.159-0.015-0.237-0.027
		c1.231-1.826,2.374-3.85,3.353-5.963c2.911-6.269,4.403-13.26,3.153-17.879l25.245-0.004h0.002c0.864,0,1.65,0.172,2.375,0.508
		c1.432,0.666,3.805,2.545,3.568,7.65c-0.042,0.907-0.173,1.868-0.373,2.86h12.821c0.09-0.205,0.174-0.416,0.267-0.617
		c2.148-4.633,5.874-9.604,10.114-10.313c1.228,0.836,1.924,6.826-2.19,15.692c-0.879,1.894-1.898,3.699-2.991,5.316
		c-1.046-1.557-2.186-2.621-3.303-3.078h-17.191c-0.828,1.648-1.785,3.203-2.813,4.525c-0.61,0.783-1.522,1.268-2.503,1.34
		C191.634,221.089,192.418,226.081,192.418,231.339"/>
	<path style="fill:#FFFFFF;" d="M261.104,277.993c-1.552,0-2.862,1.863-2.862,4.066c0,2.205,1.31,4.067,2.862,4.067
		c1.552,0,2.863-1.862,2.863-4.067C263.967,279.856,262.656,277.993,261.104,277.993"/>
	<path style="fill:#FFFFFF;" d="M144.332,277.993c-1.552,0-2.863,1.863-2.863,4.066c0,2.205,1.311,4.067,2.863,4.067
		c1.552,0,2.863-1.862,2.863-4.067C147.195,279.856,145.884,277.993,144.332,277.993"/>
	<path style="fill:#FFFFFF;" d="M99.394,297.349h10.415c6.749,0,12.239-5.49,12.239-12.238v-29.207c0-0.012,0.004-0.026,0.004-0.039
		c-0.002-0.049-0.014-0.096-0.014-0.147c0-1.931,1.567-3.5,3.5-3.5h1.626c3.526-1.277,7.752-8.812,7.752-20.457
		c-0.001-13.117-5.395-21.008-9.049-20.656c-0.987,0.086-1.953-0.238-2.678-0.9c-0.068-0.063-0.12-0.139-0.183-0.206
		c-0.695-0.64-1.139-1.55-1.139-2.57c0-0.371,0.073-0.724,0.181-1.06v-30.231c0-0.982,0.414-1.922,1.141-2.584
		c0.433-0.394,0.954-0.654,1.511-0.795c0.321-0.097,0.656-0.166,1.009-0.166h0.993c3.605-0.75,8.214-8.439,8.214-20.597
		c0-12.807-5.117-20.672-8.786-20.672c-0.089,0-0.176,0.007-0.263,0.015c-0.987,0.088-1.953-0.238-2.678-0.9
		c-0.386-0.352-0.675-0.783-0.87-1.256c-0.031-0.074-0.049-0.156-0.075-0.234c-0.043-0.131-0.094-0.258-0.122-0.393
		c-0.053-0.24-0.084-0.49-0.084-0.748c0-0.035,0.009-0.07,0.01-0.105V83.39c0-6.748-5.49-12.236-12.239-12.236H81.775v226.195
		H99.394z"/>
</g>
</svg>
