<?xml version="1.0" encoding="iso-8859-1"?>
<!-- Generator: Adobe Illustrator 25.4.1, SVG Export Plug-In . SVG Version: 6.00 Build 0)  -->
<svg version="1.1" id="Calque_1" xmlns="http://www.w3.org/2000/svg" xmlns:xlink="http://www.w3.org/1999/xlink" x="0px" y="0px"
	 viewBox="0 0 368.5 368.5" style="enable-background:new 0 0 368.5 368.5;" xml:space="preserve">
<g>
	<path style="fill:#FFFFFF;" d="M196.6,155.134c-4.039,0.204-8.16,0.311-12.35,0.311c-5.586,0-11.045-0.19-16.353-0.55
		l-4.016,149.719c-0.211,7.911,6.053,14.519,13.961,14.73c8,0.196,14.516-5.999,14.729-13.96L196.6,155.134z"/>
	<path style="fill:#FFFFFF;" d="M232.221,150.343l12.977,97.629c0.943,7.103,7.048,12.461,14.201,12.461
		c0.634,0,1.279-0.043,1.914-0.128c3.801-0.504,7.176-2.458,9.504-5.502c2.33-3.044,3.334-6.813,2.828-10.611l-13.75-103.448
		C252.225,144.628,242.854,147.888,232.221,150.343"/>
	<path style="fill:#FFFFFF;" d="M135.713,150.212c-10.701-2.511-20.1-5.839-27.754-9.8L96.1,242.775
		c-0.442,3.807,0.627,7.558,3.008,10.563c2.38,3.005,5.789,4.902,9.595,5.343c0.557,0.064,1.119,0.096,1.674,0.096
		c7.274,0,13.393-5.46,14.231-12.701L135.713,150.212z"/>
	<path style="fill:#FFFFFF;" d="M184.25,117.493c54.457,0,91.039-17.668,91.039-34.17c0-16.503-36.582-34.172-91.039-34.172
		S93.211,66.82,93.211,83.323C93.211,99.825,129.793,117.493,184.25,117.493"/>
	<path style="fill:#FFFFFF;" d="M184.25,124.493c-41.793,0-76.701-10.45-91.039-25.605v15.386c0,16.502,36.582,34.17,91.039,34.17
		s91.039-17.668,91.039-34.17V98.888C260.949,114.043,226.041,124.493,184.25,124.493"/>
</g>
</svg>
