<?xml version="1.0" encoding="iso-8859-1"?>
<!-- Generator: Adobe Illustrator 25.4.1, SVG Export Plug-In . SVG Version: 6.00 Build 0)  -->
<svg version="1.1" id="Calque_1" xmlns="http://www.w3.org/2000/svg" xmlns:xlink="http://www.w3.org/1999/xlink" x="0px" y="0px"
	 viewBox="0 0 368.5 368.5" style="enable-background:new 0 0 368.5 368.5;" xml:space="preserve">
<g>
	<path style="fill:#FFFFFF;" d="M147.758,100.708c-2.981,2.268-5.82,4.606-8.442,6.997c-2.072,1.899-3.995,3.538-5.787,4.991
		c1.632,0.917,3.309,2.185,4.936,3.976c4.635,5.109,4.123,9.507,3.682,13.314c-0.002,0.032-0.002,0.078-0.004,0.114
		c2.667-1.404,7.741-4.761,10.765-7.527c1.825-1.669,3.787-3.291,5.814-4.883l-0.204-0.315L147.758,100.708z"/>
	<path style="fill:#FFFFFF;" d="M306.549,77.747l-96.279-0.003c-0.368,0.003-0.737,0.039-1.106,0.057
		c-22.002,0.709-41.488,8.919-56.964,19.643l10.938,16.947c11.765-8.251,26.2-14.639,41.764-16.133l2.346-0.004h63.859h55.956
		C327.063,86.929,317.877,77.747,306.549,77.747"/>
	<path style="fill:#FFFFFF;" d="M159.194,205.928l-1.67-1.673c-10.196-12.367-15.917-27.531-18.305-42.01l-19.719,4.252
		c3.25,18.885,11.272,38.967,26.693,55.36c0.211,0.232,0.409,0.485,0.638,0.709l68.077,68.078c4.006,4.005,9.255,6.008,14.503,6.008
		c5.252,0,10.501-2.003,14.506-6.008l-39.571-39.562L159.194,205.928z"/>
	<path style="fill:#FFFFFF;" d="M154.813,177.66c-2.346,0.951-3.476,3.631-2.522,5.976c0.726,1.782,2.44,2.859,4.25,2.859
		c0.576,0,1.159-0.108,1.726-0.337c13.904-5.653,24.775-16.383,30.607-30.213c5.835-13.827,5.937-29.101,0.283-43.002
		c-0.956-2.345-3.626-3.477-5.975-2.522c-2.347,0.953-3.474,3.631-2.52,5.974c4.729,11.634,4.645,24.414-0.237,35.986
		C175.542,163.953,166.448,172.933,154.813,177.66"/>
	<path style="fill:#FFFFFF;" d="M116.093,135.366l0.006-0.027l0.009,0.011c0.797,6.018,1.59,12.718,1.732,15.86
		c0.148,3.201,0.451,6.492,0.871,9.827l19.348-4.17l0.428-0.093c-0.244-2.184-0.431-4.348-0.519-6.47
		c-0.21-4.597-1.567-18.517-1.295-20.873c0.405-3.497,0.672-5.804-2.286-9.06c-3.154-3.476-6.442-4.3-8.846-4.3
		c-2.127,0-3.555,0.647-3.593,0.659l-1.259,0.579v-0.005l-6.145-6.145l-0.017-0.05L79.137,75.72
		c-0.018,0.021-0.037,0.043-0.056,0.064c-1.465-1.259-3.097-2.214-4.825-2.859c-5.695-2.13-12.361-0.924-16.944,3.658l11.703,11.703
		L116.093,135.366z M121.888,123.215c1.017-1.01,2.361-1.573,3.797-1.573c1.433,0,2.784,0.561,3.797,1.577
		c1.018,1.014,1.579,2.364,1.578,3.799c-0.004,1.435-0.56,2.786-1.574,3.799c-1.02,1.016-2.364,1.57-3.799,1.573h-0.008
		c-1.434,0-2.776-0.557-3.789-1.573l1.423-1.422l-1.425,1.419C119.791,128.722,119.79,125.311,121.888,123.215"/>
	<path style="fill:#FFFFFF;" d="M104.941,131.969l-1.95-1.954l-13.973-14.08H60.259H43.598c0,6.535,3.925,12.149,9.538,14.639
		c1.682,0.745,3.514,1.2,5.439,1.325c0,0.018-0.004,0.032-0.004,0.05l23.075,0.004c-0.005,0.016-0.007,0.025-0.01,0.039
		L104.941,131.969z"/>
</g>
</svg>
