<?xml version="1.0" encoding="iso-8859-1"?>
<!-- Generator: Adobe Illustrator 25.4.1, SVG Export Plug-In . SVG Version: 6.00 Build 0)  -->
<svg version="1.1" id="Calque_1" xmlns="http://www.w3.org/2000/svg" xmlns:xlink="http://www.w3.org/1999/xlink" x="0px" y="0px"
	 viewBox="0 0 368.5 368.5" style="enable-background:new 0 0 368.5 368.5;" xml:space="preserve">
<g>
	<path style="fill:#FFFFFF;" d="M289.22,103.668c0.11,2.677,2.261,4.744,4.901,4.744l0.209-0.006
		c1.231-0.053,2.393-0.562,3.263-1.432c0.984-0.982,1.491-2.287,1.432-3.672l-0.733-13.605l-9.323,9.323L289.22,103.668z"/>
	<path style="fill:#FFFFFF;" d="M296.425,55.018c-0.11-2.677-2.257-4.742-4.893-4.742l-0.211,0.006
		c-2.707,0.114-4.815,2.404-4.701,5.108l0.642,11.941l9.324-9.323L296.425,55.018z"/>
	<path style="fill:#FFFFFF;" d="M260.602,132.287c0.11,2.677,2.261,4.744,4.897,4.744l0.209-0.006
		c1.233-0.051,2.395-0.562,3.271-1.436c0.978-0.978,1.487-2.283,1.43-3.674l-0.733-13.601l-9.325,9.323L260.602,132.287z"/>
	<path style="fill:#FFFFFF;" d="M267.809,83.634c-0.11-2.675-2.255-4.74-4.889-4.74l-0.216,0.006
		c-2.706,0.112-4.814,2.404-4.702,5.11l0.642,11.938l9.326-9.326L267.809,83.634z"/>
	<path style="fill:#FFFFFF;" d="M231.984,160.903c0.11,2.677,2.257,4.742,4.891,4.742l0.215-0.006
		c1.237-0.051,2.397-0.558,3.265-1.428c0.986-0.986,1.495-2.289,1.436-3.676l-0.733-13.605l-9.323,9.325L231.984,160.903z"/>
	<path style="fill:#FFFFFF;" d="M239.193,112.253c-0.112-2.677-2.263-4.742-4.901-4.742l-0.207,0.004
		c-1.309,0.055-2.52,0.615-3.408,1.581s-1.348,2.219-1.291,3.529l0.642,11.94l9.326-9.326L239.193,112.253z"/>
	<path style="fill:#FFFFFF;" d="M203.368,189.517c0.11,2.678,2.259,4.746,4.899,4.746l0.209-0.006
		c1.235-0.051,2.393-0.559,3.261-1.43c0.988-0.986,1.495-2.289,1.436-3.675l-0.731-13.604l-9.325,9.323L203.368,189.517z"/>
	<path style="fill:#FFFFFF;" d="M210.575,140.867c-0.11-2.673-2.259-4.738-4.895-4.738l-0.212,0.006
		c-2.706,0.111-4.814,2.402-4.7,5.106l0.642,11.941l9.326-9.325L210.575,140.867z"/>
	<path style="fill:#FFFFFF;" d="M181.956,169.486c-0.11-2.675-2.259-4.742-4.893-4.742l-0.212,0.006
		c-2.706,0.114-4.816,2.406-4.702,5.11l0.642,11.941l9.326-9.325L181.956,169.486z"/>
	<path style="fill:#FFFFFF;" d="M174.747,218.139c0.112,2.675,2.263,4.742,4.899,4.742l0.211-0.006
		c1.235-0.051,2.395-0.56,3.269-1.432c0.98-0.982,1.489-2.287,1.43-3.672l-0.733-13.607l-9.327,9.327L174.747,218.139z"/>
	<path style="fill:#FFFFFF;" d="M159.303,203.8c2.179,3.441,3.894,7.227,5.067,11.306L324.313,55.165
		c2.256-2.257,2.256-5.931-0.002-8.192c-1.091-1.09-2.545-1.691-4.091-1.691c-1.546,0-2.998,0.601-4.09,1.695L159.303,203.8z"/>
	<path style="fill:#FFFFFF;" d="M103.056,255.285c2.14,0,4.152-0.833,5.665-2.345l17.645-17.648
		c1.513-1.514,2.347-3.525,2.347-5.664c0-2.14-0.834-4.151-2.347-5.663c-1.513-1.515-3.523-2.348-5.663-2.348
		c-2.142,0-4.154,0.833-5.667,2.346L97.389,241.61c-3.123,3.123-3.123,8.206,0,11.33
		C98.902,254.452,100.914,255.285,103.056,255.285"/>
	<path style="fill:#FFFFFF;" d="M46.607,282.215l14.524,32.216c2.567,5.616,7.215,8.845,12.748,8.845
		c5.32,0,10.987-2.855,16.387-8.258l48.331-48.328c-0.028-0.596-0.028-1.197,0.031-1.801c0,0,0.723-7.436,2.172-21.415
		c0.65-6.163,1.155-12.574,0.458-17.737c-0.701-5.017-2.138-8.283-4.957-11.26c-5.601-5.833-17.522-17.872-27.19-27.603
		c-0.149,0.141-0.298,0.269-0.447,0.418l-58.275,58.277C41.375,254.584,40.139,266.57,46.607,282.215 M94.552,238.773l17.647-17.647
		c2.271-2.271,5.29-3.521,8.504-3.521c3.212,0,6.231,1.252,8.5,3.523c2.271,2.271,3.523,5.289,3.523,8.5
		c0,3.212-1.252,6.231-3.523,8.502l-17.645,17.647c-2.271,2.272-5.291,3.522-8.502,3.522c-3.214,0-6.233-1.25-8.504-3.522
		C89.865,251.09,89.865,243.462,94.552,238.773 M59.042,255.515l5.369-5.369c2.575-2.575,5.733-3.994,8.898-3.994
		c4.571,0,8.579,2.942,10.718,7.868l10.227,25.036c3.668,9.631,2.414,17.867-3.604,23.886l-2.412,2.412
		c-4.491,4.492-8.655,5.434-11.355,5.434c-4.528,0-8.435-2.632-10.452-7.042L56.169,278.67
		C52.241,269.145,53.205,261.35,59.042,255.515"/>
	<path style="fill:#FFFFFF;" d="M140.656,210.323c3.725,3.933,5.684,8.293,6.564,14.592c0.786,5.81,0.255,12.653-0.433,19.184
		c-1.421,13.702-2.151,21.197-2.167,21.366c-0.167,1.705,0.341,3.366,1.426,4.685c1.088,1.321,2.622,2.14,4.325,2.304
		c1.877,0.188,3.702-0.46,5.056-1.759c1.099-1.057,1.785-2.473,1.932-3.992l0.045-0.46c0.178-1.809,0.885-8.971,2.116-20.835
		c0.784-7.725,1.354-14.728,0.396-22.143c-0.759-6.011-3.11-14.662-10.023-21.801c-8.973-9.343-32.833-33.295-39.932-40.414
		c-0.285-0.286-0.433-0.437-0.435-0.441c-1.137-1.133-2.748-1.801-4.46-1.801c-1.707,0-3.314,0.664-4.521,1.869
		c-2.496,2.493-2.498,6.555-0.006,9.057l0.365,0.365C108.023,177.237,131.93,201.235,140.656,210.323"/>
</g>
</svg>
