<?xml version="1.0" encoding="iso-8859-1"?>
<!-- Generator: Adobe Illustrator 25.4.1, SVG Export Plug-In . SVG Version: 6.00 Build 0)  -->
<svg version="1.1" id="Calque_1" xmlns="http://www.w3.org/2000/svg" xmlns:xlink="http://www.w3.org/1999/xlink" x="0px" y="0px"
	 viewBox="0 0 368.5 368.5" style="enable-background:new 0 0 368.5 368.5;" xml:space="preserve">
<g>
	<path style="fill:#FFFFFF;" d="M34.61,169.399c1.823,0,3.299,1.717,3.299,3.84v21.191c0,2.121-1.476,3.842-3.299,3.842
		c-1.826,0-3.304-1.721-3.304-3.842v-8.567c-1.389,1.065-3.297,2.512-5.469,4.109c-1.295,0.915-2.893,3.448-2.846,6.168
		c0.016,1.769,0.535,3.782,2.381,6.123c1.848,2.329,5.08,4.892,10.307,7.22c19.508,8.701,147.179,69.029,156.72,74.002
		c4.415,2.308,11.124,4.326,18.458,4.321c7.175,0,14.929-1.901,21.994-7.142c11.42-8.48,63.008-46.142,91.086-66.98
		c9.336-6.926,16.146-12.063,17.771-13.441c2.641-2.247,3.799-5.049,3.801-7.625c-0.027-3.043-1.563-6.223-5.768-8.32v7.937
		c0,2.123-1.478,3.842-3.303,3.842c-1.824,0-3.3-1.719-3.3-3.842v-21.192c0-2.12,1.476-3.84,3.3-3.84
		c0.831,0,1.579,0.368,2.159,0.955c-0.705-3.877-3.664-6.782-7.203-6.785c-0.889,0-1.741,0.184-2.53,0.522
		c-0.488-1.152-1.201-2.144-2.06-2.931l-0.043-0.378l-0.305,0.081c-1.189-0.962-2.625-1.541-4.183-1.542
		c-0.891,0-1.743,0.186-2.532,0.524c-1.201-2.823-3.701-4.768-6.595-4.77c-0.889,0-1.741,0.186-2.53,0.524
		c-1.201-2.826-3.699-4.766-6.592-4.768c-0.888-0.002-1.742,0.184-2.529,0.522c-1.203-2.827-3.705-4.768-6.597-4.77
		c-0.887,0-1.741,0.184-2.528,0.522c-1.203-2.827-3.703-4.766-6.596-4.77c-0.888,0-1.738,0.188-2.527,0.524
		c-1.201-2.829-3.701-4.768-6.596-4.77c-0.888,0-1.742,0.187-2.529,0.525c-1.203-2.828-3.701-4.769-6.594-4.773
		c-0.888,0-1.742,0.187-2.531,0.525c-1.203-2.826-3.701-4.767-6.594-4.769c-0.888-0.002-1.742,0.185-2.531,0.523
		c-1.203-2.826-3.701-4.767-6.596-4.769c-0.886,0-1.74,0.183-2.529,0.523c-1.201-2.828-3.699-4.766-6.592-4.769
		c-0.89-0.002-1.744,0.185-2.533,0.525c-1.201-2.828-3.699-4.768-6.594-4.77c-0.886-0.001-1.738,0.184-2.529,0.522
		c-1.201-2.826-3.699-4.768-6.592-4.772c-0.89,0-1.742,0.186-2.531,0.526c-1.201-2.828-3.701-4.768-6.594-4.77
		c-0.888-0.002-1.74,0.184-2.529,0.522c-1.201-2.828-3.703-4.768-6.596-4.77c-0.888,0-1.74,0.184-2.529,0.524
		c-1.201-2.823-3.699-4.764-6.594-4.768c-0.888,0-1.742,0.186-2.531,0.524c-1.199-2.827-3.697-4.768-6.592-4.772
		c-0.89,0-1.744,0.186-2.533,0.525c-1.199-2.826-3.697-4.767-6.592-4.771c-0.888,0-1.742,0.186-2.533,0.523
		c-1.199-2.826-3.697-4.767-6.594-4.769c-0.642,0-1.267,0.1-1.861,0.282l-0.391-0.176l-0.728-0.481
		c-1.313-2.326-3.569-3.865-6.143-3.869c-3.508,0-6.439,2.851-7.179,6.675c-0.62-0.201-1.272-0.306-1.944-0.306
		c-3.51,0-6.441,2.851-7.181,6.672c-0.62-0.197-1.272-0.305-1.942-0.305c-3.305,0-6.098,2.533-7.029,6.019
		c-0.129,0.071-0.248,0.146-0.381,0.214l-0.32,0.315c-0.453-0.103-0.918-0.175-1.395-0.175c-3.51,0-6.441,2.852-7.182,6.672
		c-0.619-0.199-1.273-0.307-1.943-0.305c-3.51,0-6.441,2.856-7.183,6.676c-0.618-0.199-1.272-0.305-1.942-0.303
		c-3.508,0-6.441,2.848-7.18,6.67c-0.621-0.199-1.273-0.306-1.945-0.304c-3.504,0-6.437,2.851-7.18,6.675
		c-0.619-0.199-1.271-0.306-1.943-0.306c-3.508,0-6.441,2.851-7.18,6.674c-0.621-0.198-1.273-0.305-1.943-0.305
		c-3.51,0-6.443,2.855-7.182,6.676c-0.619-0.2-1.271-0.305-1.945-0.305c-3.504,0-6.437,2.854-7.18,6.672
		c-0.619-0.197-1.269-0.303-1.941-0.303c-3.51,0.002-6.443,2.856-7.182,6.676c-0.619-0.199-1.271-0.305-1.945-0.305
		c-3.506,0-6.439,2.852-7.18,6.672c-0.617-0.197-1.269-0.305-1.943-0.305c-3.508,0-6.441,2.852-7.182,6.676
		c-0.619-0.199-1.271-0.306-1.943-0.306c-3.656,0-6.684,3.108-7.254,7.178C32.771,169.896,33.638,169.399,34.61,169.399
		 M47.341,198.821c0,2.121-1.477,3.841-3.299,3.841c-1.826,0-3.303-1.72-3.303-3.841v-21.192c0-2.122,1.477-3.844,3.303-3.844
		c1.822,0,3.299,1.722,3.299,3.844V198.821z M48.983,170.537v-6.925c0-2.123,1.477-3.844,3.301-3.844
		c1.823,0,3.303,1.721,3.303,3.844v6.925c0,2.122-1.48,3.84-3.303,3.84C50.46,174.377,48.983,172.659,48.983,170.537
		 M56.774,203.211c0,2.117-1.478,3.84-3.3,3.84c-1.825,0-3.301-1.723-3.301-3.84v-21.193c0-2.123,1.476-3.842,3.301-3.842
		c1.822,0,3.3,1.719,3.3,3.842V203.211z M66.208,207.6c0,2.119-1.478,3.84-3.303,3.84c-1.824,0-3.3-1.721-3.3-3.84v-21.193
		c0-2.121,1.476-3.842,3.3-3.842c1.825,0,3.303,1.721,3.303,3.842V207.6z M67.032,172.711c0,2.119-1.48,3.84-3.302,3.84
		c-1.823,0-3.301-1.721-3.301-3.84v-6.926c0-2.123,1.478-3.843,3.301-3.843c1.822,0,3.302,1.72,3.302,3.843V172.711z
		 M75.638,211.991c0,2.117-1.479,3.839-3.301,3.839c-1.824,0-3.301-1.722-3.301-3.839v-21.194c0-2.12,1.477-3.842,3.301-3.842
		c1.822,0,3.301,1.722,3.301,3.842V211.991z M73.741,175.973v-6.928c0-2.121,1.479-3.842,3.301-3.842
		c1.822,0,3.303,1.721,3.303,3.842v6.928c0,2.119-1.481,3.84-3.303,3.84C75.22,179.813,73.741,178.092,73.741,175.973
		 M141.243,99.477c0-2.123,1.477-3.844,3.301-3.844c1.82,0,3.303,1.721,3.303,3.844v6.926c0,2.121-1.483,3.84-3.303,3.84
		c-1.824,0-3.301-1.719-3.301-3.84V99.477z M97.8,129.912c0-2.119,1.476-3.837,3.301-3.837c1.82,0,3.302,1.718,3.302,3.837v6.93
		c0,2.119-1.482,3.84-3.302,3.84c-1.825,0-3.301-1.721-3.301-3.84V129.912z M87.989,135.893c0-2.121,1.479-3.842,3.301-3.842
		s3.303,1.721,3.303,3.842v6.924c0,2.121-1.481,3.843-3.303,3.843s-3.301-1.722-3.301-3.843V135.893z M108.077,143.229
		c0-2.121,1.477-3.842,3.299-3.842c1.822,0,3.305,1.721,3.305,3.842v6.928c0,2.117-1.483,3.837-3.305,3.837
		c-1.822,0-3.299-1.72-3.299-3.837V143.229z M85.071,216.377c0,2.121-1.478,3.842-3.3,3.842c-1.825,0-3.303-1.721-3.303-3.842
		v-21.193c0-2.12,1.478-3.838,3.303-3.838c1.822,0,3.3,1.718,3.3,3.838V216.377z M85.251,156.678c0,2.119-1.482,3.84-3.305,3.84
		c-1.822,0-3.298-1.721-3.298-3.84v-6.928c0-2.121,1.476-3.84,3.298-3.84c1.823,0,3.305,1.719,3.305,3.84V156.678z M86.587,182.493
		v-6.928c0-2.119,1.478-3.84,3.301-3.84c1.822,0,3.302,1.721,3.302,3.84v6.928c0,2.121-1.48,3.841-3.302,3.841
		C88.065,186.334,86.587,184.614,86.587,182.493 M94.503,220.768c0,2.121-1.479,3.84-3.299,3.84c-1.826,0-3.305-1.719-3.305-3.84
		v-21.193c0-2.123,1.479-3.838,3.305-3.838c1.82,0,3.299,1.715,3.299,3.838V220.768z M95.993,162.657
		c0,2.119-1.48,3.839-3.303,3.839c-1.822,0-3.3-1.72-3.3-3.839v-6.928c0-2.119,1.478-3.84,3.3-3.84c1.823,0,3.303,1.721,3.303,3.84
		V162.657z M103.937,225.157c0,2.123-1.481,3.841-3.303,3.841c-1.824,0-3.301-1.718-3.301-3.841v-21.192
		c0-2.12,1.477-3.842,3.301-3.842c1.822,0,3.303,1.722,3.303,3.842V225.157z M103.669,172.473c-1.822,0-3.301-1.719-3.301-3.838
		v-6.928c0-2.121,1.479-3.841,3.301-3.841c1.822,0,3.303,1.72,3.303,3.841v6.928C106.972,170.754,105.491,172.473,103.669,172.473
		 M113.366,229.549c0,2.119-1.476,3.84-3.3,3.84c-1.825,0-3.301-1.721-3.301-3.84v-21.195c0-2.121,1.476-3.84,3.301-3.84
		c1.824,0,3.3,1.719,3.3,3.84V229.549z M110.88,181.678v-6.928c0-2.121,1.477-3.841,3.299-3.841c1.822,0,3.304,1.72,3.304,3.841
		v6.928c0,2.119-1.482,3.838-3.304,3.838C112.357,185.516,110.88,183.797,110.88,181.678 M122.798,233.936
		c0,2.123-1.475,3.842-3.299,3.842c-1.824,0-3.303-1.719-3.303-3.842v-21.192c0-2.122,1.479-3.839,3.303-3.839
		c1.824,0,3.299,1.717,3.299,3.839V233.936z M123.024,128.959v-6.927c0-2.122,1.479-3.843,3.301-3.843
		c1.823,0,3.303,1.721,3.303,3.843v6.927c0,2.119-1.48,3.838-3.303,3.838C124.503,132.797,123.024,131.078,123.024,128.959
		 M132.233,238.325c0,2.121-1.48,3.841-3.304,3.841c-1.822,0-3.299-1.72-3.299-3.841v-21.189c0-2.123,1.477-3.841,3.299-3.841
		c1.824,0,3.304,1.718,3.304,3.841V238.325z M131.665,112.112v-6.928c0-2.119,1.479-3.84,3.301-3.84s3.303,1.721,3.303,3.84v6.928
		c0,2.121-1.481,3.84-3.303,3.84S131.665,114.233,131.665,112.112 M141.663,242.715c0,2.121-1.476,3.842-3.299,3.842
		c-1.826,0-3.302-1.721-3.302-3.842v-21.193c0-2.12,1.476-3.84,3.302-3.84c1.823,0,3.299,1.72,3.299,3.84V242.715z M142.708,204.506
		c0,2.121-1.48,3.84-3.303,3.84c-1.822,0-3.3-1.719-3.3-3.84v-6.928c0-2.121,1.478-3.839,3.3-3.839c1.823,0,3.303,1.718,3.303,3.839
		V204.506z M142.941,161.84c0,2.119-1.481,3.84-3.303,3.84c-1.822,0-3.301-1.721-3.301-3.84v-6.928c0-2.121,1.479-3.839,3.301-3.839
		c1.822,0,3.303,1.718,3.303,3.839V161.84z M151.097,247.104c0,2.123-1.479,3.842-3.303,3.842c-1.822,0-3.301-1.719-3.301-3.842
		v-21.189c0-2.123,1.479-3.842,3.301-3.842c1.824,0,3.303,1.719,3.303,3.842V247.104z M151.083,142.582
		c-1.822,0-3.299-1.718-3.299-3.838v-6.929c0-2.119,1.477-3.84,3.299-3.84c1.822,0,3.305,1.721,3.305,3.84v6.929
		C154.388,140.864,152.905,142.582,151.083,142.582 M280.823,164.477c0-2.121,1.477-3.84,3.299-3.84c1.822,0,3.305,1.719,3.305,3.84
		v6.928c0,2.119-1.483,3.839-3.305,3.839c-1.822,0-3.299-1.72-3.299-3.839V164.477z M292.864,160.127c0-2.121,1.477-3.84,3.299-3.84
		s3.305,1.719,3.305,3.84v6.928c0,2.119-1.483,3.84-3.305,3.84s-3.299-1.721-3.299-3.84V160.127z M159.694,91.325
		c0-2.122,1.479-3.84,3.301-3.84c1.822,0,3.303,1.718,3.303,3.84v6.929c0,2.117-1.481,3.838-3.303,3.838
		c-1.822,0-3.301-1.721-3.301-3.838V91.325z M162.03,113.065c0-2.121,1.479-3.84,3.301-3.84c1.822,0,3.303,1.719,3.303,3.84v6.928
		c0,2.121-1.481,3.839-3.303,3.839c-1.822,0-3.301-1.718-3.301-3.839V113.065z M173.476,104.914c0-2.121,1.476-3.841,3.3-3.841
		c1.821,0,3.303,1.72,3.303,3.841v6.926c0,2.121-1.482,3.84-3.303,3.84c-1.824,0-3.3-1.719-3.3-3.84V104.914z M151.052,116.731
		v-6.928c0-2.121,1.478-3.842,3.301-3.842c1.822,0,3.302,1.721,3.302,3.842v6.928c0,2.119-1.48,3.84-3.302,3.84
		C152.53,120.571,151.052,118.85,151.052,116.731 M160.528,251.494c0,2.12-1.478,3.842-3.3,3.842c-1.825,0-3.303-1.722-3.303-3.842
		v-21.191c0-2.122,1.478-3.842,3.303-3.842c1.822,0,3.3,1.72,3.3,3.842V251.494z M158.06,190.375v-6.927
		c0-2.121,1.478-3.84,3.3-3.84c1.823,0,3.303,1.719,3.303,3.84v6.927c0,2.119-1.48,3.838-3.303,3.838
		C159.538,194.213,158.06,192.494,158.06,190.375 M169.962,255.885c0,2.121-1.479,3.84-3.303,3.84c-1.824,0-3.301-1.719-3.301-3.84
		v-21.193c0-2.123,1.477-3.84,3.301-3.84c1.824,0,3.303,1.717,3.303,3.84V255.885z M179.392,260.272
		c0,2.123-1.479,3.844-3.299,3.844c-1.826,0-3.303-1.721-3.303-3.844v-21.19c0-2.122,1.477-3.841,3.303-3.841
		c1.82,0,3.299,1.719,3.299,3.841V260.272z M179.316,140.645v-6.928c0-2.121,1.476-3.84,3.3-3.84c1.821,0,3.303,1.719,3.303,3.84
		v6.928c0,2.119-1.482,3.84-3.303,3.84C180.792,144.485,179.316,142.764,179.316,140.645 M188.827,264.666
		c0,2.119-1.48,3.838-3.304,3.838c-1.823,0-3.299-1.719-3.299-3.838v-21.195c0-2.123,1.476-3.844,3.299-3.844
		c1.824,0,3.304,1.721,3.304,3.844V264.666z M186.788,110.207v-6.925c0-2.122,1.479-3.842,3.301-3.842
		c1.822,0,3.303,1.72,3.303,3.842v6.925c0,2.121-1.481,3.842-3.303,3.842C188.267,114.049,186.788,112.328,186.788,110.207
		 M198.257,269.055c0,2.121-1.477,3.842-3.299,3.842c-1.826,0-3.303-1.721-3.303-3.842v-21.193c0-2.121,1.477-3.84,3.303-3.84
		c1.822,0,3.299,1.719,3.299,3.84V269.055z M201.036,122.848c0-2.121,1.479-3.843,3.301-3.843s3.303,1.722,3.303,3.843v6.928
		c0,2.117-1.481,3.838-3.303,3.838s-3.301-1.721-3.301-3.838V122.848z M207.69,273.444c0,2.121-1.478,3.841-3.302,3.841
		c-1.824,0-3.301-1.72-3.301-3.841V252.25c0-2.118,1.477-3.841,3.301-3.841c1.824,0,3.302,1.723,3.302,3.841V273.444z
		 M217.12,277.834c0,2.121-1.476,3.84-3.301,3.84c-1.822,0-3.3-1.719-3.3-3.84v-21.193c0-2.123,1.478-3.842,3.3-3.842
		c1.825,0,3.301,1.719,3.301,3.842V277.834z M217.942,220.84c0,2.119-1.48,3.838-3.302,3.838c-1.823,0-3.301-1.719-3.301-3.838
		v-6.928c0-2.121,1.478-3.841,3.301-3.841c1.822,0,3.302,1.72,3.302,3.841V220.84z M218.554,134.395v-6.926
		c0-2.123,1.478-3.844,3.301-3.844c1.822,0,3.302,1.721,3.302,3.844v6.926c0,2.121-1.48,3.84-3.302,3.84
		C220.032,138.235,218.554,136.516,218.554,134.395 M226.554,271.248c0,2.123-1.479,3.842-3.301,3.842
		c-1.824,0-3.303-1.719-3.303-3.842v-21.193c0-2.12,1.479-3.84,3.303-3.84c1.822,0,3.301,1.72,3.301,3.84V271.248z M235.987,264.662
		c0,2.125-1.478,3.842-3.304,3.842c-1.823,0-3.299-1.717-3.299-3.842v-21.19c0-2.123,1.476-3.841,3.299-3.841
		c1.826,0,3.304,1.718,3.304,3.841V264.662z M235.54,175.082c-1.822,0-3.299-1.72-3.299-3.839v-6.928
		c0-2.121,1.477-3.843,3.299-3.843c1.822,0,3.305,1.722,3.305,3.843v6.928C238.845,173.362,237.362,175.082,235.54,175.082
		 M245.417,258.078c0,2.124-1.477,3.842-3.299,3.842c-1.826,0-3.303-1.718-3.303-3.842V236.89c0-2.123,1.477-3.843,3.303-3.843
		c1.822,0,3.299,1.72,3.299,3.843V258.078z M247.88,142.412c0-2.121,1.478-3.841,3.301-3.841c1.822,0,3.302,1.72,3.302,3.841v6.928
		c0,2.119-1.48,3.84-3.302,3.84c-1.823,0-3.301-1.721-3.301-3.84V142.412z M254.853,251.494c0,2.12-1.481,3.842-3.305,3.842
		c-1.822,0-3.299-1.722-3.299-3.842v-21.191c0-2.12,1.477-3.84,3.299-3.84c1.824,0,3.305,1.72,3.305,3.84V251.494z M255.056,201.168
		c-1.823,0-3.299-1.718-3.299-3.84v-6.927c0-2.121,1.476-3.84,3.299-3.84c1.822,0,3.304,1.719,3.304,3.84v6.927
		C258.36,199.45,256.878,201.168,255.056,201.168 M264.284,244.91c0,2.122-1.48,3.84-3.302,3.84c-1.823,0-3.301-1.718-3.301-3.84
		v-21.193c0-2.12,1.478-3.838,3.301-3.838c1.822,0,3.302,1.718,3.302,3.838V244.91z M262.968,178.811v-6.926
		c0-2.121,1.476-3.842,3.299-3.842c1.822,0,3.304,1.721,3.304,3.842v6.926c0,2.121-1.482,3.84-3.304,3.84
		C264.444,182.651,262.968,180.932,262.968,178.811 M273.716,238.327c0,2.123-1.481,3.839-3.303,3.839
		c-1.824,0-3.301-1.716-3.301-3.839v-21.192c0-2.122,1.477-3.842,3.301-3.842c1.822,0,3.303,1.72,3.303,3.842V238.327z
		 M274.138,201.032c0,2.121-1.483,3.841-3.303,3.841c-1.824,0-3.301-1.72-3.301-3.841v-6.926c0-2.121,1.477-3.842,3.301-3.842
		c1.82,0,3.303,1.721,3.303,3.842V201.032z M271.825,157.069v-6.926c0-2.121,1.477-3.842,3.301-3.842
		c1.822,0,3.303,1.721,3.303,3.842v6.926c0,2.121-1.481,3.841-3.303,3.841C273.302,160.91,271.825,159.19,271.825,157.069
		 M283.149,231.743c0,2.121-1.48,3.841-3.302,3.841c-1.824,0-3.301-1.72-3.301-3.841v-21.194c0-2.123,1.477-3.84,3.301-3.84
		c1.822,0,3.302,1.717,3.302,3.84V231.743z M282.737,197.143c-1.822,0-3.3-1.719-3.3-3.838v-6.928c0-2.121,1.478-3.843,3.3-3.843
		c1.823,0,3.303,1.722,3.303,3.843v6.928C286.04,195.424,284.56,197.143,282.737,197.143 M292.579,225.159
		c0,2.121-1.48,3.839-3.301,3.839c-1.826,0-3.3-1.718-3.3-3.839v-21.194c0-2.12,1.474-3.842,3.3-3.842
		c1.821,0,3.301,1.722,3.301,3.842V225.159z M290.085,186.366v-6.926c0-2.121,1.477-3.842,3.301-3.842
		c1.82,0,3.303,1.721,3.303,3.842v6.926c0,2.121-1.483,3.839-3.303,3.839C291.562,190.205,290.085,188.487,290.085,186.366
		 M302.013,218.573c0,2.123-1.479,3.839-3.305,3.839c-1.82,0-3.299-1.716-3.299-3.839v-21.192c0-2.122,1.479-3.84,3.299-3.84
		c1.826,0,3.305,1.718,3.305,3.84V218.573z M302.829,178.811v-6.926c0-2.121,1.477-3.842,3.301-3.842
		c1.822,0,3.303,1.721,3.303,3.842v6.926c0,2.121-1.481,3.84-3.303,3.84C304.306,182.651,302.829,180.932,302.829,178.811
		 M311.442,211.989c0,2.119-1.476,3.841-3.298,3.841c-1.825,0-3.303-1.722-3.303-3.841v-21.192c0-2.12,1.478-3.842,3.303-3.842
		c1.822,0,3.298,1.722,3.298,3.842V211.989z M313.901,163.993c0-2.122,1.479-3.842,3.301-3.842s3.303,1.72,3.303,3.842v6.927
		c0,2.119-1.481,3.838-3.303,3.838s-3.301-1.719-3.301-3.838V163.993z M320.874,205.403c0,2.121-1.476,3.841-3.301,3.841
		c-1.822,0-3.299-1.72-3.299-3.841v-21.192c0-2.12,1.477-3.84,3.299-3.84c1.825,0,3.301,1.72,3.301,3.84V205.403z M330.308,198.821
		c0,2.121-1.477,3.841-3.299,3.841c-1.826,0-3.303-1.72-3.303-3.841v-21.192c0-2.122,1.477-3.842,3.303-3.842
		c1.822,0,3.299,1.72,3.299,3.842V198.821z M153.898,87.409c1.822,0,3.302,1.72,3.302,3.841v6.93c0,2.117-1.48,3.838-3.302,3.838
		c-1.825,0-3.301-1.721-3.301-3.838v-6.93C150.597,89.129,152.073,87.409,153.898,87.409 M70.503,145.639
		c1.82,0,3.303,1.719,3.303,3.84v6.928c0,2.119-1.483,3.839-3.303,3.839c-1.824,0-3.301-1.72-3.301-3.839v-6.928
		C67.202,147.358,68.679,145.639,70.503,145.639"/>
</g>
</svg>
