<?xml version="1.0" encoding="iso-8859-1"?>
<!-- Generator: Adobe Illustrator 25.4.1, SVG Export Plug-In . SVG Version: 6.00 Build 0)  -->
<svg version="1.1" id="Calque_1" xmlns="http://www.w3.org/2000/svg" xmlns:xlink="http://www.w3.org/1999/xlink" x="0px" y="0px"
	 viewBox="0 0 368.5 368.5" style="enable-background:new 0 0 368.5 368.5;" xml:space="preserve">
<g>
	<path style="fill:#FFFFFF;" d="M46.654,167.015h15.431c0.156,0,0.298-0.095,0.351-0.243c0.054-0.142,0.013-0.309-0.106-0.412
		l-8.52-7.493c-0.068-0.059-0.153-0.095-0.246-0.095h-6.91c-2.274,0-4.121,1.85-4.121,4.122
		C42.533,165.169,44.38,167.015,46.654,167.015"/>
	<path style="fill:#FFFFFF;" d="M75.068,177.881c0.054-0.146,0.012-0.31-0.105-0.413l-8.521-7.493
		c-0.066-0.062-0.16-0.095-0.248-0.095h-6.536c-2.271,0-4.12,1.85-4.12,4.125c0,2.269,1.849,4.118,4.12,4.118h15.059
		C74.873,178.123,75.012,178.027,75.068,177.881"/>
	<path style="fill:#FFFFFF;" d="M72.665,189.23h14.68c0.158,0,0.297-0.097,0.351-0.244c0.056-0.144,0.013-0.31-0.102-0.412
		l-8.523-7.494c-0.066-0.059-0.154-0.093-0.247-0.093h-6.159c-2.273,0-4.121,1.851-4.121,4.12
		C68.544,187.382,70.392,189.23,72.665,189.23"/>
	<path style="fill:#FFFFFF;" d="M85.671,200.337h14.307c0.153,0,0.292-0.096,0.348-0.243c0.057-0.146,0.016-0.309-0.1-0.413
		l-8.523-7.493c-0.068-0.062-0.156-0.094-0.248-0.094h-5.784c-2.273,0-4.121,1.848-4.121,4.122
		C81.549,198.488,83.397,200.337,85.671,200.337"/>
	<path style="fill:#FFFFFF;" d="M98.677,211.443h13.929c0.157,0,0.296-0.096,0.352-0.242c0.055-0.144,0.015-0.311-0.103-0.412
		l-8.524-7.494c-0.067-0.058-0.155-0.092-0.245-0.092h-5.409c-2.274,0-4.123,1.847-4.123,4.119
		C94.554,209.597,96.403,211.443,98.677,211.443"/>
	<path style="fill:#FFFFFF;" d="M255.444,159.018c-0.054,0.145-0.013,0.309,0.104,0.411l8.522,7.494
		c0.069,0.06,0.157,0.092,0.248,0.092h5.536c2.272,0,4.119-1.846,4.119-4.121c0-2.271-1.847-4.122-4.119-4.122h-14.057
		C255.637,158.772,255.501,158.869,255.444,159.018"/>
	<path style="fill:#FFFFFF;" d="M282.86,169.88h-14.432c-0.157,0-0.297,0.097-0.35,0.244c-0.057,0.143-0.016,0.31,0.098,0.412
		l8.522,7.494c0.071,0.059,0.16,0.093,0.249,0.093h5.913c2.273,0,4.121-1.85,4.121-4.119
		C286.981,171.73,285.133,169.88,282.86,169.88"/>
	<path style="fill:#FFFFFF;" d="M280.707,181.23c-0.056,0.146-0.013,0.309,0.102,0.413l8.521,7.494
		c0.068,0.061,0.156,0.094,0.249,0.094h6.285c2.274,0,4.123-1.849,4.123-4.123c0-2.27-1.849-4.12-4.123-4.12h-14.806
		C280.903,180.988,280.763,181.083,280.707,181.23"/>
	<path style="fill:#FFFFFF;" d="M293.336,192.338c-0.054,0.142-0.013,0.31,0.104,0.411l8.521,7.494
		c0.069,0.06,0.158,0.094,0.249,0.094h6.658c2.274,0,4.124-1.85,4.124-4.121c0-2.274-1.85-4.122-4.124-4.122h-15.179
		C293.529,192.094,293.39,192.192,293.336,192.338"/>
	<path style="fill:#FFFFFF;" d="M321.876,203.203H306.32c-0.159,0-0.297,0.094-0.352,0.241c-0.055,0.145-0.014,0.31,0.101,0.413
		l7.931,6.976c0.173,0.15,0.325,0.314,0.472,0.482c0.067,0.083,0.171,0.129,0.282,0.129h7.122c2.273,0,4.121-1.848,4.121-4.122
		C325.997,205.05,324.149,203.203,321.876,203.203"/>
	<path style="fill:#FFFFFF;" d="M151.477,216.031c0.069,0.059,0.155,0.094,0.247,0.094h136.485c0.154,0,0.296-0.096,0.35-0.246
		c0.052-0.144,0.013-0.308-0.104-0.41l-71.612-62.976c-0.068-0.06-0.156-0.093-0.247-0.093H80.117c-0.159,0-0.3,0.097-0.354,0.243
		c-0.056,0.143-0.015,0.311,0.105,0.412L151.477,216.031z"/>
	<path style="fill:#FFFFFF;" d="M125.694,215.77c0.256,0.228,0.588,0.354,0.935,0.354h16.786c0.158,0,0.296-0.096,0.355-0.246
		c0.055-0.144,0.013-0.307-0.105-0.41l-71.613-62.975c-0.065-0.06-0.154-0.094-0.244-0.094H57.384c-0.587,0-1.121,0.372-1.326,0.917
		c-0.207,0.548-0.049,1.173,0.388,1.56L125.694,215.77z"/>
	<path style="fill:#FFFFFF;" d="M296.268,216.031c0.064,0.059,0.155,0.094,0.246,0.094h12.578c0.585,0,1.118-0.37,1.327-0.916
		c0.207-0.551,0.047-1.177-0.39-1.564l-69.247-60.893c-0.257-0.226-0.587-0.352-0.933-0.352h-14.945
		c-0.155,0-0.296,0.098-0.351,0.243c-0.058,0.143-0.016,0.311,0.102,0.414L296.268,216.031z"/>
</g>
</svg>
