<?xml version="1.0" encoding="iso-8859-1"?>
<!-- Generator: Adobe Illustrator 25.4.1, SVG Export Plug-In . SVG Version: 6.00 Build 0)  -->
<svg version="1.1" id="Calque_1" xmlns="http://www.w3.org/2000/svg" xmlns:xlink="http://www.w3.org/1999/xlink" x="0px" y="0px"
	 viewBox="0 0 368.5 368.5" style="enable-background:new 0 0 368.5 368.5;" xml:space="preserve">
<g>
	<path style="fill:#FFFFFF;" d="M263.397,269.505c0.15-0.169,0.293-0.341,0.44-0.511c0.404-0.473,0.794-0.952,1.173-1.438
		c0.125-0.162,0.252-0.321,0.375-0.484c0.989-1.312,1.885-2.67,2.688-4.068c0.054-0.093,0.104-0.188,0.157-0.281
		c0.363-0.644,0.706-1.295,1.03-1.955c0.04-0.08,0.081-0.16,0.12-0.241c1.098-2.27,1.964-4.623,2.603-7.025
		c0.003-0.012,0.007-0.023,0.01-0.033c0.028-0.11,0.058-0.218,0.088-0.328c0.001-0.004,0.002-0.008,0.003-0.012
		c0.102-0.404,0.196-0.809,0.286-1.215c0.004-0.016,0.008-0.03,0.01-0.045c0.033-0.147,0.066-0.294,0.095-0.439
		c0.087-0.414,0.166-0.828,0.24-1.244v-0.002c0.03-0.168,0.058-0.335,0.085-0.503c0.003-0.016,0.005-0.031,0.007-0.046
		c0.063-0.384,0.12-0.769,0.17-1.155c0.002-0.007,0.003-0.014,0.004-0.022c0.015-0.118,0.028-0.237,0.042-0.356
		c0.056-0.456,0.107-0.914,0.148-1.373c0-0.005,0.002-0.012,0.002-0.018c0.009-0.109,0.015-0.217,0.022-0.325
		c0.04-0.513,0.074-1.025,0.095-1.538c0.023-0.52,0.037-1.04,0.037-1.562c-0.003-10.146-3.862-20.27-11.6-28.013
		c-7.736-7.736-17.851-11.595-27.99-11.598c-0.522,0-1.041,0.013-1.562,0.037c-1.007,0.04-2.012,0.122-3.014,0.237
		c-0.01,0.001-0.02,0.002-0.03,0.003c-0.089,0.011-0.179,0.023-0.269,0.033c-0.479,0.059-0.956,0.125-1.433,0.202h-0.002
		c-0.055,0.008-0.111,0.018-0.167,0.028c-1.691,0.277-3.369,0.659-5.019,1.156c0,0-0.001,0.001-0.002,0.001
		c-0.067,0.021-0.134,0.044-0.201,0.065c-3.047,0.936-6,2.248-8.791,3.936c-0.098,0.059-0.192,0.121-0.288,0.18
		c-0.517,0.318-1.027,0.648-1.531,0.992c-0.169,0.115-0.336,0.233-0.504,0.351c-0.431,0.305-0.858,0.62-1.281,0.944
		c-0.187,0.144-0.375,0.287-0.56,0.435c-0.414,0.33-0.823,0.672-1.226,1.022c-0.169,0.145-0.34,0.286-0.507,0.434
		c-0.556,0.499-1.107,1.012-1.642,1.548l-21.093,21.088h0.001c3.33-1.091,6.787-1.723,10.271-1.897
		c0.664-0.033,1.332-0.051,2.001-0.051c10.518-0.002,21.164,4.121,29.322,12.278c4.087,4.094,7.173,8.815,9.218,13.839
		c2.044,4.971,3.063,10.24,3.063,15.476c0,1.18-0.051,2.36-0.158,3.537c-0.101,1.128-1.049,1.978-2.16,1.978
		c-0.064,0-0.129-0.004-0.196-0.009c-1.194-0.107-2.075-1.162-1.969-2.353c0.094-1.049,0.14-2.099,0.142-3.153
		c0-4.674-0.912-9.382-2.741-13.831c-1.83-4.498-4.589-8.727-8.272-12.412c-7.331-7.331-16.86-11.007-26.249-11.009
		c-0.592,0-1.184,0.016-1.782,0.047c-0.587,0.029-1.172,0.078-1.756,0.136c-0.181,0.018-0.361,0.042-0.543,0.063
		c-0.411,0.048-0.821,0.1-1.23,0.163c-0.196,0.029-0.391,0.061-0.586,0.095c-0.418,0.07-0.833,0.148-1.247,0.234
		c-0.164,0.034-0.328,0.065-0.491,0.102c-0.566,0.125-1.127,0.26-1.686,0.414c-0.006,0.002-0.012,0.003-0.018,0.005
		c-0.595,0.163-1.187,0.345-1.775,0.541c-0.074,0.026-0.148,0.053-0.223,0.079c-0.496,0.17-0.988,0.35-1.476,0.543
		c-0.121,0.047-0.24,0.097-0.361,0.146c-0.458,0.187-0.911,0.383-1.362,0.59c-0.107,0.05-0.215,0.098-0.322,0.148
		c-0.527,0.249-1.05,0.51-1.566,0.787c-0.013,0.007-0.027,0.014-0.041,0.021v0.001c-2.82,1.521-5.463,3.463-7.838,5.835
		c-0.202,0.201-0.434,0.35-0.68,0.456c-6.731,7.508-10.09,16.948-10.092,26.413c0.002,10.146,3.859,20.267,11.596,28.009
		c7.744,7.739,17.865,11.599,28.009,11.604c10.148-0.005,20.267-3.865,28.006-11.604l32.303-32.297
		C262.308,270.71,262.86,270.111,263.397,269.505 M311.245,165.753c-7.634-7.637-17.614-11.443-27.624-11.445
		c-10.004,0.002-19.987,3.808-27.628,11.445l-13.092,13.093c15.211,1.061,28.92,7.575,39.072,17.6
		c9.611,9.481,16.041,22.13,17.617,36.212l11.655-11.657c7.636-7.637,11.44-17.614,11.443-27.624
		C322.685,183.369,318.88,173.389,311.245,165.753 M289.027,217.998c-0.339-0.775-0.693-1.541-1.066-2.297
		c-0.03-0.062-0.064-0.122-0.095-0.184c-0.355-0.71-0.721-1.415-1.106-2.108c-0.058-0.107-0.123-0.21-0.183-0.316
		c-0.364-0.645-0.733-1.283-1.122-1.911c-0.103-0.166-0.214-0.327-0.32-0.492c-0.357-0.562-0.714-1.123-1.091-1.671
		c-0.156-0.226-0.324-0.445-0.483-0.668c-0.339-0.48-0.676-0.959-1.032-1.427c-0.227-0.299-0.468-0.587-0.702-0.883
		c-0.303-0.381-0.598-0.767-0.911-1.14c-0.329-0.393-0.674-0.771-1.013-1.155c-0.233-0.264-0.459-0.535-0.699-0.795
		c-0.586-0.638-1.19-1.262-1.807-1.871c-9.952-9.818-23.683-15.889-38.885-15.892c-0.355,0-0.71,0.012-1.061,0.027
		c-14.779,0.279-28.103,6.277-37.822,15.865c-7.507,7.416-12.832,16.938-14.997,27.595l17.236-17.236
		c6.261-6.261,13.92-10.284,21.972-12.086c-0.002,0-0.002,0.002-0.003,0.003c3.251-0.727,6.562-1.103,9.875-1.102
		c11.515-0.003,23.058,4.399,31.846,13.187v0.002c8.788,8.789,13.193,20.333,13.191,31.849c0,1.656-0.094,3.31-0.28,4.958v0.003
		c-0.184,1.647-0.461,3.287-0.824,4.911c0.002-0.001,0.004-0.003,0.006-0.004c-1.802,8.051-5.825,15.71-12.086,21.971
		l-17.664,17.659c11.429-1.937,21.642-7.335,29.496-15.083c9.949-9.823,16.083-23.347,16.083-38.313
		c0-7.584-1.58-14.794-4.43-21.343C289.044,218.033,289.035,218.016,289.027,217.998"/>
	<path style="fill:#FFFFFF;" d="M119.317,75.914l-12.061-12.062c-7.04-7.036-16.236-10.541-25.453-10.544
		c-9.223,0.003-18.416,3.508-25.449,10.544c-7.033,7.035-10.539,16.229-10.542,25.449c0.003,9.221,3.507,18.414,10.542,25.449
		l10.738,10.739c1.451-12.972,7.375-24.627,16.229-33.36C92.674,82.893,105.304,76.892,119.317,75.914 M163.349,131.154
		c-0.551-0.028-1.096-0.044-1.642-0.044c-8.649,0.002-17.429,3.39-24.182,10.144c-3.393,3.394-5.935,7.29-7.62,11.434
		c-1.686,4.098-2.526,8.436-2.526,12.742c0.002,0.971,0.044,1.938,0.131,2.905c0.098,1.098-0.714,2.069-1.814,2.167
		c-0.061,0.006-0.122,0.009-0.181,0.009c-1.024,0-1.897-0.783-1.989-1.823c-0.099-1.084-0.146-2.17-0.146-3.258
		c0-4.824,0.939-9.678,2.821-14.257c1.884-4.629,4.727-8.979,8.494-12.75c7.514-7.515,17.323-11.314,27.012-11.312
		c0.616,0,1.232,0.017,1.843,0.047c3.21,0.161,6.396,0.743,9.463,1.748l-19.431-19.427c-4.23-4.232-9.234-7.192-14.555-8.91
		c-0.226-0.073-0.45-0.149-0.675-0.217c-0.301-0.091-0.604-0.171-0.906-0.254c-0.227-0.063-0.455-0.126-0.683-0.184
		c-0.306-0.078-0.612-0.147-0.919-0.217c-0.226-0.05-0.451-0.101-0.678-0.147c-0.313-0.065-0.628-0.124-0.943-0.181
		c-0.217-0.038-0.434-0.075-0.65-0.109c-0.329-0.053-0.657-0.103-0.985-0.146c-0.195-0.025-0.39-0.048-0.586-0.07
		c-0.354-0.041-0.708-0.081-1.062-0.111c-0.133-0.012-0.266-0.019-0.4-0.029c-0.924-0.07-1.852-0.116-2.78-0.116
		c-9.341,0.003-18.66,3.559-25.787,10.686c-7.128,7.133-10.684,16.459-10.687,25.806c0,0.929,0.046,1.856,0.117,2.782
		c0.009,0.124,0.015,0.249,0.026,0.374c0.033,0.384,0.076,0.768,0.122,1.152c0.018,0.152,0.035,0.306,0.055,0.457
		c0.049,0.377,0.105,0.752,0.166,1.127c0.025,0.154,0.052,0.309,0.079,0.464c0.066,0.379,0.138,0.756,0.217,1.133
		c0.029,0.139,0.06,0.279,0.09,0.419c0.087,0.391,0.177,0.782,0.277,1.171c0.026,0.102,0.055,0.202,0.081,0.302
		c1.593,6.015,4.736,11.699,9.457,16.42l23.503,23.498c27.561-1.056,49.76-22.625,51.399-49.678
		C172.684,132.641,168.063,131.393,163.349,131.154 M87.303,144.377c0.002,0.001,0.004,0.003,0.006,0.004
		c-0.335-1.496-0.59-3.007-0.76-4.524v-0.003c-0.171-1.518-0.258-3.042-0.257-4.568c-0.002-10.609,4.056-21.244,12.152-29.341
		v-0.002c8.095-8.096,18.73-12.152,29.339-12.149c3.051-0.001,6.102,0.346,9.097,1.016c-0.001-0.001-0.002-0.003-0.003-0.004
		c7.418,1.661,14.475,5.367,20.242,11.135l15.879,15.878c-1.994-9.817-6.9-18.59-13.815-25.422
		c-8.955-8.832-21.231-14.358-34.845-14.616c-0.324-0.013-0.65-0.024-0.978-0.024c-14.005,0.003-26.655,5.596-35.824,14.64
		c-0.568,0.562-1.124,1.137-1.664,1.724c-0.22,0.239-0.428,0.489-0.643,0.733c-0.313,0.353-0.631,0.702-0.934,1.064
		c-0.288,0.344-0.56,0.699-0.839,1.05c-0.215,0.272-0.438,0.538-0.647,0.813c-0.328,0.431-0.639,0.873-0.951,1.315
		c-0.147,0.206-0.301,0.407-0.445,0.615c-0.346,0.506-0.676,1.022-1.005,1.54c-0.097,0.152-0.2,0.3-0.294,0.453
		c-0.359,0.578-0.7,1.167-1.034,1.761c-0.055,0.098-0.115,0.192-0.17,0.291c-0.354,0.638-0.691,1.287-1.017,1.941
		c-0.029,0.058-0.061,0.113-0.088,0.17c-0.344,0.697-0.67,1.403-0.982,2.116c-0.007,0.017-0.015,0.033-0.022,0.049
		c-2.625,6.034-4.081,12.676-4.081,19.662c0,13.789,5.651,26.247,14.816,35.297c7.237,7.139,16.646,12.112,27.174,13.896
		l-16.272-16.269C92.669,158.851,88.963,151.794,87.303,144.377"/>
</g>
</svg>
