<?xml version="1.0" encoding="iso-8859-1"?>
<!-- Generator: Adobe Illustrator 25.4.1, SVG Export Plug-In . SVG Version: 6.00 Build 0)  -->
<svg version="1.1" id="Calque_1" xmlns="http://www.w3.org/2000/svg" xmlns:xlink="http://www.w3.org/1999/xlink" x="0px" y="0px"
	 viewBox="0 0 368.5 368.5" style="enable-background:new 0 0 368.5 368.5;" xml:space="preserve">
<g>
	<path style="fill:#FFFFFF;" d="M85.108,42.517c0.619,0.872,1.338,1.877,2.16,3.005c3.141,4.311,7.727,10.362,13.485,17.311
		c11.519,13.896,27.751,31.376,46.523,45.677c37.635,28.699,85.91,60.405,104.654,78.354c9.17,8.811,17.983,16.994,24.502,22.974
		c4.026,3.692,7.166,6.535,8.987,8.176h8.386c-2.533-1.922-5.306-4.309-7.931-7.182c-7.391-8.111-38.114-34.143-60.875-60.881
		c-15.897-18.657-18.473-32.995-18.467-40.18c0-0.334,0.01-0.644,0.017-0.946l-44.67-44.671c1.467,4.856,3.86,11.202,7.743,18.156
		c2.961,5.354,4.959,10.174,4.992,13.794c0,1.294-0.274,2.542-1.11,3.523c-0.824,0.974-2.111,1.441-3.474,1.441h-0.061
		c-2.437-0.024-5.47-1.144-9.681-3.5c-4.194-2.363-9.516-6.014-16.211-11.263c-24.799-19.444-37.776-36.93-42.346-43.788H85.108z"/>
	<path style="fill:#FFFFFF;" d="M224.729,284.334c1.615,0.283,3.736,0.629,6.236,0.974c5.809,0.805,13.594,1.61,21.457,1.61
		c12.495,0.051,25.075-2.176,30.143-8.815c4.615-5.851,6.205-15.638,6.185-25.468c0.004-7.92-0.98-15.845-1.966-21.776
		c-0.405-2.427-0.805-4.51-1.139-6.13h-30.293c0.002,0.205,0.004,0.412,0.004,0.632c-0.004,3.634-0.264,9.435-1.662,15.216
		c-1.406,5.768-3.932,11.603-8.762,15.099c-8.287,5.952-16.18,8.451-20.203,9.422V284.334z"/>
	<path style="fill:#FFFFFF;" d="M62.546,42.517c1.682,2.056,3.965,4.831,6.732,8.158c6.164,7.411,14.696,17.516,24.157,28.281
		c18.906,21.52,41.617,45.729,56.322,56.166c25.293,17.982,90.004,73.85,101.613,82.892h29.76
		c-6.125-5.552-18.297-16.686-31.189-29.075c-17.983-17.335-66.438-49.236-104.407-78.142
		c-32.775-24.981-57.642-59.225-63.939-68.28H62.546z"/>
	<path style="fill:#FFFFFF;" d="M224.729,230.752v31.377c0.969-0.25,2.109-0.576,3.424-1.019c4.031-1.36,9.482-3.732,15.101-7.77
		c3.946-2.814,6.334-7.99,7.643-13.44c1.318-5.431,1.582-11.048,1.578-14.539c0.002-0.222-0.002-0.425-0.002-0.632h-21.721
		C227.426,224.734,224.735,227.427,224.729,230.752"/>
	<path style="fill:#FFFFFF;" d="M224.729,303.385c1.416,0.107,3.256,0.237,5.437,0.367c5.295,0.319,12.557,0.637,20.401,0.637
		c8.818,0,18.373-0.406,26.656-1.647c8.281-1.226,15.289-3.382,18.86-6.482c4.546-3.754,6.468-13.979,6.408-25.674
		c0-11.133-1.537-23.558-3.076-33.177c-0.854-5.315-1.702-9.758-2.291-12.68h-8.541c1.187,5.872,3.042,16.807,3.046,27.906
		c-0.019,10.113-1.492,20.404-6.8,27.242c-6.401,8.01-19.653,9.863-32.407,9.92c-11.175-0.004-22.056-1.577-27.693-2.543V303.385z"
		/>
	<path style="fill:#FFFFFF;" d="M209.479,111.755c0.471,7.066,3.627,19.779,17.709,36.332
		c22.598,26.546,53.082,52.359,60.812,60.808c3.641,3.993,7.653,7.052,10.766,9.12h16.973L209.479,111.755z"/>
	<path style="fill:#FFFFFF;" d="M139.292,63.099c1.186,0.809,2.064,1.061,2.602,1.057c0.785-0.02,1.322-0.408,1.955-1.834
		c0.574-1.389,0.879-3.55,0.871-5.926c0.021-3.828-0.774-8.274-1.86-11.261l-0.853-0.854c-1.1-1.096-2.584-1.764-4.26-1.764h-17.598
		c1.196,1.655,2.946,4.006,5.051,6.601C129.202,54.061,134.478,59.845,139.292,63.099"/>
	<path style="fill:#FFFFFF;" d="M208.341,252.795c-6.672-9.869-44.773-47.25-53.535-67.319
		c-8.473-19.421-25.113-35.782-52.35-52.268C83.64,121.817,57.257,103.52,42.519,93.133v26.779c0.543,0.52,1.115,1.068,1.748,1.666
		c3.703,3.503,8.863,8.272,14.691,13.315c11.639,10.087,26.041,21.291,36.516,25.637c11.246,4.718,24.381,17.325,36.918,31.051
		c12.508,13.728,49.638,53.926,57.695,63.055c11.225,12.722,22.285,21.97,27.93,26.386v-17.463
		C215.653,261.755,212.204,258.492,208.341,252.795"/>
	<path style="fill:#FFFFFF;" d="M187.931,256.539c-8.145-9.23-45.24-49.384-57.666-63.019
		c-12.395-13.633-25.543-26.051-35.898-30.334c-16.499-6.916-40.598-28.66-51.848-39.31v13.871c0,1.685,0.676,3.176,1.791,4.289
		l27.236,27.236c12.762,5.542,58.981,41.314,72.065,55.084c19.441,20.522,46.439,48.962,57.248,60.492
		c6.525,6.96,13.066,12.337,17.158,15.459v-15.653C213.093,280.918,200.636,270.935,187.931,256.539"/>
	<path style="fill:#FFFFFF;" d="M308.034,308.031c-8.016,3.465-16.133,13.15-19.709,17.951h31.635
		c3.324-0.004,6.017-2.699,6.021-6.023v-17.131c-0.857,0.135-1.836,0.305-2.939,0.523
		C319.067,304.146,313.671,305.562,308.034,308.031"/>
	<path style="fill:#FFFFFF;" d="M198.761,286.814c-10.793-11.514-37.797-39.959-57.238-60.481
		c-10.428-11.031-51.815-45.382-64.18-51.265l140.674,140.674V303.9C214.14,301.048,206.464,295.027,198.761,286.814"/>
	<path style="fill:#FFFFFF;" d="M105.212,42.517c1.613,2.321,3.924,5.451,7.02,9.202c6.959,8.433,17.867,19.969,33.621,32.321
		c6.619,5.191,11.847,8.768,15.847,11.023c3.989,2.263,6.799,3.149,8.27,3.126c0.857-0.015,1.148-0.211,1.355-0.438
		c0.207-0.232,0.416-0.746,0.414-1.647c0.036-2.531-1.752-7.28-4.629-12.391c-5.476-9.814-8.105-18.483-9.31-23.639l-10.897-10.897
		c0.44,2.346,0.684,4.842,0.694,7.219c-0.004,2.607-0.293,5.044-1.084,7.008c-0.725,1.914-2.307,3.626-4.582,3.626h-0.037
		c-1.364-0.004-2.741-0.551-4.217-1.549c-9.1-6.212-18.658-19.535-21.055-22.964H105.212z"/>
	<path style="fill:#FFFFFF;" d="M319.96,224.729h-19.904c1.73,8.647,5.308,28.59,5.312,45.857
		c-0.058,11.952-1.555,22.682-7.41,27.859c-4.443,3.761-11.795,5.841-20.307,7.141c-8.509,1.275-18.177,1.68-27.084,1.68
		c-11.009,0-20.849-0.619-25.838-0.996v13.689c0.006,3.325,2.698,6.02,6.024,6.024h54.012c2.732-3.836,11.91-16.061,22.117-20.59
		c7.785-3.4,15.047-4.869,19.099-5.475v-69.166C325.978,227.427,323.284,224.734,319.96,224.729"/>
	<path style="fill:#FFFFFF;" d="M246.688,218.015c-0.625-0.487-1.279-0.995-1.984-1.542c-5.125-3.975-12.268-9.497-20.342-15.684
		c-16.149-12.367-61.358-52.719-76.27-63.322c-15.177-10.797-37.828-35.017-56.816-56.61C76.11,63.605,63.35,48.065,58.833,42.518
		H48.542c-3.329,0.004-6.02,2.699-6.024,6.023v20.522c1.529,1.728,3.381,3.758,5.512,5.978c6.388,6.657,15.24,14.967,25.012,21.54
		c9.791,6.589,21.982,12.781,31.712,17.304c1.934,0.902,3.764,1.732,5.463,2.491L46.104,52.264c-1.311-1.31-1.311-3.435,0-4.748
		c1.311-1.309,3.436-1.309,4.746,0l167.535,167.535c1.309,1.312,1.309,3.438,0,4.748c-0.656,0.655-1.515,0.983-2.373,0.983
		c-0.861,0-1.719-0.328-2.373-0.983l-97.869-97.87c-9.168-3.88-29.332-12.876-44.336-22.961
		c-11.941-8.042-22.398-18.471-28.916-25.603v16.247c4.264,3.011,9.709,6.83,15.777,11.029
		c14.299,9.892,32.022,21.857,45.651,30.105c27.486,16.634,44.691,33.399,53.496,53.581c8.523,19.535,46.269,56.56,53.277,66.853
		c2.795,4.119,5.323,6.854,7.297,8.639v-29.067c0.004-7.033,5.699-12.735,12.736-12.737H246.688z"/>
</g>
</svg>
