<?xml version="1.0" encoding="iso-8859-1"?>
<!-- Generator: Adobe Illustrator 25.4.1, SVG Export Plug-In . SVG Version: 6.00 Build 0)  -->
<svg version="1.1" id="Calque_1" xmlns="http://www.w3.org/2000/svg" xmlns:xlink="http://www.w3.org/1999/xlink" x="0px" y="0px"
	 viewBox="0 0 368.5 368.5" style="enable-background:new 0 0 368.5 368.5;" xml:space="preserve">
<g>
	<path style="fill:#FFFFFF;" d="M268.506,96.418c0.654,1.373,1.523,2.784,2.668,4.184c0.004,0.005,0.004,0.012,0.01,0.017
		c0.986,1.208,2.125,2.35,3.424,3.416c0.015,0.013,0.037,0.016,0.052,0.029l0.451,0.353c0.026,0.02,0.047,0.048,0.071,0.07
		c0.248,0.193,0.492,0.388,0.75,0.575c2.767,2.012,5.81,3.033,9.049,3.033c9.789,0.001,18.14-9.017,18.527-16.485
		c0.371-7.141-1.805-11.807-4.5-14.385c-0.01-0.009-0.025-0.012-0.035-0.022c-0.746-0.705-1.455-1.192-2.065-1.532
		c-0.056-0.031-0.113-0.064-0.17-0.093c-0.095-0.051-0.189-0.099-0.277-0.142c-0.213-0.099-0.424-0.192-0.633-0.27
		c-0.004-0.001-0.01-0.003-0.013-0.005c-0.006-0.002-0.014-0.004-0.02-0.007c-0.234-0.085-0.486-0.157-0.75-0.218
		c-0.055-0.013-0.115-0.022-0.17-0.034c-0.228-0.048-0.465-0.089-0.715-0.12c-0.06-0.008-0.123-0.013-0.185-0.02
		c-0.254-0.028-0.518-0.046-0.791-0.057c-0.069-0.003-0.137-0.006-0.207-0.007c-0.282-0.007-0.574-0.005-0.873,0.005
		c-0.043,0.002-0.086,0.002-0.127,0.004c0.021,0.831,0.011,1.667-0.032,2.499c-0.513,9.928-10.97,19.315-21.519,19.315
		C269.783,96.521,269.143,96.487,268.506,96.418"/>
	<path style="fill:#FFFFFF;" d="M204.836,261.645c-5.705-8.439-38.289-40.406-45.781-57.568c-7.246-16.61-21.477-30.6-44.768-44.699
		c-16.092-9.742-38.652-25.387-51.256-34.271v22.901c0.463,0.445,0.953,0.912,1.494,1.425c3.166,2.995,7.579,7.073,12.565,11.386
		c9.951,8.626,22.267,18.207,31.226,21.925c9.618,4.034,20.85,14.813,31.571,26.553c10.695,11.74,42.449,46.116,49.34,53.922
		c9.597,10.879,19.056,18.787,23.882,22.565v-14.935C211.09,269.307,208.139,266.516,204.836,261.645"/>
	<path style="fill:#FFFFFF;" d="M147.112,154.936l-37.035-37.984C122.407,130.827,136.133,145.416,147.112,154.936"/>
	<path style="fill:#FFFFFF;" d="M237.629,231.902c-0.535-0.417-1.094-0.85-1.697-1.318c-4.381-3.4-10.491-8.122-17.395-13.411
		c-8.023-6.146-24.431-20.366-39.277-32.984c-0.17,0.097-0.35,0.183-0.539,0.25c-0.381,0.136-0.777,0.202-1.17,0.202
		c-0.928,0-1.836-0.369-2.506-1.056l-15.072-15.458c-2.621-2.098-4.895-3.852-6.66-5.107c-12.979-9.233-32.35-29.945-48.586-48.41
		C91.756,99.855,80.844,86.566,76.983,81.823h-8.801c-2.846,0.004-5.149,2.309-5.151,5.151v17.548
		c1.307,1.48,2.889,3.215,4.713,5.113c5.463,5.693,13.034,12.8,21.389,18.42c8.373,5.635,18.799,10.93,27.119,14.799
		c1.654,0.771,3.219,1.481,4.672,2.13L66.098,90.159c-1.123-1.122-1.123-2.94,0-4.062c1.119-1.119,2.935-1.119,4.056,0
		l143.272,143.272c1.119,1.12,1.119,2.937,0,4.059c-0.561,0.56-1.295,0.84-2.029,0.84c-0.737,0-1.469-0.28-2.03-0.84l-83.695-83.695
		c-7.84-3.318-25.084-11.012-37.914-19.636c-10.211-6.877-19.154-15.797-24.727-21.895v13.894c3.645,2.575,8.301,5.841,13.493,9.432
		c12.226,8.459,27.382,18.69,39.037,25.744c23.505,14.226,38.218,28.562,45.748,45.821c7.289,16.705,39.568,48.368,45.562,57.171
		c2.389,3.522,4.549,5.86,6.239,7.387v-24.856c0.003-6.016,4.875-10.891,10.892-10.893H237.629z"/>
	<path style="fill:#FFFFFF;" d="M218.852,288.616c1.381,0.242,3.195,0.537,5.332,0.834c4.967,0.689,11.625,1.375,18.35,1.375
		c10.685,0.045,21.443-1.859,25.777-7.537c3.945-5.004,5.307-13.373,5.289-21.779c0.004-6.774-0.838-13.551-1.682-18.622
		c-0.345-2.077-0.687-3.858-0.97-5.244h-25.909c0,0.176,0.002,0.353,0.002,0.542c-0.002,3.108-0.224,8.068-1.419,13.012
		c-1.204,4.933-3.362,9.923-7.493,12.913c-7.088,5.09-13.838,7.227-17.277,8.055V288.616z"/>
	<path style="fill:#FFFFFF;" d="M187.383,264.848c-6.965-7.894-38.689-42.232-49.314-53.892c-10.6-11.659-21.844-22.278-30.7-25.941
		c-14.109-5.915-34.718-24.509-44.338-33.616v11.862c0,1.441,0.577,2.716,1.532,3.668l23.291,23.289
		c10.914,4.741,50.437,35.332,61.627,47.107c16.627,17.549,39.713,41.872,48.957,51.731c5.58,5.953,11.174,10.551,14.672,13.221
		v-13.386C208.901,285.696,198.246,277.159,187.383,264.848"/>
	<path style="fill:#FFFFFF;" d="M266.028,217.311c3.068,2.884,5.475,5.201,6.932,6.793c3.113,3.414,6.545,6.03,9.205,7.798h14.515
		l-15.711-15.711c-1.24,0.727-2.646,1.111-4.183,1.12H266.028z"/>
	<path style="fill:#FFFFFF;" d="M240.042,181.457c-0.025,0.293-0.096,0.574-0.189,0.844l1.851,1.851
		c0.428-0.322,0.943-0.518,1.492-0.518h5.217l-8.34-8.34C240.257,178.842,240.068,181.156,240.042,181.457"/>
	<path style="fill:#FFFFFF;" d="M237.735,217.382c-0.211,0.014-0.424,0.02-0.637,0.02c-9.261,0.001-20.814-13.015-22.129-14.531
		l-17.783-18.94h-13.221c23.709,19.402,50.983,42.764,57.668,47.971h25.452c-3.459-3.133-9.18-8.357-15.836-14.59h-12.84
		C238.188,217.343,237.963,217.366,237.735,217.382"/>
	<path style="fill:#FFFFFF;" d="M97.455,83.259c-0.377-0.533-0.721-1.021-1.008-1.436H80.156c1.44,1.758,3.391,4.131,5.758,6.977
		c1.328,1.598,2.787,3.343,4.354,5.205C91.172,91.039,93.492,86.644,97.455,83.259"/>
	<path style="fill:#FFFFFF;" d="M241.229,250.619c1.129-4.645,1.354-9.45,1.35-12.434c0.002-0.191,0-0.365,0-0.541h-18.577
		c-2.843,0.004-5.146,2.308-5.15,5.151v26.833c0.828-0.215,1.803-0.492,2.928-0.871c3.447-1.163,8.109-3.193,12.914-6.646
		C238.067,259.706,240.11,255.277,241.229,250.619"/>
	<path style="fill:#FFFFFF;" d="M263.067,224.911c3.441,3.156,6.127,5.589,7.684,6.991h7.171c-2.166-1.643-4.537-3.685-6.781-6.141
		c-1.668-1.832-4.748-4.749-8.709-8.45h-7.582C257.866,220.123,260.655,222.697,263.067,224.911"/>
	<path style="fill:#FFFFFF;" d="M300.289,237.644h-17.021c1.48,7.395,4.539,24.449,4.543,39.217
		c-0.051,10.221-1.331,19.396-6.34,23.824c-3.797,3.215-10.084,4.994-17.364,6.105c-7.277,1.091-15.545,1.437-23.16,1.437
		c-9.416,0-17.83-0.529-22.096-0.853v11.708c0.004,2.845,2.307,5.147,5.151,5.151h46.189c2.336-3.28,10.184-13.734,18.913-17.609
		c6.66-2.906,12.869-4.162,16.335-4.681v-59.148C305.436,239.953,303.133,237.649,300.289,237.644"/>
	<path style="fill:#FFFFFF;" d="M218.852,304.907c1.211,0.093,2.783,0.204,4.648,0.314c4.53,0.273,10.741,0.544,17.448,0.544
		c7.541,0,15.711-0.346,22.795-1.407c7.082-1.049,13.074-2.893,16.127-5.544c3.89-3.208,5.533-11.954,5.48-21.954
		c0-9.519-1.314-20.146-2.631-28.373c-0.728-4.545-1.453-8.344-1.959-10.844h-7.304c1.017,5.022,2.603,14.375,2.607,23.866
		c-0.018,8.648-1.275,17.449-5.816,23.296c-5.473,6.85-16.807,8.435-27.713,8.483c-9.557-0.004-18.864-1.35-23.682-2.174V304.907z"
		/>
	<path style="fill:#FFFFFF;" d="M290.09,308.881c-6.855,2.964-13.795,11.247-16.854,15.352h27.053
		c2.844-0.004,5.147-2.308,5.151-5.152v-14.648c-0.735,0.115-1.571,0.26-2.516,0.447C299.525,305.56,294.91,306.771,290.09,308.881"
		/>
	<path style="fill:#FFFFFF;" d="M196.645,290.739c-9.23-9.848-32.322-34.173-48.949-51.723c-8.918-9.433-44.311-38.81-54.885-43.839
		L213.11,315.475V305.35C209.795,302.911,203.231,297.761,196.645,290.739"/>
	<path style="fill:#FFFFFF;" d="M169.59,91.434c1.551-2.027,3.371-3.838,5.414-5.37c-1.488-0.437-3.031-0.695-4.644-0.734
		l-0.411-0.005c-0.49,0-0.964,0.022-1.425,0.065L169.59,91.434z"/>
	<path style="fill:#FFFFFF;" d="M219.913,143.803c-4.555-4.602-8.631-9.001-12.156-13.1c-1.895,1.367-3.961,2.517-6.194,3.377v6.157
		l31.194,31.991C231.848,164.462,228.917,152.899,219.913,143.803"/>
	<path style="fill:#FFFFFF;" d="M141.151,107.365c0.102,0.298,0.227,0.619,0.373,0.962c0.051,0.12,0.119,0.258,0.176,0.383
		c0.105,0.233,0.205,0.463,0.33,0.715c0.078,0.16,0.176,0.337,0.264,0.505c0.006,0.014,0.015,0.029,0.021,0.043l21.648,0.069
		c-0.038-0.6-0.068-1.202-0.068-1.811c0-1.909,0.196-3.774,0.565-5.576l-5.442-30.866c-2.676-15.176-17.177-27.522-32.332-27.522
		c-6.982,0-13.06,2.662-17.115,7.493c-4.16,4.957-5.754,11.638-4.488,18.814l1.443,8.19c0.033-0.006,0.07-0.008,0.104-0.015
		c0.638-0.13,1.298-0.23,1.976-0.301c0.055-0.005,0.11-0.012,0.166-0.017c0.664-0.064,1.348-0.097,2.051-0.1
		c0.039,0,0.076-0.006,0.113-0.006c0.166,0,0.332,0.002,0.5,0.006c0.028,0.001,0.055-0.001,0.084,0
		C124.874,78.652,134.567,88.149,141.151,107.365"/>
	<path style="fill:#FFFFFF;" d="M227.565,176.931l-26.002-26.668v0.869c0,5.682-4.623,10.305-10.305,10.305
		c-5.681,0-10.302-4.623-10.302-10.305v-17.313c-7.518-3.108-13.131-9.265-15.625-16.773l-18.561-0.058
		c0.078,0.108,0.164,0.223,0.244,0.334c0.373,0.512,0.758,1.034,1.168,1.575c0.059,0.079,0.123,0.162,0.184,0.242
		c0.461,0.605,0.939,1.225,1.447,1.866c0.008,0.01,0.016,0.02,0.023,0.031c0.549,0.694,1.127,1.409,1.731,2.144
		c0.01,0.013,0.019,0.024,0.029,0.036c0.602,0.731,1.231,1.483,1.887,2.253c0.019,0.024,0.041,0.048,0.061,0.071
		c0.66,0.776,1.349,1.571,2.066,2.385c0.01,0.01,0.017,0.02,0.027,0.029c1.41,1.603,2.94,3.286,4.58,5.04
		c0.088,0.093,0.174,0.186,0.262,0.28c0.756,0.807,1.541,1.632,2.348,2.47c0.17,0.177,0.343,0.358,0.517,0.538
		c0.766,0.792,1.551,1.595,2.36,2.415c0.06,0.061,0.117,0.12,0.177,0.181c0.131,0.132,0.248,0.267,0.377,0.399
		c0.526,0.544,1.034,1.093,1.524,1.648l0.031,0.036c0.02,0.023,0.037,0.043,0.057,0.065c11.195,12.76,13.076,28.34,13.261,35.905
		H227.565z"/>
	<path style="fill:#FFFFFF;" d="M160.907,143.804c-11.588-11.706-20.107-22.123-24.236-29.537c-0.953-1.712-1.672-3.263-2.143-4.633
		c-1.379-4.028-2.889-7.546-4.533-10.56c-4.934-9.045-11.088-13.563-18.643-13.745l-0.408-0.004c-7.873,0-11.746,5.854-13.232,8.918
		l76.039,77.988C172.845,164.466,169.913,152.9,160.907,143.804"/>
	<path style="fill:#FFFFFF;" d="M170.895,108.231c0,9.143,5.863,17.095,14.592,19.786c1.467,0.453,2.469,1.81,2.469,3.345v19.769
		c0,1.823,1.48,3.305,3.302,3.305c1.823,0,3.305-1.482,3.305-3.305v-19.577c0-1.573,1.051-2.954,2.566-3.373
		c8.934-2.471,15.172-10.675,15.172-19.95c0-11.416-9.287-20.703-20.703-20.703S170.895,96.815,170.895,108.231"/>
	<path style="fill:#FFFFFF;" d="M280.87,188.634h-34.174c1.514,5.206,3.362,15.279-1.541,23.678h31.617
		c1.285-0.007,2.231-0.567,3.049-1.815C284.827,202.856,282.147,192.488,280.87,188.634"/>
	<path style="fill:#FFFFFF;" d="M236.954,212.402c0.258-0.072,0.533-0.105,0.785-0.091h0.252c0.977-0.21,1.734-0.787,2.408-1.813
		c3.971-6.064,3.106-13.836,1.942-18.717c-0.145-0.094-0.282-0.201-0.407-0.327l-7.523-7.524h-30.367l14.637,15.592
		C223.075,204.582,231.702,212.291,236.954,212.402"/>
	<path style="fill:#FFFFFF;" d="M303.881,131.211l-25.66,1.315c1.203,3.747,3.74,12.248,4.129,18.434
		c0.4,6.4-2.383,15.799-3.658,19.713l15.619,1.689c1.56-1.674,6.72-7.804,9.695-18.511
		C306.897,143.441,304.758,134.228,303.881,131.211"/>
	<path style="fill:#FFFFFF;" d="M264.377,93.844c-0.746-2.827-0.805-5.339-0.674-7.154l-12.08-12.08
		c0.242,3.175,1.358,7.331,4.822,11.358L264.377,93.844z"/>
	<path style="fill:#FFFFFF;" d="M292.67,71.687c0.289,0,0.574,0.008,0.852,0.023l-9.215-9.171c-1.092-1.144-2.352-2.006-3.571-2.455
		c-0.851-0.315-1.91-0.474-3.144-0.474c-2.141,0-4.137,0.477-4.77,0.644l12.809,12.81l0.994-0.471
		c0.07-0.032,0.143-0.059,0.217-0.082C286.955,72.478,289.66,71.687,292.67,71.687"/>
</g>
</svg>
