<?xml version="1.0" encoding="iso-8859-1"?>
<!-- Generator: Adobe Illustrator 25.4.1, SVG Export Plug-In . SVG Version: 6.00 Build 0)  -->
<svg version="1.1" id="Calque_1" xmlns="http://www.w3.org/2000/svg" xmlns:xlink="http://www.w3.org/1999/xlink" x="0px" y="0px"
	 viewBox="0 0 368.5 368.5" style="enable-background:new 0 0 368.5 368.5;" xml:space="preserve">
<g>
	<path style="fill:#FFFFFF;" d="M276.118,88.446c-0.164-1.191-1.182-2.075-2.383-2.075h-0.014c-1.215,0.009-2.227,0.919-2.374,2.117
		l-16.839,138.378c-0.016,0.099-0.02,0.198-0.02,0.292v96.447c0,0.893,0.495,1.715,1.29,2.129c0.349,0.183,0.734,0.277,1.116,0.277
		c0.482,0,0.961-0.146,1.37-0.428l36.089-25.007c0.648-0.453,1.036-1.189,1.036-1.981v-71.437c0-0.109-0.007-0.224-0.023-0.332
		L276.118,88.446z"/>
	<path style="fill:#FFFFFF;" d="M243.904,227.322l18.885-138.22c0.094-0.687-0.113-1.377-0.573-1.908
		c-0.454-0.522-1.117-0.823-1.811-0.823H94.482c-1.203,0-2.222,0.891-2.385,2.08L73.189,226.833
		c-0.012,0.106-0.021,0.216-0.021,0.322v96.447c0,1.331,1.079,2.407,2.406,2.407h165.924c1.331,0,2.406-1.076,2.406-2.407V227.322z
		 M202.65,308.681c-9.207,0-17.236-4.951-21.635-12.323c-4.399,7.372-12.431,12.323-21.637,12.323
		c-9.204,0-17.234-4.951-21.632-12.323c-4.401,7.372-12.431,12.323-21.64,12.323c-13.92,0-25.203-11.286-25.203-25.207
		c0-12.988,9.822-23.668,22.441-25.047c-0.714-2.333-1.104-4.812-1.104-7.376c0-13.921,11.287-25.205,25.21-25.205
		c7.551,0,14.314,3.339,18.934,8.603v-29.857c-0.146-1.917-0.882-2.928-2.191-2.928h-2.296c-5.919,0-12.215-3.891-12.215-11.101
		v-5.284h10.908c5.958,0,11.187,5.71,11.187,12.214v6.121c2.339-2.016,5.756-3.085,8.364-3.085h10.672v5.083
		c0,5.717-3.52,9.124-9.414,9.124h-5.671c-3.244,0-3.432,2.651-3.439,2.764l0.002,17.041c4.62-5.316,11.416-8.695,19.018-8.695
		c13.919,0,25.208,11.284,25.208,25.205c0,2.564-0.39,5.043-1.106,7.376c12.621,1.379,22.446,12.059,22.446,25.047
		C227.857,297.395,216.569,308.681,202.65,308.681"/>
	<path style="fill:#FFFFFF;" d="M94.55,75.827h175.548c1.33,0,2.406-1.076,2.406-2.406V51.772c0-5.088-4.142-9.226-9.228-9.226
		H101.369c-5.084,0-9.225,4.138-9.225,9.226v21.649C92.144,74.751,93.219,75.827,94.55,75.827"/>
</g>
</svg>
