<?xml version="1.0" encoding="iso-8859-1"?>
<!-- Generator: Adobe Illustrator 25.4.1, SVG Export Plug-In . SVG Version: 6.00 Build 0)  -->
<svg version="1.1" id="Calque_1" xmlns="http://www.w3.org/2000/svg" xmlns:xlink="http://www.w3.org/1999/xlink" x="0px" y="0px"
	 viewBox="0 0 368.5 368.5" style="enable-background:new 0 0 368.5 368.5;" xml:space="preserve">
<g>
	<path style="fill:#FFFFFF;" d="M139.438,54.93h-15.02c-11.183,5.644-43.845,21.371-60.501,21.373c-2.556,0-4.732-0.37-6.399-1.203
		c-2.93-1.466-3.386-3.253-3.253-4.495c0.621-5.779,18.229-11.968,30.827-15.675H46.499v36.027L139.438,54.93z"/>
	<path style="fill:#FFFFFF;" d="M57.248,70.925c-0.044,0.407,0.559,0.965,1.611,1.491c9.211,4.603,40.134-8.443,58.809-17.486
		H96.153c-0.129,0.08-0.266,0.148-0.422,0.187C77.542,59.755,57.657,67.117,57.248,70.925"/>
	<path style="fill:#FFFFFF;" d="M180.037,54.93c-0.141,0.237-0.346,0.44-0.609,0.574c-0.337,0.171-33.966,17.209-55.384,25.676
		c-21.401,8.463-42.088,15.04-42.295,15.105c-0.15,0.048-0.304,0.071-0.453,0.071c-0.637,0-1.228-0.408-1.43-1.047
		c-0.251-0.789,0.187-1.633,0.977-1.883c0.205-0.065,20.797-6.613,42.097-15.035c16.819-6.649,41.25-18.635,50.939-23.461h-1.022
		h-19.586L46.5,96.32v0.394v9.321c1.29,0.628,2.592,1.263,3.863,1.885c0.393,0.193,0.783,0.383,1.168,0.572
		c0.031,0.015,0.065,0.031,0.096,0.046c1.646,0.808,3.199,1.573,4.552,2.246c0.005,0.003,0.009,0.005,0.014,0.008
		c0.446,0.222,0.869,0.434,1.266,0.633c0.011,0.006,0.02,0.011,0.031,0.016c0.393,0.198,0.764,0.385,1.101,0.557
		c0.272,0.139,0.55,0.286,0.831,0.438c0.077,0.042,0.155,0.088,0.232,0.13c0.206,0.114,0.412,0.228,0.62,0.35
		c0.101,0.059,0.202,0.121,0.302,0.181c0.189,0.112,0.375,0.226,0.565,0.345c0.111,0.07,0.22,0.144,0.332,0.217
		c0.179,0.118,0.358,0.236,0.537,0.36c0.116,0.08,0.231,0.164,0.346,0.247c0.173,0.125,0.346,0.253,0.518,0.385
		c0.117,0.09,0.233,0.181,0.35,0.275c0.167,0.134,0.333,0.273,0.497,0.413c0.116,0.1,0.231,0.2,0.345,0.304
		c0.162,0.146,0.321,0.297,0.479,0.45c0.111,0.108,0.223,0.216,0.331,0.328c0.157,0.16,0.309,0.328,0.46,0.497
		c0.103,0.115,0.207,0.228,0.308,0.346c0.153,0.181,0.299,0.37,0.445,0.56c0.091,0.118,0.183,0.232,0.271,0.353
		c0.156,0.215,0.302,0.441,0.449,0.668c0.068,0.106,0.141,0.208,0.208,0.317c0.204,0.337,0.398,0.686,0.579,1.049
		c0.002,0.005,0.005,0.009,0.007,0.014c0.182,0.367,0.348,0.75,0.502,1.145c0.049,0.126,0.088,0.262,0.135,0.391
		c0.098,0.274,0.195,0.55,0.278,0.838c0.047,0.165,0.085,0.339,0.127,0.509c0.067,0.265,0.132,0.532,0.187,0.809
		c0.036,0.19,0.063,0.386,0.094,0.58c0.029,0.191,0.067,0.372,0.091,0.568l74.42-29.016c0.976-2.838,2.739-4.002,4.525-4.36
		c0.088-0.047,0.175-0.095,0.269-0.132l94.87-36.627H180.037z"/>
	<path style="fill:#FFFFFF;" d="M64.022,125.437c-0.527-3.787-2.918-6.538-7.706-8.986c-2.277-1.162-5.989-2.987-9.817-4.853v5.478
		L64.022,125.437z"/>
	<path style="fill:#FFFFFF;" d="M161.677,101.91c-0.562-0.272-1.114-0.541-1.645-0.798c-2.388-1.159-4.424-2.147-5.674-2.761
		c-1.507-0.741-2.76-1.271-3.758-1.595c-0.449-0.127-0.871-0.207-1.237-0.207c-1.243,0-1.617,2.134-1.687,4.214l14.001,6.68V101.91z
		"/>
	<path style="fill:#FFFFFF;" d="M184.961,118.523c-0.061-0.42-0.148-0.825-0.255-1.221c-0.015-0.058-0.028-0.119-0.046-0.177
		c-0.111-0.385-0.249-0.757-0.407-1.121c-0.029-0.068-0.06-0.135-0.091-0.203c-0.167-0.359-0.355-0.709-0.57-1.049
		c-0.033-0.053-0.07-0.104-0.105-0.156c-0.233-0.354-0.486-0.7-0.774-1.035c-0.002-0.003-0.005-0.005-0.007-0.008
		c-0.288-0.334-0.61-0.657-0.955-0.975c-0.049-0.045-0.095-0.091-0.144-0.136c-0.337-0.302-0.704-0.597-1.093-0.886
		c-0.074-0.055-0.149-0.109-0.225-0.164c-0.398-0.286-0.821-0.567-1.275-0.844c-0.071-0.043-0.146-0.085-0.219-0.128
		c-0.484-0.288-0.99-0.572-1.536-0.851c-0.47-0.24-1.002-0.509-1.586-0.802c-0.587-0.294-1.226-0.611-1.903-0.947
		c-2.542-1.26-5.636-2.771-8.644-4.233c-0.149-0.074-0.3-0.147-0.449-0.219v5.507l20.29,9.68
		C184.965,118.544,184.963,118.534,184.961,118.523"/>
	<path style="fill:#FFFFFF;" d="M186.73,94.055c-1.465,0.341-2.523,0.588-3.047,0.737c-2.318,0.662-10.43,3.107-15.604,4.67
		c4.389,2.137,8.857,4.326,11.456,5.654c4.135,2.113,9.512,5.709,10.413,12.985L322,65.589V54.93h-33.273
		c-0.089,0.496-0.42,0.936-0.924,1.134c-0.305,0.121-30.87,12.163-53.676,22.574C214.557,87.573,194.34,92.282,186.73,94.055"/>
	<path style="fill:#FFFFFF;" d="M156.377,93.772c0.062,0.03,0.123,0.06,0.185,0.09c1.245,0.611,3.273,1.596,5.653,2.751
		c0.607,0.295,1.242,0.602,1.889,0.917c4.034-1.221,15.86-4.795,18.754-5.622c0.595-0.17,1.684-0.424,3.192-0.775
		c7.53-1.754,27.535-6.414,46.831-15.223c17.867-8.158,40.465-17.306,49.654-20.98h-25.552L156.377,93.772z"/>
	<path style="fill:#FFFFFF;" d="M100.541,195.288c-0.061-0.431-0.151-0.844-0.261-1.248c-0.014-0.055-0.026-0.11-0.042-0.164
		c-0.112-0.388-0.251-0.762-0.41-1.127c-0.029-0.066-0.058-0.132-0.088-0.197c-0.168-0.361-0.357-0.712-0.573-1.054
		c-0.032-0.052-0.068-0.102-0.103-0.152c-0.233-0.355-0.486-0.703-0.775-1.038c-0.002-0.002-0.004-0.004-0.006-0.006
		c-0.289-0.335-0.612-0.659-0.957-0.978c-0.048-0.044-0.093-0.089-0.142-0.134c-0.338-0.302-0.705-0.597-1.096-0.887
		c-0.072-0.054-0.146-0.108-0.219-0.161c-0.4-0.287-0.824-0.569-1.279-0.846c-0.069-0.042-0.143-0.084-0.214-0.126
		c-0.485-0.288-0.992-0.573-1.539-0.853c-2.467-1.261-6.686-3.33-10.892-5.379c-2.149-1.046-4.296-2.089-6.203-3.014
		c-2.446-1.188-4.535-2.202-5.809-2.827c-1.534-0.754-3.633-1.786-4.979-1.786c-0.059,0-0.101,0.011-0.155,0.016
		c-1.123,0.165-1.479,2.188-1.545,4.182l37.289,17.794C100.543,195.298,100.541,195.293,100.541,195.288"/>
	<path style="fill:#FFFFFF;" d="M147.861,176.189L322,106.697V85.883c-8.629,2.858-26.002,9.5-38.81,20.172
		c-15.018,12.517-59.708,28.087-83.717,36.452c-5.458,1.903-9.768,3.405-12.663,4.49c-0.173,0.065-0.351,0.095-0.526,0.095
		c-0.608,0-1.179-0.371-1.405-0.973c-0.291-0.776,0.102-1.64,0.878-1.931c2.927-1.098,7.252-2.605,12.729-4.514
		c23.829-8.301,68.184-23.756,82.784-35.923C295.107,92.22,313.547,85.417,322,82.709V70.97L71.825,170.455
		c0.105,0.051,0.209,0.103,0.312,0.153c1.111,0.546,2.843,1.388,4.892,2.383c0.293,0.141,0.592,0.287,0.896,0.434
		c2.99,1.452,6.559,3.185,9.822,4.783c2.809-0.859,22.01-6.762,31.638-10.887c10.506-4.503,34.795-11.806,35.825-12.114
		c0.787-0.236,1.63,0.211,1.867,1.005c0.238,0.793-0.212,1.629-1.006,1.868c-0.25,0.075-25.154,7.562-35.504,11.999
		c-8.097,3.468-22.37,8.027-28.897,10.058c1.329,0.659,2.507,1.249,3.442,1.727c4.144,2.118,9.538,5.722,10.421,13.03l38.611-15.502
		C145.081,177.49,146.447,176.564,147.861,176.189"/>
	<path style="fill:#FFFFFF;" d="M185.145,202.569c-0.052-0.288-0.102-0.578-0.179-0.855c-0.013-0.054-0.026-0.111-0.042-0.165
		c-0.112-0.386-0.251-0.76-0.409-1.126c-0.029-0.066-0.058-0.132-0.09-0.199c-0.167-0.359-0.355-0.71-0.57-1.051
		c-0.033-0.052-0.07-0.103-0.104-0.156c-0.234-0.353-0.488-0.7-0.775-1.035c-0.002-0.002-0.004-0.003-0.005-0.005
		c-0.29-0.336-0.614-0.661-0.96-0.98c-0.047-0.043-0.091-0.087-0.138-0.13c-0.34-0.305-0.709-0.602-1.104-0.894
		c-0.068-0.05-0.138-0.101-0.208-0.152c-0.403-0.29-0.831-0.574-1.29-0.854c-0.063-0.039-0.131-0.077-0.195-0.115
		c-0.49-0.291-1.001-0.578-1.553-0.859c-3.721-1.901-11.432-5.644-17.062-8.377c-1.696-0.824-3.215-1.562-4.418-2.149
		c-0.542-0.263-1.026-0.5-1.423-0.695c-1.534-0.753-3.634-1.784-4.978-1.784c-0.064,0-0.111,0.012-0.169,0.017
		c-1.112,0.179-1.467,2.195-1.533,4.18l36.785,17.551L185.145,202.569z"/>
	<path style="fill:#FFFFFF;" d="M269.679,149.599c0.256,0.079,0.91,0.196,2.329,0.029c13.279-1.561,39.623-11.929,49.992-16.169
		v-16.648C297.541,125.128,270.322,145.316,269.679,149.599"/>
	<path style="fill:#FFFFFF;" d="M270.765,152.708c-2.357,0-3.712-0.785-4.037-2.343c-0.965-4.619,11.714-13.682,19.358-18.674
		c12.085-7.89,25.331-14.534,35.914-18.045v-1.566l-165.499,66.045c0.11,0.053,0.217,0.105,0.324,0.158
		c1.277,0.628,3.376,1.647,5.833,2.839c5.645,2.741,13.376,6.495,17.14,8.417c3.773,1.927,8.568,5.094,10.068,11.155L322,148.23
		v-11.522c-11.159,4.545-36.306,14.332-49.641,15.899C271.785,152.676,271.253,152.708,270.765,152.708"/>
	<path style="fill:#FFFFFF;" d="M147.648,259.065c-0.06-0.429-0.15-0.841-0.259-1.244c-0.015-0.056-0.027-0.111-0.043-0.166
		c-0.112-0.387-0.251-0.761-0.41-1.126c-0.029-0.067-0.059-0.133-0.089-0.198c-0.167-0.361-0.356-0.712-0.571-1.053
		c-0.033-0.052-0.069-0.103-0.104-0.154c-0.234-0.354-0.487-0.701-0.775-1.037c-0.002-0.001-0.004-0.002-0.005-0.004
		c-0.289-0.336-0.614-0.662-0.96-0.981c-0.047-0.043-0.091-0.087-0.139-0.13c-0.338-0.304-0.707-0.601-1.101-0.892
		c-0.068-0.052-0.139-0.103-0.21-0.155c-0.403-0.289-0.829-0.573-1.288-0.851c-0.065-0.04-0.133-0.078-0.199-0.117
		c-0.488-0.291-0.998-0.578-1.549-0.859c-2.678-1.368-7.42-3.689-11.968-5.902c-1.766-0.86-3.503-1.702-5.076-2.466
		c-1.157-0.561-2.232-1.083-3.183-1.546c-1.077-0.524-1.996-0.971-2.678-1.306c-1.532-0.754-3.631-1.786-4.979-1.786
		c-0.062,0-0.106,0.012-0.163,0.016c-1.117,0.174-1.472,2.192-1.538,4.181l37.29,17.794
		C147.65,259.083,147.648,259.071,147.648,259.065"/>
	<path style="fill:#FFFFFF;" d="M118.938,234.238c0.104,0.051,0.207,0.102,0.309,0.152c1.232,0.605,3.232,1.577,5.578,2.715
		c0.156-0.203,0.363-0.371,0.618-0.474c0.312-0.126,31.519-12.666,55.453-18.65c16.861-4.215,29.066-15.885,34.566-22.069
		L118.938,234.238z"/>
	<path style="fill:#FFFFFF;" d="M182.449,244.521L322,188.955V178.52c-2.651,1.263-8.203,3.249-19.867,6.81
		c-13.683,4.177-27.579,7.898-37.17,9.954c-22.078,4.731-42.216,16.417-55.222,25.386c-12.211,8.422-52.567,21.048-66.806,25.351
		c4.027,2.163,8.873,5.759,9.706,12.655l25.816-10.364C179.387,245.998,180.892,244.932,182.449,244.521"/>
	<path style="fill:#FFFFFF;" d="M264.334,192.35c20.929-4.485,54.226-14.995,57.361-16.982c0.084-0.119,0.19-0.219,0.305-0.309
		v-21.45l-100.812,40.028c-0.008,0.014-0.013,0.027-0.022,0.04c-0.608,0.859-15.171,21.121-39.542,27.214
		c-20.598,5.149-46.663,15.21-53.401,17.864c3.672,1.784,7.696,3.746,10.824,5.298c9.989-2.984,56.279-17.085,68.991-25.851
		C221.268,209.077,241.774,197.185,264.334,192.35"/>
	<path style="fill:#FFFFFF;" d="M219.781,271.155c-0.059-0.378-0.134-0.746-0.23-1.104c-0.015-0.056-0.028-0.113-0.043-0.168
		c-0.113-0.386-0.25-0.759-0.409-1.123c-0.03-0.068-0.06-0.136-0.091-0.204c-0.166-0.358-0.354-0.708-0.569-1.046
		c-0.035-0.055-0.072-0.108-0.108-0.162c-0.233-0.352-0.484-0.697-0.771-1.03c-0.004-0.005-0.009-0.01-0.013-0.015
		c-0.286-0.331-0.606-0.652-0.948-0.967c-0.049-0.046-0.096-0.093-0.147-0.138c-0.337-0.303-0.703-0.597-1.093-0.887
		c-0.073-0.053-0.146-0.107-0.221-0.161c-0.401-0.287-0.825-0.569-1.281-0.847c-0.066-0.041-0.137-0.08-0.205-0.121
		c-0.487-0.289-0.996-0.575-1.546-0.855c-3.714-1.898-11.407-5.632-17.024-8.359c-2.476-1.203-4.593-2.23-5.878-2.862
		c-1.531-0.753-3.627-1.784-4.979-1.784c-0.067,0-0.116,0.012-0.176,0.018c-1.107,0.186-1.459,2.196-1.527,4.177l37.098,17.701
		L219.781,271.155z"/>
	<path style="fill:#FFFFFF;" d="M191.41,246.619c1.256,0.617,3.313,1.615,5.72,2.784l30.876-10.292
		c0.785-0.263,1.636,0.163,1.897,0.949c0.262,0.786-0.162,1.635-0.948,1.897l-27.965,9.321c4.441,2.16,9.295,4.53,12.397,6.093
		L322,216.058v-11.3c-10.611,4.322-51.839,21.169-59.16,25.045c-0.224,0.119-0.464,0.174-0.701,0.174
		c-0.538,0-1.058-0.29-1.327-0.797c-0.387-0.733-0.108-1.641,0.623-2.028c7.846-4.154,52.016-22.158,60.565-25.633v-7.182
		l-130.91,52.125C191.198,246.515,191.305,246.567,191.41,246.619"/>
	<path style="fill:#FFFFFF;" d="M218.826,260.652c2.516,1.97,4.783,4.698,5.684,8.62L322,230.454v-9.047L218.826,260.652z"/>
	<path style="fill:#FFFFFF;" d="M217.898,313.552c-0.061-0.428-0.15-0.84-0.259-1.243c-0.014-0.056-0.028-0.112-0.044-0.168
		c-0.111-0.385-0.25-0.758-0.408-1.122c-0.029-0.068-0.059-0.136-0.091-0.203c-0.167-0.359-0.354-0.708-0.569-1.047
		c-0.034-0.055-0.072-0.109-0.108-0.162c-0.232-0.352-0.484-0.696-0.769-1.029c-0.006-0.006-0.014-0.013-0.02-0.02
		c-0.283-0.328-0.601-0.648-0.939-0.96c-0.052-0.048-0.1-0.097-0.153-0.144c-0.335-0.3-0.7-0.593-1.087-0.881
		c-0.075-0.056-0.152-0.112-0.229-0.167c-0.398-0.287-0.818-0.567-1.27-0.841c-0.073-0.044-0.149-0.088-0.223-0.132
		c-0.483-0.287-0.988-0.571-1.533-0.85c-0.657-0.336-1.444-0.731-2.318-1.167v5.37l10.024,4.784
		C217.9,313.564,217.899,313.558,217.898,313.552"/>
	<path style="fill:#FFFFFF;" d="M204.878,301.932c-0.744-0.366-1.517-0.744-2.307-1.131c-3.145-1.54-6.554-3.195-9.423-4.588
		c-0.07-0.033-0.135-0.065-0.204-0.098c-1.107-0.537-2.138-1.038-3.05-1.482c-1.045-0.508-1.937-0.942-2.602-1.269
		c-1.531-0.753-3.629-1.784-4.976-1.784c-0.066,0-0.114,0.011-0.172,0.017c-1.112,0.181-1.465,2.195-1.532,4.18l24.266,11.578
		V301.932z"/>
	<path style="fill:#FFFFFF;" d="M189.181,288.72c0.106,0.053,0.212,0.105,0.316,0.155c1.222,0.601,3.201,1.562,5.521,2.688
		c0.254-0.468,0.744-0.789,1.313-0.789c0.242,0,24.286-0.127,37.78-10.249c7.803-5.853,13.754-12.223,17.444-16.641L189.181,288.72z
		"/>
	<path style="fill:#FFFFFF;" d="M322,248.465c-5.997,3.104-35.311,18.335-53.579,29.029c-20.288,11.875-46.901,22.763-52.864,23.307
		c-0.573,0.052-1.118,0.084-1.648,0.107c3.861,2.202,8.196,5.764,8.982,12.244L322,273.015V248.465z"/>
	<path style="fill:#FFFFFF;" d="M257.15,261.657c-2.752,3.729-10.088,12.905-21.239,21.269
		c-11.495,8.623-29.412,10.391-36.536,10.753c2.574,1.251,5.264,2.564,7.666,3.746c0.853,0.196,3.898,0.784,8.243,0.388
		c4.932-0.449,30.714-10.669,51.621-22.908c20.394-11.938,54.484-29.501,54.826-29.678c0.087-0.045,0.178-0.078,0.269-0.104v-9.287
		L257.15,261.657z"/>
</g>
</svg>
