<?xml version="1.0" encoding="iso-8859-1"?>
<!-- Generator: Adobe Illustrator 25.4.1, SVG Export Plug-In . SVG Version: 6.00 Build 0)  -->
<svg version="1.1" id="Calque_1" xmlns="http://www.w3.org/2000/svg" xmlns:xlink="http://www.w3.org/1999/xlink" x="0px" y="0px"
	 viewBox="0 0 368.5 368.5" style="enable-background:new 0 0 368.5 368.5;" xml:space="preserve">
<polygon style="fill:#FFFFFF;" points="42.871,286.453 50.329,267.538 45.472,267.538 "/>
<polygon style="fill:#FFFFFF;" points="210.435,287.568 218.968,267.539 213.429,267.539 "/>
<polygon style="fill:#FFFFFF;" points="152.627,287.559 161.156,267.538 155.623,267.538 "/>
<polygon style="fill:#FFFFFF;" points="94.823,287.559 103.356,267.538 97.819,267.538 "/>
<polygon style="fill:#FFFFFF;" points="149.22,81.218 63.611,264.531 67.008,287.257 152.621,103.933 "/>
<g>
	<path style="fill:#FFFFFF;" d="M208.588,262.051l72.27-154.74h-7.217l-87.573,187.504h16.895l4.619-30.904
		C207.693,263.167,208.067,262.527,208.588,262.051"/>
	<polygon style="fill:#FFFFFF;" points="326.004,103.677 322.646,81.21 237.029,264.537 240.411,287.132 	"/>
	<path style="fill:#FFFFFF;" d="M245.72,73.715l-8.825,18.895l-5.763,12.835c-0.16,0.356-0.395,0.654-0.662,0.92l-72.322,154.853
		h15.641l87.572-187.503H245.72z"/>
	<path style="fill:#FFFFFF;" d="M303.526,73.715L294.8,92.4l-5.854,13.045c-0.162,0.362-0.403,0.664-0.674,0.932l-72.316,154.841
		h15.645l87.568-187.503H303.526z"/>
	<polygon style="fill:#FFFFFF;" points="264.836,81.214 179.225,264.52 182.624,287.248 268.235,103.943 	"/>
	<path style="fill:#FFFFFF;" d="M187.916,73.715l-8.856,18.963l-5.734,12.767c-0.158,0.354-0.393,0.65-0.658,0.917l-72.324,154.856
		h15.641l87.572-187.503H187.916z"/>
	<polygon style="fill:#FFFFFF;" points="145.747,73.715 130.108,73.715 42.54,261.218 58.181,261.218 	"/>
	<path style="fill:#FFFFFF;" d="M92.974,262.057l72.272-154.746h-7.226L70.455,294.815h16.893l4.623-30.906
		C92.08,263.17,92.454,262.532,92.974,262.057"/>
	<path style="fill:#FFFFFF;" d="M150.777,262.057l72.273-154.746h-7.218l-87.568,187.504h16.886l4.625-30.906
		C149.884,263.17,150.258,262.532,150.777,262.057"/>
	<polygon style="fill:#FFFFFF;" points="207.03,81.215 121.417,264.529 124.816,287.258 210.431,103.933 	"/>
</g>
</svg>
