<?xml version="1.0" encoding="iso-8859-1"?>
<!-- Generator: Adobe Illustrator 25.4.1, SVG Export Plug-In . SVG Version: 6.00 Build 0)  -->
<svg version="1.1" id="Calque_1" xmlns="http://www.w3.org/2000/svg" xmlns:xlink="http://www.w3.org/1999/xlink" x="0px" y="0px"
	 viewBox="0 0 368.5 368.5" style="enable-background:new 0 0 368.5 368.5;" xml:space="preserve">
<g>
	<path style="fill:#FFFFFF;" d="M208.503,232.739c-0.884,2.483-1.464,4.991-1.76,7.431h6.166c9.888,0,18.184,6.202,20.455,14.53
		c11.662,6.347,19.594,18.707,19.612,32.887h53.964c10.865,0,19.703-8.84,19.703-19.704v-67.138c0-8.782-8.092-18.993-18.524-18.993
		c-2.453,0-4.954,0.553-7.437,1.645l-72.524,28.845C221.165,219.539,214.515,226.474,208.503,232.739"/>
	<path style="fill:#FFFFFF;" d="M107.15,300.508c-0.695,1.887-1.514,3.713-2.488,5.445h78.192c-0.975-1.732-1.794-3.558-2.489-5.445
		H107.15z"/>
	<path style="fill:#FFFFFF;" d="M83.743,212.224c0-8.319,6.767-15.086,15.083-15.086h3.287c0.436-0.946,1.018-1.811,1.739-2.549
		c-0.81-0.827-1.459-1.807-1.903-2.896h-3.123c-11.318,0-20.528,9.211-20.528,20.531c0,10.958,8.637,19.912,19.457,20.474v-5.444
		C89.938,226.701,83.743,220.18,83.743,212.224"/>
	<path style="fill:#FFFFFF;" d="M173.483,240.17l2.437-2.538v-13.188c0-7.341-5.971-13.312-13.31-13.312h-46.099
		c-7.341,0-13.312,5.971-13.312,13.312v15.726H173.483z"/>
	<path style="fill:#FFFFFF;" d="M178.038,287.633c0-20.66,16.809-37.469,37.469-37.469c3.605,0,7.082,0.541,10.386,1.496
		c-2.813-3.644-7.582-6.045-12.984-6.045h-16.763c-5.9,6.144-10.517,10.952-13.296,13.845c-0.957,0.996-1.696,1.765-2.194,2.285
		l-0.759,0.79c-1.914,1.99-4.491,3.087-7.256,3.087c-2.61,0-5.085-0.996-6.967-2.805c-3.993-3.846-4.12-10.22-0.285-14.216
		l-0.004,0.003c0,0,0.004-0.003,0.009-0.01l-0.005,0.007c0.01-0.007,0.751-0.785,2.063-2.15l0.803-0.836H74.551
		c-5.411,0-10.189,2.41-13,6.063c3.323-0.968,6.826-1.514,10.457-1.514c20.66,0,37.469,16.809,37.469,37.469
		c0,1.292-0.066,2.57-0.193,3.828h68.947C178.104,290.203,178.038,288.925,178.038,287.633"/>
	<path style="fill:#FFFFFF;" d="M100.402,287.633c0-15.657-12.737-28.395-28.394-28.395c-15.659,0-28.397,12.738-28.397,28.395
		c0,15.659,12.738,28.396,28.397,28.396C87.665,316.029,100.402,303.292,100.402,287.633 M56.879,287.633
		c0-8.339,6.786-15.122,15.129-15.122c8.339,0,15.121,6.783,15.121,15.122c0,8.339-6.782,15.122-15.121,15.122
		C63.665,302.755,56.879,295.972,56.879,287.633"/>
	<path style="fill:#FFFFFF;" d="M243.903,287.633c0-15.656-12.737-28.394-28.396-28.394c-15.657,0-28.395,12.738-28.395,28.394
		c0,15.659,12.738,28.397,28.395,28.397C231.166,316.03,243.903,303.292,243.903,287.633 M215.507,302.755
		c-8.341,0-15.125-6.783-15.125-15.122c0-8.338,6.784-15.121,15.125-15.121c8.341,0,15.125,6.783,15.125,15.121
		C230.632,295.972,223.848,302.755,215.507,302.755"/>
	<path style="fill:#FFFFFF;" d="M169.876,191.863c1.962,0,3.559-1.597,3.559-3.561c0-1.969-1.597-3.569-3.559-3.569h-59.59
		c-1.968,0-3.569,1.6-3.569,3.569c0,1.964,1.601,3.561,3.569,3.561H169.876z"/>
	<path style="fill:#FFFFFF;" d="M169.871,204.44c1.965,0,3.564-1.599,3.564-3.562c0-1.966-1.599-3.566-3.564-3.566h-59.584
		c-1.968,0-3.568,1.6-3.568,3.566c0,1.963,1.6,3.562,3.568,3.562H169.871z"/>
	<path style="fill:#FFFFFF;" d="M319.359,108.457c5.023-5.587,7.761-12.227,7.717-18.707c-0.154-11.795-7.432-20.32-13.511-25.389
		c-8.863-7.289-13.524-10.666-14.028-11.026c-0.788-0.563-1.714-0.861-2.676-0.861c-1.489,0-2.896,0.723-3.759,1.937
		c-0.718,1.003-1.001,2.221-0.799,3.435c0.203,1.218,0.868,2.283,1.873,3.001l0.792,0.577c1.521,1.126,5.803,4.357,12.757,10.071
		c5.167,4.149,10.317,11.433,10.126,18.313c-0.069,4.47-1.725,8.336-5.37,12.504c-7.175,8.08-50.985,53.916-76.463,80.521
		c-17.085,17.846-33.757,35.225-46.165,48.153l-20.519,21.367c-1.777,1.847-1.719,4.775,0.116,6.542
		c1.775,1.703,4.818,1.639,6.52-0.132l0.035,0.034c0.534-0.627,1.427-1.556,2.918-3.108c8.753-9.114,35.703-37.174,63.759-66.476
		C288.012,141.869,313.81,114.699,319.359,108.457"/>
</g>
</svg>
