<?xml version="1.0" encoding="iso-8859-1"?>
<!-- Generator: Adobe Illustrator 25.4.1, SVG Export Plug-In . SVG Version: 6.00 Build 0)  -->
<svg version="1.1" id="Calque_1" xmlns="http://www.w3.org/2000/svg" xmlns:xlink="http://www.w3.org/1999/xlink" x="0px" y="0px"
	 viewBox="0 0 368.5 368.5" style="enable-background:new 0 0 368.5 368.5;" xml:space="preserve">
<g>
	<path style="fill:#FFFFFF;" d="M45.139,146.932h94.963c0.335,0,0.638-0.186,0.79-0.486l36.321-71.812
		c0.176-0.344,0.105-0.763-0.172-1.032c-0.169-0.164-0.393-0.25-0.614-0.25c-0.145,0-0.293,0.038-0.424,0.11L44.715,145.274
		c-0.355,0.195-0.531,0.602-0.431,0.994C44.384,146.658,44.736,146.932,45.139,146.932"/>
	<path style="fill:#FFFFFF;" d="M150.794,146.512c0.159,0.262,0.445,0.421,0.751,0.421h170.634c0.403,0,0.755-0.274,0.855-0.664
		c0.1-0.393-0.079-0.8-0.433-0.994l-133.655-73.11c-0.131-0.072-0.276-0.11-0.425-0.11c-0.086,0-0.175,0.015-0.261,0.041
		c-0.228,0.071-0.417,0.231-0.524,0.445l-36.98,73.109C150.618,145.924,150.632,146.252,150.794,146.512"/>
	<path style="fill:#FFFFFF;" d="M56.637,215.034c0-0.489-0.393-0.882-0.882-0.882H43.402c-0.486,0-0.883,0.393-0.883,0.882v74.416
		c0,3.893,3.168,7.059,7.059,7.059c3.893,0,7.059-3.166,7.059-7.059V215.034z"/>
	<path style="fill:#FFFFFF;" d="M148.45,289.45c0,3.893,3.167,7.059,7.059,7.059c3.893,0,7.059-3.166,7.059-7.059v-74.416
		c0-0.489-0.393-0.882-0.883-0.882h-12.353c-0.486,0-0.882,0.393-0.882,0.882V289.45z"/>
	<path style="fill:#FFFFFF;" d="M325.102,214.152h-12.353c-0.489,0-0.882,0.393-0.882,0.882v74.416c0,3.893,3.166,7.059,7.059,7.059
		c3.891,0,7.058-3.166,7.058-7.059v-74.416C325.984,214.545,325.586,214.152,325.102,214.152"/>
	<path style="fill:#FFFFFF;" d="M43.402,205.328h12.353c0.489,0,0.882-0.396,0.882-0.882v-5.922c0-12.039,9.799-21.84,21.842-21.84
		h60.265c0.49,0,0.883-0.394,0.883-0.882v-20.93c0-0.486-0.393-0.883-0.883-0.883H43.402c-0.486,0-0.882,0.397-0.882,0.883v9.211
		v9.532v2.187v22.722v5.922C42.52,204.932,42.916,205.328,43.402,205.328"/>
	<path style="fill:#FFFFFF;" d="M148.45,154.872v18.743v2.187v28.644c0,0.486,0.396,0.882,0.882,0.882h12.353
		c0.49,0,0.883-0.396,0.883-0.882v-6.19c0.143-11.891,9.933-21.572,21.827-21.572h105.65c11.821,0,21.609,9.622,21.821,21.448v6.314
		c0,0.486,0.393,0.882,0.883,0.882h12.353c0.484,0,0.882-0.396,0.882-0.882v-28.644v-2.187v-18.743c0-0.486-0.398-0.882-0.882-0.882
		h-175.77C148.846,153.99,148.45,154.386,148.45,154.872"/>
</g>
</svg>
