<?xml version="1.0" encoding="iso-8859-1"?>
<!-- Generator: Adobe Illustrator 25.4.1, SVG Export Plug-In . SVG Version: 6.00 Build 0)  -->
<svg version="1.1" id="Calque_1" xmlns="http://www.w3.org/2000/svg" xmlns:xlink="http://www.w3.org/1999/xlink" x="0px" y="0px"
	 viewBox="0 0 368.5 368.5" style="enable-background:new 0 0 368.5 368.5;" xml:space="preserve">
<g>
	<path style="fill:#FFFFFF;" d="M63.542,80.241c0.205,0.269,0.453,0.502,0.733,0.691l22.836,15.361l111.006,111.003l9.897-9.9
		l-111-110.999L81.747,63.478c-0.189-0.285-0.425-0.536-0.696-0.745L55.399,43.165c-1.231-0.941-2.969-0.824-4.064,0.271
		l-7.094,7.088c-1.096,1.096-1.212,2.833-0.272,4.065L63.542,80.241z"/>
	<path style="fill:#FFFFFF;" d="M187.398,226.764c-3.556,3.563-3.518,9.391,0.089,12.995c1.762,1.761,4.097,2.729,6.572,2.729
		c1.412,0,2.818-0.329,4.066-0.95c0.435-0.217,0.909-0.324,1.38-0.324c0.481,0,0.963,0.113,1.404,0.338
		c0.874,0.443,1.484,1.276,1.647,2.242c1.213,7.216,4.595,13.77,9.777,18.954l52.968,52.965c6.629,6.629,15.442,10.281,24.82,10.282
		c9.377,0,18.193-3.652,24.821-10.282c6.631-6.626,10.28-15.441,10.28-24.818c-0.002-9.377-3.653-18.192-10.284-24.825
		l-52.962-52.963c-5.144-5.149-11.658-8.523-18.836-9.756c-0.979-0.169-1.819-0.797-2.254-1.689
		c-0.437-0.892-0.418-1.938,0.049-2.815c1.883-3.537,1.2-8.006-1.664-10.87c-1.766-1.764-4.104-2.736-6.582-2.736
		c-2.431,0-4.709,0.941-6.417,2.648L187.398,226.764z M284.792,304.135c-1.008,1.006-2.327,1.509-3.646,1.509
		s-2.638-0.503-3.646-1.51l-59.137-59.143c-2.014-2.013-2.014-5.278,0-7.29c2.014-2.014,5.277-2.015,7.291,0l59.138,59.142
		C286.805,298.857,286.805,302.121,284.792,304.135 M238.254,217.805c2.014-2.014,5.277-2.014,7.291,0l59.142,59.145
		c2.014,2.013,2.014,5.277,0,7.292c-1.007,1.006-2.327,1.509-3.646,1.509s-2.638-0.503-3.645-1.509l-59.142-59.146
		C236.24,223.083,236.24,219.819,238.254,217.805"/>
</g>
</svg>
