<?xml version="1.0" encoding="iso-8859-1"?>
<!-- Generator: Adobe Illustrator 25.4.1, SVG Export Plug-In . SVG Version: 6.00 Build 0)  -->
<svg version="1.1" id="Calque_1" xmlns="http://www.w3.org/2000/svg" xmlns:xlink="http://www.w3.org/1999/xlink" x="0px" y="0px"
	 viewBox="0 0 368.5 368.5" style="enable-background:new 0 0 368.5 368.5;" xml:space="preserve">
<g>
	<path style="fill:#FFFFFF;" d="M115.423,178.315c4.941-1.113,10.144-2.115,15.579-2.991v-15.926
		c-5.31,0.808-10.519,1.741-15.579,2.8V178.315z"/>
	<path style="fill:#FFFFFF;" d="M57.771,177.763c3.485,0,6.305-2.823,6.305-6.305v-39.701c0-9.376,7.631-17.004,17.008-17.004
		c9.373,0,17.003,7.628,17.003,17.004v70.549c0,3.482,2.818,6.305,6.304,6.305c3.479,0,6.305-2.823,6.305-6.305v-70.549
		c0-16.33-13.286-29.613-29.612-29.613c-16.333,0-29.618,13.283-29.618,29.613v39.701C51.466,174.94,54.292,177.763,57.771,177.763"
		/>
	<path style="fill:#FFFFFF;" d="M112.419,108.448c0,3.482,2.823,6.305,6.305,6.305c9.377,0,17.005,7.628,17.005,17.004v61.717
		c0,3.48,2.823,6.304,6.305,6.304c3.482,0,6.305-2.824,6.305-6.304v-61.717c0-16.33-13.286-29.614-29.615-29.614
		C115.242,102.143,112.419,104.968,112.419,108.448"/>
	<path style="fill:#FFFFFF;" d="M315.925,257.977c3.979,0,7.204-3.226,7.204-7.205v-43.733c0-12.949-7.592-63.353-18.565-68.552
		c-0.454,0.151-0.924,0.256-1.416,0.256h-25.876c-0.271,0-0.531-0.041-0.792-0.086c-10.782,5.268-18.21,55.572-18.21,68.382v43.733
		c0,3.979,3.225,7.205,7.205,7.205H315.925z M266.511,211.519c0-1.353,1.096-2.45,2.451-2.45c1.353,0,2.45,1.097,2.45,2.45v34.756
		c0,1.353-1.097,2.45-2.45,2.45c-1.355,0-2.451-1.097-2.451-2.45V211.519z"/>
	<path style="fill:#FFFFFF;" d="M302.092,120.453c-0.105-0.545-0.487-0.977-0.985-1.159c-0.167-0.062-0.345-0.094-0.53-0.094
		h-20.734c-0.185,0-0.364,0.032-0.529,0.094c-0.5,0.182-0.883,0.614-0.988,1.159l-2.57,13.519c-0.021,0.113-0.031,0.228-0.027,0.341
		c0.012,0.337,0.134,0.666,0.354,0.931c0.294,0.354,0.729,0.559,1.189,0.559h25.876c0.459,0,0.895-0.205,1.188-0.559
		c0.293-0.353,0.413-0.819,0.327-1.272l-2.327-12.233L302.092,120.453z"/>
</g>
<path style="fill:#FFFFFF;" d="M254.35,212.439c-19.785-6.345-44.72-10.134-71.837-10.134c-43.928,0-82.15,9.931-101.984,24.59
	c4.216,2.167,9.327,4.356,15.509,6.486c23.485,8.093,54.195,12.549,86.475,12.549c25.94,0,50.859-2.883,71.837-8.214V212.439z"/>
<g>
	<path style="fill:#FFFFFF;" d="M257.412,180.215c0.842-5.059,1.866-10.358,3.078-15.484c-23.438-6.031-51.044-9.141-77.978-9.141
		c-9.804,0-19.695,0.416-29.444,1.23v15.795c9.374-0.811,19.212-1.263,29.444-1.263
		C211.227,171.352,236.968,174.832,257.412,180.215z"/>
	<path style="fill:#FFFFFF;" d="M254.35,250.772v-8.192c-19.929,4.935-44.54,8.08-71.838,8.08
		c-59.479,0-106.267-14.904-119.435-30.805c-2.442-2.943-3.73-5.924-3.73-8.847c0-2.926,1.288-5.906,3.73-8.848
		c5.222-6.314,15.771-12.463,30.281-17.588v-16.639c-29.32,9.337-49.773,23.836-49.773,43.075
		c0,35.992,71.581,55.414,138.927,55.414c25.661,0,51.933-2.823,74.628-8.305C255.409,256.154,254.35,253.587,254.35,250.772z"/>
</g>
</svg>
