<?xml version="1.0" encoding="iso-8859-1"?>
<!-- Generator: Adobe Illustrator 25.4.1, SVG Export Plug-In . SVG Version: 6.00 Build 0)  -->
<svg version="1.1" id="Calque_1" xmlns="http://www.w3.org/2000/svg" xmlns:xlink="http://www.w3.org/1999/xlink" x="0px" y="0px"
	 viewBox="0 0 368.5 368.5" style="enable-background:new 0 0 368.5 368.5;" xml:space="preserve">
<g>
	<path style="fill:#FFFFFF;" d="M247.391,76.849c-0.75,0.151-1.526,0.234-2.318,0.234h-27.789c-1.461,0-2.857-0.281-4.156-0.772
		c-10.376,7.702-25.799,44.112-25.799,56.28v8.102c5.21,6.917,8.065,15.989,8.065,25.691c0,9.708-2.857,18.781-8.065,25.693v25.761
		l25.349,23.284c1.084,0.953,2.366,2.445,2.424,5.344l0.404,60.087h36.551c11.27,0,20.437-9.502,20.437-21.182v-91.769
		c-5.885-6.968-9.238-16.807-9.238-27.218c0-10.404,3.353-20.239,9.238-27.21v-6.583C272.494,120.693,257.746,85.604,247.391,76.849
		 M257.171,191.289H201.15c-1.767,0-3.201-1.434-3.201-3.201c0-1.77,1.434-3.201,3.201-3.201h56.021
		c1.767,0,3.201,1.431,3.201,3.201C260.372,189.855,258.938,191.289,257.171,191.289 M257.171,176.054H201.15
		c-1.767,0-3.201-1.433-3.201-3.201c0-1.769,1.434-3.201,3.201-3.201h56.021c1.767,0,3.201,1.432,3.201,3.201
		C260.372,174.621,258.938,176.054,257.171,176.054 M257.171,160.823H201.15c-1.767,0-3.201-1.435-3.201-3.201
		c0-1.77,1.434-3.201,3.201-3.201h56.021c1.767,0,3.201,1.431,3.201,3.201C260.372,159.388,258.938,160.823,257.171,160.823
		 M260.372,142.383c0,1.768-1.434,3.201-3.201,3.201H201.15c-1.767,0-3.201-1.433-3.201-3.201c0-1.767,1.434-3.201,3.201-3.201
		h56.021C258.938,139.182,260.372,140.616,260.372,142.383"/>
	<path style="fill:#FFFFFF;" d="M245.074,70.681c3.103,0,5.629-2.648,5.629-5.903V48.437c0-3.254-2.526-5.901-5.629-5.901h-27.79
		c-3.103,0-5.626,2.647-5.626,5.901v16.341c0,3.255,2.523,5.903,5.626,5.903H245.074z"/>
	<path style="fill:#FFFFFF;" d="M146.944,263.286c4.233-4.665,3.985-11.216,3.418-14.866l-17.047,0.128
		c-0.586,0.008-0.652,0.384-0.655,0.539l0.125,17.862C135.474,267.629,142.126,268.595,146.944,263.286"/>
	<path style="fill:#FFFFFF;" d="M155.555,272.537c-6.865,7.227-18.783,9.095-22.661,9.526l0.14,19.764
		c5.833-0.686,21.004-3.9,34.579-19.025c13.829-15.405,12.445-29.698,11.407-34.599l-17.301,0.131
		C162.065,252.641,162.411,265.322,155.555,272.537"/>
	<path style="fill:#FFFFFF;" d="M178.493,307.069c-15.87-2.291-38.445,4.182-45.379,6.352l0.09,12.561
		c0.15,0.007,0.288,0.019,0.446,0.019l0.34-0.005l66.753-0.474C197.651,319.05,190.899,308.858,178.493,307.069"/>
	<path style="fill:#FFFFFF;" d="M98.629,289.319l28.382,33.122l-0.132-18.611c-2.55-2.093-7.373-6.222-13.083-11.946
		c-4.272-4.287-6.783-7.235-8.807-9.608c-2.021-2.377-3.486-4.099-5.754-6.054c-0.512-0.446-0.575-1.223-0.125-1.739
		c0.442-0.515,1.222-0.574,1.739-0.126c2.411,2.075,4.005,3.95,6.024,6.319c1.99,2.341,4.468,5.249,8.672,9.464
		c4.618,4.634,8.636,8.194,11.311,10.461l-0.362-51.515c0.021-3.276,2.557-6.647,6.754-6.707l12.764-0.096l-29.884-28.7
		c-0.489-0.473-0.508-1.251-0.039-1.742c0.475-0.491,1.254-0.509,1.748-0.037l31.708,30.452l4.389-0.033l-26.304-25.2
		c-0.494-0.471-0.509-1.255-0.038-1.743c0.471-0.493,1.251-0.514,1.742-0.04l28.138,26.958l18.576-0.141l-22.869-23.936
		c-0.467-0.49-0.45-1.272,0.04-1.737c0.493-0.474,1.275-0.455,1.744,0.036l24.474,25.611l28.525-0.214l-32.58-29.929
		c-0.04-0.028-0.069-0.067-0.1-0.094c-0.955-1.026-1.997-1.654-4.239-1.654l-7.978,0.056c3.193,3.408,7.849,7.988,12.975,11.736
		c9.591,7.021,16.291,13.738,16.355,13.807c0.482,0.482,0.477,1.263-0.008,1.742c-0.238,0.24-0.55,0.357-0.869,0.357
		c-0.313,0-0.634-0.12-0.873-0.363c-0.065-0.066-6.636-6.653-16.064-13.553c-6.239-4.563-11.686-10.181-14.858-13.702l-56.426,0.398
		c-7.114,0.051-7.279,6.326-7.275,7.044l0.135,19.084c4.064,5.237,10.274,13.357,14.061,18.911c3.664,5.369,5.775,12.5,2.966,15.144
		c-0.526,0.496-1.276,0.892-2.326,0.892c-1.346,0-3.18-0.649-5.673-2.582c-3.455-2.68-6.46-5.219-8.852-7.332l0.154,21.913
		C96.556,286.362,97.422,287.712,98.629,289.319"/>
	<path style="fill:#FFFFFF;" d="M111.494,269.006c1.207-1.135,0.51-6.357-3.316-11.96c-3.184-4.668-8.102-11.175-11.993-16.227
		l0.125,17.631c2.549,2.308,6.121,5.399,10.387,8.711C109.433,269.281,110.99,269.478,111.494,269.006"/>
	<path style="fill:#FFFFFF;" d="M148.772,264.943c-3.626,3.997-8.088,5.006-11.67,5.006c-1.692,0-3.178-0.225-4.297-0.467
		l0.073,10.092c3.872-0.473,14.812-2.341,20.885-8.735c6.198-6.517,5.777-18.699,5.479-22.488l-6.371,0.05
		C153.48,252.561,153.582,259.639,148.772,264.943"/>
	<path style="fill:#FFFFFF;" d="M198.802,304.983c-7.865-10.228-5.971-26.271-3.437-39.104c1.709-8.656,0.436-14.85-0.485-17.795
		l-13.317,0.1c1.176,5.795,2.151,20.376-12.112,36.264c-14.448,16.094-30.334,19.265-36.398,19.887l0.046,6.497
		c7.814-2.429,29.683-8.523,45.745-6.205c14.189,2.046,21.525,14.036,24.601,20.877l5.835-0.042
		c2.263-0.058,2.638-0.438,2.634-2.701l-0.058-8.63C207.955,312.879,202.899,310.314,198.802,304.983"/>
	<path style="fill:#FFFFFF;" d="M211.41,247.909c-0.16,0.027-0.321,0.053-0.488,0.053l-13.462,0.101
		c0.979,3.454,2.013,9.728,0.327,18.29c-2.242,11.364-4.376,27.575,2.97,37.127c3.434,4.467,7.66,6.799,11.082,8.022L211.41,247.909
		z"/>
</g>
</svg>
