<?xml version="1.0" encoding="iso-8859-1"?>
<!-- Generator: Adobe Illustrator 25.4.1, SVG Export Plug-In . SVG Version: 6.00 Build 0)  -->
<svg version="1.1" id="Calque_1" xmlns="http://www.w3.org/2000/svg" xmlns:xlink="http://www.w3.org/1999/xlink" x="0px" y="0px"
	 viewBox="0 0 368.5 368.5" style="enable-background:new 0 0 368.5 368.5;" xml:space="preserve">
<g>
	<path style="fill:#FFFFFF;" d="M307.625,123.841h-4.202v0.143c0,3.197-1.005,6.119-2.654,8.375l-1.033,4.193v2.906
		c0,0.037-0.002,0.071-0.002,0.108c0.37,0.517,0.956,1.005,1.695,1.279c0.367,0.135,0.727,0.203,1.07,0.203
		c0.176,0,1.061-0.029,1.207-0.627l3.942-16.027C307.689,124.23,307.672,124.038,307.625,123.841"/>
	<path style="fill:#FFFFFF;" d="M309.616,116.345c-0.936,0-1.877-0.172-2.799-0.512c-1.347-0.496-2.5-1.297-3.394-2.271v5.279h6.147
		c1.294,0,2.41-1.322,2.725-3.047C311.483,116.14,310.584,116.345,309.616,116.345"/>
	<path style="fill:#FFFFFF;" d="M306.444,108.507c-0.193,0.789,0.683,2.111,2.102,2.635c0.367,0.135,0.727,0.203,1.07,0.203
		c0.176,0,1.059-0.029,1.206-0.627l3.941-16.027c0.195-0.789-0.681-2.112-2.101-2.635c-0.365-0.135-0.726-0.203-1.068-0.203
		c-0.176,0-1.061,0.031-1.208,0.627L306.444,108.507z"/>
	<path style="fill:#FFFFFF;" d="M291.728,157.003c2-4.887,3.011-10.789,3.008-17.543v-2.883c-0.74,0.186-1.506,0.287-2.293,0.287
		H278.48c-0.647,0-1.277-0.08-1.894-0.207v2.801c-0.007,4.248-0.667,6.231-1.06,7.035c-0.033,0.067-0.068,0.131-0.106,0.196
		c-0.23,0.453-0.593,0.83-1.04,1.074c-0.061,0.041-0.134,0.086-0.182,0.113c-0.539,0.297-1.284,0.537-2.098,0.676
		c-1.033,0.189-2.252,0.217-3.302,0.217h-0.291h-7.324v23.341h7.704c1.448-0.005,3.869-0.017,6.68-0.634
		c3.958-0.877,7.291-2.655,10.185-5.428C288.178,163.732,290.299,160.521,291.728,157.003"/>
	<path style="fill:#FFFFFF;" d="M276.585,82.339v6.586c0.617-0.127,1.247-0.205,1.895-0.205h13.962c0.788,0,1.553,0.102,2.293,0.287
		v-6.668H276.585z"/>
	<path style="fill:#FFFFFF;" d="M292.443,93.72H278.48c-3.297,0-5.978,3.535-5.978,7.881v22.383c0,4.345,2.681,7.881,5.978,7.881
		h13.963c3.297,0,5.98-3.536,5.98-7.881v-22.383C298.423,97.255,295.74,93.72,292.443,93.72"/>
	<path style="fill:#FFFFFF;" d="M227.81,287.068c-0.298,0-0.626,0.025-1.03,0.084c-0.758,0.113-1.518-0.135-2.073-0.66
		c-0.553-0.526-0.837-1.276-0.77-2.035c0.019-0.215,0.033-0.434,0.033-0.655c0-3.898-3.171-7.068-7.067-7.068
		c-3.898,0-7.069,3.17-7.069,7.068c0,2.473,1.268,4.725,3.39,6.024c0.708,0.433,1.155,1.191,1.191,2.021
		c0.038,0.83-0.339,1.623-1.007,2.119c-2.514,1.866-3.956,4.717-3.956,7.825c0,5.375,4.372,9.748,9.747,9.748
		c4.857,0,9.005-3.631,9.649-8.448c0.12-0.904,0.725-1.669,1.575-2c2.824-1.091,4.647-3.746,4.647-6.763
		C235.07,290.323,231.813,287.068,227.81,287.068"/>
	<path style="fill:#FFFFFF;" d="M226.47,264.845c3.687,0,6.687-3,6.687-6.686c0-3.687-3-6.685-6.687-6.685
		c-3.686,0-6.685,2.998-6.685,6.685C219.785,261.845,222.784,264.845,226.47,264.845"/>
	<path style="fill:#FFFFFF;" d="M232.021,195.978c-2.104,0-3.815,1.711-3.815,3.815c0,2.103,1.711,3.816,3.815,3.816
		c2.104,0,3.815-1.713,3.815-3.816C235.836,197.689,234.125,195.978,232.021,195.978"/>
	<path style="fill:#FFFFFF;" d="M247.911,187.343h-51.583V293.57c0,16.098,10.493,29.195,23.39,29.195h4.799
		c12.899,0,23.394-13.097,23.394-29.195V187.343z M212.501,220.449c5.283,0,9.581,4.297,9.581,9.58c0,5.281-4.298,9.58-9.581,9.58
		c-5.283,0-9.581-4.299-9.581-9.58C202.92,224.746,207.218,220.449,212.501,220.449 M226.47,246.474
		c6.445,0,11.687,5.242,11.687,11.686c0,6.443-5.242,11.685-11.687,11.685c-6.443,0-11.684-5.242-11.684-11.685
		C214.786,251.716,220.027,246.474,226.47,246.474 M233.546,305.156c-1.54,6.58-7.474,11.383-14.347,11.383
		c-8.132,0-14.747-6.618-14.747-14.748c0-3.647,1.307-7.059,3.663-9.721c-2.091-2.207-3.28-5.133-3.28-8.268
		c0-6.654,5.414-12.068,12.068-12.068c6.08,0,11.125,4.519,11.949,10.377c6.274,0.531,11.218,5.807,11.218,12.217
		C240.07,298.939,237.552,303.048,233.546,305.156 M232.021,208.609c-4.861,0-8.815-3.955-8.815-8.816
		c0-4.862,3.954-8.815,8.815-8.815c4.861,0,8.815,3.953,8.815,8.815C240.836,204.654,236.882,208.609,232.021,208.609"/>
	<path style="fill:#FFFFFF;" d="M212.501,234.609c2.525,0,4.58-2.055,4.58-4.58c0-2.526-2.055-4.58-4.58-4.58
		c-2.526,0-4.581,2.054-4.581,4.58C207.92,232.554,209.975,234.609,212.501,234.609"/>
	<path style="fill:#FFFFFF;" d="M256.183,182.343v-43.029H188.37v4.763h3.653c7.519,0,13.637,7.237,13.637,16.133
		c0,8.895-6.118,16.133-13.637,16.133h-3.653v6H256.183z"/>
	<path style="fill:#FFFFFF;" d="M192.023,171.343c4.763,0,8.637-4.994,8.637-11.133c0-6.138-3.874-11.133-8.637-11.133h-8.973
		v22.266H192.023z"/>
	<path style="fill:#FFFFFF;" d="M169.445,187.343h-51.582V293.57c0,16.098,10.493,29.195,23.391,29.195h4.799
		c12.898,0,23.392-13.097,23.392-29.195V187.343z M135.662,205.535c0.357-0.485,0.779-1.039,1.236-1.641
		c1.739-2.289,4.365-5.746,5.095-7.703c0.21-0.578,0.351-1.209,0.353-1.217c0.207-0.941,1.078-1.596,2.012-1.568h0.001h0.032
		c0.991,0.015,1.82,0.754,1.951,1.734c0.001,0.004,0.086,0.631,0.257,1.221c0.584,2.016,2.956,5.674,4.525,8.094
		c0.403,0.621,0.776,1.197,1.092,1.699c1.476,2.355,2.237,5.031,2.143,7.533c-0.047,1.33-0.307,2.637-0.776,3.883
		c-0.256,0.68-0.576,1.34-0.952,1.963c-0.07,0.115-0.139,0.22-0.209,0.328l-0.067,0.101c-2.038,3.045-5.304,4.848-8.755,4.848
		c-0.123,0-0.245-0.004-0.368-0.008c-3.595-0.134-6.855-2.181-8.723-5.474c-0.098-0.178-0.174-0.321-0.25-0.469
		c-0.266-0.52-0.483-1.037-0.651-1.543c-0.482-1.404-0.703-2.902-0.648-4.428C133.055,210.382,134.014,207.773,135.662,205.535
		 M135.662,245.535c0.357-0.485,0.779-1.039,1.236-1.641c1.739-2.289,4.365-5.746,5.095-7.703c0.21-0.578,0.351-1.209,0.353-1.217
		c0.207-0.941,1.078-1.605,2.012-1.568h0.001h0.032c0.991,0.015,1.82,0.754,1.951,1.734c0.001,0.004,0.086,0.631,0.257,1.221
		c0.584,2.016,2.956,5.674,4.525,8.094c0.403,0.621,0.776,1.197,1.092,1.699c1.476,2.355,2.237,5.031,2.143,7.533
		c-0.047,1.33-0.307,2.637-0.776,3.883c-0.256,0.68-0.576,1.34-0.952,1.963c-0.07,0.115-0.139,0.22-0.209,0.328l-0.067,0.101
		c-2.038,3.045-5.304,4.848-8.755,4.848c-0.123,0-0.245-0.004-0.368-0.008c-3.595-0.134-6.855-2.181-8.723-5.474
		c-0.098-0.178-0.174-0.321-0.25-0.469c-0.266-0.52-0.483-1.037-0.651-1.543c-0.482-1.404-0.703-2.902-0.648-4.428
		C133.055,250.382,134.014,247.773,135.662,245.535 M154.326,296.519c-0.186,0-0.363-0.033-0.543-0.055
		c0.033,0.241,0.056,0.485,0.056,0.735c0,1.652-0.743,3.135-1.911,4.132c0.035,0,0.067-0.009,0.102-0.009
		c2.686,0,4.87,2.183,4.87,4.869c0,2.686-2.184,4.871-4.87,4.871c-2.685,0-4.87-2.185-4.87-4.871c0-1.414,0.615-2.676,1.58-3.566
		c-0.115,0.007-0.229,0.017-0.346,0.017c-2.466,0-4.551-1.648-5.218-3.9c-0.237,0.031-0.47,0.072-0.714,0.072
		c-0.139,0-0.269-0.031-0.406-0.041c0.181,0.529,0.301,1.088,0.301,1.68c0,2.593-1.896,4.74-4.374,5.162
		c0.122,0.267,0.226,0.543,0.308,0.828c0.686-0.33,1.446-0.529,2.258-0.529c2.896,0,5.253,2.355,5.253,5.254
		c0,2.896-2.357,5.253-5.253,5.253c-2.178,0-4.049-1.332-4.844-3.222c-0.928,0.582-2.022,0.926-3.195,0.926
		c-3.319,0-6.018-2.702-6.018-6.02c0-2.139,1.124-4.016,2.81-5.082c-0.015,0-0.03,0.002-0.044,0.002
		c-3.847,0-6.976-3.129-6.976-6.975c0-3.847,3.129-6.976,6.976-6.976c3.589,0,6.552,2.726,6.932,6.217
		c0.298-0.053,0.601-0.092,0.913-0.092c0.139,0,0.27,0.029,0.406,0.041c-0.181-0.531-0.3-1.088-0.3-1.678
		c0-2.898,2.356-5.254,5.253-5.254c2.294,0,4.227,1.486,4.942,3.539c0.321-0.058,0.651-0.094,0.99-0.094
		c0.503,0,0.989,0.075,1.452,0.202c0.041-2.44,2.031-4.412,4.48-4.412c2.475,0,4.488,2.013,4.488,4.488
		C158.814,294.505,156.801,296.519,154.326,296.519"/>
	<path style="fill:#FFFFFF;" d="M178.05,182.343v-43.029h-67.813v4.455h3.483h5.621c0.895,0,1.697,0,2.381,0.072v-0.07
		c7.762,0,14.076,7.478,14.076,16.67c0,9.193-6.314,16.672-14.076,16.672l-11.485-0.002v5.232H178.05z"/>
	<path style="fill:#FFFFFF;" d="M75.832,88.97c0.696-0.162,1.414-0.25,2.15-0.25h13.961c0.648,0,1.279,0.078,1.896,0.205v-6.586
		H75.687v6.502C75.737,88.884,75.783,88.929,75.832,88.97"/>
	<path style="fill:#FFFFFF;" d="M121.722,172.112c5.005,0,9.076-5.236,9.076-11.672c0-6.435-4.071-11.67-9.076-11.67h-0.025
		c-0.469-0.002-14.794-0.002-19.792-0.002h-0.28c-1.049,0-2.267-0.027-3.338-0.222c-0.778-0.133-1.522-0.373-2.061-0.67
		c-0.067-0.037-0.134-0.078-0.197-0.121c-0.443-0.247-0.803-0.623-1.03-1.077c-0.037-0.062-0.075-0.13-0.103-0.191
		c-0.393-0.807-1.051-2.793-1.058-7.025v-2.805c-0.617,0.127-1.248,0.207-1.895,0.207H77.982c-0.787,0-1.555-0.104-2.295-0.289
		v2.883c-0.002,6.759,1.009,12.66,3.005,17.539c1.433,3.525,3.554,6.736,5.975,9.047c2.9,2.779,6.233,4.554,10.196,5.433
		c2.804,0.615,5.226,0.627,6.673,0.633l0.388,0.002H121.722z"/>
	<path style="fill:#FFFFFF;" d="M317.908,49.812h-5.025c1.921,3.342,3.049,7.379,3.049,11.727c0,4.365-1.139,8.416-3.074,11.765
		h5.05c5.038,0,9.137-5.269,9.137-11.746C327.045,55.082,322.946,49.812,317.908,49.812"/>
	<path style="fill:#FFFFFF;" d="M50.592,73.303h12.097h2.001c5.037,0,9.135-5.269,9.135-11.746c0-6.476-4.098-11.746-9.135-11.746
		h-2.046H50.592c-5.038,0-9.137,5.27-9.137,11.746C41.455,68.034,45.554,73.303,50.592,73.303 M51.88,51.444
		c4.647,0,8.428,4.377,8.428,9.76c0,5.381-3.781,9.758-8.428,9.758c-4.648,0-8.43-4.377-8.43-9.758
		C43.45,55.821,47.232,51.444,51.88,51.444"/>
	<path style="fill:#FFFFFF;" d="M119.643,61.538c0,4.365-1.14,8.416-3.074,11.766h142.409h2.002c5.037,0,9.136-5.27,9.136-11.746
		c0-6.477-4.099-11.747-9.136-11.747h-2.046H116.593C118.515,53.153,119.643,57.19,119.643,61.538"/>
	<path style="fill:#FFFFFF;" d="M77.982,131.864h13.961c3.297,0,5.979-3.535,5.979-7.881V101.6c0-4.345-2.682-7.881-5.979-7.881
		H78.468c0.086,0.721,0.057,1.452-0.119,2.166l-2.564,10.426c3.068,1.219,5.282,4.573,5.282,8.518c0,4.969-3.508,9.012-7.819,9.012
		h-1.246v0.142C72.002,128.329,74.684,131.864,77.982,131.864"/>
	<path style="fill:#FFFFFF;" d="M66.355,123.841h-2.258c-0.836,0-1.64-0.156-2.395-0.437L58.06,138.21
		c-0.194,0.789,0.681,2.111,2.101,2.635c0.367,0.135,0.726,0.203,1.069,0.203c0.176,0,1.061-0.029,1.207-0.627l3.941-16.027
		C66.419,124.23,66.403,124.038,66.355,123.841"/>
	<path style="fill:#FFFFFF;" d="M64.097,118.841h9.15c1.529,0,2.82-1.838,2.82-4.012c0-1.506-0.624-2.834-1.512-3.517l-0.147,0.599
		c-0.652,2.653-3.088,4.434-6.062,4.434c-0.935,0-1.877-0.172-2.799-0.512c-1.622-0.597-2.969-1.635-3.912-2.888
		c-0.22,0.566-0.357,1.205-0.357,1.884C61.278,117.003,62.569,118.841,64.097,118.841"/>
	<path style="fill:#FFFFFF;" d="M65.175,108.507c-0.193,0.789,0.682,2.111,2.101,2.635c0.367,0.135,0.727,0.203,1.07,0.203
		c0.176,0,1.059-0.029,1.206-0.627l3.941-16.027c0.195-0.789-0.68-2.112-2.099-2.635c-0.365-0.135-0.726-0.203-1.07-0.203
		c-0.175,0-1.06,0.031-1.207,0.627L65.175,108.507z"/>
	<path style="fill:#FFFFFF;" d="M72.042,77.339h30.15c6.866,0,12.451-7.088,12.451-15.801c0-8.715-5.585-15.802-12.451-15.802
		h-30.15c-0.735,0-1.461,0.08-2.172,0.24c5.239,2.453,8.955,8.513,8.955,15.582c0,7.041-3.688,13.082-8.896,15.553
		C70.62,77.263,71.326,77.339,72.042,77.339"/>
	<path style="fill:#FFFFFF;" d="M310.932,61.538c0-8.715-5.585-15.803-12.45-15.803h-30.15c-0.736,0-1.461,0.08-2.171,0.24
		c5.238,2.454,8.955,8.514,8.955,15.583c0,7.042-3.689,13.083-8.898,15.552c0.693,0.153,1.399,0.229,2.114,0.229h30.15
		C305.347,77.339,310.932,70.251,310.932,61.538"/>
</g>
</svg>
