<?xml version="1.0" encoding="iso-8859-1"?>
<!-- Generator: Adobe Illustrator 25.4.1, SVG Export Plug-In . SVG Version: 6.00 Build 0)  -->
<svg version="1.1" id="Calque_1" xmlns="http://www.w3.org/2000/svg" xmlns:xlink="http://www.w3.org/1999/xlink" x="0px" y="0px"
	 viewBox="0 0 368.5 368.5" style="enable-background:new 0 0 368.5 368.5;" xml:space="preserve">
<g>
	<path style="fill:#FFFFFF;" d="M96.412,247.914c-17.194-20.904-27.606-50.283-26.907-82.652
		c1.145-52.93,31.57-96.668,71.518-107.825l15.559,4.436c2.784-2.092,5.631-4.049,8.538-5.875l-6.867-1.98l-8.762-2.26
		c-1.188-0.342-2.391-0.651-3.604-0.932l-0.348-0.088c-1.872-0.502-3.528-0.799-4.986-0.941c-2.998-0.455-6.042-0.731-9.133-0.797
		c-47.802-1.035-87.587,46.186-88.87,105.469c-0.926,42.804,18.473,80.189,47.327,98.056c2.976,1.965,7.913,4.694,16.039,8.69
		l4.894,2.375c-1.739-3.59-3.334-7.262-4.787-11.01L96.412,247.914z"/>
	<path style="fill:#FFFFFF;" d="M234.433,46.86c-4.41-0.658-8.898-0.991-13.344-0.991c-56.492,0-106.911,52.43-117.281,121.959
		c-5.492,36.827,0.889,73.143,17.968,102.256c16.941,28.879,42.398,47.188,71.684,51.559c4.409,0.654,8.9,0.988,13.344,0.988
		c56.491,0,106.909-52.431,117.277-121.959C335.377,124.916,295.162,55.916,234.433,46.86 M259.632,268.371
		c-2.512,2.664-5.913,4.192-9.576,4.303l-82.146,2.447c-0.701,0-1.391-0.05-2.053-0.148c-6.571-0.982-11.478-6.516-11.679-13.158
		c-0.217-7.563,5.751-13.893,13.304-14.11l82.181-2.445c7.456,0,13.472,5.842,13.694,13.297
		C263.468,262.217,262.144,265.703,259.632,268.371 M295.964,158.557c0.233,7.551-5.724,13.887-13.281,14.127l-31.698,0.978
		c-0.106,2.6-0.339,5.227-0.735,7.881c-0.809,5.424-2.2,10.578-4.059,15.395l28.49-0.879c7.459,0,13.482,5.84,13.709,13.293
		c0.114,3.66-1.207,7.148-3.716,9.816c-2.51,2.67-5.909,4.202-9.567,4.311l-50.076,1.545c-9.086,6.433-19.726,9.49-30.551,7.877
		c-5.968-0.889-11.465-3.133-16.346-6.432l-25.273,0.779c-0.685,0-1.375-0.052-2.047-0.156c-6.547-0.976-11.454-6.5-11.656-13.133
		c-0.113-3.662,1.205-7.146,3.712-9.814c2.507-2.668,5.906-4.203,9.567-4.315l6.271-0.193c-2.472-7.41-3.665-15.619-3.324-24.191
		c-4.988-1.983-8.486-6.725-8.654-12.282c-0.113-3.666,1.207-7.152,3.714-9.818c2.508-2.67,5.907-4.201,9.57-4.31l1.457-0.045
		c4.058-9.159,9.882-16.916,16.798-22.627c-5.018-1.969-8.533-6.731-8.699-12.315c-0.107-3.664,1.217-7.148,3.729-9.814
		c2.511-2.664,5.91-4.19,9.573-4.297l82.175-2.451c7.458,0,13.474,5.845,13.697,13.302c0.111,3.666-1.213,7.153-3.729,9.821
		c-2.512,2.664-5.914,4.189-9.576,4.293l-32.92,0.984c6.022,5.27,10.83,12.311,14.037,20.479l35.699-1.102
		C289.715,145.264,295.736,151.104,295.964,158.557"/>
	<path style="fill:#FFFFFF;" d="M182.219,120.629c0.339,0.047,0.707,0.078,1.08,0.078l0.195-0.002l81.752-2.443
		c1.889-0.055,3.641-0.84,4.934-2.213c1.295-1.375,1.978-3.172,1.92-5.061c-0.113-3.845-3.213-6.855-7.053-6.855l-81.979,2.447
		c-1.888,0.057-3.64,0.842-4.933,2.215c-1.293,1.373-1.977,3.168-1.922,5.057C176.316,117.274,178.842,120.125,182.219,120.629"/>
	<path style="fill:#FFFFFF;" d="M160.217,155.678c-1.89,0.057-3.64,0.846-4.931,2.219c-1.291,1.375-1.97,3.172-1.913,5.062
		c0.105,3.416,2.633,6.264,6.01,6.77c0.34,0.051,0.696,0.078,1.061,0.078l0.209-0.002l121.824-3.762
		c3.891-0.123,6.965-3.39,6.843-7.281c-0.118-3.842-3.22-6.852-7.066-6.852L160.217,155.678z"/>
	<path style="fill:#FFFFFF;" d="M147.712,208.693c-1.291,1.375-1.968,3.172-1.909,5.061c0.102,3.418,2.629,6.263,6.007,6.767
		c0.353,0.055,0.698,0.08,1.051,0.08l0.215-0.002l121.826-3.761c1.886-0.059,3.636-0.85,4.929-2.223
		c1.293-1.375,1.976-3.172,1.916-5.061c-0.117-3.84-3.221-6.849-7.067-6.849l-122.037,3.767
		C150.753,206.531,149.003,207.32,147.712,208.693"/>
	<path style="fill:#FFFFFF;" d="M249.664,251.906l-0.224,0.002l-81.762,2.437c-3.893,0.116-6.968,3.375-6.855,7.276
		c0.103,3.42,2.63,6.271,6.01,6.777c0.345,0.049,0.709,0.076,1.078,0.076l0.208-0.006l81.738-2.437
		c1.89-0.059,3.645-0.846,4.938-2.221c1.295-1.373,1.977-3.168,1.918-5.054C256.601,254.914,253.504,251.906,249.664,251.906"/>
</g>
</svg>
