<?xml version="1.0" encoding="iso-8859-1"?>
<!-- Generator: Adobe Illustrator 25.4.1, SVG Export Plug-In . SVG Version: 6.00 Build 0)  -->
<svg version="1.1" id="Calque_1" xmlns="http://www.w3.org/2000/svg" xmlns:xlink="http://www.w3.org/1999/xlink" x="0px" y="0px"
	 viewBox="0 0 368.5 368.5" style="enable-background:new 0 0 368.5 368.5;" xml:space="preserve">
<g>
	<path style="fill:#FFFFFF;" d="M136.415,79.101l12.28-24.168c1.481-2.917,0.314-6.495-2.602-7.977
		c-0.843-0.428-1.744-0.645-2.68-0.645c-2.249,0-4.278,1.244-5.296,3.248l-8.369,16.472L136.415,79.101z"/>
	<path style="fill:#FFFFFF;" d="M81.979,172.148l3.58,7.047l11.48-22.594l-6.668-13.067l-12.282,24.173
		C79.703,168.816,81.051,170.324,81.979,172.148"/>
	<polygon style="fill:#FFFFFF;" points="110.405,130.293 123.046,105.414 116.379,92.343 103.737,117.226 	"/>
	<polygon style="fill:#FFFFFF;" points="251.927,251.73 238.225,278.699 244.892,291.77 258.594,264.801 	"/>
	<path style="fill:#FFFFFF;" d="M301.119,174.184l0.803,1.581c-0.005-0.017-0.008-0.033-0.013-0.049
		C301.726,175.158,301.445,174.655,301.119,174.184"/>
	<path style="fill:#FFFFFF;" d="M231.17,317.39l-6.313-12.378l-4.348,8.556c-1.482,2.917-0.315,6.496,2.602,7.977
		c0.842,0.428,1.743,0.645,2.678,0.645c2.25,0,4.28-1.244,5.298-3.248l0.45-0.886C231.41,317.837,231.285,317.617,231.17,317.39"/>
	<path style="fill:#FFFFFF;" d="M286.526,198.148l-3.688-7.257l-17.541,34.527l6.666,13.071l18.293-36.005
		C288.711,201.387,287.422,199.915,286.526,198.148"/>
	<path style="fill:#FFFFFF;" d="M278.041,128.762l22.626-44.34c1.48-2.911,0.313-6.489-2.604-7.973
		c-0.842-0.427-1.744-0.644-2.679-0.644c-2.249,0-4.279,1.244-5.297,3.248l-18.692,36.629L278.041,128.762z"/>
	<polygon style="fill:#FFFFFF;" points="213.222,229.681 219.881,242.736 233.613,215.826 226.954,202.771 	"/>
	<polygon style="fill:#FFFFFF;" points="199.824,255.936 187.173,280.729 193.832,293.781 206.483,268.991 	"/>
	<path style="fill:#FFFFFF;" d="M173.776,306.98l-2.018,3.955c-1.48,2.912-0.312,6.491,2.604,7.975
		c0.842,0.426,1.743,0.644,2.678,0.644c0.999,0,1.949-0.258,2.792-0.706L173.776,306.98z"/>
	<polygon style="fill:#FFFFFF;" points="264.627,155.048 257.981,141.968 240.352,176.516 247.01,189.569 	"/>
	<path style="fill:#FFFFFF;" d="M125.018,318.718c1.398,0,2.77-0.534,3.927-1.441l-6.238-12.281l-2.197,4.307
		c-1.727,3.398-0.761,7.375,2.156,8.858C123.393,318.531,124.185,318.718,125.018,318.718"/>
	<polygon style="fill:#FFFFFF;" points="161.123,229.681 167.784,242.734 180.437,217.927 173.777,204.871 	"/>
	<polygon style="fill:#FFFFFF;" points="187.172,178.61 193.832,191.666 207.561,164.751 200.901,151.694 	"/>
	<polygon style="fill:#FFFFFF;" points="147.73,255.937 136.117,278.704 142.763,291.786 154.391,268.991 	"/>
	<polygon style="fill:#FFFFFF;" points="220.956,138.489 238.619,103.86 231.973,90.778 214.296,125.432 	"/>
	<path style="fill:#FFFFFF;" d="M252.03,77.568l10.465-20.518c1.726-3.398,0.761-7.373-2.156-8.854
		c-0.729-0.371-1.521-0.559-2.355-0.559c-2.439,0-4.822,1.587-6.07,4.044l-6.531,12.805L252.03,77.568z"/>
	<path style="fill:#FFFFFF;" d="M95.635,251.716l-29.374,57.587c-1.727,3.398-0.76,7.375,2.157,8.858
		c0.727,0.369,1.519,0.557,2.352,0.557c2.44,0,4.823-1.588,6.071-4.045l25.44-49.876L95.635,251.716z"/>
	<polygon style="fill:#FFFFFF;" points="109.046,225.423 115.692,238.505 127.26,215.826 120.599,202.773 	"/>
	<polygon style="fill:#FFFFFF;" points="133.992,176.515 140.653,189.569 153.312,164.751 146.653,151.695 	"/>
	<path style="fill:#FFFFFF;" d="M193.832,85.312l14.416-28.262c1.726-3.398,0.76-7.373-2.156-8.854
		c-0.73-0.371-1.522-0.559-2.356-0.559c-2.439,0-4.822,1.587-6.07,4.044l-10.494,20.574L193.832,85.312z"/>
	<polygon style="fill:#FFFFFF;" points="160.048,125.433 166.708,138.49 180.437,111.575 173.777,98.518 	"/>
	<path style="fill:#FFFFFF;" d="M76.629,174.867c-1.017-2.004-3.046-3.248-5.294-3.248c-0.935,0-1.838,0.217-2.681,0.646
		c-1.414,0.719-2.462,1.944-2.954,3.45c-0.491,1.506-0.366,3.115,0.352,4.527l70.47,138.699c1.018,2.004,3.048,3.248,5.298,3.248
		c0.935,0,1.836-0.217,2.679-0.645c2.915-1.481,4.082-5.06,2.601-7.976L76.629,174.867z M72.481,185.681
		c0-1.597,1.301-2.897,2.9-2.897c1.598,0,2.899,1.3,2.899,2.897c0,1.6-1.301,2.901-2.899,2.901
		C73.782,188.582,72.481,187.281,72.481,185.681 M102.345,245.31c0-1.599,1.301-2.9,2.9-2.9c1.599,0,2.899,1.301,2.899,2.9
		s-1.3,2.898-2.899,2.898C103.646,248.208,102.345,246.909,102.345,245.31 M129.509,300.228c0-1.599,1.301-2.898,2.9-2.898
		s2.899,1.299,2.899,2.898c0,1.6-1.3,2.9-2.899,2.9S129.509,301.828,129.509,300.228"/>
	<path style="fill:#FFFFFF;" d="M291.875,195.43c1.018,2.005,3.048,3.25,5.298,3.25c0.935,0,1.836-0.218,2.678-0.646
		c2.916-1.482,4.083-5.061,2.601-7.977l-70.47-138.699c-1.018-2.004-3.047-3.249-5.296-3.249c-0.936,0-1.838,0.217-2.681,0.646
		c-2.915,1.481-4.082,5.06-2.6,7.978L291.875,195.43z M295.931,185.076c0,1.599-1.3,2.899-2.899,2.899s-2.9-1.3-2.9-2.899
		s1.301-2.9,2.9-2.9S295.931,183.477,295.931,185.076 M270.538,135.471c0,1.599-1.3,2.9-2.899,2.9s-2.9-1.301-2.9-2.9
		s1.301-2.899,2.9-2.899S270.538,133.872,270.538,135.471 M244.555,83.506c0,1.599-1.3,2.898-2.899,2.898s-2.9-1.299-2.9-2.898
		c0-1.6,1.301-2.9,2.9-2.9S244.555,81.906,244.555,83.506"/>
	<path style="fill:#FFFFFF;" d="M77.524,79.056c-1.02-2.007-3.05-3.252-5.298-3.252c-0.936,0-1.838,0.217-2.681,0.646
		c-2.915,1.482-4.083,5.06-2.601,7.976l118.325,231.875c1.02,2.008,3.05,3.253,5.3,3.253c0.935,0,1.836-0.217,2.679-0.645
		c2.915-1.483,4.082-5.062,2.601-7.978L77.524,79.056z M97.373,136.685c0-1.599,1.3-2.9,2.899-2.9c1.599,0,2.899,1.301,2.899,2.9
		s-1.3,2.899-2.899,2.899C98.673,139.584,97.373,138.284,97.373,136.685 M127.057,195.689c0-1.599,1.301-2.9,2.9-2.9
		s2.899,1.301,2.899,2.9c0,1.599-1.3,2.899-2.899,2.899S127.057,197.288,127.057,195.689 M154.311,250.033
		c0-1.599,1.301-2.899,2.9-2.899s2.899,1.3,2.899,2.899c0,1.6-1.3,2.9-2.899,2.9S154.311,251.633,154.311,250.033 M181.475,300.947
		c0-1.6,1.301-2.9,2.9-2.9s2.899,1.3,2.899,2.9c0,1.599-1.3,2.898-2.899,2.898S181.475,302.546,181.475,300.947"/>
	<path style="fill:#FFFFFF;" d="M115.696,51.686c-1.25-2.461-3.633-4.048-6.072-4.048c-0.834,0-1.626,0.188-2.356,0.558
		c-2.915,1.482-3.881,5.456-2.153,8.86l131.402,257.612c1.25,2.462,3.633,4.05,6.074,4.05c0.832,0,1.624-0.188,2.353-0.558
		c2.915-1.483,3.882-5.459,2.153-8.861L115.696,51.686z M123.013,85.867c0-1.599,1.301-2.9,2.9-2.9c1.599,0,2.899,1.301,2.899,2.9
		c0,1.599-1.3,2.899-2.899,2.899C124.314,88.766,123.013,87.466,123.013,85.867 M153.13,144.201c0-1.598,1.301-2.898,2.9-2.898
		c1.598,0,2.899,1.3,2.899,2.898c0,1.6-1.301,2.901-2.899,2.901C154.431,147.102,153.13,145.801,153.13,144.201 M180.294,198.068
		c0-1.599,1.301-2.9,2.9-2.9c1.599,0,2.899,1.301,2.899,2.9c0,1.599-1.3,2.899-2.899,2.899
		C181.595,200.967,180.294,199.667,180.294,198.068 M206.868,247.799c0-1.599,1.301-2.898,2.9-2.898s2.899,1.299,2.899,2.898
		c0,1.6-1.3,2.9-2.899,2.9S206.868,249.399,206.868,247.799 M231.67,299.047c0-1.599,1.301-2.898,2.9-2.898s2.899,1.299,2.899,2.898
		c0,1.6-1.3,2.9-2.899,2.9S231.67,300.647,231.67,299.047"/>
	<path style="fill:#FFFFFF;" d="M169.944,51.686c-1.25-2.461-3.633-4.048-6.072-4.048c-0.834,0-1.626,0.188-2.356,0.558
		c-2.915,1.482-3.881,5.456-2.153,8.86l131.402,257.612c1.25,2.462,3.633,4.05,6.074,4.05c0.833,0,1.625-0.188,2.353-0.558
		c2.916-1.483,3.882-5.459,2.153-8.861L169.944,51.686z M180.294,91.772c0-1.598,1.301-2.898,2.9-2.898s2.899,1.3,2.899,2.898
		c0,1.599-1.3,2.9-2.899,2.9S180.294,93.371,180.294,91.772 M206.868,144.92c0-1.599,1.301-2.898,2.9-2.898
		c1.599,0,2.899,1.299,2.899,2.898c0,1.6-1.3,2.9-2.899,2.9C208.169,147.82,206.868,146.52,206.868,144.92 M234.495,196.295
		c0-1.599,1.301-2.898,2.9-2.898c1.599,0,2.899,1.299,2.899,2.898c0,1.6-1.3,2.9-2.899,2.9
		C235.796,199.195,234.495,197.895,234.495,196.295 M259.425,247.082c0-1.6,1.301-2.9,2.9-2.9c1.598,0,2.899,1.3,2.899,2.9
		c0,1.599-1.301,2.898-2.899,2.898C260.726,249.98,259.425,248.681,259.425,247.082"/>
</g>
</svg>
