<?xml version="1.0" encoding="iso-8859-1"?>
<!-- Generator: Adobe Illustrator 25.4.1, SVG Export Plug-In . SVG Version: 6.00 Build 0)  -->
<svg version="1.1" id="Calque_1" xmlns="http://www.w3.org/2000/svg" xmlns:xlink="http://www.w3.org/1999/xlink" x="0px" y="0px"
	 viewBox="0 0 368.5 368.5" style="enable-background:new 0 0 368.5 368.5;" xml:space="preserve">
<g>
	<path style="fill:#FFFFFF;" d="M119.683,91.009l-8.369,32.787l17.164,67.252h3.557c6.042,0,10.96,4.917,10.96,10.96
		c0,5.363-3.878,9.82-8.974,10.757l21.099,82.678c1.066,4.165,4.805,7.074,9.092,7.074c0.783,0,1.566-0.1,2.329-0.295
		c2.436-0.622,4.48-2.151,5.761-4.31c1.28-2.157,1.643-4.685,1.023-7.115L122.339,91.009H119.683z"/>
	<path style="fill:#FFFFFF;" d="M132.035,206.705c2.589,0,4.697-2.108,4.697-4.697s-2.108-4.697-4.697-4.697H92.553l-2.397,9.394
		H132.035z"/>
	<path style="fill:#FFFFFF;" d="M325.716,290.797L273.401,85.805l-9.696,37.992l17.164,67.252h3.557
		c6.042,0,10.959,4.917,10.959,10.959c0,5.364-3.877,9.82-8.973,10.758l21.099,82.678c1.066,4.165,4.805,7.074,9.092,7.074
		c0.783,0,1.566-0.1,2.328-0.296c2.437-0.621,4.481-2.15,5.761-4.309C325.973,295.755,326.336,293.228,325.716,290.797"/>
	<path style="fill:#FFFFFF;" d="M284.425,206.705c2.589,0,4.697-2.108,4.697-4.697s-2.108-4.697-4.697-4.697h-39.482l-2.397,9.394
		H284.425z"/>
	<path style="fill:#FFFFFF;" d="M269.011,77.681c1.276-5.017-1.763-10.144-6.781-11.427l-0.601-0.136
		c-0.249-0.08-0.473-0.098-0.697-0.118H106.464c-0.228,0.02-0.454,0.04-0.703,0.122l-0.29,0.079
		c-3.476,0.777-6.179,3.397-7.055,6.834L42.841,290.798c-0.62,2.43-0.257,4.955,1.024,7.114c1.28,2.157,3.324,3.688,5.754,4.308
		c5.048,1.286,10.169-1.857,11.427-6.776l53.772-210.697h133l-52.587,206.051c-0.619,2.43-0.256,4.955,1.024,7.114
		c1.28,2.157,3.325,3.688,5.755,4.308c5.048,1.286,10.169-1.857,11.426-6.776L269.011,77.681z"/>
</g>
</svg>
