<?xml version="1.0" encoding="iso-8859-1"?>
<!-- Generator: Adobe Illustrator 25.4.1, SVG Export Plug-In . SVG Version: 6.00 Build 0)  -->
<svg version="1.1" id="Calque_1" xmlns="http://www.w3.org/2000/svg" xmlns:xlink="http://www.w3.org/1999/xlink" x="0px" y="0px"
	 viewBox="0 0 368.5 368.5" style="enable-background:new 0 0 368.5 368.5;" xml:space="preserve">
<g>
	<path style="fill:#FFFFFF;" d="M318.676,91.897l-8.662-1.686c-0.029,5.018-1.226,9.844-3.441,14.195l9.312,1.813
		c3.955,0.769,7.787-1.813,8.554-5.77C325.209,96.498,322.629,92.666,318.676,91.897"/>
	<path style="fill:#FFFFFF;" d="M307.427,77.445l7.025-4.963c3.291-2.326,4.074-6.874,1.75-10.167
		c-2.324-3.289-6.875-4.076-10.168-1.752l-7.32,5.171c0.684,0.579,1.356,1.17,1.996,1.811
		C303.605,70.437,305.855,73.797,307.427,77.445"/>
	<path style="fill:#FFFFFF;" d="M285.887,59.193v-9.351c0-4.027-3.265-7.293-7.295-7.293c-4.029,0-7.294,3.266-7.294,7.293v9.169
		c2.254-0.5,4.57-0.781,6.933-0.781C280.85,58.23,283.409,58.582,285.887,59.193"/>
	<path style="fill:#FFFFFF;" d="M292.457,132.1c2.848,2.849,7.468,2.849,10.316,0c2.851-2.849,2.851-7.467,0-10.318l-5.67-5.668
		l-10.316,10.314L292.457,132.1z"/>
	<path style="fill:#FFFFFF;" d="M270.481,154.08c2.847,2.851,7.465,2.851,10.312,0c2.847-2.849,2.847-7.466,0-10.316l-5.672-5.672
		l-10.316,10.316L270.481,154.08z"/>
	<path style="fill:#FFFFFF;" d="M248.498,176.062c2.847,2.845,7.468,2.845,10.318-0.002c2.847-2.848,2.847-7.464,0-10.316
		l-5.672-5.674l-10.32,10.32L248.498,176.062z"/>
	<path style="fill:#FFFFFF;" d="M205.019,220.413c2.865,2.416,7.135,2.307,9.832-0.395c2.849-2.847,2.849-7.468,0-10.317l-5.67-5.67
		l-3.695,3.693C205.525,212.261,205.298,216.554,205.019,220.413"/>
	<path style="fill:#FFFFFF;" d="M226.514,198.039c2.851,2.849,7.468,2.849,10.32,0c2.847-2.847,2.847-7.468,0-10.318l-5.672-5.672
		l-10.318,10.318L226.514,198.039z"/>
	<path style="fill:#FFFFFF;" d="M258.112,65.402l-6.576-6.576c-2.847-2.851-7.468-2.847-10.316,0
		c-2.849,2.85-2.851,7.467-0.002,10.316l6.467,6.463l8.06-8.06C256.503,66.787,257.294,66.072,258.112,65.402"/>
	<path style="fill:#FFFFFF;" d="M229.555,80.804c-2.849-2.846-7.466-2.846-10.318,0c-2.847,2.848-2.849,7.469,0,10.316l6.465,6.467
		l10.318-10.318L229.555,80.804z"/>
	<path style="fill:#FFFFFF;" d="M207.574,102.783c-2.847-2.847-7.464-2.845-10.314,0c-2.85,2.848-2.85,7.47-0.002,10.318
		l6.465,6.465l10.316-10.318L207.574,102.783z"/>
	<path style="fill:#FFFFFF;" d="M185.594,124.765c-2.847-2.849-7.464-2.849-10.316,0c-2.847,2.849-2.847,7.466,0,10.316l6.463,6.463
		l10.318-10.316L185.594,124.765z"/>
	<path style="fill:#FFFFFF;" d="M296.468,71.787c-4.873-4.873-11.349-7.556-18.237-7.556c-6.891,0-13.369,2.683-18.244,7.556
		l-81.291,81.286c3.249,3.177,6.187,6.066,8.593,8.452l81.614-81.609c5.695-5.7,14.935-5.7,20.632,0
		c5.699,5.695,5.699,14.934,0,20.632l-86.665,86.658c0.705,2.519,1.289,5.103,1.682,7.779c0.232,1.553,0.404,3.101,0.545,4.644
		l91.371-91.363c4.873-4.875,7.556-11.353,7.556-18.243C304.024,83.134,301.341,76.658,296.468,71.787"/>
	<path style="fill:#FFFFFF;" d="M120.843,223.968c-7.752,7.752-7.75,20.366,0,28.12c3.756,3.755,8.75,5.824,14.06,5.824
		c5.312,0,10.304-2.069,14.062-5.824l25.298-25.302c0.115-1.381,0.232-2.804,0.357-4.302c0.682-7.969,1.166-16.263,0.121-22.972
		c-1.058-6.617-3.055-10.906-6.886-14.794c-0.914-0.914-1.971-1.961-3.119-3.098c-1.953,0.955-3.762,2.217-5.344,3.799
		L120.843,223.968z"/>
	<path style="fill:#FFFFFF;" d="M172.388,250.012l0.029-0.371c0.113-1.449,0.561-7.164,1.34-16.691l-21.964,21.966
		c-4.512,4.511-10.511,6.996-16.89,6.996c-6.379,0-12.376-2.485-16.888-6.996c-9.31-9.314-9.31-24.466,0-33.776l38.549-38.549
		c1.561-1.561,3.309-2.862,5.18-3.918c-8.359-8.213-20.316-19.8-29.993-29.153c-0.186,0.176-0.369,0.334-0.555,0.519l-74.788,74.782
		c-11.841,11.846-13.489,27.536-5.039,47.965l18.648,41.37c3.439,7.53,9.689,11.858,17.142,11.858
		c7.062,0,14.546-3.751,21.644-10.849l63.55-63.55C172.337,251.086,172.347,250.551,172.388,250.012 M99.34,194.594l22.329-22.331
		c2.199-2.199,5.756-2.197,7.953,0c2.193,2.195,2.193,5.756,0,7.951l-7.361,7.361l7.193,7.191c2.193,2.195,2.193,5.753,0,7.949
		c-2.197,2.195-5.756,2.197-7.955,0l-7.191-7.189l-7.017,7.019c-2.197,2.197-5.754,2.197-7.955,0.002
		C97.143,200.352,97.143,196.789,99.34,194.594 M108.074,298.449l-3.095,3.096c-4.397,4.396-9.225,6.72-13.961,6.72
		c-5.464,0-10.185-3.191-12.628-8.539l-13.154-32.145c-4.9-11.87-3.726-21.554,3.494-28.774l6.894-6.89
		c3.139-3.143,6.976-4.873,10.804-4.873c5.512,0,10.359,3.58,12.969,9.576l13.116,32.108
		C117.08,280.731,115.535,290.985,108.074,298.449"/>
	<path style="fill:#FFFFFF;" d="M198.617,195.865c-1.147-7.822-4.445-19.054-13.664-28.202
		c-13.407-13.404-52.388-50.92-52.757-51.273c-1.705-1.641-3.939-2.541-6.299-2.541c-2.49,0-4.812,0.988-6.538,2.781
		c-3.469,3.603-3.36,9.363,0.244,12.835c1.636,1.577,39.683,38.198,52.509,51.026c4.74,4.81,7.295,10.214,8.557,18.085
		c1.144,7.347,0.642,16.075-0.071,24.413c-1.316,15.816-2.049,25.2-2.199,27.118c-0.025,0.33-0.043,0.5-0.043,0.506
		c-0.367,4.841,3.383,9.21,8.373,9.597c2.673,0.207,5.232-0.752,7.113-2.637c1.531-1.529,2.462-3.558,2.626-5.716h0.006
		c0.121-1.76,1.037-13.256,2.215-27.37C199.5,214.499,200.054,205.447,198.617,195.865"/>
</g>
</svg>
