<?xml version="1.0" encoding="iso-8859-1"?>
<!-- Generator: Adobe Illustrator 25.4.1, SVG Export Plug-In . SVG Version: 6.00 Build 0)  -->
<svg version="1.1" id="Calque_1" xmlns="http://www.w3.org/2000/svg" xmlns:xlink="http://www.w3.org/1999/xlink" x="0px" y="0px"
	 viewBox="0 0 368.5 368.5" style="enable-background:new 0 0 368.5 368.5;" xml:space="preserve">
<g>
	<path style="fill:#FFFFFF;" d="M240.274,111.608c0-13.331,4.844-25.122,12.223-32.21H143.858c-0.824,0.34-1.645,0.747-2.467,1.244
		c-2.828,1.712-5.547,4.376-7.861,7.703c-5.311,7.583-8.342,18.299-8.324,29.408c0,6.042-4.914,10.955-10.953,10.955
		c-6.038,0-10.952-4.913-10.952-10.952c0.004-11.705,2.438-23.07,7.039-32.866c0.903-1.909,1.877-3.742,2.922-5.492H45.739v64.42
		h206.758C245.118,136.73,240.274,124.939,240.274,111.608"/>
	<path style="fill:#FFFFFF;" d="M268.649,143.817c11.785,0,21.373-14.449,21.373-32.21c0-17.761-9.588-32.21-21.373-32.21
		c-11.787,0-21.375,14.449-21.375,32.21C247.274,129.368,256.862,143.817,268.649,143.817"/>
	<path style="fill:#FFFFFF;" d="M100.477,257.529l48.918-25.913l1.17,0.615l47.803,25.193c4.267-2.375,7.8-5.06,10.396-7.977
		l-53.424-28.156v-47.663l1.869-0.488c3.108-0.81,6.116-2.095,8.944-3.818c6.926-4.226,12.82-10.951,17.111-19.505h-13.773
		c-0.049,0.069-0.096,0.137-0.143,0.204c-2.711,3.897-5.955,7.053-9.375,9.125c-3.443,2.075-6.9,3.088-10.578,3.097
		c-1.572,0-3.107,0.636-4.215,1.744c-1.109,1.108-1.746,2.643-1.746,4.208v53.107l-53.353,28.261
		C92.692,252.486,96.219,255.166,100.477,257.529"/>
	<path style="fill:#FFFFFF;" d="M114.253,123.707c3.283,0,5.953-2.67,5.953-5.951c-0.019-12.11,3.342-23.873,9.225-32.272
		c2.705-3.891,5.947-7.047,9.373-9.122c3.439-2.075,6.898-3.089,10.58-3.098c0.705,0.002,1.414,0.046,2.17,0.133h23.314
		c-2.674-2.896-5.592-5.311-8.713-7.21c-5.185-3.159-10.968-4.829-16.726-4.829c-5.838,0-11.621,1.67-16.803,4.829
		c-7.283,4.441-13.424,11.645-17.762,20.833c-4.289,9.131-6.558,19.761-6.562,30.737
		C108.302,121.037,110.972,123.707,114.253,123.707"/>
	<path style="fill:#FFFFFF;" d="M149.37,275.32c-31.154,0-58.094-10.208-67.629-25.21l-36.002,18.882v38.149h277.022v-1.026
		L217.7,248.927C208.86,264.424,181.194,275.32,149.37,275.32"/>
</g>
</svg>
