<?xml version="1.0" encoding="iso-8859-1"?>
<!-- Generator: Adobe Illustrator 25.4.1, SVG Export Plug-In . SVG Version: 6.00 Build 0)  -->
<svg version="1.1" id="Calque_1" xmlns="http://www.w3.org/2000/svg" xmlns:xlink="http://www.w3.org/1999/xlink" x="0px" y="0px"
	 viewBox="0 0 368.5 368.5" style="enable-background:new 0 0 368.5 368.5;" xml:space="preserve">
<g>
	<path style="fill:#FFFFFF;" d="M192.504,160.737c3.548,9.956,9.867,19,18.612,26.366c13.644,11.456,31.497,17.47,50.276,16.932
		l33.357-0.965c2.098-0.06,4.026,0.554,5.589,1.587c-1.076,0.195-2.541,0.441-4.177,0.66l-0.802,0.109l-0.047,0.054
		c-0.043,0.012-0.082,0.032-0.125,0.046c-0.115-0.003-0.222-0.025-0.339-0.022c-3.525,0.102-6.32,2.74-6.229,5.883
		c0.069,2.402,1.81,4.401,4.197,5.171l0.35,0.39l0.166,0.037c0.017,0.012,0.036,0.025,0.054,0.038l0.136,0.091
		c0.527,0.341,1.139,0.58,1.777,0.696l0.137,0.023c0.228,0.04,0.469,0.06,0.717,0.059l0.208-0.004l0.017-0.002h0.103
		c0.373-0.01,1.508-0.023,3.155,0.009c-1.299,0.716-2.794,1.178-4.422,1.225l-33.357,0.965
		c-42.099,1.206-78.159-24.178-87.995-59.125L192.504,160.737z"/>
	<path style="fill:#FFFFFF;" d="M322.044,198.102l-0.499,0.419c-0.638,0.526-1.694,1.362-3.04,2.309
		c-1.579,1.118-4.693,3.168-7.764,4.314c-1.397,0.526-2.977,0.982-4.49,1.364c2.674-0.172,5.342-0.367,7.331-0.563
		c0.266-0.025,0.533-0.052,0.801-0.081c3.888-1.95,7.29-4.565,9.16-6.135c0.055-0.048,0.105-0.089,0.149-0.124
		c0.468-0.41,0.481-1.08,0.027-1.495C323.284,197.715,322.501,197.702,322.044,198.102"/>
	<path style="fill:#FFFFFF;" d="M325.677,207.416l-0.002-0.005c-1.15,0.208-6.633,1.06-11.743,1.559
		c-3.046,0.299-7.626,0.594-11.442,0.816c1.79,0.074,3.865,0.195,6.142,0.401c1.06,0.096,1.982,0.519,2.69,1.13
		c1.022-0.081,1.993-0.163,2.855-0.248c5.007-0.491,9.938-1.254,11.826-1.561l0.22-0.032c0.521-0.091,0.95-0.646,0.835-1.22
		C326.944,207.7,326.335,207.306,325.677,207.416"/>
	<path style="fill:#FFFFFF;" d="M308.264,213.213c-6.242-0.564-10.996-0.498-11.886-0.479c-0.479,0.014-0.779,0.134-0.99,0.333
		c-0.221,0.208-0.339,0.482-0.331,0.758l0.017,0.131v0.065l0.04,0.104c0.03,0.086,0.076,0.169,0.135,0.251l0.081,0.092l-0.024,0.034
		l0.007,0.003l0.033-0.02l-0.02,0.025l0.341,0.21c0.092,0.045,0.189,0.078,0.292,0.1v-0.003c0.102,0.022,0.207,0.032,0.314,0.029
		l0.022,0.502l0.155,1.016l-0.031-1.52c0.861-0.019,5.464-0.085,11.591,0.468l0.162,0.006c0.589-0.017,1.079-0.423,1.142-0.945
		C309.386,213.791,308.914,213.271,308.264,213.213"/>
	<path style="fill:#FFFFFF;" d="M200.332,205.594l25.408,21.634c1.598,1.361,2.617,3.108,3.085,4.923
		c-0.929-0.577-2.181-1.375-3.542-2.309l-0.668-0.457l-0.072,0.009c-0.039-0.02-0.082-0.032-0.123-0.05
		c-0.084-0.079-0.149-0.168-0.237-0.243c-2.685-2.286-6.528-2.201-8.566,0.193c-1.558,1.83-1.605,4.48-0.349,6.651l-0.001,0.523
		l0.098,0.14c0.004,0.02,0.009,0.042,0.015,0.064l0.04,0.159c0.162,0.606,0.456,1.193,0.852,1.707l0.087,0.109
		c0.142,0.182,0.307,0.358,0.492,0.524l0.158,0.136l0.013,0.011l0.077,0.068c0.283,0.243,1.134,0.993,2.335,2.121
		c-1.443-0.339-2.863-0.998-4.103-2.054l-25.408-21.634l-10.394-8.716L143.57,160.39h8.452L200.332,205.594z"/>
	<path style="fill:#FFFFFF;" d="M249.331,241.828l-0.651-0.024c-0.827-0.037-2.17-0.123-3.804-0.322
		c-1.921-0.229-5.606-0.793-8.654-2c-1.389-0.545-2.867-1.266-4.247-1.996c2.101,1.664,4.211,3.307,5.819,4.494
		c0.214,0.16,0.431,0.319,0.649,0.477c4.193,1.157,8.471,1.496,10.91,1.583c0.073,0.001,0.138,0.005,0.195,0.008
		c0.622,0.01,1.08-0.48,1.021-1.092C250.511,242.372,249.938,241.837,249.331,241.828"/>
	<path style="fill:#FFFFFF;" d="M245.787,251.176l0.002-0.005c-0.994-0.616-5.635-3.658-9.762-6.712
		c-2.461-1.818-6.059-4.668-9.04-7.06c1.279,1.254,2.738,2.734,4.291,4.413c0.722,0.782,1.123,1.713,1.239,2.641
		c0.813,0.625,1.589,1.215,2.286,1.73c4.045,2.99,8.217,5.727,9.824,6.764l0.185,0.124c0.448,0.281,1.138,0.157,1.437-0.347
		C246.538,252.237,246.349,251.536,245.787,251.176"/>
	<path style="fill:#FFFFFF;" d="M228.977,243.813c-4.256-4.601-7.829-7.737-8.502-8.32c-0.365-0.311-0.668-0.423-0.958-0.416
		c-0.303,0.007-0.575,0.13-0.755,0.341l-0.074,0.108l-0.044,0.049l-0.04,0.104c-0.034,0.084-0.056,0.177-0.067,0.277l-0.002,0.122
		l-0.04,0.009l0.002,0.007l0.038,0.007l-0.031,0.006l0.113,0.384c0.037,0.095,0.088,0.185,0.149,0.27l0.002-0.002
		c0.061,0.085,0.132,0.162,0.214,0.231l-0.32,0.389l-0.566,0.857l0.996-1.149c0.652,0.563,4.112,3.598,8.29,8.114l0.116,0.113
		c0.449,0.382,1.085,0.409,1.481,0.063C229.422,244.994,229.42,244.292,228.977,243.813"/>
	<path style="fill:#FFFFFF;" d="M167.843,197.681l20.536,26.303c1.292,1.655,1.939,3.572,2.032,5.443
		c-0.794-0.751-1.86-1.786-3.006-2.975l-0.562-0.581l-0.072-0.005c-0.035-0.028-0.074-0.048-0.111-0.075
		c-0.066-0.094-0.112-0.193-0.183-0.285c-2.17-2.78-5.951-3.469-8.43-1.534c-1.894,1.478-2.473,4.065-1.68,6.444l-0.106,0.513
		l0.068,0.156c0,0.021,0.001,0.043,0.001,0.066l0.008,0.164c0.037,0.626,0.207,1.26,0.491,1.843l0.063,0.124
		c0.103,0.208,0.229,0.413,0.377,0.613l0.127,0.165l0.011,0.013l0.062,0.082c0.228,0.295,0.911,1.202,1.86,2.548
		c-1.345-0.623-2.603-1.553-3.606-2.838l-20.536-26.303l-36.062-46.894h21.383L167.843,197.681z"/>
	<path style="fill:#FFFFFF;" d="M208.55,243.033l-0.633-0.154c-0.802-0.203-2.101-0.558-3.661-1.082
		c-1.836-0.61-5.332-1.904-8.075-3.7c-1.251-0.813-2.554-1.816-3.759-2.809c1.724,2.052,3.46,4.087,4.796,5.573
		c0.178,0.199,0.359,0.399,0.54,0.597c3.875,1.978,7.996,3.17,10.369,3.746c0.071,0.016,0.134,0.033,0.189,0.047
		c0.607,0.135,1.154-0.253,1.22-0.864C209.597,243.803,209.142,243.164,208.55,243.033"/>
	<path style="fill:#FFFFFF;" d="M203.198,251.476l0.003-0.004c-0.849-0.804-4.784-4.717-8.212-8.539
		c-2.045-2.277-4.996-5.791-7.435-8.735c1.001,1.486,2.132,3.23,3.315,5.187c0.55,0.91,0.756,1.904,0.683,2.836
		c0.671,0.776,1.312,1.509,1.891,2.154c3.361,3.743,6.897,7.263,8.262,8.603l0.157,0.158c0.382,0.366,1.082,0.383,1.477-0.05
		C203.72,252.666,203.676,251.941,203.198,251.476"/>
	<path style="fill:#FFFFFF;" d="M188.213,240.882c-3.243-5.363-6.113-9.154-6.654-9.86c-0.295-0.378-0.57-0.549-0.855-0.601
		c-0.298-0.054-0.589,0.012-0.808,0.183l-0.094,0.091l-0.053,0.039l-0.061,0.093c-0.05,0.076-0.09,0.162-0.121,0.258l-0.026,0.12
		h-0.042l0.001,0.008l0.036,0.014h-0.031l0.032,0.399c0.018,0.1,0.05,0.198,0.092,0.294l0.003-0.002
		c0.042,0.095,0.097,0.186,0.162,0.27l-0.391,0.316l-0.727,0.726l1.207-0.925c0.525,0.682,3.304,4.352,6.488,9.616l0.091,0.134
		c0.363,0.464,0.981,0.618,1.439,0.36C188.412,242.128,188.551,241.44,188.213,240.882"/>
	<path style="fill:#FFFFFF;" d="M100.445,171.475l44.936,67.611c0.898,1.358,2.08,2.385,3.372,3.111
		c-0.841-1.417-1.451-2.373-1.655-2.685l-0.055-0.088l-0.01-0.013l-0.114-0.175c-0.131-0.21-0.241-0.425-0.327-0.64l-0.053-0.129
		c-0.238-0.603-0.358-1.249-0.346-1.876l0.006-0.164c0.001-0.022,0.002-0.045,0.003-0.066l-0.056-0.161l0.147-0.502
		c-0.605-2.434,0.176-4.968,2.18-6.294c2.622-1.734,6.337-0.751,8.283,2.19c0.065,0.098,0.102,0.201,0.161,0.3
		c0.034,0.029,0.072,0.052,0.104,0.082l0.072,0.011l0.515,0.624c1.049,1.275,2.03,2.39,2.763,3.201
		c0.054-1.873-0.441-3.835-1.599-5.585l-44.936-69.281h-13.639L100.445,171.475z"/>
	<path style="fill:#FFFFFF;" d="M177.387,250.798l-0.619-0.204c-0.784-0.264-2.051-0.72-3.565-1.364
		c-1.783-0.753-5.167-2.316-7.76-4.322c-1.183-0.909-2.404-2.011-3.527-3.095c1.557,2.181,3.129,4.345,4.344,5.932
		c0.162,0.212,0.326,0.425,0.492,0.637c3.707,2.275,7.723,3.787,10.043,4.547c0.07,0.022,0.131,0.043,0.184,0.062
		c0.595,0.182,1.171-0.161,1.285-0.766C178.37,251.648,177.967,250.975,177.387,250.798"/>
	<path style="fill:#FFFFFF;" d="M171.39,258.796l0.003-0.004c-0.784-0.868-4.399-5.077-7.517-9.156
		c-1.861-2.43-4.527-6.165-6.728-9.291c0.882,1.56,1.873,3.387,2.899,5.431c0.477,0.951,0.604,1.957,0.458,2.88
		c0.608,0.827,1.19,1.608,1.716,2.296c3.058,3.995,6.307,7.782,7.563,9.224l0.144,0.17c0.352,0.395,1.049,0.467,1.477,0.066
		C171.817,260.023,171.83,259.298,171.39,258.796"/>
	<path style="fill:#FFFFFF;" d="M157.281,247.06c-2.813-5.601-5.376-9.605-5.861-10.351c-0.265-0.4-0.525-0.592-0.805-0.666
		c-0.293-0.078-0.589-0.034-0.82,0.118l-0.101,0.084l-0.056,0.034l-0.067,0.089c-0.057,0.071-0.103,0.154-0.141,0.247l-0.036,0.118
		l-0.042-0.003l0.001,0.008l0.034,0.017l-0.031-0.003l0.001,0.4c0.01,0.102,0.034,0.202,0.069,0.301l0.002-0.002
		c0.035,0.099,0.083,0.193,0.142,0.282l-0.415,0.284l-0.782,0.667l1.276-0.828c0.47,0.722,2.953,4.598,5.714,10.095l0.081,0.141
		c0.325,0.491,0.929,0.693,1.405,0.472C157.381,248.318,157.574,247.643,157.281,247.06"/>
	
		<line style="fill:none;stroke:#FFFFFF;stroke-width:3.49;stroke-linecap:round;stroke-linejoin:round;stroke-miterlimit:10;" x1="160.919" y1="221.26" x2="156.664" y2="221.26"/>
	
		<polyline style="fill:none;stroke:#FFFFFF;stroke-width:3.49;stroke-linecap:round;stroke-linejoin:round;stroke-miterlimit:10;" points="
		128.069,221.26 96.412,221.26 96.412,156.786 219.226,156.786 219.226,188.838 	"/>
	<path style="fill:#FFFFFF;" d="M220.118,146.12l-47.575-37.895c-0.309-0.246-0.692-0.38-1.087-0.38H45.357
		c-0.964,0-1.745,0.78-1.745,1.745v53.454c0,0.338,0.097,0.667,0.28,0.95l41.749,56.469c0.327,0.504,0.885,0.795,1.465,0.795
		c0.164,0,0.33-0.023,0.494-0.071c0.742-0.22,1.251-0.9,1.251-1.674v-70.128h130.375c0.013-0.002,0.024-0.002,0.035,0
		c0.964,0,1.745-0.78,1.745-1.745C221.006,146.988,220.648,146.42,220.118,146.12 M86.466,147.889
		c-0.258,0.274-0.606,0.412-0.954,0.412c-0.322,0-0.644-0.117-0.897-0.354l-38.372-36.042c-0.527-0.495-0.552-1.324-0.058-1.85
		c0.496-0.527,1.323-0.551,1.85-0.058l38.373,36.041C86.935,146.534,86.96,147.362,86.466,147.889"/>
</g>
</svg>
