<?xml version="1.0" encoding="iso-8859-1"?>
<!-- Generator: Adobe Illustrator 25.4.1, SVG Export Plug-In . SVG Version: 6.00 Build 0)  -->
<svg version="1.1" id="Calque_1" xmlns="http://www.w3.org/2000/svg" xmlns:xlink="http://www.w3.org/1999/xlink" x="0px" y="0px"
	 viewBox="0 0 368.5 368.5" style="enable-background:new 0 0 368.5 368.5;" xml:space="preserve">
<g>
	<path style="fill:#FFFFFF;" d="M126.101,269.798h-11.636v39.044c0,3.211,2.607,5.818,5.82,5.818c3.213,0,5.816-2.607,5.816-5.818
		V269.798z"/>
	<path style="fill:#FFFFFF;" d="M203.488,270.421c-0.145-0.031-0.294-0.106-0.441-0.106c-0.211,0-0.418,0.022-0.602,0.075
		c-0.453,0.121-0.909,0.211-1.373,0.272c-0.301,0.113-0.603,0.207-0.906,0.288c-1.922,0.512-3.903,0.775-5.878,0.775
		c-0.826,0-1.627-0.12-2.439-0.206v37.324c0,3.208,2.607,5.817,5.823,5.817c3.212,0,5.816-2.609,5.816-5.817V270.421z"/>
	<path style="fill:#FFFFFF;" d="M194.288,251.353c0.209,0,0.421-0.029,0.607-0.08c0.448-0.124,0.906-0.212,1.368-0.272
		c0.303-0.116,0.605-0.21,0.908-0.29c1.921-0.513,3.902-0.771,5.871-0.771c0.151,0,0.303,0.021,0.448,0.027v-21.605
		c-0.147-0.033-0.295-0.113-0.44-0.113c-0.204,0-0.413,0.027-0.642,0.094c-0.443,0.109-0.887,0.197-1.335,0.254
		c-0.298,0.116-0.597,0.209-0.897,0.288c-1.918,0.515-3.899,0.779-5.888,0.779c-0.824,0-1.627-0.117-2.439-0.207v18.991
		c0.018,0.164,0.043,0.327,0.043,0.495c0,0.355,0.028,0.533,0.047,0.609C192.223,250.609,193.188,251.353,194.288,251.353"/>
	<path style="fill:#FFFFFF;" d="M235.742,259.614c0-2.408-1.958-4.365-4.367-4.365H217.58c2.815,2.323,5.074,5.281,6.503,8.732
		h7.292c1.286,0,2.435-0.572,3.226-1.452C235.302,261.75,235.742,260.736,235.742,259.614"/>
	<path style="fill:#FFFFFF;" d="M86.53,262.528c0.797,0.881,1.942,1.452,3.231,1.452h87.477c-2.188-2.472-3.861-5.422-4.819-8.73
		H126.1v-45.749h-11.636v45.749H89.761c-2.414,0-4.366,1.956-4.366,4.363C85.395,260.735,85.827,261.749,86.53,262.528"/>
	<path style="fill:#FFFFFF;" d="M85.394,199.317c0,1.126,0.433,2.14,1.135,2.913c0.797,0.886,1.942,1.452,3.231,1.452h81.963
		c0.445-3.097,1.516-6.068,3.146-8.728h-48.944c-0.046-0.249-0.036-0.507-0.122-0.75L111.8,152.112H99.532l14.252,42.842H89.76
		C87.347,194.954,85.394,196.905,85.394,199.317"/>
	<path style="fill:#FFFFFF;" d="M272.11,88.902c1.29,0,2.435-0.564,3.236-1.45c0.695-0.774,1.133-1.788,1.133-2.909
		c0-2.41-1.957-4.365-4.369-4.365h-29.752l6.397-19.229c1.016-3.052-0.632-6.346-3.68-7.36c-3.057-1.018-6.346,0.634-7.36,3.684
		l-7.621,22.905H87.86l-7.623-22.905c-1.014-3.05-4.295-4.702-7.359-3.684c-3.048,1.014-4.698,4.308-3.686,7.36l6.402,19.229H49.021
		c-2.409,0-4.364,1.955-4.364,4.365c0,1.121,0.438,2.135,1.136,2.909c0.794,0.886,1.941,1.45,3.228,1.45h179.175l-1.962,5.826h-0.98
		l-14.259,42.837H106.956L92.699,94.729H80.433l14.261,42.837H69.391c-2.41,0-4.366,1.95-4.366,4.362
		c0,1.121,0.439,2.141,1.131,2.908c0.801,0.893,1.948,1.457,3.235,1.457h136.403c0.039-0.031,0.065-0.074,0.104-0.108
		c1.088-0.994,2.361-1.697,3.725-2.135l-5.199,15.435c-0.163-0.235-0.347-0.453-0.49-0.699l-11.786,35.418
		c-0.082,0.243-0.072,0.502-0.119,0.75h-0.221v8.731h39.569c1.284,0,2.433-0.568,3.224-1.455c0.702-0.773,1.141-1.787,1.141-2.913
		c0-2.411-1.956-4.363-4.365-4.363h-27.21l9.97-29.965c-0.192-0.292-0.458-0.517-0.756-0.705l6.521-19.357
		c1.053,0.389,2.075,0.841,3.044,1.366h28.796c1.29,0,2.434-0.564,3.232-1.457c0.699-0.767,1.135-1.787,1.135-2.908
		c0-2.412-1.953-4.362-4.367-4.362h-28.479l14.254-42.837h-0.708l1.963-5.826H272.11z"/>
	<path style="fill:#FFFFFF;" d="M284.178,245.988v-1.008c0-14.629-11.872-26.133-23.754-26.133h-23.107v10.138
		c0,15.245,13.09,23.557,26.129,23.557h5.293c5.552,0,6.865,5.301,7.125,8.818v38.132v5.518v5.515c0,2.617,2.132,4.75,4.745,4.75
		c2.626,0,4.753-2.133,4.753-4.75v-5.515v-5.518v-27.029c0,0,0.478-8.317,10.001-8.317h13.094c11.345,0,19.665-5.935,19.665-19.002
		v-9.666h-22.57C297.99,235.478,288.23,239.575,284.178,245.988"/>
	<path style="fill:#FFFFFF;" d="M177.886,253.311c2.026,7.582,8.905,12.593,16.402,12.593c1.446,0,2.916-0.188,4.379-0.574
		c0.364-0.1,0.695-0.254,1.006-0.431c0.043,0,0.082,0.02,0.123,0.02c0.374,0,0.748-0.045,1.128-0.151
		c0.708-0.188,1.421-0.278,2.126-0.278c1.299,0,2.554,0.325,3.682,0.889c2.036,1.02,3.647,2.86,4.287,5.227
		c0.186,0.706,0.244,1.415,0.244,2.112h0.084v14.808c6.599-3.707,10.144-11.53,8.104-19.173
		c-1.722-6.433-6.943-10.978-13.066-12.223c-1.09-0.221-2.206-0.368-3.343-0.368c-1.441,0-2.913,0.184-4.375,0.577
		c-0.362,0.092-0.691,0.251-1.006,0.423c-0.042,0-0.079-0.019-0.114-0.019c-0.38,0-0.755,0.049-1.135,0.15
		c-0.711,0.19-1.421,0.282-2.124,0.282c-3.645,0-6.988-2.437-7.971-6.119c-0.188-0.707-0.243-1.413-0.243-2.112h-0.086v-14.805
		C179.389,237.845,175.846,245.667,177.886,253.311"/>
	<path style="fill:#FFFFFF;" d="M177.884,211.25c2.028,7.577,8.907,12.595,16.404,12.595c1.446,0,2.919-0.188,4.379-0.58
		c0.364-0.094,0.695-0.25,1.006-0.423c0.043,0,0.082,0.018,0.123,0.018c0.374,0,0.75-0.047,1.128-0.151
		c0.71-0.19,1.421-0.278,2.126-0.278c1.299,0,2.556,0.319,3.682,0.885c2.036,1.02,3.648,2.864,4.285,5.231
		c0.188,0.706,0.244,1.409,0.244,2.108h0.086v14.81c6.599-3.705,10.146-11.535,8.104-19.175c-1.72-6.431-6.945-10.978-13.066-12.215
		c-1.088-0.227-2.206-0.372-3.341-0.372c-1.443,0-2.913,0.184-4.377,0.577c-0.362,0.092-0.693,0.249-1.006,0.423
		c-0.04,0-0.079-0.02-0.116-0.02c-0.378,0-0.753,0.048-1.133,0.147c-0.709,0.194-1.421,0.284-2.124,0.284
		c-3.645,0-6.988-2.439-7.971-6.117c-0.188-0.709-0.243-1.411-0.243-2.106h-0.084v-14.813
		C179.391,195.784,175.846,203.608,177.884,211.25"/>
</g>
</svg>
