<?xml version="1.0" encoding="iso-8859-1"?>
<!-- Generator: Adobe Illustrator 25.4.1, SVG Export Plug-In . SVG Version: 6.00 Build 0)  -->
<svg version="1.1" id="Calque_1" xmlns="http://www.w3.org/2000/svg" xmlns:xlink="http://www.w3.org/1999/xlink" x="0px" y="0px"
	 viewBox="0 0 368.5 368.5" style="enable-background:new 0 0 368.5 368.5;" xml:space="preserve">
<rect x="90.66" y="258.174" transform="matrix(0.0024 -1 1 0.0024 -182.7069 369.8285)" style="fill:#FFFFFF;" width="6.687" height="36.626"/>
<g>
	<path style="fill:#FFFFFF;" d="M122.687,263.659l0.122-52.58c0.002-0.734-0.28-1.421-0.796-1.94
		c-0.518-0.521-1.207-0.809-1.941-0.81l-49.893-0.123c-1.513,0-2.749,1.23-2.753,2.742l-0.121,52.575
		c-0.005,1.514,1.223,2.749,2.736,2.753l49.891,0.116C121.45,266.392,122.685,265.167,122.687,263.659"/>
	<path style="fill:#FFFFFF;" d="M65.886,286.575c-2.254,0-4.088,1.831-4.096,4.081l-0.032,12.963
		c-0.007,2.256,1.824,4.095,4.08,4.101l9.36,0.022l0.053-21.145L65.886,286.575z"/>
	<path style="fill:#FFFFFF;" d="M121.47,310.118v-2.27c2.247,0,4.081-1.834,4.09-4.088l0.029-12.955
		c0.004-2.251-1.827-4.091-4.082-4.098l-9.129-0.022l-0.05,21.142l9.133,0.021l0.009,3.403V310.118z"/>
	
		<rect x="83.217" y="285.459" transform="matrix(0.0025 -1 1 0.0025 -203.6576 390.2562)" style="fill:#FFFFFF;" width="21.144" height="23.508"/>
	
		<rect x="273.326" y="73.142" transform="matrix(0.0025 -1 1 0.0025 184.5074 367.8911)" style="fill:#FFFFFF;" width="6.684" height="36.629"/>
	<path style="fill:#FFFFFF;" d="M300.501,162.001v-2.27c1.505,0,2.735-1.228,2.74-2.737l0.126-52.574
		c0.004-1.512-1.227-2.751-2.742-2.755l-49.892-0.115c-1.521,0-2.75,1.226-2.75,2.731l-0.121,52.584
		c-0.002,1.514,1.227,2.749,2.74,2.753l49.89,0.113l0.009,3.403V162.001z"/>
	<path style="fill:#FFFFFF;" d="M308.883,77.288l0.033-12.966c0.004-2.25-1.829-4.091-4.086-4.099l-9.362-0.023l-0.049,21.148
		l9.361,0.023C307.037,81.371,308.877,79.539,308.883,77.288"/>
	
		<rect x="266.308" y="58.978" transform="matrix(0.002 -1 1 0.002 205.6007 347.4704)" style="fill:#FFFFFF;" width="21.146" height="23.505"/>
	<path style="fill:#FFFFFF;" d="M249.207,60.092c-2.257,0-4.091,1.83-4.097,4.079l-0.028,12.969c-0.002,1.092,0.42,2.12,1.191,2.893
		c0.77,0.774,1.796,1.202,2.887,1.204l9.138,0.022l0.042-21.145L249.207,60.092z"/>
	<path style="fill:#FFFFFF;" d="M167.953,223.168v41.998c-0.009,0.281-0.013,0.611-0.013,0.991
		c0.093,4.336,0.304,17.496,8.209,31.822c3.964,7.098,10.196,14.443,19.144,19.721c8.917,5.308,20.193,8.312,33.169,8.287h0.232
		c13.915,0,25.934-3.529,35.239-9.369c14.15-8.858,21.224-21.794,24.712-31.691c3.522-10.029,3.86-17.622,3.929-18.737l0.008-0.311
		v-98.225h-34.045v97.203c-0.018,0.213-0.057,0.564-0.123,1.06c-0.356,3.113-2.132,10.686-6.25,16.013
		c-2.06,2.727-4.523,5.006-8.052,6.802c-3.55,1.773-8.345,3.183-15.65,3.203c-7.998-0.031-12.65-1.685-15.811-3.536
		c-4.616-2.742-7.152-6.846-8.85-11.719c-1.582-4.587-1.82-9.322-1.814-10.419l0.018-0.257v-12.602h0.595v-30.38
		c-5.492,1.937-11.391,3.001-17.538,3.001C179.075,226.023,173.323,225.008,167.953,223.168"/>
	<path style="fill:#FFFFFF;" d="M77.965,102.684v98.179h34.052v-97.261c0.02-0.215,0.057-0.552,0.115-1.011
		c0.362-3.105,2.142-10.686,6.26-16.013c2.054-2.72,4.519-4.999,8.048-6.797c3.546-1.776,8.354-3.183,15.657-3.206
		c7.99,0.035,12.637,1.685,15.804,3.539c4.609,2.742,7.146,6.834,8.845,11.717c1.637,4.745,1.832,9.654,1.806,10.523v0.21
		l-0.006,0.213v12.337h-0.593v7.975c5.37-1.842,11.122-2.856,17.109-2.856c6.146,0,12.046,1.065,17.538,3.002v-20.201h-0.002
		c0.002-0.184,0.002-0.41,0.002-0.68c-0.091-4.325-0.299-17.487-8.193-31.817c-3.966-7.099-10.2-14.442-19.144-19.72
		c-8.922-5.317-20.193-8.323-33.166-8.294c-14.024-0.038-26.123,3.501-35.48,9.375c-14.149,8.851-21.222,21.795-24.716,31.693
		c-3.518,10.021-3.854,17.626-3.925,18.732L77.965,102.684z"/>
	<path style="fill:#FFFFFF;" d="M206.258,132.252c-5.768-3.004-12.247-4.793-19.113-5.103v9.457c0,1.25-1.017,2.27-2.272,2.27
		c-1.253,0-2.271-1.02-2.271-2.27v-9.438c-6.752,0.359-13.125,2.147-18.805,5.117l4.785,8.191c0.631,1.082,0.27,2.474-0.815,3.106
		c-0.358,0.209-0.752,0.31-1.142,0.31c-0.78,0-1.539-0.403-1.961-1.127l-4.787-8.183c-5.192,3.405-9.667,7.811-13.121,12.966
		c0.011,0.008,0.025,0.008,0.036,0.016l8.068,5.354c1.048,0.687,1.33,2.099,0.638,3.143c-0.435,0.659-1.157,1.016-1.893,1.016
		c-0.431,0-0.867-0.12-1.254-0.379l-7.93-5.257c-3.177,5.931-5.049,12.64-5.346,19.753h9.337c1.252,0,2.265,1.016,2.265,2.271
		c0,1.257-1.013,2.267-2.265,2.267h-9.303c0.378,6.724,2.172,13.069,5.139,18.725l8.196-4.796c1.083-0.627,2.473-0.268,3.109,0.821
		c0.628,1.079,0.267,2.469-0.815,3.104l-8.186,4.786c3.408,5.183,7.822,9.646,12.979,13.091c0.001,0,0.001-0.002,0.001-0.002
		l5.353-8.075c0.691-1.044,2.101-1.332,3.143-0.634c1.049,0.688,1.333,2.102,0.639,3.144l-5.234,7.901
		c5.695,3.04,12.106,4.877,18.901,5.279v-9.238c0-1.254,1.018-2.266,2.27-2.266c1.254,0,2.273,1.012,2.273,2.266v9.283
		c7.109-0.278,13.813-2.136,19.747-5.291l-5.254-7.934c-0.694-1.042-0.41-2.456,0.638-3.144c1.042-0.698,2.452-0.41,3.144,0.634
		l5.35,8.075c0.01,0.013,0.01,0.031,0.02,0.046c5.175-3.443,9.607-7.906,13.027-13.098l-8.252-4.823
		c-1.081-0.635-1.442-2.025-0.813-3.104c0.633-1.089,2.025-1.448,3.108-0.821l8.264,4.836c2.981-5.666,4.779-12.025,5.159-18.765
		h-9.39c-1.256,0-2.268-1.01-2.268-2.267c0-1.255,1.012-2.271,2.268-2.271h9.424c-0.298-7.129-2.177-13.856-5.367-19.797
		l-7.997,5.301c-0.388,0.259-0.823,0.379-1.254,0.379c-0.734,0-1.458-0.357-1.894-1.016c-0.692-1.044-0.411-2.456,0.638-3.143
		l8.07-5.354c0.034-0.022,0.073-0.023,0.107-0.043c-3.466-5.165-7.959-9.574-13.169-12.977l-4.81,8.221
		c-0.423,0.724-1.181,1.127-1.962,1.127c-0.391,0-0.783-0.101-1.142-0.31c-1.084-0.632-1.448-2.024-0.815-3.106L206.258,132.252z
		 M187.821,174.932l-19.522,22.101c-0.673,0.762-1.611,1.15-2.553,1.15c-0.801,0-1.606-0.281-2.254-0.853
		c-1.409-1.245-1.543-3.396-0.297-4.806l19.523-22.101c1.244-1.41,3.398-1.541,4.806-0.297
		C188.933,171.372,189.067,173.522,187.821,174.932"/>
</g>
</svg>
