<?xml version="1.0" encoding="iso-8859-1"?>
<!-- Generator: Adobe Illustrator 25.4.1, SVG Export Plug-In . SVG Version: 6.00 Build 0)  -->
<svg version="1.1" id="Calque_1" xmlns="http://www.w3.org/2000/svg" xmlns:xlink="http://www.w3.org/1999/xlink" x="0px" y="0px"
	 viewBox="0 0 368.5 368.5" style="enable-background:new 0 0 368.5 368.5;" xml:space="preserve">
<g>
	<path style="fill:#FFFFFF;" d="M100.878,238.693c-0.574,4.757,2.814,9.081,7.568,9.654l162.095,17.505
		c0.354,0.039,0.704,0.064,1.048,0.064c4.326,0,8.073-3.234,8.605-7.634c0.573-4.758-2.814-9.08-7.57-9.656L110.53,231.121
		C105.772,230.557,101.453,233.937,100.878,238.693"/>
	<path style="fill:#FFFFFF;" d="M140.652,168.318c-0.152,0.18-0.325,0.334-0.464,0.532c-10.372,14.606-13.141,27.641-8.233,38.734
		c7.631,17.247,30.871,22.494,44.042,24.087l94.544,9.333c0.354,0.044,0.704,0.063,1.048,0.063c4.329,0,8.073-3.229,8.605-7.633
		c0.573-4.757-2.814-9.078-7.569-9.655l-94.542-9.33c-12.323-1.491-26.737-5.922-30.263-13.886
		c-2.55-5.769,1.156-13.641,5.244-19.811c-0.154-0.131-0.324-0.241-0.469-0.386l-11.45-11.45
		C140.958,168.733,140.812,168.521,140.652,168.318"/>
	<path style="fill:#FFFFFF;" d="M272.624,273.471L110.53,255.968c-4.758-0.571-9.076,2.814-9.652,7.568
		c-0.575,4.759,2.814,9.081,7.568,9.656l162.094,17.504c0.354,0.039,0.705,0.063,1.049,0.063c4.325,0,8.073-3.231,8.605-7.634
		C280.767,278.367,277.38,274.044,272.624,273.471"/>
	<path style="fill:#FFFFFF;" d="M269.076,322.36l-158.975-17.164h-9.288c-5.738,0-10.41,4.669-10.41,10.409
		s4.672,10.409,10.41,10.409h160.358C264.33,326.014,267.163,324.59,269.076,322.36"/>
	<path style="fill:#FFFFFF;" d="M108.446,298.036l162.094,17.505c0.354,0.041,0.705,0.064,1.053,0.064
		c4.323,0,8.069-3.232,8.601-7.636c0.574-4.755-2.814-9.081-7.57-9.65l-162.092-17.508c-0.349-0.041-0.698-0.058-1.039-0.058
		c-4.334,0-8.081,3.224-8.615,7.629C100.303,293.14,103.692,297.463,108.446,298.036"/>
	<path style="fill:#FFFFFF;" d="M156.228,156.774l8.511,8.508c2.246,2.242,5.225,3.478,8.394,3.478c3.033,0,5.913-1.14,8.126-3.215
		c0.053-0.034,0.103-0.083,0.151-0.132l19.753-19.75c0.583-0.579,0.581-1.521-0.002-2.104l-23.211-23.208
		c-0.579-0.581-1.52-0.576-2.106,0l-19.746,19.752c-0.042,0.047-0.09,0.093-0.129,0.149
		C151.622,144.885,151.723,152.262,156.228,156.774 M160.613,142.31l13.066-13.064c1.017-1.018,2.663-1.018,3.681,0
		c1.017,1.016,1.017,2.663,0,3.678l-13.065,13.069c-0.509,0.505-1.176,0.761-1.84,0.761c-0.666,0-1.332-0.256-1.842-0.761
		C159.598,144.973,159.598,143.328,160.613,142.31"/>
	<path style="fill:#FFFFFF;" d="M149.611,158.959c-0.395,0.002-0.773,0.161-1.052,0.435l-3.736,3.74
		c-0.581,0.577-0.581,1.521,0,2.102l11.453,11.45c0.29,0.293,0.669,0.437,1.049,0.437c0.383,0,0.762-0.144,1.054-0.437l3.737-3.733
		c0.278-0.281,0.436-0.657,0.436-1.05c0-0.397-0.158-0.773-0.436-1.054l-11.453-11.455
		C150.382,159.12,150.005,158.961,149.611,158.959"/>
	<path style="fill:#FFFFFF;" d="M204.665,137.254c0.847,0.849,1.957,1.271,3.067,1.271c1.109,0,2.219-0.422,3.066-1.271
		c1.694-1.694,1.694-4.437,0-6.133l-20.407-20.407c-1.694-1.694-4.439-1.694-6.133,0c-1.698,1.692-1.698,4.44,0,6.133
		L204.665,137.254z"/>
	<path style="fill:#FFFFFF;" d="M277.6,126.645c-0.383-1.325-1.261-2.421-2.472-3.087c-1.211-0.659-2.602-0.81-3.902-0.428
		c-2.189,0.635-3.717,2.66-3.717,4.938c0,0.486,0.071,0.983,0.208,1.444c0.787,2.721,3.65,4.291,6.369,3.503
		c2.189-0.628,3.716-2.66,3.716-4.943C277.803,127.597,277.737,127.111,277.6,126.645"/>
	<path style="fill:#FFFFFF;" d="M254.162,133.017c2.194-0.622,3.724-2.658,3.727-4.945c-0.003-0.477-0.067-0.959-0.21-1.442
		c-0.386-1.327-1.27-2.418-2.478-3.077c-1.205-0.659-2.601-0.8-3.896-0.419c-2.649,0.766-4.294,3.669-3.505,6.384
		C248.598,132.243,251.461,133.813,254.162,133.017"/>
	<path style="fill:#FFFFFF;" d="M234.253,133.017c2.191-0.629,3.715-2.662,3.715-4.945c0.004-0.477-0.064-0.963-0.199-1.427
		c-0.382-1.325-1.259-2.423-2.474-3.087c-1.21-0.659-2.602-0.805-3.9-0.42c-2.189,0.629-3.716,2.655-3.721,4.934
		c0.005,0.488,0.077,0.974,0.21,1.443C228.677,132.232,231.537,133.807,234.253,133.017"/>
	<path style="fill:#FFFFFF;" d="M251.297,68.463c-1.208-0.668-2.604-0.822-3.931-0.437c-1.323,0.391-2.412,1.267-3.063,2.457
		c-1.098,1.997-0.745,4.51,0.864,6.119c0.346,0.346,0.746,0.647,1.169,0.874c2.479,1.369,5.613,0.454,6.979-2.026
		c1.104-1.991,0.745-4.507-0.868-6.121C252.114,68.992,251.724,68.693,251.297,68.463"/>
	<path style="fill:#FFFFFF;" d="M239.229,89.541c1.111-1.991,0.752-4.512-0.862-6.131c-0.339-0.336-0.727-0.632-1.168-0.873
		c-1.211-0.664-2.607-0.812-3.929-0.422c-1.318,0.386-2.404,1.273-3.049,2.457c-1.332,2.416-0.444,5.632,2.036,6.994
		C234.746,92.928,237.882,92.013,239.229,89.541"/>
	<path style="fill:#FFFFFF;" d="M225.15,103.619c1.106-1.993,0.747-4.51-0.869-6.123c-0.334-0.341-0.727-0.637-1.149-0.867
		c-1.206-0.668-2.606-0.824-3.934-0.434c-1.321,0.39-2.409,1.27-3.053,2.46c-1.104,1.992-0.752,4.503,0.858,6.119
		c0.348,0.343,0.742,0.634,1.169,0.871C220.653,107.007,223.79,106.099,225.15,103.619"/>
	<path style="fill:#FFFFFF;" d="M194.01,42.75c-1.326,0.383-2.423,1.261-3.088,2.47c-0.66,1.213-0.81,2.603-0.429,3.904
		c0.635,2.189,2.662,3.715,4.939,3.717c0.487-0.002,0.984-0.071,1.441-0.21c2.723-0.785,4.295-3.65,3.506-6.369
		c-0.627-2.187-2.66-3.714-4.944-3.712C194.959,42.547,194.474,42.611,194.01,42.75"/>
	<path style="fill:#FFFFFF;" d="M200.38,66.188c-0.622-2.192-2.656-3.724-4.945-3.727c-0.477,0.003-0.959,0.067-1.442,0.21
		c-1.327,0.386-2.418,1.27-3.077,2.48c-0.659,1.205-0.8,2.599-0.419,3.894c0.766,2.649,3.669,4.294,6.384,3.503
		C199.606,71.752,201.176,68.889,200.38,66.188"/>
	<path style="fill:#FFFFFF;" d="M200.382,86.095c-0.629-2.189-2.663-3.715-4.947-3.714c-0.476-0.003-0.963,0.063-1.425,0.2
		c-1.325,0.381-2.424,1.261-3.089,2.476c-0.659,1.209-0.804,2.602-0.42,3.898c0.629,2.189,2.653,3.715,4.934,3.72
		c0.489-0.005,0.972-0.078,1.443-0.21C199.596,91.672,201.172,88.813,200.382,86.095"/>
</g>
</svg>
