<?xml version="1.0" encoding="iso-8859-1"?>
<!-- Generator: Adobe Illustrator 25.4.1, SVG Export Plug-In . SVG Version: 6.00 Build 0)  -->
<svg version="1.1" id="Calque_1" xmlns="http://www.w3.org/2000/svg" xmlns:xlink="http://www.w3.org/1999/xlink" x="0px" y="0px"
	 viewBox="0 0 368.5 368.5" style="enable-background:new 0 0 368.5 368.5;" xml:space="preserve">
<g>
	<path style="fill:#FFFFFF;" d="M238.173,157.302c0.712,2.491,3.021,4.231,5.614,4.231c0.55,0,1.093-0.077,1.643-0.235
		c1.504-0.442,2.743-1.441,3.494-2.816c0.746-1.372,0.912-2.949,0.477-4.418c-0.87-3.013-4.171-4.885-7.253-3.984
		C239.058,150.986,237.28,154.235,238.173,157.302"/>
	<path style="fill:#FFFFFF;" d="M243.787,138.917c0.55,0,1.097-0.077,1.627-0.229c1.505-0.435,2.748-1.431,3.502-2.809
		c0.75-1.374,0.92-2.957,0.485-4.431c-0.72-2.483-3.025-4.219-5.61-4.219c-0.554,0-1.104,0.079-1.639,0.235
		c-3.086,0.901-4.872,4.148-3.975,7.232C238.889,137.182,241.197,138.917,243.787,138.917"/>
	<path style="fill:#FFFFFF;" d="M304.528,215.282c2.23-2.987,2.582-6.975,0.912-10.307c-1.67-3.329-5.079-5.435-8.804-5.435H74.056
		c-3.729,0-7.136,2.106-8.808,5.435c-1.67,3.332-1.316,7.318,0.912,10.305c13.55,18.157,31.344,33.206,51.449,43.524
		c17.284,8.865,35.708,14.144,54.924,15.764v9.268c0,7.072,5.733,12.805,12.805,12.805s12.806-5.733,12.806-12.805v-9.268
		c19.218-1.62,37.647-6.899,54.931-15.764C273.18,248.486,290.972,233.439,304.528,215.282"/>
	<path style="fill:#FFFFFF;" d="M327.076,183.59c0-5.439-4.41-9.85-9.85-9.85H192.433v-65.837c0-12.255,9.974-22.23,22.229-22.23
		c12.259,0,22.233,9.975,22.233,22.23c0,3.809,3.086,6.896,6.895,6.896c3.807,0,6.895-3.087,6.895-6.896
		c0-19.862-16.16-36.021-36.023-36.021c-19.862,0-36.019,16.159-36.019,36.021v65.837H53.462c-5.441,0-9.851,4.411-9.851,9.85
		c0,5.439,4.41,9.85,9.851,9.85h263.764C322.666,193.441,327.076,189.03,327.076,183.59"/>
</g>
</svg>
