<?xml version="1.0" encoding="iso-8859-1"?>
<!-- Generator: Adobe Illustrator 25.4.1, SVG Export Plug-In . SVG Version: 6.00 Build 0)  -->
<svg version="1.1" id="Calque_1" xmlns="http://www.w3.org/2000/svg" xmlns:xlink="http://www.w3.org/1999/xlink" x="0px" y="0px"
	 viewBox="0 0 368.5 368.5" style="enable-background:new 0 0 368.5 368.5;" xml:space="preserve">
<g>
	<path style="fill:#FFFFFF;" d="M148.299,168.595c-0.498-13.851-0.898-29.186-1.02-44.689
		c-7.409-27.782-18.672-45.955-26.317-55.862c5.096,16.358,13.872,46.88,18.694,77.132c0.02,0.124,0.038,0.245,0.058,0.367
		c0.784,1.79,1.582,3.661,2.395,5.628C144.311,156.499,146.379,162.436,148.299,168.595"/>
	<path style="fill:#FFFFFF;" d="M182.268,202.768c1.82-6.472,4.315-14,7.705-22.206c0.604-10.153,1.546-21.281,3.003-32.574
		c3.176-24.611,12.011-51.6,18.349-68.742c-10.096,14.236-24.247,37.396-31.112,63.335c-0.844,3.192-1.6,6.346-2.286,9.461
		C179.461,170.553,181.069,189.114,182.268,202.768"/>
	<path style="fill:#FFFFFF;" d="M178.189,217.696c-1.576-17.722-5.837-66.126-8.405-100.067
		c-2.157-28.458-8.113-58.196-11.558-75.079c-2.592,15.414-5.612,40.142-5.612,71.657c0,28.073,1.033,56.502,2.028,77.415
		c2.417,9.827,4.37,19.035,5.769,26.074H178.189z"/>
	<path style="fill:#FFFFFF;" d="M217.851,168.417c0.679-1.862,1.383-3.718,2.12-5.561c8.184-20.46,19.131-40.733,26.028-52.799
		c-8.695,7.3-21.988,20.682-35.851,42.934c-16.67,26.761-23.357,51.907-25.882,64.705h3.77
		C193.434,207.621,206.514,183.867,217.851,168.417"/>
	<path style="fill:#FFFFFF;" d="M108.688,134.333c2.161-4.749,7.79-17.018,7.79-17.018l1.874,0.859
		c-0.5-0.634-0.916-1.132-1.226-1.486l-20.312,0.191c-2.489,4.77-10.731,21.853-13.337,43.485
		c-1.653,13.724-1.24,25.859-0.529,34.018c3.376-9.109,8.36-22.324,12.21-31.563c3.589-8.605,6.825-14.493,9.052-18.106
		C105.27,142.172,107.178,137.642,108.688,134.333"/>
	<path style="fill:#FFFFFF;" d="M154.908,217.696c-3.393-16.847-9.778-45.136-17.766-64.472c-6.923-16.76-12.83-26.658-16.545-32
		c-1.607,3.506-5.346,11.664-7.018,15.336c-0.564,1.237-1.193,2.667-1.814,4.104c1.173,1.868,9.971,16.192,15.754,34.448
		c3.893,12.3,7.947,30.906,10.337,42.584H154.908z"/>
	<path style="fill:#FFFFFF;" d="M280.661,141.267l-21.268-1.088c0.457,2.201,1.3,6.049,2.213,9.156
		c1.341,4.557,3.797,10.13,3.821,10.186c0.043,0.096,0.066,0.194,0.096,0.292c0.018,0.03,0.049,0.045,0.066,0.077l8.371,14.807
		c5.207,9.212,12.002,18.252,16.259,23.613c0.344-5.15,0.49-13.137-0.664-22.611C287.864,161.831,282.477,146.25,280.661,141.267"/>
	<path style="fill:#FFFFFF;" d="M219.122,217.696c2.67-7.325,6.987-17.599,13.465-28.852c9.93-17.237,22.217-25.813,27.222-28.795
		c-0.875-2.092-2.37-5.833-3.36-9.196c-0.821-2.795-1.57-6.062-2.069-8.387c-5.41,3.545-15.064,10.422-24.643,20.003
		c-10.95,10.951-28.006,41.269-35.583,55.227H219.122z"/>
	<path style="fill:#FFFFFF;" d="M121.644,269.138l12.939,54.509c0.329,1.386,1.569,2.368,2.99,2.368h76.012
		c1.423,0,2.659-0.982,2.991-2.368l12.931-54.509H121.644z"/>
	<path style="fill:#FFFFFF;" d="M121.643,263.435h107.864h0.872l1.152-4.859c0.217-0.913,0.003-1.879-0.583-2.616
		c-0.58-0.738-1.469-1.171-2.409-1.171H122.611c-0.939,0-1.828,0.433-2.41,1.171c-0.584,0.737-0.798,1.703-0.581,2.616l1.156,4.859
		H121.643z"/>
	<path style="fill:#FFFFFF;" d="M116.483,221.279c-2.103,0-3.815,1.71-3.815,3.813v20.287c0,2.105,1.712,3.816,3.815,3.816h115.059
		c2.103,0,3.813-1.711,3.813-3.816v-20.287c0-2.103-1.71-3.813-3.813-3.813H116.483z"/>
</g>
</svg>
