<?xml version="1.0" encoding="iso-8859-1"?>
<!-- Generator: Adobe Illustrator 25.4.1, SVG Export Plug-In . SVG Version: 6.00 Build 0)  -->
<svg version="1.1" id="Calque_1" xmlns="http://www.w3.org/2000/svg" xmlns:xlink="http://www.w3.org/1999/xlink" x="0px" y="0px"
	 viewBox="0 0 368.5 368.5" style="enable-background:new 0 0 368.5 368.5;" xml:space="preserve">
<g>
	<path style="fill:#FFFFFF;" d="M111.096,109.403l0.645,0.512c-10.124,14.402-16.092,31.926-16.092,50.825
		c0,19.156,6.131,36.899,16.506,51.408l-1.059,0.844c-7.439,6.286-4.713,16.541,0,21.249c4.712,4.714,15.206,7.674,21.253,0
		l0.893-1.12c14.436,10.202,32.027,16.223,51.009,16.223c18.972,0,36.557-6.015,50.988-16.208l0.881,1.105
		c6.052,7.674,16.546,4.714,21.258,0c4.712-4.708,7.438-14.963,0-21.249l-1.042-0.83c10.381-14.513,16.515-32.259,16.515-51.422
		c0-18.905-5.971-36.433-16.101-50.837l0.628-0.5c7.438-6.284,4.712-16.541,0-21.249c-4.712-4.712-15.206-7.674-21.258,0
		l-0.418,0.523c-14.516-10.393-32.275-16.538-51.451-16.538c-19.185,0-36.952,6.149-51.473,16.553l-0.429-0.538
		c-6.047-7.674-16.541-4.712-21.253,0C106.383,92.862,103.657,103.119,111.096,109.403 M102.103,160.74
		c0-17.38,5.441-33.507,14.688-46.795l21.235,16.933c-5.581,8.61-8.838,18.86-8.838,29.862c0,11.259,3.403,21.737,9.227,30.468
		l-21.209,16.912C107.708,194.721,102.103,178.378,102.103,160.74 M208.282,148.555l17.113-13.647
		c4.719,7.492,7.462,16.345,7.462,25.832c0,9.744-2.893,18.823-7.849,26.438l-16.936-13.504c-0.035-0.03-0.076-0.055-0.111-0.084
		c-2.582,4.744-6.558,8.613-11.361,11.099c0.066,0.086,0.129,0.174,0.197,0.258l13.437,16.843
		c-7.521,4.78-16.431,7.559-25.982,7.559c-9.561,0-18.477-2.786-26.004-7.572l13.428-16.83c0.07-0.086,0.137-0.178,0.204-0.269
		c-4.799-2.487-8.769-6.359-11.348-11.101c-0.043,0.032-0.088,0.063-0.129,0.097l-16.919,13.492
		c-4.952-7.614-7.842-16.686-7.842-26.426c0-9.481,2.74-18.332,7.455-25.817l17.113,13.647c2.476-4.868,6.367-8.9,11.153-11.513
		l-13.597-17.043c7.626-4.974,16.721-7.88,26.486-7.88c9.756,0,18.842,2.899,26.463,7.868l-13.596,17.045
		C201.908,139.656,205.802,143.687,208.282,148.555 M184.251,242.89c-17.462,0-33.655-5.494-46.979-14.82l16.932-21.223
		c8.648,5.656,18.967,8.956,30.048,8.956c11.072,0,21.383-3.296,30.025-8.944l16.933,21.226
		C217.89,237.403,201.703,242.89,184.251,242.89 M266.398,160.74c0,17.644-5.61,33.991-15.112,47.393l-21.209-16.913
		c5.828-8.733,9.234-19.214,9.234-30.48c0-11.008-3.26-21.263-8.846-29.874l21.235-16.934
		C260.952,127.223,266.398,143.353,266.398,160.74 M184.251,78.593c17.657,0,34.016,5.618,47.423,15.135l-16.915,21.204
		c-8.739-5.84-19.231-9.252-30.507-9.252c-11.286,0-21.786,3.418-30.53,9.265l-16.915-21.202
		C150.218,84.217,166.586,78.593,184.251,78.593"/>
	<path style="fill:#FFFFFF;" d="M177.592,278.725v36.515h-50.823v-12.372c0-2.971-2.407-5.378-5.378-5.378s-5.379,2.407-5.379,5.378
		v12.372h-14.074c-2.97,0-5.378,2.408-5.378,5.379c0,2.97,2.408,5.378,5.378,5.378H263.46c2.971,0,5.379-2.408,5.379-5.378
		c0-2.971-2.408-5.379-5.379-5.379h-75.111v-36.421c63.279-2.168,114.098-54.292,114.098-118.092
		c0-65.172-53.022-118.195-118.194-118.195c-65.173,0-118.196,53.023-118.196,118.195
		C66.057,223.666,115.507,275.258,177.592,278.725 M184.253,53.289c59.241,0,107.437,48.197,107.437,107.438
		c0,59.244-48.196,107.441-107.437,107.441c-59.242,0-107.439-48.197-107.439-107.441C76.814,101.487,125.011,53.289,184.253,53.289
		"/>
	<path style="fill:#FFFFFF;" d="M184.252,140.227c-11.316,0-20.524,9.202-20.524,20.513c0,11.312,9.208,20.514,20.524,20.514
		c11.313,0,20.518-9.202,20.518-20.514C204.77,149.429,195.565,140.227,184.252,140.227 M184.251,172.869
		c-6.689,0-12.132-5.441-12.132-12.129c0-6.687,5.443-12.128,12.132-12.128c6.69,0,12.134,5.441,12.134,12.128
		C196.385,167.428,190.941,172.869,184.251,172.869"/>
</g>
</svg>
