<?xml version="1.0" encoding="iso-8859-1"?>
<!-- Generator: Adobe Illustrator 25.4.1, SVG Export Plug-In . SVG Version: 6.00 Build 0)  -->
<svg version="1.1" id="Calque_1" xmlns="http://www.w3.org/2000/svg" xmlns:xlink="http://www.w3.org/1999/xlink" x="0px" y="0px"
	 viewBox="0 0 368.5 368.5" style="enable-background:new 0 0 368.5 368.5;" xml:space="preserve">
<g>
	<path style="fill:#FFFFFF;" d="M185.698,129.359l9.22-9.221c2.248-8.56,4.716-16.472,6.82-22.759
		c-5.782,8.519-14.435,23.349-18.915,34.472c-0.157,0.393-0.305,0.785-0.46,1.178C184.231,130.888,185.566,129.496,185.698,129.359"
		/>
	<path style="fill:#FFFFFF;" d="M86.87,166.375c0.124-21.754-0.864-46.918-4.95-65.508c-5.323-24.205-14.505-43.713-19.066-49.931
		c0.116,1.22,0.371,2.951,0.886,5.371l0.249,1.17c5.645,26.511,10.104,47.451,7.692,85.773c-1.222,19.375-4.137,37.84-6.571,50.768
		h19.556C85.17,185.604,85.878,176.137,86.87,166.375"/>
	<path style="fill:#FFFFFF;" d="M128.07,51.158c0.614,1.227,1.241,2.486,1.897,3.82c1.454,2.957,2.894,5.953,4.309,8.952
		c1.081-3.432,2.22-6.905,3.47-10.461c4.717-13.416,6.169-19.45,6.523-22.159c-1.243,1.061-3.24,3.045-6.438,6.633
		C134.855,41.287,131.538,45.717,128.07,51.158"/>
	<path style="fill:#FFFFFF;" d="M99.214,176.543l11.882-5.086c2.044-15.48,5.737-31.883,10.728-47.287
		c0.775-7.229,1.748-14.42,3.017-21.693c-1.948-8.959-4.324-18.52-7.749-31.354c-5.906,12.328-11.7,27.258-16.54,44.541
		c-5.613,20.016-8.635,46.85-10.257,69.053C92.524,181.068,95.668,178.061,99.214,176.543"/>
	<path style="fill:#FFFFFF;" d="M152.847,108.537c4.133,12.473,7.793,26.809,10.82,40.416l9.395-4.021
		c-0.737-23.03-0.126-46.45,3.296-65.383c3.556-19.657,4.023-27.569,3.851-30.744c-2.76,3.58-8.985,14.919-23.004,48.265
		C155.611,100.863,154.167,104.691,152.847,108.537"/>
	<path style="fill:#FFFFFF;" d="M145.671,89.588c0.569-2.268,1.167-4.486,1.803-6.641l0.1-0.341
		c0.441-1.498,0.771-2.739,1.019-3.764c-1.266,1.82-2.783,4.248-4.439,7.127C144.673,87.191,145.179,88.401,145.671,89.588"/>
	<path style="fill:#FFFFFF;" d="M132.256,162.398c-0.648-13.928-1.667-29.115-3.448-39.412c-0.15-0.869-0.3-1.723-0.45-2.568
		c-5.472,15.66-9.573,32.646-11.901,48.744L132.256,162.398z"/>
	<path style="fill:#FFFFFF;" d="M133.735,122.133c1.743,10.08,2.766,24.604,3.426,38.166l21.83-9.344
		c-3.138-14.211-6.976-29.289-11.332-42.177c-7.964-23.565-27.603-64.291-36.219-77.537c0.303,1.333,0.721,2.994,1.295,5.06
		C125.76,83.19,129.59,98.182,133.735,122.133"/>
	<path style="fill:#FFFFFF;" d="M285.109,183.023l-60.547-23.439l-2.825,2.892c-0.163,0.553-0.46,1.061-0.872,1.475
		c-0.002,0.004-0.035,0.037-0.062,0.064c15.94,4.315,26.431,12.284,26.431,21.596c0,14.041-23.834,25.041-54.262,25.041
		c-30.425,0-54.259-11-54.259-25.041c0-9.381,10.649-17.398,26.787-21.691c0.308-1.571,1.109-5.033,2.842-9.354l-66.373,28.412
		c-4.38,1.875-8.081,7.897-8.081,13.151v0.853c0,0.028-0.001,0.055-0.001,0.082v91.694c0,5.205,4.143,11.205,9.046,13.103
		l86.269,33.399c0.034,0.013,5.318,2,9.604,2c3.78,0,8.722-1.77,9.319-1.989l77.946-33.363c4.381-1.875,8.082-7.898,8.082-13.15
		v-92.629C294.153,190.924,290.011,184.922,285.109,183.023 M189.914,232.76c-0.309,0.172-0.643,0.252-0.972,0.252
		c-0.702,0-1.383-0.37-1.749-1.026c-1.902-3.41-4.884-6.162-7.977-7.359l-72.275-27.985c-1.03-0.398-1.542-1.556-1.143-2.585
		c0.398-1.032,1.559-1.542,2.587-1.145l72.275,27.984c3.994,1.547,7.649,4.879,10.026,9.143
		C191.224,231.002,190.879,232.22,189.914,232.76 M197.364,325.636c0,1.104-0.896,2-2,2c-1.105,0-2-0.896-2-2v-71.095
		c0-1.104,0.895-2,2-2c1.104,0,2,0.896,2,2V325.636z M287.57,191.199l-78.026,33.4c-3.33,1.426-6.477,5.09-8.019,9.34
		c-0.296,0.813-1.063,1.319-1.88,1.319c-0.227,0-0.458-0.039-0.682-0.121c-1.039-0.377-1.575-1.524-1.199-2.563
		c1.931-5.32,5.841-9.783,10.206-11.652l78.026-33.401c1.016-0.433,2.19,0.037,2.626,1.053
		C289.056,189.59,288.586,190.765,287.57,191.199"/>
	<path style="fill:#FFFFFF;" d="M192.972,205.652c29.467,0,49.262-10.363,49.262-20.041c0-6.715-9.535-13.756-25.214-17.439
		c-0.868,1.009-1.818,2.152-2.79,3.39c13.089,2.729,21.762,7.94,21.762,14.049c0,9.023-18.896,16.092-43.02,16.092
		c-24.123,0-43.019-7.069-43.019-16.092c0-5.904,8.096-10.971,20.453-13.768l-3.276-3.226
		c-14.605,3.787-23.418,10.541-23.418,16.994C143.712,195.289,163.506,205.652,192.972,205.652"/>
	<path style="fill:#FFFFFF;" d="M297.913,41.992c-2.581,0-5.258,0.967-6.66,2.403l-61.358,62.863l12.226,11.906l61.265-62.783
		c2.453-2.512,3.48-9.053,0.117-12.369C301.72,42.256,299.234,41.992,297.913,41.992 M298.207,55.344
		c-0.883,0.904-2.081,1.424-3.288,1.424c-1.053,0-2.034-0.391-2.764-1.102c-1.623-1.582-1.549-4.299,0.164-6.056
		c0.881-0.903,2.078-1.422,3.286-1.422c1.053,0,2.034,0.39,2.762,1.099c0.814,0.789,1.23,1.875,1.173,3.053
		C299.487,53.449,299.013,54.516,298.207,55.344"/>
	<path style="fill:#FFFFFF;" d="M228.732,145.287c1.925-1.973,3.71-6.607,1.653-10.732c-0.664-1.332-0.413-2.94,0.628-4.006
		l7.616-7.805l-12.227-11.908l-7.374,7.555c-1.042,1.068-2.647,1.359-3.995,0.722c-1.539-0.724-3.083-1.092-4.591-1.092
		c-2.264,0-4.381,0.838-5.807,2.299l-12.426,12.426l25.024,24.322L228.732,145.287z"/>
	<path style="fill:#FFFFFF;" d="M188.759,136.365c-2.556,2.857-7.109,8.215-10.29,13.492c-3.621,6.006-5.24,11.621-5.868,14.322
		l15.504,15.266c0.663-2.141,1.614-4.814,2.91-7.615c3.107-6.711,6.96-10.779,7.123-10.949c0.953-0.998,2.535-1.036,3.534-0.079
		c0.998,0.954,1.033,2.536,0.079,3.534c-0.03,0.033-3.46,3.681-6.198,9.595c-1.785,3.854-2.858,7.475-3.387,9.51l5.122,5.043
		c1.282-3.758,3.295-8.832,6.097-13.56c3.399-5.741,8.111-11.176,10.676-13.965L188.759,136.365z"/>
</g>
</svg>
