<?xml version="1.0" encoding="iso-8859-1"?>
<!-- Generator: Adobe Illustrator 25.4.1, SVG Export Plug-In . SVG Version: 6.00 Build 0)  -->
<svg version="1.1" id="Calque_1" xmlns="http://www.w3.org/2000/svg" xmlns:xlink="http://www.w3.org/1999/xlink" x="0px" y="0px"
	 viewBox="0 0 368.5 368.5" style="enable-background:new 0 0 368.5 368.5;" xml:space="preserve">
<g>
	<path style="fill:#FFFFFF;" d="M269.591,177.647l-60.547-23.439l-2.824,2.892c-0.163,0.553-0.46,1.061-0.872,1.475
		c-0.003,0.004-0.035,0.037-0.062,0.064c15.94,4.315,26.431,12.284,26.431,21.596c0,14.041-23.834,25.041-54.261,25.041
		c-30.426,0-54.26-11-54.26-25.041c0-9.381,10.649-17.398,26.787-21.689c0.308-1.573,1.109-5.035,2.841-9.356l-66.372,28.412
		c-4.38,1.875-8.081,7.897-8.081,13.151v0.853c0,0.028-0.001,0.055-0.001,0.082v91.694c0,5.205,4.143,11.205,9.046,13.103
		l86.269,33.399c0.034,0.013,5.318,2,9.605,2c3.778,0,8.721-1.77,9.318-1.989l77.947-33.363c4.381-1.875,8.081-7.898,8.081-13.15
		v-92.629C278.636,185.548,274.494,179.546,269.591,177.647 M174.397,227.384c-0.308,0.172-0.643,0.252-0.972,0.252
		c-0.702,0-1.383-0.37-1.749-1.026c-1.902-3.41-4.884-6.162-7.978-7.359l-72.274-27.985c-1.03-0.398-1.542-1.556-1.143-2.585
		c0.399-1.032,1.558-1.542,2.587-1.145l72.275,27.984c3.995,1.547,7.649,4.879,10.026,9.143
		C175.707,225.626,175.362,226.845,174.397,227.384 M181.847,320.26c0,1.104-0.896,2-2,2c-1.105,0-2-0.896-2-2v-71.095
		c0-1.104,0.895-2,2-2c1.104,0,2,0.896,2,2V320.26z M272.053,185.823l-78.026,33.4c-3.33,1.426-6.477,5.09-8.019,9.34
		c-0.295,0.813-1.063,1.319-1.88,1.319c-0.227,0-0.457-0.039-0.682-0.121c-1.039-0.377-1.575-1.524-1.198-2.563
		c1.93-5.32,5.841-9.785,10.205-11.652l78.026-33.401c1.015-0.433,2.191,0.037,2.626,1.053
		C273.539,184.214,273.069,185.389,272.053,185.823"/>
	<path style="fill:#FFFFFF;" d="M128.196,180.235c0,9.678,19.794,20.041,49.26,20.041c29.467,0,49.261-10.363,49.261-20.041
		c0-6.715-9.535-13.756-25.213-17.439c-0.869,1.009-1.818,2.152-2.79,3.39c13.088,2.729,21.762,7.94,21.762,14.049
		c0,9.023-18.897,16.092-43.02,16.092s-43.019-7.069-43.019-16.092c0-5.904,8.095-10.971,20.452-13.768l-3.276-3.226
		C137.008,167.028,128.196,173.782,128.196,180.235"/>
	<path style="fill:#FFFFFF;" d="M213.216,139.911c1.925-1.973,3.71-6.607,1.654-10.732c-0.665-1.334-0.413-2.942,0.627-4.006
		l7.616-7.805l-12.227-11.908l-7.374,7.555c-1.042,1.068-2.647,1.359-3.995,0.722c-1.539-0.724-3.083-1.092-4.591-1.092
		c-2.264,0-4.381,0.838-5.807,2.299l-12.425,12.426l25.023,24.322L213.216,139.911z"/>
	<path style="fill:#FFFFFF;" d="M282.396,36.616c-2.581,0-5.257,0.967-6.66,2.403l-61.357,62.863l12.226,11.906l61.264-62.783
		c2.454-2.512,3.481-9.053,0.117-12.369C286.204,36.88,283.719,36.616,282.396,36.616 M282.691,49.968
		c-0.883,0.904-2.082,1.424-3.288,1.424c-1.053,0-2.034-0.391-2.764-1.102c-1.623-1.582-1.549-4.299,0.163-6.056
		c0.881-0.903,2.079-1.422,3.287-1.422c1.053,0,2.033,0.39,2.762,1.099c0.745,0.723,1.163,1.713,1.178,2.789
		C284.045,47.888,283.557,49.079,282.691,49.968"/>
	<path style="fill:#FFFFFF;" d="M162.952,144.481c-3.621,6.006-5.24,11.621-5.868,14.322l15.505,15.266
		c0.662-2.141,1.613-4.815,2.91-7.615c3.106-6.711,6.959-10.78,7.121-10.95c0.954-0.998,2.536-1.035,3.535-0.078
		c0.998,0.953,1.033,2.535,0.079,3.534c-0.031,0.033-3.46,3.681-6.198,9.595c-1.778,3.84-2.855,7.471-3.386,9.512l5.121,5.041
		c1.282-3.758,3.295-8.832,6.098-13.563c3.399-5.738,8.11-11.173,10.675-13.962l-25.301-24.594
		C170.686,133.846,166.133,139.204,162.952,144.481"/>
</g>
</svg>
