<?xml version="1.0" encoding="iso-8859-1"?>
<!-- Generator: Adobe Illustrator 25.4.1, SVG Export Plug-In . SVG Version: 6.00 Build 0)  -->
<svg version="1.1" id="Calque_1" xmlns="http://www.w3.org/2000/svg" xmlns:xlink="http://www.w3.org/1999/xlink" x="0px" y="0px"
	 viewBox="0 0 368.5 368.5" style="enable-background:new 0 0 368.5 368.5;" xml:space="preserve">
<polygon style="fill:#FFFFFF;" points="65.826,69.921 63.641,67.845 63.641,306.147 65.392,307.57 "/>
<polygon style="fill:#FFFFFF;" points="66.57,65.109 68.54,66.981 193.234,46.678 191.116,44.957 "/>
<polygon style="fill:#FFFFFF;" points="195.867,50.433 147.09,58.325 195.867,99.442 "/>
<g>
	<path style="fill:#FFFFFF;" d="M126.131,162.859c-0.153-0.57-0.046-1.18,0.292-1.663l3.997-5.718
		c-0.032-0.429,0.071-0.86,0.307-1.228c0.304-0.474,0.794-0.797,1.348-0.892l63.792-10.849v-9.762l-31.331-26.41
		c-0.423-0.357-0.476-0.988-0.12-1.41c0.355-0.422,0.987-0.476,1.409-0.12l30.042,25.325v-28.075l-51.382-43.311L69.827,70.825
		v21.85l53.338,44.962c0.422,0.357,0.476,0.988,0.12,1.41c-0.198,0.234-0.481,0.355-0.765,0.355c-0.228,0-0.457-0.077-0.644-0.235
		L69.827,95.292v109.373l25.079,21.14c0.422,0.357,0.476,0.988,0.12,1.409c-0.198,0.235-0.48,0.356-0.765,0.356
		c-0.228,0-0.457-0.077-0.644-0.235l-23.79-20.054V309.99l76.314-12.347l-56.074-47.267c-0.422-0.357-0.476-0.988-0.12-1.41
		c0.356-0.421,0.987-0.476,1.409-0.12l57.388,48.376l12.833-2.076L126.131,162.859z"/>
	<polygon style="fill:#FFFFFF;" points="177.741,321.084 176.307,323.543 301.755,302.208 303.193,299.749 	"/>
	<polygon style="fill:#FFFFFF;" points="172.808,321.604 174.237,319.152 131.709,160.617 130.236,162.723 	"/>
	<path style="fill:#FFFFFF;" d="M202.238,175.706l72.916,8.849l-13.19-49.229l-127.053,21.608l15.177,56.641l126.221,15.318
		c0.549,0.067,0.939,0.565,0.872,1.113c-0.061,0.508-0.493,0.88-0.991,0.88c-0.04,0-0.081-0.002-0.122-0.007l-125.422-15.221
		l8.881,33.142l119.568,13.855c0.549,0.064,0.942,0.56,0.878,1.109c-0.059,0.509-0.491,0.884-0.991,0.884
		c-0.039,0-0.078-0.002-0.117-0.006l-118.781-13.764l17.721,66.138l127.053-21.608l-4.954-18.489l-114.095-12.73
		c-0.548-0.061-0.944-0.555-0.882-1.105c0.06-0.548,0.556-0.939,1.104-0.883l113.317,12.643l-23.635-88.205l-73.716-8.947
		c-0.549-0.067-0.939-0.565-0.872-1.113C201.192,176.03,201.693,175.64,202.238,175.706"/>
</g>
</svg>
