<?xml version="1.0" encoding="iso-8859-1"?>
<!-- Generator: Adobe Illustrator 25.4.1, SVG Export Plug-In . SVG Version: 6.00 Build 0)  -->
<svg version="1.1" id="Calque_1" xmlns="http://www.w3.org/2000/svg" xmlns:xlink="http://www.w3.org/1999/xlink" x="0px" y="0px"
	 viewBox="0 0 368.5 368.5" style="enable-background:new 0 0 368.5 368.5;" xml:space="preserve">
<rect x="126.704" y="145.871" style="fill:#FFFFFF;" width="25.252" height="77"/>
<g>
	<path style="fill:#FFFFFF;" d="M306.776,108.36H174.975c-8.834,0-16.019,7.187-16.019,16.019v119.74
		c0,8.834,7.185,16.022,16.019,16.022h131.801c8.832,0,16.019-7.188,16.019-16.022v-119.74
		C322.795,115.547,315.608,108.36,306.776,108.36 M170.338,115.807c2.239,0,4.061,1.822,4.061,4.06c0,2.241-1.822,4.061-4.061,4.061
		c-2.24,0-4.06-1.82-4.06-4.061C166.278,117.629,168.098,115.807,170.338,115.807 M170.338,253.137c-2.24,0-4.06-1.822-4.06-4.063
		c0-2.238,1.82-4.06,4.06-4.06c2.239,0,4.061,1.822,4.061,4.06C174.399,251.315,172.577,253.137,170.338,253.137 M258.151,222.119
		c-21.859,0-39.643-17.783-39.643-39.642c0-21.86,17.784-39.643,39.643-39.643s39.643,17.783,39.643,39.643
		C297.794,204.336,280.01,222.119,258.151,222.119 M311.061,253.137c-2.24,0-4.06-1.822-4.06-4.063c0-2.238,1.82-4.06,4.06-4.06
		c2.238,0,4.059,1.822,4.059,4.06C315.12,251.315,313.299,253.137,311.061,253.137 M311.061,123.928c-2.24,0-4.06-1.82-4.06-4.061
		c0-2.238,1.82-4.06,4.06-4.06c2.238,0,4.059,1.822,4.059,4.06C315.12,122.108,313.299,123.928,311.061,123.928"/>
	<path style="fill:#FFFFFF;" d="M86.776,108.36H61.724c-8.834,0-16.02,7.187-16.02,16.019v119.74c0,8.834,7.186,16.022,16.02,16.022
		h25.052c8.832,0,16.02-7.188,16.02-16.022v-119.74C102.796,115.547,95.608,108.36,86.776,108.36 M56.378,252.401
		c-2.24,0-4.061-1.821-4.061-4.059s1.821-4.061,4.061-4.061c2.238,0,4.059,1.823,4.059,4.061S58.616,252.401,56.378,252.401
		 M56.378,123.928c-2.24,0-4.061-1.82-4.061-4.061c0-2.238,1.821-4.06,4.061-4.06c2.238,0,4.059,1.822,4.059,4.06
		C60.437,122.108,58.616,123.928,56.378,123.928 M91.378,252.401c-2.24,0-4.061-1.821-4.061-4.059s1.821-4.061,4.061-4.061
		c2.238,0,4.059,1.823,4.059,4.061S93.616,252.401,91.378,252.401 M91.378,123.928c-2.24,0-4.061-1.82-4.061-4.061
		c0-2.238,1.821-4.06,4.061-4.06c2.238,0,4.059,1.822,4.059,4.06C95.437,122.108,93.616,123.928,91.378,123.928"/>
	<path style="fill:#FFFFFF;" d="M232.636,189.963c-0.504-1.717-0.838-3.504-0.986-5.346h-6.063c0.172,2.657,0.658,5.227,1.432,7.674
		L232.636,189.963z"/>
	<path style="fill:#FFFFFF;" d="M232.831,174.352l-5.6-2.318c-0.818,2.414-1.361,4.955-1.589,7.584h6.07
		C231.907,177.801,232.288,176.039,232.831,174.352"/>
	<path style="fill:#FFFFFF;" d="M260.612,156c1.789,0.164,3.525,0.508,5.195,1.01l2.323-5.61c-2.397-0.771-4.916-1.267-7.518-1.462
		V156z"/>
	<path style="fill:#FFFFFF;" d="M272.757,153.297l-2.32,5.603c1.578,0.827,3.066,1.805,4.439,2.918l4.291-4.291
		C277.212,155.877,275.062,154.457,272.757,153.297"/>
	<path style="fill:#FFFFFF;" d="M241.384,161.852c1.367-1.113,2.848-2.092,4.42-2.918l-2.322-5.603
		c-2.297,1.162-4.44,2.584-6.389,4.232L241.384,161.852z"/>
	<path style="fill:#FFFFFF;" d="M250.427,157.029c1.666-0.508,3.4-0.854,5.186-1.023v-6.063c-2.598,0.201-5.114,0.703-7.508,1.481
		L250.427,157.029z"/>
	<path style="fill:#FFFFFF;" d="M234.802,169.756c0.859-1.568,1.873-3.039,3.018-4.397l-4.286-4.283
		c-1.683,1.934-3.142,4.065-4.337,6.358L234.802,169.756z"/>
	<path style="fill:#FFFFFF;" d="M283.657,189.992l5.617,2.326c0.778-2.455,1.268-5.035,1.442-7.701h-6.065
		C284.503,186.469,284.167,188.265,283.657,189.992"/>
	<path style="fill:#FFFFFF;" d="M283.462,174.322c0.547,1.697,0.932,3.469,1.127,5.295h6.072c-0.23-2.641-0.777-5.19-1.601-7.613
		L283.462,174.322z"/>
	<path style="fill:#FFFFFF;" d="M278.448,165.32c1.152,1.359,2.172,2.836,3.035,4.41l5.61-2.322
		c-1.202-2.299-2.668-4.436-4.362-6.373L278.448,165.32z"/>
	<path style="fill:#FFFFFF;" d="M281.792,194.631c-0.848,1.644-1.857,3.191-3.018,4.613l4.291,4.291
		c1.696-2.002,3.153-4.211,4.332-6.582L281.792,194.631z"/>
	<path style="fill:#FFFFFF;" d="M237.493,199.203c-1.15-1.42-2.156-2.961-2.998-4.598l-5.604,2.323
		c1.174,2.365,2.623,4.566,4.311,6.566L237.493,199.203z"/>
	<path style="fill:#FFFFFF;" d="M266.073,207.867c-1.75,0.547-3.578,0.914-5.461,1.088v6.062c2.697-0.203,5.303-0.732,7.779-1.552
		L266.073,207.867z"/>
	<path style="fill:#FFFFFF;" d="M245.558,205.895c-1.633-0.881-3.16-1.93-4.564-3.121l-4.286,4.285
		c1.981,1.729,4.172,3.223,6.53,4.44L245.558,205.895z"/>
	<path style="fill:#FFFFFF;" d="M255.612,208.949c-1.879-0.18-3.703-0.553-5.449-1.104l-2.321,5.596
		c2.473,0.826,5.077,1.362,7.77,1.57V208.949z"/>
	<path style="fill:#FFFFFF;" d="M275.269,202.809c-1.412,1.191-2.947,2.238-4.588,3.119l2.32,5.604
		c2.368-1.215,4.565-2.707,6.551-4.438L275.269,202.809z"/>
	<path style="fill:#FFFFFF;" d="M236.556,182.477c0,11.908,9.688,21.596,21.596,21.596c11.906,0,21.593-9.688,21.593-21.596
		c0-11.908-9.687-21.596-21.593-21.596C246.244,160.881,236.556,170.569,236.556,182.477"/>
</g>
</svg>
