<?xml version="1.0" encoding="iso-8859-1"?>
<!-- Generator: Adobe Illustrator 25.4.1, SVG Export Plug-In . SVG Version: 6.00 Build 0)  -->
<svg version="1.1" id="Calque_1" xmlns="http://www.w3.org/2000/svg" xmlns:xlink="http://www.w3.org/1999/xlink" x="0px" y="0px"
	 viewBox="0 0 368.5 368.5" style="enable-background:new 0 0 368.5 368.5;" xml:space="preserve">
<g>
	<path style="fill:#FFFFFF;" d="M123.624,44.549v23.762c0,20.79,16.916,37.703,37.707,37.703c20.787,0,37.699-16.913,37.699-37.703
		V44.685c-8.264,3.752-24.279,6.35-37.556,6.35C148.038,51.035,131.796,48.374,123.624,44.549"/>
	<path style="fill:#FFFFFF;" d="M159.779,273.059v-161.43c-23.193-0.821-41.81-19.93-41.81-43.318v-25.77l-10.764,0.879v148.52
		c0,5.459-4.423,9.886-9.882,9.886c-5.458,0-9.883-4.427-9.883-9.886V45.036l-9.538,0.779v56.918
		c0,18.978-10.778,36.473-27.613,45.077v86.283h80.262c5.46,0,9.884,4.424,9.884,9.887c0,5.456-4.424,9.884-9.884,9.884H50.289
		v41.494h88.187c0.132-0.799,0.297-1.593,0.522-2.365C142.727,280.233,151.496,275.219,159.779,273.059"/>
	<path style="fill:#FFFFFF;" d="M214.226,253.864h-21.952c-5.462,0-9.884-4.428-9.884-9.884c0-5.462,4.422-9.887,9.884-9.887h46.735
		c9.057-10.52,13.324-20.819,14.043-23.69c0.751-2.998,3.433-5.095,6.524-5.101l13.571-0.024v-57.205
		c-17.16-8.511-28.148-26.108-28.148-45.339V45.815l-9.901-0.81v146.936c0,5.458-4.425,9.885-9.883,9.885
		c-5.46,0-9.886-4.427-9.886-9.885V43.388l-10.644-0.87v25.793c0,23.164-18.258,42.143-41.136,43.302v160.632
		c1.254-0.218,2.476-0.387,3.642-0.521C181.163,270.12,197.569,263.848,214.226,253.864"/>
	<path style="fill:#FFFFFF;" d="M317.725,303.33l0.172-91.378c0.003-1.198-0.473-2.347-1.32-3.195
		c-0.848-0.847-2.047-1.33-3.197-1.321l-40.233,0.073l-13.567,0.024c-2.065,0.004-3.863,1.41-4.365,3.413
		c-0.715,2.855-4.79,12.767-13.318,23.148c-4.355,5.301-9.868,10.724-16.695,15.394c-2.232,1.526-4.468,2.978-6.703,4.377
		c-17.991,11.26-35.895,18.334-51.053,20.075c-1.272,0.146-2.578,0.328-3.897,0.566c-1.251,0.225-2.513,0.499-3.77,0.843
		c-7.743,2.115-15.293,6.816-18.64,18.269c-0.166,0.568-0.291,1.152-0.399,1.741c-0.578,3.139-0.416,6.456-0.197,8.558
		c-0.148,0.447-0.248,0.915-0.248,1.41v8.984c0,6.435,5.235,11.672,11.67,11.672c2.323,0,4.559-0.708,6.441-1.958
		c1.882,1.249,4.118,1.958,6.44,1.958c2.323,0,4.559-0.709,6.442-1.958c1.882,1.249,4.118,1.958,6.441,1.958
		c2.322,0,4.558-0.709,6.44-1.958c1.882,1.25,4.118,1.958,6.44,1.958c2.323,0,4.559-0.708,6.441-1.958
		c1.882,1.249,4.118,1.958,6.44,1.958c2.323,0,4.559-0.708,6.441-1.958c1.882,1.249,4.118,1.958,6.441,1.958
		c2.322,0,4.558-0.708,6.44-1.958c1.881,1.25,4.118,1.958,6.441,1.958c2.323,0,4.559-0.708,6.44-1.958
		c1.882,1.25,4.118,1.958,6.441,1.958c2.323,0,4.559-0.708,6.441-1.958c1.881,1.25,4.118,1.958,6.44,1.958
		c2.363,0,4.594-0.695,6.465-1.942c1.877,1.239,4.103,1.942,6.417,1.942c2.363,0,4.593-0.695,6.464-1.942
		c1.877,1.239,4.104,1.942,6.417,1.942c2.363,0,4.593-0.695,6.464-1.942c1.877,1.239,4.104,1.942,6.417,1.942
		c2.363,0,4.593-0.695,6.465-1.942c1.877,1.239,4.103,1.942,6.417,1.942c6.434,0,11.67-5.237,11.67-11.672v-8.984
		C318.211,304.607,318.026,303.934,317.725,303.33 M257.253,227.781c0.238,0.797,0.969,1.381,1.843,1.381h14.051h35.7l-0.07,37.317
		c-17.071,0.152-31.419,11.851-35.63,27.648c-0.109,0.409-0.217,0.818-0.313,1.232c-0.527,2.293-0.845,4.666-0.926,7.098H149.467
		c-0.16-1.875-0.214-4.458,0.326-6.309c0.08-0.273,0.17-0.526,0.256-0.789c1.727-5.314,4.635-8.599,9.73-10.538
		c1.139-0.434,2.401-0.795,3.77-1.104c1.498-0.337,3.125-0.612,4.926-0.819c10.639-1.222,22.435-4.812,34.612-10.42l3.055,7.172
		c0.417,0.98,1.369,1.568,2.371,1.568c0.337,0,0.679-0.068,1.009-0.208c1.308-0.557,1.918-2.07,1.36-3.379l-3.147-7.389
		c4.014-2.002,8.055-4.218,12.103-6.635l4.274,7.028c0.485,0.797,1.334,1.238,2.204,1.238c0.456,0,0.918-0.121,1.336-0.375
		c1.216-0.74,1.602-2.325,0.863-3.54l-4.289-7.052c2.025-1.282,4.047-2.596,6.065-3.976c1.446-0.989,2.809-2.02,4.142-3.065
		c0.419-0.328,0.847-0.652,1.258-0.984l0.856,0.984l4.5,5.17c0.509,0.587,1.225,0.886,1.944,0.886c0.6,0,1.202-0.209,1.69-0.633
		c1.074-0.934,1.187-2.562,0.253-3.635l-1.557-1.788l-3.766-4.328c4.039-3.674,7.515-7.506,10.471-11.268l5.788,3.603
		c0.423,0.264,0.894,0.389,1.359,0.389c0.86,0,1.701-0.431,2.189-1.214c0.752-1.209,0.383-2.798-0.826-3.549l-5.428-3.38
		c0.005-0.008,0.011-0.016,0.017-0.024C254.712,231.911,256.066,229.793,257.253,227.781 M309.194,314.311
		c0,1.464-1.191,2.655-2.653,2.655c-1.221,0-2.032-0.776-2.384-1.503c-0.753-1.554-2.329-2.541-4.056-2.542H300.1
		c-1.727,0-3.302,0.986-4.056,2.54c-0.353,0.727-1.165,1.505-2.385,1.505s-2.031-0.776-2.384-1.503
		c-0.753-1.554-2.328-2.541-4.055-2.542h-0.001c-1.727,0-3.302,0.986-4.056,2.54c-0.354,0.727-1.165,1.505-2.385,1.505
		s-2.032-0.776-2.384-1.503c-0.753-1.554-2.328-2.541-4.055-2.542h-0.002c-1.726,0-3.302,0.986-4.055,2.54
		c-0.354,0.727-1.166,1.505-2.385,1.505c-1.221,0-2.032-0.776-2.384-1.503c-0.753-1.554-2.329-2.541-4.056-2.542h-0.001
		c-1.727,0-3.302,0.986-4.056,2.54c-0.353,0.727-1.165,1.505-2.385,1.505c-1.22,0-2.031-0.776-2.383-1.503
		c-0.753-1.555-2.329-2.542-4.057-2.542c-1.727,0-3.304,0.987-4.057,2.542c-0.352,0.726-1.164,1.503-2.384,1.503
		s-2.032-0.776-2.384-1.503c-0.753-1.555-2.328-2.542-4.056-2.542h-0.001c-1.727,0-3.303,0.987-4.056,2.542
		c-0.353,0.726-1.164,1.503-2.384,1.503s-2.032-0.776-2.384-1.503c-0.753-1.555-2.328-2.542-4.056-2.542h-0.001
		c-1.727,0-3.303,0.987-4.057,2.542c-0.352,0.726-1.163,1.503-2.383,1.503s-2.032-0.777-2.385-1.505
		c-0.754-1.554-2.33-2.54-4.057-2.54c-1.727,0-3.303,0.987-4.056,2.542c-0.352,0.726-1.164,1.503-2.384,1.503
		c-1.219,0-2.031-0.777-2.384-1.505c-0.754-1.554-2.33-2.54-4.057-2.54s-3.303,0.987-4.056,2.542
		c-0.352,0.726-1.164,1.503-2.384,1.503s-2.032-0.777-2.384-1.505c-0.755-1.554-2.33-2.54-4.057-2.54
		c-1.727,0-3.303,0.987-4.056,2.542c-0.353,0.726-1.164,1.503-2.383,1.503c-1.221,0-2.033-0.777-2.386-1.505
		c-0.754-1.554-2.329-2.54-4.057-2.54c-1.727,0-3.302,0.987-4.056,2.542c-0.352,0.726-1.163,1.503-2.384,1.503
		c-1.219,0-2.031-0.777-2.384-1.505c-0.754-1.554-2.33-2.54-4.057-2.54s-3.303,0.987-4.056,2.542
		c-0.352,0.726-1.164,1.503-2.384,1.503c-1.463,0-2.653-1.191-2.653-2.655v-7.105c0.137-0.282,0.25-0.577,0.326-0.885h151.886
		l5.185,0.129h0.048c0.227,0,0.444-0.053,0.653-0.129h1.322c0.039,0.618,0.198,1.198,0.462,1.722V314.311z"/>
</g>
</svg>
