<?xml version="1.0" encoding="iso-8859-1"?>
<!-- Generator: Adobe Illustrator 25.4.1, SVG Export Plug-In . SVG Version: 6.00 Build 0)  -->
<svg version="1.1" id="Calque_1" xmlns="http://www.w3.org/2000/svg" xmlns:xlink="http://www.w3.org/1999/xlink" x="0px" y="0px"
	 viewBox="0 0 368.5 368.5" style="enable-background:new 0 0 368.5 368.5;" xml:space="preserve">
<g>
	<path style="fill:#FFFFFF;" d="M286.684,109.299v36.746c0,0.259-0.211,0.47-0.469,0.47h-1.905c-0.26,0-0.468-0.211-0.468-0.47
		v-31.151c0-3.45-2.276-6.259-5.073-6.259c-1.996,0-3.721,1.431-4.549,3.498c0.173,0.746,0.274,1.523,0.274,2.327l0.019,47.214
		l1.816-4.167c1.101-3.192,4.08-5.327,7.461-5.327c0.805,0,1.609,0.126,2.415,0.377c3.268,1.059,5.464,4.076,5.464,7.507
		c0,0.789-0.122,1.599-0.353,2.342c-0.031,0.096-0.064,0.186-0.103,0.276l-17.715,41.197c-0.051,0.119-0.11,0.235-0.18,0.346
		c-0.553,1.024-1.288,1.966-2.172,2.797c0.142,0.131,0.281,0.266,0.418,0.402c2.297,2.332,3.567,5.419,3.567,8.692v49.518h35.401
		v-49.518c0-2.621-1.052-4.993-2.76-6.721c-1.02-1.033-2.28-1.831-3.684-2.315c2.205-0.885,4.008-2.363,5.007-4.257
		c0.012-0.018,0.023-0.037,0.034-0.053l17.713-41.197c0.146-0.462,0.228-0.983,0.228-1.509c0-2.211-1.415-4.154-3.522-4.838
		c-0.503-0.158-1.027-0.24-1.551-0.24c-2.211,0-4.159,1.419-4.841,3.529l-6.34,14.539c-0.089,0.2-0.305,0.321-0.524,0.27
		c-0.218-0.045-0.375-0.238-0.375-0.457l-0.023-58.405c0-3.452-2.276-6.261-5.072-6.261c-2.802,0-5.082,2.809-5.082,6.261v31.583
		c0,0.259-0.207,0.47-0.466,0.47h-1.976c-0.258,0-0.47-0.211-0.47-0.47v-36.746c0-3.545-2.272-6.427-5.071-6.427
		C288.957,102.872,286.684,105.754,286.684,109.299 M276.615,210.818h0.942c-0.147,0.055-0.305,0.098-0.471,0.098
		C276.921,210.915,276.764,210.872,276.615,210.818 M295.316,205.165v4.346c0,0.774-0.626,1.404-1.4,1.404
		c-0.775,0-1.403-0.63-1.403-1.404v-4.346c0-0.774,0.628-1.403,1.403-1.403C294.69,203.762,295.316,204.392,295.316,205.165
		 M286.904,205.165v4.346c0,0.774-0.63,1.404-1.403,1.404c-0.775,0-1.402-0.63-1.402-1.404v-4.346c0-0.774,0.627-1.403,1.402-1.403
		C286.273,203.762,286.904,204.392,286.904,205.165"/>
	<path style="fill:#FFFFFF;" d="M248.476,109.298v36.746c0,0.259-0.209,0.47-0.468,0.47h-1.906c-0.259,0-0.468-0.211-0.468-0.47
		v-31.151c0-3.451-2.277-6.26-5.075-6.26c-2.796,0-5.074,2.809-5.074,6.26v31.151c0,0.259-0.209,0.47-0.467,0.47h-1.666
		c-0.258,0-0.468-0.211-0.468-0.47v-13.392c0-2.72-2.274-4.932-5.073-4.932c-2.8,0-5.078,2.212-5.078,4.932v66.91
		c0,3.306,2.411,6.165,5.901,7.545c-1.392,0.494-2.64,1.293-3.649,2.331c-1.682,1.724-2.72,4.076-2.72,6.676v49.519h38.206h11.853
		v-49.519c0-2.619-1.052-4.991-2.758-6.719c-1.022-1.035-2.282-1.83-3.687-2.317c2.206-0.883,4.006-2.362,5.008-4.255
		c0.011-0.019,0.024-0.038,0.034-0.053l17.716-41.197c0.144-0.463,0.225-0.985,0.225-1.51c0-2.212-1.413-4.154-3.522-4.837
		c-0.503-0.16-1.027-0.242-1.551-0.242c-2.211,0-4.158,1.42-4.839,3.531l-6.342,14.538c-0.087,0.201-0.304,0.321-0.523,0.27
		c-0.219-0.045-0.376-0.239-0.376-0.458l-0.022-58.405c0-3.451-2.277-6.259-5.073-6.259c-2.803,0-5.081,2.808-5.081,6.259v31.584
		c0,0.259-0.208,0.47-0.467,0.47h-1.976c-0.259,0-0.468-0.211-0.468-0.47v-36.746c0-3.543-2.276-6.427-5.073-6.427
		S248.476,105.755,248.476,109.298 M257.109,205.164v4.347c0,0.774-0.626,1.403-1.4,1.403c-0.774,0-1.403-0.629-1.403-1.403v-4.347
		c0-0.773,0.629-1.402,1.403-1.402C256.483,203.762,257.109,204.391,257.109,205.164 M248.695,205.164v4.347
		c0,0.774-0.627,1.403-1.403,1.403c-0.773,0-1.399-0.629-1.399-1.403v-4.347c0-0.773,0.626-1.402,1.399-1.402
		C248.068,203.762,248.695,204.391,248.695,205.164 M240.283,205.164v4.347c0,0.774-0.629,1.403-1.403,1.403
		c-0.774,0-1.404-0.629-1.404-1.403v-4.347c0-0.773,0.63-1.402,1.404-1.402C239.654,203.762,240.283,204.391,240.283,205.164"/>
	<path style="fill:#FFFFFF;" d="M80.428,208.348c-20.646,1.005-36.824,17.999-36.824,38.689c0,0.98,0.516,1.84,1.288,2.333
		c0.476-0.133,0.967-0.227,1.485-0.227h19.128h19.127h19.127h19.129h19.129h19.129h19.127h18.866c0.6-0.51,0.99-1.259,0.99-2.106
		V145.384c0-0.831-0.376-1.571-0.958-2.078h-67.33c-0.583,0.507-0.96,1.247-0.96,2.078v41.755v3.88
		c0,9.528-7.751,17.282-17.278,17.282H82.34C81.721,208.301,81.078,208.315,80.428,208.348 M178.376,160.967
		c0-1.743,1.413-3.156,3.156-3.156c1.742,0,3.155,1.413,3.155,3.156v53.438c0,1.743-1.413,3.155-3.155,3.155
		c-1.743,0-3.156-1.412-3.156-3.155V160.967z"/>
	<path style="fill:#FFFFFF;" d="M123.302,134.295c0,2.68,2.171,4.853,4.852,4.853h73.362c2.68,0,4.852-2.173,4.852-4.853
		c0-2.677-2.172-4.849-4.852-4.849h-73.362C125.473,129.446,123.302,131.618,123.302,134.295"/>
	<path style="fill:#FFFFFF;" d="M161.146,260.004c1.872,3.354,5.454,5.63,9.563,5.63c4.107,0,7.692-2.276,9.564-5.63
		c1.871,3.354,5.456,5.63,9.564,5.63c6.036,0,10.95-4.911,10.95-10.949c0-0.767-0.62-1.385-1.388-1.385h-19.126h-19.127h-19.13
		h-19.128h-19.129H84.632H65.506H46.378c-0.768,0-1.386,0.618-1.386,1.385c0,6.038,4.911,10.949,10.948,10.949
		c4.109,0,7.692-2.276,9.566-5.63c1.872,3.354,5.454,5.63,9.561,5.63c4.111,0,7.693-2.276,9.566-5.63
		c1.872,3.354,5.457,5.63,9.565,5.63c4.109,0,7.689-2.276,9.562-5.63c1.873,3.354,5.458,5.63,9.565,5.63
		c4.109,0,7.691-2.276,9.564-5.63c1.874,3.354,5.456,5.63,9.566,5.63c4.106,0,7.689-2.276,9.562-5.63
		c1.873,3.354,5.456,5.63,9.565,5.63C155.689,265.634,159.271,263.358,161.146,260.004"/>
</g>
</svg>
