<?xml version="1.0" encoding="iso-8859-1"?>
<!-- Generator: Adobe Illustrator 25.4.1, SVG Export Plug-In . SVG Version: 6.00 Build 0)  -->
<svg version="1.1" id="Calque_1" xmlns="http://www.w3.org/2000/svg" xmlns:xlink="http://www.w3.org/1999/xlink" x="0px" y="0px"
	 viewBox="0 0 368.5 368.5" style="enable-background:new 0 0 368.5 368.5;" xml:space="preserve">
<g>
	<path style="fill:#FFFFFF;" d="M155.266,96.114c-6.564,1.687-14.806,2.558-23.021,2.558c-8.265,0-16.554-0.882-23.137-2.589
		l12.901,8.468l0.005,13.814c-0.012,0.073-0.063,0.144-0.063,0.217c0,2.023,4.586,3.664,10.239,3.664
		c5.565,0,10.074-1.594,10.212-3.574h0.007v-0.025c0-0.024,0.018-0.044,0.018-0.065c0-0.02-0.018-0.041-0.018-0.063l0.004-13.968
		L155.266,96.114z"/>
	<path style="fill:#FFFFFF;" d="M156.078,168.142l77.474-41.354c0.305-2.777-0.118-6.714-2.231-10.617
		c-2.539-4.694-6.563-7.531-9.345-8.36l-65.898,35.173V168.142z"/>
	<path style="fill:#FFFFFF;" d="M246.354,94.798l-0.712,0.38c3.021,1.781,6.109,4.709,8.297,8.753
		c1.894,3.5,2.762,7.199,2.829,10.464l0.257-0.137c14.205-7.769,24.488-17.588,30.534-29.17c4.221-8.003,6.475-16.872,6.88-27.014
		c-2.985,1.129-7.141,1.594-10.955,1.594c-3.94,0-8.252-0.493-11.255-1.704c-0.347,6.552-1.707,11.834-4.3,16.783
		C263.752,82.581,256.899,88.945,246.354,94.798"/>
	<path style="fill:#FFFFFF;" d="M150.026,133.019c-0.004-0.05-0.007-0.1-0.008-0.149c-0.767-1.216-6.864-4.044-17.773-4.044
		c-10.908,0-17.005,2.828-17.771,4.044c-0.001,0.032-0.002,0.063-0.004,0.095v48.52l0.677,0.891
		c0.94,0.921,7.029,2.737,17.264,2.737c10.242,0,16.334-1.817,17.32-2.789l0.295-0.336V133.019z M117.949,135.128
		c0-2.319,6.401-4.202,14.297-4.202c7.896,0,14.296,1.883,14.296,4.202c0,2.323-6.4,4.204-14.296,4.204
		C124.35,139.332,117.949,137.451,117.949,135.128"/>
	<path style="fill:#FFFFFF;" d="M162.789,283.105c-6.629,4.598-18.942,7.022-30.757,7.022c-11.542,0-23.536-2.321-30.266-6.715
		v12.063c0,16.824,13.688,30.512,30.513,30.512c16.823,0,30.51-13.688,30.51-30.512V283.105z"/>
	<path style="fill:#FFFFFF;" d="M151.871,188.081c-5.739,2.915-16.948,3.084-19.459,3.084c-2.567,0-13.925-0.176-19.617-3.181
		c-6.943,5.782-11.029,14.392-11.029,23.442v66.844c3.817,4.114,15.192,7.823,30.266,7.823c14.507,0,25.563-3.437,29.78-7.362
		l-13.72-4.613c-0.069-0.024-0.137-0.05-0.205-0.077c-9.897-4.151-16.586-16.48-16.645-30.678
		c-0.075-17.755,10.457-32.247,23.478-32.303h0.001c1.989,0,3.888,0.309,5.731,0.918l2.337,0.782v-1.334
		C162.789,202.441,158.744,193.863,151.871,188.081"/>
	<path style="fill:#FFFFFF;" d="M170.834,274.716c4.488-0.019,8.769-2.616,12.055-7.315c3.51-5.02,5.427-11.736,5.398-18.911
		c-0.049-11.864-5.506-22.25-13.268-25.257l-16.478-5.512c-1.219-0.403-2.479-0.609-3.738-0.609
		c-9.742,0.043-17.57,11.807-17.508,26.226c0.047,11.568,5.321,21.86,12.836,25.081l17.077,5.743
		c1.146,0.362,2.366,0.554,3.575,0.554v3.021L170.834,274.716z M159.055,249.118c-0.046-11.864,5.566-21.503,12.54-21.535
		c6.974-0.029,12.669,9.567,12.715,21.433c0.05,11.863-5.565,21.507-12.539,21.534C164.797,270.58,159.104,260.986,159.055,249.118"
		/>
	<path style="fill:#FFFFFF;" d="M121.321,94.125c1.505-1.586,5.791-2.731,10.854-2.731c5.077,0,9.374,1.151,10.868,2.745
		c14.154-1.377,21.496-5.282,21.496-7.573c0-2.815-11.091-8.068-32.294-8.068c-21.202,0-32.293,5.253-32.293,8.068
		C99.952,88.851,107.251,92.738,121.321,94.125"/>
	<path style="fill:#FFFFFF;" d="M92.216,54.288c0,6.508,17.92,11.769,40.029,11.769c22.11,0,40.03-5.261,40.03-11.769
		c0-6.495-17.92-11.765-40.03-11.765C110.136,42.523,92.216,47.793,92.216,54.288 M145.699,54.288c0,5.121-11.207,5.38-13.453,5.38
		c-2.247,0-13.454-0.259-13.454-5.38c0-3.968,7.247-5.376,13.454-5.376C138.452,48.912,145.699,50.32,145.699,54.288"/>
	<path style="fill:#FFFFFF;" d="M272.807,53.809c1.327,0.772,5.03,1.824,10.677,1.824c5.644,0,9.347-1.052,10.674-1.824
		c-1.329-0.775-5.033-1.828-10.674-1.828C277.842,51.981,274.136,53.034,272.807,53.809"/>
	<path style="fill:#FFFFFF;" d="M238.545,97.426l-13.422,7.266c3.455,1.622,7.207,4.865,9.746,9.559
		c2.474,4.572,3.204,9.488,2.674,13.332l13.566-7.342c0.026-0.015,0.053-0.027,0.083-0.04c0.016-0.013,0.034-0.024,0.051-0.035
		c1.473-0.952,2.731-7.691-0.852-14.313c-3.052-5.638-8.272-8.643-10.869-8.643c-0.364,0-0.56,0.063-0.644,0.101
		C238.769,97.36,238.657,97.397,238.545,97.426"/>
	<path style="fill:#FFFFFF;" d="M141.013,54.29c-1.397-0.615-4.44-1.344-8.767-1.344c-4.327,0-7.37,0.729-8.767,1.344
		c1.396,0.615,4.438,1.344,8.767,1.344C136.574,55.634,139.617,54.905,141.013,54.29"/>
	<path style="fill:#FFFFFF;" d="M82.872,71.918V67.33c-0.261,0.025-0.514,0.079-0.781,0.079c-0.424,0-0.83-0.06-1.236-0.124v4.678
		c0.406-0.065,0.812-0.125,1.236-0.125C82.358,71.838,82.611,71.891,82.872,71.918"/>
	<path style="fill:#FFFFFF;" d="M82.091,172.706c0.267,0,0.52,0.052,0.781,0.08v-4.589c-0.261,0.026-0.514,0.079-0.781,0.079
		c-0.424,0-0.83-0.06-1.236-0.124v4.679C81.261,172.766,81.667,172.706,82.091,172.706"/>
	<path style="fill:#FFFFFF;" d="M82.872,112.265v-4.588c-0.261,0.025-0.514,0.079-0.781,0.079c-0.424,0-0.83-0.06-1.236-0.124v4.678
		c0.406-0.065,0.812-0.125,1.236-0.125C82.358,112.185,82.611,112.238,82.872,112.265"/>
	<path style="fill:#FFFFFF;" d="M82.872,92.092v-4.588c-0.261,0.025-0.514,0.079-0.781,0.079c-0.424,0-0.83-0.06-1.236-0.124v4.678
		c0.406-0.065,0.812-0.125,1.236-0.125C82.358,92.012,82.611,92.065,82.872,92.092"/>
	<path style="fill:#FFFFFF;" d="M82.872,132.439v-4.588c-0.261,0.025-0.514,0.079-0.781,0.079c-0.424,0-0.83-0.06-1.236-0.124v4.678
		c0.406-0.065,0.812-0.125,1.236-0.125C82.358,132.359,82.611,132.412,82.872,132.439"/>
	<path style="fill:#FFFFFF;" d="M82.872,152.612v-4.588c-0.261,0.025-0.514,0.079-0.781,0.079c-0.424,0-0.83-0.06-1.236-0.124v4.678
		c0.406-0.065,0.812-0.125,1.236-0.125C82.358,152.532,82.611,152.585,82.872,152.612"/>
	<path style="fill:#FFFFFF;" d="M82.091,174.723c-3.229,0-5.856,2.627-5.856,5.854c0,3.229,2.627,5.855,5.856,5.855
		c3.227,0,5.852-2.626,5.852-5.855C87.943,177.35,85.318,174.723,82.091,174.723"/>
	<path style="fill:#FFFFFF;" d="M87.943,160.404c0-3.227-2.625-5.854-5.852-5.854c-3.229,0-5.856,2.627-5.856,5.854
		c0,3.229,2.627,5.855,5.856,5.855C85.318,166.259,87.943,163.633,87.943,160.404"/>
	<path style="fill:#FFFFFF;" d="M87.943,140.23c0-3.227-2.625-5.854-5.852-5.854c-3.229,0-5.856,2.627-5.856,5.854
		c0,3.229,2.627,5.855,5.856,5.855C85.318,146.085,87.943,143.459,87.943,140.23"/>
	<path style="fill:#FFFFFF;" d="M87.943,120.057c0-3.227-2.625-5.854-5.852-5.854c-3.229,0-5.856,2.627-5.856,5.854
		c0,3.229,2.627,5.855,5.856,5.855C85.318,125.912,87.943,123.286,87.943,120.057"/>
	<path style="fill:#FFFFFF;" d="M87.943,99.883c0-3.227-2.625-5.854-5.852-5.854c-3.229,0-5.856,2.627-5.856,5.854
		c0,3.229,2.627,5.855,5.856,5.855C85.318,105.738,87.943,103.112,87.943,99.883"/>
	<path style="fill:#FFFFFF;" d="M87.943,79.71c0-3.227-2.625-5.854-5.852-5.854c-3.229,0-5.856,2.627-5.856,5.854
		c0,3.229,2.627,5.855,5.856,5.855C85.318,85.565,87.943,82.939,87.943,79.71"/>
	<path style="fill:#FFFFFF;" d="M82.091,65.391c3.227,0,5.852-2.626,5.852-5.855c0-3.227-2.625-5.854-5.852-5.854
		c-3.229,0-5.856,2.627-5.856,5.854C76.235,62.765,78.862,65.391,82.091,65.391"/>
</g>
</svg>
