<?xml version="1.0" encoding="iso-8859-1"?>
<!-- Generator: Adobe Illustrator 25.4.1, SVG Export Plug-In . SVG Version: 6.00 Build 0)  -->
<svg version="1.1" id="Calque_1" xmlns="http://www.w3.org/2000/svg" xmlns:xlink="http://www.w3.org/1999/xlink" x="0px" y="0px"
	 viewBox="0 0 368.5 368.5" style="enable-background:new 0 0 368.5 368.5;" xml:space="preserve">
<g>
	<path style="fill:#FFFFFF;" d="M274.875,187.877c16.342,5.745,34.227-2.837,39.971-19.172c2.206-6.274,2.282-12.775,0.634-18.735
		l-55.638,32.619L274.875,187.877z"/>
	<path style="fill:#FFFFFF;" d="M164.267,170.044l-21.241-7.47v62.375c-0.024,12.946-10.565,23.485-23.495,23.501H68.417
		c-1.986,0-3.595-1.611-3.595-3.596V207.75c0-5.857-4.763-10.623-10.618-10.623c-5.855,0-10.619,4.766-10.619,10.623v100.849
		c0,5.857,4.764,10.623,10.619,10.623c5.855,0,10.618-4.766,10.618-10.623v-35.304c0-1.986,1.609-3.596,3.595-3.596h51.109
		c24.662-0.014,44.734-20.09,44.741-44.75V170.044z"/>
	<path style="fill:#FFFFFF;" d="M322.405,137.574c3.167-1.903,4.865-4.368,4.622-6.744c-0.213-2.088-1.945-3.9-4.634-4.846
		L104.886,49.481c-0.325-0.114-0.667-0.173-1.01-0.173c-1.3,0-2.464,0.824-2.896,2.051l-26.779,76.14
		c-0.272,0.77-0.226,1.601,0.128,2.338c0.354,0.738,0.973,1.293,1.743,1.564l154.712,54.413c0.83,0.293,2.126,0.459,3.554,0.459
		c3.099,0,6.301-0.754,8.357-1.968L322.405,137.574z M172.794,138.967c-1.971,5.602-8.108,8.554-13.715,6.58l-18.495-6.507
		c-5.604-1.972-8.554-8.116-6.583-13.716c1.972-5.602,8.113-8.552,13.718-6.585l18.499,6.51
		C171.825,127.222,174.762,133.365,172.794,138.967"/>
</g>
</svg>
