<?xml version="1.0" encoding="iso-8859-1"?>
<!-- Generator: Adobe Illustrator 25.4.1, SVG Export Plug-In . SVG Version: 6.00 Build 0)  -->
<svg version="1.1" id="Calque_1" xmlns="http://www.w3.org/2000/svg" xmlns:xlink="http://www.w3.org/1999/xlink" x="0px" y="0px"
	 viewBox="0 0 368.5 368.5" style="enable-background:new 0 0 368.5 368.5;" xml:space="preserve">
<g>
	<path style="fill:#FFFFFF;" d="M81.939,226.672c-3.046-1.199-6.491,0.253-7.742,3.281c-1.255,3.057,0.203,6.555,3.263,7.817
		l8.104,3.342l-0.04,14.552l20.199,8.319l0.038-14.554l3.556,1.467c0.739,0.303,1.509,0.45,2.263,0.453
		c2.358,0.007,4.599-1.392,5.551-3.709c1.259-3.056-0.195-6.557-3.251-7.82l-3.339-1.376c-0.019-0.006-0.038-0.009-0.057-0.017
		L81.939,226.672z"/>
	<path style="fill:#FFFFFF;" d="M140.866,42.757l-89.623-0.224c-6.223-0.015-7.315,6.112-2.651,9.537
		c0,0,26.059,18.677,37.377,25.241L85.86,119.83l20.199,8.32l0.125-50.914c11.657-6.718,38.268-25.515,38.268-25.515
		C148.235,48.951,147.667,42.775,140.866,42.757"/>
	<path style="fill:#FFFFFF;" d="M74.287,195.995c-1.258,3.058,0.197,6.558,3.257,7.823l8.103,3.338l-0.036,14.547l20.194,8.32
		l0.036-14.544l3.556,1.463c0.741,0.305,1.509,0.452,2.261,0.452c2.362,0.004,4.605-1.397,5.558-3.715
		c1.261-3.058-0.196-6.558-3.254-7.817l-8.088-3.33v-0.001l-23.802-9.803C79.023,191.491,75.542,192.945,74.287,195.995"/>
	<path style="fill:#FFFFFF;" d="M82.255,124.819c-3.056-1.245-6.544,0.211-7.801,3.259c-1.255,3.063,0.198,6.563,3.259,7.824
		l8.101,3.338l-0.033,14.546l20.194,8.318l0.034-14.542l3.561,1.465c0.741,0.301,1.508,0.448,2.263,0.448
		c2.36,0.007,4.597-1.386,5.551-3.708c1.263-3.06-0.194-6.559-3.25-7.823l-3.36-1.384c-0.012-0.004-0.025-0.002-0.037-0.006
		L82.255,124.819z"/>
	<path style="fill:#FFFFFF;" d="M82.116,158.76c-3.043-1.21-6.493,0.249-7.747,3.283c-1.259,3.054,0.194,6.559,3.252,7.811
		l8.111,3.34l-0.036,14.546l20.195,8.323l0.036-14.548l3.56,1.469c0.74,0.305,1.504,0.448,2.264,0.45
		c2.357,0.006,4.597-1.394,5.555-3.706c1.255-3.063-0.197-6.563-3.256-7.818l-3.349-1.38c-0.019-0.007-0.038-0.005-0.057-0.011
		L82.116,158.76z"/>
	<path style="fill:#FFFFFF;" d="M81.924,260.655c-3.052-1.255-6.55,0.2-7.81,3.258c-1.256,3.056,0.199,6.564,3.26,7.815l8.105,3.341
		l-0.103,40.787c-0.011,5.593,4.504,10.123,10.085,10.141c5.582,0.015,10.116-4.5,10.131-10.086l0.078-32.525l3.556,1.468
		c0.748,0.304,1.513,0.453,2.27,0.456c2.364,0.003,4.601-1.397,5.556-3.71c1.257-3.061-0.199-6.561-3.259-7.824l-3.352-1.381
		c-0.014-0.005-0.029-0.002-0.044-0.008L81.924,260.655z"/>
	<path style="fill:#FFFFFF;" d="M189.025,108.913c-2.454-0.983-5.241,0.194-6.244,2.641c-1.001,2.462,0.175,5.269,2.634,6.271
		l6.512,2.662l0.005,11.675l16.229,6.634l-0.004-11.679l2.863,1.174c0.595,0.242,1.212,0.352,1.818,0.352
		c1.892,0,3.686-1.124,4.448-2.989c1.008-2.456-0.171-5.263-2.627-6.27l-2.709-1.107c-0.008-0.002-0.015,0-0.023-0.004
		L189.025,108.913z"/>
	<path style="fill:#FFFFFF;" d="M188.995,136.165c-2.446-0.962-5.207,0.217-6.206,2.654c-1.005,2.454,0.175,5.262,2.632,6.267
		l6.516,2.659l0.003,11.682l16.232,6.632l-0.003-11.682l2.861,1.171c0.595,0.244,1.212,0.359,1.818,0.359
		c1.892,0,3.69-1.13,4.452-2.988c1.004-2.457-0.173-5.268-2.637-6.27l-2.697-1.103c-0.01-0.005-0.023-0.002-0.033-0.006
		L188.995,136.165z"/>
	<path style="fill:#FFFFFF;" d="M161.848,50.588c0,0,20.963,14.938,30.064,20.183l0.013,34.138l16.23,6.631l-0.015-40.875
		c9.345-5.422,30.664-20.569,30.664-20.569c3.029-2.236,2.562-7.191-2.9-7.189l-71.949,0.028
		C158.96,42.935,158.096,47.856,161.848,50.588"/>
	<path style="fill:#FFFFFF;" d="M189.054,217.96c-2.448-0.983-5.237,0.194-6.236,2.639c-1.006,2.461,0.174,5.269,2.633,6.268
		l6.514,2.663l0.01,32.754c0.002,4.483,3.637,8.11,8.118,8.106c4.481,0,8.112-3.635,8.112-8.115l-0.008-26.111l2.86,1.173
		c0.594,0.237,1.212,0.355,1.816,0.353c1.899,0,3.694-1.13,4.456-2.989c1-2.458-0.177-5.266-2.637-6.272l-2.69-1.099
		c-0.015-0.006-0.029-0.002-0.042-0.008L189.054,217.96z"/>
	<path style="fill:#FFFFFF;" d="M189.039,190.695c-2.45-0.979-5.231,0.2-6.233,2.644c-1,2.458,0.175,5.262,2.636,6.267l6.51,2.663
		l0.008,11.684l16.23,6.632l-0.004-11.682l2.858,1.166c0.596,0.247,1.215,0.364,1.821,0.364c1.89,0,3.687-1.133,4.449-2.992
		c1.004-2.457-0.172-5.262-2.633-6.268l-2.721-1.115c-0.002-0.001-0.004,0-0.006-0.001L189.039,190.695z"/>
	<path style="fill:#FFFFFF;" d="M182.8,166.074c-1.002,2.458,0.173,5.266,2.634,6.276l6.51,2.661l0.002,11.678l16.236,6.635
		l-0.004-11.681l2.858,1.168c0.594,0.242,1.206,0.36,1.815,0.36c1.898,0,3.696-1.13,4.453-2.993
		c1.006-2.458-0.172-5.268-2.633-6.269l-6.497-2.655l-19.153-7.828C186.571,162.463,183.796,163.633,182.8,166.074"/>
	<path style="fill:#FFFFFF;" d="M284.315,133.721c-1.842-0.735-3.934,0.152-4.681,1.993c-0.747,1.848,0.143,3.953,1.989,4.706
		l4.894,1.985l0.027,8.769l12.193,4.945l-0.024-8.764l2.15,0.872c0.444,0.181,0.907,0.265,1.361,0.261
		c1.425,0,2.768-0.851,3.338-2.254c0.75-1.848-0.141-3.953-1.986-4.701l-2.046-0.83c-0.002-0.001-0.002-0.001-0.005-0.001
		L284.315,133.721z"/>
	<path style="fill:#FFFFFF;" d="M284.212,113.246c-1.831-0.704-3.894,0.183-4.639,2.008c-0.747,1.85,0.139,3.95,1.991,4.7
		l4.894,1.982l0.027,8.771l12.195,4.946l-0.025-8.765l2.151,0.872c0.446,0.179,0.909,0.266,1.364,0.266
		c1.42-0.003,2.767-0.853,3.336-2.255c0.749-1.846-0.141-3.952-1.987-4.7l-2.025-0.82c-0.01-0.005-0.019-0.003-0.029-0.007
		L284.212,113.246z"/>
	<path style="fill:#FFFFFF;" d="M284.187,92.793c-1.84-0.725-3.925,0.162-4.67,1.994c-0.75,1.85,0.139,3.953,1.989,4.703
		l4.895,1.988l0.023,8.766l12.198,4.947l-0.026-8.768l2.151,0.873c0.449,0.186,0.907,0.265,1.364,0.265
		c1.421-0.004,2.764-0.852,3.334-2.254c0.754-1.847-0.143-3.951-1.983-4.702l-2.037-0.826c-0.006-0.002-0.013-0.001-0.017-0.003
		L284.187,92.793z"/>
	<path style="fill:#FFFFFF;" d="M284.936,174.853l-0.484-0.195c-1.846-0.75-3.951,0.138-4.698,1.988
		c-0.749,1.846,0.135,3.953,1.987,4.698l4.893,1.987l0.072,24.581c0.006,3.366,2.747,6.082,6.108,6.073
		c3.363-0.011,6.083-2.743,6.074-6.109l-0.061-19.599l2.151,0.876c0.451,0.181,0.91,0.267,1.371,0.267
		c1.425-0.009,2.765-0.861,3.332-2.256c0.751-1.848-0.137-3.951-1.987-4.702l-2.032-0.826c-0.006-0.002-0.012-0.001-0.019-0.002
		L284.936,174.853z"/>
	<path style="fill:#FFFFFF;" d="M263.685,49.068c0,0,15.767,11.17,22.607,15.089l0.076,25.623l12.193,4.951l-0.086-30.683
		c7.002-4.086,22.977-15.5,22.977-15.5c2.271-1.681,1.909-5.401-2.189-5.39l-54.01,0.158
		C261.504,43.324,260.866,47.02,263.685,49.068"/>
	<path style="fill:#FFFFFF;" d="M279.693,156.179c-0.747,1.846,0.139,3.953,1.989,4.702l4.894,1.985l0.027,8.77l12.195,4.947
		l-0.025-8.769l2.149,0.874c0.446,0.178,0.909,0.267,1.368,0.267c1.42-0.006,2.765-0.861,3.334-2.256
		c0.747-1.848-0.146-3.951-1.989-4.696l-4.887-1.984v-0.001l-14.408-5.843C282.505,153.464,280.436,154.352,279.693,156.179"/>
</g>
</svg>
