<?xml version="1.0" encoding="iso-8859-1"?>
<!-- Generator: Adobe Illustrator 25.4.1, SVG Export Plug-In . SVG Version: 6.00 Build 0)  -->
<svg version="1.1" id="Calque_1" xmlns="http://www.w3.org/2000/svg" xmlns:xlink="http://www.w3.org/1999/xlink" x="0px" y="0px"
	 viewBox="0 0 368.5 368.5" style="enable-background:new 0 0 368.5 368.5;" xml:space="preserve">
<g>
	<path style="fill:#FFFFFF;" d="M262.853,138.64c-0.078-0.023-0.154-0.051-0.225-0.08l-27.38-11.279
		c-0.036-0.016-0.073-0.032-0.108-0.047c-0.596-0.229-1.219-0.344-1.855-0.344c-2.155,0-4.051,1.271-4.862,3.242
		c-0.258,0.629-0.394,1.319-0.394,1.99c-0.002,2.133,1.273,4.036,3.248,4.85l6.357,2.621c1.127,0.463,1.86,1.563,1.858,2.779
		l-0.028,12.104l18.452,7.603l0.025-9.648c0.002-1.008,0.51-1.947,1.353-2.5c0.842-0.555,1.907-0.646,2.834-0.248l0.114,0.049
		c0.588,0.236,1.259,0.371,1.933,0.371c2.149,0,4.043-1.274,4.856-3.244c0.265-0.643,0.398-1.311,0.396-1.99
		c0.004-2.135-1.267-4.036-3.24-4.856L262.853,138.64z"/>
	<path style="fill:#FFFFFF;" d="M296.342,48.913c-0.926-0.816-2.299-1.242-3.98-1.242l-86.924-0.219
		c-0.037,0-0.08-0.006-0.104,0.002c-1.498,0-2.763,0.412-3.596,1.16c-0.742,0.656-1.171,1.633-1.164,2.627
		c0.002,1.633,0.934,3.244,2.559,4.434h-0.002c0.055,0.037,0.119,0.084,0.195,0.138c5.608,4.002,24.694,17.537,34.86,23.631
		c0.906,0.545,1.461,1.526,1.457,2.582l-0.102,39.494l18.457,7.606l0.117-47.178c0.002-1.055,0.559-2.031,1.467-2.572
		c11.311-6.723,33.399-22.27,35.879-24.02c1.307-0.957,2.061-2.339,2.065-3.789C297.532,50.554,297.088,49.563,296.342,48.913"/>
	<path style="fill:#FFFFFF;" d="M235.068,193.189c-0.625-0.254-1.281-0.385-1.947-0.385c-2.149,0-4.047,1.274-4.86,3.246
		c-0.263,0.639-0.394,1.303-0.392,1.979c-0.006,2.142,1.269,4.043,3.248,4.863l6.353,2.619c1.127,0.463,1.86,1.563,1.858,2.781
		l-0.031,12.102l18.457,7.605l0.023-9.65c0.002-0.994,0.496-1.922,1.32-2.478c0.825-0.559,1.871-0.67,2.793-0.299l0.114,0.045
		c0.642,0.265,1.279,0.398,1.921,0.408c0.032,0,0.069,0.016,0.09,0c2.133,0,4.039-1.279,4.86-3.256
		c0.257-0.631,0.392-1.305,0.392-1.992c0-2.129-1.273-4.031-3.246-4.846L235.068,193.189z"/>
	<path style="fill:#FFFFFF;" d="M262.523,270.478c-0.072-0.023-0.143-0.049-0.207-0.074l-27.389-11.287
		c-0.636-0.262-1.306-0.395-1.984-0.395c-2.137,0-4.035,1.276-4.848,3.248c-0.26,0.631-0.396,1.317-0.394,1.985
		c-0.004,2.14,1.273,4.041,3.25,4.851l6.355,2.619c1.127,0.463,1.86,1.563,1.858,2.782l-0.094,37.88c0,0.026-0.002,0.1-0.002,0.125
		c0,5.032,4.098,9.166,9.148,9.223c0.032-0.002,0.063-0.002,0.094-0.002c5.074,0,9.217-4.135,9.234-9.215l0.067-27.953
		c0.002-0.99,0.494-1.916,1.312-2.473c0.821-0.558,1.862-0.675,2.784-0.312l0.109,0.043c0.668,0.273,1.312,0.41,1.953,0.42
		c0.029,0,0.059-0.002,0.086,0c2.133,0,4.037-1.277,4.857-3.252c0.26-0.635,0.395-1.309,0.393-1.983
		c0.002-2.134-1.275-4.039-3.25-4.857L262.523,270.478z"/>
	<path style="fill:#FFFFFF;" d="M262.875,171.651c-0.084-0.027-0.166-0.057-0.248-0.09l-27.514-11.344
		c-0.613-0.244-1.261-0.369-1.925-0.369c-2.129,0-4.03,1.274-4.842,3.246c-0.268,0.643-0.401,1.311-0.401,1.993
		c-0.004,2.128,1.27,4.027,3.243,4.837l6.367,2.625c1.127,0.463,1.859,1.563,1.857,2.782l-0.031,12.103l18.455,7.608l0.025-9.653
		c0.002-0.996,0.498-1.925,1.325-2.482c0.826-0.555,1.877-0.664,2.796-0.293l0.112,0.045c0.65,0.267,1.32,0.4,2.008,0.404
		c2.13,0,4.035-1.275,4.857-3.248c0.256-0.625,0.391-1.303,0.393-1.994c0-2.129-1.272-4.029-3.243-4.84L262.875,171.651z"/>
	<path style="fill:#FFFFFF;" d="M262.713,237.564c-0.059-0.022-0.117-0.041-0.162-0.061l-27.609-11.371
		c-0.612-0.24-1.26-0.363-1.922-0.363c-2.133,0-4.034,1.272-4.848,3.242c-0.258,0.631-0.391,1.301-0.391,1.983
		c-0.002,2.129,1.276,4.033,3.254,4.851l6.356,2.621c1.127,0.463,1.859,1.563,1.857,2.782l-0.033,12.109l18.457,7.603l0.025-9.656
		c0.002-1.008,0.51-1.945,1.352-2.5c0.842-0.553,1.904-0.644,2.83-0.25l0.109,0.047c0.571,0.234,1.215,0.367,1.873,0.379
		c0.032,0,0.051-0.004,0.086,0c2.125,0,4.026-1.275,4.842-3.248c0.26-0.633,0.393-1.303,0.393-1.984
		c0-2.135-1.272-4.038-3.242-4.856L262.713,237.564z"/>
	<path style="fill:#FFFFFF;" d="M102.865,202.44l4.178,29.783c0.015,0.115,0.023,0.231,0.023,0.346l0.002,4.103h10.033l0.002-35.99
		H104.99c-0.137,0.024-0.275,0.035-0.416,0.035l-0.572,0.002H104c-0.367,0-0.67,0.176-0.807,0.35
		c-0.242,0.299-0.355,0.65-0.357,1.07c0,0.03-0.002,0.112,0.013,0.199C102.855,202.372,102.861,202.407,102.865,202.44"/>
	<path style="fill:#FFFFFF;" d="M105.719,150.983c0.086,1.15-0.625,2.209-1.723,2.564c-1.095,0.358-2.295-0.084-2.898-1.066
		L82.762,122.7c-1.17-1.897-3.195-3.029-5.414-3.029c-1.191,0-2.34,0.326-3.344,0.945c-1.898,1.168-3.029,3.193-3.029,5.422
		c0,1.177,0.328,2.33,0.947,3.332l34.774,56.48c0.242,0.393,0.371,0.848,0.371,1.311v7.978h10.037v-68.705l-13.229-0.002
		L105.719,150.983z"/>
	<path style="fill:#FFFFFF;" d="M143.287,153.55c-1.098-0.355-1.809-1.414-1.723-2.564l1.844-24.549h-13.316l-0.002,68.701
		l10.127,0.002l-0.002-7.979c0-0.463,0.129-0.918,0.371-1.31l34.775-56.481c0.619-1.004,0.946-2.154,0.946-3.332
		c0-2.226-1.131-4.252-3.03-5.42c-1.006-0.621-2.158-0.949-3.33-0.949c-2.228,0-4.256,1.133-5.424,3.033l-18.337,29.782
		C145.58,153.466,144.381,153.907,143.287,153.55"/>
	<path style="fill:#FFFFFF;" d="M143.527,242.218h-13.439v35.871h10.125v-4.053c0-0.117,0.007-0.232,0.023-0.347l4.187-29.844
		c0.01-0.08,0.018-0.174,0.018-0.266C144.447,243.23,144.291,242.38,143.527,242.218"/>
	<path style="fill:#FFFFFF;" d="M130.092,110.743v10.148h13.732l0.104-1.373V45.46l-40.57,0.002l-0.004,74.052l0.101,1.377h13.649
		v-10.144c0.006-3.576,2.92-6.486,6.492-6.49C127.176,104.261,130.086,107.171,130.092,110.743"/>
	<path style="fill:#FFFFFF;" d="M104,283.628c-0.365,0-0.67,0.174-0.805,0.344c-0.244,0.301-0.357,0.656-0.359,1.082
		c0,0.053,0,0.133,0.016,0.222l4.681,33.354c0.035,0.105,0.031,0.064,0.053,0.174c0.496,2.451,2.668,4.232,5.164,4.236h4.352
		v-39.412h-13.1H104z"/>
	<path style="fill:#FFFFFF;" d="M107.045,273.692c0.018,0.115,0.025,0.23,0.025,0.348v4.05h10.032v-35.873h-13.354
		c-0.765,0.172-0.922,1.024-0.916,1.319c0.002,0.103,0.004,0.195,0.02,0.299L107.045,273.692z"/>
	<path style="fill:#FFFFFF;" d="M143.324,283.628l-13.238,0.002l-0.002,39.41h4.443c2.498-0.004,4.672-1.781,5.168-4.228
		c0.018-0.082,0.037-0.163,0.063-0.243l4.668-33.263c0.007-0.069,0.015-0.166,0.015-0.262c0-0.42-0.113-0.768-0.338-1.043
		C143.947,283.802,143.644,283.628,143.324,283.628"/>
	<path style="fill:#FFFFFF;" d="M143.334,200.718h-0.621c-0.147,0-0.287-0.012-0.426-0.035H130.09l-0.002,35.99h10.127v-4.1
		c0-0.117,0.008-0.232,0.023-0.347l4.188-29.83c0.012-0.086,0.017-0.198,0.019-0.305c-0.002-0.24-0.062-0.654-0.34-1
		C143.949,200.89,143.65,200.718,143.334,200.718"/>
</g>
</svg>
