<?xml version="1.0" encoding="iso-8859-1"?>
<!-- Generator: Adobe Illustrator 25.4.1, SVG Export Plug-In . SVG Version: 6.00 Build 0)  -->
<svg version="1.1" id="Calque_1" xmlns="http://www.w3.org/2000/svg" xmlns:xlink="http://www.w3.org/1999/xlink" x="0px" y="0px"
	 viewBox="0 0 368.5 368.5" style="enable-background:new 0 0 368.5 368.5;" xml:space="preserve">
<g>
	<path style="fill:#FFFFFF;" d="M93.402,81.27H75.414l-11.156-3.525c-0.543-0.173-1.121-0.221-1.687-0.135l-16.8,2.429
		c-1.865,0.269-3.251,1.868-3.251,3.754v10.878c0,1.889,1.386,3.486,3.251,3.755l16.795,2.428c0.18,0.026,0.363,0.04,0.543,0.04
		c0.374,0,0.746-0.056,1.105-0.165l11.178-3.398h18.01V81.27z"/>
	<path style="fill:#FFFFFF;" d="M143.612,114.475V64.391H118.64c-6.603,0-12.958,2.648-17.649,7.314v35.459
		c4.691,4.662,11.046,7.311,17.649,7.311H143.612z"/>
	<path style="fill:#FFFFFF;" d="M310.019,231.501c1.329,0,2.626,0.137,3.898,0.351l-27.177-98.218
		c-1.626,0.179-3.271,0.288-4.941,0.288h-41.752c0,2.444,0.287,5.176,1.161,7.88c1.238,3.845,3.839,6.182,6.593,8.649
		c2.932,2.631,5.966,5.351,7.119,9.774c0.892,3.391-0.681,6.635-2.072,9.497c-1.114,2.301-2.27,4.68-1.695,6.186
		c0.751,1.969,2.31,2.994,4.79,4.506c2.574,1.566,5.781,3.518,7.102,7.484c1.252,3.745-0.017,7.55-1.245,11.231
		c-1.087,3.254-2.112,6.328-1.233,8.673c0.934,2.488,3.358,3.803,6.164,5.323c3.206,1.739,6.842,3.71,8.169,7.919
		c0.98,3.103,0.106,7.111-1.07,10.457H310.019z"/>
	<path style="fill:#FFFFFF;" d="M281.799,126.334c20.535,0,37.241-16.707,37.241-37.241v-0.444
		c0-20.535-16.706-37.243-37.241-37.243H151.2v74.928H281.799z M265.891,107.167l10.372-37.344c0.746-2.689,3.535-4.261,6.228-3.521
		c2.693,0.748,4.268,3.537,3.52,6.227l-10.373,37.345c-0.62,2.24-2.655,3.707-4.871,3.707c-0.447,0-0.904-0.061-1.356-0.185
		C266.719,112.648,265.142,109.858,265.891,107.167 M244.585,107.167l10.375-37.344c0.749-2.689,3.535-4.261,6.227-3.521
		c2.693,0.748,4.269,3.537,3.521,6.227l-10.375,37.345c-0.623,2.24-2.656,3.707-4.872,3.707c-0.447,0-0.904-0.061-1.356-0.185
		C245.413,112.648,243.837,109.858,244.585,107.167 M228.158,113.581c-0.447,0-0.904-0.061-1.356-0.185
		c-2.693-0.748-4.269-3.538-3.52-6.229l10.375-37.344c0.748-2.689,3.535-4.261,6.227-3.521c2.693,0.748,4.269,3.537,3.52,6.227
		l-10.375,37.345C232.407,112.114,230.374,113.581,228.158,113.581"/>
	<path style="fill:#FFFFFF;" d="M249.642,317.124h60.377c8.804,0,15.966-7.16,15.966-15.96V255.05
		c0-8.801-7.162-15.961-15.966-15.961h-60.377c-8.804,0-15.965,7.16-15.965,15.961v46.114
		C233.677,309.964,240.838,317.124,249.642,317.124"/>
</g>
</svg>
