<?xml version="1.0" encoding="iso-8859-1"?>
<!-- Generator: Adobe Illustrator 25.4.1, SVG Export Plug-In . SVG Version: 6.00 Build 0)  -->
<svg version="1.1" id="Calque_1" xmlns="http://www.w3.org/2000/svg" xmlns:xlink="http://www.w3.org/1999/xlink" x="0px" y="0px"
	 viewBox="0 0 368.5 368.5" style="enable-background:new 0 0 368.5 368.5;" xml:space="preserve">
<g>
	<path style="fill:#FFFFFF;" d="M267.78,131.137c-0.401-1.496-1.875-2.435-3.401-2.181l-62.055,10.554V47.488
		c0.263-1.112-0.125-2.279-1.012-3.008l-9.686-7.939c-0.665-0.545-1.534-0.777-2.381-0.642l-130.04,21.04
		c-1.453,0.236-2.521,1.49-2.521,2.962v243.218c0,0.898,0.402,1.749,1.097,2.319l8.971,7.361l0.001,0.001
		c0.04,0.063,0.083,0.123,0.127,0.183c0.066,0.089,0.135,0.173,0.21,0.254c0.051,0.056,0.105,0.108,0.16,0.161
		c0.079,0.072,0.161,0.139,0.247,0.203c0.063,0.047,0.125,0.093,0.192,0.135c0.09,0.058,0.185,0.105,0.281,0.153
		c0.07,0.034,0.137,0.071,0.21,0.099c0.111,0.045,0.227,0.076,0.344,0.107c0.063,0.017,0.124,0.039,0.189,0.052
		c0.185,0.036,0.375,0.058,0.568,0.058h0.002h0.002c0.005,0,0.009-0.001,0.014-0.001c0.153-0.001,0.309-0.013,0.464-0.037
		l90.052-14.57l8.258,30.818c0.356,1.33,1.56,2.223,2.895,2.223c0.167,0,0.336-0.013,0.506-0.043l131.013-22.281
		c0.883-0.149,1.653-0.687,2.099-1.465l6.094-10.625c0.907-0.721,1.352-1.933,1.033-3.124L267.78,131.137z M187.267,263.054
		l9.057,1.011v23.547l-22.628,3.661l-11.108-41.411l33.736,3.909v8.28l-8.835-0.985c-0.556-0.056-1.044,0.335-1.105,0.883
		C186.323,262.499,186.718,262.993,187.267,263.054 M305.051,293.42l-125.06,21.32l-4.732-17.642l24.544-3.97
		c1.454-0.236,2.521-1.491,2.521-2.962v-25.432l97.97,10.931L305.051,293.42z M162.03,247.784l-8.888-33.135l43.182,5.24v31.869
		L162.03,247.784z M152.583,212.566l-15.01-55.958l58.751-9.991v71.257L152.583,212.566z M130.276,166.179l2.574-4.019
		l41.96,156.421l-2.517,4.401L130.276,166.179z M176.527,325.65l2.682-4.69l123.6-21.073l-2.724,4.749L176.527,325.65z
		 M262.691,135.33l12.851,47.959l-71.846-8.718c-0.548-0.061-1.047,0.324-1.113,0.873c-0.067,0.548,0.323,1.046,0.872,1.113
		l72.645,8.816l23.637,88.217l-97.413-10.869v-8.254l77.998,9.04c0.039,0.004,0.078,0.006,0.117,0.006
		c0.5,0,0.932-0.375,0.991-0.884c0.064-0.549-0.329-1.045-0.878-1.109l-78.228-9.066v-31.837l75.202,9.126
		c0.04,0.005,0.081,0.007,0.122,0.007c0.498,0,0.929-0.372,0.991-0.88c0.066-0.548-0.324-1.046-0.872-1.113l-75.443-9.156v-73.005
		L262.691,135.33z M62.684,64.676l3.605,3.258c0,0.016-0.004,0.032-0.004,0.048L65.854,304.3l-3.17-2.6V64.676z M69.297,64.947
		l-0.294,0.047l-3.344-3.021l123.209-19.934l3.5,2.869L69.297,64.947z M196.324,50.472v46.993l-46.769-39.426L196.324,50.472z
		 M149.194,295.237l-56.38-47.525c-0.422-0.357-1.054-0.302-1.41,0.12c-0.355,0.422-0.302,1.052,0.121,1.409l55.065,46.417
		L72.285,307.68V206.989L95.074,226.2c0.188,0.158,0.417,0.235,0.644,0.235c0.285,0,0.568-0.121,0.766-0.355
		c0.356-0.422,0.302-1.053-0.121-1.409l-24.078-20.298V94.999l51.048,43.033c0.188,0.158,0.417,0.235,0.644,0.235
		c0.285,0,0.568-0.121,0.765-0.355c0.356-0.422,0.303-1.053-0.12-1.409L72.285,92.382v-21.84l74.667-12.081l49.372,41.62v28.073
		l-29.042-24.481c-0.421-0.356-1.053-0.302-1.409,0.12c-0.356,0.422-0.302,1.052,0.12,1.409l30.331,25.567v9.761l-62.959,10.707
		c-1.439,0.245-2.461,1.478-2.494,2.884l-6.362,9.939c-0.455,0.71-0.589,1.579-0.371,2.394l34.116,127.317L149.194,295.237z"/>
</g>
</svg>
