<?xml version="1.0" encoding="iso-8859-1"?>
<!-- Generator: Adobe Illustrator 25.4.1, SVG Export Plug-In . SVG Version: 6.00 Build 0)  -->
<svg version="1.1" id="Calque_1" xmlns="http://www.w3.org/2000/svg" xmlns:xlink="http://www.w3.org/1999/xlink" x="0px" y="0px"
	 viewBox="0 0 368.5 368.5" style="enable-background:new 0 0 368.5 368.5;" xml:space="preserve">
<g>
	<path style="fill:#FFFFFF;" d="M97.505,247.923c-17.194-20.904-27.606-50.284-26.906-82.652
		c1.145-52.931,31.569-96.668,71.519-107.825l15.557,4.435c2.784-2.09,5.631-4.048,8.539-5.874l-6.867-1.982l-8.762-2.259
		c-1.189-0.341-2.392-0.649-3.605-0.93l-0.347-0.089c-1.873-0.501-3.528-0.798-4.987-0.941c-2.998-0.456-6.042-0.731-9.132-0.798
		c-47.803-1.034-87.588,46.186-88.871,105.469c-0.926,42.805,18.476,80.19,47.327,98.059c2.977,1.964,7.913,4.692,16.039,8.688
		l4.896,2.374c-1.74-3.59-3.334-7.261-4.787-11.01L97.505,247.923z"/>
	<path style="fill:#FFFFFF;" d="M235.528,46.868c-4.411-0.658-8.9-0.991-13.345-0.991c-56.492,0-106.912,52.431-117.281,121.959
		c-5.492,36.827,0.889,73.144,17.967,102.256c16.942,28.879,42.4,47.188,71.685,51.557c4.409,0.657,8.9,0.991,13.343,0.991
		c56.493,0,106.91-52.431,117.278-121.959C336.471,124.925,296.256,55.924,235.528,46.868 M143.964,204.153
		c2.507-2.67,5.905-4.202,9.567-4.314l6.271-0.193c-2.471-7.412-3.665-15.622-3.325-24.192c-4.988-1.982-8.484-6.724-8.654-12.282
		c-0.111-3.665,1.208-7.151,3.715-9.818c2.508-2.67,5.907-4.2,9.569-4.31l1.457-0.045c4.059-9.158,9.883-16.915,16.8-22.626
		c-5.019-1.969-8.534-6.731-8.701-12.315c-0.107-3.665,1.218-7.148,3.729-9.814c2.512-2.665,5.912-4.19,9.574-4.297l82.175-2.451
		c7.458,0,13.475,5.844,13.697,13.302c0.111,3.665-1.213,7.152-3.729,9.82c-2.512,2.665-5.913,4.19-9.575,4.294l-32.921,0.983
		c6.023,5.27,10.829,12.312,14.038,20.479l35.698-1.101c7.459,0,13.481,5.839,13.709,13.293c0.233,7.55-5.724,13.887-13.28,14.127
		l-31.701,0.978c-0.105,2.599-0.337,5.227-0.733,7.88c-0.809,5.424-2.2,10.579-4.059,15.395l28.489-0.878
		c7.461,0,13.483,5.839,13.711,13.293c0.113,3.66-1.207,7.148-3.717,9.815c-2.51,2.67-5.908,4.202-9.567,4.312l-50.075,1.545
		c-9.087,6.432-19.728,9.489-30.551,7.877c-5.97-0.889-11.466-3.135-16.347-6.432l-25.273,0.779c-0.685,0-1.374-0.052-2.047-0.156
		c-6.546-0.976-11.455-6.501-11.656-13.134C140.14,210.306,141.457,206.821,143.964,204.153 M169.004,275.129
		c-0.7,0-1.391-0.05-2.053-0.147c-6.571-0.982-11.479-6.517-11.679-13.159c-0.217-7.563,5.751-13.892,13.305-14.11l82.18-2.445
		c7.456,0,13.472,5.842,13.694,13.297c0.111,3.661-1.212,7.146-3.725,9.814c-2.512,2.665-5.913,4.193-9.576,4.303L169.004,275.129z"
		/>
	<path style="fill:#FFFFFF;" d="M266.34,118.27c1.89-0.054,3.641-0.839,4.934-2.213c1.296-1.374,1.978-3.172,1.921-5.061
		c-0.114-3.844-3.213-6.854-7.053-6.854l-81.98,2.447c-1.888,0.057-3.639,0.842-4.932,2.214c-1.294,1.373-1.977,3.169-1.922,5.058
		c0.102,3.422,2.628,6.272,6.006,6.776c0.34,0.048,0.707,0.078,1.08,0.078l0.193-0.002L266.34,118.27z"/>
	<path style="fill:#FFFFFF;" d="M160.477,169.738c0.34,0.05,0.697,0.078,1.061,0.078l0.209-0.002l121.824-3.763
		c3.893-0.123,6.964-3.39,6.843-7.28c-0.117-3.842-3.22-6.852-7.065-6.852l-122.038,3.767c-1.889,0.058-3.639,0.846-4.929,2.22
		c-1.292,1.374-1.973,3.171-1.914,5.062C154.572,166.384,157.1,169.232,160.477,169.738"/>
	<path style="fill:#FFFFFF;" d="M152.904,220.531c0.354,0.054,0.699,0.08,1.052,0.08l0.215-0.002l121.826-3.762
		c1.886-0.059,3.637-0.849,4.929-2.222c1.294-1.376,1.975-3.172,1.916-5.061c-0.117-3.84-3.221-6.849-7.067-6.849l-122.038,3.766
		c-1.888,0.059-3.638,0.848-4.928,2.222c-1.292,1.374-1.97,3.172-1.912,5.061C146.999,217.182,149.526,220.027,152.904,220.531"/>
	<path style="fill:#FFFFFF;" d="M250.951,266.04c1.89-0.058,3.644-0.846,4.939-2.22c1.294-1.373,1.976-3.169,1.918-5.056
		c-0.113-3.842-3.212-6.849-7.051-6.849l-0.224,0.002l-81.76,2.438c-3.894,0.115-6.968,3.375-6.856,7.274
		c0.103,3.42,2.63,6.272,6.009,6.778c0.347,0.05,0.71,0.076,1.079,0.076l0.208-0.005L250.951,266.04z"/>
</g>
</svg>
