<?xml version="1.0" encoding="iso-8859-1"?>
<!-- Generator: Adobe Illustrator 25.4.1, SVG Export Plug-In . SVG Version: 6.00 Build 0)  -->
<svg version="1.1" id="Calque_1" xmlns="http://www.w3.org/2000/svg" xmlns:xlink="http://www.w3.org/1999/xlink" x="0px" y="0px"
	 viewBox="0 0 368.5 368.5" style="enable-background:new 0 0 368.5 368.5;" xml:space="preserve">
<g>
	<path style="fill:#FFFFFF;" d="M43.598,90.847v186.83c0,3.573,2.9,6.476,6.476,6.476h166.589c3.578,0,6.477-2.903,6.477-6.476
		v-30.376c-1.005,0.358-2.053,0.758-3.201,1.221l-0.092,0.036c-2.748,1.094-5.948,2.348-9.66,3.092v19.551h-70.623v-22.204
		c-4.232-1.651-8.578-3.923-12.952-6.722v28.926H56.55v-75.895h26.687c-2.336-3.938-4.691-8.26-6.947-12.953H56.55V90.847
		c0-3.575-2.9-6.476-6.476-6.476S43.598,87.272,43.598,90.847"/>
	<path style="fill:#FFFFFF;" d="M239.099,87.935c0-0.968-0.782-1.745-1.747-1.745H69.082c-0.965,0-1.746,0.777-1.746,1.745v28.868
		c0,43.017,20.155,75.551,32.172,91.112c17.813,23.075,39.731,37.982,55.84,37.982c5.318,0,9.53-1.68,13.608-3.303
		c3.578-1.437,6.901-2.772,10.669-2.772c3.776,0,7.097,1.335,10.61,2.747l0.092,0.037c4.068,1.618,8.274,3.291,13.58,3.291
		c5.305,0,9.508-1.673,13.57-3.288l0.097-0.036c3.521-1.416,6.838-2.751,10.611-2.751c3.775,0,7.094,1.335,10.612,2.747
		c4.151,1.651,8.365,3.328,13.672,3.328c5.319,0,9.535-1.68,13.612-3.303c3.581-1.437,6.906-2.772,10.671-2.772
		c3.772,0,7.091,1.335,10.611,2.747c4.145,1.651,8.357,3.328,13.673,3.328c5.315,0,9.527-1.68,13.603-3.303
		c3.583-1.437,6.912-2.772,10.674-2.772c0.867,0,1.601-0.632,1.731-1.485c0.126-0.854-0.39-1.677-1.216-1.929
		c-51.875-16.025-86.729-64.088-86.729-119.605V87.935z"/>
</g>
</svg>
