<?xml version="1.0" encoding="iso-8859-1"?>
<!-- Generator: Adobe Illustrator 25.4.1, SVG Export Plug-In . SVG Version: 6.00 Build 0)  -->
<svg version="1.1" id="Calque_1" xmlns="http://www.w3.org/2000/svg" xmlns:xlink="http://www.w3.org/1999/xlink" x="0px" y="0px"
	 viewBox="0 0 368.5 368.5" style="enable-background:new 0 0 368.5 368.5;" xml:space="preserve">
<rect x="227.467" y="48" style="fill:#FFFFFF;" width="28.924" height="41.331"/>
<g>
	<path style="fill:#FFFFFF;" d="M295.976,276.845v43.698h22.996c4.459,0,8.084-3.797,8.084-8.464v-35.234H295.976z"/>
	<path style="fill:#FFFFFF;" d="M199.877,320.543h22.257v-43.698h-6.428c-7.628,0-13.834-6.206-13.834-13.831
		c0-7.628,6.206-13.835,13.834-13.835h6.428V116.997h-6.428c-7.628,0-13.834-6.206-13.834-13.831
		c0-7.628,6.206-13.834,13.834-13.834h6.428V48.001h-22.257c-4.456,0.003-8.084,3.802-8.084,8.467v255.611
		C191.793,316.746,195.419,320.543,199.877,320.543"/>
	<path style="fill:#FFFFFF;" d="M295.976,48.001v41.331h31.08V56.468c0-4.665-3.628-8.464-8.086-8.467H295.976z"/>
	<rect x="295.976" y="116.997" style="fill:#FFFFFF;" width="31.08" height="132.182"/>
	<rect x="261.724" y="48" style="fill:#FFFFFF;" width="28.918" height="41.331"/>
	<rect x="227.467" y="276.845" style="fill:#FFFFFF;" width="28.924" height="43.698"/>
	<rect x="227.467" y="116.997" style="fill:#FFFFFF;" width="28.924" height="132.182"/>
	<rect x="261.724" y="116.997" style="fill:#FFFFFF;" width="28.918" height="132.182"/>
	<rect x="261.725" y="276.845" style="fill:#FFFFFF;" width="28.918" height="43.698"/>
	<path style="fill:#FFFFFF;" d="M300.693,267.636c2.68,0,4.854-2.175,4.854-4.857c0-2.677-2.174-4.852-4.854-4.852
		c-2.682,0-4.857,2.175-4.857,4.852C295.836,265.461,298.011,267.636,300.693,267.636"/>
	<path style="fill:#FFFFFF;" d="M219.487,257.927c-2.68,0-4.854,2.175-4.854,4.852c0,2.682,2.174,4.857,4.854,4.857
		c2.685,0,4.852-2.175,4.852-4.857C224.339,260.102,222.172,257.927,219.487,257.927"/>
	<path style="fill:#FFFFFF;" d="M300.693,107.788c2.68,0,4.854-2.175,4.854-4.855c0-2.682-2.174-4.856-4.854-4.856
		c-2.682,0-4.857,2.174-4.857,4.856C295.836,105.613,298.011,107.788,300.693,107.788"/>
	<path style="fill:#FFFFFF;" d="M219.487,98.077c-2.68,0-4.854,2.175-4.854,4.857c0,2.68,2.174,4.854,4.854,4.854
		c2.685,0,4.852-2.174,4.852-4.854C224.339,100.252,222.172,98.077,219.487,98.077"/>
	<rect x="80" y="276.845" style="fill:#FFFFFF;" width="28.924" height="43.698"/>
	<rect x="43.592" y="116.997" style="fill:#FFFFFF;" width="31.075" height="132.182"/>
	<rect x="114.258" y="276.845" style="fill:#FFFFFF;" width="28.913" height="43.698"/>
	<rect x="114.257" y="48" style="fill:#FFFFFF;" width="28.913" height="41.331"/>
	<rect x="80" y="48" style="fill:#FFFFFF;" width="28.924" height="41.331"/>
	<path style="fill:#FFFFFF;" d="M148.504,48.001v41.331h6.435c7.626,0,13.832,6.206,13.832,13.834
		c0,7.625-6.206,13.831-13.832,13.831h-6.435v132.182h6.435c7.626,0,13.832,6.207,13.832,13.835c0,7.625-6.206,13.831-13.832,13.831
		h-6.435v43.698h22.262c4.458,0,8.084-3.797,8.084-8.464V56.468c0-4.665-3.628-8.464-8.087-8.467H148.504z"/>
	<path style="fill:#FFFFFF;" d="M74.667,320.543v-43.698H43.592v35.234c0,4.667,3.625,8.464,8.079,8.464H74.667z"/>
	<path style="fill:#FFFFFF;" d="M74.667,89.331V48H51.671c-4.454,0.003-8.079,3.803-8.079,8.467v32.864H74.667z"/>
	<rect x="114.257" y="116.997" style="fill:#FFFFFF;" width="28.913" height="132.182"/>
	<rect x="80" y="116.997" style="fill:#FFFFFF;" width="28.924" height="132.182"/>
	<path style="fill:#FFFFFF;" d="M74.807,262.779c0-2.677-2.175-4.852-4.852-4.852c-2.685,0-4.86,2.175-4.86,4.852
		c0,2.683,2.175,4.857,4.86,4.857C72.632,267.636,74.807,265.462,74.807,262.779"/>
	<path style="fill:#FFFFFF;" d="M151.15,267.636c2.685,0,4.855-2.175,4.855-4.857c0-2.677-2.17-4.852-4.855-4.852
		c-2.682,0-4.857,2.175-4.857,4.852C146.293,265.461,148.468,267.636,151.15,267.636"/>
	<path style="fill:#FFFFFF;" d="M69.955,98.077c-2.685,0-4.86,2.175-4.86,4.857c0,2.68,2.175,4.854,4.86,4.854
		c2.677,0,4.852-2.174,4.852-4.854C74.807,100.252,72.632,98.077,69.955,98.077"/>
	<path style="fill:#FFFFFF;" d="M151.15,107.788c2.685,0,4.855-2.175,4.855-4.855c0-2.682-2.17-4.856-4.855-4.856
		c-2.682,0-4.857,2.174-4.857,4.856C146.293,105.613,148.468,107.788,151.15,107.788"/>
</g>
</svg>
