<?xml version="1.0" encoding="iso-8859-1"?>
<!-- Generator: Adobe Illustrator 25.4.1, SVG Export Plug-In . SVG Version: 6.00 Build 0)  -->
<svg version="1.1" id="Calque_1" xmlns="http://www.w3.org/2000/svg" xmlns:xlink="http://www.w3.org/1999/xlink" x="0px" y="0px"
	 viewBox="0 0 368.5 368.5" style="enable-background:new 0 0 368.5 368.5;" xml:space="preserve">
<rect x="226.408" y="48" style="fill:#FFFFFF;" width="28.924" height="41.331"/>
<g>
	<path style="fill:#FFFFFF;" d="M294.918,276.845v43.698h22.996c4.459,0,8.084-3.797,8.084-8.464v-35.234H294.918z"/>
	<path style="fill:#FFFFFF;" d="M198.818,320.543h22.257v-43.698h-6.428c-7.628,0-13.834-6.206-13.834-13.831
		c0-7.628,6.206-13.835,13.834-13.835h6.428V116.997h-6.428c-7.628,0-13.834-6.206-13.834-13.831
		c0-7.628,6.206-13.834,13.834-13.834h6.428V48.001h-22.257c-4.456,0.003-8.084,3.802-8.084,8.467v255.611
		C190.734,316.746,194.36,320.543,198.818,320.543"/>
	<path style="fill:#FFFFFF;" d="M294.918,48.001v41.331h31.08V56.468c0-4.665-3.628-8.464-8.086-8.467H294.918z"/>
	<rect x="294.918" y="116.997" style="fill:#FFFFFF;" width="31.08" height="132.182"/>
	<rect x="260.666" y="48" style="fill:#FFFFFF;" width="28.918" height="41.331"/>
	<rect x="226.408" y="276.845" style="fill:#FFFFFF;" width="28.924" height="43.698"/>
	<rect x="226.408" y="116.997" style="fill:#FFFFFF;" width="28.924" height="132.182"/>
	<rect x="260.666" y="116.997" style="fill:#FFFFFF;" width="28.918" height="132.182"/>
	<rect x="260.666" y="276.845" style="fill:#FFFFFF;" width="28.918" height="43.698"/>
	<path style="fill:#FFFFFF;" d="M299.634,267.636c2.68,0,4.854-2.175,4.854-4.857c0-2.677-2.174-4.852-4.854-4.852
		c-2.682,0-4.857,2.175-4.857,4.852C294.777,265.461,296.952,267.636,299.634,267.636"/>
	<path style="fill:#FFFFFF;" d="M218.429,257.927c-2.68,0-4.854,2.175-4.854,4.852c0,2.682,2.174,4.857,4.854,4.857
		c2.685,0,4.852-2.175,4.852-4.857C223.281,260.102,221.114,257.927,218.429,257.927"/>
	<path style="fill:#FFFFFF;" d="M299.634,107.788c2.68,0,4.854-2.175,4.854-4.855c0-2.682-2.174-4.856-4.854-4.856
		c-2.682,0-4.857,2.174-4.857,4.856C294.777,105.613,296.952,107.788,299.634,107.788"/>
	<path style="fill:#FFFFFF;" d="M218.429,98.077c-2.68,0-4.854,2.175-4.854,4.857c0,2.68,2.174,4.854,4.854,4.854
		c2.685,0,4.852-2.174,4.852-4.854C223.281,100.252,221.114,98.077,218.429,98.077"/>
	<rect x="78.941" y="276.845" style="fill:#FFFFFF;" width="28.924" height="43.698"/>
	<rect x="42.533" y="116.997" style="fill:#FFFFFF;" width="31.075" height="132.182"/>
	<rect x="113.199" y="276.845" style="fill:#FFFFFF;" width="28.913" height="43.698"/>
	<rect x="113.199" y="48" style="fill:#FFFFFF;" width="28.913" height="41.331"/>
	<rect x="78.942" y="48" style="fill:#FFFFFF;" width="28.924" height="41.331"/>
	<path style="fill:#FFFFFF;" d="M147.446,48.001v41.331h6.435c7.626,0,13.832,6.206,13.832,13.834
		c0,7.625-6.206,13.831-13.832,13.831h-6.435v132.182h6.435c7.626,0,13.832,6.207,13.832,13.835c0,7.625-6.206,13.831-13.832,13.831
		h-6.435v43.698h22.262c4.458,0,8.084-3.797,8.084-8.464V56.468c0-4.665-3.628-8.464-8.087-8.467H147.446z"/>
	<path style="fill:#FFFFFF;" d="M73.608,320.543v-43.698H42.533v35.234c0,4.667,3.625,8.464,8.079,8.464H73.608z"/>
	<path style="fill:#FFFFFF;" d="M73.608,89.331V48H50.612c-4.454,0.003-8.079,3.803-8.079,8.467v32.864H73.608z"/>
	<rect x="113.199" y="116.997" style="fill:#FFFFFF;" width="28.913" height="132.182"/>
	<rect x="78.941" y="116.997" style="fill:#FFFFFF;" width="28.924" height="132.182"/>
	<path style="fill:#FFFFFF;" d="M73.748,262.779c0-2.677-2.175-4.852-4.852-4.852c-2.685,0-4.86,2.175-4.86,4.852
		c0,2.683,2.175,4.857,4.86,4.857C71.573,267.636,73.748,265.462,73.748,262.779"/>
	<path style="fill:#FFFFFF;" d="M150.091,267.636c2.685,0,4.855-2.175,4.855-4.857c0-2.677-2.17-4.852-4.855-4.852
		c-2.682,0-4.857,2.175-4.857,4.852C145.234,265.461,147.409,267.636,150.091,267.636"/>
	<path style="fill:#FFFFFF;" d="M68.897,98.077c-2.685,0-4.86,2.175-4.86,4.857c0,2.68,2.175,4.854,4.86,4.854
		c2.677,0,4.852-2.174,4.852-4.854C73.749,100.252,71.574,98.077,68.897,98.077"/>
	<path style="fill:#FFFFFF;" d="M150.091,107.788c2.685,0,4.855-2.175,4.855-4.855c0-2.682-2.17-4.856-4.855-4.856
		c-2.682,0-4.857,2.174-4.857,4.856C145.234,105.613,147.409,107.788,150.091,107.788"/>
</g>
</svg>
