<?xml version="1.0" encoding="iso-8859-1"?>
<!-- Generator: Adobe Illustrator 25.4.1, SVG Export Plug-In . SVG Version: 6.00 Build 0)  -->
<svg version="1.1" id="Calque_1" xmlns="http://www.w3.org/2000/svg" xmlns:xlink="http://www.w3.org/1999/xlink" x="0px" y="0px"
	 viewBox="0 0 368.5 368.5" style="enable-background:new 0 0 368.5 368.5;" xml:space="preserve">
<g>
	<path style="fill:#FFFFFF;" d="M67.162,191.654c0,39.914,27.999,75.351,71.41,90.497l-5.395,39.016
		c-0.165,1.22,0.204,2.446,1.009,3.374c0.805,0.925,1.975,1.456,3.203,1.456h89.239c1.228,0,2.397-0.531,3.204-1.456
		c0.807-0.928,1.172-2.154,1.004-3.374l-5.387-39.016c43.412-15.146,71.405-50.583,71.405-90.497c0-3.81-3.1-6.912-6.909-6.912
		H74.074C70.264,184.742,67.162,187.844,67.162,191.654"/>
	<path style="fill:#FFFFFF;" d="M144.805,84.052H61.05c-1.22,0-2.382,0.527-3.189,1.442c-0.809,0.917-1.182,2.135-1.024,3.349
		l10.624,83.062c0.269,2.121,2.073,3.71,4.213,3.71h62.507c2.139,0,3.943-1.589,4.213-3.71l10.624-83.062
		c0.156-1.214-0.217-2.432-1.024-3.349C147.186,84.579,146.023,84.052,144.805,84.052"/>
	<path style="fill:#FFFFFF;" d="M46.177,64.928c0,5.866,4.754,10.624,10.622,10.624h92.254c5.869,0,10.624-4.758,10.624-10.624
		c0-5.866-4.755-10.624-10.624-10.624H56.799C50.931,54.304,46.177,59.062,46.177,64.928"/>
	<path style="fill:#FFFFFF;" d="M322.327,164.99c0-5.866-4.758-10.624-10.624-10.624H187.577c-5.867,0-10.624,4.758-10.624,10.624
		c0,5.868,4.757,10.624,10.624,10.624h124.126C317.569,175.615,322.327,170.859,322.327,164.99"/>
	<path style="fill:#FFFFFF;" d="M72.676,49.69h18.339c1.976,0,3.576-1.604,3.576-3.579c0-1.976-1.6-3.578-3.576-3.578H72.676
		c-1.976,0-3.578,1.602-3.578,3.578C69.098,48.086,70.7,49.69,72.676,49.69"/>
</g>
</svg>
