<?xml version="1.0" encoding="iso-8859-1"?>
<!-- Generator: Adobe Illustrator 25.4.1, SVG Export Plug-In . SVG Version: 6.00 Build 0)  -->
<svg version="1.1" id="Calque_1" xmlns="http://www.w3.org/2000/svg" xmlns:xlink="http://www.w3.org/1999/xlink" x="0px" y="0px"
	 viewBox="0 0 368.5 368.5" style="enable-background:new 0 0 368.5 368.5;" xml:space="preserve">
<g>
	<path style="fill:#FFFFFF;" d="M240.679,235.37c40.806-14.236,67.119-47.546,67.119-85.064c0-3.581-2.914-6.497-6.495-6.497H98.391
		c-3.581,0-6.497,2.916-6.497,6.497v76.781C91.894,227.088,165.674,260.716,240.679,235.37"/>
	<path style="fill:#FFFFFF;" d="M325.747,125.243c0-5.514-4.472-9.986-9.986-9.986H145.126c-5.515,0-9.986,4.472-9.986,9.986
		c0,5.516,4.471,9.986,9.986,9.986h170.635C321.275,135.229,325.747,130.759,325.747,125.243"/>
	<path style="fill:#FFFFFF;" d="M105.07,136.773h17.238c1.858,0,3.361-1.508,3.361-3.365c0-1.856-1.503-3.362-3.361-3.362H105.07
		c-1.858,0-3.364,1.506-3.364,3.362C101.706,135.265,103.212,136.773,105.07,136.773"/>
	<path style="fill:#FFFFFF;" d="M71.839,325.997H53.888c-4.949,0-9-4.05-9-9V51.532c0-4.95,4.051-9,9-9h17.951c4.95,0,9,4.05,9,9
		v265.465C80.839,321.947,76.789,325.997,71.839,325.997"/>
</g>
</svg>
