<?xml version="1.0" encoding="utf-8"?>
<!-- Generator: Adobe Illustrator 26.3.1, SVG Export Plug-In . SVG Version: 6.00 Build 0)  -->
<svg version="1.1" id="Calque_1" xmlns="http://www.w3.org/2000/svg" xmlns:xlink="http://www.w3.org/1999/xlink" x="0px" y="0px"
	 viewBox="0 0 1417.3 1984.3" style="enable-background:new 0 0 1417.3 1984.3;" xml:space="preserve">
<style type="text/css">
	.st0{fill:#D9D8D6;}
	.st1{fill:#050703;}
	.st2{font-family:'CastoBold-Bold';}
	.st3{font-size:135.462px;}
	.st4{font-family:'CastoBlack-Black';}
	.st5{font-size:261.3963px;}
</style>
<rect y="0" class="st0" width="1417.3" height="1984.3"/>
<text transform="matrix(1 0 0 1 120.1326 801.2556)"><tspan x="0" y="0" class="st1 st2 st3">Ici, vous trouverez </tspan><tspan x="0" y="135.5" class="st1 st2 st3">tous les accessoires</tspan><tspan x="0" y="270.9" class="st1 st2 st3">pour :</tspan></text>
<g>
	<g>
		<g>
			<g>
				<text transform="matrix(1 0 0 1 442.3644 454.8071)" class="st1 st4 st5">entrée</text>
			</g>
		</g>
		<g>
			<g>
				<path class="st1" d="M130.6,475.2c-57.8-57.8-57.8-151.8,0-209.6c57.8-57.8,151.8-57.8,209.6,0c57.8,57.8,57.8,151.8,0,209.6
					C282.4,532.9,188.4,532.9,130.6,475.2z M331.1,274.6c-52.8-52.8-138.7-52.8-191.5,0c-52.8,52.8-52.8,138.7,0,191.5
					c52.8,52.8,138.7,52.8,191.5,0C384,413.3,384,327.4,331.1,274.6z"/>
				<path class="st1" d="M303.4,290.3l-133.5,134l0-118.5c0-4.8-3.9-8.8-8.7-8.8c-4.8,0-8.8,3.9-8.7,8.8l0,138.5
					c0,2.8,1.3,5.2,3.3,6.8c1.6,1.6,3.7,2.6,6,2.6l138,0c4.8,0,8.7-3.9,8.8-8.8c0-4.9-3.9-8.8-8.7-8.8l-116.9,0l132.9-133.3
					c3.4-3.5,3.4-9,0-12.4C312.3,286.9,306.8,286.9,303.4,290.3"/>
			</g>
		</g>
	</g>
</g>
</svg>
