<?xml version="1.0" encoding="utf-8"?>
<!-- Generator: Adobe Illustrator 26.5.0, SVG Export Plug-In . SVG Version: 6.00 Build 0)  -->
<svg version="1.1" id="Calque_1" xmlns="http://www.w3.org/2000/svg" xmlns:xlink="http://www.w3.org/1999/xlink" x="0px" y="0px"
	 viewBox="0 0 141.7 340.2" style="enable-background:new 0 0 141.7 340.2;" xml:space="preserve">
<style type="text/css">
	.st0{fill:#D9D8D6;}
	.st1{fill:#050703;}
</style>
<rect y="0" class="st0" width="141.7" height="340.2"/>
<g>
	<path class="st1" d="M9.8,168.8c0.5,0,0.9,0.4,0.9,0.9c0,0.5-0.4,0.9-0.9,0.9c-0.5,0-0.9-0.4-0.9-0.9
		C8.9,169.2,9.2,168.8,9.8,168.8z M8.9,178.1v-6.5h1.7v6.5H8.9z"/>
	<path class="st1" d="M12,174.8c0-2,1.5-3.4,3.5-3.4c1.4,0,2.2,0.6,2.6,1.2l-1.1,1.1c-0.3-0.5-0.8-0.7-1.4-0.7
		c-1.1,0-1.8,0.8-1.8,1.9c0,1.1,0.7,1.9,1.8,1.9c0.6,0,1.1-0.3,1.4-0.7l1.1,1.1c-0.4,0.6-1.3,1.2-2.6,1.2
		C13.5,178.3,12,176.8,12,174.8z"/>
	<path class="st1" d="M20.2,168.8c0.5,0,0.9,0.4,0.9,0.9c0,0.5-0.4,0.9-0.9,0.9c-0.5,0-0.9-0.4-0.9-0.9
		C19.3,169.2,19.6,168.8,20.2,168.8z M19.3,178.1v-6.5H21v6.5H19.3z"/>
	<path class="st1" d="M22.6,179.5c0.3-0.3,0.6-0.9,0.6-1.4c0-0.1,0-0.1,0-0.2c-0.4-0.1-0.6-0.4-0.6-0.9c0-0.6,0.4-1,1-1
		c0.7,0,1.2,0.6,1.2,1.4c0,1.2-1,2.3-2.2,2.4V179.5z"/>
	<path class="st1" d="M31.6,178.1l-2.7-6.5h1.9l1.7,4.6l1.8-4.6h1.9l-2.7,6.5H31.6z"/>
	<path class="st1" d="M36.5,174.8c0-1.9,1.3-3.4,3.5-3.4c2.2,0,3.5,1.6,3.5,3.4c0,1.9-1.3,3.4-3.5,3.4
		C37.8,178.3,36.5,176.7,36.5,174.8z M41.8,174.8c0-1-0.6-1.9-1.7-1.9c-1.1,0-1.7,0.9-1.7,1.9c0,1,0.6,1.9,1.7,1.9
		C41.2,176.7,41.8,175.9,41.8,174.8z"/>
	<path class="st1" d="M44.9,175.1v-3.6h1.7v3.8c0,0.8,0.5,1.4,1.4,1.4s1.4-0.6,1.4-1.4v-3.8h1.7v3.6c0,1.7-1.2,3.1-3.1,3.1
		S44.9,176.9,44.9,175.1z"/>
	<path class="st1" d="M52.3,177.2l0.8-1.2c0.5,0.5,1.5,0.9,2.3,0.9c0.8,0,1.1-0.3,1.1-0.7c0-1.1-4-0.2-4-2.8c0-1.1,1-2.1,2.7-2.1
		c1.1,0,2,0.4,2.7,0.9l-0.7,1.2c-0.4-0.4-1.2-0.8-2-0.8c-0.6,0-1,0.3-1,0.6c0,1,4,0.1,4,2.8c0,1.2-1,2.1-2.9,2.1
		C54.1,178.3,53,177.9,52.3,177.2z"/>
	<path class="st1" d="M62.3,171.6h1.1v-1.8h1.7v1.8h1.3v1.5h-1.3v2.3c0,0.8,0.6,1.4,1.4,1.4v1.5c-1.7,0-3.1-1.4-3.1-3.1v-2.1h-1.1
		V171.6z"/>
	<path class="st1" d="M71.6,173.1c-0.1,0-0.3,0-0.4,0H71c-0.7,0-1.5,0.5-1.5,1.7c0,0.6,0,3.3,0,3.3h-1.7v-6.5h1.7v1.1
		c0.5-0.7,1.1-1.3,2.1-1.3V173.1z"/>
	<path class="st1" d="M72.2,174.8c0-1.9,1.3-3.4,3.5-3.4c2.2,0,3.5,1.6,3.5,3.4c0,1.9-1.3,3.4-3.5,3.4
		C73.6,178.3,72.2,176.7,72.2,174.8z M77.5,174.8c0-1-0.6-1.9-1.7-1.9c-1.1,0-1.7,0.9-1.7,1.9c0,1,0.6,1.9,1.7,1.9
		C76.9,176.7,77.5,175.9,77.5,174.8z"/>
	<path class="st1" d="M80.6,175.1v-3.6h1.7v3.8c0,0.8,0.5,1.4,1.4,1.4s1.4-0.6,1.4-1.4v-3.8h1.7v3.6c0,1.7-1.2,3.1-3.1,3.1
		C81.8,178.3,80.6,176.9,80.6,175.1z"/>
	<path class="st1" d="M90.3,178.1l-2.7-6.5h1.9l1.7,4.6l1.8-4.6h1.9l-2.7,6.5H90.3z"/>
	<path class="st1" d="M95.3,174.8c0-1.9,1.4-3.4,3.5-3.4c2,0,3.3,1.5,3.3,3.6v0.4h-5c0.1,0.8,0.8,1.5,1.9,1.5c0.6,0,1.3-0.2,1.8-0.6
		l0.8,1.1c-0.7,0.6-1.7,0.9-2.8,0.9C96.8,178.3,95.3,176.9,95.3,174.8z M100.4,174.2c-0.1-0.6-0.5-1.4-1.7-1.4
		c-1.1,0-1.6,0.7-1.6,1.4H100.4z"/>
	<path class="st1" d="M107.2,173.1c-0.1,0-0.3,0-0.4,0h-0.2c-0.7,0-1.5,0.5-1.5,1.7c0,0.6,0,3.3,0,3.3h-1.7v-6.5h1.7v1.1
		c0.5-0.7,1.1-1.3,2.1-1.3V173.1z"/>
	<path class="st1" d="M107.9,174.8c0-1.9,1.4-3.4,3.5-3.4c2,0,3.3,1.5,3.3,3.6v0.4h-5c0.1,0.8,0.8,1.5,1.9,1.5
		c0.6,0,1.3-0.2,1.8-0.6l0.8,1.1c-0.7,0.6-1.7,0.9-2.8,0.9C109.4,178.3,107.9,176.9,107.9,174.8z M113,174.2
		c-0.1-0.6-0.5-1.4-1.7-1.4c-1.1,0-1.6,0.7-1.6,1.4H113z"/>
	<path class="st1" d="M115.7,178.1v-1.3l3-3.8h-3v-1.5h5.4v1.2l-3.1,3.8h3.1v1.5H115.7z"/>
	<path class="st1" d="M8.1,185.1h1.1v-1.8H11v1.8h1.3v1.5H11v2.3c0,0.8,0.6,1.4,1.4,1.4v1.5c-1.7,0-3.1-1.4-3.1-3.1v-2.1H8.1V185.1z
		"/>
	<path class="st1" d="M13.1,188.4c0-1.9,1.3-3.4,3.5-3.4c2.2,0,3.5,1.6,3.5,3.4c0,1.9-1.3,3.4-3.5,3.4
		C14.5,191.8,13.1,190.2,13.1,188.4z M18.4,188.4c0-1-0.6-1.9-1.7-1.9c-1.1,0-1.7,0.9-1.7,1.9c0,1,0.6,1.9,1.7,1.9
		C17.8,190.3,18.4,189.4,18.4,188.4z"/>
	<path class="st1" d="M21.5,188.7v-3.6h1.7v3.8c0,0.8,0.5,1.4,1.4,1.4c0.9,0,1.4-0.6,1.4-1.4v-3.8h1.7v3.6c0,1.7-1.2,3.1-3.1,3.1
		S21.5,190.4,21.5,188.7z"/>
	<path class="st1" d="M28.9,190.8l0.8-1.2c0.5,0.5,1.5,0.9,2.3,0.9c0.8,0,1.1-0.3,1.1-0.7c0-1.1-4-0.2-4-2.8c0-1.1,1-2.1,2.7-2.1
		c1.1,0,2,0.4,2.7,0.9l-0.7,1.2c-0.4-0.4-1.2-0.8-2-0.8c-0.6,0-1,0.3-1,0.6c0,1,4,0.1,4,2.8c0,1.2-1,2.1-2.9,2.1
		C30.7,191.8,29.6,191.4,28.9,190.8z"/>
	<path class="st1" d="M39.6,191.6v-9h1.7v9H39.6z"/>
	<path class="st1" d="M42.7,188.4c0-1.9,1.4-3.4,3.5-3.4c2,0,3.3,1.5,3.3,3.6v0.4h-5c0.1,0.8,0.8,1.5,1.9,1.5c0.6,0,1.3-0.2,1.8-0.6
		l0.8,1.1c-0.7,0.6-1.7,0.9-2.8,0.9C44.2,191.8,42.7,190.5,42.7,188.4z M47.8,187.7c-0.1-0.6-0.5-1.4-1.7-1.4
		c-1.1,0-1.6,0.7-1.6,1.4H47.8z"/>
	<path class="st1" d="M50.2,190.8l0.8-1.2c0.5,0.5,1.5,0.9,2.3,0.9c0.8,0,1.1-0.3,1.1-0.7c0-1.1-4-0.2-4-2.8c0-1.1,1-2.1,2.7-2.1
		c1.1,0,2,0.4,2.7,0.9l-0.7,1.2c-0.4-0.4-1.2-0.8-2-0.8c-0.6,0-1,0.3-1,0.6c0,1,4,0.1,4,2.8c0,1.2-1,2.1-2.9,2.1
		C52,191.8,50.9,191.4,50.2,190.8z"/>
	<path class="st1" d="M67.5,185.1v6.5h-1.7v-1c-0.7,1-1.6,1.2-2.1,1.2c-2,0-3.1-1.6-3.1-3.4c0-1.9,1.3-3.4,3.1-3.4
		c0.5,0,1.4,0.2,2.1,1.3v-1.1H67.5z M65.8,188.4c0-1-0.6-1.9-1.7-1.9c-1.1,0-1.7,0.9-1.7,1.9c0,1,0.6,1.9,1.7,1.9
		C65.2,190.3,65.8,189.4,65.8,188.4z"/>
	<path class="st1" d="M68.8,188.4c0-2,1.5-3.4,3.5-3.4c1.4,0,2.2,0.6,2.6,1.2l-1.1,1.1c-0.3-0.5-0.8-0.7-1.4-0.7
		c-1.1,0-1.8,0.8-1.8,1.9c0,1.1,0.7,1.9,1.8,1.9c0.6,0,1.1-0.3,1.4-0.7l1.1,1.1c-0.4,0.6-1.3,1.2-2.6,1.2
		C70.3,191.8,68.8,190.4,68.8,188.4z"/>
	<path class="st1" d="M75.7,188.4c0-2,1.5-3.4,3.5-3.4c1.4,0,2.2,0.6,2.6,1.2l-1.1,1.1c-0.3-0.5-0.8-0.7-1.4-0.7
		c-1.1,0-1.8,0.8-1.8,1.9c0,1.1,0.7,1.9,1.8,1.9c0.6,0,1.1-0.3,1.4-0.7l1.1,1.1c-0.4,0.6-1.3,1.2-2.6,1.2
		C77.2,191.8,75.7,190.4,75.7,188.4z"/>
	<path class="st1" d="M82.6,188.4c0-1.9,1.4-3.4,3.5-3.4c2,0,3.3,1.5,3.3,3.6v0.4h-5c0.1,0.8,0.8,1.5,1.9,1.5c0.6,0,1.3-0.2,1.8-0.6
		l0.8,1.1c-0.7,0.6-1.7,0.9-2.8,0.9C84.1,191.8,82.6,190.5,82.6,188.4z M87.7,187.7c-0.1-0.6-0.5-1.4-1.7-1.4
		c-1.1,0-1.6,0.7-1.6,1.4H87.7z"/>
	<path class="st1" d="M90.1,190.8l0.8-1.2c0.5,0.5,1.5,0.9,2.3,0.9c0.8,0,1.1-0.3,1.1-0.7c0-1.1-4-0.2-4-2.8c0-1.1,1-2.1,2.7-2.1
		c1.1,0,2,0.4,2.7,0.9l-0.7,1.2c-0.4-0.4-1.2-0.8-2-0.8c-0.6,0-1,0.3-1,0.6c0,1,4,0.1,4,2.8c0,1.2-1,2.1-2.9,2.1
		C92,191.8,90.8,191.4,90.1,190.8z"/>
	<path class="st1" d="M96.7,190.8l0.8-1.2c0.5,0.5,1.5,0.9,2.3,0.9c0.8,0,1.1-0.3,1.1-0.7c0-1.1-4-0.2-4-2.8c0-1.1,1-2.1,2.7-2.1
		c1.1,0,2,0.4,2.7,0.9l-0.7,1.2c-0.4-0.4-1.2-0.8-2-0.8c-0.6,0-1,0.3-1,0.6c0,1,4,0.1,4,2.8c0,1.2-1,2.1-2.9,2.1
		C98.5,191.8,97.4,191.4,96.7,190.8z"/>
	<path class="st1" d="M103.5,188.4c0-1.9,1.3-3.4,3.5-3.4c2.2,0,3.5,1.6,3.5,3.4c0,1.9-1.3,3.4-3.5,3.4
		C104.8,191.8,103.5,190.2,103.5,188.4z M108.7,188.4c0-1-0.6-1.9-1.7-1.9c-1.1,0-1.7,0.9-1.7,1.9c0,1,0.6,1.9,1.7,1.9
		C108.1,190.3,108.7,189.4,108.7,188.4z"/>
	<path class="st1" d="M112.7,182.4c0.5,0,0.9,0.4,0.9,0.9c0,0.5-0.4,0.9-0.9,0.9c-0.5,0-0.9-0.4-0.9-0.9
		C111.8,182.7,112.2,182.4,112.7,182.4z M111.9,191.6v-6.5h1.7v6.5H111.9z"/>
	<path class="st1" d="M119.2,186.6c-0.1,0-0.3,0-0.4,0h-0.2c-0.7,0-1.5,0.5-1.5,1.7c0,0.6,0,3.3,0,3.3h-1.7v-6.5h1.7v1.1
		c0.5-0.7,1.1-1.3,2.1-1.3V186.6z"/>
	<path class="st1" d="M119.9,188.4c0-1.9,1.4-3.4,3.5-3.4c2,0,3.3,1.5,3.3,3.6v0.4h-5c0.1,0.8,0.8,1.5,1.9,1.5
		c0.6,0,1.3-0.2,1.8-0.6l0.8,1.1c-0.7,0.6-1.7,0.9-2.8,0.9C121.4,191.8,119.9,190.5,119.9,188.4z M125,187.7
		c-0.1-0.6-0.5-1.4-1.7-1.4c-1.1,0-1.6,0.7-1.6,1.4H125z"/>
	<path class="st1" d="M127.4,190.8l0.8-1.2c0.5,0.5,1.5,0.9,2.3,0.9c0.8,0,1.1-0.3,1.1-0.7c0-1.1-4-0.2-4-2.8c0-1.1,1-2.1,2.7-2.1
		c1.1,0,2,0.4,2.7,0.9l-0.7,1.2c-0.4-0.4-1.2-0.8-2-0.8c-0.6,0-1,0.3-1,0.6c0,1,4,0.1,4,2.8c0,1.2-1,2.1-2.9,2.1
		C129.2,191.8,128.1,191.4,127.4,190.8z"/>
	<path class="st1" d="M10.6,198.7v1.1c0.7-1.1,1.6-1.3,2.1-1.3c1.9,0,3.1,1.6,3.1,3.4s-1.2,3.4-3.1,3.4c-0.5,0-1.4-0.2-2.1-1.2v3.5
		H8.9v-9H10.6z M14,201.9c0-1-0.6-1.9-1.7-1.9c-1.1,0-1.7,0.9-1.7,1.9c0,1,0.6,1.9,1.7,1.9C13.4,203.8,14,202.9,14,201.9z"/>
	<path class="st1" d="M16.7,201.9c0-1.9,1.3-3.4,3.5-3.4c2.2,0,3.5,1.6,3.5,3.4s-1.3,3.4-3.5,3.4C18.1,205.4,16.7,203.8,16.7,201.9z
		 M22,201.9c0-1-0.6-1.9-1.7-1.9c-1.1,0-1.7,0.9-1.7,1.9c0,1,0.6,1.9,1.7,1.9C21.4,203.8,22,202.9,22,201.9z"/>
	<path class="st1" d="M25.1,202.2v-3.6h1.7v3.8c0,0.8,0.5,1.4,1.4,1.4c0.9,0,1.4-0.6,1.4-1.4v-3.8h1.7v3.6c0,1.7-1.2,3.1-3.1,3.1
		S25.1,204,25.1,202.2z"/>
	<path class="st1" d="M37,200.2c-0.1,0-0.3,0-0.4,0h-0.2c-0.7,0-1.5,0.5-1.5,1.7c0,0.6,0,3.3,0,3.3h-1.7v-6.5h1.7v1.1
		c0.5-0.7,1.1-1.3,2.1-1.3V200.2z"/>
	<path class="st1" d="M41.4,199.7c0-0.6,0.5-1.1,1.1-1.1c0.6,0,1.1,0.5,1.1,1.1c0,0.6-0.5,1.1-1.1,1.1
		C41.9,200.8,41.4,200.2,41.4,199.7z M41.4,204.2c0-0.6,0.5-1.1,1.1-1.1c0.6,0,1.1,0.5,1.1,1.1c0,0.6-0.5,1.1-1.1,1.1
		C41.9,205.3,41.4,204.8,41.4,204.2z"/>
</g>
<g>
	<g>
		<g>
			<g>
				<path class="st1" d="M10.6,36c0-3.5,2.3-6.6,5.9-6.6c0.8,0,2.4,0.3,3.5,2h0v-1.6h4.3v12.6H20v-1.6h0c-1.1,1.7-2.7,1.9-3.5,1.9
					C13,42.7,10.6,39.6,10.6,36z M20,36c0-1.6-0.9-2.7-2.5-2.7c-1.6,0-2.5,1.2-2.5,2.7c0,1.6,0.9,2.8,2.5,2.8
					C19.1,38.8,20,37.6,20,36z"/>
				<path class="st1" d="M26.5,36c0-4,3-6.6,6.9-6.6c2.7,0,4.3,1.2,5.1,2.2l-2.7,2.7c-0.4-0.6-1.2-1-2.2-1c-1.4,0-2.7,0.9-2.7,2.7
					c0,1.8,1.3,2.8,2.7,2.8c1,0,1.8-0.5,2.2-1c1,1,1.7,1.8,2.7,2.7c-0.8,1-2.4,2.2-5.1,2.2C29.5,42.7,26.5,40,26.5,36z"/>
				<path class="st1" d="M39.7,36c0-4,3-6.6,6.9-6.6c2.7,0,4.3,1.2,5.1,2.2L49,34.3c-0.4-0.6-1.2-1-2.2-1c-1.4,0-2.7,0.9-2.7,2.7
					c0,1.8,1.3,2.8,2.7,2.8c1,0,1.8-0.5,2.2-1c1,1,1.7,1.8,2.7,2.7c-0.8,1-2.4,2.2-5.1,2.2C42.7,42.7,39.7,40,39.7,36z"/>
				<path class="st1" d="M66.5,29.7v6.5c0,3.8-2.5,6.5-6.4,6.5c-4.3,0-6.4-2.9-6.4-6.5v-6.5h4.3v6.9c0,1.2,0.3,2.1,2.1,2.1
					c1.8,0,2.1-1,2.1-2.1v-6.9H66.5z"/>
				<path class="st1" d="M68.7,36c0-3.7,2.7-6.6,6.7-6.6c3.6,0,6.3,2.7,6.3,7.1v0.8h-8.7c0.3,1,1.3,2.1,3,2.1c0.7,0,2.1-0.3,2.9-0.8
					l1.7,2.7c-1.2,1-3.3,1.4-5.1,1.4C71.7,42.7,68.7,40.2,68.7,36z M75.4,32.7c-1.6,0-2.2,1.3-2.4,2h4.7
					C77.6,33.8,77.1,32.7,75.4,32.7z"/>
				<path class="st1" d="M83.7,25.4c0-1.2,1-2.1,2.2-2.1c1.2,0,2.1,0.9,2.1,2.1c0,1.2-1,2.1-2.1,2.1C84.7,27.5,83.7,26.6,83.7,25.4z
					 M83.7,42.3V29.7H88v12.6H83.7z"/>
				<path class="st1" d="M90.9,42.3V24.9h4.3v17.4H90.9z"/>
			</g>
		</g>
	</g>
	<g>
		<g>
			<path class="st1" d="M127.6,44.4c-5.8,5.8-15.2,5.8-21,0c-5.8-5.8-5.8-15.2,0-21c5.8-5.8,15.2-5.8,21,0
				C133.4,29.2,133.4,38.6,127.6,44.4z M107.5,24.3c-5.3,5.3-5.3,13.9,0,19.2c5.3,5.3,13.9,5.3,19.2,0c5.3-5.3,5.3-13.9,0-19.2
				C121.4,19,112.8,19,107.5,24.3z"/>
			<path class="st1" d="M109.1,27.1l13.4,13.3l-11.8,0c-0.5,0-0.9,0.4-0.9,0.9c0,0.5,0.4,0.9,0.9,0.9l13.8,0c0.3,0,0.5-0.1,0.7-0.3
				c0.2-0.2,0.3-0.4,0.3-0.6l0-13.8c0-0.5-0.4-0.9-0.9-0.9c-0.5,0-0.9,0.4-0.9,0.9l0,11.7l-13.3-13.3c-0.3-0.3-0.9-0.3-1.2,0
				C108.8,26.2,108.8,26.8,109.1,27.1"/>
		</g>
	</g>
</g>
<g>
	<g>
		<path class="st1" d="M25.4,63.3v3.5c0.7-1.1,1.6-1.2,2-1.2c1.8,0,3,1.5,3,3.3c0,1.8-1.1,3.3-3,3.3c-0.5,0-1.3-0.2-2-1.1v1h-1.7
			v-8.7H25.4z M28.7,68.8c0-1-0.6-1.8-1.6-1.8c-1.1,0-1.6,0.8-1.6,1.8c0,1,0.6,1.8,1.6,1.8C28.1,70.6,28.7,69.8,28.7,68.8z"/>
		<path class="st1" d="M31.3,68.8c0-1.8,1.4-3.3,3.3-3.3c1.9,0,3.2,1.4,3.2,3.4v0.4h-4.8c0.1,0.8,0.8,1.4,1.8,1.4
			c0.5,0,1.3-0.2,1.7-0.6l0.8,1.1c-0.6,0.6-1.6,0.9-2.6,0.9C32.8,72.1,31.3,70.8,31.3,68.8z M36.2,68.2c-0.1-0.6-0.5-1.3-1.6-1.3
			c-1.1,0-1.5,0.7-1.6,1.3H36.2z"/>
		<path class="st1" d="M38.6,71.1l0.7-1.2c0.5,0.4,1.4,0.9,2.2,0.9c0.7,0,1.1-0.3,1.1-0.7c0-1-3.8-0.2-3.8-2.7c0-1.1,0.9-2,2.6-2
			c1.1,0,1.9,0.4,2.6,0.9l-0.7,1.2c-0.4-0.4-1.1-0.7-1.9-0.7c-0.6,0-1,0.3-1,0.6c0,0.9,3.8,0.1,3.8,2.7c0,1.2-1,2-2.8,2
			C40.3,72.1,39.2,71.7,38.6,71.1z"/>
		<path class="st1" d="M45,68.8c0-1.8,1.3-3.3,3.4-3.3c2.1,0,3.4,1.5,3.4,3.3c0,1.8-1.3,3.3-3.4,3.3C46.3,72.1,45,70.6,45,68.8z
			 M50.1,68.8c0-1-0.6-1.8-1.7-1.8c-1.1,0-1.7,0.8-1.7,1.8c0,1,0.6,1.8,1.7,1.8C49.5,70.6,50.1,69.8,50.1,68.8z"/>
		<path class="st1" d="M53.9,63c0.5,0,0.9,0.4,0.9,0.9c0,0.5-0.4,0.9-0.9,0.9c-0.5,0-0.9-0.4-0.9-0.9C53,63.4,53.4,63,53.9,63z
			 M53.1,71.9v-6.3h1.7v6.3H53.1z"/>
		<path class="st1" d="M60.7,71.9v-3.8c0-0.9-0.5-1.2-1.2-1.2c-0.7,0-1.5,0.6-1.5,1.8c0,0.5,0,3.2,0,3.2h-1.7v-6.3h1.7v1.1
			c0.6-0.9,1.2-1.2,2.2-1.2c1.4,0,2.1,0.8,2.1,2v4.4H60.7z"/>
		<path class="st1" d="M73.8,63.3v8.7h-1.7v-1c-0.7,0.9-1.6,1.1-2,1.1c-1.9,0-3-1.5-3-3.3c0-1.8,1.2-3.3,3-3.3c0.5,0,1.3,0.2,2,1.2
			v-3.5H73.8z M72.1,68.8c0-1-0.6-1.8-1.6-1.8c-1.1,0-1.6,0.8-1.6,1.8c0,1,0.6,1.8,1.6,1.8C71.5,70.6,72.1,69.8,72.1,68.8z"/>
		<path class="st1" d="M75.3,66.5c0.3-0.3,0.5-0.8,0.5-1.3c0-0.1,0-0.1,0-0.2c-0.4-0.1-0.6-0.4-0.6-0.9c0-0.5,0.4-0.9,1-0.9
			c0.7,0,1.2,0.6,1.2,1.3c0,1.2-0.9,2.2-2.1,2.3V66.5z"/>
		<path class="st1" d="M85.1,65.7v6.3h-1.7v-1c-0.7,0.9-1.6,1.1-2,1.1c-1.9,0-3-1.5-3-3.3c0-1.8,1.2-3.3,3-3.3c0.5,0,1.3,0.2,2,1.2
			v-1.1H85.1z M83.4,68.8c0-1-0.6-1.8-1.6-1.8c-1.1,0-1.6,0.8-1.6,1.8c0,1,0.6,1.8,1.6,1.8C82.9,70.6,83.4,69.8,83.4,68.8z"/>
		<path class="st1" d="M87.6,63c0.5,0,0.9,0.4,0.9,0.9c0,0.5-0.4,0.9-0.9,0.9s-0.9-0.4-0.9-0.9C86.7,63.4,87.1,63,87.6,63z
			 M86.8,71.9v-6.3h1.7v6.3H86.8z"/>
		<path class="st1" d="M96.4,63.3v8.7h-1.7v-1c-0.7,0.9-1.6,1.1-2,1.1c-1.9,0-3-1.5-3-3.3c0-1.8,1.2-3.3,3-3.3c0.5,0,1.3,0.2,2,1.2
			v-3.5H96.4z M94.7,68.8c0-1-0.6-1.8-1.6-1.8c-1.1,0-1.6,0.8-1.6,1.8c0,1,0.6,1.8,1.6,1.8C94.2,70.6,94.7,69.8,94.7,68.8z"/>
		<path class="st1" d="M97.7,68.8c0-1.8,1.4-3.3,3.3-3.3c1.9,0,3.2,1.4,3.2,3.4v0.4h-4.8c0.1,0.8,0.8,1.4,1.8,1.4
			c0.5,0,1.3-0.2,1.7-0.6l0.8,1.1c-0.6,0.6-1.6,0.9-2.6,0.9C99.1,72.1,97.7,70.8,97.7,68.8z M102.6,68.2c-0.1-0.6-0.5-1.3-1.6-1.3
			c-1.1,0-1.5,0.7-1.6,1.3H102.6z"/>
		<path class="st1" d="M113.8,65.7c0,1.4-1.4,2.2-2.2,2.2v0.6c0,0.4-0.4,0.8-0.8,0.8c-0.5,0-0.8-0.4-0.8-0.8v-1.6
			c1,0,1.9-0.3,1.9-1.2c0-0.4-0.3-0.9-1-0.9c-0.7,0-1.2,0.3-1.6,0.8l-1.1-1.2c0.7-0.8,1.8-1.3,2.9-1.3
			C112.8,63.1,113.8,64.4,113.8,65.7z M109.8,71c0-0.6,0.5-1.1,1.1-1.1c0.6,0,1.1,0.5,1.1,1.1c0,0.6-0.5,1.1-1.1,1.1
			C110.2,72.1,109.8,71.6,109.8,71z"/>
		<path class="st1" d="M28.1,84.9v-3.8c0-0.9-0.5-1.2-1.2-1.2c-0.7,0-1.5,0.6-1.5,1.8c0,0.5,0,3.2,0,3.2h-1.7v-6.3h1.7v1.1
			c0.6-0.9,1.2-1.2,2.2-1.2c1.4,0,2.1,0.8,2.1,2v4.4H28.1z"/>
		<path class="st1" d="M31,81.8c0-1.8,1.3-3.3,3.4-3.3c2.1,0,3.4,1.5,3.4,3.3c0,1.8-1.3,3.3-3.4,3.3C32.3,85.1,31,83.6,31,81.8z
			 M36,81.8c0-1-0.6-1.8-1.7-1.8c-1.1,0-1.7,0.8-1.7,1.8c0,1,0.6,1.8,1.7,1.8C35.4,83.6,36,82.8,36,81.8z"/>
		<path class="st1" d="M38.5,84.1l0.7-1.2c0.5,0.4,1.4,0.9,2.2,0.9c0.7,0,1.1-0.3,1.1-0.7c0-1-3.8-0.2-3.8-2.7c0-1.1,0.9-2,2.6-2
			c1.1,0,1.9,0.4,2.6,0.9l-0.7,1.2c-0.4-0.4-1.1-0.7-1.9-0.7c-0.6,0-1,0.3-1,0.6c0,0.9,3.8,0.1,3.8,2.7c0,1.2-1,2-2.8,2
			C40.2,85.1,39.1,84.7,38.5,84.1z"/>
		<path class="st1" d="M48.4,81.8c0-1.9,1.4-3.3,3.4-3.3c1.3,0,2.1,0.6,2.5,1.1l-1.1,1c-0.3-0.4-0.8-0.7-1.4-0.7
			c-1,0-1.7,0.7-1.7,1.8c0,1.1,0.7,1.8,1.7,1.8c0.6,0,1-0.3,1.4-0.7l1.1,1c-0.4,0.6-1.2,1.1-2.5,1.1C49.8,85.1,48.4,83.7,48.4,81.8z
			"/>
		<path class="st1" d="M55,81.8c0-1.8,1.3-3.3,3.4-3.3c2.1,0,3.4,1.5,3.4,3.3c0,1.8-1.3,3.3-3.4,3.3C56.2,85.1,55,83.6,55,81.8z
			 M60,81.8c0-1-0.6-1.8-1.7-1.8c-1.1,0-1.7,0.8-1.7,1.8c0,1,0.6,1.8,1.7,1.8C59.4,83.6,60,82.8,60,81.8z"/>
		<path class="st1" d="M67.3,84.9v-3.8c0-0.9-0.5-1.2-1.2-1.2c-0.7,0-1.5,0.6-1.5,1.8c0,0.5,0,3.2,0,3.2H63v-6.3h1.7v1.1
			c0.6-0.9,1.2-1.2,2.2-1.2c1.4,0,2.1,0.8,2.1,2v4.4H67.3z"/>
		<path class="st1" d="M70.1,84.1l0.7-1.2c0.5,0.4,1.4,0.9,2.2,0.9c0.7,0,1.1-0.3,1.1-0.7c0-1-3.8-0.2-3.8-2.7c0-1.1,0.9-2,2.6-2
			c1.1,0,1.9,0.4,2.6,0.9l-0.7,1.2c-0.4-0.4-1.1-0.7-1.9-0.7c-0.6,0-1,0.3-1,0.6c0,0.9,3.8,0.1,3.8,2.7c0,1.2-1,2-2.8,2
			C71.8,85.1,70.8,84.7,70.1,84.1z"/>
		<path class="st1" d="M76.6,81.8c0-1.8,1.4-3.3,3.3-3.3c1.9,0,3.2,1.4,3.2,3.4v0.4h-4.8c0.1,0.8,0.8,1.4,1.8,1.4
			c0.5,0,1.3-0.2,1.7-0.6l0.8,1.1C82,84.8,81,85.1,80,85.1C78,85.1,76.6,83.8,76.6,81.8z M81.5,81.2c-0.1-0.6-0.5-1.3-1.6-1.3
			c-1.1,0-1.5,0.7-1.6,1.3H81.5z"/>
		<path class="st1" d="M85.2,76c0.5,0,0.9,0.4,0.9,0.9c0,0.5-0.4,0.9-0.9,0.9s-0.9-0.4-0.9-0.9C84.3,76.4,84.7,76,85.2,76z
			 M84.4,84.9v-6.3H86v6.3H84.4z"/>
		<path class="st1" d="M87.7,84.9v-8.7h1.7v8.7H87.7z"/>
		<path class="st1" d="M91,84.9v-8.7h1.7v8.7H91z"/>
		<path class="st1" d="M93.9,81.8c0-1.8,1.4-3.3,3.3-3.3c1.9,0,3.2,1.4,3.2,3.4v0.4h-4.8c0.1,0.8,0.8,1.4,1.8,1.4
			c0.5,0,1.3-0.2,1.7-0.6l0.8,1.1c-0.6,0.6-1.6,0.9-2.6,0.9C95.4,85.1,93.9,83.8,93.9,81.8z M98.8,81.2c-0.1-0.6-0.5-1.3-1.6-1.3
			c-1.1,0-1.5,0.7-1.6,1.3H98.8z"/>
		<path class="st1" d="M105.4,80.1c-0.1,0-0.2,0-0.4,0h-0.2c-0.7,0-1.5,0.4-1.5,1.6c0,0.5,0,3.2,0,3.2h-1.7v-6.3h1.7v1.1
			c0.5-0.7,1.1-1.2,2-1.2V80.1z"/>
		<path class="st1" d="M105.9,84.1l0.7-1.2c0.5,0.4,1.4,0.9,2.2,0.9c0.7,0,1.1-0.3,1.1-0.7c0-1-3.8-0.2-3.8-2.7c0-1.1,0.9-2,2.6-2
			c1.1,0,1.9,0.4,2.6,0.9l-0.7,1.2c-0.4-0.4-1.1-0.7-1.9-0.7c-0.6,0-1,0.3-1,0.6c0,0.9,3.8,0.1,3.8,2.7c0,1.2-1,2-2.8,2
			C107.7,85.1,106.6,84.7,105.9,84.1z"/>
		<path class="st1" d="M30.1,89.3v8.7h-1.7v-1c-0.7,0.9-1.6,1.1-2,1.1c-1.9,0-3-1.5-3-3.3c0-1.8,1.2-3.3,3-3.3c0.5,0,1.3,0.2,2,1.2
			v-3.5H30.1z M28.4,94.8c0-1-0.6-1.8-1.6-1.8c-1.1,0-1.6,0.8-1.6,1.8c0,1,0.6,1.8,1.6,1.8C27.8,96.6,28.4,95.8,28.4,94.8z"/>
		<path class="st1" d="M31.3,94.8c0-1.8,1.4-3.3,3.3-3.3c1.9,0,3.2,1.4,3.2,3.4v0.4h-4.8c0.1,0.8,0.8,1.4,1.8,1.4
			c0.5,0,1.3-0.2,1.7-0.6l0.8,1.1c-0.6,0.6-1.6,0.9-2.6,0.9C32.8,98.1,31.3,96.8,31.3,94.8z M36.2,94.2c-0.1-0.6-0.5-1.3-1.6-1.3
			c-1.1,0-1.5,0.7-1.6,1.3H36.2z"/>
		<path class="st1" d="M44.2,97.9l-2.6-6.3h1.8l1.7,4.4l1.7-4.4h1.8L46,97.9H44.2z"/>
		<path class="st1" d="M48.9,94.8c0-1.8,1.4-3.3,3.3-3.3c1.9,0,3.2,1.4,3.2,3.4v0.4h-4.8c0.1,0.8,0.8,1.4,1.8,1.4
			c0.5,0,1.3-0.2,1.7-0.6l0.8,1.1c-0.6,0.6-1.6,0.9-2.6,0.9C50.4,98.1,48.9,96.8,48.9,94.8z M53.8,94.2c-0.1-0.6-0.5-1.3-1.6-1.3
			c-1.1,0-1.5,0.7-1.6,1.3H53.8z"/>
		<path class="st1" d="M61,97.9v-3.8c0-0.9-0.5-1.2-1.2-1.2c-0.7,0-1.5,0.6-1.5,1.8c0,0.5,0,3.2,0,3.2h-1.7v-6.3h1.7v1.1
			c0.6-0.9,1.2-1.2,2.2-1.2c1.4,0,2.1,0.8,2.1,2v4.4H61z"/>
		<path class="st1" d="M63.6,91.7h1.1V90h1.7v1.7h1.3v1.4h-1.3v2.2c0,0.7,0.6,1.3,1.3,1.3v1.5c-1.7,0-3-1.4-3-3v-2h-1.1V91.7z"/>
		<path class="st1" d="M68.4,94.8c0-1.8,1.4-3.3,3.3-3.3c1.9,0,3.2,1.4,3.2,3.4v0.4h-4.8c0.1,0.8,0.8,1.4,1.8,1.4
			c0.5,0,1.3-0.2,1.7-0.6l0.8,1.1c-0.6,0.6-1.6,0.9-2.6,0.9C69.9,98.1,68.4,96.8,68.4,94.8z M73.3,94.2c-0.1-0.6-0.5-1.3-1.6-1.3
			c-1.1,0-1.5,0.7-1.6,1.3H73.3z"/>
		<path class="st1" d="M79,97.1l0.7-1.2c0.5,0.4,1.4,0.9,2.2,0.9c0.7,0,1.1-0.3,1.1-0.7c0-1-3.8-0.2-3.8-2.7c0-1.1,0.9-2,2.6-2
			c1.1,0,1.9,0.4,2.6,0.9l-0.7,1.2c-0.4-0.4-1.1-0.7-1.9-0.7c-0.6,0-1,0.3-1,0.6c0,0.9,3.8,0.1,3.8,2.7c0,1.2-1,2-2.8,2
			C80.8,98.1,79.7,97.7,79,97.1z"/>
		<path class="st1" d="M85.5,94.8c0-1.8,1.3-3.3,3.4-3.3c2.1,0,3.4,1.5,3.4,3.3c0,1.8-1.3,3.3-3.4,3.3
			C86.8,98.1,85.5,96.6,85.5,94.8z M90.6,94.8c0-1-0.6-1.8-1.7-1.8c-1.1,0-1.7,0.8-1.7,1.8c0,1,0.6,1.8,1.7,1.8
			C90,96.6,90.6,95.8,90.6,94.8z"/>
		<path class="st1" d="M97.9,97.9v-3.8c0-0.9-0.5-1.2-1.2-1.2c-0.7,0-1.5,0.6-1.5,1.8c0,0.5,0,3.2,0,3.2h-1.7v-6.3h1.7v1.1
			c0.6-0.9,1.2-1.2,2.2-1.2c1.4,0,2.1,0.8,2.1,2v4.4H97.9z"/>
		<path class="st1" d="M100.5,91.7h1.1V90h1.7v1.7h1.3v1.4h-1.3v2.2c0,0.7,0.6,1.3,1.3,1.3v1.5c-1.7,0-3-1.4-3-3v-2h-1.1V91.7z"/>
		<path class="st1" d="M115.4,91.7v6.3h-1.7v-1c-0.7,0.9-1.6,1.1-2,1.1c-1.9,0-3-1.5-3-3.3c0-1.8,1.2-3.3,3-3.3c0.5,0,1.3,0.2,2,1.2
			v-1.1H115.4z M113.7,94.8c0-1-0.6-1.8-1.6-1.8c-1.1,0-1.6,0.8-1.6,1.8c0,1,0.6,1.8,1.6,1.8C113.1,96.6,113.7,95.8,113.7,94.8z
			 M112.1,91.2c-0.2,0-0.3-0.1-0.4-0.2l-0.9-0.9c-0.1-0.1-0.2-0.3-0.2-0.5c0-0.2,0.1-0.3,0.2-0.5c0.1-0.1,0.3-0.2,0.4-0.2
			c0.2,0,0.3,0.1,0.5,0.2l1,1c0.1,0.1,0.2,0.3,0.2,0.4c0,0.2-0.1,0.3-0.2,0.4C112.5,91.1,112.3,91.2,112.1,91.2z"/>
		<path class="st1" d="M25.4,110.9l-2.6-6.3h1.8l1.7,4.4l1.7-4.4h1.8l-2.6,6.3H25.4z"/>
		<path class="st1" d="M30.2,107.8c0-1.8,1.3-3.3,3.4-3.3c2.1,0,3.4,1.5,3.4,3.3c0,1.8-1.3,3.3-3.4,3.3
			C31.4,111.1,30.2,109.6,30.2,107.8z M35.2,107.8c0-1-0.6-1.8-1.7-1.8c-1.1,0-1.7,0.8-1.7,1.8c0,1,0.6,1.8,1.7,1.8
			C34.6,109.6,35.2,108.8,35.2,107.8z"/>
		<path class="st1" d="M37.5,104.7h1.1V103h1.7v1.7h1.3v1.4h-1.3v2.2c0,0.7,0.6,1.3,1.3,1.3v1.5c-1.7,0-3-1.4-3-3v-2h-1.1V104.7z"/>
		<path class="st1" d="M46.4,106.1c-0.1,0-0.2,0-0.4,0h-0.2c-0.7,0-1.5,0.4-1.5,1.6c0,0.5,0,3.2,0,3.2h-1.7v-6.3h1.7v1.1
			c0.5-0.7,1.1-1.2,2-1.2V106.1z"/>
		<path class="st1" d="M47,107.8c0-1.8,1.4-3.3,3.3-3.3c1.9,0,3.2,1.4,3.2,3.4v0.4h-4.8c0.1,0.8,0.8,1.4,1.8,1.4
			c0.5,0,1.3-0.2,1.7-0.6l0.8,1.1c-0.6,0.6-1.6,0.9-2.6,0.9C48.5,111.1,47,109.8,47,107.8z M51.9,107.2c-0.1-0.6-0.5-1.3-1.6-1.3
			c-1.1,0-1.5,0.7-1.6,1.3H51.9z"/>
		<path class="st1" d="M64.5,102.3v8.7h-1.7v-1c-0.7,0.9-1.6,1.1-2,1.1c-1.9,0-3-1.5-3-3.3c0-1.8,1.2-3.3,3-3.3c0.5,0,1.3,0.2,2,1.2
			v-3.5H64.5z M62.8,107.8c0-1-0.6-1.8-1.6-1.8c-1.1,0-1.6,0.8-1.6,1.8c0,1,0.6,1.8,1.6,1.8C62.3,109.6,62.8,108.8,62.8,107.8z"/>
		<path class="st1" d="M67,102c0.5,0,0.9,0.4,0.9,0.9c0,0.5-0.4,0.9-0.9,0.9c-0.5,0-0.9-0.4-0.9-0.9C66.1,102.4,66.5,102,67,102z
			 M66.2,110.9v-6.3h1.7v6.3H66.2z"/>
		<path class="st1" d="M69,110.1l0.7-1.2c0.5,0.4,1.4,0.9,2.2,0.9c0.7,0,1.1-0.3,1.1-0.7c0-1-3.8-0.2-3.8-2.7c0-1.1,0.9-2,2.6-2
			c1.1,0,1.9,0.4,2.6,0.9l-0.7,1.2c-0.4-0.4-1.1-0.7-1.9-0.7c-0.6,0-1,0.3-1,0.6c0,0.9,3.8,0.1,3.8,2.7c0,1.2-1,2-2.8,2
			C70.7,111.1,69.7,110.7,69,110.1z"/>
		<path class="st1" d="M77.5,104.7v1.1c0.7-1.1,1.6-1.2,2-1.2c1.8,0,3,1.5,3,3.3c0,1.8-1.1,3.3-3,3.3c-0.5,0-1.3-0.2-2-1.1v3.4h-1.7
			v-8.7H77.5z M80.8,107.8c0-1-0.6-1.8-1.6-1.8c-1.1,0-1.6,0.8-1.6,1.8c0,1,0.6,1.8,1.6,1.8C80.2,109.6,80.8,108.8,80.8,107.8z"/>
		<path class="st1" d="M83.4,107.8c0-1.8,1.3-3.3,3.4-3.3c2.1,0,3.4,1.5,3.4,3.3c0,1.8-1.3,3.3-3.4,3.3
			C84.7,111.1,83.4,109.6,83.4,107.8z M88.5,107.8c0-1-0.6-1.8-1.7-1.8c-1.1,0-1.7,0.8-1.7,1.8c0,1,0.6,1.8,1.7,1.8
			C87.9,109.6,88.5,108.8,88.5,107.8z"/>
		<path class="st1" d="M90.9,110.1l0.7-1.2c0.5,0.4,1.4,0.9,2.2,0.9c0.7,0,1.1-0.3,1.1-0.7c0-1-3.8-0.2-3.8-2.7c0-1.1,0.9-2,2.6-2
			c1.1,0,1.9,0.4,2.6,0.9l-0.7,1.2c-0.4-0.4-1.1-0.7-1.9-0.7c-0.6,0-1,0.3-1,0.6c0,0.9,3.8,0.1,3.8,2.7c0,1.2-1,2-2.8,2
			C92.6,111.1,91.6,110.7,90.9,110.1z"/>
		<path class="st1" d="M98.6,102c0.5,0,0.9,0.4,0.9,0.9c0,0.5-0.4,0.9-0.9,0.9c-0.5,0-0.9-0.4-0.9-0.9C97.8,102.4,98.1,102,98.6,102
			z M97.8,110.9v-6.3h1.7v6.3H97.8z"/>
		<path class="st1" d="M100.4,104.7h1.1V103h1.7v1.7h1.3v1.4h-1.3v2.2c0,0.7,0.6,1.3,1.3,1.3v1.5c-1.7,0-3-1.4-3-3v-2h-1.1V104.7z"
			/>
		<path class="st1" d="M106.5,102c0.5,0,0.9,0.4,0.9,0.9c0,0.5-0.4,0.9-0.9,0.9s-0.9-0.4-0.9-0.9C105.6,102.4,106,102,106.5,102z
			 M105.6,110.9v-6.3h1.7v6.3H105.6z"/>
		<path class="st1" d="M108.6,107.8c0-1.8,1.3-3.3,3.4-3.3c2.1,0,3.4,1.5,3.4,3.3c0,1.8-1.3,3.3-3.4,3.3
			C109.9,111.1,108.6,109.6,108.6,107.8z M113.6,107.8c0-1-0.6-1.8-1.7-1.8c-1.1,0-1.7,0.8-1.7,1.8c0,1,0.6,1.8,1.7,1.8
			C113,109.6,113.6,108.8,113.6,107.8z"/>
		<path class="st1" d="M120.9,110.9v-3.8c0-0.9-0.5-1.2-1.2-1.2c-0.7,0-1.5,0.6-1.5,1.8c0,0.5,0,3.2,0,3.2h-1.7v-6.3h1.7v1.1
			c0.6-0.9,1.2-1.2,2.2-1.2c1.4,0,2.1,0.8,2.1,2v4.4H120.9z"/>
		<path class="st1" d="M25.4,117.7v1.1c0.7-1.1,1.6-1.2,2-1.2c1.8,0,3,1.5,3,3.3c0,1.8-1.1,3.3-3,3.3c-0.5,0-1.3-0.2-2-1.1v3.4h-1.7
			v-8.7H25.4z M28.7,120.8c0-1-0.6-1.8-1.6-1.8c-1.1,0-1.6,0.8-1.6,1.8c0,1,0.6,1.8,1.6,1.8C28.1,122.6,28.7,121.8,28.7,120.8z"/>
		<path class="st1" d="M31.3,120.8c0-1.8,1.3-3.3,3.4-3.3c2.1,0,3.4,1.5,3.4,3.3c0,1.8-1.3,3.3-3.4,3.3
			C32.6,124.1,31.3,122.6,31.3,120.8z M36.4,120.8c0-1-0.6-1.8-1.7-1.8c-1.1,0-1.7,0.8-1.7,1.8c0,1,0.6,1.8,1.7,1.8
			C35.8,122.6,36.4,121.8,36.4,120.8z"/>
		<path class="st1" d="M39.3,121.1v-3.4H41v3.7c0,0.7,0.5,1.3,1.3,1.3s1.3-0.6,1.3-1.3v-3.7h1.7v3.4c0,1.7-1.1,3-3,3
			S39.3,122.8,39.3,121.1z"/>
		<path class="st1" d="M50.7,119.1c-0.1,0-0.2,0-0.4,0h-0.2c-0.7,0-1.5,0.4-1.5,1.6c0,0.5,0,3.2,0,3.2H47v-6.3h1.7v1.1
			c0.5-0.7,1.1-1.2,2-1.2V119.1z"/>
		<path class="st1" d="M56.8,123.9l-2.6-6.3H56l1.7,4.4l1.7-4.4h1.8l-2.6,6.3H56.8z"/>
		<path class="st1" d="M61.6,120.8c0-1.8,1.3-3.3,3.4-3.3c2.1,0,3.4,1.5,3.4,3.3c0,1.8-1.3,3.3-3.4,3.3
			C62.8,124.1,61.6,122.6,61.6,120.8z M66.6,120.8c0-1-0.6-1.8-1.7-1.8c-1.1,0-1.7,0.8-1.7,1.8c0,1,0.6,1.8,1.7,1.8
			C66,122.6,66.6,121.8,66.6,120.8z"/>
		<path class="st1" d="M69.6,121.1v-3.4h1.7v3.7c0,0.7,0.5,1.3,1.3,1.3s1.3-0.6,1.3-1.3v-3.7h1.7v3.4c0,1.7-1.1,3-3,3
			S69.6,122.8,69.6,121.1z"/>
		<path class="st1" d="M76.7,123.1l0.7-1.2c0.5,0.4,1.4,0.9,2.2,0.9c0.7,0,1.1-0.3,1.1-0.7c0-1-3.8-0.2-3.8-2.7c0-1.1,0.9-2,2.6-2
			c1.1,0,1.9,0.4,2.6,0.9l-0.7,1.2c-0.4-0.4-1.1-0.7-1.9-0.7c-0.6,0-1,0.3-1,0.6c0,0.9,3.8,0.1,3.8,2.7c0,1.2-1,2-2.8,2
			C78.5,124.1,77.4,123.7,76.7,123.1z"/>
		<path class="st1" d="M93.3,117.7v6.3h-1.7v-1c-0.7,0.9-1.6,1.1-2,1.1c-1.9,0-3-1.5-3-3.3c0-1.8,1.2-3.3,3-3.3c0.5,0,1.3,0.2,2,1.2
			v-1.1H93.3z M91.6,120.8c0-1-0.6-1.8-1.6-1.8c-1.1,0-1.6,0.8-1.6,1.8c0,1,0.6,1.8,1.6,1.8C91.1,122.6,91.6,121.8,91.6,120.8z"/>
		<path class="st1" d="M95.8,115c0.5,0,0.9,0.4,0.9,0.9c0,0.5-0.4,0.9-0.9,0.9s-0.9-0.4-0.9-0.9C94.9,115.4,95.3,115,95.8,115z
			 M95,123.9v-6.3h1.7v6.3H95z"/>
		<path class="st1" d="M104.6,115.3v8.7H103v-1c-0.7,0.9-1.6,1.1-2,1.1c-1.9,0-3-1.5-3-3.3c0-1.8,1.2-3.3,3-3.3c0.5,0,1.3,0.2,2,1.2
			v-3.5H104.6z M103,120.8c0-1-0.6-1.8-1.6-1.8c-1.1,0-1.6,0.8-1.6,1.8c0,1,0.6,1.8,1.6,1.8C102.4,122.6,103,121.8,103,120.8z"/>
		<path class="st1" d="M105.9,120.8c0-1.8,1.4-3.3,3.3-3.3c1.9,0,3.2,1.4,3.2,3.4v0.4h-4.8c0.1,0.8,0.8,1.4,1.8,1.4
			c0.5,0,1.3-0.2,1.7-0.6l0.8,1.1c-0.6,0.6-1.6,0.9-2.6,0.9C107.3,124.1,105.9,122.8,105.9,120.8z M110.8,120.2
			c-0.1-0.6-0.5-1.3-1.6-1.3c-1.1,0-1.5,0.7-1.6,1.3H110.8z"/>
		<path class="st1" d="M117.4,119.1c-0.1,0-0.2,0-0.4,0h-0.2c-0.7,0-1.5,0.4-1.5,1.6c0,0.5,0,3.2,0,3.2h-1.7v-6.3h1.7v1.1
			c0.5-0.7,1.1-1.2,2-1.2V119.1z"/>
		<path class="st1" d="M30.1,128.3v8.7h-1.7v-1c-0.7,0.9-1.6,1.1-2,1.1c-1.9,0-3-1.5-3-3.3c0-1.8,1.2-3.3,3-3.3c0.5,0,1.3,0.2,2,1.2
			v-3.5H30.1z M28.4,133.8c0-1-0.6-1.8-1.6-1.8c-1.1,0-1.6,0.8-1.6,1.8c0,1,0.6,1.8,1.6,1.8C27.8,135.6,28.4,134.8,28.4,133.8z"/>
		<path class="st1" d="M38,130.7v6.3h-1.7v-1c-0.7,0.9-1.6,1.1-2,1.1c-1.9,0-3-1.5-3-3.3c0-1.8,1.2-3.3,3-3.3c0.5,0,1.3,0.2,2,1.2
			v-1.1H38z M36.3,133.8c0-1-0.6-1.8-1.6-1.8c-1.1,0-1.6,0.8-1.6,1.8c0,1,0.6,1.8,1.6,1.8C35.8,135.6,36.3,134.8,36.3,133.8z"/>
		<path class="st1" d="M44,136.9v-3.8c0-0.9-0.5-1.2-1.2-1.2c-0.7,0-1.5,0.6-1.5,1.8c0,0.5,0,3.2,0,3.2h-1.7v-6.3h1.7v1.1
			c0.6-0.9,1.2-1.2,2.2-1.2c1.4,0,2.1,0.8,2.1,2v4.4H44z"/>
		<path class="st1" d="M46.8,136.1l0.7-1.2c0.5,0.4,1.4,0.9,2.2,0.9c0.7,0,1.1-0.3,1.1-0.7c0-1-3.8-0.2-3.8-2.7c0-1.1,0.9-2,2.6-2
			c1.1,0,1.9,0.4,2.6,0.9l-0.7,1.2c-0.4-0.4-1.1-0.7-1.9-0.7c-0.6,0-1,0.3-1,0.6c0,0.9,3.8,0.1,3.8,2.7c0,1.2-1,2-2.8,2
			C48.5,137.1,47.4,136.7,46.8,136.1z"/>
		<path class="st1" d="M58.7,136.9l-2.6-6.3h1.8l1.7,4.4l1.7-4.4h1.8l-2.6,6.3H58.7z"/>
		<path class="st1" d="M63.4,133.8c0-1.8,1.3-3.3,3.4-3.3c2.1,0,3.4,1.5,3.4,3.3c0,1.8-1.3,3.3-3.4,3.3
			C64.7,137.1,63.4,135.6,63.4,133.8z M68.5,133.8c0-1-0.6-1.8-1.7-1.8c-1.1,0-1.7,0.8-1.7,1.8c0,1,0.6,1.8,1.7,1.8
			C67.9,135.6,68.5,134.8,68.5,133.8z"/>
		<path class="st1" d="M70.9,136.1l0.7-1.2c0.5,0.4,1.4,0.9,2.2,0.9c0.7,0,1.1-0.3,1.1-0.7c0-1-3.8-0.2-3.8-2.7c0-1.1,0.9-2,2.6-2
			c1.1,0,1.9,0.4,2.6,0.9l-0.7,1.2c-0.4-0.4-1.1-0.7-1.9-0.7c-0.6,0-1,0.3-1,0.6c0,0.9,3.8,0.1,3.8,2.7c0,1.2-1,2-2.8,2
			C72.7,137.1,71.6,136.7,70.9,136.1z"/>
		<path class="st1" d="M82.9,130.7v1.1c0.7-1.1,1.6-1.2,2-1.2c1.8,0,3,1.5,3,3.3c0,1.8-1.1,3.3-3,3.3c-0.5,0-1.3-0.2-2-1.1v3.4h-1.7
			v-8.7H82.9z M86.1,133.8c0-1-0.6-1.8-1.6-1.8c-1.1,0-1.6,0.8-1.6,1.8c0,1,0.6,1.8,1.6,1.8C85.6,135.6,86.1,134.8,86.1,133.8z"/>
		<path class="st1" d="M92.9,132.1c-0.1,0-0.2,0-0.4,0h-0.2c-0.7,0-1.5,0.4-1.5,1.6c0,0.5,0,3.2,0,3.2h-1.7v-6.3h1.7v1.1
			c0.5-0.7,1.1-1.2,2-1.2V132.1z"/>
		<path class="st1" d="M93.5,133.8c0-1.8,1.3-3.3,3.4-3.3c2.1,0,3.4,1.5,3.4,3.3c0,1.8-1.3,3.3-3.4,3.3
			C94.8,137.1,93.5,135.6,93.5,133.8z M98.5,133.8c0-1-0.6-1.8-1.7-1.8c-1.1,0-1.7,0.8-1.7,1.8c0,1,0.6,1.8,1.7,1.8
			C97.9,135.6,98.5,134.8,98.5,133.8z"/>
		<path class="st1" d="M100.3,138c0.7,0,1.3-0.6,1.3-1.3v-6h1.7v5.8c0,1.7-1.3,3-3,3V138z M102.4,128c0.5,0,0.9,0.4,0.9,0.9
			c0,0.5-0.4,0.9-0.9,0.9c-0.5,0-0.9-0.4-0.9-0.9C101.6,128.4,101.9,128,102.4,128z"/>
		<path class="st1" d="M104.6,133.8c0-1.8,1.4-3.3,3.3-3.3c1.9,0,3.2,1.4,3.2,3.4v0.4h-4.8c0.1,0.8,0.8,1.4,1.8,1.4
			c0.5,0,1.3-0.2,1.7-0.6l0.8,1.1c-0.6,0.6-1.6,0.9-2.6,0.9C106,137.1,104.6,135.8,104.6,133.8z M109.5,133.2
			c-0.1-0.6-0.5-1.3-1.6-1.3c-1.1,0-1.5,0.7-1.6,1.3H109.5z"/>
		<path class="st1" d="M111.6,130.7h1.1V129h1.7v1.7h1.3v1.4h-1.3v2.2c0,0.7,0.6,1.3,1.3,1.3v1.5c-1.7,0-3-1.4-3-3v-2h-1.1V130.7z"
			/>
		<path class="st1" d="M116.3,136.1l0.7-1.2c0.5,0.4,1.4,0.9,2.2,0.9c0.7,0,1.1-0.3,1.1-0.7c0-1-3.8-0.2-3.8-2.7c0-1.1,0.9-2,2.6-2
			c1.1,0,1.9,0.4,2.6,0.9l-0.7,1.2c-0.4-0.4-1.1-0.7-1.9-0.7c-0.6,0-1,0.3-1,0.6c0,0.9,3.8,0.1,3.8,2.7c0,1.2-1,2-2.8,2
			C118,137.1,117,136.7,116.3,136.1z"/>
		<path class="st1" d="M126.4,136c0-0.6,0.5-1.1,1.1-1.1c0.6,0,1.1,0.5,1.1,1.1c0,0.6-0.5,1.1-1.1,1.1
			C126.9,137.1,126.4,136.6,126.4,136z M126.5,128.3h1.9v5.1c0,0.5-0.4,0.9-0.9,0.9s-0.9-0.4-0.9-0.9V128.3z"/>
	</g>
</g>
<g>
	<g>
		<path class="st1" d="M18.7,154.9h1.7c0.4,0,0.7,0.3,0.7,0.7c0,0.4-0.3,0.7-0.7,0.7h-1.7c-0.4,0-0.7-0.3-0.7-0.7
			C18.1,155.2,18.4,154.9,18.7,154.9z"/>
		<path class="st1" d="M22.2,154.9h1.7c0.4,0,0.7,0.3,0.7,0.7c0,0.4-0.3,0.7-0.7,0.7h-1.7c-0.4,0-0.7-0.3-0.7-0.7
			C21.5,155.2,21.8,154.9,22.2,154.9z"/>
		<path class="st1" d="M25.6,154.9h1.7c0.4,0,0.7,0.3,0.7,0.7c0,0.4-0.3,0.7-0.7,0.7h-1.7c-0.4,0-0.7-0.3-0.7-0.7
			C24.9,155.2,25.2,154.9,25.6,154.9z"/>
		<path class="st1" d="M29,154.9h1.7c0.4,0,0.7,0.3,0.7,0.7c0,0.4-0.3,0.7-0.7,0.7H29c-0.4,0-0.7-0.3-0.7-0.7
			C28.3,155.2,28.6,154.9,29,154.9z"/>
		<path class="st1" d="M32.4,154.9h1.7c0.4,0,0.7,0.3,0.7,0.7c0,0.4-0.3,0.7-0.7,0.7h-1.7c-0.4,0-0.7-0.3-0.7-0.7
			C31.7,155.2,32,154.9,32.4,154.9z"/>
		<path class="st1" d="M35.8,154.9h1.7c0.4,0,0.7,0.3,0.7,0.7c0,0.4-0.3,0.7-0.7,0.7h-1.7c-0.4,0-0.7-0.3-0.7-0.7
			C35.2,155.2,35.5,154.9,35.8,154.9z"/>
		<path class="st1" d="M39.3,154.9h1.7c0.4,0,0.7,0.3,0.7,0.7c0,0.4-0.3,0.7-0.7,0.7h-1.7c-0.4,0-0.7-0.3-0.7-0.7
			C38.6,155.2,38.9,154.9,39.3,154.9z"/>
		<path class="st1" d="M42.7,154.9h1.7c0.4,0,0.7,0.3,0.7,0.7c0,0.4-0.3,0.7-0.7,0.7h-1.7c-0.4,0-0.7-0.3-0.7-0.7
			C42,155.2,42.3,154.9,42.7,154.9z"/>
		<path class="st1" d="M46.1,154.9h1.7c0.4,0,0.7,0.3,0.7,0.7c0,0.4-0.3,0.7-0.7,0.7h-1.7c-0.4,0-0.7-0.3-0.7-0.7
			C45.4,155.2,45.7,154.9,46.1,154.9z"/>
		<path class="st1" d="M49.5,154.9h1.7c0.4,0,0.7,0.3,0.7,0.7c0,0.4-0.3,0.7-0.7,0.7h-1.7c-0.4,0-0.7-0.3-0.7-0.7
			C48.8,155.2,49.1,154.9,49.5,154.9z"/>
		<path class="st1" d="M52.9,154.9h1.7c0.4,0,0.7,0.3,0.7,0.7c0,0.4-0.3,0.7-0.7,0.7h-1.7c-0.4,0-0.7-0.3-0.7-0.7
			C52.3,155.2,52.6,154.9,52.9,154.9z"/>
		<path class="st1" d="M56.4,154.9H58c0.4,0,0.7,0.3,0.7,0.7c0,0.4-0.3,0.7-0.7,0.7h-1.7c-0.4,0-0.7-0.3-0.7-0.7
			C55.7,155.2,56,154.9,56.4,154.9z"/>
		<path class="st1" d="M59.8,154.9h1.7c0.4,0,0.7,0.3,0.7,0.7c0,0.4-0.3,0.7-0.7,0.7h-1.7c-0.4,0-0.7-0.3-0.7-0.7
			C59.1,155.2,59.4,154.9,59.8,154.9z"/>
		<path class="st1" d="M63.2,154.9h1.7c0.4,0,0.7,0.3,0.7,0.7c0,0.4-0.3,0.7-0.7,0.7h-1.7c-0.4,0-0.7-0.3-0.7-0.7
			C62.5,155.2,62.8,154.9,63.2,154.9z"/>
		<path class="st1" d="M66.6,154.9h1.7c0.4,0,0.7,0.3,0.7,0.7c0,0.4-0.3,0.7-0.7,0.7h-1.7c-0.4,0-0.7-0.3-0.7-0.7
			C65.9,155.2,66.2,154.9,66.6,154.9z"/>
		<path class="st1" d="M70,154.9h1.7c0.4,0,0.7,0.3,0.7,0.7c0,0.4-0.3,0.7-0.7,0.7H70c-0.4,0-0.7-0.3-0.7-0.7
			C69.4,155.2,69.7,154.9,70,154.9z"/>
		<path class="st1" d="M73.5,154.9h1.7c0.4,0,0.7,0.3,0.7,0.7c0,0.4-0.3,0.7-0.7,0.7h-1.7c-0.4,0-0.7-0.3-0.7-0.7
			C72.8,155.2,73.1,154.9,73.5,154.9z"/>
		<path class="st1" d="M76.9,154.9h1.7c0.4,0,0.7,0.3,0.7,0.7c0,0.4-0.3,0.7-0.7,0.7h-1.7c-0.4,0-0.7-0.3-0.7-0.7
			C76.2,155.2,76.5,154.9,76.9,154.9z"/>
		<path class="st1" d="M80.3,154.9H82c0.4,0,0.7,0.3,0.7,0.7c0,0.4-0.3,0.7-0.7,0.7h-1.7c-0.4,0-0.7-0.3-0.7-0.7
			C79.6,155.2,79.9,154.9,80.3,154.9z"/>
		<path class="st1" d="M83.7,154.9h1.7c0.4,0,0.7,0.3,0.7,0.7c0,0.4-0.3,0.7-0.7,0.7h-1.7c-0.4,0-0.7-0.3-0.7-0.7
			C83,155.2,83.3,154.9,83.7,154.9z"/>
		<path class="st1" d="M87.1,154.9h1.7c0.4,0,0.7,0.3,0.7,0.7c0,0.4-0.3,0.7-0.7,0.7h-1.7c-0.4,0-0.7-0.3-0.7-0.7
			C86.5,155.2,86.8,154.9,87.1,154.9z"/>
		<path class="st1" d="M90.6,154.9h1.7c0.4,0,0.7,0.3,0.7,0.7c0,0.4-0.3,0.7-0.7,0.7h-1.7c-0.4,0-0.7-0.3-0.7-0.7
			C89.9,155.2,90.2,154.9,90.6,154.9z"/>
		<path class="st1" d="M94,154.9h1.7c0.4,0,0.7,0.3,0.7,0.7c0,0.4-0.3,0.7-0.7,0.7H94c-0.4,0-0.7-0.3-0.7-0.7
			C93.3,155.2,93.6,154.9,94,154.9z"/>
		<path class="st1" d="M97.4,154.9h1.7c0.4,0,0.7,0.3,0.7,0.7c0,0.4-0.3,0.7-0.7,0.7h-1.7c-0.4,0-0.7-0.3-0.7-0.7
			C96.7,155.2,97,154.9,97.4,154.9z"/>
		<path class="st1" d="M100.8,154.9h1.7c0.4,0,0.7,0.3,0.7,0.7c0,0.4-0.3,0.7-0.7,0.7h-1.7c-0.4,0-0.7-0.3-0.7-0.7
			C100.1,155.2,100.4,154.9,100.8,154.9z"/>
		<path class="st1" d="M104.2,154.9h1.7c0.4,0,0.7,0.3,0.7,0.7c0,0.4-0.3,0.7-0.7,0.7h-1.7c-0.4,0-0.7-0.3-0.7-0.7
			C103.6,155.2,103.9,154.9,104.2,154.9z"/>
		<path class="st1" d="M107.7,154.9h1.7c0.4,0,0.7,0.3,0.7,0.7c0,0.4-0.3,0.7-0.7,0.7h-1.7c-0.4,0-0.7-0.3-0.7-0.7
			C107,155.2,107.3,154.9,107.7,154.9z"/>
		<path class="st1" d="M111.1,154.9h1.7c0.4,0,0.7,0.3,0.7,0.7c0,0.4-0.3,0.7-0.7,0.7h-1.7c-0.4,0-0.7-0.3-0.7-0.7
			C110.4,155.2,110.7,154.9,111.1,154.9z"/>
		<path class="st1" d="M114.5,154.9h1.7c0.4,0,0.7,0.3,0.7,0.7c0,0.4-0.3,0.7-0.7,0.7h-1.7c-0.4,0-0.7-0.3-0.7-0.7
			C113.8,155.2,114.1,154.9,114.5,154.9z"/>
		<path class="st1" d="M117.9,154.9h1.7c0.4,0,0.7,0.3,0.7,0.7c0,0.4-0.3,0.7-0.7,0.7h-1.7c-0.4,0-0.7-0.3-0.7-0.7
			C117.2,155.2,117.5,154.9,117.9,154.9z"/>
		<path class="st1" d="M121.3,154.9h1.7c0.4,0,0.7,0.3,0.7,0.7c0,0.4-0.3,0.7-0.7,0.7h-1.7c-0.4,0-0.7-0.3-0.7-0.7
			C120.7,155.2,121,154.9,121.3,154.9z"/>
	</g>
</g>
</svg>
