<?xml version="1.0" encoding="utf-8"?>
<!-- Generator: Adobe Illustrator 25.4.0, SVG Export Plug-In . SVG Version: 6.00 Build 0)  -->
<svg version="1.1" id="Calque_1" xmlns="http://www.w3.org/2000/svg" xmlns:xlink="http://www.w3.org/1999/xlink" x="0px" y="0px"
	 viewBox="0 0 368.5 368.5" style="enable-background:new 0 0 368.5 368.5;" xml:space="preserve">
<style type="text/css">
	.st0{fill:#FFFFFF;}
</style>
<g>
	<path class="st0" d="M268.45,207.58c-1.02,19.77-3.29,40.33-5.32,56.03c-0.37,2.83-0.72,5.49-1.06,7.97
		c-2.03-2.31-7.9-5.78-21.26-8.91c-15.78-3.71-36.81-5.75-59.22-5.75c-22.41,0-43.44,2.04-59.22,5.75
		c-8.03,1.89-13.34,3.89-16.76,5.69c-0.27-2.31-0.55-4.75-0.83-7.28c-1.88-16.8-3.96-37.84-4.81-54.91
		c-0.1-1.96-0.18-3.94-0.26-5.94c-1.74-0.21-3.42-0.43-5.03-0.65c0.08,2.3,0.18,4.59,0.29,6.84c0.88,17.87,3.11,40.02,5.06,57.21
		c0.27,2.42,0.54,4.74,0.8,6.94c0.02,0.01,0.05,0.02,0.07,0.03c20.86,9.91,51.53,15.59,84.15,15.59c31.01,0,60.68-5.22,81.41-14.33
		c0.21-0.09,0.43-0.16,0.65-0.21c0.18-1.33,0.37-2.72,0.56-4.16c2.14-16.14,4.68-38.34,5.78-59.63c0.14-2.72,0.26-5.4,0.36-8.05
		c-1.61,0.21-3.29,0.42-5.03,0.62C268.69,202.78,268.58,205.17,268.45,207.58z M154.79,276.65c-0.23,0.59-0.8,0.95-1.4,0.95
		c-0.18,0-0.37-0.03-0.55-0.11c-4.43-1.74-6.68-3.88-6.68-6.35c0-7,18.94-10.67,37.65-10.67c0.83,0,1.5,0.67,1.5,1.5
		c0,0.83-0.67,1.5-1.5,1.5c-21.15,0-34.65,4.54-34.65,7.67c0,0.81,1.25,2.17,4.77,3.56C154.72,275.01,155.1,275.88,154.79,276.65z
		 M177.2,275.95c-0.04,0-0.09,0-0.13-0.01c-11.63-1.01-11.63-3.76-11.63-4.66c0-2.63,4.5-4.24,13.37-4.79
		c1.6-0.1,3.26-0.15,4.93-0.15c4.29,0,18.3,0.36,18.3,4.94c0,0.83-0.67,1.5-1.5,1.5c-0.73,0-1.33-0.51-1.47-1.2
		c-0.93-0.8-6.24-2.24-15.33-2.24c-1.61,0-3.21,0.05-4.75,0.14c-5.64,0.35-8.81,1.2-10.07,1.79c1.05,0.5,3.55,1.26,8.4,1.68
		c0.83,0.07,1.44,0.8,1.37,1.62C178.63,275.36,177.97,275.95,177.2,275.95z M215.53,277.2c-3.62,1.55-8.84,2.8-15.08,3.61
		c-0.07,0.01-0.13,0.01-0.19,0.01c-0.74,0-1.39-0.55-1.49-1.31c-0.11-0.82,0.47-1.57,1.29-1.68c5.97-0.77,10.92-1.95,14.29-3.39
		c0.76-0.33,1.64,0.03,1.97,0.79C216.65,275.99,216.29,276.87,215.53,277.2z"/>
	<path class="st0" d="M96.35,135.46c0,0.05,0,0.1,0,0.15c-0.01,0.14-0.39,9.08-0.6,21.84c20.9,2.92,53.9,4.64,89.31,4.64
		c33.99,0,66.2-1.62,87.17-4.36c-0.26-13.4-0.8-21.92-0.81-22.05c0-0.08-0.01-0.15-0.01-0.23c0-48.26-39.27-87.53-87.53-87.53
		S96.35,87.2,96.35,135.46z M138.17,110.72c-0.56-1.85,0.48-3.8,2.33-4.37c1.85-0.57,3.81,0.48,4.37,2.33
		c0.21,0.62,2.33,6.37,10.25,6.37c7.39,0,12.12-5.14,12.17-5.2c1.29-1.43,3.5-1.56,4.93-0.27c1.44,1.28,1.58,3.47,0.3,4.92
		c-0.27,0.31-6.78,7.55-17.41,7.55C144.44,122.04,139.36,114.64,138.17,110.72z M144.86,133.58c-1.41-1.32-1.49-3.53-0.17-4.95
		c1.32-1.41,3.53-1.49,4.95-0.17c0.49,0.43,5.2,4.35,12.06,0.39c6.4-3.69,7.93-10.5,7.94-10.57c0.38-1.9,2.23-3.12,4.12-2.74
		c1.9,0.38,3.12,2.23,2.74,4.12c-0.08,0.4-2.09,9.93-11.3,15.25c-3.36,1.94-6.56,2.66-9.43,2.66
		C150.74,137.58,146.76,135.36,144.86,133.58z M174.99,110.1c0-5,4.07-9.06,9.06-9.06c5,0,9.06,4.07,9.06,9.06
		c0,5-4.06,9.06-9.06,9.06C179.06,119.16,174.99,115.09,174.99,110.1z M165,150.34c-1.13,0-2.12-0.12-2.92-0.31
		c-1.88-0.44-3.06-2.32-2.62-4.2c0.44-1.88,2.32-3.06,4.2-2.62c0.64,0.13,6.68,1.17,10.64-5.69c3.69-6.4,1.61-13.05,1.59-13.12
		c-0.62-1.83,0.37-3.82,2.2-4.43c1.83-0.62,3.82,0.37,4.43,2.2c0.13,0.39,3.15,9.65-2.16,18.85
		C176.09,148.42,169.51,150.34,165,150.34z M185.22,155.67c-0.34,0.1-0.68,0.15-1.02,0.15c-1.5,0-2.89-0.97-3.35-2.48
		c-0.56-1.85,0.48-3.8,2.33-4.37c0.62-0.21,6.37-2.33,6.37-10.25c0-7.39-5.14-12.12-5.2-12.17c-1.43-1.29-1.56-3.5-0.27-4.93
		c1.28-1.44,3.47-1.58,4.92-0.3c0.31,0.27,7.55,6.78,7.55,17.41C196.55,149.4,189.14,154.48,185.22,155.67z M208.08,148.99
		c-0.69,0.74-1.62,1.11-2.56,1.11c-0.86,0-1.71-0.31-2.39-0.94c-1.41-1.32-1.49-3.53-0.17-4.95c0.43-0.49,4.35-5.2,0.39-12.06
		c-3.69-6.4-10.5-7.93-10.57-7.94c-1.9-0.38-3.12-2.23-2.74-4.12c0.38-1.89,2.23-3.12,4.12-2.74c0.4,0.08,9.93,2.09,15.24,11.3
		C214.75,137.89,210.87,146,208.08,148.99z M224.53,131.77c-0.38,1.62-1.81,2.71-3.41,2.71c-0.26,0-0.53-0.03-0.79-0.09
		c-1.88-0.44-3.06-2.32-2.62-4.2c0.13-0.64,1.17-6.68-5.69-10.64c-6.4-3.7-13.07-1.61-13.14-1.58c-1.83,0.59-3.81-0.4-4.41-2.23
		c-0.6-1.83,0.37-3.8,2.2-4.41c0.39-0.13,9.65-3.15,18.85,2.16C224.77,118.82,225.46,127.78,224.53,131.77z M230.17,108.63
		c0.56,1.85-0.48,3.8-2.33,4.37c-0.34,0.1-0.68,0.15-1.02,0.15c-1.5,0-2.89-0.97-3.35-2.48c-0.2-0.62-2.33-6.37-10.25-6.37
		c-7.39,0-12.12,5.14-12.17,5.2c-1.29,1.43-3.5,1.55-4.93,0.27c-1.44-1.28-1.58-3.47-0.3-4.92c0.27-0.31,6.78-7.55,17.41-7.55
		C223.9,97.3,228.98,104.71,230.17,108.63z M223.49,85.77c1.41,1.32,1.49,3.53,0.17,4.95c-1.32,1.41-3.53,1.49-4.95,0.17
		c-0.49-0.43-5.2-4.35-12.06-0.39c-6.4,3.7-7.93,10.52-7.94,10.58c-0.35,1.64-1.81,2.78-3.43,2.78c-0.23,0-0.47-0.02-0.71-0.07
		c-1.88-0.39-3.1-2.22-2.72-4.11c0.08-0.4,2.09-9.93,11.3-15.24C212.39,79.09,220.5,82.97,223.49,85.77z M206.27,69.31
		c1.88,0.44,3.06,2.32,2.62,4.2c-0.44,1.88-2.31,3.06-4.2,2.62c-0.64-0.13-6.68-1.17-10.64,5.69c-3.69,6.39-1.61,13.05-1.59,13.12
		c0.62,1.83-0.37,3.82-2.2,4.43c-0.37,0.12-0.75,0.18-1.12,0.18c-1.46,0-2.82-0.92-3.32-2.38c-0.13-0.39-3.15-9.65,2.16-18.85
		C193.32,69.08,202.28,68.38,206.27,69.31z M183.13,63.67c1.85-0.56,3.8,0.48,4.37,2.33c0.56,1.85-0.48,3.8-2.33,4.37
		c-0.62,0.2-6.37,2.33-6.37,10.25c0,7.39,5.14,12.12,5.2,12.17c1.43,1.29,1.56,3.5,0.27,4.94c-0.69,0.78-1.65,1.17-2.62,1.17
		c-0.82,0-1.64-0.29-2.3-0.87c-0.31-0.27-7.55-6.78-7.55-17.41C171.8,69.94,179.21,64.86,183.13,63.67z M160.27,70.36
		c1.32-1.41,3.53-1.49,4.95-0.17c1.41,1.32,1.49,3.54,0.17,4.95c-0.43,0.49-4.35,5.2-0.39,12.06c3.7,6.4,10.52,7.93,10.59,7.94
		c1.88,0.4,3.1,2.25,2.7,4.14c-0.34,1.65-1.79,2.79-3.41,2.79c-0.23,0-0.46-0.02-0.69-0.07c-0.4-0.08-9.93-2.1-15.24-11.3
		C153.59,81.45,157.47,73.35,160.27,70.36z M148.01,84.96c1.88,0.44,3.06,2.32,2.62,4.2c-0.13,0.64-1.17,6.68,5.69,10.64
		c6.4,3.69,13.05,1.61,13.12,1.59c1.84-0.62,3.82,0.37,4.43,2.2c0.62,1.83-0.37,3.82-2.2,4.43c-0.21,0.07-2.97,0.97-6.91,0.97
		c-3.4,0-7.68-0.67-11.94-3.14c-9.24-5.34-9.94-14.29-9.01-18.28C144.25,85.69,146.13,84.52,148.01,84.96z"/>
	<path class="st0" d="M185.05,197.3c33.84,0,66-1.61,86.98-4.33c0.29-9.24,0.39-18.69,0.3-28.19c-21.29,2.71-53.45,4.31-87.28,4.31
		c-35.21,0-68.14-1.7-89.4-4.59c-0.1,10.09-0.04,19.54,0.19,28.17C116.74,195.58,149.72,197.3,185.05,197.3z"/>
	<path class="st0" d="M261.67,292.17c0.05-0.41,0.18-0.8,0.36-1.16c0.31-1.21,1.06-4.53,1.77-10.52
		c-21.14,8.09-49.42,12.68-78.75,12.68c-30.89,0-60.21-5-81.65-13.83c0.64,6.37,1.39,10.89,1.62,12.22
		c0.07,0.22,0.12,0.45,0.14,0.68c0.73,7.08,10.77,17.44,24.01,20.98c0.12,0.03,0.23,0.07,0.35,0.11c11.67,4.46,33,7.23,55.68,7.23
		c32.15,0,54.25-5.16,61.17-9.96c0.14-0.1,0.29-0.19,0.45-0.27C255.21,306.23,260.76,299.43,261.67,292.17z"/>
	<path class="st0" d="M178.06,206.44c-0.79,2.52-3.86,7.06-5.9,10.06c-0.52,0.78-1.01,1.49-1.42,2.12
		c-1.91,2.92-2.94,6.26-2.89,9.41c0.02,1.68,0.32,3.33,0.87,4.9c0.3,0.85,0.68,1.69,1.16,2.53c0.11,0.18,0.22,0.36,0.34,0.55
		c2.52,3.93,6.67,6.28,11.12,6.28l0.2,0c4.52-0.08,8.67-2.56,11.12-6.69l0.31-0.56c0.35-0.66,0.63-1.29,0.84-1.88
		c0.65-1.78,0.97-3.66,0.94-5.58c-0.05-3.15-1.19-6.45-3.21-9.31c-0.44-0.62-0.96-1.33-1.52-2.11c-2.13-2.92-5.34-7.33-6.2-9.79
		c-0.26-0.76-0.42-1.56-0.42-1.57c-0.04-0.18-0.09-0.35-0.16-0.51c-0.4-0.93-1.33-1.55-2.38-1.5c-1,0.01-1.86,0.61-2.26,1.49
		c-0.09,0.2-0.16,0.41-0.2,0.63C178.41,204.91,178.29,205.7,178.06,206.44z"/>
</g>
</svg>
