<?xml version="1.0" encoding="utf-8"?>
<!-- Generator: Adobe Illustrator 25.4.0, SVG Export Plug-In . SVG Version: 6.00 Build 0)  -->
<svg version="1.1" id="Calque_1" xmlns="http://www.w3.org/2000/svg" xmlns:xlink="http://www.w3.org/1999/xlink" x="0px" y="0px"
	 viewBox="0 0 368.5 368.5" style="enable-background:new 0 0 368.5 368.5;" xml:space="preserve">
<style type="text/css">
	.st0{fill:#FFFFFF;}
</style>
<g>
	<path class="st0" d="M95.44,42.52c-5.58,0-10.1,4.52-10.1,10.1v177.92h20.19V52.62C105.53,47.04,101.01,42.52,95.44,42.52
		 M98.49,55.69c-0.81,0.81-1.93,1.27-3.06,1.27c-1.13,0-2.25-0.46-3.06-1.27c-0.81-0.81-1.27-1.93-1.27-3.06
		c0-1.15,0.46-2.25,1.27-3.08c1.62-1.59,4.5-1.59,6.12,0c0.81,0.84,1.27,1.96,1.27,3.08C99.76,53.76,99.3,54.85,98.49,55.69"/>
	<path class="st0" d="M64.52,321.66v-45.78h-8.66v45.78c0,2.39,1.94,4.33,4.33,4.33C62.58,325.98,64.52,324.04,64.52,321.66"/>
	<path class="st0" d="M78.62,321.66v-45.78h-8.66v45.78c0,2.39,1.94,4.33,4.33,4.33C76.68,325.98,78.62,324.04,78.62,321.66"/>
	<path class="st0" d="M92.72,321.66v-45.78h-8.66v45.78c0,2.39,1.94,4.33,4.33,4.33C90.78,325.98,92.72,324.04,92.72,321.66"/>
	<path class="st0" d="M106.81,321.66v-45.78h-8.66v45.78c0,2.39,1.94,4.33,4.33,4.33C104.87,325.98,106.81,324.04,106.81,321.66"/>
	<path class="st0" d="M120.91,321.66v-45.78h-8.66v45.78c0,2.39,1.94,4.33,4.33,4.33C118.97,325.98,120.91,324.04,120.91,321.66"/>
	<path class="st0" d="M135.01,321.66v-45.78h-8.66v45.78c0,2.39,1.94,4.33,4.33,4.33C133.07,325.98,135.01,324.04,135.01,321.66"/>
	<path class="st0" d="M70.78,245.73h49.32c-1.14-5.98-6.39-10.51-12.71-10.51H83.48C77.16,235.22,71.92,239.75,70.78,245.73"/>
	<path class="st0" d="M144.03,260.8c0-4.94-4.02-8.95-8.96-8.95H55.8c-4.93,0-8.95,4.02-8.95,8.95c0,4.94,4.02,8.95,8.95,8.95h79.28
		C140.01,269.76,144.03,265.74,144.03,260.8"/>
	<path class="st0" d="M251.42,42.52c-4.54,0-8.23,3.69-8.23,8.23v93.04h16.45V50.75C259.65,46.21,255.96,42.52,251.42,42.52
		 M253.91,53.25c-0.66,0.66-1.58,1.03-2.49,1.03c-0.92,0-1.83-0.38-2.49-1.03c-0.66-0.66-1.03-1.57-1.03-2.49
		c0-0.94,0.38-1.83,1.03-2.51c1.32-1.29,3.67-1.29,4.99,0c0.66,0.68,1.03,1.6,1.03,2.51C254.94,51.68,254.57,52.57,253.91,53.25"/>
	<path class="st0" d="M251.42,260.26c1.94,0,3.51-1.57,3.51-3.51l4.72-107.63h-16.45l4.72,107.63
		C247.91,258.69,249.48,260.26,251.42,260.26"/>
	<path class="st0" d="M316.02,276.25c0-32.26-0.06-70.04-0.06-73.79l-1.95-4.75H284.8l-22.77,0.34l-3.49,60.04
		c0,3.84-3.19,7.04-7.13,7.04c-3.93,0-7.13-3.2-7.13-7.13l-3.5-60.29h-51.64l-1.95,4.75c-0.01,3.75-0.06,41.53-0.06,73.79
		c0,14.67-2.55,25.88-4.42,34.07c-1.48,6.51-2.55,11.21-1.16,12.96c0.61,0.77,1.93,1.15,4.02,1.15h131.98
		c2.09,0,3.41-0.38,4.03-1.15c1.39-1.75,0.32-6.45-1.16-12.96C318.57,302.14,316.02,290.92,316.02,276.25"/>
</g>
</svg>
