<?xml version="1.0" encoding="utf-8"?>
<!-- Generator: Adobe Illustrator 25.4.0, SVG Export Plug-In . SVG Version: 6.00 Build 0)  -->
<svg version="1.1" id="Calque_1" xmlns="http://www.w3.org/2000/svg" xmlns:xlink="http://www.w3.org/1999/xlink" x="0px" y="0px"
	 viewBox="0 0 368.5 368.5" style="enable-background:new 0 0 368.5 368.5;" xml:space="preserve">
<style type="text/css">
	.st0{fill:#FFFFFF;}
</style>
<g>
	<path class="st0" d="M288.71,259.93c6.58,0,11.93-5.35,11.93-11.93v-72.69c0-6.58-5.35-11.94-11.93-11.94h-27.88
		c-6.58,0-11.93,5.36-11.93,11.94V248c0,6.58,5.35,11.93,11.93,11.93H288.71z M254.77,248v-72.69c0-3.34,2.71-6.06,6.05-6.06h27.88
		c3.34,0,6.05,2.72,6.05,6.06V248c0,3.34-2.72,6.05-6.05,6.05h-27.88C257.49,254.05,254.77,251.33,254.77,248"/>
	<path class="st0" d="M215.15,245.67v-86.04c0-7.93-6.45-14.39-14.39-14.39h-27.39c-7.93,0-14.39,6.46-14.39,14.39v86.04
		c0,7.42,5.65,13.54,12.87,14.31h-53.15c8.63-0.82,15.4-8.1,15.4-16.94V137.19c0-9.39-7.64-17.03-17.02-17.03H83.4
		c-9.39,0-17.03,7.64-17.03,17.03v105.84c0,8.84,6.77,16.12,15.4,16.94H59.51c-9.37,0-16.99,6-16.99,13.37
		c0,7.37,7.62,13.36,16.99,13.36H309c9.36,0,16.99-6,16.99-13.36c0-7.37-7.62-13.37-16.99-13.37H202.28
		C209.5,259.21,215.15,253.09,215.15,245.67 M164.87,245.67v-3.15c0-0.08-0.01-0.16-0.01-0.24v-64.09c0-0.08,0.01-0.16,0.01-0.24
		v-18.31c0-4.69,3.82-8.51,8.51-8.51h27.39c4.69,0,8.51,3.82,8.51,8.51v86.04c0,4.69-3.82,8.51-8.51,8.51h-27.39
		C168.69,254.18,164.87,250.36,164.87,245.67 M72.25,243.03V137.19c0-6.15,5-11.15,11.14-11.15h33.68c6.15,0,11.15,5,11.15,11.15
		v105.84c0,6.14-5,11.14-11.15,11.14H83.4C77.25,254.18,72.25,249.18,72.25,243.03"/>
	<path class="st0" d="M129.05,97.88l-1.66-9.61c-0.26-3.66-3.86-6.48-8.41-6.48H81.66c-4.55,0-8.15,2.81-8.41,6.48l-1.66,9.61
		H129.05z"/>
	<path class="st0" d="M70.58,103.76l-0.31,1.78c-0.04,0.22-0.06,0.44-0.06,0.67c0,3.87,3.7,6.9,8.43,6.9H122
		c4.73,0,8.43-3.03,8.43-6.9c0-0.22-0.02-0.45-0.06-0.67l-0.31-1.78H70.58z"/>
	<path class="st0" d="M90.61,240.49c-0.99,0.87-1.62,2.13-1.62,3.55c0,2.62,2.13,4.75,4.75,4.75s4.75-2.13,4.75-4.75
		c0-2.62-2.13-4.75-4.75-4.75c-0.61,0-1.18,0.12-1.72,0.34c1.52-1.2,2.52-3.04,2.52-5.12v-22.5c0.67,0.36,1.41,0.58,2.22,0.58
		c2.62,0,4.76-2.13,4.76-4.75c0-2.62-2.13-4.75-4.76-4.75c-0.81,0-1.55,0.22-2.22,0.58v-37.78c0-3.61-2.94-6.54-6.55-6.54
		c-3.61,0-6.54,2.93-6.54,6.54v68.64c0,3.61,2.93,6.54,6.54,6.54C88.93,241.04,89.81,240.84,90.61,240.49"/>
	<path class="st0" d="M113.09,217.25c2.62,0,4.75-2.13,4.75-4.75c0-2.62-2.13-4.75-4.75-4.75c-2.62,0-4.75,2.13-4.75,4.75
		C108.33,215.12,110.47,217.25,113.09,217.25"/>
	<path class="st0" d="M114.45,234.76c-2.62,0-4.76,2.13-4.76,4.75c0,2.62,2.13,4.75,4.76,4.75c2.62,0,4.75-2.13,4.75-4.75
		C119.2,236.9,117.07,234.76,114.45,234.76"/>
	<path class="st0" d="M103.1,229.92c-2.62,0-4.76,2.13-4.76,4.75c0,2.62,2.13,4.75,4.76,4.75c2.62,0,4.75-2.13,4.75-4.75
		C107.86,232.06,105.72,229.92,103.1,229.92"/>
	<path class="st0" d="M113.36,221.17c-2.62,0-4.75,2.13-4.75,4.75c0,2.62,2.13,4.75,4.75,4.75c2.62,0,4.75-2.13,4.75-4.75
		C118.12,223.3,115.98,221.17,113.36,221.17"/>
	<path class="st0" d="M97.14,220.49c0,2.62,2.13,4.76,4.75,4.76c2.62,0,4.75-2.13,4.75-4.76c0-2.62-2.13-4.75-4.75-4.75
		C99.27,215.74,97.14,217.87,97.14,220.49"/>
	<path class="st0" d="M255.87,139.29l-0.88,5.09h38.53l-0.88-5.09c-0.26-3.03-3.12-5.34-6.72-5.34h-23.34
		C258.98,133.95,256.12,136.26,255.87,139.29"/>
	<path class="st0" d="M254,150.26c-0.02,0.14-0.04,0.28-0.04,0.43c0,3.24,2.96,5.78,6.74,5.78h27.11c3.78,0,6.74-2.54,6.74-5.78
		c0-0.14-0.02-0.28-0.04-0.43H254z"/>
	<path class="st0" d="M206.31,126.78l-0.94-5.46c-0.26-3.08-3.18-5.44-6.86-5.44h-24.5c-3.68,0-6.6,2.35-6.86,5.44l-0.94,5.46
		H206.31z"/>
	<path class="st0" d="M165.21,132.66c-0.03,0.2-0.05,0.39-0.05,0.59c0,3.29,3.02,5.88,6.88,5.88h28.45c3.86,0,6.88-2.58,6.88-5.88
		c0-0.2-0.02-0.4-0.05-0.59H165.21z"/>
	<path class="st0" d="M170.74,242.27c0,3.08,2.57,5.59,5.73,5.59h20.74c3.16,0,5.73-2.51,5.73-5.59v-35.31h-32.21V242.27z"/>
	<path class="st0" d="M265.8,241.16c2.32,0,4.21-1.89,4.21-4.21v-4.4c0.56,0.36,1.22,0.57,1.94,0.57c2.01,0,3.64-1.63,3.64-3.64
		c0-2.01-1.63-3.64-3.64-3.64c-0.71,0-1.38,0.21-1.94,0.57v-5.22c0.57,0.37,1.24,0.59,1.97,0.59c2.01,0,3.64-1.63,3.64-3.64
		c0-2.01-1.63-3.64-3.64-3.64c-0.73,0-1.4,0.22-1.97,0.59v-14.54c0.5,0.26,1.06,0.42,1.67,0.42c2.01,0,3.64-1.63,3.64-3.64
		s-1.63-3.64-3.64-3.64c-0.6,0-1.17,0.16-1.67,0.42v-5.55c0-2.32-1.89-4.21-4.21-4.21c-2.32,0-4.21,1.89-4.21,4.21v48.39
		C261.59,239.27,263.48,241.16,265.8,241.16"/>
	<path class="st0" d="M283.49,217.8c-2.01,0-3.64,1.63-3.64,3.64c0,2.01,1.63,3.64,3.64,3.64c2.01,0,3.64-1.63,3.64-3.64
		C287.13,219.43,285.49,217.8,283.49,217.8"/>
	<path class="st0" d="M284.44,240.63c-2.01,0-3.64,1.63-3.64,3.64c0,2.01,1.63,3.64,3.64,3.64c2.01,0,3.64-1.63,3.64-3.64
		C288.08,242.26,286.45,240.63,284.44,240.63"/>
	<path class="st0" d="M276.81,235.57c-2.01,0-3.64,1.63-3.64,3.64s1.63,3.64,3.64,3.64c2.01,0,3.64-1.63,3.64-3.64
		S278.82,235.57,276.81,235.57"/>
	<path class="st0" d="M280.04,230.9c0,2.01,1.63,3.64,3.64,3.64c2.01,0,3.64-1.63,3.64-3.64c0-2.01-1.63-3.64-3.64-3.64
		C281.67,227.27,280.04,228.9,280.04,230.9"/>
	<path class="st0" d="M270.66,243c-2.01,0-3.64,1.63-3.64,3.64c0,2.01,1.63,3.64,3.64,3.64c2.01,0,3.64-1.63,3.64-3.64
		C274.3,244.63,272.67,243,270.66,243"/>
	<path class="st0" d="M271.82,208.94c0,2.01,1.63,3.64,3.64,3.64s3.64-1.63,3.64-3.64c0-2.01-1.63-3.64-3.64-3.64
		S271.82,206.94,271.82,208.94"/>
	<path class="st0" d="M281.55,211.1c0,2.01,1.63,3.64,3.64,3.64c2.01,0,3.64-1.63,3.64-3.64c0-2.01-1.63-3.64-3.64-3.64
		C283.18,207.47,281.55,209.1,281.55,211.1"/>
	<path class="st0" d="M282.49,203.66c2.01,0,3.64-1.63,3.64-3.64s-1.63-3.64-3.64-3.64c-2.01,0-3.64,1.63-3.64,3.64
		S280.48,203.66,282.49,203.66"/>
</g>
</svg>
