<?xml version="1.0" encoding="utf-8"?>
<!-- Generator: Adobe Illustrator 25.4.0, SVG Export Plug-In . SVG Version: 6.00 Build 0)  -->
<svg version="1.1" id="Calque_1" xmlns="http://www.w3.org/2000/svg" xmlns:xlink="http://www.w3.org/1999/xlink" x="0px" y="0px"
	 viewBox="0 0 368.5 368.5" style="enable-background:new 0 0 368.5 368.5;" xml:space="preserve">
<style type="text/css">
	.st0{fill:#FFFFFF;}
</style>
<g>
	<path class="st0" d="M52.77,110.39l7.81,7.81c4.86-24.89,25.2-44.4,50.7-48.3l-9.01-9.01c-6.61-6.61-15.4-10.25-24.76-10.25
		c-9.35,0-18.14,3.64-24.75,10.25c-6.61,6.61-10.25,15.4-10.25,24.75S46.16,103.78,52.77,110.39z"/>
	<path class="st0" d="M102.67,175.85l-9.92-9.92c-17.93-17.94-17.94-47.13,0-65.07c8.69-8.69,20.25-13.47,32.54-13.47
		c9.08,0,17.76,2.63,25.18,7.5c0.05,0.04,0.11,0.06,0.17,0.1c0.99,0.66,1.94,1.38,2.89,2.12c0.28,0.22,0.58,0.41,0.86,0.64
		c0.76,0.62,1.48,1.31,2.2,1.99c0.41,0.38,0.84,0.72,1.24,1.12l6.26,6.27l2.52,2.51c-7.82-17.34-25.45-29.46-45.91-29.46
		c-27.69,0-50.22,22.2-50.22,49.49C70.47,150.7,83.86,168.7,102.67,175.85z"/>
	<path class="st0" d="M180.94,189.06c13.64-13.65,13.64-35.85,0-49.5l-3.19-3.19c-4.61-2.96-9.95-4.71-15.58-4.99
		c-9.58-0.48-18.98,3.22-25.9,10.14c-3.33,3.34-5.91,7.19-7.64,11.46c-2.04,4.97-2.87,10.4-2.41,15.69c0.16,1.82-1.18,3.42-3,3.58
		c-0.1,0.01-0.2,0.01-0.29,0.01c-1.69,0-3.13-1.3-3.29-3.01c-0.56-6.35,0.43-12.84,2.87-18.78c2.07-5.08,5.13-9.67,9.09-13.63
		c8.24-8.24,19.5-12.66,30.9-12.06c1.39,0.07,2.75,0.23,4.11,0.45l-16.58-16.57c-6.61-6.61-15.4-10.25-24.75-10.25
		s-18.14,3.64-24.75,10.25c-13.64,13.65-13.64,35.86,0,49.51l30.91,30.91c6.61,6.61,15.4,10.25,24.75,10.25
		C165.54,199.31,174.33,195.67,180.94,189.06z"/>
	<path class="st0" d="M314.64,166.71c-7.32-7.28-17.07-11.29-27.43-11.29c-10.37,0-20.11,4.01-27.44,11.29l-10.52,10.45
		c28.43,3.91,51.14,25.55,56.14,53.16l9.24-9.19c7.32-7.27,11.35-16.93,11.35-27.21C325.99,183.65,321.96,173.98,314.64,166.71z"/>
	<path class="st0" d="M295.43,241.76c0-29.9-24.86-54.23-55.42-54.23c-23.49,0-43.6,14.39-51.65,34.62l0.52-0.51l0,0l10.91-10.84
		c0.46-0.46,0.96-0.85,1.43-1.28c0.76-0.7,1.51-1.42,2.3-2.07c0.31-0.25,0.64-0.46,0.95-0.7c1.02-0.79,2.04-1.56,3.1-2.26
		c0.07-0.05,0.15-0.08,0.22-0.13c8.02-5.22,17.39-8.04,27.2-8.04c13.29,0,25.79,5.15,35.19,14.48c9.41,9.35,14.6,21.79,14.6,35.02
		c0,13.23-5.18,25.67-14.6,35.02l-7.31,7.26l-2.82,2.8h0l-2.23,2.22C279.66,285.82,295.43,265.57,295.43,241.76z"/>
	<path class="st0" d="M262.42,273.01c7.32-7.27,11.35-16.93,11.35-27.21c0-10.28-4.03-19.94-11.35-27.21
		c-7.33-7.28-17.07-11.29-27.44-11.29c-10.36,0-20.11,4.01-27.44,11.29l-18.97,18.85c1.88-0.35,3.79-0.62,5.73-0.72
		c12.39-0.6,24.61,4.13,33.54,13.01c4.29,4.27,7.62,9.22,9.88,14.72c2.65,6.42,3.72,13.43,3.11,20.27c-0.15,1.72-1.6,3.01-3.29,3.01
		c-0.1,0-0.2,0-0.3-0.01c-1.82-0.16-3.16-1.77-2.99-3.58c0.52-5.78-0.4-11.71-2.64-17.16c-1.93-4.68-4.76-8.91-8.43-12.55
		c-7.62-7.57-18.03-11.63-28.56-11.1c-6.51,0.32-12.7,2.39-17.94,5.93l-2.93,2.91c-7.32,7.27-11.35,16.93-11.35,27.21
		c0,10.28,4.03,19.94,11.35,27.21c7.33,7.28,17.07,11.29,27.43,11.29c10.36,0,20.11-4.01,27.44-11.29L262.42,273.01z"/>
</g>
</svg>
