<?xml version="1.0" encoding="utf-8"?>
<!-- Generator: Adobe Illustrator 25.4.0, SVG Export Plug-In . SVG Version: 6.00 Build 0)  -->
<svg version="1.1" id="Calque_1" xmlns="http://www.w3.org/2000/svg" xmlns:xlink="http://www.w3.org/1999/xlink" x="0px" y="0px"
	 viewBox="0 0 368.5 368.5" style="enable-background:new 0 0 368.5 368.5;" xml:space="preserve">
<style type="text/css">
	.st0{fill:#FFFFFF;}
</style>
<g>
	<path class="st0" d="M85.64,278.33V100.31c0-5.6-4.54-10.13-10.13-10.13s-10.13,4.53-10.13,10.13v178.02"/>
	<path class="st0" d="M129.57,278.33V100.31c0-5.6-4.54-10.13-10.13-10.13s-10.13,4.53-10.13,10.13v178.02"/>
	<path class="st0" d="M173.51,278.33V100.31c0-5.6-4.54-10.13-10.13-10.13s-10.13,4.53-10.13,10.13v178.02"/>
	<path class="st0" d="M217.44,278.33V100.31c0-5.6-4.54-10.13-10.13-10.13s-10.13,4.53-10.13,10.13v178.02"/>
	<path class="st0" d="M261.38,278.33V100.31c0-5.6-4.54-10.13-10.13-10.13s-10.13,4.53-10.13,10.13v178.02"/>
	<path class="st0" d="M305.31,278.33V100.31c0-5.6-4.54-10.13-10.13-10.13c-5.6,0-10.13,4.53-10.13,10.13v178.02"/>
	<path class="st0" d="M107.32,252.18V236.3c0-0.85-0.72-1.54-1.61-1.54H89.18c-0.89,0-1.61,0.69-1.61,1.54v15.88
		c0,0.85,0.72,1.54,1.61,1.54h16.53C106.6,253.72,107.32,253.03,107.32,252.18"/>
	<path class="st0" d="M63.35,252.18V236.3c0-0.85-0.72-1.54-1.61-1.54H45.21c-0.89,0-1.61,0.69-1.61,1.54v15.88
		c0,0.85,0.72,1.54,1.61,1.54h16.53C62.63,253.72,63.35,253.03,63.35,252.18"/>
	<path class="st0" d="M151.29,252.18V236.3c0-0.85-0.72-1.54-1.61-1.54h-16.53c-0.89,0-1.61,0.69-1.61,1.54v15.88
		c0,0.85,0.72,1.54,1.61,1.54h16.53C150.57,253.72,151.29,253.03,151.29,252.18"/>
	<path class="st0" d="M195.17,252.18V236.3c0-0.85-0.72-1.54-1.61-1.54h-16.53c-0.89,0-1.61,0.69-1.61,1.54v15.88
		c0,0.85,0.72,1.54,1.61,1.54h16.53C194.45,253.72,195.17,253.03,195.17,252.18"/>
	<path class="st0" d="M239.14,252.18V236.3c0-0.85-0.72-1.54-1.61-1.54H221c-0.89,0-1.61,0.69-1.61,1.54v15.88
		c0,0.85,0.72,1.54,1.61,1.54h16.53C238.42,253.72,239.14,253.03,239.14,252.18"/>
	<path class="st0" d="M283.1,252.18V236.3c0-0.85-0.72-1.54-1.61-1.54h-16.53c-0.89,0-1.61,0.69-1.61,1.54v15.88
		c0,0.85,0.72,1.54,1.61,1.54h16.53C282.38,253.72,283.1,253.03,283.1,252.18"/>
	<path class="st0" d="M327.07,252.18V236.3c0-0.85-0.72-1.54-1.61-1.54h-16.53c-0.89,0-1.61,0.69-1.61,1.54v15.88
		c0,0.85,0.72,1.54,1.61,1.54h16.53C326.35,253.72,327.07,253.03,327.07,252.18"/>
	<path class="st0" d="M107.32,147.59v-15.88c0-0.85-0.72-1.54-1.61-1.54H89.18c-0.89,0-1.61,0.69-1.61,1.54v15.88
		c0,0.85,0.72,1.54,1.61,1.54h16.53C106.6,149.13,107.32,148.44,107.32,147.59"/>
	<path class="st0" d="M63.35,147.59v-15.88c0-0.85-0.72-1.54-1.61-1.54H45.21c-0.89,0-1.61,0.69-1.61,1.54v15.88
		c0,0.85,0.72,1.54,1.61,1.54h16.53C62.63,149.13,63.35,148.44,63.35,147.59"/>
	<path class="st0" d="M151.29,147.59v-15.88c0-0.85-0.72-1.54-1.61-1.54h-16.53c-0.89,0-1.61,0.69-1.61,1.54v15.88
		c0,0.85,0.72,1.54,1.61,1.54h16.53C150.57,149.13,151.29,148.44,151.29,147.59"/>
	<path class="st0" d="M195.17,147.59v-15.88c0-0.85-0.72-1.54-1.61-1.54h-16.53c-0.89,0-1.61,0.69-1.61,1.54v15.88
		c0,0.85,0.72,1.54,1.61,1.54h16.53C194.45,149.13,195.17,148.44,195.17,147.59"/>
	<path class="st0" d="M239.14,147.59v-15.88c0-0.85-0.72-1.54-1.61-1.54H221c-0.89,0-1.61,0.69-1.61,1.54v15.88
		c0,0.85,0.72,1.54,1.61,1.54h16.53C238.42,149.13,239.14,148.44,239.14,147.59"/>
	<path class="st0" d="M283.1,147.59v-15.88c0-0.85-0.72-1.54-1.61-1.54h-16.53c-0.89,0-1.61,0.69-1.61,1.54v15.88
		c0,0.85,0.72,1.54,1.61,1.54h16.53C282.38,149.13,283.1,148.44,283.1,147.59"/>
	<path class="st0" d="M327.07,147.59v-15.88c0-0.85-0.72-1.54-1.61-1.54h-16.53c-0.89,0-1.61,0.69-1.61,1.54v15.88
		c0,0.85,0.72,1.54,1.61,1.54h16.53C326.35,149.13,327.07,148.44,327.07,147.59"/>
</g>
</svg>
