<?xml version="1.0" encoding="utf-8"?>
<!-- Generator: Adobe Illustrator 25.4.0, SVG Export Plug-In . SVG Version: 6.00 Build 0)  -->
<svg version="1.1" id="Calque_1" xmlns="http://www.w3.org/2000/svg" xmlns:xlink="http://www.w3.org/1999/xlink" x="0px" y="0px"
	 viewBox="0 0 368.5 368.5" style="enable-background:new 0 0 368.5 368.5;" xml:space="preserve">
<style type="text/css">
	.st0{fill:#FFFFFF;}
</style>
<g>
	<path class="st0" d="M242.3,177.27h-17.8c2.35,1.79,4.55,3.77,6.58,5.91h11.22c18.77,0,30.1,4.27,39.16,14.78l34.93,38.62
		c3.84,4.61,4.74,9.75,2.53,14.47c-2.91,6.21-10.57,10.23-19.51,10.23H69.52c-8.14,0-15.12-3.58-18.2-9.34
		c-2.34-4.36-1.97-9.27,1.02-13.84l33.14-40.13c7.16-7.82,13.41-11.54,20.86-13.29l-5.38-4.63c-6.65,2.3-12.98,6.46-19.93,14.05
		l-33.34,40.37l-0.18,0.24c-4.27,6.4-4.78,13.7-1.4,20.02c3.76,7.03,11.6,11.62,20.82,12.34c0.85,0.07,1.71,0.11,2.58,0.11h3.42
		l6.22,30.75c3.29,9.66,11.47,19.35,22.44,19.35h171.1c10.39,0,19.41-7.77,22.44-19.33l6.23-30.83c2.16-0.12,4.23-0.42,6.21-0.91
		c7.65-1.87,13.73-6.38,16.68-12.67c3.19-6.81,1.97-14.38-3.42-20.85l-34.96-38.65C273.15,179.26,256.7,177.27,242.3,177.27"/>
	<path class="st0" d="M91.43,129.32l-6.65,4.69c-3.42,2.41-5.77,6.94-6.14,11.81c-0.31,4.1,0.85,7.73,3.19,9.97l44.57,38.35
		c2.5-0.38,5.04-0.58,7.61-0.58c3.13,0,6.33,0.32,9.54,0.94c4.06-7.27,9.57-13.36,16.04-18.03l-23.97-58.58
		c-2.37-4.44-7.28-7.19-12.86-7.19c-3.19,0-6.26,0.93-8.67,2.63l-6.6,4.65l-3.4-4.83l-7.16-10.15c0.96-4.27,0.2-8.9-2.52-12.75
		L71.67,58.02c-3-4.25-7.9-6.79-13.11-6.79c-3.32,0-6.51,1.01-9.23,2.93c-7.22,5.09-8.95,15.12-3.86,22.35l22.75,32.24
		c3,4.25,7.9,6.79,13.11,6.79c0.12,0,0.24-0.03,0.36-0.03l6.34,8.99L91.43,129.32z M52.73,58.98c1.72-1.21,3.73-1.85,5.83-1.85
		c3.29,0,6.39,1.6,8.28,4.29l22.75,32.24c3.22,4.56,2.13,10.9-2.44,14.11c-1.72,1.21-3.73,1.85-5.83,1.85
		c-3.29,0-6.39-1.6-8.29-4.29L50.29,73.1C47.07,68.53,48.17,62.2,52.73,58.98 M90.56,112.61c1.38-0.97,2.55-2.12,3.52-3.4
		l16.43,23.29c0.6,0.86,0.84,1.9,0.66,2.93c-0.18,1.03-0.75,1.93-1.61,2.54c-1.71,1.21-4.27,0.76-5.47-0.94l-16.18-22.94
		C88.83,113.67,89.72,113.2,90.56,112.61"/>
	<path class="st0" d="M179.85,195.94c0.42,0,0.76-0.34,0.76-0.77c0-0.42-0.34-0.76-0.76-0.76c-0.42,0-0.77,0.34-0.77,0.76
		C179.09,195.6,179.43,195.94,179.85,195.94"/>
	<path class="st0" d="M195.72,184.93c-0.52,0-0.95,0.43-0.95,0.95c0,0.52,0.42,0.95,0.95,0.95c0.52,0,0.95-0.42,0.95-0.95
		C196.67,185.35,196.24,184.93,195.72,184.93"/>
	<path class="st0" d="M218.15,199.7c-0.52,0-0.95,0.43-0.95,0.95c0,0.52,0.43,0.95,0.95,0.95c0.52,0,0.95-0.43,0.95-0.95
		C219.1,200.13,218.68,199.7,218.15,199.7"/>
	<path class="st0" d="M293.65,232.99c3.08,3.69,4.42,7.46,3.42,9.59c-0.81,1.72-3.38,2.67-7.23,2.67h-2.97
		c-2.8-13.97-16.14-24.52-31.72-24.52c-3.61,0-7.23,0.58-10.75,1.74c-0.88,0.29-1.84,0.15-2.6-0.38c-0.76-0.53-1.23-1.38-1.27-2.3
		c-1.13-26.76-22.68-47.73-49.07-47.73c-18.49,0-35.24,10.39-43.73,27.13c-0.62,1.22-2,1.85-3.32,1.54
		c-3.51-0.84-7.02-1.26-10.42-1.26c-23.01,0-43.15,17.68-43.97,38.61l-0.06,1.29c-0.07,1.38-0.19,4.14-0.06,5.89H78.56
		c-1.97,0-5.47-0.37-6.7-2.87c-1.24-2.53-0.06-6.64,3.09-10.71l24.56-31.54c1-1.29,0.77-3.14-0.52-4.15c-1.29-1-3.14-0.77-4.14,0.51
		l-24.57,31.55c-4.61,5.97-6,12.3-3.72,16.94c1.13,2.3,4.2,6.17,12,6.17h211.29c8.04,0,11.28-3.31,12.58-6.08
		c2.06-4.39,0.51-10.18-4.26-15.91l-15.57-18.23c-1.06-1.24-2.92-1.38-4.16-0.33c-1.24,1.06-1.39,2.92-0.33,4.16L293.65,232.99z
		 M218.15,205.61c-2.73,0-4.96-2.22-4.96-4.96c0-2.74,2.22-4.96,4.96-4.96c2.74,0,4.96,2.22,4.96,4.96
		C223.11,203.39,220.89,205.61,218.15,205.61 M200.68,185.88c0,2.73-2.23,4.96-4.96,4.96c-2.74,0-4.96-2.22-4.96-4.96
		c0-2.74,2.22-4.96,4.96-4.96C198.45,180.92,200.68,183.14,200.68,185.88 M174.05,219.62c0,3.84-3.13,6.97-6.97,6.97
		c-3.84,0-6.96-3.12-6.96-6.97c0-3.84,3.12-6.97,6.96-6.97C170.92,212.65,174.05,215.78,174.05,219.62 M174.71,195.18
		c0-2.83,2.31-5.14,5.14-5.14c2.83,0,5.14,2.3,5.14,5.14c0,2.84-2.31,5.14-5.14,5.14C177.02,200.32,174.71,198.01,174.71,195.18
		 M122.95,211.56c3.44,0,6.24,2.8,6.24,6.24c0,3.44-2.8,6.24-6.24,6.24c-3.44,0-6.24-2.8-6.24-6.24
		C116.71,214.36,119.51,211.56,122.95,211.56 M203.89,227.64c0-4.64,3.78-8.42,8.43-8.42c4.65,0,8.43,3.78,8.43,8.42
		c0,4.65-3.78,8.43-8.43,8.43C207.67,236.07,203.89,232.29,203.89,227.64"/>
</g>
</svg>
