<?xml version="1.0" encoding="utf-8"?>
<!-- Generator: Adobe Illustrator 25.4.0, SVG Export Plug-In . SVG Version: 6.00 Build 0)  -->
<svg version="1.1" id="Calque_1" xmlns="http://www.w3.org/2000/svg" xmlns:xlink="http://www.w3.org/1999/xlink" x="0px" y="0px"
	 viewBox="0 0 368.5 368.5" style="enable-background:new 0 0 368.5 368.5;" xml:space="preserve">
<style type="text/css">
	.st0{fill:#FFFFFF;}
</style>
<g>
	<path class="st0" d="M202.27,217.12c0-1.03,0.15-2.05,0.45-3.05c0.6-1.95,1.7-3.6,3.11-4.86c-2.45-2.05-4-5.12-4.01-8.55
		c-0.01-2.53-2.09-4.6-4.59-4.6c-2.51,0-4.6,2.08-4.6,4.59v16.86h9.67c0-0.12-0.02-0.23-0.02-0.35V217.12L202.27,217.12z
		 M170.31,200.63c0.01-14.85,12.06-26.9,26.91-26.91c14.86,0.01,26.9,12.06,26.91,26.92c0,3.43-1.55,6.5-3.99,8.55
		c2.23,2.01,3.54,4.9,3.54,7.95c0,0.12-0.02,0.24-0.03,0.36h91.13c4.26-0.01,7.69-3.44,7.7-7.68V104.38
		c-0.01-4.24-3.44-7.68-7.7-7.68H104.76V217.5h65.55V200.63z M54.11,217.5l43.65,0V96.69H54.11c-4.26,0.01-7.69,3.44-7.7,7.68
		v105.44C46.42,214.06,49.85,217.5,54.11,217.5 M214.69,212.75c-0.05-0.02-0.09-0.04-0.14-0.06l-0.13-0.04
		c-0.02,0-0.04-0.01-0.06-0.02c-0.01,0-0.03-0.01-0.04-0.01c0,0,0,0,0,0c-0.01,0-0.03-0.01-0.04-0.01c-0.4-0.12-0.82-0.17-1.21-0.18
		c-2.09,0.02-3.98,1.32-4.6,3.37c-0.13,0.42-0.19,0.86-0.19,1.31v0.01v0.02c0,0.76,0.2,1.54,0.57,2.23c0.6,1.1,1.62,1.93,2.81,2.26
		c0.46,0.13,0.9,0.19,1.31,0.19c2.1-0.01,3.94-1.39,4.52-3.37c0.13-0.47,0.19-0.92,0.19-1.33
		C217.69,215.24,216.51,213.46,214.69,212.75 M313.04,251.93H189.63c-0.79,0-1.56-0.32-2.12-0.88c-0.56-0.56-0.88-1.33-0.88-2.12
		v-48.3c0.02-5.84,4.75-10.57,10.6-10.58c5.85,0.01,10.57,4.75,10.59,10.6c0,2.85,2.31,5.15,5.16,5.15c2.85,0,5.15-2.31,5.16-5.16
		c0-11.53-9.38-20.91-20.91-20.92c-11.53,0-20.92,9.39-20.92,20.92v48.29c0,0.79-0.32,1.56-0.88,2.12
		c-0.56,0.56-1.33,0.88-2.12,0.88H55.47c-5.49,0-9.94,4.45-9.94,9.94c0,5.49,4.45,9.94,9.94,9.94h257.57c5.49,0,9.93-4.45,9.93-9.94
		C322.97,256.38,318.53,251.93,313.04,251.93 M214.41,230.5l-0.17-0.04c-0.36-0.1-0.78-0.16-1.17-0.16h-0.01h-0.02
		c-2.09,0.04-3.95,1.33-4.56,3.35c-0.13,0.44-0.2,0.91-0.2,1.33v0.05c0,0.76,0.2,1.52,0.57,2.22c0.59,1.09,1.62,1.92,2.81,2.27
		c0.46,0.13,0.87,0.19,1.31,0.19h0.01c2.11-0.01,3.93-1.38,4.52-3.38c0.12-0.44,0.18-0.88,0.18-1.32
		C217.68,233.01,216.41,231.16,214.41,230.5"/>
</g>
</svg>
