<?xml version="1.0" encoding="utf-8"?>
<!-- Generator: Adobe Illustrator 25.4.0, SVG Export Plug-In . SVG Version: 6.00 Build 0)  -->
<svg version="1.1" id="Calque_1" xmlns="http://www.w3.org/2000/svg" xmlns:xlink="http://www.w3.org/1999/xlink" x="0px" y="0px"
	 viewBox="0 0 368.5 368.5" style="enable-background:new 0 0 368.5 368.5;" xml:space="preserve">
<style type="text/css">
	.st0{fill:#FFFFFF;}
</style>
<g>
	<path class="st0" d="M327.06,89.78c0-5.54-4.5-10.04-10.03-10.04H53.64c-5.54,0-10.04,4.5-10.04,10.04v42.49h283.46V89.78z
		 M87.17,119.68c-6.29,0-11.4-5.11-11.4-11.4c0-6.3,5.11-11.4,11.4-11.4s11.4,5.1,11.4,11.4C98.57,114.58,93.47,119.68,87.17,119.68
		 M125.7,119.68c-6.3,0-11.4-5.11-11.4-11.4c0-6.3,5.11-11.4,11.4-11.4c6.29,0,11.4,5.1,11.4,11.4
		C137.1,114.58,131.99,119.68,125.7,119.68 M164.21,119.68c-6.3,0-11.4-5.11-11.4-11.4c0-6.3,5.1-11.4,11.4-11.4
		c6.29,0,11.4,5.1,11.4,11.4C175.61,114.58,170.51,119.68,164.21,119.68"/>
	<path class="st0" d="M327.06,299.74V139.49H43.6v160.25c0,5.53,4.5,10.03,10.04,10.03h263.39
		C322.56,309.77,327.06,305.27,327.06,299.74 M293.65,261.42c0,11.3-9.16,20.47-20.47,20.47H97.47c-11.3,0-20.47-9.17-20.47-20.47
		v-68.73c0-11.31,9.17-20.47,20.47-20.47h16.97c1.45-8.85,9.12-15.64,18.38-15.64h105.02c9.26,0,16.93,6.79,18.38,15.64h16.96
		c11.31,0,20.47,9.16,20.47,20.47V261.42z"/>
	<path class="st0" d="M75.46,64.75c0,3.32,2.7,6.02,6.02,6.02h75.01c3.33,0,6.02-2.69,6.02-6.02c0-3.32-2.69-6.02-6.02-6.02H81.48
		C78.16,58.73,75.46,61.43,75.46,64.75"/>
	<path class="st0" d="M208.15,64.75c0,3.32,2.69,6.02,6.02,6.02h75.02c3.32,0,6.02-2.69,6.02-6.02c0-3.32-2.69-6.02-6.02-6.02
		h-75.02C210.84,58.73,208.15,61.43,208.15,64.75"/>
	<path class="st0" d="M237.84,163.8H132.82c-6.3,0-11.43,5.13-11.43,11.43c0,6.3,5.13,11.43,11.43,11.43h105.02
		c6.3,0,11.43-5.13,11.43-11.43C249.27,168.93,244.14,163.8,237.84,163.8"/>
</g>
</svg>
