<?xml version="1.0" encoding="utf-8"?>
<!-- Generator: Adobe Illustrator 26.4.0, SVG Export Plug-In . SVG Version: 6.00 Build 0)  -->
<svg version="1.1" xmlns="http://www.w3.org/2000/svg" xmlns:xlink="http://www.w3.org/1999/xlink" x="0px" y="0px"
	 viewBox="0 0 2976.2 1488.5" style="enable-background:new 0 0 2976.2 1488.5;" xml:space="preserve">
<style type="text/css">
	.st0{display:none;}
	.st1{display:inline;fill:#FFD100;}
	.st2{display:inline;}
	.st3{fill:#005CB9;}
	.st4{fill:#FFD100;}
	.st5{font-family:'CastoBlack-Black';}
	.st6{font-size:174.4565px;}
	.st7{font-family:'CastoRegular';}
	.st8{font-size:69.7826px;}
	.st9{display:inline;fill:#005CB9;}
	.st10{display:inline;fill:#FFFFFF;}
	.st11{fill:#FFFFFF;}
	.st12{fill:#FFD100;stroke:#FFFFFF;stroke-width:5;stroke-miterlimit:10;}
</style>
<g id="Calque_1">
	<g class="st0">
		<rect x="3301" y="1881.3" class="st1" width="1488.2" height="1488.2"/>
		<text transform="matrix(1 0 0 1 3692.2249 2686.1079)" class="st2"><tspan x="0" y="0" class="st3 st5 st6">livraison</tspan><tspan x="-69.3" y="133.8" class="st3 st5 st6">à domicile</tspan></text>
		<text transform="matrix(1 0 0 1 3655.9001 2981.186)" class="st2"><tspan x="0" y="0" class="st3 st7 st8">Pas de temps à perdre ?</tspan><tspan x="212.5" y="69.8" class="st3 st5 st8">Gagnez-en</tspan></text>
		<g class="st2">
			<g>
				<path class="st3" d="M4171.1,2392.7c-23.6,0-44.1,15.7-44.1,43.7c0,27.9,20.7,43.6,44.1,43.6c23.4,0,43.9-15.8,43.9-43.6
					C4215,2408.4,4194.5,2392.7,4171.1,2392.7"/>
				<path class="st3" d="M3920.6,2392.7c-23.6,0-44.1,15.7-44.1,43.7c0,27.9,20.8,43.6,44.1,43.6c23.4,0,44-15.8,44-43.6
					C3964.5,2408.4,3944,2392.7,3920.6,2392.7"/>
				<path class="st3" d="M4271.8,2395.3h-2.5v-25.6v-19.9v-10c0-63.3-51.4-114.7-114.7-114.7c-3.2,0-6.2,0.2-9.4,0.4
					c-11.4-23.1-35-38.9-62.5-38.9h-183.2c-38.5,0-69.7,31.2-69.7,69.8v93.5v19.9v25.6h-11.2c-9.2,0-16.5,7.4-16.5,16.5
					c0,9.1,7.4,16.5,16.5,16.5h35.1l1-6.8c6.4-33.3,34.4-51.9,66-51.9c33.4,0,62.9,21,66.7,58.6h117c3.8-37.6,33.4-58.6,67-58.6
					c31.3,0,59.2,18.4,65.7,51.7l1,7h6.1h27.6c9.2,0,16.5-7.4,16.5-16.5C4288.3,2402.7,4281,2395.3,4271.8,2395.3 M4182.3,2331.7
					c-11,0-20.1-8.3-21.3-19v-59.2c43.2,0,78.2,35,78.2,78.2H4182.3z"/>
			</g>
		</g>
	</g>
	<g>
		<rect y="0.1" class="st4" width="1488.2" height="1488.2"/>
		<g>
			<text transform="matrix(1 0 0 1 410.8026 804.9582)"><tspan x="0" y="0" class="st3 st5 st6">location</tspan><tspan x="-126.5" y="133.8" class="st3 st5 st6">de véhicule</tspan></text>
		</g>
		<text transform="matrix(1 0 0 1 393.4418 1100.0393)"><tspan x="0" y="0" class="st3 st7 st8">Besoin d’un véhicule ?</tspan><tspan x="-23.4" y="69.8" class="st3 st5 st8">Louez un véhicule pour</tspan><tspan x="-8.7" y="139.6" class="st3 st5 st8">8,90€ par demi-heure</tspan></text>
		<g>
			<path class="st3" d="M655.6,412.6c0.6,4.1,4.5,6.9,8.8,6.2c4.2-0.7,7.1-4.7,6.5-8.8c-4-27,14.1-53.6,42.4-61.9
				c27.3-8.1,55.2,3.3,66.5,27c1.8,3.8,6.4,5.3,10.3,3.5c0.3-0.1,0.5-0.2,0.7-0.4c3.4-2.1,4.7-6.3,3-9.8c-14.4-30.3-50-45-84.6-34.8
				C673.4,344,650.3,378,655.6,412.6"/>
			<path class="st3" d="M1006.9,491.2l-5.5-3.5c-0.6,0.7-1.3,1.3-2.2,1.7c-2.2,1.1-4.9,1-7.1-0.4c-3.4-2.2-4.3-6.7-2.1-10l0.4-0.7
				l-5.9-4.3l-0.5,0.8c-0.8,1.2-1.8,2-2.9,2.5c-2.2,1.1-4.9,1-7.1-0.4c-3.4-2.2-4.3-6.7-2.1-10l1-1.7l-6.5-4.7l-0.6,0.9
				c-0.7,1.1-1.7,2-2.9,2.5c-2.2,1.1-4.9,1-7.2-0.4c-3.3-2.1-4.3-6.6-2.2-10l1.1-1.7l-47.1-34.6c0.4-3.6-1.2-7.3-4.5-9.5
				c-2.9-1.9-6.5-2.1-9.5-0.8l-0.1-0.1c3-11.4,3.5-23.4,1.3-35.2c-3.9-21.3-15.8-39.7-33.5-52c-24-16.6-55.2-19-81.5-6.2
				c-8.1,3.9-15.4,9.2-21.8,15.6c13.4,4.9,25.1,13.2,33.6,24.6c3.7-0.4,7.6,0.2,11.1,1.8c5.4,2.4,9.5,6.7,11.5,12.2
				c4,10.5-0.7,22.6-10.8,27.5c-0.6,0.3-1.1,0.6-1.7,0.8c-5.5,2.1-11.4,1.9-16.7-0.4c-5.4-2.4-9.5-6.7-11.6-12.2
				c-1.3-3.3-1.6-6.8-1.3-10.1c-6.7-10.8-17.7-18.1-30.2-20.9c-12.3,26.6-8.9,57.6,7.8,81c-4.2,2.3-9.1,4.3-14.8,5.6
				c-5.4,1.3-10.5,1.7-15.1,1.5c-0.6-23.4-11.5-48.3-32.2-67.2c-0.5-0.4-0.9-0.8-1.4-1.2c-6.8,8.8-10.6,19.4-10.4,30.4
				c1,1.6,1.9,3.2,2.5,5c3.2,9.8-1.4,20.5-10.7,25.1c-0.8,0.4-1.7,0.8-2.7,1.1c-10.9,3.5-22.6-2.5-26.1-13.4
				c-3.1-9.6,1.3-20.3,10.3-24.9c1.3-13.9,6.6-27.1,15.1-38.4c-23.9-12.1-50.7-13.7-72.3-3.2c-7.2,3.5-13.6,8.3-18.9,14.1
				l-82.9,90.7c-27.4,30-20.4,81,15.5,113.9c28.2,25.7,66.7,33.5,95.8,19.4c7.2-3.5,13.5-8.3,18.9-14.1l82.9-90.7
				c7.7-8.4,12.6-18.5,15.1-29.4c6.3,0.4,13.2-0.1,20.7-1.9c5.9-1.4,11.1-3.3,15.8-5.6c2.4-1.2,4.7-2.5,6.7-3.8
				c2.4,2.2,5.1,4.3,7.8,6.1c24,16.6,55.2,19.1,81.5,6.3c5.7-2.8,11-6.3,15.9-10.3c0.1,3.3,1.7,6.4,4.6,8.3c3.1,2.1,6.9,2.2,10,0.7
				c0.9-0.4,1.8-1.1,2.5-1.8l34.8,19.6l14.7,9.6l1.7-2.6c2.2-3.3,6.6-4.3,10-2.1c3.4,2.2,4.3,6.6,2.2,10l-1.7,2.6l6.8,4.4l1-1.6
				c2.2-3.3,6.6-4.3,10-2.1c3.4,2.1,4.3,6.6,2.2,10l-1.1,1.6l6.2,4l0.8-1.3c2.2-3.4,6.6-4.3,10-2.1c3.4,2.1,4.3,6.6,2.2,10l-0.9,1.4
				l1.6,1c0.5,0.3,0.9,0.5,1.3,0.7l2.5,1.6c5.3,3.4,11.7,3.6,17,1c2.8-1.4,5.2-3.4,6.9-6.2C1017.3,507.2,1014.9,496.4,1006.9,491.2"
				/>
		</g>
	</g>
	<g>
		<rect x="1488" y="0.3" class="st4" width="1488.2" height="1488.2"/>
		<g>
			<text transform="matrix(1 0 0 1 1898.8494 805.0947)"><tspan x="0" y="0" class="st3 st5 st6">location</tspan><tspan x="-126.5" y="133.8" class="st3 st5 st6">de véhicule</tspan></text>
		</g>
		<text transform="matrix(1 0 0 1 1881.4885 1100.1758)"><tspan x="0" y="0" class="st3 st7 st8">Besoin d’un véhicule ?</tspan><tspan x="-23.4" y="69.8" class="st3 st5 st8">Louez un véhicule pour</tspan><tspan x="-8.7" y="139.6" class="st3 st5 st8">8,90€ par demi-heure</tspan></text>
		<g>
			<path class="st3" d="M2143.6,412.7c0.6,4.1,4.5,6.9,8.8,6.2c4.2-0.7,7.1-4.7,6.5-8.8c-4-27,14.1-53.6,42.4-61.9
				c27.3-8.1,55.2,3.3,66.5,27c1.8,3.8,6.4,5.3,10.3,3.5c0.3-0.1,0.5-0.2,0.7-0.4c3.4-2.1,4.7-6.3,3-9.8c-14.4-30.3-50-45-84.6-34.8
				C2161.4,344.1,2138.4,378.1,2143.6,412.7"/>
			<path class="st3" d="M2495,491.3l-5.5-3.5c-0.6,0.7-1.3,1.3-2.2,1.7c-2.2,1.1-4.9,1-7.1-0.4c-3.4-2.2-4.3-6.7-2.1-10l0.4-0.7
				l-5.9-4.3l-0.5,0.8c-0.8,1.2-1.8,2-2.9,2.5c-2.2,1.1-4.9,1-7.1-0.4c-3.4-2.2-4.3-6.7-2.1-10l1-1.7l-6.5-4.7l-0.6,0.9
				c-0.7,1.1-1.7,2-2.9,2.5c-2.2,1.1-4.9,1-7.2-0.4c-3.3-2.1-4.3-6.6-2.2-10l1.1-1.7l-47.1-34.6c0.4-3.6-1.2-7.3-4.5-9.5
				c-2.9-1.9-6.5-2.1-9.5-0.8l-0.1-0.1c3-11.4,3.5-23.4,1.3-35.2c-3.9-21.3-15.8-39.7-33.5-52c-24-16.6-55.2-19-81.5-6.2
				c-8.1,3.9-15.4,9.2-21.8,15.6c13.4,4.9,25.1,13.2,33.6,24.6c3.7-0.4,7.6,0.2,11.1,1.8c5.4,2.4,9.5,6.7,11.5,12.2
				c4,10.5-0.7,22.6-10.8,27.5c-0.6,0.3-1.1,0.6-1.7,0.8c-5.5,2.1-11.4,1.9-16.7-0.4c-5.4-2.4-9.5-6.7-11.6-12.2
				c-1.3-3.3-1.6-6.8-1.3-10.1c-6.7-10.8-17.7-18.1-30.2-20.9c-12.3,26.6-8.9,57.6,7.8,81c-4.2,2.3-9.1,4.3-14.8,5.6
				c-5.4,1.3-10.5,1.7-15.1,1.5c-0.6-23.4-11.5-48.3-32.2-67.2c-0.5-0.4-0.9-0.8-1.4-1.2c-6.8,8.8-10.6,19.4-10.4,30.4
				c1,1.6,1.9,3.2,2.5,5c3.2,9.8-1.4,20.5-10.7,25.1c-0.8,0.4-1.7,0.8-2.7,1.1c-10.9,3.5-22.6-2.5-26.1-13.4
				c-3.1-9.6,1.3-20.3,10.3-24.9c1.3-13.9,6.6-27.1,15.1-38.4c-23.9-12.1-50.7-13.7-72.3-3.2c-7.2,3.5-13.6,8.3-18.9,14.1
				l-82.9,90.7c-27.4,30-20.4,81,15.5,113.9c28.2,25.7,66.7,33.5,95.8,19.4c7.2-3.5,13.5-8.3,18.9-14.1l82.9-90.7
				c7.7-8.4,12.6-18.5,15.1-29.4c6.3,0.4,13.2-0.1,20.7-1.9c5.9-1.4,11.1-3.3,15.8-5.6c2.4-1.2,4.7-2.5,6.7-3.8
				c2.4,2.2,5.1,4.3,7.8,6.1c24,16.6,55.2,19.1,81.5,6.3c5.7-2.8,11-6.3,15.9-10.3c0.1,3.3,1.7,6.4,4.6,8.3c3.1,2.1,6.9,2.2,10,0.7
				c0.9-0.4,1.8-1.1,2.5-1.8l34.8,19.6l14.7,9.6l1.7-2.6c2.2-3.3,6.6-4.3,10-2.1c3.4,2.2,4.3,6.6,2.2,10l-1.7,2.6l6.8,4.4l1-1.6
				c2.2-3.3,6.6-4.3,10-2.1c3.4,2.1,4.3,6.6,2.2,10l-1.1,1.6l6.2,4l0.8-1.3c2.2-3.4,6.6-4.3,10-2.1c3.4,2.1,4.3,6.6,2.2,10l-0.9,1.4
				l1.6,1c0.5,0.3,0.9,0.5,1.3,0.7l2.5,1.6c5.3,3.4,11.7,3.6,17,1c2.8-1.4,5.2-3.4,6.9-6.2C2505.3,507.3,2503,496.5,2495,491.3"/>
		</g>
	</g>
	<g class="st0">
		<rect x="3410" y="-1480.7" class="st9" width="1488.2" height="1488.2"/>
		<rect x="3830.4" y="-792.1" class="st10" width="28.6" height="116.2"/>
		<g class="st2">
			<path class="st11" d="M3873.8-718.1c0-23.6,16.9-44.1,46.1-44.1s46.2,20.6,46.2,44.1c0,23.7-17.1,44.3-46.2,44.3
				S3873.8-694.4,3873.8-718.1 M3936.5-718.1c0-10.5-5.9-18.3-16.6-18.3c-10.5,0-16.4,7.9-16.4,18.3c0,10.6,5.9,18.7,16.4,18.7
				C3930.5-699.4,3936.5-707.5,3936.5-718.1"/>
			<path class="st11" d="M3976.6-718.1c0-26.7,20.1-44.1,45.9-44.1c17.8,0,28.8,7.9,33.8,14.7l-18,17.8c-3-3.8-7.9-6.6-14.5-6.6
				c-9.6,0-18,6.3-18,18.3s8.4,18.7,18,18.7c6.5,0,11.7-3.3,14.7-6.8c6.5,6.5,11.5,11.9,17.8,18c-5.1,6.6-16.2,14.5-33.8,14.5
				C3996.6-673.8,3976.6-691.2,3976.6-718.1"/>
			<path class="st11" d="M4065-718.1c0-23.6,15.4-44.1,39.1-44.1c5.1,0,16,1.9,23.4,13.3h0.2v-11h28.6v84.1h-28.6v-10.6h-0.2
				c-7.3,11.3-18.1,12.7-23.4,12.7C4081.1-673.8,4065-694.4,4065-718.1 M4127.7-718.1c0-10.5-5.9-18.3-16.6-18.3
				c-10.5,0-16.4,7.9-16.4,18.3c0,10.6,5.9,18.7,16.4,18.7C4121.7-699.4,4127.7-707.5,4127.7-718.1"/>
			<path class="st11" d="M4211.6-734.9v21.3c0,7.8,2.3,14.3,14.3,14.3v25.5c-28.8,0-42.9-19.2-42.9-42.9v-18.1h-14V-760h14v-23.9
				h28.6v23.9h16.9v25.1H4211.6z"/>
			<path class="st11" d="M4241.2-788.8c0-7.8,6.5-14,14.5-14c7.7,0,14.1,6.1,14.1,14c0,7.7-6.5,14-14.1,14
				C4247.7-774.8,4241.2-781.1,4241.2-788.8 M4241.2-760h28.6v84.1h-28.6V-760z"/>
			<path class="st11" d="M4284.7-718.1c0-23.6,16.9-44.1,46.1-44.1c29.1,0,46.2,20.6,46.2,44.1c0,23.7-17.1,44.3-46.2,44.3
				C4301.6-673.8,4284.7-694.4,4284.7-718.1 M4347.3-718.1c0-10.5-5.9-18.3-16.6-18.3c-10.5,0-16.4,7.9-16.4,18.3
				c0,10.6,5.9,18.7,16.4,18.7C4341.4-699.4,4347.3-707.5,4347.3-718.1"/>
			<path class="st11" d="M4449.2-675.9v-46.8c0-9.9-5.4-13.8-14-13.8c-7.9,0-14.8,5.6-14.8,18.1v42.4h-28.6V-760h28.6v11
				c5.6-7.2,16.1-13.3,30.5-13.3c18.3,0,26.9,11.5,26.9,26v60.4H4449.2z"/>
			<path class="st11" d="M3694.5-584.4c0-23.6,15.4-44.1,39.1-44.1c5.1,0,16.1,1.9,23.4,13.3h0.2v-43.1h28.6v116.2h-28.6v-10.6h-0.2
				c-7.3,11.3-18.1,12.7-23.4,12.7C3710.5-540,3694.5-560.6,3694.5-584.4 M3757.1-584.4c0-10.5-5.9-18.3-16.6-18.3
				c-10.5,0-16.4,7.9-16.4,18.3c0,10.6,5.9,18.7,16.4,18.7C3751.2-565.7,3757.1-573.7,3757.1-584.4"/>
			<path class="st11" d="M3800.6-584.4c0-24.4,18.3-44.1,44.8-44.1c23.7,0,42.2,17.8,42.2,47.6v5.2h-57.7c1.9,7,8.7,13.8,19.9,13.8
				c4.5,0,14.1-2.1,19.2-5.4l11.5,17.8c-8.2,6.5-22.3,9.4-34.2,9.4C3820.6-540,3800.6-556.6,3800.6-584.4 M3845.4-606.7
				c-10.6,0-14.7,8.4-15.7,13.4h31.2C3859.7-599.2,3856.6-606.7,3845.4-606.7"/>
			<path class="st11" d="M4001.2-542.1v-46.8c0-9.9-5.4-13.8-14-13.8c-7.9,0-14.8,5.6-14.8,18.1v42.4h-28.6v-84.1h28.6v11
				c5.6-7.2,16.1-13.3,30.5-13.3c13.4,0,21.6,6.3,24.9,15.4c5.8-7.5,15.2-15.4,32.4-15.4c18.3,0,26.9,11.5,26.9,26v60.4h-28.6v-46.8
				c0-9.9-5.4-13.8-14-13.8c-15.5,0-14.8,18.1-14.8,18.1v42.4H4001.2z"/>
			<path class="st11" d="M4102-584.4c0-23.6,15.4-44.1,39.1-44.1c5.1,0,16,1.9,23.4,13.3h0.2v-11h28.6v84.1h-28.6v-10.6h-0.2
				c-7.3,11.3-18.1,12.7-23.4,12.7C4118.1-540,4102-560.6,4102-584.4 M4164.6-584.4c0-10.5-5.9-18.3-16.6-18.3
				c-10.5,0-16.4,7.9-16.4,18.3c0,10.6,5.9,18.7,16.4,18.7C4158.7-565.7,4164.6-573.7,4164.6-584.4"/>
			<path class="st11" d="M4248.6-601.1v21.3c0,7.8,2.3,14.3,14.3,14.3v25.5c-28.8,0-42.9-19.2-42.9-42.9v-18.1h-14v-25.1h14v-23.9
				h28.6v23.9h16.9v25.1H4248.6z"/>
			<path class="st11" d="M4272.1-584.4c0-24.4,18.3-44.1,44.8-44.1c23.7,0,42.2,17.8,42.2,47.6v5.2h-57.7c1.9,7,8.7,13.8,19.9,13.8
				c4.5,0,14.1-2.1,19.2-5.4l11.5,17.8c-8.2,6.5-22.3,9.4-34.2,9.4C4292.2-540,4272.1-556.6,4272.1-584.4 M4316.9-606.7
				c-10.6,0-14.7,8.4-15.7,13.4h31.2C4331.3-599.2,4328.1-606.7,4316.9-606.7 M4317.3-661.5c2.1-1.9,4.4-3,7.2-3
				c2.3,0,4.9,1,6.8,2.8c1.9,2.1,2.8,4.5,2.8,7.2c0,2.6-0.9,5.1-2.8,6.8l-11.2,11.2c-1.6,1.7-4.4,3-6.8,3c-2.6,0-5.1-1-7-3
				c-2.1-1.9-3-4.4-3-7c0-2.3,0.9-4.9,3-6.8L4317.3-661.5z"/>
			<path class="st11" d="M4370-542.1v-84.1h28.6v11c5.8-7.2,16.9-13.6,25.8-13.6v27.6c-1.6-0.3-3.3-0.3-5.8-0.3
				c-8.2,0-20.1,2.3-20.1,17.1v42.4H4370z"/>
			<path class="st11" d="M4437.1-655c0-7.9,6.5-14,14.5-14c7.7,0,14.1,6.1,14.1,14c0,7.7-6.5,14-14.1,14
				C4443.6-641.1,4437.1-647.3,4437.1-655 M4437.1-626.2h28.6v84.1h-28.6V-626.2z"/>
			<path class="st11" d="M4480.6-584.4c0-24.4,18.3-44.1,44.8-44.1c23.7,0,42.2,17.8,42.2,47.6v5.2h-57.7c1.9,7,8.7,13.8,19.9,13.8
				c4.5,0,14.1-2.1,19.2-5.4l11.5,17.8c-8.2,6.5-22.3,9.4-34.2,9.4C4500.6-540,4480.6-556.6,4480.6-584.4 M4525.4-606.7
				c-10.6,0-14.7,8.4-15.7,13.4h31.2C4539.7-599.2,4536.6-606.7,4525.4-606.7"/>
			<rect x="4580.7" y="-658.3" class="st11" width="28.6" height="116.2"/>
			<path class="st11" d="M3870.2-393.8c0,7.5-5.1,12.6-13.7,12.6h-21.6v-46.5h19.3c8.3,0,13.3,4.9,13.3,11.9c0,5.5-3.6,9.4-7.6,10.5
				C3866.1-404.9,3870.2-399.3,3870.2-393.8 M3840.7-407.6h12.4c5.4,0,8.2-3.2,8.2-7.5c0-4.2-2.8-7.5-8.2-7.5h-12.4V-407.6z
				 M3855.3-386.4c5.4,0,8.7-3.1,8.7-8c0-4.3-3-8-8.7-8h-14.6v16H3855.3z"/>
			<path class="st11" d="M3877.4-398.1c0-9.8,7.1-17.7,17-17.7c10.4,0,16.5,8,16.5,18.1v1.3h-27.8c0.4,6.4,4.9,11.3,12.3,11.3
				c4,0,7.7-1.5,10.4-4.3l2.9,3.8c-3.5,3.3-8.1,5.2-13.7,5.2C3884.7-380.4,3877.4-387.6,3877.4-398.1 M3905.6-400.3
				c-0.1-5-3.5-10.8-11.3-10.8c-7.3,0-11,5.7-11.2,10.8H3905.6z"/>
			<path class="st11" d="M3916.6-385.7l2.7-3.8c2.3,2.6,6.6,4.8,11.4,4.8c5.2,0,8.2-2.4,8.2-5.8c0-8.2-21.3-3.1-21.3-15.6
				c0-5.3,4.5-9.7,12.8-9.7c5.9,0,10,2.2,12.7,4.9l-2.5,3.6c-2-2.4-5.7-4.3-10.2-4.3c-4.7,0-7.7,2.3-7.7,5.3
				c0,7.3,21.3,2.5,21.3,15.6c0,5.7-4.6,10.2-13.4,10.2C3924.8-380.4,3920.1-382.1,3916.6-385.7"/>
			<path class="st11" d="M3950.6-398.1c0-9.8,6.6-17.7,17-17.7c10.5,0,17,7.9,17,17.7c0,9.8-6.6,17.7-17,17.7
				C3957.1-380.4,3950.6-388.3,3950.6-398.1 M3979-398.1c0-6.8-4-13-11.4-13c-7.3,0-11.4,6.1-11.4,13c0,6.9,4,13,11.4,13
				C3974.9-385.1,3979-391.2,3979-398.1"/>
			<path class="st11" d="M3996.4-426.8c1.7,0,3.2,1.5,3.2,3.2c0,1.7-1.5,3.1-3.2,3.1c-1.7,0-3.1-1.4-3.1-3.1
				C3993.2-425.3,3994.6-426.8,3996.4-426.8 M3993.7-414.9h5.3v33.7h-5.3V-414.9z"/>
			<path class="st11" d="M4033.5-381.2v-22c0-6-3.1-7.8-7.8-7.8c-4.2,0-10.2,2.9-10.2,13v16.9h-5.3v-33.7h5.3v4.9
				c2.4-2.9,7.1-5.7,12.4-5.7c7.1,0,10.9,3.6,10.9,10.9v23.7H4033.5z"/>
			<path class="st11" d="M4098.9-427.8v46.5h-5.3v-5c-3.1,4.7-8,5.8-10.9,5.8c-10.5,0-17-8-17-17.7c0-9.8,6.6-17.7,17-17.7
				c2.7,0,7.7,1,10.9,5.9v-17.9H4098.9z M4094.1-398.1c0-6.8-4-13-11.4-13c-7.3,0-11.4,6.1-11.4,13c0,6.9,4,13,11.4,13
				C4090.1-385.1,4094.1-391.2,4094.1-398.1"/>
			<path class="st11" d="M4107.6-398.1c0-9.8,7.1-17.7,17-17.7c10.4,0,16.5,8,16.5,18.1v1.3h-27.8c0.4,6.4,4.9,11.3,12.3,11.3
				c4,0,7.7-1.5,10.4-4.3l2.9,3.8c-3.5,3.3-8.1,5.2-13.7,5.2C4114.9-380.4,4107.6-387.6,4107.6-398.1 M4135.8-400.3
				c-0.1-5-3.5-10.8-11.3-10.8c-7.3,0-11,5.7-11.2,10.8H4135.8z"/>
			<path class="st11" d="M4219.7-404.9v23.7h-5.2v-22c0-5.4-2.6-7.5-6.6-7.7c-7.3,0-11.4,4.7-11.4,9.8v20h-5.2v-22
				c0-6-3.1-7.8-7.7-7.8c-4.2,0-10.2,2.9-10.2,13v16.9h-5.3v-33.7h5.3v4.9c2.4-2.9,7.1-5.7,12.4-5.7c5.3,0,8.7,2,10.1,6.1
				c2.7-3.5,6.7-6.1,13-6.1C4216-415.8,4219.7-412.2,4219.7-404.9"/>
			<path class="st11" d="M4261.5-414.9v33.7h-5.3v-5c-3.1,4.7-8,5.8-10.9,5.8c-10.5,0-17-8-17-17.7c0-9.8,6.6-17.7,17-17.7
				c2.7,0,7.7,1,10.9,5.9v-5H4261.5z M4256.7-398.1c0-6.8-4-13-11.4-13c-7.3,0-11.4,6.1-11.4,13c0,6.9,4,13,11.4,13
				C4252.7-385.1,4256.7-391.2,4256.7-398.1"/>
			<path class="st11" d="M4279.5-394.2c0,1.5,0.2,9.1,8.9,9.1v4.7c-13.8,0-14.2-11.7-14.2-13.7v-16.2h-6v-4.6h6v-9.2h5.3v9.2h8.9
				v4.6h-8.9V-394.2z"/>
			<path class="st11" d="M4293.7-398.1c0-9.8,7.1-17.7,17-17.7c10.4,0,16.5,8,16.5,18.1v1.3h-27.8c0.4,6.3,4.9,11.3,12.3,11.3
				c4,0,7.7-1.5,10.4-4.3l2.9,3.8c-3.5,3.3-8.1,5.2-13.7,5.2C4301-380.4,4293.7-387.6,4293.7-398.1 M4321.9-400.3
				c-0.1-5-3.5-10.8-11.3-10.8c-7.3,0-11,5.7-11.2,10.8H4321.9z M4311.5-429.3c0.5-0.5,1-0.7,1.6-0.7c0.6,0,1.2,0.2,1.7,0.7
				c0.5,0.5,0.7,1,0.7,1.6c0,0.6-0.2,1.2-0.7,1.6l-5.6,5.6c-0.4,0.4-1,0.7-1.7,0.7c-0.6,0-1.1-0.2-1.6-0.7c-0.4-0.4-0.6-1-0.6-1.6
				c0-0.6,0.2-1.2,0.6-1.6L4311.5-429.3z"/>
			<path class="st11" d="M4353.4-410c-0.7-0.1-1.4-0.1-2.2-0.1c-4.2,0-10.2,2-10.2,12v16.9h-5.3v-33.7h5.3v4.9
				c2.4-2.9,7.1-5.7,12.4-5.7V-410z"/>
			<path class="st11" d="M4363.1-426.8c1.7,0,3.2,1.5,3.2,3.2c0,1.7-1.5,3.1-3.2,3.1c-1.7,0-3.1-1.4-3.1-3.1
				C4359.9-425.3,4361.3-426.8,4363.1-426.8 M4360.4-414.9h5.3v33.7h-5.3V-414.9z"/>
			<path class="st11" d="M4374.9-398.1c0-9.8,7.1-17.7,17-17.7c10.4,0,16.5,8,16.5,18.1v1.3h-27.8c0.4,6.4,4.9,11.3,12.3,11.3
				c4,0,7.7-1.5,10.4-4.3l2.9,3.8c-3.5,3.3-8.1,5.2-13.7,5.2C4382.2-380.4,4374.9-387.6,4374.9-398.1 M4403.1-400.3
				c-0.1-5-3.5-10.8-11.3-10.8c-7.3,0-11,5.7-11.2,10.8H4403.1z"/>
			<rect x="4417" y="-427.8" class="st11" width="5.3" height="46.5"/>
			<path class="st11" d="M4463.1-403.1v6.6c0,1.5-1.2,2.6-2.6,2.6c-1.5,0-2.6-1.1-2.6-2.6v-11.3c12.1,0,12.8-7.1,12.8-8.7v-0.3
				c0-3.5-2.7-6.5-8.3-6.5c-5.4,0-8.7,2.2-11.4,5.7l-3.6-3.8c3.4-4.4,8.7-7.1,15.4-7.1c7.8,0,14,4.2,14,11.9
				C4476.8-411.4,4474.2-405,4463.1-403.1 M4460.5-387.7c2,0,3.6,1.6,3.6,3.6c0,2-1.6,3.6-3.6,3.6s-3.6-1.5-3.6-3.6
				C4456.9-386.1,4458.4-387.7,4460.5-387.7"/>
			<polygon class="st11" points="3740.5,-311.4 3740.5,-358 3746.5,-358 3746.5,-316.6 3768.5,-316.6 3768.5,-311.4 			"/>
			<path class="st11" d="M3774.2-328.3c0-9.8,6.6-17.7,17-17.7c10.5,0,17,7.9,17,17.7c0,9.8-6.6,17.7-17,17.7
				C3780.7-310.6,3774.2-318.6,3774.2-328.3 M3802.6-328.3c0-6.8-4-13-11.4-13c-7.3,0-11.4,6.1-11.4,13c0,6.9,4,13,11.4,13
				C3798.5-315.3,3802.6-321.4,3802.6-328.3"/>
			<path class="st11" d="M3816.8-324.3v-0.3v-20.5h5.3v20.7c0,1.3,0.3,9.2,9,9.2c8.9,0,9.1-8,9.1-9.4v-20.5h5.3v20.5v0.3
				c0,2.1-0.5,13.7-14.4,13.7C3817.3-310.6,3816.8-322.3,3816.8-324.3"/>
			<path class="st11" d="M3854.1-328.3c0-9.8,7.1-17.7,17-17.7c10.4,0,16.5,8,16.5,18.1v1.3h-27.8c0.4,6.4,4.9,11.3,12.3,11.3
				c4,0,7.7-1.5,10.4-4.3l2.9,3.8c-3.5,3.4-8.1,5.2-13.7,5.2C3861.5-310.6,3854.1-317.8,3854.1-328.3 M3882.3-330.5
				c-0.1-5-3.5-10.8-11.3-10.8c-7.3,0-11,5.7-11.2,10.8H3882.3z"/>
			<polygon class="st11" points="3894.6,-311.4 3894.6,-315.6 3913.6,-340.5 3894.6,-340.5 3894.6,-345.1 3920.6,-345.1 
				3920.6,-341.2 3901.4,-316 3920.8,-316 3920.8,-311.4 			"/>
			<path class="st11" d="M3948.3-324.3v-0.3v-20.5h5.3v20.7c0,1.3,0.3,9.2,9,9.2c8.9,0,9.1-8,9.1-9.4v-20.5h5.3v20.5v0.3
				c0,2.1-0.5,13.7-14.4,13.7C3948.8-310.6,3948.3-322.3,3948.3-324.3"/>
			<path class="st11" d="M4010.9-311.4v-22c0-6-3.1-7.8-7.8-7.8c-4.2,0-10.2,2.9-10.2,13v16.9h-5.3v-33.7h5.3v4.9
				c2.4-2.9,7.1-5.7,12.4-5.7c7.1,0,10.9,3.6,10.9,10.9v23.7H4010.9z"/>
			<path class="st11" d="M4043.1-328.3c0-9.8,6.6-17.7,17-17.7c10.5,0,17,7.9,17,17.7c0,9.8-6.6,17.7-17,17.7
				C4049.7-310.6,4043.1-318.6,4043.1-328.3 M4071.5-328.3c0-6.8-4-13-11.4-13c-7.3,0-11.4,6.1-11.4,13c0,6.9,4,13,11.4,13
				C4067.5-315.3,4071.5-321.4,4071.5-328.3"/>
			<path class="st11" d="M4085.7-324.3v-0.3v-20.5h5.3v20.7c0,1.3,0.3,9.2,9,9.2c8.9,0,9.1-8,9.1-9.4v-20.5h5.3v20.5v0.3
				c0,2.1-0.5,13.7-14.4,13.7C4086.2-310.6,4085.7-322.3,4085.7-324.3"/>
			<path class="st11" d="M4132.4-324.4c0,1.5,0.2,9.1,8.9,9.1v4.7c-13.8,0-14.2-11.7-14.2-13.7v-16.2h-6v-4.6h6v-9.2h5.3v9.2h8.9
				v4.6h-8.9V-324.4z"/>
			<path class="st11" d="M4151.7-357c1.7,0,3.2,1.5,3.2,3.2c0,1.7-1.5,3.1-3.2,3.1c-1.7,0-3.1-1.4-3.1-3.1
				C4148.5-355.5,4149.9-357,4151.7-357 M4149-345.1h5.3v33.7h-5.3V-345.1z"/>
			<rect x="4165.5" y="-358" class="st11" width="5.3" height="46.5"/>
			<path class="st11" d="M4231-358v46.5h-5.3v-5c-3.1,4.7-8,5.8-10.9,5.8c-10.5,0-17-8-17-17.7c0-9.8,6.6-17.7,17-17.7
				c2.7,0,7.7,1,10.9,5.9V-358H4231z M4226.2-328.3c0-6.8-4-13-11.4-13c-7.3,0-11.4,6.1-11.4,13c0,6.9,4,13,11.4,13
				C4222.2-315.3,4226.2-321.4,4226.2-328.3"/>
			<path class="st11" d="M4239.7-328.3c0-9.8,7.1-17.7,17-17.7c10.4,0,16.5,8,16.5,18.1v1.3h-27.8c0.4,6.4,4.9,11.3,12.3,11.3
				c4,0,7.7-1.5,10.4-4.3l2.9,3.8c-3.5,3.4-8.1,5.2-13.7,5.2C4247-310.6,4239.7-317.8,4239.7-328.3 M4267.9-330.5
				c-0.1-5-3.5-10.8-11.3-10.8c-7.3,0-11,5.7-11.2,10.8H4267.9z"/>
			<path class="st11" d="M4305.5-345.1v5c3.2-4.8,8.2-5.9,10.9-5.9c10.5,0,17,7.9,17,17.7c0,9.8-6.6,17.7-17,17.7
				c-2.9,0-7.7-1.1-10.9-5.8v17.9h-5.3v-46.6H4305.5z M4327.7-328.3c0-6.8-4-13-11.4-13c-7.3,0-11.4,6.1-11.4,13c0,6.9,4,13,11.4,13
				C4323.7-315.3,4327.7-321.4,4327.7-328.3"/>
			<path class="st11" d="M4359.6-340.2c-0.7-0.1-1.4-0.1-2.2-0.1c-4.2,0-10.2,2-10.2,12v16.9h-5.3v-33.7h5.3v4.9
				c2.4-2.9,7.1-5.7,12.4-5.7V-340.2z"/>
			<path class="st11" d="M4364.1-328.3c0-9.8,6.6-17.7,17-17.7c10.5,0,17,7.9,17,17.7c0,9.8-6.6,17.7-17,17.7
				C4370.7-310.6,4364.1-318.6,4364.1-328.3 M4392.5-328.3c0-6.8-4-13-11.4-13c-7.3,0-11.4,6.1-11.4,13c0,6.9,4,13,11.4,13
				C4388.5-315.3,4392.5-321.4,4392.5-328.3"/>
			<path class="st11" d="M4416.3-302.4c8.5,0,8.9-7.5,8.9-9.1v-33.6h5.3v33.6c0,2.2-0.3,13.7-14.2,13.7V-302.4z M4427.8-357
				c1.7,0,3.2,1.5,3.2,3.2c0,1.7-1.5,3.1-3.2,3.1c-1.7,0-3.1-1.4-3.1-3.1C4424.7-355.5,4426.1-357,4427.8-357"/>
			<path class="st11" d="M4441.6-324.3v-0.3v-20.5h5.3v20.7c0,1.3,0.3,9.2,9,9.2c8.9,0,9.1-8,9.1-9.4v-20.5h5.3v20.5v0.3
				c0,2.1-0.5,13.7-14.4,13.7C4442.1-310.6,4441.6-322.3,4441.6-324.3"/>
			<path class="st11" d="M4478.1-315.9l2.7-3.8c2.3,2.6,6.6,4.8,11.4,4.8c5.2,0,8.2-2.4,8.2-5.8c0-8.2-21.3-3.1-21.3-15.6
				c0-5.3,4.5-9.7,12.8-9.7c5.9,0,10,2.2,12.7,4.9l-2.5,3.6c-2-2.4-5.7-4.3-10.2-4.3c-4.7,0-7.7,2.3-7.7,5.3
				c0,7.3,21.3,2.5,21.3,15.6c0,5.7-4.6,10.2-13.4,10.2C4486.2-310.6,4481.5-312.3,4478.1-315.9"/>
			<path class="st11" d="M4521.4-324.4c0,1.5,0.2,9.1,8.9,9.1v4.7c-13.8,0-14.2-11.7-14.2-13.7v-16.2h-6v-4.6h6v-9.2h5.3v9.2h8.9
				v4.6h-8.9V-324.4z"/>
			<path class="st11" d="M4535.6-328.3c0-9.8,7.1-17.7,17-17.7c10.4,0,16.5,8,16.5,18.1v1.3h-27.8c0.4,6.4,4.9,11.3,12.3,11.3
				c4,0,7.7-1.5,10.4-4.3l2.9,3.8c-3.5,3.4-8.1,5.2-13.7,5.2C4542.9-310.6,4535.6-317.8,4535.6-328.3 M4563.8-330.5
				c-0.1-5-3.5-10.8-11.3-10.8c-7.3,0-11,5.7-11.2,10.8H4563.8z"/>
			<rect x="3767.6" y="-288.1" class="st11" width="11.4" height="46.5"/>
			<path class="st11" d="M3785-258.5c0-9.8,7.3-17.7,17.9-17.7c9.5,0,16.9,7.1,16.9,19v2.1h-23.1c0.8,2.8,3.5,5.5,8,5.5
				c1.8,0,5.7-0.8,7.7-2.2l4.6,7.1c-3.3,2.6-8.9,3.8-13.7,3.8C3793-240.8,3785-247.4,3785-258.5 M3803-267.5c-4.3,0-5.9,3.4-6.3,5.4
				h12.5C3808.7-264.5,3807.4-267.5,3803-267.5"/>
			<path class="st11" d="M3856.8-265.2v8.5c0,3.1,0.9,5.7,5.7,5.7v10.2c-11.5,0-17.2-7.7-17.2-17.2v-7.3h-5.6v-10h5.6v-9.6h11.4v9.6
				h6.8v10H3856.8z"/>
			<path class="st11" d="M3866.9-258.5c0-9.8,7.3-17.7,17.9-17.7c9.5,0,16.9,7.1,16.9,19v2.1h-23.1c0.8,2.8,3.5,5.5,8,5.5
				c1.8,0,5.7-0.8,7.7-2.2l4.6,7.1c-3.3,2.6-8.9,3.8-13.7,3.8C3874.9-240.8,3866.9-247.4,3866.9-258.5 M3884.8-267.5
				c-4.3,0-5.9,3.4-6.3,5.4h12.5C3890.5-264.5,3889.3-267.5,3884.8-267.5"/>
			<path class="st11" d="M3929.9-241.7v-18.7c0-4-2.2-5.5-5.6-5.5c-3.1,0-5.9,2.2-5.9,7.3v17h-11.4v-33.6h11.4v4.4
				c2.2-2.9,6.4-5.3,12.2-5.3c5.4,0,8.7,2.5,10,6.1c2.3-3,6.1-6.1,13-6.1c7.3,0,10.7,4.6,10.7,10.4v24.1h-11.4v-18.7
				c0-4-2.2-5.5-5.6-5.5c-6.2,0-5.9,7.3-5.9,7.3v17H3929.9z"/>
			<path class="st11" d="M3983.5-245.9L3983.5-245.9l-0.1,17.1H3972v-46.5h11.4v4.4h0.1c2.9-4.5,7.3-5.3,9.4-5.3
				c9.5,0,15.6,8.2,15.6,17.7c0,9.5-6.4,17.7-15.6,17.7C3990.7-240.8,3986.4-241.4,3983.5-245.9 M3996.6-258.5
				c0-4.2-2.4-7.3-6.6-7.3c-4.3,0-6.6,3.1-6.6,7.3c0,4.3,2.4,7.5,6.6,7.5C3994.2-251.1,3996.6-254.3,3996.6-258.5"/>
			<path class="st11" d="M4012.6-245.7c1.5-2.7,3-5,4.5-7.7c2.9,2.1,8.3,4,11.9,4c3.1,0,4-0.8,4-2c0-1.7-2.2-2-5.2-2.4
				c-5.4-0.8-14-2.7-14-11.3c0-5.9,5.2-11.2,14.5-11.2c5.2,0,10.1,1.6,13.8,4.1c-1.4,2.7-2.7,4.7-4,7.3c-2.2-1.6-6-3.2-9.7-3.2
				c-2.2,0-3.7,0.8-3.7,2.1c0,1.3,2.1,1.7,4.9,2.1c5.4,0.8,14.2,2.9,14.2,11.7c0,6.6-5.8,11.4-15.4,11.4
				C4022.4-240.8,4016.2-242.7,4012.6-245.7"/>
			<path class="st11" d="M4065.3-258.5c0-9.4,6.1-17.7,15.6-17.7c2,0,6.4,0.8,9.4,5.3h0.1v-17.2h11.4v46.5h-11.4v-4.3h-0.1
				c-2.9,4.5-7.3,5.1-9.4,5.1C4071.7-240.8,4065.3-249.1,4065.3-258.5 M4090.3-258.5c0-4.2-2.4-7.3-6.6-7.3c-4.2,0-6.6,3.1-6.6,7.3
				c0,4.3,2.4,7.5,6.6,7.5C4087.9-251.1,4090.3-254.3,4090.3-258.5"/>
			<path class="st11" d="M4107.7-258.5c0-9.8,7.3-17.7,17.9-17.7c9.5,0,16.9,7.1,16.9,19v2.1h-23.1c0.8,2.8,3.5,5.5,8,5.5
				c1.8,0,5.7-0.8,7.7-2.2l4.6,7.1c-3.3,2.6-8.9,3.8-13.7,3.8C4115.7-240.8,4107.7-247.4,4107.7-258.5 M4125.6-267.5
				c-4.3,0-5.9,3.4-6.3,5.4h12.5C4131.3-264.5,4130.1-267.5,4125.6-267.5"/>
			<polygon class="st11" points="4173.6,-241.7 4161.1,-275.3 4173.1,-275.3 4179.9,-254.1 4186.9,-275.3 4199,-275.3 
				4186.3,-241.7 			"/>
			<path class="st11" d="M4200.4-258.5c0-9.4,6.8-17.7,18.4-17.7c11.7,0,18.5,8.2,18.5,17.7c0,9.5-6.8,17.7-18.5,17.7
				C4207.1-240.8,4200.4-249.1,4200.4-258.5 M4225.4-258.5c0-4.2-2.4-7.3-6.6-7.3c-4.2,0-6.6,3.1-6.6,7.3c0,4.3,2.4,7.5,6.6,7.5
				C4223-251.1,4225.4-254.3,4225.4-258.5"/>
			<path class="st11" d="M4241.5-245.7c1.5-2.7,3-5,4.5-7.7c2.9,2.1,8.3,4,11.9,4c3.1,0,4-0.8,4-2c0-1.7-2.2-2-5.2-2.4
				c-5.4-0.8-14-2.7-14-11.3c0-5.9,5.2-11.2,14.5-11.2c5.2,0,10.1,1.6,13.8,4.1c-1.4,2.7-2.7,4.7-4,7.3c-2.2-1.6-6-3.2-9.7-3.2
				c-2.2,0-3.7,0.8-3.7,2.1c0,1.3,2.1,1.7,4.9,2.1c5.4,0.8,14.2,2.9,14.2,11.7c0,6.6-5.8,11.4-15.4,11.4
				C4251.2-240.8,4245-242.7,4241.5-245.7"/>
			<path class="st11" d="M4310.3-265.2v8.5c0,3.1,0.9,5.7,5.7,5.7v10.2c-11.5,0-17.2-7.7-17.2-17.2v-7.3h-5.6v-10h5.6v-9.6h11.4v9.6
				h6.8v10H4310.3z"/>
			<path class="st11" d="M4322.1-241.7v-33.6h11.4v4.4c2.3-2.9,6.8-5.4,10.3-5.4v11c-0.6-0.1-1.3-0.1-2.3-0.1c-3.3,0-8,0.9-8,6.8v17
				H4322.1z"/>
			<path class="st11" d="M4347.3-258.5c0-9.4,6.1-17.7,15.6-17.7c2,0,6.4,0.8,9.4,5.3h0.1v-4.4h11.4v33.6h-11.4v-4.3h-0.1
				c-2.9,4.5-7.3,5.1-9.4,5.1C4353.7-240.8,4347.3-249.1,4347.3-258.5 M4372.3-258.5c0-4.2-2.4-7.3-6.6-7.3c-4.2,0-6.6,3.1-6.6,7.3
				c0,4.3,2.4,7.5,6.6,7.5C4369.9-251.1,4372.3-254.3,4372.3-258.5"/>
			<polygon class="st11" points="4400.1,-241.7 4387.6,-275.3 4399.5,-275.3 4406.4,-254.1 4413.3,-275.3 4425.4,-275.3 
				4412.7,-241.7 			"/>
			<path class="st11" d="M4426.8-258.5c0-9.4,6.1-17.7,15.6-17.7c2,0,6.4,0.8,9.4,5.3h0.1v-4.4h11.4v33.6h-11.4v-4.3h-0.1
				c-2.9,4.5-7.3,5.1-9.4,5.1C4433.2-240.8,4426.8-249.1,4426.8-258.5 M4451.9-258.5c0-4.2-2.4-7.3-6.6-7.3c-4.2,0-6.6,3.1-6.6,7.3
				c0,4.3,2.4,7.5,6.6,7.5C4449.5-251.1,4451.9-254.3,4451.9-258.5"/>
			<path class="st11" d="M4505.3-275.3v17.2c0,10.1-6.6,17.2-17.2,17.2c-11.5,0-17.2-7.7-17.2-17.2v-17.2h11.4v18.5
				c0,3.1,0.9,5.7,5.7,5.7c4.7,0,5.7-2.6,5.7-5.7v-18.5H4505.3z"/>
			<path class="st11" d="M4532.7-241.7l-5.6-9.8l-5.7,9.8h-12.3l10.6-17.3l-10-16.3h12.5l4.8,8.8c1.4-2.7,3.4-6.1,4.8-8.8h12.4
				l-10,16.3l10.8,17.3H4532.7z"/>
			<path class="st4" d="M4683.9-1132.3c0,81.9-66.4,148.4-148.4,148.4s-148.4-66.4-148.4-148.4s66.4-148.4,148.4-148.4
				S4683.9-1214.2,4683.9-1132.3"/>
			<path class="st11" d="M4305.8-978.4c-5.7-19.2-18.6-35-36.2-44.5c-9.1-4.9-19.1-7.8-29.3-8.6v-10.5h7c3.5,0,6.3-2.8,6.3-6.3
				s-2.8-6.3-6.3-6.3h-26.7c-3.5,0-6.3,2.8-6.3,6.3s2.8,6.3,6.3,6.3h7v10.4c-4.4,0.4-8.8,1.1-13.1,2.3c-3.4,0.9-5.4,4.4-4.5,7.7
				c0.9,3.4,4.4,5.4,7.7,4.5c5.2-1.4,10.6-2.1,15.9-2.1c10.2,0.2,20.7,2.6,29.8,7.5c14.6,7.9,25.3,21.1,30.1,37
				c4.8,16,3,32.8-4.9,47.5c-7.9,14.6-21.1,25.3-37,30.1c-16,4.7-32.8,3-47.5-4.9c-30.2-16.3-41.5-54.2-25.2-84.5
				c0.4-0.8,1-1.6,1.5-2.4l2.4,12.5c0.6,3,3.2,5.1,6.2,5.1c0.4,0,0.8,0,1.2-0.1c3.4-0.7,5.7-3.9,5-7.4l-5-26.6
				c0-0.2-0.2-0.4-0.2-0.6c-0.1-0.4-0.3-0.8-0.5-1.2c-0.2-0.4-0.4-0.7-0.7-1c-0.2-0.2-0.2-0.4-0.4-0.6c-0.1-0.1-0.3-0.2-0.4-0.3
				c-0.3-0.3-0.7-0.5-1.1-0.7c-0.3-0.2-0.7-0.3-1-0.5c-0.4-0.1-0.8-0.2-1.2-0.2c-0.4,0-0.8-0.1-1.2,0c-0.2,0-0.4,0-0.5,0l-26.6,5
				c-3.4,0.7-5.7,3.9-5,7.4c0.6,3.4,4,5.7,7.4,5l10.8-2.1c-0.5,0.8-1.1,1.6-1.5,2.4c-19.6,36.4-6.1,81.9,30.3,101.6
				c11.1,6,23.3,9.1,35.5,9.1c7.2,0,14.4-1,21.5-3.2c19.2-5.7,35-18.6,44.5-36.2C4309.4-939,4311.5-959.2,4305.8-978.4"/>
			<path class="st11" d="M4275.1-934.7c12.3-22.8,3.8-51.2-18.9-63.5c-7.1-3.8-14.7-5.7-22.3-5.6v46.9l-33.1,33.2
				c3.1,3.1,6.8,5.9,10.8,8.1C4234.4-903.5,4262.8-911.9,4275.1-934.7"/>
			<path class="st11" d="M4227.7-1146.2h17.7l11-3.5c0.5-0.2,1.1-0.2,1.7-0.1l16.5,2.4c1.8,0.3,3.2,1.8,3.2,3.7v10.7
				c0,1.9-1.4,3.4-3.2,3.7l-16.5,2.4c-0.2,0-0.4,0-0.5,0c-0.4,0-0.7-0.1-1.1-0.2l-11-3.3h-17.7V-1146.2z"/>
			<path class="st11" d="M4178.4-1113.6v-49.2h24.5c6.5,0,12.7,2.6,17.3,7.2v34.8c-4.6,4.6-10.8,7.2-17.3,7.2H4178.4z"/>
			<path class="st11" d="M4015-998.7c-1.3,0-2.6,0.1-3.8,0.3l26.7-96.5c1.6,0.2,3.2,0.3,4.9,0.3h41c0,2.4-0.3,5.1-1.1,7.7
				c-1.2,3.8-3.8,6.1-6.5,8.5c-2.9,2.6-5.9,5.3-7,9.6c-0.9,3.3,0.7,6.5,2,9.3c1.1,2.3,2.2,4.6,1.7,6.1c-0.7,1.9-2.3,2.9-4.7,4.4
				c-2.5,1.5-5.7,3.5-7,7.3c-1.2,3.7,0,7.4,1.2,11c1.1,3.2,2.1,6.2,1.2,8.5c-0.9,2.4-3.3,3.7-6.1,5.2c-3.1,1.7-6.7,3.6-8,7.8
				c-1,3-0.1,7,1.1,10.3H4015z"/>
			<path class="st11" d="M4170.9-1101.9v-73.6h-128.2c-20.2,0-36.6,16.4-36.6,36.6v0.4c0,20.2,16.4,36.6,36.6,36.6H4170.9z"/>
			<path class="st11" d="M4074.2-914.6H4015c-8.6,0-15.7-7-15.7-15.7v-45.3c0-8.6,7-15.7,15.7-15.7h59.3c8.6,0,15.7,7,15.7,15.7
				v45.3C4089.9-921.6,4082.9-914.6,4074.2-914.6"/>
			<path class="st3" d="M4450.4-1069.5c1.8-0.3,4.2-0.6,7.3-0.6c3.8,0,6.5,0.9,8.2,2.4c1.6,1.4,2.6,3.5,2.6,6.1
				c0,2.7-0.8,4.8-2.3,6.3c-2,2.1-5.3,3.2-9,3.2c-1.1,0-2.2,0-3.1-0.3v11.8h-3.8V-1069.5z M4454.2-1055.3c0.8,0.2,1.9,0.3,3.1,0.3
				c4.6,0,7.4-2.2,7.4-6.3c0-3.9-2.7-5.8-6.9-5.8c-1.7,0-2.9,0.1-3.6,0.3V-1055.3z"/>
			<path class="st3" d="M4474.7-1049.7l-3.1,9.2h-3.9l10-29.4h4.6l10,29.4h-4.1l-3.1-9.2H4474.7z M4484.3-1052.7l-2.9-8.5
				c-0.7-1.9-1.1-3.7-1.5-5.4h-0.1c-0.4,1.7-0.9,3.5-1.5,5.3l-2.9,8.5H4484.3z"/>
			<path class="st3" d="M4496.6-1069.5c1.9-0.4,4.7-0.6,7.3-0.6c4.1,0,6.7,0.7,8.5,2.4c1.5,1.3,2.3,3.3,2.3,5.6
				c0,3.9-2.4,6.5-5.5,7.5v0.1c2.3,0.8,3.6,2.9,4.3,5.9c1,4.1,1.7,6.9,2.3,8.1h-3.9c-0.5-0.8-1.1-3.4-2-7c-0.9-4.1-2.4-5.6-5.9-5.7
				h-3.6v12.7h-3.8V-1069.5z M4500.4-1056.1h3.9c4.1,0,6.6-2.2,6.6-5.6c0-3.8-2.7-5.5-6.8-5.5c-1.8,0-3.1,0.2-3.8,0.3V-1056.1z"/>
			<path class="st3" d="M4535.4-1069.9h3.8v19.7c0,7.8-3.8,10.2-8.9,10.2c-1.4,0-3.1-0.3-4.1-0.7l0.6-3.1c0.8,0.3,1.9,0.6,3.2,0.6
				c3.4,0,5.4-1.5,5.4-7.3V-1069.9z"/>
			<path class="st3" d="M4570.6-1055.5c0,10.1-6.1,15.5-13.7,15.5c-7.8,0-13.2-6-13.2-14.9c0-9.3,5.8-15.4,13.7-15.4
				C4565.4-1070.4,4570.6-1064.2,4570.6-1055.5 M4547.8-1055c0,6.3,3.4,11.9,9.4,11.9c6,0,9.4-5.5,9.4-12.2c0-5.8-3.1-11.9-9.4-11.9
				C4550.9-1067.3,4547.8-1061.5,4547.8-1055"/>
			<path class="st3" d="M4579.3-1069.9v17.4c0,6.6,2.9,9.4,6.8,9.4c4.4,0,7.2-2.9,7.2-9.4v-17.4h3.8v17.1c0,9-4.8,12.7-11.1,12.7
				c-6,0-10.6-3.4-10.6-12.6v-17.3H4579.3z"/>
			<path class="st3" d="M4603.8-1069.5c1.9-0.4,4.7-0.6,7.3-0.6c4.1,0,6.7,0.7,8.5,2.4c1.5,1.3,2.3,3.3,2.3,5.6
				c0,3.9-2.4,6.5-5.5,7.5v0.1c2.3,0.8,3.6,2.9,4.3,5.9c1,4.1,1.7,6.9,2.3,8.1h-3.9c-0.5-0.8-1.1-3.4-2-7c-0.9-4.1-2.4-5.6-5.9-5.7
				h-3.6v12.7h-3.8V-1069.5z M4607.6-1056.1h3.9c4.1,0,6.6-2.2,6.6-5.6c0-3.8-2.7-5.5-6.8-5.5c-1.8,0-3.1,0.2-3.8,0.3V-1056.1z"/>
			<polygon class="st3" points="4472.6,-1080.5 4472.6,-1156.5 4454.8,-1138.8 4442,-1152.1 4475.6,-1185.2 4495.4,-1185.2 
				4495.4,-1080.5 			"/>
			<path class="st3" d="M4506.7-1132.8c0-27,13.7-54,44.3-54c30.6,0,44.3,27,44.3,54s-13.7,54.2-44.3,54.2
				C4520.3-1078.6,4506.7-1105.8,4506.7-1132.8 M4572-1132.8c0-19.3-5.7-34.2-21-34.2c-15.2,0-21,14.9-21,34.2
				c0,19.3,5.8,34.4,21,34.4C4566.2-1098.4,4572-1113.5,4572-1132.8"/>
			<path class="st3" d="M4597.1-1173.7h2.3c3.6-11.2,14.2-18.4,27.2-18.4c11.7,0,18.5,6.2,22.3,12.8l-9.8,4.7
				c-2.2-4.2-7.1-7.6-12.5-7.6c-6.6,0-11.9,3.3-14.8,8.5h17.6c1.7,0,3.1,1.4,3.1,3.1c0,1.7-1.4,3.1-3.1,3.1h-19.5
				c-0.2,0.9-0.2,1.6-0.2,2.5c0,0.8,0,1.6,0.1,2.3h19.5c1.7,0,3.1,1.4,3.1,3.1c0,1.7-1.4,3.1-3.1,3.1h-17.7
				c2.7,5.3,8.1,8.7,14.8,8.7c5.4,0,10.3-3.4,12.5-7.6l9.8,4.6c-3.8,6.5-10.6,12.9-22.3,12.9c-13.1,0-23.8-7.2-27.3-18.6h-2.2
				c-1.7,0-3.1-1.3-3.1-3.1c0-1.7,1.3-3.1,3.1-3.1h1.1c-0.1-0.7-0.1-1.5-0.1-2.3c0-0.9,0-1.6,0.1-2.5h-1.1c-1.7,0-3.1-1.3-3.1-3.1
				C4594-1172.3,4595.3-1173.7,4597.1-1173.7"/>
			<path class="st3" d="M4449.7-1206.1l-2.4,7.4h-3.1l8-23.5h3.7l8,23.5h-3.2l-2.5-7.4H4449.7z M4452.6-1227.5l3.2,4h-2.5l-4.5-4
				H4452.6z M4457.4-1208.4l-2.3-6.8c-0.5-1.5-0.9-2.9-1.2-4.3h-0.1c-0.3,1.4-0.7,2.8-1.2,4.3l-2.3,6.8H4457.4z"/>
			<path class="st3" d="M4474.7-1221.9c1.5-0.2,3.4-0.5,5.8-0.5c3,0,5.2,0.7,6.6,2c1.3,1.1,2.1,2.8,2.1,4.9c0,2.1-0.6,3.8-1.8,5
				c-1.6,1.7-4.2,2.6-7.2,2.6c-0.9,0-1.7,0-2.4-0.2v9.4h-3V-1221.9z M4477.7-1210.6c0.7,0.2,1.5,0.2,2.5,0.2c3.7,0,5.9-1.8,5.9-5
				c0-3.1-2.2-4.6-5.5-4.6c-1.3,0-2.3,0.1-2.9,0.2V-1210.6z"/>
			<path class="st3" d="M4494.1-1206.1l-2.4,7.4h-3.1l8-23.5h3.7l8,23.5h-3.2l-2.5-7.4H4494.1z M4501.8-1208.4l-2.3-6.8
				c-0.5-1.5-0.9-2.9-1.2-4.3h-0.1c-0.3,1.4-0.7,2.8-1.2,4.3l-2.3,6.8H4501.8z"/>
			<path class="st3" d="M4511.7-1221.9c1.5-0.3,3.7-0.5,5.8-0.5c3.2,0,5.3,0.6,6.8,1.9c1.2,1,1.8,2.7,1.8,4.5c0,3.1-2,5.2-4.4,6v0.1
				c1.8,0.6,2.9,2.3,3.5,4.7c0.8,3.3,1.3,5.5,1.8,6.5h-3.1c-0.4-0.7-0.9-2.7-1.6-5.6c-0.7-3.2-2-4.5-4.7-4.6h-2.9v10.2h-3V-1221.9z
				 M4514.7-1211.2h3.1c3.2,0,5.3-1.8,5.3-4.5c0-3-2.2-4.4-5.4-4.4c-1.5,0-2.5,0.1-3,0.3V-1211.2z"/>
			<polygon class="st3" points="4535.2,-1219.6 4528.1,-1219.6 4528.1,-1222.2 4545.5,-1222.2 4545.5,-1219.6 4538.3,-1219.6 
				4538.3,-1198.7 4535.2,-1198.7 			"/>
			<rect x="4548.1" y="-1222.2" class="st3" width="3" height="23.5"/>
			<path class="st3" d="M4556.4-1221.9c1.5-0.3,3.7-0.5,5.8-0.5c3.2,0,5.3,0.6,6.8,1.9c1.2,1,1.8,2.7,1.8,4.5c0,3.1-2,5.2-4.4,6v0.1
				c1.8,0.6,2.9,2.3,3.5,4.7c0.8,3.3,1.3,5.5,1.8,6.5h-3.1c-0.4-0.7-0.9-2.7-1.6-5.6c-0.7-3.2-2-4.5-4.7-4.6h-2.9v10.2h-3V-1221.9z
				 M4559.5-1211.2h3.1c3.2,0,5.3-1.8,5.3-4.5c0-3-2.2-4.4-5.4-4.4c-1.5,0-2.5,0.1-3,0.3V-1211.2z"/>
			<path class="st3" d="M4582.6-1221.9c1.8-0.3,4-0.5,6.5-0.5c4.4,0,7.5,1,9.5,2.9c2.1,1.9,3.3,4.6,3.3,8.4c0,3.8-1.2,7-3.4,9.1
				c-2.2,2.2-5.8,3.4-10.4,3.4c-2.2,0-4-0.1-5.5-0.3V-1221.9z M4585.6-1201.1c0.8,0.1,1.9,0.2,3.1,0.2c6.5,0,10-3.6,10-10
				c0-5.5-3.1-9.1-9.5-9.1c-1.6,0-2.8,0.1-3.6,0.3V-1201.1z"/>
			<polygon class="st3" points="4618,-1209.7 4608.9,-1209.7 4608.9,-1201.2 4619.1,-1201.2 4619.1,-1198.7 4605.8,-1198.7 
				4605.8,-1222.2 4618.5,-1222.2 4618.5,-1219.6 4608.9,-1219.6 4608.9,-1212.2 4618,-1212.2 			"/>
		</g>
	</g>
	<g class="st0">
		<rect x="3395" y="120.1" class="st9" width="1488.2" height="1488.2"/>
		<g class="st2">
			<text transform="matrix(1 0 0 1 3747.2297 924.9572)"><tspan x="0" y="0" class="st11 st5 st6">avantage</tspan><tspan x="180.3" y="133.8" class="st11 st5 st6">carte</tspan></text>
		</g>
		<text transform="matrix(1.0071 0 0 1 3867.0032 1220.0393)" class="st10 st7 st8">Carte castorama</text>
		<text transform="matrix(1 0 0 1 3825.8928 1289.8215)" class="st10 st5 st8">Bien accompagné, </text>
		<text transform="matrix(1 0 0 1 3797.9441 1359.6047)" class="st10 st5 st8">en avant les projets !</text>
		<g class="st2">
			<g>
				<path class="st11" d="M4345.6,538c-0.1-29.6-24.1-53.5-53.8-53.4l-8.1,0l30,83.1c5.6,15.6,4.9,32.4-2.2,47.4
					c-7,15-19.5,26.4-35.1,32l-196.5,71.1l212.5-0.6c29.6-0.1,53.5-24.2,53.4-53.8L4345.6,538z"/>
			</g>
			<path class="st11" d="M4297.9,573.4l-34.9-96.6l-273.3,98.8c-1.9,0.7-3.8,1-5.7,1c-6.9,0-13.4-4.3-15.9-11.2
				c-3.2-8.8,1.4-18.5,10.1-21.6l272-98.3c-8.3-12.3-22.2-20.2-37.4-20.2c-5.2,0-10.4,0.9-15.4,2.7l-235.3,85.1
				c-23.4,8.5-35.6,34.4-27.1,57.8l42.8,118.3c8.2,22.7,34.8,35.4,57.8,27.1l235.3-85.1c11.3-4.1,20.4-12.4,25.5-23.3
				C4301.5,597,4302,584.7,4297.9,573.4z"/>
		</g>
	</g>
</g>
<g id="Calque_2">
	<line class="st12" x1="1488" y1="1488.3" x2="1488" y2="0.1"/>
</g>
</svg>
