<?xml version="1.0" encoding="utf-8"?>
<!-- Generator: Adobe Illustrator 26.4.0, SVG Export Plug-In . SVG Version: 6.00 Build 0)  -->
<svg version="1.1" id="Calque_1" xmlns="http://www.w3.org/2000/svg" xmlns:xlink="http://www.w3.org/1999/xlink" x="0px" y="0px"
	 viewBox="0 0 2976.2 1488.5" style="enable-background:new 0 0 2976.2 1488.5;" xml:space="preserve">
<style type="text/css">
	.st0{fill:#005CB9;}
	.st1{fill:#FFFFFF;}
	.st2{fill:#FFD100;}
	.st3{font-family:'CastoBlack-Black';}
	.st4{font-size:174.4565px;}
	.st5{font-family:'CastoRegular';}
	.st6{font-size:69.7826px;}
	.st7{fill:#005CB9;stroke:#FFFFFF;stroke-width:5;stroke-miterlimit:10;}
</style>
<g>
	<rect y="0.1" class="st0" width="1488.2" height="1488.2"/>
	<rect x="420.4" y="688.8" class="st1" width="28.6" height="116.2"/>
	<g>
		<path class="st1" d="M463.8,762.7c0-23.6,16.9-44.1,46.1-44.1c29.1,0,46.2,20.6,46.2,44.1c0,23.7-17.1,44.3-46.2,44.3
			C480.8,807.1,463.8,786.5,463.8,762.7 M526.5,762.7c0-10.5-5.9-18.3-16.6-18.3c-10.5,0-16.4,7.9-16.4,18.3
			c0,10.6,5.9,18.7,16.4,18.7C520.5,781.4,526.5,773.4,526.5,762.7"/>
		<path class="st1" d="M566.6,762.7c0-26.7,20.1-44.1,45.9-44.1c17.8,0,28.8,7.9,33.8,14.7l-18,17.8c-3-3.8-7.9-6.6-14.5-6.6
			c-9.6,0-18,6.3-18,18.3s8.4,18.7,18,18.7c6.5,0,11.7-3.3,14.7-6.8c6.5,6.5,11.5,11.9,17.8,18c-5.1,6.6-16.2,14.5-33.8,14.5
			C586.6,807.1,566.6,789.6,566.6,762.7"/>
		<path class="st1" d="M655,762.7c0-23.6,15.4-44.1,39.1-44.1c5.1,0,16.1,1.9,23.4,13.3h0.2v-11h28.6V805h-28.6v-10.6h-0.2
			c-7.3,11.3-18.1,12.7-23.4,12.7C671.1,807.1,655,786.5,655,762.7 M717.7,762.7c0-10.5-5.9-18.3-16.6-18.3
			c-10.5,0-16.4,7.9-16.4,18.3c0,10.6,5.9,18.7,16.4,18.7C711.7,781.4,717.7,773.4,717.7,762.7"/>
		<path class="st1" d="M801.6,746v21.3c0,7.8,2.3,14.3,14.3,14.3v25.5c-28.8,0-42.9-19.2-42.9-42.9V746h-14v-25.1h14V697h28.6v23.9
			h16.9V746H801.6z"/>
		<path class="st1" d="M831.2,692.1c0-7.8,6.5-14,14.5-14c7.7,0,14.1,6.1,14.1,14c0,7.7-6.5,14-14.1,14
			C837.7,706,831.2,699.8,831.2,692.1 M831.2,720.9h28.6V805h-28.6V720.9z"/>
		<path class="st1" d="M874.7,762.7c0-23.6,16.9-44.1,46.1-44.1s46.2,20.6,46.2,44.1c0,23.7-17.1,44.3-46.2,44.3
			S874.7,786.5,874.7,762.7 M937.3,762.7c0-10.5-5.9-18.3-16.6-18.3c-10.5,0-16.4,7.9-16.4,18.3c0,10.6,5.9,18.7,16.4,18.7
			C931.4,781.4,937.3,773.4,937.3,762.7"/>
		<path class="st1" d="M1039.2,805v-46.8c0-9.9-5.4-13.8-14-13.8c-7.9,0-14.8,5.6-14.8,18.1V805h-28.6v-84.1h28.6v11
			c5.6-7.2,16.1-13.3,30.5-13.3c18.3,0,26.9,11.5,26.9,26V805H1039.2z"/>
		<path class="st1" d="M284.5,896.5c0-23.6,15.4-44.1,39.1-44.1c5.1,0,16,1.9,23.4,13.3h0.2v-43.1h28.6v116.2h-28.6v-10.6H347
			c-7.3,11.3-18.1,12.7-23.4,12.7C300.5,940.8,284.5,920.2,284.5,896.5 M347.1,896.5c0-10.5-5.9-18.3-16.6-18.3
			c-10.5,0-16.4,7.9-16.4,18.3c0,10.6,5.9,18.7,16.4,18.7C341.2,915.2,347.1,907.1,347.1,896.5"/>
		<path class="st1" d="M390.6,896.5c0-24.4,18.3-44.1,44.8-44.1c23.7,0,42.2,17.8,42.2,47.6v5.2h-57.7c1.9,7,8.7,13.8,19.9,13.8
			c4.5,0,14.1-2.1,19.2-5.4l11.5,17.8c-8.2,6.5-22.3,9.4-34.2,9.4C410.6,940.8,390.6,924.2,390.6,896.5 M435.4,874.2
			c-10.6,0-14.7,8.4-15.7,13.4h31.2C449.7,881.7,446.6,874.2,435.4,874.2"/>
		<path class="st1" d="M591.2,938.7V892c0-9.9-5.4-13.8-14-13.8c-7.9,0-14.8,5.6-14.8,18.1v42.4h-28.6v-84.1h28.6v11
			c5.6-7.2,16-13.3,30.5-13.3c13.4,0,21.6,6.3,24.9,15.4c5.8-7.5,15.2-15.4,32.4-15.4c18.3,0,26.9,11.5,26.9,26v60.4h-28.6V892
			c0-9.9-5.4-13.8-14-13.8c-15.5,0-14.8,18.1-14.8,18.1v42.4H591.2z"/>
		<path class="st1" d="M692,896.5c0-23.6,15.4-44.1,39.1-44.1c5.1,0,16.1,1.9,23.4,13.3h0.2v-11h28.6v84.1h-28.6v-10.6h-0.2
			c-7.3,11.3-18.1,12.7-23.4,12.7C708.1,940.8,692,920.2,692,896.5 M754.6,896.5c0-10.5-5.9-18.3-16.6-18.3
			c-10.5,0-16.4,7.9-16.4,18.3c0,10.6,5.9,18.7,16.4,18.7C748.7,915.2,754.6,907.1,754.6,896.5"/>
		<path class="st1" d="M838.6,879.7V901c0,7.8,2.3,14.3,14.3,14.3v25.5c-28.8,0-42.9-19.2-42.9-42.9v-18.1h-14v-25.1h14v-23.9h28.6
			v23.9h16.9v25.1H838.6z"/>
		<path class="st1" d="M862.1,896.5c0-24.4,18.3-44.1,44.8-44.1c23.7,0,42.2,17.8,42.2,47.6v5.2h-57.7c1.9,7,8.7,13.8,19.9,13.8
			c4.5,0,14.1-2.1,19.2-5.4l11.5,17.8c-8.2,6.5-22.3,9.4-34.2,9.4C882.2,940.8,862.1,924.2,862.1,896.5 M906.9,874.2
			c-10.6,0-14.7,8.4-15.7,13.4h31.2C921.3,881.7,918.1,874.2,906.9,874.2 M907.3,819.4c2.1-1.9,4.4-3,7.2-3c2.3,0,4.9,1,6.8,2.8
			c1.9,2.1,2.8,4.5,2.8,7.2c0,2.6-0.9,5.1-2.8,6.8l-11.2,11.2c-1.6,1.7-4.4,3-6.8,3c-2.6,0-5.1-1-7-3c-2.1-1.9-3-4.4-3-7
			c0-2.3,0.9-4.9,3-6.8L907.3,819.4z"/>
		<path class="st1" d="M960,938.7v-84.1h28.6v11c5.8-7.2,16.9-13.6,25.8-13.6v27.6c-1.6-0.3-3.3-0.3-5.8-0.3
			c-8.2,0-20.1,2.3-20.1,17.1v42.4H960z"/>
		<path class="st1" d="M1027.1,825.8c0-7.9,6.5-14,14.5-14c7.7,0,14.1,6.1,14.1,14c0,7.7-6.5,14-14.1,14
			C1033.6,839.8,1027.1,833.5,1027.1,825.8 M1027.1,854.6h28.6v84.1h-28.6V854.6z"/>
		<path class="st1" d="M1070.6,896.5c0-24.4,18.3-44.1,44.8-44.1c23.7,0,42.2,17.8,42.2,47.6v5.2h-57.7c1.9,7,8.7,13.8,19.9,13.8
			c4.5,0,14.1-2.1,19.2-5.4l11.5,17.8c-8.2,6.5-22.3,9.4-34.2,9.4C1090.6,940.8,1070.6,924.2,1070.6,896.5 M1115.4,874.2
			c-10.6,0-14.7,8.4-15.7,13.4h31.2C1129.7,881.7,1126.6,874.2,1115.4,874.2"/>
		<rect x="1170.7" y="822.5" class="st1" width="28.6" height="116.2"/>
		<path class="st1" d="M460.2,1087.1c0,7.5-5.1,12.6-13.7,12.6h-21.6v-46.5h19.3c8.3,0,13.3,4.9,13.3,11.9c0,5.5-3.6,9.4-7.6,10.5
			C456.1,1076,460.2,1081.6,460.2,1087.1 M430.7,1073.3h12.4c5.4,0,8.2-3.2,8.2-7.5c0-4.2-2.8-7.5-8.2-7.5h-12.4V1073.3z
			 M445.3,1094.5c5.4,0,8.7-3.1,8.7-8c0-4.3-3-8-8.7-8h-14.6v16H445.3z"/>
		<path class="st1" d="M467.4,1082.7c0-9.8,7.1-17.7,17-17.7c10.4,0,16.5,8,16.5,18.1v1.3h-27.8c0.4,6.4,4.9,11.3,12.3,11.3
			c4,0,7.7-1.5,10.4-4.3l2.9,3.8c-3.5,3.3-8.1,5.2-13.7,5.2C474.7,1100.5,467.4,1093.3,467.4,1082.7 M495.6,1080.6
			c-0.1-5-3.5-10.8-11.3-10.8c-7.3,0-11,5.7-11.2,10.8H495.6z"/>
		<path class="st1" d="M506.6,1095.2l2.7-3.8c2.3,2.6,6.6,4.8,11.4,4.8c5.2,0,8.2-2.4,8.2-5.8c0-8.2-21.3-3.1-21.3-15.6
			c0-5.3,4.5-9.7,12.8-9.7c5.9,0,10,2.2,12.7,4.9l-2.5,3.6c-2-2.4-5.7-4.3-10.2-4.3c-4.7,0-7.7,2.3-7.7,5.3
			c0,7.3,21.3,2.5,21.3,15.6c0,5.7-4.6,10.2-13.4,10.2C514.8,1100.5,510.1,1098.7,506.6,1095.2"/>
		<path class="st1" d="M540.6,1082.7c0-9.8,6.6-17.7,17-17.7c10.5,0,17,7.9,17,17.7c0,9.8-6.6,17.7-17,17.7
			C547.1,1100.5,540.6,1092.5,540.6,1082.7 M569,1082.7c0-6.8-4-13-11.4-13c-7.3,0-11.4,6.1-11.4,13c0,6.9,4,13,11.4,13
			C564.9,1095.8,569,1089.6,569,1082.7"/>
		<path class="st1" d="M586.4,1054.1c1.7,0,3.2,1.5,3.2,3.2s-1.5,3.1-3.2,3.1c-1.7,0-3.1-1.4-3.1-3.1S584.6,1054.1,586.4,1054.1
			 M583.7,1065.9h5.3v33.7h-5.3V1065.9z"/>
		<path class="st1" d="M623.5,1099.6v-22c0-6-3.1-7.8-7.8-7.8c-4.2,0-10.2,2.9-10.2,13v16.9h-5.3v-33.7h5.3v4.9
			c2.4-2.9,7.1-5.7,12.4-5.7c7.1,0,10.9,3.6,10.9,10.9v23.7H623.5z"/>
		<path class="st1" d="M688.9,1053.1v46.5h-5.3v-5c-3.1,4.7-8,5.8-10.9,5.8c-10.5,0-17-8-17-17.7c0-9.8,6.6-17.7,17-17.7
			c2.7,0,7.7,1,10.9,5.9v-17.9H688.9z M684.1,1082.7c0-6.8-4-13-11.4-13c-7.3,0-11.4,6.1-11.4,13c0,6.9,4,13,11.4,13
			C680.1,1095.8,684.1,1089.6,684.1,1082.7"/>
		<path class="st1" d="M697.6,1082.7c0-9.8,7.1-17.7,17-17.7c10.4,0,16.5,8,16.5,18.1v1.3h-27.8c0.4,6.4,4.9,11.3,12.3,11.3
			c4,0,7.7-1.5,10.4-4.3l2.9,3.8c-3.5,3.3-8.1,5.2-13.7,5.2C704.9,1100.5,697.6,1093.3,697.6,1082.7 M725.8,1080.6
			c-0.1-5-3.5-10.8-11.3-10.8c-7.3,0-11,5.7-11.2,10.8H725.8z"/>
		<path class="st1" d="M809.7,1076v23.7h-5.2v-22.1c0-5.4-2.6-7.5-6.6-7.7c-7.3,0-11.4,4.7-11.4,9.8v20h-5.2v-22.1
			c0-6-3.1-7.8-7.7-7.8c-4.2,0-10.2,2.9-10.2,13v16.9h-5.3v-33.7h5.3v4.9c2.4-2.9,7.1-5.7,12.4-5.7c5.3,0,8.7,2,10.1,6.1
			c2.7-3.5,6.7-6.1,13-6.1C806,1065.1,809.7,1068.6,809.7,1076"/>
		<path class="st1" d="M851.5,1065.9v33.7h-5.3v-5c-3.1,4.7-8,5.8-10.9,5.8c-10.5,0-17-8-17-17.7c0-9.8,6.6-17.7,17-17.7
			c2.7,0,7.7,1,10.9,5.9v-5H851.5z M846.7,1082.7c0-6.8-4-13-11.4-13c-7.3,0-11.4,6.1-11.4,13c0,6.9,4,13,11.4,13
			C842.7,1095.8,846.7,1089.6,846.7,1082.7"/>
		<path class="st1" d="M869.5,1086.6c0,1.5,0.2,9.1,8.9,9.1v4.7c-13.8,0-14.2-11.7-14.2-13.7v-16.2h-6v-4.6h6v-9.2h5.3v9.2h8.9v4.6
			h-8.9V1086.6z"/>
		<path class="st1" d="M883.7,1082.7c0-9.8,7.1-17.7,17-17.7c10.4,0,16.5,8,16.5,18.1v1.3h-27.8c0.4,6.3,4.9,11.3,12.3,11.3
			c4,0,7.7-1.5,10.4-4.3l2.9,3.8c-3.5,3.3-8.1,5.2-13.7,5.2C891,1100.5,883.7,1093.3,883.7,1082.7 M911.9,1080.6
			c-0.1-5-3.5-10.8-11.3-10.8c-7.3,0-11,5.7-11.2,10.8H911.9z M901.5,1051.6c0.5-0.5,1-0.7,1.6-0.7c0.6,0,1.2,0.2,1.7,0.7
			c0.5,0.5,0.7,1,0.7,1.6c0,0.6-0.2,1.2-0.7,1.6l-5.6,5.6c-0.4,0.4-1,0.7-1.7,0.7c-0.6,0-1.1-0.2-1.6-0.7c-0.4-0.4-0.6-1-0.6-1.6
			c0-0.6,0.2-1.2,0.6-1.6L901.5,1051.6z"/>
		<path class="st1" d="M943.4,1070.9c-0.7-0.1-1.4-0.1-2.2-0.1c-4.2,0-10.2,2-10.2,12v16.9h-5.3v-33.7h5.3v4.9
			c2.4-2.9,7.1-5.7,12.4-5.7V1070.9z"/>
		<path class="st1" d="M953.1,1054.1c1.7,0,3.2,1.5,3.2,3.2s-1.5,3.1-3.2,3.1c-1.7,0-3.1-1.4-3.1-3.1S951.3,1054.1,953.1,1054.1
			 M950.4,1065.9h5.3v33.7h-5.3V1065.9z"/>
		<path class="st1" d="M964.9,1082.7c0-9.8,7.1-17.7,17-17.7c10.4,0,16.5,8,16.5,18.1v1.3h-27.8c0.4,6.4,4.9,11.3,12.3,11.3
			c4,0,7.7-1.5,10.4-4.3l2.9,3.8c-3.5,3.3-8.1,5.2-13.7,5.2C972.2,1100.5,964.9,1093.3,964.9,1082.7 M993.1,1080.6
			c-0.1-5-3.5-10.8-11.3-10.8c-7.3,0-11,5.7-11.2,10.8H993.1z"/>
		<rect x="1007" y="1053.1" class="st1" width="5.3" height="46.5"/>
		<path class="st1" d="M1053.1,1077.7v6.6c0,1.5-1.2,2.6-2.6,2.6c-1.5,0-2.6-1.1-2.6-2.6V1073c12.1,0,12.8-7.1,12.8-8.7v-0.3
			c0-3.5-2.7-6.5-8.3-6.5c-5.4,0-8.7,2.2-11.4,5.7l-3.6-3.8c3.4-4.4,8.7-7.1,15.4-7.1c7.8,0,14,4.2,14,11.9
			C1066.8,1069.4,1064.2,1075.8,1053.1,1077.7 M1050.5,1093.1c2,0,3.6,1.6,3.6,3.6c0,2-1.6,3.6-3.6,3.6s-3.6-1.5-3.6-3.6
			C1046.9,1094.7,1048.4,1093.1,1050.5,1093.1"/>
		<polygon class="st1" points="330.5,1169.4 330.5,1122.9 336.5,1122.9 336.5,1164.2 358.5,1164.2 358.5,1169.4 		"/>
		<path class="st1" d="M364.2,1152.5c0-9.8,6.6-17.7,17-17.7c10.5,0,17,7.9,17,17.7c0,9.8-6.6,17.7-17,17.7
			C370.7,1170.2,364.2,1162.3,364.2,1152.5 M392.6,1152.5c0-6.8-4-13-11.4-13c-7.3,0-11.4,6.1-11.4,13c0,6.9,4,13,11.4,13
			C388.5,1165.6,392.6,1159.4,392.6,1152.5"/>
		<path class="st1" d="M406.8,1156.5v-0.3v-20.5h5.3v20.7c0,1.3,0.3,9.2,9,9.2c8.9,0,9.1-8,9.1-9.3v-20.5h5.3v20.5v0.3
			c0,2.1-0.5,13.7-14.4,13.7C407.3,1170.2,406.8,1158.6,406.8,1156.5"/>
		<path class="st1" d="M444.1,1152.5c0-9.8,7.1-17.7,17-17.7c10.4,0,16.5,8,16.5,18.1v1.3h-27.8c0.4,6.3,4.9,11.3,12.3,11.3
			c4,0,7.7-1.5,10.4-4.3l2.9,3.8c-3.5,3.3-8.1,5.2-13.7,5.2C451.5,1170.2,444.1,1163.1,444.1,1152.5 M472.3,1150.4
			c-0.1-5-3.5-10.8-11.3-10.8c-7.3,0-11,5.7-11.2,10.8H472.3z"/>
		<polygon class="st1" points="484.6,1169.4 484.6,1165.3 503.6,1140.3 484.6,1140.3 484.6,1135.7 510.6,1135.7 510.6,1139.7 
			491.4,1164.8 510.8,1164.8 510.8,1169.4 		"/>
		<path class="st1" d="M538.3,1156.5v-0.3v-20.5h5.3v20.7c0,1.3,0.3,9.2,9,9.2c8.9,0,9.1-8,9.1-9.3v-20.5h5.3v20.5v0.3
			c0,2.1-0.5,13.7-14.4,13.7C538.8,1170.2,538.3,1158.6,538.3,1156.5"/>
		<path class="st1" d="M600.9,1169.4v-22.1c0-6-3.1-7.8-7.8-7.8c-4.2,0-10.2,2.9-10.2,13v16.9h-5.3v-33.7h5.3v4.9
			c2.4-2.9,7.1-5.7,12.4-5.7c7.1,0,10.9,3.6,10.9,10.9v23.7H600.9z"/>
		<path class="st1" d="M633.1,1152.5c0-9.8,6.6-17.7,17-17.7c10.5,0,17,7.9,17,17.7c0,9.8-6.6,17.7-17,17.7
			C639.7,1170.2,633.1,1162.3,633.1,1152.5 M661.5,1152.5c0-6.8-4-13-11.4-13c-7.3,0-11.4,6.1-11.4,13c0,6.9,4,13,11.4,13
			C657.5,1165.6,661.5,1159.4,661.5,1152.5"/>
		<path class="st1" d="M675.7,1156.5v-0.3v-20.5h5.3v20.7c0,1.3,0.3,9.2,9,9.2c8.9,0,9.1-8,9.1-9.3v-20.5h5.3v20.5v0.3
			c0,2.1-0.5,13.7-14.4,13.7C676.2,1170.2,675.7,1158.6,675.7,1156.5"/>
		<path class="st1" d="M722.4,1156.4c0,1.5,0.2,9.1,8.9,9.1v4.7c-13.8,0-14.2-11.7-14.2-13.7v-16.2h-6v-4.6h6v-9.2h5.3v9.2h8.9v4.6
			h-8.9V1156.4z"/>
		<path class="st1" d="M741.7,1123.8c1.7,0,3.2,1.5,3.2,3.2c0,1.7-1.5,3.1-3.2,3.1c-1.7,0-3.1-1.4-3.1-3.1
			C738.5,1125.3,739.9,1123.8,741.7,1123.8 M739,1135.7h5.3v33.7H739V1135.7z"/>
		<rect x="755.5" y="1122.9" class="st1" width="5.3" height="46.5"/>
		<path class="st1" d="M821,1122.9v46.5h-5.3v-5c-3.1,4.7-8,5.8-10.9,5.8c-10.5,0-17-8-17-17.7c0-9.8,6.6-17.7,17-17.7
			c2.7,0,7.7,1,10.9,5.9v-17.9H821z M816.2,1152.5c0-6.8-4-13-11.4-13c-7.3,0-11.4,6.1-11.4,13c0,6.9,4,13,11.4,13
			C812.2,1165.6,816.2,1159.4,816.2,1152.5"/>
		<path class="st1" d="M829.7,1152.5c0-9.8,7.1-17.7,17-17.7c10.4,0,16.5,8,16.5,18.1v1.3h-27.8c0.4,6.3,4.9,11.3,12.3,11.3
			c4,0,7.7-1.5,10.4-4.3l2.9,3.8c-3.5,3.3-8.1,5.2-13.7,5.2C837,1170.2,829.7,1163.1,829.7,1152.5 M857.9,1150.4
			c-0.1-5-3.5-10.8-11.3-10.8c-7.3,0-11,5.7-11.2,10.8H857.9z"/>
		<path class="st1" d="M895.5,1135.7v5c3.2-4.8,8.2-5.9,10.9-5.9c10.5,0,17,7.9,17,17.7c0,9.8-6.6,17.7-17,17.7
			c-2.9,0-7.7-1.1-10.9-5.8v17.9h-5.3v-46.6H895.5z M917.7,1152.5c0-6.8-4-13-11.4-13c-7.3,0-11.4,6.1-11.4,13c0,6.9,4,13,11.4,13
			C913.7,1165.6,917.7,1159.4,917.7,1152.5"/>
		<path class="st1" d="M949.6,1140.7c-0.7-0.1-1.4-0.1-2.2-0.1c-4.2,0-10.2,2-10.2,12v16.9H932v-33.7h5.3v4.9
			c2.4-2.9,7.1-5.7,12.4-5.7V1140.7z"/>
		<path class="st1" d="M954.1,1152.5c0-9.8,6.6-17.7,17-17.7c10.5,0,17,7.9,17,17.7c0,9.8-6.6,17.7-17,17.7
			C960.7,1170.2,954.1,1162.3,954.1,1152.5 M982.5,1152.5c0-6.8-4-13-11.4-13c-7.3,0-11.4,6.1-11.4,13c0,6.9,4,13,11.4,13
			C978.5,1165.6,982.5,1159.4,982.5,1152.5"/>
		<path class="st1" d="M1006.3,1178.4c8.5,0,8.9-7.5,8.9-9.1v-33.6h5.3v33.6c0,2.2-0.3,13.7-14.2,13.7V1178.4z M1017.8,1123.8
			c1.7,0,3.2,1.5,3.2,3.2c0,1.7-1.5,3.1-3.2,3.1c-1.7,0-3.1-1.4-3.1-3.1C1014.7,1125.3,1016.1,1123.8,1017.8,1123.8"/>
		<path class="st1" d="M1031.6,1156.5v-0.3v-20.5h5.3v20.7c0,1.3,0.3,9.2,9,9.2c8.9,0,9.1-8,9.1-9.3v-20.5h5.3v20.5v0.3
			c0,2.1-0.5,13.7-14.4,13.7C1032.1,1170.2,1031.6,1158.6,1031.6,1156.5"/>
		<path class="st1" d="M1068.1,1164.9l2.7-3.8c2.3,2.6,6.6,4.8,11.4,4.8c5.2,0,8.2-2.4,8.2-5.8c0-8.2-21.3-3.1-21.3-15.6
			c0-5.3,4.5-9.7,12.8-9.7c5.9,0,10,2.2,12.7,4.9l-2.5,3.6c-2-2.4-5.7-4.3-10.2-4.3c-4.7,0-7.7,2.3-7.7,5.3
			c0,7.3,21.3,2.5,21.3,15.6c0,5.7-4.6,10.2-13.4,10.2C1076.2,1170.2,1071.5,1168.5,1068.1,1164.9"/>
		<path class="st1" d="M1111.4,1156.4c0,1.5,0.2,9.1,8.9,9.1v4.7c-13.8,0-14.2-11.7-14.2-13.7v-16.2h-6v-4.6h6v-9.2h5.3v9.2h8.9v4.6
			h-8.9V1156.4z"/>
		<path class="st1" d="M1125.6,1152.5c0-9.8,7.1-17.7,17-17.7c10.4,0,16.5,8,16.5,18.1v1.3h-27.8c0.4,6.3,4.9,11.3,12.3,11.3
			c4,0,7.7-1.5,10.4-4.3l2.9,3.8c-3.5,3.3-8.1,5.2-13.7,5.2C1132.9,1170.2,1125.6,1163.1,1125.6,1152.5 M1153.8,1150.4
			c-0.1-5-3.5-10.8-11.3-10.8c-7.3,0-11,5.7-11.2,10.8H1153.8z"/>
		<rect x="357.6" y="1192.7" class="st1" width="11.4" height="46.5"/>
		<path class="st1" d="M375,1222.3c0-9.8,7.3-17.7,17.9-17.7c9.5,0,16.9,7.1,16.9,19v2.1h-23.1c0.8,2.8,3.5,5.5,8,5.5
			c1.8,0,5.7-0.8,7.7-2.2l4.6,7.1c-3.3,2.6-8.9,3.8-13.7,3.8C383,1240,375,1233.4,375,1222.3 M393,1213.4c-4.3,0-5.9,3.4-6.3,5.4
			h12.5C398.7,1216.4,397.4,1213.4,393,1213.4"/>
		<path class="st1" d="M446.8,1215.6v8.5c0,3.1,0.9,5.7,5.7,5.7v10.2c-11.5,0-17.2-7.7-17.2-17.2v-7.3h-5.6v-10h5.6v-9.6h11.4v9.6
			h6.8v10H446.8z"/>
		<path class="st1" d="M456.9,1222.3c0-9.8,7.3-17.7,17.9-17.7c9.5,0,16.9,7.1,16.9,19v2.1h-23.1c0.8,2.8,3.5,5.5,8,5.5
			c1.8,0,5.7-0.8,7.7-2.2l4.6,7.1c-3.3,2.6-8.9,3.8-13.7,3.8C464.9,1240,456.9,1233.4,456.9,1222.3 M474.8,1213.4
			c-4.3,0-5.9,3.4-6.3,5.4H481C480.5,1216.4,479.3,1213.4,474.8,1213.4"/>
		<path class="st1" d="M519.9,1239.2v-18.7c0-4-2.2-5.5-5.6-5.5c-3.1,0-5.9,2.2-5.9,7.3v17h-11.4v-33.6h11.4v4.4
			c2.2-2.9,6.4-5.3,12.2-5.3c5.4,0,8.7,2.5,10,6.1c2.3-3,6.1-6.1,13-6.1c7.3,0,10.7,4.6,10.7,10.4v24.1h-11.4v-18.7
			c0-4-2.2-5.5-5.6-5.5c-6.2,0-5.9,7.3-5.9,7.3v17H519.9z"/>
		<path class="st1" d="M573.5,1234.9L573.5,1234.9l-0.1,17.1H562v-46.5h11.4v4.4h0.1c2.9-4.5,7.3-5.3,9.4-5.3
			c9.5,0,15.6,8.2,15.6,17.7c0,9.5-6.4,17.7-15.6,17.7C580.7,1240,576.4,1239.5,573.5,1234.9 M586.6,1222.3c0-4.2-2.4-7.3-6.6-7.3
			c-4.3,0-6.6,3.1-6.6,7.3c0,4.3,2.4,7.5,6.6,7.5C584.2,1229.8,586.6,1226.6,586.6,1222.3"/>
		<path class="st1" d="M602.6,1235.1c1.5-2.7,3-5,4.5-7.7c2.9,2.1,8.3,4,11.9,4c3.1,0,4-0.8,4-2c0-1.7-2.2-2-5.2-2.4
			c-5.4-0.8-14-2.7-14-11.3c0-5.9,5.2-11.2,14.5-11.2c5.2,0,10.1,1.6,13.8,4.1c-1.4,2.7-2.7,4.7-4,7.3c-2.2-1.6-6-3.2-9.7-3.2
			c-2.2,0-3.7,0.8-3.7,2.1c0,1.3,2.1,1.7,4.9,2.1c5.4,0.8,14.2,2.9,14.2,11.7c0,6.6-5.8,11.4-15.4,11.4
			C612.4,1240,606.2,1238.1,602.6,1235.1"/>
		<path class="st1" d="M655.3,1222.3c0-9.4,6.1-17.7,15.6-17.7c2,0,6.4,0.8,9.3,5.3h0.1v-17.2h11.4v46.5h-11.4v-4.3h-0.1
			c-2.9,4.5-7.3,5.1-9.3,5.1C661.7,1240,655.3,1231.8,655.3,1222.3 M680.3,1222.3c0-4.2-2.4-7.3-6.6-7.3c-4.2,0-6.6,3.1-6.6,7.3
			c0,4.3,2.4,7.5,6.6,7.5C677.9,1229.8,680.3,1226.6,680.3,1222.3"/>
		<path class="st1" d="M697.7,1222.3c0-9.8,7.3-17.7,17.9-17.7c9.5,0,16.9,7.1,16.9,19v2.1h-23.1c0.8,2.8,3.5,5.5,8,5.5
			c1.8,0,5.7-0.8,7.7-2.2l4.6,7.1c-3.3,2.6-8.9,3.8-13.7,3.8C705.7,1240,697.7,1233.4,697.7,1222.3 M715.6,1213.4
			c-4.3,0-5.9,3.4-6.3,5.4h12.5C721.3,1216.4,720.1,1213.4,715.6,1213.4"/>
		<polygon class="st1" points="763.6,1239.2 751.1,1205.6 763.1,1205.6 769.9,1226.8 776.9,1205.6 789,1205.6 776.3,1239.2 		"/>
		<path class="st1" d="M790.4,1222.3c0-9.4,6.8-17.7,18.4-17.7c11.7,0,18.5,8.2,18.5,17.7c0,9.5-6.8,17.7-18.5,17.7
			C797.1,1240,790.4,1231.8,790.4,1222.3 M815.4,1222.3c0-4.2-2.4-7.3-6.6-7.3c-4.2,0-6.6,3.1-6.6,7.3c0,4.3,2.4,7.5,6.6,7.5
			C813,1229.8,815.4,1226.6,815.4,1222.3"/>
		<path class="st1" d="M831.5,1235.1c1.5-2.7,3-5,4.5-7.7c2.9,2.1,8.3,4,11.9,4c3.1,0,4-0.8,4-2c0-1.7-2.2-2-5.2-2.4
			c-5.4-0.8-14-2.7-14-11.3c0-5.9,5.2-11.2,14.5-11.2c5.2,0,10.1,1.6,13.8,4.1c-1.4,2.7-2.7,4.7-4,7.3c-2.2-1.6-6-3.2-9.7-3.2
			c-2.2,0-3.7,0.8-3.7,2.1c0,1.3,2.1,1.7,4.9,2.1c5.4,0.8,14.2,2.9,14.2,11.7c0,6.6-5.8,11.4-15.4,11.4
			C841.2,1240,835,1238.1,831.5,1235.1"/>
		<path class="st1" d="M900.3,1215.6v8.5c0,3.1,0.9,5.7,5.7,5.7v10.2c-11.5,0-17.2-7.7-17.2-17.2v-7.3h-5.6v-10h5.6v-9.6h11.4v9.6
			h6.8v10H900.3z"/>
		<path class="st1" d="M912.1,1239.2v-33.6h11.4v4.4c2.3-2.9,6.8-5.4,10.3-5.4v11c-0.6-0.1-1.3-0.1-2.3-0.1c-3.3,0-8,0.9-8,6.8v17
			H912.1z"/>
		<path class="st1" d="M937.3,1222.3c0-9.4,6.1-17.7,15.6-17.7c2,0,6.4,0.8,9.4,5.3h0.1v-4.4h11.4v33.6h-11.4v-4.3h-0.1
			c-2.9,4.5-7.3,5.1-9.4,5.1C943.7,1240,937.3,1231.8,937.3,1222.3 M962.3,1222.3c0-4.2-2.4-7.3-6.6-7.3c-4.2,0-6.6,3.1-6.6,7.3
			c0,4.3,2.4,7.5,6.6,7.5C959.9,1229.8,962.3,1226.6,962.3,1222.3"/>
		<polygon class="st1" points="990.1,1239.2 977.6,1205.6 989.5,1205.6 996.4,1226.8 1003.3,1205.6 1015.4,1205.6 1002.7,1239.2 		
			"/>
		<path class="st1" d="M1016.8,1222.3c0-9.4,6.1-17.7,15.6-17.7c2,0,6.4,0.8,9.4,5.3h0.1v-4.4h11.4v33.6h-11.4v-4.3h-0.1
			c-2.9,4.5-7.3,5.1-9.4,5.1C1023.2,1240,1016.8,1231.8,1016.8,1222.3 M1041.9,1222.3c0-4.2-2.4-7.3-6.6-7.3c-4.2,0-6.6,3.1-6.6,7.3
			c0,4.3,2.4,7.5,6.6,7.5C1039.5,1229.8,1041.9,1226.6,1041.9,1222.3"/>
		<path class="st1" d="M1095.3,1205.6v17.2c0,10.1-6.6,17.2-17.2,17.2c-11.5,0-17.2-7.7-17.2-17.2v-17.2h11.4v18.5
			c0,3.1,0.9,5.7,5.7,5.7c4.7,0,5.7-2.6,5.7-5.7v-18.5H1095.3z"/>
		<path class="st1" d="M1122.7,1239.2l-5.6-9.8l-5.7,9.8h-12.3l10.6-17.3l-10-16.3h12.5l4.8,8.8c1.4-2.7,3.4-6.1,4.8-8.8h12.4
			l-10,16.3l10.8,17.3H1122.7z"/>
		<path class="st2" d="M1273.9,348.6c0,81.9-66.4,148.4-148.4,148.4c-81.9,0-148.4-66.4-148.4-148.4s66.4-148.4,148.4-148.4
			C1207.4,200.2,1273.9,266.7,1273.9,348.6"/>
		<path class="st1" d="M895.8,502.4c-5.7-19.2-18.6-35-36.2-44.5c-9.1-4.9-19.1-7.8-29.3-8.6v-10.5h7c3.5,0,6.3-2.8,6.3-6.3
			s-2.8-6.3-6.3-6.3h-26.7c-3.5,0-6.3,2.8-6.3,6.3s2.8,6.3,6.3,6.3h7v10.4c-4.4,0.4-8.8,1.1-13.1,2.3c-3.4,0.9-5.4,4.4-4.5,7.7
			c0.9,3.4,4.4,5.4,7.7,4.5c5.2-1.4,10.6-2.1,15.9-2.1c10.2,0.2,20.7,2.6,29.8,7.5c14.6,7.9,25.3,21.1,30.1,37
			c4.8,16,3,32.8-4.9,47.5c-7.9,14.6-21.1,25.3-37,30.1c-16,4.7-32.8,3-47.5-4.9c-30.2-16.3-41.5-54.2-25.2-84.5
			c0.4-0.8,1-1.6,1.5-2.4l2.4,12.5c0.6,3,3.2,5.1,6.2,5.1c0.4,0,0.8,0,1.2-0.1c3.4-0.7,5.7-3.9,5-7.4l-5-26.6c0-0.2-0.2-0.4-0.2-0.6
			c-0.1-0.4-0.3-0.8-0.5-1.2c-0.2-0.4-0.4-0.7-0.7-1c-0.2-0.2-0.2-0.4-0.4-0.6c-0.1-0.1-0.3-0.2-0.4-0.3c-0.3-0.3-0.7-0.5-1.1-0.7
			c-0.3-0.2-0.7-0.3-1-0.5c-0.4-0.1-0.8-0.2-1.2-0.2c-0.4,0-0.8-0.1-1.2,0c-0.2,0-0.4,0-0.5,0l-26.6,5c-3.4,0.7-5.7,3.9-5,7.4
			c0.6,3.4,4,5.7,7.4,5l10.8-2.1c-0.5,0.8-1.1,1.6-1.5,2.4c-19.6,36.4-6.1,81.9,30.3,101.6c11.1,6,23.3,9.1,35.5,9.1
			c7.2,0,14.4-1,21.5-3.2c19.2-5.7,35-18.6,44.5-36.2C899.4,541.9,901.5,521.6,895.8,502.4"/>
		<path class="st1" d="M865.2,546.1c12.3-22.8,3.8-51.2-18.9-63.5c-7.1-3.8-14.7-5.7-22.3-5.6v46.9L790.8,557
			c3.1,3.1,6.8,5.9,10.8,8.1C824.4,577.4,852.8,568.9,865.2,546.1"/>
		<path class="st1" d="M817.7,334.7h17.7l11-3.5c0.5-0.2,1.1-0.2,1.7-0.1l16.5,2.4c1.8,0.3,3.2,1.8,3.2,3.7v10.7
			c0,1.9-1.4,3.4-3.2,3.7l-16.5,2.4c-0.2,0-0.4,0-0.5,0c-0.4,0-0.7-0.1-1.1-0.2l-11-3.3h-17.7V334.7z"/>
		<path class="st1" d="M768.4,367.3v-49.2h24.5c6.5,0,12.7,2.6,17.3,7.2v34.8c-4.6,4.6-10.8,7.2-17.3,7.2H768.4z"/>
		<path class="st1" d="M605,482.2c-1.3,0-2.6,0.1-3.8,0.3l26.7-96.5c1.6,0.2,3.2,0.3,4.9,0.3h41c0,2.4-0.3,5.1-1.1,7.7
			c-1.2,3.8-3.8,6.1-6.5,8.5c-2.9,2.6-5.9,5.3-7,9.6c-0.9,3.3,0.7,6.5,2,9.3c1.1,2.3,2.2,4.6,1.7,6.1c-0.7,1.9-2.3,2.9-4.7,4.4
			c-2.5,1.5-5.7,3.5-7,7.3c-1.2,3.7,0,7.4,1.2,11c1.1,3.2,2.1,6.2,1.2,8.5c-0.9,2.4-3.3,3.7-6.1,5.2c-3.1,1.7-6.7,3.6-8,7.8
			c-1,3-0.1,7,1.1,10.3H605z"/>
		<path class="st1" d="M760.9,378.9v-73.6H632.7c-20.2,0-36.6,16.4-36.6,36.6v0.4c0,20.2,16.4,36.6,36.6,36.6H760.9z"/>
		<path class="st1" d="M664.2,566.3H605c-8.6,0-15.7-7-15.7-15.7v-45.3c0-8.6,7-15.7,15.7-15.7h59.3c8.6,0,15.7,7,15.7,15.7v45.3
			C679.9,559.2,672.9,566.3,664.2,566.3"/>
		<path class="st0" d="M1040.4,411.3c1.8-0.3,4.2-0.6,7.3-0.6c3.8,0,6.5,0.9,8.2,2.4c1.6,1.4,2.6,3.5,2.6,6.1c0,2.7-0.8,4.8-2.3,6.3
			c-2,2.1-5.3,3.2-9,3.2c-1.1,0-2.2,0-3.1-0.3v11.8h-3.8V411.3z M1044.2,425.5c0.8,0.2,1.9,0.3,3.1,0.3c4.6,0,7.4-2.2,7.4-6.3
			c0-3.9-2.7-5.8-6.9-5.8c-1.7,0-2.9,0.1-3.6,0.3V425.5z"/>
		<path class="st0" d="M1064.7,431.1l-3.1,9.2h-3.9l10-29.4h4.6l10,29.4h-4.1l-3.1-9.2H1064.7z M1074.3,428.2l-2.9-8.5
			c-0.7-1.9-1.1-3.7-1.5-5.4h-0.1c-0.4,1.7-0.9,3.5-1.5,5.3l-2.9,8.5H1074.3z"/>
		<path class="st0" d="M1086.6,411.4c1.9-0.4,4.7-0.6,7.3-0.6c4.1,0,6.7,0.7,8.5,2.4c1.5,1.3,2.3,3.3,2.3,5.6c0,3.9-2.4,6.5-5.5,7.5
			v0.1c2.3,0.8,3.6,2.9,4.3,5.9c1,4.1,1.7,6.9,2.3,8.1h-3.9c-0.5-0.8-1.1-3.4-2-7c-0.9-4.1-2.4-5.6-5.9-5.7h-3.6v12.7h-3.8V411.4z
			 M1090.4,424.8h3.9c4.1,0,6.6-2.2,6.6-5.6c0-3.8-2.7-5.5-6.8-5.5c-1.8,0-3.1,0.2-3.8,0.3V424.8z"/>
		<path class="st0" d="M1125.4,411h3.8v19.7c0,7.8-3.8,10.2-8.9,10.2c-1.4,0-3.1-0.3-4.1-0.7l0.6-3.1c0.8,0.3,1.9,0.6,3.2,0.6
			c3.4,0,5.4-1.5,5.4-7.3V411z"/>
		<path class="st0" d="M1160.6,425.4c0,10.1-6.2,15.5-13.7,15.5c-7.8,0-13.2-6-13.2-14.9c0-9.3,5.8-15.4,13.7-15.4
			C1155.4,410.5,1160.6,416.6,1160.6,425.4 M1137.8,425.9c0,6.3,3.4,11.9,9.4,11.9c6,0,9.4-5.5,9.4-12.2c0-5.8-3.1-11.9-9.4-11.9
			C1140.9,413.6,1137.8,419.4,1137.8,425.9"/>
		<path class="st0" d="M1169.3,411v17.4c0,6.6,2.9,9.4,6.8,9.4c4.4,0,7.2-2.9,7.2-9.4V411h3.8v17.1c0,9-4.8,12.7-11.1,12.7
			c-6,0-10.6-3.4-10.6-12.6V411H1169.3z"/>
		<path class="st0" d="M1193.8,411.4c1.9-0.4,4.7-0.6,7.3-0.6c4.1,0,6.7,0.7,8.5,2.4c1.5,1.3,2.3,3.3,2.3,5.6c0,3.9-2.4,6.5-5.5,7.5
			v0.1c2.3,0.8,3.6,2.9,4.3,5.9c1,4.1,1.7,6.9,2.3,8.1h-3.9c-0.5-0.8-1.1-3.4-2-7c-0.9-4.1-2.4-5.6-5.9-5.7h-3.6v12.7h-3.8V411.4z
			 M1197.6,424.8h3.9c4.1,0,6.6-2.2,6.6-5.6c0-3.8-2.7-5.5-6.8-5.5c-1.8,0-3.1,0.2-3.8,0.3V424.8z"/>
		<polygon class="st0" points="1062.6,400.4 1062.6,324.4 1044.8,342.1 1032,328.8 1065.6,295.6 1085.4,295.6 1085.4,400.4 		"/>
		<path class="st0" d="M1096.7,348.1c0-27,13.7-54,44.3-54c30.6,0,44.3,27,44.3,54s-13.7,54.2-44.3,54.2
			C1110.3,402.2,1096.7,375.1,1096.7,348.1 M1162,348.1c0-19.3-5.7-34.2-21-34.2c-15.2,0-21,14.9-21,34.2c0,19.3,5.8,34.4,21,34.4
			C1156.2,382.5,1162,367.4,1162,348.1"/>
		<path class="st0" d="M1187.1,307.1h2.3c3.6-11.2,14.2-18.4,27.2-18.4c11.7,0,18.5,6.2,22.3,12.8l-9.8,4.7
			c-2.2-4.2-7.1-7.6-12.5-7.6c-6.6,0-11.9,3.3-14.8,8.5h17.6c1.7,0,3.1,1.4,3.1,3.1c0,1.7-1.4,3.1-3.1,3.1h-19.5
			c-0.2,0.9-0.2,1.6-0.2,2.5c0,0.8,0,1.6,0.1,2.3h19.5c1.7,0,3.1,1.4,3.1,3.1c0,1.7-1.4,3.1-3.1,3.1h-17.7c2.7,5.3,8.1,8.7,14.8,8.7
			c5.4,0,10.3-3.4,12.5-7.6l9.8,4.6c-3.8,6.5-10.6,12.9-22.3,12.9c-13.1,0-23.8-7.2-27.3-18.6h-2.2c-1.7,0-3.1-1.3-3.1-3.1
			c0-1.7,1.3-3.1,3.1-3.1h1.1c-0.1-0.7-0.1-1.5-0.1-2.3c0-0.9,0-1.6,0.1-2.5h-1.1c-1.7,0-3.1-1.3-3.1-3.1
			C1184,308.5,1185.3,307.1,1187.1,307.1"/>
		<path class="st0" d="M1039.7,274.8l-2.4,7.4h-3.1l8-23.5h3.7l8,23.5h-3.2l-2.5-7.4H1039.7z M1042.6,253.3l3.2,4h-2.5l-4.5-4
			H1042.6z M1047.4,272.4l-2.3-6.8c-0.5-1.5-0.9-2.9-1.2-4.3h-0.1c-0.3,1.4-0.7,2.8-1.2,4.3l-2.3,6.8H1047.4z"/>
		<path class="st0" d="M1064.7,258.9c1.5-0.2,3.4-0.5,5.8-0.5c3,0,5.2,0.7,6.6,2c1.3,1.1,2.1,2.8,2.1,4.9c0,2.1-0.6,3.8-1.8,5
			c-1.6,1.7-4.2,2.6-7.2,2.6c-0.9,0-1.7,0-2.4-0.2v9.4h-3V258.9z M1067.7,270.3c0.7,0.2,1.5,0.2,2.5,0.2c3.7,0,5.9-1.8,5.9-5
			c0-3.1-2.2-4.6-5.5-4.6c-1.3,0-2.3,0.1-2.9,0.2V270.3z"/>
		<path class="st0" d="M1084.1,274.8l-2.4,7.4h-3.1l8-23.5h3.7l8,23.5h-3.2l-2.5-7.4H1084.1z M1091.8,272.4l-2.3-6.8
			c-0.5-1.5-0.9-2.9-1.2-4.3h-0.1c-0.3,1.4-0.7,2.8-1.2,4.3l-2.3,6.8H1091.8z"/>
		<path class="st0" d="M1101.7,259c1.5-0.3,3.7-0.5,5.8-0.5c3.2,0,5.3,0.6,6.8,1.9c1.2,1,1.8,2.7,1.8,4.5c0,3.1-2,5.2-4.4,6v0.1
			c1.8,0.6,2.9,2.3,3.5,4.7c0.8,3.3,1.3,5.5,1.8,6.5h-3.1c-0.4-0.7-0.9-2.7-1.6-5.6c-0.7-3.2-2-4.5-4.7-4.6h-2.9v10.2h-3V259z
			 M1104.7,269.7h3.1c3.2,0,5.3-1.8,5.3-4.5c0-3-2.2-4.4-5.4-4.4c-1.5,0-2.5,0.1-3,0.3V269.7z"/>
		<polygon class="st0" points="1125.2,261.2 1118.1,261.2 1118.1,258.7 1135.5,258.7 1135.5,261.2 1128.3,261.2 1128.3,282.2 
			1125.2,282.2 		"/>
		<rect x="1138.1" y="258.7" class="st0" width="3" height="23.5"/>
		<path class="st0" d="M1146.4,259c1.5-0.3,3.7-0.5,5.8-0.5c3.2,0,5.3,0.6,6.8,1.9c1.2,1,1.8,2.7,1.8,4.5c0,3.1-2,5.2-4.4,6v0.1
			c1.8,0.6,2.9,2.3,3.5,4.7c0.8,3.3,1.3,5.5,1.8,6.5h-3.1c-0.4-0.7-0.9-2.7-1.6-5.6c-0.7-3.2-2-4.5-4.7-4.6h-2.9v10.2h-3V259z
			 M1149.5,269.7h3.1c3.2,0,5.3-1.8,5.3-4.5c0-3-2.2-4.4-5.4-4.4c-1.5,0-2.5,0.1-3,0.3V269.7z"/>
		<path class="st0" d="M1172.6,259c1.8-0.3,4-0.5,6.5-0.5c4.4,0,7.5,1,9.5,2.9c2.1,1.9,3.3,4.6,3.3,8.4c0,3.8-1.2,7-3.4,9.1
			c-2.2,2.2-5.8,3.4-10.4,3.4c-2.2,0-4-0.1-5.5-0.3V259z M1175.6,279.8c0.8,0.1,1.9,0.2,3.1,0.2c6.5,0,10-3.6,10-10
			c0-5.5-3.1-9.1-9.5-9.1c-1.6,0-2.8,0.1-3.6,0.3V279.8z"/>
		<polygon class="st0" points="1208,271.2 1198.9,271.2 1198.9,279.6 1209.1,279.6 1209.1,282.2 1195.8,282.2 1195.8,258.7 
			1208.5,258.7 1208.5,261.2 1198.9,261.2 1198.9,268.6 1208,268.6 		"/>
	</g>
</g>
<g>
	<rect x="1488" y="0.1" class="st0" width="1488.2" height="1488.2"/>
	<g>
		<text transform="matrix(1 0 0 1 1840.2296 804.9572)"><tspan x="0" y="0" class="st1 st3 st4">avantage</tspan><tspan x="180.3" y="133.8" class="st1 st3 st4">carte</tspan></text>
	</g>
	<text transform="matrix(1.0071 0 0 1 1960.0031 1100.0393)" class="st1 st5 st6">Carte castorama</text>
	<text transform="matrix(1 0 0 1 1918.8927 1169.8215)" class="st1 st3 st6">Bien accompagné, </text>
	<text transform="matrix(1 0 0 1 1890.944 1239.6047)" class="st1 st3 st6">en avant les projets !</text>
	<g>
		<g>
			<path class="st1" d="M2438.6,418c-0.1-29.6-24.1-53.5-53.8-53.4l-8.1,0l30,83.1c5.6,15.6,4.9,32.4-2.2,47.4
				c-7,15-19.5,26.4-35.1,32l-196.5,71.1l212.5-0.6c29.6-0.1,53.5-24.2,53.4-53.8L2438.6,418z"/>
		</g>
		<path class="st1" d="M2390.9,453.4l-34.9-96.6l-273.3,98.8c-1.9,0.7-3.8,1-5.7,1c-6.9,0-13.4-4.3-15.9-11.2
			c-3.2-8.8,1.4-18.5,10.1-21.6l272-98.3c-8.3-12.3-22.2-20.2-37.4-20.2c-5.2,0-10.4,0.9-15.4,2.7l-235.3,85.1
			c-23.4,8.5-35.6,34.4-27.1,57.8l42.8,118.3c8.2,22.7,34.8,35.4,57.8,27.1l235.3-85.1c11.3-4.1,20.4-12.4,25.5-23.3
			C2394.5,477,2395,464.7,2390.9,453.4z"/>
	</g>
</g>
<line class="st7" x1="1488" y1="1488.3" x2="1488" y2="0.1"/>
</svg>
