<?xml version="1.0" encoding="utf-8"?>
<!-- Generator: Adobe Illustrator 26.4.0, SVG Export Plug-In . SVG Version: 6.00 Build 0)  -->
<svg version="1.1" id="Calque_1" xmlns="http://www.w3.org/2000/svg" xmlns:xlink="http://www.w3.org/1999/xlink" x="0px" y="0px"
	 viewBox="0 0 2976.2 1488.5" style="enable-background:new 0 0 2976.2 1488.5;" xml:space="preserve">
<style type="text/css">
	.st0{fill:#FFD100;}
	.st1{fill:#005CB9;}
	.st2{font-family:'CastoBlack-Black';}
	.st3{font-size:174.4565px;}
	.st4{font-family:'CastoRegular';}
	.st5{font-size:69.7826px;}
	.st6{fill:#FFFFFF;}
</style>
<g>
	<g>
		<rect y="0.3" class="st0" width="1488.2" height="1488.2"/>
		<text transform="matrix(1 0 0 1 391.178 805.1078)"><tspan x="0" y="0" class="st1 st2 st3">livraison</tspan><tspan x="-69.3" y="133.8" class="st1 st2 st3">à domicile</tspan></text>
		<text transform="matrix(1 0 0 1 354.8533 1100.1859)"><tspan x="0" y="0" class="st1 st4 st5">Pas de temps à perdre ?</tspan><tspan x="212.5" y="69.8" class="st1 st2 st5">Gagnez-en</tspan></text>
		<g>
			<g>
				<path class="st1" d="M870,511.7c-23.6,0-44.1,15.7-44.1,43.7c0,27.9,20.7,43.6,44.1,43.6c23.4,0,43.9-15.8,43.9-43.6
					C914,527.4,893.4,511.7,870,511.7"/>
				<path class="st1" d="M619.5,511.7c-23.6,0-44.1,15.7-44.1,43.7c0,27.9,20.8,43.6,44.1,43.6c23.4,0,44-15.8,44-43.6
					C663.5,527.4,642.9,511.7,619.5,511.7"/>
				<path class="st1" d="M970.7,514.3h-2.5v-25.6v-19.9v-10c0-63.3-51.4-114.7-114.7-114.7c-3.2,0-6.2,0.2-9.4,0.4
					c-11.4-23.1-35-38.9-62.5-38.9H598.4c-38.5,0-69.7,31.2-69.7,69.8v93.5v19.9v25.6h-11.2c-9.2,0-16.5,7.4-16.5,16.5
					c0,9.1,7.4,16.5,16.5,16.5h35.1l1-6.8c6.4-33.3,34.4-51.9,66-51.9c33.4,0,62.9,21,66.7,58.6h117c3.8-37.6,33.4-58.6,67-58.6
					c31.3,0,59.2,18.4,65.7,51.7l1,7h6.1h27.6c9.2,0,16.5-7.4,16.5-16.5C987.2,521.7,979.9,514.3,970.7,514.3 M881.2,450.7
					c-11,0-20.1-8.3-21.3-19v-59.2c43.2,0,78.2,35,78.2,78.2H881.2z"/>
			</g>
		</g>
	</g>
	<g>
		<rect x="1488" class="st1" width="1488.2" height="1488.2"/>
		<g>
			<text transform="matrix(1 0 0 1 1840.2297 804.808)"><tspan x="0" y="0" class="st6 st2 st3">avantage</tspan><tspan x="180.3" y="133.8" class="st6 st2 st3">carte</tspan></text>
		</g>
		<text transform="matrix(1.0071 0 0 1 1960.0032 1099.89)" class="st6 st4 st5">Carte castorama</text>
		<text transform="matrix(1 0 0 1 1918.8928 1169.6722)" class="st6 st2 st5">Bien accompagné, </text>
		<text transform="matrix(1 0 0 1 1890.9441 1239.4554)" class="st6 st2 st5">en avant les projets !</text>
		<g>
			<g>
				<path class="st6" d="M2438.6,417.9c-0.1-29.6-24.1-53.5-53.8-53.4l-8.1,0l30,83.1c5.6,15.6,4.9,32.4-2.2,47.4
					c-7,15-19.5,26.4-35.1,32L2173.1,598l212.5-0.6c29.6-0.1,53.5-24.2,53.4-53.8L2438.6,417.9z"/>
			</g>
			<path class="st6" d="M2390.9,453.3l-34.9-96.6l-273.3,98.8c-1.9,0.7-3.8,1-5.7,1c-6.9,0-13.4-4.3-15.9-11.2
				c-3.2-8.8,1.4-18.5,10.1-21.6l272-98.3c-8.3-12.3-22.2-20.2-37.4-20.2c-5.2,0-10.4,0.9-15.4,2.7L2055.1,393
				c-23.4,8.5-35.6,34.4-27.1,57.8l42.8,118.3c8.2,22.7,34.8,35.4,57.8,27.1l235.3-85.1c11.3-4.1,20.4-12.4,25.5-23.3
				C2394.5,476.9,2395,464.6,2390.9,453.3z"/>
		</g>
	</g>
</g>
</svg>
