<?xml version="1.0" encoding="utf-8"?>
<!-- Generator: Adobe Illustrator 26.4.0, SVG Export Plug-In . SVG Version: 6.00 Build 0)  -->
<svg version="1.1" xmlns="http://www.w3.org/2000/svg" xmlns:xlink="http://www.w3.org/1999/xlink" x="0px" y="0px"
	 viewBox="0 0 2976.2 1488.5" style="enable-background:new 0 0 2976.2 1488.5;" xml:space="preserve">
<style type="text/css">
	.st0{display:none;}
	.st1{display:inline;fill:#FFD100;}
	.st2{display:inline;}
	.st3{fill:#005CB9;}
	.st4{display:inline;fill:#005CB9;}
	.st5{display:inline;fill:#FFFFFF;}
	.st6{fill:#FFFFFF;}
	.st7{fill:#FFD100;}
	.st8{font-family:'CastoBlack-Black';}
	.st9{font-size:174.4565px;}
	.st10{font-family:'CastoRegular';}
	.st11{font-size:69.7826px;}
	.st12{fill:#FFD100;stroke:#FFFFFF;stroke-width:5;stroke-miterlimit:10;}
</style>
<g id="Calque_1">
	<g class="st0">
		<rect x="-1552" y="1985.1" class="st1" width="1488.2" height="1488.2"/>
		<text transform="matrix(1 0 0 1 -1160.8219 2789.9585)" class="st2"><tspan x="0" y="0" class="st3 st8 st9">livraison</tspan><tspan x="-69.3" y="133.8" class="st3 st8 st9">à domicile</tspan></text>
		<text transform="matrix(1 0 0 1 -1197.1466 3085.0366)" class="st2"><tspan x="0" y="0" class="st3 st10 st11">Pas de temps à perdre ?</tspan><tspan x="212.5" y="69.8" class="st3 st8 st11">Gagnez-en</tspan></text>
		<g class="st2">
			<g>
				<path class="st3" d="M-682,2496.6c-23.6,0-44.1,15.7-44.1,43.7c0,27.9,20.7,43.6,44.1,43.6c23.4,0,43.9-15.8,43.9-43.6
					C-638,2512.3-658.6,2496.6-682,2496.6"/>
				<path class="st3" d="M-932.5,2496.6c-23.6,0-44.1,15.7-44.1,43.7c0,27.9,20.8,43.6,44.1,43.6c23.4,0,44-15.8,44-43.6
					C-888.5,2512.3-909.1,2496.6-932.5,2496.6"/>
				<path class="st3" d="M-581.3,2499.1h-2.5v-25.6v-19.9v-10c0-63.3-51.4-114.7-114.7-114.7c-3.2,0-6.2,0.2-9.4,0.4
					c-11.4-23.1-35-38.9-62.5-38.9h-183.2c-38.5,0-69.7,31.2-69.7,69.8v93.5v19.9v25.6h-11.2c-9.2,0-16.5,7.4-16.5,16.5
					c0,9.1,7.4,16.5,16.5,16.5h35.1l1-6.8c6.4-33.3,34.4-51.9,66-51.9c33.4,0,62.9,21,66.7,58.6h117c3.8-37.6,33.4-58.6,67-58.6
					c31.3,0,59.2,18.4,65.7,51.7l1,7h6.1h27.6c9.2,0,16.5-7.4,16.5-16.5C-564.8,2506.5-572.1,2499.1-581.3,2499.1 M-670.8,2435.5
					c-11,0-20.1-8.3-21.3-19v-59.2c43.2,0,78.2,35,78.2,78.2H-670.8z"/>
			</g>
		</g>
	</g>
	<g class="st0">
		<rect x="77.6" y="2000.5" class="st1" width="1488.2" height="1488.2"/>
		<g class="st2">
			<text transform="matrix(1 0 0 1 488.3719 2805.342)"><tspan x="0" y="0" class="st3 st8 st9">location</tspan><tspan x="-126.5" y="133.8" class="st3 st8 st9">de véhicule</tspan></text>
		</g>
		<text transform="matrix(1 0 0 1 471.011 3100.4231)" class="st2"><tspan x="0" y="0" class="st3 st10 st11">Besoin d’un véhicule ?</tspan><tspan x="-23.4" y="69.8" class="st3 st8 st11">Louez un véhicule pour</tspan><tspan x="-8.7" y="139.6" class="st3 st8 st11">8,90€ par demi-heure</tspan></text>
		<g class="st2">
			<path class="st3" d="M733.1,2413c0.6,4.1,4.5,6.9,8.8,6.2c4.2-0.7,7.1-4.7,6.5-8.8c-4-27,14.1-53.6,42.4-61.9
				c27.3-8.1,55.2,3.3,66.5,27c1.8,3.8,6.4,5.3,10.3,3.5c0.3-0.1,0.5-0.2,0.7-0.4c3.4-2.1,4.7-6.3,3-9.8c-14.4-30.3-50-45-84.6-34.8
				C751,2344.4,727.9,2378.4,733.1,2413"/>
			<path class="st3" d="M1084.5,2491.6l-5.5-3.5c-0.6,0.7-1.3,1.3-2.2,1.7c-2.2,1.1-4.9,1-7.1-0.4c-3.4-2.2-4.3-6.7-2.1-10l0.4-0.7
				l-5.9-4.3l-0.5,0.8c-0.8,1.2-1.8,2-2.9,2.5c-2.2,1.1-4.9,1-7.1-0.4c-3.4-2.2-4.3-6.7-2.1-10l1-1.7l-6.5-4.7l-0.6,0.9
				c-0.7,1.1-1.7,2-2.9,2.5c-2.2,1.1-4.9,1-7.2-0.4c-3.3-2.1-4.3-6.6-2.2-10l1.1-1.7l-47.1-34.6c0.4-3.6-1.2-7.3-4.5-9.5
				c-2.9-1.9-6.5-2.1-9.5-0.8l-0.1-0.1c3-11.4,3.5-23.4,1.3-35.2c-3.9-21.3-15.8-39.7-33.5-52c-24-16.6-55.2-19-81.5-6.2
				c-8.1,3.9-15.4,9.2-21.8,15.6c13.4,4.9,25.1,13.2,33.6,24.6c3.7-0.4,7.6,0.2,11.1,1.8c5.4,2.4,9.5,6.7,11.5,12.2
				c4,10.5-0.7,22.6-10.8,27.5c-0.6,0.3-1.1,0.6-1.7,0.8c-5.5,2.1-11.4,1.9-16.7-0.4c-5.4-2.4-9.5-6.7-11.6-12.2
				c-1.3-3.3-1.6-6.8-1.3-10.1c-6.7-10.8-17.7-18.1-30.2-20.9c-12.3,26.6-8.9,57.6,7.8,81c-4.2,2.3-9.1,4.3-14.8,5.6
				c-5.4,1.3-10.5,1.7-15.1,1.5c-0.6-23.4-11.5-48.3-32.2-67.2c-0.5-0.4-0.9-0.8-1.4-1.2c-6.8,8.8-10.6,19.4-10.4,30.4
				c1,1.6,1.9,3.2,2.5,5c3.2,9.8-1.4,20.5-10.7,25.1c-0.8,0.4-1.7,0.8-2.7,1.1c-10.9,3.5-22.6-2.5-26.1-13.4
				c-3.1-9.6,1.3-20.3,10.3-24.9c1.3-13.9,6.6-27.1,15.1-38.4c-23.9-12.1-50.7-13.7-72.3-3.2c-7.2,3.5-13.6,8.3-18.9,14.1
				l-82.9,90.7c-27.4,30-20.4,81,15.5,113.9c28.2,25.7,66.7,33.5,95.8,19.4c7.2-3.5,13.5-8.3,18.9-14.1l82.9-90.7
				c7.7-8.4,12.6-18.5,15.1-29.4c6.3,0.4,13.2-0.1,20.7-1.9c5.9-1.4,11.1-3.3,15.8-5.6c2.4-1.2,4.7-2.5,6.7-3.8
				c2.4,2.2,5.1,4.3,7.8,6.1c24,16.6,55.2,19.1,81.5,6.3c5.7-2.8,11-6.3,15.9-10.3c0.1,3.3,1.7,6.4,4.6,8.3c3.1,2.1,6.9,2.2,10,0.7
				c0.9-0.4,1.8-1.1,2.5-1.8l34.8,19.6l14.7,9.6l1.7-2.6c2.2-3.3,6.6-4.3,10-2.1c3.4,2.2,4.3,6.6,2.2,10l-1.7,2.6l6.8,4.4l1-1.6
				c2.2-3.3,6.6-4.3,10-2.1c3.4,2.1,4.3,6.6,2.2,10l-1.1,1.6l6.2,4l0.8-1.3c2.2-3.4,6.6-4.3,10-2.1c3.4,2.1,4.3,6.6,2.2,10l-0.9,1.4
				l1.6,1c0.5,0.3,0.9,0.5,1.3,0.7l2.5,1.6c5.3,3.4,11.7,3.6,17,1c2.8-1.4,5.2-3.4,6.9-6.2
				C1094.8,2507.5,1092.5,2496.8,1084.5,2491.6"/>
		</g>
	</g>
	<g class="st0">
		<rect x="1727" y="1979.3" class="st4" width="1488.2" height="1488.2"/>
		<rect x="2147.4" y="2667.9" class="st5" width="28.6" height="116.2"/>
		<g class="st2">
			<path class="st6" d="M2190.8,2741.9c0-23.6,16.9-44.1,46.1-44.1s46.2,20.6,46.2,44.1c0,23.7-17.1,44.3-46.2,44.3
				S2190.8,2765.6,2190.8,2741.9 M2253.5,2741.9c0-10.5-5.9-18.3-16.6-18.3c-10.5,0-16.4,7.9-16.4,18.3c0,10.6,5.9,18.7,16.4,18.7
				C2247.5,2760.6,2253.5,2752.5,2253.5,2741.9"/>
			<path class="st6" d="M2293.6,2741.9c0-26.7,20.1-44.1,45.9-44.1c17.8,0,28.8,7.9,33.8,14.7l-18,17.8c-3-3.8-7.9-6.6-14.5-6.6
				c-9.6,0-18,6.3-18,18.3c0,12,8.4,18.7,18,18.7c6.5,0,11.7-3.3,14.7-6.8c6.5,6.5,11.5,11.9,17.8,18c-5.1,6.6-16.2,14.5-33.8,14.5
				C2313.6,2786.2,2293.6,2768.8,2293.6,2741.9"/>
			<path class="st6" d="M2382,2741.9c0-23.6,15.4-44.1,39.1-44.1c5.1,0,16.1,1.9,23.4,13.3h0.2v-11h28.6v84.1h-28.6v-10.6h-0.2
				c-7.3,11.3-18.1,12.7-23.4,12.7C2398.1,2786.2,2382,2765.6,2382,2741.9 M2444.7,2741.9c0-10.5-5.9-18.3-16.6-18.3
				c-10.5,0-16.4,7.9-16.4,18.3c0,10.6,5.9,18.7,16.4,18.7C2438.7,2760.6,2444.7,2752.5,2444.7,2741.9"/>
			<path class="st6" d="M2528.6,2725.1v21.3c0,7.9,2.3,14.3,14.3,14.3v25.5c-28.8,0-42.9-19.2-42.9-42.9v-18.1h-14V2700h14v-23.9
				h28.6v23.9h16.9v25.1H2528.6z"/>
			<path class="st6" d="M2558.2,2671.2c0-7.9,6.5-14,14.5-14c7.7,0,14.1,6.1,14.1,14c0,7.7-6.5,14-14.1,14
				C2564.7,2685.2,2558.2,2678.9,2558.2,2671.2 M2558.2,2700h28.6v84.1h-28.6V2700z"/>
			<path class="st6" d="M2601.7,2741.9c0-23.6,16.9-44.1,46.1-44.1s46.2,20.6,46.2,44.1c0,23.7-17.1,44.3-46.2,44.3
				S2601.7,2765.6,2601.7,2741.9 M2664.3,2741.9c0-10.5-5.9-18.3-16.6-18.3c-10.5,0-16.4,7.9-16.4,18.3c0,10.6,5.9,18.7,16.4,18.7
				C2658.4,2760.6,2664.3,2752.5,2664.3,2741.9"/>
			<path class="st6" d="M2766.2,2784.1v-46.8c0-9.9-5.4-13.8-14-13.8c-7.9,0-14.8,5.6-14.8,18.1v42.4h-28.6V2700h28.6v11
				c5.6-7.2,16.1-13.3,30.5-13.3c18.3,0,26.9,11.5,26.9,26v60.4H2766.2z"/>
			<path class="st6" d="M2011.5,2875.6c0-23.6,15.4-44.1,39.1-44.1c5.1,0,16.1,1.9,23.4,13.3h0.2v-43.1h28.6v116.2h-28.6v-10.6h-0.2
				c-7.3,11.3-18.1,12.7-23.4,12.7C2027.5,2920,2011.5,2899.4,2011.5,2875.6 M2074.1,2875.6c0-10.5-5.9-18.3-16.6-18.3
				c-10.5,0-16.4,7.9-16.4,18.3c0,10.6,5.9,18.7,16.4,18.7C2068.2,2894.3,2074.1,2886.3,2074.1,2875.6"/>
			<path class="st6" d="M2117.6,2875.6c0-24.4,18.3-44.1,44.8-44.1c23.7,0,42.2,17.8,42.2,47.6v5.2h-57.7c1.9,7,8.7,13.8,19.9,13.8
				c4.5,0,14.1-2.1,19.2-5.4l11.5,17.8c-8.2,6.5-22.3,9.4-34.2,9.4C2137.6,2920,2117.6,2903.4,2117.6,2875.6 M2162.4,2853.3
				c-10.6,0-14.7,8.4-15.7,13.4h31.2C2176.7,2860.8,2173.6,2853.3,2162.4,2853.3"/>
			<path class="st6" d="M2318.2,2917.9v-46.8c0-9.9-5.4-13.8-14-13.8c-7.9,0-14.8,5.6-14.8,18.1v42.4h-28.6v-84.1h28.6v11
				c5.6-7.2,16.1-13.3,30.5-13.3c13.4,0,21.6,6.3,24.9,15.4c5.8-7.5,15.2-15.4,32.4-15.4c18.3,0,26.9,11.5,26.9,26v60.4h-28.6v-46.8
				c0-9.9-5.4-13.8-14-13.8c-15.5,0-14.8,18.1-14.8,18.1v42.4H2318.2z"/>
			<path class="st6" d="M2419,2875.6c0-23.6,15.4-44.1,39.1-44.1c5.1,0,16.1,1.9,23.4,13.3h0.2v-11h28.6v84.1h-28.6v-10.6h-0.2
				c-7.3,11.3-18.1,12.7-23.4,12.7C2435.1,2920,2419,2899.4,2419,2875.6 M2481.6,2875.6c0-10.5-5.9-18.3-16.6-18.3
				c-10.5,0-16.4,7.9-16.4,18.3c0,10.6,5.9,18.7,16.4,18.7C2475.7,2894.3,2481.6,2886.3,2481.6,2875.6"/>
			<path class="st6" d="M2565.6,2858.9v21.3c0,7.9,2.3,14.3,14.3,14.3v25.5c-28.8,0-42.9-19.2-42.9-42.9v-18.1h-14v-25.1h14v-23.9
				h28.6v23.9h16.9v25.1H2565.6z"/>
			<path class="st6" d="M2589.1,2875.6c0-24.4,18.3-44.1,44.8-44.1c23.7,0,42.2,17.8,42.2,47.6v5.2h-57.7c1.9,7,8.7,13.8,19.9,13.8
				c4.5,0,14.1-2.1,19.2-5.4l11.5,17.8c-8.2,6.5-22.3,9.4-34.2,9.4C2609.2,2920,2589.1,2903.4,2589.1,2875.6 M2633.9,2853.3
				c-10.6,0-14.7,8.4-15.7,13.4h31.2C2648.3,2860.8,2645.1,2853.3,2633.9,2853.3 M2634.3,2798.5c2.1-1.9,4.4-3,7.2-3
				c2.3,0,4.9,1,6.8,2.8c1.9,2.1,2.8,4.5,2.8,7.2s-0.9,5.1-2.8,6.8l-11.2,11.2c-1.6,1.7-4.4,3-6.8,3c-2.6,0-5.1-1-7-3
				c-2.1-1.9-3-4.4-3-7c0-2.3,0.9-4.9,3-6.8L2634.3,2798.5z"/>
			<path class="st6" d="M2687,2917.9v-84.1h28.6v11c5.8-7.2,16.9-13.6,25.8-13.6v27.6c-1.6-0.3-3.3-0.3-5.8-0.3
				c-8.2,0-20.1,2.3-20.1,17.1v42.4H2687z"/>
			<path class="st6" d="M2754.1,2805c0-7.9,6.5-14,14.5-14c7.7,0,14.1,6.1,14.1,14c0,7.7-6.5,14-14.1,14
				C2760.6,2818.9,2754.1,2812.7,2754.1,2805 M2754.1,2833.8h28.6v84.1h-28.6V2833.8z"/>
			<path class="st6" d="M2797.6,2875.6c0-24.4,18.3-44.1,44.8-44.1c23.7,0,42.2,17.8,42.2,47.6v5.2h-57.7c1.9,7,8.7,13.8,19.9,13.8
				c4.5,0,14.1-2.1,19.2-5.4l11.5,17.8c-8.2,6.5-22.3,9.4-34.2,9.4C2817.6,2920,2797.6,2903.4,2797.6,2875.6 M2842.4,2853.3
				c-10.6,0-14.7,8.4-15.7,13.4h31.2C2856.7,2860.8,2853.6,2853.3,2842.4,2853.3"/>
			<rect x="2897.7" y="2801.7" class="st6" width="28.6" height="116.2"/>
			<path class="st6" d="M2187.2,3066.2c0,7.5-5.1,12.6-13.7,12.6h-21.6v-46.5h19.3c8.3,0,13.3,4.9,13.3,11.9c0,5.5-3.6,9.4-7.6,10.5
				C2183.1,3055.1,2187.2,3060.7,2187.2,3066.2 M2157.7,3052.4h12.4c5.4,0,8.2-3.2,8.2-7.5c0-4.2-2.8-7.5-8.2-7.5h-12.4V3052.4z
				 M2172.3,3073.6c5.4,0,8.7-3.1,8.7-8c0-4.3-3-8-8.7-8h-14.6v16H2172.3z"/>
			<path class="st6" d="M2194.4,3061.9c0-9.8,7.1-17.7,17-17.7c10.4,0,16.5,8,16.5,18.1v1.3h-27.8c0.4,6.4,4.9,11.3,12.3,11.3
				c4,0,7.7-1.5,10.4-4.3l2.9,3.8c-3.5,3.4-8.1,5.2-13.7,5.2C2201.7,3079.6,2194.4,3072.4,2194.4,3061.9 M2222.6,3059.7
				c-0.1-5-3.5-10.8-11.3-10.8c-7.3,0-11,5.7-11.2,10.8H2222.6z"/>
			<path class="st6" d="M2233.6,3074.3l2.7-3.8c2.3,2.6,6.6,4.8,11.4,4.8c5.2,0,8.2-2.4,8.2-5.8c0-8.2-21.3-3.1-21.3-15.6
				c0-5.3,4.5-9.7,12.8-9.7c5.9,0,10,2.2,12.7,4.9l-2.5,3.6c-2-2.4-5.7-4.3-10.2-4.3c-4.7,0-7.7,2.3-7.7,5.3
				c0,7.3,21.3,2.5,21.3,15.6c0,5.7-4.6,10.2-13.4,10.2C2241.8,3079.6,2237.1,3077.9,2233.6,3074.3"/>
			<path class="st6" d="M2267.6,3061.9c0-9.8,6.6-17.7,17-17.7c10.5,0,17,7.9,17,17.7c0,9.8-6.6,17.7-17,17.7
				C2274.1,3079.6,2267.6,3071.7,2267.6,3061.9 M2296,3061.9c0-6.8-4-13-11.4-13c-7.3,0-11.4,6.1-11.4,13c0,6.9,4,13,11.4,13
				C2291.9,3074.9,2296,3068.8,2296,3061.9"/>
			<path class="st6" d="M2313.4,3033.2c1.7,0,3.2,1.5,3.2,3.2c0,1.7-1.5,3.1-3.2,3.1c-1.7,0-3.1-1.4-3.1-3.1
				C2310.2,3034.7,2311.6,3033.2,2313.4,3033.2 M2310.7,3045.1h5.3v33.7h-5.3V3045.1z"/>
			<path class="st6" d="M2350.5,3078.8v-22c0-6-3.1-7.8-7.8-7.8c-4.2,0-10.2,2.9-10.2,13v16.9h-5.3v-33.7h5.3v4.9
				c2.4-2.9,7.1-5.7,12.4-5.7c7.1,0,10.9,3.6,10.9,10.9v23.7H2350.5z"/>
			<path class="st6" d="M2415.9,3032.2v46.5h-5.3v-5c-3.1,4.7-8,5.8-10.9,5.8c-10.5,0-17-8-17-17.7c0-9.8,6.6-17.7,17-17.7
				c2.7,0,7.7,1,10.9,5.9v-17.9H2415.9z M2411.1,3061.9c0-6.8-4-13-11.4-13c-7.3,0-11.4,6.1-11.4,13c0,6.9,4,13,11.4,13
				C2407.1,3074.9,2411.1,3068.8,2411.1,3061.9"/>
			<path class="st6" d="M2424.6,3061.9c0-9.8,7.1-17.7,17-17.7c10.4,0,16.5,8,16.5,18.1v1.3h-27.8c0.4,6.4,4.9,11.3,12.3,11.3
				c4,0,7.7-1.5,10.4-4.3l2.9,3.8c-3.5,3.4-8.1,5.2-13.7,5.2C2431.9,3079.6,2424.6,3072.4,2424.6,3061.9 M2452.8,3059.7
				c-0.1-5-3.5-10.8-11.3-10.8c-7.3,0-11,5.7-11.2,10.8H2452.8z"/>
			<path class="st6" d="M2536.7,3055.1v23.7h-5.2v-22.1c0-5.4-2.6-7.5-6.6-7.7c-7.3,0-11.4,4.7-11.4,9.8v20h-5.2v-22.1
				c0-6-3.1-7.8-7.7-7.8c-4.2,0-10.2,2.9-10.2,13v16.9h-5.3v-33.7h5.3v4.9c2.4-2.9,7.1-5.7,12.4-5.7c5.3,0,8.7,2,10.1,6.1
				c2.7-3.5,6.7-6.1,13-6.1C2533,3044.2,2536.7,3047.8,2536.7,3055.1"/>
			<path class="st6" d="M2578.5,3045.1v33.7h-5.3v-5c-3.1,4.7-8,5.8-10.9,5.8c-10.5,0-17-8-17-17.7c0-9.8,6.6-17.7,17-17.7
				c2.7,0,7.7,1,10.9,5.9v-5H2578.5z M2573.7,3061.9c0-6.8-4-13-11.4-13c-7.3,0-11.4,6.1-11.4,13c0,6.9,4,13,11.4,13
				C2569.7,3074.9,2573.7,3068.8,2573.7,3061.9"/>
			<path class="st6" d="M2596.5,3065.8c0,1.5,0.2,9.1,8.9,9.1v4.7c-13.8,0-14.2-11.7-14.2-13.7v-16.2h-6v-4.6h6v-9.2h5.3v9.2h8.9
				v4.6h-8.9V3065.8z"/>
			<path class="st6" d="M2610.7,3061.9c0-9.8,7.1-17.7,17-17.7c10.4,0,16.5,8,16.5,18.1v1.3h-27.8c0.4,6.3,4.9,11.3,12.3,11.3
				c4,0,7.7-1.5,10.4-4.3l2.9,3.8c-3.5,3.3-8.1,5.2-13.7,5.2C2618,3079.6,2610.7,3072.4,2610.7,3061.9 M2638.9,3059.7
				c-0.1-5-3.5-10.8-11.3-10.8c-7.3,0-11,5.7-11.2,10.8H2638.9z M2628.5,3030.7c0.5-0.5,1-0.7,1.6-0.7c0.6,0,1.2,0.2,1.7,0.7
				c0.5,0.5,0.7,1,0.7,1.6c0,0.6-0.2,1.2-0.7,1.6l-5.6,5.6c-0.4,0.4-1,0.7-1.7,0.7c-0.6,0-1.1-0.2-1.6-0.7c-0.4-0.4-0.6-1-0.6-1.6
				c0-0.6,0.2-1.2,0.6-1.6L2628.5,3030.7z"/>
			<path class="st6" d="M2670.4,3050c-0.7-0.1-1.4-0.1-2.2-0.1c-4.2,0-10.2,2-10.2,12v16.9h-5.3v-33.7h5.3v4.9
				c2.4-2.9,7.1-5.7,12.4-5.7V3050z"/>
			<path class="st6" d="M2680.1,3033.2c1.7,0,3.2,1.5,3.2,3.2c0,1.7-1.5,3.1-3.2,3.1c-1.7,0-3.1-1.4-3.1-3.1
				C2676.9,3034.7,2678.3,3033.2,2680.1,3033.2 M2677.4,3045.1h5.3v33.7h-5.3V3045.1z"/>
			<path class="st6" d="M2691.9,3061.9c0-9.8,7.1-17.7,17-17.7c10.4,0,16.5,8,16.5,18.1v1.3h-27.8c0.4,6.4,4.9,11.3,12.3,11.3
				c4,0,7.7-1.5,10.4-4.3l2.9,3.8c-3.5,3.4-8.1,5.2-13.7,5.2C2699.2,3079.6,2691.9,3072.4,2691.9,3061.9 M2720.1,3059.7
				c-0.1-5-3.5-10.8-11.3-10.8c-7.3,0-11,5.7-11.2,10.8H2720.1z"/>
			<rect x="2734" y="3032.2" class="st6" width="5.3" height="46.5"/>
			<path class="st6" d="M2780.1,3056.9v6.6c0,1.5-1.2,2.6-2.6,2.6c-1.5,0-2.6-1.1-2.6-2.6v-11.3c12.1,0,12.8-7.1,12.8-8.7v-0.3
				c0-3.5-2.7-6.5-8.3-6.5c-5.4,0-8.7,2.2-11.4,5.7l-3.6-3.8c3.4-4.4,8.7-7.1,15.4-7.1c7.8,0,14,4.2,14,11.9
				C2793.8,3048.6,2791.2,3055,2780.1,3056.9 M2777.5,3072.3c2,0,3.6,1.6,3.6,3.6c0,2-1.6,3.6-3.6,3.6s-3.6-1.5-3.6-3.6
				C2773.9,3073.9,2775.4,3072.3,2777.5,3072.3"/>
			<polygon class="st6" points="2057.5,3148.6 2057.5,3102 2063.5,3102 2063.5,3143.4 2085.5,3143.4 2085.5,3148.6 			"/>
			<path class="st6" d="M2091.2,3131.7c0-9.8,6.6-17.7,17-17.7c10.5,0,17,7.9,17,17.7c0,9.8-6.6,17.7-17,17.7
				C2097.7,3149.4,2091.2,3141.4,2091.2,3131.7 M2119.6,3131.7c0-6.8-4-13-11.4-13c-7.3,0-11.4,6.1-11.4,13c0,6.9,4,13,11.4,13
				C2115.5,3144.7,2119.6,3138.6,2119.6,3131.7"/>
			<path class="st6" d="M2133.8,3135.7v-0.3v-20.5h5.3v20.7c0,1.3,0.3,9.2,9,9.2c8.9,0,9.1-8,9.1-9.4v-20.5h5.3v20.5v0.3
				c0,2.1-0.5,13.7-14.4,13.7C2134.3,3149.4,2133.8,3137.7,2133.8,3135.7"/>
			<path class="st6" d="M2171.1,3131.7c0-9.8,7.1-17.7,17-17.7c10.4,0,16.5,8,16.5,18.1v1.3h-27.8c0.4,6.4,4.9,11.3,12.3,11.3
				c4,0,7.7-1.5,10.4-4.3l2.9,3.8c-3.5,3.3-8.1,5.2-13.7,5.2C2178.5,3149.4,2171.1,3142.2,2171.1,3131.7 M2199.3,3129.5
				c-0.1-5-3.5-10.8-11.3-10.8c-7.3,0-11,5.7-11.2,10.8H2199.3z"/>
			<polygon class="st6" points="2211.6,3148.6 2211.6,3144.4 2230.6,3119.5 2211.6,3119.5 2211.6,3114.9 2237.6,3114.9 
				2237.6,3118.8 2218.4,3144 2237.8,3144 2237.8,3148.6 			"/>
			<path class="st6" d="M2265.3,3135.7v-0.3v-20.5h5.3v20.7c0,1.3,0.3,9.2,9,9.2c8.9,0,9.1-8,9.1-9.4v-20.5h5.3v20.5v0.3
				c0,2.1-0.5,13.7-14.4,13.7C2265.8,3149.4,2265.3,3137.7,2265.3,3135.7"/>
			<path class="st6" d="M2327.9,3148.6v-22.1c0-6-3.1-7.8-7.8-7.8c-4.2,0-10.2,2.9-10.2,13v16.9h-5.3v-33.7h5.3v4.9
				c2.4-2.9,7.1-5.7,12.4-5.7c7.1,0,10.9,3.6,10.9,10.9v23.7H2327.9z"/>
			<path class="st6" d="M2360.1,3131.7c0-9.8,6.6-17.7,17-17.7c10.5,0,17,7.9,17,17.7c0,9.8-6.6,17.7-17,17.7
				C2366.7,3149.4,2360.1,3141.4,2360.1,3131.7 M2388.5,3131.7c0-6.8-4-13-11.4-13c-7.3,0-11.4,6.1-11.4,13c0,6.9,4,13,11.4,13
				C2384.5,3144.7,2388.5,3138.6,2388.5,3131.7"/>
			<path class="st6" d="M2402.7,3135.7v-0.3v-20.5h5.3v20.7c0,1.3,0.3,9.2,9,9.2c8.9,0,9.1-8,9.1-9.4v-20.5h5.3v20.5v0.3
				c0,2.1-0.5,13.7-14.4,13.7C2403.2,3149.4,2402.7,3137.7,2402.7,3135.7"/>
			<path class="st6" d="M2449.4,3135.6c0,1.5,0.2,9.1,8.9,9.1v4.7c-13.8,0-14.2-11.7-14.2-13.7v-16.2h-6v-4.6h6v-9.2h5.3v9.2h8.9
				v4.6h-8.9V3135.6z"/>
			<path class="st6" d="M2468.7,3103c1.7,0,3.2,1.5,3.2,3.2c0,1.7-1.5,3.1-3.2,3.1c-1.7,0-3.1-1.4-3.1-3.1
				C2465.5,3104.5,2466.9,3103,2468.7,3103 M2466,3114.9h5.3v33.7h-5.3V3114.9z"/>
			<rect x="2482.5" y="3102" class="st6" width="5.3" height="46.5"/>
			<path class="st6" d="M2548,3102v46.5h-5.3v-5c-3.1,4.7-8,5.8-10.9,5.8c-10.5,0-17-8-17-17.7c0-9.8,6.6-17.7,17-17.7
				c2.7,0,7.7,1,10.9,5.9V3102H2548z M2543.2,3131.7c0-6.8-4-13-11.4-13c-7.3,0-11.4,6.1-11.4,13c0,6.9,4,13,11.4,13
				C2539.2,3144.7,2543.2,3138.6,2543.2,3131.7"/>
			<path class="st6" d="M2556.7,3131.7c0-9.8,7.1-17.7,17-17.7c10.4,0,16.5,8,16.5,18.1v1.3h-27.8c0.4,6.4,4.9,11.3,12.3,11.3
				c4,0,7.7-1.5,10.4-4.3l2.9,3.8c-3.5,3.3-8.1,5.2-13.7,5.2C2564,3149.4,2556.7,3142.2,2556.7,3131.7 M2584.9,3129.5
				c-0.1-5-3.5-10.8-11.3-10.8c-7.3,0-11,5.7-11.2,10.8H2584.9z"/>
			<path class="st6" d="M2622.5,3114.9v5c3.2-4.8,8.2-5.9,10.9-5.9c10.5,0,17,7.9,17,17.7c0,9.8-6.6,17.7-17,17.7
				c-2.9,0-7.7-1.1-10.9-5.8v17.9h-5.3v-46.6H2622.5z M2644.7,3131.7c0-6.8-4-13-11.4-13c-7.3,0-11.4,6.1-11.4,13
				c0,6.9,4,13,11.4,13C2640.7,3144.7,2644.7,3138.6,2644.7,3131.7"/>
			<path class="st6" d="M2676.6,3119.8c-0.7-0.1-1.4-0.1-2.2-0.1c-4.2,0-10.2,2-10.2,12v16.9h-5.3v-33.7h5.3v4.9
				c2.4-2.9,7.1-5.7,12.4-5.7V3119.8z"/>
			<path class="st6" d="M2681.1,3131.7c0-9.8,6.6-17.7,17-17.7c10.5,0,17,7.9,17,17.7c0,9.8-6.6,17.7-17,17.7
				C2687.7,3149.4,2681.1,3141.4,2681.1,3131.7 M2709.5,3131.7c0-6.8-4-13-11.4-13c-7.3,0-11.4,6.1-11.4,13c0,6.9,4,13,11.4,13
				C2705.5,3144.7,2709.5,3138.6,2709.5,3131.7"/>
			<path class="st6" d="M2733.3,3157.6c8.5,0,8.9-7.5,8.9-9.1v-33.6h5.3v33.6c0,2.2-0.3,13.7-14.2,13.7V3157.6z M2744.8,3103
				c1.7,0,3.2,1.5,3.2,3.2c0,1.7-1.5,3.1-3.2,3.1c-1.7,0-3.1-1.4-3.1-3.1C2741.7,3104.5,2743.1,3103,2744.8,3103"/>
			<path class="st6" d="M2758.6,3135.7v-0.3v-20.5h5.3v20.7c0,1.3,0.3,9.2,9,9.2c8.9,0,9.1-8,9.1-9.4v-20.5h5.3v20.5v0.3
				c0,2.1-0.5,13.7-14.4,13.7C2759.1,3149.4,2758.6,3137.7,2758.6,3135.7"/>
			<path class="st6" d="M2795.1,3144.1l2.7-3.8c2.3,2.6,6.6,4.8,11.4,4.8c5.2,0,8.2-2.4,8.2-5.8c0-8.2-21.3-3.1-21.3-15.6
				c0-5.3,4.5-9.7,12.8-9.7c5.9,0,10,2.2,12.7,4.9l-2.5,3.6c-2-2.4-5.7-4.3-10.2-4.3c-4.7,0-7.7,2.3-7.7,5.3
				c0,7.3,21.3,2.5,21.3,15.6c0,5.7-4.6,10.2-13.4,10.2C2803.2,3149.4,2798.5,3147.7,2795.1,3144.1"/>
			<path class="st6" d="M2838.4,3135.6c0,1.5,0.2,9.1,8.9,9.1v4.7c-13.8,0-14.2-11.7-14.2-13.7v-16.2h-6v-4.6h6v-9.2h5.3v9.2h8.9
				v4.6h-8.9V3135.6z"/>
			<path class="st6" d="M2852.6,3131.7c0-9.8,7.1-17.7,17-17.7c10.4,0,16.5,8,16.5,18.1v1.3h-27.8c0.4,6.4,4.9,11.3,12.3,11.3
				c4,0,7.7-1.5,10.4-4.3l2.9,3.8c-3.5,3.3-8.1,5.2-13.7,5.2C2859.9,3149.4,2852.6,3142.2,2852.6,3131.7 M2880.8,3129.5
				c-0.1-5-3.5-10.8-11.3-10.8c-7.3,0-11,5.7-11.2,10.8H2880.8z"/>
			<rect x="2084.6" y="3171.9" class="st6" width="11.4" height="46.5"/>
			<path class="st6" d="M2102,3201.5c0-9.8,7.3-17.7,17.9-17.7c9.5,0,16.9,7.1,16.9,19v2.1h-23.1c0.8,2.8,3.5,5.5,8,5.5
				c1.8,0,5.7-0.8,7.7-2.2l4.6,7.1c-3.3,2.6-8.9,3.8-13.7,3.8C2110,3219.2,2102,3212.6,2102,3201.5 M2120,3192.5
				c-4.3,0-5.9,3.4-6.3,5.4h12.5C2125.7,3195.5,2124.4,3192.5,2120,3192.5"/>
			<path class="st6" d="M2173.8,3194.8v8.5c0,3.1,0.9,5.7,5.7,5.7v10.2c-11.5,0-17.2-7.7-17.2-17.2v-7.3h-5.6v-10h5.6v-9.6h11.4v9.6
				h6.8v10H2173.8z"/>
			<path class="st6" d="M2183.9,3201.5c0-9.8,7.3-17.7,17.9-17.7c9.5,0,16.9,7.1,16.9,19v2.1h-23.1c0.8,2.8,3.5,5.5,8,5.5
				c1.8,0,5.7-0.8,7.7-2.2l4.6,7.1c-3.3,2.6-8.9,3.8-13.7,3.8C2191.9,3219.2,2183.9,3212.6,2183.9,3201.5 M2201.8,3192.5
				c-4.3,0-5.9,3.4-6.3,5.4h12.5C2207.5,3195.5,2206.3,3192.5,2201.8,3192.5"/>
			<path class="st6" d="M2246.9,3218.3v-18.7c0-4-2.2-5.5-5.6-5.5c-3.1,0-5.9,2.2-5.9,7.3v17h-11.4v-33.6h11.4v4.4
				c2.2-2.9,6.4-5.3,12.2-5.3c5.4,0,8.7,2.5,10,6.1c2.3-3,6.1-6.1,13-6.1c7.3,0,10.7,4.6,10.7,10.4v24.1h-11.4v-18.7
				c0-4-2.2-5.5-5.6-5.5c-6.2,0-5.9,7.3-5.9,7.3v17H2246.9z"/>
			<path class="st6" d="M2300.5,3214.1L2300.5,3214.1l-0.1,17.1H2289v-46.5h11.4v4.4h0.1c2.9-4.5,7.3-5.3,9.4-5.3
				c9.5,0,15.6,8.2,15.6,17.7c0,9.5-6.4,17.7-15.6,17.7C2307.7,3219.2,2303.4,3218.6,2300.5,3214.1 M2313.6,3201.5
				c0-4.2-2.4-7.3-6.6-7.3c-4.3,0-6.6,3.1-6.6,7.3c0,4.3,2.4,7.5,6.6,7.5C2311.2,3208.9,2313.6,3205.7,2313.6,3201.5"/>
			<path class="st6" d="M2329.6,3214.3c1.5-2.7,3-5,4.5-7.7c2.9,2.1,8.3,4,11.9,4c3.1,0,4-0.8,4-2c0-1.7-2.2-2-5.2-2.4
				c-5.4-0.8-14-2.7-14-11.3c0-5.9,5.2-11.2,14.5-11.2c5.2,0,10.1,1.6,13.8,4.1c-1.4,2.7-2.7,4.7-4,7.3c-2.2-1.6-6-3.2-9.7-3.2
				c-2.2,0-3.7,0.8-3.7,2.1s2.1,1.7,4.9,2.1c5.4,0.8,14.2,2.9,14.2,11.7c0,6.6-5.8,11.4-15.4,11.4
				C2339.4,3219.2,2333.2,3217.3,2329.6,3214.3"/>
			<path class="st6" d="M2382.3,3201.5c0-9.4,6.1-17.7,15.6-17.7c2,0,6.4,0.8,9.4,5.3h0.1v-17.2h11.4v46.5h-11.4v-4.3h-0.1
				c-2.9,4.5-7.3,5.1-9.4,5.1C2388.7,3219.2,2382.3,3210.9,2382.3,3201.5 M2407.3,3201.5c0-4.2-2.4-7.3-6.6-7.3
				c-4.2,0-6.6,3.1-6.6,7.3c0,4.3,2.4,7.5,6.6,7.5C2404.9,3208.9,2407.3,3205.7,2407.3,3201.5"/>
			<path class="st6" d="M2424.7,3201.5c0-9.8,7.3-17.7,17.9-17.7c9.5,0,16.9,7.1,16.9,19v2.1h-23.1c0.8,2.8,3.5,5.5,8,5.5
				c1.8,0,5.7-0.8,7.7-2.2l4.6,7.1c-3.3,2.6-8.9,3.8-13.7,3.8C2432.7,3219.2,2424.7,3212.6,2424.7,3201.5 M2442.6,3192.5
				c-4.3,0-5.9,3.4-6.3,5.4h12.5C2448.3,3195.5,2447.1,3192.5,2442.6,3192.5"/>
			<polygon class="st6" points="2490.6,3218.3 2478.1,3184.7 2490.1,3184.7 2496.9,3205.9 2503.9,3184.7 2516,3184.7 2503.3,3218.3 
							"/>
			<path class="st6" d="M2517.4,3201.5c0-9.4,6.8-17.7,18.4-17.7c11.7,0,18.5,8.2,18.5,17.7c0,9.5-6.8,17.7-18.5,17.7
				C2524.1,3219.2,2517.4,3210.9,2517.4,3201.5 M2542.4,3201.5c0-4.2-2.4-7.3-6.6-7.3c-4.2,0-6.6,3.1-6.6,7.3c0,4.3,2.4,7.5,6.6,7.5
				C2540,3208.9,2542.4,3205.7,2542.4,3201.5"/>
			<path class="st6" d="M2558.5,3214.3c1.5-2.7,3-5,4.5-7.7c2.9,2.1,8.3,4,11.9,4c3.1,0,4-0.8,4-2c0-1.7-2.2-2-5.2-2.4
				c-5.4-0.8-14-2.7-14-11.3c0-5.9,5.2-11.2,14.5-11.2c5.2,0,10.1,1.6,13.8,4.1c-1.4,2.7-2.7,4.7-4,7.3c-2.2-1.6-6-3.2-9.7-3.2
				c-2.2,0-3.7,0.8-3.7,2.1s2.1,1.7,4.9,2.1c5.4,0.8,14.2,2.9,14.2,11.7c0,6.6-5.8,11.4-15.4,11.4
				C2568.2,3219.2,2562,3217.3,2558.5,3214.3"/>
			<path class="st6" d="M2627.3,3194.8v8.5c0,3.1,0.9,5.7,5.7,5.7v10.2c-11.5,0-17.2-7.7-17.2-17.2v-7.3h-5.6v-10h5.6v-9.6h11.4v9.6
				h6.8v10H2627.3z"/>
			<path class="st6" d="M2639.1,3218.3v-33.6h11.4v4.4c2.3-2.9,6.8-5.4,10.3-5.4v11c-0.6-0.1-1.3-0.1-2.3-0.1c-3.3,0-8,0.9-8,6.8v17
				H2639.1z"/>
			<path class="st6" d="M2664.3,3201.5c0-9.4,6.1-17.7,15.6-17.7c2,0,6.4,0.8,9.4,5.3h0.1v-4.4h11.4v33.6h-11.4v-4.3h-0.1
				c-2.9,4.5-7.3,5.1-9.4,5.1C2670.7,3219.2,2664.3,3210.9,2664.3,3201.5 M2689.3,3201.5c0-4.2-2.4-7.3-6.6-7.3
				c-4.2,0-6.6,3.1-6.6,7.3c0,4.3,2.4,7.5,6.6,7.5C2686.9,3208.9,2689.3,3205.7,2689.3,3201.5"/>
			<polygon class="st6" points="2717.1,3218.3 2704.6,3184.7 2716.5,3184.7 2723.4,3205.9 2730.3,3184.7 2742.4,3184.7 
				2729.7,3218.3 			"/>
			<path class="st6" d="M2743.8,3201.5c0-9.4,6.1-17.7,15.6-17.7c2,0,6.4,0.8,9.4,5.3h0.1v-4.4h11.4v33.6h-11.4v-4.3h-0.1
				c-2.9,4.5-7.3,5.1-9.4,5.1C2750.2,3219.2,2743.8,3210.9,2743.8,3201.5 M2768.9,3201.5c0-4.2-2.4-7.3-6.6-7.3
				c-4.2,0-6.6,3.1-6.6,7.3c0,4.3,2.4,7.5,6.6,7.5C2766.5,3208.9,2768.9,3205.7,2768.9,3201.5"/>
			<path class="st6" d="M2822.3,3184.7v17.2c0,10.1-6.6,17.2-17.2,17.2c-11.5,0-17.2-7.7-17.2-17.2v-17.2h11.4v18.5
				c0,3.1,0.9,5.7,5.7,5.7c4.7,0,5.7-2.6,5.7-5.7v-18.5H2822.3z"/>
			<path class="st6" d="M2849.7,3218.3l-5.6-9.8l-5.7,9.8h-12.3l10.6-17.3l-10-16.3h12.5l4.8,8.8c1.4-2.7,3.4-6.1,4.8-8.8h12.4
				l-10,16.3l10.8,17.3H2849.7z"/>
			<path class="st7" d="M3000.9,2327.7c0,81.9-66.4,148.4-148.4,148.4c-81.9,0-148.4-66.4-148.4-148.4
				c0-81.9,66.4-148.4,148.4-148.4C2934.4,2179.4,3000.9,2245.8,3000.9,2327.7"/>
			<path class="st6" d="M2622.8,2481.6c-5.7-19.2-18.6-35-36.2-44.5c-9.1-4.9-19.1-7.8-29.3-8.6v-10.5h7c3.5,0,6.3-2.8,6.3-6.3
				c0-3.5-2.8-6.3-6.3-6.3h-26.7c-3.5,0-6.3,2.8-6.3,6.3c0,3.5,2.8,6.3,6.3,6.3h7v10.4c-4.4,0.4-8.8,1.1-13.1,2.3
				c-3.4,0.9-5.4,4.4-4.5,7.7c0.9,3.4,4.4,5.4,7.7,4.5c5.2-1.4,10.6-2.1,15.9-2.1c10.2,0.2,20.7,2.6,29.8,7.5
				c14.6,7.9,25.3,21.1,30.1,37c4.8,16,3,32.8-4.9,47.5c-7.9,14.6-21.1,25.3-37,30.1c-16,4.7-32.8,3-47.5-4.9
				c-30.2-16.3-41.5-54.2-25.2-84.5c0.4-0.8,1-1.6,1.5-2.4l2.4,12.5c0.6,3,3.2,5.1,6.2,5.1c0.4,0,0.8,0,1.2-0.1
				c3.4-0.6,5.7-3.9,5-7.4l-5-26.6c0-0.2-0.2-0.4-0.2-0.6c-0.1-0.4-0.3-0.8-0.5-1.2c-0.2-0.4-0.4-0.7-0.7-1
				c-0.2-0.2-0.2-0.4-0.4-0.6c-0.1-0.1-0.3-0.2-0.4-0.3c-0.3-0.3-0.7-0.5-1.1-0.7c-0.3-0.2-0.7-0.3-1-0.5c-0.4-0.1-0.8-0.2-1.2-0.2
				c-0.4,0-0.8-0.1-1.2,0c-0.2,0-0.4,0-0.5,0l-26.6,5c-3.4,0.7-5.7,3.9-5,7.4c0.7,3.4,4,5.7,7.4,5l10.8-2.1
				c-0.5,0.8-1.1,1.6-1.5,2.4c-19.6,36.4-6.1,81.9,30.3,101.6c11.1,6,23.3,9.1,35.5,9.1c7.2,0,14.4-1,21.5-3.2
				c19.2-5.7,35-18.6,44.5-36.2C2626.4,2521,2628.5,2500.8,2622.8,2481.6"/>
			<path class="st6" d="M2592.2,2525.3c12.3-22.8,3.8-51.2-18.9-63.5c-7.1-3.8-14.7-5.7-22.3-5.6v46.9l-33.1,33.2
				c3.1,3.1,6.8,5.9,10.8,8.1C2551.4,2556.5,2579.8,2548.1,2592.2,2525.3"/>
			<path class="st6" d="M2544.7,2313.8h17.7l11-3.5c0.5-0.2,1.1-0.2,1.7-0.1l16.5,2.4c1.8,0.3,3.2,1.8,3.2,3.7v10.7
				c0,1.9-1.4,3.4-3.2,3.7l-16.5,2.4c-0.2,0-0.4,0-0.5,0c-0.4,0-0.7-0.1-1.1-0.2l-11-3.3h-17.7V2313.8z"/>
			<path class="st6" d="M2495.4,2346.4v-49.2h24.5c6.5,0,12.7,2.6,17.3,7.2v34.8c-4.6,4.6-10.8,7.2-17.3,7.2H2495.4z"/>
			<path class="st6" d="M2332,2461.3c-1.3,0-2.6,0.1-3.8,0.3l26.7-96.5c1.6,0.2,3.2,0.3,4.9,0.3h41c0,2.4-0.3,5.1-1.1,7.7
				c-1.2,3.8-3.8,6.1-6.5,8.5c-2.9,2.6-5.9,5.3-7,9.6c-0.9,3.3,0.7,6.5,2,9.3c1.1,2.3,2.2,4.6,1.7,6.1c-0.7,1.9-2.3,2.9-4.7,4.4
				c-2.5,1.5-5.7,3.5-7,7.3c-1.2,3.7,0,7.4,1.2,11c1.1,3.2,2.1,6.2,1.2,8.5c-0.9,2.4-3.3,3.7-6.1,5.2c-3.1,1.7-6.7,3.6-8,7.8
				c-1,3-0.1,7,1.1,10.3H2332z"/>
			<path class="st6" d="M2487.9,2358.1v-73.6h-128.2c-20.2,0-36.6,16.4-36.6,36.6v0.4c0,20.2,16.4,36.6,36.6,36.6H2487.9z"/>
			<path class="st6" d="M2391.2,2545.4H2332c-8.6,0-15.7-7-15.7-15.7v-45.3c0-8.6,7-15.7,15.7-15.7h59.3c8.6,0,15.7,7,15.7,15.7
				v45.3C2406.9,2538.4,2399.9,2545.4,2391.2,2545.4"/>
			<path class="st3" d="M2767.4,2390.5c1.8-0.3,4.2-0.6,7.3-0.6c3.8,0,6.5,0.9,8.2,2.4c1.6,1.4,2.6,3.5,2.6,6.1
				c0,2.7-0.8,4.8-2.3,6.3c-2,2.1-5.3,3.2-9,3.2c-1.1,0-2.2,0-3.1-0.3v11.8h-3.8V2390.5z M2771.2,2404.7c0.8,0.2,1.9,0.3,3.1,0.3
				c4.6,0,7.4-2.2,7.4-6.3c0-3.9-2.7-5.8-6.9-5.8c-1.7,0-2.9,0.1-3.6,0.3V2404.7z"/>
			<path class="st3" d="M2791.7,2410.3l-3.1,9.2h-3.9l10-29.4h4.6l10,29.4h-4.1l-3.1-9.2H2791.7z M2801.3,2407.3l-2.9-8.5
				c-0.7-1.9-1.1-3.7-1.5-5.4h-0.1c-0.4,1.7-0.9,3.5-1.5,5.3l-2.9,8.5H2801.3z"/>
			<path class="st3" d="M2813.6,2390.5c1.9-0.4,4.7-0.6,7.3-0.6c4.1,0,6.7,0.7,8.5,2.4c1.5,1.3,2.3,3.3,2.3,5.6
				c0,3.9-2.4,6.5-5.5,7.5v0.1c2.3,0.8,3.6,2.9,4.3,5.9c1,4.1,1.7,6.9,2.3,8.1h-3.9c-0.5-0.8-1.1-3.4-2-7c-0.9-4.1-2.4-5.6-5.9-5.7
				h-3.6v12.7h-3.8V2390.5z M2817.4,2403.9h3.9c4.1,0,6.6-2.2,6.6-5.6c0-3.8-2.7-5.5-6.8-5.5c-1.8,0-3.1,0.2-3.8,0.3V2403.9z"/>
			<path class="st3" d="M2852.4,2390.1h3.8v19.7c0,7.8-3.8,10.2-8.9,10.2c-1.4,0-3.1-0.3-4.1-0.7l0.6-3.1c0.8,0.3,1.9,0.6,3.2,0.6
				c3.4,0,5.4-1.5,5.4-7.3V2390.1z"/>
			<path class="st3" d="M2887.6,2404.5c0,10.1-6.2,15.5-13.7,15.5c-7.8,0-13.2-6-13.2-14.9c0-9.3,5.8-15.4,13.6-15.4
				C2882.4,2389.6,2887.6,2395.8,2887.6,2404.5 M2864.8,2405c0,6.3,3.4,11.9,9.4,11.9c6,0,9.4-5.5,9.4-12.2c0-5.8-3.1-11.9-9.4-11.9
				C2867.9,2392.7,2864.8,2398.5,2864.8,2405"/>
			<path class="st3" d="M2896.3,2390.1v17.4c0,6.6,2.9,9.4,6.8,9.4c4.4,0,7.2-2.9,7.2-9.4v-17.4h3.8v17.1c0,9-4.8,12.7-11.1,12.7
				c-6,0-10.6-3.4-10.6-12.6v-17.3H2896.3z"/>
			<path class="st3" d="M2920.8,2390.5c1.9-0.4,4.7-0.6,7.3-0.6c4.1,0,6.7,0.7,8.5,2.4c1.5,1.3,2.3,3.3,2.3,5.6
				c0,3.9-2.4,6.5-5.5,7.5v0.1c2.3,0.8,3.6,2.9,4.3,5.9c1,4.1,1.7,6.9,2.3,8.1h-3.9c-0.5-0.8-1.1-3.4-2-7c-0.9-4.1-2.4-5.6-5.9-5.7
				h-3.6v12.7h-3.8V2390.5z M2924.6,2403.9h3.9c4.1,0,6.6-2.2,6.6-5.6c0-3.8-2.7-5.5-6.8-5.5c-1.8,0-3.1,0.2-3.8,0.3V2403.9z"/>
			<polygon class="st3" points="2789.6,2379.5 2789.6,2303.5 2771.8,2321.2 2759,2307.9 2792.6,2274.8 2812.4,2274.8 2812.4,2379.5 
							"/>
			<path class="st3" d="M2823.7,2327.2c0-27,13.7-54,44.3-54c30.6,0,44.3,27,44.3,54c0,27-13.7,54.2-44.3,54.2
				C2837.3,2381.4,2823.7,2354.2,2823.7,2327.2 M2889,2327.2c0-19.3-5.7-34.2-21-34.2c-15.2,0-21,14.9-21,34.2
				c0,19.3,5.8,34.4,21,34.4C2883.2,2361.6,2889,2346.5,2889,2327.2"/>
			<path class="st3" d="M2914.1,2286.3h2.3c3.6-11.2,14.2-18.4,27.2-18.4c11.7,0,18.5,6.2,22.3,12.8l-9.8,4.7
				c-2.2-4.2-7.1-7.6-12.5-7.6c-6.6,0-11.9,3.3-14.8,8.5h17.6c1.7,0,3.1,1.4,3.1,3.1c0,1.7-1.4,3.1-3.1,3.1h-19.5
				c-0.2,0.9-0.2,1.6-0.2,2.5c0,0.8,0,1.6,0.1,2.3h19.5c1.7,0,3.1,1.4,3.1,3.1s-1.4,3.1-3.1,3.1h-17.7c2.7,5.3,8.1,8.7,14.8,8.7
				c5.4,0,10.3-3.4,12.5-7.6l9.8,4.6c-3.8,6.5-10.6,12.9-22.3,12.9c-13.1,0-23.8-7.2-27.3-18.6h-2.2c-1.7,0-3.1-1.3-3.1-3.1
				s1.3-3.1,3.1-3.1h1.1c-0.1-0.7-0.1-1.5-0.1-2.3c0-0.9,0-1.6,0.1-2.5h-1.1c-1.7,0-3.1-1.3-3.1-3.1
				C2911,2287.7,2912.3,2286.3,2914.1,2286.3"/>
			<path class="st3" d="M2766.7,2253.9l-2.4,7.4h-3.1l8-23.5h3.7l8,23.5h-3.2l-2.5-7.4H2766.7z M2769.6,2232.5l3.2,4h-2.5l-4.5-4
				H2769.6z M2774.4,2251.6l-2.3-6.8c-0.5-1.5-0.9-2.9-1.2-4.3h-0.1c-0.3,1.4-0.7,2.8-1.2,4.3l-2.3,6.8H2774.4z"/>
			<path class="st3" d="M2791.7,2238.1c1.5-0.2,3.4-0.5,5.8-0.5c3,0,5.2,0.7,6.6,2c1.3,1.1,2.1,2.8,2.1,4.9c0,2.1-0.6,3.8-1.8,5
				c-1.6,1.7-4.2,2.6-7.2,2.6c-0.9,0-1.7,0-2.4-0.2v9.4h-3V2238.1z M2794.7,2249.4c0.7,0.2,1.5,0.2,2.5,0.2c3.7,0,5.9-1.8,5.9-5
				c0-3.1-2.2-4.6-5.5-4.6c-1.3,0-2.3,0.1-2.9,0.2V2249.4z"/>
			<path class="st3" d="M2811.1,2253.9l-2.4,7.4h-3.1l8-23.5h3.7l8,23.5h-3.2l-2.5-7.4H2811.1z M2818.8,2251.6l-2.3-6.8
				c-0.5-1.5-0.9-2.9-1.2-4.3h-0.1c-0.3,1.4-0.7,2.8-1.2,4.3l-2.3,6.8H2818.8z"/>
			<path class="st3" d="M2828.7,2238.1c1.5-0.3,3.7-0.5,5.8-0.5c3.2,0,5.3,0.6,6.8,1.9c1.2,1,1.8,2.7,1.8,4.5c0,3.1-2,5.2-4.4,6v0.1
				c1.8,0.6,2.9,2.3,3.5,4.7c0.8,3.3,1.3,5.5,1.8,6.5h-3.1c-0.4-0.7-0.9-2.7-1.6-5.6c-0.7-3.2-2-4.5-4.7-4.6h-2.9v10.2h-3V2238.1z
				 M2831.7,2248.8h3.1c3.2,0,5.3-1.8,5.3-4.5c0-3-2.2-4.4-5.4-4.4c-1.5,0-2.5,0.1-3,0.3V2248.8z"/>
			<polygon class="st3" points="2852.2,2240.4 2845.1,2240.4 2845.1,2237.8 2862.5,2237.8 2862.5,2240.4 2855.3,2240.4 
				2855.3,2261.3 2852.2,2261.3 			"/>
			<rect x="2865.1" y="2237.8" class="st3" width="3" height="23.5"/>
			<path class="st3" d="M2873.4,2238.1c1.5-0.3,3.7-0.5,5.8-0.5c3.2,0,5.3,0.6,6.8,1.9c1.2,1,1.8,2.7,1.8,4.5c0,3.1-2,5.2-4.4,6v0.1
				c1.8,0.6,2.9,2.3,3.5,4.7c0.8,3.3,1.3,5.5,1.8,6.5h-3.1c-0.4-0.7-0.9-2.7-1.6-5.6c-0.7-3.2-2-4.5-4.7-4.6h-2.9v10.2h-3V2238.1z
				 M2876.5,2248.8h3.1c3.2,0,5.3-1.8,5.3-4.5c0-3-2.2-4.4-5.4-4.4c-1.5,0-2.5,0.1-3,0.3V2248.8z"/>
			<path class="st3" d="M2899.6,2238.1c1.8-0.3,4-0.5,6.5-0.5c4.4,0,7.5,1,9.5,2.9c2.1,1.9,3.3,4.6,3.3,8.4c0,3.8-1.2,7-3.4,9.1
				c-2.2,2.2-5.8,3.4-10.4,3.4c-2.2,0-4-0.1-5.5-0.3V2238.1z M2902.6,2258.9c0.8,0.1,1.9,0.2,3.1,0.2c6.5,0,10-3.6,10-10
				c0-5.5-3.1-9.1-9.5-9.1c-1.6,0-2.8,0.1-3.6,0.3V2258.9z"/>
			<polygon class="st3" points="2935,2250.3 2925.9,2250.3 2925.9,2258.8 2936.1,2258.8 2936.1,2261.3 2922.8,2261.3 2922.8,2237.8 
				2935.5,2237.8 2935.5,2240.4 2925.9,2240.4 2925.9,2247.8 2935,2247.8 			"/>
		</g>
	</g>
	<g>
		<rect y="0.1" class="st3" width="1488.2" height="1488.2"/>
		<g>
			<text transform="matrix(1 0 0 1 352.183 804.9572)"><tspan x="0" y="0" class="st6 st8 st9">avantage</tspan><tspan x="180.3" y="133.8" class="st6 st8 st9">carte</tspan></text>
		</g>
		<text transform="matrix(1.0071 0 0 1 471.9564 1100.0393)" class="st6 st10 st11">Carte castorama</text>
		<text transform="matrix(1 0 0 1 430.8461 1169.8215)" class="st6 st8 st11">Bien accompagné, </text>
		<text transform="matrix(1 0 0 1 402.8973 1239.6047)" class="st6 st8 st11">en avant les projets !</text>
		<g>
			<g>
				<path class="st6" d="M950.6,418c-0.1-29.6-24.1-53.5-53.8-53.4l-8.1,0l30,83.1c5.6,15.6,4.9,32.4-2.2,47.4
					c-7,15-19.5,26.4-35.1,32L685,598.2l212.5-0.6c29.6-0.1,53.5-24.2,53.4-53.8L950.6,418z"/>
			</g>
			<path class="st6" d="M902.9,453.4l-34.9-96.6l-273.3,98.8c-1.9,0.7-3.8,1-5.7,1c-6.9,0-13.4-4.3-15.9-11.2
				c-3.2-8.8,1.4-18.5,10.1-21.6l272-98.3c-8.3-12.3-22.2-20.2-37.4-20.2c-5.2,0-10.4,0.9-15.4,2.7L567,393.1
				c-23.4,8.5-35.6,34.4-27.1,57.8l42.8,118.3c8.2,22.7,34.8,35.4,57.8,27.1l235.3-85.1c11.3-4.1,20.4-12.4,25.5-23.3
				C906.4,477,907,464.7,902.9,453.4z"/>
		</g>
	</g>
	<g>
		<rect x="1488" y="0.1" class="st3" width="1488.2" height="1488.2"/>
		<g>
			<text transform="matrix(1 0 0 1 1840.2297 804.9572)"><tspan x="0" y="0" class="st6 st8 st9">avantage</tspan><tspan x="180.3" y="133.8" class="st6 st8 st9">carte</tspan></text>
		</g>
		<text transform="matrix(1.0071 0 0 1 1960.0032 1100.0393)" class="st6 st10 st11">Carte castorama</text>
		<text transform="matrix(1 0 0 1 1918.8928 1169.8215)" class="st6 st8 st11">Bien accompagné, </text>
		<text transform="matrix(1 0 0 1 1890.9441 1239.6047)" class="st6 st8 st11">en avant les projets !</text>
		<g>
			<g>
				<path class="st6" d="M2438.6,418c-0.1-29.6-24.1-53.5-53.8-53.4l-8.1,0l30,83.1c5.6,15.6,4.9,32.4-2.2,47.4
					c-7,15-19.5,26.4-35.1,32l-196.5,71.1l212.5-0.6c29.6-0.1,53.5-24.2,53.4-53.8L2438.6,418z"/>
			</g>
			<path class="st6" d="M2390.9,453.4l-34.9-96.6l-273.3,98.8c-1.9,0.7-3.8,1-5.7,1c-6.9,0-13.4-4.3-15.9-11.2
				c-3.2-8.8,1.4-18.5,10.1-21.6l272-98.3c-8.3-12.3-22.2-20.2-37.4-20.2c-5.2,0-10.4,0.9-15.4,2.7l-235.3,85.1
				c-23.4,8.5-35.6,34.4-27.1,57.8l42.8,118.3c8.2,22.7,34.8,35.4,57.8,27.1l235.3-85.1c11.3-4.1,20.4-12.4,25.5-23.3
				C2394.5,477,2395,464.7,2390.9,453.4z"/>
		</g>
	</g>
</g>
<g id="Calque_2">
	<line class="st12" x1="1488" y1="1488.3" x2="1488" y2="0.1"/>
</g>
</svg>
