<?xml version="1.0" encoding="utf-8"?>
<!-- Generator: Adobe Illustrator 26.4.0, SVG Export Plug-In . SVG Version: 6.00 Build 0)  -->
<svg version="1.1" id="Calque_1" xmlns="http://www.w3.org/2000/svg" xmlns:xlink="http://www.w3.org/1999/xlink" x="0px" y="0px"
	 viewBox="0 0 2976.2 1488.5" style="enable-background:new 0 0 2976.2 1488.5;" xml:space="preserve">
<style type="text/css">
	.st0{fill:#FFD100;}
	.st1{fill:#005CB9;}
	.st2{font-family:'CastoBlack-Black';}
	.st3{font-size:174.4565px;}
	.st4{font-family:'CastoRegular';}
	.st5{font-size:69.7826px;}
	.st6{display:none;}
	.st7{display:inline;fill:#005CB9;}
	.st8{display:inline;fill:#FFFFFF;}
	.st9{display:inline;}
	.st10{fill:#FFFFFF;}
	.st11{fill:#FFD100;stroke:#FFFFFF;stroke-width:5;stroke-miterlimit:10;}
</style>
<g>
	<rect x="1488" y="0.1" class="st0" width="1488.2" height="1488.2"/>
	<g>
		<text transform="matrix(1 0 0 1 1898.8494 804.9582)"><tspan x="0" y="0" class="st1 st2 st3">location</tspan><tspan x="-126.5" y="133.8" class="st1 st2 st3">de véhicule</tspan></text>
	</g>
	<text transform="matrix(1 0 0 1 1881.4885 1100.0393)"><tspan x="0" y="0" class="st1 st4 st5">Besoin d’un véhicule ?</tspan><tspan x="-23.4" y="69.8" class="st1 st2 st5">Louez un véhicule pour</tspan><tspan x="-8.7" y="139.6" class="st1 st2 st5">8,90€ par demi-heure</tspan></text>
	<g>
		<path class="st1" d="M2143.6,412.6c0.6,4.1,4.5,6.9,8.8,6.2c4.2-0.7,7.1-4.7,6.5-8.8c-4-27,14.1-53.6,42.4-61.9
			c27.3-8.1,55.2,3.3,66.5,27c1.8,3.8,6.4,5.3,10.3,3.5c0.3-0.1,0.5-0.2,0.7-0.4c3.4-2.1,4.7-6.3,3-9.8c-14.4-30.3-50-45-84.6-34.8
			C2161.4,344,2138.4,378,2143.6,412.6"/>
		<path class="st1" d="M2495,491.2l-5.5-3.5c-0.6,0.7-1.3,1.3-2.2,1.7c-2.2,1.1-4.9,1-7.1-0.4c-3.4-2.2-4.3-6.7-2.1-10l0.4-0.7
			l-5.9-4.3l-0.5,0.8c-0.8,1.2-1.8,2-2.9,2.5c-2.2,1.1-4.9,1-7.1-0.4c-3.4-2.2-4.3-6.7-2.1-10l1-1.7l-6.5-4.7l-0.6,0.9
			c-0.7,1.1-1.7,2-2.9,2.5c-2.2,1.1-4.9,1-7.2-0.4c-3.3-2.1-4.3-6.6-2.2-10l1.1-1.7l-47.1-34.6c0.4-3.6-1.2-7.3-4.5-9.5
			c-2.9-1.9-6.5-2.1-9.5-0.8l-0.1-0.1c3-11.4,3.5-23.4,1.3-35.2c-3.9-21.3-15.8-39.7-33.5-52c-24-16.6-55.2-19-81.5-6.2
			c-8.1,3.9-15.4,9.2-21.8,15.6c13.4,4.9,25.1,13.2,33.6,24.6c3.7-0.4,7.6,0.2,11.1,1.8c5.4,2.4,9.5,6.7,11.5,12.2
			c4,10.5-0.7,22.6-10.8,27.5c-0.6,0.3-1.1,0.6-1.7,0.8c-5.5,2.1-11.4,1.9-16.7-0.4c-5.4-2.4-9.5-6.7-11.6-12.2
			c-1.3-3.3-1.6-6.8-1.3-10.1c-6.7-10.8-17.7-18.1-30.2-20.9c-12.3,26.6-8.9,57.6,7.8,81c-4.2,2.3-9.1,4.3-14.8,5.6
			c-5.4,1.3-10.5,1.7-15.1,1.5c-0.6-23.4-11.5-48.3-32.2-67.2c-0.5-0.4-0.9-0.8-1.4-1.2c-6.8,8.8-10.6,19.4-10.4,30.4
			c1,1.6,1.9,3.2,2.5,5c3.2,9.8-1.4,20.5-10.7,25.1c-0.8,0.4-1.7,0.8-2.7,1.1c-10.9,3.5-22.6-2.5-26.1-13.4
			c-3.1-9.6,1.3-20.3,10.3-24.9c1.3-13.9,6.6-27.1,15.1-38.4c-23.9-12.1-50.7-13.7-72.3-3.2c-7.2,3.5-13.6,8.3-18.9,14.1l-82.9,90.7
			c-27.4,30-20.4,81,15.5,113.9c28.2,25.7,66.7,33.5,95.8,19.4c7.2-3.5,13.5-8.3,18.9-14.1l82.9-90.7c7.7-8.4,12.6-18.5,15.1-29.4
			c6.3,0.4,13.2-0.1,20.7-1.9c5.9-1.4,11.1-3.3,15.8-5.6c2.4-1.2,4.7-2.5,6.7-3.8c2.4,2.2,5.1,4.3,7.8,6.1
			c24,16.6,55.2,19.1,81.5,6.3c5.7-2.8,11-6.3,15.9-10.3c0.1,3.3,1.7,6.4,4.6,8.3c3.1,2.1,6.9,2.2,10,0.7c0.9-0.4,1.8-1.1,2.5-1.8
			l34.8,19.6l14.7,9.6l1.7-2.6c2.2-3.3,6.6-4.3,10-2.1c3.4,2.2,4.3,6.6,2.2,10l-1.7,2.6l6.8,4.4l1-1.6c2.2-3.3,6.6-4.3,10-2.1
			c3.4,2.1,4.3,6.6,2.2,10l-1.1,1.6l6.2,4l0.8-1.3c2.2-3.4,6.6-4.3,10-2.1c3.4,2.1,4.3,6.6,2.2,10l-0.9,1.4l1.6,1
			c0.5,0.3,0.9,0.5,1.3,0.7l2.5,1.6c5.3,3.4,11.7,3.6,17,1c2.8-1.4,5.2-3.4,6.9-6.2C2505.3,507.2,2503,496.4,2495,491.2"/>
	</g>
</g>
<g>
	<rect y="0.3" class="st0" width="1488.2" height="1488.2"/>
	<text transform="matrix(1 0 0 1 391.178 805.1078)"><tspan x="0" y="0" class="st1 st2 st3">livraison</tspan><tspan x="-69.3" y="133.8" class="st1 st2 st3">à domicile</tspan></text>
	<text transform="matrix(1 0 0 1 354.8533 1100.1859)"><tspan x="0" y="0" class="st1 st4 st5">Pas de temps à perdre ?</tspan><tspan x="212.5" y="69.8" class="st1 st2 st5">Gagnez-en</tspan></text>
	<g>
		<g>
			<path class="st1" d="M870,511.7c-23.6,0-44.1,15.7-44.1,43.7c0,27.9,20.7,43.6,44.1,43.6c23.4,0,43.9-15.8,43.9-43.6
				C914,527.4,893.4,511.7,870,511.7"/>
			<path class="st1" d="M619.5,511.7c-23.6,0-44.1,15.7-44.1,43.7c0,27.9,20.8,43.6,44.1,43.6c23.4,0,44-15.8,44-43.6
				C663.5,527.4,642.9,511.7,619.5,511.7"/>
			<path class="st1" d="M970.7,514.3h-2.5v-25.6v-19.9v-10c0-63.3-51.4-114.7-114.7-114.7c-3.2,0-6.2,0.2-9.4,0.4
				c-11.4-23.1-35-38.9-62.5-38.9H598.4c-38.5,0-69.7,31.2-69.7,69.8v93.5v19.9v25.6h-11.2c-9.2,0-16.5,7.4-16.5,16.5
				c0,9.1,7.4,16.5,16.5,16.5h35.1l1-6.8c6.4-33.3,34.4-51.9,66-51.9c33.4,0,62.9,21,66.7,58.6h117c3.8-37.6,33.4-58.6,67-58.6
				c31.3,0,59.2,18.4,65.7,51.7l1,7h6.1h27.6c9.2,0,16.5-7.4,16.5-16.5C987.2,521.7,979.9,514.3,970.7,514.3 M881.2,450.7
				c-11,0-20.1-8.3-21.3-19v-59.2c43.2,0,78.2,35,78.2,78.2H881.2z"/>
		</g>
	</g>
</g>
<g class="st6">
	<rect x="3290" y="-1355.9" class="st7" width="1488.2" height="1488.2"/>
	<rect x="3710.4" y="-667.2" class="st8" width="28.6" height="116.2"/>
	<g class="st9">
		<path class="st10" d="M3753.9-593.3c0-23.6,16.9-44.1,46.1-44.1s46.2,20.6,46.2,44.1c0,23.7-17.1,44.3-46.2,44.3
			S3753.9-569.5,3753.9-593.3 M3816.5-593.3c0-10.5-5.9-18.3-16.6-18.3c-10.5,0-16.4,7.9-16.4,18.3c0,10.6,5.9,18.7,16.4,18.7
			C3810.6-574.6,3816.5-582.6,3816.5-593.3"/>
		<path class="st10" d="M3856.6-593.3c0-26.7,20.1-44.1,45.9-44.1c17.8,0,28.8,7.9,33.8,14.7l-18,17.8c-3-3.8-7.9-6.6-14.5-6.6
			c-9.6,0-18,6.3-18,18.3s8.4,18.7,18,18.7c6.5,0,11.7-3.3,14.7-6.8c6.5,6.5,11.5,11.9,17.8,18c-5.1,6.6-16.2,14.5-33.8,14.5
			C3876.7-548.9,3856.6-566.4,3856.6-593.3"/>
		<path class="st10" d="M3945.1-593.3c0-23.6,15.4-44.1,39.1-44.1c5.1,0,16.1,1.9,23.4,13.3h0.2v-11h28.6v84.1h-28.6v-10.6h-0.2
			c-7.3,11.3-18.1,12.7-23.4,12.7C3961.1-548.9,3945.1-569.5,3945.1-593.3 M4007.7-593.3c0-10.5-5.9-18.3-16.6-18.3
			c-10.5,0-16.4,7.9-16.4,18.3c0,10.6,5.9,18.7,16.4,18.7C4001.8-574.6,4007.7-582.6,4007.7-593.3"/>
		<path class="st10" d="M4091.6-610v21.3c0,7.8,2.3,14.3,14.3,14.3v25.5c-28.8,0-42.9-19.2-42.9-42.9V-610h-14v-25.1h14V-659h28.6
			v23.9h16.9v25.1H4091.6z"/>
		<path class="st10" d="M4121.3-663.9c0-7.8,6.5-14,14.5-14c7.7,0,14.1,6.1,14.1,14c0,7.7-6.5,14-14.1,14
			C4127.7-650,4121.3-656.2,4121.3-663.9 M4121.3-635.1h28.6v84.1h-28.6V-635.1z"/>
		<path class="st10" d="M4164.7-593.3c0-23.6,16.9-44.1,46.1-44.1c29.1,0,46.2,20.6,46.2,44.1c0,23.7-17.1,44.3-46.2,44.3
			C4181.6-548.9,4164.7-569.5,4164.7-593.3 M4227.3-593.3c0-10.5-5.9-18.3-16.6-18.3c-10.5,0-16.4,7.9-16.4,18.3
			c0,10.6,5.9,18.7,16.4,18.7C4221.4-574.6,4227.3-582.6,4227.3-593.3"/>
		<path class="st10" d="M4329.2-551v-46.8c0-9.9-5.4-13.8-14-13.8c-7.9,0-14.8,5.6-14.8,18.1v42.4h-28.6v-84.1h28.6v11
			c5.6-7.2,16.1-13.3,30.5-13.3c18.3,0,26.9,11.5,26.9,26v60.4H4329.2z"/>
		<path class="st10" d="M3574.5-459.5c0-23.6,15.4-44.1,39.1-44.1c5.1,0,16.1,1.9,23.4,13.3h0.2v-43.1h28.6v116.2h-28.6v-10.6h-0.2
			c-7.3,11.3-18.1,12.7-23.4,12.7C3590.6-415.2,3574.5-435.8,3574.5-459.5 M3637.2-459.5c0-10.5-5.9-18.3-16.6-18.3
			c-10.5,0-16.4,7.9-16.4,18.3c0,10.6,5.9,18.7,16.4,18.7C3631.2-440.8,3637.2-448.9,3637.2-459.5"/>
		<path class="st10" d="M3680.6-459.5c0-24.4,18.3-44.1,44.8-44.1c23.7,0,42.2,17.8,42.2,47.6v5.2h-57.7c1.9,7,8.7,13.8,19.9,13.8
			c4.5,0,14.1-2.1,19.2-5.4l11.5,17.8c-8.2,6.5-22.3,9.4-34.2,9.4C3700.7-415.2,3680.6-431.8,3680.6-459.5 M3725.4-481.8
			c-10.6,0-14.7,8.4-15.7,13.4h31.2C3739.8-474.3,3736.6-481.8,3725.4-481.8"/>
		<path class="st10" d="M3881.2-417.3V-464c0-9.9-5.4-13.8-14-13.8c-7.9,0-14.8,5.6-14.8,18.1v42.4h-28.6v-84.1h28.6v11
			c5.6-7.2,16.1-13.3,30.5-13.3c13.4,0,21.6,6.3,24.9,15.4c5.8-7.5,15.2-15.4,32.4-15.4c18.3,0,26.9,11.5,26.9,26v60.4h-28.6V-464
			c0-9.9-5.4-13.8-14-13.8c-15.5,0-14.8,18.1-14.8,18.1v42.4H3881.2z"/>
		<path class="st10" d="M3982.1-459.5c0-23.6,15.4-44.1,39.1-44.1c5.1,0,16.1,1.9,23.4,13.3h0.2v-11h28.6v84.1h-28.6v-10.6h-0.2
			c-7.3,11.3-18.1,12.7-23.4,12.7C3998.1-415.2,3982.1-435.8,3982.1-459.5 M4044.7-459.5c0-10.5-5.9-18.3-16.6-18.3
			c-10.5,0-16.4,7.9-16.4,18.3c0,10.6,5.9,18.7,16.4,18.7C4038.8-440.8,4044.7-448.9,4044.7-459.5"/>
		<path class="st10" d="M4128.6-476.3v21.3c0,7.8,2.3,14.3,14.3,14.3v25.5c-28.8,0-42.9-19.2-42.9-42.9v-18.1h-14v-25.1h14v-23.9
			h28.6v23.9h16.9v25.1H4128.6z"/>
		<path class="st10" d="M4152.2-459.5c0-24.4,18.3-44.1,44.8-44.1c23.7,0,42.2,17.8,42.2,47.6v5.2h-57.7c1.9,7,8.7,13.8,19.9,13.8
			c4.5,0,14.1-2.1,19.2-5.4l11.5,17.8c-8.2,6.5-22.3,9.4-34.2,9.4C4172.2-415.2,4152.2-431.8,4152.2-459.5 M4197-481.8
			c-10.6,0-14.7,8.4-15.7,13.4h31.2C4211.3-474.3,4208.2-481.8,4197-481.8 M4197.3-536.6c2.1-1.9,4.4-3,7.2-3c2.3,0,4.9,1,6.8,2.8
			c1.9,2.1,2.8,4.5,2.8,7.2c0,2.6-0.9,5.1-2.8,6.8l-11.2,11.2c-1.6,1.7-4.4,3-6.8,3c-2.6,0-5.1-1-7-3c-2.1-1.9-3-4.4-3-7
			c0-2.3,0.9-4.9,3-6.8L4197.3-536.6z"/>
		<path class="st10" d="M4250-417.3v-84.1h28.6v11c5.8-7.2,16.9-13.6,25.8-13.6v27.6c-1.6-0.3-3.3-0.3-5.8-0.3
			c-8.2,0-20.1,2.3-20.1,17.1v42.4H4250z"/>
		<path class="st10" d="M4317.2-530.2c0-7.9,6.5-14,14.5-14c7.7,0,14.1,6.1,14.1,14c0,7.7-6.5,14-14.1,14
			C4323.6-516.2,4317.2-522.5,4317.2-530.2 M4317.2-501.4h28.6v84.1h-28.6V-501.4z"/>
		<path class="st10" d="M4360.6-459.5c0-24.4,18.3-44.1,44.8-44.1c23.7,0,42.2,17.8,42.2,47.6v5.2h-57.7c1.9,7,8.7,13.8,19.9,13.8
			c4.5,0,14.1-2.1,19.2-5.4l11.5,17.8c-8.2,6.5-22.3,9.4-34.2,9.4C4380.7-415.2,4360.6-431.8,4360.6-459.5 M4405.5-481.8
			c-10.6,0-14.7,8.4-15.7,13.4h31.2C4419.8-474.3,4416.6-481.8,4405.5-481.8"/>
		<rect x="4460.8" y="-533.5" class="st10" width="28.6" height="116.2"/>
		<path class="st10" d="M3750.2-268.9c0,7.5-5.1,12.6-13.7,12.6h-21.6v-46.5h19.3c8.3,0,13.3,4.9,13.3,11.9c0,5.5-3.6,9.4-7.6,10.5
			C3746.1-280,3750.2-274.4,3750.2-268.9 M3720.8-282.7h12.4c5.4,0,8.2-3.2,8.2-7.5c0-4.2-2.8-7.5-8.2-7.5h-12.4V-282.7z
			 M3735.4-261.5c5.4,0,8.7-3.1,8.7-8c0-4.3-3-8-8.7-8h-14.6v16H3735.4z"/>
		<path class="st10" d="M3757.4-273.3c0-9.8,7.1-17.7,17-17.7c10.4,0,16.5,8,16.5,18.1v1.3h-27.8c0.4,6.4,4.9,11.3,12.3,11.3
			c4,0,7.7-1.5,10.4-4.3l2.9,3.8c-3.5,3.3-8.1,5.2-13.7,5.2C3764.7-255.5,3757.4-262.7,3757.4-273.3 M3785.6-275.4
			c-0.1-5-3.5-10.8-11.3-10.8c-7.3,0-11,5.7-11.2,10.8H3785.6z"/>
		<path class="st10" d="M3796.6-260.8l2.7-3.8c2.3,2.6,6.6,4.8,11.4,4.8c5.2,0,8.2-2.4,8.2-5.8c0-8.2-21.3-3.1-21.3-15.6
			c0-5.3,4.5-9.7,12.8-9.7c5.9,0,10,2.2,12.7,4.9l-2.5,3.6c-2-2.4-5.7-4.3-10.2-4.3c-4.7,0-7.7,2.3-7.7,5.3
			c0,7.3,21.3,2.5,21.3,15.6c0,5.7-4.6,10.2-13.4,10.2C3804.8-255.5,3800.1-257.3,3796.6-260.8"/>
		<path class="st10" d="M3830.6-273.3c0-9.8,6.6-17.7,17-17.7c10.5,0,17,7.9,17,17.7c0,9.8-6.6,17.7-17,17.7
			C3837.2-255.5,3830.6-263.5,3830.6-273.3 M3859-273.3c0-6.8-4-13-11.4-13c-7.3,0-11.4,6.1-11.4,13c0,6.9,4,13,11.4,13
			C3855-260.2,3859-266.4,3859-273.3"/>
		<path class="st10" d="M3876.4-301.9c1.7,0,3.2,1.5,3.2,3.2c0,1.7-1.5,3.1-3.2,3.1c-1.7,0-3.1-1.4-3.1-3.1
			C3873.3-300.5,3874.7-301.9,3876.4-301.9 M3873.7-290.1h5.3v33.7h-5.3V-290.1z"/>
		<path class="st10" d="M3913.5-256.4v-22c0-6-3.1-7.8-7.8-7.8c-4.2,0-10.2,2.9-10.2,13v16.9h-5.3v-33.7h5.3v4.9
			c2.4-2.9,7.1-5.7,12.4-5.7c7.1,0,10.9,3.6,10.9,10.9v23.7H3913.5z"/>
		<path class="st10" d="M3979-302.9v46.5h-5.3v-5c-3.1,4.7-8,5.8-10.9,5.8c-10.5,0-17-8-17-17.7c0-9.8,6.6-17.7,17-17.7
			c2.7,0,7.7,1,10.9,5.9v-17.9H3979z M3974.2-273.3c0-6.8-4-13-11.4-13c-7.3,0-11.4,6.1-11.4,13c0,6.9,4,13,11.4,13
			C3970.1-260.2,3974.2-266.4,3974.2-273.3"/>
		<path class="st10" d="M3987.6-273.3c0-9.8,7.1-17.7,17-17.7c10.4,0,16.5,8,16.5,18.1v1.3h-27.8c0.4,6.4,4.9,11.3,12.3,11.3
			c4,0,7.7-1.5,10.4-4.3l2.9,3.8c-3.5,3.3-8.1,5.2-13.7,5.2C3995-255.5,3987.6-262.7,3987.6-273.3 M4015.8-275.4
			c-0.1-5-3.5-10.8-11.3-10.8c-7.3,0-11,5.7-11.2,10.8H4015.8z"/>
		<path class="st10" d="M4099.8-280v23.7h-5.2v-22c0-5.4-2.6-7.5-6.6-7.7c-7.3,0-11.4,4.7-11.4,9.8v20h-5.2v-22c0-6-3.1-7.8-7.7-7.8
			c-4.2,0-10.2,2.9-10.2,13v16.9h-5.3v-33.7h5.3v4.9c2.4-2.9,7.1-5.7,12.4-5.7c5.3,0,8.7,2,10.1,6.1c2.7-3.5,6.7-6.1,13-6.1
			C4096-290.9,4099.8-287.4,4099.8-280"/>
		<path class="st10" d="M4141.6-290.1v33.7h-5.3v-5c-3.1,4.7-8,5.8-10.9,5.8c-10.5,0-17-8-17-17.7c0-9.8,6.6-17.7,17-17.7
			c2.7,0,7.7,1,10.9,5.9v-5H4141.6z M4136.8-273.3c0-6.8-4-13-11.4-13c-7.3,0-11.4,6.1-11.4,13c0,6.9,4,13,11.4,13
			C4132.7-260.2,4136.8-266.4,4136.8-273.3"/>
		<path class="st10" d="M4159.5-269.4c0,1.5,0.2,9.1,8.9,9.1v4.7c-13.8,0-14.2-11.7-14.2-13.7v-16.2h-6v-4.6h6v-9.2h5.3v9.2h8.9v4.6
			h-8.9V-269.4z"/>
		<path class="st10" d="M4173.7-273.3c0-9.8,7.1-17.7,17-17.7c10.4,0,16.5,8,16.5,18.1v1.3h-27.8c0.4,6.3,4.9,11.3,12.3,11.3
			c4,0,7.7-1.5,10.4-4.3l2.9,3.8c-3.5,3.3-8.1,5.2-13.7,5.2C4181.1-255.5,4173.7-262.7,4173.7-273.3 M4201.9-275.4
			c-0.1-5-3.5-10.8-11.3-10.8c-7.3,0-11,5.7-11.2,10.8H4201.9z M4191.5-304.4c0.5-0.5,1-0.7,1.6-0.7c0.6,0,1.2,0.2,1.7,0.7
			c0.5,0.5,0.7,1,0.7,1.6c0,0.6-0.2,1.2-0.7,1.6l-5.6,5.6c-0.4,0.4-1,0.7-1.7,0.7c-0.6,0-1.1-0.2-1.6-0.7c-0.4-0.4-0.6-1-0.6-1.6
			c0-0.6,0.2-1.2,0.6-1.6L4191.5-304.4z"/>
		<path class="st10" d="M4233.5-285.1c-0.7-0.1-1.4-0.1-2.2-0.1c-4.2,0-10.2,2-10.2,12v16.9h-5.3v-33.7h5.3v4.9
			c2.4-2.9,7.1-5.7,12.4-5.7V-285.1z"/>
		<path class="st10" d="M4243.1-301.9c1.7,0,3.2,1.5,3.2,3.2c0,1.7-1.5,3.1-3.2,3.1c-1.7,0-3.1-1.4-3.1-3.1
			C4240-300.5,4241.4-301.9,4243.1-301.9 M4240.5-290.1h5.3v33.7h-5.3V-290.1z"/>
		<path class="st10" d="M4255-273.3c0-9.8,7.1-17.7,17-17.7c10.4,0,16.5,8,16.5,18.1v1.3h-27.8c0.4,6.4,4.9,11.3,12.3,11.3
			c4,0,7.7-1.5,10.4-4.3l2.9,3.8c-3.5,3.3-8.1,5.2-13.7,5.2C4262.3-255.5,4255-262.7,4255-273.3 M4283.2-275.4
			c-0.1-5-3.5-10.8-11.3-10.8c-7.3,0-11,5.7-11.2,10.8H4283.2z"/>
		<rect x="4297" y="-302.9" class="st10" width="5.3" height="46.5"/>
		<path class="st10" d="M4343.1-278.3v6.6c0,1.5-1.2,2.6-2.6,2.6c-1.5,0-2.6-1.1-2.6-2.6V-283c12.1,0,12.8-7.1,12.8-8.7v-0.3
			c0-3.5-2.7-6.5-8.3-6.5c-5.4,0-8.7,2.2-11.4,5.7l-3.6-3.8c3.4-4.4,8.7-7.1,15.4-7.1c7.8,0,14,4.2,14,11.9
			C4356.8-286.6,4354.3-280.2,4343.1-278.3 M4340.5-262.9c2,0,3.6,1.6,3.6,3.6c0,2-1.6,3.6-3.6,3.6s-3.6-1.5-3.6-3.6
			C4337-261.3,4338.5-262.9,4340.5-262.9"/>
		<polygon class="st10" points="3620.6,-186.6 3620.6,-233.1 3626.5,-233.1 3626.5,-191.8 3648.6,-191.8 3648.6,-186.6 		"/>
		<path class="st10" d="M3654.2-203.5c0-9.8,6.6-17.7,17-17.7c10.5,0,17,7.9,17,17.7c0,9.8-6.6,17.7-17,17.7
			C3660.8-185.8,3654.2-193.7,3654.2-203.5 M3682.6-203.5c0-6.8-4-13-11.4-13c-7.3,0-11.4,6.1-11.4,13c0,6.9,4,13,11.4,13
			C3678.6-190.4,3682.6-196.6,3682.6-203.5"/>
		<path class="st10" d="M3696.9-199.5v-0.3v-20.5h5.3v20.7c0,1.3,0.3,9.2,9,9.2c8.9,0,9.1-8,9.1-9.4v-20.5h5.3v20.5v0.3
			c0,2.1-0.5,13.7-14.4,13.7C3697.3-185.8,3696.9-197.4,3696.9-199.5"/>
		<path class="st10" d="M3734.2-203.5c0-9.8,7.1-17.7,17-17.7c10.4,0,16.5,8,16.5,18.1v1.3h-27.8c0.4,6.4,4.9,11.3,12.3,11.3
			c4,0,7.7-1.5,10.4-4.3l2.9,3.8c-3.5,3.4-8.1,5.2-13.7,5.2C3741.5-185.8,3734.2-192.9,3734.2-203.5 M3762.4-205.6
			c-0.1-5-3.5-10.8-11.3-10.8c-7.3,0-11,5.7-11.2,10.8H3762.4z"/>
		<polygon class="st10" points="3774.7,-186.6 3774.7,-190.7 3793.6,-215.7 3774.7,-215.7 3774.7,-220.3 3800.6,-220.3 
			3800.6,-216.3 3781.5,-191.2 3800.9,-191.2 3800.9,-186.6 		"/>
		<path class="st10" d="M3828.3-199.5v-0.3v-20.5h5.3v20.7c0,1.3,0.3,9.2,9,9.2c8.9,0,9.1-8,9.1-9.4v-20.5h5.3v20.5v0.3
			c0,2.1-0.5,13.7-14.4,13.7C3828.8-185.8,3828.3-197.4,3828.3-199.5"/>
		<path class="st10" d="M3890.9-186.6v-22c0-6-3.1-7.8-7.8-7.8c-4.2,0-10.2,2.9-10.2,13v16.9h-5.3v-33.7h5.3v4.9
			c2.4-2.9,7.1-5.7,12.4-5.7c7.1,0,10.9,3.6,10.9,10.9v23.7H3890.9z"/>
		<path class="st10" d="M3923.2-203.5c0-9.8,6.6-17.7,17-17.7c10.5,0,17,7.9,17,17.7c0,9.8-6.6,17.7-17,17.7
			C3929.7-185.8,3923.2-193.7,3923.2-203.5 M3951.6-203.5c0-6.8-4-13-11.4-13c-7.3,0-11.4,6.1-11.4,13c0,6.9,4,13,11.4,13
			C3947.5-190.4,3951.6-196.6,3951.6-203.5"/>
		<path class="st10" d="M3965.8-199.5v-0.3v-20.5h5.3v20.7c0,1.3,0.3,9.2,9,9.2c8.9,0,9.1-8,9.1-9.4v-20.5h5.3v20.5v0.3
			c0,2.1-0.5,13.7-14.4,13.7C3966.3-185.8,3965.8-197.4,3965.8-199.5"/>
		<path class="st10" d="M4012.4-199.6c0,1.5,0.2,9.1,8.9,9.1v4.7c-13.8,0-14.2-11.7-14.2-13.7v-16.2h-6v-4.6h6v-9.2h5.3v9.2h8.9v4.6
			h-8.9V-199.6z"/>
		<path class="st10" d="M4031.7-232.2c1.7,0,3.2,1.5,3.2,3.2c0,1.7-1.5,3.1-3.2,3.1c-1.7,0-3.1-1.4-3.1-3.1
			C4028.6-230.7,4030-232.2,4031.7-232.2 M4029.1-220.3h5.3v33.7h-5.3V-220.3z"/>
		<rect x="4045.5" y="-233.1" class="st10" width="5.3" height="46.5"/>
		<path class="st10" d="M4111.1-233.1v46.5h-5.3v-5c-3.1,4.7-8,5.8-10.9,5.8c-10.5,0-17-8-17-17.7c0-9.8,6.6-17.7,17-17.7
			c2.7,0,7.7,1,10.9,5.9v-17.9H4111.1z M4106.3-203.5c0-6.8-4-13-11.4-13c-7.3,0-11.4,6.1-11.4,13c0,6.9,4,13,11.4,13
			C4102.2-190.4,4106.3-196.6,4106.3-203.5"/>
		<path class="st10" d="M4119.7-203.5c0-9.8,7.1-17.7,17-17.7c10.4,0,16.5,8,16.5,18.1v1.3h-27.8c0.4,6.4,4.9,11.3,12.3,11.3
			c4,0,7.7-1.5,10.4-4.3l2.9,3.8c-3.5,3.4-8.1,5.2-13.7,5.2C4127.1-185.8,4119.7-192.9,4119.7-203.5 M4147.9-205.6
			c-0.1-5-3.5-10.8-11.3-10.8c-7.3,0-11,5.7-11.2,10.8H4147.9z"/>
		<path class="st10" d="M4185.5-220.3v5c3.2-4.8,8.2-5.9,10.9-5.9c10.5,0,17,7.9,17,17.7c0,9.8-6.6,17.7-17,17.7
			c-2.9,0-7.7-1.1-10.9-5.8v17.9h-5.3v-46.6H4185.5z M4207.8-203.5c0-6.8-4-13-11.4-13c-7.3,0-11.4,6.1-11.4,13c0,6.9,4,13,11.4,13
			C4203.7-190.4,4207.8-196.6,4207.8-203.5"/>
		<path class="st10" d="M4239.7-215.3c-0.7-0.1-1.4-0.1-2.2-0.1c-4.2,0-10.2,2-10.2,12v16.9h-5.3v-33.7h5.3v4.9
			c2.4-2.9,7.1-5.7,12.4-5.7V-215.3z"/>
		<path class="st10" d="M4244.1-203.5c0-9.8,6.6-17.7,17-17.7s17,7.9,17,17.7c0,9.8-6.6,17.7-17,17.7S4244.1-193.7,4244.1-203.5
			 M4272.5-203.5c0-6.8-4-13-11.4-13c-7.3,0-11.4,6.1-11.4,13c0,6.9,4,13,11.4,13C4268.5-190.4,4272.5-196.6,4272.5-203.5"/>
		<path class="st10" d="M4296.3-177.6c8.5,0,8.9-7.5,8.9-9.1v-33.6h5.3v33.6c0,2.2-0.3,13.7-14.2,13.7V-177.6z M4307.9-232.2
			c1.7,0,3.2,1.5,3.2,3.2c0,1.7-1.5,3.1-3.2,3.1c-1.7,0-3.1-1.4-3.1-3.1C4304.7-230.7,4306.1-232.2,4307.9-232.2"/>
		<path class="st10" d="M4321.7-199.5v-0.3v-20.5h5.3v20.7c0,1.3,0.3,9.2,9,9.2c8.9,0,9.1-8,9.1-9.4v-20.5h5.3v20.5v0.3
			c0,2.1-0.5,13.7-14.4,13.7C4322.2-185.8,4321.7-197.4,4321.7-199.5"/>
		<path class="st10" d="M4358.1-191.1l2.7-3.8c2.3,2.6,6.6,4.8,11.4,4.8c5.2,0,8.2-2.4,8.2-5.8c0-8.2-21.3-3.1-21.3-15.6
			c0-5.3,4.5-9.7,12.8-9.7c5.9,0,10,2.2,12.7,4.9l-2.5,3.6c-2-2.4-5.7-4.3-10.2-4.3c-4.7,0-7.7,2.3-7.7,5.3
			c0,7.3,21.3,2.5,21.3,15.6c0,5.7-4.6,10.2-13.4,10.2C4366.3-185.8,4361.6-187.5,4358.1-191.1"/>
		<path class="st10" d="M4401.4-199.6c0,1.5,0.2,9.1,8.9,9.1v4.7c-13.8,0-14.2-11.7-14.2-13.7v-16.2h-6v-4.6h6v-9.2h5.3v9.2h8.9v4.6
			h-8.9V-199.6z"/>
		<path class="st10" d="M4415.7-203.5c0-9.8,7.1-17.7,17-17.7c10.4,0,16.5,8,16.5,18.1v1.3h-27.8c0.4,6.4,4.9,11.3,12.3,11.3
			c4,0,7.7-1.5,10.4-4.3l2.9,3.8c-3.5,3.4-8.1,5.2-13.7,5.2C4423-185.8,4415.7-192.9,4415.7-203.5 M4443.9-205.6
			c-0.1-5-3.5-10.8-11.3-10.8c-7.3,0-11,5.7-11.2,10.8H4443.9z"/>
		<rect x="3647.7" y="-163.3" class="st10" width="11.4" height="46.5"/>
		<path class="st10" d="M3665.1-133.7c0-9.8,7.3-17.7,17.9-17.7c9.5,0,16.9,7.1,16.9,19v2.1h-23.1c0.8,2.8,3.5,5.5,8,5.5
			c1.8,0,5.7-0.8,7.7-2.2l4.6,7.1c-3.3,2.6-8.9,3.8-13.7,3.8C3673.1-116,3665.1-122.6,3665.1-133.7 M3683-142.6
			c-4.3,0-5.9,3.4-6.3,5.4h12.5C3688.7-139.6,3687.5-142.6,3683-142.6"/>
		<path class="st10" d="M3736.8-140.4v8.5c0,3.1,0.9,5.7,5.7,5.7v10.2c-11.5,0-17.2-7.7-17.2-17.2v-7.3h-5.6v-10h5.6v-9.6h11.4v9.6
			h6.8v10H3736.8z"/>
		<path class="st10" d="M3746.9-133.7c0-9.8,7.3-17.7,17.9-17.7c9.5,0,16.9,7.1,16.9,19v2.1h-23.1c0.8,2.8,3.5,5.5,8,5.5
			c1.8,0,5.7-0.8,7.7-2.2l4.6,7.1c-3.3,2.6-8.9,3.8-13.7,3.8C3754.9-116,3746.9-122.6,3746.9-133.7 M3764.9-142.6
			c-4.3,0-5.9,3.4-6.3,5.4h12.5C3770.6-139.6,3769.3-142.6,3764.9-142.6"/>
		<path class="st10" d="M3809.9-116.8v-18.7c0-4-2.2-5.5-5.6-5.5c-3.1,0-5.9,2.2-5.9,7.3v17H3787v-33.6h11.4v4.4
			c2.2-2.9,6.4-5.3,12.2-5.3c5.4,0,8.7,2.5,10,6.1c2.3-3,6.1-6.1,13-6.1c7.3,0,10.7,4.6,10.7,10.4v24.1h-11.4v-18.7
			c0-4-2.2-5.5-5.6-5.5c-6.2,0-5.9,7.3-5.9,7.3v17H3809.9z"/>
		<path class="st10" d="M3863.5-121.1L3863.5-121.1l-0.1,17.1H3852v-46.5h11.4v4.4h0.1c2.9-4.5,7.3-5.3,9.4-5.3
			c9.5,0,15.6,8.2,15.6,17.7c0,9.5-6.4,17.7-15.6,17.7C3870.8-116,3866.5-116.5,3863.5-121.1 M3876.6-133.7c0-4.2-2.4-7.3-6.6-7.3
			c-4.3,0-6.6,3.1-6.6,7.3c0,4.3,2.4,7.5,6.6,7.5C3874.3-126.2,3876.6-129.4,3876.6-133.7"/>
		<path class="st10" d="M3892.7-120.9c1.5-2.7,3-5,4.5-7.7c2.9,2.1,8.3,4,11.9,4c3.1,0,4-0.8,4-2c0-1.7-2.2-2-5.2-2.4
			c-5.4-0.8-14-2.7-14-11.3c0-5.9,5.2-11.2,14.5-11.2c5.2,0,10.1,1.6,13.8,4.1c-1.4,2.7-2.7,4.7-4,7.3c-2.2-1.6-6-3.2-9.7-3.2
			c-2.2,0-3.7,0.8-3.7,2.1c0,1.3,2.1,1.7,4.9,2.1c5.4,0.8,14.2,2.9,14.2,11.7c0,6.6-5.8,11.4-15.4,11.4
			C3902.5-116,3896.3-117.9,3892.7-120.9"/>
		<path class="st10" d="M3945.3-133.7c0-9.4,6.1-17.7,15.6-17.7c2,0,6.4,0.8,9.3,5.3h0.1v-17.2h11.4v46.5h-11.4v-4.3h-0.1
			c-2.9,4.5-7.3,5.1-9.3,5.1C3951.7-116,3945.3-124.2,3945.3-133.7 M3970.4-133.7c0-4.2-2.4-7.3-6.6-7.3c-4.2,0-6.6,3.1-6.6,7.3
			c0,4.3,2.4,7.5,6.6,7.5C3968-126.2,3970.4-129.4,3970.4-133.7"/>
		<path class="st10" d="M3987.7-133.7c0-9.8,7.3-17.7,17.9-17.7c9.5,0,16.9,7.1,16.9,19v2.1h-23.1c0.8,2.8,3.5,5.5,8,5.5
			c1.8,0,5.7-0.8,7.7-2.2l4.6,7.1c-3.3,2.6-8.9,3.8-13.7,3.8C3995.8-116,3987.7-122.6,3987.7-133.7 M4005.7-142.6
			c-4.3,0-5.9,3.4-6.3,5.4h12.5C4011.4-139.6,4010.1-142.6,4005.7-142.6"/>
		<polygon class="st10" points="4053.7,-116.8 4041.2,-150.4 4053.1,-150.4 4060,-129.2 4066.9,-150.4 4079,-150.4 4066.3,-116.8 		
			"/>
		<path class="st10" d="M4080.4-133.7c0-9.4,6.8-17.7,18.4-17.7c11.7,0,18.5,8.2,18.5,17.7c0,9.5-6.8,17.7-18.5,17.7
			C4087.2-116,4080.4-124.2,4080.4-133.7 M4105.5-133.7c0-4.2-2.4-7.3-6.6-7.3c-4.2,0-6.6,3.1-6.6,7.3c0,4.3,2.4,7.5,6.6,7.5
			C4103.1-126.2,4105.5-129.4,4105.5-133.7"/>
		<path class="st10" d="M4121.5-120.9c1.5-2.7,3-5,4.5-7.7c2.9,2.1,8.3,4,11.9,4c3.1,0,4-0.8,4-2c0-1.7-2.2-2-5.2-2.4
			c-5.4-0.8-14-2.7-14-11.3c0-5.9,5.2-11.2,14.5-11.2c5.2,0,10.1,1.6,13.8,4.1c-1.4,2.7-2.7,4.7-4,7.3c-2.2-1.6-6-3.2-9.7-3.2
			c-2.2,0-3.7,0.8-3.7,2.1c0,1.3,2.1,1.7,4.9,2.1c5.4,0.8,14.2,2.9,14.2,11.7c0,6.6-5.8,11.4-15.4,11.4
			C4131.3-116,4125.1-117.9,4121.5-120.9"/>
		<path class="st10" d="M4190.3-140.4v8.5c0,3.1,0.9,5.7,5.7,5.7v10.2c-11.5,0-17.2-7.7-17.2-17.2v-7.3h-5.6v-10h5.6v-9.6h11.4v9.6
			h6.8v10H4190.3z"/>
		<path class="st10" d="M4202.2-116.8v-33.6h11.4v4.4c2.3-2.9,6.8-5.4,10.3-5.4v11c-0.6-0.1-1.3-0.1-2.3-0.1c-3.3,0-8,0.9-8,6.8v17
			H4202.2z"/>
		<path class="st10" d="M4227.3-133.7c0-9.4,6.1-17.7,15.6-17.7c2,0,6.4,0.8,9.4,5.3h0.1v-4.4h11.4v33.6h-11.4v-4.3h-0.1
			c-2.9,4.5-7.3,5.1-9.4,5.1C4233.7-116,4227.3-124.2,4227.3-133.7 M4252.3-133.7c0-4.2-2.4-7.3-6.6-7.3c-4.2,0-6.6,3.1-6.6,7.3
			c0,4.3,2.4,7.5,6.6,7.5C4250-126.2,4252.3-129.4,4252.3-133.7"/>
		<polygon class="st10" points="4280.1,-116.8 4267.6,-150.4 4279.6,-150.4 4286.4,-129.2 4293.4,-150.4 4305.5,-150.4 
			4292.8,-116.8 		"/>
		<path class="st10" d="M4306.8-133.7c0-9.4,6.1-17.7,15.6-17.7c2,0,6.4,0.8,9.4,5.3h0.1v-4.4h11.4v33.6h-11.4v-4.3h-0.1
			c-2.9,4.5-7.3,5.1-9.4,5.1C4313.3-116,4306.8-124.2,4306.8-133.7 M4331.9-133.7c0-4.2-2.4-7.3-6.6-7.3c-4.2,0-6.6,3.1-6.6,7.3
			c0,4.3,2.4,7.5,6.6,7.5C4329.5-126.2,4331.9-129.4,4331.9-133.7"/>
		<path class="st10" d="M4385.4-150.4v17.2c0,10.1-6.6,17.2-17.2,17.2c-11.5,0-17.2-7.7-17.2-17.2v-17.2h11.4v18.5
			c0,3.1,0.9,5.7,5.7,5.7c4.7,0,5.7-2.6,5.7-5.7v-18.5H4385.4z"/>
		<path class="st10" d="M4412.7-116.8l-5.6-9.8l-5.7,9.8h-12.3l10.6-17.3l-10-16.3h12.5l4.8,8.8c1.4-2.7,3.4-6.1,4.8-8.8h12.4
			l-10,16.3l10.8,17.3H4412.7z"/>
		<path class="st0" d="M4563.9-1007.4c0,81.9-66.4,148.4-148.4,148.4s-148.4-66.4-148.4-148.4s66.4-148.4,148.4-148.4
			S4563.9-1089.3,4563.9-1007.4"/>
		<path class="st10" d="M4185.8-853.6c-5.7-19.2-18.6-35-36.2-44.5c-9.1-4.9-19.1-7.8-29.3-8.6v-10.5h7c3.5,0,6.3-2.8,6.3-6.3
			s-2.8-6.3-6.3-6.3h-26.7c-3.5,0-6.3,2.8-6.3,6.3s2.8,6.3,6.3,6.3h7v10.4c-4.4,0.4-8.8,1.1-13.1,2.3c-3.4,0.9-5.4,4.4-4.5,7.7
			c0.9,3.4,4.4,5.4,7.7,4.5c5.2-1.4,10.6-2.1,15.9-2.1c10.2,0.2,20.7,2.6,29.8,7.5c14.6,7.9,25.3,21.1,30.1,37
			c4.8,16,3,32.8-4.9,47.5c-7.9,14.6-21.1,25.3-37,30.1c-16,4.7-32.8,3-47.5-4.9c-30.2-16.3-41.5-54.2-25.2-84.5
			c0.4-0.8,1-1.6,1.5-2.4l2.4,12.5c0.6,3,3.2,5.1,6.2,5.1c0.4,0,0.8,0,1.2-0.1c3.4-0.7,5.7-3.9,5-7.4l-5-26.6c0-0.2-0.2-0.4-0.2-0.6
			c-0.1-0.4-0.3-0.8-0.5-1.2c-0.2-0.4-0.4-0.7-0.7-1c-0.2-0.2-0.2-0.4-0.4-0.6c-0.1-0.1-0.3-0.2-0.4-0.3c-0.3-0.3-0.7-0.5-1.1-0.7
			c-0.3-0.2-0.7-0.3-1-0.5c-0.4-0.1-0.8-0.2-1.2-0.2c-0.4,0-0.8-0.1-1.2,0c-0.2,0-0.4,0-0.5,0l-26.6,5c-3.4,0.7-5.7,3.9-5,7.4
			c0.6,3.4,4,5.7,7.4,5l10.8-2.1c-0.5,0.8-1.1,1.6-1.5,2.4c-19.6,36.4-6.1,81.9,30.3,101.6c11.1,6,23.3,9.1,35.5,9.1
			c7.2,0,14.4-1,21.5-3.2c19.2-5.7,35-18.6,44.5-36.2C4189.4-814.1,4191.5-834.4,4185.8-853.6"/>
		<path class="st10" d="M4155.2-809.9c12.3-22.8,3.8-51.2-18.9-63.5c-7.1-3.8-14.7-5.7-22.3-5.6v46.9l-33.1,33.2
			c3.1,3.1,6.8,5.9,10.8,8.1C4114.5-778.6,4142.9-787.1,4155.2-809.9"/>
		<path class="st10" d="M4107.7-1021.3h17.7l11-3.5c0.5-0.2,1.1-0.2,1.7-0.1l16.5,2.4c1.8,0.3,3.2,1.8,3.2,3.7v10.7
			c0,1.9-1.4,3.4-3.2,3.7l-16.5,2.4c-0.2,0-0.4,0-0.5,0c-0.4,0-0.7-0.1-1.1-0.2l-11-3.3h-17.7V-1021.3z"/>
		<path class="st10" d="M4058.4-988.7v-49.2h24.5c6.5,0,12.7,2.6,17.3,7.2v34.8c-4.6,4.6-10.8,7.2-17.3,7.2H4058.4z"/>
		<path class="st10" d="M3895-873.8c-1.3,0-2.6,0.1-3.8,0.3l26.7-96.5c1.6,0.2,3.2,0.3,4.9,0.3h41c0,2.4-0.3,5.1-1.1,7.7
			c-1.2,3.8-3.8,6.1-6.5,8.5c-2.9,2.6-5.9,5.3-7,9.6c-0.9,3.3,0.7,6.5,2,9.3c1.1,2.3,2.2,4.6,1.7,6.1c-0.7,1.9-2.3,2.9-4.7,4.4
			c-2.5,1.5-5.7,3.5-7,7.3c-1.2,3.7,0,7.4,1.2,11c1.1,3.2,2.1,6.2,1.2,8.5c-0.9,2.4-3.3,3.7-6.1,5.2c-3.1,1.7-6.7,3.6-8,7.8
			c-1,3-0.1,7,1.1,10.3H3895z"/>
		<path class="st10" d="M4051-977.1v-73.6h-128.2c-20.2,0-36.6,16.4-36.6,36.6v0.4c0,20.2,16.4,36.6,36.6,36.6H4051z"/>
		<path class="st10" d="M3954.3-789.7H3895c-8.6,0-15.7-7-15.7-15.7v-45.3c0-8.6,7-15.7,15.7-15.7h59.3c8.6,0,15.7,7,15.7,15.7v45.3
			C3970-796.8,3962.9-789.7,3954.3-789.7"/>
		<path class="st1" d="M4330.5-944.7c1.8-0.3,4.2-0.6,7.3-0.6c3.8,0,6.5,0.9,8.2,2.4c1.6,1.4,2.6,3.5,2.6,6.1c0,2.7-0.8,4.8-2.3,6.3
			c-2,2.1-5.3,3.2-9,3.2c-1.1,0-2.2,0-3.1-0.3v11.8h-3.8V-944.7z M4334.3-930.5c0.8,0.2,1.9,0.3,3.1,0.3c4.6,0,7.4-2.2,7.4-6.3
			c0-3.9-2.7-5.8-6.9-5.8c-1.7,0-2.9,0.1-3.6,0.3V-930.5z"/>
		<path class="st1" d="M4354.7-924.9l-3.1,9.2h-3.9l10-29.4h4.6l10,29.4h-4.1l-3.1-9.2H4354.7z M4364.4-927.8l-2.9-8.5
			c-0.7-1.9-1.1-3.7-1.5-5.4h-0.1c-0.4,1.7-0.9,3.5-1.5,5.3l-2.9,8.5H4364.4z"/>
		<path class="st1" d="M4376.7-944.6c1.9-0.4,4.7-0.6,7.3-0.6c4.1,0,6.7,0.7,8.5,2.4c1.5,1.3,2.3,3.3,2.3,5.6c0,3.9-2.4,6.5-5.5,7.5
			v0.1c2.3,0.8,3.6,2.9,4.3,5.9c1,4.1,1.7,6.9,2.3,8.1h-3.9c-0.5-0.8-1.1-3.4-2-7c-0.9-4.1-2.4-5.6-5.9-5.7h-3.6v12.7h-3.8V-944.6z
			 M4380.5-931.2h3.9c4.1,0,6.6-2.2,6.6-5.6c0-3.8-2.7-5.5-6.8-5.5c-1.8,0-3.1,0.2-3.8,0.3V-931.2z"/>
		<path class="st1" d="M4415.4-945h3.8v19.7c0,7.8-3.8,10.2-8.9,10.2c-1.4,0-3.1-0.3-4.1-0.7l0.6-3.1c0.8,0.3,1.9,0.6,3.2,0.6
			c3.4,0,5.4-1.5,5.4-7.3V-945z"/>
		<path class="st1" d="M4450.7-930.6c0,10.1-6.2,15.5-13.7,15.5c-7.8,0-13.2-6-13.2-14.9c0-9.3,5.8-15.4,13.6-15.4
			C4445.5-945.5,4450.7-939.4,4450.7-930.6 M4427.8-930.1c0,6.3,3.4,11.9,9.4,11.9c6,0,9.4-5.5,9.4-12.2c0-5.8-3.1-11.9-9.4-11.9
			C4431-942.4,4427.8-936.6,4427.8-930.1"/>
		<path class="st1" d="M4459.4-945v17.4c0,6.6,2.9,9.4,6.8,9.4c4.4,0,7.2-2.9,7.2-9.4V-945h3.8v17.1c0,9-4.8,12.7-11.1,12.7
			c-6,0-10.6-3.4-10.6-12.6V-945H4459.4z"/>
		<path class="st1" d="M4483.8-944.6c1.9-0.4,4.7-0.6,7.3-0.6c4.1,0,6.7,0.7,8.5,2.4c1.5,1.3,2.3,3.3,2.3,5.6c0,3.9-2.4,6.5-5.5,7.5
			v0.1c2.3,0.8,3.6,2.9,4.3,5.9c1,4.1,1.7,6.9,2.3,8.1h-3.9c-0.5-0.8-1.1-3.4-2-7c-0.9-4.1-2.4-5.6-5.9-5.7h-3.6v12.7h-3.8V-944.6z
			 M4487.6-931.2h3.9c4.1,0,6.6-2.2,6.6-5.6c0-3.8-2.7-5.5-6.8-5.5c-1.8,0-3.1,0.2-3.8,0.3V-931.2z"/>
		<polygon class="st1" points="4352.6,-955.6 4352.6,-1031.6 4334.9,-1013.9 4322,-1027.2 4355.6,-1060.4 4375.4,-1060.4 
			4375.4,-955.6 		"/>
		<path class="st1" d="M4386.7-1007.9c0-27,13.7-54,44.3-54s44.3,27,44.3,54s-13.7,54.2-44.3,54.2S4386.7-980.9,4386.7-1007.9
			 M4452-1007.9c0-19.3-5.7-34.2-21-34.2c-15.2,0-21,14.9-21,34.2c0,19.3,5.8,34.4,21,34.4C4446.2-973.5,4452-988.6,4452-1007.9"/>
		<path class="st1" d="M4477.1-1048.9h2.3c3.6-11.2,14.2-18.4,27.2-18.4c11.7,0,18.5,6.2,22.3,12.8l-9.8,4.7
			c-2.2-4.2-7.1-7.6-12.5-7.6c-6.6,0-11.9,3.3-14.8,8.5h17.6c1.7,0,3.1,1.4,3.1,3.1c0,1.7-1.4,3.1-3.1,3.1H4490
			c-0.2,0.9-0.2,1.6-0.2,2.5c0,0.8,0,1.6,0.1,2.3h19.5c1.7,0,3.1,1.4,3.1,3.1c0,1.7-1.4,3.1-3.1,3.1h-17.7c2.7,5.3,8.1,8.7,14.8,8.7
			c5.4,0,10.3-3.4,12.5-7.6l9.8,4.6c-3.8,6.5-10.6,12.9-22.3,12.9c-13.1,0-23.8-7.2-27.3-18.6h-2.2c-1.7,0-3.1-1.3-3.1-3.1
			c0-1.7,1.3-3.1,3.1-3.1h1.1c-0.1-0.7-0.1-1.5-0.1-2.3c0-0.9,0-1.6,0.1-2.5h-1.1c-1.7,0-3.1-1.3-3.1-3.1
			C4474-1047.5,4475.4-1048.9,4477.1-1048.9"/>
		<path class="st1" d="M4329.8-1081.2l-2.4,7.4h-3.1l8-23.5h3.7l8,23.5h-3.2l-2.5-7.4H4329.8z M4332.6-1102.7l3.2,4h-2.5l-4.5-4
			H4332.6z M4337.5-1083.6l-2.3-6.8c-0.5-1.5-0.9-2.9-1.2-4.3h-0.1c-0.3,1.4-0.7,2.8-1.2,4.3l-2.3,6.8H4337.5z"/>
		<path class="st1" d="M4354.7-1097.1c1.5-0.2,3.4-0.5,5.8-0.5c3,0,5.2,0.7,6.6,2c1.3,1.1,2.1,2.8,2.1,4.9c0,2.1-0.6,3.8-1.8,5
			c-1.6,1.7-4.2,2.6-7.2,2.6c-0.9,0-1.7,0-2.4-0.2v9.4h-3V-1097.1z M4357.8-1085.7c0.7,0.2,1.5,0.2,2.5,0.2c3.7,0,5.9-1.8,5.9-5
			c0-3.1-2.2-4.6-5.5-4.6c-1.3,0-2.3,0.1-2.9,0.2V-1085.7z"/>
		<path class="st1" d="M4374.2-1081.2l-2.4,7.4h-3.1l8-23.5h3.7l8,23.5h-3.2l-2.5-7.4H4374.2z M4381.9-1083.6l-2.3-6.8
			c-0.5-1.5-0.9-2.9-1.2-4.3h-0.1c-0.3,1.4-0.7,2.8-1.2,4.3l-2.3,6.8H4381.9z"/>
		<path class="st1" d="M4391.7-1097c1.5-0.3,3.7-0.5,5.8-0.5c3.2,0,5.3,0.6,6.8,1.9c1.2,1,1.8,2.7,1.8,4.5c0,3.1-2,5.2-4.4,6v0.1
			c1.8,0.6,2.9,2.3,3.5,4.7c0.8,3.3,1.3,5.5,1.8,6.5h-3.1c-0.4-0.7-0.9-2.7-1.6-5.6c-0.7-3.2-2-4.5-4.7-4.6h-2.9v10.2h-3V-1097z
			 M4394.7-1086.3h3.1c3.2,0,5.3-1.8,5.3-4.5c0-3-2.2-4.4-5.4-4.4c-1.5,0-2.5,0.1-3,0.3V-1086.3z"/>
		<polygon class="st1" points="4415.3,-1094.8 4408.1,-1094.8 4408.1,-1097.3 4425.5,-1097.3 4425.5,-1094.8 4418.3,-1094.8 
			4418.3,-1073.8 4415.3,-1073.8 		"/>
		<rect x="4428.1" y="-1097.3" class="st1" width="3" height="23.5"/>
		<path class="st1" d="M4436.5-1097c1.5-0.3,3.7-0.5,5.8-0.5c3.2,0,5.3,0.6,6.8,1.9c1.2,1,1.8,2.7,1.8,4.5c0,3.1-2,5.2-4.4,6v0.1
			c1.8,0.6,2.9,2.3,3.5,4.7c0.8,3.3,1.3,5.5,1.8,6.5h-3.1c-0.4-0.7-0.9-2.7-1.6-5.6c-0.7-3.2-2-4.5-4.7-4.6h-2.9v10.2h-3V-1097z
			 M4439.5-1086.3h3.1c3.2,0,5.3-1.8,5.3-4.5c0-3-2.2-4.4-5.4-4.4c-1.5,0-2.5,0.1-3,0.3V-1086.3z"/>
		<path class="st1" d="M4462.6-1097c1.8-0.3,4-0.5,6.5-0.5c4.4,0,7.5,1,9.5,2.9c2.1,1.9,3.3,4.6,3.3,8.4c0,3.8-1.2,7-3.4,9.1
			c-2.2,2.2-5.8,3.4-10.4,3.4c-2.2,0-4-0.1-5.5-0.3V-1097z M4465.7-1076.2c0.8,0.1,1.9,0.2,3.1,0.2c6.5,0,10-3.6,10-10
			c0-5.5-3.1-9.1-9.5-9.1c-1.6,0-2.8,0.1-3.6,0.3V-1076.2z"/>
		<polygon class="st1" points="4498.1,-1084.8 4488.9,-1084.8 4488.9,-1076.4 4499.1,-1076.4 4499.1,-1073.8 4485.9,-1073.8 
			4485.9,-1097.3 4498.6,-1097.3 4498.6,-1094.8 4488.9,-1094.8 4488.9,-1087.4 4498.1,-1087.4 		"/>
	</g>
</g>
<g class="st6">
	<rect x="3278.7" y="252.3" class="st7" width="1488.2" height="1488.2"/>
	<g class="st9">
		<text transform="matrix(1 0 0 1 3630.8796 1057.125)"><tspan x="0" y="0" class="st10 st2 st3">avantage</tspan><tspan x="180.3" y="133.8" class="st10 st2 st3">carte</tspan></text>
	</g>
	<text transform="matrix(1.0071 0 0 1 3750.6531 1352.207)" class="st8 st4 st5">Carte castorama</text>
	<text transform="matrix(1 0 0 1 3709.5427 1421.9893)" class="st8 st2 st5">Bien accompagné, </text>
	<text transform="matrix(1 0 0 1 3681.594 1491.7725)" class="st8 st2 st5">en avant les projets !</text>
	<g class="st9">
		<g>
			<path class="st10" d="M4229.3,670.2c-0.1-29.6-24.1-53.5-53.8-53.4l-8.1,0l30,83.1c5.6,15.6,4.9,32.4-2.2,47.4
				c-7,15-19.5,26.4-35.1,32l-196.5,71.1l212.5-0.6c29.6-0.1,53.5-24.2,53.4-53.8L4229.3,670.2z"/>
		</g>
		<path class="st10" d="M4181.6,705.6l-34.9-96.6l-273.3,98.8c-1.9,0.7-3.8,1-5.7,1c-6.9,0-13.4-4.3-15.9-11.2
			c-3.2-8.8,1.4-18.5,10.1-21.6l272-98.3c-8.3-12.3-22.2-20.2-37.4-20.2c-5.2,0-10.4,0.9-15.4,2.7l-235.3,85.1
			c-23.4,8.5-35.6,34.4-27.1,57.8l42.8,118.3c8.2,22.7,34.8,35.4,57.8,27.1l235.3-85.1c11.3-4.1,20.4-12.4,25.5-23.3
			C4185.1,729.2,4185.7,716.9,4181.6,705.6z"/>
	</g>
</g>
<line class="st11" x1="1488" y1="1488.3" x2="1488" y2="0.1"/>
</svg>
