<?xml version="1.0" encoding="utf-8"?>
<!-- Generator: Adobe Illustrator 26.4.0, SVG Export Plug-In . SVG Version: 6.00 Build 0)  -->
<svg version="1.1" xmlns="http://www.w3.org/2000/svg" xmlns:xlink="http://www.w3.org/1999/xlink" x="0px" y="0px"
	 viewBox="0 0 2976.2 1488.5" style="enable-background:new 0 0 2976.2 1488.5;" xml:space="preserve">
<style type="text/css">
	.st0{display:none;}
	.st1{display:inline;fill:#FFD100;}
	.st2{display:inline;}
	.st3{fill:#005CB9;}
	.st4{fill:#FFFFFF;}
	.st5{fill:#FFD100;}
	.st6{display:inline;fill:#005CB9;}
	.st7{fill:#FFD100;stroke:#FFFFFF;stroke-width:5;stroke-miterlimit:10;}
</style>
<g id="Calque_1">
	<g class="st0">
		<rect x="-1552" y="1985.1" class="st1" width="1488.2" height="1488.2"/>
		<text transform="matrix(1 0 0 1 -1160.8219 2789.9585)" class="st2"><tspan x="0" y="0" class="st3" style="font-family:'CastoBlack-Black'; font-size:174.4565px;">livraison</tspan><tspan x="-69.3" y="133.8" class="st3" style="font-family:'CastoBlack-Black'; font-size:174.4565px;">à domicile</tspan></text>
		<text transform="matrix(1 0 0 1 -1197.1466 3085.0366)" class="st2"><tspan x="0" y="0" class="st3" style="font-family:'CastoRegular'; font-size:69.7826px;">Pas de temps à perdre ?</tspan><tspan x="212.5" y="69.8" class="st3" style="font-family:'CastoBlack-Black'; font-size:69.7826px;">Gagnez-en</tspan></text>
		<g class="st2">
			<g>
				<path class="st3" d="M-682,2496.6c-23.6,0-44.1,15.7-44.1,43.7c0,27.9,20.7,43.6,44.1,43.6c23.4,0,43.9-15.8,43.9-43.6
					C-638,2512.3-658.6,2496.6-682,2496.6"/>
				<path class="st3" d="M-932.5,2496.6c-23.6,0-44.1,15.7-44.1,43.7c0,27.9,20.8,43.6,44.1,43.6c23.4,0,44-15.8,44-43.6
					C-888.5,2512.3-909.1,2496.6-932.5,2496.6"/>
				<path class="st3" d="M-581.3,2499.1h-2.5v-25.6v-19.9v-10c0-63.3-51.4-114.7-114.7-114.7c-3.2,0-6.2,0.2-9.4,0.4
					c-11.4-23.1-35-38.9-62.5-38.9h-183.2c-38.5,0-69.7,31.2-69.7,69.8v93.5v19.9v25.6h-11.2c-9.2,0-16.5,7.4-16.5,16.5
					c0,9.1,7.4,16.5,16.5,16.5h35.1l1-6.8c6.4-33.3,34.4-51.9,66-51.9c33.4,0,62.9,21,66.7,58.6h117c3.8-37.6,33.4-58.6,67-58.6
					c31.3,0,59.2,18.4,65.7,51.7l1,7h6.1h27.6c9.2,0,16.5-7.4,16.5-16.5C-564.8,2506.5-572.1,2499.1-581.3,2499.1 M-670.8,2435.5
					c-11,0-20.1-8.3-21.3-19v-59.2c43.2,0,78.2,35,78.2,78.2H-670.8z"/>
			</g>
		</g>
	</g>
	<g class="st0">
		<rect x="77.6" y="2000.5" class="st1" width="1488.2" height="1488.2"/>
		<g class="st2">
			<text transform="matrix(1 0 0 1 488.3719 2805.342)"><tspan x="0" y="0" class="st3" style="font-family:'CastoBlack-Black'; font-size:174.4565px;">location</tspan><tspan x="-126.5" y="133.8" class="st3" style="font-family:'CastoBlack-Black'; font-size:174.4565px;">de véhicule</tspan></text>
		</g>
		<text transform="matrix(1 0 0 1 471.011 3100.4231)" class="st2"><tspan x="0" y="0" class="st3" style="font-family:'CastoRegular'; font-size:69.7826px;">Besoin d’un véhicule ?</tspan><tspan x="-23.4" y="69.8" class="st3" style="font-family:'CastoBlack-Black'; font-size:69.7826px;">Louez un véhicule pour</tspan><tspan x="-8.7" y="139.6" class="st3" style="font-family:'CastoBlack-Black'; font-size:69.7826px;">8,90€ par demi-heure</tspan></text>
		<g class="st2">
			<path class="st3" d="M733.1,2413c0.6,4.1,4.5,6.9,8.8,6.2c4.2-0.7,7.1-4.7,6.5-8.8c-4-27,14.1-53.6,42.4-61.9
				c27.3-8.1,55.2,3.3,66.5,27c1.8,3.8,6.4,5.3,10.3,3.5c0.3-0.1,0.5-0.2,0.7-0.4c3.4-2.1,4.7-6.3,3-9.8c-14.4-30.3-50-45-84.6-34.8
				C751,2344.4,727.9,2378.4,733.1,2413"/>
			<path class="st3" d="M1084.5,2491.6l-5.5-3.5c-0.6,0.7-1.3,1.3-2.2,1.7c-2.2,1.1-4.9,1-7.1-0.4c-3.4-2.2-4.3-6.7-2.1-10l0.4-0.7
				l-5.9-4.3l-0.5,0.8c-0.8,1.2-1.8,2-2.9,2.5c-2.2,1.1-4.9,1-7.1-0.4c-3.4-2.2-4.3-6.7-2.1-10l1-1.7l-6.5-4.7l-0.6,0.9
				c-0.7,1.1-1.7,2-2.9,2.5c-2.2,1.1-4.9,1-7.2-0.4c-3.3-2.1-4.3-6.6-2.2-10l1.1-1.7l-47.1-34.6c0.4-3.6-1.2-7.3-4.5-9.5
				c-2.9-1.9-6.5-2.1-9.5-0.8l-0.1-0.1c3-11.4,3.5-23.4,1.3-35.2c-3.9-21.3-15.8-39.7-33.5-52c-24-16.6-55.2-19-81.5-6.2
				c-8.1,3.9-15.4,9.2-21.8,15.6c13.4,4.9,25.1,13.2,33.6,24.6c3.7-0.4,7.6,0.2,11.1,1.8c5.4,2.4,9.5,6.7,11.5,12.2
				c4,10.5-0.7,22.6-10.8,27.5c-0.6,0.3-1.1,0.6-1.7,0.8c-5.5,2.1-11.4,1.9-16.7-0.4c-5.4-2.4-9.5-6.7-11.6-12.2
				c-1.3-3.3-1.6-6.8-1.3-10.1c-6.7-10.8-17.7-18.1-30.2-20.9c-12.3,26.6-8.9,57.6,7.8,81c-4.2,2.3-9.1,4.3-14.8,5.6
				c-5.4,1.3-10.5,1.7-15.1,1.5c-0.6-23.4-11.5-48.3-32.2-67.2c-0.5-0.4-0.9-0.8-1.4-1.2c-6.8,8.8-10.6,19.4-10.4,30.4
				c1,1.6,1.9,3.2,2.5,5c3.2,9.8-1.4,20.5-10.7,25.1c-0.8,0.4-1.7,0.8-2.7,1.1c-10.9,3.5-22.6-2.5-26.1-13.4
				c-3.1-9.6,1.3-20.3,10.3-24.9c1.3-13.9,6.6-27.1,15.1-38.4c-23.9-12.1-50.7-13.7-72.3-3.2c-7.2,3.5-13.6,8.3-18.9,14.1
				l-82.9,90.7c-27.4,30-20.4,81,15.5,113.9c28.2,25.7,66.7,33.5,95.8,19.4c7.2-3.5,13.5-8.3,18.9-14.1l82.9-90.7
				c7.7-8.4,12.6-18.5,15.1-29.4c6.3,0.4,13.2-0.1,20.7-1.9c5.9-1.4,11.1-3.3,15.8-5.6c2.4-1.2,4.7-2.5,6.7-3.8
				c2.4,2.2,5.1,4.3,7.8,6.1c24,16.6,55.2,19.1,81.5,6.3c5.7-2.8,11-6.3,15.9-10.3c0.1,3.3,1.7,6.4,4.6,8.3c3.1,2.1,6.9,2.2,10,0.7
				c0.9-0.4,1.8-1.1,2.5-1.8l34.8,19.6l14.7,9.6l1.7-2.6c2.2-3.3,6.6-4.3,10-2.1c3.4,2.2,4.3,6.6,2.2,10l-1.7,2.6l6.8,4.4l1-1.6
				c2.2-3.3,6.6-4.3,10-2.1c3.4,2.1,4.3,6.6,2.2,10l-1.1,1.6l6.2,4l0.8-1.3c2.2-3.4,6.6-4.3,10-2.1c3.4,2.1,4.3,6.6,2.2,10l-0.9,1.4
				l1.6,1c0.5,0.3,0.9,0.5,1.3,0.7l2.5,1.6c5.3,3.4,11.7,3.6,17,1c2.8-1.4,5.2-3.4,6.9-6.2
				C1094.8,2507.5,1092.5,2496.8,1084.5,2491.6"/>
		</g>
	</g>
	<g>
		<rect y="0.3" class="st3" width="1488.2" height="1488.2"/>
		<rect x="420.4" y="688.9" class="st4" width="28.6" height="116.2"/>
		<g>
			<path class="st4" d="M463.8,762.9c0-23.6,16.9-44.1,46.1-44.1c29.1,0,46.2,20.6,46.2,44.1c0,23.7-17.1,44.3-46.2,44.3
				C480.8,807.2,463.8,786.6,463.8,762.9 M526.5,762.9c0-10.5-5.9-18.3-16.6-18.3c-10.5,0-16.4,7.9-16.4,18.3
				c0,10.6,5.9,18.7,16.4,18.7C520.5,781.6,526.5,773.5,526.5,762.9"/>
			<path class="st4" d="M566.6,762.9c0-26.7,20.1-44.1,45.9-44.1c17.8,0,28.8,7.9,33.8,14.7l-18,17.8c-3-3.8-7.9-6.6-14.5-6.6
				c-9.6,0-18,6.3-18,18.3s8.4,18.7,18,18.7c6.5,0,11.7-3.3,14.7-6.8c6.5,6.5,11.5,11.9,17.8,18c-5.1,6.6-16.2,14.5-33.8,14.5
				C586.6,807.2,566.6,789.8,566.6,762.9"/>
			<path class="st4" d="M655,762.9c0-23.6,15.4-44.1,39.1-44.1c5.1,0,16.1,1.9,23.4,13.3h0.2v-11h28.6v84.1h-28.6v-10.6h-0.2
				c-7.3,11.3-18.1,12.7-23.4,12.7C671.1,807.2,655,786.6,655,762.9 M717.7,762.9c0-10.5-5.9-18.3-16.6-18.3
				c-10.5,0-16.4,7.9-16.4,18.3c0,10.6,5.9,18.7,16.4,18.7C711.7,781.6,717.7,773.5,717.7,762.9"/>
			<path class="st4" d="M801.6,746.1v21.3c0,7.8,2.3,14.3,14.3,14.3v25.5c-28.8,0-42.9-19.2-42.9-42.9v-18.1h-14V721h14v-23.9h28.6
				V721h16.9v25.1H801.6z"/>
			<path class="st4" d="M831.2,692.2c0-7.8,6.5-14,14.5-14c7.7,0,14.1,6.1,14.1,14c0,7.7-6.5,14-14.1,14
				C837.7,706.2,831.2,699.9,831.2,692.2 M831.2,721h28.6v84.1h-28.6V721z"/>
			<path class="st4" d="M874.7,762.9c0-23.6,16.9-44.1,46.1-44.1s46.2,20.6,46.2,44.1c0,23.7-17.1,44.3-46.2,44.3
				S874.7,786.6,874.7,762.9 M937.3,762.9c0-10.5-5.9-18.3-16.6-18.3c-10.5,0-16.4,7.9-16.4,18.3c0,10.6,5.9,18.7,16.4,18.7
				C931.4,781.6,937.3,773.5,937.3,762.9"/>
			<path class="st4" d="M1039.2,805.1v-46.8c0-9.9-5.4-13.8-14-13.8c-7.9,0-14.8,5.6-14.8,18.1v42.4h-28.6V721h28.6v11
				c5.6-7.2,16.1-13.3,30.5-13.3c18.3,0,26.9,11.5,26.9,26v60.4H1039.2z"/>
			<path class="st4" d="M284.5,896.6c0-23.6,15.4-44.1,39.1-44.1c5.1,0,16,1.9,23.4,13.3h0.2v-43.1h28.6v116.2h-28.6v-10.6H347
				c-7.3,11.3-18.1,12.7-23.4,12.7C300.5,941,284.5,920.4,284.5,896.6 M347.1,896.6c0-10.5-5.9-18.3-16.6-18.3
				c-10.5,0-16.4,7.9-16.4,18.3c0,10.6,5.9,18.7,16.4,18.7C341.2,915.3,347.1,907.3,347.1,896.6"/>
			<path class="st4" d="M390.6,896.6c0-24.4,18.3-44.1,44.8-44.1c23.7,0,42.2,17.8,42.2,47.6v5.2h-57.7c1.9,7,8.7,13.8,19.9,13.8
				c4.5,0,14.1-2.1,19.2-5.4l11.5,17.8c-8.2,6.5-22.3,9.4-34.2,9.4C410.6,941,390.6,924.4,390.6,896.6 M435.4,874.3
				c-10.6,0-14.7,8.4-15.7,13.4h31.2C449.7,881.8,446.6,874.3,435.4,874.3"/>
			<path class="st4" d="M591.2,938.9v-46.8c0-9.9-5.4-13.8-14-13.8c-7.9,0-14.8,5.6-14.8,18.1v42.4h-28.6v-84.1h28.6v11
				c5.6-7.2,16-13.3,30.5-13.3c13.4,0,21.6,6.3,24.9,15.4c5.8-7.5,15.2-15.4,32.4-15.4c18.3,0,26.9,11.5,26.9,26v60.4h-28.6v-46.8
				c0-9.9-5.4-13.8-14-13.8c-15.5,0-14.8,18.1-14.8,18.1v42.4H591.2z"/>
			<path class="st4" d="M692,896.6c0-23.6,15.4-44.1,39.1-44.1c5.1,0,16.1,1.9,23.4,13.3h0.2v-11h28.6v84.1h-28.6v-10.6h-0.2
				c-7.3,11.3-18.1,12.7-23.4,12.7C708.1,941,692,920.4,692,896.6 M754.6,896.6c0-10.5-5.9-18.3-16.6-18.3
				c-10.5,0-16.4,7.9-16.4,18.3c0,10.6,5.9,18.7,16.4,18.7C748.7,915.3,754.6,907.3,754.6,896.6"/>
			<path class="st4" d="M838.6,879.9v21.3c0,7.8,2.3,14.3,14.3,14.3V941c-28.8,0-42.9-19.2-42.9-42.9v-18.1h-14v-25.1h14v-23.9h28.6
				v23.9h16.9v25.1H838.6z"/>
			<path class="st4" d="M862.1,896.6c0-24.4,18.3-44.1,44.8-44.1c23.7,0,42.2,17.8,42.2,47.6v5.2h-57.7c1.9,7,8.7,13.8,19.9,13.8
				c4.5,0,14.1-2.1,19.2-5.4l11.5,17.8c-8.2,6.5-22.3,9.4-34.2,9.4C882.2,941,862.1,924.4,862.1,896.6 M906.9,874.3
				c-10.6,0-14.7,8.4-15.7,13.4h31.2C921.3,881.8,918.1,874.3,906.9,874.3 M907.3,819.5c2.1-1.9,4.4-3,7.2-3c2.3,0,4.9,1,6.8,2.8
				c1.9,2.1,2.8,4.5,2.8,7.2c0,2.6-0.9,5.1-2.8,6.8l-11.2,11.2c-1.6,1.7-4.4,3-6.8,3c-2.6,0-5.1-1-7-3c-2.1-1.9-3-4.4-3-7
				c0-2.3,0.9-4.9,3-6.8L907.3,819.5z"/>
			<path class="st4" d="M960,938.9v-84.1h28.6v11c5.8-7.2,16.9-13.6,25.8-13.6v27.6c-1.6-0.3-3.3-0.3-5.8-0.3
				c-8.2,0-20.1,2.3-20.1,17.1v42.4H960z"/>
			<path class="st4" d="M1027.1,826c0-7.9,6.5-14,14.5-14c7.7,0,14.1,6.1,14.1,14c0,7.7-6.5,14-14.1,14
				C1033.6,839.9,1027.1,833.7,1027.1,826 M1027.1,854.8h28.6v84.1h-28.6V854.8z"/>
			<path class="st4" d="M1070.6,896.6c0-24.4,18.3-44.1,44.8-44.1c23.7,0,42.2,17.8,42.2,47.6v5.2h-57.7c1.9,7,8.7,13.8,19.9,13.8
				c4.5,0,14.1-2.1,19.2-5.4l11.5,17.8c-8.2,6.5-22.3,9.4-34.2,9.4C1090.6,941,1070.6,924.4,1070.6,896.6 M1115.4,874.3
				c-10.6,0-14.7,8.4-15.7,13.4h31.2C1129.7,881.8,1126.6,874.3,1115.4,874.3"/>
			<rect x="1170.7" y="822.7" class="st4" width="28.6" height="116.2"/>
			<path class="st4" d="M460.2,1087.2c0,7.5-5.1,12.6-13.7,12.6h-21.6v-46.5h19.3c8.3,0,13.3,4.9,13.3,11.9c0,5.5-3.6,9.4-7.6,10.5
				C456.1,1076.1,460.2,1081.7,460.2,1087.2 M430.7,1073.4h12.4c5.4,0,8.2-3.2,8.2-7.5c0-4.2-2.8-7.5-8.2-7.5h-12.4V1073.4z
				 M445.3,1094.6c5.4,0,8.7-3.1,8.7-8c0-4.3-3-8-8.7-8h-14.6v16H445.3z"/>
			<path class="st4" d="M467.4,1082.9c0-9.8,7.1-17.7,17-17.7c10.4,0,16.5,8,16.5,18.1v1.3h-27.8c0.4,6.3,4.9,11.3,12.3,11.3
				c4,0,7.7-1.5,10.4-4.3l2.9,3.8c-3.5,3.3-8.1,5.2-13.7,5.2C474.7,1100.6,467.4,1093.4,467.4,1082.9 M495.6,1080.7
				c-0.1-5-3.5-10.8-11.3-10.8c-7.3,0-11,5.7-11.2,10.8H495.6z"/>
			<path class="st4" d="M506.6,1095.3l2.7-3.8c2.3,2.6,6.6,4.8,11.4,4.8c5.2,0,8.2-2.4,8.2-5.8c0-8.2-21.3-3.1-21.3-15.6
				c0-5.3,4.5-9.7,12.8-9.7c5.9,0,10,2.2,12.7,4.9l-2.5,3.6c-2-2.4-5.7-4.3-10.2-4.3c-4.7,0-7.7,2.3-7.7,5.3
				c0,7.3,21.3,2.5,21.3,15.6c0,5.7-4.6,10.2-13.4,10.2C514.8,1100.6,510.1,1098.9,506.6,1095.3"/>
			<path class="st4" d="M540.6,1082.9c0-9.8,6.6-17.7,17-17.7c10.5,0,17,7.9,17,17.7c0,9.8-6.6,17.7-17,17.7
				C547.1,1100.6,540.6,1092.7,540.6,1082.9 M569,1082.9c0-6.8-4-13-11.4-13c-7.3,0-11.4,6.1-11.4,13c0,6.9,4,13,11.4,13
				C564.9,1095.9,569,1089.8,569,1082.9"/>
			<path class="st4" d="M586.4,1054.2c1.7,0,3.2,1.5,3.2,3.2s-1.5,3.1-3.2,3.1c-1.7,0-3.1-1.4-3.1-3.1S584.6,1054.2,586.4,1054.2
				 M583.7,1066.1h5.3v33.7h-5.3V1066.1z"/>
			<path class="st4" d="M623.5,1099.8v-22.1c0-6-3.1-7.8-7.8-7.8c-4.2,0-10.2,2.9-10.2,13v16.9h-5.3v-33.7h5.3v4.9
				c2.4-2.9,7.1-5.7,12.4-5.7c7.1,0,10.9,3.6,10.9,10.9v23.7H623.5z"/>
			<path class="st4" d="M688.9,1053.2v46.5h-5.3v-5c-3.1,4.7-8,5.8-10.9,5.8c-10.5,0-17-8-17-17.7c0-9.8,6.6-17.7,17-17.7
				c2.7,0,7.7,1,10.9,5.9v-17.9H688.9z M684.1,1082.9c0-6.8-4-13-11.4-13c-7.3,0-11.4,6.1-11.4,13c0,6.9,4,13,11.4,13
				C680.1,1095.9,684.1,1089.8,684.1,1082.9"/>
			<path class="st4" d="M697.6,1082.9c0-9.8,7.1-17.7,17-17.7c10.4,0,16.5,8,16.5,18.1v1.3h-27.8c0.4,6.3,4.9,11.3,12.3,11.3
				c4,0,7.7-1.5,10.4-4.3l2.9,3.8c-3.5,3.3-8.1,5.2-13.7,5.2C704.9,1100.6,697.6,1093.4,697.6,1082.9 M725.8,1080.7
				c-0.1-5-3.5-10.8-11.3-10.8c-7.3,0-11,5.7-11.2,10.8H725.8z"/>
			<path class="st4" d="M809.7,1076.1v23.7h-5.2v-22c0-5.4-2.6-7.5-6.6-7.7c-7.3,0-11.4,4.7-11.4,9.8v20h-5.2v-22
				c0-6-3.1-7.8-7.7-7.8c-4.2,0-10.2,2.9-10.2,13v16.9h-5.3v-33.7h5.3v4.9c2.4-2.9,7.1-5.7,12.4-5.7c5.3,0,8.7,2,10.1,6.1
				c2.7-3.5,6.7-6.1,13-6.1C806,1065.2,809.7,1068.8,809.7,1076.1"/>
			<path class="st4" d="M851.5,1066.1v33.7h-5.3v-5c-3.1,4.7-8,5.8-10.9,5.8c-10.5,0-17-8-17-17.7c0-9.8,6.6-17.7,17-17.7
				c2.7,0,7.7,1,10.9,5.9v-5H851.5z M846.7,1082.9c0-6.8-4-13-11.4-13c-7.3,0-11.4,6.1-11.4,13c0,6.9,4,13,11.4,13
				C842.7,1095.9,846.7,1089.8,846.7,1082.9"/>
			<path class="st4" d="M869.5,1086.8c0,1.5,0.2,9.1,8.9,9.1v4.7c-13.8,0-14.2-11.7-14.2-13.7v-16.2h-6v-4.6h6v-9.2h5.3v9.2h8.9v4.6
				h-8.9V1086.8z"/>
			<path class="st4" d="M883.7,1082.9c0-9.8,7.1-17.7,17-17.7c10.4,0,16.5,8,16.5,18.1v1.3h-27.8c0.4,6.3,4.9,11.3,12.3,11.3
				c4,0,7.7-1.5,10.4-4.3l2.9,3.8c-3.5,3.3-8.1,5.2-13.7,5.2C891,1100.6,883.7,1093.4,883.7,1082.9 M911.9,1080.7
				c-0.1-5-3.5-10.8-11.3-10.8c-7.3,0-11,5.7-11.2,10.8H911.9z M901.5,1051.7c0.5-0.5,1-0.7,1.6-0.7c0.6,0,1.2,0.2,1.7,0.7
				c0.5,0.5,0.7,1,0.7,1.6c0,0.6-0.2,1.2-0.7,1.6l-5.6,5.6c-0.4,0.4-1,0.7-1.7,0.7c-0.6,0-1.1-0.2-1.6-0.7c-0.4-0.4-0.6-1-0.6-1.6
				c0-0.6,0.2-1.2,0.6-1.6L901.5,1051.7z"/>
			<path class="st4" d="M943.4,1071c-0.7-0.1-1.4-0.1-2.2-0.1c-4.2,0-10.2,2-10.2,12v16.9h-5.3v-33.7h5.3v4.9
				c2.4-2.9,7.1-5.7,12.4-5.7V1071z"/>
			<path class="st4" d="M953.1,1054.2c1.7,0,3.2,1.5,3.2,3.2s-1.5,3.1-3.2,3.1c-1.7,0-3.1-1.4-3.1-3.1S951.3,1054.2,953.1,1054.2
				 M950.4,1066.1h5.3v33.7h-5.3V1066.1z"/>
			<path class="st4" d="M964.9,1082.9c0-9.8,7.1-17.7,17-17.7c10.4,0,16.5,8,16.5,18.1v1.3h-27.8c0.4,6.3,4.9,11.3,12.3,11.3
				c4,0,7.7-1.5,10.4-4.3l2.9,3.8c-3.5,3.3-8.1,5.2-13.7,5.2C972.2,1100.6,964.9,1093.4,964.9,1082.9 M993.1,1080.7
				c-0.1-5-3.5-10.8-11.3-10.8c-7.3,0-11,5.7-11.2,10.8H993.1z"/>
			<rect x="1007" y="1053.2" class="st4" width="5.3" height="46.5"/>
			<path class="st4" d="M1053.1,1077.9v6.6c0,1.5-1.2,2.6-2.6,2.6c-1.5,0-2.6-1.1-2.6-2.6v-11.3c12.1,0,12.8-7.1,12.8-8.7v-0.3
				c0-3.5-2.7-6.5-8.3-6.5c-5.4,0-8.7,2.2-11.4,5.7l-3.6-3.8c3.4-4.4,8.7-7.1,15.4-7.1c7.8,0,14,4.2,14,11.9
				C1066.8,1069.6,1064.2,1076,1053.1,1077.9 M1050.5,1093.3c2,0,3.6,1.6,3.6,3.6s-1.6,3.6-3.6,3.6s-3.6-1.5-3.6-3.6
				S1048.4,1093.3,1050.5,1093.3"/>
			<polygon class="st4" points="330.5,1169.6 330.5,1123 336.5,1123 336.5,1164.4 358.5,1164.4 358.5,1169.6 			"/>
			<path class="st4" d="M364.2,1152.7c0-9.8,6.6-17.7,17-17.7c10.5,0,17,7.9,17,17.7c0,9.8-6.6,17.7-17,17.7
				C370.7,1170.4,364.2,1162.4,364.2,1152.7 M392.6,1152.7c0-6.8-4-13-11.4-13c-7.3,0-11.4,6.1-11.4,13c0,6.9,4,13,11.4,13
				C388.5,1165.7,392.6,1159.6,392.6,1152.7"/>
			<path class="st4" d="M406.8,1156.7v-0.3v-20.5h5.3v20.7c0,1.3,0.3,9.2,9,9.2c8.9,0,9.1-8,9.1-9.3v-20.5h5.3v20.5v0.3
				c0,2.1-0.5,13.7-14.4,13.7C407.3,1170.4,406.8,1158.7,406.8,1156.7"/>
			<path class="st4" d="M444.1,1152.7c0-9.8,7.1-17.7,17-17.7c10.4,0,16.5,8,16.5,18.1v1.3h-27.8c0.4,6.3,4.9,11.3,12.3,11.3
				c4,0,7.7-1.5,10.4-4.3l2.9,3.8c-3.5,3.3-8.1,5.2-13.7,5.2C451.5,1170.4,444.1,1163.2,444.1,1152.7 M472.3,1150.5
				c-0.1-5-3.5-10.8-11.3-10.8c-7.3,0-11,5.7-11.2,10.8H472.3z"/>
			<polygon class="st4" points="484.6,1169.6 484.6,1165.4 503.6,1140.5 484.6,1140.5 484.6,1135.9 510.6,1135.9 510.6,1139.8 
				491.4,1165 510.8,1165 510.8,1169.6 			"/>
			<path class="st4" d="M538.3,1156.7v-0.3v-20.5h5.3v20.7c0,1.3,0.3,9.2,9,9.2c8.9,0,9.1-8,9.1-9.3v-20.5h5.3v20.5v0.3
				c0,2.1-0.5,13.7-14.4,13.7C538.8,1170.4,538.3,1158.7,538.3,1156.7"/>
			<path class="st4" d="M600.9,1169.6v-22c0-6-3.1-7.8-7.8-7.8c-4.2,0-10.2,2.9-10.2,13v16.9h-5.3v-33.7h5.3v4.9
				c2.4-2.9,7.1-5.7,12.4-5.7c7.1,0,10.9,3.6,10.9,10.9v23.7H600.9z"/>
			<path class="st4" d="M633.1,1152.7c0-9.8,6.6-17.7,17-17.7c10.5,0,17,7.9,17,17.7c0,9.8-6.6,17.7-17,17.7
				C639.7,1170.4,633.1,1162.4,633.1,1152.7 M661.5,1152.7c0-6.8-4-13-11.4-13c-7.3,0-11.4,6.1-11.4,13c0,6.9,4,13,11.4,13
				C657.5,1165.7,661.5,1159.6,661.5,1152.7"/>
			<path class="st4" d="M675.7,1156.7v-0.3v-20.5h5.3v20.7c0,1.3,0.3,9.2,9,9.2c8.9,0,9.1-8,9.1-9.3v-20.5h5.3v20.5v0.3
				c0,2.1-0.5,13.7-14.4,13.7C676.2,1170.4,675.7,1158.7,675.7,1156.7"/>
			<path class="st4" d="M722.4,1156.6c0,1.5,0.2,9.1,8.9,9.1v4.7c-13.8,0-14.2-11.7-14.2-13.7v-16.2h-6v-4.6h6v-9.2h5.3v9.2h8.9v4.6
				h-8.9V1156.6z"/>
			<path class="st4" d="M741.7,1124c1.7,0,3.2,1.5,3.2,3.2c0,1.7-1.5,3.1-3.2,3.1c-1.7,0-3.1-1.4-3.1-3.1
				C738.5,1125.5,739.9,1124,741.7,1124 M739,1135.9h5.3v33.7H739V1135.9z"/>
			<rect x="755.5" y="1123" class="st4" width="5.3" height="46.5"/>
			<path class="st4" d="M821,1123v46.5h-5.3v-5c-3.1,4.7-8,5.8-10.9,5.8c-10.5,0-17-8-17-17.7c0-9.8,6.6-17.7,17-17.7
				c2.7,0,7.7,1,10.9,5.9V1123H821z M816.2,1152.7c0-6.8-4-13-11.4-13c-7.3,0-11.4,6.1-11.4,13c0,6.9,4,13,11.4,13
				C812.2,1165.7,816.2,1159.6,816.2,1152.7"/>
			<path class="st4" d="M829.7,1152.7c0-9.8,7.1-17.7,17-17.7c10.4,0,16.5,8,16.5,18.1v1.3h-27.8c0.4,6.3,4.9,11.3,12.3,11.3
				c4,0,7.7-1.5,10.4-4.3l2.9,3.8c-3.5,3.3-8.1,5.2-13.7,5.2C837,1170.4,829.7,1163.2,829.7,1152.7 M857.9,1150.5
				c-0.1-5-3.5-10.8-11.3-10.8c-7.3,0-11,5.7-11.2,10.8H857.9z"/>
			<path class="st4" d="M895.5,1135.9v5c3.2-4.8,8.2-5.9,10.9-5.9c10.5,0,17,7.9,17,17.7c0,9.8-6.6,17.7-17,17.7
				c-2.9,0-7.7-1.1-10.9-5.8v17.9h-5.3v-46.6H895.5z M917.7,1152.7c0-6.8-4-13-11.4-13c-7.3,0-11.4,6.1-11.4,13c0,6.9,4,13,11.4,13
				C913.7,1165.7,917.7,1159.6,917.7,1152.7"/>
			<path class="st4" d="M949.6,1140.8c-0.7-0.1-1.4-0.1-2.2-0.1c-4.2,0-10.2,2-10.2,12v16.9H932v-33.7h5.3v4.9
				c2.4-2.9,7.1-5.7,12.4-5.7V1140.8z"/>
			<path class="st4" d="M954.1,1152.7c0-9.8,6.6-17.7,17-17.7c10.5,0,17,7.9,17,17.7c0,9.8-6.6,17.7-17,17.7
				C960.7,1170.4,954.1,1162.4,954.1,1152.7 M982.5,1152.7c0-6.8-4-13-11.4-13c-7.3,0-11.4,6.1-11.4,13c0,6.9,4,13,11.4,13
				C978.5,1165.7,982.5,1159.6,982.5,1152.7"/>
			<path class="st4" d="M1006.3,1178.6c8.5,0,8.9-7.5,8.9-9.1v-33.6h5.3v33.6c0,2.2-0.3,13.7-14.2,13.7V1178.6z M1017.8,1124
				c1.7,0,3.2,1.5,3.2,3.2s-1.5,3.1-3.2,3.1c-1.7,0-3.1-1.4-3.1-3.1S1016.1,1124,1017.8,1124"/>
			<path class="st4" d="M1031.6,1156.7v-0.3v-20.5h5.3v20.7c0,1.3,0.3,9.2,9,9.2c8.9,0,9.1-8,9.1-9.3v-20.5h5.3v20.5v0.3
				c0,2.1-0.5,13.7-14.4,13.7C1032.1,1170.4,1031.6,1158.7,1031.6,1156.7"/>
			<path class="st4" d="M1068.1,1165.1l2.7-3.8c2.3,2.6,6.6,4.8,11.4,4.8c5.2,0,8.2-2.4,8.2-5.8c0-8.2-21.3-3.1-21.3-15.6
				c0-5.3,4.5-9.7,12.8-9.7c5.9,0,10,2.2,12.7,4.9l-2.5,3.6c-2-2.4-5.7-4.3-10.2-4.3c-4.7,0-7.7,2.3-7.7,5.3
				c0,7.3,21.3,2.5,21.3,15.6c0,5.7-4.6,10.2-13.4,10.2C1076.2,1170.4,1071.5,1168.7,1068.1,1165.1"/>
			<path class="st4" d="M1111.4,1156.6c0,1.5,0.2,9.1,8.9,9.1v4.7c-13.8,0-14.2-11.7-14.2-13.7v-16.2h-6v-4.6h6v-9.2h5.3v9.2h8.9
				v4.6h-8.9V1156.6z"/>
			<path class="st4" d="M1125.6,1152.7c0-9.8,7.1-17.7,17-17.7c10.4,0,16.5,8,16.5,18.1v1.3h-27.8c0.4,6.3,4.9,11.3,12.3,11.3
				c4,0,7.7-1.5,10.4-4.3l2.9,3.8c-3.5,3.3-8.1,5.2-13.7,5.2C1132.9,1170.4,1125.6,1163.2,1125.6,1152.7 M1153.8,1150.5
				c-0.1-5-3.5-10.8-11.3-10.8c-7.3,0-11,5.7-11.2,10.8H1153.8z"/>
			<rect x="357.6" y="1192.9" class="st4" width="11.4" height="46.5"/>
			<path class="st4" d="M375,1222.5c0-9.8,7.3-17.7,17.9-17.7c9.5,0,16.9,7.1,16.9,19v2.1h-23.1c0.8,2.8,3.5,5.5,8,5.5
				c1.8,0,5.7-0.8,7.7-2.2l4.6,7.1c-3.3,2.6-8.9,3.8-13.7,3.8C383,1240.2,375,1233.6,375,1222.5 M393,1213.5c-4.3,0-5.9,3.3-6.3,5.4
				h12.5C398.7,1216.5,397.4,1213.5,393,1213.5"/>
			<path class="st4" d="M446.8,1215.8v8.5c0,3.1,0.9,5.7,5.7,5.7v10.2c-11.5,0-17.2-7.7-17.2-17.2v-7.3h-5.6v-10h5.6v-9.6h11.4v9.6
				h6.8v10H446.8z"/>
			<path class="st4" d="M456.9,1222.5c0-9.8,7.3-17.7,17.9-17.7c9.5,0,16.9,7.1,16.9,19v2.1h-23.1c0.8,2.8,3.5,5.5,8,5.5
				c1.8,0,5.7-0.8,7.7-2.2l4.6,7.1c-3.3,2.6-8.9,3.8-13.7,3.8C464.9,1240.2,456.9,1233.6,456.9,1222.5 M474.8,1213.5
				c-4.3,0-5.9,3.3-6.3,5.4H481C480.5,1216.5,479.3,1213.5,474.8,1213.5"/>
			<path class="st4" d="M519.9,1239.3v-18.7c0-4-2.2-5.5-5.6-5.5c-3.1,0-5.9,2.2-5.9,7.3v17h-11.4v-33.6h11.4v4.4
				c2.2-2.9,6.4-5.3,12.2-5.3c5.4,0,8.7,2.5,10,6.1c2.3-3,6.1-6.1,13-6.1c7.3,0,10.7,4.6,10.7,10.4v24.1h-11.4v-18.7
				c0-4-2.2-5.5-5.6-5.5c-6.2,0-5.9,7.3-5.9,7.3v17H519.9z"/>
			<path class="st4" d="M573.5,1235.1L573.5,1235.1l-0.1,17.1H562v-46.5h11.4v4.4h0.1c2.9-4.5,7.3-5.3,9.4-5.3
				c9.5,0,15.6,8.2,15.6,17.7c0,9.5-6.4,17.7-15.6,17.7C580.7,1240.2,576.4,1239.6,573.5,1235.1 M586.6,1222.5
				c0-4.2-2.4-7.3-6.6-7.3c-4.3,0-6.6,3.1-6.6,7.3c0,4.3,2.4,7.5,6.6,7.5C584.2,1229.9,586.6,1226.7,586.6,1222.5"/>
			<path class="st4" d="M602.6,1235.3c1.5-2.7,3-5,4.5-7.7c2.9,2.1,8.3,4,11.9,4c3.1,0,4-0.8,4-2c0-1.7-2.2-2-5.2-2.4
				c-5.4-0.8-14-2.7-14-11.3c0-5.9,5.2-11.2,14.5-11.2c5.2,0,10.1,1.6,13.8,4.1c-1.4,2.7-2.7,4.7-4,7.3c-2.2-1.6-6-3.2-9.7-3.2
				c-2.2,0-3.7,0.8-3.7,2.1c0,1.3,2.1,1.7,4.9,2.1c5.4,0.8,14.2,2.9,14.2,11.7c0,6.6-5.8,11.4-15.4,11.4
				C612.4,1240.2,606.2,1238.3,602.6,1235.3"/>
			<path class="st4" d="M655.3,1222.5c0-9.4,6.1-17.7,15.6-17.7c2,0,6.4,0.8,9.3,5.3h0.1v-17.2h11.4v46.5h-11.4v-4.3h-0.1
				c-2.9,4.5-7.3,5.1-9.3,5.1C661.7,1240.2,655.3,1231.9,655.3,1222.5 M680.3,1222.5c0-4.2-2.4-7.3-6.6-7.3c-4.2,0-6.6,3.1-6.6,7.3
				c0,4.3,2.4,7.5,6.6,7.5C677.9,1229.9,680.3,1226.7,680.3,1222.5"/>
			<path class="st4" d="M697.7,1222.5c0-9.8,7.3-17.7,17.9-17.7c9.5,0,16.9,7.1,16.9,19v2.1h-23.1c0.8,2.8,3.5,5.5,8,5.5
				c1.8,0,5.7-0.8,7.7-2.2l4.6,7.1c-3.3,2.6-8.9,3.8-13.7,3.8C705.7,1240.2,697.7,1233.6,697.7,1222.5 M715.6,1213.5
				c-4.3,0-5.9,3.3-6.3,5.4h12.5C721.3,1216.5,720.1,1213.5,715.6,1213.5"/>
			<polygon class="st4" points="763.6,1239.3 751.1,1205.7 763.1,1205.7 769.9,1226.9 776.9,1205.7 789,1205.7 776.3,1239.3 			"/>
			<path class="st4" d="M790.4,1222.5c0-9.4,6.8-17.7,18.4-17.7c11.7,0,18.5,8.2,18.5,17.7c0,9.5-6.8,17.7-18.5,17.7
				C797.1,1240.2,790.4,1231.9,790.4,1222.5 M815.4,1222.5c0-4.2-2.4-7.3-6.6-7.3c-4.2,0-6.6,3.1-6.6,7.3c0,4.3,2.4,7.5,6.6,7.5
				C813,1229.9,815.4,1226.7,815.4,1222.5"/>
			<path class="st4" d="M831.5,1235.3c1.5-2.7,3-5,4.5-7.7c2.9,2.1,8.3,4,11.9,4c3.1,0,4-0.8,4-2c0-1.7-2.2-2-5.2-2.4
				c-5.4-0.8-14-2.7-14-11.3c0-5.9,5.2-11.2,14.5-11.2c5.2,0,10.1,1.6,13.8,4.1c-1.4,2.7-2.7,4.7-4,7.3c-2.2-1.6-6-3.2-9.7-3.2
				c-2.2,0-3.7,0.8-3.7,2.1c0,1.3,2.1,1.7,4.9,2.1c5.4,0.8,14.2,2.9,14.2,11.7c0,6.6-5.8,11.4-15.4,11.4
				C841.2,1240.2,835,1238.3,831.5,1235.3"/>
			<path class="st4" d="M900.3,1215.8v8.5c0,3.1,0.9,5.7,5.7,5.7v10.2c-11.5,0-17.2-7.7-17.2-17.2v-7.3h-5.6v-10h5.6v-9.6h11.4v9.6
				h6.8v10H900.3z"/>
			<path class="st4" d="M912.1,1239.3v-33.6h11.4v4.4c2.3-2.9,6.8-5.4,10.3-5.4v11c-0.6-0.1-1.3-0.1-2.3-0.1c-3.3,0-8,0.9-8,6.8v17
				H912.1z"/>
			<path class="st4" d="M937.3,1222.5c0-9.4,6.1-17.7,15.6-17.7c2,0,6.4,0.8,9.4,5.3h0.1v-4.4h11.4v33.6h-11.4v-4.3h-0.1
				c-2.9,4.5-7.3,5.1-9.4,5.1C943.7,1240.2,937.3,1231.9,937.3,1222.5 M962.3,1222.5c0-4.2-2.4-7.3-6.6-7.3c-4.2,0-6.6,3.1-6.6,7.3
				c0,4.3,2.4,7.5,6.6,7.5C959.9,1229.9,962.3,1226.7,962.3,1222.5"/>
			<polygon class="st4" points="990.1,1239.3 977.6,1205.7 989.5,1205.7 996.4,1226.9 1003.3,1205.7 1015.4,1205.7 1002.7,1239.3 
							"/>
			<path class="st4" d="M1016.8,1222.5c0-9.4,6.1-17.7,15.6-17.7c2,0,6.4,0.8,9.4,5.3h0.1v-4.4h11.4v33.6h-11.4v-4.3h-0.1
				c-2.9,4.5-7.3,5.1-9.4,5.1C1023.2,1240.2,1016.8,1231.9,1016.8,1222.5 M1041.9,1222.5c0-4.2-2.4-7.3-6.6-7.3
				c-4.2,0-6.6,3.1-6.6,7.3c0,4.3,2.4,7.5,6.6,7.5C1039.5,1229.9,1041.9,1226.7,1041.9,1222.5"/>
			<path class="st4" d="M1095.3,1205.7v17.2c0,10.1-6.6,17.2-17.2,17.2c-11.5,0-17.2-7.7-17.2-17.2v-17.2h11.4v18.5
				c0,3.1,0.9,5.7,5.7,5.7c4.7,0,5.7-2.6,5.7-5.7v-18.5H1095.3z"/>
			<path class="st4" d="M1122.7,1239.3l-5.6-9.8l-5.7,9.8h-12.3l10.6-17.3l-10-16.3h12.5l4.8,8.8c1.4-2.7,3.4-6.1,4.8-8.8h12.4
				l-10,16.3l10.8,17.3H1122.7z"/>
			<path class="st5" d="M1273.9,348.7c0,81.9-66.4,148.4-148.4,148.4c-81.9,0-148.4-66.4-148.4-148.4s66.4-148.4,148.4-148.4
				C1207.4,200.4,1273.9,266.8,1273.9,348.7"/>
			<path class="st4" d="M895.8,502.6c-5.7-19.2-18.6-35-36.2-44.5c-9.1-4.9-19.1-7.8-29.3-8.6v-10.5h7c3.5,0,6.3-2.8,6.3-6.3
				s-2.8-6.3-6.3-6.3h-26.7c-3.5,0-6.3,2.8-6.3,6.3s2.8,6.3,6.3,6.3h7v10.4c-4.4,0.4-8.8,1.1-13.1,2.3c-3.4,0.9-5.4,4.4-4.5,7.7
				c0.9,3.4,4.4,5.4,7.7,4.5c5.2-1.4,10.6-2.1,15.9-2.1c10.2,0.2,20.7,2.6,29.8,7.5c14.6,7.9,25.3,21.1,30.1,37
				c4.8,16,3,32.8-4.9,47.5c-7.9,14.6-21.1,25.3-37,30.1c-16,4.7-32.8,3-47.5-4.9c-30.2-16.3-41.5-54.2-25.2-84.5
				c0.4-0.8,1-1.6,1.5-2.4l2.4,12.5c0.6,3,3.2,5.1,6.2,5.1c0.4,0,0.8,0,1.2-0.1c3.4-0.7,5.7-3.9,5-7.4l-5-26.6
				c0-0.2-0.2-0.4-0.2-0.6c-0.1-0.4-0.3-0.8-0.5-1.2c-0.2-0.4-0.4-0.7-0.7-1c-0.2-0.2-0.2-0.4-0.4-0.6c-0.1-0.1-0.3-0.2-0.4-0.3
				c-0.3-0.3-0.7-0.5-1.1-0.7c-0.3-0.2-0.7-0.3-1-0.5c-0.4-0.1-0.8-0.2-1.2-0.2c-0.4,0-0.8-0.1-1.2,0c-0.2,0-0.4,0-0.5,0l-26.6,5
				c-3.4,0.7-5.7,3.9-5,7.4c0.6,3.4,4,5.7,7.4,5l10.8-2.1c-0.5,0.8-1.1,1.6-1.5,2.4c-19.6,36.4-6.1,81.9,30.3,101.6
				c11.1,6,23.3,9.1,35.5,9.1c7.2,0,14.4-1,21.5-3.2c19.2-5.7,35-18.6,44.5-36.2C899.4,542,901.5,521.8,895.8,502.6"/>
			<path class="st4" d="M865.2,546.3c12.3-22.8,3.8-51.2-18.9-63.5c-7.1-3.8-14.7-5.7-22.3-5.6V524l-33.1,33.2
				c3.1,3.1,6.8,5.9,10.8,8.1C824.4,577.5,852.8,569.1,865.2,546.3"/>
			<path class="st4" d="M817.7,334.8h17.7l11-3.5c0.5-0.2,1.1-0.2,1.7-0.1l16.5,2.4c1.8,0.3,3.2,1.8,3.2,3.7V348
				c0,1.9-1.4,3.4-3.2,3.7L848,354c-0.2,0-0.4,0-0.5,0c-0.4,0-0.7-0.1-1.1-0.2l-11-3.3h-17.7V334.8z"/>
			<path class="st4" d="M768.4,367.4v-49.2h24.5c6.5,0,12.7,2.6,17.3,7.2v34.8c-4.6,4.6-10.8,7.2-17.3,7.2H768.4z"/>
			<path class="st4" d="M605,482.3c-1.3,0-2.6,0.1-3.8,0.3l26.7-96.5c1.6,0.2,3.2,0.3,4.9,0.3h41c0,2.4-0.3,5.1-1.1,7.7
				c-1.2,3.8-3.8,6.1-6.5,8.5c-2.9,2.6-5.9,5.3-7,9.6c-0.9,3.3,0.7,6.5,2,9.3c1.1,2.3,2.2,4.6,1.7,6.1c-0.7,1.9-2.3,2.9-4.7,4.4
				c-2.5,1.5-5.7,3.5-7,7.3c-1.2,3.7,0,7.4,1.2,11c1.1,3.2,2.1,6.2,1.2,8.5c-0.9,2.4-3.3,3.7-6.1,5.2c-3.1,1.7-6.7,3.6-8,7.8
				c-1,3-0.1,7,1.1,10.3H605z"/>
			<path class="st4" d="M760.9,379.1v-73.6H632.7c-20.2,0-36.6,16.4-36.6,36.6v0.4c0,20.2,16.4,36.6,36.6,36.6H760.9z"/>
			<path class="st4" d="M664.2,566.4H605c-8.6,0-15.7-7-15.7-15.7v-45.3c0-8.6,7-15.7,15.7-15.7h59.3c8.6,0,15.7,7,15.7,15.7v45.3
				C679.9,559.4,672.9,566.4,664.2,566.4"/>
			<path class="st3" d="M1040.4,411.5c1.8-0.3,4.2-0.6,7.3-0.6c3.8,0,6.5,0.9,8.2,2.4c1.6,1.4,2.6,3.5,2.6,6.1
				c0,2.7-0.8,4.8-2.3,6.3c-2,2.1-5.3,3.2-9,3.2c-1.1,0-2.2,0-3.1-0.3v11.8h-3.8V411.5z M1044.2,425.7c0.8,0.2,1.9,0.3,3.1,0.3
				c4.6,0,7.4-2.2,7.4-6.3c0-3.9-2.7-5.8-6.9-5.8c-1.7,0-2.9,0.1-3.6,0.3V425.7z"/>
			<path class="st3" d="M1064.7,431.3l-3.1,9.2h-3.9l10-29.4h4.6l10,29.4h-4.1l-3.1-9.2H1064.7z M1074.3,428.3l-2.9-8.5
				c-0.7-1.9-1.1-3.7-1.5-5.4h-0.1c-0.4,1.7-0.9,3.5-1.5,5.3l-2.9,8.5H1074.3z"/>
			<path class="st3" d="M1086.6,411.5c1.9-0.4,4.7-0.6,7.3-0.6c4.1,0,6.7,0.7,8.5,2.4c1.5,1.3,2.3,3.3,2.3,5.6
				c0,3.9-2.4,6.5-5.5,7.5v0.1c2.3,0.8,3.6,2.9,4.3,5.9c1,4.1,1.7,6.9,2.3,8.1h-3.9c-0.5-0.8-1.1-3.4-2-7c-0.9-4.1-2.4-5.6-5.9-5.7
				h-3.6v12.7h-3.8V411.5z M1090.4,424.9h3.9c4.1,0,6.6-2.2,6.6-5.6c0-3.8-2.7-5.5-6.8-5.5c-1.8,0-3.1,0.2-3.8,0.3V424.9z"/>
			<path class="st3" d="M1125.4,411.1h3.8v19.7c0,7.8-3.8,10.2-8.9,10.2c-1.4,0-3.1-0.3-4.1-0.7l0.6-3.1c0.8,0.3,1.9,0.6,3.2,0.6
				c3.4,0,5.4-1.5,5.4-7.3V411.1z"/>
			<path class="st3" d="M1160.6,425.5c0,10.1-6.2,15.5-13.7,15.5c-7.8,0-13.2-6-13.2-14.9c0-9.3,5.8-15.4,13.7-15.4
				C1155.4,410.6,1160.6,416.8,1160.6,425.5 M1137.8,426c0,6.3,3.4,11.9,9.4,11.9c6,0,9.4-5.5,9.4-12.2c0-5.8-3.1-11.9-9.4-11.9
				C1140.9,413.7,1137.8,419.5,1137.8,426"/>
			<path class="st3" d="M1169.3,411.1v17.4c0,6.6,2.9,9.4,6.8,9.4c4.4,0,7.2-2.9,7.2-9.4v-17.4h3.8v17.1c0,9-4.8,12.7-11.1,12.7
				c-6,0-10.6-3.4-10.6-12.6v-17.3H1169.3z"/>
			<path class="st3" d="M1193.8,411.5c1.9-0.4,4.7-0.6,7.3-0.6c4.1,0,6.7,0.7,8.5,2.4c1.5,1.3,2.3,3.3,2.3,5.6
				c0,3.9-2.4,6.5-5.5,7.5v0.1c2.3,0.8,3.6,2.9,4.3,5.9c1,4.1,1.7,6.9,2.3,8.1h-3.9c-0.5-0.8-1.1-3.4-2-7c-0.9-4.1-2.4-5.6-5.9-5.7
				h-3.6v12.7h-3.8V411.5z M1197.6,424.9h3.9c4.1,0,6.6-2.2,6.6-5.6c0-3.8-2.7-5.5-6.8-5.5c-1.8,0-3.1,0.2-3.8,0.3V424.9z"/>
			<polygon class="st3" points="1062.6,400.5 1062.6,324.5 1044.8,342.2 1032,328.9 1065.6,295.8 1085.4,295.8 1085.4,400.5 			"/>
			<path class="st3" d="M1096.7,348.2c0-27,13.7-54,44.3-54c30.6,0,44.3,27,44.3,54s-13.7,54.2-44.3,54.2
				C1110.3,402.4,1096.7,375.2,1096.7,348.2 M1162,348.2c0-19.3-5.7-34.2-21-34.2c-15.2,0-21,14.9-21,34.2c0,19.3,5.8,34.4,21,34.4
				C1156.2,382.6,1162,367.5,1162,348.2"/>
			<path class="st3" d="M1187.1,307.3h2.3c3.6-11.2,14.2-18.4,27.2-18.4c11.7,0,18.5,6.2,22.3,12.8l-9.8,4.7
				c-2.2-4.2-7.1-7.6-12.5-7.6c-6.6,0-11.9,3.3-14.8,8.5h17.6c1.7,0,3.1,1.4,3.1,3.1c0,1.7-1.4,3.1-3.1,3.1h-19.5
				c-0.2,0.9-0.2,1.6-0.2,2.5c0,0.8,0,1.6,0.1,2.3h19.5c1.7,0,3.1,1.4,3.1,3.1c0,1.7-1.4,3.1-3.1,3.1h-17.7
				c2.7,5.3,8.1,8.7,14.8,8.7c5.4,0,10.3-3.4,12.5-7.6l9.8,4.6c-3.8,6.5-10.6,12.9-22.3,12.9c-13.1,0-23.8-7.2-27.3-18.6h-2.2
				c-1.7,0-3.1-1.3-3.1-3.1c0-1.7,1.3-3.1,3.1-3.1h1.1c-0.1-0.7-0.1-1.5-0.1-2.3c0-0.9,0-1.6,0.1-2.5h-1.1c-1.7,0-3.1-1.3-3.1-3.1
				C1184,308.7,1185.3,307.3,1187.1,307.3"/>
			<path class="st3" d="M1039.7,274.9l-2.4,7.4h-3.1l8-23.5h3.7l8,23.5h-3.2l-2.5-7.4H1039.7z M1042.6,253.5l3.2,4h-2.5l-4.5-4
				H1042.6z M1047.4,272.6l-2.3-6.8c-0.5-1.5-0.9-2.9-1.2-4.3h-0.1c-0.3,1.4-0.7,2.8-1.2,4.3l-2.3,6.8H1047.4z"/>
			<path class="st3" d="M1064.7,259.1c1.5-0.2,3.4-0.5,5.8-0.5c3,0,5.2,0.7,6.6,2c1.3,1.1,2.1,2.8,2.1,4.9c0,2.1-0.6,3.8-1.8,5
				c-1.6,1.7-4.2,2.6-7.2,2.6c-0.9,0-1.7,0-2.4-0.2v9.4h-3V259.1z M1067.7,270.4c0.7,0.2,1.5,0.2,2.5,0.2c3.7,0,5.9-1.8,5.9-5
				c0-3.1-2.2-4.6-5.5-4.6c-1.3,0-2.3,0.1-2.9,0.2V270.4z"/>
			<path class="st3" d="M1084.1,274.9l-2.4,7.4h-3.1l8-23.5h3.7l8,23.5h-3.2l-2.5-7.4H1084.1z M1091.8,272.6l-2.3-6.8
				c-0.5-1.5-0.9-2.9-1.2-4.3h-0.1c-0.3,1.4-0.7,2.8-1.2,4.3l-2.3,6.8H1091.8z"/>
			<path class="st3" d="M1101.7,259.1c1.5-0.3,3.7-0.5,5.8-0.5c3.2,0,5.3,0.6,6.8,1.9c1.2,1,1.8,2.7,1.8,4.5c0,3.1-2,5.2-4.4,6v0.1
				c1.8,0.6,2.9,2.3,3.5,4.7c0.8,3.3,1.3,5.5,1.8,6.5h-3.1c-0.4-0.7-0.9-2.7-1.6-5.6c-0.7-3.2-2-4.5-4.7-4.6h-2.9v10.2h-3V259.1z
				 M1104.7,269.8h3.1c3.2,0,5.3-1.8,5.3-4.5c0-3-2.2-4.4-5.4-4.4c-1.5,0-2.5,0.1-3,0.3V269.8z"/>
			<polygon class="st3" points="1125.2,261.4 1118.1,261.4 1118.1,258.8 1135.5,258.8 1135.5,261.4 1128.3,261.4 1128.3,282.3 
				1125.2,282.3 			"/>
			<rect x="1138.1" y="258.8" class="st3" width="3" height="23.5"/>
			<path class="st3" d="M1146.4,259.1c1.5-0.3,3.7-0.5,5.8-0.5c3.2,0,5.3,0.6,6.8,1.9c1.2,1,1.8,2.7,1.8,4.5c0,3.1-2,5.2-4.4,6v0.1
				c1.8,0.6,2.9,2.3,3.5,4.7c0.8,3.3,1.3,5.5,1.8,6.5h-3.1c-0.4-0.7-0.9-2.7-1.6-5.6c-0.7-3.2-2-4.5-4.7-4.6h-2.9v10.2h-3V259.1z
				 M1149.5,269.8h3.1c3.2,0,5.3-1.8,5.3-4.5c0-3-2.2-4.4-5.4-4.4c-1.5,0-2.5,0.1-3,0.3V269.8z"/>
			<path class="st3" d="M1172.6,259.1c1.8-0.3,4-0.5,6.5-0.5c4.4,0,7.5,1,9.5,2.9c2.1,1.9,3.3,4.6,3.3,8.4c0,3.8-1.2,7-3.4,9.1
				c-2.2,2.2-5.8,3.4-10.4,3.4c-2.2,0-4-0.1-5.5-0.3V259.1z M1175.6,279.9c0.8,0.1,1.9,0.2,3.1,0.2c6.5,0,10-3.6,10-10
				c0-5.5-3.1-9.1-9.5-9.1c-1.6,0-2.8,0.1-3.6,0.3V279.9z"/>
			<polygon class="st3" points="1208,271.3 1198.9,271.3 1198.9,279.8 1209.1,279.8 1209.1,282.3 1195.8,282.3 1195.8,258.8 
				1208.5,258.8 1208.5,261.4 1198.9,261.4 1198.9,268.8 1208,268.8 			"/>
		</g>
	</g>
	<g>
		<rect x="1488" y="0.3" class="st3" width="1488.2" height="1488.2"/>
		<rect x="1908.4" y="688.9" class="st4" width="28.6" height="116.2"/>
		<g>
			<path class="st4" d="M1951.9,762.9c0-23.6,16.9-44.1,46.1-44.1c29.1,0,46.2,20.6,46.2,44.1c0,23.7-17.1,44.3-46.2,44.3
				C1968.8,807.2,1951.9,786.6,1951.9,762.9 M2014.5,762.9c0-10.5-5.9-18.3-16.6-18.3c-10.5,0-16.4,7.9-16.4,18.3
				c0,10.6,5.9,18.7,16.4,18.7C2008.6,781.6,2014.5,773.5,2014.5,762.9"/>
			<path class="st4" d="M2054.6,762.9c0-26.7,20.1-44.1,45.9-44.1c17.8,0,28.8,7.9,33.8,14.7l-18,17.8c-3-3.8-7.9-6.6-14.5-6.6
				c-9.6,0-18,6.3-18,18.3s8.4,18.7,18,18.7c6.5,0,11.7-3.3,14.7-6.8c6.5,6.5,11.5,11.9,17.8,18c-5.1,6.6-16.2,14.5-33.8,14.5
				C2074.7,807.2,2054.6,789.8,2054.6,762.9"/>
			<path class="st4" d="M2143.1,762.9c0-23.6,15.4-44.1,39.1-44.1c5.1,0,16.1,1.9,23.4,13.3h0.2v-11h28.6v84.1h-28.6v-10.6h-0.2
				c-7.3,11.3-18.1,12.7-23.4,12.7C2159.1,807.2,2143.1,786.6,2143.1,762.9 M2205.7,762.9c0-10.5-5.9-18.3-16.6-18.3
				c-10.5,0-16.4,7.9-16.4,18.3c0,10.6,5.9,18.7,16.4,18.7C2199.8,781.6,2205.7,773.5,2205.7,762.9"/>
			<path class="st4" d="M2289.6,746.1v21.3c0,7.8,2.3,14.3,14.3,14.3v25.5c-28.8,0-42.9-19.2-42.9-42.9v-18.1h-14V721h14v-23.9h28.6
				V721h16.9v25.1H2289.6z"/>
			<path class="st4" d="M2319.3,692.2c0-7.8,6.5-14,14.5-14c7.7,0,14.1,6.1,14.1,14c0,7.7-6.5,14-14.1,14
				C2325.7,706.2,2319.3,699.9,2319.3,692.2 M2319.3,721h28.6v84.1h-28.6V721z"/>
			<path class="st4" d="M2362.7,762.9c0-23.6,16.9-44.1,46.1-44.1c29.1,0,46.2,20.6,46.2,44.1c0,23.7-17.1,44.3-46.2,44.3
				C2379.6,807.2,2362.7,786.6,2362.7,762.9 M2425.3,762.9c0-10.5-5.9-18.3-16.6-18.3c-10.5,0-16.4,7.9-16.4,18.3
				c0,10.6,5.9,18.7,16.4,18.7C2419.4,781.6,2425.3,773.5,2425.3,762.9"/>
			<path class="st4" d="M2527.2,805.1v-46.8c0-9.9-5.4-13.8-14-13.8c-7.9,0-14.8,5.6-14.8,18.1v42.4h-28.6V721h28.6v11
				c5.6-7.2,16.1-13.3,30.5-13.3c18.3,0,26.9,11.5,26.9,26v60.4H2527.2z"/>
			<path class="st4" d="M1772.5,896.6c0-23.6,15.4-44.1,39.1-44.1c5.1,0,16,1.9,23.4,13.3h0.2v-43.1h28.6v116.2h-28.6v-10.6h-0.2
				c-7.3,11.3-18.1,12.7-23.4,12.7C1788.6,941,1772.5,920.4,1772.5,896.6 M1835.2,896.6c0-10.5-5.9-18.3-16.6-18.3
				c-10.5,0-16.4,7.9-16.4,18.3c0,10.6,5.9,18.7,16.4,18.7C1829.2,915.3,1835.2,907.3,1835.2,896.6"/>
			<path class="st4" d="M1878.6,896.6c0-24.4,18.3-44.1,44.8-44.1c23.7,0,42.2,17.8,42.2,47.6v5.2h-57.7c1.9,7,8.7,13.8,19.9,13.8
				c4.5,0,14.1-2.1,19.2-5.4l11.5,17.8c-8.2,6.5-22.3,9.4-34.2,9.4C1898.7,941,1878.6,924.4,1878.6,896.6 M1923.4,874.3
				c-10.6,0-14.7,8.4-15.7,13.4h31.2C1937.8,881.8,1934.6,874.3,1923.4,874.3"/>
			<path class="st4" d="M2079.2,938.9v-46.8c0-9.9-5.4-13.8-14-13.8c-7.9,0-14.8,5.6-14.8,18.1v42.4h-28.6v-84.1h28.6v11
				c5.6-7.2,16.1-13.3,30.5-13.3c13.4,0,21.6,6.3,24.9,15.4c5.8-7.5,15.2-15.4,32.4-15.4c18.3,0,26.9,11.5,26.9,26v60.4h-28.6v-46.8
				c0-9.9-5.4-13.8-14-13.8c-15.5,0-14.8,18.1-14.8,18.1v42.4H2079.2z"/>
			<path class="st4" d="M2180.1,896.6c0-23.6,15.4-44.1,39.1-44.1c5.1,0,16.1,1.9,23.4,13.3h0.2v-11h28.6v84.1h-28.6v-10.6h-0.2
				c-7.3,11.3-18.1,12.7-23.4,12.7C2196.1,941,2180.1,920.4,2180.1,896.6 M2242.7,896.6c0-10.5-5.9-18.3-16.6-18.3
				c-10.5,0-16.4,7.9-16.4,18.3c0,10.6,5.9,18.7,16.4,18.7C2236.8,915.3,2242.7,907.3,2242.7,896.6"/>
			<path class="st4" d="M2326.6,879.9v21.3c0,7.8,2.3,14.3,14.3,14.3V941c-28.8,0-42.9-19.2-42.9-42.9v-18.1h-14v-25.1h14v-23.9
				h28.6v23.9h16.9v25.1H2326.6z"/>
			<path class="st4" d="M2350.2,896.6c0-24.4,18.3-44.1,44.8-44.1c23.7,0,42.2,17.8,42.2,47.6v5.2h-57.7c1.9,7,8.7,13.8,19.9,13.8
				c4.5,0,14.1-2.1,19.2-5.4l11.5,17.8c-8.2,6.5-22.3,9.4-34.2,9.4C2370.2,941,2350.2,924.4,2350.2,896.6 M2395,874.3
				c-10.6,0-14.7,8.4-15.7,13.4h31.2C2409.3,881.8,2406.2,874.3,2395,874.3 M2395.3,819.5c2.1-1.9,4.4-3,7.2-3c2.3,0,4.9,1,6.8,2.8
				c1.9,2.1,2.8,4.5,2.8,7.2c0,2.6-0.9,5.1-2.8,6.8l-11.2,11.2c-1.6,1.7-4.4,3-6.8,3c-2.6,0-5.1-1-7-3c-2.1-1.9-3-4.4-3-7
				c0-2.3,0.9-4.9,3-6.8L2395.3,819.5z"/>
			<path class="st4" d="M2448,938.9v-84.1h28.6v11c5.8-7.2,16.9-13.6,25.8-13.6v27.6c-1.6-0.3-3.3-0.3-5.8-0.3
				c-8.2,0-20.1,2.3-20.1,17.1v42.4H2448z"/>
			<path class="st4" d="M2515.2,826c0-7.9,6.5-14,14.5-14c7.7,0,14.1,6.1,14.1,14c0,7.7-6.5,14-14.1,14
				C2521.6,839.9,2515.2,833.7,2515.2,826 M2515.2,854.8h28.6v84.1h-28.6V854.8z"/>
			<path class="st4" d="M2558.6,896.6c0-24.4,18.3-44.1,44.8-44.1c23.7,0,42.2,17.8,42.2,47.6v5.2h-57.7c1.9,7,8.7,13.8,19.9,13.8
				c4.5,0,14.1-2.1,19.2-5.4l11.5,17.8c-8.2,6.5-22.3,9.4-34.2,9.4C2578.7,941,2558.6,924.4,2558.6,896.6 M2603.5,874.3
				c-10.6,0-14.7,8.4-15.7,13.4h31.2C2617.8,881.8,2614.6,874.3,2603.5,874.3"/>
			<rect x="2658.8" y="822.7" class="st4" width="28.6" height="116.2"/>
			<path class="st4" d="M1948.2,1087.2c0,7.5-5.1,12.6-13.7,12.6h-21.6v-46.5h19.3c8.3,0,13.3,4.9,13.3,11.9c0,5.5-3.6,9.4-7.6,10.5
				C1944.1,1076.1,1948.2,1081.7,1948.2,1087.2 M1918.8,1073.4h12.3c5.4,0,8.2-3.2,8.2-7.5c0-4.2-2.8-7.5-8.2-7.5h-12.3V1073.4z
				 M1933.4,1094.6c5.4,0,8.7-3.1,8.7-8c0-4.3-3-8-8.7-8h-14.6v16H1933.4z"/>
			<path class="st4" d="M1955.4,1082.9c0-9.8,7.1-17.7,17-17.7c10.4,0,16.5,8,16.5,18.1v1.3h-27.8c0.4,6.3,4.9,11.3,12.3,11.3
				c4,0,7.7-1.5,10.4-4.3l2.9,3.8c-3.5,3.3-8.1,5.2-13.7,5.2C1962.7,1100.6,1955.4,1093.4,1955.4,1082.9 M1983.6,1080.7
				c-0.1-5-3.5-10.8-11.3-10.8c-7.3,0-11,5.7-11.2,10.8H1983.6z"/>
			<path class="st4" d="M1994.6,1095.3l2.7-3.8c2.3,2.6,6.6,4.8,11.4,4.8c5.2,0,8.2-2.4,8.2-5.8c0-8.2-21.3-3.1-21.3-15.6
				c0-5.3,4.5-9.7,12.8-9.7c5.9,0,10,2.2,12.7,4.9l-2.5,3.6c-2-2.4-5.7-4.3-10.2-4.3c-4.7,0-7.7,2.3-7.7,5.3
				c0,7.3,21.3,2.5,21.3,15.6c0,5.7-4.6,10.2-13.4,10.2C2002.8,1100.6,1998.1,1098.9,1994.6,1095.3"/>
			<path class="st4" d="M2028.6,1082.9c0-9.8,6.6-17.7,17-17.7c10.5,0,17,7.9,17,17.7c0,9.8-6.6,17.7-17,17.7
				C2035.2,1100.6,2028.6,1092.7,2028.6,1082.9 M2057,1082.9c0-6.8-4-13-11.4-13c-7.3,0-11.4,6.1-11.4,13c0,6.9,4,13,11.4,13
				C2053,1095.9,2057,1089.8,2057,1082.9"/>
			<path class="st4" d="M2074.4,1054.2c1.7,0,3.2,1.5,3.2,3.2s-1.5,3.1-3.2,3.1c-1.7,0-3.1-1.4-3.1-3.1S2072.7,1054.2,2074.4,1054.2
				 M2071.7,1066.1h5.3v33.7h-5.3V1066.1z"/>
			<path class="st4" d="M2111.5,1099.8v-22.1c0-6-3.1-7.8-7.8-7.8c-4.2,0-10.2,2.9-10.2,13v16.9h-5.3v-33.7h5.3v4.9
				c2.4-2.9,7.1-5.7,12.4-5.7c7.1,0,10.9,3.6,10.9,10.9v23.7H2111.5z"/>
			<path class="st4" d="M2177,1053.2v46.5h-5.3v-5c-3.1,4.7-8,5.8-10.9,5.8c-10.5,0-17-8-17-17.7c0-9.8,6.6-17.7,17-17.7
				c2.7,0,7.7,1,10.9,5.9v-17.9H2177z M2172.2,1082.9c0-6.8-4-13-11.4-13c-7.3,0-11.4,6.1-11.4,13c0,6.9,4,13,11.4,13
				C2168.1,1095.9,2172.2,1089.8,2172.2,1082.9"/>
			<path class="st4" d="M2185.6,1082.9c0-9.8,7.1-17.7,17-17.7c10.4,0,16.5,8,16.5,18.1v1.3h-27.8c0.4,6.3,4.9,11.3,12.3,11.3
				c4,0,7.7-1.5,10.4-4.3l2.9,3.8c-3.5,3.3-8.1,5.2-13.7,5.2C2193,1100.6,2185.6,1093.4,2185.6,1082.9 M2213.8,1080.7
				c-0.1-5-3.5-10.8-11.3-10.8c-7.3,0-11,5.7-11.2,10.8H2213.8z"/>
			<path class="st4" d="M2297.8,1076.1v23.7h-5.2v-22c0-5.4-2.6-7.5-6.6-7.7c-7.3,0-11.4,4.7-11.4,9.8v20h-5.2v-22
				c0-6-3.1-7.8-7.7-7.8c-4.2,0-10.2,2.9-10.2,13v16.9h-5.3v-33.7h5.3v4.9c2.4-2.9,7.1-5.7,12.4-5.7c5.3,0,8.7,2,10.1,6.1
				c2.7-3.5,6.7-6.1,13-6.1C2294,1065.2,2297.8,1068.8,2297.8,1076.1"/>
			<path class="st4" d="M2339.6,1066.1v33.7h-5.3v-5c-3.1,4.7-8,5.8-10.9,5.8c-10.5,0-17-8-17-17.7c0-9.8,6.6-17.7,17-17.7
				c2.7,0,7.7,1,10.9,5.9v-5H2339.6z M2334.8,1082.9c0-6.8-4-13-11.4-13c-7.3,0-11.4,6.1-11.4,13c0,6.9,4,13,11.4,13
				C2330.7,1095.9,2334.8,1089.8,2334.8,1082.9"/>
			<path class="st4" d="M2357.5,1086.8c0,1.5,0.2,9.1,8.9,9.1v4.7c-13.8,0-14.2-11.7-14.2-13.7v-16.2h-6v-4.6h6v-9.2h5.3v9.2h8.9
				v4.6h-8.9V1086.8z"/>
			<path class="st4" d="M2371.7,1082.9c0-9.8,7.1-17.7,17-17.7c10.4,0,16.5,8,16.5,18.1v1.3h-27.8c0.4,6.3,4.9,11.3,12.3,11.3
				c4,0,7.7-1.5,10.4-4.3l2.9,3.8c-3.5,3.3-8.1,5.2-13.7,5.2C2379.1,1100.6,2371.7,1093.4,2371.7,1082.9 M2399.9,1080.7
				c-0.1-5-3.5-10.8-11.3-10.8c-7.3,0-11,5.7-11.2,10.8H2399.9z M2389.5,1051.7c0.5-0.5,1-0.7,1.6-0.7c0.6,0,1.2,0.2,1.7,0.7
				c0.5,0.5,0.7,1,0.7,1.6c0,0.6-0.2,1.2-0.7,1.6l-5.6,5.6c-0.4,0.4-1,0.7-1.7,0.7c-0.6,0-1.1-0.2-1.6-0.7c-0.4-0.4-0.6-1-0.6-1.6
				c0-0.6,0.2-1.2,0.6-1.6L2389.5,1051.7z"/>
			<path class="st4" d="M2431.5,1071c-0.7-0.1-1.4-0.1-2.2-0.1c-4.2,0-10.2,2-10.2,12v16.9h-5.3v-33.7h5.3v4.9
				c2.4-2.9,7.1-5.7,12.4-5.7V1071z"/>
			<path class="st4" d="M2441.1,1054.2c1.7,0,3.2,1.5,3.2,3.2s-1.5,3.1-3.2,3.1c-1.7,0-3.1-1.4-3.1-3.1S2439.4,1054.2,2441.1,1054.2
				 M2438.5,1066.1h5.3v33.7h-5.3V1066.1z"/>
			<path class="st4" d="M2453,1082.9c0-9.8,7.1-17.7,17-17.7c10.4,0,16.5,8,16.5,18.1v1.3h-27.8c0.4,6.3,4.9,11.3,12.3,11.3
				c4,0,7.7-1.5,10.4-4.3l2.9,3.8c-3.5,3.3-8.1,5.2-13.7,5.2C2460.3,1100.6,2453,1093.4,2453,1082.9 M2481.2,1080.7
				c-0.1-5-3.5-10.8-11.3-10.8c-7.3,0-11,5.7-11.2,10.8H2481.2z"/>
			<rect x="2495" y="1053.2" class="st4" width="5.3" height="46.5"/>
			<path class="st4" d="M2541.1,1077.9v6.6c0,1.5-1.2,2.6-2.6,2.6c-1.5,0-2.6-1.1-2.6-2.6v-11.3c12.1,0,12.8-7.1,12.8-8.7v-0.3
				c0-3.5-2.7-6.5-8.3-6.5c-5.4,0-8.7,2.2-11.4,5.7l-3.6-3.8c3.4-4.4,8.7-7.1,15.4-7.1c7.8,0,14,4.2,14,11.9
				C2554.8,1069.6,2552.3,1076,2541.1,1077.9 M2538.5,1093.3c2,0,3.6,1.6,3.6,3.6s-1.6,3.6-3.6,3.6s-3.6-1.5-3.6-3.6
				S2536.5,1093.3,2538.5,1093.3"/>
			<polygon class="st4" points="1818.6,1169.6 1818.6,1123 1824.5,1123 1824.5,1164.4 1846.6,1164.4 1846.6,1169.6 			"/>
			<path class="st4" d="M1852.2,1152.7c0-9.8,6.6-17.7,17-17.7c10.5,0,17,7.9,17,17.7c0,9.8-6.6,17.7-17,17.7
				C1858.8,1170.4,1852.2,1162.4,1852.2,1152.7 M1880.6,1152.7c0-6.8-4-13-11.4-13c-7.3,0-11.4,6.1-11.4,13c0,6.9,4,13,11.4,13
				C1876.6,1165.7,1880.6,1159.6,1880.6,1152.7"/>
			<path class="st4" d="M1894.9,1156.7v-0.3v-20.5h5.3v20.7c0,1.3,0.3,9.2,9,9.2c8.9,0,9.1-8,9.1-9.3v-20.5h5.3v20.5v0.3
				c0,2.1-0.5,13.7-14.4,13.7C1895.3,1170.4,1894.9,1158.7,1894.9,1156.7"/>
			<path class="st4" d="M1932.2,1152.7c0-9.8,7.1-17.7,17-17.7c10.4,0,16.5,8,16.5,18.1v1.3h-27.8c0.4,6.3,4.9,11.3,12.3,11.3
				c4,0,7.7-1.5,10.4-4.3l2.9,3.8c-3.5,3.3-8.1,5.2-13.7,5.2C1939.5,1170.4,1932.2,1163.2,1932.2,1152.7 M1960.4,1150.5
				c-0.1-5-3.5-10.8-11.3-10.8c-7.3,0-11,5.7-11.2,10.8H1960.4z"/>
			<polygon class="st4" points="1972.7,1169.6 1972.7,1165.4 1991.6,1140.5 1972.7,1140.5 1972.7,1135.9 1998.6,1135.9 
				1998.6,1139.8 1979.5,1165 1998.9,1165 1998.9,1169.6 			"/>
			<path class="st4" d="M2026.3,1156.7v-0.3v-20.5h5.3v20.7c0,1.3,0.3,9.2,9,9.2c8.9,0,9.1-8,9.1-9.3v-20.5h5.3v20.5v0.3
				c0,2.1-0.5,13.7-14.4,13.7C2026.8,1170.4,2026.3,1158.7,2026.3,1156.7"/>
			<path class="st4" d="M2088.9,1169.6v-22c0-6-3.1-7.8-7.8-7.8c-4.2,0-10.2,2.9-10.2,13v16.9h-5.3v-33.7h5.3v4.9
				c2.4-2.9,7.1-5.7,12.4-5.7c7.1,0,10.9,3.6,10.9,10.9v23.7H2088.9z"/>
			<path class="st4" d="M2121.2,1152.7c0-9.8,6.6-17.7,17-17.7c10.5,0,17,7.9,17,17.7c0,9.8-6.6,17.7-17,17.7
				C2127.7,1170.4,2121.2,1162.4,2121.2,1152.7 M2149.6,1152.7c0-6.8-4-13-11.4-13c-7.3,0-11.4,6.1-11.4,13c0,6.9,4,13,11.4,13
				C2145.5,1165.7,2149.6,1159.6,2149.6,1152.7"/>
			<path class="st4" d="M2163.8,1156.7v-0.3v-20.5h5.3v20.7c0,1.3,0.3,9.2,9,9.2c8.9,0,9.1-8,9.1-9.3v-20.5h5.3v20.5v0.3
				c0,2.1-0.5,13.7-14.4,13.7C2164.3,1170.4,2163.8,1158.7,2163.8,1156.7"/>
			<path class="st4" d="M2210.4,1156.6c0,1.5,0.2,9.1,8.9,9.1v4.7c-13.8,0-14.2-11.7-14.2-13.7v-16.2h-6v-4.6h6v-9.2h5.3v9.2h8.9
				v4.6h-8.9V1156.6z"/>
			<path class="st4" d="M2229.7,1124c1.7,0,3.2,1.5,3.2,3.2c0,1.7-1.5,3.1-3.2,3.1c-1.7,0-3.1-1.4-3.1-3.1
				C2226.6,1125.5,2228,1124,2229.7,1124 M2227.1,1135.9h5.3v33.7h-5.3V1135.9z"/>
			<rect x="2243.5" y="1123" class="st4" width="5.3" height="46.5"/>
			<path class="st4" d="M2309.1,1123v46.5h-5.3v-5c-3.1,4.7-8,5.8-10.9,5.8c-10.5,0-17-8-17-17.7c0-9.8,6.6-17.7,17-17.7
				c2.7,0,7.7,1,10.9,5.9V1123H2309.1z M2304.3,1152.7c0-6.8-4-13-11.4-13c-7.3,0-11.4,6.1-11.4,13c0,6.9,4,13,11.4,13
				C2300.2,1165.7,2304.3,1159.6,2304.3,1152.7"/>
			<path class="st4" d="M2317.7,1152.7c0-9.8,7.1-17.7,17-17.7c10.4,0,16.5,8,16.5,18.1v1.3h-27.8c0.4,6.3,4.9,11.3,12.3,11.3
				c4,0,7.7-1.5,10.4-4.3l2.9,3.8c-3.5,3.3-8.1,5.2-13.7,5.2C2325.1,1170.4,2317.7,1163.2,2317.7,1152.7 M2345.9,1150.5
				c-0.1-5-3.5-10.8-11.3-10.8c-7.3,0-11,5.7-11.2,10.8H2345.9z"/>
			<path class="st4" d="M2383.5,1135.9v5c3.2-4.8,8.2-5.9,10.9-5.9c10.5,0,17,7.9,17,17.7c0,9.8-6.6,17.7-17,17.7
				c-2.9,0-7.7-1.1-10.9-5.8v17.9h-5.3v-46.6H2383.5z M2405.8,1152.7c0-6.8-4-13-11.4-13c-7.3,0-11.4,6.1-11.4,13
				c0,6.9,4,13,11.4,13C2401.7,1165.7,2405.8,1159.6,2405.8,1152.7"/>
			<path class="st4" d="M2437.7,1140.8c-0.7-0.1-1.4-0.1-2.2-0.1c-4.2,0-10.2,2-10.2,12v16.9h-5.3v-33.7h5.3v4.9
				c2.4-2.9,7.1-5.7,12.4-5.7V1140.8z"/>
			<path class="st4" d="M2442.1,1152.7c0-9.8,6.6-17.7,17-17.7s17,7.9,17,17.7c0,9.8-6.6,17.7-17,17.7S2442.1,1162.4,2442.1,1152.7
				 M2470.5,1152.7c0-6.8-4-13-11.4-13c-7.3,0-11.4,6.1-11.4,13c0,6.9,4,13,11.4,13C2466.5,1165.7,2470.5,1159.6,2470.5,1152.7"/>
			<path class="st4" d="M2494.3,1178.6c8.5,0,8.9-7.5,8.9-9.1v-33.6h5.3v33.6c0,2.2-0.3,13.7-14.2,13.7V1178.6z M2505.9,1124
				c1.7,0,3.2,1.5,3.2,3.2s-1.5,3.1-3.2,3.1c-1.7,0-3.1-1.4-3.1-3.1S2504.1,1124,2505.9,1124"/>
			<path class="st4" d="M2519.7,1156.7v-0.3v-20.5h5.3v20.7c0,1.3,0.3,9.2,9,9.2c8.9,0,9.1-8,9.1-9.3v-20.5h5.3v20.5v0.3
				c0,2.1-0.5,13.7-14.4,13.7C2520.2,1170.4,2519.7,1158.7,2519.7,1156.7"/>
			<path class="st4" d="M2556.1,1165.1l2.7-3.8c2.3,2.6,6.6,4.8,11.4,4.8c5.2,0,8.2-2.4,8.2-5.8c0-8.2-21.3-3.1-21.3-15.6
				c0-5.3,4.5-9.7,12.8-9.7c5.9,0,10,2.2,12.7,4.9l-2.5,3.6c-2-2.4-5.7-4.3-10.2-4.3c-4.7,0-7.7,2.3-7.7,5.3
				c0,7.3,21.3,2.5,21.3,15.6c0,5.7-4.6,10.2-13.4,10.2C2564.3,1170.4,2559.6,1168.7,2556.1,1165.1"/>
			<path class="st4" d="M2599.4,1156.6c0,1.5,0.2,9.1,8.9,9.1v4.7c-13.8,0-14.2-11.7-14.2-13.7v-16.2h-6v-4.6h6v-9.2h5.3v9.2h8.9
				v4.6h-8.9V1156.6z"/>
			<path class="st4" d="M2613.7,1152.7c0-9.8,7.1-17.7,17-17.7c10.4,0,16.5,8,16.5,18.1v1.3h-27.8c0.4,6.3,4.9,11.3,12.3,11.3
				c4,0,7.7-1.5,10.4-4.3l2.9,3.8c-3.5,3.3-8.1,5.2-13.7,5.2C2621,1170.4,2613.7,1163.2,2613.7,1152.7 M2641.9,1150.5
				c-0.1-5-3.5-10.8-11.3-10.8c-7.3,0-11,5.7-11.2,10.8H2641.9z"/>
			<rect x="1845.7" y="1192.9" class="st4" width="11.4" height="46.5"/>
			<path class="st4" d="M1863.1,1222.5c0-9.8,7.3-17.7,17.9-17.7c9.5,0,16.9,7.1,16.9,19v2.1h-23.1c0.8,2.8,3.5,5.5,8,5.5
				c1.8,0,5.7-0.8,7.7-2.2l4.6,7.1c-3.3,2.6-8.9,3.8-13.7,3.8C1871.1,1240.2,1863.1,1233.6,1863.1,1222.5 M1881,1213.5
				c-4.3,0-5.9,3.3-6.3,5.4h12.5C1886.7,1216.5,1885.5,1213.5,1881,1213.5"/>
			<path class="st4" d="M1934.8,1215.8v8.5c0,3.1,0.9,5.7,5.7,5.7v10.2c-11.5,0-17.2-7.7-17.2-17.2v-7.3h-5.6v-10h5.6v-9.6h11.4v9.6
				h6.8v10H1934.8z"/>
			<path class="st4" d="M1944.9,1222.5c0-9.8,7.3-17.7,17.9-17.7c9.5,0,16.9,7.1,16.9,19v2.1h-23.1c0.8,2.8,3.5,5.5,8,5.5
				c1.8,0,5.7-0.8,7.7-2.2l4.6,7.1c-3.3,2.6-8.9,3.8-13.7,3.8C1952.9,1240.2,1944.9,1233.6,1944.9,1222.5 M1962.9,1213.5
				c-4.3,0-5.9,3.3-6.3,5.4h12.5C1968.6,1216.5,1967.3,1213.5,1962.9,1213.5"/>
			<path class="st4" d="M2007.9,1239.3v-18.7c0-4-2.2-5.5-5.6-5.5c-3.1,0-5.9,2.2-5.9,7.3v17H1985v-33.6h11.4v4.4
				c2.2-2.9,6.4-5.3,12.2-5.3c5.4,0,8.7,2.5,10,6.1c2.3-3,6.1-6.1,13-6.1c7.3,0,10.7,4.6,10.7,10.4v24.1h-11.4v-18.7
				c0-4-2.2-5.5-5.6-5.5c-6.2,0-5.9,7.3-5.9,7.3v17H2007.9z"/>
			<path class="st4" d="M2061.5,1235.1L2061.5,1235.1l-0.1,17.1H2050v-46.5h11.4v4.4h0.1c2.9-4.5,7.3-5.3,9.4-5.3
				c9.5,0,15.6,8.2,15.6,17.7c0,9.5-6.4,17.7-15.6,17.7C2068.8,1240.2,2064.5,1239.6,2061.5,1235.1 M2074.6,1222.5
				c0-4.2-2.4-7.3-6.6-7.3c-4.3,0-6.6,3.1-6.6,7.3c0,4.3,2.4,7.5,6.6,7.5C2072.3,1229.9,2074.6,1226.7,2074.6,1222.5"/>
			<path class="st4" d="M2090.7,1235.3c1.5-2.7,3-5,4.5-7.7c2.9,2.1,8.3,4,11.9,4c3.1,0,4-0.8,4-2c0-1.7-2.2-2-5.2-2.4
				c-5.4-0.8-14-2.7-14-11.3c0-5.9,5.2-11.2,14.5-11.2c5.2,0,10.1,1.6,13.8,4.1c-1.4,2.7-2.7,4.7-4,7.3c-2.2-1.6-6-3.2-9.7-3.2
				c-2.2,0-3.7,0.8-3.7,2.1c0,1.3,2.1,1.7,4.9,2.1c5.4,0.8,14.2,2.9,14.2,11.7c0,6.6-5.8,11.4-15.4,11.4
				C2100.5,1240.2,2094.3,1238.3,2090.7,1235.3"/>
			<path class="st4" d="M2143.3,1222.5c0-9.4,6.1-17.7,15.6-17.7c2,0,6.4,0.8,9.3,5.3h0.1v-17.2h11.4v46.5h-11.4v-4.3h-0.1
				c-2.9,4.5-7.3,5.1-9.3,5.1C2149.7,1240.2,2143.3,1231.9,2143.3,1222.5 M2168.4,1222.5c0-4.2-2.4-7.3-6.6-7.3
				c-4.2,0-6.6,3.1-6.6,7.3c0,4.3,2.4,7.5,6.6,7.5C2166,1229.9,2168.4,1226.7,2168.4,1222.5"/>
			<path class="st4" d="M2185.7,1222.5c0-9.8,7.3-17.7,17.9-17.7c9.5,0,16.9,7.1,16.9,19v2.1h-23.1c0.8,2.8,3.5,5.5,8,5.5
				c1.8,0,5.7-0.8,7.7-2.2l4.6,7.1c-3.3,2.6-8.9,3.8-13.7,3.8C2193.8,1240.2,2185.7,1233.6,2185.7,1222.5 M2203.7,1213.5
				c-4.3,0-5.9,3.3-6.3,5.4h12.5C2209.4,1216.5,2208.1,1213.5,2203.7,1213.5"/>
			<polygon class="st4" points="2251.7,1239.3 2239.2,1205.7 2251.1,1205.7 2258,1226.9 2264.9,1205.7 2277,1205.7 2264.3,1239.3 
							"/>
			<path class="st4" d="M2278.4,1222.5c0-9.4,6.8-17.7,18.4-17.7c11.7,0,18.5,8.2,18.5,17.7c0,9.5-6.8,17.7-18.5,17.7
				C2285.2,1240.2,2278.4,1231.9,2278.4,1222.5 M2303.5,1222.5c0-4.2-2.4-7.3-6.6-7.3c-4.2,0-6.6,3.1-6.6,7.3c0,4.3,2.4,7.5,6.6,7.5
				C2301.1,1229.9,2303.5,1226.7,2303.5,1222.5"/>
			<path class="st4" d="M2319.5,1235.3c1.5-2.7,3-5,4.5-7.7c2.9,2.1,8.3,4,11.9,4c3.1,0,4-0.8,4-2c0-1.7-2.2-2-5.2-2.4
				c-5.4-0.8-14-2.7-14-11.3c0-5.9,5.2-11.2,14.5-11.2c5.2,0,10.1,1.6,13.8,4.1c-1.4,2.7-2.7,4.7-4,7.3c-2.2-1.6-6-3.2-9.7-3.2
				c-2.2,0-3.7,0.8-3.7,2.1c0,1.3,2.1,1.7,4.9,2.1c5.4,0.8,14.2,2.9,14.2,11.7c0,6.6-5.8,11.4-15.4,11.4
				C2329.3,1240.2,2323.1,1238.3,2319.5,1235.3"/>
			<path class="st4" d="M2388.3,1215.8v8.5c0,3.1,0.9,5.7,5.7,5.7v10.2c-11.5,0-17.2-7.7-17.2-17.2v-7.3h-5.6v-10h5.6v-9.6h11.4v9.6
				h6.8v10H2388.3z"/>
			<path class="st4" d="M2400.2,1239.3v-33.6h11.4v4.4c2.3-2.9,6.8-5.4,10.3-5.4v11c-0.6-0.1-1.3-0.1-2.3-0.1c-3.3,0-8,0.9-8,6.8v17
				H2400.2z"/>
			<path class="st4" d="M2425.3,1222.5c0-9.4,6.1-17.7,15.6-17.7c2,0,6.4,0.8,9.4,5.3h0.1v-4.4h11.4v33.6h-11.4v-4.3h-0.1
				c-2.9,4.5-7.3,5.1-9.4,5.1C2431.7,1240.2,2425.3,1231.9,2425.3,1222.5 M2450.3,1222.5c0-4.2-2.4-7.3-6.6-7.3
				c-4.2,0-6.6,3.1-6.6,7.3c0,4.3,2.4,7.5,6.6,7.5C2448,1229.9,2450.3,1226.7,2450.3,1222.5"/>
			<polygon class="st4" points="2478.1,1239.3 2465.6,1205.7 2477.6,1205.7 2484.4,1226.9 2491.4,1205.7 2503.5,1205.7 
				2490.8,1239.3 			"/>
			<path class="st4" d="M2504.8,1222.5c0-9.4,6.1-17.7,15.6-17.7c2,0,6.4,0.8,9.4,5.3h0.1v-4.4h11.4v33.6h-11.4v-4.3h-0.1
				c-2.9,4.5-7.3,5.1-9.4,5.1C2511.3,1240.2,2504.8,1231.9,2504.8,1222.5 M2529.9,1222.5c0-4.2-2.4-7.3-6.6-7.3
				c-4.2,0-6.6,3.1-6.6,7.3c0,4.3,2.4,7.5,6.6,7.5C2527.5,1229.9,2529.9,1226.7,2529.9,1222.5"/>
			<path class="st4" d="M2583.4,1205.7v17.2c0,10.1-6.6,17.2-17.2,17.2c-11.5,0-17.2-7.7-17.2-17.2v-17.2h11.4v18.5
				c0,3.1,0.9,5.7,5.7,5.7c4.7,0,5.7-2.6,5.7-5.7v-18.5H2583.4z"/>
			<path class="st4" d="M2610.7,1239.3l-5.6-9.8l-5.7,9.8h-12.3l10.6-17.3l-10-16.3h12.5l4.8,8.8c1.4-2.7,3.4-6.1,4.8-8.8h12.4
				l-10,16.3l10.8,17.3H2610.7z"/>
			<path class="st5" d="M2761.9,348.7c0,81.9-66.4,148.4-148.4,148.4s-148.4-66.4-148.4-148.4s66.4-148.4,148.4-148.4
				S2761.9,266.8,2761.9,348.7"/>
			<path class="st4" d="M2383.8,502.6c-5.7-19.2-18.6-35-36.2-44.5c-9.1-4.9-19.1-7.8-29.3-8.6v-10.5h7c3.5,0,6.3-2.8,6.3-6.3
				s-2.8-6.3-6.3-6.3h-26.7c-3.5,0-6.3,2.8-6.3,6.3s2.8,6.3,6.3,6.3h7v10.4c-4.4,0.4-8.8,1.1-13.1,2.3c-3.4,0.9-5.4,4.4-4.5,7.7
				c0.9,3.4,4.4,5.4,7.7,4.5c5.2-1.4,10.6-2.1,15.9-2.1c10.2,0.2,20.7,2.6,29.8,7.5c14.6,7.9,25.3,21.1,30.1,37
				c4.8,16,3,32.8-4.9,47.5c-7.9,14.6-21.1,25.3-37,30.1c-16,4.7-32.8,3-47.5-4.9c-30.2-16.3-41.5-54.2-25.2-84.5
				c0.4-0.8,1-1.6,1.5-2.4l2.4,12.5c0.6,3,3.2,5.1,6.2,5.1c0.4,0,0.8,0,1.2-0.1c3.4-0.7,5.7-3.9,5-7.4l-5-26.6
				c0-0.2-0.2-0.4-0.2-0.6c-0.1-0.4-0.3-0.8-0.5-1.2c-0.2-0.4-0.4-0.7-0.7-1c-0.2-0.2-0.2-0.4-0.4-0.6c-0.1-0.1-0.3-0.2-0.4-0.3
				c-0.3-0.3-0.7-0.5-1.1-0.7c-0.3-0.2-0.7-0.3-1-0.5c-0.4-0.1-0.8-0.2-1.2-0.2c-0.4,0-0.8-0.1-1.2,0c-0.2,0-0.4,0-0.5,0l-26.6,5
				c-3.4,0.7-5.7,3.9-5,7.4c0.6,3.4,4,5.7,7.4,5l10.8-2.1c-0.5,0.8-1.1,1.6-1.5,2.4c-19.6,36.4-6.1,81.9,30.3,101.6
				c11.1,6,23.3,9.1,35.5,9.1c7.2,0,14.4-1,21.5-3.2c19.2-5.7,35-18.6,44.5-36.2C2387.4,542,2389.5,521.8,2383.8,502.6"/>
			<path class="st4" d="M2353.2,546.3c12.3-22.8,3.8-51.2-18.9-63.5c-7.1-3.8-14.7-5.7-22.3-5.6V524l-33.1,33.2
				c3.1,3.1,6.8,5.9,10.8,8.1C2312.5,577.5,2340.9,569.1,2353.2,546.3"/>
			<path class="st4" d="M2305.7,334.8h17.7l11-3.5c0.5-0.2,1.1-0.2,1.7-0.1l16.5,2.4c1.8,0.3,3.2,1.8,3.2,3.7V348
				c0,1.9-1.4,3.4-3.2,3.7L2336,354c-0.2,0-0.4,0-0.5,0c-0.4,0-0.7-0.1-1.1-0.2l-11-3.3h-17.7V334.8z"/>
			<path class="st4" d="M2256.4,367.4v-49.2h24.5c6.5,0,12.7,2.6,17.3,7.2v34.8c-4.6,4.6-10.8,7.2-17.3,7.2H2256.4z"/>
			<path class="st4" d="M2093,482.3c-1.3,0-2.6,0.1-3.8,0.3l26.7-96.5c1.6,0.2,3.2,0.3,4.9,0.3h41c0,2.4-0.3,5.1-1.1,7.7
				c-1.2,3.8-3.8,6.1-6.5,8.5c-2.9,2.6-5.9,5.3-7,9.6c-0.9,3.3,0.7,6.5,2,9.3c1.1,2.3,2.2,4.6,1.7,6.1c-0.7,1.9-2.3,2.9-4.7,4.4
				c-2.5,1.5-5.7,3.5-7,7.3c-1.2,3.7,0,7.4,1.2,11c1.1,3.2,2.1,6.2,1.2,8.5c-0.9,2.4-3.3,3.7-6.1,5.2c-3.1,1.7-6.7,3.6-8,7.8
				c-1,3-0.1,7,1.1,10.3H2093z"/>
			<path class="st4" d="M2249,379.1v-73.6h-128.2c-20.2,0-36.6,16.4-36.6,36.6v0.4c0,20.2,16.4,36.6,36.6,36.6H2249z"/>
			<path class="st4" d="M2152.3,566.4H2093c-8.6,0-15.7-7-15.7-15.7v-45.3c0-8.6,7-15.7,15.7-15.7h59.3c8.6,0,15.7,7,15.7,15.7v45.3
				C2168,559.4,2160.9,566.4,2152.3,566.4"/>
			<path class="st3" d="M2528.5,411.5c1.8-0.3,4.2-0.6,7.3-0.6c3.8,0,6.5,0.9,8.2,2.4c1.6,1.4,2.6,3.5,2.6,6.1
				c0,2.7-0.8,4.8-2.3,6.3c-2,2.1-5.3,3.2-9,3.2c-1.1,0-2.2,0-3.1-0.3v11.8h-3.8V411.5z M2532.3,425.7c0.8,0.2,1.9,0.3,3.1,0.3
				c4.6,0,7.4-2.2,7.4-6.3c0-3.9-2.7-5.8-6.9-5.8c-1.7,0-2.9,0.1-3.6,0.3V425.7z"/>
			<path class="st3" d="M2552.7,431.3l-3.1,9.2h-3.9l10-29.4h4.6l10,29.4h-4.1l-3.1-9.2H2552.7z M2562.4,428.3l-2.9-8.5
				c-0.7-1.9-1.1-3.7-1.5-5.4h-0.1c-0.4,1.7-0.9,3.5-1.5,5.3l-2.9,8.5H2562.4z"/>
			<path class="st3" d="M2574.7,411.5c1.9-0.4,4.7-0.6,7.3-0.6c4.1,0,6.7,0.7,8.5,2.4c1.5,1.3,2.3,3.3,2.3,5.6
				c0,3.9-2.4,6.5-5.5,7.5v0.1c2.3,0.8,3.6,2.9,4.3,5.9c1,4.1,1.7,6.9,2.3,8.1h-3.9c-0.5-0.8-1.1-3.4-2-7c-0.9-4.1-2.4-5.6-5.9-5.7
				h-3.6v12.7h-3.8V411.5z M2578.5,424.9h3.9c4.1,0,6.6-2.2,6.6-5.6c0-3.8-2.7-5.5-6.8-5.5c-1.8,0-3.1,0.2-3.8,0.3V424.9z"/>
			<path class="st3" d="M2613.4,411.1h3.8v19.7c0,7.8-3.8,10.2-8.9,10.2c-1.4,0-3.1-0.3-4.1-0.7l0.6-3.1c0.8,0.3,1.9,0.6,3.2,0.6
				c3.4,0,5.4-1.5,5.4-7.3V411.1z"/>
			<path class="st3" d="M2648.7,425.5c0,10.1-6.1,15.5-13.7,15.5c-7.8,0-13.2-6-13.2-14.9c0-9.3,5.8-15.4,13.7-15.4
				C2643.5,410.6,2648.7,416.8,2648.7,425.5 M2625.8,426c0,6.3,3.4,11.9,9.4,11.9c6,0,9.4-5.5,9.4-12.2c0-5.8-3.1-11.9-9.4-11.9
				C2629,413.7,2625.8,419.5,2625.8,426"/>
			<path class="st3" d="M2657.4,411.1v17.4c0,6.6,2.9,9.4,6.8,9.4c4.4,0,7.2-2.9,7.2-9.4v-17.4h3.8v17.1c0,9-4.8,12.7-11.1,12.7
				c-6,0-10.6-3.4-10.6-12.6v-17.3H2657.4z"/>
			<path class="st3" d="M2681.8,411.5c1.9-0.4,4.7-0.6,7.3-0.6c4.1,0,6.7,0.7,8.5,2.4c1.5,1.3,2.3,3.3,2.3,5.6
				c0,3.9-2.4,6.5-5.5,7.5v0.1c2.3,0.8,3.6,2.9,4.3,5.9c1,4.1,1.7,6.9,2.3,8.1h-3.9c-0.5-0.8-1.1-3.4-2-7c-0.9-4.1-2.4-5.6-5.9-5.7
				h-3.6v12.7h-3.8V411.5z M2685.6,424.9h3.9c4.1,0,6.6-2.2,6.6-5.6c0-3.8-2.7-5.5-6.8-5.5c-1.8,0-3.1,0.2-3.8,0.3V424.9z"/>
			<polygon class="st3" points="2550.6,400.5 2550.6,324.5 2532.9,342.2 2520,328.9 2553.6,295.8 2573.4,295.8 2573.4,400.5 			"/>
			<path class="st3" d="M2584.7,348.2c0-27,13.7-54,44.3-54s44.3,27,44.3,54s-13.7,54.2-44.3,54.2S2584.7,375.2,2584.7,348.2
				 M2650,348.2c0-19.3-5.7-34.2-21-34.2c-15.2,0-21,14.9-21,34.2c0,19.3,5.8,34.4,21,34.4C2644.2,382.6,2650,367.5,2650,348.2"/>
			<path class="st3" d="M2675.1,307.3h2.3c3.6-11.2,14.2-18.4,27.2-18.4c11.7,0,18.5,6.2,22.3,12.8l-9.8,4.7
				c-2.2-4.2-7.1-7.6-12.5-7.6c-6.6,0-11.9,3.3-14.8,8.5h17.6c1.7,0,3.1,1.4,3.1,3.1c0,1.7-1.4,3.1-3.1,3.1H2688
				c-0.2,0.9-0.2,1.6-0.2,2.5c0,0.8,0,1.6,0.1,2.3h19.5c1.7,0,3.1,1.4,3.1,3.1c0,1.7-1.4,3.1-3.1,3.1h-17.7
				c2.7,5.3,8.1,8.7,14.8,8.7c5.4,0,10.3-3.4,12.5-7.6l9.8,4.6c-3.8,6.5-10.6,12.9-22.3,12.9c-13.1,0-23.8-7.2-27.3-18.6h-2.2
				c-1.7,0-3.1-1.3-3.1-3.1c0-1.7,1.3-3.1,3.1-3.1h1.1c-0.1-0.7-0.1-1.5-0.1-2.3c0-0.9,0-1.6,0.1-2.5h-1.1c-1.7,0-3.1-1.3-3.1-3.1
				C2672,308.7,2673.4,307.3,2675.1,307.3"/>
			<path class="st3" d="M2527.8,274.9l-2.4,7.4h-3.1l8-23.5h3.7l8,23.5h-3.2l-2.5-7.4H2527.8z M2530.6,253.5l3.2,4h-2.5l-4.5-4
				H2530.6z M2535.5,272.6l-2.3-6.8c-0.5-1.5-0.9-2.9-1.2-4.3h-0.1c-0.3,1.4-0.7,2.8-1.2,4.3l-2.3,6.8H2535.5z"/>
			<path class="st3" d="M2552.7,259.1c1.5-0.2,3.4-0.5,5.8-0.5c3,0,5.2,0.7,6.6,2c1.3,1.1,2.1,2.8,2.1,4.9c0,2.1-0.6,3.8-1.8,5
				c-1.6,1.7-4.2,2.6-7.2,2.6c-0.9,0-1.7,0-2.4-0.2v9.4h-3V259.1z M2555.8,270.4c0.7,0.2,1.5,0.2,2.5,0.2c3.7,0,5.9-1.8,5.9-5
				c0-3.1-2.2-4.6-5.5-4.6c-1.3,0-2.3,0.1-2.9,0.2V270.4z"/>
			<path class="st3" d="M2572.2,274.9l-2.4,7.4h-3.1l8-23.5h3.7l8,23.5h-3.2l-2.5-7.4H2572.2z M2579.9,272.6l-2.3-6.8
				c-0.5-1.5-0.9-2.9-1.2-4.3h-0.1c-0.3,1.4-0.7,2.8-1.2,4.3l-2.3,6.8H2579.9z"/>
			<path class="st3" d="M2589.7,259.1c1.5-0.3,3.7-0.5,5.8-0.5c3.2,0,5.3,0.6,6.8,1.9c1.2,1,1.8,2.7,1.8,4.5c0,3.1-2,5.2-4.4,6v0.1
				c1.8,0.6,2.9,2.3,3.5,4.7c0.8,3.3,1.3,5.5,1.8,6.5h-3.1c-0.4-0.7-0.9-2.7-1.6-5.6c-0.7-3.2-2-4.5-4.7-4.6h-2.9v10.2h-3V259.1z
				 M2592.7,269.8h3.1c3.2,0,5.3-1.8,5.3-4.5c0-3-2.2-4.4-5.4-4.4c-1.5,0-2.5,0.1-3,0.3V269.8z"/>
			<polygon class="st3" points="2613.3,261.4 2606.1,261.4 2606.1,258.8 2623.5,258.8 2623.5,261.4 2616.3,261.4 2616.3,282.3 
				2613.3,282.3 			"/>
			<rect x="2626.1" y="258.8" class="st3" width="3" height="23.5"/>
			<path class="st3" d="M2634.5,259.1c1.5-0.3,3.7-0.5,5.8-0.5c3.2,0,5.3,0.6,6.8,1.9c1.2,1,1.8,2.7,1.8,4.5c0,3.1-2,5.2-4.4,6v0.1
				c1.8,0.6,2.9,2.3,3.5,4.7c0.8,3.3,1.3,5.5,1.8,6.5h-3.1c-0.4-0.7-0.9-2.7-1.6-5.6c-0.7-3.2-2-4.5-4.7-4.6h-2.9v10.2h-3V259.1z
				 M2637.5,269.8h3.1c3.2,0,5.3-1.8,5.3-4.5c0-3-2.2-4.4-5.4-4.4c-1.5,0-2.5,0.1-3,0.3V269.8z"/>
			<path class="st3" d="M2660.6,259.1c1.8-0.3,4-0.5,6.5-0.5c4.4,0,7.5,1,9.5,2.9c2.1,1.9,3.3,4.6,3.3,8.4c0,3.8-1.2,7-3.4,9.1
				c-2.2,2.2-5.8,3.4-10.4,3.4c-2.2,0-4-0.1-5.5-0.3V259.1z M2663.7,279.9c0.8,0.1,1.9,0.2,3.1,0.2c6.5,0,10-3.6,10-10
				c0-5.5-3.1-9.1-9.5-9.1c-1.6,0-2.8,0.1-3.6,0.3V279.9z"/>
			<polygon class="st3" points="2696.1,271.3 2686.9,271.3 2686.9,279.8 2697.1,279.8 2697.1,282.3 2683.9,282.3 2683.9,258.8 
				2696.6,258.8 2696.6,261.4 2686.9,261.4 2686.9,268.8 2696.1,268.8 			"/>
		</g>
	</g>
	<g class="st0">
		<rect x="3395" y="120.1" class="st6" width="1488.2" height="1488.2"/>
		<g class="st2">
			<text transform="matrix(1 0 0 1 3747.2297 924.9572)"><tspan x="0" y="0" class="st4" style="font-family:'CastoBlack-Black'; font-size:174.4565px;">avantage</tspan><tspan x="180.3" y="133.8" class="st4" style="font-family:'CastoBlack-Black'; font-size:174.4565px;">carte</tspan></text>
		</g>
		
			<text transform="matrix(1.0071 0 0 1 3867.0032 1220.0393)" style="display:inline;fill:#FFFFFF; font-family:'CastoRegular'; font-size:69.7826px;">Carte castorama</text>
		
			<text transform="matrix(1 0 0 1 3825.8928 1289.8215)" style="display:inline;fill:#FFFFFF; font-family:'CastoBlack-Black'; font-size:69.7826px;">Bien accompagné, </text>
		
			<text transform="matrix(1 0 0 1 3797.9441 1359.6047)" style="display:inline;fill:#FFFFFF; font-family:'CastoBlack-Black'; font-size:69.7826px;">en avant les projets !</text>
		<g class="st2">
			<g>
				<path class="st4" d="M4345.6,538c-0.1-29.6-24.1-53.5-53.8-53.4l-8.1,0l30,83.1c5.6,15.6,4.9,32.4-2.2,47.4
					c-7,15-19.5,26.4-35.1,32l-196.5,71.1l212.5-0.6c29.6-0.1,53.5-24.2,53.4-53.8L4345.6,538z"/>
			</g>
			<path class="st4" d="M4297.9,573.4l-34.9-96.6l-273.3,98.8c-1.9,0.7-3.8,1-5.7,1c-6.9,0-13.4-4.3-15.9-11.2
				c-3.2-8.8,1.4-18.5,10.1-21.6l272-98.3c-8.3-12.3-22.2-20.2-37.4-20.2c-5.2,0-10.4,0.9-15.4,2.7l-235.3,85.1
				c-23.4,8.5-35.6,34.4-27.1,57.8l42.8,118.3c8.2,22.7,34.8,35.4,57.8,27.1l235.3-85.1c11.3-4.1,20.4-12.4,25.5-23.3
				C4301.5,597,4302,584.7,4297.9,573.4z"/>
		</g>
	</g>
</g>
<g id="Calque_2">
	<line class="st7" x1="1488" y1="1488.3" x2="1488" y2="0.1"/>
</g>
</svg>
