<?xml version="1.0" encoding="utf-8"?>
<!-- Generator: Adobe Illustrator 25.4.1, SVG Export Plug-In . SVG Version: 6.00 Build 0)  -->
<svg version="1.1" id="Calque_1" xmlns="http://www.w3.org/2000/svg" xmlns:xlink="http://www.w3.org/1999/xlink" x="0px" y="0px"
	 viewBox="0 0 400 49.9" style="enable-background:new 0 0 400 49.9;" xml:space="preserve">
<style type="text/css">
	.st0{fill:#005CB9;}
	.st1{fill:#FFD100;}
	.st2{fill:#1D1D1B;}
	.st3{fill:none;stroke:#005CB9;stroke-width:0.8288;stroke-linecap:round;stroke-miterlimit:10;}
</style>
<g>
	<g>
		<path class="st0" d="M153.7,31.7c-1.6,1.5-3.1,2.5-5.4,2.5c-3.4,0-5.8-2.6-5.8-6.4v-0.1c0-3.5,2.4-6.3,5.6-6.3
			c2.4,0,3.8,1,5.3,2.5l0.2,0.2l4.6-5l-0.2-0.2c-2.6-2.9-5.6-4.2-9.9-4.2c-3.6,0-6.9,1.3-9.4,3.8c-2.4,2.4-3.7,5.6-3.7,9.1v0.1
			c0,3.5,1.3,6.7,3.7,9.1c2.4,2.4,5.7,3.8,9.3,3.8c5.3,0,8-2.2,10.2-4.5l0.2-0.2l-4.5-4.5L153.7,31.7z M219.1,9.2h-7.4v6.2h-3v6.1h3
			v11.6c0,5.2,2.2,7.6,7.3,7.6c2.2,0,3.9-0.5,5.6-1.5l0.2-0.1v-6.1l-0.5,0.2c-1,0.6-2.1,0.8-3.2,0.8c-1.3,0-1.9-0.6-1.9-2V21.5h5.7
			v-6.1h-5.7L219.1,9.2L219.1,9.2z M239.4,14.9c-3.7,0-7.1,1.3-9.6,3.8c-2.5,2.4-3.9,5.6-3.9,9.1v0.1c0,3.5,1.4,6.7,3.8,9.1
			c2.5,2.4,5.9,3.7,9.6,3.7c3.7,0,7.1-1.3,9.6-3.8c2.5-2.4,3.9-5.6,3.9-9.1v-0.1c0-3.5-1.4-6.7-3.8-9.1
			C246.5,16.2,243.1,14.9,239.4,14.9 M245.3,27.9c0,3.7-2.4,6.3-5.9,6.3c-3.5,0-6.1-2.7-6.1-6.4v-0.1c0-3.7,2.4-6.3,6-6.3
			C242.7,21.5,245.3,24.2,245.3,27.9L245.3,27.9L245.3,27.9z M262.3,19.1v-3.8h-7.4v24.8h7.4v-9.5c0-5.4,2.4-8.2,7.1-8.2h0.7v-7.5
			h-0.3C266.4,14.7,264,16.1,262.3,19.1 M329.2,14.9c-3.1,0-5.7,1.2-7.9,3.6c-1.4-2.3-3.8-3.6-6.9-3.6c-3.3,0-5.4,1.6-6.8,3.3v-2.8
			h-7.4v24.8h7.4V26.1c0-3,1.4-4.6,3.8-4.6c3,0,3.8,2.5,3.8,4.6v14.1h7.4V26.1c0-3,1.4-4.6,3.9-4.6c3.1,0,3.7,2.5,3.7,4.6v14.1h7.4
			V24.1C337.6,18.3,334.6,14.9,329.2,14.9 M177,18.3c-1.6-2-4.1-3.3-6.9-3.3c-6.2,0-11.7,5.8-11.7,12.9v0.1c0,7,5.3,12.8,11.7,12.8
			c2.9,0,5.4-1.4,6.9-3.4v2.9h7.4V15.3H177V18.3L177,18.3z M177.3,27.9c0,3.7-2.4,6.3-5.7,6.3c-3.3,0-5.8-2.7-5.8-6.4v-0.1
			c0-3.7,2.3-6.3,5.7-6.3C174.8,21.5,177.3,24.2,177.3,27.9L177.3,27.9z M289.5,18.3c-1.6-2-4.1-3.3-6.9-3.3
			c-6.2,0-11.7,5.8-11.7,12.9v0.1c0,7,5.3,12.8,11.7,12.8c2.9,0,5.3-1.4,6.9-3.4v2.9h7.4V15.3h-7.4V18.3z M289.8,27.9
			c0,3.7-2.3,6.3-5.7,6.3c-3.3,0-5.8-2.7-5.8-6.4v-0.1c0-3.7,2.3-6.3,5.7-6.3C287.3,21.5,289.8,24.2,289.8,27.9L289.8,27.9
			L289.8,27.9z M358.2,15.3v2.9c-1.6-2-4-3.3-6.9-3.3c-6.3,0-11.7,5.8-11.7,12.9v0.1c0,7,5.3,12.8,11.7,12.8c2.9,0,5.3-1.4,6.9-3.4
			v2.9h7.4V15.3H358.2z M358.5,27.9c0,3.7-2.4,6.3-5.7,6.3c-3.3,0-5.8-2.7-5.8-6.4v-0.1c0-3.7,2.4-6.3,5.7-6.3
			C356,21.5,358.5,24.2,358.5,27.9L358.5,27.9z M194.7,22.7c0-1,1.1-1.3,2.2-1.3c3.4,0,6.6,2.1,6.6,2.1l3.1-5.7l-0.3-0.1
			c-2.7-1.8-6.2-2.9-9.3-2.9c-3.4,0-9.8,2.1-9.8,7.7c0,8.7,12.9,7.1,12.9,10.4c0,1-1.2,1.2-2.6,1.2c-4.1,0-7.6-2.7-7.6-2.7l-3.5,5.3
			l0.2,0.2c3.1,2.4,6.9,3.8,10.7,3.8c6.1,0,10.2-4,10.2-7.7C207.6,24.7,194.7,25.7,194.7,22.7"/>
		<path class="st1" d="M393.6,21.5c3.5,0,6.4,2.8,6.4,6.3s-2.9,6.4-6.4,6.4h-14.9c-3.5,0-6.4-2.8-6.4-6.4s2.9-6.3,6.4-6.3H393.6z"/>
	</g>
	<g>
		<polygon class="st2" points="8.9,0 3.7,0 7.8,11.5 1.5,11.5 0,15.5 9.3,15.5 11.8,22.2 17,22.2 		"/>
		<polygon class="st2" points="58,0 56.2,5 65.6,5 65.6,14.9 71,12.9 71,0 71,0 		"/>
		<polygon class="st2" points="14.7,0 35.6,0 33.8,5 26.5,5 26.5,22.2 21.1,22.2 21.1,5 14.7,5 		"/>
		<g>
			<g>
				<g>
					<g>
						<path class="st2" d="M65.5,30.1l1.5-5.4h1.5l1.5,5.4h-1.2l-0.3-1.2H67l-0.3,1.2H65.5z M67.7,25.7L67.7,25.7L67.2,28h1.1
							L67.7,25.7z"/>
					</g>
				</g>
				<g>
					<g>
						<path class="st2" d="M71.2,24.7h0.7v3.5c0,1.2,0.4,1.5,1,1.5c0.7,0,1-0.3,1-1.5v-3.5h0.7v3.4c0,1.5-0.6,2.1-1.7,2.1
							c-1.1,0-1.7-0.6-1.7-2.1L71.2,24.7L71.2,24.7z"/>
					</g>
				</g>
				<g>
					<g>
						<path class="st2" d="M79.3,24.7v0.6h-1.4V30h-0.7v-4.8h-1.4v-0.6C75.8,24.7,79.3,24.7,79.3,24.7z"/>
					</g>
				</g>
				<g>
					<g>
						<path class="st2" d="M80.6,28.1v-1.8c0-1.1,0.6-1.8,1.7-1.8c1.1,0,1.7,0.7,1.7,1.8v1.8c0,1.5-0.6,2.1-1.7,2.1
							S80.6,29.6,80.6,28.1z M83.3,28.1v-1.8c0-1.1-0.8-1.2-1-1.2c-0.2,0-1,0-1,1.2v1.8c0,1.2,0.3,1.5,1,1.5
							C82.9,29.6,83.3,29.3,83.3,28.1z"/>
					</g>
				</g>
				<g>
					<g>
						<path class="st2" d="M86.4,27.6V30h-0.7v-5.4h1.9c0.9,0,1.3,0.7,1.3,1.3c0,0.6-0.3,1.1-1,1.2v0c0.6,0.1,0.8,0.3,0.9,1.4
							c0,0.2,0.1,1.1,0.2,1.4h-0.7C88,29.7,88.1,29,88,28.2c-0.1-0.6-0.6-0.7-0.8-0.7L86.4,27.6L86.4,27.6z M86.4,27h1
							c0.5,0,0.7-0.4,0.7-0.9c0-0.4-0.2-0.8-0.7-0.8h-1V27L86.4,27z"/>
					</g>
				</g>
				<g>
					<g>
						<path class="st2" d="M91.2,30.1h-0.7v-5.4h0.7V30.1z"/>
					</g>
				</g>
				<g>
					<g>
						<path class="st2" d="M93.6,28.4v0.2c0,0.7,0.5,1,0.9,1c0.6,0,1-0.2,1-0.9c0-1.2-2.4-1.1-2.4-2.7c0-1,0.7-1.5,1.6-1.5
							c1,0,1.5,0.5,1.5,1.6h-0.7c0-0.6-0.2-1-0.8-1c-0.4,0-0.8,0.2-0.8,0.8c0,1.2,2.4,1,2.4,2.7c0,1.1-0.8,1.5-1.7,1.5
							c-1.6,0-1.6-1.2-1.6-1.7L93.6,28.4L93.6,28.4z"/>
					</g>
				</g>
				<g>
					<g>
						<path class="st2" d="M97.8,30.1v-5.4h2.8v0.6h-2.1V27h1.9v0.6h-1.9v1.9h2.1v0.6C100.6,30.1,97.8,30.1,97.8,30.1z"/>
					</g>
				</g>
			</g>
		</g>
		<g>
			<g>
				<g>
					<g>
						<path class="st2" d="M69.2,34.4v0.9H68v4.5h-1.1v-4.5h-1.2v-0.9C65.6,34.4,69.2,34.4,69.2,34.4z"/>
					</g>
				</g>
				<g>
					<g>
						<path class="st2" d="M70.4,37.8V36c0-1.1,0.6-1.8,1.7-1.8c1.1,0,1.7,0.7,1.7,1.8v1.8c0,1.5-0.6,2.1-1.7,2.1
							C70.9,39.9,70.4,39.3,70.4,37.8z M73.1,37.8V36c0-1.1-0.8-1.2-1-1.2c-0.2,0-1,0-1,1.2v1.8c0,1.2,0.3,1.5,1,1.5
							S73.1,39,73.1,37.8z"/>
					</g>
				</g>
				<g>
					<g>
						<path class="st2" d="M75.5,34.4h0.7v3.5c0,1.2,0.4,1.5,1,1.5s1-0.3,1-1.5v-3.5h0.7v3.4c0,1.5-0.6,2.1-1.7,2.1
							c-1.1,0-1.7-0.6-1.7-2.1L75.5,34.4L75.5,34.4z"/>
					</g>
				</g>
				<g>
					<g>
						<path class="st2" d="M83.7,34.4V35h-1.4v4.8h-0.7V35h-1.4v-0.6H83.7z"/>
					</g>
				</g>
				<g>
					<g>
						<path class="st2" d="M84.9,39.7v-5.4h2.8V35h-2.1v1.7h1.9v0.6h-1.9v1.9h2.1v0.6C87.8,39.7,84.9,39.7,84.9,39.7z"/>
					</g>
				</g>
			</g>
		</g>
		<g>
			<g>
				<g>
					<g>
						<path class="st2" d="M49.2,46.9c0-1.4,0-2.8,1.9-2.8c1.2,0,1.6,0.6,1.6,1.8h-1.1c0-0.7-0.1-1-0.5-1c-0.6,0-0.7,0.6-0.7,2
							s0.1,2,0.7,2c0.5,0,0.5-0.7,0.5-1.1h1.1c0,1.4-0.6,1.9-1.6,1.9C49.2,49.6,49.2,48.3,49.2,46.9z"/>
					</g>
				</g>
				<g>
					<g>
						<path class="st2" d="M54.8,47.1v2.5h-0.7v-5.4h1.9c1,0,1.3,0.7,1.3,1.3c0,0.6-0.3,1.1-1,1.2v0c0.6,0.1,0.8,0.3,0.9,1.4
							c0,0.2,0.1,1.1,0.2,1.4h-0.7c-0.2-0.4-0.2-1.1-0.2-1.8c0-0.7-0.6-0.7-0.8-0.7L54.8,47.1L54.8,47.1z M54.8,46.5h1
							c0.5,0,0.7-0.4,0.7-0.9c0-0.4-0.2-0.8-0.7-0.8h-1C54.8,44.8,54.8,46.5,54.8,46.5z"/>
					</g>
				</g>
				<g>
					<g>
						<path class="st2" d="M58.8,49.6v-5.4h2.8v0.6h-2.1v1.7h1.9v0.6h-1.9V49h2.1v0.6C61.6,49.6,58.8,49.6,58.8,49.6z M61,42.6l-1,1
							h-0.5l0.7-1H61z"/>
					</g>
				</g>
				<g>
					<g>
						<path class="st2" d="M64.3,44.2h0.9l1.8,5.4h-0.8l-0.4-1.3h-2.1l-0.4,1.3h-0.7L64.3,44.2z M64.7,44.8L64.7,44.8l-0.9,2.9h1.7
							L64.7,44.8z"/>
					</g>
				</g>
				<g>
					<g>
						<path class="st2" d="M70.7,44.2v0.6h-1.4v4.8h-0.7v-4.8h-1.4v-0.6H70.7z"/>
					</g>
				</g>
				<g>
					<g>
						<path class="st2" d="M72.7,49.6H72v-5.4h0.7V49.6z"/>
					</g>
				</g>
				<g>
					<g>
						<path class="st2" d="M76.5,49.6h-0.8l-1.6-5.4h0.8l1.2,4.7h0l1.3-4.7H78L76.5,49.6z"/>
					</g>
				</g>
				<g>
					<g>
						<path class="st2" d="M80.1,49.6h-0.7v-5.4h0.7V49.6z"/>
					</g>
				</g>
				<g>
					<g>
						<path class="st2" d="M84.9,44.2v0.6h-1.4v4.8h-0.7v-4.8h-1.4v-0.6H84.9z"/>
					</g>
				</g>
				<g>
					<g>
						<path class="st2" d="M86.2,49.6v-5.4H89v0.6h-2.1v1.7h1.9v0.6h-1.9V49H89v0.6C89,49.6,86.2,49.6,86.2,49.6z M88.4,42.6l-1,1
							h-0.5l0.7-1H88.4z"/>
					</g>
				</g>
			</g>
		</g>
		<path class="st2" d="M24.9,44.3c-3.4,0-6.2-2.6-6.2-5.9c0-3.2,2.8-5.9,6.2-5.9c0.5,0,1.1,0.1,1.6,0.2V27c-0.5-0.1-1-0.1-1.6-0.1
			c-6.5,0-11.8,5.2-11.8,11.5c0,6.3,5.3,11.5,11.8,11.5c0.5,0,1.1,0,1.6-0.1v-5.7C26,44.2,25.5,44.3,24.9,44.3z"/>
	</g>
	<line class="st3" x1="119.8" y1="0.9" x2="119.8" y2="48.7"/>
</g>
</svg>
